<?xml version="1.0" standalone="no"?>
<!DOCTYPE svg PUBLIC "-//W3C//DTD SVG 1.1//EN" "http://www.w3.org/Graphics/SVG/1.1/DTD/svg11.dtd" >
<svg>
<metadata>
Created by FontForge 20110222 at Mon Apr 21 08:01:38 2014
 By Orthosie Webhosting
(c) 2012 Microsoft Corporation. All Rights Reserved. Designed by Luc(as) de Groot
</metadata>
<defs>
<font id="CalibriLightLight" horiz-adv-x="0" >
  <font-face 
    font-family="CalibriLightLight"
    font-weight="200"
    font-stretch="normal"
    units-per-em="2048"
    panose-1="2 0 3 3 0 0 0 0 0 0"
    ascent="1536"
    descent="-512"
    x-height="946"
    cap-height="1294"
    bbox="-1047 -550 2475 1950"
    underline-thickness="104"
    underline-position="-209"
    unicode-range="U+000D-FEFF"
  />
<missing-glyph horiz-adv-x="1038" 
d="M973 1294v-1294h-927v1294h927zM897 70v1154h-778v-1154h778zM760 860q0 -60 -18 -107t-50 -79q-34 -32 -77 -50q-43 -16 -96 -18l-5 -170q0 -7 -11 -12q-11 -3 -32 -3q-12 0 -17 1l-12 3q-5 1 -8 5q-2 2 -2 6l-4 200q0 22 13 34q15 10 34 10h20q52 0 81 14q32 12 53 36
q20 23 29 55q8 34 8 68q0 79 -44 126q-43 46 -142 46q-40 0 -70 -9q-20 -5 -56 -18q-6 -3 -14.5 -7t-14.5 -7t-11 -6q-18 -8 -23 -8q-4 0 -7 2q-3 0 -6 6l-4 12q0 2 -0.5 8t-0.5 11q0 12 3 21q1 9 10 18q7 7 27 16q16 9 47 19q30 9 62 15q31 7 66 7q70 0 120 -19
q52 -20 84 -52q34 -33 51 -78q17 -46 17 -96zM536 267q0 -18 -3 -30q-3 -14 -10 -19q-7 -8 -19 -11q-11 -3 -28 -3q-18 0 -30 3t-20 11q-7 7 -10 19t-3 30t3 30t10 19q8 8 20 11t30 3q17 0 28 -3q12 -3 19 -11q7 -5 10 -19q3 -12 3 -30z" />
    <glyph glyph-name=".notdef" horiz-adv-x="1038" 
d="M973 1294v-1294h-927v1294h927zM897 70v1154h-778v-1154h778zM760 860q0 -60 -18 -107t-50 -79q-34 -32 -77 -50q-43 -16 -96 -18l-5 -170q0 -7 -11 -12q-11 -3 -32 -3q-12 0 -17 1l-12 3q-5 1 -8 5q-2 2 -2 6l-4 200q0 22 13 34q15 10 34 10h20q52 0 81 14q32 12 53 36
q20 23 29 55q8 34 8 68q0 79 -44 126q-43 46 -142 46q-40 0 -70 -9q-20 -5 -56 -18q-6 -3 -14.5 -7t-14.5 -7t-11 -6q-18 -8 -23 -8q-4 0 -7 2q-3 0 -6 6l-4 12q0 2 -0.5 8t-0.5 11q0 12 3 21q1 9 10 18q7 7 27 16q16 9 47 19q30 9 62 15q31 7 66 7q70 0 120 -19
q52 -20 84 -52q34 -33 51 -78q17 -46 17 -96zM536 267q0 -18 -3 -30q-3 -14 -10 -19q-7 -8 -19 -11q-11 -3 -28 -3q-18 0 -30 3t-20 11q-7 7 -10 19t-3 30t3 30t10 19q8 8 20 11t30 3q17 0 28 -3q12 -3 19 -11q7 -5 10 -19q3 -12 3 -30z" />
    <glyph glyph-name="glyph1" 
 />
    <glyph glyph-name="uni000D" unicode="&#xd;" 
 />
    <glyph glyph-name="space" unicode=" " horiz-adv-x="463" 
 />
    <glyph glyph-name="exclam" unicode="!" horiz-adv-x="667" 
d="M425 345q0 -7 -3 -11q-2 -5 -8 -8q-4 -3 -18 -6q-2 0 -11 -0.5t-14 -0.5t-14 0.5t-11 0.5q-14 3 -18 6q-6 3 -8 8q-3 5 -3 11l-13 979q0 10 2 20q3 9 10 14q10 7 21 8q18 2 34 2q15 0 33 -2q13 -3 20 -8t11 -14q3 -7 3 -20zM456 89q0 -30 -4 -47q-3 -19 -13 -29
q-13 -13 -27 -15q-12 -5 -41 -5q-28 0 -43 5q-14 3 -26 15q-9 10 -12 29q-4 17 -4 47t4 47q3 18 12 30q13 11 26 14q15 5 43 5q29 0 41 -5q13 -2 27 -14q10 -12 13 -30q4 -17 4 -47z" />
    <glyph glyph-name="quotedbl" unicode="&#x22;" horiz-adv-x="779" 
d="M608 897q0 -5 -2 -11q-4 -5 -9 -8q-7 -4 -15 -5q-12 -2 -22 -2q-11 0 -23 2q-7 1 -15 5q-5 3 -8 8q-2 6 -2 11l-23 473q0 7 5 11q2 3 12 9q12 4 22 4q10 2 32 2q24 0 32 -2q12 0 22 -4q9 -4 12 -9q4 -4 4 -11zM267 897q0 -7 -3 -11q-2 -5 -8 -8q-8 -4 -15 -5
q-12 -2 -22 -2q-11 0 -23 2q-9 1 -14 5q-6 3 -8 8q-3 4 -3 11l-23 473q0 5 4 11q8 6 14 9q10 4 22 4q8 2 31 2q39 0 55 -6q15 -8 15 -20z" />
    <glyph glyph-name="numbersign" unicode="#" horiz-adv-x="1020" 
d="M979 886q0 -13 -3 -22q-1 -10 -6 -16q-4 -7 -10 -10t-13 -3h-139l-44 -357h126q15 0 22 -13q9 -13 9 -39q0 -13 -3 -22q-1 -10 -6 -16q-4 -7 -10 -10q-4 -3 -12 -3h-141l-44 -358q-1 -2 -2 -5.5t-1 -5.5q-2 -4 -8 -7q-4 -2 -17 -4q-7 -1 -30 -1t-31 1q-14 2 -20 4
q-5 2 -10 7q-3 6 -2 11l45 358h-308l-45 -358q0 -2 -1 -5.5t-2 -5.5q-2 -4 -7 -7q-4 -2 -17 -4q-7 -1 -30 -1t-31 1q-14 2 -20 4q-5 2 -10 7q-3 6 -2 11l44 358h-128q-15 0 -22 13q-9 12 -9 38q0 13 3 22q1 10 6 16q4 7 10 10q4 4 12 4h143l45 357h-132q-14 0 -23 13
q-9 14 -9 38q0 26 9 39t23 13h145l44 338q0 7 3 10q2 5 10 8q10 4 19 4q8 2 31 2t30 -2q10 0 18 -4q7 -3 8 -8q2 -4 2 -10l-45 -338h308l42 338q2 8 4 10q2 5 9 8q10 4 19 4q8 2 31 2t31 -2q10 0 18 -4q7 -3 8 -8q2 -5 1 -10l-43 -338h126q14 0 23 -13t9 -39zM380 835
l-44 -357h307l45 357h-308z" />
    <glyph glyph-name="dollar" unicode="$" horiz-adv-x="1038" 
d="M921 352q0 -77 -30 -140q-29 -62 -86 -110q-55 -46 -138 -72q-83 -27 -185 -30l-22 -219q-2 -8 -3 -11q-1 -4 -7 -8q-7 -4 -16 -5q-16 -2 -28 -2q-16 0 -28 2q-9 1 -17 5q-6 3 -8 8q-2 6 -1 11l24 223q-54 6 -94 16q-39 8 -74 20q-25 8 -55 22q-21 11 -32 22
q-10 10 -13 24q-4 13 -4 38q0 18 2 26q0 8 5 18q6 8 10 10q5 4 14 4q12 0 37 -14q24 -16 62 -32q44 -20 98 -32q58 -15 140 -15q156 0 239 63q82 61 82 171q0 67 -28 110q-30 45 -75 75q-42 29 -105 52q-29 11 -121 44q-53 19 -120 47q-60 27 -104 65q-46 39 -75 98
q-28 56 -28 141q0 63 22 119q23 56 67 98q47 43 116 68q74 28 168 32l20 202q2 8 3 11t7 9q8 4 16 4q7 2 28 2t28 -2q9 0 17 -4q7 -5 7 -9q2 -3 2 -11l-23 -206q19 -2 64 -10q52 -14 63 -18q31 -10 52 -21q24 -12 32 -20q9 -7 12 -14q4 -8 5 -13q2 -10 3 -16t1 -19
q0 -17 -1 -23q-1 -12 -4 -18q-3 -7 -8 -11q-3 -4 -11 -4q-11 0 -33 13q-21 12 -60 28q-36 14 -86 28q-46 13 -108 13q-75 0 -128 -15t-86 -42q-33 -26 -48 -63t-15 -81q0 -68 29 -112q26 -42 74 -74q47 -31 106 -52q40 -14 122 -42q82 -30 122 -48q55 -23 106 -64
q49 -44 74 -98q29 -55 29 -142z" />
    <glyph glyph-name="percent" unicode="%" horiz-adv-x="1448" 
d="M614 973q0 -76 -17 -139q-17 -64 -51 -107q-33 -43 -84 -69q-51 -24 -119 -24q-67 0 -117 22t-82 64t-48 105q-16 61 -16 146q0 75 16 133q16 63 49 107q32 43 84 71q53 25 120 25q74 0 125 -27q50 -25 82 -72q32 -46 44 -106q14 -57 14 -129zM505 968q0 58 -9 104
t-28 78q-20 31 -50 48q-32 16 -73 16t-69 -16q-30 -15 -49 -46q-19 -29 -28 -74q-9 -44 -9 -101q0 -66 10 -121q13 -51 32 -76q18 -28 50 -41q30 -12 69 -12q46 0 75 17q30 18 48 50q16 31 24 76q7 41 7 98zM1368 326q0 -75 -17 -140q-17 -63 -51 -106q-34 -44 -84 -68
q-50 -25 -119 -25q-66 0 -117 21q-50 24 -82 64q-32 44 -48 106q-16 61 -16 146q0 73 16 134q17 63 49 106q34 47 84 70q49 26 120 26q73 0 125 -26q50 -27 82 -72q32 -48 44 -107q14 -57 14 -129zM1259 321q0 57 -9 104q-9 48 -28 77q-20 34 -50 48q-28 17 -73 17
q-41 0 -69 -15q-30 -16 -49 -46t-28 -75q-9 -43 -9 -101q0 -67 10 -120q12 -49 32 -78q20 -28 50 -40t69 -12q47 0 75 18q29 16 48 49q16 31 24 76q7 41 7 98zM326 -17q-5 -6 -10 -9q-4 -4 -13 -6q-6 -2 -19 -4q-6 -1 -25 -1q-15 0 -26 3q-10 4 -14 10q-4 7 -3 16q2 11 8 19
l888 1303q4 6 10 10q4 4 13 6q6 2 19 4q6 1 25 1q15 0 26 -3q9 -4 15 -10q4 -10 2 -16q0 -8 -8 -19z" />
    <glyph glyph-name="ampersand" unicode="&#x26;" horiz-adv-x="1372" 
d="M122 330q0 53 14 104q13 48 46 98q31 46 85 92q50 45 130 93q-50 69 -71 104q-31 48 -48 85q-19 39 -27 74q-8 37 -8 71q0 59 19 112q20 55 62 96q43 43 110 67q66 26 167 26q79 0 137 -19q60 -21 97 -53q40 -35 59 -82q20 -48 20 -104q0 -58 -18 -106q-19 -49 -61 -95
q-40 -45 -109 -93q-75 -51 -166 -101q38 -47 81 -96t92 -101q16 -17 49 -50t49 -50q51 -49 100 -94q23 31 43 70q19 37 33 82q16 55 21 90q8 41 8 93v39q0 7 2 15q3 5 9 10q7 5 17 5q8 2 30 2h26q13 -2 20 -4q7 -4 11 -10q4 -7 4 -20v-20q0 -64 -11 -118q-8 -51 -28 -111
q-20 -55 -46 -103t-60 -91q19 -15 48.5 -38t39.5 -31q53 -36 65 -44q26 -16 44 -24q15 -7 28 -7t19 1q7 1 14 -2q5 -2 8 -10q3 -9 3 -28q0 -23 -1 -31q0 -10 -2 -18q-1 -4 -7 -10q-4 -4 -19 -7q-12 -3 -39 -3q-15 0 -43 7q-31 12 -56 27q-38 22 -76 51q-29 21 -102 82
q-40 -36 -84 -66q-38 -27 -96 -54q-56 -23 -108 -34q-56 -13 -125 -13q-60 0 -115 11q-53 10 -98 32q-44 21 -80 52q-35 31 -58 68q-22 38 -36 84q-12 47 -12 98zM369 1064q0 -27 8 -61q7 -31 25 -65q12 -29 41 -74q36 -54 59 -87q78 45 136 84q53 36 88 74q33 35 49 71
q15 36 15 77q0 33 -12 61q-11 31 -36 53q-28 24 -64 37q-40 14 -94 14q-59 0 -100 -16t-66 -41q-26 -26 -38 -59q-11 -35 -11 -68zM250 349q0 -57 18 -104q21 -50 56 -81q34 -34 90 -54q54 -19 126 -19q49 0 92 10q43 11 83 27q41 18 75 42q38 27 65 52q-74 66 -111 102
q-45 43 -105 106q-47 48 -98 106q-43 48 -87 104q-60 -39 -98 -72q-40 -37 -62 -72q-23 -35 -34 -72q-10 -34 -10 -75zM0 1294z" />
    <glyph glyph-name="quotesingle" unicode="'" horiz-adv-x="438" 
d="M267 897q0 -7 -3 -11q-2 -5 -8 -8q-8 -4 -15 -5q-12 -2 -22 -2q-11 0 -23 2q-9 1 -14 5q-6 3 -8 8q-3 4 -3 11l-23 473q0 5 4 11q8 6 14 9q10 4 22 4q8 2 31 2t33 -2q10 0 22 -4q8 -4 12 -9q3 -4 3 -11z" />
    <glyph glyph-name="parenleft" unicode="(" horiz-adv-x="612" 
d="M473 1383q-102 -206 -149 -418q-48 -215 -48 -425q0 -217 50 -426q47 -209 145 -420q3 -6 5 -16q0 -6 -4 -10q-6 -6 -15 -7q-14 -2 -27 -2q-15 0 -22 1q-12 2 -16 3q-7 1 -13 5q-6 6 -8 9q-56 104 -95 204q-44 109 -70 212q-28 101 -44 219q-14 115 -14 224q0 116 16 224
q17 114 46 220q26 100 70 213q42 105 93 207q2 4 4 6q7 4 9 4q8 4 16 4q8 2 28 2q12 0 24 -2q11 -3 16 -7q5 -5 6 -11q0 -6 -3 -13z" />
    <glyph glyph-name="parenright" unicode=")" horiz-adv-x="612" 
d="M463 536q0 -113 -15 -224q-12 -99 -42 -219q-32 -114 -70 -212q-39 -100 -95 -204q-2 -3 -8 -9q-6 -4 -13 -5q-4 -1 -16 -3q-7 -1 -22 -1q-14 0 -28 2q-11 2 -14 7q-6 3 -4 10q2 10 5 16q96 202 146 419q49 212 49 427q0 210 -48 425q-50 217 -149 418q-3 7 -3 13
q1 6 6 11q5 4 16 7q12 2 24 2q20 0 26 -2q8 0 18 -4q5 -1 8 -4q4 -4 5 -6q100 -198 163 -420q61 -217 61 -444z" />
    <glyph glyph-name="asterisk" unicode="*" horiz-adv-x="1020" 
d="M831 933q11 -6 11 -20q-2 -14 -21 -47q-18 -32 -31 -41q-12 -7 -22 0l-221 152l22 -267q1 -13 -11 -20q-14 -6 -52 -6t-52 6q-12 7 -11 20l22 267l-220 -152q-10 -7 -22 0q-14 9 -32 41q-20 34 -20 47q0 14 11 20l243 115l-243 114q-11 6 -11 20q0 13 20 47q18 32 32 41
q12 7 22 0l220 -152l-22 267q-1 13 11 19q13 7 52 7t52 -7q12 -6 11 -19l-22 -267l221 152q10 7 22 0q13 -9 31 -41q19 -33 21 -47q0 -14 -11 -20l-243 -114z" />
    <glyph glyph-name="plus" unicode="+" horiz-adv-x="1020" 
d="M940 577q0 -13 -2 -25q-3 -11 -8 -18q-3 -7 -12 -12q-6 -3 -13 -3h-338v-378q0 -5 -3 -11q-5 -5 -10 -8q-10 -4 -18 -5q-12 -2 -26 -2q-12 0 -26 2q-9 1 -18 5q-5 3 -10 8q-4 5 -4 11v378h-337q-8 0 -14 3q-8 6 -11 12q-5 7 -8 18q-2 12 -2 25q0 11 2 23q2 8 8 18
q4 6 11 10q5 4 14 4h337v378q0 8 4 12q3 6 10 10q8 4 18 6q14 2 26 2q14 0 26 -2q10 -1 18 -6q7 -4 10 -10q3 -4 3 -12v-378h338q8 0 13 -4q8 -3 12 -10q6 -10 8 -18q2 -12 2 -23z" />
    <glyph glyph-name="comma" unicode="," horiz-adv-x="501" 
d="M343 121q0 -27 -3 -49q-1 -20 -8 -42q-7 -24 -16 -40q-13 -23 -25 -42l-139 -213q-3 -4 -10 -11q-6 -4 -12 -7q-3 -1 -9.5 -2.5t-8.5 -2.5q-3 0 -11.5 -0.5t-13.5 -0.5q-14 0 -19 1q-9 2 -12 4q-3 3 -4 8q0 4 4 11l139 274v112q0 24 4 35q4 14 13 21t23 9q14 3 34 3
q19 0 33 -3q14 -2 23 -9q11 -9 13 -21q5 -10 5 -35z" />
    <glyph glyph-name="hyphen" unicode="-" horiz-adv-x="627" 
d="M552 506q0 -27 -8 -40q-8 -10 -21 -10h-419q-13 0 -22 11q-8 11 -8 39t8 39q9 11 22 11h419q5 0 11 -2q5 -3 10 -9q4 -6 6 -15q2 -14 2 -24z" />
    <glyph glyph-name="period" unicode="." horiz-adv-x="501" 
d="M336 90q0 -59 -19 -78t-68 -19q-47 0 -65 19q-19 18 -19 76q0 59 19 78t68 19q47 0 66 -19q18 -18 18 -76z" />
    <glyph glyph-name="slash" unicode="/" horiz-adv-x="742" 
d="M122 -232q-5 -12 -10 -19q-2 -4 -12 -11l-18 -6q-4 0 -12.5 -0.5t-13.5 -0.5q-16 0 -26 3q-10 2 -19 8q-5 4 -9 14q0 11 4 20l610 1648q4 11 9 19q4 6 13 11q2 1 18 6q3 0 12 0.5t14 0.5q16 0 26 -3q9 -3 18 -8q6 -6 8 -14q2 -11 -2 -20z" />
    <glyph glyph-name="zero" unicode="0" horiz-adv-x="1038" 
d="M959 649q0 -144 -23 -268q-22 -118 -76 -211q-54 -87 -140 -138q-89 -49 -214 -49q-118 0 -198 43q-82 42 -132 126q-50 82 -74 208q-22 129 -22 285q0 143 23 267q22 119 76 212q52 86 139 138q89 49 214 49q118 0 198 -43q82 -42 133 -126q53 -86 73 -208
q23 -118 23 -285zM831 638q0 86 -7 180q-10 90 -24 143q-17 67 -40 109q-25 48 -60 78q-33 30 -78 44q-44 15 -99 15q-99 0 -161 -47q-59 -44 -96 -123q-34 -80 -46 -176q-12 -99 -12 -205q0 -145 17 -256q17 -107 54 -176q37 -70 95 -104q58 -33 141 -33q65 0 115 21
q49 21 84 59q36 40 58 90q23 54 36 113q14 62 18 129q5 75 5 139z" />
    <glyph glyph-name="one" unicode="1" horiz-adv-x="1038" 
d="M918 50q0 -14 -3 -24q-3 -8 -8 -15q-4 -6 -11 -9q-8 -2 -12 -2h-656q-4 0 -12 2q-6 4 -10 9q-5 7 -8 15q-3 10 -3 24q0 12 3 22q1 6 6 16q6 8 11 10q5 4 13 4h287v1062l-274 -167q-17 -11 -26 -11q-9 -2 -16 3q-6 5 -8 17q-2 14 -2 27q0 16 1 23q2 10 4 16q3 9 8 12
q4 6 11 10l310 198q1 0 2 1l6 3l12 4q5 0 15 2h19q13 0 29 -2q9 -1 19 -5q6 -3 10 -8q3 -5 3 -11v-1174h246q7 0 14 -4q8 -4 10 -10q5 -5 8 -16q2 -14 2 -22z" />
    <glyph glyph-name="two" unicode="2" horiz-adv-x="1038" 
d="M907 56q0 -13 -3 -22q-1 -8 -6 -18q-5 -8 -12 -12t-16 -4h-699q-9 0 -17 3t-14 9q-6 8 -9 18t-3 26t1 23q2 12 4 18q3 8 8 16q3 5 13 17l265 280q103 107 157 186q56 77 90 148q31 64 40 120q10 51 10 102q0 48 -16 92t-45 76q-29 31 -75 52q-46 19 -102 19
q-62 0 -113 -17q-55 -20 -87 -40q-25 -14 -63 -38q-25 -18 -37 -18q-6 0 -11 3t-9 9q-4 10 -4 17q-2 7 -2 23q0 15 1 20q2 10 3 14q1 7 6 13q2 4 14 16q13 11 40 27q32 19 69 34q42 18 93 30q49 13 106 13q92 0 158 -27q68 -27 113 -73t67 -107q22 -59 22 -127
q0 -56 -10 -123q-13 -68 -46 -134q-30 -68 -100 -161q-61 -84 -174 -203l-236 -247h592q8 0 15 -3q8 -5 12 -11q6 -10 7 -17q3 -11 3 -22z" />
    <glyph glyph-name="three" unicode="3" horiz-adv-x="1038" 
d="M894 365q0 -85 -28 -154q-27 -70 -81 -121q-53 -50 -135 -79q-80 -28 -187 -28q-62 0 -120 11q-56 11 -99 26q-46 15 -73 31q-31 18 -36 22t-11 12q-1 2 -3 6.5t-3 6.5q-2 12 -4 20q0 3 -0.5 12t-0.5 15q0 31 7 41q6 11 17 11q8 0 37 -17q31 -19 70 -37q54 -24 102 -37
q59 -17 127 -17q73 0 126 19q56 20 91 54q35 31 56 82q18 46 18 103q0 59 -24 109q-24 49 -69 83t-110 54q-63 19 -146 19h-128q-5 0 -13 3q-6 3 -12 9q-6 10 -8 17q-4 9 -4 25q0 13 3 22q2 9 8 16q4 6 11 10q8 3 15 3h113q72 0 126 19q56 19 97 54q40 36 61 86
q22 47 22 110q0 43 -14 85q-15 41 -44 70q-28 31 -72 47q-43 17 -101 17q-61 0 -111 -18q-52 -19 -88 -39q-40 -23 -64 -40q-24 -18 -34 -18q-5 0 -11 2q-4 1 -9 8q-4 8 -4 16q-2 8 -2 28q0 14 1 20q2 10 4 15q3 8 7 13q4 8 13 16q10 10 37 27q30 19 68 35q47 19 93 29
q53 12 111 12q90 0 154 -24q65 -24 109 -66q43 -41 64 -99t21 -125q0 -59 -16 -115q-18 -55 -49 -96q-32 -41 -79 -69q-42 -27 -106 -38v-2q65 -6 124 -32q54 -25 98 -67q42 -42 64 -96q24 -54 24 -117z" />
    <glyph glyph-name="four" unicode="4" horiz-adv-x="1038" 
d="M970 365q0 -24 -10 -37q-9 -15 -27 -15h-164v-293q0 -6 -3 -11q-4 -5 -10 -8q-9 -4 -18 -5q-16 -2 -30 -2t-28 2q-9 1 -19 5q-7 3 -9 8q-3 5 -3 11v293h-556q-8 0 -16 3q-6 1 -13 8q-6 7 -8 16q-2 14 -2 25q0 16 1 23t3 19q4 12 8 17q1 4 10 19l501 829q5 8 13 12
q4 4 18 10q16 4 28 4q11 2 37 2q17 0 41 -2q18 -2 30 -6q12 -3 18 -9q7 -6 7 -13v-853h164q17 0 27 -13t10 -39zM649 1190h-2l-465 -773h467v773z" />
    <glyph glyph-name="five" unicode="5" horiz-adv-x="1038" 
d="M903 413q0 -105 -34 -183q-35 -80 -96 -135q-62 -56 -149 -83q-83 -29 -190 -29q-60 0 -114 9q-59 12 -96 22q-48 15 -68 26q-26 12 -34 18q-8 8 -10 12q-3 6 -4 10q-2 10 -3 16q-1 7 -1 23q0 15 2 22q0 7 4 17q4 7 9 10q4 4 11 4q10 0 32 -13q17 -11 58 -29
q36 -14 92 -28q52 -13 129 -13q69 0 132 17q60 18 106 56q42 35 71 96q25 63 25 142q0 72 -22 122q-22 54 -67 88q-47 36 -114 52q-70 17 -160 17q-65 0 -106 -7q-42 -6 -78 -6q-26 0 -38 12q-12 14 -12 49v508q0 28 16 43q15 16 41 16h551q8 0 15 -4q8 -3 12 -10
q6 -10 7 -17q3 -10 3 -23q0 -22 -9 -39q-10 -16 -28 -16h-495v-410q35 5 73 6q24 1 90 1q115 0 198 -28q87 -28 140 -76q55 -47 84 -117q27 -67 27 -148z" />
    <glyph glyph-name="six" unicode="6" horiz-adv-x="1038" 
d="M947 412q0 -78 -24 -155q-25 -78 -76 -137q-53 -62 -133 -99q-84 -38 -197 -38q-73 0 -135 19q-62 22 -104 56q-44 38 -74 90q-29 52 -49 123q-19 69 -27 151q-9 84 -9 179q0 90 10 173q11 89 34 164q24 80 63 147q42 70 99 117q58 50 139 78q77 29 185 29q43 0 74 -5
q32 -3 69 -11q35 -9 52 -16q21 -8 29 -15q6 -3 10 -10q4 -8 5 -12q2 -8 3 -14q1 -4 1 -17v-20q-2 -11 -4 -15q-1 -4 -7 -10q-4 -3 -13 -3q-12 0 -30 7q-15 6 -46 16q-23 8 -66 16q-36 7 -92 7q-100 0 -174 -42q-72 -42 -119 -113q-48 -73 -70 -164q-23 -95 -26 -195
q26 15 63 32q24 12 75 29q44 13 87 20q50 8 97 8q107 0 182 -29q72 -28 117 -79q44 -51 62 -118q19 -67 19 -144zM819 400q0 64 -13 115q-14 53 -44 89q-31 37 -82 58q-54 20 -128 20q-47 0 -84 -8q-40 -6 -82 -20q-39 -13 -76 -30q-31 -16 -63 -38q0 -142 19 -236
q18 -94 54 -154q36 -57 90 -84q55 -25 124 -25q76 0 128 29q54 27 89 74q36 47 51 100q17 54 17 110z" />
    <glyph glyph-name="seven" unicode="7" horiz-adv-x="1038" 
d="M936 1240q0 -16 -1 -22q-1 -4 -2 -11t-1 -11q-2 -12 -6 -20q-1 -5 -8 -23l-488 -1121q-3 -8 -11 -20q-7 -7 -15 -11q-10 -5 -22 -5q-9 -2 -32 -2q-22 0 -36 3q-13 3 -17 9q-6 7 -3 14q0 5 6 19l508 1146h-663q-18 0 -27 16q-10 16 -10 39q0 9 2 23q2 7 8 17q4 7 12 10
q5 4 15 4h745q13 0 22 -3q10 -3 14 -10q6 -10 8 -17q2 -14 2 -24z" />
    <glyph glyph-name="eight" unicode="8" horiz-adv-x="1038" 
d="M942 324q0 -82 -30 -146q-28 -63 -84 -106q-57 -45 -136 -66q-76 -23 -182 -23q-96 0 -172 21q-76 20 -132 60q-54 40 -84 98q-29 61 -29 135q0 64 22 117q25 57 63 96q35 39 98 82q77 46 132 72q-67 33 -114 68q-46 33 -84 77q-33 40 -50 87q-17 49 -17 100q0 62 23 120
q23 57 70 100q43 42 120 70q77 25 172 25q91 0 162 -23q69 -25 113 -64q44 -40 67 -93q22 -51 22 -111q0 -54 -18 -102q-18 -49 -52 -92q-37 -47 -84 -80q-44 -36 -113 -71q88 -43 137 -75q57 -35 99 -80q40 -41 61 -90q20 -49 20 -106zM766 1007q0 45 -16 83q-18 39 -49 64
q-33 28 -79 41q-47 14 -105 14q-121 0 -185 -55q-63 -54 -63 -149q0 -43 15 -80q17 -39 48 -71q31 -35 80 -64q44 -30 115 -65q116 56 177 127q62 70 62 155zM814 306q0 53 -19 92q-20 42 -57 76q-38 35 -97 70q-52 29 -135 70q-68 -33 -126 -68q-57 -36 -89 -70
q-36 -37 -53 -76q-17 -42 -17 -89q0 -107 75 -167q77 -59 225 -59q143 0 219 59q74 60 74 162z" />
    <glyph glyph-name="nine" unicode="9" horiz-adv-x="1038" 
d="M920 693q0 -82 -11 -173q-11 -86 -36 -165t-66 -147q-41 -69 -101 -118q-65 -53 -143 -78q-80 -29 -188 -29q-40 0 -83 5q-46 7 -71 14q-28 5 -51 16q-19 7 -30 16q-7 6 -14 21q-4 18 -4 34q0 18 1 24q2 11 4 15q3 5 7 7q8 2 12 2q8 0 30 -8q20 -8 49 -17q34 -10 71 -17
q43 -8 93 -8q104 0 181 41q75 42 124 112q48 69 72 161q25 89 28 194q-64 -35 -136 -57q-77 -26 -182 -26q-112 0 -185 30q-75 32 -119 82q-44 53 -62 120q-19 67 -19 146q0 78 23 156q22 75 74 134q50 59 130 95q81 36 196 36q76 0 136 -21q57 -19 104 -58q45 -38 77 -92
q35 -61 51 -124q19 -64 29 -150q9 -83 9 -173zM792 703q0 144 -20 235q-17 92 -56 157q-40 61 -93 87q-55 27 -126 27q-76 0 -127 -27q-52 -28 -86 -72q-33 -43 -50 -100q-15 -56 -15 -109q0 -61 14 -117q13 -52 46 -91q32 -38 84 -59q51 -22 128 -22q86 0 165 25
q80 26 136 66z" />
    <glyph glyph-name="colon" unicode=":" horiz-adv-x="538" 
d="M373 806q0 -26 -3 -46q-5 -20 -14 -29q-12 -12 -26 -15q-15 -5 -43 -5t-42 5q-13 2 -26 15q-10 10 -13 29q-4 17 -4 46q0 31 4 48q3 19 13 29q13 13 26 15q14 5 42 5t43 -5q14 -3 26 -15q9 -9 14 -29q3 -20 3 -48zM373 89q0 -28 -3 -47q-5 -20 -14 -29q-12 -12 -26 -15
q-15 -5 -43 -5t-42 5q-13 2 -26 15q-10 10 -13 29q-4 17 -4 47t4 47q3 18 13 30q14 12 26 14q14 5 42 5t43 -5q13 -3 26 -14q10 -11 14 -30q3 -20 3 -47z" />
    <glyph glyph-name="semicolon" unicode=";" horiz-adv-x="538" 
d="M373 806q0 -26 -3 -46q-5 -20 -14 -29q-12 -12 -26 -15q-15 -5 -43 -5t-42 5q-13 2 -26 15q-10 10 -13 29q-4 17 -4 46q0 31 4 48q3 19 13 29q13 13 26 15q14 5 42 5t43 -5q14 -3 26 -15q9 -9 14 -29q3 -20 3 -48zM373 121q0 -27 -3 -49q-1 -20 -8 -42q-7 -24 -16 -40
q-13 -23 -25 -42l-139 -213q-3 -4 -10 -11q-6 -4 -12 -7q-3 -1 -9.5 -2.5t-8.5 -2.5q-3 0 -11.5 -0.5t-13.5 -0.5q-14 0 -19 1q-9 2 -12 4q-4 3 -4 8q0 4 3 11l139 274v112q0 19 4 35q6 14 14 21q9 7 23 9q13 3 33 3t33 -3q14 -2 23 -9q11 -8 14 -21q5 -10 5 -35z" />
    <glyph glyph-name="less" unicode="&#x3c;" horiz-adv-x="1020" 
d="M921 156q0 -7 -0.5 -18t-0.5 -14q-4 -15 -6 -17q-5 -5 -10 -4t-16 6l-799 406q-8 5 -14 21q-6 15 -6 41q0 7 2 23q1 6 5 18q5 10 8 12q3 6 9 8l795 404q19 10 26 2q7 -7 7 -48q0 -26 -1 -36q-2 -16 -4 -22q-6 -10 -10 -13q-1 -1 -7.5 -5t-10.5 -6l-682 -341l682 -336
q4 -2 10.5 -6t7.5 -5q5 -4 10 -14q2 -6 4 -22q1 -8 1 -34z" />
    <glyph glyph-name="equal" unicode="=" horiz-adv-x="1020" 
d="M920 766q0 -32 -12 -44q-10 -12 -22 -12h-753q-11 0 -22 12q-11 13 -11 44q0 30 10 43q9 14 23 14h753q13 0 24 -14q10 -13 10 -43zM920 386q0 -32 -12 -44q-10 -12 -22 -12h-753q-11 0 -22 12q-11 13 -11 44q0 30 10 43q9 14 23 14h753q13 0 24 -14q10 -13 10 -43z" />
    <glyph glyph-name="greater" unicode="&#x3e;" horiz-adv-x="1020" 
d="M953 573q0 -7 -2 -23q-2 -9 -5 -18q-4 -10 -8 -13q-3 -5 -9 -7l-796 -404q-9 -4 -15 -6q-6 -1 -11 4t-5 16q-2 8 -2 32q0 26 1 34q2 16 5 22q3 10 10 14q7 6 17 11l683 342l-683 335q-10 6 -17 11q-6 4 -10 13q-3 6 -5 22q-1 10 -1 36q0 24 2 32q0 11 5 16t11 4
q6 -2 15 -6l800 -406q9 -5 14 -20q6 -17 6 -41z" />
    <glyph glyph-name="question" unicode="?" horiz-adv-x="949" 
d="M849 992q0 -88 -26 -160q-26 -70 -73 -117q-45 -48 -111 -74t-144 -29l-6 -267q0 -13 -12 -19q-11 -7 -43 -7q-5 0 -14 0.5t-12 0.5q-15 4 -18 6q-6 3 -9 8t-3 11l-5 300q0 20 5 30q3 12 12 19q8 8 22 11q12 3 29 3h26q70 0 122 22q49 24 81 60q29 37 44 88q13 54 13 105
q0 60 -17 113q-16 51 -52 90q-33 36 -86 58q-55 20 -125 20q-65 0 -107 -14q-45 -11 -81 -30q-33 -14 -55 -30q-24 -13 -32 -13t-12 3q-5 1 -10 8q-4 10 -5 18q-2 12 -2 25q0 17 3 29q2 10 12 20q10 8 40 25q27 16 70 30q44 15 90 23q47 10 100 10q101 0 174 -29
q73 -28 122 -80q48 -51 72 -119q23 -71 23 -148zM523 89q0 -28 -3 -47q-5 -20 -14 -29q-12 -12 -26 -15q-15 -5 -42 -5q-29 0 -42 5q-14 2 -27 15q-10 10 -13 29q-4 17 -4 47t4 47q3 18 13 30q14 12 27 14q13 5 42 5q27 0 42 -5q13 -3 26 -14q10 -11 14 -30q3 -19 3 -47z
" />
    <glyph glyph-name="at" unicode="@" horiz-adv-x="1826" 
d="M1626 768q0 -71 -8 -134q-5 -60 -24 -135q-17 -62 -46 -125q-32 -63 -72 -105q-43 -46 -99 -71q-58 -26 -131 -26q-38 0 -68 10q-35 10 -58 28q-24 16 -44 46q-17 31 -23 67q-45 -45 -77 -69q-37 -29 -74 -47t-70 -27q-35 -8 -64 -8q-44 0 -72 8q-29 6 -57 22
q-25 13 -43 36t-30 52q-12 28 -18 66q-5 40 -5 80q0 44 7 96q6 58 22 112q14 58 42 116q27 56 68 100q40 45 98 72q55 28 132 28q30 0 62 -8q24 -6 56 -24q29 -19 52 -41q22 -21 49 -56l18 94q3 13 14 19q12 5 40 5q5 0 12.5 -0.5t10.5 -0.5q14 -4 16 -5q5 -3 7 -7
q2 -8 1 -11l-91 -467q-18 -94 9 -140q28 -45 102 -45q44 0 80 21q36 24 62 58q27 40 44 86q20 48 30 102q12 56 18 112q5 65 5 112q0 91 -25 172q-24 83 -82 144q-58 65 -153 100q-94 38 -240 38q-129 0 -227 -30q-93 -27 -171 -78q-73 -51 -123 -114q-53 -69 -84 -136
q-31 -65 -52 -142q-19 -76 -26 -136q-10 -67 -11 -114q-2 -68 -2 -79q0 -113 27 -207q25 -96 91 -166q62 -69 175 -111q110 -40 278 -40q67 0 128 8q51 7 98 17q40 9 66 17q29 8 35 8q5 0 10 -3t6 -9t3 -15q1 -6 1 -21q0 -11 -1 -15q0 -8 -2 -12q0 -4 -4 -10q-4 -7 -9 -10
q-4 -4 -33 -14q-22 -8 -73 -20q-41 -8 -109 -16q-57 -7 -136 -7q-186 0 -313 45q-126 43 -206 126q-80 82 -113 195q-35 111 -35 253q0 34 3 94q1 50 13 130q9 60 33 154q26 85 62 159q41 80 100 151q58 71 146 128q86 55 202 88q117 32 266 32q152 0 266 -38
q113 -39 189 -110q74 -70 112 -173q37 -101 37 -229zM1096 717q-40 68 -86 107q-44 36 -100 36q-47 0 -84 -22t-64 -58q-26 -31 -47 -80q-19 -44 -31 -92q-13 -47 -17 -90q-5 -48 -5 -77q0 -81 30 -124q28 -43 98 -43q26 0 54 9q29 10 58 29q30 17 66 50q47 43 76 74z
M0 1294z" />
    <glyph glyph-name="A" unicode="A" horiz-adv-x="1154" 
d="M1108 41q6 -15 6 -25q-2 -10 -8 -14q-8 -6 -20 -6q-8 -2 -34 -2q-25 0 -34 2q-9 0 -19 4q-5 2 -11 8q-3 4 -6 12l-124 345h-568l-119 -343q-1 -8 -6 -12q-6 -6 -11 -8q-8 -5 -20 -6q-16 -2 -31 -2q-17 0 -35 2q-13 1 -20 7q-6 4 -8 14q0 9 6 24l453 1231q3 8 9 14
q7 6 16 8q12 4 22 4q10 2 31 2q23 0 31 -2q10 0 24 -4q9 -3 14 -8q6 -6 9 -14zM571 1163h-1l-244 -696h495z" />
    <glyph glyph-name="B" unicode="B" horiz-adv-x="1096" 
d="M996 362q0 -60 -14 -106q-11 -47 -38 -89q-25 -39 -61 -71q-35 -30 -81 -52t-99 -33q-55 -11 -123 -11h-335q-19 0 -37 14q-19 12 -19 49v1168q0 37 19 49q18 14 37 14h278q111 0 183 -23q68 -22 116 -65q44 -43 68 -104q22 -63 22 -134q0 -41 -10 -88q-13 -45 -32 -78
q-20 -35 -52 -65q-37 -32 -75 -49q53 -11 98 -38q44 -25 81 -69q35 -45 54 -97q20 -58 20 -122zM782 960q0 50 -14 92q-13 41 -44 72q-32 29 -80 45t-131 16h-202v-464h222q71 0 118 19q47 22 74 53q30 35 43 77q14 44 14 90zM866 352q0 62 -20 113q-21 49 -60 82
q-42 34 -98 50q-60 17 -144 17h-233v-505h282q63 0 109 15q49 17 84 46q37 31 58 76q22 45 22 106z" />
    <glyph glyph-name="C" unicode="C" horiz-adv-x="1096" 
d="M1036 176q0 -14 -1 -20t-3 -16q-1 -7 -6 -13q-3 -6 -12 -15q-7 -7 -42 -32q-31 -20 -80 -42q-50 -21 -112 -36q-63 -15 -139 -15q-123 0 -221 43q-100 42 -168 124q-68 80 -108 202q-37 123 -37 274q0 160 40 284q41 127 113 212q73 89 174 134q98 47 224 47
q55 0 112 -11q47 -9 101 -28q44 -16 83 -39q29 -18 50 -35q3 -4 7 -8.5t6 -7t3 -4.5q5 -6 6 -14q1 -4 3 -16q1 -7 1 -22q0 -18 -2 -24q0 -10 -4 -18q-3 -6 -9 -12q-4 -4 -12 -4q-14 0 -39 20q-28 21 -68 46q-38 24 -101 46q-62 20 -143 20q-90 0 -167 -36q-75 -37 -131 -108
q-54 -70 -84 -175q-31 -102 -31 -239q0 -130 28 -229q28 -100 81 -169q53 -68 131 -104t177 -36q79 0 142 20q61 21 103 46t71 46q28 20 42 20q4 0 10 -2q5 -3 6 -10q4 -8 4 -17q2 -7 2 -27z" />
    <glyph glyph-name="D" unicode="D" horiz-adv-x="1243" 
d="M1140 666q0 -160 -41 -288q-40 -123 -121 -208q-79 -83 -198 -127q-116 -43 -280 -43h-255q-19 0 -37 14q-19 12 -19 49v1168q0 37 19 49q18 14 37 14h272q165 0 279 -45q110 -44 190 -127q77 -86 115 -198q39 -117 39 -258zM1009 660q0 116 -29 210q-26 93 -88 166
q-57 69 -150 110q-91 39 -232 39h-199v-1076h200q133 0 223 33q90 30 153 100q61 67 91 172q31 100 31 246z" />
    <glyph glyph-name="E" unicode="E" horiz-adv-x="1001" 
d="M883 54q0 -9 -2 -23q-1 -10 -7 -17q-2 -6 -10 -10q-5 -4 -13 -4h-606q-19 0 -37 14q-19 12 -19 49v1168q0 37 19 49q18 14 37 14h597q8 0 13 -4q6 -3 10 -10q5 -8 6 -18q2 -12 2 -24q0 -9 -2 -23q-1 -9 -6 -17q-4 -6 -10 -10q-6 -3 -13 -3h-531v-455h458q9 0 14 -4
q6 -3 10 -10q4 -6 6 -16q2 -16 2 -25t-2 -23q-1 -9 -6 -15t-10 -9q-6 -3 -14 -3h-458v-516h540q7 0 13 -3q8 -6 10 -10q6 -7 7 -18q2 -12 2 -24z" />
    <glyph glyph-name="F" unicode="F" horiz-adv-x="942" 
d="M844 1238q0 -9 -2 -23q0 -3 -6 -17q-7 -7 -11 -10q-6 -3 -13 -3h-501v-490h475q7 0 13 -3q4 -1 11 -8q5 -10 6 -16q2 -14 2 -25q0 -9 -2 -23q-1 -6 -6 -16q-6 -8 -11 -10q-5 -4 -13 -4h-475v-570q0 -6 -3 -11q-4 -5 -10 -8q-9 -4 -18 -5q-16 -2 -30 -2q-13 0 -29 2
q-9 1 -19 5q-6 3 -10 8q-3 5 -3 11v1211q0 37 19 49q18 14 37 14h567q8 0 13 -4q5 -2 11 -10q5 -14 6 -18q2 -12 2 -24z" />
    <glyph glyph-name="G" unicode="G" horiz-adv-x="1285" 
d="M1125 1131q0 -10 -2 -24q-1 -7 -5 -19q-6 -8 -10 -11q-4 -4 -11 -4q-11 0 -39 20q-36 25 -74 43q-49 26 -112 44q-66 20 -155 20q-115 0 -205 -42q-91 -44 -152 -117q-63 -75 -94 -175q-33 -102 -33 -219q0 -132 37 -233t102 -174q67 -70 156 -107q90 -37 198 -37
q67 0 140 17q69 16 133 52v419h-330q-16 0 -24 14t-8 40q0 12 2 24q1 10 6 18q4 6 10 10q6 3 14 3h396q9 0 19 -3q11 -3 18 -10q10 -8 14 -20q5 -13 5 -30v-481q0 -22 -7 -41q-10 -18 -35 -32q-25 -15 -72 -34q-38 -17 -93 -32q-48 -12 -96 -18q-46 -7 -96 -7
q-147 0 -262 47q-113 46 -196 134q-79 89 -121 206q-42 120 -42 264q0 150 45 276q46 123 128 212q84 89 198 136q114 49 254 49q73 0 132 -13q70 -15 113 -32q53 -19 85 -40q36 -22 48 -34q13 -13 16 -24q5 -10 5 -35z" />
    <glyph glyph-name="H" unicode="H" horiz-adv-x="1268" 
d="M1079 20q0 -6 -3 -11q-4 -5 -10 -8q-10 -4 -19 -5q-16 -2 -29 -2q-14 0 -30 2q-9 1 -18 5q-6 3 -10 8q-3 5 -3 11v603h-646v-603q0 -6 -3 -11q-4 -5 -10 -8q-9 -4 -18 -5q-16 -2 -30 -2q-13 0 -29 2q-9 1 -19 5q-6 3 -10 8q-3 5 -3 11v1254q0 6 3 11q4 5 10 8q10 4 19 5
q16 2 29 2q14 0 30 -2q9 -1 18 -5q6 -3 10 -8q3 -4 3 -11v-542h646v542q0 6 3 11q4 5 10 8q9 4 18 5q16 2 30 2q13 0 29 -2q9 -1 19 -5q6 -3 10 -8q3 -4 3 -11v-1254z" />
    <glyph glyph-name="I" unicode="I" horiz-adv-x="500" 
d="M311 20q0 -6 -3 -11q-4 -5 -10 -8q-9 -4 -18 -5q-16 -2 -30 -2q-13 0 -29 2q-9 1 -19 5q-6 3 -10 8q-3 5 -3 11v1254q0 6 3 11q6 6 12 8q7 3 18 5q16 2 28 2q14 0 30 -2q9 -1 18 -5q6 -3 10 -8q3 -4 3 -11v-1254z" />
    <glyph glyph-name="J" unicode="J" horiz-adv-x="640" 
d="M454 308q0 -72 -12 -132q-14 -61 -44 -103q-31 -43 -82 -67q-52 -23 -127 -23q-25 0 -53 5q-9 2 -48 12q-30 12 -38 16q-17 9 -22 15q-5 5 -9 11t-5 12q-2 6 -4 17q-1 7 -1 24q0 11 2 25q1 8 5 16q6 6 9 8q6 2 12 2q7 0 21 -8q16 -11 32 -18q19 -11 43 -18q25 -9 58 -9
q37 0 63 9q27 9 44 35t26 71q8 50 8 120v946q0 6 3 11q4 5 10 8q10 4 19 5q16 2 29 2t29 -2q9 -1 19 -5q6 -3 10 -8q3 -4 3 -11v-966z" />
    <glyph glyph-name="K" unicode="K" horiz-adv-x="1033" 
d="M977 22q0 -6 -2 -12q-2 -5 -9 -8q-8 -5 -19 -6q-16 -2 -31 -2q-12 0 -36 2q-17 1 -29 8q-9 6 -17 16l-523 664v-664q0 -6 -3 -11q-4 -5 -10 -8q-9 -4 -18 -5q-16 -2 -30 -2q-13 0 -29 2q-9 1 -19 5q-6 3 -10 8q-3 5 -3 11v1254q0 6 3 11q4 5 10 8q10 4 19 5q16 2 29 2
q14 0 30 -2q9 -1 18 -5q6 -3 10 -8q3 -4 3 -11v-588l501 588q6 8 13 12q10 6 16 8q12 4 21 4q8 2 30 2q15 0 29 -2q11 -2 17 -6q8 -3 9 -8q2 -4 2 -10q0 -9 -5 -21q-7 -12 -19 -24l-471 -539l503 -631q15 -20 17 -25q3 -8 3 -12z" />
    <glyph glyph-name="L" unicode="L" horiz-adv-x="858" 
d="M838 56q0 -10 -2 -24q-1 -8 -6 -18q-6 -8 -10 -10q-5 -4 -14 -4h-561q-19 0 -37 14q-19 12 -19 49v1211q0 6 3 11q4 5 10 8q10 4 19 5q16 2 29 2q14 0 30 -2q9 -1 18 -5q6 -3 10 -8q3 -4 3 -11v-1163h495q8 0 14 -3q6 -4 10 -10q5 -8 6 -18q2 -12 2 -24z" />
    <glyph glyph-name="M" unicode="M" horiz-adv-x="1730" 
d="M1541 20q0 -6 -3 -11q-3 -4 -10 -8q-12 -4 -20 -5q-14 -2 -29 -2q-12 0 -28 2q-9 1 -19 5q-6 3 -10 8q-3 5 -3 11v1167h-2l-509 -1174q-1 -4 -6 -7q-5 -5 -11 -6q-10 -4 -17 -4q-6 -2 -22 -2q-17 0 -24 2q-8 0 -16 4q-6 1 -11 6q-3 2 -5 7l-484 1174h-1v-1167
q0 -6 -3 -11q-3 -4 -10 -8q-12 -4 -20 -5q-14 -2 -30 -2q-14 0 -28 2q-9 1 -19 5q-7 3 -9 8q-3 5 -3 11v1211q0 37 19 49q18 14 37 14h66q25 0 44 -6q20 -5 33 -16q13 -8 25 -25q11 -16 18 -34l427 -1028h5l445 1024q10 23 22 41q11 16 24 26q10 9 26 14q13 4 32 4h73
q9 0 19 -3q12 -3 18 -11q7 -6 14 -19q5 -13 5 -30v-1211z" />
    <glyph glyph-name="N" unicode="N" horiz-adv-x="1307" 
d="M1118 59q0 -18 -6 -30q-5 -13 -14 -19q-6 -7 -18 -11q-12 -3 -20 -3h-25q-17 0 -37 5q-15 4 -32 17q-16 14 -30 34q-12 16 -35 54l-456 808q-13 22 -37 64.5t-32 57.5q-44 82 -65 121h-1q1 -49 1 -149v-150v-838q0 -6 -3 -11q-4 -5 -10 -8q-9 -4 -18 -5q-16 -2 -30 -2
q-13 0 -29 2q-9 1 -19 5q-6 3 -10 8q-3 5 -3 11v1211q0 37 19 49q18 14 37 14h50q25 0 40 -4q17 -5 29 -14q10 -7 26 -26q12 -18 27 -45l349 -619q45 -80 62 -112q12 -21 33.5 -59.5t24.5 -44.5q45 -83 56 -102q18 -33 54 -101h1q-1 56 -1 175v175v753q0 6 3 11t10 9
q10 4 19 4q7 2 29 2q20 0 28 -2q9 0 19 -4q7 -4 10 -9q4 -4 4 -11v-1211z" />
    <glyph glyph-name="O" unicode="O" horiz-adv-x="1340" 
d="M1230 662q0 -156 -36 -280q-34 -126 -106 -214q-69 -88 -179 -137q-108 -48 -252 -48q-145 0 -247 45q-104 46 -170 130q-68 86 -98 207q-32 118 -32 275q0 150 35 276q34 122 107 212q70 86 178 135q108 48 253 48q141 0 244 -45q101 -44 171 -129q68 -86 100 -204
q32 -122 32 -271zM1100 651q0 118 -22 215q-20 98 -70 176q-52 75 -132 116q-82 43 -203 43q-119 0 -203 -45q-81 -44 -134 -119q-50 -73 -74 -175q-22 -105 -22 -211q0 -116 20 -219q21 -103 70 -177q50 -76 131 -117q82 -43 205 -43q122 0 205 45q83 47 134 122
q51 78 73 178q22 97 22 211z" />
    <glyph glyph-name="P" unicode="P" horiz-adv-x="1040" 
d="M934 923q0 -90 -30 -165q-32 -76 -88 -129q-57 -54 -139 -84q-83 -30 -198 -30h-168v-495q0 -6 -3 -11q-4 -5 -10 -8q-9 -4 -18 -5q-16 -2 -30 -2q-13 0 -29 2q-9 1 -19 5q-6 3 -10 8q-3 5 -3 11v1211q0 37 19 49q18 14 37 14h263q43 0 76 -4q35 -3 86 -14
q51 -12 102 -44q49 -29 87 -76q37 -48 55 -104q20 -57 20 -129zM805 912q0 85 -33 142q-31 56 -80 88q-48 27 -100 36q-59 7 -97 7h-184v-562h176q85 0 142 21q57 22 96 60t59 92q21 52 21 116z" />
    <glyph glyph-name="Q" unicode="Q" horiz-adv-x="1364" 
d="M1409 -109q0 -17 -3 -27q-1 -6 -6 -19q-6 -7 -10 -10t-11 -3q-13 0 -51 16q-44 18 -96 46q-65 35 -122 74q-64 40 -133 101q-49 -33 -131 -61q-83 -25 -189 -25q-145 0 -247 45q-104 46 -170 130q-68 86 -98 207q-32 118 -32 275q0 150 35 276q34 122 107 212
q70 86 178 135q108 48 253 48q135 0 239 -45q103 -45 170 -129q67 -82 104 -204q34 -124 34 -271q0 -76 -9 -150q-10 -78 -29 -139q-18 -64 -50 -123q-29 -56 -72 -104q79 -65 137 -101q48 -29 97 -55q35 -18 58 -27q20 -7 30 -17q8 -8 13 -22q4 -12 4 -33zM1100 651
q0 118 -22 215q-20 98 -70 176q-52 75 -132 116q-82 43 -203 43q-119 0 -203 -45q-81 -44 -134 -119q-50 -73 -74 -175q-22 -105 -22 -211q0 -116 20 -219q21 -103 70 -177q50 -76 131 -117q82 -43 205 -43q122 0 205 45q83 47 134 122q51 78 73 178q22 97 22 211z" />
    <glyph glyph-name="R" unicode="R" horiz-adv-x="1090" 
d="M999 22q0 -8 -3 -12q-2 -5 -9 -8q-8 -5 -19 -6q-18 -2 -32 -2q-21 0 -28 2q-12 0 -20 6q-9 4 -13 12q-4 5 -9 19l-121 314q-23 57 -45 100q-26 50 -58 81q-34 36 -82 55q-49 20 -115 20h-134v-583q0 -6 -3 -11q-4 -5 -10 -8q-9 -4 -18 -5q-16 -2 -30 -2q-13 0 -29 2
q-9 1 -19 5q-6 3 -10 8q-3 5 -3 11v1211q0 37 19 49q18 14 37 14h243q36 0 80 -2q40 -4 57 -7q73 -13 129 -42q54 -28 91 -71q37 -44 53 -96q18 -54 18 -116q0 -64 -18 -114q-18 -51 -51 -90q-34 -38 -79 -66q-44 -27 -101 -47q35 -16 59 -37q26 -22 50 -53q26 -39 42 -71
q27 -59 40 -91l121 -302q7 -17 17 -48q3 -14 3 -19zM784 947q0 83 -37 141q-37 57 -124 82q-29 8 -63 12q-34 3 -89 3h-160v-475h186q75 0 129 18q54 20 90 51q34 31 52 75q16 46 16 93z" />
    <glyph glyph-name="S" unicode="S" horiz-adv-x="927" 
d="M844 350q0 -88 -31 -154q-32 -68 -87 -116q-55 -46 -133 -72q-75 -25 -168 -25q-59 0 -117 11q-56 12 -98 28q-40 15 -72 32q-32 20 -41 28q-12 14 -16 28q-5 17 -5 38q0 14 2 28q2 10 6 18q3 6 8 10q8 2 12 2q13 0 40 -18t66 -38t96 -38q59 -17 132 -17q64 0 112 17
q49 15 88 47q37 31 58 77q20 46 20 103q0 59 -26 103q-25 42 -68 76q-48 35 -97 58q-54 27 -111 54q-58 27 -110 57q-55 32 -96 73q-43 40 -69 97t-26 133t27 134q27 61 76 102q50 41 118 63q66 22 150 22q38 0 83 -8q44 -8 79 -21q39 -12 68 -28q30 -16 38 -24
q10 -10 12 -14q4 -9 5 -12q2 -10 3 -16q1 -7 1 -24q0 -5 -0.5 -12.5t-0.5 -11.5q-1 -3 -2.5 -9t-2.5 -9q-1 -2 -7 -11q-5 -4 -11 -4q-12 0 -33 15q-55 31 -57 32q-37 19 -81 32q-46 15 -107 15t-103 -16q-46 -17 -73 -43q-31 -31 -43 -65q-15 -37 -15 -78q0 -59 26 -103
q25 -43 69 -76q45 -34 98 -60q3 -1 45.5 -21.5t64.5 -30.5q59 -28 112 -58q53 -29 97 -72q42 -39 69 -96q26 -58 26 -132z" />
    <glyph glyph-name="T" unicode="T" horiz-adv-x="990" 
d="M973 1238q0 -9 -2 -23q-1 -9 -6 -17q-4 -6 -10 -10q-6 -3 -13 -3h-386v-1165q0 -6 -3 -11q-4 -5 -10 -8q-10 -4 -19 -5q-16 -2 -29 -2t-29 2q-9 1 -19 5q-6 3 -10 8q-3 5 -3 11v1165h-386q-8 0 -14 3q-6 6 -9 10q-5 8 -6 17q-2 14 -2 23q0 12 2 24q1 10 6 18q4 7 9 10
q5 4 14 4h894q8 0 13 -4q6 -3 10 -10q5 -8 6 -18q2 -12 2 -24z" />
    <glyph glyph-name="U" unicode="U" horiz-adv-x="1302" 
d="M1116 476q0 -120 -34 -210q-33 -91 -95 -155t-150 -95q-89 -33 -197 -33q-101 0 -182 31q-86 32 -144 92q-61 59 -94 150q-34 87 -34 206v812q0 6 3 11q4 6 11 8q7 3 18 5q14 2 29 2q13 0 29 -2q9 -1 19 -5q6 -3 10 -8q3 -4 3 -11v-792q0 -96 24 -170q22 -71 68 -122
q44 -48 108 -72q62 -25 143 -25q79 0 145 23q64 24 107 72q45 50 67 120q24 71 24 167v799q0 6 3 11q4 5 10 8q10 4 19 5q16 2 29 2t29 -2q9 -1 19 -5q6 -3 10 -8q3 -4 3 -11v-798z" />
    <glyph glyph-name="V" unicode="V" horiz-adv-x="1135" 
d="M645 22q-3 -8 -9 -14q-7 -6 -16 -8q-12 -4 -22 -4q-10 -2 -31 -2h-22q-14 2 -18 2q-3 1 -14 4q-6 1 -11 5q-6 4 -8 7q-4 6 -5 10l-443 1231q-6 15 -6 25q2 10 8 14q10 6 21 6q9 2 37 2q23 0 30 -2q10 0 18 -4q6 -3 10 -8q4 -4 7 -12l402 -1139h1l390 1139q1 6 5 12t11 8
q8 4 20 4q9 2 34 2q20 0 36 -2q12 -1 20 -7q5 -5 4 -14q0 -9 -6 -24z" />
    <glyph glyph-name="W" unicode="W" horiz-adv-x="1804" 
d="M1361 22q-3 -8 -9 -14q-10 -6 -18 -8q-12 -4 -24 -4q-8 -2 -31 -2t-32 2q-9 0 -25 4q-10 3 -16 8t-10 14l-306 1063h-2l-280 -1063q-2 -8 -8 -14q-5 -5 -14 -8q-14 -4 -24 -4q-8 -2 -32 -2q-25 0 -34 2q-12 0 -26 4q-9 3 -18 8q-6 6 -9 14l-367 1231q-5 18 -5 25
q0 10 7 14q8 6 20 6q8 2 35 2q26 0 35 -2q10 0 20 -4q6 -3 10 -8l4 -12l325 -1135h1l299 1135q1 6 5 12q3 4 10 8q12 4 22 4q8 2 35 2q21 0 27 -2q8 0 18 -4q4 -2 10 -8q4 -6 5 -12l326 -1135h2l317 1135q0 2 1 4.5t2 4.5t1 3q4 5 10 8q10 4 19 4q8 2 33 2q17 0 35 -2
q11 -1 19 -7q6 -4 8 -14q0 -11 -4 -24z" />
    <glyph glyph-name="X" unicode="X" horiz-adv-x="1027" 
d="M960 41q8 -12 10 -23q2 -9 -6 -14q-8 -7 -22 -8q-18 -2 -37 -2q-27 0 -36 2q-11 0 -21 4q-9 4 -12 8q-3 2 -9 12l-312 540l-318 -540q-3 -5 -10 -12q-5 -5 -13 -8q-10 -4 -21 -4q-9 -2 -34 -2q-19 0 -37 2q-14 2 -20 8q-7 5 -5 14q2 11 10 23l376 612l-363 600
q-10 15 -10 23q-3 9 4 14q7 7 20 8q16 2 36 2q26 0 36 -2q10 0 22 -4q9 -4 12 -8q5 -4 10 -12l307 -514l306 514q6 10 8 12q6 6 11 8q10 4 19 4q8 2 33 2q16 0 36 -2q13 -1 21 -8q7 -4 7 -14q-2 -10 -9 -23l-363 -595z" />
    <glyph glyph-name="Y" unicode="Y" horiz-adv-x="961" 
d="M542 510v-490q0 -6 -3 -11q-4 -5 -10 -8q-10 -4 -19 -5q-16 -2 -29 -2q-15 0 -29 2q-8 1 -20 5q-7 4 -10 8q-3 5 -3 11v490l-372 743q-6 12 -8 24q-2 9 5 14q6 6 18 7q18 2 33 2q27 0 35 -2q12 0 22 -4q8 -2 13 -8q2 -2 8 -12l198 -403q26 -52 55 -118q10 -20 28 -61
t28 -62h2q17 39 53 119t55 119l200 406q3 8 7 12q6 6 11 8q10 4 18 4q8 2 29 2q19 0 39 -2q14 -1 21 -8q7 -5 5 -14q-2 -12 -8 -23z" />
    <glyph glyph-name="Z" unicode="Z" horiz-adv-x="949" 
d="M905 54q0 -9 -2 -23q-1 -9 -6 -17q-4 -7 -10 -10q-5 -4 -14 -4h-765q-18 0 -32 12q-13 13 -13 42v33q0 3 0.5 9t0.5 8q0 1 2 8t4 11q6 14 12 23q3 6 18 30l649 1009h-641q-8 0 -14 3q-6 4 -10 10q-5 8 -6 17q-2 14 -2 23q0 12 2 24q1 10 6 18q4 7 10 10q5 4 14 4h724
q18 0 32 -12q13 -13 13 -42v-33q0 -4 -0.5 -10t-0.5 -9q0 -1 -2 -8t-4 -11q-6 -14 -12 -23q-2 -4 -4.5 -8t-6.5 -10t-7 -10l-649 -1009h682q16 0 24 -13q8 -16 8 -42z" />
    <glyph glyph-name="bracketleft" unicode="[" horiz-adv-x="608" 
d="M517 -267q0 -25 -7 -33q-6 -11 -19 -11h-226q-9 0 -19 3t-18 10q-10 10 -13 20q-5 13 -5 30v1575q0 16 5 31q4 10 13 19q8 7 18 10q11 3 19 3h226q5 0 11 -2q5 -4 8 -9q2 -2 6 -15q0 -2 0.5 -9t0.5 -11q0 -23 -7 -34q-7 -10 -19 -10h-168v-1521h168q7 0 11 -3q5 -2 8 -8
q1 -1 6 -14q0 -3 0.5 -10t0.5 -11z" />
    <glyph glyph-name="backslash" unicode="\" horiz-adv-x="742" 
d="M738 -226q4 -11 4 -20q-2 -7 -7 -10q-2 -2 -17 -6q-3 0 -13 -0.5t-17 -0.5q-22 0 -30 1q-14 2 -18 3q-8 1 -12 7q-4 2 -7 11l-615 1663q-5 14 -4 20q0 7 6 10q3 2 18 6q4 0 13.5 0.5t16.5 0.5q22 0 30 -1q14 -2 18 -4q7 -1 12 -6q4 -6 6 -11z" />
    <glyph glyph-name="bracketright" unicode="]" horiz-adv-x="608" 
d="M399 -248q0 -17 -5 -30q-5 -11 -14 -20q-7 -7 -18 -10q-10 -3 -19 -3h-226q-13 0 -19 11q-7 8 -7 33q0 4 0.5 11t0.5 10q5 13 6 14q3 6 8 8q5 3 11 3h169v1521h-169q-12 0 -19 10q-7 11 -7 34q0 4 0.5 11t0.5 9q4 13 6 15q3 5 8 9q6 2 11 2h226q9 0 19 -3q11 -3 18 -10
q9 -9 14 -19q5 -15 5 -31v-1575z" />
    <glyph glyph-name="asciicircum" unicode="^" horiz-adv-x="1020" 
d="M862 640q6 -14 6 -22t-6 -14q-7 -3 -20 -6q-5 0 -16 -0.5t-18 -0.5t-18 0.5t-14 0.5q-19 4 -21 5q-4 1 -12 7q-5 6 -7 11l-239 556l-2 -3l-222 -553q-3 -5 -7 -11q-9 -6 -12 -7q-1 -1 -19 -5q-3 0 -13.5 -0.5t-17.5 -0.5t-18 0.5t-14 0.5q-14 3 -19 7t-7 13q0 8 6 22
l280 643q3 7 8 12q8 6 14 7q6 2 20 4q8 1 28 1q21 0 29 -1q15 -2 20 -4q8 -2 13 -7q6 -5 9 -12z" />
    <glyph glyph-name="underscore" unicode="_" horiz-adv-x="1020" 
d="M1023 -313q0 -23 -7 -39q-9 -13 -22 -13h-970q-14 0 -22 12q-8 13 -8 38q0 26 8 40t22 14h970q14 0 21 -13q8 -14 8 -39z" />
    <glyph glyph-name="grave" unicode="`" horiz-adv-x="586" 
d="M430 1133q4 -6 8 -16q0 -9 -2 -11q-4 -5 -13 -8q-12 -2 -24 -2q-18 0 -25 1q-11 1 -18 4q-8 4 -13 9q-5 4 -13 15l-174 234q-6 8 -8 17q-2 6 4 12q4 6 17 9q12 3 31 3q23 0 32 -2q10 0 22 -4q10 -5 16 -11q7 -7 14 -17z" />
    <glyph glyph-name="a" unicode="a" horiz-adv-x="964" 
d="M801 20q0 -10 -7 -16q-6 -5 -16 -8q-16 -2 -29 -2t-29 2q-11 3 -18 8q-7 6 -7 16v101q-63 -67 -135 -102q-72 -36 -152 -36q-72 0 -128 19q-54 18 -95 52q-40 37 -60 84q-21 50 -21 110q0 77 31 130q30 55 88 93q56 37 137 55q77 19 178 19h144v78q0 58 -12 103
q-12 44 -39 74t-70 45t-105 15q-58 0 -108 -14q-48 -15 -84 -33t-60 -33q-23 -14 -33 -14q-5 0 -11 2q-5 2 -8 8q-2 2 -6 14q0 2 -0.5 9t-0.5 11q0 20 3 34q3 13 16 24q12 13 44 30q33 18 74 32q43 14 89 23q48 9 96 9q89 0 157 -22q64 -24 104 -65q39 -42 56 -103
q17 -65 17 -140v-612zM682 447h-165q-74 0 -126 -13q-56 -14 -90 -38q-37 -26 -53 -60q-18 -34 -18 -80q0 -80 50 -124q47 -47 139 -47q71 0 133 37q63 38 130 112v213z" />
    <glyph glyph-name="b" unicode="b" horiz-adv-x="1064" 
d="M957 484q0 -118 -25 -208q-25 -93 -74 -158q-53 -67 -122 -100q-75 -35 -167 -35q-43 0 -77 9q-35 7 -70 27q-33 19 -70 48q-34 28 -76 70v-117q0 -8 -3 -12q-4 -5 -10 -8q-10 -4 -17 -4q-7 -2 -25 -2q-19 0 -25 2q-8 0 -18 4q-6 3 -8 8q-3 4 -3 12v1348q0 6 3 11
q2 5 9 9q10 4 19 4q7 2 28 2q22 0 30 -2q8 0 18 -4q6 -4 9 -9t3 -11v-565q45 46 82 75q36 29 76 50q40 19 74 26q38 8 75 8q97 0 167 -38q67 -36 114 -103q44 -68 63 -152q20 -89 20 -185zM832 465q0 77 -12 147q-12 69 -41 126q-28 54 -77 88q-47 34 -120 34q-36 0 -70 -10
q-35 -11 -70 -33q-36 -22 -74 -59q-39 -37 -82 -91v-394q74 -90 144 -139t145 -49q69 0 118 33q48 34 80 88q31 54 45 122q14 70 14 137z" />
    <glyph glyph-name="c" unicode="c" horiz-adv-x="871" 
d="M799 154q0 -15 -1 -22q-1 -6 -3 -16q-1 -6 -5 -12q-6 -8 -17 -19q-14 -14 -43 -33q-34 -21 -69 -35q-33 -13 -82 -25q-43 -9 -91 -9q-92 0 -166 31q-74 33 -122 94q-50 60 -74 150q-26 87 -26 207q0 134 32 226q29 93 86 154q54 58 128 89q78 28 158 28q43 0 86 -8
q36 -8 76 -23q34 -14 61 -32q28 -19 39 -31q4 -4 7.5 -7t6.5 -6.5t4 -4.5l2.5 -5t2.5 -5.5t1 -4.5q2 -5 4 -17q1 -7 1 -23q0 -29 -9 -41q-8 -11 -18 -11q-14 0 -34 18q-19 17 -53 39q-29 21 -77 40q-47 18 -109 18q-129 0 -201 -100q-70 -102 -70 -289q0 -97 19 -167
q20 -73 55 -118q34 -48 86 -72q52 -23 115 -23q61 0 106 19q44 18 80 42q27 18 57 42q20 19 33 19q5 0 11 -3q6 -9 7 -12q1 -2 5 -18q0 -3 0.5 -11t0.5 -13z" />
    <glyph glyph-name="d" unicode="d" horiz-adv-x="1064" 
d="M897 20q0 -8 -3 -12q-2 -5 -8 -8q-10 -4 -17 -4q-7 -2 -25 -2q-20 0 -26 2q-8 0 -18 4q-4 2 -10 8q-3 4 -3 12v130q-72 -78 -149 -122q-76 -45 -168 -45q-97 0 -167 38q-66 36 -113 103q-44 68 -63 152q-20 91 -20 186q0 117 25 208q27 95 74 157q51 66 121 100
q73 35 167 35q82 0 150 -36q69 -38 134 -108v545q0 5 2 11q4 5 10 8q9 4 18 5q16 2 29 2q15 0 29 -2q11 -1 18 -5q6 -3 10 -8q3 -4 3 -11v-1343zM778 673q-74 90 -144 139q-70 48 -146 48q-68 0 -118 -33q-48 -32 -80 -87q-31 -54 -45 -122q-14 -70 -14 -138q0 -76 12 -146
q12 -71 41 -126q27 -54 77 -90q48 -33 120 -33q37 0 70 10q34 10 70 33q36 22 75 60q42 40 82 90v395z" />
    <glyph glyph-name="e" unicode="e" horiz-adv-x="1012" 
d="M905 519q0 -37 -19 -49q-18 -14 -37 -14h-617q0 -80 16 -152q18 -69 55 -116q37 -50 99 -75q63 -26 150 -26q61 0 113 11q36 8 87 24q8 4 21.5 9t22.5 9t16 7q24 11 33 11q7 0 11 -3q5 -3 8 -9q4 -10 4 -17q2 -7 2 -25q0 -9 -1 -14q0 -1 -0.5 -3.5t-1 -4.5t-1.5 -4
q0 -4 -4 -10t-8 -10q-3 -3 -31 -18q-25 -12 -68 -24q-33 -10 -97 -23q-54 -10 -120 -10q-102 0 -186 31q-83 34 -136 94q-53 57 -84 152q-28 95 -28 211q0 115 30 206q28 90 84 155q56 63 132 96q77 34 173 34q103 0 174 -34q72 -34 119 -92q46 -58 68 -133q21 -76 21 -160
v-24zM782 554q3 144 -66 225t-201 81q-70 0 -119 -26q-50 -23 -88 -67q-34 -41 -54 -97q-19 -55 -22 -116h550z" />
    <glyph glyph-name="f" unicode="f" horiz-adv-x="612" 
d="M636 1311q0 -17 -2 -23q0 -7 -4 -13q-2 -6 -6 -7q-4 -2 -8 -2q-7 0 -19 5q-7 3 -27 11q-24 8 -40 11q-23 5 -52 5q-44 0 -71 -14q-28 -12 -47 -42q-16 -27 -26 -76q-7 -56 -7 -113v-107h222q7 0 12 -3t9 -9q5 -8 6 -16q2 -14 2 -23q0 -24 -8 -37q-7 -13 -21 -13h-222
v-825q0 -6 -3 -11q-4 -5 -10 -8q-7 -4 -18 -5q-16 -2 -29 -2t-29 2q-9 1 -18 5q-6 3 -10 8q-2 6 -2 11v825h-136q-13 0 -22 13q-7 14 -7 37q0 9 2 23q1 6 5 16q5 6 10 9q4 3 12 3h136v103q0 92 17 162q16 64 51 109q36 42 87 61t121 19q34 0 66 -6q32 -8 48 -14
q18 -9 22 -14q4 -3 10 -13q4 -10 4 -19q2 -6 2 -23z" />
    <glyph glyph-name="g" unicode="g" horiz-adv-x="960" 
d="M892 895q0 -29 -9 -39q-9 -11 -23 -11h-143q40 -42 59 -93q16 -54 16 -107q0 -77 -24 -137q-26 -61 -70 -102q-45 -40 -107 -63q-60 -22 -137 -22q-59 0 -116 17q-54 16 -86 42q-18 -18 -33 -46q-13 -25 -13 -60q0 -39 36 -64q39 -27 95 -28l245 -10q60 -1 116 -17
q56 -15 96 -45q41 -29 65 -72q24 -44 24 -101q0 -61 -25 -115q-24 -56 -76 -96q-51 -42 -131 -66q-78 -25 -191 -25q-108 0 -180 19q-75 18 -122 50t-70 77q-21 43 -21 95q0 32 8 66q7 31 25 59q14 26 40 54q29 29 57 53q-51 26 -75 63q-24 38 -24 79q0 62 24 110
q26 50 58 85q-28 37 -45 83q-16 44 -16 108q0 77 25 136q25 61 70 103q41 40 106 65q64 22 136 22q26 0 74 -4q56 -10 63 -12h267q18 0 24 -13q8 -12 8 -38zM669 643q0 103 -57 161q-55 58 -160 58q-52 0 -93 -18t-66 -49t-39 -72q-13 -39 -13 -87q0 -100 57 -158
q56 -57 158 -57q55 0 94 18q42 18 67 49q25 29 39 70q13 40 13 85zM764 -70q0 67 -54 101q-53 35 -143 38l-263 9q-41 -32 -59 -53q-22 -25 -37 -49q-14 -27 -18 -46q-5 -23 -5 -45q0 -75 75 -112q74 -38 207 -38q87 0 141 17q55 15 91 43q35 27 50 62t15 73z" />
    <glyph glyph-name="h" unicode="h" horiz-adv-x="1064" 
d="M901 20q0 -6 -3 -11q-4 -5 -10 -8q-7 -4 -18 -5q-14 -2 -28 -2t-30 2q-9 1 -18 5q-6 3 -9 8t-3 11v537q0 85 -13 137q-13 51 -39 90q-26 36 -66 58q-43 20 -95 20q-70 0 -138 -49t-145 -144v-649q0 -6 -3 -11t-9 -8q-9 -4 -18 -5q-16 -2 -30 -2t-28 2q-9 1 -19 5
q-7 3 -9 8q-3 5 -3 11v1348q0 6 3 11q2 5 9 9q10 4 19 4q7 2 28 2q22 0 30 -2q8 0 18 -4q6 -4 9 -9t3 -11v-565q72 81 148 121q74 38 148 38q88 0 150 -30t98 -81q39 -51 54 -119q17 -64 17 -164v-548z" />
    <glyph glyph-name="i" unicode="i" horiz-adv-x="452" 
d="M286 20q0 -6 -3 -11t-9 -8q-9 -4 -18 -5q-16 -2 -30 -2t-28 2q-9 1 -19 5q-7 3 -9 8q-3 5 -3 11v905q0 7 3 11q2 5 9 8q4 2 19 6q3 0 12.5 0.5t15.5 0.5t16 -0.5t14 -0.5q15 -4 18 -6q6 -3 9 -8q3 -4 3 -11v-905zM304 1230q0 -48 -17 -65t-62 -17q-42 0 -61 16
q-16 19 -16 65q0 48 17 65t62 17q44 0 61 -17q16 -16 16 -64z" />
    <glyph glyph-name="j" unicode="j" horiz-adv-x="471" 
d="M304 -26q0 -101 -14 -156q-12 -57 -42 -100q-31 -41 -78 -62q-46 -21 -116 -21q-25 0 -46 3q-27 7 -30 8q-11 4 -16 10q-3 4 -6 12q0 4 -2 12v14q0 16 2 22q0 8 4 16q3 7 8 9q3 3 10 3q2 0 5 -0.5t9 -1t10 -0.5q19 -3 46 -3q36 0 63 11q23 10 43 36q15 27 24 67
q7 47 7 121v951q0 7 3 11q4 5 10 8q3 2 18 6q3 0 12.5 0.5t16.5 0.5q6 0 15.5 -0.5t13.5 -0.5q15 -4 18 -6q6 -3 9 -8q3 -4 3 -11v-951zM323 1230q0 -48 -17 -65t-62 -17q-44 0 -60 16q-17 17 -17 65t17 65t62 17q46 0 60 -17q17 -14 17 -64z" />
    <glyph glyph-name="k" unicode="k" horiz-adv-x="903" 
d="M857 22q0 -8 -3 -12q-4 -5 -10 -8q-8 -5 -19 -6q-16 -2 -31 -2q-24 0 -33 2q-9 0 -23 4q-6 2 -16 8q-6 4 -12 12l-424 514v-514q0 -6 -3 -11t-9 -8q-9 -4 -18 -5q-16 -2 -30 -2t-28 2q-9 1 -19 5q-7 3 -9 8q-3 5 -3 11v1348q0 6 3 11q2 5 9 9q10 4 19 4q7 2 28 2
q22 0 30 -2q8 0 18 -4q6 -4 9 -9t3 -11v-832l381 385q7 8 17 15q9 5 18 8q4 2 23 6q4 0 14 0.5t16 0.5q21 0 29 -1q15 -2 21 -4q9 -3 12 -8q4 -3 4 -11q0 -10 -6 -19q-5 -9 -21 -25l-362 -342l402 -480q13 -14 18 -23q5 -8 5 -16z" />
    <glyph glyph-name="l" unicode="l" horiz-adv-x="452" 
d="M286 20q0 -6 -3 -11t-9 -8q-9 -4 -18 -5q-16 -2 -30 -2t-28 2q-9 1 -19 5q-7 3 -9 8q-3 5 -3 11v1348q0 6 3 11q2 5 9 9q10 4 19 4q7 2 28 2q22 0 30 -2q8 0 18 -4q6 -4 9 -9t3 -11v-1348z" />
    <glyph glyph-name="m" unicode="m" horiz-adv-x="1620" 
d="M1457 20q0 -6 -3 -11q-4 -5 -10 -8q-7 -4 -18 -5q-14 -2 -28 -2t-30 2q-9 1 -18 5q-6 3 -10 8q-2 6 -2 11v557q0 63 -12 117q-10 51 -36 90q-26 38 -62 58q-37 20 -88 20q-63 0 -128 -49q-67 -53 -141 -144v-649q0 -6 -3 -11q-4 -5 -10 -8q-7 -4 -18 -5q-14 -2 -28 -2
t-28 2q-9 1 -19 5q-7 3 -9 8q-3 5 -3 11v557q0 63 -12 117q-12 52 -37 90q-26 38 -62 58q-37 20 -88 20q-63 0 -128 -49q-64 -51 -140 -144v-649q0 -6 -3 -11t-9 -8q-9 -4 -18 -5q-16 -2 -30 -2t-28 2q-9 1 -19 5q-7 3 -9 8q-3 5 -3 11v905q0 7 3 11q2 5 9 8q1 1 17 6
q4 0 13 0.5t15 0.5t15.5 -0.5t12.5 -0.5q15 -4 17 -6q5 -3 9 -8q2 -6 2 -11v-128q78 88 148 126q71 39 139 39q60 0 101 -14q43 -12 79 -38q34 -24 58 -58t39 -75q43 49 88 87q42 36 80 58q35 20 72 30q33 10 69 10q86 0 143 -30q59 -30 94 -81q35 -50 52 -119
q15 -68 15 -144v-568z" />
    <glyph glyph-name="n" unicode="n" horiz-adv-x="1064" 
d="M901 20q0 -6 -3 -11q-4 -5 -10 -8q-7 -4 -18 -5q-14 -2 -28 -2t-30 2q-9 1 -18 5q-6 3 -9 8t-3 11v537q0 85 -13 137q-13 51 -39 90q-26 36 -66 58q-43 20 -95 20q-70 0 -138 -49t-145 -144v-649q0 -6 -3 -11t-9 -8q-9 -4 -18 -5q-16 -2 -30 -2t-28 2q-9 1 -19 5
q-7 3 -9 8q-3 5 -3 11v905q0 7 3 11q2 5 9 8q1 1 17 6q4 0 13 0.5t15 0.5t15.5 -0.5t12.5 -0.5q15 -4 17 -6q5 -3 9 -8q2 -6 2 -11v-128q78 87 153 126t149 39q88 0 150 -30t98 -81q39 -51 54 -119q17 -64 17 -164v-548z" />
    <glyph glyph-name="o" unicode="o" horiz-adv-x="1068" 
d="M968 482q0 -109 -28 -199q-29 -93 -84 -158q-51 -64 -138 -105q-85 -37 -193 -37q-107 0 -185 33q-79 34 -134 96q-53 64 -80 152q-26 90 -26 201q0 109 28 199q26 88 82 158q57 66 139 103q81 37 194 37q107 0 185 -33q80 -32 133 -95q53 -64 80 -152q27 -89 27 -200z
M842 471q0 77 -15 147q-15 69 -50 124q-35 54 -94 84q-57 32 -147 32q-80 0 -140 -29q-61 -30 -96 -81q-38 -49 -56 -121q-18 -71 -18 -151q0 -79 15 -148q15 -70 50 -124q34 -52 94 -84q58 -31 147 -31q80 0 140 29t96 80q38 49 56 121q18 70 18 152z" />
    <glyph glyph-name="p" unicode="p" horiz-adv-x="1064" 
d="M957 486q0 -112 -25 -209q-28 -98 -76 -158q-48 -65 -122 -101q-75 -35 -167 -35q-41 0 -75 9q-34 7 -68 26q-31 16 -68 45q-28 23 -70 65v-467q0 -7 -3 -11q-3 -5 -9 -8q-3 -2 -18 -6q-4 0 -14 -0.5t-16 -0.5t-15.5 0.5t-12.5 0.5q-15 4 -19 6q-7 3 -9 8q-3 4 -3 11
v1264q0 7 3 12q2 5 8 8q3 1 18 5q2 0 11 0.5t14 0.5t13.5 -0.5t11.5 -0.5q16 -4 17 -5q6 -3 10 -8q3 -5 3 -12v-131q42 44 80 74q33 29 76 53q36 20 78 31q39 10 85 10q100 0 167 -38q69 -36 112 -102q42 -60 64 -152q19 -90 19 -184zM832 467q0 75 -12 147q-12 67 -40 125
q-30 55 -76 88q-48 33 -120 33q-39 0 -70 -10q-34 -10 -71 -33q-34 -21 -75 -59q-39 -37 -82 -91v-394q74 -90 144 -139q67 -49 143 -49q68 0 119 33q49 35 80 88q31 54 46 124q14 70 14 137z" />
    <glyph glyph-name="q" unicode="q" horiz-adv-x="1064" 
d="M897 -339q0 -7 -3 -11q-4 -5 -10 -8q-3 -2 -18 -6q-3 0 -12.5 -0.5t-15.5 -0.5t-16 0.5t-14 0.5q-15 4 -18 6q-6 3 -10 8q-2 6 -2 11v482q-40 -41 -83 -76q-38 -31 -76 -49q-38 -20 -73 -27q-40 -8 -76 -8q-97 0 -167 38q-66 36 -113 103q-44 68 -63 152q-20 91 -20 186
q0 117 25 208q27 95 74 157q51 66 121 100q73 35 167 35q40 0 78 -8q35 -9 70 -28q37 -20 69 -48q34 -28 76 -70v117q0 7 3 12q6 6 10 8q3 1 18 5q2 0 11 0.5t15 0.5q5 0 13.5 -0.5t11.5 -0.5q16 -4 17 -5q6 -3 8 -8q3 -5 3 -12v-1264zM778 673q-74 90 -144 139
q-70 48 -146 48q-68 0 -118 -33q-48 -32 -80 -87q-31 -54 -45 -122q-14 -70 -14 -138q0 -76 12 -147q12 -69 41 -126q27 -53 77 -89q48 -33 120 -33q37 0 70 10q34 10 70 33q36 22 75 60q42 40 82 90v395z" />
    <glyph glyph-name="r" unicode="r" horiz-adv-x="706" 
d="M669 879q0 -19 -1 -25q-1 -12 -4 -18q-1 -5 -6 -10q-3 -3 -9 -3q-11 0 -21 5q-4 1 -13 4l-15 5q-30 8 -35 9q-16 5 -42 5t-53 -11q-30 -14 -54 -38q-28 -23 -60 -67q-32 -41 -70 -103v-612q0 -6 -3 -11t-9 -8q-9 -4 -18 -5q-16 -2 -30 -2t-28 2q-9 1 -19 5q-7 3 -9 8
q-3 5 -3 11v905q0 7 3 11q2 5 9 8q1 1 17 6q4 0 13 0.5t15 0.5t15.5 -0.5t12.5 -0.5q15 -4 17 -6q5 -3 9 -8q2 -6 2 -11v-143q40 59 72 92q36 38 63 54q27 19 59 27q25 7 58 7q19 0 30 -2q16 0 36 -5q14 -3 36 -9q5 -2 21 -10l8 -8q3 -9 3 -10q2 -3 2 -14q1 -7 1 -25z" />
    <glyph glyph-name="s" unicode="s" horiz-adv-x="792" 
d="M699 261q0 -65 -24 -117q-24 -51 -69 -87q-42 -35 -106 -55q-60 -19 -137 -19q-40 0 -89 7q-48 10 -76 20q-33 10 -58 24q-27 16 -34 23q-12 12 -16 25q-5 17 -5 40q0 9 2 23q1 7 5 17q3 6 8 10q4 4 11 4q10 0 32 -14q31 -20 53 -30q26 -16 74 -31q47 -14 101 -14
q48 0 84 10q37 11 66 30q27 18 43 51q16 32 16 74t-20 71q-19 27 -52 51q-27 17 -74 38q-9 3 -86 34q-44 17 -84 38q-43 22 -74 51q-34 31 -53 72q-20 43 -20 101q0 47 18 92q17 44 55 82q38 35 96 58q59 22 139 22q34 0 67 -6q30 -4 62 -14q32 -11 47 -20q8 -4 31 -18
q9 -8 14 -14q4 -6 4 -11q1 -1 3 -15q1 -5 1 -20t-2 -22q0 -6 -4 -16q-3 -8 -8 -10q-3 -4 -10 -4t-24 11q-16 11 -42 24q-25 13 -62 24q-38 11 -83 11t-83 -11q-34 -10 -58 -31t-34 -47q-12 -27 -12 -59q0 -43 20 -74q19 -28 53 -52q33 -22 75 -39q5 -2 36.5 -14.5
t49.5 -19.5q35 -14 85 -37q41 -20 75 -50t53 -70q20 -40 20 -97z" />
    <glyph glyph-name="t" unicode="t" horiz-adv-x="673" 
d="M603 74q0 -20 -3 -34q-5 -15 -12 -20q-5 -7 -22 -14q-7 -4 -33 -12q-38 -6 -40 -6q-21 -3 -41 -3q-68 0 -114 18q-48 19 -77 55q-31 37 -43 92q-14 52 -14 132v563h-135q-15 0 -22 13q-8 13 -8 37q0 9 2 23q1 8 6 16q5 6 9 9q6 3 13 3h135v222q0 5 2 11q3 5 10 9
q10 4 18 4q8 2 29 2q22 0 29 -2q10 0 18 -4q7 -4 10 -9t3 -11v-222h250q7 0 13 -3q4 -3 9 -9q5 -8 6 -16q2 -14 2 -23q0 -25 -9 -37q-7 -13 -21 -13h-250v-547q0 -102 29 -157q30 -54 108 -54q21 0 44 5q17 4 34 11q5 2 13.5 5.5t12.5 5.5q10 5 18 5q3 0 9 -2q3 -1 7 -7
q3 -11 4 -14q0 -3 0.5 -10t0.5 -12z" />
    <glyph glyph-name="u" unicode="u" horiz-adv-x="1064" 
d="M897 20q0 -6 -3 -11q-2 -5 -9 -8q-9 -4 -18 -5q-14 -2 -27 -2q-15 0 -29 2q-10 1 -17 5q-6 3 -8 8q-3 5 -3 11v128q-78 -87 -153 -126q-74 -39 -148 -39q-88 0 -150 30t-98 81q-39 52 -54 120q-17 64 -17 164v547q0 7 3 11q2 5 9 8q4 2 19 6q3 0 12.5 0.5t15.5 0.5
t16 -0.5t14 -0.5q15 -4 18 -6q6 -3 9 -8q3 -4 3 -11v-536q0 -86 13 -137q14 -55 39 -90q24 -37 66 -58t95 -21q70 0 137 49q70 50 146 144v649q0 5 2 11q4 5 10 8q3 2 18 6q4 0 14 0.5t16 0.5t15.5 -0.5t12.5 -0.5q15 -4 18 -6q6 -3 10 -8q3 -4 3 -11v-905z" />
    <glyph glyph-name="v" unicode="v" horiz-adv-x="901" 
d="M860 927v-7q0 -1 -1 -3t-1 -3q0 -4 -1 -6q0 -1 -0.5 -3.5t-1.5 -3.5l-328 -881q-4 -9 -9 -13q-7 -5 -15 -8q-7 -2 -21 -4q-9 -1 -30 -1t-30 2q-10 0 -22 4q-8 3 -15 8q-6 4 -9 12l-328 881q-4 10 -4 13q-2 3 -2 8q-1 2 -1 5q0 7 3 12q4 6 10 7q4 2 17 4q7 1 27 1
q8 0 19.5 -0.5t15.5 -0.5q18 -4 21 -5q7 -3 10 -8q4 -4 7 -12l283 -790l2 -5l2 5l278 790q2 7 6 12q6 6 12 8q2 1 20 5q3 0 14 0.5t18 0.5q20 0 26 -1q12 -2 17 -4q7 -3 9 -8q2 -4 2 -11z" />
    <glyph glyph-name="w" unicode="w" horiz-adv-x="1431" 
d="M1368 927q0 -7 -2 -11l-3 -15l-280 -881q-1 -8 -7 -13q-7 -5 -15 -8q-7 -2 -23 -4q-10 -1 -35 -1q-26 0 -36 2q-11 0 -25 4q-9 3 -14 8q-7 5 -8 12l-210 714l-2 8l-2 -8l-196 -714q-2 -8 -8 -13t-16 -8q-9 -2 -26 -4q-10 -1 -34 -1q-25 0 -34 2q-10 0 -24 4q-9 3 -14 8
q-6 6 -7 12l-278 881q-1 2 -2.5 6.5l-2.5 7.5q0 3 -0.5 7t-0.5 5q0 7 3 12q4 6 10 7q6 2 18 4q7 1 27 1q8 0 19 -0.5t15 -0.5q16 -4 19 -5q6 -3 10 -8q4 -6 5 -12l239 -790l2 -7l2 7l217 790q1 6 5 12q6 6 10 8q3 1 9.5 3t8.5 2q4 0 14 0.5t16 0.5t15.5 -0.5t12.5 -0.5
q2 0 8.5 -2t9.5 -3q6 -3 10 -8q4 -6 5 -12l234 -790l2 -7l1 7l238 790q2 7 6 12t10 8q3 1 20 5q3 0 14 0.5t18 0.5q19 0 26 -1q11 -2 16 -4q7 -3 8 -8q2 -4 2 -11z" />
    <glyph glyph-name="x" unicode="x" horiz-adv-x="857" 
d="M799 39q7 -12 9 -21q0 -8 -7 -14q-9 -5 -21 -8q-20 -2 -37 -2q-25 0 -33 2q-12 0 -20 4q-9 3 -12 8q-2 1 -9 11l-244 378l-243 -378q-6 -8 -8 -11q-8 -6 -13 -8q-10 -4 -21 -4q-8 -2 -32 -2q-17 0 -35 2q-12 3 -21 8q-6 6 -6 14q2 10 10 21l298 439l-284 429q-8 13 -8 21
q-1 7 6 14q12 6 23 7q20 2 37 2q8 0 19 -0.5t15 -0.5q17 -4 19 -5q1 -1 11 -7q2 -2 4 -5.5t4 -5.5l230 -354l236 354q2 2 4.5 5.5t3.5 5.5q1 0 4.5 3t5.5 4q3 1 9.5 3t8.5 2q3 0 14 0.5t18 0.5q16 0 36 -2q11 -1 21 -7q7 -4 7 -14q-2 -9 -10 -21l-286 -425z" />
    <glyph glyph-name="y" unicode="y" horiz-adv-x="903" 
d="M519 0l-126 -339q-4 -10 -21 -19q-19 -7 -51 -7q-14 0 -30 2q-9 1 -19 7q-5 5 -7 14q-1 7 4 21l128 321q-9 4 -14 10q-7 9 -8 14l-329 883q-5 15 -5 23t5 13q5 4 18 7q4 0 15 0.5t19 0.5t19.5 -0.5t15.5 -0.5q18 -4 21 -5q7 -3 10 -8q4 -4 7 -12l283 -790h4l278 790
q4 12 14 19q6 2 22 6q4 0 15.5 0.5t18.5 0.5q14 0 32 -2q10 -1 18 -7q6 -4 6 -14q0 -6 -5 -21z" />
    <glyph glyph-name="z" unicode="z" horiz-adv-x="806" 
d="M714 52q0 -9 -2 -23q-3 -10 -7 -17q-5 -6 -10 -9q-6 -3 -13 -3h-539q-17 0 -31 12q-12 12 -12 40v28q0 8 2 20q1 8 6 19q6 14 10 21q16 25 17 27l430 675h-422q-14 0 -23 12q-9 14 -9 40q0 12 3 23q1 9 6 17q5 6 10 9q6 3 13 3h500q9 0 17 -3t14 -9q6 -7 8 -16
q4 -9 4 -24v-23q0 -13 -2 -20q0 -8 -5 -21q-1 -2 -3 -6.5t-4 -8t-4 -7.5q-10 -18 -17 -29l-429 -675h460q7 0 13 -3q5 -3 10 -9q4 -7 7 -17q2 -14 2 -23z" />
    <glyph glyph-name="braceleft" unicode="{" horiz-adv-x="612" 
d="M552 -267q0 -9 -2 -19t-6 -14q-6 -6 -10 -8q-4 -3 -11 -3q-18 -2 -23 -2h-25q-61 0 -99 20q-37 19 -60 59q-22 43 -28 100q-8 53 -8 161v224q0 69 -8 117q-9 44 -27 77q-19 34 -46 53q-29 20 -67 23q-11 2 -14 4q-6 3 -9 8q-2 4 -4 13q-1 4 -1 16t1 18q2 10 4 12q3 5 9 8
q4 1 14 3q76 7 112 75q36 66 36 195v179q0 96 8 160q7 59 30 100q22 40 60 60t97 20h23q3 0 23 -2q7 0 13 -3q4 -2 10 -8q4 -4 6 -13q2 -12 2 -20q0 -10 -2 -20q-2 -9 -6 -15q-5 -6 -10 -9q-8 -2 -13 -2h-43q-24 0 -41 -9q-18 -10 -28 -35q-11 -27 -17 -72q-5 -53 -5 -142
v-158q0 -76 -7 -122q-8 -53 -25 -92q-19 -43 -49 -70q-32 -29 -80 -38q48 -9 80 -38q30 -27 49 -70q17 -39 25 -92q7 -46 7 -122v-203q0 -91 5 -141q6 -46 17 -73q10 -25 28 -35q17 -9 41 -9h45q7 0 11 -3q5 -1 10 -8q4 -6 6 -14q2 -12 2 -21z" />
    <glyph glyph-name="bar" unicode="|" horiz-adv-x="927" 
d="M519 -339q0 -7 -3 -11q-2 -5 -8 -8q-3 -2 -18 -6q-3 0 -12 -0.5t-15 -0.5t-14.5 0.5t-12.5 0.5q-14 5 -16 6q-6 3 -10 8q-2 6 -2 11v1741q0 5 2 11q4 5 10 8q7 3 16 5q16 2 27 2q13 0 27 -2q9 -1 18 -5q6 -3 8 -8q3 -5 3 -11v-1741z" />
    <glyph glyph-name="braceright" unicode="}" horiz-adv-x="612" 
d="M575 564q0 -4 -0.5 -10t-0.5 -8q-4 -11 -5 -12q-3 -5 -9 -8q-3 -1 -13 -3q-42 -3 -73 -29q-29 -29 -45 -68q-17 -44 -23 -94q-7 -49 -7 -126v-179q0 -100 -9 -160q-7 -59 -30 -100q-21 -40 -59 -60t-97 -20h-24q-2 0 -26 2q-6 0 -12 3q-3 2 -9 8q-3 4 -7 14q-2 10 -2 19
t2 21q4 10 7 14q5 7 9 8q6 3 12 3h46q24 0 41 9q18 10 28 35q11 27 17 73q5 50 5 141v158q0 76 7 129q7 58 25 108q18 48 49 85q33 36 80 45q-47 9 -80 30q-32 24 -49 55q-18 32 -25 77q-7 39 -7 115v203q0 89 -5 142q-6 45 -17 72q-10 25 -28 35q-16 9 -41 9h-42
q-7 0 -15 2q-4 2 -11 9q-5 11 -6 15q-2 10 -2 20q0 8 2 20q1 6 6 13q10 7 11 8q6 3 15 3q18 2 22 2h24q60 0 98 -20t60 -60t29 -99q8 -64 8 -161v-224q0 -72 9 -109q7 -36 26 -61q17 -24 46 -38q27 -11 67 -16q9 0 13 -3q6 -3 9 -9q1 -1 5 -12q0 -2 0.5 -7.5t0.5 -8.5z" />
    <glyph glyph-name="asciitilde" unicode="~" horiz-adv-x="1020" 
d="M960 1018q-3 -63 -25 -108q-24 -51 -57 -79q-31 -30 -78 -49q-46 -16 -90 -16q-50 0 -86 12q-38 13 -64 32q-26 17 -48 44q-26 32 -38 48q-24 30 -35 44q-16 21 -37 37q-16 15 -42 25q-23 10 -54 10q-40 0 -66 -16q-25 -15 -44 -42q-15 -27 -24 -61q-7 -40 -7 -70
q0 -18 -13 -21q-13 -5 -39 -5q-5 0 -13.5 0.5t-11.5 0.5q-14 4 -16 5q-5 3 -7 7q-2 8 -2 11v26q0 62 18 112q18 49 51 82q34 34 79 50q48 17 102 17q49 0 85 -12q37 -10 64 -30q28 -19 49 -43q16 -19 39 -47q19 -27 34 -45q14 -20 36 -37q14 -13 42 -26q23 -10 55 -10
q38 0 65 15q27 16 43 41q18 27 25 60q8 38 8 75q0 15 12 19q15 5 38 5q5 0 13.5 -0.5t11.5 -0.5q16 -4 17 -5q6 -3 8 -8q3 -5 2 -12v-35z" />
    <glyph glyph-name="exclamdown" unicode="&#xa1;" horiz-adv-x="667" 
d="M242 832q0 5 2 11q4 5 9 8q6 3 17 5q14 2 26 2q11 0 25 -2q13 -2 17 -5q7 -3 9 -8q3 -5 3 -11l13 -979q0 -13 -3 -20q-1 -9 -10 -14q-8 -7 -20 -8q-18 -2 -34 -2q-20 0 -33 3q-13 1 -21 8q-6 4 -10 13q-3 7 -3 20zM211 1088q0 28 3 46q5 21 14 30q11 11 26 15q18 5 42 5
t42 -5q17 -5 26 -15q10 -10 13 -30q4 -16 4 -46t-4 -47q-3 -20 -13 -30q-9 -10 -26 -15q-15 -4 -42 -4t-42 4t-26 15q-9 9 -14 30q-3 20 -3 47z" />
    <glyph glyph-name="cent" unicode="&#xa2;" horiz-adv-x="1020" 
d="M890 324q0 -21 -4 -39q-7 -16 -16 -25q-16 -16 -34 -28q-17 -14 -50 -32q-40 -18 -64 -26q-37 -12 -75 -16v-152q0 -7 -3 -11q-1 -4 -8 -9q-10 -4 -18 -4q-7 -2 -27 -2q-19 0 -27 2q-8 0 -16 4q-7 4 -10 9q-2 6 -2 11v150q-169 16 -256 138q-87 123 -87 342q0 117 26 207
q25 86 71 149q46 60 109 94q61 32 137 43v152q0 5 2 11q4 5 10 8q2 1 16 6q4 0 12.5 0.5t14.5 0.5t15 -0.5t12 -0.5q15 -4 18 -6q6 -3 8 -8q3 -4 3 -11v-150q29 -3 61 -12q34 -10 60 -22q33 -16 54 -30q20 -12 39 -29q12 -12 17 -20q4 -6 7 -14q2 -4 4 -17q1 -7 1 -23
q0 -14 -2 -20q0 -7 -4 -17q-4 -6 -10 -11q-4 -4 -12 -4q-16 0 -34 18q-24 22 -52 40q-29 22 -78 40q-44 19 -114 19q-54 0 -102 -21q-47 -19 -85 -66q-36 -45 -59 -120q-21 -74 -21 -182q0 -107 23 -176q20 -71 61 -118q39 -45 91 -66q54 -20 111 -20q61 0 103 19t76 42
q35 26 52 42q19 19 32 19q7 0 10 -4q4 -2 8 -10q4 -12 4 -19q2 -7 2 -25z" />
    <glyph glyph-name="sterling" unicode="&#xa3;" horiz-adv-x="1038" 
d="M945 52q0 -14 -3 -24q-2 -9 -8 -16q-3 -5 -10 -9q-6 -3 -12 -3h-792q-6 0 -12 3q-6 4 -10 9q-6 7 -8 16q-3 10 -3 24q0 12 3 22q1 6 6 16q6 7 11 10q5 4 13 4h132v508h-132q-4 0 -12 2q-6 4 -10 9q-5 7 -8 15q-3 10 -3 24q0 12 3 22q0 2 6 16q7 7 11 9q6 3 13 3h132v135
q0 121 28 211q30 88 80 144q53 55 123 80q69 25 155 25q39 0 82 -8q33 -6 74 -21q36 -15 63 -32q31 -20 41 -32q13 -11 19 -20q6 -10 8 -16t4 -18q1 -6 1 -22q0 -14 -2 -20q0 -7 -4 -17q-3 -5 -9 -11q-4 -4 -12 -4q-14 0 -35 18q-16 16 -52 40q-30 21 -78 40q-45 19 -110 19
q-67 0 -113 -23q-48 -21 -79 -66q-31 -40 -48 -110q-16 -64 -16 -153v-139h360q7 0 13 -3q4 -2 11 -9q6 -14 6 -16q3 -10 3 -22q0 -14 -3 -24q-3 -8 -8 -15q-3 -5 -10 -9q-8 -2 -12 -2h-360v-508h540q8 0 13 -4q5 -3 11 -10q5 -10 6 -16q3 -10 3 -22z" />
    <glyph glyph-name="currency" unicode="&#xa4;" horiz-adv-x="1020" 
d="M781 857q42 -50 63 -116q22 -66 22 -148q0 -80 -26 -155q-27 -71 -78 -127l150 -211q6 -9 10 -20q0 -11 -4 -16q-4 -7 -16 -10q-11 -4 -31 -4q-21 0 -29 1q-12 1 -21 3t-15 6t-11 10l-118 175q-39 -21 -84 -33t-96 -12q-46 0 -89 8q-40 9 -76 26l-119 -177q-4 -6 -10 -10
q-6 -5 -15 -6q-10 -2 -22 -3q-8 -1 -29 -1q-19 0 -31 3q-13 5 -16 10q-4 5 -4 15q4 11 10 20l149 210q-49 49 -75 123q-24 74 -24 159q0 83 24 154q26 72 71 124l-150 213q-9 13 -9 20q-2 9 3 16q4 7 17 10q9 4 30 4q20 0 28 -1q12 -1 22 -3q8 -1 16 -6q6 -4 10 -10
l118 -175q39 21 86 33q46 12 102 12q51 0 98 -11q43 -10 85 -34l119 178q3 4 10 11q10 5 15 6q9 2 21 3q9 1 30 1t30 -4q13 -3 17 -10t3 -16q-2 -10 -9 -20zM753 575q0 53 -13 112q-16 57 -44 95q-28 40 -76 66q-46 25 -114 25q-60 0 -107 -21q-43 -20 -77 -58
q-31 -39 -46 -89q-16 -49 -16 -112q0 -65 13 -117q14 -54 43 -94q31 -41 78 -62q46 -23 118 -23q62 0 105 23q43 20 75 60q29 36 46 88q15 51 15 107z" />
    <glyph glyph-name="yen" unicode="&#xa5;" horiz-adv-x="1038" 
d="M580 599v-65h291q12 0 21 -12q7 -12 7 -34q0 -26 -9 -37q-9 -10 -19 -10h-291v-176h291q12 0 21 -11q7 -14 7 -35q0 -25 -9 -37q-10 -10 -19 -10h-291v-153q0 -6 -3 -11q-4 -5 -10 -8q-10 -4 -19 -4q-8 -2 -29 -2t-29 2q-9 0 -19 4q-6 3 -10 8q-3 5 -3 11v153h-291
q-9 0 -19 10q-9 12 -9 37q0 23 9 35q8 11 19 11h291v176h-291q-10 0 -19 10t-9 37q0 24 9 34q7 12 19 12h291v65l-384 654q-7 13 -9 23q-2 9 6 14q8 7 21 8q20 2 38 2q23 0 32 -2q10 0 20 -4q8 -3 13 -8q5 -4 9 -12l171 -301q42 -73 75 -136q50 -94 75 -142q9 16 24 45
t27 52.5t23 44.5q29 57 74 136l169 301q4 8 7 11q6 6 11 8q10 4 20 5q16 2 32 2q18 0 36 -2q13 -3 20 -8t4 -14q0 -9 -8 -23z" />
    <glyph glyph-name="brokenbar" unicode="&#xa6;" horiz-adv-x="1020" 
d="M564 753q0 -5 -2 -11q-4 -5 -10 -8q-2 -2 -17 -6q-3 0 -12 -0.5t-15 -0.5t-15 0.5t-12 0.5q-15 4 -17 6q-6 3 -10 8q-2 6 -2 11v673q0 5 2 11q4 5 10 8q7 4 17 5q14 2 27 2t27 -2q10 -1 17 -5q6 -3 10 -8q2 -6 2 -11v-673zM564 -371q0 -5 -2 -11q-4 -5 -10 -8
q-7 -4 -17 -5q-14 -2 -27 -2t-27 2q-10 1 -17 5q-6 3 -10 8q-2 6 -2 11v686q0 5 2 11q4 5 10 8q2 2 17 6q3 0 12 0.5t15 0.5t15 -0.5t12 -0.5q15 -4 17 -6q6 -3 10 -8q2 -6 2 -11v-686z" />
    <glyph glyph-name="section" unicode="&#xa7;" horiz-adv-x="1020" 
d="M894 538q0 -39 -12 -78q-15 -44 -36 -74q-20 -35 -54 -67q-28 -29 -69 -54q37 -36 57 -81q19 -42 19 -102q0 -68 -25 -118q-25 -52 -70 -90q-45 -35 -108 -55q-61 -19 -138 -19q-52 0 -93 10q-44 9 -77 22q-28 10 -56 26q-22 14 -28 20t-10 12q-3 5 -5 12q-1 3 -2 8.5
t-1 8.5q-1 6 -1 20q0 8 2 22q1 7 5 17q2 5 8 11q4 4 11 4q13 0 33 -14q15 -11 48 -31q33 -18 72 -30q47 -14 107 -14q44 0 81 10q38 11 64 30q27 20 44 52q15 31 15 74q0 39 -11 70q-10 29 -35 53q-24 24 -61 44q-50 25 -90 41l-87 35q-59 23 -105 51q-47 27 -80 62
q-34 35 -52 82q-19 45 -19 108q0 40 13 78q12 38 35 74q20 32 55 67q28 28 70 53q-40 38 -58 85q-20 44 -20 112q0 59 22 104q21 47 61 81q39 32 96 52q56 18 125 18q36 0 70 -6q35 -6 60 -16q26 -8 48 -20q19 -11 28 -18q6 -5 10 -11q0 -1 1 -3t2 -4.5t1 -4.5q2 -10 3 -16
t1 -21t-2 -22q0 -6 -4 -16q-3 -8 -8 -10q-3 -4 -10 -4q-8 0 -22 11q-8 6 -38 25q-31 16 -60 24q-36 12 -86 12q-49 0 -80 -14q-31 -11 -54 -34q-21 -21 -30 -48q-10 -24 -10 -52q0 -44 12 -74q10 -31 35 -56q24 -25 61 -46q45 -23 89 -41l87 -35q58 -24 105 -51t81 -63
q32 -34 52 -81q18 -47 18 -107zM771 532q0 79 -47 126q-46 47 -144 85l-87 36q-19 7 -53 23q-32 16 -47 25q-70 -31 -103 -87q-32 -58 -32 -119q0 -39 12 -69q9 -28 34 -56q23 -24 60 -46q34 -20 85 -40l87 -35q23 -8 52 -23q22 -10 48 -26q71 32 102 88q33 57 33 118z" />
    <glyph glyph-name="dieresis" unicode="&#xa8;" horiz-adv-x="779" 
d="M297 1211q0 -46 -16 -62t-59 -16t-58 15q-16 16 -16 62q0 47 16 63t58 16q44 0 60 -16q15 -17 15 -62zM631 1211q0 -46 -16 -62t-59 -16t-58 15q-16 16 -16 62q0 47 16 63t58 16q44 0 60 -16q15 -17 15 -62zM0 946z" />
    <glyph glyph-name="copyright" unicode="&#xa9;" horiz-adv-x="1709" 
d="M864 76q158 0 265 48q105 49 169 134q64 86 91 202t27 250q0 141 -30 252q-31 110 -99 188q-70 78 -177 116q-107 41 -266 41q-137 0 -242 -39q-104 -40 -172 -118q-68 -79 -103 -198q-34 -117 -34 -279q0 -144 32 -257q31 -110 101 -188q67 -75 176 -114
q111 -38 262 -38zM1524 719q0 -195 -44 -331q-42 -138 -128 -229q-86 -90 -210 -133q-122 -43 -287 -43q-169 0 -294 43q-128 43 -209 128q-83 83 -126 212q-41 131 -41 298q0 184 41 324q40 135 124 230q85 92 210 136q123 46 293 46q178 0 303 -46q127 -46 209 -134
q82 -86 121 -214q38 -128 38 -287zM1137 399q0 -14 -1 -20q-2 -10 -4 -16q-1 -5 -5 -13q-4 -7 -13 -14q-10 -11 -34 -27q-31 -20 -58 -31q-34 -15 -74 -24q-39 -9 -86 -9q-89 0 -156 29q-66 27 -112 84q-46 55 -70 138q-23 84 -23 190q0 123 29 204q26 83 78 140
q50 56 118 81q67 26 145 26q37 0 77 -8q34 -7 68 -21q35 -16 57 -30q25 -16 38 -29q11 -11 15 -17q5 -6 6 -13q2 -6 4 -16q1 -6 1 -19q0 -8 -2 -20q-1 -7 -5 -14q-3 -7 -8 -9q-3 -3 -10 -3q-17 0 -36 16q-14 12 -46 35q-26 18 -68 35q-39 16 -100 16q-118 0 -182 -90
q-63 -88 -63 -260q0 -88 17 -154q16 -64 50 -108q32 -42 80 -64q48 -21 109 -21q53 0 95 17q32 13 68 37q22 16 47 37q20 17 33 17q4 0 9 -3q4 -3 7 -10q0 -1 1 -4t1.5 -6t1.5 -6q0 -3 0.5 -10.5t0.5 -12.5z" />
    <glyph glyph-name="ordfeminine" unicode="&#xaa;" horiz-adv-x="808" 
d="M645 643q0 -5 -3 -9q-3 -3 -9 -6q-12 -3 -15 -4q-3 0 -10.5 -0.5t-12.5 -0.5t-13.5 0.5t-11.5 0.5q-3 1 -6 1.5t-6 1.5t-4 1q-7 3 -8 6q-3 4 -3 9v62h-2q-41 -45 -91 -69t-109 -24q-50 0 -89 13q-42 14 -68 37q-29 24 -44 61q-16 35 -16 83q0 52 22 92t60 64q36 25 94 39
q53 13 123 13h104v46q0 34 -8 64q-7 26 -26 46q-17 17 -47 28q-30 9 -73 9q-39 0 -69 -10q-31 -10 -58 -21q-22 -10 -42 -22q-14 -10 -22 -10q-14 0 -20 14q-8 12 -8 40q0 12 2 18q0 6 4 12q6 8 10 11q8 6 34 19q32 16 78 30q50 15 111 15q71 0 119 -18q46 -17 78 -49
q29 -34 42 -76q13 -40 13 -94v-423zM651 404q0 -26 -8 -37t-24 -11h-471q-15 0 -23 11t-8 37q0 28 8 39t23 11h471q16 0 24 -11t8 -39zM527 929h-101q-45 0 -80 -8q-32 -7 -56 -23q-24 -17 -32 -38q-11 -19 -11 -48q0 -51 31 -79t85 -28q22 0 44 5q21 5 39 16q17 8 38 27
q17 14 43 41v135z" />
    <glyph glyph-name="guillemotleft" unicode="&#xab;" horiz-adv-x="1020" 
d="M829 163q6 -7 6 -15q0 -7 -5 -10q-5 -5 -18 -8q-16 -2 -31 -2h-31q-14 2 -18 4q-9 2 -12 6q-5 4 -10 12l-219 330q-14 22 -14 40t14 38l219 330q3 5 10 12q5 5 12 6q4 2 18 4h31q15 0 31 -2q13 -3 18 -8q5 -3 5 -10q0 -8 -6 -15l-228 -356zM256 517l220 -367q5 -7 7 -16
q1 -6 -3 -14q-7 -6 -16 -8q-10 -3 -30 -3q-22 0 -29 1q-7 0 -19 2q-8 4 -12 8t-9 12l-219 346q-14 23 -14 42q0 18 14 40l219 347q3 5 9 11q4 4 12 8q12 2 19 2q7 1 29 1q20 0 30 -3q11 -2 16 -8q5 -5 4 -12q0 -7 -6 -16z" />
    <glyph glyph-name="logicalnot" unicode="&#xac;" horiz-adv-x="1020" 
d="M916 345q0 -8 -4 -13t-10 -8q-3 -2 -18 -6q-3 0 -12 -0.5t-15 -0.5q-5 0 -14 0.5t-12 0.5q-15 4 -18 6q-5 2 -11 8q-3 6 -3 13v163h-697q-9 0 -14 4q-6 3 -10 10q-4 8 -6 18q-3 10 -3 25q0 13 3 25q2 10 6 17q4 6 10 11q6 3 14 3h751q38 0 49 -11q14 -8 14 -45v-220z" />
    <glyph glyph-name="registered" unicode="&#xae;" horiz-adv-x="1038" 
d="M897 1022q0 -78 -29 -150q-30 -69 -81 -120q-51 -52 -121 -82q-70 -29 -149 -29q-85 0 -152 29q-65 25 -119 78q-49 52 -77 120q-28 69 -28 152q0 78 29 150q30 69 81 120q52 52 121 80q69 30 149 30t152 -28q72 -31 119 -80q49 -49 78 -119q27 -69 27 -151zM823 1016
q0 71 -23 131t-64 101q-40 44 -96 64q-52 23 -119 23q-71 0 -125 -25q-58 -26 -97 -68q-38 -40 -62 -98q-22 -54 -22 -119q0 -71 23 -131t64 -101q37 -40 95 -65q58 -22 120 -22q71 0 127 25q56 26 96 67q39 42 62 99q21 55 21 119zM695 829q0 -5 -1 -7q-2 -4 -6 -4
q-1 -1 -14 -3q-7 -1 -27 -1q-17 0 -23 1q-9 1 -16 3q-6 3 -10 7q-4 6 -5 11l-22 71q-13 40 -32 56t-57 16h-28v-148q0 -9 -7 -13t-34 -4q-29 0 -36 4q-8 5 -8 13v369q0 20 9 30q10 12 30 12h107q39 0 73 -8q31 -8 50 -24q20 -16 30 -38q9 -21 9 -50q0 -49 -27 -76
q-26 -27 -70 -37q21 -7 45 -27q21 -21 37 -59l26 -68q7 -20 7 -26zM584 1112q0 14 -4 22q-3 11 -12 19q-8 7 -24 13q-22 4 -40 4h-50v-122h48q48 0 64 18q18 16 18 46z" />
    <glyph glyph-name="macron" unicode="&#xaf;" horiz-adv-x="812" 
d="M638 1277q6 0 11 -3q5 -4 8 -9q4 -7 5 -15q2 -14 2 -23t-2 -21q-1 -6 -5 -16q-2 -4 -8 -10q-5 -3 -11 -3h-462q-8 0 -12 3q-6 6 -8 10q-5 8 -6 16q-2 12 -2 21t2 23q2 9 6 15q3 5 8 9q4 3 12 3h462zM0 946z" />
    <glyph glyph-name="degree" unicode="&#xb0;" horiz-adv-x="690" 
d="M571 1137q0 -44 -17 -87q-19 -42 -49 -70q-33 -31 -73 -47q-43 -17 -91 -17q-49 0 -87 16q-40 14 -71 42q-31 30 -47 68q-17 40 -17 87q0 50 18 89q17 39 49 70q36 31 73 44q40 17 90 17q48 0 87 -15q42 -17 71 -44q31 -28 47 -66q17 -40 17 -87zM471 1133q0 30 -10 54
q-10 25 -27 43q-15 16 -40 28q-23 10 -51 10t-49 -10q-25 -12 -40 -28q-16 -18 -27 -42q-10 -24 -10 -53q0 -31 10 -57q11 -26 27 -43q17 -17 42 -28q23 -10 51 -10q27 0 48 11q24 9 39 28q16 17 27 44q10 23 10 53zM0 1294z" />
    <glyph glyph-name="plusminus" unicode="&#xb1;" horiz-adv-x="1020" 
d="M940 701q0 -30 -10 -43q-11 -15 -25 -15h-338v-378q0 -5 -3 -11q-5 -5 -10 -8q-10 -4 -18 -5q-12 -2 -26 -2q-12 0 -26 2q-9 1 -18 5q-5 3 -10 8q-4 5 -4 11v378h-337q-15 0 -25 15q-10 13 -10 43q0 11 2 23q2 8 8 18q4 6 11 10q5 4 14 4h337v379q0 8 4 12q3 5 10 9
q8 4 18 6q14 2 26 2q14 0 26 -2q10 -1 18 -6q7 -4 10 -9t3 -12v-379h338q8 0 13 -4q8 -3 12 -10q6 -10 8 -18q2 -12 2 -23zM938 56q0 -16 -3 -27q-3 -10 -8 -17q-4 -6 -11 -10q-6 -2 -11 -2h-786q-4 0 -12 2q-7 4 -11 10q-5 7 -8 17q-3 11 -3 27q0 14 3 26q1 3 6 17
q6 7 12 11q6 3 13 3h786q7 0 13 -3q8 -6 10 -11q4 -5 8 -17q2 -16 2 -26z" />
    <glyph glyph-name="uni00B2" unicode="&#xb2;" horiz-adv-x="686" 
d="M603 773q0 -20 -6 -35q-7 -13 -19 -13h-461q-5 0 -15 2q-6 2 -10 7q-4 3 -8 13q-2 10 -2 21q0 14 1 19q2 12 4 15l7 14q1 2 3.5 5t4.5 5.5t4 4.5l165 161q55 52 93 100q34 45 54 81t24 66q6 30 6 57q0 52 -36 86q-37 34 -104 34q-35 0 -72 -10q-44 -17 -54 -23
q-27 -13 -40 -23q-18 -10 -23 -10q-3 0 -8 3q-4 3 -7 9q-4 8 -4 14q-2 6 -2 20q0 17 3 29q3 11 11 21q10 8 29 20q23 14 48 22q22 9 62 18q32 7 72 7q63 0 107 -17q44 -15 75 -44q30 -28 45 -66q14 -39 14 -81q0 -35 -6 -70q-8 -39 -30 -78q-20 -42 -64 -95
q-42 -52 -115 -122l-125 -119h354q10 0 18 -13q7 -14 7 -35z" />
    <glyph glyph-name="uni00B3" unicode="&#xb3;" horiz-adv-x="684" 
d="M588 944q0 -53 -19 -94q-19 -43 -55 -73q-36 -29 -92 -47q-58 -16 -124 -16q-48 0 -86 6q-43 8 -66 16q-26 9 -43 18q-16 7 -19 12q-5 3 -6 8q-4 4 -4 10q-1 2 -3 16q-1 6 -1 23q0 18 5 31q4 14 16 14q6 0 23 -10q14 -9 42 -20q30 -12 62 -20q34 -10 79 -10q85 0 129 34
q45 33 45 94q0 33 -14 59t-41 44t-66 27t-90 9h-78q-7 0 -10 3q-5 2 -8 10q-4 6 -6 15q-2 12 -2 21t2 19q2 9 6 13q3 7 8 9q3 3 10 3h72q88 0 138 37q49 38 49 104q0 51 -33 81t-100 30q-40 0 -71 -10q-33 -11 -59 -22q-6 -3 -21 -11t-21 -12q-16 -10 -23 -10q-10 0 -14 11
q-4 8 -4 34q0 12 1 18q2 8 2 13q2 4 4 10q2 3 9 10t28 17q19 10 51 22q22 7 62 16q32 7 67 7q58 0 105 -14q42 -13 73 -39q30 -29 43 -61q14 -36 14 -77q0 -74 -41 -124q-41 -51 -118 -65v-2q39 -3 75 -17q36 -16 62 -40q27 -27 41 -58q15 -33 15 -72z" />
    <glyph glyph-name="acute" unicode="&#xb4;" horiz-adv-x="588" 
d="M302 1366q5 9 13 17q7 7 17 11q12 4 22 4q10 2 33 2q19 0 31 -3q13 -3 17 -9q6 -6 3 -12q0 -7 -8 -17l-174 -234q-8 -11 -12 -15q-6 -6 -13 -9q-6 -2 -17 -4q-7 -1 -25 -1q-11 0 -25 2q-10 3 -12 8q-5 3 -3 11t7 16z" />
    <glyph glyph-name="uni00B5" unicode="&#xb5;" horiz-adv-x="1111" 
d="M1085 59q0 -23 -3 -35q-3 -13 -8 -18q-7 -5 -15 -8q-7 -3 -23 -7q-4 -1 -13.5 -2.5t-14.5 -2.5q-5 0 -16 -0.5t-17 -0.5q-81 0 -129 37q-46 40 -56 128q-78 -87 -154 -126t-150 -39q-65 0 -118 19q-52 18 -88 63q1 -7 1.5 -21t0.5 -22q1 -8 1.5 -24t0.5 -24t1 -24t1 -24
v-45v-222q0 -7 -3 -11q-3 -5 -9 -8q-3 -2 -18 -6q-4 0 -14 -0.5t-16 -0.5t-15.5 0.5t-12.5 0.5q-15 4 -19 6q-7 3 -9 8q-3 4 -3 11v1264q0 7 3 11q2 5 9 8q4 2 19 6q3 0 12.5 0.5t15.5 0.5t16 -0.5t14 -0.5q15 -4 18 -6q6 -3 9 -8q3 -4 3 -11v-580q0 -124 55 -191
q55 -69 158 -69q69 0 137 48q69 48 146 143v649q0 7 3 11q3 5 9 8q3 2 18 6q4 0 14 0.5t16 0.5t15.5 -0.5t12.5 -0.5q15 -4 18 -6q6 -3 10 -8q3 -4 3 -11v-675q0 -49 4 -77q5 -32 13 -50q10 -19 26 -27q18 -9 42 -9q13 0 31 2q9 1 23 5q3 1 8.5 2.5t7.5 1.5q10 2 14 2t6 -2
q4 0 5 -6q1 -2 3 -12q1 -5 1 -21z" />
    <glyph glyph-name="paragraph" unicode="&#xb6;" horiz-adv-x="1187" 
d="M997 -206q0 -6 -3 -11q-4 -5 -10 -8q-7 -4 -18 -5q-14 -2 -28 -2t-28 2q-9 1 -19 5q-7 3 -9 8q-3 4 -3 11v1396h-210v-1396q0 -6 -3 -11q-4 -5 -10 -8q-7 -4 -18 -5q-14 -2 -28 -2q-36 0 -47 7q-12 7 -12 19v755q-106 0 -185 25q-80 26 -134 72t-83 116q-28 68 -28 156
q0 80 28 148q29 69 82 119q55 52 135 80q81 29 205 29h371q27 0 42 -17q13 -18 13 -42v-1441z" />
    <glyph glyph-name="periodcentered" unicode="&#xb7;" horiz-adv-x="501" 
d="M336 577q0 -59 -19 -78t-68 -19q-47 0 -65 18q-19 19 -19 77q0 59 19 78t68 19q46 0 66 -18q18 -20 18 -77z" />
    <glyph glyph-name="cedilla" unicode="&#xb8;" horiz-adv-x="634" 
d="M443 -78q23 -50 33 -78q10 -29 10 -55q0 -33 -12 -63q-15 -30 -37 -48q-26 -21 -59 -32q-35 -11 -78 -11q-30 0 -58 3q-5 1 -23 4t-27 4q-4 1 -9.5 2.5t-8 2.5t-5.5 1.5t-5 1.5q-6 3 -10 8q-4 6 -4 12q-2 5 -2 18q0 25 6 34q7 7 18 7h128q36 0 55 15q20 14 20 44
q0 15 -7 36q-6 17 -18 46l-57 126h115z" />
    <glyph glyph-name="uni00B9" unicode="&#xb9;" horiz-adv-x="497" 
d="M354 740q0 -6 -4 -10q-3 -4 -10 -6q-6 -2 -18 -4q-8 -1 -25 -1t-23 1q-11 2 -16 4q-7 1 -10 6q-3 4 -3 10v658l-165 -91q-9 -6 -20 -8q-9 -2 -12 3q-6 4 -7 13q-2 12 -2 22q0 14 1 19q2 10 3 14q2 7 6 10q3 3 10 9l193 115q4 2 8 2q1 1 12 3q4 1 14 1q6 1 20 1
q6 0 14 -0.5t10 -0.5l16 -4q6 -2 6 -5q2 -2 2 -7v-754z" />
    <glyph glyph-name="ordmasculine" unicode="&#xba;" horiz-adv-x="851" 
d="M742 964q0 -78 -21 -142q-21 -65 -61 -112q-43 -48 -100 -72q-60 -26 -135 -26q-82 0 -142 24q-59 22 -99 68q-38 43 -58 108q-18 65 -18 145q0 75 20 141q20 65 60 110q40 48 100 73q63 26 142 26q77 0 136 -25q58 -24 97 -68q40 -46 59 -108q20 -66 20 -142zM706 404
q0 -26 -8 -37t-24 -11h-499q-15 0 -23 11t-8 37q0 28 8 39t23 11h499q16 0 24 -11t8 -39zM616 957q0 51 -10 95q-9 45 -31 80q-25 36 -59 54q-36 21 -91 21q-51 0 -86 -19q-36 -18 -59 -50q-24 -35 -34 -78q-12 -45 -12 -98q0 -52 9 -98q9 -45 31 -79q23 -36 59 -53
q36 -20 92 -20q47 0 82 16q37 15 60 46q23 29 37 76q12 46 12 107z" />
    <glyph glyph-name="guillemotright" unicode="&#xbb;" horiz-adv-x="1020" 
d="M654 132q-6 -10 -10 -12q-2 -4 -11 -8q-10 -2 -18 -2q-7 -1 -29 -1q-20 0 -30 3q-11 2 -16 8q-6 5 -5 12t6 16l223 373l-221 367q-5 7 -7 16q-1 7 4 14q5 5 16 8q10 3 30 3q22 0 29 -1q8 0 18 -2q9 -4 11 -8q5 -2 10 -11l219 -347q14 -23 14 -42q0 -18 -14 -40zM310 150
q-5 -8 -10 -12q-3 -4 -12 -6q-4 -2 -18 -4h-31q-16 0 -32 2q-14 3 -17 8q-6 3 -6 10q2 8 7 15l228 356l-228 356q-5 7 -7 15q0 7 6 10q3 5 17 8q16 2 32 2h31q14 -2 18 -4q7 -1 12 -6q7 -7 10 -12l218 -330q14 -22 14 -40t-14 -38z" />
    <glyph glyph-name="onequarter" unicode="&#xbc;" horiz-adv-x="1279" 
d="M1196 184q0 -20 -6 -34q-4 -13 -16 -13h-80v-122q0 -5 -3 -9t-9 -6q-10 -4 -17 -4q-7 -2 -25 -2q-17 0 -24 2q-8 0 -16 4q-6 2 -9 6t-3 9v122h-291q-5 0 -11 2q-4 1 -8 7q-4 8 -5 16q-2 14 -2 25q0 16 1 22q0 11 2 17q0 4 4 14q2 4 8 14l252 380q2 2 9 8q6 3 15 6
q16 3 22 4q4 0 14 0.5t16 0.5q8 0 20 -0.5t16 -0.5q7 -2 25 -4q9 -3 15 -7q4 -6 4 -9v-406h80q10 0 16 -10t6 -32zM988 554h-2l-220 -328h222v328zM224 -17q-5 -6 -10 -9q-4 -4 -13 -6q-6 -2 -19 -4q-6 -1 -25 -1q-15 0 -26 3q-10 4 -14 10q-4 7 -3 16q2 11 8 19l888 1303
q4 6 10 10q4 4 13 6q6 2 19 4q6 1 25 1q15 0 26 -3q9 -4 15 -10q4 -10 2 -16q0 -8 -8 -19zM388 662q0 -6 -4 -10q-3 -5 -10 -6q-6 -3 -18 -4q-6 -1 -24 -1q-16 0 -23 1q-11 2 -17 4t-9 6t-3 10v528l-165 -91q-4 -2 -7.5 -4t-7 -3t-4.5 -2q-10 0 -12 3q-6 4 -7 13
q-2 10 -2 21q0 14 1 20q0 5 2 17q5 10 7 12q6 6 10 9l193 115q1 1 3.5 1.5t3.5 0.5q2 0 5 1t4 1h13q5 1 19 1q18 0 25 -1q9 -1 16 -3q5 -1 9 -5q2 -2 2 -6v-628z" />
    <glyph glyph-name="onehalf" unicode="&#xbd;" horiz-adv-x="1353" 
d="M388 662q0 -6 -4 -10q-3 -5 -10 -6q-6 -3 -18 -4q-6 -1 -24 -1q-16 0 -23 1q-11 2 -17 4t-9 6t-3 10v528l-165 -91q-4 -2 -7.5 -4t-7 -3t-4.5 -2q-10 0 -12 3q-6 4 -7 13q-2 10 -2 21q0 14 1 20q0 5 2 17q5 10 7 12q6 6 10 9l193 115q1 1 3.5 1.5t3.5 0.5q2 0 5 1t4 1h13
q5 1 19 1q18 0 25 -1q9 -1 16 -3q5 -1 9 -5q2 -2 2 -6v-628zM1251 44q0 -22 -6 -33t-16 -11h-395q-10 0 -14 2q-3 0 -9 6q-4 4 -6 14t-2 22q0 16 1 22q0 6 2 18l7 14q3 4 12 13l137 128q38 35 70 69q25 26 44 54q17 28 24 51q7 24 7 54q0 43 -30 72q-29 28 -81 28
q-34 0 -64 -8q-28 -8 -47 -18q-19 -11 -33 -18q-13 -8 -18 -8q-3 0 -6 3q-4 1 -6 8q-4 6 -4 14q-2 6 -2 22q0 14 2 26q2 10 9 16q6 7 25 18q21 11 44 18q26 10 54 14q28 6 60 6q55 0 91 -14q39 -12 65 -38q26 -24 39 -58q13 -33 13 -75q0 -31 -8 -65q-10 -34 -30 -66
q-20 -35 -58 -74q-36 -40 -91 -88l-102 -89h298q13 0 19 -13q5 -15 5 -36zM224 -17q-5 -6 -10 -9q-4 -4 -13 -6q-6 -2 -19 -4q-6 -1 -25 -1q-15 0 -26 3q-10 4 -14 10q-4 7 -3 16q2 11 8 19l888 1303q4 6 10 10q4 4 13 6q6 2 19 4q6 1 25 1q15 0 26 -3q9 -4 15 -10
q4 -10 2 -16q0 -8 -8 -19z" />
    <glyph glyph-name="threequarters" unicode="&#xbe;" horiz-adv-x="1353" 
d="M525 829q0 -43 -18 -79q-17 -34 -51 -62q-35 -26 -80 -40q-48 -14 -105 -14q-22 0 -60 4q-45 9 -53 12q-27 8 -43 16q-17 7 -25 15q-6 8 -9 17t-3 32q0 22 4 32q6 9 13 9q6 0 22 -7q8 -6 35 -17q14 -6 52 -17q35 -7 72 -7t64 9q28 10 42 24q17 13 25 32t8 37q0 27 -10 46
q-12 22 -31 34q-24 16 -54 21q-29 8 -79 8h-67q-2 0 -10 2q-5 5 -7 8q-4 7 -5 14q-2 12 -2 21q0 10 2 20q2 8 5 13q4 6 7 8q6 2 9 2h63q76 0 114 28q41 28 41 79q0 39 -29 65q-28 26 -89 26q-28 0 -55 -8q-28 -8 -46 -18q-26 -13 -34 -18q-16 -8 -19 -8q-2 0 -8 2q-4 1 -7 8
q-4 6 -4 13q-2 5 -2 20v15q2 8 2 12l4 8q4 6 8 8q1 3 20 14q20 11 42 18q24 9 54 15q32 6 65 6q53 0 91 -13q38 -12 63 -34q25 -20 37 -51q13 -29 13 -65q0 -31 -10 -54q-11 -27 -28 -46q-19 -22 -43 -36t-54 -22q42 -5 70 -17q31 -14 50 -33q22 -22 32 -48q11 -28 11 -59z
M298 -17q-5 -6 -10 -9q-4 -4 -13 -6q-6 -2 -19 -4q-6 -1 -25 -1q-15 0 -26 3q-10 4 -14 10q-4 7 -3 16q2 11 8 19l888 1303q4 6 10 10q4 4 13 6q6 2 19 4q6 1 25 1q15 0 26 -3q9 -4 15 -10q4 -10 2 -16q0 -8 -8 -19zM1270 184q0 -20 -6 -34q-4 -13 -16 -13h-80v-122
q0 -5 -3 -9t-9 -6q-10 -4 -17 -4q-7 -2 -25 -2q-17 0 -24 2q-8 0 -16 4q-6 2 -9 6t-3 9v122h-291q-5 0 -11 2q-4 1 -8 7q-4 8 -5 16q-2 14 -2 25q0 16 1 22q0 11 2 17q0 4 4 14q2 4 8 14l252 380q2 2 9 8q6 3 15 6q16 3 22 4q4 0 14 0.5t16 0.5q8 0 20 -0.5t16 -0.5
q7 -2 25 -4q9 -3 15 -7q4 -6 4 -9v-406h80q10 0 16 -10t6 -32zM1062 554h-2l-220 -328h222v328z" />
    <glyph glyph-name="questiondown" unicode="&#xbf;" horiz-adv-x="949" 
d="M100 185q0 89 26 159q25 70 72 118t112 74q66 26 144 29l6 267q0 13 12 19q11 7 43 7q12 0 26 -2q13 -2 17 -5q6 -3 10 -8q3 -5 3 -11l5 -300q0 -17 -5 -30t-13 -20q-7 -7 -21 -10q-12 -3 -29 -3h-26q-71 0 -122 -23q-50 -22 -81 -60t-44 -87q-13 -48 -13 -105
q0 -60 17 -114q17 -53 51 -88q36 -39 87 -58q53 -21 125 -21q59 0 107 14q47 13 81 30q33 16 55 30q22 13 32 13q6 0 12 -2q6 -3 9 -9q5 -8 6 -17q2 -14 2 -26q0 -18 -3 -28q-2 -11 -12 -20q-9 -9 -40 -26q-27 -16 -70 -30q-44 -15 -90 -23q-47 -10 -100 -10q-100 0 -175 29
q-72 28 -121 80q-48 51 -72 119q-23 71 -23 148zM426 1088q0 28 3 46q5 21 14 30q11 11 26 15q18 5 42 5t42 -5q17 -5 27 -15t13 -30q4 -16 4 -46t-4 -47q-3 -20 -13 -30q-10 -11 -27 -15q-15 -4 -42 -4t-42 4t-26 15q-9 9 -14 30q-3 20 -3 47z" />
    <glyph glyph-name="Agrave" unicode="&#xc0;" horiz-adv-x="1154" 
d="M1108 41q6 -15 6 -25q-2 -10 -8 -14q-8 -6 -20 -6q-8 -2 -34 -2q-25 0 -34 2q-9 0 -19 4q-5 2 -11 8q-3 4 -6 12l-124 345h-568l-119 -343q-1 -8 -6 -12q-6 -6 -11 -8q-8 -5 -20 -6q-16 -2 -31 -2q-17 0 -35 2q-13 1 -20 7q-6 4 -8 14q0 9 6 24l453 1231q3 8 9 14
q7 6 16 8q12 4 22 4q10 2 31 2q23 0 31 -2q10 0 24 -4q9 -3 14 -8q6 -6 9 -14zM571 1163h-1l-244 -696h495zM613 1437q7 -8 10 -16t-1 -11q-2 -5 -12 -8q-14 -2 -27 -2q-19 0 -25 1q-13 2 -20 4q-9 4 -16 9q-8 4 -18 15l-228 219q-7 7 -10 16q0 8 4 12q6 6 19 10q13 3 35 3
t32 -1q18 -2 24 -4q14 -6 20 -10q7 -5 20 -18zM118 1294z" />
    <glyph glyph-name="Aacute" unicode="&#xc1;" horiz-adv-x="1154" 
d="M1108 41q6 -15 6 -25q-2 -10 -8 -14q-8 -6 -20 -6q-8 -2 -34 -2q-25 0 -34 2q-9 0 -19 4q-5 2 -11 8q-3 4 -6 12l-124 345h-568l-119 -343q-1 -8 -6 -12q-6 -6 -11 -8q-8 -5 -20 -6q-16 -2 -31 -2q-17 0 -35 2q-13 1 -20 7q-6 4 -8 14q0 9 6 24l453 1231q3 8 9 14
q7 6 16 8q12 4 22 4q10 2 31 2q23 0 31 -2q10 0 24 -4q9 -3 14 -8q6 -6 9 -14zM571 1163h-1l-244 -696h495zM719 1656q13 13 19 18q7 4 21 10q7 2 25 4q9 1 32 1q20 0 34 -3q14 -5 18 -10q7 -5 4 -12q0 -8 -8 -16l-228 -219q-10 -11 -18 -15q-7 -6 -17 -9q-5 -2 -19 -4
q-8 -1 -26 -1q-14 0 -26 2q-10 3 -13 8q-3 3 -1 11q1 5 10 16zM367 1294z" />
    <glyph glyph-name="Acircumflex" unicode="&#xc2;" horiz-adv-x="1154" 
d="M1108 41q6 -15 6 -25q-2 -10 -8 -14q-8 -6 -20 -6q-8 -2 -34 -2q-25 0 -34 2q-9 0 -19 4q-5 2 -11 8q-3 4 -6 12l-124 345h-568l-119 -343q-1 -8 -6 -12q-6 -6 -11 -8q-8 -5 -20 -6q-16 -2 -31 -2q-17 0 -35 2q-13 1 -20 7q-6 4 -8 14q0 9 6 24l453 1231q3 8 9 14
q7 6 16 8q12 4 22 4q10 2 31 2q23 0 31 -2q10 0 24 -4q9 -3 14 -8q6 -6 9 -14zM571 1163h-1l-244 -696h495zM593 1689q18 0 25 -1q10 -2 18 -4q10 -5 12 -7q8 -6 12 -10l224 -234q6 -6 8 -15q1 -6 -4 -10q-3 -4 -14 -6q-14 -2 -25 -2q-28 0 -37 2q-7 0 -22 3q-9 1 -14 5
q-2 2 -5 4t-5 4l-173 191l-179 -185q-10 -10 -16 -12q-5 -5 -18 -8q-9 -2 -24 -3q-8 -1 -33 -1q-17 0 -29 2q-11 3 -15 7t-2 10q1 5 10 14l240 234q4 4 12 10q2 2 13 7q8 2 18 4q6 1 23 1zM128 1294z" />
    <glyph glyph-name="Atilde" unicode="&#xc3;" horiz-adv-x="1154" 
d="M1108 41q6 -15 6 -25q-2 -10 -8 -14q-8 -6 -20 -6q-8 -2 -34 -2q-25 0 -34 2q-9 0 -19 4q-5 2 -11 8q-3 4 -6 12l-124 345h-568l-119 -343q-1 -8 -6 -12q-6 -6 -11 -8q-8 -5 -20 -6q-16 -2 -31 -2q-17 0 -35 2q-13 1 -20 7q-6 4 -8 14q0 9 6 24l453 1231q3 8 9 14
q7 6 16 8q12 4 22 4q10 2 31 2q23 0 31 -2q10 0 24 -4q9 -3 14 -8q6 -6 9 -14zM571 1163h-1l-244 -696h495zM814 1602q0 10 12 16q18 4 40 4q30 0 40 -8q8 -8 8 -33q0 -83 -48 -131q-49 -50 -137 -50q-52 0 -89 19q-39 19 -72 42t-63 42q-29 19 -64 19q-47 0 -65 -28
t-18 -74q0 -6 -4 -10q-5 -5 -12 -6q-4 -2 -16 -4h-20q-32 0 -40 8q-8 10 -8 33q0 44 14 76q12 34 38 57q24 23 58 36q34 12 75 12q52 0 89 -19q39 -19 72 -42q26 -19 62 -42q29 -19 64 -19q37 0 62 22q22 25 22 80zM113 1294z" />
    <glyph glyph-name="Adieresis" unicode="&#xc4;" horiz-adv-x="1154" 
d="M1108 41q6 -15 6 -25q-2 -10 -8 -14q-8 -6 -20 -6q-8 -2 -34 -2q-25 0 -34 2q-9 0 -19 4q-5 2 -11 8q-3 4 -6 12l-124 345h-568l-119 -343q-1 -8 -6 -12q-6 -6 -11 -8q-8 -5 -20 -6q-16 -2 -31 -2q-17 0 -35 2q-13 1 -20 7q-6 4 -8 14q0 9 6 24l453 1231q3 8 9 14
q7 6 16 8q12 4 22 4q10 2 31 2q23 0 31 -2q10 0 24 -4q9 -3 14 -8q6 -6 9 -14zM571 1163h-1l-244 -696h495zM461 1526q0 -48 -17 -65t-62 -17q-44 0 -60 16q-17 17 -17 65t17 65t61 17q47 0 61 -17q17 -14 17 -64zM862 1526q0 -48 -17 -65t-62 -17q-42 0 -61 16
q-16 19 -16 65q0 48 17 65t61 17q45 0 62 -17q16 -16 16 -64zM157 1294z" />
    <glyph glyph-name="Aring" unicode="&#xc5;" horiz-adv-x="1154" 
d="M1108 41q6 -15 6 -25q-2 -10 -8 -14q-8 -6 -20 -6q-8 -2 -34 -2q-25 0 -34 2q-9 0 -19 4q-5 2 -11 8q-3 4 -6 12l-124 345h-568l-119 -343q-1 -8 -6 -12q-6 -6 -11 -8q-8 -5 -20 -6q-16 -2 -31 -2q-17 0 -35 2q-13 1 -20 7q-6 4 -8 14q0 9 6 24l453 1231q3 8 9 14
q7 6 16 8q12 4 22 4q10 2 31 2q23 0 31 -2q10 0 24 -4q9 -3 14 -8q6 -6 9 -14zM571 1163h-1l-244 -696h495zM769 1548q0 -36 -13 -73q-15 -35 -38 -59q-26 -25 -60 -38q-34 -15 -78 -15t-81 13q-34 15 -57 38q-23 26 -33 56q-11 35 -11 71q0 39 12 73q14 34 38 58
q25 24 59 38q36 14 80 14q86 0 134 -48t48 -128zM680 1541q0 41 -22 74q-24 31 -74 31q-48 0 -72 -27q-25 -26 -25 -71q0 -49 22 -78q23 -29 77 -29q48 0 71 29t23 71zM250 1294z" />
    <glyph glyph-name="AE" unicode="&#xc6;" horiz-adv-x="1550" 
d="M1431 54q0 -9 -2 -23q-1 -9 -6 -17q-4 -7 -10 -10q-5 -4 -13 -4h-606q-20 0 -38 14q-18 12 -18 49v273h-477l-174 -316q-5 -8 -9 -12q-5 -5 -14 -8q-12 -4 -22 -4q-10 -2 -35 -2q-19 0 -27 1q-14 2 -20 3q-4 1 -12 6q-4 5 -4 11q0 3 2 11q2 5 8 15l697 1225q5 10 13 14
q6 6 18 9q7 2 24 4q8 1 30 1h654q9 0 14 -4q6 -3 10 -10q5 -8 6 -18q2 -12 2 -24q0 -9 -2 -23q-1 -9 -6 -17q-4 -6 -10 -10q-6 -3 -14 -3h-530v-456h458q8 0 14 -3q6 -5 10 -11q4 -7 6 -17q2 -16 2 -25t-2 -23q-1 -9 -6 -17q-4 -6 -10 -11q-6 -3 -14 -3h-458v-510h540
q7 0 13 -3q6 -4 10 -10q5 -8 6 -18q2 -12 2 -24zM738 1185h-6l-415 -747h421v747z" />
    <glyph glyph-name="Ccedilla" unicode="&#xc7;" horiz-adv-x="1096" 
d="M720 -78q22 -50 33 -78q10 -29 10 -55q0 -34 -13 -63t-36 -48q-24 -20 -58 -32q-38 -11 -79 -11q-29 0 -58 3q-8 1 -24.5 4t-24.5 4q-27 7 -29 8q-6 3 -10 8q-1 1 -5 12q0 2 -0.5 8t-0.5 10q0 25 6 34q7 7 18 7h128q35 0 55 15q20 14 20 44q0 15 -7 36q-6 17 -18 46
l-52 116q-92 9 -175 49q-85 41 -151 119q-65 77 -105 198q-37 123 -37 274q0 160 40 284q41 127 113 212q73 89 174 134q98 47 224 47q55 0 112 -11q47 -9 101 -28q44 -16 83 -39q29 -18 50 -35q3 -4 7 -8.5t6 -7t3 -4.5q5 -6 6 -14q1 -4 3 -16q1 -7 1 -22q0 -18 -2 -24
q0 -10 -4 -18q-3 -6 -9 -12q-4 -4 -12 -4q-14 0 -39 20q-28 21 -68 46q-38 24 -101 46q-62 20 -143 20q-90 0 -167 -36q-75 -37 -131 -108q-54 -70 -84 -175q-31 -102 -31 -239q0 -130 28 -229q28 -100 81 -169q53 -68 131 -104t177 -36q75 0 138 20q65 21 106 46
q38 21 72 46q28 20 42 20q4 0 10 -2q5 -3 6 -10q4 -8 4 -17q2 -7 2 -27q0 -14 -1 -20t-3 -16q-1 -7 -6 -13q-3 -6 -12 -15q-7 -7 -42 -32q-32 -22 -82 -42q-45 -21 -101 -34q-53 -12 -99 -15z" />
    <glyph glyph-name="Egrave" unicode="&#xc8;" horiz-adv-x="1001" 
d="M883 54q0 -9 -2 -23q-1 -10 -7 -17q-2 -6 -10 -10q-5 -4 -13 -4h-606q-19 0 -37 14q-19 12 -19 49v1168q0 37 19 49q18 14 37 14h597q8 0 13 -4q6 -3 10 -10q5 -8 6 -18q2 -12 2 -24q0 -9 -2 -23q-1 -9 -6 -17q-4 -6 -10 -10q-6 -3 -13 -3h-531v-455h458q9 0 14 -4
q6 -3 10 -10q4 -6 6 -16q2 -16 2 -25t-2 -23q-1 -9 -6 -15t-10 -9q-6 -3 -14 -3h-458v-516h540q7 0 13 -3q8 -6 10 -10q6 -7 7 -18q2 -12 2 -24zM567 1437q7 -8 10 -16t-1 -11q-2 -5 -12 -8q-14 -2 -27 -2q-19 0 -25 1q-13 2 -20 4q-10 4 -16 9q-8 4 -18 15l-228 219
q-7 7 -10 16q0 8 4 12q6 6 19 10q13 3 35 3t32 -1q18 -2 24 -4q14 -6 20 -10q7 -5 20 -18zM72 1294z" />
    <glyph glyph-name="Eacute" unicode="&#xc9;" horiz-adv-x="1001" 
d="M883 54q0 -9 -2 -23q-1 -10 -7 -17q-2 -6 -10 -10q-5 -4 -13 -4h-606q-19 0 -37 14q-19 12 -19 49v1168q0 37 19 49q18 14 37 14h597q8 0 13 -4q6 -3 10 -10q5 -8 6 -18q2 -12 2 -24q0 -9 -2 -23q-1 -9 -6 -17q-4 -6 -10 -10q-6 -3 -13 -3h-531v-455h458q9 0 14 -4
q6 -3 10 -10q4 -6 6 -16q2 -16 2 -25t-2 -23q-1 -9 -6 -15t-10 -9q-6 -3 -14 -3h-458v-516h540q7 0 13 -3q8 -6 10 -10q6 -7 7 -18q2 -12 2 -24zM682 1656q13 13 20 18q6 4 20 10q7 2 25 4q9 1 32 1q21 0 34 -3q14 -4 19 -10q4 -4 4 -12q-4 -10 -9 -16l-228 -219
q-11 -11 -18 -15q-7 -6 -17 -9q-7 -2 -20 -4q-6 -1 -25 -1q-13 0 -27 2q-10 3 -12 8q-3 3 -1 11q1 5 10 16zM330 1294z" />
    <glyph glyph-name="Ecircumflex" unicode="&#xca;" horiz-adv-x="1001" 
d="M883 54q0 -9 -2 -23q-1 -10 -7 -17q-2 -6 -10 -10q-5 -4 -13 -4h-606q-19 0 -37 14q-19 12 -19 49v1168q0 37 19 49q18 14 37 14h597q8 0 13 -4q6 -3 10 -10q5 -8 6 -18q2 -12 2 -24q0 -9 -2 -23q-1 -9 -6 -17q-4 -6 -10 -10q-6 -3 -13 -3h-531v-455h458q9 0 14 -4
q6 -3 10 -10q4 -6 6 -16q2 -16 2 -25t-2 -23q-1 -9 -6 -15t-10 -9q-6 -3 -14 -3h-458v-516h540q7 0 13 -3q8 -6 10 -10q6 -7 7 -18q2 -12 2 -24zM539 1689q18 0 25 -1q11 -2 18 -4q10 -5 12 -7q8 -6 12 -10l224 -234q6 -6 8 -15q1 -6 -4 -10q-3 -4 -14 -6q-14 -2 -25 -2
q-28 0 -37 2q-7 0 -22 3q-9 1 -14 5q-2 2 -5.5 4t-4.5 4l-173 191l-179 -185q-10 -10 -16 -12q-5 -5 -18 -8q-9 -2 -24 -3q-8 -1 -33 -1q-17 0 -29 2q-11 3 -15 7t-2 10q1 5 10 14l240 234q4 4 12 10q2 2 13 7q8 2 18 4q6 1 23 1zM74 1294z" />
    <glyph glyph-name="Edieresis" unicode="&#xcb;" horiz-adv-x="1001" 
d="M883 54q0 -9 -2 -23q-1 -10 -7 -17q-2 -6 -10 -10q-5 -4 -13 -4h-606q-19 0 -37 14q-19 12 -19 49v1168q0 37 19 49q18 14 37 14h597q8 0 13 -4q6 -3 10 -10q5 -8 6 -18q2 -12 2 -24q0 -9 -2 -23q-1 -9 -6 -17q-4 -6 -10 -10q-6 -3 -13 -3h-531v-455h458q9 0 14 -4
q6 -3 10 -10q4 -6 6 -16q2 -16 2 -25t-2 -23q-1 -9 -6 -15t-10 -9q-6 -3 -14 -3h-458v-516h540q7 0 13 -3q8 -6 10 -10q6 -7 7 -18q2 -12 2 -24zM415 1526q0 -48 -17 -65t-62 -17q-44 0 -60 16q-17 17 -17 65t17 65t61 17q47 0 61 -17q17 -14 17 -64zM816 1526
q0 -48 -17 -65t-62 -17q-42 0 -61 16q-16 19 -16 65q0 48 17 65t61 17q45 0 62 -17q16 -16 16 -64zM111 1294z" />
    <glyph glyph-name="Igrave" unicode="&#xcc;" horiz-adv-x="500" 
d="M311 20q0 -6 -3 -11q-4 -5 -10 -8q-9 -4 -18 -5q-16 -2 -30 -2q-13 0 -29 2q-9 1 -19 5q-6 3 -10 8q-3 5 -3 11v1254q0 6 3 11q6 6 12 8q7 3 18 5q16 2 28 2q14 0 30 -2q9 -1 18 -5q6 -3 10 -8q3 -4 3 -11v-1254zM305 1437q7 -8 10 -16t-1 -11q-2 -5 -12 -8
q-14 -2 -27 -2q-19 0 -25 1q-13 2 -20 4q-10 4 -16 9q-8 4 -18 15l-228 219q-7 7 -10 16q0 8 4 12q6 6 19 10q14 3 35 3q22 0 32 -1q18 -2 24 -4q14 -6 20 -10q7 -5 20 -18zM-190 1294z" />
    <glyph glyph-name="Iacute" unicode="&#xcd;" horiz-adv-x="500" 
d="M311 20q0 -6 -3 -11q-4 -5 -10 -8q-9 -4 -18 -5q-16 -2 -30 -2q-13 0 -29 2q-9 1 -19 5q-6 3 -10 8q-3 5 -3 11v1254q0 6 3 11q6 6 12 8q7 3 18 5q16 2 28 2q14 0 30 -2q9 -1 18 -5q6 -3 10 -8q3 -4 3 -11v-1254zM393 1656q13 13 19 18q7 4 21 10q7 2 25 4q9 1 32 1
q20 0 34 -3q14 -5 18 -10q7 -5 4 -12q0 -8 -8 -16l-228 -219q-10 -11 -18 -15q-7 -6 -17 -9q-5 -2 -19 -4q-8 -1 -26 -1q-14 0 -26 2q-11 3 -13 8q-3 3 -1 11q1 5 10 16zM41 1294z" />
    <glyph glyph-name="Icircumflex" unicode="&#xce;" horiz-adv-x="500" 
d="M311 20q0 -6 -3 -11q-4 -5 -10 -8q-9 -4 -18 -5q-16 -2 -30 -2q-13 0 -29 2q-9 1 -19 5q-6 3 -10 8q-3 5 -3 11v1254q0 6 3 11q6 6 12 8q7 3 18 5q16 2 28 2q14 0 30 -2q9 -1 18 -5q6 -3 10 -8q3 -4 3 -11v-1254zM260 1689q18 0 25 -1q13 -2 17 -4q8 -3 14 -7
q1 -1 5 -4.5t6 -5.5l224 -234q6 -6 8 -15q1 -4 -3 -10q-6 -5 -15 -6q-14 -2 -25 -2q-28 0 -37 2q-5 0 -23 3q-8 2 -13 5q-1 2 -5 4t-5 4l-173 191l-179 -185q-9 -9 -15 -12q-6 -4 -18 -8l-24 -3q-10 -1 -34 -1q-14 0 -30 2q-10 4 -14 7q-4 4 -2 10q1 5 10 14l240 234
q4 4 12 10q6 4 14 7q4 2 16 4q7 1 24 1zM-205 1294z" />
    <glyph glyph-name="Idieresis" unicode="&#xcf;" horiz-adv-x="500" 
d="M311 20q0 -6 -3 -11q-4 -5 -10 -8q-9 -4 -18 -5q-16 -2 -30 -2q-13 0 -29 2q-9 1 -19 5q-6 3 -10 8q-3 5 -3 11v1254q0 6 3 11q6 6 12 8q7 3 18 5q16 2 28 2q14 0 30 -2q9 -1 18 -5q6 -3 10 -8q3 -4 3 -11v-1254zM129 1526q0 -48 -17 -65t-62 -17q-44 0 -60 16
q-17 17 -17 65t17 65t61 17q47 0 61 -17q17 -14 17 -64zM530 1526q0 -48 -17 -65t-62 -17q-42 0 -61 16q-16 19 -16 65q0 48 17 65t61 17q45 0 62 -17q16 -16 16 -64zM-175 1294z" />
    <glyph glyph-name="Eth" unicode="&#xd0;" horiz-adv-x="1262" 
d="M1159 666q0 -160 -41 -288q-41 -124 -122 -208q-79 -83 -198 -127q-116 -43 -280 -43h-255q-19 0 -37 14q-18 12 -18 49v556h-143q-8 0 -14 3q-6 5 -10 11q-5 8 -6 17q-2 14 -2 23t2 25q2 10 6 17q4 6 10 11q6 3 14 3h143v502q0 37 18 49q18 14 37 14h272q165 0 279 -45
t190 -127t116 -198q39 -117 39 -258zM1027 660q0 116 -29 210q-26 93 -87 166q-57 69 -151 110q-90 39 -233 39h-197v-456h256q7 0 13 -3q6 -5 10 -11q4 -7 6 -17q2 -16 2 -25t-2 -23q-1 -9 -6 -17q-4 -6 -10 -11q-6 -3 -13 -3h-256v-510h200q131 0 224 33q89 31 152 100
q60 68 90 172q31 100 31 246z" />
    <glyph glyph-name="Ntilde" unicode="&#xd1;" horiz-adv-x="1307" 
d="M1118 59q0 -18 -6 -30q-5 -13 -14 -19q-6 -7 -18 -11q-12 -3 -20 -3h-25q-17 0 -37 5q-15 4 -32 17q-16 14 -30 34q-12 16 -35 54l-456 808q-13 22 -37 64.5t-32 57.5q-44 82 -65 121h-1q1 -49 1 -149v-150v-838q0 -6 -3 -11q-4 -5 -10 -8q-9 -4 -18 -5q-16 -2 -30 -2
q-13 0 -29 2q-9 1 -19 5q-6 3 -10 8q-3 5 -3 11v1211q0 37 19 49q18 14 37 14h50q25 0 40 -4q17 -5 29 -14q10 -7 26 -26q12 -18 27 -45l349 -619q45 -80 62 -112q12 -21 33.5 -59.5t24.5 -44.5q45 -83 56 -102q18 -33 54 -101h1q-1 56 -1 175v175v753q0 6 3 11t10 9
q10 4 19 4q7 2 29 2q20 0 28 -2q9 0 19 -4q7 -4 10 -9q4 -4 4 -11v-1211zM883 1602q0 10 13 16q16 4 39 4q31 0 39 -8q9 -8 9 -33q0 -83 -49 -131q-47 -50 -136 -50q-52 0 -90 19q-40 21 -71 42q-33 23 -63 42q-29 19 -64 19q-47 0 -65 -28t-18 -74q0 -6 -4 -10t-11 -6
t-18 -4h-19q-32 0 -40 8q-8 10 -8 33q0 39 13 76q16 36 38 57q26 23 59 36q35 12 75 12q52 0 90 -19q41 -21 70 -42q33 -23 63 -42q29 -19 64 -19q39 0 61 22q23 23 23 80zM182 1294z" />
    <glyph glyph-name="Ograve" unicode="&#xd2;" horiz-adv-x="1340" 
d="M1230 662q0 -156 -36 -280q-34 -126 -106 -214q-69 -88 -179 -137q-108 -48 -252 -48q-145 0 -247 45q-104 46 -170 130q-68 86 -98 207q-32 118 -32 275q0 150 35 276q34 122 107 212q70 86 178 135q108 48 253 48q141 0 244 -45q101 -44 171 -129q68 -86 100 -204
q32 -122 32 -271zM1100 651q0 118 -22 215q-20 98 -70 176q-52 75 -132 116q-82 43 -203 43q-119 0 -203 -45q-81 -44 -134 -119q-50 -73 -74 -175q-22 -105 -22 -211q0 -116 20 -219q21 -103 70 -177q50 -76 131 -117q82 -43 205 -43q122 0 205 45q83 47 134 122
q51 78 73 178q22 97 22 211zM736 1437q7 -8 10 -16t0 -11q-4 -5 -14 -8q-12 -2 -26 -2q-18 0 -26 1q-14 2 -18 4q-10 3 -17 9q-7 4 -18 15l-228 219q-9 9 -9 16q-3 7 4 12q4 5 18 10q13 3 35 3q23 0 31 -1q17 -2 25 -4q14 -6 21 -10q6 -5 19 -18zM241 1294z" />
    <glyph glyph-name="Oacute" unicode="&#xd3;" horiz-adv-x="1340" 
d="M1230 662q0 -156 -36 -280q-34 -126 -106 -214q-69 -88 -179 -137q-108 -48 -252 -48q-145 0 -247 45q-104 46 -170 130q-68 86 -98 207q-32 118 -32 275q0 150 35 276q34 122 107 212q70 86 178 135q108 48 253 48q141 0 244 -45q101 -44 171 -129q68 -86 100 -204
q32 -122 32 -271zM1100 651q0 118 -22 215q-20 98 -70 176q-52 75 -132 116q-82 43 -203 43q-119 0 -203 -45q-81 -44 -134 -119q-50 -73 -74 -175q-22 -105 -22 -211q0 -116 20 -219q21 -103 70 -177q50 -76 131 -117q82 -43 205 -43q122 0 205 45q83 47 134 122
q51 78 73 178q22 97 22 211zM795 1656q13 13 19 18q7 4 21 10q7 2 25 4q9 1 32 1q21 0 34 -3q14 -5 18 -10q7 -5 4 -12q0 -8 -8 -16l-228 -219q-10 -11 -18 -15q-7 -6 -17 -9q-5 -2 -19 -4q-8 -1 -26 -1q-14 0 -26 2q-10 3 -13 8q-3 3 -1 11q1 5 10 16zM443 1294z" />
    <glyph glyph-name="Ocircumflex" unicode="&#xd4;" horiz-adv-x="1340" 
d="M1230 662q0 -156 -36 -280q-34 -126 -106 -214q-69 -88 -179 -137q-108 -48 -252 -48q-145 0 -247 45q-104 46 -170 130q-68 86 -98 207q-32 118 -32 275q0 150 35 276q34 122 107 212q70 86 178 135q108 48 253 48q141 0 244 -45q101 -44 171 -129q68 -86 100 -204
q32 -122 32 -271zM1100 651q0 118 -22 215q-20 98 -70 176q-52 75 -132 116q-82 43 -203 43q-119 0 -203 -45q-81 -44 -134 -119q-50 -73 -74 -175q-22 -105 -22 -211q0 -116 20 -219q21 -103 70 -177q50 -76 131 -117q82 -43 205 -43q122 0 205 45q83 47 134 122
q51 78 73 178q22 97 22 211zM684 1689q18 0 25 -1q13 -2 17 -4q8 -3 14 -7q1 -1 5 -4.5t6 -5.5l224 -234q6 -6 8 -15q1 -4 -3 -10q-6 -5 -15 -6q-14 -2 -25 -2q-28 0 -37 2q-5 0 -23 3q-8 2 -13 5q-1 2 -5 4t-5 4l-173 191l-179 -185q-9 -9 -15 -12q-6 -4 -18 -8l-24 -3
q-10 -1 -34 -1q-14 0 -30 2q-10 4 -14 7q-4 4 -2 10q1 5 10 14l240 234q4 4 12 10q6 4 14 7q4 2 16 4q7 1 24 1zM219 1294z" />
    <glyph glyph-name="Otilde" unicode="&#xd5;" horiz-adv-x="1340" 
d="M1230 662q0 -156 -36 -280q-34 -126 -106 -214q-69 -88 -179 -137q-108 -48 -252 -48q-145 0 -247 45q-104 46 -170 130q-68 86 -98 207q-32 118 -32 275q0 150 35 276q34 122 107 212q70 86 178 135q108 48 253 48q141 0 244 -45q101 -44 171 -129q68 -86 100 -204
q32 -122 32 -271zM1100 651q0 118 -22 215q-20 98 -70 176q-52 75 -132 116q-82 43 -203 43q-119 0 -203 -45q-81 -44 -134 -119q-50 -73 -74 -175q-22 -105 -22 -211q0 -116 20 -219q21 -103 70 -177q50 -76 131 -117q82 -43 205 -43q122 0 205 45q83 47 134 122
q51 78 73 178q22 97 22 211zM905 1602q0 10 13 16q16 4 39 4q31 0 39 -8q9 -8 9 -33q0 -83 -49 -131q-47 -50 -136 -50q-52 0 -90 19q-40 21 -71 42q-33 23 -63 42q-29 19 -64 19q-47 0 -65 -28t-18 -74q0 -6 -4 -10t-11 -6q-8 -2 -18 -4h-19q-32 0 -40 8q-8 10 -8 33
q0 39 13 76q16 36 38 57q26 23 59 36q35 12 75 12q52 0 90 -19q41 -21 70 -42q33 -23 63 -42q29 -19 64 -19q39 0 61 22q23 23 23 80zM204 1294z" />
    <glyph glyph-name="Odieresis" unicode="&#xd6;" horiz-adv-x="1340" 
d="M1230 662q0 -156 -36 -280q-34 -126 -106 -214q-69 -88 -179 -137q-108 -48 -252 -48q-145 0 -247 45q-104 46 -170 130q-68 86 -98 207q-32 118 -32 275q0 150 35 276q34 122 107 212q70 86 178 135q108 48 253 48q141 0 244 -45q101 -44 171 -129q68 -86 100 -204
q32 -122 32 -271zM1100 651q0 118 -22 215q-20 98 -70 176q-52 75 -132 116q-82 43 -203 43q-119 0 -203 -45q-81 -44 -134 -119q-50 -73 -74 -175q-22 -105 -22 -211q0 -116 20 -219q21 -103 70 -177q50 -76 131 -117q82 -43 205 -43q122 0 205 45q83 47 134 122
q51 78 73 178q22 97 22 211zM552 1526q0 -48 -17 -65t-62 -17q-42 0 -61 16q-16 19 -16 65q0 48 17 65t61 17q45 0 62 -17q16 -16 16 -64zM953 1526q0 -48 -17 -65t-62 -17q-44 0 -60 16q-17 17 -17 65t17 65t61 17q47 0 61 -17q17 -14 17 -64zM248 1294z" />
    <glyph glyph-name="multiply" unicode="&#xd7;" horiz-adv-x="1020" 
d="M591 571l316 -315q1 -1 7 -10q4 -4 4 -12t-8 -21q-5 -8 -20 -23q-10 -9 -24 -18q-14 -7 -21 -7q-5 0 -10 3q-6 2 -10 6l-317 317l-317 -317q-6 -6 -11 -7q-8 -2 -11 -2q-8 0 -21 8q-2 1 -22 19q-10 12 -17 24q-7 11 -7 21q0 11 9 21l317 317l-317 317q-4 4 -7 10
q-2 6 -2 10q0 9 8 22q8 12 19 22q7 8 23 18q13 7 22 7q11 0 21 -10l317 -317l317 317q6 6 9 7q6 3 11 3q8 0 21 -8q12 -8 22 -19q12 -10 18 -24q8 -11 8 -22q0 -4 -2 -10q-2 -5 -8 -10z" />
    <glyph glyph-name="Oslash" unicode="&#xd8;" horiz-adv-x="1340" 
d="M1230 662q0 -156 -36 -280q-36 -128 -108 -214q-71 -88 -180 -137q-106 -48 -249 -48q-71 0 -123 11q-50 8 -105 30l-119 -237q-2 -5 -10 -11q-10 -5 -16 -6q-14 -2 -23 -3t-31 -1q-21 0 -30 4q-10 3 -16 10q-4 8 -3 15q2 11 7 20l133 268q-54 41 -93 96q-40 55 -66 126
q-26 69 -40 154q-12 84 -12 181q0 150 35 276q34 122 107 212q70 86 178 135q108 48 253 48q63 0 121 -11q51 -10 107 -32l118 239q4 7 11 11q6 5 16 6q9 2 24 4h31q21 0 29 -4q10 -3 16 -10q4 -8 3 -15q-2 -11 -7 -20l-134 -270q54 -42 92 -97q40 -53 66 -124
q29 -73 40 -150q14 -77 14 -176zM1100 651q0 136 -32 252q-33 114 -107 191l-480 -962q38 -16 83 -27q43 -10 102 -10q122 0 205 45q83 47 134 122q51 78 73 178q22 97 22 211zM861 1162q-36 18 -85 29q-44 10 -103 10q-119 0 -203 -45q-81 -44 -134 -119q-50 -73 -74 -175
q-22 -105 -22 -211q0 -140 32 -260q31 -117 108 -194z" />
    <glyph glyph-name="Ugrave" unicode="&#xd9;" horiz-adv-x="1302" 
d="M1116 476q0 -120 -34 -210q-33 -91 -95 -155t-150 -95q-89 -33 -197 -33q-101 0 -182 31q-86 32 -144 92q-61 59 -94 150q-34 87 -34 206v812q0 6 3 11q4 6 11 8q7 3 18 5q14 2 29 2q13 0 29 -2q9 -1 19 -5q6 -3 10 -8q3 -4 3 -11v-792q0 -96 24 -170q22 -71 68 -122
q44 -48 108 -72q62 -25 143 -25q79 0 145 23q64 24 107 72q45 50 67 120q24 71 24 167v799q0 6 3 11q4 5 10 8q10 4 19 5q16 2 29 2t29 -2q9 -1 19 -5q6 -3 10 -8q3 -4 3 -11v-798zM695 1437q7 -8 10 -16t-1 -11q-2 -5 -12 -8q-14 -2 -27 -2q-19 0 -25 1q-13 2 -20 4
q-10 4 -16 9q-8 4 -18 15l-228 219q-7 7 -10 16q0 8 4 12q6 6 19 10q14 3 35 3q22 0 32 -1q18 -2 24 -4q14 -6 20 -10q7 -5 20 -18zM200 1294z" />
    <glyph glyph-name="Uacute" unicode="&#xda;" horiz-adv-x="1302" 
d="M1116 476q0 -120 -34 -210q-33 -91 -95 -155t-150 -95q-89 -33 -197 -33q-101 0 -182 31q-86 32 -144 92q-61 59 -94 150q-34 87 -34 206v812q0 6 3 11q4 6 11 8q7 3 18 5q14 2 29 2q13 0 29 -2q9 -1 19 -5q6 -3 10 -8q3 -4 3 -11v-792q0 -96 24 -170q22 -71 68 -122
q44 -48 108 -72q62 -25 143 -25q79 0 145 23q64 24 107 72q45 50 67 120q24 71 24 167v799q0 6 3 11q4 5 10 8q10 4 19 5q16 2 29 2t29 -2q9 -1 19 -5q6 -3 10 -8q3 -4 3 -11v-798zM771 1656q13 13 19 18q7 4 21 10q7 2 25 4q9 1 32 1q20 0 34 -3q14 -5 18 -10q7 -5 4 -12
q0 -8 -8 -16l-228 -219q-10 -11 -18 -15q-7 -6 -17 -9q-5 -2 -19 -4q-8 -1 -26 -1q-14 0 -26 2q-11 3 -13 8q-3 3 -1 11q1 5 10 16zM419 1294z" />
    <glyph glyph-name="Ucircumflex" unicode="&#xdb;" horiz-adv-x="1302" 
d="M1116 476q0 -120 -34 -210q-33 -91 -95 -155t-150 -95q-89 -33 -197 -33q-101 0 -182 31q-86 32 -144 92q-61 59 -94 150q-34 87 -34 206v812q0 6 3 11q4 6 11 8q7 3 18 5q14 2 29 2q13 0 29 -2q9 -1 19 -5q6 -3 10 -8q3 -4 3 -11v-792q0 -96 24 -170q22 -71 68 -122
q44 -48 108 -72q62 -25 143 -25q79 0 145 23q64 24 107 72q45 50 67 120q24 71 24 167v799q0 6 3 11q4 5 10 8q10 4 19 5q16 2 29 2t29 -2q9 -1 19 -5q6 -3 10 -8q3 -4 3 -11v-798zM656 1689q18 0 25 -1q13 -2 17 -4q8 -3 14 -7q1 -1 5 -4.5t6 -5.5l224 -234q6 -6 8 -15
q1 -4 -3 -10q-6 -5 -15 -6q-14 -2 -25 -2q-28 0 -37 2q-5 0 -23 3q-8 2 -13 5q-1 2 -5 4t-5 4l-173 191l-179 -185q-9 -9 -15 -12q-6 -4 -18 -8l-24 -3q-10 -1 -34 -1q-14 0 -30 2q-10 4 -14 7q-4 4 -2 10q1 5 10 14l240 234q4 4 12 10q6 4 14 7q4 2 16 4q7 1 24 1z
M191 1294z" />
    <glyph glyph-name="Udieresis" unicode="&#xdc;" horiz-adv-x="1302" 
d="M1116 476q0 -120 -34 -210q-33 -91 -95 -155t-150 -95q-89 -33 -197 -33q-101 0 -182 31q-86 32 -144 92q-61 59 -94 150q-34 87 -34 206v812q0 6 3 11q4 6 11 8q7 3 18 5q14 2 29 2q13 0 29 -2q9 -1 19 -5q6 -3 10 -8q3 -4 3 -11v-792q0 -96 24 -170q22 -71 68 -122
q44 -48 108 -72q62 -25 143 -25q79 0 145 23q64 24 107 72q45 50 67 120q24 71 24 167v799q0 6 3 11q4 5 10 8q10 4 19 5q16 2 29 2t29 -2q9 -1 19 -5q6 -3 10 -8q3 -4 3 -11v-798zM526 1526q0 -48 -17 -65t-62 -17q-42 0 -61 16q-16 19 -16 65q0 48 17 65t61 17
q45 0 62 -17q16 -16 16 -64zM927 1526q0 -48 -17 -65t-62 -17q-44 0 -60 16q-17 17 -17 65t17 65t61 17q47 0 61 -17q17 -14 17 -64zM222 1294z" />
    <glyph glyph-name="Yacute" unicode="&#xdd;" horiz-adv-x="961" 
d="M542 510v-490q0 -6 -3 -11q-4 -5 -10 -8q-10 -4 -19 -5q-16 -2 -29 -2q-15 0 -29 2q-8 1 -20 5q-7 4 -10 8q-3 5 -3 11v490l-372 743q-6 12 -8 24q-2 9 5 14q6 6 18 7q18 2 33 2q27 0 35 -2q12 0 22 -4q8 -2 13 -8q2 -2 8 -12l198 -403q26 -52 55 -118q10 -20 28 -61
t28 -62h2q17 39 53 119t55 119l200 406q3 8 7 12q6 6 11 8q10 4 18 4q8 2 29 2q19 0 39 -2q14 -1 21 -8q7 -5 5 -14q-2 -12 -8 -23zM650 1656q13 13 20 18q6 4 20 10q7 2 25 4q9 1 32 1q21 0 34 -3q13 -4 19 -10q4 -4 4 -12q-4 -10 -9 -16l-228 -219q-11 -11 -18 -15
q-7 -6 -17 -9q-7 -2 -20 -4q-6 -1 -25 -1q-13 0 -27 2q-10 3 -12 8q-3 3 -1 11q1 5 10 16zM298 1294z" />
    <glyph glyph-name="Thorn" unicode="&#xde;" horiz-adv-x="1040" 
d="M934 699q0 -90 -30 -165q-31 -77 -86 -129q-53 -53 -134 -84q-81 -30 -178 -30h-195v-274q0 -7 -3 -11q-4 -5 -10 -8q-3 -2 -18 -6q-4 0 -14 -0.5t-16 -0.5t-15.5 0.5t-13.5 0.5q-15 4 -19 6q-6 3 -10 8q-3 4 -3 11v1259q0 6 3 11q4 5 10 8q10 4 19 5q16 2 29 2
q14 0 30 -2q9 -1 18 -5q6 -3 10 -8q3 -5 3 -11v-206h197q44 0 77 -4q35 -3 73 -11q66 -15 115 -47q50 -30 87 -77q36 -46 55 -105q19 -56 19 -127zM805 688q0 104 -51 171q-49 67 -142 90q-34 9 -59 9q-21 2 -54 2h-188v-561h210q65 0 119 21q52 23 89 60q35 35 57 92
q19 55 19 116z" />
    <glyph glyph-name="germandbls" unicode="&#xdf;" horiz-adv-x="1049" 
d="M970 252q0 -61 -22 -108q-21 -50 -61 -86q-43 -36 -97 -55q-57 -20 -126 -20q-26 0 -56 5q-34 7 -53 14q-20 5 -42 16q-19 8 -26 16q-7 6 -12 20q-4 12 -4 37q0 4 0.5 11t0.5 10q4 13 6 16q3 6 8 10q4 3 11 3q10 0 25 -9q3 -2 34 -20q25 -12 48 -18q30 -9 71 -9
q43 0 73 13q34 13 54 33q22 19 35 49q12 30 12 61q0 42 -16 73q-16 30 -43 56q-27 25 -60 44l-69 42q-23 14 -69 44q-34 24 -60 54q-26 31 -43 70q-16 39 -16 93q0 55 19 96q18 41 51 73q33 30 77 48q44 19 97 25q12 26 17 58q4 27 4 66q0 38 -12 77q-12 37 -38 68
q-25 31 -66 50q-40 20 -99 20q-66 0 -111 -22t-73 -61q-27 -37 -41 -93q-12 -54 -12 -117v-985q0 -6 -3 -11t-9 -8q-9 -4 -18 -5q-16 -2 -30 -2t-28 2q-9 1 -19 5q-7 3 -9 8q-3 5 -3 11v979q0 87 23 162q23 74 68 127q49 55 113 82q67 30 156 30q88 0 148 -28
q61 -28 103 -72q39 -43 60 -98q19 -59 19 -108q0 -46 -8 -92q-7 -41 -23 -82q-16 -42 -26 -50t-27 -8q-49 0 -85 -12q-31 -10 -56 -30q-21 -21 -31 -44q-10 -24 -10 -51q0 -54 28 -89q31 -39 70 -64q36 -26 91 -55q45 -23 92 -61q41 -34 70 -84q28 -47 28 -120z" />
    <glyph glyph-name="agrave" unicode="&#xe0;" horiz-adv-x="964" 
d="M801 20q0 -10 -7 -16q-6 -5 -16 -8q-16 -2 -29 -2t-29 2q-11 3 -18 8q-7 6 -7 16v101q-63 -67 -135 -102q-72 -36 -152 -36q-72 0 -128 19q-54 18 -95 52q-40 37 -60 84q-21 50 -21 110q0 77 31 130q30 55 88 93q56 37 137 55q77 19 178 19h144v78q0 58 -12 103
q-12 44 -39 74t-70 45t-105 15q-58 0 -108 -14q-48 -15 -84 -33t-60 -33q-23 -14 -33 -14q-5 0 -11 2q-5 2 -8 8q-2 2 -6 14q0 2 -0.5 9t-0.5 11q0 20 3 34q3 13 16 24q12 13 44 30q33 18 74 32q43 14 89 23q48 9 96 9q89 0 157 -22q64 -24 104 -65q39 -42 56 -103
q17 -65 17 -140v-612zM682 447h-165q-74 0 -126 -13q-56 -14 -90 -38q-37 -26 -53 -60q-18 -34 -18 -80q0 -80 50 -124q47 -47 139 -47q71 0 133 37q63 38 130 112v213zM538 1133q4 -6 8 -16q0 -9 -2 -11q-4 -5 -13 -8q-12 -2 -24 -2q-18 0 -25 1q-11 1 -18 4q-8 4 -13 9
q-5 4 -13 15l-174 234q-6 8 -8 17q-2 6 4 12q4 6 17 9q12 3 31 3q23 0 32 -2q10 0 22 -4q10 -5 16 -11q6 -7 14 -17z" />
    <glyph glyph-name="aacute" unicode="&#xe1;" horiz-adv-x="964" 
d="M801 20q0 -10 -7 -16q-6 -5 -16 -8q-16 -2 -29 -2t-29 2q-11 3 -18 8q-7 6 -7 16v101q-63 -67 -135 -102q-72 -36 -152 -36q-72 0 -128 19q-54 18 -95 52q-40 37 -60 84q-21 50 -21 110q0 77 31 130q30 55 88 93q56 37 137 55q77 19 178 19h144v78q0 58 -12 103
q-12 44 -39 74t-70 45t-105 15q-58 0 -108 -14q-48 -15 -84 -33t-60 -33q-23 -14 -33 -14q-5 0 -11 2q-5 2 -8 8q-2 2 -6 14q0 2 -0.5 9t-0.5 11q0 20 3 34q3 13 16 24q12 13 44 30q33 18 74 32q43 14 89 23q48 9 96 9q89 0 157 -22q64 -24 104 -65q39 -42 56 -103
q17 -65 17 -140v-612zM682 447h-165q-74 0 -126 -13q-56 -14 -90 -38q-37 -26 -53 -60q-18 -34 -18 -80q0 -80 50 -124q47 -47 139 -47q71 0 133 37q63 38 130 112v213zM576 1366q5 9 13 17q7 7 17 11q12 4 22 4q10 2 33 2q19 0 31 -3q13 -3 17 -9q6 -6 3 -12q0 -7 -8 -17
l-174 -234q-8 -11 -12 -15q-6 -6 -13 -9q-6 -2 -17 -4q-7 -1 -25 -1q-11 0 -25 2q-10 3 -12 8q-5 3 -3 11t7 16z" />
    <glyph glyph-name="acircumflex" unicode="&#xe2;" horiz-adv-x="964" 
d="M801 20q0 -10 -7 -16q-6 -5 -16 -8q-16 -2 -29 -2t-29 2q-11 3 -18 8q-7 6 -7 16v101q-63 -67 -135 -102q-72 -36 -152 -36q-72 0 -128 19q-54 18 -95 52q-40 37 -60 84q-21 50 -21 110q0 77 31 130q30 55 88 93q56 37 137 55q77 19 178 19h144v78q0 58 -12 103
q-12 44 -39 74t-70 45t-105 15q-58 0 -108 -14q-48 -15 -84 -33t-60 -33q-23 -14 -33 -14q-5 0 -11 2q-5 2 -8 8q-2 2 -6 14q0 2 -0.5 9t-0.5 11q0 20 3 34q3 13 16 24q12 13 44 30q33 18 74 32q43 14 89 23q48 9 96 9q89 0 157 -22q64 -24 104 -65q39 -42 56 -103
q17 -65 17 -140v-612zM682 447h-165q-74 0 -126 -13q-56 -14 -90 -38q-37 -26 -53 -60q-18 -34 -18 -80q0 -80 50 -124q47 -47 139 -47q71 0 133 37q63 38 130 112v213zM343 1122q-8 -10 -11 -13q-5 -5 -12 -8q-6 -2 -16 -4q-6 -1 -22 -1q-20 0 -31 3t-14 9q-4 6 0 16
q3 9 13 22l169 232q1 2 10 11q4 3 14 7q7 1 20 3q7 1 28 1q18 0 25 -1q13 -2 17 -4q9 -3 13 -7l3 -3t4 -3.5t3 -3.5l169 -232q9 -14 12 -22q4 -10 0 -16q-3 -6 -14 -9t-30 -3q-18 0 -24 1q-10 2 -16 4q-7 3 -10 8q-1 1 -11 13l-145 198zM87 946z" />
    <glyph glyph-name="atilde" unicode="&#xe3;" horiz-adv-x="964" 
d="M801 20q0 -10 -7 -16q-6 -5 -16 -8q-16 -2 -29 -2t-29 2q-11 3 -18 8q-7 6 -7 16v101q-63 -67 -135 -102q-72 -36 -152 -36q-72 0 -128 19q-54 18 -95 52q-40 37 -60 84q-21 50 -21 110q0 77 31 130q30 55 88 93q56 37 137 55q77 19 178 19h144v78q0 58 -12 103
q-12 44 -39 74t-70 45t-105 15q-58 0 -108 -14q-48 -15 -84 -33t-60 -33q-23 -14 -33 -14q-5 0 -11 2q-5 2 -8 8q-2 2 -6 14q0 2 -0.5 9t-0.5 11q0 20 3 34q3 13 16 24q12 13 44 30q33 18 74 32q43 14 89 23q48 9 96 9q89 0 157 -22q64 -24 104 -65q39 -42 56 -103
q17 -65 17 -140v-612zM682 447h-165q-74 0 -126 -13q-56 -14 -90 -38q-37 -26 -53 -60q-18 -34 -18 -80q0 -80 50 -124q47 -47 139 -47q71 0 133 37q63 38 130 112v213zM803 1302q0 -99 -50 -150q-48 -51 -130 -51q-39 0 -64 11q-27 8 -53 26q-27 19 -45 34q-7 7 -40 35
q-10 9 -40 27q-22 10 -43 10q-44 0 -61 -32q-17 -34 -17 -85q0 -3 -0.5 -7t-0.5 -5q-4 -6 -8 -8q-2 -2 -16 -5q-2 0 -11.5 -0.5t-15.5 -0.5q-10 0 -22 2q-10 2 -14 7q-5 4 -7 12q-3 9 -3 22q0 91 47 145q45 55 132 55q53 0 92 -22q46 -28 70 -50q9 -7 29.5 -23.5t31.5 -24.5
q27 -23 63 -23q40 0 58 29q20 27 20 88q0 14 8 20q9 6 38 6q31 0 42 -8q10 -7 10 -34z" />
    <glyph glyph-name="adieresis" unicode="&#xe4;" horiz-adv-x="964" 
d="M801 20q0 -10 -7 -16q-6 -5 -16 -8q-16 -2 -29 -2t-29 2q-11 3 -18 8q-7 6 -7 16v101q-63 -67 -135 -102q-72 -36 -152 -36q-72 0 -128 19q-54 18 -95 52q-40 37 -60 84q-21 50 -21 110q0 77 31 130q30 55 88 93q56 37 137 55q77 19 178 19h144v78q0 58 -12 103
q-12 44 -39 74t-70 45t-105 15q-58 0 -108 -14q-48 -15 -84 -33t-60 -33q-23 -14 -33 -14q-5 0 -11 2q-5 2 -8 8q-2 2 -6 14q0 2 -0.5 9t-0.5 11q0 20 3 34q3 13 16 24q12 13 44 30q33 18 74 32q43 14 89 23q48 9 96 9q89 0 157 -22q64 -24 104 -65q39 -42 56 -103
q17 -65 17 -140v-612zM682 447h-165q-74 0 -126 -13q-56 -14 -90 -38q-37 -26 -53 -60q-18 -34 -18 -80q0 -80 50 -124q47 -47 139 -47q71 0 133 37q63 38 130 112v213zM393 1211q0 -46 -16 -62t-59 -16t-58 15q-16 16 -16 62q0 47 16 63t58 16q44 0 60 -16q15 -17 15 -62z
M727 1211q0 -46 -16 -62t-59 -16t-58 15q-16 16 -16 62q0 47 16 63t58 16q44 0 60 -16q15 -17 15 -62zM96 946z" />
    <glyph glyph-name="aring" unicode="&#xe5;" horiz-adv-x="964" 
d="M801 20q0 -10 -7 -16q-6 -5 -16 -8q-16 -2 -29 -2t-29 2q-11 3 -18 8q-7 6 -7 16v101q-63 -67 -135 -102q-72 -36 -152 -36q-72 0 -128 19q-54 18 -95 52q-40 37 -60 84q-21 50 -21 110q0 77 31 130q30 55 88 93q56 37 137 55q77 19 178 19h144v78q0 58 -12 103
q-12 44 -39 74t-70 45t-105 15q-58 0 -108 -14q-48 -15 -84 -33t-60 -33q-23 -14 -33 -14q-5 0 -11 2q-5 2 -8 8q-2 2 -6 14q0 2 -0.5 9t-0.5 11q0 20 3 34q3 13 16 24q12 13 44 30q33 18 74 32q43 14 89 23q48 9 96 9q89 0 157 -22q64 -24 104 -65q39 -42 56 -103
q17 -65 17 -140v-612zM682 447h-165q-74 0 -126 -13q-56 -14 -90 -38q-37 -26 -53 -60q-18 -34 -18 -80q0 -80 50 -124q47 -47 139 -47q71 0 133 37q63 38 130 112v213zM662 1253q0 -39 -13 -69q-14 -32 -36 -56q-22 -22 -57 -38q-36 -13 -74 -13q-47 0 -77 13
q-33 14 -54 36q-19 21 -32 54q-10 33 -10 66q0 38 12 69t35 56q22 23 57 37q32 13 76 13q81 0 127 -47q46 -45 46 -121zM580 1246q0 45 -23 74q-24 30 -72 30q-43 0 -69 -27q-25 -26 -25 -70q0 -48 23 -77q22 -28 73 -28q44 0 68 28q25 26 25 70z" />
    <glyph glyph-name="ae" unicode="&#xe6;" horiz-adv-x="1581" 
d="M1474 519q0 -37 -19 -49q-18 -14 -37 -14h-617q0 -88 17 -152q15 -66 54 -116q38 -50 100 -75q61 -26 150 -26q61 0 113 11q36 8 87 24q8 4 21.5 9t22.5 9t16 7q24 11 33 11q5 0 11 -3q5 -5 7 -9q1 -1 5 -17q0 -3 0.5 -11.5t0.5 -13.5q0 -9 -1 -14q-2 -8 -2 -12l-2.5 -5
l-2.5 -5q-4 -6 -8 -10q-3 -3 -31 -18q-25 -12 -68 -24q-36 -12 -98 -23q-51 -10 -119 -10q-62 0 -119 11q-52 11 -99 34q-45 25 -79 56q-33 32 -59 74q-33 -39 -71 -71q-40 -34 -80 -55q-44 -24 -90 -36q-46 -13 -102 -13q-72 0 -128 19q-54 18 -95 52q-40 37 -60 84
q-21 50 -21 110q0 77 31 130q30 55 88 93q56 37 137 55q77 19 178 19h144v78q0 58 -12 103q-12 44 -39 74t-70 45t-105 15q-58 0 -108 -14q-48 -15 -84 -33q-35 -17 -61 -33q-25 -14 -34 -14q-3 0 -11 2q-4 2 -7 8q-1 1 -5 14q0 2 -0.5 9t-0.5 11q0 20 3 34q3 13 16 24
q12 13 44 30q33 18 74 32q43 14 89 23q48 9 96 9q67 0 117 -12q47 -11 86 -34q38 -26 60 -54q25 -34 38 -68q49 83 133 124q84 44 191 44q103 0 174 -34q75 -36 118 -92q47 -55 68 -133q22 -75 22 -160v-24zM1352 554q1 69 -16 128q-16 57 -51 96q-34 40 -85 61
q-50 21 -115 21q-69 0 -120 -26q-51 -23 -87 -67q-35 -40 -55 -97q-19 -55 -22 -116h551zM705 261q-13 36 -19 89q-6 51 -6 97h-163q-74 0 -126 -13q-56 -14 -90 -38q-37 -26 -53 -60q-18 -34 -18 -80q0 -80 50 -124q47 -47 139 -47q70 0 141 41q68 41 145 135z" />
    <glyph glyph-name="ccedilla" unicode="&#xe7;" horiz-adv-x="871" 
d="M799 154q0 -15 -1 -22q-1 -6 -3 -16q-1 -6 -5 -12q-6 -8 -17 -19q-12 -12 -45 -34q-30 -19 -83 -40q-45 -18 -115 -26l28 -63q22 -50 33 -78q10 -29 10 -55q0 -34 -13 -63t-36 -48q-24 -20 -58 -32q-38 -11 -79 -11q-29 0 -58 3q-8 1 -24.5 4t-24.5 4q-27 7 -29 8
q-6 3 -10 8q-1 1 -5 12q0 2 -0.5 8t-0.5 10q0 25 6 34q7 7 18 7h128q36 0 55 15q20 14 20 44q0 15 -7 36q-6 17 -18 46l-52 115q-105 17 -173 77q-71 62 -105 162q-35 100 -35 237q0 134 32 226q29 93 86 154q54 58 128 89q78 28 158 28q43 0 86 -8q36 -8 76 -23
q34 -14 61 -32q28 -19 39 -31q4 -4 7.5 -7t6.5 -6.5t4 -4.5l2.5 -5t2.5 -5.5t1 -4.5q2 -5 4 -17q1 -7 1 -23q0 -29 -9 -41q-8 -11 -18 -11q-14 0 -34 18q-19 17 -53 39q-29 21 -77 40q-47 18 -109 18q-129 0 -201 -100q-70 -102 -70 -289q0 -97 19 -167q20 -73 55 -118
q34 -48 86 -72q52 -23 115 -23q61 0 106 19q44 18 80 42q27 18 57 42q20 19 33 19q5 0 11 -3q6 -9 7 -12q1 -2 5 -18q0 -3 0.5 -11t0.5 -13z" />
    <glyph glyph-name="egrave" unicode="&#xe8;" horiz-adv-x="1012" 
d="M905 519q0 -37 -19 -49q-18 -14 -37 -14h-617q0 -80 16 -152q18 -69 55 -116q37 -50 99 -75q63 -26 150 -26q61 0 113 11q36 8 87 24q8 4 21.5 9t22.5 9t16 7q24 11 33 11q7 0 11 -3q5 -3 8 -9q4 -10 4 -17q2 -7 2 -25q0 -9 -1 -14q0 -1 -0.5 -3.5t-1 -4.5t-1.5 -4
q0 -4 -4 -10t-8 -10q-3 -3 -31 -18q-25 -12 -68 -24q-33 -10 -97 -23q-54 -10 -120 -10q-102 0 -186 31q-83 34 -136 94q-53 57 -84 152q-28 95 -28 211q0 115 30 206q28 90 84 155q56 63 132 96q77 34 173 34q103 0 174 -34q72 -34 119 -92q46 -58 68 -133q21 -76 21 -160
v-24zM782 554q3 144 -66 225t-201 81q-70 0 -119 -26q-50 -23 -88 -67q-34 -41 -54 -97q-19 -55 -22 -116h550zM575 1133q4 -6 8 -16q0 -9 -2 -11q-4 -5 -13 -8q-12 -2 -24 -2q-18 0 -25 1q-10 1 -18 4q-8 4 -13 9q-5 4 -13 15l-174 234q-6 8 -8 17q-2 6 4 12q4 6 17 9
q12 3 31 3q23 0 32 -2q10 0 22 -4q10 -5 16 -11q6 -7 14 -17z" />
    <glyph glyph-name="eacute" unicode="&#xe9;" horiz-adv-x="1012" 
d="M905 519q0 -37 -19 -49q-18 -14 -37 -14h-617q0 -80 16 -152q18 -69 55 -116q37 -50 99 -75q63 -26 150 -26q61 0 113 11q36 8 87 24q8 4 21.5 9t22.5 9t16 7q24 11 33 11q7 0 11 -3q5 -3 8 -9q4 -10 4 -17q2 -7 2 -25q0 -9 -1 -14q0 -1 -0.5 -3.5t-1 -4.5t-1.5 -4
q0 -4 -4 -10t-8 -10q-3 -3 -31 -18q-25 -12 -68 -24q-33 -10 -97 -23q-54 -10 -120 -10q-102 0 -186 31q-83 34 -136 94q-53 57 -84 152q-28 95 -28 211q0 115 30 206q28 90 84 155q56 63 132 96q77 34 173 34q103 0 174 -34q72 -34 119 -92q46 -58 68 -133q21 -76 21 -160
v-24zM782 554q3 144 -66 225t-201 81q-70 0 -119 -26q-50 -23 -88 -67q-34 -41 -54 -97q-19 -55 -22 -116h550zM608 1366q5 9 13 17q7 7 17 11q12 4 22 4q10 2 33 2q19 0 31 -3q13 -3 17 -9q6 -6 3 -12q0 -7 -8 -17l-174 -234q-8 -11 -12 -15q-6 -6 -13 -9q-6 -2 -17 -4
q-7 -1 -25 -1q-11 0 -25 2q-10 3 -12 8q-5 3 -3 11t7 16z" />
    <glyph glyph-name="ecircumflex" unicode="&#xea;" horiz-adv-x="1012" 
d="M905 519q0 -37 -19 -49q-18 -14 -37 -14h-617q0 -80 16 -152q18 -69 55 -116q37 -50 99 -75q63 -26 150 -26q61 0 113 11q36 8 87 24q8 4 21.5 9t22.5 9t16 7q24 11 33 11q7 0 11 -3q5 -3 8 -9q4 -10 4 -17q2 -7 2 -25q0 -9 -1 -14q0 -1 -0.5 -3.5t-1 -4.5t-1.5 -4
q0 -4 -4 -10t-8 -10q-3 -3 -31 -18q-25 -12 -68 -24q-33 -10 -97 -23q-54 -10 -120 -10q-102 0 -186 31q-83 34 -136 94q-53 57 -84 152q-28 95 -28 211q0 115 30 206q28 90 84 155q56 63 132 96q77 34 173 34q103 0 174 -34q72 -34 119 -92q46 -58 68 -133q21 -76 21 -160
v-24zM782 554q3 144 -66 225t-201 81q-70 0 -119 -26q-50 -23 -88 -67q-34 -41 -54 -97q-19 -55 -22 -116h550zM371 1122q-8 -10 -11 -13q-5 -5 -12 -8q-6 -2 -16 -4q-6 -1 -22 -1q-20 0 -31 3t-14 9q-4 6 0 16q3 9 13 22l169 232q2 2 10 11q4 3 14 7q7 1 20 3q7 1 28 1
q18 0 25 -1q13 -2 17 -4q9 -3 13 -7l3 -3t4 -3.5t3 -3.5l169 -232q9 -14 12 -22q4 -10 0 -16q-3 -6 -14 -9t-30 -3q-18 0 -24 1q-10 2 -16 4q-7 3 -10 8q-1 1 -11 13l-145 198zM115 946z" />
    <glyph glyph-name="edieresis" unicode="&#xeb;" horiz-adv-x="1012" 
d="M905 519q0 -37 -19 -49q-18 -14 -37 -14h-617q0 -80 16 -152q18 -69 55 -116q37 -50 99 -75q63 -26 150 -26q61 0 113 11q36 8 87 24q8 4 21.5 9t22.5 9t16 7q24 11 33 11q7 0 11 -3q5 -3 8 -9q4 -10 4 -17q2 -7 2 -25q0 -9 -1 -14q0 -1 -0.5 -3.5t-1 -4.5t-1.5 -4
q0 -4 -4 -10t-8 -10q-3 -3 -31 -18q-25 -12 -68 -24q-33 -10 -97 -23q-54 -10 -120 -10q-102 0 -186 31q-83 34 -136 94q-53 57 -84 152q-28 95 -28 211q0 115 30 206q28 90 84 155q56 63 132 96q77 34 173 34q103 0 174 -34q72 -34 119 -92q46 -58 68 -133q21 -76 21 -160
v-24zM782 554q3 144 -66 225t-201 81q-70 0 -119 -26q-50 -23 -88 -67q-34 -41 -54 -97q-19 -55 -22 -116h550zM423 1211q0 -46 -16 -62t-59 -16t-58 15q-16 16 -16 62q0 47 16 63t58 16q44 0 60 -16q15 -17 15 -62zM757 1211q0 -46 -16 -62t-59 -16t-58 15q-16 16 -16 62
q0 47 16 63t58 16q44 0 60 -16q15 -17 15 -62zM126 946z" />
    <glyph glyph-name="igrave" unicode="&#xec;" horiz-adv-x="452" 
d="M286 20q0 -6 -3 -11t-9 -8q-9 -4 -18 -5q-16 -2 -30 -2t-28 2q-9 1 -19 5q-7 3 -9 8q-3 5 -3 11v905q0 7 3 11q2 5 9 8q4 2 19 6q3 0 12.5 0.5t15.5 0.5t16 -0.5t14 -0.5q15 -4 18 -6q6 -3 9 -8q3 -4 3 -11v-905zM279 1133q7 -11 7 -16q3 -8 -2 -11q-2 -5 -12 -8
q-12 -2 -24 -2q-18 0 -25 1q-13 2 -17 4q-7 3 -14 9q-5 4 -13 15l-174 234q-6 8 -8 17q-2 6 4 12q4 6 17 9q12 3 31 3q23 0 32 -2q10 0 22 -4q10 -5 16 -11q7 -7 14 -17z" />
    <glyph glyph-name="iacute" unicode="&#xed;" horiz-adv-x="452" 
d="M286 20q0 -6 -3 -11t-9 -8q-9 -4 -18 -5q-16 -2 -30 -2t-28 2q-9 1 -19 5q-7 3 -9 8q-3 5 -3 11v905q0 7 3 11q2 5 9 8q4 2 19 6q3 0 12.5 0.5t15.5 0.5t16 -0.5t14 -0.5q15 -4 18 -6q6 -3 9 -8q3 -4 3 -11v-905zM311 1366q5 9 13 17q6 6 16 11q14 4 24 4q8 2 32 2
q19 0 31 -3q13 -3 17 -9q4 -4 4 -12q-3 -10 -9 -17l-174 -234q-8 -11 -13 -15q-4 -6 -12 -9q-6 -2 -17 -4q-7 -1 -25 -1q-12 0 -24 2q-10 3 -14 8q-4 4 -2 11q2 8 7 16z" />
    <glyph glyph-name="icircumflex" unicode="&#xee;" horiz-adv-x="452" 
d="M286 20q0 -6 -3 -11t-9 -8q-9 -4 -18 -5q-16 -2 -30 -2t-28 2q-9 1 -19 5q-7 3 -9 8q-3 5 -3 11v905q0 7 3 11q2 5 9 8q4 2 19 6q3 0 12.5 0.5t15.5 0.5t16 -0.5t14 -0.5q15 -4 18 -6q6 -3 9 -8q3 -4 3 -11v-905zM85 1122q-8 -10 -11 -13q-5 -5 -12 -8q-6 -2 -16 -4
q-6 -1 -22 -1q-21 0 -31 3q-11 3 -15 9q-3 6 0 16q6 11 14 22l169 232q3 5 11 11q3 3 13 7q5 1 19 3q8 1 29 1q18 0 25 -1q10 -1 18 -4q10 -5 12 -7l3 -3t4 -3.5t3 -3.5l169 -232q8 -12 13 -22q3 -10 0 -16q-4 -6 -15 -9t-30 -3q-18 0 -24 1q-10 2 -15 4q-3 1 -12 8
q-2 3 -10 13l-145 198zM-171 946z" />
    <glyph glyph-name="idieresis" unicode="&#xef;" horiz-adv-x="452" 
d="M286 20q0 -6 -3 -11t-9 -8q-9 -4 -18 -5q-16 -2 -30 -2t-28 2q-9 1 -19 5q-7 3 -9 8q-3 5 -3 11v905q0 7 3 11q2 5 9 8q4 2 19 6q3 0 12.5 0.5t15.5 0.5t16 -0.5t14 -0.5q15 -4 18 -6q6 -3 9 -8q3 -4 3 -11v-905zM153 1211q0 -47 -17 -61q-14 -17 -58 -17q-42 0 -58 16
t-16 61q0 46 16 62q17 17 58 17q43 0 59 -16t16 -62zM450 1211q0 -45 -16 -61q-17 -17 -59 -17t-58 16t-16 61q0 48 17 62q14 17 57 17t59 -16t16 -62zM-144 946z" />
    <glyph glyph-name="eth" unicode="&#xf0;" horiz-adv-x="1064" 
d="M300 1081q-10 -2 -14 -1q-6 1 -11 6q-4 4 -6 14q-2 14 -2 25q0 9 2 23q1 10 6 16q4 7 11 11q6 4 14 6l212 56q-2 2 -11 12t-15 17q-5 5 -15 16t-16 17q-4 4 -15 15.5t-17 17.5q-15 16 -28 31q-5 5 -7 11q-1 4 4 8q7 4 20 5q18 2 39 2q19 0 43 -2q13 -1 30 -5q11 -3 20 -8
q8 -4 14 -11q9 -10 27.5 -31t27.5 -30q23 -25 27 -32l257 67q11 2 15 1q8 -2 10 -6q5 -3 7 -14q2 -12 2 -24q0 -9 -2 -23q-1 -10 -7 -17q-2 -5 -10 -11q-6 -5 -15 -6l-191 -49q49 -64 94 -139q40 -70 64 -141q25 -70 38 -156q12 -84 12 -183q0 -140 -26 -245
q-24 -107 -78 -184q-51 -77 -134 -116q-81 -41 -194 -41q-110 0 -180 41q-70 38 -115 106q-43 67 -61 154q-18 86 -18 178q0 119 26 214q27 92 77 156q49 63 122 97q72 33 162 33q33 0 71 -8q34 -8 68 -24t65 -39q31 -24 63 -57q-9 32 -22 62q-9 26 -34 76q-24 45 -52 86
q-34 50 -74 97zM792 558q0 47 -1 66q-2 29 -3 47q-45 49 -85 85q-44 39 -76 59q-40 25 -70 34q-36 11 -68 11q-65 0 -113 -30q-50 -32 -81 -83q-32 -54 -47 -121q-16 -67 -16 -146q0 -76 12 -146q12 -71 41 -126q27 -55 78 -90q49 -33 123 -33q75 0 132 27t96 85
q40 61 58 147q20 84 20 214z" />
    <glyph glyph-name="ntilde" unicode="&#xf1;" horiz-adv-x="1064" 
d="M901 20q0 -6 -3 -11q-4 -5 -10 -8q-7 -4 -18 -5q-14 -2 -28 -2t-30 2q-9 1 -18 5q-6 3 -9 8t-3 11v537q0 85 -13 137q-13 51 -39 90q-26 36 -66 58q-43 20 -95 20q-70 0 -138 -49t-145 -144v-649q0 -6 -3 -11t-9 -8q-9 -4 -18 -5q-16 -2 -30 -2t-28 2q-9 1 -19 5
q-7 3 -9 8q-3 5 -3 11v905q0 7 3 11q2 5 9 8q1 1 17 6q4 0 13 0.5t15 0.5t15.5 -0.5t12.5 -0.5q15 -4 17 -6q5 -3 9 -8q2 -6 2 -11v-128q78 87 153 126t149 39q88 0 150 -30t98 -81q39 -51 54 -119q17 -64 17 -164v-548zM853 1302q0 -99 -50 -150q-48 -51 -130 -51
q-39 0 -64 11q-27 8 -53 26q-27 19 -45 34q-7 7 -40 35q-10 9 -40 27q-22 10 -43 10q-44 0 -61 -32q-17 -34 -17 -85q0 -3 -0.5 -7t-0.5 -5q-4 -6 -8 -8q-2 -2 -16 -5q-2 0 -11.5 -0.5t-15.5 -0.5q-10 0 -22 2q-10 2 -14 7q-5 4 -7 12q-3 9 -3 22q0 91 47 145q45 55 132 55
q53 0 92 -22q46 -28 70 -50q9 -7 29.5 -23.5t31.5 -24.5q27 -23 63 -23q40 0 58 29q20 27 20 88q0 14 8 20q9 6 38 6q31 0 42 -8q10 -7 10 -34z" />
    <glyph glyph-name="ograve" unicode="&#xf2;" horiz-adv-x="1068" 
d="M968 482q0 -109 -28 -199q-29 -93 -84 -158q-51 -64 -138 -105q-85 -37 -193 -37q-107 0 -185 33q-79 34 -134 96q-53 64 -80 152q-26 90 -26 201q0 109 28 199q26 88 82 158q57 66 139 103q81 37 194 37q107 0 185 -33q80 -32 133 -95q53 -64 80 -152q27 -89 27 -200z
M842 471q0 77 -15 147q-15 69 -50 124q-35 54 -94 84q-57 32 -147 32q-80 0 -140 -29q-61 -30 -96 -81q-38 -49 -56 -121q-18 -71 -18 -151q0 -79 15 -148q15 -70 50 -124q34 -52 94 -84q58 -31 147 -31q80 0 140 29t96 80q38 49 56 121q18 70 18 152zM580 1133q4 -6 8 -16
q0 -9 -2 -11q-4 -5 -13 -8q-12 -2 -24 -2q-18 0 -25 1q-11 1 -18 4q-8 4 -13 9q-5 4 -13 15l-174 234q-6 8 -8 17q-2 6 4 12q4 6 17 9q12 3 31 3q23 0 32 -2q10 0 22 -4q10 -5 16 -11q6 -7 14 -17z" />
    <glyph glyph-name="oacute" unicode="&#xf3;" horiz-adv-x="1068" 
d="M968 482q0 -109 -28 -199q-29 -93 -84 -158q-51 -64 -138 -105q-85 -37 -193 -37q-107 0 -185 33q-79 34 -134 96q-53 64 -80 152q-26 90 -26 201q0 109 28 199q26 88 82 158q57 66 139 103q81 37 194 37q107 0 185 -33q80 -32 133 -95q53 -64 80 -152q27 -89 27 -200z
M842 471q0 77 -15 147q-15 69 -50 124q-35 54 -94 84q-57 32 -147 32q-80 0 -140 -29q-61 -30 -96 -81q-38 -49 -56 -121q-18 -71 -18 -151q0 -79 15 -148q15 -70 50 -124q34 -52 94 -84q58 -31 147 -31q80 0 140 29t96 80q38 49 56 121q18 70 18 152zM634 1366q5 9 13 17
q7 7 17 11q12 4 22 4q10 2 33 2q19 0 31 -3q13 -3 17 -9q6 -6 3 -12q0 -7 -8 -17l-174 -234q-8 -11 -12 -15q-6 -6 -13 -9q-6 -2 -17 -4q-7 -1 -25 -1q-11 0 -25 2q-10 3 -12 8q-5 3 -3 11t7 16z" />
    <glyph glyph-name="ocircumflex" unicode="&#xf4;" horiz-adv-x="1068" 
d="M968 482q0 -109 -28 -199q-29 -93 -84 -158q-51 -64 -138 -105q-85 -37 -193 -37q-107 0 -185 33q-79 34 -134 96q-53 64 -80 152q-26 90 -26 201q0 109 28 199q26 88 82 158q57 66 139 103q81 37 194 37q107 0 185 -33q80 -32 133 -95q53 -64 80 -152q27 -89 27 -200z
M842 471q0 77 -15 147q-15 69 -50 124q-35 54 -94 84q-57 32 -147 32q-80 0 -140 -29q-61 -30 -96 -81q-38 -49 -56 -121q-18 -71 -18 -151q0 -79 15 -148q15 -70 50 -124q34 -52 94 -84q58 -31 147 -31q80 0 140 29t96 80q38 49 56 121q18 70 18 152zM389 1122
q-8 -10 -11 -13q-5 -5 -12 -8q-6 -2 -16 -4q-6 -1 -22 -1q-20 0 -31 3t-14 9q-4 6 0 16q3 9 13 22l169 232q2 2 10 11q4 3 14 7q7 1 20 3q7 1 28 1q18 0 25 -1q13 -2 17 -4q9 -3 13 -7l3 -3t4 -3.5t3 -3.5l169 -232q9 -14 12 -22q4 -10 0 -16q-3 -6 -14 -9t-30 -3
q-18 0 -24 1q-10 2 -16 4q-7 3 -10 8q-1 1 -11 13l-145 198zM133 946z" />
    <glyph glyph-name="otilde" unicode="&#xf5;" horiz-adv-x="1068" 
d="M968 482q0 -109 -28 -199q-29 -93 -84 -158q-51 -64 -138 -105q-85 -37 -193 -37q-107 0 -185 33q-79 34 -134 96q-53 64 -80 152q-26 90 -26 201q0 109 28 199q26 88 82 158q57 66 139 103q81 37 194 37q107 0 185 -33q80 -32 133 -95q53 -64 80 -152q27 -89 27 -200z
M842 471q0 77 -15 147q-15 69 -50 124q-35 54 -94 84q-57 32 -147 32q-80 0 -140 -29q-61 -30 -96 -81q-38 -49 -56 -121q-18 -71 -18 -151q0 -79 15 -148q15 -70 50 -124q34 -52 94 -84q58 -31 147 -31q80 0 140 29t96 80q38 49 56 121q18 70 18 152zM855 1302
q0 -99 -50 -150q-48 -51 -130 -51q-39 0 -64 11q-27 8 -53 26q-27 19 -45 34q-7 7 -40 35q-10 9 -40 27q-22 10 -43 10q-44 0 -61 -32q-17 -34 -17 -85q0 -3 -0.5 -7t-0.5 -5q-4 -6 -8 -8q-2 -2 -16 -5q-2 0 -11.5 -0.5t-15.5 -0.5q-10 0 -22 2q-10 2 -14 7q-5 4 -7 12
q-3 9 -3 22q0 91 47 145q45 55 132 55q53 0 92 -22q46 -28 70 -50q9 -7 29.5 -23.5t31.5 -24.5q27 -23 63 -23q40 0 58 29q20 27 20 88q0 14 8 20q9 6 38 6q31 0 42 -8q10 -7 10 -34z" />
    <glyph glyph-name="odieresis" unicode="&#xf6;" horiz-adv-x="1068" 
d="M968 482q0 -109 -28 -199q-29 -93 -84 -158q-51 -64 -138 -105q-85 -37 -193 -37q-107 0 -185 33q-79 34 -134 96q-53 64 -80 152q-26 90 -26 201q0 109 28 199q26 88 82 158q57 66 139 103q81 37 194 37q107 0 185 -33q80 -32 133 -95q53 -64 80 -152q27 -89 27 -200z
M842 471q0 77 -15 147q-15 69 -50 124q-35 54 -94 84q-57 32 -147 32q-80 0 -140 -29q-61 -30 -96 -81q-38 -49 -56 -121q-18 -71 -18 -151q0 -79 15 -148q15 -70 50 -124q34 -52 94 -84q58 -31 147 -31q80 0 140 29t96 80q38 49 56 121q18 70 18 152zM442 1211
q0 -46 -16 -62t-59 -16t-58 15q-16 16 -16 62q0 47 16 63t58 16q44 0 60 -16q15 -17 15 -62zM776 1211q0 -46 -16 -62t-59 -16t-58 15q-16 16 -16 62q0 47 16 63t58 16q44 0 60 -16q15 -17 15 -62zM145 946z" />
    <glyph glyph-name="divide" unicode="&#xf7;" horiz-adv-x="1020" 
d="M601 938q0 -28 -5 -48q-4 -18 -16 -32t-32 -18q-18 -6 -47 -6q-28 0 -49 6q-20 5 -30 18q-13 13 -17 32q-5 20 -5 48q0 27 5 49q4 19 17 33q10 11 30 18q23 5 49 5q27 0 47 -5q20 -6 32 -18q12 -15 16 -33q5 -22 5 -49zM951 577q0 -13 -3 -25q-2 -10 -6 -17
q-4 -6 -10 -11q-7 -3 -14 -3h-838q-8 0 -14 3q-6 5 -10 11q-4 7 -6 17q-2 16 -2 25t2 25q2 10 6 16q4 7 10 10q5 4 14 4h838q7 0 14 -4q6 -3 10 -10q4 -6 6 -16q3 -12 3 -25zM601 211q0 -26 -5 -49q-4 -18 -16 -31q-13 -13 -32 -17q-18 -6 -47 -6q-28 0 -49 6q-19 5 -30 17
q-12 12 -17 31q-5 23 -5 49q0 27 5 49q4 20 17 34q10 11 30 18q23 5 49 5q27 0 47 -5q20 -6 32 -18q12 -15 16 -34q5 -22 5 -49z" />
    <glyph glyph-name="oslash" unicode="&#xf8;" horiz-adv-x="1068" 
d="M968 482q0 -109 -28 -199q-29 -93 -84 -158q-51 -64 -138 -105q-85 -37 -193 -37q-50 0 -88 7q-40 6 -70 17l-69 -142q-8 -17 -24 -21q-18 -5 -46 -5q-34 0 -42 9q-6 8 5 31l83 173q-48 33 -80 76q-33 45 -54 99t-30 115q-10 57 -10 123q0 109 28 199q26 88 82 158
q57 66 139 103q81 37 194 37q39 0 81 -6q36 -4 77 -16l67 139q8 15 24 21q17 5 44 5q38 0 44 -9t-5 -32l-81 -170q44 -29 77 -72q32 -42 55 -96q19 -50 32 -116q10 -67 10 -128zM844 471q0 46 -6 91q-4 43 -17 86q-11 39 -31 77q-24 40 -48 61l-327 -680q26 -11 55 -14
q26 -5 62 -5q80 0 140 29q59 29 98 80q38 53 56 122q18 72 18 153zM654 842q-28 9 -54 13q-35 5 -64 5q-82 0 -140 -30q-59 -29 -98 -80q-38 -53 -56 -122q-18 -72 -18 -152q0 -93 22 -179q24 -84 80 -138z" />
    <glyph glyph-name="ugrave" unicode="&#xf9;" horiz-adv-x="1064" 
d="M897 20q0 -6 -3 -11q-2 -5 -9 -8q-9 -4 -18 -5q-14 -2 -27 -2q-15 0 -29 2q-10 1 -17 5q-6 3 -8 8q-3 5 -3 11v128q-78 -87 -153 -126q-74 -39 -148 -39q-88 0 -150 30t-98 81q-39 52 -54 120q-17 64 -17 164v547q0 7 3 11q2 5 9 8q4 2 19 6q3 0 12.5 0.5t15.5 0.5
t16 -0.5t14 -0.5q15 -4 18 -6q6 -3 9 -8q3 -4 3 -11v-536q0 -86 13 -137q14 -55 39 -90q24 -37 66 -58t95 -21q70 0 137 49q70 50 146 144v649q0 5 2 11q4 5 10 8q3 2 18 6q4 0 14 0.5t16 0.5t15.5 -0.5t12.5 -0.5q15 -4 18 -6q6 -3 10 -8q3 -4 3 -11v-905zM578 1133
q4 -6 8 -16q0 -9 -2 -11q-4 -5 -13 -8q-12 -2 -24 -2q-18 0 -25 1q-10 1 -18 4q-8 4 -13 9q-5 4 -13 15l-174 234q-6 8 -8 17q-2 6 4 12q4 6 17 9q12 3 31 3q23 0 32 -2q10 0 22 -4q10 -5 16 -11q6 -7 14 -17z" />
    <glyph glyph-name="uacute" unicode="&#xfa;" horiz-adv-x="1064" 
d="M897 20q0 -6 -3 -11q-2 -5 -9 -8q-9 -4 -18 -5q-14 -2 -27 -2q-15 0 -29 2q-10 1 -17 5q-6 3 -8 8q-3 5 -3 11v128q-78 -87 -153 -126q-74 -39 -148 -39q-88 0 -150 30t-98 81q-39 52 -54 120q-17 64 -17 164v547q0 7 3 11q2 5 9 8q4 2 19 6q3 0 12.5 0.5t15.5 0.5
t16 -0.5t14 -0.5q15 -4 18 -6q6 -3 9 -8q3 -4 3 -11v-536q0 -86 13 -137q14 -55 39 -90q24 -37 66 -58t95 -21q70 0 137 49q70 50 146 144v649q0 5 2 11q4 5 10 8q3 2 18 6q4 0 14 0.5t16 0.5t15.5 -0.5t12.5 -0.5q15 -4 18 -6q6 -3 10 -8q3 -4 3 -11v-905zM632 1366
q5 9 13 17q7 7 17 11q12 4 22 4q10 2 33 2q19 0 31 -3q13 -3 17 -9q6 -6 3 -12q0 -7 -8 -17l-174 -234q-8 -11 -12 -15q-6 -6 -13 -9q-6 -2 -17 -4q-7 -1 -25 -1q-11 0 -25 2q-10 3 -12 8q-5 3 -3 11t7 16z" />
    <glyph glyph-name="ucircumflex" unicode="&#xfb;" horiz-adv-x="1064" 
d="M897 20q0 -6 -3 -11q-2 -5 -9 -8q-9 -4 -18 -5q-14 -2 -27 -2q-15 0 -29 2q-10 1 -17 5q-6 3 -8 8q-3 5 -3 11v128q-78 -87 -153 -126q-74 -39 -148 -39q-88 0 -150 30t-98 81q-39 52 -54 120q-17 64 -17 164v547q0 7 3 11q2 5 9 8q4 2 19 6q3 0 12.5 0.5t15.5 0.5
t16 -0.5t14 -0.5q15 -4 18 -6q6 -3 9 -8q3 -4 3 -11v-536q0 -86 13 -137q14 -55 39 -90q24 -37 66 -58t95 -21q70 0 137 49q70 50 146 144v649q0 5 2 11q4 5 10 8q3 2 18 6q4 0 14 0.5t16 0.5t15.5 -0.5t12.5 -0.5q15 -4 18 -6q6 -3 10 -8q3 -4 3 -11v-905zM388 1122
q-8 -10 -11 -13q-5 -5 -12 -8q-6 -2 -16 -4q-6 -1 -22 -1q-21 0 -31 3q-11 3 -14 9q-4 6 0 16q3 9 13 22l169 232q2 2 10 11q4 3 14 7q7 1 20 3q7 1 28 1q18 0 25 -1q13 -2 17 -4q9 -3 13 -7l3 -3t4 -3.5t3 -3.5l169 -232q9 -14 12 -22q4 -10 0 -16q-3 -6 -14 -9
q-10 -3 -30 -3q-18 0 -24 1q-10 2 -16 4q-7 3 -10 8q-2 1 -11 13l-145 198zM132 946z" />
    <glyph glyph-name="udieresis" unicode="&#xfc;" horiz-adv-x="1064" 
d="M897 20q0 -6 -3 -11q-2 -5 -9 -8q-9 -4 -18 -5q-14 -2 -27 -2q-15 0 -29 2q-10 1 -17 5q-6 3 -8 8q-3 5 -3 11v128q-78 -87 -153 -126q-74 -39 -148 -39q-88 0 -150 30t-98 81q-39 52 -54 120q-17 64 -17 164v547q0 7 3 11q2 5 9 8q4 2 19 6q3 0 12.5 0.5t15.5 0.5
t16 -0.5t14 -0.5q15 -4 18 -6q6 -3 9 -8q3 -4 3 -11v-536q0 -86 13 -137q14 -55 39 -90q24 -37 66 -58t95 -21q70 0 137 49q70 50 146 144v649q0 5 2 11q4 5 10 8q3 2 18 6q4 0 14 0.5t16 0.5t15.5 -0.5t12.5 -0.5q15 -4 18 -6q6 -3 10 -8q3 -4 3 -11v-905zM440 1211
q0 -46 -16 -62t-59 -16t-58 15q-16 16 -16 62q0 47 16 63t58 16q44 0 60 -16q15 -17 15 -62zM774 1211q0 -46 -16 -62t-59 -16t-58 15q-16 16 -16 62q0 47 16 63t58 16q44 0 60 -16q15 -17 15 -62zM143 946z" />
    <glyph glyph-name="yacute" unicode="&#xfd;" horiz-adv-x="903" 
d="M519 0l-126 -339q-4 -10 -21 -19q-19 -7 -51 -7q-14 0 -30 2q-9 1 -19 7q-5 5 -7 14q-1 7 4 21l128 321q-9 4 -14 10q-7 9 -8 14l-329 883q-5 15 -5 23t5 13q5 4 18 7q4 0 15 0.5t19 0.5t19.5 -0.5t15.5 -0.5q18 -4 21 -5q7 -3 10 -8q4 -4 7 -12l283 -790h4l278 790
q4 12 14 19q6 2 22 6q4 0 15.5 0.5t18.5 0.5q14 0 32 -2q10 -1 18 -7q6 -4 6 -14q0 -6 -5 -21zM556 1366q5 9 13 17q7 7 17 11q12 4 22 4q10 2 33 2q19 0 31 -3q13 -3 17 -9q6 -6 3 -12q0 -7 -8 -17l-174 -234q-8 -11 -12 -15q-6 -6 -13 -9q-6 -2 -17 -4q-7 -1 -25 -1
q-11 0 -25 2q-10 3 -12 8q-5 3 -3 11t7 16z" />
    <glyph glyph-name="thorn" unicode="&#xfe;" horiz-adv-x="1064" 
d="M957 484q0 -118 -25 -208q-25 -93 -74 -158q-53 -67 -122 -100q-75 -35 -167 -35q-41 0 -75 9q-34 7 -70 26q-31 16 -68 45q-28 23 -70 65v-467q0 -7 -3 -11q-3 -5 -9 -8q-3 -2 -18 -6q-4 0 -14 -0.5t-16 -0.5t-15.5 0.5t-12.5 0.5q-15 4 -19 6q-7 3 -9 8q-3 4 -3 11
v1707q0 6 3 11q2 5 9 9q10 4 19 4q7 2 28 2q22 0 30 -2q8 0 18 -4q6 -4 9 -9t3 -11v-565q46 46 76 71q36 29 74 50q39 20 74 28q37 10 83 10q97 0 167 -38q67 -36 114 -103q44 -68 63 -152q20 -89 20 -185zM832 465q0 77 -12 147q-12 69 -41 126q-28 54 -77 88
q-47 34 -120 34q-36 0 -70 -10q-35 -11 -70 -33q-36 -22 -74 -59q-39 -37 -82 -91v-394q74 -90 144 -139t145 -49q69 0 118 33q48 34 80 88q31 54 45 122q14 70 14 137z" />
    <glyph glyph-name="ydieresis" unicode="&#xff;" horiz-adv-x="903" 
d="M519 0l-126 -339q-4 -10 -21 -19q-19 -7 -51 -7q-14 0 -30 2q-9 1 -19 7q-5 5 -7 14q-1 7 4 21l128 321q-9 4 -14 10q-7 9 -8 14l-329 883q-5 15 -5 23t5 13q5 4 18 7q4 0 15 0.5t19 0.5t19.5 -0.5t15.5 -0.5q18 -4 21 -5q7 -3 10 -8q4 -4 7 -12l283 -790h4l278 790
q4 12 14 19q6 2 22 6q4 0 15.5 0.5t18.5 0.5q14 0 32 -2q10 -1 18 -7q6 -4 6 -14q0 -6 -5 -21zM358 1211q0 -46 -16 -62t-59 -16t-58 15q-16 16 -16 62q0 47 16 63t58 16q44 0 60 -16q15 -17 15 -62zM692 1211q0 -46 -16 -62t-59 -16t-58 15q-16 16 -16 62q0 47 16 63t58 16
q44 0 60 -16q15 -17 15 -62zM61 946z" />
    <glyph glyph-name="Amacron" unicode="&#x100;" horiz-adv-x="1154" 
d="M1108 41q6 -15 6 -25q-2 -10 -8 -14q-8 -6 -20 -6q-8 -2 -34 -2q-25 0 -34 2q-9 0 -19 4q-5 2 -11 8q-3 4 -6 12l-124 345h-568l-119 -343q-1 -8 -6 -12q-6 -6 -11 -8q-8 -5 -20 -6q-16 -2 -31 -2q-17 0 -35 2q-13 1 -20 7q-6 4 -8 14q0 9 6 24l453 1231q3 8 9 14
q7 6 16 8q12 4 22 4q10 2 31 2q23 0 31 -2q10 0 24 -4q9 -3 14 -8q6 -6 9 -14zM571 1163h-1l-244 -696h495zM845 1576q7 0 11 -4q5 -4 8 -10q2 -3 6 -16q0 -3 0.5 -10.5t0.5 -11.5t-0.5 -11.5t-0.5 -10.5q-4 -14 -6 -16q-3 -6 -8 -10q-4 -4 -11 -4h-521q-8 0 -12 4
q-5 4 -8 10q-5 8 -6 16q-2 14 -2 22t2 22q1 10 6 16q3 6 8 10q4 4 12 4h521zM148 1294z" />
    <glyph glyph-name="amacron" unicode="&#x101;" horiz-adv-x="964" 
d="M801 20q0 -10 -7 -16q-6 -5 -16 -8q-16 -2 -29 -2t-29 2q-11 3 -18 8q-7 6 -7 16v101q-63 -67 -135 -102q-72 -36 -152 -36q-72 0 -128 19q-54 18 -95 52q-40 37 -60 84q-21 50 -21 110q0 77 31 130q30 55 88 93q56 37 137 55q77 19 178 19h144v78q0 58 -12 103
q-12 44 -39 74t-70 45t-105 15q-58 0 -108 -14q-48 -15 -84 -33t-60 -33q-23 -14 -33 -14q-5 0 -11 2q-5 2 -8 8q-2 2 -6 14q0 2 -0.5 9t-0.5 11q0 20 3 34q3 13 16 24q12 13 44 30q33 18 74 32q43 14 89 23q48 9 96 9q89 0 157 -22q64 -24 104 -65q39 -42 56 -103
q17 -65 17 -140v-612zM682 447h-165q-74 0 -126 -13q-56 -14 -90 -38q-37 -26 -53 -60q-18 -34 -18 -80q0 -80 50 -124q47 -47 139 -47q71 0 133 37q63 38 130 112v213zM720 1277q6 0 11 -3q5 -4 8 -9q4 -7 5 -15q2 -14 2 -23t-2 -21q-1 -6 -5 -16q-2 -4 -8 -10
q-4 -3 -11 -3h-462q-8 0 -12 3q-6 6 -8 10q-5 8 -6 16q-2 12 -2 21t2 23q2 9 6 15q3 5 8 9q4 3 12 3h462zM82 946z" />
    <glyph glyph-name="Abreve" unicode="&#x102;" horiz-adv-x="1154" 
d="M1108 41q6 -15 6 -25q-2 -10 -8 -14q-8 -6 -20 -6q-8 -2 -34 -2q-25 0 -34 2q-9 0 -19 4q-5 2 -11 8q-3 4 -6 12l-124 345h-568l-119 -343q-1 -8 -6 -12q-6 -6 -11 -8q-8 -5 -20 -6q-16 -2 -31 -2q-17 0 -35 2q-13 1 -20 7q-6 4 -8 14q0 9 6 24l453 1231q3 8 9 14
q7 6 16 8q12 4 22 4q10 2 31 2q23 0 31 -2q10 0 24 -4q9 -3 14 -8q6 -6 9 -14zM571 1163h-1l-244 -696h495zM823 1665q0 -64 -17 -111q-14 -47 -48 -84q-31 -34 -76 -52t-100 -18q-61 0 -107 20q-45 21 -74 56q-30 38 -43 84q-14 51 -14 105q0 13 8 19q10 5 37 5q28 0 40 -3
t12 -18q0 -14 9 -52q7 -37 26 -64q18 -26 44 -38q25 -14 65 -14q56 0 87 28q31 26 44 65q10 42 10 61q0 23 8 29q7 6 44 6q28 0 36 -5q9 -6 9 -19zM196 1294z" />
    <glyph glyph-name="abreve" unicode="&#x103;" horiz-adv-x="964" 
d="M801 20q0 -10 -7 -16q-6 -5 -16 -8q-16 -2 -29 -2t-29 2q-11 3 -18 8q-7 6 -7 16v101q-63 -67 -135 -102q-72 -36 -152 -36q-72 0 -128 19q-54 18 -95 52q-40 37 -60 84q-21 50 -21 110q0 77 31 130q30 55 88 93q56 37 137 55q77 19 178 19h144v78q0 58 -12 103
q-12 44 -39 74t-70 45t-105 15q-58 0 -108 -14q-48 -15 -84 -33t-60 -33q-23 -14 -33 -14q-5 0 -11 2q-5 2 -8 8q-2 2 -6 14q0 2 -0.5 9t-0.5 11q0 20 3 34q3 13 16 24q12 13 44 30q33 18 74 32q43 14 89 23q48 9 96 9q89 0 157 -22q64 -24 104 -65q39 -42 56 -103
q17 -65 17 -140v-612zM682 447h-165q-74 0 -126 -13q-56 -14 -90 -38q-37 -26 -53 -60q-18 -34 -18 -80q0 -80 50 -124q47 -47 139 -47q71 0 133 37q63 38 130 112v213zM634 1368q0 10 9 18q9 6 37 6q18 0 24 -2q7 0 13 -4q5 -3 7 -8q0 -1 0.5 -4.5t0.5 -5.5q0 -70 -16 -118
q-17 -52 -47 -83q-31 -34 -75 -49q-43 -17 -102 -17q-62 0 -107 18q-46 18 -74 51q-31 36 -44 83q-14 51 -14 112q0 14 10 21q9 6 35 6q17 0 23 -2q8 0 14 -4t7 -8q2 -4 2 -10q1 -38 11 -71q11 -32 28 -55q19 -23 45 -34q27 -12 64 -12q33 0 57 10q27 10 46 30q20 20 32 52
q13 34 14 80zM98 946z" />
    <glyph glyph-name="Aogonek" unicode="&#x104;" horiz-adv-x="1154" 
d="M1140 -308q0 -9 -2 -19q-2 -9 -6 -13q-6 -6 -10 -8q-6 -3 -24 -8q-18 -4 -32 -5q-12 -1 -32 -3q-10 -1 -30 -1q-38 0 -80 7q-39 9 -63 25q-26 17 -41 44q-14 28 -14 65q0 17 4 32q6 22 14 38q13 24 28 44q16 22 45 51l83 83l-122 341h-568l-119 -343q-3 -8 -7 -12
q-4 -5 -10 -8q-8 -5 -20 -6q-16 -2 -31 -2q-17 0 -35 2q-13 1 -20 7q-6 4 -8 14q0 9 6 24l453 1231q3 8 9 14q7 6 16 8q12 4 22 4q10 2 31 2q23 0 31 -2q10 0 24 -4q9 -3 14 -8q6 -6 9 -14l435 -1181q6 -18 12 -38q3 -15 0 -29q-4 -16 -14 -27q-8 -12 -30 -34l-89 -89
q-23 -23 -35 -45q-9 -20 -9 -40q0 -29 21 -42q20 -14 73 -14h97q11 0 18 -7q6 -9 6 -34zM571 1163h-1l-244 -696h495z" />
    <glyph glyph-name="aogonek" unicode="&#x105;" horiz-adv-x="964" 
d="M873 -308q0 -13 -1 -18q-2 -9 -4 -12q-6 -6 -10 -8q-4 -3 -14 -6q-28 -9 -52 -10q-27 -3 -62 -3q-87 0 -134 37q-47 36 -47 106q0 18 3 34t12 36q8 18 24 40q18 23 42 47l65 65v121h-2q-59 -66 -133 -102q-72 -36 -152 -36q-72 0 -128 19q-54 18 -95 52q-40 37 -60 84
q-21 50 -21 110q0 77 31 130q30 55 88 93q56 37 137 55q77 19 178 19h144v78q0 58 -12 103q-12 44 -39 74t-70 45t-105 15q-58 0 -108 -14q-48 -15 -84 -33t-60 -33q-23 -14 -33 -14q-5 0 -11 2q-5 2 -8 8q-2 2 -6 14q0 2 -0.5 9t-0.5 11q0 20 3 34q3 13 16 24q12 13 44 30
q33 18 74 32q43 14 89 23q48 9 96 9q89 0 157 -22q64 -24 104 -65q39 -42 56 -103q17 -65 17 -140v-602q0 -25 -5 -50q-6 -22 -23 -39l-65 -65q-26 -27 -34 -46q-8 -22 -8 -38q0 -59 77 -59h106q12 0 19 -7q5 -10 5 -34zM682 447h-165q-74 0 -126 -13q-56 -14 -90 -38
q-37 -26 -53 -60q-18 -34 -18 -80q0 -80 50 -124q47 -47 139 -47q71 0 133 37q63 38 130 112v213z" />
    <glyph glyph-name="Cacute" unicode="&#x106;" horiz-adv-x="1096" 
d="M1036 176q0 -14 -1 -20t-3 -16q-1 -7 -6 -13q-3 -6 -12 -15q-7 -7 -42 -32q-31 -20 -80 -42q-50 -21 -112 -36q-63 -15 -139 -15q-123 0 -221 43q-100 42 -168 124q-68 80 -108 202q-37 123 -37 274q0 160 40 284q41 127 113 212q73 89 174 134q98 47 224 47
q55 0 112 -11q47 -9 101 -28q44 -16 83 -39q29 -18 50 -35q3 -4 7 -8.5t6 -7t3 -4.5q5 -6 6 -14q1 -4 3 -16q1 -7 1 -22q0 -18 -2 -24q0 -10 -4 -18q-3 -6 -9 -12q-4 -4 -12 -4q-14 0 -39 20q-28 21 -68 46q-38 24 -101 46q-62 20 -143 20q-90 0 -167 -36q-75 -37 -131 -108
q-54 -70 -84 -175q-31 -102 -31 -239q0 -130 28 -229q28 -100 81 -169q53 -68 131 -104t177 -36q79 0 142 20q61 21 103 46t71 46q28 20 42 20q4 0 10 -2q5 -3 6 -10q4 -8 4 -17q2 -7 2 -27zM741 1656q13 13 19 18q7 4 21 10q7 2 25 4q9 1 32 1q21 0 34 -3q14 -5 18 -10
q7 -5 4 -12q0 -8 -8 -16l-228 -219q-10 -11 -18 -15q-7 -6 -17 -9q-5 -2 -19 -4q-8 -1 -26 -1q-14 0 -26 2q-11 3 -13 8q-3 3 -1 11q1 5 10 16zM389 1294z" />
    <glyph glyph-name="cacute" unicode="&#x107;" horiz-adv-x="871" 
d="M799 154q0 -15 -1 -22q-1 -6 -3 -16q-1 -6 -5 -12q-6 -8 -17 -19q-14 -14 -43 -33q-34 -21 -69 -35q-33 -13 -82 -25q-43 -9 -91 -9q-92 0 -166 31q-74 33 -122 94q-50 60 -74 150q-26 87 -26 207q0 134 32 226q29 93 86 154q54 58 128 89q78 28 158 28q43 0 86 -8
q36 -8 76 -23q34 -14 61 -32q28 -19 39 -31q4 -4 7.5 -7t6.5 -6.5t4 -4.5l2.5 -5t2.5 -5.5t1 -4.5q2 -5 4 -17q1 -7 1 -23q0 -29 -9 -41q-8 -11 -18 -11q-14 0 -34 18q-19 17 -53 39q-29 21 -77 40q-47 18 -109 18q-129 0 -201 -100q-70 -102 -70 -289q0 -97 19 -167
q20 -73 55 -118q34 -48 86 -72q52 -23 115 -23q61 0 106 19q44 18 80 42q27 18 57 42q20 19 33 19q5 0 11 -3q6 -9 7 -12q1 -2 5 -18q0 -3 0.5 -11t0.5 -13zM573 1366q5 9 13 17q6 7 17 11q12 4 22 4q10 2 33 2q19 0 31 -3q13 -3 17 -9q6 -6 3 -12q0 -7 -8 -17l-174 -234
q-7 -11 -12 -15q-6 -6 -13 -9q-6 -2 -17 -4q-7 -1 -25 -1q-11 0 -25 2q-10 3 -12 8q-5 3 -3 11t7 16z" />
    <glyph glyph-name="Ccircumflex" unicode="&#x108;" horiz-adv-x="1096" 
d="M1036 176q0 -14 -1 -20t-3 -16q-1 -7 -6 -13q-3 -6 -12 -15q-7 -7 -42 -32q-31 -20 -80 -42q-50 -21 -112 -36q-63 -15 -139 -15q-123 0 -221 43q-100 42 -168 124q-68 80 -108 202q-37 123 -37 274q0 160 40 284q41 127 113 212q73 89 174 134q98 47 224 47
q55 0 112 -11q47 -9 101 -28q44 -16 83 -39q29 -18 50 -35q3 -4 7 -8.5t6 -7t3 -4.5q5 -6 6 -14q1 -4 3 -16q1 -7 1 -22q0 -18 -2 -24q0 -10 -4 -18q-3 -6 -9 -12q-4 -4 -12 -4q-14 0 -39 20q-28 21 -68 46q-38 24 -101 46q-62 20 -143 20q-90 0 -167 -36q-75 -37 -131 -108
q-54 -70 -84 -175q-31 -102 -31 -239q0 -130 28 -229q28 -100 81 -169q53 -68 131 -104t177 -36q79 0 142 20q61 21 103 46t71 46q28 20 42 20q4 0 10 -2q5 -3 6 -10q4 -8 4 -17q2 -7 2 -27zM643 1689q18 0 25 -1q10 -2 18 -4q10 -5 12 -7q8 -6 12 -10l224 -234q6 -6 8 -15
q1 -6 -4 -10q-3 -4 -14 -6q-14 -2 -25 -2q-28 0 -37 2q-7 0 -22 3q-9 1 -14 5q-2 2 -5 4t-5 4l-173 191l-179 -185q-10 -10 -16 -12q-5 -5 -18 -8q-9 -2 -24 -3q-8 -1 -33 -1q-17 0 -29 2q-11 3 -15 7t-2 10q1 5 10 14l240 234q4 4 12 10q2 2 13 7q7 2 18 4q6 1 23 1z
M178 1294z" />
    <glyph glyph-name="ccircumflex" unicode="&#x109;" horiz-adv-x="871" 
d="M799 154q0 -15 -1 -22q-1 -6 -3 -16q-1 -6 -5 -12q-6 -8 -17 -19q-14 -14 -43 -33q-34 -21 -69 -35q-33 -13 -82 -25q-43 -9 -91 -9q-92 0 -166 31q-74 33 -122 94q-50 60 -74 150q-26 87 -26 207q0 134 32 226q29 93 86 154q54 58 128 89q78 28 158 28q43 0 86 -8
q36 -8 76 -23q34 -14 61 -32q28 -19 39 -31q4 -4 7.5 -7t6.5 -6.5t4 -4.5l2.5 -5t2.5 -5.5t1 -4.5q2 -5 4 -17q1 -7 1 -23q0 -29 -9 -41q-8 -11 -18 -11q-14 0 -34 18q-19 17 -53 39q-29 21 -77 40q-47 18 -109 18q-129 0 -201 -100q-70 -102 -70 -289q0 -97 19 -167
q20 -73 55 -118q34 -48 86 -72q52 -23 115 -23q61 0 106 19q44 18 80 42q27 18 57 42q20 19 33 19q5 0 11 -3q6 -9 7 -12q1 -2 5 -18q0 -3 0.5 -11t0.5 -13zM345 1122q-8 -10 -11 -13q-5 -5 -12 -8q-6 -2 -16 -4q-6 -1 -22 -1q-20 0 -31 3t-14 9q-4 6 0 16q3 9 13 22
l169 232q1 2 10 11q4 3 14 7q7 1 20 3q7 1 28 1q18 0 25 -1q13 -2 17 -4q9 -3 13 -7l10 -10l169 -232q9 -14 12 -22q4 -10 0 -16q-3 -6 -14 -9t-30 -3q-18 0 -24 1q-10 2 -16 4q-7 3 -10 8q-1 1 -11 13l-145 198zM89 946z" />
    <glyph glyph-name="Cdotaccent" unicode="&#x10a;" horiz-adv-x="1096" 
d="M1036 176q0 -14 -1 -20t-3 -16q-1 -7 -6 -13q-3 -6 -12 -15q-7 -7 -42 -32q-31 -20 -80 -42q-50 -21 -112 -36q-63 -15 -139 -15q-123 0 -221 43q-100 42 -168 124q-68 80 -108 202q-37 123 -37 274q0 160 40 284q41 127 113 212q73 89 174 134q98 47 224 47
q55 0 112 -11q47 -9 101 -28q44 -16 83 -39q29 -18 50 -35q3 -4 7 -8.5t6 -7t3 -4.5q5 -6 6 -14q1 -4 3 -16q1 -7 1 -22q0 -18 -2 -24q0 -10 -4 -18q-3 -6 -9 -12q-4 -4 -12 -4q-14 0 -39 20q-28 21 -68 46q-38 24 -101 46q-62 20 -143 20q-90 0 -167 -36q-75 -37 -131 -108
q-54 -70 -84 -175q-31 -102 -31 -239q0 -130 28 -229q28 -100 81 -169q53 -68 131 -104t177 -36q79 0 142 20q61 21 103 46t71 46q28 20 42 20q4 0 10 -2q5 -3 6 -10q4 -8 4 -17q2 -7 2 -27zM730 1526q0 -48 -18 -64q-16 -18 -61 -18q-43 0 -60 17t-17 64t18 65q17 17 61 17
q43 0 60 -17t17 -64zM426 1294z" />
    <glyph glyph-name="cdotaccent" unicode="&#x10b;" horiz-adv-x="871" 
d="M799 154q0 -15 -1 -22q-1 -6 -3 -16q-1 -6 -5 -12q-6 -8 -17 -19q-14 -14 -43 -33q-34 -21 -69 -35q-33 -13 -82 -25q-43 -9 -91 -9q-92 0 -166 31q-74 33 -122 94q-50 60 -74 150q-26 87 -26 207q0 134 32 226q29 93 86 154q54 58 128 89q78 28 158 28q43 0 86 -8
q36 -8 76 -23q34 -14 61 -32q28 -19 39 -31q4 -4 7.5 -7t6.5 -6.5t4 -4.5l2.5 -5t2.5 -5.5t1 -4.5q2 -5 4 -17q1 -7 1 -23q0 -29 -9 -41q-8 -11 -18 -11q-14 0 -34 18q-19 17 -53 39q-29 21 -77 40q-47 18 -109 18q-129 0 -201 -100q-70 -102 -70 -289q0 -97 19 -167
q20 -73 55 -118q34 -48 86 -72q52 -23 115 -23q61 0 106 19q44 18 80 42q27 18 57 42q20 19 33 19q5 0 11 -3q6 -9 7 -12q1 -2 5 -18q0 -3 0.5 -11t0.5 -13zM568 1230q0 -48 -18 -64q-16 -18 -61 -18q-43 0 -60 17t-17 64t18 65q17 17 61 17q43 0 60 -17t17 -64z" />
    <glyph glyph-name="Ccaron" unicode="&#x10c;" horiz-adv-x="1096" 
d="M1036 176q0 -14 -1 -20t-3 -16q-1 -7 -6 -13q-3 -6 -12 -15q-7 -7 -42 -32q-31 -20 -80 -42q-50 -21 -112 -36q-63 -15 -139 -15q-123 0 -221 43q-100 42 -168 124q-68 80 -108 202q-37 123 -37 274q0 160 40 284q41 127 113 212q73 89 174 134q98 47 224 47
q55 0 112 -11q47 -9 101 -28q44 -16 83 -39q29 -18 50 -35q3 -4 7 -8.5t6 -7t3 -4.5q5 -6 6 -14q1 -4 3 -16q1 -7 1 -22q0 -18 -2 -24q0 -10 -4 -18q-3 -6 -9 -12q-4 -4 -12 -4q-14 0 -39 20q-28 21 -68 46q-38 24 -101 46q-62 20 -143 20q-90 0 -167 -36q-75 -37 -131 -108
q-54 -70 -84 -175q-31 -102 -31 -239q0 -130 28 -229q28 -100 81 -169q53 -68 131 -104t177 -36q79 0 142 20q61 21 103 46t71 46q28 20 42 20q4 0 10 -2q5 -3 6 -10q4 -8 4 -17q2 -7 2 -27zM645 1400q-18 0 -25 1q-3 0 -6 0.5t-6.5 1.5t-5.5 1q-10 5 -12 8q-4 2 -12 10
l-224 234q-6 6 -8 14q-1 7 4 11q3 4 14 6q14 2 25 2q8 0 20.5 -0.5t16.5 -0.5q5 -1 13 -2.5t9 -1.5q10 -2 14 -6l10 -8l173 -191l180 186q7 7 15 12q10 6 18 7q9 2 24 4q8 1 33 1q19 0 30 -3q11 -2 15 -6q3 -4 0 -10q-1 -6 -9 -14l-239 -234q-8 -8 -12 -10q-3 -3 -14 -8
l-7 -1q-7 -1 -11 -2q-6 -1 -23 -1zM198 1294z" />
    <glyph glyph-name="ccaron" unicode="&#x10d;" horiz-adv-x="871" 
d="M799 154q0 -15 -1 -22q-1 -6 -3 -16q-1 -6 -5 -12q-6 -8 -17 -19q-14 -14 -43 -33q-34 -21 -69 -35q-33 -13 -82 -25q-43 -9 -91 -9q-92 0 -166 31q-74 33 -122 94q-50 60 -74 150q-26 87 -26 207q0 134 32 226q29 93 86 154q54 58 128 89q78 28 158 28q43 0 86 -8
q36 -8 76 -23q34 -14 61 -32q28 -19 39 -31q4 -4 7.5 -7t6.5 -6.5t4 -4.5l2.5 -5t2.5 -5.5t1 -4.5q2 -5 4 -17q1 -7 1 -23q0 -29 -9 -41q-8 -11 -18 -11q-14 0 -34 18q-19 17 -53 39q-29 21 -77 40q-47 18 -109 18q-129 0 -201 -100q-70 -102 -70 -289q0 -97 19 -167
q20 -73 55 -118q34 -48 86 -72q52 -23 115 -23q61 0 106 19q44 18 80 42q27 18 57 42q20 19 33 19q5 0 11 -3q6 -9 7 -12q1 -2 5 -18q0 -3 0.5 -11t0.5 -13zM638 1374q4 5 11 12q5 5 12 8q10 4 16 4q6 2 22 2q19 0 30 -3t16 -9q3 -6 0 -16q-6 -11 -14 -22l-169 -232
q-2 -2 -11 -12q-7 -5 -13 -6q-5 -1 -19 -3q-8 -1 -29 -1q-18 0 -25 1l-18 3q-10 5 -12 8q-5 3 -10 10l-169 232q-8 11 -13 22q-3 9 0 16q4 6 14 9q12 3 31 3q18 0 24 -2q7 0 15 -4q3 -1 12 -8q1 -2 4.5 -6t5.5 -6l144 -199z" />
    <glyph glyph-name="Dcaron" unicode="&#x10e;" horiz-adv-x="1243" 
d="M1140 666q0 -160 -41 -288q-40 -123 -121 -208q-79 -83 -198 -127q-116 -43 -280 -43h-255q-19 0 -37 14q-19 12 -19 49v1168q0 37 19 49q18 14 37 14h272q165 0 279 -45q110 -44 190 -127q77 -86 115 -198q39 -117 39 -258zM1009 660q0 116 -29 210q-26 93 -88 166
q-57 69 -150 110q-91 39 -232 39h-199v-1076h200q133 0 223 33q90 30 153 100q61 67 91 172q31 100 31 246zM595 1400q-18 0 -25 1l-18 3q-10 5 -12 8q-4 2 -12 10l-224 234q-6 6 -8 14q-1 7 4 11q3 4 14 6q14 2 25 2q8 0 20.5 -0.5t16.5 -0.5q5 -1 13 -2.5t9 -1.5
q10 -2 14 -6l10 -8l173 -191l180 186q7 7 15 12q10 6 18 7q9 2 24 4q8 1 33 1q19 0 30 -3q11 -2 15 -6q3 -4 0 -10q-1 -6 -9 -14l-239 -234q-8 -8 -12 -10q-3 -3 -14 -8q-2 0 -5.5 -1t-6.5 -1.5t-6 -0.5q-6 -1 -23 -1zM148 1294z" />
    <glyph glyph-name="dcaron" unicode="&#x10f;" horiz-adv-x="1133" 
d="M897 20q0 -8 -3 -12q-2 -5 -8 -8q-10 -4 -17 -4q-7 -2 -25 -2q-20 0 -26 2q-8 0 -18 4q-4 2 -10 8q-3 4 -3 12v130q-72 -78 -149 -122q-76 -45 -168 -45q-97 0 -167 38q-66 36 -113 103q-44 68 -63 152q-20 91 -20 186q0 117 25 208q27 95 74 157q51 66 121 100
q73 35 167 35q82 0 150 -36q69 -38 134 -108v545q0 5 2 11q4 5 10 8q9 4 18 5q16 2 29 2q15 0 29 -2q11 -1 18 -5q6 -3 10 -8q3 -4 3 -11v-1343zM778 673q-74 90 -144 139q-70 48 -146 48q-68 0 -118 -33q-48 -32 -80 -87q-31 -54 -45 -122q-14 -70 -14 -138q0 -76 12 -146
q12 -71 41 -126q27 -54 77 -90q48 -33 120 -33q37 0 70 10q34 10 70 33q36 22 75 60q42 40 82 90v395zM1099 1365q3 8 8 15q4 5 13 9q2 1 21 5q4 0 14.5 0.5t16.5 0.5t14 -0.5t10 -0.5q10 -4 12 -6q4 -3 4 -9q1 -4 -1 -14l-125 -312q-2 -4 -4 -7q-4 -4 -10 -5q-4 -1 -16 -3
q-8 -1 -27 -1q-4 0 -9.5 0.5t-7.5 0.5q-8 3 -10 5q-2 3 -4 7q-1 3 1 9zM849 1002z" />
    <glyph glyph-name="Dcroat" unicode="&#x110;" horiz-adv-x="1262" 
d="M1159 666q0 -160 -41 -288q-41 -124 -122 -208q-79 -83 -198 -127q-116 -43 -280 -43h-255q-19 0 -37 14q-18 12 -18 49v556h-143q-8 0 -14 3q-6 5 -10 11q-5 8 -6 17q-2 14 -2 23t2 25q2 10 6 17q4 6 10 11q6 3 14 3h143v502q0 37 18 49q18 14 37 14h272q165 0 279 -45
t190 -127t116 -198q39 -117 39 -258zM1027 660q0 116 -29 210q-26 93 -87 166q-57 69 -151 110q-90 39 -233 39h-197v-456h256q7 0 13 -3q6 -5 10 -11q4 -7 6 -17q2 -16 2 -25t-2 -23q-1 -9 -6 -17q-4 -6 -10 -11q-6 -3 -13 -3h-256v-510h200q131 0 224 33q89 31 152 100
q60 68 90 172q31 100 31 246z" />
    <glyph glyph-name="dcroat" unicode="&#x111;" horiz-adv-x="1111" 
d="M1073 1170q0 -8 -2 -22q-1 -8 -6 -16q-5 -6 -9 -9t-12 -3h-147v-1100q0 -8 -3 -12q-2 -5 -8 -8q-10 -4 -17 -4q-7 -2 -25 -2q-20 0 -26 2q-8 0 -18 4q-4 2 -10 8q-3 4 -3 12v130q-72 -78 -149 -122q-76 -45 -168 -45q-97 0 -167 38q-66 36 -113 103q-44 68 -63 152
q-20 91 -20 186q0 117 25 208q27 95 74 157q51 66 121 100q73 35 167 35q82 0 150 -36q69 -38 134 -108v302h-269q-7 0 -13 3q-4 3 -9 9q-5 8 -6 16q-2 14 -2 22t2 22q1 8 6 16q5 6 9 9q6 3 13 3h269v143q0 5 2 11q4 5 10 8q9 4 18 5q16 2 30 2t28 -2q11 -1 18 -5
q6 -3 10 -8q3 -4 3 -11v-143h147q8 0 12 -3t9 -9q5 -8 6 -16q2 -14 2 -22zM778 673q-74 90 -144 139q-70 48 -146 48q-68 0 -118 -33q-48 -32 -80 -87q-31 -54 -45 -122q-14 -70 -14 -138q0 -76 12 -146q12 -71 41 -126q27 -54 77 -90q48 -33 120 -33q37 0 70 10
q34 10 70 33q36 22 75 60q42 40 82 90v395z" />
    <glyph glyph-name="Emacron" unicode="&#x112;" horiz-adv-x="1001" 
d="M883 54q0 -9 -2 -23q-1 -10 -7 -17q-2 -6 -10 -10q-5 -4 -13 -4h-606q-19 0 -37 14q-19 12 -19 49v1168q0 37 19 49q18 14 37 14h597q8 0 13 -4q6 -3 10 -10q5 -8 6 -18q2 -12 2 -24q0 -9 -2 -23q-1 -9 -6 -17q-4 -6 -10 -10q-6 -3 -13 -3h-531v-455h458q9 0 14 -4
q6 -3 10 -10q4 -6 6 -16q2 -16 2 -25t-2 -23q-1 -9 -6 -15t-10 -9q-6 -3 -14 -3h-458v-516h540q7 0 13 -3q8 -6 10 -10q6 -7 7 -18q2 -12 2 -24zM797 1576q7 0 11 -4q5 -4 8 -10q2 -3 6 -16q0 -3 0.5 -10.5t0.5 -11.5t-0.5 -11.5t-0.5 -10.5q-4 -14 -6 -16q-3 -6 -8 -10
q-4 -4 -11 -4h-521q-8 0 -12 4q-5 4 -8 10q-5 8 -6 16q-2 14 -2 22t2 22q1 10 6 16q3 6 8 10q4 4 12 4h521zM100 1294z" />
    <glyph glyph-name="emacron" unicode="&#x113;" horiz-adv-x="1012" 
d="M905 519q0 -37 -19 -49q-18 -14 -37 -14h-617q0 -80 16 -152q18 -69 55 -116q37 -50 99 -75q63 -26 150 -26q61 0 113 11q36 8 87 24q8 4 21.5 9t22.5 9t16 7q24 11 33 11q7 0 11 -3q5 -3 8 -9q4 -10 4 -17q2 -7 2 -25q0 -9 -1 -14q0 -1 -0.5 -3.5t-1 -4.5t-1.5 -4
q0 -4 -4 -10t-8 -10q-3 -3 -31 -18q-25 -12 -68 -24q-33 -10 -97 -23q-54 -10 -120 -10q-102 0 -186 31q-83 34 -136 94q-53 57 -84 152q-28 95 -28 211q0 115 30 206q28 90 84 155q56 63 132 96q77 34 173 34q103 0 174 -34q72 -34 119 -92q46 -58 68 -133q21 -76 21 -160
v-24zM782 554q3 144 -66 225t-201 81q-70 0 -119 -26q-50 -23 -88 -67q-34 -41 -54 -97q-19 -55 -22 -116h550zM747 1277q7 0 11 -3q5 -4 8 -9q4 -7 5 -15q2 -14 2 -23t-2 -21q-1 -6 -5 -16q-2 -4 -8 -10q-4 -3 -11 -3h-462q-7 0 -12 3q-6 6 -8 10q-5 8 -6 16q-2 12 -2 21
t2 23q1 9 6 15q3 5 8 9q5 3 12 3h462zM109 946z" />
    <glyph glyph-name="Ebreve" unicode="&#x114;" horiz-adv-x="1001" 
d="M883 54q0 -9 -2 -23q-1 -10 -7 -17q-2 -6 -10 -10q-5 -4 -13 -4h-606q-19 0 -37 14q-19 12 -19 49v1168q0 37 19 49q18 14 37 14h597q8 0 13 -4q6 -3 10 -10q5 -8 6 -18q2 -12 2 -24q0 -9 -2 -23q-1 -9 -6 -17q-4 -6 -10 -10q-6 -3 -13 -3h-531v-455h458q9 0 14 -4
q6 -3 10 -10q4 -6 6 -16q2 -16 2 -25t-2 -23q-1 -9 -6 -15t-10 -9q-6 -3 -14 -3h-458v-516h540q7 0 13 -3q8 -6 10 -10q6 -7 7 -18q2 -12 2 -24zM762 1665q0 -58 -16 -111q-17 -47 -48 -84q-35 -35 -77 -52q-45 -18 -100 -18q-61 0 -107 20q-45 21 -74 56q-30 38 -43 84
q-14 51 -14 105q0 13 9 19q8 5 36 5t40 -3t12 -18q0 -12 8 -52q9 -38 27 -64q19 -26 45 -38q24 -14 64 -14q56 0 88 28q33 28 42 65q11 34 11 61q0 23 8 29q7 6 44 6q27 0 37 -5q8 -6 8 -19zM135 1294z" />
    <glyph glyph-name="ebreve" unicode="&#x115;" horiz-adv-x="1012" 
d="M905 519q0 -37 -19 -49q-18 -14 -37 -14h-617q0 -80 16 -152q18 -69 55 -116q37 -50 99 -75q63 -26 150 -26q61 0 113 11q36 8 87 24q8 4 21.5 9t22.5 9t16 7q24 11 33 11q7 0 11 -3q5 -3 8 -9q4 -10 4 -17q2 -7 2 -25q0 -9 -1 -14q0 -1 -0.5 -3.5t-1 -4.5t-1.5 -4
q0 -4 -4 -10t-8 -10q-3 -3 -31 -18q-25 -12 -68 -24q-33 -10 -97 -23q-54 -10 -120 -10q-102 0 -186 31q-83 34 -136 94q-53 57 -84 152q-28 95 -28 211q0 115 30 206q28 90 84 155q56 63 132 96q77 34 173 34q103 0 174 -34q72 -34 119 -92q46 -58 68 -133q21 -76 21 -160
v-24zM782 554q3 144 -66 225t-201 81q-70 0 -119 -26q-50 -23 -88 -67q-34 -41 -54 -97q-19 -55 -22 -116h550zM655 1368q0 10 9 18q9 6 37 6q18 0 24 -2q7 0 13 -4q5 -3 7 -8q0 -1 0.5 -4.5t0.5 -5.5q0 -70 -16 -118q-17 -52 -47 -83q-31 -34 -75 -49q-42 -17 -102 -17
q-62 0 -107 18q-46 18 -74 51q-31 36 -44 83q-14 51 -14 112q0 14 10 21q9 6 35 6q17 0 23 -2q8 0 14 -4t7 -8q2 -4 2 -10q1 -38 11 -71q11 -32 28 -55q19 -23 45 -34q27 -12 64 -12q33 0 57 10q27 10 46 30q20 20 32 52q13 34 14 80zM119 946z" />
    <glyph glyph-name="Edotaccent" unicode="&#x116;" horiz-adv-x="1001" 
d="M883 54q0 -9 -2 -23q-1 -10 -7 -17q-2 -6 -10 -10q-5 -4 -13 -4h-606q-19 0 -37 14q-19 12 -19 49v1168q0 37 19 49q18 14 37 14h597q8 0 13 -4q6 -3 10 -10q5 -8 6 -18q2 -12 2 -24q0 -9 -2 -23q-1 -9 -6 -17q-4 -6 -10 -10q-6 -3 -13 -3h-531v-455h458q9 0 14 -4
q6 -3 10 -10q4 -6 6 -16q2 -16 2 -25t-2 -23q-1 -9 -6 -15t-10 -9q-6 -3 -14 -3h-458v-516h540q7 0 13 -3q8 -6 10 -10q6 -7 7 -18q2 -12 2 -24zM615 1526q0 -47 -17 -64q-18 -18 -62 -18q-43 0 -60 17t-17 64q0 46 17 65q19 17 62 17t60 -17t17 -64zM311 1294z" />
    <glyph glyph-name="edotaccent" unicode="&#x117;" horiz-adv-x="1012" 
d="M905 519q0 -37 -19 -49q-18 -14 -37 -14h-617q0 -80 16 -152q18 -69 55 -116q37 -50 99 -75q63 -26 150 -26q61 0 113 11q36 8 87 24q8 4 21.5 9t22.5 9t16 7q24 11 33 11q7 0 11 -3q5 -3 8 -9q4 -10 4 -17q2 -7 2 -25q0 -9 -1 -14q0 -1 -0.5 -3.5t-1 -4.5t-1.5 -4
q0 -4 -4 -10t-8 -10q-3 -3 -31 -18q-25 -12 -68 -24q-33 -10 -97 -23q-54 -10 -120 -10q-102 0 -186 31q-83 34 -136 94q-53 57 -84 152q-28 95 -28 211q0 115 30 206q28 90 84 155q56 63 132 96q77 34 173 34q103 0 174 -34q72 -34 119 -92q46 -58 68 -133q21 -76 21 -160
v-24zM782 554q3 144 -66 225t-201 81q-70 0 -119 -26q-50 -23 -88 -67q-34 -41 -54 -97q-19 -55 -22 -116h550zM599 1230q0 -48 -18 -64q-17 -18 -61 -18q-43 0 -60 17t-17 64t18 65q17 17 61 17q43 0 60 -17t17 -64z" />
    <glyph glyph-name="Eogonek" unicode="&#x118;" horiz-adv-x="1001" 
d="M927 -308q0 -4 -0.5 -10t-0.5 -8q-4 -11 -5 -12q-3 -5 -9 -8q-22 -6 -25 -6q-10 -3 -49 -9q-28 -4 -69 -4q-43 0 -77 9q-35 11 -56 28q-24 18 -36 44q-12 27 -12 62q0 34 15 70q14 36 59 82l70 70h-487q-19 0 -37 14q-19 12 -19 49v1168q0 37 19 49q18 14 37 14h597
q8 0 13 -4q6 -3 10 -10q5 -8 6 -18q2 -12 2 -24q0 -9 -2 -23q-1 -9 -6 -17q-4 -6 -10 -10q-6 -3 -13 -3h-531v-455h458q8 0 14 -3q5 -3 10 -9t6 -16q2 -12 2 -23q0 -10 -2 -24q-1 -9 -6 -17q-4 -6 -10 -10q-6 -3 -14 -3h-458v-516h540q15 0 23 -13q9 -15 9 -42q0 -12 -1 -18
q-2 -10 -2 -15q-2 -5 -4 -13q-4 -6 -6 -8l-127 -126q-22 -25 -31 -44q-9 -18 -9 -38q0 -28 19 -44q21 -15 60 -15h121q2 0 5.5 -0.5t5.5 -0.5q1 -1 3.5 -3t3.5 -3q1 -2 2.5 -6.5t2.5 -6.5q0 -2 0.5 -9t0.5 -12z" />
    <glyph glyph-name="eogonek" unicode="&#x119;" horiz-adv-x="1012" 
d="M905 519q0 -37 -19 -49q-18 -14 -37 -14h-617q0 -80 16 -152q18 -69 55 -116q37 -50 99 -75q63 -26 150 -26q61 0 113 11q36 8 87 24q8 4 21.5 9t22.5 9t16 7q24 11 33 11q7 0 11 -3q5 -3 8 -9q4 -10 4 -17q2 -7 2 -25v-24q-1 -11 -3 -19q-1 -7 -5 -14q-3 -6 -9 -12
l-156 -157q-29 -29 -36 -49q-8 -22 -8 -35q0 -31 18 -46t61 -15h121q13 0 19 -7q5 -7 5 -28q0 -5 -0.5 -12t-0.5 -10q-1 -2 -2.5 -7t-2.5 -7q-3 -5 -9 -8l-6 -2q-5 -1 -9 -2q-33 -8 -62 -12q-31 -3 -66 -3q-87 0 -133 37q-48 36 -48 107q0 21 4 37q3 16 12 36q12 22 26 40
q22 28 41 47l59 59q-21 -6 -63 -11q-31 -4 -79 -4q-102 0 -186 31q-83 34 -136 94q-53 57 -84 152q-28 95 -28 211q0 115 30 206q28 90 84 155q56 63 132 96q77 34 173 34q103 0 174 -34q72 -34 119 -92q46 -58 68 -133q21 -76 21 -160v-24zM782 554q3 144 -66 225t-201 81
q-70 0 -119 -26q-50 -23 -88 -67q-34 -41 -54 -97q-19 -55 -22 -116h550z" />
    <glyph glyph-name="Ecaron" unicode="&#x11a;" horiz-adv-x="1001" 
d="M883 54q0 -9 -2 -23q-1 -10 -7 -17q-2 -6 -10 -10q-5 -4 -13 -4h-606q-19 0 -37 14q-19 12 -19 49v1168q0 37 19 49q18 14 37 14h597q8 0 13 -4q6 -3 10 -10q5 -8 6 -18q2 -12 2 -24q0 -9 -2 -23q-1 -9 -6 -17q-4 -6 -10 -10q-6 -3 -13 -3h-531v-455h458q9 0 14 -4
q6 -3 10 -10q4 -6 6 -16q2 -16 2 -25t-2 -23q-1 -9 -6 -15t-10 -9q-6 -3 -14 -3h-458v-516h540q7 0 13 -3q8 -6 10 -10q6 -7 7 -18q2 -12 2 -24zM523 1400q-18 0 -25 1q-3 0 -6 0.5t-6.5 1.5t-5.5 1q-10 5 -12 8q-4 2 -12 10l-224 234q-6 6 -8 14q-1 7 4 11q3 4 14 6
q14 2 25 2q8 0 20.5 -0.5t16.5 -0.5q5 -1 13 -2.5t9 -1.5q10 -2 14 -6l10 -8l173 -191l180 186q7 7 15 12q10 6 18 7q9 2 24 4q8 1 33 1q19 0 30 -3q11 -2 15 -6q3 -4 0 -10q-1 -6 -9 -14l-239 -234q-8 -8 -12 -10q-3 -3 -14 -8l-18 -3q-6 -1 -23 -1zM76 1294z" />
    <glyph glyph-name="ecaron" unicode="&#x11b;" horiz-adv-x="1012" 
d="M905 519q0 -37 -19 -49q-18 -14 -37 -14h-617q0 -80 16 -152q18 -69 55 -116q37 -50 99 -75q63 -26 150 -26q61 0 113 11q36 8 87 24q8 4 21.5 9t22.5 9t16 7q24 11 33 11q7 0 11 -3q5 -3 8 -9q4 -10 4 -17q2 -7 2 -25q0 -9 -1 -14q0 -1 -0.5 -3.5t-1 -4.5t-1.5 -4
q0 -4 -4 -10t-8 -10q-3 -3 -31 -18q-25 -12 -68 -24q-33 -10 -97 -23q-54 -10 -120 -10q-102 0 -186 31q-83 34 -136 94q-53 57 -84 152q-28 95 -28 211q0 115 30 206q28 90 84 155q56 63 132 96q77 34 173 34q103 0 174 -34q72 -34 119 -92q46 -58 68 -133q21 -76 21 -160
v-24zM782 554q3 144 -66 225t-201 81q-70 0 -119 -26q-50 -23 -88 -67q-34 -41 -54 -97q-19 -55 -22 -116h550zM658 1374q4 5 11 12q5 5 12 8q10 4 16 4q6 2 22 2q19 0 30 -3t16 -9q3 -6 0 -16q-6 -11 -14 -22l-169 -232q-1 -2 -11 -12q-7 -5 -13 -6q-5 -1 -19 -3
q-8 -1 -29 -1q-18 0 -25 1q-3 0 -6 0.5t-6.5 1.5t-5.5 1q-10 5 -12 8q-5 3 -10 10l-169 232q-8 11 -13 22q-3 9 0 16q4 6 14 9q12 3 31 3q18 0 24 -2q7 0 15 -4q3 -1 12 -8q1 -2 4.5 -6t5.5 -6l144 -199z" />
    <glyph glyph-name="Gcircumflex" unicode="&#x11c;" horiz-adv-x="1285" 
d="M1125 1131q0 -10 -2 -24q-1 -7 -5 -19q-6 -8 -10 -11q-4 -4 -11 -4q-11 0 -39 20q-36 25 -74 43q-49 26 -112 44q-66 20 -155 20q-115 0 -205 -42q-91 -44 -152 -117q-63 -75 -94 -175q-33 -102 -33 -219q0 -132 37 -233t102 -174q67 -70 156 -107q90 -37 198 -37
q67 0 140 17q69 16 133 52v419h-330q-16 0 -24 14t-8 40q0 12 2 24q1 10 6 18q4 6 10 10q6 3 14 3h396q9 0 19 -3q11 -3 18 -10q10 -8 14 -20q5 -13 5 -30v-481q0 -22 -7 -41q-10 -18 -35 -32q-25 -15 -72 -34q-38 -17 -93 -32q-48 -12 -96 -18q-46 -7 -96 -7
q-147 0 -262 47q-113 46 -196 134q-79 89 -121 206q-42 120 -42 264q0 150 45 276q46 123 128 212q84 89 198 136q114 49 254 49q73 0 132 -13q70 -15 113 -32q53 -19 85 -40q36 -22 48 -34q13 -13 16 -24q5 -10 5 -35zM693 1689q18 0 25 -1q11 -2 18 -4q10 -5 12 -7
q8 -6 12 -10l224 -234q6 -6 8 -15q1 -6 -4 -10q-3 -4 -14 -6q-14 -2 -25 -2q-28 0 -37 2q-7 0 -22 3q-9 1 -14 5q-2 2 -5.5 4t-4.5 4l-173 191l-179 -185q-10 -10 -16 -12q-5 -5 -18 -8q-9 -2 -24 -3q-8 -1 -33 -1q-17 0 -29 2q-11 3 -15 7t-2 10q1 5 10 14l240 234
q4 4 12 10q2 2 13 7q8 2 18 4q6 1 23 1zM228 1294z" />
    <glyph glyph-name="gcircumflex" unicode="&#x11d;" horiz-adv-x="960" 
d="M892 895q0 -29 -9 -39q-9 -11 -23 -11h-143q40 -42 59 -93q16 -54 16 -107q0 -77 -24 -137q-26 -61 -70 -102q-45 -40 -107 -63q-60 -22 -137 -22q-59 0 -116 17q-54 16 -86 42q-18 -18 -33 -46q-13 -25 -13 -60q0 -39 36 -64q39 -27 95 -28l245 -10q60 -1 116 -17
q56 -15 96 -45q41 -29 65 -72q24 -44 24 -101q0 -61 -25 -115q-24 -56 -76 -96q-51 -42 -131 -66q-78 -25 -191 -25q-108 0 -180 19q-75 18 -122 50t-70 77q-21 43 -21 95q0 32 8 66q7 31 25 59q14 26 40 54q29 29 57 53q-51 26 -75 63q-24 38 -24 79q0 62 24 110
q26 50 58 85q-28 37 -45 83q-16 44 -16 108q0 77 25 136q25 61 70 103q41 40 106 65q64 22 136 22q26 0 74 -4q56 -10 63 -12h267q18 0 24 -13q8 -12 8 -38zM669 643q0 103 -57 161q-55 58 -160 58q-52 0 -93 -18t-66 -49t-39 -72q-13 -39 -13 -87q0 -100 57 -158
q56 -57 158 -57q55 0 94 18q42 18 67 49q25 29 39 70q13 40 13 85zM764 -70q0 67 -54 101q-53 35 -143 38l-263 9q-41 -32 -59 -53q-22 -25 -37 -49q-14 -27 -18 -46q-5 -23 -5 -45q0 -75 75 -112q74 -38 207 -38q87 0 141 17q55 15 91 43q35 27 50 62t15 73zM336 1122
q-8 -10 -11 -13q-5 -5 -12 -8q-6 -2 -16 -4q-6 -1 -22 -1q-21 0 -31 3q-11 3 -14 9q-4 6 0 16q3 9 13 22l169 232q1 2 10 11q4 3 14 7q7 1 20 3q7 1 28 1q18 0 25 -1q13 -2 17 -4q9 -3 13 -7l10 -10l169 -232q9 -14 12 -22q4 -10 0 -16q-3 -6 -14 -9q-10 -3 -30 -3
q-18 0 -24 1q-10 2 -16 4q-7 3 -10 8q-2 1 -11 13l-145 198zM80 946z" />
    <glyph glyph-name="Gbreve" unicode="&#x11e;" horiz-adv-x="1285" 
d="M1125 1131q0 -10 -2 -24q-1 -7 -5 -19q-6 -8 -10 -11q-4 -4 -11 -4q-11 0 -39 20q-36 25 -74 43q-49 26 -112 44q-66 20 -155 20q-115 0 -205 -42q-91 -44 -152 -117q-63 -75 -94 -175q-33 -102 -33 -219q0 -132 37 -233t102 -174q67 -70 156 -107q90 -37 198 -37
q67 0 140 17q69 16 133 52v419h-330q-16 0 -24 14t-8 40q0 12 2 24q1 10 6 18q4 6 10 10q6 3 14 3h396q9 0 19 -3q11 -3 18 -10q10 -8 14 -20q5 -13 5 -30v-481q0 -22 -7 -41q-10 -18 -35 -32q-25 -15 -72 -34q-38 -17 -93 -32q-48 -12 -96 -18q-46 -7 -96 -7
q-147 0 -262 47q-113 46 -196 134q-79 89 -121 206q-42 120 -42 264q0 150 45 276q46 123 128 212q84 89 198 136q114 49 254 49q73 0 132 -13q70 -15 113 -32q53 -19 85 -40q36 -22 48 -34q13 -13 16 -24q5 -10 5 -35zM922 1665q0 -58 -16 -111q-17 -47 -48 -84
q-35 -35 -77 -52q-45 -18 -100 -18q-61 0 -107 20q-45 21 -74 56q-30 38 -43 84q-14 51 -14 105q0 13 9 19q8 5 36 5t40 -3t12 -18q0 -12 8 -52q9 -38 27 -64q19 -26 45 -38q24 -14 64 -14q56 0 88 28q33 28 42 65q11 34 11 61q0 23 8 29q7 6 44 6q27 0 37 -5q8 -6 8 -19z
M295 1294z" />
    <glyph glyph-name="gbreve" unicode="&#x11f;" horiz-adv-x="960" 
d="M892 895q0 -29 -9 -39q-9 -11 -23 -11h-143q40 -42 59 -93q16 -54 16 -107q0 -77 -24 -137q-26 -61 -70 -102q-45 -40 -107 -63q-60 -22 -137 -22q-59 0 -116 17q-54 16 -86 42q-18 -18 -33 -46q-13 -25 -13 -60q0 -39 36 -64q39 -27 95 -28l245 -10q60 -1 116 -17
q56 -15 96 -45q41 -29 65 -72q24 -44 24 -101q0 -61 -25 -115q-24 -56 -76 -96q-51 -42 -131 -66q-78 -25 -191 -25q-108 0 -180 19q-75 18 -122 50t-70 77q-21 43 -21 95q0 32 8 66q7 31 25 59q14 26 40 54q29 29 57 53q-51 26 -75 63q-24 38 -24 79q0 62 24 110
q26 50 58 85q-28 37 -45 83q-16 44 -16 108q0 77 25 136q25 61 70 103q41 40 106 65q64 22 136 22q26 0 74 -4q56 -10 63 -12h267q18 0 24 -13q8 -12 8 -38zM669 643q0 103 -57 161q-55 58 -160 58q-52 0 -93 -18t-66 -49t-39 -72q-13 -39 -13 -87q0 -100 57 -158
q56 -57 158 -57q55 0 94 18q42 18 67 49q25 29 39 70q13 40 13 85zM764 -70q0 67 -54 101q-53 35 -143 38l-263 9q-41 -32 -59 -53q-22 -25 -37 -49q-14 -27 -18 -46q-5 -23 -5 -45q0 -75 75 -112q74 -38 207 -38q87 0 141 17q55 15 91 43q35 27 50 62t15 73zM629 1368
q0 10 9 18q9 6 37 6q18 0 24 -2q7 0 13 -4q4 -3 7 -8q0 -1 0.5 -4.5t0.5 -5.5q0 -70 -16 -118q-17 -52 -47 -83q-31 -34 -75 -49q-43 -17 -102 -17q-62 0 -107 18q-46 18 -74 51q-31 36 -44 83q-14 51 -14 112q0 14 10 21q9 6 35 6q17 0 23 -2q8 0 14 -4t7 -8q2 -4 2 -10
q1 -38 11 -71q11 -32 28 -55q19 -23 45 -34q27 -12 64 -12q33 0 57 10q27 10 46 30q20 20 32 52q13 34 14 80zM93 946z" />
    <glyph glyph-name="Gdotaccent" unicode="&#x120;" horiz-adv-x="1285" 
d="M1125 1131q0 -10 -2 -24q-1 -7 -5 -19q-6 -8 -10 -11q-4 -4 -11 -4q-11 0 -39 20q-36 25 -74 43q-49 26 -112 44q-66 20 -155 20q-115 0 -205 -42q-91 -44 -152 -117q-63 -75 -94 -175q-33 -102 -33 -219q0 -132 37 -233t102 -174q67 -70 156 -107q90 -37 198 -37
q67 0 140 17q69 16 133 52v419h-330q-16 0 -24 14t-8 40q0 12 2 24q1 10 6 18q4 6 10 10q6 3 14 3h396q9 0 19 -3q11 -3 18 -10q10 -8 14 -20q5 -13 5 -30v-481q0 -22 -7 -41q-10 -18 -35 -32q-25 -15 -72 -34q-38 -17 -93 -32q-48 -12 -96 -18q-46 -7 -96 -7
q-147 0 -262 47q-113 46 -196 134q-79 89 -121 206q-42 120 -42 264q0 150 45 276q46 123 128 212q84 89 198 136q114 49 254 49q73 0 132 -13q70 -15 113 -32q53 -19 85 -40q36 -22 48 -34q13 -13 16 -24q5 -10 5 -35zM792 1526q0 -48 -18 -64q-16 -18 -61 -18
q-43 0 -60 17t-17 64t18 65q17 17 61 17q43 0 60 -17t17 -64zM488 1294z" />
    <glyph glyph-name="gdotaccent" unicode="&#x121;" horiz-adv-x="960" 
d="M892 895q0 -29 -9 -39q-9 -11 -23 -11h-143q40 -42 59 -93q16 -54 16 -107q0 -77 -24 -137q-26 -61 -70 -102q-45 -40 -107 -63q-60 -22 -137 -22q-59 0 -116 17q-54 16 -86 42q-18 -18 -33 -46q-13 -25 -13 -60q0 -39 36 -64q39 -27 95 -28l245 -10q60 -1 116 -17
q56 -15 96 -45q41 -29 65 -72q24 -44 24 -101q0 -61 -25 -115q-24 -56 -76 -96q-51 -42 -131 -66q-78 -25 -191 -25q-108 0 -180 19q-75 18 -122 50t-70 77q-21 43 -21 95q0 32 8 66q7 31 25 59q14 26 40 54q29 29 57 53q-51 26 -75 63q-24 38 -24 79q0 62 24 110
q26 50 58 85q-28 37 -45 83q-16 44 -16 108q0 77 25 136q25 61 70 103q41 40 106 65q64 22 136 22q26 0 74 -4q56 -10 63 -12h267q18 0 24 -13q8 -12 8 -38zM669 643q0 103 -57 161q-55 58 -160 58q-52 0 -93 -18t-66 -49t-39 -72q-13 -39 -13 -87q0 -100 57 -158
q56 -57 158 -57q55 0 94 18q42 18 67 49q25 29 39 70q13 40 13 85zM764 -70q0 67 -54 101q-53 35 -143 38l-263 9q-41 -32 -59 -53q-22 -25 -37 -49q-14 -27 -18 -46q-5 -23 -5 -45q0 -75 75 -112q74 -38 207 -38q87 0 141 17q55 15 91 43q35 27 50 62t15 73zM562 1230
q0 -48 -18 -64q-16 -18 -61 -18q-43 0 -60 17t-17 64t18 65q17 17 61 17q43 0 60 -17t17 -64z" />
    <glyph glyph-name="Gcommaaccent" unicode="&#x122;" horiz-adv-x="1285" 
d="M1125 1131q0 -10 -2 -24q-1 -7 -5 -19q-6 -8 -10 -11q-4 -4 -11 -4q-11 0 -39 20q-36 25 -74 43q-49 26 -112 44q-66 20 -155 20q-115 0 -205 -42q-91 -44 -152 -117q-63 -75 -94 -175q-33 -102 -33 -219q0 -132 37 -233t102 -174q67 -70 156 -107q90 -37 198 -37
q67 0 140 17q69 16 133 52v419h-330q-16 0 -24 14t-8 40q0 12 2 24q1 10 6 18q4 6 10 10q6 3 14 3h396q9 0 19 -3q11 -3 18 -10q10 -8 14 -20q5 -13 5 -30v-481q0 -22 -7 -41q-10 -18 -35 -32q-25 -15 -72 -34q-38 -17 -93 -32q-48 -12 -96 -18q-46 -7 -96 -7
q-147 0 -262 47q-113 46 -196 134q-79 89 -121 206q-42 120 -42 264q0 150 45 276q46 123 128 212q84 89 198 136q114 49 254 49q73 0 132 -13q70 -15 113 -32q53 -19 85 -40q36 -22 48 -34q13 -13 16 -24q5 -10 5 -35zM623 -132q7 21 22 28q15 6 54 6q37 0 45 -12
q6 -12 -2 -29l-95 -197q-9 -20 -23 -24q-13 -5 -43 -5q-27 0 -31 9q-5 8 3 28z" />
    <glyph glyph-name="gcommaaccent" unicode="&#x123;" horiz-adv-x="960" 
d="M892 895q0 -29 -9 -39q-9 -11 -23 -11h-143q40 -42 59 -93q16 -54 16 -107q0 -77 -24 -137q-26 -61 -70 -102q-45 -40 -107 -63q-60 -22 -137 -22q-59 0 -116 17q-54 16 -86 42q-18 -18 -33 -46q-13 -25 -13 -60q0 -39 36 -64q39 -27 95 -28l245 -10q60 -1 116 -17
q56 -15 96 -45q41 -29 65 -72q24 -44 24 -101q0 -61 -25 -115q-24 -56 -76 -96q-51 -42 -131 -66q-78 -25 -191 -25q-108 0 -180 19q-75 18 -122 50t-70 77q-21 43 -21 95q0 32 8 66q7 31 25 59q14 26 40 54q29 29 57 53q-51 26 -75 63q-24 38 -24 79q0 62 24 110
q26 50 58 85q-28 37 -45 83q-16 44 -16 108q0 77 25 136q25 61 70 103q41 40 106 65q64 22 136 22q26 0 74 -4q56 -10 63 -12h267q18 0 24 -13q8 -12 8 -38zM669 643q0 103 -57 161q-55 58 -160 58q-52 0 -93 -18t-66 -49t-39 -72q-13 -39 -13 -87q0 -100 57 -158
q56 -57 158 -57q55 0 94 18q42 18 67 49q25 29 39 70q13 40 13 85zM764 -70q0 67 -54 101q-53 35 -143 38l-263 9q-41 -32 -59 -53q-22 -25 -37 -49q-14 -27 -18 -46q-5 -23 -5 -45q0 -75 75 -112q74 -38 207 -38q87 0 141 17q55 15 91 43q35 27 50 62t15 73zM532 1099
q-9 -21 -24 -27q-16 -6 -53 -6q-41 0 -48 10t3 31l119 223q9 17 21 23q14 6 47 6q31 0 37 -9q3 -9 -4 -28z" />
    <glyph glyph-name="Hcircumflex" unicode="&#x124;" horiz-adv-x="1268" 
d="M1079 20q0 -6 -3 -11q-4 -5 -10 -8q-10 -4 -19 -5q-16 -2 -29 -2q-14 0 -30 2q-9 1 -18 5q-6 3 -10 8q-3 5 -3 11v603h-646v-603q0 -6 -3 -11q-4 -5 -10 -8q-9 -4 -18 -5q-16 -2 -30 -2q-13 0 -29 2q-9 1 -19 5q-6 3 -10 8q-3 5 -3 11v1254q0 6 3 11q4 5 10 8q10 4 19 5
q16 2 29 2q14 0 30 -2q9 -1 18 -5q6 -3 10 -8q3 -4 3 -11v-542h646v542q0 6 3 11q4 5 10 8q9 4 18 5q16 2 30 2q13 0 29 -2q9 -1 19 -5q6 -3 10 -8q3 -4 3 -11v-1254zM641 1689q18 0 25 -1q11 -2 18 -4q10 -5 12 -7q8 -6 12 -10l224 -234q6 -6 8 -15q1 -6 -4 -10
q-3 -4 -14 -6q-14 -2 -25 -2q-28 0 -37 2q-7 0 -22 3q-9 1 -14 5q-1 2 -4.5 4t-5.5 4l-173 191l-179 -185q-10 -10 -16 -12q-5 -5 -18 -8q-9 -2 -24 -3q-8 -1 -33 -1q-17 0 -29 2q-11 3 -15 7t-2 10q1 5 10 14l240 234q4 4 12 10q2 2 13 7q7 2 18 4q6 1 23 1zM176 1294z" />
    <glyph glyph-name="hcircumflex" unicode="&#x125;" horiz-adv-x="1064" 
d="M901 20q0 -6 -3 -11q-4 -5 -10 -8q-7 -4 -18 -5q-14 -2 -28 -2t-30 2q-9 1 -18 5q-6 3 -9 8t-3 11v537q0 85 -13 137q-13 51 -39 90q-26 36 -66 58q-43 20 -95 20q-70 0 -138 -49t-145 -144v-649q0 -6 -3 -11t-9 -8q-9 -4 -18 -5q-16 -2 -30 -2t-28 2q-9 1 -19 5
q-7 3 -9 8q-3 5 -3 11v1251q0 7 3 11q2 5 9 8q4 2 19 6q3 0 12.5 0.5t15.5 0.5t16 -0.5t14 -0.5q15 -4 18 -6q6 -3 9 -8q3 -4 3 -11v-468q72 81 148 121q74 38 148 38q88 0 150 -30t98 -81q39 -51 54 -119q17 -64 17 -164v-548zM243 1689q18 0 25 -1q10 -2 18 -4
q10 -5 12 -7q8 -6 12 -10l224 -234q6 -6 8 -15q1 -6 -4 -10q-3 -4 -14 -6q-14 -2 -25 -2q-28 0 -37 2q-7 0 -22 3q-9 1 -14 5q-2 2 -5 4t-5 4l-173 191l-179 -185q-10 -10 -16 -12q-5 -5 -18 -8q-9 -2 -24 -3q-8 -1 -33 -1q-17 0 -29 2q-11 3 -15 7t-2 10q1 5 10 14l240 234
q4 4 12 10q2 2 13 7q8 2 18 4q6 1 23 1z" />
    <glyph glyph-name="Hbar" unicode="&#x126;" horiz-adv-x="1342" 
d="M348 921v-218h646v218h-646zM1116 1027h154q7 0 13 -3q5 -2 11 -10q6 -14 6 -17q2 -14 2 -24q0 -9 -2 -23q-1 -6 -6 -16q-6 -8 -11 -10q-6 -3 -13 -3h-154v-901q0 -6 -3 -11q-4 -5 -10 -8q-10 -4 -19 -5q-16 -2 -29 -2t-29 2q-9 1 -19 5q-6 3 -10 8q-3 5 -3 11v575h-646
v-575q0 -6 -3 -11q-4 -6 -11 -8q-7 -3 -18 -5q-14 -2 -29 -2q-13 0 -29 2q-9 1 -19 5q-6 3 -10 8q-3 5 -3 11v901h-154q-8 0 -14 3q-5 3 -9 10q-5 8 -6 17q-2 14 -2 24q0 9 2 23q1 10 6 16q4 7 9 10q6 3 14 3h154v247q0 6 3 11q4 5 10 8q10 4 19 5q16 2 29 2q15 0 29 -2
q11 -2 18 -5q7 -2 11 -8q3 -4 3 -11v-247h646v247q0 6 3 11q4 5 10 8q10 4 19 5q16 2 29 2t29 -2q9 -1 19 -5q6 -3 10 -8q3 -4 3 -11v-247z" />
    <glyph glyph-name="hbar" unicode="&#x127;" horiz-adv-x="1075" 
d="M912 20q0 -6 -3 -11t-9 -8q-9 -4 -18 -5q-16 -2 -29 -2q-16 0 -30 2q-9 1 -18 5q-7 3 -9 8q-3 5 -3 11v529q0 86 -13 137q-12 54 -38 90q-27 39 -68 58q-39 21 -94 21q-70 0 -138 -49q-70 -51 -145 -144v-642q0 -6 -3 -11q-4 -5 -10 -8q-7 -4 -18 -5q-14 -2 -29 -2
q-13 0 -29 2q-9 1 -18 5q-6 3 -10 8q-2 6 -2 11v1100h-154q-8 0 -12 3q-5 3 -10 9q-5 8 -6 16q-2 14 -2 22t2 22q1 8 6 16q5 6 10 9q4 3 12 3h154v148q0 5 2 11q3 5 10 9q10 4 18 4q8 2 29 2q22 0 29 -2q10 0 18 -4q7 -4 10 -9t3 -11v-148h261q8 0 12 -3q5 -3 10 -9
q5 -8 6 -16q2 -14 2 -22t-2 -22q-1 -8 -6 -16q-5 -6 -10 -9q-4 -3 -12 -3h-261v-325q74 83 151 123q74 37 145 37q89 0 150 -30q59 -29 99 -81q36 -52 54 -120q16 -72 16 -164v-540z" />
    <glyph glyph-name="Itilde" unicode="&#x128;" horiz-adv-x="500" 
d="M311 20q0 -6 -3 -11q-4 -5 -10 -8q-9 -4 -18 -5q-16 -2 -30 -2q-13 0 -29 2q-9 1 -19 5q-6 3 -10 8q-3 5 -3 11v1254q0 6 3 11q6 6 12 8q7 3 18 5q16 2 28 2q14 0 30 -2q9 -1 18 -5q6 -3 10 -8q3 -4 3 -11v-1254zM481 1602q0 10 13 16q16 4 39 4q31 0 39 -8q9 -8 9 -33
q0 -83 -49 -131q-47 -50 -136 -50q-52 0 -90 19q-40 21 -71 42q-33 23 -63 42q-29 19 -64 19q-47 0 -65 -28t-18 -74q0 -6 -4 -10t-11 -6t-18 -4h-19q-32 0 -40 8q-8 10 -8 33q0 39 13 76q16 36 38 57q26 23 59 36q35 12 75 12q52 0 90 -19q41 -21 70 -42q33 -23 63 -42
q29 -19 64 -19q39 0 61 22q23 23 23 80zM-220 1294z" />
    <glyph glyph-name="itilde" unicode="&#x129;" horiz-adv-x="452" 
d="M286 20q0 -6 -3 -11t-9 -8q-9 -4 -18 -5q-16 -2 -30 -2t-28 2q-9 1 -19 5q-7 3 -9 8q-3 5 -3 11v905q0 7 3 11q2 5 9 8q4 2 19 6q3 0 12.5 0.5t15.5 0.5t16 -0.5t14 -0.5q15 -4 18 -6q6 -3 9 -8q3 -4 3 -11v-905zM550 1302q0 -99 -50 -150q-48 -51 -130 -51q-39 0 -64 11
q-27 8 -53 26q-27 19 -45 34l-40 35q-10 9 -40 27q-22 10 -43 10q-44 0 -61 -32q-17 -34 -17 -85q0 -3 -0.5 -7t-0.5 -5q-4 -6 -8 -8q-2 -2 -16 -5q-2 0 -11.5 -0.5t-15.5 -0.5q-10 0 -22 2q-10 2 -14 7q-5 4 -7 12q-3 9 -3 22q0 91 47 145q45 55 132 55q53 0 92 -22
q46 -28 70 -50q9 -7 29.5 -23.5t31.5 -24.5q27 -23 63 -23q40 0 58 29q20 27 20 88q0 14 8 20q9 6 38 6q31 0 42 -8q10 -7 10 -34z" />
    <glyph glyph-name="Imacron" unicode="&#x12a;" horiz-adv-x="500" 
d="M311 20q0 -6 -3 -11q-4 -5 -10 -8q-9 -4 -18 -5q-16 -2 -30 -2q-13 0 -29 2q-9 1 -19 5q-6 3 -10 8q-3 5 -3 11v1254q0 6 3 11q6 6 12 8q7 3 18 5q16 2 28 2q14 0 30 -2q9 -1 18 -5q6 -3 10 -8q3 -4 3 -11v-1254zM513 1576q7 0 11 -4q5 -4 8 -10q2 -3 6 -16
q0 -3 0.5 -10.5t0.5 -11.5t-0.5 -11.5t-0.5 -10.5q-4 -14 -6 -16q-3 -6 -8 -10q-4 -4 -11 -4h-521q-8 0 -12 4q-5 4 -8 10q-5 8 -6 16q-2 14 -2 22t2 22q1 10 6 16q3 6 8 10q4 4 12 4h521zM-184 1294z" />
    <glyph glyph-name="imacron" unicode="&#x12b;" horiz-adv-x="452" 
d="M286 20q0 -6 -3 -11t-9 -8q-9 -4 -18 -5q-16 -2 -30 -2t-28 2q-9 1 -19 5q-7 3 -9 8q-3 5 -3 11v905q0 7 3 11q2 5 9 8q4 2 19 6q3 0 12.5 0.5t15.5 0.5t16 -0.5t14 -0.5q15 -4 18 -6q6 -3 9 -8q3 -4 3 -11v-905zM459 1277q7 0 11 -3q5 -4 8 -9q4 -7 5 -15q2 -14 2 -23
t-2 -21q-1 -6 -5 -16q-2 -4 -8 -10q-4 -3 -11 -3h-462q-7 0 -12 3q-6 6 -9 10q-4 10 -5 16q-2 12 -2 21t2 23q1 8 5 15q4 6 9 9t12 3h462zM-179 946z" />
    <glyph glyph-name="Ibreve" unicode="&#x12c;" horiz-adv-x="500" 
d="M311 20q0 -6 -3 -11q-4 -5 -10 -8q-9 -4 -18 -5q-16 -2 -30 -2q-13 0 -29 2q-9 1 -19 5q-6 3 -10 8q-3 5 -3 11v1254q0 6 3 11q6 6 12 8q7 3 18 5q16 2 28 2q14 0 30 -2q9 -1 18 -5q6 -3 10 -8q3 -4 3 -11v-1254zM491 1665q0 -64 -17 -111q-14 -47 -48 -84
q-31 -34 -76 -52t-100 -18q-61 0 -107 20q-45 21 -74 56q-30 38 -43 84q-14 51 -14 105q0 13 8 19q10 5 37 5q28 0 40 -3t12 -18q0 -14 9 -52q7 -37 26 -64q18 -26 44 -38q25 -14 65 -14q56 0 87 28q31 26 44 65q10 42 10 61q0 23 8 29q7 6 44 6q28 0 36 -5q9 -6 9 -19z
M-136 1294z" />
    <glyph glyph-name="ibreve" unicode="&#x12d;" horiz-adv-x="452" 
d="M286 20q0 -6 -3 -11t-9 -8q-9 -4 -18 -5q-16 -2 -30 -2t-28 2q-9 1 -19 5q-7 3 -9 8q-3 5 -3 11v905q0 7 3 11q2 5 9 8q4 2 19 6q3 0 12.5 0.5t15.5 0.5t16 -0.5t14 -0.5q15 -4 18 -6q6 -3 9 -8q3 -4 3 -11v-905zM376 1368q0 10 9 18q9 6 37 6q18 0 24 -2q7 0 13 -4
q5 -3 7 -8q0 -1 0.5 -4.5t0.5 -5.5q0 -70 -16 -118q-17 -52 -47 -83q-31 -34 -75 -49q-43 -17 -102 -17q-62 0 -107 18q-46 18 -74 51q-31 36 -44 83q-14 51 -14 112q0 14 10 21q9 6 35 6q17 0 23 -2q8 0 14 -4t7 -8q2 -4 2 -10q1 -38 11 -71q11 -32 28 -55q19 -23 45 -34
q27 -12 64 -12q33 0 57 10q27 10 46 30q20 20 32 52q13 34 14 80zM-160 946z" />
    <glyph glyph-name="Iogonek" unicode="&#x12e;" horiz-adv-x="500" 
d="M384 -308q0 -13 -2 -18q0 -6 -4 -12q-4 -5 -9 -8q-1 0 -6 -1.5t-9 -2.5q-33 -8 -62 -12q-32 -3 -66 -3q-87 0 -134 37q-48 36 -48 106q0 8 2 30q1 12 10 35q8 20 24 41q15 22 44 51l71 71q-1 1 -5 6q0 1 -0.5 3.5t-0.5 4.5v1254q0 6 3 11q6 6 12 8q7 3 18 5q16 2 28 2
q14 0 30 -2q9 -1 18 -5q6 -3 10 -8q3 -4 3 -11v-1254q0 -20 -5 -30q-2 -12 -15 -25l-81 -82q-34 -33 -42 -53q-9 -21 -9 -38q0 -30 19 -44q21 -15 61 -15h121q11 0 18 -7q6 -9 6 -34z" />
    <glyph glyph-name="iogonek" unicode="&#x12f;" horiz-adv-x="452" 
d="M187 -117q-33 -34 -41 -53q-9 -21 -9 -38q0 -30 19 -44q21 -15 61 -15h120q2 0 6 -0.5t5 -0.5q6 -4 8 -6q4 -8 4 -13q2 -5 2 -21q0 -13 -2 -18q0 -6 -4 -12q-4 -5 -9 -8q-1 0 -6 -1.5t-9 -2.5q-33 -8 -62 -12q-32 -3 -66 -3q-42 0 -77 9q-36 11 -57 28q-22 18 -36 44
q-12 27 -12 62q0 8 2 30q1 12 10 35q8 20 24 41q15 22 44 51l65 65v925q0 7 3 11q2 5 9 8q4 2 19 6q3 0 12.5 0.5t15.5 0.5t16 -0.5t14 -0.5q15 -4 18 -6q6 -3 9 -8q3 -4 3 -11v-905q0 -6 -4 -30q-7 -19 -13 -25zM304 1230q0 -48 -17 -65t-62 -17q-42 0 -61 16
q-16 19 -16 65q0 48 17 65t62 17q44 0 61 -17q16 -16 16 -64z" />
    <glyph glyph-name="Idotaccent" unicode="&#x130;" horiz-adv-x="500" 
d="M311 20q0 -6 -3 -11q-4 -5 -10 -8q-9 -4 -18 -5q-16 -2 -30 -2q-13 0 -29 2q-9 1 -19 5q-6 3 -10 8q-3 5 -3 11v1254q0 6 3 11q6 6 12 8q7 3 18 5q16 2 28 2q14 0 30 -2q9 -1 18 -5q6 -3 10 -8q3 -4 3 -11v-1254zM332 1526q0 -48 -18 -64q-17 -18 -61 -18q-43 0 -60 17
t-17 64t18 65q17 17 61 17q43 0 60 -17t17 -64zM28 1294z" />
    <glyph glyph-name="dotlessi" unicode="&#x131;" horiz-adv-x="452" 
d="M286 20q0 -6 -3 -11t-9 -8q-9 -4 -18 -5q-16 -2 -30 -2t-28 2q-9 1 -19 5q-7 3 -9 8q-3 5 -3 11v905q0 7 3 11q2 5 9 8q4 2 19 6q3 0 12.5 0.5t15.5 0.5t16 -0.5t14 -0.5q15 -4 18 -6q6 -3 9 -8q3 -4 3 -11v-905z" />
    <glyph glyph-name="IJ" unicode="&#x132;" horiz-adv-x="1140" 
d="M311 20q0 -6 -3 -11q-4 -5 -10 -8q-9 -4 -18 -5q-16 -2 -30 -2q-13 0 -29 2q-9 1 -19 5q-6 3 -10 8q-3 5 -3 11v1254q0 6 3 11q6 6 12 8q7 3 18 5q16 2 28 2q14 0 30 -2q9 -1 18 -5q6 -3 10 -8q3 -4 3 -11v-1254zM955 308q0 -74 -13 -132q-12 -60 -43 -103t-82 -67
q-52 -23 -127 -23q-25 0 -53 5q-9 2 -48 12q-15 6 -39 16q-17 11 -22 15q-6 8 -8 11q-3 4 -6 12q-2 10 -3 17t-1 24q0 11 2 25q1 10 6 16q3 5 8 8q6 2 12 2q7 0 21 -8q15 -10 31 -18q21 -11 44 -18q26 -9 58 -9q37 0 64 9q26 9 43 35q18 27 25 71q9 46 9 120v946q0 6 3 11
q4 5 10 8q10 4 19 5q16 2 29 2t29 -2q9 -1 19 -5q6 -3 10 -8q3 -4 3 -11v-966z" />
    <glyph glyph-name="ij" unicode="&#x133;" horiz-adv-x="923" 
d="M286 20q0 -6 -3 -11t-9 -8q-9 -4 -18 -5q-16 -2 -30 -2t-28 2q-9 1 -19 5q-7 3 -9 8q-3 5 -3 11v905q0 7 3 11q2 5 9 8q4 2 19 6q3 0 12.5 0.5t15.5 0.5t16 -0.5t14 -0.5q15 -4 18 -6q6 -3 9 -8q3 -4 3 -11v-905zM304 1230q0 -48 -17 -65t-62 -17q-42 0 -61 16
q-16 19 -16 65q0 48 17 65t62 17q44 0 61 -17q16 -16 16 -64zM756 -26q0 -101 -14 -156q-12 -57 -42 -100q-31 -41 -78 -62t-116 -21q-25 0 -46 3q-27 7 -30 8q-10 4 -16 10q-3 4 -6 12q0 4 -2 12v14q0 16 2 22q0 8 4 16q3 7 8 9q3 3 10 3l24 -2q20 -3 46 -3q36 0 63 11
q23 10 43 36q15 27 24 67q7 47 7 121v951q0 7 3 11q4 5 10 8q3 2 18 6q3 0 12.5 0.5t16.5 0.5q6 0 15.5 -0.5t13.5 -0.5q15 -4 18 -6q6 -3 9 -8q3 -4 3 -11v-951zM775 1230q0 -48 -17 -65t-62 -17q-44 0 -60 16q-17 17 -17 65t17 65t62 17q46 0 60 -17q17 -14 17 -64z" />
    <glyph glyph-name="Jcircumflex" unicode="&#x134;" horiz-adv-x="640" 
d="M454 308q0 -72 -12 -132q-14 -61 -44 -103q-31 -43 -82 -67q-52 -23 -127 -23q-25 0 -53 5q-9 2 -48 12q-30 12 -38 16q-17 9 -22 15q-5 5 -9 11t-5 12q-2 6 -4 17q-1 7 -1 24q0 11 2 25q1 8 5 16q6 6 9 8q6 2 12 2q7 0 21 -8q16 -11 32 -18q19 -11 43 -18q25 -9 58 -9
q37 0 63 9q27 9 44 35t26 71q8 50 8 120v946q0 6 3 11q4 5 10 8q10 4 19 5q16 2 29 2t29 -2q9 -1 19 -5q6 -3 10 -8q3 -4 3 -11v-966zM375 1689q18 0 25 -1q11 -2 18 -4q10 -5 12 -7q8 -6 12 -10l224 -234q6 -6 8 -15q1 -6 -4 -10q-3 -4 -14 -6q-14 -2 -25 -2q-28 0 -37 2
q-7 0 -22 3q-9 1 -14 5q-1 2 -4.5 4t-5.5 4l-173 191l-179 -185q-10 -10 -16 -12q-5 -5 -18 -8q-9 -2 -24 -3q-8 -1 -33 -1q-17 0 -29 2q-11 3 -15 7t-2 10q1 5 10 14l240 234q4 4 12 10q2 2 13 7q8 2 18 4q6 1 23 1zM-90 1294z" />
    <glyph glyph-name="jcircumflex" unicode="&#x135;" horiz-adv-x="471" 
d="M304 -26q0 -101 -14 -156q-12 -57 -42 -100q-31 -41 -78 -62q-46 -21 -116 -21q-25 0 -46 3q-27 7 -30 8q-11 4 -16 10q-3 4 -6 12q0 4 -2 12v14q0 16 2 22q0 8 4 16q3 7 8 9q3 3 10 3q2 0 5 -0.5t9 -1t10 -0.5q19 -3 46 -3q36 0 63 11q23 10 43 36q15 27 24 67
q7 47 7 121v951q0 7 3 11q4 5 10 8q3 2 18 6q3 0 12.5 0.5t16.5 0.5q6 0 15.5 -0.5t13.5 -0.5q15 -4 18 -6q6 -3 9 -8q3 -4 3 -11v-951zM94 1122q-8 -10 -11 -13q-5 -5 -12 -8q-6 -2 -16 -4q-6 -1 -22 -1q-21 0 -31 3q-11 3 -14 9q-4 6 0 16q3 9 13 22l169 232q1 2 10 11
q4 3 14 7q7 1 20 3q7 1 28 1q18 0 25 -1q13 -2 17 -4q9 -3 13 -7l3 -3t4 -3.5t3 -3.5l169 -232q9 -14 12 -22q4 -10 0 -16q-3 -6 -14 -9q-10 -3 -30 -3q-18 0 -24 1q-10 2 -16 4q-7 3 -10 8q-2 1 -11 13l-145 198zM-162 946z" />
    <glyph glyph-name="Kcommaaccent" unicode="&#x136;" horiz-adv-x="1033" 
d="M977 22q0 -6 -2 -12q-2 -5 -9 -8q-8 -5 -19 -6q-16 -2 -31 -2q-12 0 -36 2q-17 1 -29 8q-9 6 -17 16l-523 664v-664q0 -6 -3 -11q-4 -5 -10 -8q-9 -4 -18 -5q-16 -2 -30 -2q-13 0 -29 2q-9 1 -19 5q-6 3 -10 8q-3 5 -3 11v1254q0 6 3 11q4 5 10 8q10 4 19 5q16 2 29 2
q14 0 30 -2q9 -1 18 -5q6 -3 10 -8q3 -4 3 -11v-588l501 588q6 8 13 12q10 6 16 8q12 4 21 4q8 2 30 2q15 0 29 -2q11 -2 17 -6q8 -3 9 -8q2 -4 2 -10q0 -9 -5 -21q-7 -12 -19 -24l-471 -539l503 -631q15 -20 17 -25q3 -8 3 -12zM493 -132q7 21 22 28q15 6 54 6q37 0 45 -12
q6 -12 -2 -29l-95 -197q-9 -20 -23 -24q-13 -5 -43 -5q-27 0 -31 9q-5 8 3 28z" />
    <glyph glyph-name="kcommaaccent" unicode="&#x137;" horiz-adv-x="903" 
d="M857 22q0 -8 -3 -12q-4 -5 -10 -8q-8 -5 -19 -6q-16 -2 -31 -2q-24 0 -33 2q-9 0 -23 4q-6 2 -16 8q-6 4 -12 12l-424 514v-514q0 -6 -3 -11t-9 -8q-9 -4 -18 -5q-16 -2 -30 -2t-28 2q-9 1 -19 5q-7 3 -9 8q-3 5 -3 11v1348q0 6 3 11q2 5 9 9q10 4 19 4q7 2 28 2
q22 0 30 -2q8 0 18 -4q6 -4 9 -9t3 -11v-832l381 385q7 8 17 15q9 5 18 8q4 2 23 6q4 0 14 0.5t16 0.5q21 0 29 -1q15 -2 21 -4q9 -3 12 -8q4 -3 4 -11q0 -10 -6 -19q-5 -9 -21 -25l-362 -342l402 -480q13 -14 18 -23q5 -8 5 -16zM411 -132q7 21 22 28q15 6 54 6
q37 0 45 -12q6 -12 -2 -29l-95 -197q-9 -20 -23 -24q-13 -5 -43 -5q-27 0 -31 9q-5 8 3 28z" />
    <glyph glyph-name="kgreenlandic" unicode="&#x138;" horiz-adv-x="903" 
d="M851 22q0 -8 -3 -12q-5 -5 -12 -8q-7 -4 -20 -6q-18 -2 -32 -2q-24 0 -32 2q-10 0 -22 4q-7 3 -14 8t-11 12l-419 481v-481q0 -6 -3 -11t-9 -8q-9 -4 -18 -5q-16 -2 -30 -2t-28 2q-9 1 -19 5q-7 3 -9 8q-3 5 -3 11v905q0 7 3 11q2 5 9 8q4 2 19 6q3 0 12.5 0.5t15.5 0.5
t16 -0.5t14 -0.5q15 -4 18 -6q6 -3 9 -8q3 -4 3 -11v-423l400 423q9 9 14 12q7 5 14 8q3 1 9 2.5t9 2.5q4 0 13 0.5t15 0.5t16 -0.5t14 -0.5l20 -5q5 -2 13 -7q4 -5 4 -11q0 -7 -1 -10q-3 -9 -4 -11q0 -1 -7 -12q-3 -4 -12 -13l-369 -375l393 -443q2 -2 5.5 -6t5.5 -6
q1 -2 7 -11l3 -6q1 -3 2 -4q0 -1 0.5 -3.5t0.5 -4.5z" />
    <glyph glyph-name="Lacute" unicode="&#x139;" horiz-adv-x="858" 
d="M838 56q0 -10 -2 -24q-1 -8 -6 -18q-6 -8 -10 -10q-5 -4 -14 -4h-561q-19 0 -37 14q-19 12 -19 49v1211q0 6 3 11q4 5 10 8q10 4 19 5q16 2 29 2q14 0 30 -2q9 -1 18 -5q6 -3 10 -8q3 -4 3 -11v-1163h495q8 0 14 -3q6 -4 10 -10q5 -8 6 -18q2 -12 2 -24zM489 1656
q13 13 19 18q7 4 21 10q7 2 25 4q9 1 32 1q21 0 34 -3q14 -5 18 -10q7 -5 4 -12q0 -8 -8 -16l-228 -219q-10 -11 -18 -15q-7 -6 -17 -9q-5 -2 -19 -4q-8 -1 -26 -1q-14 0 -26 2q-10 3 -13 8q-3 3 -1 11q1 5 10 16zM137 1294z" />
    <glyph glyph-name="lacute" unicode="&#x13a;" horiz-adv-x="452" 
d="M286 20q0 -6 -3 -11t-9 -8q-9 -4 -18 -5q-16 -2 -30 -2t-28 2q-9 1 -19 5q-7 3 -9 8q-3 5 -3 11v1348q0 6 3 11q2 5 9 9q10 4 19 4q7 2 28 2q22 0 30 -2q8 0 18 -4q6 -4 9 -9t3 -11v-1348zM389 1712q13 13 19 18q7 4 21 10q7 2 25 4q9 1 32 1q20 0 34 -3q14 -5 18 -10
q7 -5 4 -12q0 -8 -8 -16l-228 -219q-10 -11 -18 -15q-7 -6 -17 -9q-5 -2 -19 -4q-8 -1 -26 -1q-14 0 -26 2q-10 3 -13 8q-3 3 -1 11q1 5 10 16zM37 1350z" />
    <glyph glyph-name="Lcommaaccent" unicode="&#x13b;" horiz-adv-x="858" 
d="M838 56q0 -10 -2 -24q-1 -8 -6 -18q-6 -8 -10 -10q-5 -4 -14 -4h-561q-19 0 -37 14q-19 12 -19 49v1211q0 6 3 11q4 5 10 8q10 4 19 5q16 2 29 2q14 0 30 -2q9 -1 18 -5q6 -3 10 -8q3 -4 3 -11v-1163h495q8 0 14 -3q6 -4 10 -10q5 -8 6 -18q2 -12 2 -24zM459 -132
q7 21 22 28q15 6 54 6q37 0 45 -12q6 -12 -2 -29l-95 -197q-9 -20 -23 -24q-13 -5 -43 -5q-27 0 -31 9q-5 8 3 28z" />
    <glyph glyph-name="lcommaaccent" unicode="&#x13c;" horiz-adv-x="452" 
d="M286 20q0 -6 -3 -11t-9 -8q-9 -4 -18 -5q-16 -2 -30 -2t-28 2q-9 1 -19 5q-7 3 -9 8q-3 5 -3 11v1348q0 6 3 11q2 5 9 9q10 4 19 4q7 2 28 2q22 0 30 -2q8 0 18 -4q6 -4 9 -9t3 -11v-1348zM158 -132q7 21 22 28q15 6 54 6q38 0 44 -12q7 -11 -1 -29l-95 -197
q-9 -19 -22 -24q-17 -5 -44 -5q-26 0 -31 9q-5 8 3 28z" />
    <glyph glyph-name="Lcaron" unicode="&#x13d;" horiz-adv-x="858" 
d="M838 56q0 -10 -2 -24q-1 -8 -6 -18q-6 -8 -10 -10q-5 -4 -14 -4h-561q-19 0 -37 14q-19 12 -19 49v1211q0 6 3 11q4 5 10 8q10 4 19 5q16 2 29 2q14 0 30 -2q9 -1 18 -5q6 -3 10 -8q3 -4 3 -11v-1163h495q8 0 14 -3q6 -4 10 -10q5 -8 6 -18q2 -12 2 -24zM606 1309
q3 8 8 15q4 5 13 9q2 1 21 5q4 0 14.5 0.5t16.5 0.5t13.5 -0.5t9.5 -0.5q11 -4 13 -6q3 -2 5 -9q0 -4 -2 -14l-125 -312q-1 -5 -4 -7q-4 -4 -9 -5q-10 -2 -18 -3q-6 -1 -26 -1q-4 0 -10 0.5t-8 0.5q-8 4 -9 5q-3 3 -4 7q-1 3 1 9zM356 946z" />
    <glyph glyph-name="lcaron" unicode="&#x13e;" horiz-adv-x="493" 
d="M286 20q0 -6 -3 -11t-9 -8q-9 -4 -18 -5q-16 -2 -30 -2t-28 2q-9 1 -19 5q-7 3 -9 8q-3 5 -3 11v1348q0 6 3 11q2 5 9 9q10 4 19 4q7 2 28 2q22 0 30 -2q8 0 18 -4q6 -4 9 -9t3 -11v-1348zM461 1365q3 8 8 15q4 5 13 9q2 1 21 5q4 0 14.5 0.5t16.5 0.5t14 -0.5t10 -0.5
q10 -4 12 -6q4 -3 4 -9q1 -4 -1 -14l-125 -312q-2 -4 -4 -7q-4 -4 -10 -5q-4 -1 -16 -3q-8 -1 -27 -1q-4 0 -9.5 0.5t-7.5 0.5q-8 3 -10 5q-2 3 -4 7q-1 3 1 9zM211 1002z" />
    <glyph glyph-name="Ldot" unicode="&#x13f;" horiz-adv-x="1101" 
d="M838 56q0 -10 -2 -24q-1 -8 -6 -18q-6 -8 -10 -10q-5 -4 -14 -4h-561q-19 0 -37 14q-19 12 -19 49v1211q0 6 3 11q4 5 10 8q10 4 19 5q16 2 29 2q14 0 30 -2q9 -1 18 -5q6 -3 10 -8q3 -4 3 -11v-1163h495q8 0 14 -3q6 -4 10 -10q5 -8 6 -18q2 -12 2 -24zM939 670
q0 -59 -19 -78t-68 -19q-47 0 -66 19q-18 18 -18 76q0 59 19 78t68 19q47 0 65 -19q19 -18 19 -76z" />
    <glyph glyph-name="ldot" unicode="&#x140;" horiz-adv-x="710" 
d="M286 20q0 -6 -3 -11t-9 -8q-9 -4 -18 -5q-16 -2 -30 -2t-28 2q-9 1 -19 5q-7 3 -9 8q-3 5 -3 11v1348q0 6 3 11q2 5 9 9q10 4 19 4q7 2 28 2q22 0 30 -2q8 0 18 -4q6 -4 9 -9t3 -11v-1348zM655 577q0 -59 -19 -78t-68 -19q-46 0 -66 18q-18 20 -18 77q0 59 19 78t68 19
q47 0 65 -18q19 -19 19 -77z" />
    <glyph glyph-name="Lslash" unicode="&#x141;" horiz-adv-x="877" 
d="M857 56q0 -10 -2 -24q-1 -10 -7 -18q-3 -7 -10 -10q-5 -4 -13 -4h-562q-19 0 -37 14q-18 12 -18 49v519l-145 -93q-14 -8 -23 1q-8 11 -8 44q0 15 1 22q2 12 4 16l7 14l4 4q5 3 8 5l152 97v582q0 6 3 11q4 5 10 8q10 4 19 5q14 2 29 2q13 0 29 -2q9 -1 19 -5q6 -3 10 -8
q3 -4 3 -11v-506l245 153q14 9 23 -1q8 -11 8 -43q0 -15 -1 -21q-1 -10 -4 -18q-3 -6 -7 -12q-7 -7 -12 -10l-252 -158v-547h495q7 0 13 -3q8 -6 10 -10q6 -7 7 -18q2 -12 2 -24z" />
    <glyph glyph-name="lslash" unicode="&#x142;" horiz-adv-x="489" 
d="M458 951q0 -15 -1 -21q-1 -11 -4 -18q-3 -6 -7 -12q-7 -7 -12 -10l-130 -82v-788q0 -6 -3 -11t-9 -8q-9 -4 -18 -5q-16 -2 -29 -2q-15 0 -29 2q-11 1 -18 5q-6 3 -10 8q-3 5 -3 11v714l-122 -78q-14 -8 -23 2q-8 10 -8 43q0 15 1 21q1 10 4 18q3 6 7 12q7 7 12 10l129 82
v524q0 6 3 11t10 9q8 4 18 4q7 2 29 2q21 0 29 -2q8 0 18 -4q6 -4 9 -9t3 -11v-450l122 78q14 8 23 -2q9 -9 9 -43z" />
    <glyph glyph-name="Nacute" unicode="&#x143;" horiz-adv-x="1307" 
d="M1118 59q0 -18 -6 -30q-5 -13 -14 -19q-6 -7 -18 -11q-12 -3 -20 -3h-25q-17 0 -37 5q-15 4 -32 17q-16 14 -30 34q-12 16 -35 54l-456 808q-13 22 -37 64.5t-32 57.5q-44 82 -65 121h-1q1 -49 1 -149v-150v-838q0 -6 -3 -11q-4 -5 -10 -8q-9 -4 -18 -5q-16 -2 -30 -2
q-13 0 -29 2q-9 1 -19 5q-6 3 -10 8q-3 5 -3 11v1211q0 37 19 49q18 14 37 14h50q25 0 40 -4q17 -5 29 -14q10 -7 26 -26q12 -18 27 -45l349 -619q45 -80 62 -112q12 -21 33.5 -59.5t24.5 -44.5q45 -83 56 -102q18 -33 54 -101h1q-1 56 -1 175v175v753q0 6 3 11t10 9
q10 4 19 4q7 2 29 2q20 0 28 -2q9 0 19 -4q7 -4 10 -9q4 -4 4 -11v-1211zM803 1656q13 13 19 18q7 4 21 10q7 2 25 4q9 1 32 1q20 0 34 -3q14 -5 18 -10q7 -5 4 -12q0 -8 -8 -16l-228 -219q-10 -11 -18 -15q-7 -6 -17 -9q-5 -2 -19 -4q-8 -1 -26 -1q-14 0 -26 2q-10 3 -13 8
q-3 3 -1 11q1 5 10 16zM451 1294z" />
    <glyph glyph-name="nacute" unicode="&#x144;" horiz-adv-x="1064" 
d="M901 20q0 -6 -3 -11q-4 -5 -10 -8q-7 -4 -18 -5q-14 -2 -28 -2t-30 2q-9 1 -18 5q-6 3 -9 8t-3 11v537q0 85 -13 137q-13 51 -39 90q-26 36 -66 58q-43 20 -95 20q-70 0 -138 -49t-145 -144v-649q0 -6 -3 -11t-9 -8q-9 -4 -18 -5q-16 -2 -30 -2t-28 2q-9 1 -19 5
q-7 3 -9 8q-3 5 -3 11v905q0 7 3 11q2 5 9 8q1 1 17 6q4 0 13 0.5t15 0.5t15.5 -0.5t12.5 -0.5q15 -4 17 -6q5 -3 9 -8q2 -6 2 -11v-128q78 87 153 126t149 39q88 0 150 -30t98 -81q39 -51 54 -119q17 -64 17 -164v-548zM651 1366q5 9 13 17q7 7 17 11q12 4 22 4q10 2 33 2
q19 0 31 -3q13 -3 17 -9q6 -6 3 -12q0 -7 -8 -17l-174 -234q-7 -11 -12 -15q-6 -6 -13 -9q-6 -2 -17 -4q-7 -1 -25 -1q-11 0 -25 2q-10 3 -12 8q-5 3 -3 11t7 16z" />
    <glyph glyph-name="Ncommaaccent" unicode="&#x145;" horiz-adv-x="1307" 
d="M1118 59q0 -18 -6 -30q-5 -13 -14 -19q-6 -7 -18 -11q-12 -3 -20 -3h-25q-17 0 -37 5q-15 4 -32 17q-16 14 -30 34q-12 16 -35 54l-456 808q-13 22 -37 64.5t-32 57.5q-44 82 -65 121h-1q1 -49 1 -149v-150v-838q0 -6 -3 -11q-4 -5 -10 -8q-9 -4 -18 -5q-16 -2 -30 -2
q-13 0 -29 2q-9 1 -19 5q-6 3 -10 8q-3 5 -3 11v1211q0 37 19 49q18 14 37 14h50q25 0 40 -4q17 -5 29 -14q10 -7 26 -26q12 -18 27 -45l349 -619q45 -80 62 -112q12 -21 33.5 -59.5t24.5 -44.5q45 -83 56 -102q18 -33 54 -101h1q-1 56 -1 175v175v753q0 6 3 11t10 9
q10 4 19 4q7 2 29 2q20 0 28 -2q9 0 19 -4q7 -4 10 -9q4 -4 4 -11v-1211zM567 -132q7 21 22 28q15 6 54 6q37 0 45 -12q6 -12 -2 -29l-95 -197q-9 -20 -23 -24q-13 -5 -43 -5q-27 0 -31 9q-5 8 3 28z" />
    <glyph glyph-name="ncommaaccent" unicode="&#x146;" horiz-adv-x="1064" 
d="M901 20q0 -6 -3 -11q-4 -5 -10 -8q-7 -4 -18 -5q-14 -2 -28 -2t-30 2q-9 1 -18 5q-6 3 -9 8t-3 11v537q0 85 -13 137q-13 51 -39 90q-26 36 -66 58q-43 20 -95 20q-70 0 -138 -49t-145 -144v-649q0 -6 -3 -11t-9 -8q-9 -4 -18 -5q-16 -2 -30 -2t-28 2q-9 1 -19 5
q-7 3 -9 8q-3 5 -3 11v905q0 7 3 11q2 5 9 8q1 1 17 6q4 0 13 0.5t15 0.5t15.5 -0.5t12.5 -0.5q15 -4 17 -6q5 -3 9 -8q2 -6 2 -11v-128q78 87 153 126t149 39q88 0 150 -30t98 -81q39 -51 54 -119q17 -64 17 -164v-548zM482 -132q7 21 22 28q15 6 54 6q38 0 44 -12
q7 -11 -1 -29l-95 -197q-9 -19 -22 -24q-17 -5 -44 -5q-26 0 -31 9q-5 8 3 28z" />
    <glyph glyph-name="Ncaron" unicode="&#x147;" horiz-adv-x="1307" 
d="M1118 59q0 -18 -6 -30q-5 -13 -14 -19q-6 -7 -18 -11q-12 -3 -20 -3h-25q-17 0 -37 5q-15 4 -32 17q-16 14 -30 34q-12 16 -35 54l-456 808q-13 22 -37 64.5t-32 57.5q-44 82 -65 121h-1q1 -49 1 -149v-150v-838q0 -6 -3 -11q-4 -5 -10 -8q-9 -4 -18 -5q-16 -2 -30 -2
q-13 0 -29 2q-9 1 -19 5q-6 3 -10 8q-3 5 -3 11v1211q0 37 19 49q18 14 37 14h50q25 0 40 -4q17 -5 29 -14q10 -7 26 -26q12 -18 27 -45l349 -619q45 -80 62 -112q12 -21 33.5 -59.5t24.5 -44.5q45 -83 56 -102q18 -33 54 -101h1q-1 56 -1 175v175v753q0 6 3 11t10 9
q10 4 19 4q7 2 29 2q20 0 28 -2q9 0 19 -4q7 -4 10 -9q4 -4 4 -11v-1211zM655 1400q-18 0 -25 1q-3 0 -6 0.5t-6.5 1.5t-5.5 1q-10 5 -12 8q-4 2 -12 10l-224 234q-6 6 -8 14q-1 7 4 11q3 4 14 6q14 2 25 2q8 0 20.5 -0.5t16.5 -0.5q5 -1 13 -2.5t9 -1.5q10 -2 14 -6l10 -8
l173 -191l180 186q7 7 15 12q10 6 18 7q9 2 24 4q8 1 33 1q19 0 30 -3q11 -2 15 -6q3 -4 0 -10q-1 -6 -9 -14l-239 -234q-8 -8 -12 -10q-3 -3 -14 -8q-2 0 -5.5 -1t-6.5 -1.5t-6 -0.5q-6 -1 -23 -1zM208 1294z" />
    <glyph glyph-name="ncaron" unicode="&#x148;" horiz-adv-x="1064" 
d="M901 20q0 -6 -3 -11q-4 -5 -10 -8q-7 -4 -18 -5q-14 -2 -28 -2t-30 2q-9 1 -18 5q-6 3 -9 8t-3 11v537q0 85 -13 137q-13 51 -39 90q-26 36 -66 58q-43 20 -95 20q-70 0 -138 -49t-145 -144v-649q0 -6 -3 -11t-9 -8q-9 -4 -18 -5q-16 -2 -30 -2t-28 2q-9 1 -19 5
q-7 3 -9 8q-3 5 -3 11v905q0 7 3 11q2 5 9 8q1 1 17 6q4 0 13 0.5t15 0.5t15.5 -0.5t12.5 -0.5q15 -4 17 -6q5 -3 9 -8q2 -6 2 -11v-128q78 87 153 126t149 39q88 0 150 -30t98 -81q39 -51 54 -119q17 -64 17 -164v-548zM712 1374q4 5 11 12q5 5 12 8q10 4 16 4q6 2 22 2
q19 0 30 -3t16 -9q3 -6 0 -16q-6 -11 -14 -22l-169 -232q-1 -2 -11 -12q-7 -5 -13 -6q-5 -1 -19 -3q-8 -1 -29 -1q-18 0 -25 1q-3 0 -6 0.5t-6.5 1.5t-5.5 1q-10 5 -12 8q-5 3 -10 10l-169 232q-8 11 -13 22q-3 9 0 16q4 6 14 9q12 3 31 3q18 0 24 -2q7 0 15 -4q3 -1 12 -8
q1 -2 4.5 -6t5.5 -6l144 -199z" />
    <glyph glyph-name="napostrophe" unicode="&#x149;" horiz-adv-x="1138" 
d="M975 20q0 -6 -3 -11q-4 -5 -10 -8q-7 -4 -18 -5q-14 -2 -28 -2t-30 2q-9 1 -18 5q-6 3 -9 8t-3 11v537q0 85 -13 137q-13 51 -39 90q-26 36 -66 58q-43 20 -95 20q-70 0 -138 -49t-145 -144v-649q0 -6 -3 -11t-9 -8q-9 -4 -18 -5q-16 -2 -30 -2t-28 2q-9 1 -19 5
q-7 3 -9 8q-3 5 -3 11v905q0 7 3 11q2 5 9 8q1 1 17 6q4 0 13 0.5t15 0.5t15.5 -0.5t12.5 -0.5q15 -4 17 -6q5 -3 9 -8q2 -6 2 -11v-128q78 87 153 126t149 39q88 0 150 -30t98 -81q39 -51 54 -119q17 -64 17 -164v-548zM196 1331q0 -18 -2 -48q-3 -23 -9 -42
q-7 -24 -16 -40q-13 -23 -25 -42l-139 -213q-6 -8 -9 -11q-8 -6 -14 -8q-1 0 -17 -5q-3 0 -11.5 -0.5t-13.5 -0.5q-14 0 -19 1q-9 2 -11 4q-4 3 -4 8q-2 4 3 12l139 274v111q0 24 4 35q4 13 13 22q11 7 23 10q18 2 34 2q15 0 33 -2q12 -3 23 -10q9 -9 14 -22q4 -16 4 -35z
" />
    <glyph glyph-name="Eng" unicode="&#x14a;" horiz-adv-x="1272" 
d="M1083 -46q0 -72 -11 -133q-12 -57 -40 -101q-31 -42 -78 -63q-48 -22 -125 -22q-20 0 -48 2q-16 1 -37 5q-18 5 -28 10q-10 4 -16 10t-9 16q-3 12 -3 31q0 16 2 23q0 7 4 15q3 7 8 9q3 3 10 3q10 0 16 -3q12 -4 19 -7q8 -4 29 -7q18 -3 47 -3q36 0 63 11q24 9 44 36
q15 27 24 67q7 47 7 101v46l-490 868q-26 46 -80 142q-10 19 -37.5 69t-42.5 78h-1q1 -70 1 -214v-214v-709q0 -6 -3 -11q-4 -5 -10 -8q-9 -4 -18 -5q-16 -2 -30 -2q-13 0 -29 2q-9 1 -19 5q-6 3 -10 8q-3 5 -3 11v1211q0 37 19 49q18 14 37 14h55q16 0 38 -4q18 -7 28 -14
q14 -10 22 -24q9 -11 22 -34l352 -625q6 -10 43 -77t57 -102q11 -20 46 -83t53 -97h2q-2 130 -2 200v200v636q0 6 3 11q2 3 10 9q12 4 20 4q7 2 29 2q19 0 27 -2q9 0 19 -4q5 -3 11 -9q3 -5 3 -11v-1316z" />
    <glyph glyph-name="eng" unicode="&#x14b;" horiz-adv-x="1064" 
d="M901 5q0 -117 -16 -181q-16 -67 -48 -109q-31 -41 -81 -61q-47 -19 -113 -19q-46 0 -80 8q-32 8 -43 17q-12 7 -15 20q-3 10 -3 29q0 9 2 23q1 8 5 15q2 4 7 9q6 3 11 3q9 0 19 -3q3 -1 10 -3t12 -4q12 -4 30 -7q15 -3 40 -3q33 0 60 9q26 10 46 38q18 29 28 80
q10 49 10 154v537q0 85 -13 137q-13 51 -39 90q-26 36 -66 58q-43 20 -95 20q-70 0 -138 -49t-145 -144v-649q0 -6 -3 -11t-9 -8q-9 -4 -18 -5q-16 -2 -30 -2t-28 2q-9 1 -19 5q-7 3 -9 8q-3 5 -3 11v905q0 7 3 11q2 5 9 8q1 1 17 6q4 0 13 0.5t15 0.5t15.5 -0.5t12.5 -0.5
q15 -4 17 -6q5 -3 9 -8q2 -6 2 -11v-128q78 87 153 126t149 39q88 0 150 -30t98 -81q39 -51 54 -119q17 -64 17 -164v-563z" />
    <glyph glyph-name="Omacron" unicode="&#x14c;" horiz-adv-x="1340" 
d="M1230 662q0 -156 -36 -280q-34 -126 -106 -214q-69 -88 -179 -137q-108 -48 -252 -48q-145 0 -247 45q-104 46 -170 130q-68 86 -98 207q-32 118 -32 275q0 150 35 276q34 122 107 212q70 86 178 135q108 48 253 48q141 0 244 -45q101 -44 171 -129q68 -86 100 -204
q32 -122 32 -271zM1100 651q0 118 -22 215q-20 98 -70 176q-52 75 -132 116q-82 43 -203 43q-119 0 -203 -45q-81 -44 -134 -119q-50 -73 -74 -175q-22 -105 -22 -211q0 -116 20 -219q21 -103 70 -177q50 -76 131 -117q82 -43 205 -43q122 0 205 45q83 47 134 122
q51 78 73 178q22 97 22 211zM936 1576q7 0 11 -4q5 -3 9 -10q4 -8 4 -16q2 -7 2 -22t-2 -22q0 -6 -4 -16q-4 -7 -9 -10q-4 -4 -11 -4h-521q-8 0 -12 4q-5 3 -9 10q-4 10 -5 16q-2 14 -2 22t2 22q1 8 5 16q4 7 9 10q4 4 12 4h521zM239 1294z" />
    <glyph glyph-name="omacron" unicode="&#x14d;" horiz-adv-x="1068" 
d="M968 482q0 -109 -28 -199q-29 -93 -84 -158q-51 -64 -138 -105q-85 -37 -193 -37q-107 0 -185 33q-79 34 -134 96q-53 64 -80 152q-26 90 -26 201q0 109 28 199q26 88 82 158q57 66 139 103q81 37 194 37q107 0 185 -33q80 -32 133 -95q53 -64 80 -152q27 -89 27 -200z
M842 471q0 77 -15 147q-15 69 -50 124q-35 54 -94 84q-57 32 -147 32q-80 0 -140 -29q-61 -30 -96 -81q-38 -49 -56 -121q-18 -71 -18 -151q0 -79 15 -148q15 -70 50 -124q34 -52 94 -84q58 -31 147 -31q80 0 140 29t96 80q38 49 56 121q18 70 18 152zM766 1277q6 0 11 -3
q5 -4 8 -9q4 -7 5 -15q2 -14 2 -23t-2 -21q-1 -6 -5 -16q-2 -4 -8 -10q-5 -3 -11 -3h-462q-8 0 -12 3q-6 6 -8 10q-5 8 -6 16q-2 12 -2 21t2 23q2 9 6 15q3 5 8 9q4 3 12 3h462zM128 946z" />
    <glyph glyph-name="Obreve" unicode="&#x14e;" horiz-adv-x="1340" 
d="M1230 662q0 -156 -36 -280q-34 -126 -106 -214q-69 -88 -179 -137q-108 -48 -252 -48q-145 0 -247 45q-104 46 -170 130q-68 86 -98 207q-32 118 -32 275q0 150 35 276q34 122 107 212q70 86 178 135q108 48 253 48q141 0 244 -45q101 -44 171 -129q68 -86 100 -204
q32 -122 32 -271zM1100 651q0 118 -22 215q-20 98 -70 176q-52 75 -132 116q-82 43 -203 43q-119 0 -203 -45q-81 -44 -134 -119q-50 -73 -74 -175q-22 -105 -22 -211q0 -116 20 -219q21 -103 70 -177q50 -76 131 -117q82 -43 205 -43q122 0 205 45q83 47 134 122
q51 78 73 178q22 97 22 211zM914 1665q0 -58 -16 -111q-17 -47 -48 -84q-35 -35 -77 -52q-45 -18 -100 -18q-61 0 -107 20q-45 21 -74 56q-30 38 -43 84q-14 51 -14 105q0 13 9 19q8 5 36 5t40 -3t12 -18q0 -12 8 -52q9 -38 27 -64q19 -26 45 -38q24 -14 64 -14q56 0 88 28
q33 28 42 65q11 34 11 61q0 23 8 29q7 6 44 6q27 0 37 -5q8 -6 8 -19zM287 1294z" />
    <glyph glyph-name="obreve" unicode="&#x14f;" horiz-adv-x="1068" 
d="M968 482q0 -109 -28 -199q-29 -93 -84 -158q-51 -64 -138 -105q-85 -37 -193 -37q-107 0 -185 33q-79 34 -134 96q-53 64 -80 152q-26 90 -26 201q0 109 28 199q26 88 82 158q57 66 139 103q81 37 194 37q107 0 185 -33q80 -32 133 -95q53 -64 80 -152q27 -89 27 -200z
M842 471q0 77 -15 147q-15 69 -50 124q-35 54 -94 84q-57 32 -147 32q-80 0 -140 -29q-61 -30 -96 -81q-38 -49 -56 -121q-18 -71 -18 -151q0 -79 15 -148q15 -70 50 -124q34 -52 94 -84q58 -31 147 -31q80 0 140 29t96 80q38 49 56 121q18 70 18 152zM682 1368q0 10 9 18
q9 6 37 6q18 0 24 -2q7 0 13 -4q5 -3 7 -8q0 -1 0.5 -4.5t0.5 -5.5q0 -70 -16 -118q-17 -52 -47 -83q-31 -34 -75 -49q-43 -17 -102 -17q-62 0 -107 18q-46 18 -74 51q-31 36 -44 83q-14 51 -14 112q0 14 10 21q9 6 35 6q17 0 23 -2q8 0 14 -4t7 -8q2 -4 2 -10q1 -38 11 -71
q11 -32 28 -55q19 -23 45 -34q27 -12 64 -12q33 0 57 10q27 10 46 30q20 20 32 52q13 34 14 80zM146 946z" />
    <glyph glyph-name="Ohungarumlaut" unicode="&#x150;" horiz-adv-x="1340" 
d="M1230 662q0 -156 -36 -280q-34 -126 -106 -214q-69 -88 -179 -137q-108 -48 -252 -48q-145 0 -247 45q-104 46 -170 130q-68 86 -98 207q-32 118 -32 275q0 150 35 276q34 122 107 212q70 86 178 135q108 48 253 48q141 0 244 -45q101 -44 171 -129q68 -86 100 -204
q32 -122 32 -271zM1100 651q0 118 -22 215q-20 98 -70 176q-52 75 -132 116q-82 43 -203 43q-119 0 -203 -45q-81 -44 -134 -119q-50 -73 -74 -175q-22 -105 -22 -211q0 -116 20 -219q21 -103 70 -177q50 -76 131 -117q82 -43 205 -43q122 0 205 45q83 47 134 122
q51 78 73 178q22 97 22 211zM637 1656q19 22 39 28q23 5 57 5q44 0 54 -13q10 -12 -6 -28l-228 -219q-11 -11 -18 -15q-7 -6 -17 -9q-4 -2 -18 -4q-8 -1 -26 -1q-34 0 -40 10q-5 9 10 27zM966 1656q19 22 40 28q22 5 56 5q44 0 54 -13q10 -12 -6 -28l-228 -219
q-10 -11 -18 -15q-6 -5 -16 -9q-7 -2 -20 -4q-6 -1 -25 -1q-35 0 -39 10q-6 9 9 27z" />
    <glyph glyph-name="ohungarumlaut" unicode="&#x151;" horiz-adv-x="1068" 
d="M968 482q0 -109 -28 -199q-29 -93 -84 -158q-51 -64 -138 -105q-85 -37 -193 -37q-107 0 -185 33q-79 34 -134 96q-53 64 -80 152q-26 90 -26 201q0 109 28 199q26 88 82 158q57 66 139 103q81 37 194 37q107 0 185 -33q80 -32 133 -95q53 -64 80 -152q27 -89 27 -200z
M842 471q0 77 -15 147q-15 69 -50 124q-35 54 -94 84q-57 32 -147 32q-80 0 -140 -29q-61 -30 -96 -81q-38 -49 -56 -121q-18 -71 -18 -151q0 -79 15 -148q15 -70 50 -124q34 -52 94 -84q58 -31 147 -31q80 0 140 29t96 80q38 49 56 121q18 70 18 152zM421 1085
q-6 -6 -10 -9l-12 -6l-18 -3q-8 -1 -25 -1q-15 0 -19 2q-8 0 -12 4q-5 2 -5 8q0 4 3 10l182 267q4 6 10 10q5 4 15 7q16 3 22 4q4 0 14.5 0.5t17.5 0.5q22 0 36 -3q13 -3 20 -8q5 -5 5 -14q-5 -10 -11 -17zM740 1085q-4 -6 -11 -9q-6 -5 -14 -6q-5 -1 -17 -3q-7 -1 -23 -1
q-21 0 -30 6q-11 8 -3 18l182 267q3 4 9 10q5 4 15 7q16 3 22 4q4 0 15 0.5t18 0.5q23 0 36 -3q13 -2 20 -8q7 -5 4 -13q0 -6 -10 -18zM171 946z" />
    <glyph glyph-name="OE" unicode="&#x152;" horiz-adv-x="1767" 
d="M1649 54q0 -9 -2 -23q-1 -10 -7 -17q-2 -6 -10 -10q-5 -4 -13 -4h-606q-17 0 -35 12q-18 10 -21 42q-60 -35 -135 -53t-163 -18q-145 0 -247 45q-104 46 -170 130q-68 86 -98 207q-32 118 -32 275q0 150 35 276q34 122 107 212q70 86 178 135q108 48 253 48q76 0 146 -19
q75 -19 128 -46q4 27 21 38q16 10 33 10h597q8 0 13 -4q6 -3 10 -10q5 -8 6 -18q2 -12 2 -24q0 -9 -2 -23q-1 -9 -6 -17q-4 -6 -10 -10q-6 -3 -13 -3h-531v-456h459q7 0 13 -3q6 -5 10 -11q4 -7 6 -17q2 -16 2 -25t-2 -23q-1 -9 -6 -17q-4 -6 -10 -11q-6 -3 -13 -3h-459
v-510h540q7 0 13 -3q8 -6 10 -10q6 -7 7 -18q2 -12 2 -24zM955 1114q-57 39 -127 63q-69 24 -155 24q-119 0 -203 -45q-81 -44 -134 -119q-50 -73 -74 -175q-22 -105 -22 -211q0 -116 20 -219q21 -103 70 -177q50 -76 131 -117q82 -43 205 -43q95 0 166 25q74 26 123 65v929
z" />
    <glyph glyph-name="oe" unicode="&#x153;" horiz-adv-x="1748" 
d="M1641 519q0 -37 -19 -49q-18 -14 -37 -14h-617q0 -80 16 -152q18 -69 55 -116q37 -49 99 -75q64 -26 151 -26q60 0 112 11q36 8 87 24q45 18 60 25q25 11 33 11q7 0 11 -3q5 -3 8 -9q4 -10 4 -17q2 -7 2 -25q0 -9 -1 -14l-1 -5q-1 -5 -2 -7q0 -4 -4 -10t-8 -10t-32 -18
q-21 -10 -68 -25q-37 -11 -98 -23q-54 -9 -118 -9q-136 0 -230 53q-94 51 -147 162q-53 -104 -145 -159q-91 -56 -227 -56q-107 0 -185 33q-79 34 -134 96q-53 64 -80 152q-26 90 -26 201q0 109 28 199q26 88 82 158q57 66 139 103q81 37 194 37q137 0 225 -54
q87 -54 139 -157q52 105 142 158q89 53 210 53q103 0 174 -34q72 -34 119 -92q46 -58 68 -133q21 -76 21 -160v-24zM1518 554q3 144 -66 225t-201 81q-70 0 -119 -26q-50 -23 -88 -67q-34 -41 -54 -97q-19 -55 -22 -116h550zM842 469q0 77 -15 149q-15 69 -50 124
q-35 54 -94 84q-57 32 -147 32q-80 0 -140 -29q-61 -30 -96 -81q-38 -49 -56 -121q-18 -71 -18 -151q0 -79 15 -148q15 -70 50 -124q34 -52 94 -84q58 -31 147 -31q80 0 140 29t96 80q37 49 56 120q18 70 18 151z" />
    <glyph glyph-name="Racute" unicode="&#x154;" horiz-adv-x="1090" 
d="M999 22q0 -8 -3 -12q-2 -5 -9 -8q-8 -5 -19 -6q-18 -2 -32 -2q-21 0 -28 2q-12 0 -20 6q-9 4 -13 12q-4 5 -9 19l-121 314q-23 57 -45 100q-26 50 -58 81q-34 36 -82 55q-49 20 -115 20h-134v-583q0 -6 -3 -11q-4 -5 -10 -8q-9 -4 -18 -5q-16 -2 -30 -2q-13 0 -29 2
q-9 1 -19 5q-6 3 -10 8q-3 5 -3 11v1211q0 37 19 49q18 14 37 14h243q36 0 80 -2q40 -4 57 -7q73 -13 129 -42q54 -28 91 -71q37 -44 53 -96q18 -54 18 -116q0 -64 -18 -114q-18 -51 -51 -90q-34 -38 -79 -66q-44 -27 -101 -47q35 -16 59 -37q26 -22 50 -53q26 -39 42 -71
q27 -59 40 -91l121 -302q7 -17 17 -48q3 -14 3 -19zM784 947q0 83 -37 141q-37 57 -124 82q-29 8 -63 12q-34 3 -89 3h-160v-475h186q75 0 129 18q54 20 90 51q34 31 52 75q16 46 16 93zM625 1656q13 13 19 18q7 4 21 10q7 2 25 4q9 1 32 1q20 0 34 -3q14 -5 18 -10
q7 -5 4 -12q0 -8 -8 -16l-228 -219q-10 -11 -18 -15q-7 -6 -17 -9q-5 -2 -19 -4q-8 -1 -26 -1q-14 0 -26 2q-10 3 -13 8q-3 3 -1 11q1 5 10 16zM273 1294z" />
    <glyph glyph-name="racute" unicode="&#x155;" horiz-adv-x="706" 
d="M669 879q0 -19 -1 -25q-1 -12 -4 -18q-1 -5 -6 -10q-3 -3 -9 -3q-11 0 -21 5q-4 1 -13 4l-15 5q-30 8 -35 9q-16 5 -42 5t-53 -11q-30 -14 -54 -38q-28 -23 -60 -67q-32 -41 -70 -103v-612q0 -6 -3 -11t-9 -8q-9 -4 -18 -5q-16 -2 -30 -2t-28 2q-9 1 -19 5q-7 3 -9 8
q-3 5 -3 11v905q0 7 3 11q2 5 9 8q1 1 17 6q4 0 13 0.5t15 0.5t15.5 -0.5t12.5 -0.5q15 -4 17 -6q5 -3 9 -8q2 -6 2 -11v-143q40 59 72 92q36 38 63 54q27 19 59 27q25 7 58 7q19 0 30 -2q16 0 36 -5q14 -3 36 -9q5 -2 21 -10l8 -8q3 -9 3 -10q2 -3 2 -14q1 -7 1 -25z
M489 1366q5 9 13 17q6 7 17 11q12 4 22 4q10 2 33 2q19 0 31 -3q13 -3 17 -9q6 -6 3 -12q0 -7 -8 -17l-174 -234q-7 -11 -12 -15q-6 -6 -13 -9q-6 -2 -17 -4q-7 -1 -25 -1q-11 0 -25 2q-10 3 -12 8q-5 3 -3 11t7 16z" />
    <glyph glyph-name="Rcommaaccent" unicode="&#x156;" horiz-adv-x="1090" 
d="M999 22q0 -8 -3 -12q-2 -5 -9 -8q-8 -5 -19 -6q-18 -2 -32 -2q-21 0 -28 2q-12 0 -20 6q-9 4 -13 12q-4 5 -9 19l-121 314q-23 57 -45 100q-26 50 -58 81q-34 36 -82 55q-49 20 -115 20h-134v-583q0 -6 -3 -11q-4 -5 -10 -8q-9 -4 -18 -5q-16 -2 -30 -2q-13 0 -29 2
q-9 1 -19 5q-6 3 -10 8q-3 5 -3 11v1211q0 37 19 49q18 14 37 14h243q36 0 80 -2q40 -4 57 -7q73 -13 129 -42q54 -28 91 -71q37 -44 53 -96q18 -54 18 -116q0 -64 -18 -114q-18 -51 -51 -90q-34 -38 -79 -66q-44 -27 -101 -47q35 -16 59 -37q26 -22 50 -53q26 -39 42 -71
q27 -59 40 -91l121 -302q7 -17 17 -48q3 -14 3 -19zM784 947q0 83 -37 141q-37 57 -124 82q-29 8 -63 12q-34 3 -89 3h-160v-475h186q75 0 129 18q54 20 90 51q34 31 52 75q16 46 16 93zM502 -132q7 21 22 28q15 6 54 6q38 0 44 -12q7 -11 -1 -29l-95 -197q-9 -19 -22 -24
q-17 -5 -44 -5q-26 0 -31 9q-5 8 3 28z" />
    <glyph glyph-name="rcommaaccent" unicode="&#x157;" horiz-adv-x="706" 
d="M669 879q0 -19 -1 -25q-1 -12 -4 -18q-1 -5 -6 -10q-3 -3 -9 -3q-11 0 -21 5q-4 1 -13 4l-15 5q-30 8 -35 9q-16 5 -42 5t-53 -11q-30 -14 -54 -38q-28 -23 -60 -67q-32 -41 -70 -103v-612q0 -6 -3 -11t-9 -8q-9 -4 -18 -5q-16 -2 -30 -2t-28 2q-9 1 -19 5q-7 3 -9 8
q-3 5 -3 11v905q0 7 3 11q2 5 9 8q1 1 17 6q4 0 13 0.5t15 0.5t15.5 -0.5t12.5 -0.5q15 -4 17 -6q5 -3 9 -8q2 -6 2 -11v-143q40 59 72 92q36 38 63 54q27 19 59 27q25 7 58 7q19 0 30 -2q16 0 36 -5q14 -3 36 -9q5 -2 21 -10l8 -8q3 -9 3 -10q2 -3 2 -14q1 -7 1 -25z
M199 -132q7 21 22 28q15 6 54 6q37 0 45 -12q6 -12 -2 -29l-95 -197q-9 -20 -23 -24q-13 -5 -43 -5q-27 0 -31 9q-5 8 3 28z" />
    <glyph glyph-name="Rcaron" unicode="&#x158;" horiz-adv-x="1090" 
d="M999 22q0 -8 -3 -12q-2 -5 -9 -8q-8 -5 -19 -6q-18 -2 -32 -2q-21 0 -28 2q-12 0 -20 6q-9 4 -13 12q-4 5 -9 19l-121 314q-23 57 -45 100q-26 50 -58 81q-34 36 -82 55q-49 20 -115 20h-134v-583q0 -6 -3 -11q-4 -5 -10 -8q-9 -4 -18 -5q-16 -2 -30 -2q-13 0 -29 2
q-9 1 -19 5q-6 3 -10 8q-3 5 -3 11v1211q0 37 19 49q18 14 37 14h243q36 0 80 -2q40 -4 57 -7q73 -13 129 -42q54 -28 91 -71q37 -44 53 -96q18 -54 18 -116q0 -64 -18 -114q-18 -51 -51 -90q-34 -38 -79 -66q-44 -27 -101 -47q35 -16 59 -37q26 -22 50 -53q26 -39 42 -71
q27 -59 40 -91l121 -302q7 -17 17 -48q3 -14 3 -19zM784 947q0 83 -37 141q-37 57 -124 82q-29 8 -63 12q-34 3 -89 3h-160v-475h186q75 0 129 18q54 20 90 51q34 31 52 75q16 46 16 93zM517 1400q-18 0 -25 1l-18 3q-10 5 -12 8q-4 2 -12 10l-224 234q-6 6 -8 14q-1 7 4 11
q3 4 14 6q14 2 25 2q8 0 20.5 -0.5t16.5 -0.5q5 -1 13 -2.5t9 -1.5q10 -2 14 -6l10 -8l173 -191l180 186q7 7 15 12q10 6 18 7q9 2 24 4q8 1 33 1q19 0 30 -3q11 -2 15 -6q3 -4 0 -10q-1 -6 -9 -14l-239 -234q-8 -8 -12 -10q-3 -3 -14 -8q-2 0 -5.5 -1t-6.5 -1.5t-6 -0.5
q-6 -1 -23 -1zM70 1294z" />
    <glyph glyph-name="rcaron" unicode="&#x159;" horiz-adv-x="706" 
d="M669 879q0 -19 -1 -25q-1 -12 -4 -18q-1 -5 -6 -10q-3 -3 -9 -3q-11 0 -21 5q-4 1 -13 4l-15 5q-30 8 -35 9q-16 5 -42 5t-53 -11q-30 -14 -54 -38q-28 -23 -60 -67q-32 -41 -70 -103v-612q0 -6 -3 -11t-9 -8q-9 -4 -18 -5q-16 -2 -30 -2t-28 2q-9 1 -19 5q-7 3 -9 8
q-3 5 -3 11v905q0 7 3 11q2 5 9 8q1 1 17 6q4 0 13 0.5t15 0.5t15.5 -0.5t12.5 -0.5q15 -4 17 -6q5 -3 9 -8q2 -6 2 -11v-143q40 59 72 92q36 38 63 54q27 19 59 27q25 7 58 7q19 0 30 -2q16 0 36 -5q14 -3 36 -9q5 -2 21 -10l8 -8q3 -9 3 -10q2 -3 2 -14q1 -7 1 -25z
M542 1374q4 5 11 12q5 5 12 8q10 4 16 4q6 2 22 2q19 0 31 -3q11 -3 14 -9q4 -6 0 -16q-3 -9 -13 -22l-169 -232q-2 -3 -5.5 -7t-4.5 -5q-11 -5 -14 -6q-7 -1 -20 -3q-7 -1 -28 -1q-18 0 -25 1q-12 2 -17 3q-9 3 -13 8q-5 3 -10 10l-169 232q-9 12 -12 22q-4 9 0 16
q3 6 14 9q9 3 30 3q18 0 24 -2q6 0 16 -4q7 -3 10 -8q4 -3 11 -12l144 -199z" />
    <glyph glyph-name="Sacute" unicode="&#x15a;" horiz-adv-x="927" 
d="M844 350q0 -88 -31 -154q-32 -68 -87 -116q-55 -46 -133 -72q-75 -25 -168 -25q-59 0 -117 11q-56 12 -98 28q-40 15 -72 32q-32 20 -41 28q-12 14 -16 28q-5 17 -5 38q0 14 2 28q2 10 6 18q3 6 8 10q8 2 12 2q13 0 40 -18t66 -38t96 -38q59 -17 132 -17q64 0 112 17
q49 15 88 47q37 31 58 77q20 46 20 103q0 59 -26 103q-25 42 -68 76q-48 35 -97 58q-54 27 -111 54q-58 27 -110 57q-55 32 -96 73q-43 40 -69 97t-26 133t27 134q27 61 76 102q50 41 118 63q66 22 150 22q38 0 83 -8q44 -8 79 -21q39 -12 68 -28q30 -16 38 -24
q10 -10 12 -14q4 -9 5 -12q2 -10 3 -16q1 -7 1 -24q0 -5 -0.5 -12.5t-0.5 -11.5q-1 -3 -2.5 -9t-2.5 -9q-1 -2 -7 -11q-5 -4 -11 -4q-12 0 -33 15q-55 31 -57 32q-37 19 -81 32q-46 15 -107 15t-103 -16q-46 -17 -73 -43q-31 -31 -43 -65q-15 -37 -15 -78q0 -59 26 -103
q25 -43 69 -76q45 -34 98 -60q3 -1 45.5 -21.5t64.5 -30.5q59 -28 112 -58q53 -29 97 -72q42 -39 69 -96q26 -58 26 -132zM611 1656q13 13 19 18q7 4 21 10q7 2 25 4q9 1 32 1q20 0 34 -3q14 -5 18 -10q7 -5 4 -12q0 -8 -8 -16l-228 -219q-10 -11 -18 -15q-7 -6 -17 -9
q-5 -2 -19 -4q-8 -1 -26 -1q-14 0 -26 2q-10 3 -13 8q-3 3 -1 11q1 5 10 16zM259 1294z" />
    </font>
</defs>
</svg>
