<?xml version="1.0" standalone="no"?>
<!DOCTYPE svg PUBLIC "-//W3C//DTD SVG 1.1//EN" "http://www.w3.org/Graphics/SVG/1.1/DTD/svg11.dtd" >
<svg>
<metadata>
Created by FontForge 20110222 at Mon Apr 21 07:16:41 2014
 By Orthosie Webhosting
(c) 2012 Microsoft Corporation. All Rights Reserved.
</metadata>
<defs>
<font id="CalibriBoldItalic" horiz-adv-x="0" >
  <font-face 
    font-family="CalibriBoldItalic"
    font-weight="700"
    font-style="italic"
    font-stretch="normal"
    units-per-em="2048"
    panose-1="2 0 8 3 0 0 0 0 0 0"
    ascent="1536"
    descent="-512"
    x-height="960"
    cap-height="1294"
    bbox="-1414.5 -538 2590 1980"
    underline-thickness="134"
    underline-position="-165"
    slope="-11"
    unicode-range="U+000D-FEFF"
  />
<missing-glyph horiz-adv-x="1038" 
d="M992 1294v-1294h-945v1294h945zM885 101v1092h-732v-1092h732zM783 886q0 -56 -16 -104q-17 -53 -50 -90q-37 -41 -86 -64q-50 -26 -124 -32l-30 -121q-3 -13 -25 -19q-27 -5 -60 -5q-27 0 -38 1q-17 2 -24 4q-7 1 -12 6q-4 6 -3 13l25 167q5 33 22 46q17 14 44 14h11
q47 0 80 15q34 15 53 39q20 25 29 54q9 28 9 59q0 19 -6 39q-8 20 -22 32q-13 15 -38 24q-24 8 -58 8q-38 0 -67 -6q-24 -6 -49 -14q-7 -3 -18.5 -7.5t-15.5 -6.5q-13 -7 -19 -7q-8 0 -11 7q-4 7 -4 21q0 3 2 21l5 30q3 12 8 29q5 13 12 21q5 5 27 16q27 12 48 16
q24 8 60 13q37 5 67 5q69 0 121 -18q50 -16 85 -48q34 -29 51 -70q17 -43 17 -88zM474 323q0 -5 -2 -23q-2 -14 -6 -30q-5 -20 -11 -30q-8 -15 -16 -25q-12 -12 -35 -20q-21 -7 -54 -7q-22 0 -46 4q-18 7 -26 13q-10 7 -13 19q-3 9 -3 22q0 6 2 26q1 5 3 15.5t3 14.5l12 30
q9 15 19 25q14 14 33 20q21 6 54 6q28 0 43 -4t27 -11q9 -9 12 -19q4 -9 4 -26zM0 -397z" />
    <glyph glyph-name=".notdef" horiz-adv-x="1038" 
d="M992 1294v-1294h-945v1294h945zM885 101v1092h-732v-1092h732zM783 886q0 -56 -16 -104q-17 -53 -50 -90q-37 -41 -86 -64q-50 -26 -124 -32l-30 -121q-3 -13 -25 -19q-27 -5 -60 -5q-27 0 -38 1q-17 2 -24 4q-7 1 -12 6q-4 6 -3 13l25 167q5 33 22 46q17 14 44 14h11
q47 0 80 15q34 15 53 39q20 25 29 54q9 28 9 59q0 19 -6 39q-8 20 -22 32q-13 15 -38 24q-24 8 -58 8q-38 0 -67 -6q-24 -6 -49 -14q-7 -3 -18.5 -7.5t-15.5 -6.5q-13 -7 -19 -7q-8 0 -11 7q-4 7 -4 21q0 3 2 21l5 30q3 12 8 29q5 13 12 21q5 5 27 16q27 12 48 16
q24 8 60 13q37 5 67 5q69 0 121 -18q50 -16 85 -48q34 -29 51 -70q17 -43 17 -88zM474 323q0 -5 -2 -23q-2 -14 -6 -30q-5 -20 -11 -30q-8 -15 -16 -25q-12 -12 -35 -20q-21 -7 -54 -7q-22 0 -46 4q-18 7 -26 13q-10 7 -13 19q-3 9 -3 22q0 6 2 26q1 5 3 15.5t3 14.5l12 30
q9 15 19 25q14 14 33 20q21 6 54 6q28 0 43 -4t27 -11q9 -9 12 -19q4 -9 4 -26zM0 -397z" />
    <glyph glyph-name="glyph1" 
 />
    <glyph glyph-name="uni000D" unicode="&#xd;" 
 />
    <glyph glyph-name="space" unicode=" " horiz-adv-x="463" 
 />
    <glyph glyph-name="exclam" unicode="!" horiz-adv-x="667" 
d="M472 424q-2 -11 -10 -18q-6 -7 -21 -14q-16 -5 -35 -8q-23 -3 -53 -3q-32 0 -53 3q-19 3 -31 8q-10 6 -15 14q-4 6 -2 18l156 908q1 11 10 23q7 8 26 17q16 6 44 9q27 3 66 3t66 -3q25 -3 40 -9q14 -8 18 -17t1 -23zM453 194q0 -21 -4 -42q-6 -32 -11 -48q-6 -26 -16 -46
q-10 -23 -23 -35q-18 -18 -49 -29q-28 -9 -75 -9q-34 0 -59 5q-21 5 -38 17q-14 12 -18 27q-5 17 -5 35q0 17 3 39q3 26 10 49q9 32 17 47q10 23 24 37q22 22 51 31q30 8 71 8q39 0 63 -6q25 -8 36 -18q15 -12 18 -28q5 -14 5 -34z" />
    <glyph glyph-name="quotedbl" unicode="&#x22;" horiz-adv-x="898" 
d="M796 910q-1 -10 -8 -18q-7 -9 -18 -13q-14 -5 -30 -8t-43 -3q-28 0 -43 3t-26 8q-10 4 -12 13q-3 8 -2 18l67 447q1 11 9 18q9 9 22 13q15 7 37 8q23 3 55 3q66 0 88 -11q23 -10 18 -31zM415 910q-1 -10 -8 -18q-7 -9 -17 -13q-14 -5 -30 -8q-18 -3 -44 -3t-44 3
q-15 3 -25 8q-9 4 -12 13q-3 7 -1 18l67 447q2 12 9 18q7 8 22 13q15 6 36 8q24 3 55 3q67 0 89 -11q22 -9 17 -31z" />
    <glyph glyph-name="numbersign" unicode="#" horiz-adv-x="1020" 
d="M1080 932q0 -12 -4 -32q-2 -17 -10 -44q-10 -26 -20 -40q-12 -17 -30 -17h-111l-92 -284h98q14 0 21 -10q6 -11 6 -29q0 -13 -4 -34q-2 -14 -10 -44q-10 -26 -20 -38q-11 -17 -30 -17h-117l-99 -312q-6 -20 -32 -29q-26 -8 -83 -8q-25 0 -49 2q-16 1 -27 7q-7 4 -11 11
q0 10 2 16l101 313h-224l-100 -313q-3 -8 -9 -16q-6 -6 -20 -12q-24 -5 -32 -6q-28 -2 -49 -2q-24 0 -50 2q-17 1 -28 7q-9 5 -11 11q-1 7 0 16l101 313h-95q-27 0 -27 43q0 12 3 34q2 14 10 42q9 22 19 38q10 15 28 15h117l92 284h-99q-15 0 -21 11q-7 8 -7 33q0 17 4 37
q3 14 11 42q11 24 19 34q11 15 26 15h121l93 292q3 10 11 17q3 4 21 12q23 5 35 6q26 2 49 2q25 0 49 -2q18 -3 26 -8q8 -4 10 -12q1 -4 -1 -14l-94 -293h222l94 292q4 19 29 28q26 9 84 9q24 0 48 -2q17 -3 28 -8q10 -5 10 -12q2 -4 0 -14l-94 -293h95q14 0 21 -11
q6 -9 6 -28zM482 799l-93 -284h225l92 284h-224z" />
    <glyph glyph-name="dollar" unicode="$" horiz-adv-x="1038" 
d="M941 441q0 -88 -31 -165q-31 -76 -94 -134q-61 -57 -159 -95q-95 -37 -226 -46l-65 -214q-4 -16 -22 -25q-19 -8 -69 -8q-31 0 -51 3q-19 3 -28 9q-9 4 -12 14q0 13 2 20l63 205q-62 10 -107 25q-48 15 -81 35q-25 16 -33 29q-8 16 -8 38q0 2 2 22q1 6 5 32q3 18 9 36
q4 19 12 34q5 13 14 26q7 10 18 10q14 0 34 -14q30 -19 54 -30q41 -20 85 -30q48 -14 123 -14q84 0 138 18q54 16 90 44q33 28 48 62q14 37 14 69q0 38 -20 64q-22 27 -54 47q-38 23 -76 38q-7 3 -88 38q-42 19 -86 44q-45 26 -76 59q-34 35 -54 81q-21 46 -21 111
q0 74 26 147q26 71 81 126q53 55 138 94q85 37 200 47l60 200q4 10 8 13q4 7 14 10q9 5 26 7q24 2 43 2q31 0 51 -3q18 -3 30 -8q9 -5 12 -15q0 -13 -3 -20l-57 -193q55 -10 97 -26q43 -14 73 -37q16 -11 21 -21q5 -12 5 -22q0 -1 -2 -21q0 -4 -1.5 -15t-2.5 -18
q-2 -16 -8 -38q-3 -14 -11 -36q-5 -14 -13 -26q-8 -11 -17 -11q-13 0 -33 13q-14 8 -54 28q-30 14 -81 28q-46 13 -112 13q-61 0 -101 -15q-43 -15 -68 -39q-27 -25 -38 -55q-11 -33 -11 -64q0 -36 21 -61q20 -26 54 -47q40 -22 76 -38q58 -26 88 -39t88 -45q43 -27 76 -61
q34 -34 54 -82q21 -46 21 -110z" />
    <glyph glyph-name="percent" unicode="%" horiz-adv-x="1493" 
d="M767 1083q0 -26 -5 -79q-4 -37 -18 -96q-18 -61 -40 -100q-23 -48 -66 -90q-37 -37 -99 -64q-59 -24 -140 -24q-67 0 -114 16t-79 45q-30 29 -44 71q-15 44 -15 95q0 30 5 82q4 42 19 97q12 47 39 100q26 50 66 88q43 40 98 63q59 24 137 24q71 0 118 -17q47 -14 79 -46
q32 -30 45 -72q14 -44 14 -93zM571 1078q0 48 -17 69q-15 23 -58 23q-30 0 -53 -18q-24 -20 -41 -48q-19 -34 -28 -66q-11 -31 -19 -69q-7 -32 -10 -63q-3 -27 -3 -44q0 -49 18 -70t57 -21q32 0 55 19q24 18 41 46q19 35 28 64q11 37 18 70q7 34 9 63q3 29 3 45zM1418 436
q0 -28 -5 -78q-5 -49 -19 -98q-10 -40 -38 -100q-28 -50 -66 -88q-41 -40 -100 -64q-57 -25 -140 -25q-67 0 -114 16q-48 17 -78 45q-31 28 -46 72q-14 44 -14 94q0 30 5 82q4 41 19 98q14 50 40 100q25 50 66 88q40 38 98 62q57 24 136 24q65 0 118 -16q50 -18 80 -47
q31 -31 44 -72q14 -44 14 -93zM1222 431q0 45 -16 69q-18 23 -59 23q-31 0 -53 -19q-24 -19 -40 -48q-17 -27 -30 -64q-11 -37 -18 -70q-6 -29 -10 -62q-3 -30 -3 -45q0 -49 18 -70t57 -21q31 0 55 18q26 21 41 48q18 29 28 64q10 34 18 69q7 30 10 63q2 38 2 45zM294 7
q-11 -13 -22 -19q-11 -8 -28 -13q-19 -6 -36 -7q-26 -2 -50 -2q-66 0 -78 16q-14 15 12 44l1175 1263q12 12 23 19q13 9 26 13q22 6 37 7q28 2 50 2q34 0 53 -4q19 -5 26 -12t4 -19q-6 -14 -17 -25z" />
    <glyph glyph-name="ampersand" unicode="&#x26;" horiz-adv-x="1443" 
d="M949 111q-96 -62 -208 -97q-113 -38 -250 -38q-95 0 -175 21t-138 62q-58 40 -90 101q-33 58 -33 136q0 64 19 122q20 58 60 114q41 54 108 106q68 52 159 97q-26 46 -42 85q-18 43 -27 74q-5 19 -14 62q-4 38 -4 48q0 38 8 74q5 32 26 78q22 43 54 76q31 36 84 65
q52 29 123 45q73 17 167 17q109 0 184 -21q74 -20 120 -54t64 -76q20 -43 20 -89q0 -57 -20 -114q-19 -55 -68 -108q-50 -54 -128 -106q-77 -51 -199 -108q10 -15 29.5 -43t21.5 -30q42 -53 52 -66q9 -11 27 -32t27 -32q11 -11 31.5 -33.5t27.5 -29.5q40 51 64 101
q25 52 36 92q8 30 13 56q1 16 8 26q6 9 20 14q16 5 38 8q30 2 60 2q57 0 84 -6q28 -7 28 -24q0 -20 -10 -60q-8 -39 -24 -90q-15 -45 -38 -94q-26 -54 -52 -92q-27 -42 -61 -78q46 -42 81 -64q32 -20 59 -20q20 0 27 -7t7 -27q0 -11 -3 -32q-3 -16 -9 -46q-5 -24 -12 -44
q-8 -21 -16 -29q-9 -9 -31 -16q-20 -7 -47 -7q-21 0 -42 8q-23 6 -53 23q-39 23 -65 41q-33 22 -78 59zM633 835q83 38 133 71q49 30 79 62q27 29 37 56q10 26 10 53q0 14 -6 29q-5 15 -21 29q-15 14 -40 21q-27 8 -63 8q-57 0 -92 -16q-37 -17 -57 -40q-22 -23 -29 -50
q-8 -30 -8 -51q0 -15 3 -31q3 -17 9 -40q6 -17 18 -46q10 -24 27 -55zM514 567q-50 -27 -81 -53q-39 -32 -57 -58q-23 -27 -34 -62q-12 -33 -12 -68q0 -26 10 -54q13 -28 35 -48q25 -20 63 -32q38 -13 97 -13q28 0 63 5q38 7 64 16q39 13 60 24q24 10 52 30
q-12 13 -35.5 37.5t-34.5 36.5q-43 48 -66 76q-35 42 -64 80q-30 37 -60 83zM0 1294z" />
    <glyph glyph-name="quotesingle" unicode="'" horiz-adv-x="478" 
d="M421 910q-4 -19 -27 -32q-27 -10 -76 -10q-26 0 -43 3q-14 3 -27 8q-8 4 -12 13q-4 6 -2 18l67 447q2 22 31 31q28 11 94 11q67 0 89 -11q24 -9 19 -31z" />
    <glyph glyph-name="parenleft" unicode="(" horiz-adv-x="638" 
d="M720 1368q-103 -163 -179 -336q-71 -165 -119 -329q-47 -162 -66 -309q-21 -147 -21 -276q0 -46 3 -99q1 -47 8 -107q3 -36 13 -106q7 -52 18 -96q3 -19 1 -28q0 -12 -12 -19q-9 -7 -33 -12q-20 -4 -63 -4q-21 0 -47 2q-16 1 -31 5q-13 5 -18 10q-6 6 -7 12
q-35 116 -57 244q-21 129 -21 274q0 129 19 262q20 143 65 287q47 151 123 311q78 162 195 336q5 8 15 16q6 5 22 10q15 4 38 6q30 2 58 2q39 0 58 -4q24 -3 34 -10q12 -8 12 -18q1 -10 -8 -24z" />
    <glyph glyph-name="parenright" unicode=")" horiz-adv-x="638" 
d="M-54 -296q108 173 178 336q70 156 120 328q46 160 67 309t21 276q0 47 -3 100q-3 54 -9 107q-3 36 -13 106q-6 42 -19 95q-3 15 -1 28q1 12 13 20q11 8 34 11q19 4 63 4q34 0 47 -2q17 0 30 -5q12 -5 18 -9q6 -6 7 -12q35 -116 57 -244q21 -129 21 -275q0 -129 -19 -262
q-20 -143 -65 -287q-47 -150 -123 -311t-194 -335q-7 -9 -16 -16t-22 -10q-14 -5 -38 -7q-28 -2 -58 -2q-39 0 -59 4q-24 5 -33 11q-12 8 -12 18t8 24z" />
    <glyph glyph-name="asterisk" unicode="*" horiz-adv-x="1020" 
d="M999 1227q20 -53 16 -77q-5 -25 -24 -32l-256 -91l216 -94q19 -6 13 -29q-3 -20 -42 -72q-38 -52 -60 -62q-21 -11 -35 3l-168 158l-11 -251q2 -21 -22 -32q-25 -11 -81 -11q-57 0 -79 11q-20 11 -12 32l90 251l-223 -158q-20 -15 -39 -1t-39 64q-20 53 -16 76
q4 26 24 32l254 93l-213 88q-11 5 -14 12q-5 6 -3 21q1 12 12 32q13 22 29 42q16 21 35 40q16 15 27 20q9 7 20 5q8 -1 17 -10l164 -156l11 251q0 20 24 32q24 11 80 11q59 0 79 -11q20 -12 12 -32l-92 -251l231 161q18 14 37 -1q18 -14 38 -64z" />
    <glyph glyph-name="plus" unicode="+" horiz-adv-x="1020" 
d="M997 632q0 -2 -0.5 -9t-0.5 -12q-1 -3 -2.5 -14t-3.5 -18q-2 -12 -8 -36q-7 -22 -14 -33q-6 -15 -18 -24q-9 -10 -22 -10h-311l-69 -339q-2 -10 -8 -17q-7 -8 -20 -14q-16 -6 -34 -8q-20 -3 -50 -3q-29 0 -50 3q-19 3 -30 8q-11 6 -15 14q-4 5 -2 17l69 339h-310
q-14 0 -22 11t-8 37q0 12 2 21q0 9 4 31q3 14 8 34q8 22 14 32q6 13 16 23q10 9 22 9h313l68 338q1 10 9 18q8 10 20 14q14 6 34 9q21 3 50 3q30 0 50 -3t30 -9q11 -5 14 -14q4 -6 2 -18l-68 -338h313q14 0 21 -10t7 -32z" />
    <glyph glyph-name="comma" unicode="," horiz-adv-x="528" 
d="M369 221q0 -75 -31 -147q-30 -73 -88 -137l-172 -192q-18 -20 -46 -29q-32 -8 -79 -8q-29 0 -47 3q-16 3 -24 9q-7 4 -5 15q1 7 10 25l176 276l30 148q7 34 18 55t29 32q16 10 43 15q26 3 64 3q36 0 60 -3q25 -5 37 -12q14 -8 20 -22q5 -15 5 -31z" />
    <glyph glyph-name="hyphen" unicode="-" horiz-adv-x="627" 
d="M583 561q0 -2 -0.5 -9t-0.5 -13q-1 -3 -2.5 -14.5t-3.5 -18.5q-6 -24 -10 -36q-4 -13 -14 -35q-6 -13 -19 -26q-10 -10 -25 -10h-416q-18 0 -26 11q-7 10 -7 35q0 13 1 23q2 22 4 34q8 31 10 36q4 12 14 34q7 14 19 24q11 9 26 9h416q18 0 27 -11q7 -14 7 -33z" />
    <glyph glyph-name="period" unicode="." horiz-adv-x="547" 
d="M362 198q0 -15 -3 -39q-3 -26 -9 -49q-9 -31 -18 -50q-9 -23 -26 -38q-14 -15 -46 -26q-30 -9 -80 -9q-36 0 -62 6q-25 6 -38 18q-15 12 -21 31q-6 18 -6 43q0 16 3 40q7 36 10 49q9 32 18 49q9 22 26 39q16 15 45 24q27 10 81 10q40 0 64 -7q26 -8 39 -19q13 -13 19 -32
q4 -24 4 -40z" />
    <glyph glyph-name="slash" unicode="/" horiz-adv-x="889" 
d="M118 -259q-8 -15 -18 -21q-10 -8 -27 -13q-21 -6 -40 -7q-23 -3 -55 -3q-47 0 -70 4q-26 5 -38 12q-14 7 -12 21q0 11 8 29l934 1679q8 14 17 22q13 10 27 13q19 6 40 7q23 3 55 3q46 0 69 -4q26 -4 40 -12q12 -7 12 -21q0 -12 -9 -29z" />
    <glyph glyph-name="zero" unicode="0" horiz-adv-x="1038" 
d="M1048 926q0 -50 -6 -118q-7 -75 -20 -141q-11 -66 -34 -153q-17 -67 -49 -152q-28 -71 -67 -138q-38 -64 -85 -112q-59 -59 -149 -98q-86 -37 -209 -37q-100 0 -169 27q-70 27 -114 78q-45 51 -64 123q-20 75 -20 165q0 48 6 116q7 76 20 140q11 66 34 153q19 78 50 151
q25 65 66 139q41 68 86 113q28 28 67 56q43 28 81 42q43 17 97 28q52 9 112 9q105 0 173 -28q70 -28 114 -79q42 -49 62 -123q18 -72 18 -161zM787 922q0 97 -33 142t-109 45q-42 0 -75 -15q-32 -15 -60 -41q-31 -31 -57 -86q-27 -56 -47 -119q-21 -65 -36 -137
q-7 -35 -26 -137q-14 -100 -16 -118q-5 -60 -5 -84q0 -96 33 -141q34 -45 109 -45q41 0 75 14q34 15 60 41q32 32 57 85q27 59 47 120q20 63 36 136q17 74 26 136q11 61 16 120q5 58 5 84z" />
    <glyph glyph-name="one" unicode="1" horiz-adv-x="1038" 
d="M878 161q0 -12 -2 -22q0 -9 -4 -33q-3 -13 -9 -37q-5 -19 -13 -34q-6 -15 -17 -25q-10 -10 -21 -10h-715q-12 0 -20 11q-7 10 -7 33q0 12 2 22q0 8 4 32q8 31 10 36q2 9 12 34q10 18 18 25q10 10 23 10h240l166 831l-232 -115q-21 -10 -33 -11q-13 -3 -20 0q-7 4 -10 13
q-2 12 -2 24q0 7 2 37q3 25 10 50q8 26 18 47q11 21 29 31l317 180q8 4 15 6q10 4 21 4q8 2 32 2q13 1 51 1q14 0 34.5 -0.5t26.5 -0.5q29 -4 34 -6q13 -3 14 -9q2 -8 1 -15l-213 -1069h213q13 0 19 -11q6 -9 6 -31z" />
    <glyph glyph-name="two" unicode="2" horiz-adv-x="1038" 
d="M891 163q0 -2 -0.5 -9.5t-0.5 -13.5q-1 -3 -2.5 -14.5t-3.5 -18.5q-6 -24 -10 -37q-2 -9 -12 -34q-10 -18 -18 -26q-9 -10 -22 -10h-744q-20 0 -33 3q-14 3 -21 10q-9 9 -11 17q-3 10 -3 24t3 40q3 24 12 56q8 28 27 62q22 33 49 58l305 267q60 54 104 101q42 44 76 87
q33 42 50 75q19 31 31 64q11 28 15 54q3 24 3 43t-6 40t-21 39q-16 18 -42 28q-26 12 -67 12q-54 0 -101 -16q-51 -16 -87 -34q-41 -19 -67 -34q-27 -15 -39 -15q-13 0 -19 12q-5 13 -5 33q0 13 1 22q3 23 4 31q0 5 1 11t2.5 13t2.5 11q2 5 10 36q3 11 12 32q11 18 18 25
q11 11 48 31q32 18 84 36t110 30q59 13 124 13q104 0 175 -27q70 -25 111 -68q42 -42 58 -92q17 -51 17 -98q0 -37 -7 -88q-10 -51 -26 -92q-20 -49 -52 -100q-34 -53 -84 -110q-44 -53 -122 -128q-75 -70 -168 -146l-184 -155h493q17 0 25 -15q7 -14 7 -35z" />
    <glyph glyph-name="three" unicode="3" horiz-adv-x="1038" 
d="M934 423q0 -47 -12 -98t-40 -101q-27 -48 -70 -94q-45 -45 -107 -79q-63 -35 -147 -54q-88 -20 -193 -20q-45 0 -93 5q-47 6 -86 16q-32 7 -74 22q-41 18 -61 30q-16 10 -25 25q-7 13 -7 36q0 2 0.5 9.5t0.5 13.5q1 5 2.5 16t2.5 16q4 24 7 36q5 21 10 34q6 17 14 26
q6 9 17 9t33 -13q10 -6 56 -29q32 -15 83 -29q46 -13 111 -13q68 0 122 19q54 22 86 52q35 30 50 71q17 38 17 81q0 31 -11 61q-12 28 -40 49q-28 20 -72 32t-111 12h-123q-20 0 -28 8q-9 9 -9 30q0 2 0.5 9t0.5 13q0 2 2 14t4 18q3 18 9 35q1 3 13 33q9 14 18 24q12 9 24 9
h112q69 0 120 19q54 19 90 50q33 27 56 72q19 44 19 89q0 55 -34 89q-35 33 -114 33q-53 0 -101 -16q-54 -18 -88 -35q-51 -24 -69 -35q-28 -16 -41 -16q-12 0 -18 11q-5 10 -5 28q0 10 3 31q1 18 8 45q4 23 14 48q11 25 22 36q13 11 46 31q34 19 83 37q50 18 109 30
q59 13 126 13q86 0 156 -19q70 -22 110 -56q43 -33 65 -86q21 -49 21 -112q0 -62 -20 -124q-21 -59 -60 -109q-37 -49 -94 -85q-55 -37 -125 -53v-3q68 -8 109 -32q42 -23 73 -58q27 -34 41 -76q12 -40 12 -81z" />
    <glyph glyph-name="four" unicode="4" horiz-adv-x="1038" 
d="M985 432q0 -4 -2 -24q-1 -9 -5 -34q-6 -24 -10 -37q-7 -21 -14 -35q-5 -13 -16 -24q-10 -10 -21 -10h-115l-47 -234q-1 -6 -9 -18q-14 -9 -24 -12q-18 -5 -40 -8q-34 -2 -62 -2q-29 0 -61 2q-21 3 -37 8q-9 3 -18 12q-3 10 -2 18l46 234h-493q-25 0 -35 10q-10 11 -10 37
q0 4 2 26q2 17 6 39q8 35 10 45q8 32 14 47q5 18 16 45q9 21 20 35l546 713q8 9 22 15q8 5 38 12q39 5 58 6q44 2 81 2q39 0 87 -2q31 -3 56 -8q20 -6 28 -14q9 -7 7 -19l-156 -779h114q13 0 19 -12q7 -11 7 -34zM707 1064h-2l-451 -586h337z" />
    <glyph glyph-name="five" unicode="5" horiz-adv-x="1038" 
d="M941 496q0 -64 -15 -129q-17 -68 -48 -121q-28 -55 -80 -107q-48 -48 -114 -85q-68 -37 -150 -56q-82 -21 -185 -21q-38 0 -85 5q-39 4 -82 14q-34 7 -72 20q-32 10 -58 24q-16 8 -21 18q-6 9 -6 30q0 2 0.5 9t0.5 13q1 3 2.5 15.5t3.5 20.5q5 28 8 39q3 16 10 37
q9 20 16 28q8 11 19 11t30 -12q21 -13 51 -25q29 -13 77 -26q47 -11 105 -11q76 0 134 21t96 58q38 34 60 86q19 52 19 107q0 29 -9 53q-11 28 -36 46q-25 20 -68 32q-44 11 -108 11q-65 0 -116 -6q-53 -6 -94 -6q-30 0 -40 15q-9 13 -1 53l112 562q7 41 27 57q19 18 53 18
h613q14 0 22 -11q6 -11 6 -32q0 -5 -2 -27q-2 -18 -6 -37q-7 -31 -10 -41q-6 -19 -14 -38q-8 -18 -18 -28q-11 -11 -23 -11h-460l-55 -277q50 4 61 5q34 2 57 2q103 0 180 -23q76 -23 122 -63q46 -41 69 -96q22 -54 22 -121z" />
    <glyph glyph-name="six" unicode="6" horiz-adv-x="1038" 
d="M977 532q0 -53 -11 -108q-8 -54 -34 -122q-25 -62 -64 -120q-40 -59 -100 -104q-57 -44 -142 -74q-84 -27 -191 -27q-95 0 -164 26q-65 25 -109 73q-42 48 -60 115q-19 66 -19 150q0 41 4 96q5 66 16 136q13 83 35 159q20 80 58 167q34 80 86 159q52 77 122 132
q66 56 162 92q90 34 208 34q74 0 130 -10q61 -11 100 -26q23 -9 32 -20q8 -13 8 -31q0 -11 -2 -21q0 -8 -4 -30q-1 -9 -7 -36q-4 -15 -11 -33q-8 -15 -16 -25q-7 -10 -19 -10q-13 0 -30 6q-17 8 -43 15q-27 9 -60 14q-33 6 -81 6q-80 0 -143 -29q-61 -30 -108 -80
q-44 -48 -76 -117q-30 -67 -48 -141q53 29 118 48q64 19 148 19q88 0 146 -23q59 -21 97 -61q39 -41 55 -91q17 -53 17 -108zM715 491q0 27 -8 51q-7 22 -25 40q-16 17 -42 24q-27 9 -63 9q-32 0 -56 -5q-24 -2 -57 -13q-29 -10 -53 -21q-34 -18 -50 -27q-14 -64 -18 -113
q-5 -53 -5 -88q0 -92 36 -130q34 -39 103 -39q41 0 76 15q36 17 61 41q26 26 45 58q17 29 31 67q13 35 19 69q6 35 6 62z" />
    <glyph glyph-name="seven" unicode="7" horiz-adv-x="1038" 
d="M1106 1249q0 -15 -3 -39q-3 -30 -11 -57q-5 -27 -20 -65q-14 -34 -33 -66l-623 -986q-9 -14 -21 -21q-15 -9 -31 -13q-26 -6 -46 -6q-19 -2 -67 -2q-57 0 -85 4q-30 3 -46 11q-14 8 -14 19q2 13 12 29l659 1009h-537q-14 0 -20 12q-6 10 -6 34q0 14 2 24q0 15 5 38
q7 31 10 41q5 17 14 39q8 19 19 29q9 11 23 11h770q27 0 39 -10q10 -11 10 -35z" />
    <glyph glyph-name="eight" unicode="8" horiz-adv-x="1038" 
d="M956 384q0 -39 -10 -80q-9 -43 -32 -90q-23 -45 -63 -88q-38 -42 -98 -76q-54 -32 -141 -54q-86 -19 -189 -19q-100 0 -175 21q-72 21 -123 59q-49 37 -73 91q-25 50 -25 116q0 67 23 122q21 57 64 106q39 46 104 93q61 42 140 80q-86 53 -124 116q-38 65 -38 141
q0 42 12 90q10 45 36 90q25 43 62 82q39 40 94 70q57 30 125 46q73 17 161 17q106 0 178 -24q70 -24 111 -61q43 -41 57 -85q17 -44 17 -94q0 -68 -22 -124q-23 -59 -61 -104q-43 -49 -93 -85q-53 -39 -114 -69q51 -30 90 -65q36 -30 61 -68q25 -35 35 -74q11 -39 11 -80z
M793 1017q0 22 -7 39q-7 20 -23 36q-17 15 -43 24q-27 9 -66 9q-55 0 -94 -17q-36 -15 -64 -43q-25 -26 -35 -59q-11 -35 -11 -63q0 -17 4 -45q7 -23 19 -40q15 -22 39 -40q28 -22 66 -44q55 27 93 52q38 24 67 56q28 33 41 64q14 34 14 71zM692 368q0 26 -7 47
q-8 25 -25 46q-19 24 -48 47q-34 26 -74 49q-68 -32 -121 -65q-48 -33 -76 -64q-28 -32 -40 -66q-12 -33 -12 -69q0 -25 9 -47q8 -23 28 -39q17 -16 52 -27q32 -9 81 -9q63 0 105 16q47 18 72 43q30 29 42 64q14 32 14 74z" />
    <glyph glyph-name="nine" unicode="9" horiz-adv-x="1038" 
d="M138 762q0 51 10 108q11 61 34 122q25 62 64 120q42 59 100 104q60 45 143 74q83 27 190 27q95 0 164 -26q65 -25 109 -73q41 -47 61 -115q19 -66 19 -150q0 -42 -4 -95q-5 -66 -16 -136q-16 -89 -36 -160q-20 -80 -58 -168q-38 -84 -90 -158q-50 -71 -126 -133
q-73 -57 -170 -92q-95 -34 -218 -34q-38 0 -73 3q-41 5 -63 10q-36 7 -54 14q-12 3 -46 15q-23 9 -32 20q-8 11 -8 30q0 11 2 20q0 9 4 31q4 24 8 36q2 15 10 34q7 16 16 26q8 9 19 9q15 0 33 -7l13.5 -4.5l18 -6l16.5 -5.5q32 -8 67 -15t85 -7q82 0 150 28q67 32 110 79
q45 47 78 117q29 65 49 142q-51 -28 -117 -48q-64 -19 -148 -19q-89 0 -146 23q-59 21 -96 61q-38 39 -55 91q-17 53 -17 108zM399 803q0 -27 8 -51q8 -26 25 -40q13 -16 42 -26q29 -8 63 -8q17 0 57 4q39 9 56 14q31 10 53 22q23 11 50 26q12 63 18 114q6 50 6 88
q0 92 -36 131t-104 39q-41 0 -76 -15t-61 -41q-24 -23 -45 -58q-18 -30 -31 -68q-12 -34 -18 -69q-7 -32 -7 -62z" />
    <glyph glyph-name="colon" unicode=":" horiz-adv-x="565" 
d="M506 790q-7 -39 -20 -70q-13 -27 -32 -46q-22 -19 -49 -26q-30 -8 -69 -8q-40 0 -66 8q-25 7 -39 26q-12 17 -14 46q-1 26 8 70q7 42 21 72q13 31 32 47q19 19 48 26q29 8 69 8q39 0 66 -8q25 -7 39 -26q12 -17 14 -47q1 -28 -8 -72zM376 137q-7 -38 -20 -71
q-14 -29 -33 -46q-21 -18 -49 -25q-30 -8 -69 -8q-36 0 -67 7q-26 10 -38 26q-12 15 -14 46q0 25 8 71q7 41 20 71q13 31 32 47q19 19 48 26q29 8 69 8t67 -8q26 -8 38 -26q14 -19 14 -47q2 -24 -6 -71z" />
    <glyph glyph-name="semicolon" unicode=";" horiz-adv-x="565" 
d="M507 791q-7 -40 -21 -71q-13 -30 -32 -46q-18 -17 -48 -26q-30 -8 -70 -8t-66 8q-25 7 -39 26q-12 15 -14 46q-1 25 8 71t21 74q14 28 32 47q21 16 48 24q28 7 70 7q41 0 68 -9q24 -8 38 -26q11 -17 13 -47q1 -27 -8 -70zM391 221q0 -73 -33 -147q-30 -70 -89 -137
l-171 -188q-8 -10 -20 -17q-3 -3 -24 -12q-28 -6 -34 -6q-24 -2 -43 -2q-23 0 -47 2q-16 3 -22 9t-3 16q2 9 11 24l174 273l30 148q8 37 17 55q11 23 27 32q15 11 42 15q24 3 63 3q37 0 59 -3q25 -5 38 -12q15 -10 20 -22q5 -15 5 -31z" />
    <glyph glyph-name="less" unicode="&#x3c;" horiz-adv-x="1020" 
d="M1026 1032q0 -25 -6 -58q-4 -20 -16 -60q-14 -32 -25 -50q-12 -20 -31 -29l-623 -263l512 -266q31 -16 31 -50q0 -8 -2 -34q-2 -20 -6 -42q-6 -28 -10 -41q-6 -18 -14 -35q-9 -15 -20 -21t-23 1l-689 381q-9 4 -16 16q-5 12 -5 32q0 18 3 45q4 27 12 54q7 23 20 48
q11 21 29 29l834 377q24 10 35 2q10 -8 10 -36z" />
    <glyph glyph-name="equal" unicode="=" horiz-adv-x="1020" 
d="M922 428q0 -12 -2 -21q0 -7 -4 -31q-2 -10 -8 -34q-4 -15 -13 -31q-8 -15 -19 -23q-9 -9 -24 -9h-762q-15 0 -24 10q-8 11 -8 35q0 15 4 36q2 21 11 50q6 20 21 42q15 19 34 19h763q17 0 23 -11q8 -9 8 -32zM1003 832q0 -2 -0.5 -9t-0.5 -12q-1 -5 -2.5 -16.5t-2.5 -14.5
q-2 -10 -8 -34q-4 -15 -13 -31q-7 -13 -19 -23q-10 -10 -24 -10h-762q-15 0 -23 10q-9 12 -9 36q0 12 3 36q4 23 12 49t22 43q12 18 32 18h763q15 0 25 -10q7 -14 7 -32z" />
    <glyph glyph-name="greater" unicode="&#x3e;" horiz-adv-x="1020" 
d="M37 121q0 24 5 57q5 26 16 60q12 30 26 51q12 21 31 29l623 263l-512 266q-32 17 -32 50q0 8 2 34q2 20 6 41q5 27 10 42q8 23 16 36q7 13 18 20t24 0l689 -382q10 -6 15 -16q6 -12 6 -32t-4 -44q-3 -26 -11 -54q-7 -26 -21 -49q-11 -21 -29 -29l-834 -377
q-24 -11 -34 -2t-10 36z" />
    <glyph glyph-name="question" unicode="?" horiz-adv-x="949" 
d="M973 1049q0 -81 -23 -153q-20 -72 -70 -136q-51 -62 -125 -101q-77 -41 -183 -51l-46 -191q-4 -18 -34 -27t-83 -9q-11 0 -29 0.5t-25 0.5q-28 4 -35 6q-13 4 -17 11q-4 6 -2 18l37 236q4 31 14 52q8 20 21 32q11 10 29 17q24 4 38 4h8q71 0 122 24q51 27 79 62
q29 37 43 82q13 42 13 84q0 36 -11 69q-11 34 -34 55q-20 23 -56 37q-33 13 -80 13q-53 0 -95 -11q-44 -11 -71 -25q-26 -10 -50 -24q-21 -12 -31 -12q-8 0 -15 10q-4 16 -4 35q0 3 2 31q2 15 8 45q1 7 12 44q10 23 19 32q14 14 42 25q28 14 70 25q41 11 85 18q42 7 88 7
q79 0 134 -14q54 -11 101 -37q41 -23 73 -56q26 -29 48 -69q16 -35 26 -78q7 -49 7 -81zM509 194q0 -21 -4 -42q-6 -32 -11 -48q-6 -26 -16 -46q-10 -22 -22 -35q-17 -17 -49 -29q-29 -9 -75 -9q-33 0 -60 5q-22 6 -37 17q-13 11 -18 27q-5 17 -5 35q0 17 3 39q3 26 10 49
q9 32 17 47q8 22 23 37q22 22 51 31q32 8 72 8t62 -6q23 -7 37 -18q14 -13 17 -28q5 -14 5 -34z" />
    <glyph glyph-name="at" unicode="@" horiz-adv-x="1840" 
d="M1755 847q0 -65 -11 -132q-9 -70 -34 -151q-22 -77 -62 -152q-39 -74 -96 -132q-55 -58 -132 -94q-76 -35 -173 -35q-51 0 -89 13q-37 11 -68 34q-27 24 -42 55q-14 30 -16 72q-32 -44 -70 -75q-37 -32 -81 -55q-41 -22 -85 -33q-47 -11 -83 -11q-45 0 -83 11
q-34 11 -58 29q-25 17 -40 42q-15 24 -24 51q-8 28 -11 54q-3 27 -3 52q0 47 11 113q10 60 35 129q23 66 59 126q34 60 87 111q49 49 114 79q66 29 144 29q36 0 63 -7q29 -8 55 -22q30 -20 48 -40q26 -27 47 -60l24 79q6 18 27 27t73 9q53 0 71 -9q17 -9 11 -27l-136 -431
q-28 -86 -13 -122q12 -38 66 -38q42 0 76 24q36 26 64 66q29 42 49 92q23 55 35 106q14 54 21 108q7 49 7 97q0 65 -20 127q-22 59 -72 102q-49 43 -136 69q-84 25 -216 25q-124 0 -226 -29t-177 -79q-76 -48 -133 -114q-55 -64 -95 -136q-40 -73 -63 -146q-25 -71 -39 -140
q-13 -63 -19 -122q-4 -74 -4 -90q0 -53 8 -96q5 -39 26 -86q21 -41 52 -73q33 -33 84 -57q49 -23 122 -37q68 -13 166 -13q80 0 146 9q52 7 110 19q61 15 76 20q29 10 42 10q16 0 20 -10q5 -10 5 -25q0 -16 -4 -35q-6 -30 -10 -44q-5 -21 -15 -42q-6 -17 -17 -29
q-10 -10 -43 -20q-36 -11 -85 -21q-50 -9 -116 -15q-65 -6 -137 -6q-125 0 -228 19q-102 22 -171 56q-71 34 -121 84q-49 51 -77 108q-30 62 -41 128q-12 66 -12 138q0 62 9 138t32 164q23 87 60 176q40 96 93 174q52 83 131 160q80 78 176 130q99 56 225 88q126 33 281 33
q162 0 284 -35q121 -35 198 -100q79 -64 116 -156q38 -91 38 -203zM1071 688q-23 51 -53 77q-29 26 -69 26t-71 -19q-32 -20 -58 -50q-25 -32 -44 -69q-15 -31 -32 -77q-13 -37 -19 -76q-6 -36 -6 -62q0 -50 17 -76q18 -24 56 -24q28 0 66 20q35 20 73 56q37 37 66 82
q30 45 45 97zM0 1294z" />
    <glyph glyph-name="A" unicode="A" horiz-adv-x="1241" 
d="M1126 98q5 -41 4 -57q0 -23 -14 -31q-11 -11 -44 -14q-42 -2 -85 -2q-46 0 -62 2q-22 0 -37 5q-14 5 -18 12t-6 22l-35 260h-486l-134 -254q-9 -16 -16 -23q-9 -10 -26 -15q-21 -6 -45 -7q-40 -2 -72 -2q-45 0 -72 3q-25 3 -34 15q-8 11 -2 32q10 27 26 56l628 1148
q12 19 20 28q13 11 28 16q26 6 50 6q22 2 83 2q71 0 93 -2q28 0 54 -6q19 -6 25 -17q7 -12 8 -30zM733 1047h-1l-289 -550h364z" />
    <glyph glyph-name="B" unicode="B" horiz-adv-x="1148" 
d="M1107 1030q0 -61 -17 -112q-15 -51 -48 -96q-30 -43 -76 -76q-44 -34 -99 -54q41 -7 81 -28q37 -19 64 -51q27 -34 40 -73q15 -44 15 -96q0 -49 -13 -100q-14 -53 -41 -100q-28 -50 -73 -94t-108 -78q-68 -35 -147 -52q-79 -20 -193 -20h-359q-41 0 -59 20q-19 19 -10 63
l226 1128q8 45 36 63q26 20 63 20h311q105 0 178 -16q75 -16 126 -48q51 -33 77 -82q26 -52 26 -118zM836 981q0 29 -10 49q-10 21 -30 36q-20 16 -50 23q-34 8 -78 8h-143l-68 -336h148q65 0 108 21q40 18 71 52q26 32 40 72q12 39 12 75zM792 431q0 63 -48 101
q-46 37 -151 37h-175l-73 -368h186q70 0 119 20q49 19 80 52q31 29 47 73q15 42 15 85z" />
    <glyph glyph-name="C" unicode="C" horiz-adv-x="1062" 
d="M1145 1169q0 -29 -9 -75q-10 -45 -24 -76q-16 -28 -33 -28q-12 0 -31 16q-12 12 -47 36q-23 15 -74 36q-48 16 -112 16q-73 0 -135 -30q-61 -28 -109 -78q-48 -48 -84 -111q-37 -64 -59 -131q-24 -68 -36 -136q-11 -69 -11 -125q0 -69 17 -123q19 -54 51 -88
q34 -36 81 -52q48 -18 108 -18q71 0 122 15t86 33q39 20 58 33q24 15 43 15q14 0 17 -10q5 -8 5 -26q0 -3 -2 -21q-1 -9 -5 -31q-5 -28 -7 -38q-5 -23 -9 -38q-5 -19 -12 -32q-6 -15 -17 -26q-11 -12 -43 -28q-32 -18 -78 -33q-53 -17 -104 -25q-54 -11 -124 -11
q-107 0 -196 29q-85 28 -149 88q-60 57 -94 148q-33 88 -33 208q0 95 19 194q20 101 57 196q39 95 98 182q60 88 140 150q78 65 182 103q105 38 228 38q70 0 132 -15q60 -13 110 -38q48 -26 64 -44q19 -18 19 -49z" />
    <glyph glyph-name="D" unicode="D" horiz-adv-x="1291" 
d="M1270 826q0 -67 -8 -127q-5 -56 -24 -137q-18 -69 -48 -138q-28 -66 -73 -130q-43 -63 -105 -117q-61 -55 -139 -93q-76 -39 -178 -62q-97 -22 -236 -22h-329q-18 0 -30 4q-16 5 -24 14q-9 8 -14 25q-3 15 2 40l226 1128q8 45 35 63q26 20 64 20h312q155 0 257 -30
q102 -29 174 -89q67 -57 104 -147q34 -90 34 -202zM994 795q0 61 -17 117q-16 52 -55 93q-36 38 -98 61q-57 22 -159 22h-137l-177 -880h138q108 0 177 26q68 23 126 70q53 43 92 102q38 59 64 124q25 66 35 133q11 71 11 132z" />
    <glyph glyph-name="E" unicode="E" horiz-adv-x="999" 
d="M1056 1256q0 -11 -2 -21q0 -9 -4 -33q-2 -13 -8 -39q-1 -3 -12 -37q-12 -20 -18 -27q-13 -11 -23 -11h-462l-64 -316h392q14 0 20 -10t6 -28q0 -2 -0.5 -9t-0.5 -13q-1 -5 -2.5 -16.5t-2.5 -15.5q-2 -10 -8 -38q-4 -19 -13 -35q-5 -14 -17 -26q-10 -10 -22 -10h-391
l-74 -365h468q11 0 18 -10q6 -12 6 -31q0 -12 -1 -22q-2 -22 -5 -33q-2 -10 -8 -38q-1 -6 -3 -12t-5 -13t-4 -11q-12 -20 -18 -26q-10 -10 -23 -10h-650q-11 0 -29 4q-15 7 -22 16q-8 10 -11 26t1 37l226 1128q9 45 36 63q26 20 60 20h644q26 0 26 -38z" />
    <glyph glyph-name="F" unicode="F" horiz-adv-x="940" 
d="M1018 1252q0 -11 -2 -22q0 -8 -4 -34q-6 -26 -9 -40q-5 -22 -13 -38q-6 -17 -17 -28t-23 -11h-423l-70 -348h398q14 0 20 -11q6 -10 6 -29q0 -1 -2 -23q0 -4 -5 -34q-7 -29 -10 -38q-1 -6 -12 -38q-13 -23 -18 -27q-11 -11 -23 -11h-395l-96 -483q-2 -10 -10 -19
q-8 -8 -24 -13q-22 -6 -43 -8q-25 -3 -64 -3t-63 3q-23 3 -39 8q-14 5 -19 13t-2 19l234 1174q9 45 36 63q26 20 60 20h606q16 0 22 -11q4 -14 4 -31z" />
    <glyph glyph-name="G" unicode="G" horiz-adv-x="1305" 
d="M1312 1156q0 -15 -2 -26q0 -10 -4 -34q-2 -7 -5 -19t-4 -19q-5 -18 -12 -33q-7 -13 -15 -25q-9 -9 -18 -9q-14 0 -42 17q-33 20 -70 38q-46 22 -105 38q-63 17 -147 17q-87 0 -156 -25q-70 -24 -130 -66q-62 -47 -102 -100q-44 -58 -76 -124q-30 -66 -45 -137t-15 -140
q0 -78 22 -135q22 -58 64 -97q41 -39 100 -59q60 -20 132 -20q51 0 97 10q49 11 89 30l60 299h-244q-12 0 -19 9q-7 10 -7 31q0 4 2 26q2 17 6 33q2 12 8 36q3 11 12 32q12 18 17 23q9 9 20 9h437q34 0 47 -22t6 -62l-104 -518q-5 -22 -10 -32q-6 -15 -16 -25
q-9 -10 -51 -29q-49 -18 -98 -32q-56 -16 -128 -27q-74 -11 -145 -11q-137 0 -245 32q-106 31 -178 96q-70 63 -108 155q-37 90 -37 212q0 106 23 212q23 100 70 197q48 94 116 174q68 78 158 137q90 58 202 91q113 32 243 32q73 0 138 -12q67 -11 117 -28q50 -15 86 -35
t46 -29q12 -12 16 -24t4 -32z" />
    <glyph glyph-name="H" unicode="H" horiz-adv-x="1292" 
d="M1064 35q-1 -9 -10 -18t-24 -13q-20 -5 -42 -8q-34 -2 -64 -2q-29 0 -63 2q-20 2 -39 8q-13 5 -18 13t-2 18l104 524h-484l-104 -524q-1 -9 -10 -18q-8 -8 -24 -13q-22 -6 -42 -8q-36 -2 -64 -2q-30 0 -64 2q-22 3 -38 8q-14 5 -19 13t-2 18l245 1224q2 11 9 18
q9 9 24 13q20 5 42 8q34 2 64 2q29 0 63 -2q23 -3 39 -8q12 -4 19 -13q3 -8 2 -18l-95 -476h485l94 476q1 9 10 18t24 13q20 5 42 8q34 2 64 2q29 0 63 -2q23 -3 39 -8q15 -5 18 -13q5 -6 3 -18z" />
    <glyph glyph-name="I" unicode="I" horiz-adv-x="546" 
d="M319 35q-1 -9 -10 -18t-25 -13q-17 -5 -42 -8q-34 -2 -64 -2t-64 2q-22 3 -38 8q-14 5 -19 13t-2 18l245 1224q2 11 10 18q8 8 24 13q22 6 42 8q36 2 64 2q30 0 62 -2q22 -3 40 -8q15 -5 18 -13q5 -6 3 -18z" />
    <glyph glyph-name="J" unicode="J" horiz-adv-x="678" 
d="M515 344q-15 -75 -46 -150q-28 -66 -75 -114q-49 -49 -112 -74q-67 -26 -155 -26q-50 0 -89 7q-45 8 -70 19q-24 10 -36 22q-7 14 -7 30q0 3 2 25q2 17 6 38q1 7 4 21.5t5 21.5q6 23 13 42q7 18 15 30q8 11 16 11q13 0 23 -6q21 -12 23 -13q12 -8 32 -14q18 -7 48 -7
t53 9q24 8 39 26q16 18 29 48q13 31 20 72l181 898q1 9 10 18q8 8 24 12q17 5 42 8q34 2 64 2q28 0 62 -2q21 -1 38 -7q16 -5 20 -13q6 -6 4 -18z" />
    <glyph glyph-name="K" unicode="K" horiz-adv-x="1120" 
d="M1223 1258q0 -19 -13 -38q-16 -24 -42 -52l-458 -485l272 -577q5 -13 12 -34q4 -13 4 -27t-6 -23q-7 -10 -23 -16q-17 -6 -43 -9q-28 -3 -70 -3q-34 0 -68 2q-24 3 -41 8q-14 4 -22 14q-6 7 -11 21l-274 613l-121 -616q-2 -11 -10 -18q-7 -8 -25 -14q-18 -5 -42 -8
q-32 -2 -63 -2t-63 2q-23 3 -39 8q-15 7 -19 14q-5 7 -2 18l244 1223q1 10 9 19q10 8 25 12q18 5 42 8q32 2 64 2q30 0 62 -2q23 -3 39 -8q13 -4 19 -12q4 -9 3 -19l-110 -553l480 549q11 12 21 21q13 10 30 14q21 5 44 8q34 2 65 2q33 0 65 -2q24 -3 40 -8q15 -7 20 -14
t5 -18z" />
    <glyph glyph-name="L" unicode="L" horiz-adv-x="866" 
d="M788 177q0 -12 -2 -23q0 -9 -4 -35q-7 -31 -10 -41q-3 -12 -12 -38q-11 -22 -18 -29q-11 -11 -23 -11h-593q-10 0 -30 4q-16 8 -22 16q-8 10 -11 26t1 37l236 1176q2 11 9 18q9 9 25 13q18 5 42 8q32 2 64 2q29 0 63 -2q23 -3 39 -8q15 -5 18 -13q5 -6 3 -18l-208 -1042
h408q14 0 19 -11q6 -10 6 -29z" />
    <glyph glyph-name="M" unicode="M" horiz-adv-x="1790" 
d="M1563 35q-3 -11 -9 -18q-7 -9 -20 -13q-18 -5 -40 -8q-34 -2 -62 -2q-31 0 -63 2q-21 3 -37 8q-12 4 -16 13q-4 6 -2 18l210 1053h-2l-587 -1052q-12 -25 -47 -34q-35 -8 -97 -8q-66 0 -93 12q-28 10 -30 28l-152 1055h-2l-211 -1054q-1 -11 -9 -18q-7 -9 -20 -13
q-18 -5 -40 -8q-32 -2 -62 -2t-62 2q-21 3 -37 8q-12 4 -17 13q-4 7 -1 18l230 1153q4 20 15 45q15 24 26 33q14 12 36 21q18 7 43 7h164q47 0 75 -8q30 -6 51 -25q18 -17 31 -47q10 -30 14 -70l125 -770h5l444 770q14 28 40 68q20 28 44 46q25 19 55 28q32 8 71 8h186
q26 0 43 -7q18 -8 29 -21q10 -14 12 -32q3 -22 -1 -45z" />
    <glyph glyph-name="N" unicode="N" horiz-adv-x="1344" 
d="M1127 92q-5 -23 -15 -41q-12 -19 -28 -30q-16 -13 -34 -17q-18 -6 -38 -6h-112q-38 0 -59 7q-25 8 -39 25q-16 16 -30 49q-14 32 -27 79l-191 578q-20 60 -40 135q-20 67 -36 135h-2q-13 -98 -23 -156q-20 -112 -29 -153l-132 -661q-2 -11 -10 -18q-7 -8 -22 -13
q-18 -5 -38 -8q-24 -3 -59 -3q-36 0 -57 3q-20 3 -35 8q-12 4 -15 13q-4 7 -1 18l233 1164q9 47 41 70q31 24 72 24h137q36 0 56 -8q25 -6 40 -24q14 -12 30 -42q13 -27 23 -64l193 -583q17 -49 34 -111q5 -18 16 -55t17 -55h2q12 85 25 148q4 28 27 149l123 610q2 11 9 17
q7 9 21 12q11 4 38 8q30 2 58 2t58 -2q26 -3 35 -8q11 -3 16 -12q4 -5 2 -17z" />
    <glyph glyph-name="O" unicode="O" horiz-adv-x="1369" 
d="M1345 861q0 -91 -16 -188q-16 -100 -51 -199q-37 -100 -94 -188q-59 -91 -141 -158q-84 -70 -195 -110q-114 -41 -255 -41q-121 0 -213 27t-156 83q-64 55 -96 141q-33 86 -33 200q0 100 17 196q14 98 52 202q38 100 96 187q59 89 142 157q82 67 194 108q111 39 252 39
q121 0 214 -27q92 -29 155 -84q63 -57 95 -143q33 -85 33 -202zM1067 836q0 58 -13 110q-15 50 -44 84t-78 52q-48 19 -119 19q-87 0 -153 -33q-66 -34 -115 -88q-49 -53 -82 -124q-34 -71 -53 -140q-21 -78 -28 -140q-9 -68 -9 -119q0 -57 13 -111q15 -50 44 -82
q31 -34 80 -52q48 -18 119 -18q86 0 152 33q65 33 115 87q47 52 81 122q34 71 53 140q21 76 28 139q9 67 9 121z" />
    <glyph glyph-name="P" unicode="P" horiz-adv-x="1090" 
d="M1120 977q0 -55 -12 -117q-14 -63 -41 -120q-31 -63 -73 -110q-38 -48 -108 -94q-71 -42 -150 -64q-87 -23 -200 -23h-135l-83 -414q-1 -9 -10 -18t-25 -13q-19 -5 -43 -8q-34 -2 -64 -2q-28 0 -62 2q-22 3 -38 8q-13 4 -19 12q-5 9 -2 19l233 1165q9 48 39 70
q30 24 74 24h283q57 0 93 -4q36 -3 81 -11q61 -12 110 -37q46 -24 82 -62q34 -38 52 -88q18 -51 18 -115zM843 947q0 48 -23 83q-23 36 -71 49q-21 7 -47 9q-25 3 -58 3h-116l-86 -439h120q59 0 98 14q40 12 70 35q31 22 52 52q19 25 36 63q14 39 19 66q6 34 6 65z" />
    <glyph glyph-name="Q" unicode="Q" horiz-adv-x="1387" 
d="M1304 -53q0 -4 -2 -26q-2 -18 -6 -37q-7 -30 -10 -40q-4 -14 -14 -38q-9 -18 -18 -26q-8 -11 -21 -11q-6 0 -33 5q-23 7 -53 18q-21 9 -69 33q-35 19 -76 49q-31 23 -78 66q-40 40 -73 86q-53 -24 -117 -36q-61 -13 -141 -13q-121 0 -214 27q-92 27 -156 83t-95 141
q-33 86 -33 200q0 100 17 196q14 98 52 202q40 105 96 187q57 89 142 157q82 67 194 108q110 39 252 39q120 0 213 -27q93 -28 156 -84q63 -57 95 -143q33 -85 33 -202q0 -61 -7 -120q-5 -58 -20 -127q-11 -54 -36 -128q-24 -66 -54 -126q-32 -61 -74 -118q-46 -58 -97 -104
q45 -48 87 -76t70 -42q27 -14 52 -23q21 -8 27 -14q8 -8 9 -14q2 -10 2 -22zM1067 836q0 58 -13 110q-15 50 -44 84q-30 34 -79 52q-48 19 -118 19q-87 0 -153 -33q-66 -34 -116 -88q-48 -55 -81 -124q-34 -71 -53 -140q-21 -78 -28 -140q-9 -68 -9 -119q0 -57 13 -111
q15 -50 44 -82q31 -34 80 -52q48 -18 118 -18q86 0 152 33t114 87q48 51 82 122q34 68 54 140q21 76 28 139q9 67 9 121z" />
    <glyph glyph-name="R" unicode="R" horiz-adv-x="1153" 
d="M1135 1012q0 -62 -17 -127q-18 -63 -56 -119t-98 -101q-62 -45 -148 -72q49 -20 80 -75q33 -57 54 -155l53 -263q2 -10 7 -40q2 -22 2 -29q0 -9 -6 -17q-5 -5 -24 -12q-28 -5 -46 -6q-40 -2 -75 -2t-67 2q-24 3 -40 8q-15 7 -18 15q-5 8 -7 21l-50 287q-6 42 -21 88
q-17 42 -35 63q-20 26 -51 38q-30 13 -73 13h-82l-99 -494q-1 -9 -10 -18q-8 -8 -24 -13q-22 -6 -43 -8q-34 -2 -64 -2q-29 0 -63 2q-22 3 -38 8q-13 4 -19 12q-5 9 -2 19l236 1176q8 45 35 63q27 20 64 20h347q88 0 165 -17q70 -16 125 -52q50 -33 80 -88q28 -52 28 -125z
M853 963q0 28 -9 52q-11 25 -31 41q-20 17 -55 28q-33 9 -80 9h-149l-73 -367h125q76 0 127 22q53 21 84 55q33 36 46 75q15 42 15 85z" />
    <glyph glyph-name="S" unicode="S" horiz-adv-x="953" 
d="M959 1195q0 -2 -0.5 -9.5t-0.5 -13.5q-1 -6 -2.5 -17t-2.5 -16l-3.5 -17.5t-3.5 -19.5q-10 -29 -12 -34q-5 -12 -14 -25q-7 -10 -17 -10q-15 0 -35 13q-26 15 -52 26q-26 13 -71 28q-41 12 -93 12q-53 0 -92 -15q-38 -16 -61 -39q-25 -27 -35 -56q-12 -30 -12 -61
q0 -36 18 -63q17 -27 48 -52q28 -21 68 -45q52 -30 78 -46q45 -27 78 -53q39 -27 69 -66q30 -36 48 -86q18 -48 18 -111q0 -93 -38 -175q-38 -80 -107 -140q-70 -58 -168 -93q-98 -34 -219 -34q-69 0 -120 11q-49 8 -97 25q-38 13 -72 31q-33 21 -43 32q-14 16 -14 45
q0 2 2 24q1 6 5 35q6 24 9 38q5 19 12 35q6 14 15 26q9 10 19 10q17 0 41 -15q18 -13 58 -34q29 -17 83 -35q47 -16 115 -16q59 0 104 15q43 15 74 41q30 25 46 61q15 33 15 75q0 37 -18 65q-17 27 -47 52q-35 26 -68 44q-55 32 -76 45q-46 29 -76 52q-35 26 -68 65
q-31 42 -47 87q-18 49 -18 114q0 89 36 166q36 76 100 131q65 54 153 84q87 31 196 31q42 0 95 -7q52 -10 82 -20q33 -9 63 -25q24 -13 36 -23q11 -11 14 -20q5 -10 5 -27z" />
    <glyph glyph-name="T" unicode="T" horiz-adv-x="1014" 
d="M1155 1252q0 -2 -0.5 -9t-0.5 -13q0 -3 -2 -15t-4 -20q-2 -13 -8 -39q-7 -26 -14 -38q-7 -18 -18 -28q-9 -11 -22 -11h-325l-208 -1043q-3 -10 -11 -18t-24 -13q-22 -5 -42 -8q-27 -3 -65 -3q-37 0 -63 3q-24 3 -38 8q-15 4 -18 13q-5 6 -3 18l208 1043h-322
q-15 0 -21 11q-5 12 -5 30q0 2 0.5 10t0.5 14q1 3 2.5 15t3.5 19q2 14 8 40q6 19 14 38q7 15 18 28q12 10 22 10h912q12 0 18 -11q7 -10 7 -31z" />
    <glyph glyph-name="U" unicode="U" horiz-adv-x="1337" 
d="M1199 477q-25 -124 -78 -217q-52 -94 -132 -157q-78 -62 -181 -95q-107 -31 -227 -31q-131 0 -227 33q-94 32 -149 96q-54 63 -71 160q-16 94 10 224l154 768q2 11 10 18q7 9 24 13q18 5 42 8t64 3q38 0 63 -3q23 -3 39 -8q15 -5 18 -13q5 -6 3 -18l-154 -768
q-17 -77 -9 -133t34 -93q25 -36 71 -54q46 -17 108 -17q60 0 119 19q58 22 96 58q41 35 72 91q30 57 43 123l155 774q2 11 10 18q7 8 22 13q20 5 42 8q26 3 64 3t62 -3q22 -3 38 -8q15 -5 18 -13q5 -6 3 -18z" />
    <glyph glyph-name="V" unicode="V" horiz-adv-x="1211" 
d="M702 46q-9 -17 -19 -28q-13 -11 -29 -16q-26 -6 -50 -6q-22 -2 -83 -2q-71 0 -94 2q-29 0 -53 6q-18 6 -24 17q-8 11 -9 30l-158 1169q-3 29 -2 44q2 17 14 24q14 9 41 12q36 2 76 2t76 -2q27 -1 42 -8q14 -4 19 -15t6 -26l110 -996h2l503 1000q9 16 16 23q9 11 26 15
q19 6 44 7q36 2 72 2q48 0 75 -3t36 -14t2 -33q-9 -26 -26 -57z" />
    <glyph glyph-name="W" unicode="W" horiz-adv-x="1857" 
d="M1422 65q-11 -26 -23 -39q-14 -14 -35 -21q-23 -8 -56 -9q-44 -2 -84 -2q-42 0 -88 2q-31 1 -52 8q-18 8 -25 20q-6 12 -8 34l-47 829h-2l-359 -822q-11 -24 -21 -39q-12 -14 -31 -21q-20 -8 -52 -9q-44 -2 -85 -2q-48 0 -96 2q-35 1 -56 9q-19 8 -26 22q-5 13 -7 41
l-70 1138q-1 23 1 51q3 18 17 29q13 9 41 12q38 2 78 2q31 0 69 -2q30 -3 41 -10q13 -5 18 -17q3 -11 3 -29l26 -987h2l437 986q7 19 18 31q9 10 26 18q18 7 44 8q38 2 74 2q37 0 73 -2q26 -1 41 -8q14 -8 18 -19q3 -9 5 -32l50 -984h2l425 998q4 13 14 23q7 10 24 15
q23 6 45 7q38 2 72 2q46 0 67 -4q24 -3 34 -14q9 -11 3 -32q-6 -22 -21 -57z" />
    <glyph glyph-name="X" unicode="X" horiz-adv-x="1128" 
d="M794 667l199 -565q10 -33 13 -58q0 -22 -12 -32q-15 -12 -46 -15q-32 -3 -89 -3q-33 0 -65 2q-12 1 -38 6q-15 7 -18 13q-5 6 -10 20l-157 470l-332 -470q-10 -14 -19 -20q-8 -6 -26 -13q-31 -5 -46 -6q-40 -2 -74 -2q-53 0 -83 3t-39 14t0 32q13 27 35 56l427 570
l-181 526q-9 31 -13 56q0 21 12 32q16 11 46 14q32 3 88 3q34 0 68 -2q21 -1 38 -7q14 -5 20 -14q5 -7 10 -23l137 -422l302 427q8 12 17 20q10 7 26 13q29 5 42 6q36 2 71 2q53 0 85 -3q30 -3 40 -14q10 -10 1 -32q-10 -24 -34 -56z" />
    <glyph glyph-name="Y" unicode="Y" horiz-adv-x="1064" 
d="M668 491l-90 -456q-3 -10 -11 -18q-9 -9 -25 -13q-17 -5 -42 -8q-34 -2 -64 -2q-29 0 -63 2q-20 2 -39 8q-11 4 -18 13q-3 8 -2 18l90 456l-212 705q-11 37 -14 56q-1 21 10 32q14 10 42 13q30 3 85 3q50 0 67 -2q20 0 38 -6q14 -5 20 -14q5 -12 9 -25l87 -311
q16 -60 26 -106q12 -52 21 -106h2q31 59 58 106q29 51 64 104l207 316q6 11 17 22q11 9 25 13q21 6 42 7q36 2 72 2q61 0 88 -4q30 -3 40 -14t0 -32q-15 -26 -34 -54z" />
    <glyph glyph-name="Z" unicode="Z" horiz-adv-x="979" 
d="M996 1294q27 0 46 -14q17 -14 17 -42q0 -16 -6 -50t-15 -62q-2 -8 -8 -24q-4 -11 -14 -26q-3 -6 -23 -34q-11 -17 -36 -46l-643 -785h532q14 0 20 -10q5 -12 5 -30q0 -13 -1 -23q-2 -22 -4 -36q-2 -6 -5 -19t-4 -19q-5 -21 -12 -36q-5 -12 -17 -28q-13 -10 -23 -10h-763
q-37 0 -52 18q-17 17 -17 45q0 2 0.5 9.5t0.5 13.5q1 3 2.5 13.5t3.5 16.5l6 30q1 5 3.5 13.5t3.5 12.5q1 3 4 10.5t5 11.5q5 11 14 25q10 13 24 33q11 17 36 46l646 787h-486q-32 0 -32 43q0 11 2 22q0 8 4 34q0 3 8 38q5 16 14 35q6 13 20 27q12 10 26 10h718z" />
    <glyph glyph-name="bracketleft" unicode="[" horiz-adv-x="665" 
d="M756 1380q0 -11 -2 -20q0 -7 -4 -29q-1 -11 -7 -33q-3 -12 -11 -32q-10 -16 -15 -22q-7 -9 -19 -9h-152l-279 -1393h151q12 0 18 -10q6 -9 6 -27q0 -11 -2 -20q0 -9 -4 -29q-1 -6 -8 -34q-4 -15 -12 -30q-6 -13 -14 -22q-10 -8 -19 -8h-311q-14 0 -29 5q-13 5 -21 15
q-8 12 -11 26q-3 17 1 38l318 1586q7 42 35 64q29 19 60 19h309q22 0 22 -35z" />
    <glyph glyph-name="backslash" unicode="\" horiz-adv-x="870" 
d="M720 -218q4 -22 2 -40q-1 -15 -14 -23q-12 -7 -36 -9q-25 -3 -68 -3q-32 0 -64 2q-24 1 -36 6q-10 3 -18 11q-4 12 -5 19l-257 1651q-5 27 -2 41q0 14 14 22q12 8 37 9q26 3 68 3q33 0 63 -2q24 -1 36 -6q13 -4 16 -11q5 -9 6 -19z" />
    <glyph glyph-name="bracketright" unicode="]" horiz-adv-x="665" 
d="M365 -254q-9 -46 -35 -64q-24 -20 -59 -20h-309q-12 0 -18 10q-6 9 -6 29q0 11 2 20q0 7 4 29q4 20 8 32q2 10 10 30q10 16 16 22q10 8 20 8h150l279 1393h-150q-15 0 -19 9q-6 10 -6 28q0 12 2 20q0 8 4 30q1 11 7 33q4 14 11 30q8 14 16 21q9 9 21 9h310q18 0 29 -5
q11 -3 21 -14q9 -14 11 -27q3 -17 -1 -37z" />
    <glyph glyph-name="asciicircum" unicode="^" horiz-adv-x="1020" 
d="M995 596q6 -28 6 -45t-12 -26q-13 -10 -38 -11q-25 -3 -70 -3q-38 0 -65 3q-24 2 -39 8q-13 4 -21 14q-7 7 -9 20l-112 541l-5 -1l-320 -540q-7 -10 -18 -20q-14 -10 -29 -14q-20 -7 -44 -8q-25 -3 -65 -3q-44 0 -68 3q-24 1 -34 11q-8 10 -2 26q6 17 24 45l421 656
q6 12 22 22q12 9 35 16q21 7 52 10q27 4 70 4q44 0 68 -4q30 -3 48 -10q19 -6 29 -16q9 -8 14 -22z" />
    <glyph glyph-name="underscore" unicode="_" horiz-adv-x="1020" 
d="M885 -220q0 -1 -0.5 -7.5t-0.5 -12.5q-1 -5 -2.5 -15.5t-2.5 -13.5q-2 -11 -8 -33q-5 -19 -13 -31q-6 -13 -16 -23q-10 -9 -23 -9h-950q-17 0 -23 11q-7 10 -7 29q0 2 0.5 8.5t0.5 11.5q1 5 2.5 14.5t2.5 14.5q3 17 9 34q5 18 12 31q9 16 17 23q11 9 23 9h949
q15 0 23 -11q7 -10 7 -30z" />
    <glyph glyph-name="grave" unicode="`" horiz-adv-x="615" 
d="M654 1135q7 -13 10 -23q0 -11 -8 -16q-7 -7 -28 -10q-20 -3 -55 -3q-10 0 -26 0.5t-22 0.5q-18 3 -31 6q-16 7 -22 12q-11 9 -16 16l-183 232q-9 10 -9 21q-2 11 11 17q9 7 39 12q24 4 73 4q41 0 56 -2q17 0 37 -6q11 -3 24 -12q9 -9 16 -20zM0 960z" />
    <glyph glyph-name="a" unicode="a" horiz-adv-x="1081" 
d="M868 33q-5 -21 -32 -30t-88 -9q-26 0 -50 2q-11 1 -32 6q-11 6 -16 12q-3 8 -1 19l28 143q-15 -33 -48 -68q-35 -37 -78 -64q-45 -28 -99 -48q-54 -19 -113 -19q-81 0 -133 28q-54 29 -85 75q-34 51 -45 109q-14 57 -14 128q0 63 12 137q13 79 37 149q27 77 64 143
q40 70 93 121q56 53 126 85q71 31 159 31q84 0 147 -35q63 -32 112 -100l16 79q5 21 32 30t88 9q24 0 50 -2q23 -4 32 -8q10 -3 15 -12q4 -5 2 -17zM744 659q-33 54 -78 83q-42 27 -98 27q-42 0 -77 -20t-62 -53q-28 -36 -47 -78q-23 -47 -34 -92q-13 -42 -20 -96
q-7 -45 -7 -89q0 -35 5 -57q3 -25 16 -48q11 -20 32 -34q20 -12 51 -12q43 0 90 26q44 26 86 72q39 44 71 106q31 64 44 130z" />
    <glyph glyph-name="b" unicode="b" horiz-adv-x="1081" 
d="M1024 643q0 -66 -12 -141q-13 -79 -37 -149q-27 -78 -64 -142q-40 -69 -94 -120q-53 -50 -125 -83q-71 -31 -158 -31q-85 0 -148 33q-66 33 -112 100l-15 -76q-5 -21 -31 -30q-27 -10 -89 -10q-61 0 -81 10q-22 10 -18 30l263 1315q1 11 9 18q9 9 23 13q17 6 41 9t61 3
t60 -3q22 -3 37 -9q12 -4 17 -13q4 -6 2 -18l-71 -358q-2 -9 -6 -26.5t-5 -22.5q-2 -6 -6.5 -23t-6.5 -27q-2 -7 -7.5 -23.5t-8.5 -24.5q-5 -21 -14 -42q20 35 52 64q35 35 76 59q43 25 92 42q49 16 100 16q57 0 99 -15q41 -13 73 -39q33 -26 51 -59q22 -38 32 -72
q10 -30 17 -77q4 -54 4 -78zM765 618q0 25 -3 52q-5 28 -16 49q-10 21 -31 36q-20 14 -53 14q-45 0 -90 -27q-45 -24 -86 -72q-39 -45 -71 -107q-30 -59 -44 -130l-28 -135q34 -54 77 -82q44 -26 99 -26q41 0 74 20q31 16 61 51q28 31 48 75q22 46 35 90q14 49 21 97
q7 46 7 95z" />
    <glyph glyph-name="c" unicode="c" horiz-adv-x="843" 
d="M858 867q0 -23 -6 -52q-4 -28 -14 -55q-8 -23 -22 -44q-15 -17 -30 -17q-16 0 -29 12q-11 10 -35 27q-18 14 -51 28q-32 12 -80 12q-52 0 -93 -23q-40 -22 -72 -59q-32 -40 -50 -84q-19 -43 -33 -94q-12 -42 -19 -90q-5 -50 -5 -76q0 -80 35 -123q36 -42 112 -42
q56 0 96 15q40 13 68 32q12 7 50 31q20 14 37 14q9 0 15 -9q4 -12 4 -26q0 -21 -4 -42q-5 -33 -10 -52q-10 -34 -16 -48q-7 -23 -22 -36q-7 -8 -42 -30q-29 -15 -67 -29q-37 -13 -83 -21t-92 -8q-170 0 -256 86q-85 86 -85 256q0 57 11 134q12 72 38 146q24 71 68 143
q41 69 101 122q63 55 139 85q81 32 182 32q40 0 78 -6q32 -5 70 -16q36 -14 56 -25q21 -11 37 -25q12 -12 15 -21q4 -8 4 -22z" />
    <glyph glyph-name="d" unicode="d" horiz-adv-x="1081" 
d="M869 33q-5 -21 -31 -30q-28 -9 -89 -9q-23 0 -51 2q-10 1 -31 6q-12 6 -15 12q-4 7 -2 19l27 143q-15 -33 -48 -68q-35 -37 -78 -64q-45 -30 -99 -48q-54 -19 -113 -19q-57 0 -99 15q-42 13 -74 39q-32 27 -50 59q-21 37 -32 72q-13 39 -17 78q-5 47 -5 80q0 65 12 140
q13 78 38 148q24 71 64 141q40 69 94 120q51 50 124 83q71 31 159 31q39 0 75 -9q32 -7 64 -22q28 -14 54 -35q25 -21 41 -42l95 471q2 10 9 18q9 9 23 14q18 5 40 8q24 3 61 3t61 -3q20 -3 36 -8q12 -5 17 -14q4 -6 2 -18zM744 658q-33 54 -78 83q-41 28 -98 28
q-38 0 -76 -19q-35 -22 -62 -52q-26 -31 -48 -76q-19 -43 -34 -92q-13 -53 -20 -96q-7 -45 -7 -91q0 -77 25 -115q26 -38 79 -38q43 0 90 26q44 26 86 72q38 40 71 104q31 64 44 130z" />
    <glyph glyph-name="e" unicode="e" horiz-adv-x="1006" 
d="M969 730q0 -72 -33 -130q-31 -57 -100 -98q-68 -41 -174 -64q-104 -22 -252 -22h-92q-5 -23 -6 -46q-2 -28 -2 -41q0 -81 42 -122q43 -41 135 -41q68 0 119 10q47 8 92 20q46 14 65 22q25 9 38 9t17 -7q5 -8 5 -22q0 -16 -3 -39q-2 -15 -8 -43q-4 -15 -14 -41
q-8 -17 -20 -29t-44 -24q-27 -10 -77 -22q-41 -9 -101 -16q-52 -7 -114 -7q-94 0 -168 20q-69 19 -119 61q-48 40 -72 104t-24 151q0 71 13 143q12 79 40 152q29 76 72 142q42 66 106 120q62 50 145 82q81 31 187 31q92 0 156 -21q67 -23 108 -58q42 -35 62 -80
q21 -46 21 -94zM722 711q0 41 -32 67q-31 26 -91 26q-50 0 -89 -18q-40 -18 -70 -48q-29 -30 -52 -72q-19 -39 -34 -89h84q84 0 134 11q51 9 87 28q33 18 48 42q15 26 15 53z" />
    <glyph glyph-name="f" unicode="f" horiz-adv-x="648" 
d="M832 1332q0 -10 -2 -20q0 -8 -4 -30q-2 -17 -6 -35q-5 -21 -10 -33q-4 -15 -12 -26q-8 -9 -15 -9q-6 0 -15 3q-14 4 -22 6q-10 4 -28 7q-15 3 -33 3q-33 0 -55 -9q-26 -10 -41 -29q-17 -19 -29 -50q-13 -35 -20 -74l-15 -76h162q15 0 21 -10q6 -9 6 -30q0 -15 -2 -26
q0 -14 -5 -34q-5 -23 -10 -37q-7 -21 -13 -33q-8 -16 -16 -24q-10 -10 -21 -10h-164l-157 -784q-16 -79 -46 -146q-30 -62 -75 -106q-45 -42 -107 -64q-60 -21 -139 -21q-50 0 -87 8q-32 7 -45 16q-6 8 -7 13q-2 10 -2 20q0 11 2 20q0 10 4 30q4 22 8 35q2 14 10 33
q4 15 12 24q7 10 16 10q8 0 12 -1q1 0 5.5 -1t7.5 -2q3 0 17 -2q6 -1 24 -1q32 0 56 9q24 11 40 30q18 21 29 52q12 29 21 76l151 752h-112q-11 0 -19 8q-6 9 -6 33q0 15 2 26q0 10 4 34q6 24 9 37q4 16 13 32q8 15 18 24q9 10 22 10h110l19 99q17 87 47 148q31 64 76 107
q46 44 108 64q59 22 139 22q18 0 52 -2q32 -4 47 -8q16 -2 37 -10q16 -6 22 -12q6 -4 9 -14q2 -12 2 -22z" />
    <glyph glyph-name="g" unicode="g" horiz-adv-x="1081" 
d="M860 -2q-18 -91 -56 -158q-35 -65 -100 -114q-62 -45 -150 -68q-92 -23 -207 -23q-78 0 -153 13q-72 16 -112 35q-16 7 -22 18t-6 28q0 11 1 20q2 21 5 31q1 6 8 36q3 11 12 32q10 18 17 24q9 10 21 10q11 0 30 -8q12 -6 46 -19q25 -9 72 -19q46 -8 106 -8q47 0 92 8
q39 8 70 26t48 46q20 28 27 69q16 77 26 109q13 44 24 72q-18 -33 -51 -66q-39 -36 -77 -58q-45 -27 -93 -42t-99 -15q-77 0 -129 26q-52 25 -86 72q-33 47 -48 108q-14 64 -14 134q0 65 12 140q13 81 38 149q23 72 64 142q41 72 94 120q50 50 124 84q71 31 159 31
q84 0 147 -35q63 -32 112 -100l16 79q5 21 32 30t88 9q24 0 50 -2q23 -4 32 -8q10 -3 15 -12q4 -5 2 -17zM744 660q-34 55 -78 82q-41 28 -98 28q-42 0 -76 -20q-34 -19 -62 -54q-28 -32 -48 -77q-23 -47 -34 -92q-13 -43 -20 -96q-7 -45 -7 -91q0 -33 6 -62q6 -27 19 -48
q13 -19 32 -30q20 -10 47 -10q43 0 90 26q44 26 86 72q39 45 71 107q31 64 44 130z" />
    <glyph glyph-name="h" unicode="h" horiz-adv-x="1080" 
d="M873 34q-1 -6 -9 -18q-14 -9 -24 -12q-18 -5 -40 -8q-32 -2 -62 -2q-28 0 -60 2q-20 3 -36 8q-9 3 -18 12q-3 10 -2 18l107 535q3 15 7 47q3 27 3 48q0 25 -5 40q-3 19 -14 32q-9 13 -26 22q-19 7 -38 7q-40 0 -86 -26q-43 -25 -84 -71q-38 -44 -70 -105
q-30 -57 -44 -127l-81 -402q-1 -6 -9 -18q-14 -9 -24 -12q-18 -5 -40 -8q-34 -2 -61 -2q-29 0 -61 2q-23 3 -36 8q-12 3 -18 12q-4 7 -2 18l263 1315q1 11 9 18q9 9 23 13q17 6 41 9t61 3t61 -3q22 -3 36 -9q12 -4 17 -13q4 -6 2 -18l-71 -362q0 -2 -11 -47q-2 -9 -6.5 -25
t-6.5 -25q-3 -7 -8 -23t-8 -24q-5 -21 -14 -41q22 35 52 64q37 35 76 58q48 29 92 42q45 17 101 17q70 0 115 -19q49 -20 77 -53q31 -36 43 -81q14 -43 14 -103q0 -40 -4 -71q-6 -48 -11 -71z" />
    <glyph glyph-name="i" unicode="i" horiz-adv-x="503" 
d="M549 1226q-8 -40 -19 -62q-11 -24 -32 -42q-18 -14 -49 -22q-29 -6 -72 -6q-42 0 -69 6q-26 8 -40 22q-14 19 -15 42q-2 24 6 62q8 37 19 61q11 23 32 41q17 15 49 23q27 7 72 7q44 0 69 -7q26 -8 40 -23q14 -19 14 -41q3 -24 -5 -61zM291 34q-1 -6 -9 -18
q-14 -9 -24 -12q-18 -5 -40 -8q-34 -2 -61 -2q-29 0 -61 2q-23 3 -36 8q-12 3 -18 12q-4 7 -2 18l177 890q1 6 9 18q14 9 24 12q15 6 40 9q24 3 61 3t61 -3q25 -3 36 -9q12 -3 18 -12q4 -7 2 -18z" />
    <glyph glyph-name="j" unicode="j" horiz-adv-x="523" 
d="M569 1226q-7 -37 -20 -62q-10 -23 -31 -42q-20 -14 -49 -22q-29 -6 -72 -6q-42 0 -69 6q-25 8 -40 22q-14 19 -15 42q-2 28 5 62q7 33 20 61q10 23 32 41q17 15 49 23q27 7 71 7t69 -7q27 -7 41 -23q14 -19 14 -41q3 -24 -5 -61zM300 -13q-16 -82 -44 -151
q-29 -66 -70 -110q-44 -46 -102 -68q-60 -23 -138 -23q-44 0 -82 7q-37 10 -42 15q-6 8 -7 13q-2 10 -2 21q0 2 0.5 9t0.5 12q1 5 2.5 16t2.5 16q2 12 8 36q4 15 11 34q7 17 14 24q6 10 16 10q8 0 11 -1t11 -1q2 -1 6.5 -1.5t6.5 -0.5q5 -1 20 -1q23 0 45 8q18 7 36 25
q15 17 27 47q13 30 20 73l186 928q1 6 9 18q14 9 24 12q15 6 40 9t61 3t60 -3q25 -3 37 -9q12 -3 18 -12q4 -7 2 -18z" />
    <glyph glyph-name="k" unicode="k" horiz-adv-x="983" 
d="M1015 930q0 -14 -13 -38q-19 -27 -45 -54l-315 -297l205 -430q8 -19 14 -42q4 -16 4 -28q0 -13 -7 -21q-6 -9 -22 -15q-15 -6 -42 -9q-34 -2 -66 -2t-64 2q-23 1 -38 7q-13 4 -20 13q-7 7 -10 20l-211 470l-94 -472q-3 -10 -11 -18t-22 -12q-20 -6 -41 -8q-34 -2 -61 -2
q-30 0 -60 2q-26 3 -37 8q-14 3 -17 12q-5 5 -3 17l264 1316q1 11 9 18q9 9 23 13q17 6 41 9t61 3t61 -3q22 -3 36 -9q12 -4 17 -13q4 -6 2 -18l-156 -783l334 357q11 12 21 21q15 9 30 13q23 6 44 7q32 2 63 2q28 0 62 -2q16 -1 39 -6q16 -7 20 -12q5 -8 5 -16z" />
    <glyph glyph-name="l" unicode="l" horiz-adv-x="503" 
d="M291 34q-1 -6 -9 -18q-14 -9 -23 -12q-18 -5 -40 -8q-34 -2 -61 -2q-30 0 -62 2q-20 3 -36 8q-9 3 -18 12q-3 10 -2 18l263 1315q1 11 9 18q9 9 23 13q17 6 41 9t61 3t61 -3q22 -3 36 -9q12 -4 17 -13q4 -6 2 -18z" />
    <glyph glyph-name="m" unicode="m" horiz-adv-x="1646" 
d="M1439 34q-1 -6 -9 -18q-14 -9 -24 -12q-20 -6 -40 -8q-34 -2 -62 -2t-60 2q-21 3 -37 8q-13 4 -17 12q-5 7 -2 18l107 535q2 10 7 45q3 24 3 46q0 47 -17 76q-18 29 -63 29q-39 0 -83 -26q-42 -24 -82 -71q-39 -42 -70 -104q-30 -56 -44 -126l-81 -404q-1 -6 -9 -18
q-14 -9 -24 -12q-20 -6 -40 -8q-34 -2 -62 -2t-60 2q-20 3 -36 8q-9 3 -18 12q-3 10 -2 18l106 535q7 25 8 47q3 26 3 48q0 45 -18 72q-17 29 -62 29q-39 0 -83 -26q-42 -24 -82 -71q-39 -42 -70 -104q-30 -56 -44 -126l-81 -404q-1 -6 -9 -18q-14 -9 -24 -12q-18 -5 -40 -8
q-34 -2 -61 -2q-29 0 -61 2q-23 3 -36 8q-12 3 -18 12q-4 7 -2 18l179 893q2 11 9 17q6 9 20 12q9 4 34 8q30 2 52 2q26 0 50 -2q23 -3 31 -8q11 -3 15 -12q3 -5 1 -17l-29 -147q20 33 56 72q35 36 80 65q43 28 96 47t109 19q57 0 101 -15q43 -17 70 -44t42 -64
q14 -38 18 -80q21 33 58 72q36 36 80 65q47 30 97 47q51 19 107 19q67 0 118 -19q48 -22 76 -54q29 -37 42 -82q13 -43 13 -100q0 -39 -4 -70q-4 -35 -12 -73z" />
    <glyph glyph-name="n" unicode="n" horiz-adv-x="1080" 
d="M999 727q0 -41 -5 -70q-3 -30 -11 -72l-111 -551q-1 -9 -10 -18q-8 -8 -22 -12q-20 -6 -40 -8q-34 -2 -62 -2q-30 0 -60 2q-21 3 -37 8q-13 4 -17 12q-5 7 -3 18l108 535q6 32 7 49q3 25 3 44q0 46 -19 74q-20 29 -64 29q-40 0 -86 -26q-43 -25 -84 -71q-37 -41 -70 -104
q-30 -56 -44 -126l-81 -404q-1 -6 -9 -18q-14 -9 -24 -12q-18 -5 -40 -8q-34 -2 -61 -2q-29 0 -61 2q-23 3 -36 8q-12 3 -18 12q-4 7 -2 18l179 893q2 11 9 17q6 9 20 12q9 4 34 8q30 2 52 2q26 0 50 -2q23 -3 31 -8q11 -3 15 -12q3 -5 1 -17l-29 -147q20 33 56 72
q35 36 80 65q49 30 100 47q51 19 111 19q71 0 117 -21q47 -19 78 -55q28 -34 42 -81q13 -46 13 -99z" />
    <glyph glyph-name="o" unicode="o" horiz-adv-x="1080" 
d="M1024 626q0 -77 -14 -148q-11 -69 -42 -148q-27 -71 -74 -136t-110 -112q-61 -48 -145 -77q-81 -28 -185 -28q-100 0 -174 23q-74 24 -123 70q-49 45 -73 112q-24 66 -24 152q0 77 14 148q11 69 42 148q29 73 74 136q46 65 110 113q62 47 145 76q81 28 185 28
q100 0 174 -23q74 -24 123 -70q49 -45 73 -112q24 -66 24 -152zM764 609q0 40 -8 75q-9 32 -28 54q-20 23 -50 35q-32 12 -75 12q-47 0 -90 -19q-43 -22 -71 -53q-33 -33 -55 -77q-23 -43 -38 -91q-14 -44 -22 -97q-7 -48 -7 -95q0 -40 8 -75q8 -29 28 -56q23 -23 50 -34
q32 -12 75 -12q51 0 90 20q40 18 71 52q34 35 55 78q23 43 38 92q14 45 22 97q7 46 7 94z" />
    <glyph glyph-name="p" unicode="p" horiz-adv-x="1081" 
d="M1024 643q0 -65 -12 -140q-13 -79 -37 -149q-27 -78 -64 -142q-38 -68 -93 -121q-55 -52 -126 -83q-68 -31 -158 -31q-38 0 -75 8q-34 7 -65 23q-31 15 -53 34q-23 17 -42 41l-79 -403q-2 -11 -10 -18q-6 -8 -22 -14q-20 -6 -41 -8q-25 -3 -62 -3t-60 3q-19 2 -37 8
q-12 6 -17 14q-4 6 -2 18l250 1247q5 21 31 30q27 9 89 9q23 0 51 -2q23 -4 30 -8q11 -3 16 -12q4 -5 2 -17l-28 -145q15 34 48 68q32 36 78 66q46 29 100 48q53 19 112 19q76 0 130 -27q53 -27 84 -72q33 -46 48 -108q14 -64 14 -133zM765 621q0 30 -5 62q-6 29 -18 47
t-32 30q-20 10 -48 10q-44 0 -90 -26q-44 -26 -86 -72q-39 -44 -71 -106q-30 -59 -44 -130l-28 -136q34 -54 77 -82t99 -28q41 0 75 20q34 19 62 54q28 32 48 77q23 47 34 92q13 43 20 97q7 45 7 91z" />
    <glyph glyph-name="q" unicode="q" horiz-adv-x="1081" 
d="M798 -320q-2 -11 -10 -18q-6 -8 -22 -14q-20 -6 -41 -8q-25 -3 -62 -3t-59 3q-21 3 -37 8q-14 6 -17 14q-5 6 -3 18l58 289q0 2 11 47q8 34 14 50q2 10 7.5 27t6.5 22q3 7 7.5 21t7.5 20q-19 -34 -51 -64q-35 -32 -77 -58q-48 -26 -93 -41q-47 -16 -99 -16q-74 0 -127 25
q-52 26 -86 70q-33 43 -48 106q-16 60 -16 137q0 63 12 137q12 76 36 149q27 77 64 143q40 71 94 122q52 52 125 86q73 31 160 31q84 0 147 -35q63 -32 112 -100l16 79q4 21 32 31q27 9 88 9q30 0 50 -3q17 -1 32 -7q11 -5 15 -13q4 -5 2 -17zM744 660q-34 55 -78 82
q-41 28 -98 28q-44 0 -78 -21q-34 -20 -64 -56q-27 -35 -47 -79q-19 -45 -33 -93q-12 -44 -19 -95q-6 -46 -6 -86q0 -78 27 -114q26 -36 77 -36q43 0 90 26q44 26 86 72q39 45 71 107q31 64 44 130z" />
    <glyph glyph-name="r" unicode="r" horiz-adv-x="721" 
d="M780 940q0 -1 -2 -25q-2 -18 -6 -42q-7 -36 -10 -49q-6 -29 -14 -48q-5 -20 -16 -36q-11 -14 -21 -14t-18 4q-6 2 -20 6q-3 1 -7 2.5t-9 3t-8 2.5q-13 3 -30 3q-33 0 -73 -26q-40 -27 -73 -69q-34 -41 -63 -98q-27 -57 -39 -119l-80 -401q-1 -6 -9 -18q-14 -9 -24 -12
q-18 -5 -40 -8q-34 -2 -61 -2q-29 0 -61 2q-23 3 -36 8q-12 3 -18 12q-4 7 -2 18l178 893q2 11 9 17q8 9 21 12q9 4 34 8q30 2 52 2q26 0 50 -2q23 -3 31 -8q11 -3 15 -12q3 -5 1 -17l-28 -142q21 38 55 79q36 39 68 62q33 26 73 42q37 15 75 15q10 0 30 -2q9 -1 30 -5
q16 -4 24 -8q7 -2 16 -9q6 -6 6 -19z" />
    <glyph glyph-name="s" unicode="s" horiz-adv-x="807" 
d="M775 887q0 -13 -3 -35q-6 -32 -11 -48q-9 -28 -17 -42q-9 -17 -21 -17q-13 0 -31 9q-13 9 -42 22q-30 12 -58 20q-34 9 -79 9q-35 0 -63 -9q-27 -9 -45 -24q-18 -17 -27 -37q-10 -20 -10 -45q0 -32 26 -52q20 -18 63 -40q39 -19 82 -38q44 -20 82 -50t63 -73t25 -108
q0 -74 -29 -141q-29 -63 -84 -111q-60 -49 -136 -73q-78 -27 -179 -27q-52 0 -91 7q-52 9 -78 17q-38 11 -59 23q-24 14 -36 24q-8 8 -11 17q-4 8 -4 23q0 14 2 23q0 9 4 31q5 20 8 34q1 3 5 14.5t6 16.5q7 16 13 23q8 8 15 8q15 0 31 -12q18 -13 44 -26q25 -14 66 -28
q40 -12 99 -12q42 0 71 10q31 9 51 26t29 39q10 21 10 47q0 34 -24 57q-24 21 -62 41q-33 17 -80 39q-38 17 -81 49q-37 28 -61 72q-25 43 -25 108q0 70 27 132q27 61 79 106q50 44 126 72q77 25 168 25q38 0 81 -5q37 -6 72 -15q31 -9 54 -20q21 -9 34 -22q11 -11 11 -34z
" />
    <glyph glyph-name="t" unicode="t" horiz-adv-x="710" 
d="M741 917q0 -5 -2 -25q-1 -9 -5 -34q-6 -24 -10 -36q-7 -22 -14 -32q-5 -13 -16 -24q-10 -10 -21 -10h-195l-84 -419q-3 -13 -6 -35q-2 -28 -2 -34q0 -40 19 -58q19 -19 60 -19q25 0 41 3q26 7 30 8q6 3 21 8q8 4 17 4t14 -8q5 -7 5 -24q0 -22 -4 -43q-6 -29 -11 -47
q-6 -20 -14 -40q-7 -18 -17 -28t-27 -17q-21 -9 -42 -14q-26 -6 -53 -9q-25 -4 -56 -4q-60 0 -105 12q-46 13 -77 40q-30 26 -47 69q-15 42 -15 102q0 16 1 25q2 20 4 31q0 5 1.5 16t2.5 17q4 20 6 29l87 435h-108q-13 0 -19 8q-6 9 -6 33q0 20 4 45q3 24 11 54q7 26 21 45
q13 19 31 19h107l40 199q2 11 10 18q7 8 22 13q18 7 40 8q26 3 62 3t60 -3q22 -1 37 -8q14 -5 17 -13q5 -6 3 -18l-40 -199h193q17 0 23 -11q6 -10 6 -32z" />
    <glyph glyph-name="u" unicode="u" horiz-adv-x="1080" 
d="M867 33q-2 -11 -9 -17q-6 -9 -20 -12q-9 -4 -34 -8q-28 -2 -52 -2q-26 0 -50 2q-23 3 -31 8q-11 3 -15 12q-3 6 0 17l27 145q-19 -35 -55 -70q-34 -35 -80 -66q-48 -30 -99 -47q-53 -18 -109 -18q-67 0 -118 19q-51 22 -78 54q-28 31 -44 80q-13 50 -13 102q0 40 5 70
q3 30 11 72l110 553q1 9 9 17q9 9 24 12q12 5 40 8q34 2 61 2q29 0 61 -2q26 -3 36 -8q12 -3 18 -12q3 -7 2 -17l-106 -536q-6 -30 -8 -46q-2 -32 -2 -46q0 -19 4 -43q7 -23 15 -34q11 -14 25 -21q15 -7 38 -7q40 0 86 26q45 28 84 74q36 40 72 110q31 65 47 137l76 386
q2 11 9 17q8 9 24 12q12 5 40 8q34 2 61 2q29 0 61 -2q27 -4 36 -8q13 -3 18 -12q4 -5 2 -17z" />
    <glyph glyph-name="v" unicode="v" horiz-adv-x="961" 
d="M997 933q0 -11 -3 -27q-3 -15 -9 -34q-40 -115 -82 -216q-43 -104 -99 -215q-50 -98 -116 -208q-66 -108 -136 -197q-12 -15 -24 -22q-10 -7 -34 -14q-24 -4 -47 -5q-18 -1 -63 -1t-87 2q-33 3 -49 9q-18 6 -23 17q-5 8 -7 26l-105 802q0 5 -0.5 15t-1.5 15q-1 9 -1 26
q0 18 4 30q5 10 18 18q16 6 40 9t68 3q33 0 63 -2q20 -1 35 -7q12 -4 17 -13q3 -6 5 -21l76 -655v-25l5 9q50 74 93 155q47 90 76 160q35 81 67 170q28 78 61 186q3 13 11 21q9 9 25 13q19 6 42 7q32 2 63 2q29 0 61 -2q22 -2 36 -6q14 -5 16 -10q5 -5 5 -15z" />
    <glyph glyph-name="w" unicode="w" horiz-adv-x="1526" 
d="M1558 933q0 -17 -4 -32q-8 -28 -8 -29q-40 -115 -82 -216q-34 -85 -96 -215q-58 -115 -113 -208q-59 -101 -128 -197q-10 -15 -23 -22q-12 -7 -36 -14q-24 -4 -46 -5q-17 -1 -60 -1q-33 0 -69 2q-28 3 -41 9q-16 6 -20 17q-5 8 -7 26l-46 550l-246 -548q-8 -17 -17 -28
q-12 -12 -28 -17q-20 -6 -50 -9q-40 -2 -79 -2q-37 0 -79 2q-31 3 -46 9q-17 6 -24 17q-5 8 -7 26l-77 807q-1 4 -1.5 11.5t-0.5 11.5v23q0 20 4 31t18 20q16 7 40 10q24 4 73 4q32 0 62 -2q20 -1 35 -7q12 -4 17 -13q4 -8 4 -21l43 -656l-1 -12l6 12l294 656q5 13 13 21
q7 8 22 13q17 6 38 7q30 2 58 2q30 0 60 -2q26 -3 36 -8q14 -3 18 -12q4 -6 6 -17l52 -658l1 -11l6 11q29 49 75 142q50 108 73 163q39 93 68 174q36 101 58 175q1 12 10 21t24 13q21 6 41 7q34 2 64 2t60 -2q22 -2 36 -6q12 -4 16 -10q4 -5 4 -15z" />
    <glyph glyph-name="x" unicode="x" horiz-adv-x="941" 
d="M660 496l160 -444q5 -18 2 -28t-18 -18q-15 -7 -45 -10q-38 -2 -75 -2q-34 0 -66 2q-23 1 -37 6q-15 5 -17 11q-5 7 -7 16l-108 315l-226 -316q-2 -4 -7.5 -9.5t-5.5 -6.5q-8 -6 -26 -10q-17 -5 -46 -6q-36 -2 -76 -2q-35 0 -69 2q-27 3 -38 10q-11 6 -11 16q3 12 13 28
l339 444l-149 412q-6 17 -4 30q1 9 15 18q14 7 42 10q40 2 76 2q49 0 64 -2q20 0 36 -4q12 -3 18 -10q6 -11 7 -16l104 -298l215 298q8 10 13 14q7 5 22 10q15 4 39 6q32 2 65 2q37 0 73 -2q26 -1 41 -8q14 -6 11 -16q0 -10 -14 -29z" />
    <glyph glyph-name="y" unicode="y" horiz-adv-x="963" 
d="M998 929q0 -13 -3 -29t-9 -33q-48 -128 -74 -190q-41 -103 -90 -202q-50 -101 -116 -215q-64 -110 -149 -230l-244 -346q-9 -14 -23 -22q-13 -8 -34 -14q-23 -5 -49 -8q-28 -3 -67 -3q-43 0 -70 3q-26 5 -38 12q-13 8 -11 20q2 14 14 29l227 299l-147 858q-1 4 -2 13
t-2 14q-2 18 -2 24q0 19 7 29q6 11 22 17q15 6 41 9q34 2 63 2q49 0 64 -2q20 0 36 -6q13 -5 16 -15q5 -10 7 -25l92 -625h2q53 81 91 152q42 79 75 157q23 52 63 160q36 110 52 165q2 11 9 17q7 9 23 12q14 5 44 8q36 2 70 2q62 0 88 -8q24 -8 24 -29z" />
    <glyph glyph-name="z" unicode="z" horiz-adv-x="814" 
d="M812 924q0 -2 -2 -22q-1 -10 -5 -32t-7 -33q-1 -6 -3 -14t-2 -11q-9 -29 -20 -47q-13 -21 -36 -48l-422 -515h340q15 0 21 -10q7 -10 7 -32q0 -2 -0.5 -10t-0.5 -14q-1 -3 -2.5 -14.5t-3.5 -18.5q-2 -12 -8 -36q-7 -22 -14 -33q-6 -14 -17 -24q-10 -10 -22 -10h-589
q-19 0 -29 12q-10 10 -10 35q0 5 2 21q1 10 5 28q4 20 6 28q3 14 6 22l6 21q6 14 10 21q2 3 4.5 7t6 9t5.5 8q13 17 25 30l426 516h-304q-15 0 -21 10q-8 9 -8 35q0 15 2 25q0 11 4 33q7 28 10 35q4 16 13 32q8 14 18 23q11 9 22 9h551q22 0 28 -10q8 -8 8 -26z" />
    <glyph glyph-name="braceleft" unicode="{" horiz-adv-x="704" 
d="M813 1386q0 -21 -5 -41q-2 -14 -12 -47q-10 -22 -21 -38q-12 -15 -28 -15h-30q-27 0 -47 -9q-20 -8 -35 -30q-15 -23 -27 -58q-13 -42 -23 -94l-33 -169q-13 -63 -34 -111q-20 -52 -54 -95q-33 -42 -78 -72q-44 -29 -104 -43q42 -10 71 -32q30 -25 47 -52q18 -31 26 -64
q8 -38 8 -69q0 -16 -2 -50q-3 -22 -8 -49l-43 -213q-6 -34 -9 -61q-4 -24 -4 -48q0 -39 14 -56q13 -16 40 -16h39q23 0 30 -10q8 -11 8 -27q0 -7 -3 -27q-1 -8 -8 -39q-4 -20 -12 -40q-8 -19 -16 -28q-5 -5 -16 -9q-6 -3 -24 -7q-6 -1 -18 -2.5t-16 -2.5q-6 0 -19 -0.5
t-20 -0.5q-61 0 -102 15q-40 16 -66 44q-26 30 -36 70q-11 42 -11 93q0 15 4 75q10 70 15 95l41 203q4 16 6 38q3 20 3 37q0 29 -6 51q-6 25 -19 42q-11 17 -32 32q-21 12 -49 18q-17 4 -21 15q-5 12 -5 29q0 14 3 32q1 14 7 40q5 22 12 38q8 19 15 26q7 9 22 12q24 5 32 8
q16 3 39 14q20 10 43 33q27 26 47 70q18 40 29 95l38 192q19 88 45 158q26 68 66 112q39 45 96 68q54 22 134 22q23 0 33 -1q12 -1 32 -3q17 -3 26 -6q12 -5 15 -8q7 -7 8 -16q2 -12 2 -18z" />
    <glyph glyph-name="bar" unicode="|" horiz-adv-x="973" 
d="M446 -323q-2 -11 -10 -18q-7 -8 -22 -13q-15 -7 -38 -8q-22 -3 -57 -3t-57 3q-21 1 -34 8q-13 5 -16 13q-5 7 -2 18l345 1726q1 8 9 18q11 10 23 13q15 6 38 9t58 3q33 0 56 -3q21 -3 35 -9q11 -4 16 -13q4 -6 2 -18z" />
    <glyph glyph-name="braceright" unicode="}" horiz-adv-x="704" 
d="M-40 -286q0 8 4 40q7 28 13 46q6 19 20 38q12 16 28 16h30q26 0 47 8q20 9 36 30q17 25 26 60q12 38 23 93l42 213q12 58 33 111q21 50 54 95q33 42 78 72q46 28 105 42q-42 10 -72 32q-30 25 -47 52q-18 32 -25 64q-8 38 -8 70q0 26 3 50q1 19 7 49l34 170q6 27 10 59
q3 28 3 49q0 41 -13 55q-13 17 -40 17h-39q-24 0 -30 10q-8 9 -8 27q0 1 2 27q2 13 8 39q1 3 12 40q9 20 17 28q5 4 15 9q9 4 25 7q20 4 33 4q12 2 39 2q62 0 101 -16q42 -15 68 -44q23 -26 36 -69q10 -45 10 -92q0 -17 -4 -75q-9 -68 -15 -96l-33 -159q-3 -15 -6 -38
q-2 -28 -2 -38q0 -27 6 -51q6 -22 18 -42q12 -18 33 -32q19 -12 49 -18q16 -3 22 -14q5 -13 5 -30q0 -12 -3 -32q-2 -16 -8 -40q-5 -21 -12 -38q-8 -19 -15 -26t-22 -12q-23 -5 -31 -8q-16 -3 -40 -14q-20 -10 -43 -33q-28 -28 -47 -69q-20 -44 -30 -95l-46 -235
q-20 -93 -45 -158q-24 -66 -65 -113q-42 -47 -96 -67q-53 -23 -134 -23q-6 0 -17.5 0.5t-16.5 0.5q-12 2 -32 4q-15 2 -25 6q-10 3 -15 8q-7 5 -8 15q-2 14 -2 19z" />
    <glyph glyph-name="asciitilde" unicode="~" horiz-adv-x="1020" 
d="M1077 1106q0 -78 -23 -142q-22 -63 -62 -110q-39 -45 -94 -71q-53 -25 -117 -25q-59 0 -101 15q-44 17 -68 37q-27 21 -50 48q-7 10 -20.5 27.5t-17.5 22.5q-23 25 -40 37q-21 15 -51 15q-22 0 -45 -10q-19 -13 -32 -30q-14 -21 -21 -46q-9 -31 -10 -59q-1 -19 -24 -27
q-24 -8 -70 -8q-51 0 -71 10q-17 12 -17 29q0 78 21 141q19 65 60 110q38 45 94 71q53 25 122 25q59 0 98 -15q42 -15 70 -37q30 -22 51 -48q36 -44 40 -48q17 -21 39 -38q21 -15 49 -15q27 0 43 11q19 9 33 29q16 23 21 46q8 25 10 62q1 16 25 25q28 7 68 7q29 0 45 -3
q14 -1 27 -7q10 -4 14 -13q4 -5 4 -16z" />
    <glyph glyph-name="exclamdown" unicode="&#xa1;" horiz-adv-x="667" 
d="M246 767q2 11 9 18q9 9 22 13q13 6 35 9t53 3q33 0 52 -3q22 -3 32 -9q10 -4 15 -13q4 -6 2 -18l-156 -908q-1 -12 -11 -23q-7 -9 -25 -16q-15 -7 -44 -10q-27 -3 -66 -3q-40 0 -66 3t-40 10q-14 6 -18 16q-4 9 -1 23zM265 997q0 21 4 42q6 32 10 48q9 29 17 46
q10 23 23 35q19 19 48 28q29 10 76 10q36 0 59 -6q22 -4 37 -16q15 -11 19 -27q5 -17 5 -35q0 -16 -3 -40q-3 -26 -10 -48q-9 -31 -17 -48q-11 -22 -24 -36q-22 -22 -51 -31q-30 -8 -71 -8q-39 0 -63 6q-24 8 -37 18q-14 12 -18 28q-4 15 -4 34z" />
    <glyph glyph-name="cent" unicode="&#xa2;" horiz-adv-x="1020" 
d="M1008 1017q0 -3 -2 -23q-2 -14 -6 -32q-3 -15 -8 -36q-2 -7 -12 -36q-8 -13 -18 -25q-11 -10 -24 -10q-14 0 -30 13q-14 12 -38 29q-21 17 -55 29q-31 14 -81 14q-52 0 -98 -22q-45 -25 -74 -58q-30 -33 -54 -82q-20 -44 -34 -92q-12 -41 -19 -90q-6 -44 -6 -75
q0 -39 9 -71q8 -32 27 -54t49 -34q32 -12 76 -12q50 0 89 14q36 14 68 32q5 3 24.5 15t28.5 17q21 15 42 15q8 0 14 -9q4 -14 4 -28q0 -10 -3 -36q-3 -24 -9 -51q-4 -23 -14 -52q-10 -25 -21 -37q-10 -10 -35 -26q-17 -10 -45 -22q-27 -11 -53 -18q-36 -10 -55 -13l-27 -136
q-4 -21 -28 -31q-24 -9 -84 -9q-29 0 -50 3q-17 1 -30 7q-11 5 -15 13q-4 6 -1 17l29 137q-68 14 -116 45q-49 32 -78 76q-31 47 -43 101q-14 52 -14 121q0 44 8 110q9 60 29 127q19 64 53 132q32 62 82 120q52 55 117 94q67 39 156 54l26 134q1 10 9 18q7 9 19 14
q16 5 33 8q28 2 51 2q25 0 49 -2q20 -3 30 -8t14 -14q4 -6 2 -18l-27 -134q42 -8 77 -22q37 -19 64 -40q13 -11 21 -23q7 -10 7 -30z" />
    <glyph glyph-name="sterling" unicode="&#xa3;" horiz-adv-x="1038" 
d="M893 163q0 -1 -0.5 -8t-0.5 -13q-1 -3 -2.5 -14.5t-3.5 -18.5q-1 -8 -8 -37q-1 -5 -12 -35q-9 -17 -18 -27q-12 -10 -22 -10h-802q-12 0 -20 10q-8 13 -8 34q0 3 2 23q2 15 6 33q6 24 10 36q7 21 13 33q8 16 17 25t19 9h107l71 356h-106q-13 0 -21 11q-6 10 -6 30
q0 11 2 20q0 10 4 32l9 36q5 20 13 34q5 12 16 25q10 10 22 10h106l23 115q24 118 66 202q42 85 103 138q60 53 139 78q78 25 176 25q34 0 77 -5q33 -5 74 -17q32 -10 62 -26q27 -14 47 -34q9 -9 14 -20q5 -12 5 -26q0 -11 -2 -21q0 -8 -4 -32q-1 -9 -7 -38q-4 -17 -11 -34
q-7 -16 -16 -26q-10 -10 -21 -10q-15 0 -32 12q-5 4 -39 29q-19 14 -56 29q-32 12 -81 12q-97 0 -155 -66q-57 -64 -83 -194l-18 -91h269q15 0 21 -13q6 -12 6 -29q0 -2 -0.5 -9t-0.5 -12q0 -2 -2 -14t-4 -18q-2 -12 -8 -36q-7 -22 -14 -33q-5 -12 -16 -25q-9 -9 -21 -9
h-269l-72 -356h436q15 0 21 -11q6 -12 6 -29z" />
    <glyph glyph-name="currency" unicode="&#xa4;" horiz-adv-x="1020" 
d="M906 853q10 -17 20 -41q8 -28 11 -42q3 -13 5 -40q1 -13 1 -36q0 -55 -9 -109q-8 -49 -28 -105q-22 -53 -50 -98q-30 -48 -69 -85l98 -200q12 -27 15 -44q2 -17 -10 -27q-9 -9 -37 -14q-25 -3 -70 -3q-33 0 -61 2q-22 1 -36 6t-18 11q-5 7 -8 17l-60 159q-30 -13 -68 -21
q-42 -8 -84 -8q-36 0 -74 5q-31 6 -54 17l-122 -159q-6 -9 -16 -17q-7 -6 -24 -11q-7 -2 -40 -6q-7 0 -27.5 -0.5t-34.5 -0.5q-48 0 -70 5q-24 3 -34 15q-8 11 0 29q8 19 30 44l177 200q-21 34 -31 74q-11 46 -11 94q0 60 11 110q9 55 30 108q17 50 48 98q26 44 64 80
l-98 204q-10 21 -14 43q0 17 10 27q9 9 38 14q26 3 70 3q14 0 34 -0.5t26 -0.5q29 -4 36 -6q14 -5 18 -10q5 -9 8 -18l60 -160q29 14 70 21q45 8 87 8q44 0 76 -7q32 -6 58 -20l122 160q5 7 17 17q6 6 24 11q7 2 40 6q7 0 27.5 0.5t34.5 0.5q49 0 70 -5q26 -3 34 -16
q9 -12 0 -29q-5 -16 -30 -44zM715 658q0 26 -7 57q-10 31 -24 47q-17 22 -42 32q-25 12 -62 12q-47 0 -80 -15q-36 -15 -61 -40q-27 -27 -44 -57q-15 -27 -29 -66q-12 -44 -15 -66q-5 -37 -5 -60q0 -72 36 -109q35 -38 105 -38q62 0 106 29q41 27 71 74q27 43 39 98
q12 52 12 102z" />
    <glyph glyph-name="yen" unicode="&#xa5;" horiz-adv-x="1038" 
d="M686 642l-7 -35h249q12 0 18 -10q5 -12 5 -26q0 -2 -0.5 -8.5t-0.5 -10.5q0 -1 -2 -11.5t-4 -16.5q-4 -20 -8 -32q-3 -13 -10 -28q-7 -12 -15 -22q-8 -8 -18 -8h-249l-24 -126h249q13 0 17 -10q5 -12 5 -24q0 -2 -0.5 -8t-0.5 -10q-1 -5 -2.5 -15t-2.5 -14
q-1 -5 -3.5 -15.5t-3.5 -16.5q-9 -26 -11 -29q-5 -13 -15 -23q-8 -9 -18 -9h-250l-19 -102q-1 -7 -10 -18q-7 -6 -24 -12q-29 -5 -42 -6q-34 -2 -64 -2t-64 2q-16 1 -39 6q-15 7 -18 12q-5 7 -3 18l20 102h-250q-11 0 -17 10q-5 12 -5 28q0 9 3 30q6 30 11 46q7 21 17 42
q12 18 26 18h250l24 126h-250q-10 0 -16 10q-4 12 -4 28q0 10 2 18q0 8 4 28t8 31q2 11 10 29q6 13 14 21t17 8h250l8 35l-212 554q-13 34 -18 56q-4 21 7 32q13 11 42 14q40 2 84 2q52 0 68 -2q23 0 40 -5q14 -5 18 -12q5 -6 10 -22l135 -398l291 398q10 13 20 23
q12 8 28 12q24 4 46 4q19 2 73 2q39 0 75 -2q27 -3 34 -13t-5 -31q-10 -19 -41 -58z" />
    <glyph glyph-name="brokenbar" unicode="&#xa6;" horiz-adv-x="1020" 
d="M688 771q-3 -11 -10 -18q-9 -9 -21 -13q-13 -6 -37 -9t-58 -3q-35 0 -56 3q-22 3 -36 9q-11 4 -16 13q-4 6 -2 18l129 643q1 8 9 18q11 9 22 13q18 5 38 8q24 3 58 3q35 0 56 -3q20 -3 35 -8q11 -4 16 -13q4 -6 2 -18zM466 -339q-3 -11 -10 -18q-9 -9 -22 -13
q-15 -5 -37 -8t-58 -3q-33 0 -57 3q-20 3 -34 8q-13 5 -16 13q-5 7 -2 18l130 648q2 11 9 17q6 7 21 14q16 7 38 8q24 3 58 3q35 0 56 -3q22 -1 35 -8q12 -6 16 -14q4 -5 2 -17z" />
    <glyph glyph-name="section" unicode="&#xa7;" horiz-adv-x="1020" 
d="M958 1253q0 -10 -2 -19q0 -6 -4 -28q0 -5 -1 -10.5t-2.5 -12t-2.5 -10.5q-1 -3 -5 -14.5t-6 -16.5q-6 -14 -14 -24q-7 -9 -17 -9q-12 0 -28 11q-21 13 -42 22q-22 13 -60 24q-36 11 -83 11q-36 0 -62 -10q-29 -11 -46 -27q-16 -12 -29 -38q-10 -23 -10 -49q0 -31 18 -55
q17 -22 47 -42q29 -20 67 -36q12 -6 37.5 -18t38.5 -18q52 -28 76 -43q39 -22 67 -55q28 -30 47 -72q18 -40 18 -97q0 -49 -16 -103q-20 -53 -48 -92q-32 -44 -74 -79q-46 -38 -95 -62q24 -32 36 -67q12 -36 12 -67q0 -32 -9 -71q-8 -40 -28 -78q-16 -36 -52 -77
q-32 -38 -80 -65q-48 -29 -114 -46q-66 -18 -153 -18q-49 0 -89 6q-43 6 -72 16q-37 12 -57 23q-27 14 -43 25q-11 8 -16 18q-5 13 -5 29q0 2 0.5 8.5t0.5 12.5q1 5 2.5 15.5t2.5 13.5q1 5 3.5 16t3.5 17q9 26 12 30q5 13 14 22t19 9q14 0 33 -13q24 -15 48 -28t68 -28
q39 -12 94 -12q43 0 74 11q32 10 52 30t30 43t10 52t-18 50q-17 22 -48 40q-25 17 -66 36q-46 21 -76 38q-37 17 -76 43q-34 21 -68 55q-30 35 -47 73q-18 41 -18 96q0 59 19 109q17 49 50 94q33 42 76 76q45 34 92 57q-25 32 -34 62q-11 29 -11 71q0 36 9 78q8 41 27 78
q20 40 51 74q32 35 76 60q47 26 106 42q62 15 139 15q43 0 81 -6q41 -6 70 -15q26 -6 54 -19q21 -10 33 -22q13 -13 13 -40zM716 578q0 27 -10 44q-10 19 -28 34q-16 13 -40 26q-27 14 -48 23q-23 9 -50 23q-24 9 -49 26q-32 -13 -55 -30q-24 -16 -44 -41q-17 -19 -29 -49
q-10 -26 -10 -57q0 -25 10 -44q11 -19 27 -33q18 -15 40 -26q5 -3 14.5 -7.5t17.5 -8.5l16 -8q17 -7 51 -23q29 -14 49 -27q32 13 54 30q23 14 44 40q16 18 30 50q10 28 10 58z" />
    <glyph glyph-name="dieresis" unicode="&#xa8;" horiz-adv-x="849" 
d="M900 1225q-7 -37 -18 -61q-12 -25 -30 -38q-18 -14 -42 -19q-30 -5 -61 -5q-32 0 -57 5q-21 4 -36 19q-13 14 -14 38q-3 25 4 61q6 37 18 61q11 24 29 38q20 15 43 19q28 5 59 5q33 0 58 -5q21 -4 36 -19q13 -13 15 -38q3 -25 -4 -61zM509 1225q-7 -37 -18 -61t-29 -38
q-20 -15 -44 -19q-27 -5 -59 -5q-33 0 -58 5q-22 4 -35 19q-13 13 -16 38q-2 27 5 61q6 35 17 61q12 25 30 38q20 15 43 19q28 5 60 5t57 -5q21 -4 36 -19q13 -13 16 -38q2 -27 -5 -61zM0 960z" />
    <glyph glyph-name="copyright" unicode="&#xa9;" horiz-adv-x="1709" 
d="M813 135q101 0 181 21q83 24 142 58q64 38 109 86q46 49 79 106q33 58 54 118q22 63 32 120q13 65 16 114q5 47 5 102q0 44 -7 100q-10 53 -27 92q-20 43 -51 77q-33 34 -83 60q-49 25 -119 39t-159 14q-101 0 -187 -22q-85 -25 -145 -62q-61 -36 -109 -89
q-43 -47 -78 -109q-35 -68 -51 -119q-19 -59 -31 -119q-10 -67 -14 -110q-4 -45 -4 -90q0 -55 7 -101q8 -50 25 -92q19 -42 51 -79q32 -35 81 -61q55 -28 120 -40q72 -14 163 -14zM1612 879q0 -63 -7 -129q-8 -73 -25 -144q-15 -67 -46 -150q-29 -72 -75 -146
q-46 -70 -107 -130q-58 -58 -144 -106q-80 -44 -188 -72q-108 -25 -234 -25q-112 0 -207 19q-89 21 -157 54q-69 37 -111 84q-44 47 -73 106q-28 56 -40 122q-12 63 -12 133q0 62 7 129q8 72 24 144q16 71 47 151q26 70 73 146q41 67 107 131q58 58 144 106q85 47 188 72
q107 26 236 26q117 0 202 -19q91 -20 156 -53q66 -34 112 -82q46 -46 75 -104q29 -59 42 -124t13 -139zM1232 1018q0 -12 -4 -44q-7 -30 -14 -46q-7 -22 -20 -36q-10 -15 -25 -15q-11 0 -27 11q-10 9 -32 24q-21 14 -47 24q-30 11 -71 11q-46 0 -86 -20q-36 -20 -64 -52
q-25 -29 -46 -73q-19 -42 -29 -82q-12 -47 -16 -80q-5 -43 -5 -66q0 -71 32 -108q31 -37 100 -37q53 0 86 13q35 12 61 26q31 18 43 28q18 12 33 12q9 0 15 -7q4 -10 4 -22q0 -14 -3 -35q-3 -20 -9 -43q-3 -15 -13 -41q-7 -19 -17 -27q-15 -13 -40 -29q-33 -17 -59 -26
q-34 -11 -73 -18q-36 -7 -82 -7q-150 0 -225 75t-75 220q0 54 10 114q9 65 31 126q23 64 57 123q37 59 88 105q51 45 122 74q68 28 159 28q74 0 131 -17q53 -16 88 -42q13 -12 17 -19q5 -10 5 -22z" />
    <glyph glyph-name="ordfeminine" unicode="&#xaa;" horiz-adv-x="903" 
d="M782 461q0 -10 -3 -31q-3 -27 -11 -46q-6 -23 -20 -40q-12 -18 -31 -18h-586q-18 0 -24 9t-6 29q0 10 3 32q3 25 10 45q9 26 20 40q14 17 32 17h586q16 0 24 -9q6 -9 6 -28zM808 650q-4 -15 -28 -24q-26 -7 -79 -7q-21 0 -43 2q-15 1 -26 5q-10 4 -14 10q-3 5 -1 14
l15 94q-10 -21 -35 -46q-24 -26 -57 -45q-36 -20 -74 -33q-40 -12 -84 -12q-60 0 -99 20q-38 17 -65 53q-26 37 -34 79q-11 40 -11 95q0 44 9 97q7 49 26 102q18 48 48 98q29 45 70 82q40 36 93 57q52 21 119 21q58 0 108 -22q49 -25 83 -70l10 50q3 16 29 22q22 7 78 7
q53 0 70 -7q19 -6 16 -22zM676 1074q-21 31 -52 52q-28 18 -66 18q-28 0 -51 -12q-24 -15 -41 -34q-16 -19 -32 -49q-16 -38 -22 -59q-10 -42 -12 -63q-5 -26 -5 -61q0 -18 3 -34q2 -13 10 -28q10 -13 22 -19q11 -7 34 -7q27 0 58 18q29 18 60 52q32 40 50 76q22 40 33 92z
" />
    <glyph glyph-name="guillemotleft" unicode="&#xab;" horiz-adv-x="1103" 
d="M111 484q-12 28 -9 48q0 21 20 43l283 347q5 6 15 16q6 4 22 10q19 4 34 5q26 2 49 2q38 0 59 -3q24 -4 34 -12q10 -7 10 -17q-2 -11 -11 -23l-278 -388l123 -370q2 -9 2 -24q-3 -10 -13 -17q-8 -6 -33 -11q-21 -4 -60 -4q-24 0 -46 2q-17 1 -28 6q-10 3 -14 10
q-5 7 -8 15zM524 484q-12 25 -10 46q2 22 21 44l270 328q8 8 17 14q7 7 22 10q3 1 32 6q6 0 22.5 0.5t26.5 0.5q37 0 59 -3q24 -5 33 -10q10 -7 10 -16t-9 -23l-270 -368l127 -356q3 -14 1 -21q0 -7 -12 -14q-10 -6 -33 -9t-59 -3q-35 0 -46 1q-20 2 -26 5q-10 3 -15 8
t-8 14z" />
    <glyph glyph-name="logicalnot" unicode="&#xac;" horiz-adv-x="1020" 
d="M896 277q-1 -9 -8 -19q-7 -9 -19 -14q-16 -5 -33 -8q-21 -3 -50 -3q-28 0 -47 3q-18 3 -30 8q-10 6 -15 14q-3 8 -1 19l44 214h-646q-13 0 -20 9q-7 10 -7 32q0 12 2 21q0 9 4 31l10 35q3 11 12 32q12 18 18 23q10 10 23 10h758q45 0 63 -20q17 -21 7 -68z" />
    <glyph glyph-name="registered" unicode="&#xae;" horiz-adv-x="1038" 
d="M1043 1053q0 -95 -37 -180q-38 -81 -100 -141q-65 -58 -143 -91q-79 -33 -166 -33q-91 0 -163 30q-70 28 -121 79q-49 49 -75 116t-26 139q0 102 38 182q36 83 100 142q62 59 143 92t167 33q93 0 161 -29q70 -27 121 -78q50 -50 75 -116q26 -69 26 -145zM924 1042
q0 59 -17 110q-15 48 -51 88q-36 37 -86 58q-52 20 -119 20t-123 -25q-62 -26 -102 -69q-41 -38 -70 -104q-25 -64 -25 -133q0 -65 19 -115q18 -52 54 -86q34 -34 87 -56q54 -19 116 -19q66 0 123 25q56 23 101 68q42 42 68 105q25 60 25 133zM788 857q2 -16 0 -21
q0 -8 -8 -14q-9 -4 -22 -5q-11 -1 -41 -1q-39 0 -53 6q-11 6 -13 20l-5 64q-5 32 -14 46q-12 14 -34 14h-26l-25 -128q-1 -11 -16 -18q-18 -4 -51 -4q-38 0 -50 5q-11 5 -9 17l68 343q6 28 22 42q17 15 45 15h113q39 0 71 -6q29 -7 52 -20q22 -17 30 -34q11 -19 11 -50
q0 -26 -9 -48t-25 -36q-17 -17 -37 -27q-23 -11 -44 -17q23 -8 38 -26q16 -17 22 -52zM697 1113q0 7 -3 13q-2 6 -8 11q-6 6 -16 7q-9 3 -26 3h-36l-19 -94h33q20 0 37 5q15 5 23 14q9 7 12 19q3 11 3 22z" />
    <glyph glyph-name="macron" unicode="&#xaf;" horiz-adv-x="799" 
d="M857 1284q0 -2 -0.5 -8.5t-0.5 -11.5q-1 -5 -2.5 -14.5t-2.5 -13.5q-1 -6 -3.5 -17t-3.5 -16q-8 -22 -12 -31q-12 -18 -18 -23q-9 -9 -22 -9h-511q-17 0 -25 9q-8 10 -8 30q0 11 3 33q3 28 11 49q5 20 20 43q15 19 36 19h511q17 0 22 -11q6 -9 6 -28zM0 960z" />
    <glyph glyph-name="degree" unicode="&#xb0;" horiz-adv-x="701" 
d="M758 1145q0 -60 -22 -115q-24 -52 -63 -90q-43 -38 -93 -58q-55 -20 -115 -20q-63 0 -111 18q-49 19 -82 51q-33 30 -52 75q-17 46 -17 93q0 60 23 115q22 51 63 90q43 38 94 58q55 20 114 20q61 0 111 -18q48 -20 82 -52t50 -75q18 -43 18 -92zM586 1134q0 42 -26 71
t-75 29q-23 0 -42 -9q-21 -10 -35 -25q-15 -15 -24 -38q-9 -22 -9 -50q0 -43 26 -74q26 -29 74 -29q23 0 42 9q21 10 35 25q16 16 25 39q9 22 9 52zM0 1294z" />
    <glyph glyph-name="plusminus" unicode="&#xb1;" horiz-adv-x="1020" 
d="M1015 808q0 -4 -2 -22q-1 -8 -5 -31q-6 -22 -10 -33q-4 -16 -12 -30t-16 -22q-10 -9 -22 -9h-300l-66 -328q-2 -7 -9 -17q-8 -8 -18 -12q-14 -5 -31 -8q-21 -3 -49 -3t-47 3q-17 3 -29 8q-9 4 -15 12q-3 8 -1 17l66 328h-301q-13 0 -20 13q-7 11 -7 35q0 2 0.5 9t0.5 12
q1 3 2.5 13.5t3.5 16.5q4 20 8 31q3 15 12 29q5 11 16 22q11 8 21 8h302l66 329q1 9 9 17t20 12q12 6 32 9t48 3t46 -3t29 -9q10 -4 13 -12q3 -6 1 -17l-66 -329h305q13 0 19 -10q6 -11 6 -32zM869 155q0 -22 -5 -43q-2 -17 -12 -51q-7 -23 -20 -43q-14 -18 -30 -18h-769
q-10 0 -20 10q-9 12 -9 32t4 44q5 26 12 49q7 24 20 41q12 18 28 18h774q14 0 20 -10q7 -10 7 -29z" />
    <glyph glyph-name="uni00B2" unicode="&#xb2;" horiz-adv-x="692" 
d="M707 838q0 -10 -3 -29q-1 -18 -8 -41q-4 -19 -14 -37q-9 -16 -23 -16h-486q-31 0 -41 9q-10 7 -10 29q0 11 3 31q3 22 11 40q5 19 20 44q14 23 35 40l178 146q44 36 71 66q31 30 47 56q14 24 25 50q7 26 7 44q0 29 -17 46q-15 18 -54 18q-34 0 -62 -9q-22 -7 -50 -19
l-40 -20q-15 -9 -28 -9q-11 0 -14 6q-5 5 -5 24q0 9 3 29q1 12 7 38q4 19 11 38q8 19 15 26q13 12 41 26q26 11 62 22q28 9 72 16q35 7 72 7q69 0 116 -16q48 -18 74 -42q29 -25 40 -59q12 -32 12 -65q0 -42 -14 -87q-12 -39 -47 -90q-34 -47 -87 -98q-56 -51 -135 -111
l-90 -70h287q10 0 14 -9q5 -10 5 -24z" />
    <glyph glyph-name="uni00B3" unicode="&#xb3;" horiz-adv-x="688" 
d="M722 967q0 -49 -22 -101q-24 -48 -69 -86q-47 -36 -118 -60q-75 -22 -169 -22q-60 0 -110 10q-53 9 -91 29q-12 6 -17 14q-6 7 -6 25q0 8 3 27t9 39q3 15 13 36q7 15 19 15q10 0 21 -7q13 -7 31 -14q27 -9 48 -14q27 -6 67 -6q39 0 63 8q25 5 50 21q21 15 30 34
q11 18 11 46q0 17 -7 31q-7 15 -22 24q-16 11 -45 17q-28 6 -71 6h-61q-14 0 -19 7q-6 9 -6 22q0 10 3 30q3 19 9 37q9 21 16 32q11 14 23 14h61q35 0 70 7q32 9 52 22q22 13 33 35t11 48q0 11 -3 23q-3 11 -12 20t-25 14q-18 6 -42 6q-32 0 -62 -8q-22 -6 -54 -19
q-7 -3 -21.5 -9.5t-20.5 -9.5q-21 -8 -30 -8q-15 0 -15 26q0 8 3 24q1 6 3.5 18.5t2.5 15.5q9 29 12 34q6 16 15 24q8 9 32 22q20 9 55 21q29 10 72 16q39 6 81 6q66 0 111 -15q44 -13 74 -38q28 -22 40 -54q13 -30 13 -64q0 -46 -15 -84q-13 -33 -40 -65q-28 -29 -60 -46
q-33 -18 -71 -27v-2q37 -4 67 -20q25 -13 45 -34q18 -21 27 -46q8 -26 8 -47z" />
    <glyph glyph-name="acute" unicode="&#xb4;" horiz-adv-x="616" 
d="M459 1118q-5 -7 -16 -16q-6 -6 -21 -11q-14 -5 -32 -6q-26 -2 -48 -2q-36 0 -55 3q-21 3 -28 10q-8 6 -5 16q1 8 11 23l152 229q9 13 18 19q10 7 25 13q30 5 39 6q30 2 56 2q38 0 72 -4q27 -6 37 -12q11 -9 10 -18t-11 -20zM0 960z" />
    <glyph glyph-name="uni00B5" unicode="&#xb5;" horiz-adv-x="1134" 
d="M1059 179q0 -5 -3 -29q-1 -20 -8 -48q-7 -31 -16 -53q-9 -25 -23 -41q-9 -7 -21 -12q-10 -4 -31 -9q-12 -3 -38 -7q-26 -2 -40 -2q-101 0 -150 52q-49 50 -41 147q-21 -36 -56 -71q-34 -34 -76 -62q-44 -29 -88 -44q-46 -17 -88 -17q-24 0 -40 4q-14 4 -31 11
q-15 10 -22 17q-9 9 -13 19l-24 -200l-30 -154q-2 -10 -9 -18q-9 -9 -23 -14q-20 -6 -40 -8q-25 -3 -62 -3q-38 0 -60 3q-21 3 -37 8q-14 6 -17 14q-5 6 -3 18l249 1247q2 11 10 17q6 9 22 12q13 5 41 8q34 2 62 2t60 -2q26 -3 37 -8q12 -3 17 -12q4 -5 2 -17l-109 -542
q-6 -38 -10 -78q0 -36 7 -60t27 -39q20 -13 50 -13q40 0 86 26q43 25 84 71q37 42 72 108q32 65 46 134l78 393q2 11 10 17q6 9 23 12q13 5 41 8q32 2 61 2t61 -2q26 -3 36 -8q12 -3 18 -12q3 -7 2 -17l-124 -616q-6 -28 -8 -57q-1 -20 4 -38q5 -14 18 -20q11 -7 31 -7
q28 0 43 5q20 4 28 4q7 0 11 -4t4 -15z" />
    <glyph glyph-name="paragraph" unicode="&#xb6;" horiz-adv-x="1224" 
d="M934 -203q-2 -8 -8 -14q-4 -4 -18 -11q-21 -5 -30 -6q-26 -2 -47 -2q-54 0 -73 8q-18 9 -15 25l265 1322h-176l-264 -1322q-2 -8 -8 -14q-3 -4 -17 -11q-21 -5 -31 -6q-26 -2 -46 -2q-53 0 -74 8q-18 9 -15 25l142 708q-90 0 -156 22q-67 23 -111 63q-45 40 -67 100
q-22 56 -22 130q0 55 12 112t39 109q25 51 68 99q42 47 101 80q58 36 137 54q73 20 175 20h478q29 0 41 -17q13 -16 7 -46z" />
    <glyph glyph-name="periodcentered" unicode="&#xb7;" horiz-adv-x="548" 
d="M455 658q0 -24 -4 -48q-3 -16 -11 -50q-6 -16 -18 -46q-13 -24 -25 -36q-22 -22 -55 -29q-37 -8 -73 -8q-33 0 -61 5q-25 6 -38 18q-14 12 -21 28q-6 18 -6 39q0 25 5 45q3 26 12 52q5 23 17 48q11 23 23 33q19 19 48 29q31 11 82 11q33 0 60 -5q25 -6 40 -18
q14 -11 20 -28q5 -18 5 -40z" />
    <glyph glyph-name="cedilla" unicode="&#xb8;" horiz-adv-x="621" 
d="M390 -157q0 -54 -18 -93t-50 -66q-31 -25 -76 -37t-99 -12q-19 0 -55 2q-31 2 -51 7q-18 2 -41 10q-14 3 -30 10q-9 5 -16 12q-4 10 -4 20q0 4 2 28q3 18 9 36t17 32q10 13 27 13h114q13 0 27 3q13 5 22 10q10 7 16 18q5 12 5 25q0 3 -0.5 10.5t-0.5 12.5q-1 5 -2.5 13.5
t-2.5 12.5l-23 90h199l16 -66q5 -17 11 -47q4 -20 4 -44z" />
    <glyph glyph-name="uni00B9" unicode="&#xb9;" horiz-adv-x="517" 
d="M461 737q-1 -8 -7 -13q-5 -5 -17 -8q-5 -2 -32 -6q-5 0 -22 -0.5t-29 -0.5q-10 0 -26.5 0.5t-21.5 0.5q-26 4 -31 6q-10 3 -15 8q-3 7 -2 13l113 562l-130 -56q-32 -12 -40 -5q-9 8 -9 26q0 4 2 30q1 16 8 36q3 15 13 34q7 15 20 23l196 105q6 5 13 6q4 1 16 3q8 1 26 1
q10 1 40 1q10 0 26 -0.5t20 -0.5q23 -4 26 -5q10 -3 10 -7q2 -4 2 -10z" />
    <glyph glyph-name="ordmasculine" unicode="&#xba;" horiz-adv-x="891" 
d="M903 1060q0 -56 -10 -107q-11 -56 -31 -105q-25 -55 -56 -94q-37 -46 -82 -76q-45 -32 -110 -52q-62 -18 -140 -18q-88 0 -148 23q-56 22 -92 59q-33 35 -47 82q-13 43 -13 91q0 42 8 96t28 101q16 45 51 97q31 46 80 81t113 56q66 21 152 21q89 0 144 -23q56 -20 92 -58
q33 -36 48 -83q13 -50 13 -91zM677 1042q0 22 -5 42q-4 19 -16 34q-14 15 -32 22q-18 9 -48 9q-34 0 -62 -14q-26 -13 -47 -37q-19 -24 -33 -54q-13 -30 -20 -58q-8 -34 -11 -58q-3 -29 -3 -47q0 -16 4 -42q6 -21 16 -33q13 -16 32 -24t48 -8q36 0 62 13q23 12 46 35
q24 32 32 51q14 27 22 57q7 29 12 59q3 29 3 53zM758 461q0 -10 -3 -31q-3 -26 -10 -46q-9 -26 -19 -40q-14 -18 -32 -18h-553q-17 0 -23 9q-7 8 -7 29q0 10 3 32q2 15 10 45q11 28 20 40q14 17 33 17h552q17 0 23 -9t6 -28z" />
    <glyph glyph-name="guillemotright" unicode="&#xbb;" horiz-adv-x="1103" 
d="M1011 556q10 -25 9 -47q-1 -21 -20 -44l-283 -346q-8 -10 -16 -15q-9 -7 -23 -10q-11 -4 -32 -6q-28 -2 -49 -2q-40 0 -60 4q-18 2 -33 10q-10 10 -10 18q1 10 10 23l278 388l-122 370q-4 12 -2 23q1 10 14 18q9 6 33 11q20 4 59 4q24 0 46 -2q14 -1 27 -5q9 -4 15 -10
l2 -4t1.5 -3.5t2 -4t2.5 -4.5zM598 556q10 -24 10 -46q-4 -23 -21 -43l-271 -328q-8 -10 -16 -15q-6 -4 -22 -10q-20 -4 -33 -4q-13 -2 -48 -2q-37 0 -59 3q-23 3 -32 9q-11 7 -11 17q0 9 9 23l270 368l-127 356q-3 8 -3 20q3 10 14 15q10 6 32 9q23 3 59 3q35 0 47 -1
q19 -2 26 -4q11 -5 14 -10q2 -2 9 -13z" />
    <glyph glyph-name="onequarter" unicode="&#xbc;" horiz-adv-x="1347" 
d="M1235 220q0 -8 -3 -24q-1 -12 -7 -36q-4 -16 -13 -30q-8 -14 -21 -14h-63l-20 -97q-2 -7 -7 -11q-7 -5 -19 -8q-18 -4 -34 -4q-13 -2 -48 -2t-46 2q-14 0 -28 4q-8 2 -14 8q-3 5 -2 11l20 97h-277q-17 0 -25 6q-6 7 -6 26q0 12 3 31q3 18 9 43q13 37 16 44q9 23 22 37
l273 328q7 10 42 16t105 6q31 0 67 -2q26 -1 43 -6q16 -4 22 -9q8 -5 6 -11l-75 -375h63q8 0 13 -8q4 -7 4 -22zM1006 500h-2l-208 -250h160zM202 7q-11 -13 -22 -19q-11 -8 -28 -13q-19 -6 -36 -7q-26 -2 -50 -2q-66 0 -78 16q-14 15 12 44l1175 1263q12 12 23 19
q13 9 26 13q22 6 37 7q28 2 50 2q34 0 53 -4q19 -5 26 -12t4 -19q-6 -14 -17 -25zM477 667q-2 -8 -6 -11q-3 -5 -17 -8q-5 -2 -33 -6q-5 0 -22 -0.5t-29 -0.5q-11 0 -27.5 0.5t-22.5 0.5q-29 4 -31 5q-10 3 -15 8q-4 4 -2 12l91 453l-133 -57q-30 -11 -40 -5q-9 6 -9 26
q0 12 3 30q1 16 8 34q5 15 14 32q10 14 21 20l192 98q6 2 11 4q3 0 17 2q4 1 13 1.5t14 0.5h43q36 0 47 -1q19 -2 26 -3q9 -2 11 -5q2 -4 1 -8z" />
    <glyph glyph-name="onehalf" unicode="&#xbd;" horiz-adv-x="1415" 
d="M477 667q-2 -8 -6 -11q-3 -5 -17 -8q-5 -2 -33 -6q-5 0 -22 -0.5t-29 -0.5q-11 0 -27.5 0.5t-22.5 0.5q-29 4 -31 5q-10 3 -15 8q-4 4 -2 12l91 453l-133 -57q-30 -11 -40 -5q-9 6 -9 26q0 12 3 30q1 16 8 34q5 15 14 32q10 14 21 20l192 98q6 2 11 4q3 0 17 2
q4 1 13 1.5t14 0.5h43q36 0 47 -1q19 -2 26 -3q9 -2 11 -5q2 -4 1 -8zM1270 111q0 -3 -2 -29q-2 -12 -8 -36q-6 -17 -14 -32q-8 -14 -20 -14h-444q-29 0 -42 8q-11 8 -11 31q0 11 3 29q1 14 8 36q8 18 18 36q13 18 29 31l159 119q37 30 62 53q25 21 42 43q15 18 24 39
q7 17 7 38q0 9 -3 17q-4 8 -12 16q-5 5 -22 12q-16 4 -30 4q-30 0 -54 -7q-27 -8 -44 -15q-30 -14 -36 -16q-13 -8 -24 -8q-9 0 -14 8q-6 7 -6 25q0 5 2 27q1 13 7 34q3 12 13 34q9 15 21 21q44 23 103 37q56 12 112 12q65 0 110 -14q44 -15 70 -38q27 -26 36 -52
q11 -28 11 -57q0 -42 -14 -81q-13 -36 -45 -72q-32 -38 -79 -74q-59 -45 -119 -83l-69 -50h256q11 0 15 -9t4 -23zM202 7q-11 -13 -22 -19q-11 -8 -28 -13q-19 -6 -36 -7q-26 -2 -50 -2q-66 0 -78 16q-14 15 12 44l1175 1263q12 12 23 19q13 9 26 13q22 6 37 7q28 2 50 2
q34 0 53 -4q19 -5 26 -12t4 -19q-6 -14 -17 -25z" />
    <glyph glyph-name="threequarters" unicode="&#xbe;" horiz-adv-x="1437" 
d="M678 855q0 -26 -8 -55q-7 -26 -26 -53q-15 -22 -44 -47q-26 -20 -66 -37q-35 -15 -88 -25q-54 -8 -114 -8q-61 0 -110 10q-51 9 -88 27q-15 6 -21 15q-6 8 -6 25q0 1 2 25q2 19 7 32q2 12 10 30q7 12 17 12q7 0 19 -6q22 -10 33 -14q22 -9 48 -14q27 -7 67 -7q32 0 58 6
q22 5 42 17q17 13 24 28q9 18 9 38q0 14 -5 24q-4 11 -20 19q-12 7 -39 13q-34 4 -64 4h-64q-14 0 -20 6t-6 19q0 8 3 23q1 9 7 34q4 14 13 28q9 13 22 13h67q70 0 108 25q39 26 39 65q0 9 -3 17t-11 16q-9 8 -24 12q-18 5 -41 5q-27 0 -59 -7l-25.5 -8.5t-23.5 -7.5
q-7 -3 -19.5 -8.5t-18.5 -7.5q-15 -8 -25 -8q-8 0 -13 6q-5 7 -5 23q0 7 2 27q4 20 8 29q3 12 10 25q9 14 14 17q16 11 39 21q17 8 53 17q31 8 63 11q29 5 72 5q58 0 105 -11q45 -11 72 -32q29 -19 42 -48q14 -28 14 -64q0 -27 -10 -60q-14 -32 -32 -50q-23 -24 -54 -40
q-31 -17 -73 -26q41 -3 65 -16q27 -12 42 -30q15 -15 23 -38q7 -20 7 -41zM290 7q-11 -13 -22 -19q-11 -8 -28 -13q-19 -6 -36 -7q-26 -2 -50 -2q-66 0 -78 16q-14 15 12 44l1175 1263q12 12 23 19q13 9 26 13q22 6 37 7q28 2 50 2q34 0 53 -4q19 -5 26 -12t4 -19
q-6 -14 -17 -25zM1325 220q0 -8 -3 -24q-1 -12 -7 -36q-4 -16 -13 -30q-8 -14 -21 -14h-63l-20 -97q-2 -7 -7 -11q-7 -5 -19 -8q-18 -4 -34 -4q-13 -2 -48 -2t-46 2q-14 0 -28 4q-8 2 -14 8q-3 5 -2 11l20 97h-277q-17 0 -25 6q-6 7 -6 26q0 12 3 31q3 18 9 43q13 37 16 44
q9 23 22 37l273 328q7 10 42 16t105 6q31 0 67 -2q26 -1 43 -6q16 -4 22 -9q8 -5 6 -11l-75 -375h63q8 0 13 -8q4 -7 4 -22zM1096 500h-2l-208 -250h160z" />
    <glyph glyph-name="questiondown" unicode="&#xbf;" horiz-adv-x="949" 
d="M27 143q0 80 22 153q22 74 71 135q50 62 125 102q77 41 183 51l46 191q4 18 34 27t83 9q24 0 54 -2q25 -2 35 -5q13 -4 17 -11q4 -6 2 -18l-37 -236q-4 -31 -14 -52q-8 -20 -21 -32q-14 -13 -30 -17q-15 -4 -37 -4h-8q-73 0 -122 -25q-49 -24 -79 -61q-29 -37 -43 -82
q-13 -42 -13 -84q0 -36 11 -69q11 -32 33 -56q23 -23 57 -36q33 -13 80 -13q53 0 95 11t71 24q18 7 50 25q20 12 31 12q9 0 14 -11q5 -12 5 -34q0 -10 -3 -31q-1 -15 -7 -45q-3 -17 -13 -44q-8 -22 -18 -32q-11 -11 -42 -25q-36 -16 -70 -25q-41 -11 -85 -18q-42 -7 -88 -7
q-73 0 -134 14q-58 13 -101 37q-41 23 -73 56q-27 30 -48 70q-19 37 -26 77q-7 38 -7 81zM491 998q0 21 4 42q6 32 10 48q9 29 17 46q10 22 22 35q18 18 49 28q27 10 75 10q36 0 60 -6q22 -4 37 -16q13 -11 18 -27q5 -17 5 -35q0 -16 -3 -40q-3 -26 -10 -48q-9 -31 -17 -48
q-9 -22 -23 -36q-22 -22 -52 -31q-30 -8 -71 -8q-39 0 -63 6q-23 8 -36 18q-14 12 -18 28q-4 15 -4 34z" />
    <glyph glyph-name="Agrave" unicode="&#xc0;" horiz-adv-x="1241" 
d="M1126 98q5 -41 4 -57q0 -23 -14 -31q-11 -11 -44 -14q-42 -2 -85 -2q-46 0 -62 2q-22 0 -37 5q-14 5 -18 12t-6 22l-35 260h-486l-134 -254q-9 -16 -16 -23q-9 -10 -26 -15q-21 -6 -45 -7q-40 -2 -72 -2q-45 0 -72 3q-25 3 -34 15q-8 11 -2 32q10 27 26 56l628 1148
q12 19 20 28q13 11 28 16q26 6 50 6q22 2 83 2q71 0 93 -2q28 0 54 -6q19 -6 25 -17q7 -12 8 -30zM733 1047h-1l-289 -550h364zM891 1439q12 -15 13 -24q3 -10 -6 -17q-10 -6 -30 -9q-21 -3 -54 -3q-24 0 -52 2q-9 1 -36 6q-21 9 -24 12q-8 4 -21 15l-214 200q-14 14 -18 25
q-4 12 6 22q11 9 36 15t71 6q14 0 34 -0.5t28 -0.5q28 -4 42 -7q17 -4 30 -14q12 -9 24 -24zM126 1294z" />
    <glyph glyph-name="Aacute" unicode="&#xc1;" horiz-adv-x="1241" 
d="M1126 98q5 -41 4 -57q0 -23 -14 -31q-11 -11 -44 -14q-42 -2 -85 -2q-46 0 -62 2q-22 0 -37 5q-14 5 -18 12t-6 22l-35 260h-486l-134 -254q-9 -16 -16 -23q-9 -10 -26 -15q-21 -6 -45 -7q-40 -2 -72 -2q-45 0 -72 3q-25 3 -34 15q-8 11 -2 32q10 27 26 56l628 1148
q12 19 20 28q13 11 28 16q26 6 50 6q22 2 83 2q71 0 93 -2q28 0 54 -6q19 -6 25 -17q7 -12 8 -30zM733 1047h-1l-289 -550h364zM919 1421q-5 -4 -21 -15q-10 -6 -26 -11q-11 -4 -36 -7q-28 -2 -52 -2q-68 0 -84 13q-14 13 11 40l189 204q17 17 26 23q15 10 31 14q23 6 43 7
q34 2 61 2q47 0 72 -6t34 -15q9 -10 3 -22q-4 -11 -20 -25zM383 1294z" />
    <glyph glyph-name="Acircumflex" unicode="&#xc2;" horiz-adv-x="1241" 
d="M1126 98q5 -41 4 -57q0 -23 -14 -31q-11 -11 -44 -14q-42 -2 -85 -2q-46 0 -62 2q-22 0 -37 5q-14 5 -18 12t-6 22l-35 260h-486l-134 -254q-9 -16 -16 -23q-9 -10 -26 -15q-21 -6 -45 -7q-40 -2 -72 -2q-45 0 -72 3q-25 3 -34 15q-8 11 -2 32q10 27 26 56l628 1148
q12 19 20 28q13 11 28 16q26 6 50 6q22 2 83 2q71 0 93 -2q28 0 54 -6q19 -6 25 -17q7 -12 8 -30zM733 1047h-1l-289 -550h364zM1165 1434q8 -13 10 -24q2 -9 -9 -14q-12 -7 -31 -8q-28 -2 -55 -2q-50 0 -66 2q-20 0 -40 4q-15 5 -20 10q-6 5 -13 15l-90 137l-149 -134
q-11 -11 -22 -18q-7 -4 -27 -10q-22 -4 -43 -4q-18 -2 -68 -2q-28 0 -54 2q-17 3 -28 8q-7 7 -2 15q3 8 19 23l238 214q13 14 27 21q12 6 33 13q18 3 42 6q7 0 26.5 0.5t31.5 0.5q39 0 53 -1q26 -2 36 -5q14 -4 26 -13q8 -7 20 -22zM166 1294z" />
    <glyph glyph-name="Atilde" unicode="&#xc3;" horiz-adv-x="1241" 
d="M1126 98q5 -41 4 -57q0 -23 -14 -31q-11 -11 -44 -14q-42 -2 -85 -2q-46 0 -62 2q-22 0 -37 5q-14 5 -18 12t-6 22l-35 260h-486l-134 -254q-9 -16 -16 -23q-9 -10 -26 -15q-21 -6 -45 -7q-40 -2 -72 -2q-45 0 -72 3q-25 3 -34 15q-8 11 -2 32q10 27 26 56l628 1148
q12 19 20 28q13 11 28 16q26 6 50 6q22 2 83 2q71 0 93 -2q28 0 54 -6q19 -6 25 -17q7 -12 8 -30zM733 1047h-1l-289 -550h364zM1048 1636q2 10 6 13q3 5 14 8q7 2 24 4q11 1 38 1q44 0 58 -6q14 -8 14 -20q0 -1 -0.5 -4.5t-1 -9.5t-0.5 -11q-2 -22 -10 -47q-5 -24 -22 -58
q-13 -30 -40 -57q-29 -27 -66 -43q-42 -17 -98 -17q-53 0 -92 15q-41 18 -69 34q-15 9 -57 34q-26 16 -57 16q-35 0 -51 -19q-17 -20 -20 -54q-1 -6 -6 -13q-8 -6 -14 -8q-18 -2 -25 -4q-4 0 -16.5 -0.5t-20.5 -0.5q-44 0 -59 6t-15 22q0 1 2 31q3 22 12 49q10 30 25 56
q18 30 43 53q24 24 64 40q38 16 94 16q54 0 92 -16q41 -16 68 -34q28 -17 58 -34q26 -16 56 -16q29 0 48 16q20 18 24 58zM163 1294z" />
    <glyph glyph-name="Adieresis" unicode="&#xc4;" horiz-adv-x="1241" 
d="M1126 98q5 -41 4 -57q0 -23 -14 -31q-11 -11 -44 -14q-42 -2 -85 -2q-46 0 -62 2q-22 0 -37 5q-14 5 -18 12t-6 22l-35 260h-486l-134 -254q-9 -16 -16 -23q-9 -10 -26 -15q-21 -6 -45 -7q-40 -2 -72 -2q-45 0 -72 3q-25 3 -34 15q-8 11 -2 32q10 27 26 56l628 1148
q12 19 20 28q13 11 28 16q26 6 50 6q22 2 83 2q71 0 93 -2q28 0 54 -6q19 -6 25 -17q7 -12 8 -30zM733 1047h-1l-289 -550h364zM1186 1528q-6 -36 -18 -58q-11 -24 -30 -37q-20 -15 -44 -19q-26 -6 -62 -6q-38 0 -62 6q-21 4 -36 19q-13 13 -15 37q-2 25 4 58q6 32 17 62
q12 26 29 40q19 14 44 20t64 6q36 0 60 -6q23 -6 37 -20q13 -14 16 -40q2 -27 -4 -62zM749 1528q-6 -34 -17 -58t-30 -37q-20 -15 -44 -19q-27 -6 -62 -6q-38 0 -62 6q-22 4 -37 19q-13 13 -15 37q-2 27 5 58q5 34 17 62q10 23 28 40q19 14 44 20q27 6 65 6q37 0 59 -6
q22 -5 38 -20q13 -17 16 -40q2 -29 -5 -62zM171 1294z" />
    <glyph glyph-name="Aring" unicode="&#xc5;" horiz-adv-x="1241" 
d="M1126 98q5 -41 4 -57q0 -23 -14 -31q-11 -11 -44 -14q-42 -2 -85 -2q-46 0 -62 2q-22 0 -37 5q-14 5 -18 12t-6 22l-35 260h-486l-134 -254q-9 -16 -16 -23q-9 -10 -26 -15q-21 -6 -45 -7q-40 -2 -72 -2q-45 0 -72 3q-25 3 -34 15q-8 11 -2 32q10 27 26 56l628 1148
q12 19 20 28q13 11 28 16q26 6 50 6q22 2 83 2q71 0 93 -2q28 0 54 -6q19 -6 25 -17q7 -12 8 -30zM733 1047h-1l-289 -550h364zM1081 1586q0 -44 -15 -86q-13 -40 -46 -74q-32 -31 -84 -52q-54 -19 -123 -19q-59 0 -98 13q-42 12 -65 34q-26 21 -38 52q-11 31 -11 65
q0 28 6 55q5 27 19 54q15 27 34 49q23 25 51 40q30 17 69 27q39 9 89 9q59 0 99 -13q40 -14 65 -36t37 -54q11 -31 11 -64zM927 1568q0 15 -4 27q-4 13 -13 23q-8 10 -24 16q-15 6 -37 6q-24 0 -43 -8q-18 -10 -28 -24q-12 -15 -16 -33q-6 -19 -6 -38q0 -15 4 -27
q4 -11 12 -22q9 -9 24 -15q14 -6 36 -6q23 0 42 8q15 6 30 21q12 17 17 32q6 20 6 40zM283 1294z" />
    <glyph glyph-name="AE" unicode="&#xc6;" horiz-adv-x="1588" 
d="M1429 164q0 -2 -2 -22q0 -4 -5 -34q-6 -24 -9 -37q-4 -19 -13 -35q-5 -13 -16 -26q-10 -10 -21 -10h-641q-14 0 -30 4q-16 6 -22 16q-8 10 -11 26t1 37l40 198h-389l-167 -240q-11 -16 -20 -23q-9 -10 -28 -15q-25 -6 -48 -7q-36 -2 -73 -2q-45 0 -70 3q-24 3 -32 15
q-8 11 3 32q11 25 31 56l796 1140q11 19 23 28q9 10 30 17q24 7 52 7q20 2 82 2h726q26 0 26 -39q0 -13 -2 -23q0 -8 -4 -34q0 -3 -8 -38q-8 -24 -14 -35q-5 -13 -17 -27q-12 -10 -22 -10h-454l-63 -317h383q13 0 19 -10q7 -10 7 -31q0 -3 -2 -23q-1 -7 -5 -33q-1 -8 -8 -37
q-7 -21 -14 -35q-5 -13 -16 -24q-10 -10 -22 -10h-384l-72 -362h458q14 0 20 -11q7 -10 7 -31zM860 1088h-3l-424 -606h307z" />
    <glyph glyph-name="Ccedilla" unicode="&#xc7;" horiz-adv-x="1062" 
d="M436 -8q-121 24 -195 89q-72 64 -109 158q-34 96 -34 213q0 95 19 194q20 101 57 196q39 95 98 182q60 88 140 150q78 65 182 103q105 38 228 38q70 0 132 -15q60 -13 110 -38q48 -26 64 -44q18 -18 18 -49q0 -29 -9 -75q-8 -44 -23 -76q-16 -28 -33 -28q-12 0 -31 16
q-12 12 -47 36q-23 15 -74 36q-48 16 -112 16q-73 0 -135 -30q-61 -28 -109 -78q-48 -48 -84 -111q-37 -64 -59 -131q-24 -68 -36 -136q-11 -69 -11 -125q0 -69 17 -123q19 -54 51 -88q34 -36 81 -52q48 -18 108 -18q71 0 122 15t86 33q34 18 60 33q24 15 39 15t19 -10
q5 -10 5 -26q0 -3 -2 -21q-1 -9 -5 -31q-5 -28 -7 -38q-5 -23 -9 -38q-5 -19 -12 -32q-6 -15 -17 -26q-8 -8 -45 -30q-34 -18 -96 -38q-57 -18 -141 -26l13 -48q4 -17 10 -47q4 -20 4 -44q0 -54 -18 -93q-15 -37 -49 -66q-33 -25 -77 -37t-98 -12q-20 0 -56 2q-30 2 -50 7
q-19 2 -42 10q-10 2 -30 10q-10 6 -15 12q-4 7 -4 20q0 10 3 28q1 16 8 36q4 12 16 32q13 13 27 13h114q13 0 27 3q14 5 22 10q10 7 16 18q5 12 5 25q0 3 -0.5 10.5t-0.5 12.5q-1 5 -2.5 13.5t-2.5 12.5z" />
    <glyph glyph-name="Egrave" unicode="&#xc8;" horiz-adv-x="999" 
d="M1056 1256q0 -11 -2 -21q0 -9 -4 -33q-2 -13 -8 -39q-1 -3 -12 -37q-12 -20 -18 -27q-13 -11 -23 -11h-462l-64 -316h392q14 0 20 -10t6 -28q0 -2 -0.5 -9t-0.5 -13q-1 -5 -2.5 -16.5t-2.5 -15.5q-2 -10 -8 -38q-4 -19 -13 -35q-5 -14 -17 -26q-10 -10 -22 -10h-391
l-74 -365h468q11 0 18 -10q6 -12 6 -31q0 -12 -1 -22q-2 -22 -5 -33q-2 -10 -8 -38q-1 -6 -3 -12t-5 -13t-4 -11q-12 -20 -18 -26q-10 -10 -23 -10h-650q-11 0 -29 4q-15 7 -22 16q-8 10 -11 26t1 37l226 1128q9 45 36 63q26 20 60 20h644q26 0 26 -38zM802 1439
q11 -15 14 -24q1 -10 -8 -17q-9 -6 -30 -9q-20 -3 -53 -3q-24 0 -52 2q-12 1 -35 6q-19 8 -26 12q-11 8 -20 15l-214 200q-14 14 -18 25q-4 12 6 22q10 9 36 15t71 6q14 0 34 -0.5t27 -0.5q28 -3 43 -7q17 -4 30 -14q12 -9 24 -24zM37 1294z" />
    <glyph glyph-name="Eacute" unicode="&#xc9;" horiz-adv-x="999" 
d="M1056 1256q0 -11 -2 -21q0 -9 -4 -33q-2 -13 -8 -39q-1 -3 -12 -37q-12 -20 -18 -27q-13 -11 -23 -11h-462l-64 -316h392q14 0 20 -10t6 -28q0 -2 -0.5 -9t-0.5 -13q-1 -5 -2.5 -16.5t-2.5 -15.5q-2 -10 -8 -38q-4 -19 -13 -35q-5 -14 -17 -26q-10 -10 -22 -10h-391
l-74 -365h468q11 0 18 -10q6 -12 6 -31q0 -12 -1 -22q-2 -22 -5 -33q-2 -10 -8 -38q-1 -6 -3 -12t-5 -13t-4 -11q-12 -20 -18 -26q-10 -10 -23 -10h-650q-11 0 -29 4q-15 7 -22 16q-8 10 -11 26t1 37l226 1128q9 45 36 63q26 20 60 20h644q26 0 26 -38zM816 1421
q-11 -10 -22 -15q-6 -5 -24 -11q-12 -4 -36 -7q-30 -2 -53 -2q-69 0 -83 13q-16 13 10 40l189 204q17 17 26 23q15 10 31 14q23 6 43 7q34 2 61 2q46 0 72 -6q25 -6 34 -15q9 -10 4 -22q-6 -11 -21 -25zM280 1294z" />
    <glyph glyph-name="Ecircumflex" unicode="&#xca;" horiz-adv-x="999" 
d="M1056 1256q0 -11 -2 -21q0 -9 -4 -33q-2 -13 -8 -39q-1 -3 -12 -37q-12 -20 -18 -27q-13 -11 -23 -11h-462l-64 -316h392q14 0 20 -10t6 -28q0 -2 -0.5 -9t-0.5 -13q-1 -5 -2.5 -16.5t-2.5 -15.5q-2 -10 -8 -38q-4 -19 -13 -35q-5 -14 -17 -26q-10 -10 -22 -10h-391
l-74 -365h468q11 0 18 -10q6 -12 6 -31q0 -12 -1 -22q-2 -22 -5 -33q-2 -10 -8 -38q-1 -6 -3 -12t-5 -13t-4 -11q-12 -20 -18 -26q-10 -10 -23 -10h-650q-11 0 -29 4q-15 7 -22 16q-8 10 -11 26t1 37l226 1128q9 45 36 63q26 20 60 20h644q26 0 26 -38zM1056 1434
q8 -13 10 -24q2 -9 -9 -14q-12 -7 -31 -8q-28 -2 -55 -2q-50 0 -67 2q-20 0 -38 4q-15 5 -22 10q-6 6 -12 15l-90 137l-149 -134q-3 -3 -21 -18q-10 -5 -28 -10q-22 -4 -44 -4q-17 -2 -67 -2q-28 0 -54 2q-21 3 -27 8q-7 5 -4 15q8 13 20 23l238 214q14 14 28 21q10 6 32 13
q18 3 42 6q7 0 26.5 0.5t31.5 0.5q39 0 54 -1q25 -2 36 -5q16 -5 24 -13q8 -5 21 -22zM57 1294z" />
    <glyph glyph-name="Edieresis" unicode="&#xcb;" horiz-adv-x="999" 
d="M1056 1256q0 -11 -2 -21q0 -9 -4 -33q-2 -13 -8 -39q-1 -3 -12 -37q-12 -20 -18 -27q-13 -11 -23 -11h-462l-64 -316h392q14 0 20 -10t6 -28q0 -2 -0.5 -9t-0.5 -13q-1 -5 -2.5 -16.5t-2.5 -15.5q-2 -10 -8 -38q-4 -19 -13 -35q-5 -14 -17 -26q-10 -10 -22 -10h-391
l-74 -365h468q11 0 18 -10q6 -12 6 -31q0 -12 -1 -22q-2 -22 -5 -33q-2 -10 -8 -38q-1 -6 -3 -12t-5 -13t-4 -11q-12 -20 -18 -26q-10 -10 -23 -10h-650q-11 0 -29 4q-15 7 -22 16q-8 10 -11 26t1 37l226 1128q9 45 36 63q26 20 60 20h644q26 0 26 -38zM1078 1528
q-6 -36 -18 -58q-11 -24 -30 -37q-20 -15 -44 -19q-26 -6 -62 -6q-38 0 -62 6q-21 4 -36 19q-13 13 -15 37q-2 25 4 58q6 32 17 62q12 26 29 40q19 14 44 20t64 6q36 0 60 -6q23 -6 37 -20q13 -14 16 -40q2 -27 -4 -62zM641 1528q-6 -34 -17 -58t-30 -37q-20 -15 -44 -19
q-27 -6 -62 -6q-38 0 -62 6q-22 4 -37 19q-13 13 -15 37q-2 27 5 58q5 34 17 62q10 23 28 40q19 14 44 20q27 6 65 6q37 0 59 -6q22 -5 38 -20q13 -17 16 -40q2 -29 -5 -62zM63 1294z" />
    <glyph glyph-name="Igrave" unicode="&#xcc;" horiz-adv-x="546" 
d="M319 35q-1 -9 -10 -18t-25 -13q-17 -5 -42 -8q-34 -2 -64 -2t-64 2q-22 3 -38 8q-14 5 -19 13t-2 18l245 1224q2 11 10 18q8 8 24 13q22 6 42 8q36 2 64 2q30 0 62 -2q22 -3 40 -8q15 -5 18 -13q5 -6 3 -18zM552 1439q11 -15 14 -24q1 -10 -8 -17q-9 -6 -30 -9
q-20 -3 -53 -3q-24 0 -52 2q-12 1 -35 6q-19 8 -26 12q-11 8 -20 15l-214 200q-14 14 -18 25q-4 12 6 22q10 9 36 15q25 6 71 6q14 0 34 -0.5t27 -0.5q28 -3 43 -7q17 -4 30 -14q12 -9 24 -24zM-213 1294z" />
    <glyph glyph-name="Iacute" unicode="&#xcd;" horiz-adv-x="546" 
d="M319 35q-1 -9 -10 -18t-25 -13q-17 -5 -42 -8q-34 -2 -64 -2t-64 2q-22 3 -38 8q-14 5 -19 13t-2 18l245 1224q2 11 10 18q8 8 24 13q22 6 42 8q36 2 64 2q30 0 62 -2q22 -3 40 -8q15 -5 18 -13q5 -6 3 -18zM564 1421q-11 -10 -22 -15q-6 -5 -24 -11q-12 -4 -36 -7
q-30 -2 -53 -2q-69 0 -83 13q-16 13 10 40l189 204q17 17 26 23q15 10 31 14q23 6 43 7q34 2 61 2q46 0 72 -6q25 -6 34 -15q9 -10 4 -22q-6 -11 -21 -25zM28 1294z" />
    <glyph glyph-name="Icircumflex" unicode="&#xce;" horiz-adv-x="546" 
d="M319 35q-1 -9 -10 -18t-25 -13q-17 -5 -42 -8q-34 -2 -64 -2t-64 2q-22 3 -38 8q-14 5 -19 13t-2 18l245 1224q2 11 10 18q8 8 24 13q22 6 42 8q36 2 64 2q30 0 62 -2q22 -3 40 -8q15 -5 18 -13q5 -6 3 -18zM811 1434q8 -13 10 -24q2 -9 -9 -14q-12 -7 -31 -8
q-28 -2 -55 -2q-50 0 -66 2q-20 0 -40 4q-15 5 -20 10q-6 5 -13 15l-90 137l-149 -134q-11 -11 -22 -18q-7 -4 -27 -10q-22 -4 -43 -4q-18 -2 -68 -2q-28 0 -54 2q-17 3 -28 8q-7 7 -2 15q3 8 19 23l238 214q13 14 27 21q12 6 33 13q18 3 42 6q7 0 26.5 0.5t31.5 0.5
q39 0 53 -1q26 -2 36 -5q14 -4 26 -13q8 -7 20 -22zM-188 1294z" />
    <glyph glyph-name="Idieresis" unicode="&#xcf;" horiz-adv-x="546" 
d="M319 35q-1 -9 -10 -18t-25 -13q-17 -5 -42 -8q-34 -2 -64 -2t-64 2q-22 3 -38 8q-14 5 -19 13t-2 18l245 1224q2 11 10 18q8 8 24 13q22 6 42 8q36 2 64 2q30 0 62 -2q22 -3 40 -8q15 -5 18 -13q5 -6 3 -18zM835 1528q-6 -34 -17 -58q-13 -24 -30 -37q-21 -15 -45 -19
q-26 -6 -62 -6q-39 0 -61 6q-22 4 -37 19q-13 13 -15 37q-2 25 4 58q8 41 18 62q8 24 28 40q19 14 44 20t64 6q36 0 60 -6q23 -6 37 -20q14 -15 15 -40q3 -25 -3 -62zM398 1528q-6 -34 -17 -58q-11 -23 -29 -37q-22 -15 -46 -19q-26 -6 -61 -6q-38 0 -62 6q-22 4 -37 19
q-13 13 -15 37q-2 27 5 58q5 34 17 62q10 24 29 40q17 14 44 20q26 6 64 6q36 0 60 -6t36 -20q14 -14 16 -40q3 -26 -4 -62zM-180 1294z" />
    <glyph glyph-name="Eth" unicode="&#xd0;" horiz-adv-x="1309" 
d="M1289 826q0 -88 -15 -184q-17 -99 -52 -186q-37 -92 -96 -175q-60 -83 -148 -145q-89 -62 -208 -100q-120 -36 -291 -36h-333q-35 0 -54 20q-18 18 -9 63l97 485h-106q-14 0 -20 10q-7 8 -7 30q0 2 0.5 10t0.5 14q1 3 2.5 15t3.5 19q2 12 8 36q2 9 12 34q10 18 18 25
q9 10 21 10h107l89 440q8 44 34 63q24 20 63 20h314q153 0 257 -30q104 -32 173 -90q70 -61 104 -148q35 -88 35 -200zM1013 795q0 62 -17 118q-18 53 -56 93q-37 39 -98 60q-59 22 -159 22h-138l-63 -317h196q17 0 22 -11q5 -12 5 -30q0 -2 -0.5 -10t-0.5 -14q0 -1 -2 -14
t-4 -20q-1 -8 -8 -37q-7 -22 -14 -34q-5 -13 -16 -24q-10 -9 -21 -9h-197l-72 -360h137q104 0 177 26q70 25 126 70q53 42 94 103q38 59 62 124q25 64 36 133q11 71 11 131z" />
    <glyph glyph-name="Ntilde" unicode="&#xd1;" horiz-adv-x="1344" 
d="M1127 92q-5 -23 -15 -41q-12 -19 -28 -30q-16 -13 -34 -17q-18 -6 -38 -6h-112q-38 0 -59 7q-25 8 -39 25q-16 16 -30 49q-14 32 -27 79l-191 578q-20 60 -40 135q-20 67 -36 135h-2q-13 -98 -23 -156q-20 -112 -29 -153l-132 -661q-2 -11 -10 -18q-7 -8 -22 -13
q-18 -5 -38 -8q-24 -3 -59 -3q-36 0 -57 3q-20 3 -35 8q-12 4 -15 13q-4 7 -1 18l233 1164q9 47 41 70q31 24 72 24h137q36 0 56 -8q25 -6 40 -24q14 -12 30 -42q13 -27 23 -64l193 -583q17 -49 34 -111q5 -18 16 -55t17 -55h2q12 85 25 148q4 28 27 149l123 610q2 11 9 17
q7 9 21 12q11 4 38 8q30 2 58 2t58 -2q26 -3 35 -8q11 -3 16 -12q4 -5 2 -17zM1093 1636q2 8 5 13q8 6 14 8q8 2 26 4q10 1 37 1q45 0 58 -6q14 -8 14 -20q0 -1 -0.5 -4.5t-1 -9.5t-0.5 -11q-1 -10 -9 -47q-10 -31 -22 -58q-15 -32 -42 -57q-27 -27 -66 -43q-40 -17 -97 -17
q-53 0 -91 15q-40 17 -70 34q-28 17 -58 34q-25 16 -56 16q-35 0 -51 -19q-17 -20 -20 -54q-2 -9 -7 -13q-3 -5 -14 -8q-2 0 -6.5 -1t-9 -1.5t-8.5 -1.5q-4 0 -16.5 -0.5t-20.5 -0.5q-44 0 -59 6t-15 22q0 9 3 31q1 20 11 49q10 30 25 56q17 30 42 53q26 25 66 40
q36 16 93 16q55 0 91 -16q40 -15 70 -34q25 -16 57 -34q26 -16 56 -16q28 0 49 16q19 19 23 58zM208 1294z" />
    <glyph glyph-name="Ograve" unicode="&#xd2;" horiz-adv-x="1369" 
d="M1345 861q0 -91 -16 -188q-16 -100 -51 -199q-37 -100 -94 -188q-59 -91 -141 -158q-84 -70 -195 -110q-114 -41 -255 -41q-121 0 -213 27t-156 83q-64 55 -96 141q-33 86 -33 200q0 100 17 196q14 98 52 202q38 100 96 187q59 89 142 157q82 67 194 108q111 39 252 39
q121 0 214 -27q92 -29 155 -84q63 -57 95 -143q33 -85 33 -202zM1067 836q0 58 -13 110q-15 50 -44 84t-78 52q-48 19 -119 19q-87 0 -153 -33q-66 -34 -115 -88q-49 -53 -82 -124q-34 -71 -53 -140q-21 -78 -28 -140q-9 -68 -9 -119q0 -57 13 -111q15 -50 44 -82
q31 -34 80 -52q48 -18 119 -18q86 0 152 33q65 33 115 87q47 52 81 122q34 71 53 140q21 76 28 139q9 67 9 121zM959 1439q12 -15 13 -24q3 -10 -6 -17q-10 -6 -30 -9q-21 -3 -54 -3q-24 0 -52 2q-9 1 -36 6q-21 9 -24 12q-8 4 -21 15l-214 200q-14 14 -18 25q-4 12 6 22
q11 9 36 15t71 6q14 0 34 -0.5t28 -0.5q28 -4 42 -7q17 -4 30 -14q12 -9 24 -24zM194 1294z" />
    <glyph glyph-name="Oacute" unicode="&#xd3;" horiz-adv-x="1369" 
d="M1345 861q0 -91 -16 -188q-16 -100 -51 -199q-37 -100 -94 -188q-59 -91 -141 -158q-84 -70 -195 -110q-114 -41 -255 -41q-121 0 -213 27t-156 83q-64 55 -96 141q-33 86 -33 200q0 100 17 196q14 98 52 202q38 100 96 187q59 89 142 157q82 67 194 108q111 39 252 39
q121 0 214 -27q92 -29 155 -84q63 -57 95 -143q33 -85 33 -202zM1067 836q0 58 -13 110q-15 50 -44 84t-78 52q-48 19 -119 19q-87 0 -153 -33q-66 -34 -115 -88q-49 -53 -82 -124q-34 -71 -53 -140q-21 -78 -28 -140q-9 -68 -9 -119q0 -57 13 -111q15 -50 44 -82
q31 -34 80 -52q48 -18 119 -18q86 0 152 33q65 33 115 87q47 52 81 122q34 71 53 140q21 76 28 139q9 67 9 121zM954 1421q-11 -10 -22 -15q-6 -5 -24 -11q-12 -4 -36 -7q-30 -2 -53 -2q-69 0 -83 13q-16 13 10 40l189 204q17 17 26 23q15 10 31 14q23 6 43 7q34 2 61 2
q46 0 72 -6q25 -6 34 -15q9 -10 4 -22q-6 -11 -21 -25zM418 1294z" />
    <glyph glyph-name="Ocircumflex" unicode="&#xd4;" horiz-adv-x="1369" 
d="M1345 861q0 -91 -16 -188q-16 -100 -51 -199q-37 -100 -94 -188q-59 -91 -141 -158q-84 -70 -195 -110q-114 -41 -255 -41q-121 0 -213 27t-156 83q-64 55 -96 141q-33 86 -33 200q0 100 17 196q14 98 52 202q38 100 96 187q59 89 142 157q82 67 194 108q111 39 252 39
q121 0 214 -27q92 -29 155 -84q63 -57 95 -143q33 -85 33 -202zM1067 836q0 58 -13 110q-15 50 -44 84t-78 52q-48 19 -119 19q-87 0 -153 -33q-66 -34 -115 -88q-49 -53 -82 -124q-34 -71 -53 -140q-21 -78 -28 -140q-9 -68 -9 -119q0 -57 13 -111q15 -50 44 -82
q31 -34 80 -52q48 -18 119 -18q86 0 152 33q65 33 115 87q47 52 81 122q34 71 53 140q21 76 28 139q9 67 9 121zM1217 1434q8 -13 10 -24q2 -9 -9 -14q-12 -7 -31 -8q-28 -2 -55 -2q-50 0 -66 2q-20 0 -40 4q-15 5 -20 10q-6 5 -13 15l-90 137l-149 -134q-11 -11 -22 -18
q-7 -4 -27 -10q-22 -4 -43 -4q-18 -2 -68 -2q-28 0 -54 2q-17 3 -28 8q-7 7 -2 15q3 8 19 23l238 214q13 14 27 21q12 6 33 13q18 3 42 6q7 0 26.5 0.5t31.5 0.5q39 0 53 -1q26 -2 36 -5q14 -4 26 -13q8 -7 20 -22zM218 1294z" />
    <glyph glyph-name="Otilde" unicode="&#xd5;" horiz-adv-x="1369" 
d="M1345 861q0 -91 -16 -188q-16 -100 -51 -199q-37 -100 -94 -188q-59 -91 -141 -158q-84 -70 -195 -110q-114 -41 -255 -41q-121 0 -213 27t-156 83q-64 55 -96 141q-33 86 -33 200q0 100 17 196q14 98 52 202q38 100 96 187q59 89 142 157q82 67 194 108q111 39 252 39
q121 0 214 -27q92 -29 155 -84q63 -57 95 -143q33 -85 33 -202zM1067 836q0 58 -13 110q-15 50 -44 84t-78 52q-48 19 -119 19q-87 0 -153 -33q-66 -34 -115 -88q-49 -53 -82 -124q-34 -71 -53 -140q-21 -78 -28 -140q-9 -68 -9 -119q0 -57 13 -111q15 -50 44 -82
q31 -34 80 -52q48 -18 119 -18q86 0 152 33q65 33 115 87q47 52 81 122q34 71 53 140q21 76 28 139q9 67 9 121zM1109 1636q2 8 5 13q8 6 14 8q8 2 26 4q10 1 37 1q45 0 58 -6q14 -8 14 -20q0 -1 -0.5 -4.5t-1 -9.5t-0.5 -11q-1 -10 -9 -47q-10 -31 -22 -58q-15 -32 -42 -57
q-27 -27 -66 -43q-40 -17 -97 -17q-53 0 -91 15q-40 17 -70 34q-28 17 -58 34q-25 16 -56 16q-35 0 -51 -19q-17 -20 -20 -54q-2 -9 -7 -13q-3 -5 -14 -8l-24 -4q-4 0 -16.5 -0.5t-20.5 -0.5q-44 0 -59 6t-15 22q0 9 3 31q1 20 11 49q10 30 25 56q17 30 42 53q26 25 66 40
q36 16 93 16q55 0 91 -16q40 -15 70 -34q25 -16 57 -34q26 -16 56 -16q28 0 49 16q19 19 23 58zM224 1294z" />
    <glyph glyph-name="Odieresis" unicode="&#xd6;" horiz-adv-x="1369" 
d="M1345 861q0 -91 -16 -188q-16 -100 -51 -199q-37 -100 -94 -188q-59 -91 -141 -158q-84 -70 -195 -110q-114 -41 -255 -41q-121 0 -213 27t-156 83q-64 55 -96 141q-33 86 -33 200q0 100 17 196q14 98 52 202q38 100 96 187q59 89 142 157q82 67 194 108q111 39 252 39
q121 0 214 -27q92 -29 155 -84q63 -57 95 -143q33 -85 33 -202zM1067 836q0 58 -13 110q-15 50 -44 84t-78 52q-48 19 -119 19q-87 0 -153 -33q-66 -34 -115 -88q-49 -53 -82 -124q-34 -71 -53 -140q-21 -78 -28 -140q-9 -68 -9 -119q0 -57 13 -111q15 -50 44 -82
q31 -34 80 -52q48 -18 119 -18q86 0 152 33q65 33 115 87q47 52 81 122q34 71 53 140q21 76 28 139q9 67 9 121zM1252 1528q-6 -36 -18 -58q-11 -24 -30 -37q-20 -15 -44 -19q-26 -6 -62 -6q-38 0 -62 6q-21 4 -36 19q-13 13 -15 37q-2 25 4 58q6 32 17 62q12 26 29 40
q19 14 44 20t64 6q36 0 60 -6q23 -6 37 -20q13 -14 16 -40q2 -27 -4 -62zM815 1528q-6 -34 -17 -58t-30 -37q-20 -15 -44 -19q-27 -6 -62 -6q-38 0 -62 6q-22 4 -37 19q-13 13 -15 37q-2 27 5 58q5 34 17 62q10 23 28 40q19 14 44 20q27 6 65 6q37 0 59 -6q22 -5 38 -20
q13 -17 16 -40q2 -29 -5 -62zM237 1294z" />
    <glyph glyph-name="multiply" unicode="&#xd7;" horiz-adv-x="1020" 
d="M666 573l220 -277q13 -15 4 -38q-9 -25 -51 -59q-23 -19 -39 -30t-30 -15q-10 -4 -20 -2q-7 2 -16 11l-221 280l-332 -275q-11 -8 -22 -12q-13 -3 -25 0q-14 3 -28 12q-15 9 -29 26q-17 23 -23 36q-7 15 -9 30q-1 11 3 24q6 13 15 19l337 279l-222 277q-6 7 -7 17
q-1 8 4 22q4 12 17 26q13 16 33 32q23 20 39 30t30 15q12 4 20 1q7 -3 15 -11l223 -280l331 276q12 8 22 11q12 3 26 0q14 -2 28 -11q15 -10 28 -26q30 -35 33 -65q0 -29 -18 -44z" />
    <glyph glyph-name="Oslash" unicode="&#xd8;" horiz-adv-x="1387" 
d="M227 85q-65 57 -97 139q-35 83 -35 204q0 72 13 178q16 102 47 195q32 97 89 192q56 93 141 165q84 71 203 116q120 43 274 43q44 0 102 -7q54 -10 89 -22l131 191q12 16 40 24q28 7 86 7q30 0 60 -4q21 -6 32 -12q8 -8 8 -18q-3 -12 -11 -24l-169 -245q66 -55 98 -139
q35 -83 35 -202q0 -71 -13 -177q-16 -104 -48 -196q-32 -97 -89 -192q-55 -93 -141 -165q-84 -71 -202 -116q-121 -43 -273 -43q-64 0 -109 7q-45 6 -83 20l-135 -196q-11 -17 -40 -24q-27 -7 -83 -7q-43 0 -61 5q-22 3 -33 12q-11 6 -9 18q2 11 10 23zM532 204
q23 -10 48 -14q28 -5 56 -5q98 0 168 37q72 38 123 96q50 57 84 133q32 72 51 148q18 66 26 139q7 62 7 110q0 38 -7 69q-8 33 -25 58zM926 1090q-24 11 -48 14q-23 5 -57 5q-71 0 -131 -21q-59 -22 -104 -58q-44 -34 -80 -84q-32 -46 -59 -103q-27 -56 -41 -111
q-15 -47 -26 -108q-9 -45 -14 -99q-4 -41 -4 -78q0 -41 8 -70q5 -29 24 -58z" />
    <glyph glyph-name="Ugrave" unicode="&#xd9;" horiz-adv-x="1337" 
d="M1199 477q-25 -124 -78 -217q-52 -94 -132 -157q-78 -62 -181 -95q-107 -31 -227 -31q-131 0 -227 33q-94 32 -149 96q-54 63 -71 160q-16 94 10 224l154 768q2 11 10 18q7 9 24 13q18 5 42 8t64 3q38 0 63 -3q23 -3 39 -8q15 -5 18 -13q5 -6 3 -18l-154 -768
q-17 -77 -9 -133t34 -93q25 -36 71 -54q46 -17 108 -17q60 0 119 19q58 22 96 58q41 35 72 91q30 57 43 123l155 774q2 11 10 18q7 8 22 13q20 5 42 8q26 3 64 3t62 -3q22 -3 38 -8q15 -5 18 -13q5 -6 3 -18zM922 1439q11 -15 14 -24q1 -10 -8 -17q-9 -6 -30 -9
q-20 -3 -53 -3q-24 0 -52 2q-12 1 -35 6q-19 8 -26 12q-11 8 -20 15l-214 200q-14 14 -18 25q-4 12 6 22q10 9 36 15q25 6 71 6q14 0 34 -0.5t27 -0.5q28 -3 43 -7q17 -4 30 -14q12 -9 24 -24zM157 1294z" />
    <glyph glyph-name="Uacute" unicode="&#xda;" horiz-adv-x="1337" 
d="M1199 477q-25 -124 -78 -217q-52 -94 -132 -157q-78 -62 -181 -95q-107 -31 -227 -31q-131 0 -227 33q-94 32 -149 96q-54 63 -71 160q-16 94 10 224l154 768q2 11 10 18q7 9 24 13q18 5 42 8t64 3q38 0 63 -3q23 -3 39 -8q15 -5 18 -13q5 -6 3 -18l-154 -768
q-17 -77 -9 -133t34 -93q25 -36 71 -54q46 -17 108 -17q60 0 119 19q58 22 96 58q41 35 72 91q30 57 43 123l155 774q2 11 10 18q7 8 22 13q20 5 42 8q26 3 64 3t62 -3q22 -3 38 -8q15 -5 18 -13q5 -6 3 -18zM957 1421q-5 -4 -21 -15q-10 -6 -26 -11q-11 -4 -36 -7
q-28 -2 -52 -2q-68 0 -84 13q-14 13 11 40l189 204q17 17 26 23q15 10 31 14q23 6 43 7q34 2 61 2q47 0 72 -6t34 -15q9 -10 3 -22q-4 -11 -20 -25zM421 1294z" />
    <glyph glyph-name="Ucircumflex" unicode="&#xdb;" horiz-adv-x="1337" 
d="M1199 477q-25 -124 -78 -217q-52 -94 -132 -157q-78 -62 -181 -95q-107 -31 -227 -31q-131 0 -227 33q-94 32 -149 96q-54 63 -71 160q-16 94 10 224l154 768q2 11 10 18q7 9 24 13q18 5 42 8t64 3q38 0 63 -3q23 -3 39 -8q15 -5 18 -13q5 -6 3 -18l-154 -768
q-17 -77 -9 -133t34 -93q25 -36 71 -54q46 -17 108 -17q60 0 119 19q58 22 96 58q41 35 72 91q30 57 43 123l155 774q2 11 10 18q7 8 22 13q20 5 42 8q26 3 64 3t62 -3q22 -3 38 -8q15 -5 18 -13q5 -6 3 -18zM1193 1434q8 -13 10 -24q2 -9 -9 -14q-12 -7 -31 -8
q-28 -2 -55 -2q-50 0 -66 2q-20 0 -40 4q-15 5 -20 10q-6 5 -13 15l-90 137l-149 -134q-11 -11 -22 -18q-7 -4 -27 -10q-22 -4 -43 -4q-18 -2 -68 -2q-28 0 -54 2q-17 3 -28 8q-7 7 -2 15q3 8 19 23l238 214q13 14 27 21q12 6 33 13q18 3 42 6q7 0 26.5 0.5t31.5 0.5
q39 0 53 -1q26 -2 36 -5q14 -4 26 -13q8 -7 20 -22zM194 1294z" />
    <glyph glyph-name="Udieresis" unicode="&#xdc;" horiz-adv-x="1337" 
d="M1199 477q-25 -124 -78 -217q-52 -94 -132 -157q-78 -62 -181 -95q-107 -31 -227 -31q-131 0 -227 33q-94 32 -149 96q-54 63 -71 160q-16 94 10 224l154 768q2 11 10 18q7 9 24 13q18 5 42 8t64 3q38 0 63 -3q23 -3 39 -8q15 -5 18 -13q5 -6 3 -18l-154 -768
q-17 -77 -9 -133t34 -93q25 -36 71 -54q46 -17 108 -17q60 0 119 19q58 22 96 58q41 35 72 91q30 57 43 123l155 774q2 11 10 18q7 8 22 13q20 5 42 8q26 3 64 3t62 -3q22 -3 38 -8q15 -5 18 -13q5 -6 3 -18zM1220 1528q-6 -36 -18 -58q-11 -24 -30 -37q-20 -15 -44 -19
q-26 -6 -62 -6q-38 0 -62 6q-21 4 -36 19q-13 13 -15 37q-2 25 4 58q6 32 17 62q12 26 29 40q19 14 44 20t64 6q36 0 60 -6q23 -6 37 -20q13 -14 16 -40q2 -27 -4 -62zM783 1528q-6 -34 -17 -58t-30 -37q-20 -15 -44 -19q-27 -6 -62 -6q-38 0 -62 6q-22 4 -37 19
q-13 13 -15 37q-2 27 5 58q5 34 17 62q10 23 28 40q19 14 44 20q27 6 65 6q37 0 59 -6q22 -5 38 -20q13 -17 16 -40q2 -29 -5 -62zM205 1294z" />
    <glyph glyph-name="Yacute" unicode="&#xdd;" horiz-adv-x="1064" 
d="M668 491l-90 -456q-3 -10 -11 -18q-9 -9 -25 -13q-17 -5 -42 -8q-34 -2 -64 -2q-29 0 -63 2q-20 2 -39 8q-11 4 -18 13q-3 8 -2 18l90 456l-212 705q-11 37 -14 56q-1 21 10 32q14 10 42 13q30 3 85 3q50 0 67 -2q20 0 38 -6q14 -5 20 -14q5 -12 9 -25l87 -311
q16 -60 26 -106q12 -52 21 -106h2q31 59 58 106q29 51 64 104l207 316q6 11 17 22q11 9 25 13q21 6 42 7q36 2 72 2q61 0 88 -4q30 -3 40 -14t0 -32q-15 -26 -34 -54zM867 1421q-5 -4 -21 -15q-10 -6 -26 -11q-11 -4 -36 -7q-28 -2 -52 -2q-68 0 -84 13q-14 13 11 40
l189 204q17 17 26 23q15 10 31 14q23 6 43 7q34 2 61 2q47 0 72 -6t34 -15q9 -10 3 -22q-4 -11 -20 -25zM331 1294z" />
    <glyph glyph-name="Thorn" unicode="&#xde;" horiz-adv-x="1090" 
d="M1079 778q0 -61 -13 -122q-13 -64 -40 -122q-30 -62 -73 -112q-44 -51 -109 -93q-66 -41 -151 -63q-85 -24 -204 -24h-130l-43 -212q-1 -7 -10 -18q-10 -8 -24 -12q-23 -6 -42 -7q-36 -2 -64 -2q-30 0 -64 2q-21 1 -38 7q-14 5 -18 12q-5 7 -3 18l247 1232q1 9 9 18
q10 8 24 12q19 5 41 8q36 2 65 2t63 -2q23 -3 39 -8q13 -4 19 -12q4 -9 3 -18l-34 -175h115q54 0 94 -3q42 -4 81 -12q70 -14 117 -42q46 -26 82 -68q32 -43 46 -87q15 -47 15 -97zM801 734q0 22 -5 47q-6 22 -18 40q-10 16 -29 31q-18 14 -43 21q-23 8 -50 9q-27 3 -62 3
h-106l-88 -439h124q84 0 136 30q51 30 83 75q28 39 45 94q13 54 13 89z" />
    <glyph glyph-name="germandbls" unicode="&#xdf;" horiz-adv-x="1136" 
d="M231 992q20 98 59 170q40 78 100 128q56 50 142 82q87 28 189 28q103 0 173 -24q70 -22 116 -62q46 -38 65 -87q20 -51 20 -101q0 -71 -21 -119q-23 -49 -55 -81q-31 -32 -71 -58q-42 -27 -71 -48q-31 -21 -55 -50q-21 -27 -21 -67q0 -29 18 -51q19 -24 46 -45
q10 -8 60 -46q30 -23 60 -56q27 -30 46 -74q18 -42 18 -99q0 -82 -31 -147q-30 -65 -84 -112q-53 -44 -128 -71q-74 -25 -160 -25q-36 0 -68 3q-40 5 -59 11q-32 9 -45 16q-17 8 -30 20q-8 10 -10 16q-5 7 -5 23q0 4 2 24q1 9 5 31q7 25 10 33q4 16 12 32q6 14 14 22
q8 9 18 9q8 0 22 -7q10 -8 30 -16q22 -11 44 -16q21 -8 64 -8q28 0 55 8q27 10 45 26q16 12 30 40q10 27 10 54q0 35 -18 62q-20 26 -45 46q-16 13 -59 44q-33 22 -60 51q-27 28 -45 68q-18 39 -18 97q0 49 12 88q13 39 33 66q17 27 46 52q20 18 54 41q10 7 28.5 20t24.5 17
q25 18 47 38q20 20 32 44q13 25 13 57q0 21 -7 41q-8 21 -23 36q-17 17 -42 26q-23 11 -63 11q-51 0 -86 -17q-35 -14 -64 -46q-27 -34 -44 -74q-17 -44 -27 -94l-198 -995q-16 -78 -41 -143q-28 -66 -68 -108q-41 -46 -102 -68q-61 -23 -144 -23q-16 0 -42 2q-15 1 -36 5
q-16 3 -27 6q-12 5 -16 9q-8 8 -8 29q0 12 3 38q6 37 11 53q9 32 17 47q11 20 24 20q9 0 23 -2q10 -3 38 -3q22 0 43 7q20 9 33 24q14 19 24 44q11 29 18 67z" />
    <glyph glyph-name="agrave" unicode="&#xe0;" horiz-adv-x="1081" 
d="M868 33q-5 -21 -32 -30t-88 -9q-26 0 -50 2q-11 1 -32 6q-11 6 -16 12q-3 8 -1 19l28 143q-15 -33 -48 -68q-35 -37 -78 -64q-45 -28 -99 -48q-54 -19 -113 -19q-81 0 -133 28q-54 29 -85 75q-34 51 -45 109q-14 57 -14 128q0 63 12 137q13 79 37 149q27 77 64 143
q40 70 93 121q56 53 126 85q71 31 159 31q84 0 147 -35q63 -32 112 -100l16 79q5 21 32 30t88 9q24 0 50 -2q23 -4 32 -8q10 -3 15 -12q4 -5 2 -17zM744 659q-33 54 -78 83q-42 27 -98 27q-42 0 -77 -20t-62 -53q-28 -36 -47 -78q-23 -47 -34 -92q-13 -42 -20 -96
q-7 -45 -7 -89q0 -35 5 -57q3 -25 16 -48q11 -20 32 -34q20 -12 51 -12q43 0 90 26q44 26 86 72q39 44 71 106q31 64 44 130zM779 1135q7 -13 10 -23q0 -11 -8 -16q-7 -7 -28 -10q-19 -3 -55 -3q-10 0 -26 0.5t-22 0.5q-18 3 -31 6q-16 7 -22 12q-11 9 -16 16l-183 232
q-9 10 -9 21q-2 11 11 17q9 7 39 12q24 4 73 4q41 0 56 -2q17 0 37 -6q11 -3 24 -12q9 -9 16 -20zM125 960z" />
    <glyph glyph-name="aacute" unicode="&#xe1;" horiz-adv-x="1081" 
d="M868 33q-5 -21 -32 -30t-88 -9q-26 0 -50 2q-11 1 -32 6q-11 6 -16 12q-3 8 -1 19l28 143q-15 -33 -48 -68q-35 -37 -78 -64q-45 -28 -99 -48q-54 -19 -113 -19q-81 0 -133 28q-54 29 -85 75q-34 51 -45 109q-14 57 -14 128q0 63 12 137q13 79 37 149q27 77 64 143
q40 70 93 121q56 53 126 85q71 31 159 31q84 0 147 -35q63 -32 112 -100l16 79q5 21 32 30t88 9q24 0 50 -2q23 -4 32 -8q10 -3 15 -12q4 -5 2 -17zM744 659q-33 54 -78 83q-42 27 -98 27q-42 0 -77 -20t-62 -53q-28 -36 -47 -78q-23 -47 -34 -92q-13 -42 -20 -96
q-7 -45 -7 -89q0 -35 5 -57q3 -25 16 -48q11 -20 32 -34q20 -12 51 -12q43 0 90 26q44 26 86 72q39 44 71 106q31 64 44 130zM757 1118q-5 -7 -16 -16q-6 -6 -21 -11q-14 -5 -32 -6q-26 -2 -48 -2q-36 0 -55 3q-21 3 -28 10q-8 6 -5 16q1 8 11 23l152 229q9 13 18 19
q10 7 25 13q30 5 39 6q30 2 56 2q38 0 72 -4q27 -6 37 -12q11 -9 10 -18t-11 -20zM298 960z" />
    <glyph glyph-name="acircumflex" unicode="&#xe2;" horiz-adv-x="1081" 
d="M868 33q-5 -21 -32 -30t-88 -9q-26 0 -50 2q-11 1 -32 6q-11 6 -16 12q-3 8 -1 19l28 143q-15 -33 -48 -68q-35 -37 -78 -64q-45 -28 -99 -48q-54 -19 -113 -19q-81 0 -133 28q-54 29 -85 75q-34 51 -45 109q-14 57 -14 128q0 63 12 137q13 79 37 149q27 77 64 143
q40 70 93 121q56 53 126 85q71 31 159 31q84 0 147 -35q63 -32 112 -100l16 79q5 21 32 30t88 9q24 0 50 -2q23 -4 32 -8q10 -3 15 -12q4 -5 2 -17zM744 659q-33 54 -78 83q-42 27 -98 27q-42 0 -77 -20t-62 -53q-28 -36 -47 -78q-23 -47 -34 -92q-13 -42 -20 -96
q-7 -45 -7 -89q0 -35 5 -57q3 -25 16 -48q11 -20 32 -34q20 -12 51 -12q43 0 90 26q44 26 86 72q39 44 71 106q31 64 44 130zM985 1149q10 -18 13 -31q3 -14 -6 -20q-6 -7 -29 -12q-21 -3 -60 -3q-12 0 -28.5 0.5t-21.5 0.5q-23 4 -28 6q-9 4 -15 10l-4 8l-5 10l-74 150
l-134 -150q-9 -10 -18 -18q-8 -7 -22 -10q-5 -2 -33 -6q-6 0 -22.5 -0.5t-26.5 -0.5q-40 0 -61 3q-22 5 -26 12q-6 6 1 20q8 14 25 31l202 223q6 9 19 16q11 4 27 9q18 5 38 5q16 2 54 2q25 0 53 -2q22 -2 35 -6q16 -5 22 -10q9 -7 13 -14zM150 960z" />
    <glyph glyph-name="atilde" unicode="&#xe3;" horiz-adv-x="1081" 
d="M868 33q-5 -21 -32 -30t-88 -9q-26 0 -50 2q-11 1 -32 6q-11 6 -16 12q-3 8 -1 19l28 143q-15 -33 -48 -68q-35 -37 -78 -64q-45 -28 -99 -48q-54 -19 -113 -19q-81 0 -133 28q-54 29 -85 75q-34 51 -45 109q-14 57 -14 128q0 63 12 137q13 79 37 149q27 77 64 143
q40 70 93 121q56 53 126 85q71 31 159 31q84 0 147 -35q63 -32 112 -100l16 79q5 21 32 30t88 9q24 0 50 -2q23 -4 32 -8q10 -3 15 -12q4 -5 2 -17zM744 659q-33 54 -78 83q-42 27 -98 27q-42 0 -77 -20t-62 -53q-28 -36 -47 -78q-23 -47 -34 -92q-13 -42 -20 -96
q-7 -45 -7 -89q0 -35 5 -57q3 -25 16 -48q11 -20 32 -34q20 -12 51 -12q43 0 90 26q44 26 86 72q39 44 71 106q31 64 44 130zM1062 1347q0 -2 -0.5 -5.5t-1 -10t-0.5 -11.5q-1 -12 -9 -51q-12 -38 -24 -61q-15 -32 -41 -60q-26 -27 -65 -44q-37 -18 -93 -18q-37 0 -69 8
q-29 8 -53 21q-28 16 -43 27q-14 10 -38 28q-17 12 -34 20q-18 9 -38 9q-32 0 -50 -23q-17 -27 -21 -62q-1 -9 -5 -14q-5 -6 -13 -9q-7 -2 -25 -4q-10 -1 -39 -1q-27 0 -36 2q-13 0 -21 4q-9 4 -10 10q-3 5 -3 13q0 2 0.5 5.5t1 10t0.5 11.5q1 12 9 51q12 38 23 61
q15 31 41 59q25 27 65 45q39 18 94 18q35 0 67 -8q30 -8 54 -21q16 -9 44 -27q3 -2 37 -28q17 -13 35 -21q19 -8 37 -8q30 0 49 21q19 23 23 64q2 17 17 22q18 6 62 6q45 0 60 -6q13 -8 13 -23zM89 960z" />
    <glyph glyph-name="adieresis" unicode="&#xe4;" horiz-adv-x="1081" 
d="M868 33q-5 -21 -32 -30t-88 -9q-26 0 -50 2q-11 1 -32 6q-11 6 -16 12q-3 8 -1 19l28 143q-15 -33 -48 -68q-35 -37 -78 -64q-45 -28 -99 -48q-54 -19 -113 -19q-81 0 -133 28q-54 29 -85 75q-34 51 -45 109q-14 57 -14 128q0 63 12 137q13 79 37 149q27 77 64 143
q40 70 93 121q56 53 126 85q71 31 159 31q84 0 147 -35q63 -32 112 -100l16 79q5 21 32 30t88 9q24 0 50 -2q23 -4 32 -8q10 -3 15 -12q4 -5 2 -17zM744 659q-33 54 -78 83q-42 27 -98 27q-42 0 -77 -20t-62 -53q-28 -36 -47 -78q-23 -47 -34 -92q-13 -42 -20 -96
q-7 -45 -7 -89q0 -35 5 -57q3 -25 16 -48q11 -20 32 -34q20 -12 51 -12q43 0 90 26q44 26 86 72q39 44 71 106q31 64 44 130zM1016 1225q-7 -37 -18 -61q-12 -25 -30 -38q-18 -14 -42 -19q-30 -5 -61 -5q-32 0 -57 5q-21 4 -36 19q-13 14 -14 38q-3 25 4 61q6 37 18 61
q11 24 29 38q20 15 43 19q28 5 59 5q33 0 58 -5q21 -4 36 -19q13 -13 15 -38q3 -25 -4 -61zM625 1225q-7 -37 -18 -61t-29 -38q-20 -15 -44 -19q-27 -5 -59 -5q-33 0 -58 5q-22 4 -35 19q-13 13 -16 38q-2 27 5 61q6 35 17 61q12 25 30 38q20 15 43 19q28 5 60 5t57 -5
q21 -4 36 -19q13 -13 16 -38q2 -27 -5 -61zM116 960z" />
    <glyph glyph-name="aring" unicode="&#xe5;" horiz-adv-x="1081" 
d="M868 33q-5 -21 -32 -30t-88 -9q-26 0 -50 2q-11 1 -32 6q-11 6 -16 12q-3 8 -1 19l28 143q-15 -33 -48 -68q-35 -37 -78 -64q-45 -28 -99 -48q-54 -19 -113 -19q-81 0 -133 28q-54 29 -85 75q-34 51 -45 109q-14 57 -14 128q0 63 12 137q13 79 37 149q27 77 64 143
q40 70 93 121q56 53 126 85q71 31 159 31q84 0 147 -35q63 -32 112 -100l16 79q5 21 32 30t88 9q24 0 50 -2q23 -4 32 -8q10 -3 15 -12q4 -5 2 -17zM744 659q-33 54 -78 83q-42 27 -98 27q-42 0 -77 -20t-62 -53q-28 -36 -47 -78q-23 -47 -34 -92q-13 -42 -20 -96
q-7 -45 -7 -89q0 -35 5 -57q3 -25 16 -48q11 -20 32 -34q20 -12 51 -12q43 0 90 26q44 26 86 72q39 44 71 106q31 64 44 130zM935 1296q0 -49 -16 -90q-15 -40 -47 -72q-30 -30 -82 -49q-50 -18 -120 -18q-56 0 -97 12q-40 12 -64 33q-26 23 -36 52q-11 30 -11 64
q0 46 15 88q14 41 46 72q30 31 82 50q48 19 120 19q59 0 98 -13q40 -12 65 -34q25 -21 36 -50q11 -31 11 -64zM782 1279q0 14 -4 25q-4 14 -13 22q-7 10 -23 16q-17 5 -36 5q-44 0 -68 -27q-24 -26 -24 -76q0 -13 3 -25q5 -13 13 -21q8 -9 23 -16q17 -5 37 -5q40 0 67 25
q25 26 25 77zM203 960z" />
    <glyph glyph-name="ae" unicode="&#xe6;" horiz-adv-x="1564" 
d="M1180 983q92 0 158 -21q66 -23 107 -58q42 -35 62 -80q20 -48 20 -95q0 -70 -32 -129q-30 -56 -99 -100q-69 -40 -174 -64q-110 -22 -254 -22h-92q-4 -24 -6 -45q-2 -28 -2 -40q0 -81 42 -121q44 -42 138 -42q65 0 115 10q44 8 92 20q45 13 66 22q25 9 38 9q22 0 22 -25
q0 -20 -3 -44q-3 -25 -10 -45q-5 -20 -14 -39q-7 -17 -18 -28t-43 -23q-22 -8 -77 -23q-59 -12 -101 -16q-52 -7 -111 -7q-68 0 -118 11q-49 9 -92 30q-39 19 -71 50q-29 28 -49 66q-42 -41 -86 -72q-48 -30 -90 -48q-44 -19 -92 -28q-45 -9 -94 -9q-75 0 -128 19
q-55 20 -88 52q-34 31 -52 75q-16 46 -16 92q0 65 18 117q20 53 53 92q35 41 81 68q41 26 104 48q61 19 124 26q64 9 134 9h118l12 52q9 40 7 73q-1 31 -18 52q-16 20 -48 31q-30 10 -83 10q-62 0 -114 -15q-47 -12 -92 -32q-32 -13 -68 -32q-28 -14 -41 -14q-17 0 -24 16
q-8 16 -8 44q0 8 2 30q2 20 7 36q3 15 11 34q8 16 16 24q16 17 55 36q44 19 88 31q59 16 106 23q54 9 107 9q61 0 108 -9t81 -26q34 -16 58 -41t38 -53q30 28 66 54q41 26 78 40q36 16 86 26q44 9 90 9zM620 278q-2 10 -2 16q-1 6 -1 18q0 25 3 52q1 21 7 50h-99
q-74 0 -120 -14q-46 -11 -77 -36q-29 -23 -41 -53q-13 -29 -13 -63q0 -45 29 -68q27 -24 78 -24q28 0 57 6q30 8 57 22q28 13 59 38q28 21 63 56zM1280 711q0 20 -7 37q-8 17 -22 29q-13 12 -39 20q-21 7 -55 7q-49 0 -91 -18q-41 -19 -71 -49t-53 -73q-20 -40 -33 -88h88
q75 0 135 10q59 13 88 30q35 19 46 43q14 24 14 52z" />
    <glyph glyph-name="ccedilla" unicode="&#xe7;" horiz-adv-x="843" 
d="M275 -7q-103 25 -159 107q-57 82 -57 220q0 57 11 134q12 72 38 146q24 71 68 143q41 69 101 122q63 55 139 85q81 32 182 32q40 0 78 -6q32 -5 70 -16q36 -14 56 -25q21 -11 37 -25q12 -12 15 -21q4 -8 4 -22q0 -23 -6 -52q-4 -28 -14 -55q-8 -23 -22 -44
q-15 -17 -30 -17q-16 0 -29 12q-11 10 -35 27q-18 14 -51 28q-32 12 -80 12q-52 0 -93 -23q-40 -22 -72 -59q-32 -40 -50 -84q-19 -43 -33 -94q-12 -42 -19 -90q-5 -50 -5 -76q0 -80 35 -123q36 -42 112 -42q56 0 96 15q40 13 68 32q12 7 50 31q20 14 37 14q9 0 15 -9
q4 -12 4 -26q0 -21 -4 -42q-5 -33 -10 -52q-10 -34 -16 -48q-7 -23 -22 -36q-11 -12 -44 -31q-35 -20 -74 -32q-48 -15 -90 -19l12 -50q5 -17 11 -47q4 -20 4 -44q0 -53 -17 -93q-17 -37 -50 -66q-33 -25 -76 -37q-45 -12 -99 -12q-19 0 -57 2q-30 2 -50 7q-18 2 -41 10
q-10 2 -30 10q-11 6 -15 12q-4 7 -4 20q0 4 2 28q3 18 9 36t17 32q10 13 26 13h114q14 0 27 3q13 4 23 10q10 8 14 18q6 10 6 25q0 14 -2 23q0 8 -4 26z" />
    <glyph glyph-name="egrave" unicode="&#xe8;" horiz-adv-x="1006" 
d="M969 730q0 -72 -33 -130q-31 -57 -100 -98q-68 -41 -174 -64q-104 -22 -252 -22h-92q-5 -23 -6 -46q-2 -28 -2 -41q0 -81 42 -122q43 -41 135 -41q68 0 119 10q47 8 92 20q46 14 65 22q25 9 38 9t17 -7q5 -8 5 -22q0 -16 -3 -39q-2 -15 -8 -43q-4 -15 -14 -41
q-8 -17 -20 -29t-44 -24q-27 -10 -77 -22q-41 -9 -101 -16q-52 -7 -114 -7q-94 0 -168 20q-69 19 -119 61q-48 40 -72 104t-24 151q0 71 13 143q12 79 40 152q29 76 72 142q42 66 106 120q62 50 145 82q81 31 187 31q92 0 156 -21q67 -23 108 -58q42 -35 62 -80
q21 -46 21 -94zM722 711q0 41 -32 67q-31 26 -91 26q-50 0 -89 -18q-40 -18 -70 -48q-29 -30 -52 -72q-19 -39 -34 -89h84q84 0 134 11q51 9 87 28q33 18 48 42q15 26 15 53zM758 1135q7 -13 10 -23q0 -11 -8 -16q-7 -7 -28 -10q-20 -3 -55 -3q-10 0 -26 0.5t-22 0.5
q-18 3 -31 6q-16 7 -22 12q-11 9 -16 16l-183 232q-9 10 -9 21q-2 11 11 17q9 7 39 12q24 4 73 4q41 0 56 -2q17 0 37 -6q11 -3 24 -12q9 -9 16 -20zM104 960z" />
    <glyph glyph-name="eacute" unicode="&#xe9;" horiz-adv-x="1006" 
d="M969 730q0 -72 -33 -130q-31 -57 -100 -98q-68 -41 -174 -64q-104 -22 -252 -22h-92q-5 -23 -6 -46q-2 -28 -2 -41q0 -81 42 -122q43 -41 135 -41q68 0 119 10q47 8 92 20q46 14 65 22q25 9 38 9t17 -7q5 -8 5 -22q0 -16 -3 -39q-2 -15 -8 -43q-4 -15 -14 -41
q-8 -17 -20 -29t-44 -24q-27 -10 -77 -22q-41 -9 -101 -16q-52 -7 -114 -7q-94 0 -168 20q-69 19 -119 61q-48 40 -72 104t-24 151q0 71 13 143q12 79 40 152q29 76 72 142q42 66 106 120q62 50 145 82q81 31 187 31q92 0 156 -21q67 -23 108 -58q42 -35 62 -80
q21 -46 21 -94zM722 711q0 41 -32 67q-31 26 -91 26q-50 0 -89 -18q-40 -18 -70 -48q-29 -30 -52 -72q-19 -39 -34 -89h84q84 0 134 11q51 9 87 28q33 18 48 42q15 26 15 53zM736 1118q-5 -7 -16 -16q-6 -6 -21 -11q-14 -5 -32 -6q-26 -2 -48 -2q-35 0 -55 3q-21 3 -28 10
q-8 6 -5 16q1 8 11 23l152 229q9 13 18 19q10 7 25 13q30 5 39 6q30 2 56 2q38 0 72 -4q27 -6 37 -12q11 -9 10 -18t-11 -20zM277 960z" />
    <glyph glyph-name="ecircumflex" unicode="&#xea;" horiz-adv-x="1006" 
d="M969 730q0 -72 -33 -130q-31 -57 -100 -98q-68 -41 -174 -64q-104 -22 -252 -22h-92q-5 -23 -6 -46q-2 -28 -2 -41q0 -81 42 -122q43 -41 135 -41q68 0 119 10q47 8 92 20q46 14 65 22q25 9 38 9t17 -7q5 -8 5 -22q0 -16 -3 -39q-2 -15 -8 -43q-4 -15 -14 -41
q-8 -17 -20 -29t-44 -24q-27 -10 -77 -22q-41 -9 -101 -16q-52 -7 -114 -7q-94 0 -168 20q-69 19 -119 61q-48 40 -72 104t-24 151q0 71 13 143q12 79 40 152q29 76 72 142q42 66 106 120q62 50 145 82q81 31 187 31q92 0 156 -21q67 -23 108 -58q42 -35 62 -80
q21 -46 21 -94zM722 711q0 41 -32 67q-31 26 -91 26q-50 0 -89 -18q-40 -18 -70 -48q-29 -30 -52 -72q-19 -39 -34 -89h84q84 0 134 11q51 9 87 28q33 18 48 42q15 26 15 53zM932 1149q10 -18 13 -31q3 -14 -6 -20q-6 -7 -29 -12q-21 -3 -60 -3q-12 0 -28.5 0.5t-21.5 0.5
q-23 4 -28 6q-9 4 -15 10l-4 8l-5 10l-74 150l-134 -150q-9 -10 -18 -18q-8 -7 -22 -10q-5 -2 -33 -6q-6 0 -22.5 -0.5t-26.5 -0.5q-40 0 -61 3q-22 5 -26 12q-7 6 1 20t25 31l202 223q6 9 19 16q10 4 27 9q18 5 38 5q16 2 54 2q25 0 53 -2q22 -2 35 -6q16 -5 22 -10
q9 -7 13 -14zM97 960z" />
    <glyph glyph-name="edieresis" unicode="&#xeb;" horiz-adv-x="1006" 
d="M969 730q0 -72 -33 -130q-31 -57 -100 -98q-68 -41 -174 -64q-104 -22 -252 -22h-92q-5 -23 -6 -46q-2 -28 -2 -41q0 -81 42 -122q43 -41 135 -41q68 0 119 10q47 8 92 20q46 14 65 22q25 9 38 9t17 -7q5 -8 5 -22q0 -16 -3 -39q-2 -15 -8 -43q-4 -15 -14 -41
q-8 -17 -20 -29t-44 -24q-27 -10 -77 -22q-41 -9 -101 -16q-52 -7 -114 -7q-94 0 -168 20q-69 19 -119 61q-48 40 -72 104t-24 151q0 71 13 143q12 79 40 152q29 76 72 142q42 66 106 120q62 50 145 82q81 31 187 31q92 0 156 -21q67 -23 108 -58q42 -35 62 -80
q21 -46 21 -94zM722 711q0 41 -32 67q-31 26 -91 26q-50 0 -89 -18q-40 -18 -70 -48q-29 -30 -52 -72q-19 -39 -34 -89h84q84 0 134 11q51 9 87 28q33 18 48 42q15 26 15 53zM978 1225q-7 -37 -18 -61q-12 -25 -30 -38q-18 -14 -42 -19q-30 -5 -61 -5q-32 0 -57 5
q-21 4 -36 19q-13 14 -14 38q-3 25 4 61q6 37 18 61q11 24 29 38q20 15 43 19q28 5 59 5q33 0 58 -5q21 -4 36 -19q13 -13 15 -38q3 -25 -4 -61zM587 1225q-7 -37 -18 -61t-29 -38q-20 -15 -44 -19q-27 -5 -59 -5q-33 0 -58 5q-22 4 -35 19q-13 13 -16 38q-2 27 5 61
q6 35 17 61q12 25 30 38q20 15 43 19q28 5 60 5t57 -5q21 -4 36 -19q13 -13 16 -38q2 -27 -5 -61zM78 960z" />
    <glyph glyph-name="igrave" unicode="&#xec;" horiz-adv-x="503" 
d="M291 34q-1 -6 -9 -18q-14 -9 -24 -12q-18 -5 -40 -8q-34 -2 -61 -2q-29 0 -61 2q-23 3 -36 8q-12 3 -18 12q-4 7 -2 18l178 892q1 9 10 18q8 8 22 12q20 6 40 8q34 2 62 2q30 0 60 -2q19 -2 38 -8q11 -4 17 -12q4 -7 2 -18zM466 1135q7 -13 10 -23q0 -11 -8 -16
q-7 -7 -28 -10q-19 -3 -55 -3q-10 0 -26 0.5t-22 0.5q-18 3 -31 6q-16 7 -22 12q-11 9 -16 16l-183 232q-9 10 -9 21q-2 11 11 17q9 7 39 12q24 4 73 4q41 0 56 -2q17 0 37 -6q11 -3 24 -12q9 -9 16 -20zM-188 960z" />
    <glyph glyph-name="iacute" unicode="&#xed;" horiz-adv-x="503" 
d="M291 34q-1 -6 -9 -18q-14 -9 -24 -12q-18 -5 -40 -8q-34 -2 -61 -2q-29 0 -61 2q-23 3 -36 8q-12 3 -18 12q-4 7 -2 18l178 892q1 9 10 18q8 8 22 12q20 6 40 8q34 2 62 2q30 0 60 -2q19 -2 38 -8q11 -4 17 -12q4 -7 2 -18zM465 1118q-5 -7 -16 -16q-6 -6 -21 -11
q-14 -5 -32 -6q-26 -2 -48 -2q-36 0 -55 3q-21 3 -28 10q-8 6 -5 16q1 8 11 23l152 229q9 13 18 19q10 7 25 13q30 5 39 6q30 2 56 2q38 0 72 -4q27 -6 37 -12q11 -9 10 -18t-11 -20zM6 960z" />
    <glyph glyph-name="icircumflex" unicode="&#xee;" horiz-adv-x="503" 
d="M291 34q-1 -6 -9 -18q-14 -9 -24 -12q-18 -5 -40 -8q-34 -2 -61 -2q-29 0 -61 2q-23 3 -36 8q-12 3 -18 12q-4 7 -2 18l178 892q1 9 10 18q8 8 22 12q20 6 40 8q34 2 62 2q30 0 60 -2q19 -2 38 -8q11 -4 17 -12q4 -7 2 -18zM669 1149q10 -18 13 -31q3 -14 -6 -20
q-6 -7 -29 -12q-21 -3 -60 -3q-12 0 -28.5 0.5t-21.5 0.5q-23 4 -28 6q-9 4 -15 10l-4 8l-5 10l-74 150l-134 -150q-9 -10 -18 -18q-8 -7 -22 -10q-5 -2 -33 -6q-6 0 -22.5 -0.5t-26.5 -0.5q-40 0 -61 3q-22 5 -26 12q-6 6 1 20q8 14 25 31l202 223q6 9 19 16q11 4 27 9
q18 5 38 5q16 2 54 2q25 0 53 -2q22 -2 35 -6q16 -5 22 -10q9 -7 13 -14zM-166 960z" />
    <glyph glyph-name="idieresis" unicode="&#xef;" horiz-adv-x="503" 
d="M291 34q-1 -6 -9 -18q-14 -9 -24 -12q-18 -5 -40 -8q-34 -2 -61 -2q-29 0 -61 2q-23 3 -36 8q-12 3 -18 12q-4 7 -2 18l178 892q1 9 10 18q8 8 22 12q20 6 40 8q34 2 62 2q30 0 60 -2q19 -2 38 -8q11 -4 17 -12q4 -7 2 -18zM110 1225q7 37 18 61q12 25 30 38q20 15 42 19
q27 5 57 5t55 -5q21 -4 32 -19q11 -12 14 -38q0 -26 -7 -61q-7 -37 -18 -61q-10 -24 -28 -38q-18 -15 -41 -19q-27 -5 -56 -5q-31 0 -56 5q-21 4 -34 19q-13 14 -14 38t6 61zM446 1225q8 38 19 61q12 24 29 38q20 15 42 19q28 5 57 5q30 0 55 -5q22 -4 33 -19q10 -13 13 -38
q0 -31 -6 -61q-6 -32 -19 -61q-11 -24 -29 -38q-18 -15 -40 -19q-27 -5 -57 -5t-55 5q-21 4 -34 19q-13 14 -14 38t6 61zM-144 960z" />
    <glyph glyph-name="eth" unicode="&#xf0;" horiz-adv-x="1099" 
d="M408 1054q-22 -4 -30 1q-7 7 -7 25q0 12 3 32q3 23 10 42q7 20 19 38q13 16 30 20l161 37l-65 93q-9 13 -9 20q-3 9 10 17q9 6 38 11q25 4 78 4q29 0 63 -2q20 -1 45 -7q18 -5 30 -12q14 -9 20 -17l33 -52l262 60q25 6 35 -4q9 -9 9 -27q0 -11 -3 -30q-1 -18 -9 -39
q-8 -19 -18 -35q-10 -15 -29 -20l-159 -37q32 -62 45 -98q19 -44 32 -97q13 -48 18 -95q6 -48 6 -93q0 -61 -6 -129q-4 -56 -18 -136q-16 -72 -37 -136q-21 -62 -56 -128q-32 -60 -79 -113q-44 -52 -104 -90q-61 -38 -134 -59q-74 -21 -166 -21q-103 0 -172 25
q-69 24 -112 70q-42 43 -62 108q-19 61 -19 140q0 65 12 140t37 148q28 78 64 141q40 69 94 120q52 50 125 83q69 31 160 31q35 0 67 -6q30 -6 60 -19q28 -14 53 -36q25 -25 45 -55q-15 49 -16 55q-3 11 -9 32t-9 30q-23 57 -26 64q-16 37 -37 69zM738 566q0 43 -10 85
q-13 41 -32 64q-20 27 -50 40q-31 14 -70 14q-45 0 -80 -19q-34 -18 -64 -50q-28 -33 -49 -74q-18 -34 -35 -86q-14 -53 -20 -92q-7 -42 -7 -84q0 -90 35 -132q33 -42 101 -42q51 0 91 18q42 20 72 49q29 28 53 69q22 39 37 82q14 37 22 82q6 42 6 76z" />
    <glyph glyph-name="ntilde" unicode="&#xf1;" horiz-adv-x="1080" 
d="M999 727q0 -41 -5 -70q-3 -30 -11 -72l-111 -551q-1 -9 -10 -18q-8 -8 -22 -12q-20 -6 -40 -8q-34 -2 -62 -2q-30 0 -60 2q-21 3 -37 8q-13 4 -17 12q-5 7 -3 18l108 535q6 32 7 49q3 25 3 44q0 46 -19 74q-20 29 -64 29q-40 0 -86 -26q-43 -25 -84 -71q-37 -41 -70 -104
q-30 -56 -44 -126l-81 -404q-1 -6 -9 -18q-14 -9 -24 -12q-18 -5 -40 -8q-34 -2 -61 -2q-29 0 -61 2q-23 3 -36 8q-12 3 -18 12q-4 7 -2 18l179 893q2 11 9 17q6 9 20 12q9 4 34 8q30 2 52 2q26 0 50 -2q23 -3 31 -8q11 -3 15 -12q3 -5 1 -17l-29 -147q20 33 56 72
q35 36 80 65q49 30 100 47q51 19 111 19q71 0 117 -21q47 -19 78 -55q28 -34 42 -81q13 -46 13 -99zM1035 1347q0 -2 -0.5 -5.5t-1 -10t-0.5 -11.5q-1 -12 -9 -51q-12 -38 -24 -61q-15 -32 -41 -60q-26 -27 -65 -44q-38 -18 -93 -18q-37 0 -69 8q-29 8 -53 21q-28 16 -43 27
q-14 10 -38 28q-17 12 -34 20q-18 9 -38 9q-32 0 -50 -23q-17 -27 -21 -62q-1 -9 -5 -14q-5 -6 -13 -9q-7 -2 -25 -4q-10 -1 -39 -1q-27 0 -36 2q-13 0 -21 4q-9 4 -10 10q-3 5 -3 13q0 2 0.5 5.5t1 10t0.5 11.5q1 12 9 51q12 38 23 61q15 31 41 59q25 27 65 45q39 18 94 18
q35 0 67 -8q30 -8 54 -21q16 -9 44 -27q3 -2 37 -28q17 -13 35 -21q19 -8 37 -8q29 0 49 21q19 23 23 64q2 17 17 22q18 6 62 6q45 0 60 -6q13 -8 13 -23zM62 960z" />
    <glyph glyph-name="ograve" unicode="&#xf2;" horiz-adv-x="1080" 
d="M1024 626q0 -77 -14 -148q-11 -69 -42 -148q-27 -71 -74 -136t-110 -112q-61 -48 -145 -77q-81 -28 -185 -28q-100 0 -174 23q-74 24 -123 70q-49 45 -73 112q-24 66 -24 152q0 77 14 148q11 69 42 148q29 73 74 136q46 65 110 113q62 47 145 76q81 28 185 28
q100 0 174 -23q74 -24 123 -70q49 -45 73 -112q24 -66 24 -152zM764 609q0 40 -8 75q-9 32 -28 54q-20 23 -50 35q-32 12 -75 12q-47 0 -90 -19q-43 -22 -71 -53q-33 -33 -55 -77q-23 -43 -38 -91q-14 -44 -22 -97q-7 -48 -7 -95q0 -40 8 -75q8 -29 28 -56q23 -23 50 -34
q32 -12 75 -12q51 0 90 20q40 18 71 52q34 35 55 78q23 43 38 92q14 45 22 97q7 46 7 94zM759 1135q7 -13 10 -23q0 -11 -8 -16q-7 -7 -28 -10q-20 -3 -55 -3q-10 0 -26 0.5t-22 0.5q-18 3 -31 6q-16 7 -22 12q-11 9 -16 16l-183 232q-9 10 -9 21q-2 11 11 17q9 7 39 12
q24 4 73 4q41 0 56 -2q17 0 37 -6q11 -3 24 -12q9 -9 16 -20zM105 960z" />
    <glyph glyph-name="oacute" unicode="&#xf3;" horiz-adv-x="1080" 
d="M1024 626q0 -77 -14 -148q-11 -69 -42 -148q-27 -71 -74 -136t-110 -112q-61 -48 -145 -77q-81 -28 -185 -28q-100 0 -174 23q-74 24 -123 70q-49 45 -73 112q-24 66 -24 152q0 77 14 148q11 69 42 148q29 73 74 136q46 65 110 113q62 47 145 76q81 28 185 28
q100 0 174 -23q74 -24 123 -70q49 -45 73 -112q24 -66 24 -152zM764 609q0 40 -8 75q-9 32 -28 54q-20 23 -50 35q-32 12 -75 12q-47 0 -90 -19q-43 -22 -71 -53q-33 -33 -55 -77q-23 -43 -38 -91q-14 -44 -22 -97q-7 -48 -7 -95q0 -40 8 -75q8 -29 28 -56q23 -23 50 -34
q32 -12 75 -12q51 0 90 20q40 18 71 52q34 35 55 78q23 43 38 92q14 45 22 97q7 46 7 94zM769 1118q-5 -7 -16 -16q-6 -6 -21 -11q-14 -5 -32 -6q-26 -2 -48 -2q-36 0 -55 3q-21 3 -28 10q-8 6 -5 16q1 8 11 23l152 229q9 13 18 19q10 7 25 13q30 5 39 6q30 2 56 2
q38 0 72 -4q27 -6 37 -12q11 -9 10 -18t-11 -20zM310 960z" />
    <glyph glyph-name="ocircumflex" unicode="&#xf4;" horiz-adv-x="1080" 
d="M1024 626q0 -77 -14 -148q-11 -69 -42 -148q-27 -71 -74 -136t-110 -112q-61 -48 -145 -77q-81 -28 -185 -28q-100 0 -174 23q-74 24 -123 70q-49 45 -73 112q-24 66 -24 152q0 77 14 148q11 69 42 148q29 73 74 136q46 65 110 113q62 47 145 76q81 28 185 28
q100 0 174 -23q74 -24 123 -70q49 -45 73 -112q24 -66 24 -152zM764 609q0 40 -8 75q-9 32 -28 54q-20 23 -50 35q-32 12 -75 12q-47 0 -90 -19q-43 -22 -71 -53q-33 -33 -55 -77q-23 -43 -38 -91q-14 -44 -22 -97q-7 -48 -7 -95q0 -40 8 -75q8 -29 28 -56q23 -23 50 -34
q32 -12 75 -12q51 0 90 20q40 18 71 52q34 35 55 78q23 43 38 92q14 45 22 97q7 46 7 94zM958 1149q10 -18 13 -31q3 -14 -6 -20q-6 -7 -29 -12q-21 -3 -60 -3q-12 0 -28.5 0.5t-21.5 0.5q-23 4 -28 6q-9 4 -15 10l-4 8l-5 10l-74 150l-134 -150q-9 -10 -18 -18
q-8 -7 -22 -10q-5 -2 -33 -6q-6 0 -22.5 -0.5t-26.5 -0.5q-40 0 -61 3q-22 5 -26 12q-7 6 1 20q7 14 25 31l202 223q6 9 19 16q10 4 27 9q18 5 38 5q16 2 54 2q25 0 53 -2q22 -2 35 -6q16 -5 22 -10q9 -7 13 -14zM123 960z" />
    <glyph glyph-name="otilde" unicode="&#xf5;" horiz-adv-x="1080" 
d="M1024 626q0 -77 -14 -148q-11 -69 -42 -148q-27 -71 -74 -136t-110 -112q-61 -48 -145 -77q-81 -28 -185 -28q-100 0 -174 23q-74 24 -123 70q-49 45 -73 112q-24 66 -24 152q0 77 14 148q11 69 42 148q29 73 74 136q46 65 110 113q62 47 145 76q81 28 185 28
q100 0 174 -23q74 -24 123 -70q49 -45 73 -112q24 -66 24 -152zM764 609q0 40 -8 75q-9 32 -28 54q-20 23 -50 35q-32 12 -75 12q-47 0 -90 -19q-43 -22 -71 -53q-33 -33 -55 -77q-23 -43 -38 -91q-14 -44 -22 -97q-7 -48 -7 -95q0 -40 8 -75q8 -29 28 -56q23 -23 50 -34
q32 -12 75 -12q51 0 90 20q40 18 71 52q34 35 55 78q23 43 38 92q14 45 22 97q7 46 7 94zM1045 1347q0 -2 -0.5 -5.5t-1 -10t-0.5 -11.5q-1 -12 -9 -51q-12 -38 -24 -61q-15 -32 -41 -60q-26 -27 -65 -44q-38 -18 -93 -18q-37 0 -69 8q-29 8 -53 21q-28 16 -43 27
q-14 10 -38 28q-17 12 -34 20q-18 9 -38 9q-32 0 -50 -23q-17 -27 -21 -62q-1 -9 -5 -14q-5 -6 -13 -9q-7 -2 -25 -4q-10 -1 -39 -1q-27 0 -36 2q-13 0 -21 4q-9 4 -10 10q-3 5 -3 13q0 2 0.5 5.5t1 10t0.5 11.5q1 12 9 51q12 38 23 61q15 31 41 59q25 27 65 45q39 18 94 18
q35 0 67 -8q30 -8 54 -21q16 -9 44 -27q3 -2 37 -28q17 -13 35 -21q19 -8 37 -8q29 0 49 21q19 23 23 64q2 17 17 22q18 6 62 6q45 0 60 -6q13 -8 13 -23zM72 960z" />
    <glyph glyph-name="odieresis" unicode="&#xf6;" horiz-adv-x="1080" 
d="M1024 626q0 -77 -14 -148q-11 -69 -42 -148q-27 -71 -74 -136t-110 -112q-61 -48 -145 -77q-81 -28 -185 -28q-100 0 -174 23q-74 24 -123 70q-49 45 -73 112q-24 66 -24 152q0 77 14 148q11 69 42 148q29 73 74 136q46 65 110 113q62 47 145 76q81 28 185 28
q100 0 174 -23q74 -24 123 -70q49 -45 73 -112q24 -66 24 -152zM764 609q0 40 -8 75q-9 32 -28 54q-20 23 -50 35q-32 12 -75 12q-47 0 -90 -19q-43 -22 -71 -53q-33 -33 -55 -77q-23 -43 -38 -91q-14 -44 -22 -97q-7 -48 -7 -95q0 -40 8 -75q8 -29 28 -56q23 -23 50 -34
q32 -12 75 -12q51 0 90 20q40 18 71 52q34 35 55 78q23 43 38 92q14 45 22 97q7 46 7 94zM1009 1225q-7 -37 -18 -61q-12 -25 -30 -38q-18 -14 -42 -19q-30 -5 -61 -5q-32 0 -57 5q-21 4 -36 19q-13 14 -14 38q-3 25 4 61q6 37 18 61q11 24 29 38q20 15 43 19q28 5 59 5
q33 0 58 -5q21 -4 36 -19q13 -13 15 -38q3 -25 -4 -61zM618 1225q-7 -37 -18 -61t-29 -38q-20 -15 -44 -19q-27 -5 -59 -5q-33 0 -58 5q-22 4 -35 19q-13 13 -16 38q-2 27 5 61q6 35 17 61q12 25 30 38q20 15 43 19q28 5 60 5t57 -5q21 -4 36 -19q13 -13 16 -38
q2 -27 -5 -61zM109 960z" />
    <glyph glyph-name="divide" unicode="&#xf7;" horiz-adv-x="1020" 
d="M747 954q-7 -41 -21 -70q-13 -28 -34 -46q-20 -19 -50 -26q-30 -8 -70 -8q-41 0 -68 8q-26 7 -40 26q-12 17 -14 46q-1 24 7 70q9 44 22 72q13 30 33 48q22 19 50 26q30 8 72 8q39 0 68 -8q25 -7 39 -26q12 -17 14 -48q1 -28 -8 -72zM1005 631q0 -2 -0.5 -9t-0.5 -12
q-1 -3 -2.5 -14t-3.5 -17q-2 -11 -8 -35q-5 -18 -12 -32q-8 -15 -16 -24q-9 -9 -20 -9h-869q-25 0 -25 39q0 12 2 22q0 9 4 31q7 27 10 35q5 19 12 32q8 16 16 24q7 10 19 10h869q25 0 25 -41zM596 192q-9 -42 -22 -70q-13 -29 -33 -46q-23 -18 -51 -25q-30 -8 -70 -8
q-41 0 -68 8q-25 7 -40 25q-12 16 -14 46q-1 25 7 70q9 44 21 72q14 31 34 48q20 19 50 26q30 8 71 8q40 0 67 -8q26 -7 40 -26t14 -48q2 -23 -6 -72z" />
    <glyph glyph-name="oslash" unicode="&#xf8;" horiz-adv-x="1114" 
d="M944 904q59 -47 88 -117q27 -69 27 -161q0 -65 -13 -148q-16 -80 -44 -148q-28 -72 -75 -136q-46 -63 -111 -112q-64 -48 -151 -77q-84 -28 -193 -28q-30 0 -44 1q-26 2 -38 4q-7 1 -18.5 2.5t-16.5 1.5q-19 3 -27 7l-94 -139q-10 -16 -38 -22q-24 -7 -70 -7
q-62 0 -78 12q-19 12 -2 35l127 185q-58 46 -85 116q-28 69 -28 161q0 77 14 148q11 72 43 148t76 136q45 64 111 113q65 47 151 76q84 28 193 28q34 0 70 -3q39 -3 71 -13l91 134q10 14 36 22q24 7 71 7q61 0 77 -12q18 -12 2 -36zM820 601q0 25 -6 47q-4 20 -19 42
l-354 -522q12 -5 29 -6q15 -3 37 -3q57 0 104 21q47 23 81 58q36 36 59 81q25 48 39 95q15 44 23 97q7 45 7 90zM677 793q-14 5 -31 6q-24 2 -34 2q-58 0 -103 -21q-47 -23 -80 -58q-35 -35 -59 -80q-25 -46 -40 -95q-14 -41 -24 -98q-7 -58 -7 -90q0 -31 7 -52
q6 -21 18 -35z" />
    <glyph glyph-name="ugrave" unicode="&#xf9;" horiz-adv-x="1080" 
d="M867 33q-2 -11 -9 -17q-6 -9 -20 -12q-9 -4 -34 -8q-28 -2 -52 -2q-26 0 -50 2q-23 3 -31 8q-11 3 -15 12q-3 6 0 17l27 145q-19 -35 -55 -70q-34 -35 -80 -66q-48 -30 -99 -47q-53 -18 -109 -18q-67 0 -118 19q-51 22 -78 54q-28 31 -44 80q-13 50 -13 102q0 40 5 70
q3 30 11 72l110 553q1 9 9 17q9 9 24 12q12 5 40 8q34 2 61 2q29 0 61 -2q26 -3 36 -8q12 -3 18 -12q3 -7 2 -17l-106 -536q-6 -30 -8 -46q-2 -32 -2 -46q0 -19 4 -43q7 -23 15 -34q11 -14 25 -21q15 -7 38 -7q40 0 86 26q45 28 84 74q36 40 72 110q31 65 47 137l76 386
q2 11 9 17q8 9 24 12q12 5 40 8q34 2 61 2q29 0 61 -2q27 -4 36 -8q13 -3 18 -12q4 -5 2 -17zM730 1135q7 -13 10 -23q0 -11 -8 -16q-7 -7 -28 -10q-20 -3 -55 -3q-10 0 -26 0.5t-22 0.5q-18 3 -31 6q-16 7 -22 12q-11 9 -16 16l-183 232q-9 10 -9 21q-2 11 11 17q9 7 39 12
q24 4 73 4q41 0 56 -2q17 0 37 -6q11 -3 24 -12q9 -9 16 -20zM76 960z" />
    <glyph glyph-name="uacute" unicode="&#xfa;" horiz-adv-x="1080" 
d="M867 33q-2 -11 -9 -17q-6 -9 -20 -12q-9 -4 -34 -8q-28 -2 -52 -2q-26 0 -50 2q-23 3 -31 8q-11 3 -15 12q-3 6 0 17l27 145q-19 -35 -55 -70q-34 -35 -80 -66q-48 -30 -99 -47q-53 -18 -109 -18q-67 0 -118 19q-51 22 -78 54q-28 31 -44 80q-13 50 -13 102q0 40 5 70
q3 30 11 72l110 553q1 9 9 17q9 9 24 12q12 5 40 8q34 2 61 2q29 0 61 -2q26 -3 36 -8q12 -3 18 -12q3 -7 2 -17l-106 -536q-6 -30 -8 -46q-2 -32 -2 -46q0 -19 4 -43q7 -23 15 -34q11 -14 25 -21q15 -7 38 -7q40 0 86 26q45 28 84 74q36 40 72 110q31 65 47 137l76 386
q2 11 9 17q8 9 24 12q12 5 40 8q34 2 61 2q29 0 61 -2q27 -4 36 -8q13 -3 18 -12q4 -5 2 -17zM764 1118q-5 -7 -16 -16q-6 -6 -21 -11q-14 -5 -32 -6q-26 -2 -48 -2q-35 0 -55 3q-21 3 -28 10q-8 6 -5 16q1 8 11 23l152 229q9 13 18 19q10 7 25 13q30 5 39 6q30 2 56 2
q38 0 72 -4q27 -6 37 -12q11 -9 10 -18t-11 -20zM305 960z" />
    <glyph glyph-name="ucircumflex" unicode="&#xfb;" horiz-adv-x="1080" 
d="M867 33q-2 -11 -9 -17q-6 -9 -20 -12q-9 -4 -34 -8q-28 -2 -52 -2q-26 0 -50 2q-23 3 -31 8q-11 3 -15 12q-3 6 0 17l27 145q-19 -35 -55 -70q-34 -35 -80 -66q-48 -30 -99 -47q-53 -18 -109 -18q-67 0 -118 19q-51 22 -78 54q-28 31 -44 80q-13 50 -13 102q0 40 5 70
q3 30 11 72l110 553q1 9 9 17q9 9 24 12q12 5 40 8q34 2 61 2q29 0 61 -2q26 -3 36 -8q12 -3 18 -12q3 -7 2 -17l-106 -536q-6 -30 -8 -46q-2 -32 -2 -46q0 -19 4 -43q7 -23 15 -34q11 -14 25 -21q15 -7 38 -7q40 0 86 26q45 28 84 74q36 40 72 110q31 65 47 137l76 386
q2 11 9 17q8 9 24 12q12 5 40 8q34 2 61 2q29 0 61 -2q27 -4 36 -8q13 -3 18 -12q4 -5 2 -17zM953 1149q10 -18 13 -31q3 -14 -6 -20q-6 -7 -29 -12q-21 -3 -60 -3q-12 0 -28.5 0.5t-21.5 0.5q-23 4 -28 6q-9 4 -15 10l-4 8l-5 10l-74 150l-134 -150q-9 -10 -18 -18
q-8 -7 -22 -10q-5 -2 -33 -6q-6 0 -22.5 -0.5t-26.5 -0.5q-40 0 -61 3q-22 5 -26 12q-6 6 1 20t25 31l202 223q6 9 19 16q11 4 27 9q18 5 38 5q16 2 54 2q25 0 53 -2q22 -2 35 -6q16 -5 22 -10q9 -7 13 -14zM118 960z" />
    <glyph glyph-name="udieresis" unicode="&#xfc;" horiz-adv-x="1080" 
d="M867 33q-2 -11 -9 -17q-6 -9 -20 -12q-9 -4 -34 -8q-28 -2 -52 -2q-26 0 -50 2q-23 3 -31 8q-11 3 -15 12q-3 6 0 17l27 145q-19 -35 -55 -70q-34 -35 -80 -66q-48 -30 -99 -47q-53 -18 -109 -18q-67 0 -118 19q-51 22 -78 54q-28 31 -44 80q-13 50 -13 102q0 40 5 70
q3 30 11 72l110 553q1 9 9 17q9 9 24 12q12 5 40 8q34 2 61 2q29 0 61 -2q26 -3 36 -8q12 -3 18 -12q3 -7 2 -17l-106 -536q-6 -30 -8 -46q-2 -32 -2 -46q0 -19 4 -43q7 -23 15 -34q11 -14 25 -21q15 -7 38 -7q40 0 86 26q45 28 84 74q36 40 72 110q31 65 47 137l76 386
q2 11 9 17q8 9 24 12q12 5 40 8q34 2 61 2q29 0 61 -2q27 -4 36 -8q13 -3 18 -12q4 -5 2 -17zM995 1225q-7 -37 -18 -61q-12 -25 -30 -38q-18 -14 -42 -19q-30 -5 -61 -5q-32 0 -57 5q-21 4 -36 19q-13 14 -14 38q-3 25 4 61q6 37 18 61q11 24 29 38q20 15 43 19q28 5 59 5
q33 0 58 -5q21 -4 36 -19q13 -13 15 -38q3 -25 -4 -61zM604 1225q-7 -37 -18 -61t-29 -38q-20 -15 -44 -19q-27 -5 -59 -5q-33 0 -58 5q-22 4 -35 19q-13 13 -16 38q-2 27 5 61q6 35 17 61q12 25 30 38q20 15 43 19q28 5 60 5t57 -5q21 -4 36 -19q13 -13 16 -38
q2 -27 -5 -61zM95 960z" />
    <glyph glyph-name="yacute" unicode="&#xfd;" horiz-adv-x="963" 
d="M998 929q0 -13 -3 -29t-9 -33q-48 -128 -74 -190q-41 -103 -90 -202q-50 -101 -116 -215q-64 -110 -149 -230l-244 -346q-9 -14 -23 -22q-13 -8 -34 -14q-23 -5 -49 -8q-28 -3 -67 -3q-43 0 -70 3q-26 5 -38 12q-13 8 -11 20q2 14 14 29l227 299l-147 858q-1 4 -2 13
t-2 14q-2 18 -2 24q0 19 7 29q6 11 22 17q15 6 41 9q34 2 63 2q49 0 64 -2q20 0 36 -6q13 -5 16 -15q5 -10 7 -25l92 -625h2q53 81 91 152q42 79 75 157q23 52 63 160q36 110 52 165q2 11 9 17q7 9 23 12q14 5 44 8q36 2 70 2q62 0 88 -8q24 -8 24 -29zM686 1118
q-5 -7 -16 -16q-6 -6 -21 -11q-14 -5 -32 -6q-26 -2 -48 -2q-35 0 -55 3q-21 3 -28 10q-8 6 -5 16q1 8 11 23l152 229q9 13 18 19q10 7 25 13q30 5 39 6q30 2 56 2q38 0 72 -4q27 -6 37 -12q11 -9 10 -18t-11 -20zM227 960z" />
    <glyph glyph-name="thorn" unicode="&#xfe;" horiz-adv-x="1081" 
d="M1024 643q0 -65 -12 -140q-13 -79 -37 -149q-27 -78 -64 -142q-38 -68 -93 -121q-55 -52 -126 -83q-68 -31 -158 -31q-38 0 -75 8q-34 7 -65 23q-31 15 -53 34q-23 17 -42 41l-79 -403q-2 -11 -10 -18q-6 -8 -22 -14q-20 -6 -41 -8q-25 -3 -62 -3t-60 3q-19 2 -37 8
q-12 6 -17 14q-4 6 -2 18l334 1669q1 9 10 18t23 13q17 6 40 9q26 3 61 3q39 0 61 -3q23 -3 37 -9q12 -5 17 -14q3 -8 1 -18l-71 -357q-1 -6 -4.5 -21t-5.5 -23q-4 -15 -12 -47q-10 -32 -15 -49t-17 -49q16 29 49 62q34 34 75 58q43 28 92 44q53 17 104 17q76 0 130 -27
q53 -27 84 -72q33 -46 48 -108q14 -64 14 -133zM765 621q0 30 -5 62q-6 29 -18 47t-32 30q-20 10 -48 10q-45 0 -90 -27q-48 -28 -86 -73q-39 -43 -72 -106q-29 -60 -43 -128l-28 -136q34 -54 77 -82t99 -28q41 0 75 20q34 19 62 54q28 32 48 77q23 47 34 92q13 43 20 97
q7 45 7 91z" />
    <glyph glyph-name="ydieresis" unicode="&#xff;" horiz-adv-x="963" 
d="M998 929q0 -13 -3 -29t-9 -33q-48 -128 -74 -190q-41 -103 -90 -202q-50 -101 -116 -215q-64 -110 -149 -230l-244 -346q-9 -14 -23 -22q-13 -8 -34 -14q-23 -5 -49 -8q-28 -3 -67 -3q-43 0 -70 3q-26 5 -38 12q-13 8 -11 20q2 14 14 29l227 299l-147 858q-1 4 -2 13
t-2 14q-2 18 -2 24q0 19 7 29q6 11 22 17q15 6 41 9q34 2 63 2q49 0 64 -2q20 0 36 -6q13 -5 16 -15q5 -10 7 -25l92 -625h2q53 81 91 152q42 79 75 157q23 52 63 160q36 110 52 165q2 11 9 17q7 9 23 12q14 5 44 8q36 2 70 2q62 0 88 -8q24 -8 24 -29zM929 1225
q-7 -37 -18 -61q-12 -25 -30 -38q-18 -14 -42 -19q-30 -5 -61 -5q-32 0 -57 5q-21 4 -36 19q-13 14 -14 38q-3 25 4 61q6 37 18 61q11 24 29 38q20 15 43 19q28 5 59 5q33 0 58 -5q21 -4 36 -19q13 -13 15 -38q3 -25 -4 -61zM538 1225q-7 -37 -18 -61t-29 -38
q-20 -15 -44 -19q-27 -5 -59 -5q-33 0 -58 5q-22 4 -35 19q-13 13 -16 38q-2 27 5 61q6 35 17 61q12 25 30 38q20 15 43 19q28 5 60 5t57 -5q21 -4 36 -19q13 -13 16 -38q2 -27 -5 -61zM29 960z" />
    <glyph glyph-name="Amacron" unicode="&#x100;" horiz-adv-x="1241" 
d="M1126 98q5 -41 4 -57q0 -23 -14 -31q-11 -11 -44 -14q-42 -2 -85 -2q-46 0 -62 2q-22 0 -37 5q-14 5 -18 12t-6 22l-35 260h-486l-134 -254q-9 -16 -16 -23q-9 -10 -26 -15q-21 -6 -45 -7q-40 -2 -72 -2q-45 0 -72 3q-25 3 -34 15q-8 11 -2 32q10 27 26 56l628 1148
q12 19 20 28q13 11 28 16q26 6 50 6q22 2 83 2q71 0 93 -2q28 0 54 -6q19 -6 25 -17q7 -12 8 -30zM733 1047h-1l-289 -550h364zM1185 1578q0 -2 -0.5 -9.5t-0.5 -12.5q-1 -3 -2.5 -13.5t-3.5 -16.5q-2 -11 -8 -33q-3 -10 -12 -31q-12 -17 -18 -22q-9 -9 -21 -9h-590
q-17 0 -25 9q-7 8 -7 30q0 1 0.5 8t0.5 12q2 10 4 30q2 11 8 33q6 17 14 31q6 11 18 23q12 9 25 9h590q15 0 21 -10q7 -10 7 -28zM190 1294z" />
    <glyph glyph-name="amacron" unicode="&#x101;" horiz-adv-x="1081" 
d="M868 33q-5 -21 -32 -30t-88 -9q-26 0 -50 2q-11 1 -32 6q-11 6 -16 12q-3 8 -1 19l28 143q-15 -33 -48 -68q-35 -37 -78 -64q-45 -28 -99 -48q-54 -19 -113 -19q-81 0 -133 28q-54 29 -85 75q-34 51 -45 109q-14 57 -14 128q0 63 12 137q13 79 37 149q27 77 64 143
q40 70 93 121q56 53 126 85q71 31 159 31q84 0 147 -35q63 -32 112 -100l16 79q5 21 32 30t88 9q24 0 50 -2q23 -4 32 -8q10 -3 15 -12q4 -5 2 -17zM744 659q-33 54 -78 83q-42 27 -98 27q-42 0 -77 -20t-62 -53q-28 -36 -47 -78q-23 -47 -34 -92q-13 -42 -20 -96
q-7 -45 -7 -89q0 -35 5 -57q3 -25 16 -48q11 -20 32 -34q20 -12 51 -12q43 0 90 26q44 26 86 72q39 44 71 106q31 64 44 130zM1000 1284q0 -2 -0.5 -8.5t-0.5 -11.5q-1 -5 -2.5 -14.5t-2.5 -13.5q-1 -6 -3.5 -17t-3.5 -16q-8 -22 -12 -31q-12 -18 -18 -23q-9 -9 -22 -9h-511
q-18 0 -25 9q-8 10 -8 30q0 11 3 33q3 28 11 49q5 20 20 43q15 19 36 19h511q16 0 22 -11q6 -9 6 -28zM143 960z" />
    <glyph glyph-name="Abreve" unicode="&#x102;" horiz-adv-x="1241" 
d="M1126 98q5 -41 4 -57q0 -23 -14 -31q-11 -11 -44 -14q-42 -2 -85 -2q-46 0 -62 2q-22 0 -37 5q-14 5 -18 12t-6 22l-35 260h-486l-134 -254q-9 -16 -16 -23q-9 -10 -26 -15q-21 -6 -45 -7q-40 -2 -72 -2q-45 0 -72 3q-25 3 -34 15q-8 11 -2 32q10 27 26 56l628 1148
q12 19 20 28q13 11 28 16q26 6 50 6q22 2 83 2q71 0 93 -2q28 0 54 -6q19 -6 25 -17q7 -12 8 -30zM733 1047h-1l-289 -550h364zM1159 1670q0 -8 -5 -36q-4 -23 -19 -56q-11 -28 -38 -66q-23 -32 -63 -62q-36 -27 -92 -46q-54 -18 -128 -18q-79 0 -128 16q-51 17 -81 44
q-31 26 -43 63q-13 35 -13 75q0 16 1 26q2 20 3 29q2 15 6 25q4 11 9 16q7 8 27 13q17 4 52 4q19 0 41 -2q16 -1 25 -6q9 -4 13 -10q3 -6 3 -13q0 -2 -0.5 -8.5t-0.5 -9.5q-2 -8 -2 -22q0 -19 6 -34q4 -14 17 -25q12 -10 31 -15q21 -6 48 -6q28 0 52 6q24 7 45 20
q22 17 35 35q15 21 24 52q3 9 9 17t17 12q11 6 27 7q22 2 42 2q19 0 41 -2q15 -1 24 -5q9 -3 12 -8q3 -6 3 -12zM216 1294z" />
    <glyph glyph-name="abreve" unicode="&#x103;" horiz-adv-x="1081" 
d="M868 33q-5 -21 -32 -30t-88 -9q-26 0 -50 2q-11 1 -32 6q-11 6 -16 12q-3 8 -1 19l28 143q-15 -33 -48 -68q-35 -37 -78 -64q-45 -28 -99 -48q-54 -19 -113 -19q-81 0 -133 28q-54 29 -85 75q-34 51 -45 109q-14 57 -14 128q0 63 12 137q13 79 37 149q27 77 64 143
q40 70 93 121q56 53 126 85q71 31 159 31q84 0 147 -35q63 -32 112 -100l16 79q5 21 32 30t88 9q24 0 50 -2q23 -4 32 -8q10 -3 15 -12q4 -5 2 -17zM744 659q-33 54 -78 83q-42 27 -98 27q-42 0 -77 -20t-62 -53q-28 -36 -47 -78q-23 -47 -34 -92q-13 -42 -20 -96
q-7 -45 -7 -89q0 -35 5 -57q3 -25 16 -48q11 -20 32 -34q20 -12 51 -12q43 0 90 26q44 26 86 72q39 44 71 106q31 64 44 130zM1006 1373q0 -15 -5 -35q-3 -23 -16 -58q-15 -36 -36 -66q-22 -33 -61 -64q-41 -29 -91 -46q-54 -18 -128 -18q-77 0 -126 16q-52 18 -78 44
q-30 30 -40 64q-12 37 -12 76q0 16 1 26l3 30q2 14 6 26q3 11 8 16q9 8 28 12q16 4 51 4q19 0 39 -2q16 -1 25 -6t12 -10q3 -4 3 -12q0 -13 -2 -20q0 -4 -0.5 -12t-0.5 -11q0 -17 5 -34q4 -14 16 -26q11 -11 30 -17q18 -6 46 -6q30 0 52 7t44 21q21 18 33 36q16 26 22 53
q5 12 9 17q6 9 16 12q8 5 26 8q22 2 41 2q21 0 41 -2q15 -1 24 -5q9 -3 12 -9q3 -4 3 -11zM139 960z" />
    <glyph glyph-name="Aogonek" unicode="&#x104;" horiz-adv-x="1241" 
d="M1095 -219q0 -5 -2 -25q-1 -15 -6 -32l-9 -30q-5 -13 -11 -19q-7 -7 -25 -15t-42 -12q-19 -4 -54 -10q-28 -3 -58 -3q-48 0 -90 9q-40 8 -69 26q-28 18 -45 44q-16 26 -16 64q0 26 7 46q8 24 22 46q17 27 40 50q31 31 62 57l65 53l-35 265h-486l-134 -254q-9 -16 -16 -23
q-9 -10 -26 -15q-21 -6 -45 -7q-40 -2 -72 -2q-45 0 -72 3q-25 3 -34 15q-8 11 -2 32q10 27 26 56l628 1148q12 19 20 28q13 11 28 16q26 6 50 6q22 2 83 2q71 0 93 -2q28 0 54 -6q18 -6 24 -17t9 -30l166 -1129q2 -14 5 -42q0 -19 -4 -32q-6 -16 -13 -24q-11 -12 -23 -22
l-82 -69q-4 -3 -36 -32q-18 -20 -21 -25q-7 -9 -11 -18q-3 -8 -3 -15q0 -14 13 -23q12 -9 39 -9h80q15 0 22 -5q6 -6 6 -19zM734 1048h-2l-289 -551h364z" />
    <glyph glyph-name="aogonek" unicode="&#x105;" horiz-adv-x="1081" 
d="M744 659q-33 54 -78 83q-42 27 -98 27q-42 0 -77 -20t-62 -53q-28 -36 -47 -78q-23 -47 -34 -92q-13 -42 -20 -96q-7 -45 -7 -89q0 -35 5 -57q3 -25 16 -48q11 -20 32 -34q20 -12 51 -12q43 0 90 26q44 26 86 72q39 44 71 106q31 64 44 130zM677 176q-15 -33 -48 -68
q-35 -37 -78 -64q-45 -28 -99 -48q-54 -19 -113 -19q-81 0 -133 28q-54 29 -85 75q-34 51 -45 109q-14 57 -14 128q0 63 12 137q13 79 37 149q27 77 64 143q40 70 93 121q56 53 126 85q71 31 159 31q84 0 147 -35q63 -32 112 -100l16 79q5 21 32 30t88 9q24 0 50 -2
q23 -4 32 -8q10 -3 15 -12q4 -5 2 -17l-179 -896q-4 -26 -18 -46q-12 -17 -36 -38l-45 -37q-28 -23 -39 -41q-11 -17 -11 -36q0 -15 12 -21q11 -8 36 -8h77q16 0 22 -8t6 -20q0 -4 -2 -22q-4 -20 -7 -30q-1 -5 -2.5 -10t-3.5 -11l-3 -9q-7 -14 -12 -19q-4 -4 -24 -14
q-17 -7 -39 -13q-19 -5 -47 -10q-26 -3 -50 -3q-103 0 -158 35q-53 36 -53 103q0 21 5 44q7 24 19 43q14 24 35 47q21 24 53 50l62 52z" />
    <glyph glyph-name="Cacute" unicode="&#x106;" horiz-adv-x="1062" 
d="M1145 1169q0 -29 -9 -75q-10 -45 -24 -76q-16 -28 -33 -28q-12 0 -31 16q-12 12 -47 36q-23 15 -74 36q-48 16 -112 16q-73 0 -135 -30q-61 -28 -109 -78q-48 -48 -84 -111q-37 -64 -59 -131q-24 -68 -36 -136q-11 -69 -11 -125q0 -69 17 -123q19 -54 51 -88
q34 -36 81 -52q48 -18 108 -18q71 0 122 15t86 33q39 20 58 33q24 15 43 15q14 0 17 -10q5 -8 5 -26q0 -3 -2 -21q-1 -9 -5 -31q-5 -28 -7 -38q-5 -23 -9 -38q-5 -19 -12 -32q-6 -15 -17 -26q-11 -12 -43 -28q-32 -18 -78 -33q-53 -17 -104 -25q-54 -11 -124 -11
q-107 0 -196 29q-85 28 -149 88q-60 57 -94 148q-33 88 -33 208q0 95 19 194q20 101 57 196q39 95 98 182q60 88 140 150q78 65 182 103q105 38 228 38q70 0 132 -15q60 -13 110 -38q48 -26 64 -44q19 -18 19 -49zM924 1421q-11 -10 -22 -15q-6 -5 -24 -11q-12 -4 -36 -7
q-30 -2 -53 -2q-69 0 -83 13q-16 13 10 40l189 204q17 17 26 23q15 10 31 14q23 6 43 7q34 2 61 2q46 0 72 -6q25 -6 34 -15q9 -10 4 -22q-6 -11 -21 -25zM388 1294z" />
    <glyph glyph-name="cacute" unicode="&#x107;" horiz-adv-x="843" 
d="M858 867q0 -23 -6 -52q-4 -28 -14 -55q-8 -23 -22 -44q-15 -17 -30 -17q-16 0 -29 12q-11 10 -35 27q-18 14 -51 28q-32 12 -80 12q-52 0 -93 -23q-40 -22 -72 -59q-32 -40 -50 -84q-19 -43 -33 -94q-12 -42 -19 -90q-5 -50 -5 -76q0 -80 35 -123q36 -42 112 -42
q56 0 96 15q40 13 68 32q12 7 50 31q20 14 37 14q9 0 15 -9q4 -12 4 -26q0 -21 -4 -42q-5 -33 -10 -52q-10 -34 -16 -48q-7 -23 -22 -36q-7 -8 -42 -30q-29 -15 -67 -29q-37 -13 -83 -21t-92 -8q-170 0 -256 86q-85 86 -85 256q0 57 11 134q12 72 38 146q24 71 68 143
q41 69 101 122q63 55 139 85q81 32 182 32q40 0 78 -6q32 -5 70 -16q36 -14 56 -25q21 -11 37 -25q12 -12 15 -21q4 -8 4 -22zM697 1118q-5 -7 -16 -16q-6 -6 -21 -11q-14 -5 -32 -6q-26 -2 -48 -2q-36 0 -55 3q-21 3 -28 10q-8 6 -5 16q1 8 11 23l152 229q9 13 18 19
q10 7 25 13q30 5 39 6q30 2 56 2q38 0 72 -4q27 -6 37 -12q11 -9 10 -18t-11 -20zM238 960z" />
    <glyph glyph-name="Ccircumflex" unicode="&#x108;" horiz-adv-x="1062" 
d="M1145 1169q0 -29 -9 -75q-10 -45 -24 -76q-16 -28 -33 -28q-12 0 -31 16q-12 12 -47 36q-23 15 -74 36q-48 16 -112 16q-73 0 -135 -30q-61 -28 -109 -78q-48 -48 -84 -111q-37 -64 -59 -131q-24 -68 -36 -136q-11 -69 -11 -125q0 -69 17 -123q19 -54 51 -88
q34 -36 81 -52q48 -18 108 -18q71 0 122 15t86 33q39 20 58 33q24 15 43 15q14 0 17 -10q5 -8 5 -26q0 -3 -2 -21q-1 -9 -5 -31q-5 -28 -7 -38q-5 -23 -9 -38q-5 -19 -12 -32q-6 -15 -17 -26q-11 -12 -43 -28q-32 -18 -78 -33q-53 -17 -104 -25q-54 -11 -124 -11
q-107 0 -196 29q-85 28 -149 88q-60 57 -94 148q-33 88 -33 208q0 95 19 194q20 101 57 196q39 95 98 182q60 88 140 150q78 65 182 103q105 38 228 38q70 0 132 -15q60 -13 110 -38q48 -26 64 -44q19 -18 19 -49zM1165 1434q8 -13 10 -24q2 -9 -9 -14q-12 -7 -31 -8
q-28 -2 -55 -2q-50 0 -66 2q-20 0 -40 4q-15 5 -20 10q-6 5 -13 15l-90 137l-149 -134q-11 -11 -22 -18q-7 -4 -27 -10q-22 -4 -43 -4q-18 -2 -68 -2q-28 0 -54 2q-17 3 -28 8q-7 7 -2 15q3 8 19 23l238 214q13 14 27 21q12 6 33 13q18 3 42 6q7 0 26.5 0.5t31.5 0.5
q39 0 53 -1q26 -2 36 -5q14 -4 26 -13q8 -7 20 -22zM166 1294z" />
    <glyph glyph-name="ccircumflex" unicode="&#x109;" horiz-adv-x="843" 
d="M858 867q0 -23 -6 -52q-4 -28 -14 -55q-8 -23 -22 -44q-15 -17 -30 -17q-16 0 -29 12q-11 10 -35 27q-18 14 -51 28q-32 12 -80 12q-52 0 -93 -23q-40 -22 -72 -59q-32 -40 -50 -84q-19 -43 -33 -94q-12 -42 -19 -90q-5 -50 -5 -76q0 -80 35 -123q36 -42 112 -42
q56 0 96 15q40 13 68 32q12 7 50 31q20 14 37 14q9 0 15 -9q4 -12 4 -26q0 -21 -4 -42q-5 -33 -10 -52q-10 -34 -16 -48q-7 -23 -22 -36q-7 -8 -42 -30q-29 -15 -67 -29q-37 -13 -83 -21t-92 -8q-170 0 -256 86q-85 86 -85 256q0 57 11 134q12 72 38 146q24 71 68 143
q41 69 101 122q63 55 139 85q81 32 182 32q40 0 78 -6q32 -5 70 -16q36 -14 56 -25q21 -11 37 -25q12 -12 15 -21q4 -8 4 -22zM885 1149q10 -18 13 -31q3 -14 -6 -20q-6 -7 -29 -12q-21 -3 -60 -3q-12 0 -28.5 0.5t-21.5 0.5q-23 4 -28 6q-9 4 -15 10l-4 8l-5 10l-74 150
l-134 -150q-9 -10 -18 -18q-8 -7 -22 -10q-5 -2 -33 -6q-6 0 -22.5 -0.5t-26.5 -0.5q-40 0 -61 3q-22 5 -26 12q-6 6 1 20q8 14 25 31l202 223q6 9 19 16q11 4 27 9q18 5 38 5q16 2 54 2q25 0 53 -2q22 -2 35 -6q16 -5 22 -10q9 -7 13 -14zM50 960z" />
    <glyph glyph-name="Cdotaccent" unicode="&#x10a;" horiz-adv-x="1062" 
d="M1145 1169q0 -29 -9 -75q-10 -45 -24 -76q-16 -28 -33 -28q-12 0 -31 16q-12 12 -47 36q-23 15 -74 36q-48 16 -112 16q-73 0 -135 -30q-61 -28 -109 -78q-48 -48 -84 -111q-37 -64 -59 -131q-24 -68 -36 -136q-11 -69 -11 -125q0 -69 17 -123q19 -54 51 -88
q34 -36 81 -52q48 -18 108 -18q71 0 122 15t86 33q39 20 58 33q24 15 43 15q14 0 17 -10q5 -8 5 -26q0 -3 -2 -21q-1 -9 -5 -31q-5 -28 -7 -38q-5 -23 -9 -38q-5 -19 -12 -32q-6 -15 -17 -26q-11 -12 -43 -28q-32 -18 -78 -33q-53 -17 -104 -25q-54 -11 -124 -11
q-107 0 -196 29q-85 28 -149 88q-60 57 -94 148q-33 88 -33 208q0 95 19 194q20 101 57 196q39 95 98 182q60 88 140 150q78 65 182 103q105 38 228 38q70 0 132 -15q60 -13 110 -38q48 -26 64 -44q19 -18 19 -49zM721 1531q8 37 19 59q10 24 30 39t47 21q27 7 68 7t65 -7
q24 -6 38 -21q14 -16 14 -39q3 -23 -5 -59q-6 -32 -17 -58q-12 -25 -31 -39q-19 -15 -47 -22q-28 -6 -68 -6t-65 6q-25 7 -38 22t-15 39q-2 27 5 58zM406 1294z" />
    <glyph glyph-name="cdotaccent" unicode="&#x10b;" horiz-adv-x="843" 
d="M858 867q0 -23 -6 -52q-4 -28 -14 -55q-8 -23 -22 -44q-15 -17 -30 -17q-16 0 -29 12q-11 10 -35 27q-18 14 -51 28q-32 12 -80 12q-52 0 -93 -23q-40 -22 -72 -59q-32 -40 -50 -84q-19 -43 -33 -94q-12 -42 -19 -90q-5 -50 -5 -76q0 -80 35 -123q36 -42 112 -42
q56 0 96 15q40 13 68 32q12 7 50 31q20 14 37 14q9 0 15 -9q4 -12 4 -26q0 -21 -4 -42q-5 -33 -10 -52q-10 -34 -16 -48q-7 -23 -22 -36q-7 -8 -42 -30q-29 -15 -67 -29q-37 -13 -83 -21t-92 -8q-170 0 -256 86q-85 86 -85 256q0 57 11 134q12 72 38 146q24 71 68 143
q41 69 101 122q63 55 139 85q81 32 182 32q40 0 78 -6q32 -5 70 -16q36 -14 56 -25q21 -11 37 -25q12 -12 15 -21q4 -8 4 -22zM759 1232q-6 -34 -18 -58q-11 -24 -30 -39q-20 -15 -47 -21q-27 -7 -68 -7t-65 7q-24 6 -38 21q-13 15 -15 39q-2 26 4 58q6 33 17 59
q12 24 30 39q19 15 47 22q29 6 68 6q40 0 65 -6q27 -8 38 -22q14 -14 16 -39q3 -26 -4 -59zM227 960z" />
    <glyph glyph-name="Ccaron" unicode="&#x10c;" horiz-adv-x="1062" 
d="M1145 1169q0 -29 -9 -75q-10 -45 -24 -76q-16 -28 -33 -28q-12 0 -31 16q-12 12 -47 36q-23 15 -74 36q-48 16 -112 16q-73 0 -135 -30q-61 -28 -109 -78q-48 -48 -84 -111q-37 -64 -59 -131q-24 -68 -36 -136q-11 -69 -11 -125q0 -69 17 -123q19 -54 51 -88
q34 -36 81 -52q48 -18 108 -18q71 0 122 15t86 33q39 20 58 33q24 15 43 15q14 0 17 -10q5 -8 5 -26q0 -3 -2 -21q-1 -9 -5 -31q-5 -28 -7 -38q-5 -23 -9 -38q-5 -19 -12 -32q-6 -15 -17 -26q-11 -12 -43 -28q-32 -18 -78 -33q-53 -17 -104 -25q-54 -11 -124 -11
q-107 0 -196 29q-85 28 -149 88q-60 57 -94 148q-33 88 -33 208q0 95 19 194q20 101 57 196q39 95 98 182q60 88 140 150q78 65 182 103q105 38 228 38q70 0 132 -15q60 -13 110 -38q48 -26 64 -44q19 -18 19 -49zM964 1427q-14 -14 -28 -21q-15 -8 -34 -12q-18 -4 -42 -6
q-32 -2 -58 -2q-39 0 -53 1q-17 1 -36 5q-16 6 -25 14q-8 6 -20 21l-156 214q-9 13 -11 25q-2 9 9 14q13 6 32 7q28 2 55 2q15 0 37.5 -0.5t29.5 -0.5q31 -4 38 -6q13 -3 20 -9q6 -6 12 -15l91 -137l149 135q10 8 22 16q7 5 28 10q7 2 44 6q7 0 30 0.5t38 0.5q33 0 54 -3
q20 -2 26 -8q7 -4 4 -14q-5 -9 -19 -23zM159 1294z" />
    <glyph glyph-name="ccaron" unicode="&#x10d;" horiz-adv-x="843" 
d="M858 867q0 -23 -6 -52q-4 -28 -14 -55q-8 -23 -22 -44q-15 -17 -30 -17q-16 0 -29 12q-11 10 -35 27q-18 14 -51 28q-32 12 -80 12q-52 0 -93 -23q-40 -22 -72 -59q-32 -40 -50 -84q-19 -43 -33 -94q-12 -42 -19 -90q-5 -50 -5 -76q0 -80 35 -123q36 -42 112 -42
q56 0 96 15q40 13 68 32q12 7 50 31q20 14 37 14q9 0 15 -9q4 -12 4 -26q0 -21 -4 -42q-5 -33 -10 -52q-10 -34 -16 -48q-7 -23 -22 -36q-7 -8 -42 -30q-29 -15 -67 -29q-37 -13 -83 -21t-92 -8q-170 0 -256 86q-85 86 -85 256q0 57 11 134q12 72 38 146q24 71 68 143
q41 69 101 122q63 55 139 85q81 32 182 32q40 0 78 -6q32 -5 70 -16q36 -14 56 -25q21 -11 37 -25q12 -12 15 -21q4 -8 4 -22zM731 1115q-7 -8 -19 -15q-10 -7 -27 -10q-6 -2 -39 -6q-7 0 -25 -0.5t-29 -0.5q-23 0 -53 2q-22 2 -35 6q-15 5 -21 10q-7 6 -12 14l-113 223
q-10 19 -13 32q-3 12 5 20t29 11q22 3 61 3q36 0 47 -2q16 0 28 -5q11 -5 16 -11q5 -7 9 -16l75 -151l133 151q8 9 19 17q6 5 22 11q20 4 34 4q12 2 49 2q39 0 60 -3t27 -11q7 -8 -2 -20q-3 -8 -24 -32zM59 960z" />
    <glyph glyph-name="Dcaron" unicode="&#x10e;" horiz-adv-x="1291" 
d="M1270 826q0 -67 -8 -127q-5 -56 -24 -137q-18 -69 -48 -138q-28 -66 -73 -130q-43 -63 -105 -117q-61 -55 -139 -93q-76 -39 -178 -62q-97 -22 -236 -22h-329q-18 0 -30 4q-16 5 -24 14q-9 8 -14 25q-3 15 2 40l226 1128q8 45 35 63q26 20 64 20h312q155 0 257 -30
q102 -29 174 -89q67 -57 104 -147q34 -90 34 -202zM994 795q0 61 -17 117q-16 52 -55 93q-36 38 -98 61q-57 22 -159 22h-137l-177 -880h138q108 0 177 26q68 23 126 70q53 43 92 102q38 59 64 124q25 66 35 133q11 71 11 132zM912 1427q-14 -14 -28 -21q-15 -8 -34 -12
q-18 -4 -42 -6q-32 -2 -58 -2q-39 0 -53 1q-17 1 -36 5q-16 6 -25 14q-8 6 -20 21l-156 214q-9 13 -11 25q-2 9 9 14q13 6 32 7q28 2 55 2q15 0 37.5 -0.5t29.5 -0.5q31 -4 38 -6q13 -3 20 -9q6 -6 12 -15l91 -137l149 135q10 8 22 16q7 5 28 10q7 2 44 6q7 0 30 0.5t38 0.5
q33 0 54 -3q20 -2 26 -8q7 -4 4 -14q-5 -9 -19 -23zM107 1294z" />
    <glyph glyph-name="dcaron" unicode="&#x10f;" horiz-adv-x="1205" 
d="M869 33q-5 -21 -31 -30q-28 -9 -89 -9q-23 0 -51 2q-10 1 -31 6q-12 6 -15 12q-4 7 -2 19l27 143q-15 -33 -48 -68q-35 -37 -78 -64q-45 -30 -99 -48q-54 -19 -113 -19q-57 0 -99 15q-42 13 -74 39q-32 27 -50 59q-21 37 -32 72q-13 39 -17 78q-5 47 -5 80q0 65 12 140
q13 78 38 148q24 71 64 141q40 69 94 120q51 50 124 83q71 31 159 31q39 0 75 -9q32 -7 64 -22q28 -14 54 -35q25 -21 41 -42l95 471q2 10 9 18q9 9 23 14q18 5 40 8q24 3 61 3t61 -3q20 -3 36 -8q12 -5 17 -14q4 -6 2 -18zM744 658q-33 54 -78 83q-41 28 -98 28
q-38 0 -76 -19q-35 -22 -62 -52q-26 -31 -48 -76q-19 -43 -34 -92q-13 -53 -20 -96q-7 -45 -7 -91q0 -77 25 -115q26 -38 79 -38q43 0 90 26q44 26 86 72q38 40 71 104q31 64 44 130zM1308 1010q-5 -9 -14 -18q-6 -5 -21 -10q-18 -4 -32 -4q-13 -2 -48 -2q-18 0 -36 2
q-12 3 -19 8q-6 5 -6 14q0 10 4 22l116 305q4 12 12 21q10 8 24 14q13 6 37 9q22 3 56 3q38 0 57 -4q21 -3 30 -9t8 -15q0 -11 -7 -22zM908 960z" />
    <glyph glyph-name="Dcroat" unicode="&#x110;" horiz-adv-x="1309" 
d="M1289 826q0 -88 -15 -184q-17 -99 -52 -186q-37 -92 -96 -175q-60 -83 -148 -145q-89 -62 -208 -100q-120 -36 -291 -36h-333q-35 0 -54 20q-18 18 -9 63l97 485h-106q-14 0 -20 10q-7 8 -7 30q0 2 0.5 10t0.5 14q1 3 2.5 15t3.5 19q2 12 8 36q2 9 12 34q10 18 18 25
q9 10 21 10h107l89 440q8 44 34 63q24 20 63 20h314q153 0 257 -30q104 -32 173 -90q70 -61 104 -148q35 -88 35 -200zM1013 795q0 62 -17 118q-18 53 -56 93q-37 39 -98 60q-59 22 -159 22h-138l-63 -317h196q17 0 22 -11q5 -12 5 -30q0 -2 -0.5 -10t-0.5 -14q0 -1 -2 -14
t-4 -20q-1 -8 -8 -37q-7 -22 -14 -34q-5 -13 -16 -24q-10 -9 -21 -9h-197l-72 -360h137q104 0 177 26q70 25 126 70q53 42 94 103q38 59 62 124q25 64 36 133q11 71 11 131z" />
    <glyph glyph-name="dcroat" unicode="&#x111;" horiz-adv-x="1160" 
d="M1227 1257q15 0 23 -9q7 -7 7 -29q0 -2 -0.5 -8.5t-0.5 -12.5q-2 -9 -4 -29q-2 -11 -8 -33q-5 -18 -12 -31q-9 -16 -16 -23q-9 -9 -21 -9h-119l-207 -1040q-5 -21 -31 -30q-28 -9 -89 -9q-23 0 -51 2q-10 1 -31 6q-12 6 -15 12q-4 7 -2 19l27 143q-15 -33 -48 -68
q-35 -37 -78 -64q-45 -30 -99 -48q-54 -19 -113 -19q-57 0 -99 15q-42 13 -74 39q-32 27 -50 59q-21 37 -32 72q-13 39 -17 78q-5 47 -5 80q0 65 12 140q13 78 38 148q24 71 64 141q40 69 94 120q51 50 124 83q71 31 159 31q39 0 75 -9q32 -7 64 -22q28 -14 54 -35
q25 -21 41 -42l40 198h-199q-14 0 -20 9t-6 28q0 12 2 20q0 8 4 30t8 33q3 17 11 31q9 16 17 24q9 9 21 9h198l19 89q2 10 9 18q9 9 23 14q18 5 40 8q24 3 61 3t61 -3q20 -3 36 -8q12 -5 17 -14q4 -6 2 -18l-18 -89h114zM744 658q-33 54 -78 83q-41 28 -98 28q-38 0 -76 -19
q-35 -22 -62 -52q-26 -31 -48 -76q-19 -43 -34 -92q-13 -53 -20 -96q-7 -45 -7 -91q0 -77 25 -115q26 -38 79 -38q43 0 90 26q44 26 86 72q38 40 71 104q31 64 44 130z" />
    <glyph glyph-name="Emacron" unicode="&#x112;" horiz-adv-x="999" 
d="M1056 1256q0 -11 -2 -21q0 -9 -4 -33q-2 -13 -8 -39q-1 -3 -12 -37q-12 -20 -18 -27q-13 -11 -23 -11h-462l-64 -316h392q14 0 20 -10t6 -28q0 -2 -0.5 -9t-0.5 -13q-1 -5 -2.5 -16.5t-2.5 -15.5q-2 -10 -8 -38q-4 -19 -13 -35q-5 -14 -17 -26q-10 -10 -22 -10h-391
l-74 -365h468q11 0 18 -10q6 -12 6 -31q0 -12 -1 -22q-2 -22 -5 -33q-2 -10 -8 -38q-1 -6 -3 -12t-5 -13t-4 -11q-12 -20 -18 -26q-10 -10 -23 -10h-650q-11 0 -29 4q-15 7 -22 16q-8 10 -11 26t1 37l226 1128q9 45 36 63q26 20 60 20h644q26 0 26 -38zM1064 1578
q0 -13 -2 -22q0 -8 -4 -30l-9 -33q-5 -19 -13 -31q-6 -14 -16 -22q-10 -9 -22 -9h-590q-18 0 -25 9q-7 8 -7 30q0 11 2 20q0 8 4 30q1 15 8 33q4 15 13 31q8 15 19 23q9 9 24 9h590q15 0 22 -10q6 -10 6 -28zM69 1294z" />
    <glyph glyph-name="emacron" unicode="&#x113;" horiz-adv-x="1006" 
d="M969 730q0 -72 -33 -130q-31 -57 -100 -98q-68 -41 -174 -64q-104 -22 -252 -22h-92q-5 -23 -6 -46q-2 -28 -2 -41q0 -81 42 -122q43 -41 135 -41q68 0 119 10q47 8 92 20q46 14 65 22q25 9 38 9t17 -7q5 -8 5 -22q0 -16 -3 -39q-2 -15 -8 -43q-4 -15 -14 -41
q-8 -17 -20 -29t-44 -24q-27 -10 -77 -22q-41 -9 -101 -16q-52 -7 -114 -7q-94 0 -168 20q-69 19 -119 61q-48 40 -72 104t-24 151q0 71 13 143q12 79 40 152q29 76 72 142q42 66 106 120q62 50 145 82q81 31 187 31q92 0 156 -21q67 -23 108 -58q42 -35 62 -80
q21 -46 21 -94zM722 711q0 41 -32 67q-31 26 -91 26q-50 0 -89 -18q-40 -18 -70 -48q-29 -30 -52 -72q-19 -39 -34 -89h84q84 0 134 11q51 9 87 28q33 18 48 42q15 26 15 53zM982 1284q0 -2 -0.5 -8.5t-0.5 -11.5q-1 -5 -2.5 -14.5t-2.5 -13.5q-1 -6 -3.5 -17t-3.5 -16
q-8 -22 -12 -31q-12 -18 -18 -23q-9 -9 -22 -9h-511q-18 0 -25 9q-8 10 -8 30q0 11 3 33q3 28 11 49q5 20 20 43q15 19 36 19h511q16 0 22 -11q6 -9 6 -28zM125 960z" />
    <glyph glyph-name="Ebreve" unicode="&#x114;" horiz-adv-x="999" 
d="M1056 1256q0 -11 -2 -21q0 -9 -4 -33q-2 -13 -8 -39q-1 -3 -12 -37q-12 -20 -18 -27q-13 -11 -23 -11h-462l-64 -316h392q14 0 20 -10t6 -28q0 -2 -0.5 -9t-0.5 -13q-1 -5 -2.5 -16.5t-2.5 -15.5q-2 -10 -8 -38q-4 -19 -13 -35q-5 -14 -17 -26q-10 -10 -22 -10h-391
l-74 -365h468q11 0 18 -10q6 -12 6 -31q0 -12 -1 -22q-2 -22 -5 -33q-2 -10 -8 -38q-1 -6 -3 -12t-5 -13t-4 -11q-12 -20 -18 -26q-10 -10 -23 -10h-650q-11 0 -29 4q-15 7 -22 16q-8 10 -11 26t1 37l226 1128q9 45 36 63q26 20 60 20h644q26 0 26 -38zM1048 1670
q0 -8 -5 -36q-4 -23 -19 -56q-11 -28 -38 -66q-22 -32 -62 -62q-38 -28 -93 -46q-54 -18 -128 -18q-79 0 -127 16q-52 17 -82 44q-30 26 -44 63q-12 36 -12 75q0 16 1 26q2 20 3 29q2 15 6 25q4 11 9 16q7 8 27 13q17 4 52 4q19 0 41 -2q16 -1 25 -6t12 -10q4 -5 4 -13
q0 -12 -2 -18q0 -4 -0.5 -11.5t-0.5 -10.5q0 -17 5 -34q6 -14 18 -25t32 -15q18 -6 47 -6q27 0 53 6q23 7 44 20q22 17 35 35q15 21 24 52q3 9 9 17q5 7 16 12q16 6 28 7q22 2 42 2q19 0 41 -2q14 -1 25 -5q8 -3 11 -8q3 -6 3 -12zM105 1294z" />
    <glyph glyph-name="ebreve" unicode="&#x115;" horiz-adv-x="1006" 
d="M969 730q0 -72 -33 -130q-31 -57 -100 -98q-68 -41 -174 -64q-104 -22 -252 -22h-92q-5 -23 -6 -46q-2 -28 -2 -41q0 -81 42 -122q43 -41 135 -41q68 0 119 10q47 8 92 20q46 14 65 22q25 9 38 9t17 -7q5 -8 5 -22q0 -16 -3 -39q-2 -15 -8 -43q-4 -15 -14 -41
q-8 -17 -20 -29t-44 -24q-27 -10 -77 -22q-41 -9 -101 -16q-52 -7 -114 -7q-94 0 -168 20q-69 19 -119 61q-48 40 -72 104t-24 151q0 71 13 143q12 79 40 152q29 76 72 142q42 66 106 120q62 50 145 82q81 31 187 31q92 0 156 -21q67 -23 108 -58q42 -35 62 -80
q21 -46 21 -94zM722 711q0 41 -32 67q-31 26 -91 26q-50 0 -89 -18q-40 -18 -70 -48q-29 -30 -52 -72q-19 -39 -34 -89h84q84 0 134 11q51 9 87 28q33 18 48 42q15 26 15 53zM982 1373q0 -15 -5 -35q-3 -23 -16 -58q-15 -36 -36 -66q-22 -33 -61 -64q-41 -29 -91 -46
q-54 -18 -128 -18q-77 0 -126 16q-52 18 -78 44q-30 30 -40 64q-12 37 -12 76q0 16 1 26l3 30q2 14 6 26q3 11 8 16q9 8 28 12q16 4 51 4q19 0 39 -2q16 -1 25 -6t12 -10q3 -4 3 -12q0 -13 -2 -20q0 -4 -0.5 -12t-0.5 -11q0 -17 5 -34q4 -14 16 -26q11 -11 30 -17
q18 -6 46 -6q30 0 52 7t44 21q21 18 33 36q16 26 22 53q5 12 9 17q6 9 16 12q8 5 26 8q22 2 41 2q21 0 41 -2q15 -1 24 -5q9 -3 12 -9q3 -4 3 -11zM115 960z" />
    <glyph glyph-name="Edotaccent" unicode="&#x116;" horiz-adv-x="999" 
d="M1056 1256q0 -11 -2 -21q0 -9 -4 -33q-2 -13 -8 -39q-1 -3 -12 -37q-12 -20 -18 -27q-13 -11 -23 -11h-462l-64 -316h392q14 0 20 -10t6 -28q0 -2 -0.5 -9t-0.5 -13q-1 -5 -2.5 -16.5t-2.5 -15.5q-2 -10 -8 -38q-4 -19 -13 -35q-5 -14 -17 -26q-10 -10 -22 -10h-391
l-74 -365h468q11 0 18 -10q6 -12 6 -31q0 -12 -1 -22q-2 -22 -5 -33q-2 -10 -8 -38q-1 -6 -3 -12t-5 -13t-4 -11q-12 -20 -18 -26q-10 -10 -23 -10h-650q-11 0 -29 4q-15 7 -22 16q-8 10 -11 26t1 37l226 1128q9 45 36 63q26 20 60 20h644q26 0 26 -38zM594 1531q8 35 18 59
q12 25 31 39q20 15 47 21q27 7 68 7t65 -7q24 -6 38 -21q12 -13 15 -39q0 -31 -6 -59q-6 -34 -18 -58q-10 -24 -30 -39q-19 -15 -47 -22q-28 -6 -68 -6q-39 0 -65 6q-25 7 -38 22q-14 15 -15 39q-2 27 5 58zM279 1294z" />
    <glyph glyph-name="edotaccent" unicode="&#x117;" horiz-adv-x="1006" 
d="M969 730q0 -72 -33 -130q-31 -57 -100 -98q-68 -41 -174 -64q-104 -22 -252 -22h-92q-5 -23 -6 -46q-2 -28 -2 -41q0 -81 42 -122q43 -41 135 -41q68 0 119 10q47 8 92 20q46 14 65 22q25 9 38 9t17 -7q5 -8 5 -22q0 -16 -3 -39q-2 -15 -8 -43q-4 -15 -14 -41
q-8 -17 -20 -29t-44 -24q-27 -10 -77 -22q-41 -9 -101 -16q-52 -7 -114 -7q-94 0 -168 20q-69 19 -119 61q-48 40 -72 104t-24 151q0 71 13 143q12 79 40 152q29 76 72 142q42 66 106 120q62 50 145 82q81 31 187 31q92 0 156 -21q67 -23 108 -58q42 -35 62 -80
q21 -46 21 -94zM722 711q0 41 -32 67q-31 26 -91 26q-50 0 -89 -18q-40 -18 -70 -48q-29 -30 -52 -72q-19 -39 -34 -89h84q84 0 134 11q51 9 87 28q33 18 48 42q15 26 15 53zM805 1232q-6 -34 -18 -58q-11 -24 -30 -39q-20 -15 -47 -21q-27 -7 -68 -7t-65 7q-24 6 -38 21
q-13 15 -15 39q-2 26 4 58q6 33 17 59q12 24 30 39q19 15 47 22q29 6 68 6q40 0 65 -6q27 -8 38 -22q14 -14 16 -39q3 -26 -4 -59zM273 960z" />
    <glyph glyph-name="Eogonek" unicode="&#x118;" horiz-adv-x="999" 
d="M798 -218q0 -11 -3 -26q-1 -6 -3.5 -17t-3.5 -16q-2 -6 -5.5 -15.5t-4.5 -13.5q-5 -13 -11 -19q-6 -8 -28 -16q-15 -6 -46 -13q-31 -5 -55 -8q-28 -3 -54 -3q-52 0 -94 9q-41 11 -68 28q-28 20 -41 46q-14 26 -14 59q0 19 5 41q4 20 17 42q13 21 31 42t44 44l65 54h-403
q-10 0 -30 4q-16 8 -22 16q-8 10 -11 26t1 37l226 1128q9 45 36 63q24 20 59 20h645q13 0 20 -10q6 -12 6 -30q0 -11 -2 -21q0 -9 -4 -33q-6 -26 -9 -38q-5 -22 -13 -36q-5 -14 -17 -28q-12 -10 -23 -10h-461l-64 -316h392q14 0 20 -10t6 -28q0 -2 -0.5 -9t-0.5 -13
q-1 -5 -2.5 -16.5t-2.5 -15.5q0 -3 -8 -38q-5 -21 -13 -35q-5 -14 -17 -26q-10 -10 -23 -10h-390l-74 -365h467q12 0 19 -10q6 -12 6 -32q0 -2 -2 -32q-1 -17 -8 -46q-5 -26 -16 -47q-8 -21 -25 -36l-115 -94q-25 -21 -36 -39q-10 -17 -10 -31q0 -13 10 -25q12 -9 42 -9h87
q16 0 21 -5q8 -3 8 -18z" />
    <glyph glyph-name="eogonek" unicode="&#x119;" horiz-adv-x="1006" 
d="M722 711q0 41 -32 67q-31 26 -91 26q-50 0 -89 -18q-40 -18 -70 -48q-29 -30 -52 -72q-19 -39 -34 -89h84q81 0 138 11q56 12 87 30q34 21 45 43q14 22 14 50zM478 -17q-7 -1 -23 -3q-8 -1 -28 -1q-86 0 -157 19q-71 22 -116 61q-47 41 -71 104t-24 150q0 71 13 143
q12 79 40 152q29 76 72 142q42 66 106 120q62 50 145 82q81 31 187 31q92 0 156 -21q67 -23 108 -58q42 -35 62 -80q21 -46 21 -94q0 -70 -31 -126q-31 -57 -98 -100q-71 -43 -174 -65q-109 -23 -256 -23h-92q-5 -24 -6 -46q-2 -30 -2 -41q0 -81 42 -122q43 -41 135 -41
q68 0 118 10q47 8 93 20q45 13 66 22q26 9 37 9q12 0 17 -7q5 -10 5 -22q0 -19 -3 -46q-6 -31 -14 -52q-10 -31 -26 -54q-13 -23 -42 -49l-94 -79q-36 -29 -46 -46q-14 -17 -14 -38q0 -13 12 -22q13 -8 40 -8h87q16 0 22 -6t6 -19q0 -8 -3 -23q-1 -13 -6 -32q-1 -3 -3 -9.5
t-3.5 -11.5t-2.5 -9q-5 -14 -12 -20q-8 -8 -25 -14q-15 -6 -42 -13q-22 -6 -51 -9t-57 -3q-104 0 -162 35q-55 37 -55 101q0 25 7 47q7 20 20 44q14 21 34 44q24 24 48 44z" />
    <glyph glyph-name="Ecaron" unicode="&#x11a;" horiz-adv-x="999" 
d="M1056 1256q0 -11 -2 -21q0 -9 -4 -33q-2 -13 -8 -39q-1 -3 -12 -37q-12 -20 -18 -27q-13 -11 -23 -11h-462l-64 -316h392q14 0 20 -10t6 -28q0 -2 -0.5 -9t-0.5 -13q-1 -5 -2.5 -16.5t-2.5 -15.5q-2 -10 -8 -38q-4 -19 -13 -35q-5 -14 -17 -26q-10 -10 -22 -10h-391
l-74 -365h468q11 0 18 -10q6 -12 6 -31q0 -12 -1 -22q-2 -22 -5 -33q-2 -10 -8 -38q-1 -6 -3 -12t-5 -13t-4 -11q-12 -20 -18 -26q-10 -10 -23 -10h-650q-11 0 -29 4q-15 7 -22 16q-8 10 -11 26t1 37l226 1128q9 45 36 63q26 20 60 20h644q26 0 26 -38zM850 1427
q-14 -14 -28 -21q-15 -8 -34 -12q-18 -4 -42 -6q-32 -2 -58 -2q-39 0 -53 1q-17 1 -36 5q-16 6 -25 14q-8 6 -20 21l-156 214q-9 13 -11 25q-2 9 9 14q13 6 32 7q28 2 55 2q15 0 37.5 -0.5t29.5 -0.5q31 -4 38 -6q13 -3 20 -9q6 -6 12 -15l91 -137l149 135q10 8 22 16
q7 5 28 10q7 2 44 6q7 0 30 0.5t38 0.5q33 0 54 -3q20 -2 26 -8q7 -4 4 -14q-5 -9 -19 -23zM45 1294z" />
    <glyph glyph-name="ecaron" unicode="&#x11b;" horiz-adv-x="1006" 
d="M969 730q0 -72 -33 -130q-31 -57 -100 -98q-68 -41 -174 -64q-104 -22 -252 -22h-92q-5 -23 -6 -46q-2 -28 -2 -41q0 -81 42 -122q43 -41 135 -41q68 0 119 10q47 8 92 20q46 14 65 22q25 9 38 9t17 -7q5 -8 5 -22q0 -16 -3 -39q-2 -15 -8 -43q-4 -15 -14 -41
q-8 -17 -20 -29t-44 -24q-27 -10 -77 -22q-41 -9 -101 -16q-52 -7 -114 -7q-94 0 -168 20q-69 19 -119 61q-48 40 -72 104t-24 151q0 71 13 143q12 79 40 152q29 76 72 142q42 66 106 120q62 50 145 82q81 31 187 31q92 0 156 -21q67 -23 108 -58q42 -35 62 -80
q21 -46 21 -94zM722 711q0 41 -32 67q-31 26 -91 26q-50 0 -89 -18q-40 -18 -70 -48q-29 -30 -52 -72q-19 -39 -34 -89h84q84 0 134 11q51 9 87 28q33 18 48 42q15 26 15 53zM768 1115q-7 -8 -19 -15q-10 -7 -27 -10q-6 -2 -39 -6q-7 0 -25 -0.5t-29 -0.5q-23 0 -53 2
q-22 2 -35 6q-15 5 -21 10q-7 6 -12 14l-113 223q-10 19 -13 32q-3 12 5 20t29 11q23 3 61 3q36 0 47 -2q16 0 28 -5q11 -5 16 -11q5 -7 9 -16l75 -151l133 151q8 9 19 17q6 5 22 11q20 4 34 4q12 2 49 2q39 0 60 -3t27 -11q7 -8 -2 -20q-3 -8 -24 -32zM96 960z" />
    <glyph glyph-name="Gcircumflex" unicode="&#x11c;" horiz-adv-x="1305" 
d="M1312 1156q0 -15 -2 -26q0 -10 -4 -34q-2 -7 -5 -19t-4 -19q-5 -18 -12 -33q-7 -13 -15 -25q-9 -9 -18 -9q-14 0 -42 17q-33 20 -70 38q-46 22 -105 38q-63 17 -147 17q-87 0 -156 -25q-70 -24 -130 -66q-62 -47 -102 -100q-44 -58 -76 -124q-30 -66 -45 -137t-15 -140
q0 -78 22 -135q22 -58 64 -97q41 -39 100 -59q60 -20 132 -20q51 0 97 10q49 11 89 30l60 299h-244q-12 0 -19 9q-7 10 -7 31q0 4 2 26q2 17 6 33q2 12 8 36q3 11 12 32q12 18 17 23q9 9 20 9h437q34 0 47 -22t6 -62l-104 -518q-5 -22 -10 -32q-6 -15 -16 -25
q-9 -10 -51 -29q-49 -18 -98 -32q-56 -16 -128 -27q-74 -11 -145 -11q-137 0 -245 32q-106 31 -178 96q-70 63 -108 155q-37 90 -37 212q0 106 23 212q23 100 70 197q48 94 116 174q68 78 158 137q90 58 202 91q113 32 243 32q73 0 138 -12q67 -11 117 -28q50 -15 86 -35
t46 -29q12 -12 16 -24t4 -32zM1222 1434q8 -13 10 -24q2 -9 -9 -14q-12 -7 -31 -8q-28 -2 -55 -2q-50 0 -67 2q-20 0 -38 4q-15 5 -22 10q-6 6 -12 15l-90 137l-149 -134q-3 -3 -21 -18q-10 -5 -28 -10q-22 -4 -44 -4q-17 -2 -67 -2q-28 0 -54 2q-21 3 -27 8q-7 5 -4 15
q8 13 20 23l238 214q14 14 28 21q10 6 32 13q18 3 42 6q7 0 26.5 0.5t31.5 0.5q39 0 54 -1q25 -2 36 -5q16 -5 24 -13q8 -5 21 -22zM223 1294z" />
    <glyph glyph-name="gcircumflex" unicode="&#x11d;" horiz-adv-x="1081" 
d="M860 -2q-18 -91 -56 -158q-35 -65 -100 -114q-62 -45 -150 -68q-92 -23 -207 -23q-78 0 -153 13q-72 16 -112 35q-16 7 -22 18t-6 28q0 11 1 20q2 21 5 31q1 6 8 36q3 11 12 32q10 18 17 24q9 10 21 10q11 0 30 -8q12 -6 46 -19q25 -9 72 -19q46 -8 106 -8q47 0 92 8
q39 8 70 26t48 46q20 28 27 69q16 77 26 109q13 44 24 72q-18 -33 -51 -66q-39 -36 -77 -58q-45 -27 -93 -42t-99 -15q-77 0 -129 26q-52 25 -86 72q-33 47 -48 108q-14 64 -14 134q0 65 12 140q13 81 38 149q23 72 64 142q41 72 94 120q50 50 124 84q71 31 159 31
q84 0 147 -35q63 -32 112 -100l16 79q5 21 32 30t88 9q24 0 50 -2q23 -4 32 -8q10 -3 15 -12q4 -5 2 -17zM744 660q-34 55 -78 82q-41 28 -98 28q-42 0 -76 -20q-34 -19 -62 -54q-28 -32 -48 -77q-23 -47 -34 -92q-13 -43 -20 -96q-7 -45 -7 -91q0 -33 6 -62q6 -27 19 -48
q13 -19 32 -30q20 -10 47 -10q43 0 90 26q44 26 86 72q39 45 71 107q31 64 44 130zM960 1149q10 -18 13 -31q3 -14 -6 -20q-6 -7 -29 -12q-21 -3 -60 -3q-12 0 -28.5 0.5t-21.5 0.5q-23 4 -28 6q-9 4 -15 10l-4 8l-5 10l-74 150l-134 -150q-9 -10 -18 -18q-8 -7 -22 -10
q-5 -2 -33 -6q-6 0 -22.5 -0.5t-26.5 -0.5q-40 0 -61 3q-22 5 -26 12q-7 6 1 20t25 31l202 223q6 9 19 16q10 4 27 9q18 5 38 5q16 2 54 2q25 0 53 -2q22 -2 35 -6q16 -5 22 -10q9 -7 13 -14zM125 960z" />
    <glyph glyph-name="Gbreve" unicode="&#x11e;" horiz-adv-x="1305" 
d="M1312 1156q0 -15 -2 -26q0 -10 -4 -34q-2 -7 -5 -19t-4 -19q-5 -18 -12 -33q-7 -13 -15 -25q-9 -9 -18 -9q-14 0 -42 17q-33 20 -70 38q-46 22 -105 38q-63 17 -147 17q-87 0 -156 -25q-70 -24 -130 -66q-62 -47 -102 -100q-44 -58 -76 -124q-30 -66 -45 -137t-15 -140
q0 -78 22 -135q22 -58 64 -97q41 -39 100 -59q60 -20 132 -20q51 0 97 10q49 11 89 30l60 299h-244q-12 0 -19 9q-7 10 -7 31q0 4 2 26q2 17 6 33q2 12 8 36q3 11 12 32q12 18 17 23q9 9 20 9h437q34 0 47 -22t6 -62l-104 -518q-5 -22 -10 -32q-6 -15 -16 -25
q-9 -10 -51 -29q-49 -18 -98 -32q-56 -16 -128 -27q-74 -11 -145 -11q-137 0 -245 32q-106 31 -178 96q-70 63 -108 155q-37 90 -37 212q0 106 23 212q23 100 70 197q48 94 116 174q68 78 158 137q90 58 202 91q113 32 243 32q73 0 138 -12q67 -11 117 -28q50 -15 86 -35
t46 -29q12 -12 16 -24t4 -32zM1226 1670q0 -8 -5 -36q-4 -23 -19 -56q-11 -28 -38 -66q-22 -32 -62 -62q-38 -28 -93 -46q-54 -18 -128 -18q-79 0 -127 16q-52 17 -82 44q-30 26 -44 63q-12 36 -12 75q0 16 1 26q2 20 3 29q2 15 6 25q4 11 9 16q7 8 27 13q17 4 52 4
q19 0 41 -2q16 -1 25 -6t12 -10q4 -5 4 -13q0 -12 -2 -18q0 -4 -0.5 -11.5t-0.5 -10.5q0 -17 5 -34q6 -14 18 -25t32 -15q18 -6 47 -6q27 0 53 6q23 7 44 20q22 17 35 35q15 21 24 52q3 9 9 17q5 7 16 12q16 6 28 7q22 2 42 2q19 0 41 -2q14 -1 25 -5q8 -3 11 -8q3 -6 3 -12
zM283 1294z" />
    <glyph glyph-name="gbreve" unicode="&#x11f;" horiz-adv-x="1081" 
d="M860 -2q-18 -91 -56 -158q-35 -65 -100 -114q-62 -45 -150 -68q-92 -23 -207 -23q-78 0 -153 13q-72 16 -112 35q-16 7 -22 18t-6 28q0 11 1 20q2 21 5 31q1 6 8 36q3 11 12 32q10 18 17 24q9 10 21 10q11 0 30 -8q12 -6 46 -19q25 -9 72 -19q46 -8 106 -8q47 0 92 8
q39 8 70 26t48 46q20 28 27 69q16 77 26 109q13 44 24 72q-18 -33 -51 -66q-39 -36 -77 -58q-45 -27 -93 -42t-99 -15q-77 0 -129 26q-52 25 -86 72q-33 47 -48 108q-14 64 -14 134q0 65 12 140q13 81 38 149q23 72 64 142q41 72 94 120q50 50 124 84q71 31 159 31
q84 0 147 -35q63 -32 112 -100l16 79q5 21 32 30t88 9q24 0 50 -2q23 -4 32 -8q10 -3 15 -12q4 -5 2 -17zM744 660q-34 55 -78 82q-41 28 -98 28q-42 0 -76 -20q-34 -19 -62 -54q-28 -32 -48 -77q-23 -47 -34 -92q-13 -43 -20 -96q-7 -45 -7 -91q0 -33 6 -62q6 -27 19 -48
q13 -19 32 -30q20 -10 47 -10q43 0 90 26q44 26 86 72q39 45 71 107q31 64 44 130zM1009 1373q0 -15 -5 -35q-3 -23 -16 -58q-15 -36 -36 -66q-22 -33 -61 -64q-41 -29 -91 -46q-54 -18 -128 -18q-77 0 -126 16q-52 18 -78 44q-30 30 -40 64q-12 37 -12 76q0 16 1 26l3 30
q2 14 6 26q3 11 8 16q9 8 28 12q16 4 51 4q19 0 39 -2q16 -1 25 -6t12 -10q3 -4 3 -12q0 -13 -2 -20q0 -4 -0.5 -12t-0.5 -11q0 -17 5 -34q4 -14 16 -26q11 -11 30 -17q18 -6 46 -6q30 0 52 7t44 21q21 18 33 36q16 26 22 53q5 12 9 17q6 9 16 12q8 5 26 8q22 2 41 2
q21 0 41 -2q15 -1 24 -5q9 -3 12 -9q3 -4 3 -11zM142 960z" />
    <glyph glyph-name="Gdotaccent" unicode="&#x120;" horiz-adv-x="1305" 
d="M1312 1156q0 -15 -2 -26q0 -10 -4 -34q-2 -7 -5 -19t-4 -19q-5 -18 -12 -33q-7 -13 -15 -25q-9 -9 -18 -9q-14 0 -42 17q-33 20 -70 38q-46 22 -105 38q-63 17 -147 17q-87 0 -156 -25q-70 -24 -130 -66q-62 -47 -102 -100q-44 -58 -76 -124q-30 -66 -45 -137t-15 -140
q0 -78 22 -135q22 -58 64 -97q41 -39 100 -59q60 -20 132 -20q51 0 97 10q49 11 89 30l60 299h-244q-12 0 -19 9q-7 10 -7 31q0 4 2 26q2 17 6 33q2 12 8 36q3 11 12 32q12 18 17 23q9 9 20 9h437q34 0 47 -22t6 -62l-104 -518q-5 -22 -10 -32q-6 -15 -16 -25
q-9 -10 -51 -29q-49 -18 -98 -32q-56 -16 -128 -27q-74 -11 -145 -11q-137 0 -245 32q-106 31 -178 96q-70 63 -108 155q-37 90 -37 212q0 106 23 212q23 100 70 197q48 94 116 174q68 78 158 137q90 58 202 91q113 32 243 32q73 0 138 -12q67 -11 117 -28q50 -15 86 -35
t46 -29q12 -12 16 -24t4 -32zM782 1531q8 35 18 59q12 25 31 39q20 15 47 21q27 7 68 7t65 -7q24 -6 38 -21q12 -13 15 -39q0 -31 -6 -59q-6 -34 -18 -58q-10 -24 -30 -39q-19 -15 -47 -22q-29 -6 -68 -6t-65 6q-25 7 -38 22q-14 15 -15 39q-2 27 5 58zM467 1294z" />
    <glyph glyph-name="gdotaccent" unicode="&#x121;" horiz-adv-x="1081" 
d="M860 -2q-18 -91 -56 -158q-35 -65 -100 -114q-62 -45 -150 -68q-92 -23 -207 -23q-78 0 -153 13q-72 16 -112 35q-16 7 -22 18t-6 28q0 11 1 20q2 21 5 31q1 6 8 36q3 11 12 32q10 18 17 24q9 10 21 10q11 0 30 -8q12 -6 46 -19q25 -9 72 -19q46 -8 106 -8q47 0 92 8
q39 8 70 26t48 46q20 28 27 69q16 77 26 109q13 44 24 72q-18 -33 -51 -66q-39 -36 -77 -58q-45 -27 -93 -42t-99 -15q-77 0 -129 26q-52 25 -86 72q-33 47 -48 108q-14 64 -14 134q0 65 12 140q13 81 38 149q23 72 64 142q41 72 94 120q50 50 124 84q71 31 159 31
q84 0 147 -35q63 -32 112 -100l16 79q5 21 32 30t88 9q24 0 50 -2q23 -4 32 -8q10 -3 15 -12q4 -5 2 -17zM744 660q-34 55 -78 82q-41 28 -98 28q-42 0 -76 -20q-34 -19 -62 -54q-28 -32 -48 -77q-23 -47 -34 -92q-13 -43 -20 -96q-7 -45 -7 -91q0 -33 6 -62q6 -27 19 -48
q13 -19 32 -30q20 -10 47 -10q43 0 90 26q44 26 86 72q39 45 71 107q31 64 44 130zM814 1232q-6 -34 -18 -58q-10 -24 -30 -39t-47 -21q-27 -7 -68 -7t-65 7q-24 6 -38 21t-15 39q-2 26 4 58q6 33 17 59q12 24 30 39q19 15 47 22q28 6 68 6q39 0 65 -6q27 -8 38 -22
q14 -14 16 -39q3 -26 -4 -59zM282 960z" />
    <glyph glyph-name="Gcommaaccent" unicode="&#x122;" horiz-adv-x="1305" 
d="M1312 1156q0 -15 -2 -26q0 -10 -4 -34q-2 -7 -5 -19t-4 -19q-5 -18 -12 -33q-7 -13 -15 -25q-9 -9 -18 -9q-14 0 -42 17q-33 20 -70 38q-46 22 -105 38q-63 17 -147 17q-87 0 -156 -25q-70 -24 -130 -66q-62 -47 -102 -100q-44 -58 -76 -124q-30 -66 -45 -137t-15 -140
q0 -78 22 -135q22 -58 64 -97q41 -39 100 -59q60 -20 132 -20q51 0 97 10q49 11 89 30l60 299h-244q-12 0 -19 9q-7 10 -7 31q0 4 2 26q2 17 6 33q2 12 8 36q3 11 12 32q12 18 17 23q9 9 20 9h437q34 0 47 -22t6 -62l-104 -518q-5 -22 -10 -32q-6 -15 -16 -25
q-9 -10 -51 -29q-49 -18 -98 -32q-56 -16 -128 -27q-74 -11 -145 -11q-137 0 -245 32q-106 31 -178 96q-70 63 -108 155q-37 90 -37 212q0 106 23 212q23 100 70 197q48 94 116 174q68 78 158 137q90 58 202 91q113 32 243 32q73 0 138 -12q67 -11 117 -28q50 -15 86 -35
t46 -29q12 -12 16 -24t4 -32zM544 -330q-5 -7 -14 -16q-7 -6 -21 -12q-14 -3 -34 -6q-6 0 -24 -0.5t-29 -0.5q-31 0 -49 3q-19 2 -25 8q-8 7 -8 17q2 13 8 24l88 190q5 11 14 19q10 10 25 14q21 6 43 7q34 2 66 2q43 0 62 -4q22 -4 32 -11q8 -9 7 -19q-2 -12 -12 -25z" />
    <glyph glyph-name="gcommaaccent" unicode="&#x123;" horiz-adv-x="1081" 
d="M860 -2q-18 -91 -56 -158q-35 -65 -100 -114q-62 -45 -150 -68q-92 -23 -207 -23q-78 0 -153 13q-72 16 -112 35q-16 7 -22 18t-6 28q0 11 1 20q2 21 5 31q1 6 8 36q3 11 12 32q10 18 17 24q9 10 21 10q11 0 30 -8q12 -6 46 -19q25 -9 72 -19q46 -8 106 -8q47 0 92 8
q39 8 70 26t48 46q20 28 27 69q16 77 26 109q13 44 24 72q-18 -33 -51 -66q-39 -36 -77 -58q-45 -27 -93 -42t-99 -15q-77 0 -129 26q-52 25 -86 72q-33 47 -48 108q-14 64 -14 134q0 65 12 140q13 81 38 149q23 72 64 142q41 72 94 120q50 50 124 84q71 31 159 31
q84 0 147 -35q63 -32 112 -100l16 79q5 21 32 30t88 9q24 0 50 -2q23 -4 32 -8q10 -3 15 -12q4 -5 2 -17zM744 660q-34 55 -78 82q-41 28 -98 28q-42 0 -76 -20q-34 -19 -62 -54q-28 -32 -48 -77q-23 -47 -34 -92q-13 -43 -20 -96q-7 -45 -7 -91q0 -33 6 -62q6 -27 19 -48
q13 -19 32 -30q20 -10 47 -10q43 0 90 26q44 26 86 72q39 45 71 107q31 64 44 130zM795 1108q-5 -12 -13 -18q-8 -8 -24 -13q-21 -6 -40 -7q-32 -2 -61 -2q-46 0 -67 4q-23 3 -36 10q-12 9 -12 18q1 10 9 22l156 237q6 9 15 15q4 4 22 12q27 5 36 6q28 2 52 2q31 0 46 -4
q17 -3 26 -9q7 -7 6 -16q0 -9 -5 -24zM295 960z" />
    <glyph glyph-name="Hcircumflex" unicode="&#x124;" horiz-adv-x="1292" 
d="M1064 35q-1 -9 -10 -18t-24 -13q-20 -5 -42 -8q-34 -2 -64 -2q-29 0 -63 2q-20 2 -39 8q-13 5 -18 13t-2 18l104 524h-484l-104 -524q-1 -9 -10 -18q-8 -8 -24 -13q-22 -6 -42 -8q-36 -2 -64 -2q-30 0 -64 2q-22 3 -38 8q-14 5 -19 13t-2 18l245 1224q2 11 9 18
q9 9 24 13q20 5 42 8q34 2 64 2q29 0 63 -2q23 -3 39 -8q12 -4 19 -13q3 -8 2 -18l-95 -476h485l94 476q1 9 10 18t24 13q20 5 42 8q34 2 64 2q29 0 63 -2q23 -3 39 -8q15 -5 18 -13q5 -6 3 -18zM1165 1434q8 -13 10 -24q2 -9 -9 -14q-12 -7 -31 -8q-28 -2 -55 -2
q-50 0 -66 2q-20 0 -40 4q-15 5 -20 10q-6 5 -13 15l-90 137l-149 -134q-11 -11 -22 -18q-7 -4 -27 -10q-22 -4 -43 -4q-18 -2 -68 -2q-28 0 -54 2q-17 3 -28 8q-7 7 -2 15q3 8 19 23l238 214q13 14 27 21q12 6 33 13q18 3 42 6q7 0 26.5 0.5t31.5 0.5q39 0 53 -1
q26 -2 36 -5q14 -4 26 -13q8 -7 20 -22zM166 1294z" />
    <glyph glyph-name="hcircumflex" unicode="&#x125;" horiz-adv-x="1080" 
d="M873 34q-1 -6 -9 -18q-14 -9 -24 -12q-18 -5 -40 -8q-32 -2 -62 -2q-28 0 -60 2q-20 3 -36 8q-9 3 -18 12q-3 10 -2 18l107 535q3 15 7 47q3 27 3 48q0 25 -5 40q-3 19 -14 32q-9 13 -26 22q-19 7 -38 7q-40 0 -86 -26q-43 -25 -84 -71q-38 -44 -70 -105
q-30 -57 -44 -127l-81 -402q-1 -6 -9 -18q-14 -9 -24 -12q-18 -5 -40 -8q-34 -2 -61 -2q-29 0 -61 2q-23 3 -36 8q-12 3 -18 12q-4 7 -2 18l244 1222q2 11 10 18q6 8 22 14q18 7 41 8q25 3 62 3t61 -3q21 -1 36 -8q12 -5 17 -14q4 -6 2 -18l-53 -269q0 -2 -11 -47
q-2 -9 -6.5 -25t-6.5 -25q-3 -7 -8 -23t-8 -24q-5 -21 -14 -41q22 35 52 64q37 35 76 58q48 29 92 42q45 17 101 17q70 0 115 -19q49 -20 77 -53q31 -36 43 -81q14 -43 14 -103q0 -40 -4 -71q-6 -48 -11 -71zM777 1434q9 -12 11 -24q0 -10 -10 -14q-12 -7 -31 -8
q-28 -2 -55 -2q-50 0 -66 2q-21 0 -39 4q-15 5 -21 10t-13 15l-90 137l-149 -134q-11 -11 -22 -18q-7 -4 -27 -10q-22 -4 -43 -4q-17 -2 -68 -2q-26 0 -54 2q-20 3 -26 8q-9 6 -4 15q5 11 19 23l238 214q12 12 28 21q10 6 32 13q18 3 42 6q7 0 26.5 0.5t31.5 0.5q40 0 54 -1
q25 -2 35 -5q14 -4 26 -13q8 -7 20 -22z" />
    <glyph glyph-name="Hbar" unicode="&#x126;" horiz-adv-x="1347" 
d="M520 907l-36 -177h484l36 177h-484zM1304 1092h117q14 0 19 -8q6 -9 6 -26q0 -13 -2 -22q0 -9 -4 -31q-2 -11 -8 -35q-5 -18 -12 -31q-9 -16 -16 -23q-10 -9 -23 -9h-115l-174 -873q-1 -7 -10 -18q-10 -8 -24 -12q-17 -5 -41 -8q-34 -2 -64 -2q-29 0 -63 2q-23 3 -39 8
q-13 4 -19 12q-5 9 -2 18l97 490h-484l-97 -490q-2 -5 -10 -18q-14 -9 -24 -12q-21 -6 -42 -8q-32 -2 -63 -2q-30 0 -64 2q-23 3 -39 8q-14 5 -18 12q-5 7 -3 18l175 873h-115q-14 0 -21 11q-6 9 -6 31q0 14 4 37q2 16 10 48q10 28 20 41q12 17 30 17h114l34 168q1 7 10 18
q10 8 24 12q20 5 42 8q34 2 64 2q29 0 63 -2q23 -3 39 -8q14 -5 18 -12q5 -7 3 -18l-34 -168h484l33 168q1 7 10 18q10 8 24 12q20 5 42 8q34 2 65 2q28 0 62 -2q23 -3 39 -8q14 -5 18 -12q5 -7 3 -18z" />
    <glyph glyph-name="hbar" unicode="&#x127;" horiz-adv-x="1098" 
d="M1016 710q0 -41 -4 -72q-3 -33 -11 -71l-105 -533q-1 -7 -10 -18q-10 -8 -24 -12q-18 -5 -40 -8q-32 -2 -61 -2t-61 2q-20 3 -36 8q-9 3 -18 12q-3 10 -1 18l102 517q6 38 7 47q3 27 3 49q0 44 -19 73q-18 29 -64 29q-41 0 -86 -27q-43 -25 -84 -71q-38 -44 -70 -105
q-31 -62 -44 -127l-77 -385q-1 -6 -9 -18q-14 -9 -24 -12q-18 -5 -40 -8q-34 -2 -61 -2q-29 0 -61 2q-20 3 -36 8q-9 3 -18 12q-3 10 -2 18l207 1037h-117q-15 0 -21 10q-6 11 -6 29q0 2 0.5 9.5t0.5 12.5q1 2 2.5 13t3.5 17q1 6 8 34q5 18 12 30q7 15 16 22q9 9 21 9h117
l20 95q2 11 10 18q6 8 22 14q20 6 40 8q34 2 62 2t60 -2q23 -3 36 -8t18 -14q4 -6 2 -18l-19 -95h198q15 0 21 -9q7 -7 7 -28q0 -1 -0.5 -7.5t-0.5 -11.5q-1 -5 -2.5 -14.5t-2.5 -14.5q-2 -12 -8 -34q-5 -19 -13 -33q-5 -12 -16 -25q-10 -9 -22 -9h-199l-20 -101
q-6 -30 -10 -46q-7 -31 -13 -48q-8 -32 -14 -46q-5 -18 -14 -41q22 36 52 63q29 29 75 57q37 22 91 41q49 16 102 16q70 0 114 -20q47 -18 78 -53q30 -34 43 -81q13 -43 13 -102z" />
    <glyph glyph-name="Itilde" unicode="&#x128;" horiz-adv-x="546" 
d="M319 35q-1 -9 -10 -18t-25 -13q-17 -5 -42 -8q-34 -2 -64 -2t-64 2q-22 3 -38 8q-14 5 -19 13t-2 18l245 1224q2 11 10 18q8 8 24 13q22 6 42 8q36 2 64 2q30 0 62 -2q22 -3 40 -8q15 -5 18 -13q5 -6 3 -18zM696 1636q2 10 6 13q3 5 14 8q7 2 24 4q11 1 38 1q45 0 58 -6
q14 -8 14 -20q0 -1 -0.5 -4.5t-1 -9.5t-0.5 -11q-2 -22 -10 -47q-5 -24 -22 -58q-13 -30 -40 -57q-29 -27 -66 -43q-42 -17 -98 -17q-53 0 -92 15q-41 18 -69 34q-15 9 -57 34q-26 16 -57 16q-35 0 -51 -19q-17 -20 -20 -54q-1 -6 -6 -13q-8 -6 -14 -8q-17 -2 -25 -4
q-4 0 -16.5 -0.5t-20.5 -0.5q-44 0 -59 6t-15 22q0 1 2 31q3 22 12 49q10 30 25 56q18 30 43 53q24 24 64 40q38 16 94 16q54 0 92 -16q41 -16 68 -34q28 -17 58 -34q26 -16 56 -16q29 0 48 16q20 18 24 58zM-189 1294z" />
    <glyph glyph-name="itilde" unicode="&#x129;" horiz-adv-x="503" 
d="M291 34q-1 -6 -9 -18q-14 -9 -24 -12q-18 -5 -40 -8q-34 -2 -61 -2q-29 0 -61 2q-23 3 -36 8q-12 3 -18 12q-4 7 -2 18l178 892q1 9 10 18q8 8 22 12q20 6 40 8q34 2 62 2q30 0 60 -2q19 -2 38 -8q11 -4 17 -12q4 -7 2 -18zM765 1347q0 -2 -0.5 -5.5t-1 -10t-0.5 -11.5
q-1 -12 -9 -51q-12 -38 -24 -61q-15 -32 -41 -60q-26 -27 -65 -44q-38 -18 -93 -18q-37 0 -69 8q-29 8 -53 21q-28 16 -43 27q-14 10 -38 28q-17 12 -34 20q-18 9 -38 9q-32 0 -50 -23q-17 -27 -21 -62q-1 -9 -5 -14q-5 -6 -13 -9q-7 -2 -25 -4q-10 -1 -39 -1q-27 0 -36 2
q-13 0 -21 4q-9 4 -10 10q-3 4 -3 13q0 2 0.5 5.5t1 10t0.5 11.5q1 12 9 51q12 38 23 61q15 31 41 59q25 27 65 45q39 18 94 18q35 0 67 -8q30 -8 54 -21q16 -9 44 -27q3 -3 37 -28q17 -13 35 -21q19 -8 37 -8q29 0 49 21q19 23 23 64q2 17 17 22q18 6 62 6q45 0 60 -6
q13 -8 13 -23zM-208 960z" />
    <glyph glyph-name="Imacron" unicode="&#x12a;" horiz-adv-x="546" 
d="M319 35q-1 -9 -10 -18t-25 -13q-17 -5 -42 -8q-34 -2 -64 -2t-64 2q-22 3 -38 8q-14 5 -19 13t-2 18l245 1224q2 11 10 18q8 8 24 13q22 6 42 8q36 2 64 2q30 0 62 -2q22 -3 40 -8q15 -5 18 -13q5 -6 3 -18zM825 1578q0 -2 -0.5 -9.5t-0.5 -12.5q-1 -3 -2.5 -13.5
t-3.5 -16.5q-2 -11 -8 -33q-3 -10 -12 -31q-12 -17 -18 -22q-9 -9 -21 -9h-590q-17 0 -25 9q-7 8 -7 30q0 1 0.5 8t0.5 12q2 10 4 30q2 11 8 33q6 17 14 31q6 11 18 23q12 9 25 9h590q15 0 21 -10q7 -10 7 -28zM-170 1294z" />
    <glyph glyph-name="imacron" unicode="&#x12b;" horiz-adv-x="503" 
d="M291 34q-1 -6 -9 -18q-14 -9 -24 -12q-18 -5 -40 -8q-34 -2 -61 -2q-29 0 -61 2q-23 3 -36 8q-12 3 -18 12q-4 7 -2 18l178 892q1 9 10 18q8 8 22 12q20 6 40 8q34 2 62 2q30 0 60 -2q19 -2 38 -8q11 -4 17 -12q4 -7 2 -18zM702 1284q0 -2 -0.5 -8.5t-0.5 -11.5
q-1 -5 -2.5 -14.5t-2.5 -13.5q-1 -6 -3.5 -17t-3.5 -16q-8 -22 -12 -31q-12 -18 -18 -23q-9 -9 -22 -9h-511q-17 0 -25 9q-8 10 -8 30q0 11 3 33q3 28 11 49q5 20 20 43q15 19 36 19h511q16 0 22 -11q6 -9 6 -28zM-155 960z" />
    <glyph glyph-name="Ibreve" unicode="&#x12c;" horiz-adv-x="546" 
d="M319 35q-1 -9 -10 -18t-25 -13q-17 -5 -42 -8q-34 -2 -64 -2t-64 2q-22 3 -38 8q-14 5 -19 13t-2 18l245 1224q2 11 10 18q8 8 24 13q22 6 42 8q36 2 64 2q30 0 62 -2q22 -3 40 -8q15 -5 18 -13q5 -6 3 -18zM811 1670q0 -8 -5 -36q-4 -23 -19 -56q-11 -28 -38 -66
q-23 -32 -63 -62q-36 -27 -92 -46q-54 -18 -128 -18q-79 0 -128 16q-51 17 -81 44q-31 26 -43 63q-13 35 -13 75q0 16 1 26q2 20 3 29q2 15 6 25q4 11 9 16q7 8 27 13q17 4 52 4q19 0 41 -2q16 -1 25 -6q9 -4 13 -10q3 -6 3 -13q0 -2 -0.5 -8.5t-0.5 -9.5q-2 -8 -2 -22
q0 -19 6 -34q4 -14 17 -25q12 -10 31 -15q21 -6 48 -6q28 0 52 6q24 7 45 20q22 17 35 35q15 21 24 52q3 9 9 17t17 12q11 6 27 7q22 2 42 2q19 0 41 -2q15 -1 24 -5q9 -3 12 -8q3 -6 3 -12zM-132 1294z" />
    <glyph glyph-name="ibreve" unicode="&#x12d;" horiz-adv-x="503" 
d="M291 34q-1 -6 -9 -18q-14 -9 -24 -12q-18 -5 -40 -8q-34 -2 -61 -2q-29 0 -61 2q-23 3 -36 8q-12 3 -18 12q-4 7 -2 18l178 892q1 9 10 18q8 8 22 12q20 6 40 8q34 2 62 2q30 0 60 -2q19 -2 38 -8q11 -4 17 -12q4 -7 2 -18zM720 1373q0 -15 -5 -35q-3 -23 -16 -58
q-15 -36 -36 -66q-22 -33 -61 -64q-41 -29 -91 -46q-54 -18 -128 -18q-77 0 -126 16q-52 18 -78 44q-30 30 -40 64q-12 37 -12 76q0 16 1 26l3 30q2 14 6 26q3 11 8 16q9 8 28 12q16 4 51 4q19 0 39 -2q16 -1 25 -6t12 -10q3 -4 3 -12q0 -13 -2 -20q0 -4 -0.5 -12t-0.5 -11
q0 -17 5 -34q4 -14 16 -26q11 -11 30 -17q18 -6 46 -6q30 0 52 7t44 21q21 18 33 36q16 26 22 53q5 12 9 17q6 9 16 12q8 5 26 8q22 2 41 2q21 0 41 -2q15 -1 24 -5q9 -3 12 -9q3 -4 3 -11zM-147 960z" />
    <glyph glyph-name="Iogonek" unicode="&#x12e;" horiz-adv-x="546" 
d="M322 -219q0 -5 -2 -27q-3 -19 -7 -32q-3 -10 -9 -28q-6 -13 -12 -19t-24 -14q-15 -6 -42 -13q-19 -4 -54 -10q-28 -3 -60 -3q-57 0 -96 9q-43 11 -68 29q-27 19 -40 46q-13 26 -13 62q0 20 5 43q4 21 18 42q11 18 32 42q15 17 50 47l59 49q-5 5 -5 11q-2 5 0 16l246 1229
q1 9 10 18q10 8 24 12q22 6 43 8q34 2 64 2q29 0 63 -2q22 -3 38 -8q13 -4 19 -12q4 -9 3 -18l-246 -1229q-3 -15 -10 -27q-9 -14 -20 -23l-82 -69q-29 -23 -42 -41q-11 -17 -11 -32t13 -25q12 -9 40 -9h88q13 0 21 -5q7 -6 7 -19z" />
    <glyph glyph-name="iogonek" unicode="&#x12f;" horiz-adv-x="503" 
d="M217 923q1 8 9 18q12 10 24 13q15 6 40 9q24 3 61 3t61 -3q25 -3 36 -9q12 -4 18 -13q4 -6 2 -18l-177 -889q-3 -17 -12 -34q-9 -15 -23 -26l-70 -58q-37 -31 -48 -47q-14 -17 -14 -36q0 -15 11 -24t38 -9h88q16 0 22 -6t6 -18q0 -8 -3 -22q-1 -14 -6 -31q-5 -19 -10 -31
q-6 -14 -12 -20t-26 -14q-22 -7 -43 -12q-31 -6 -51 -8q-27 -3 -51 -3q-108 0 -160 37q-53 36 -53 109q0 22 6 43q4 19 18 44q18 28 34 45q26 27 51 49l51 42zM549 1226q-8 -40 -19 -62q-11 -24 -32 -42q-18 -14 -49 -22q-29 -6 -72 -6q-42 0 -69 6q-26 8 -40 22
q-14 19 -15 42q-2 24 6 62q8 37 19 61q11 23 32 41q17 15 49 23q27 7 72 7q44 0 69 -7q26 -8 40 -23q14 -19 14 -41q3 -24 -5 -61z" />
    <glyph glyph-name="Idotaccent" unicode="&#x130;" horiz-adv-x="546" 
d="M319 35q-1 -9 -10 -18t-25 -13q-17 -5 -42 -8q-34 -2 -64 -2t-64 2q-22 3 -38 8q-14 5 -19 13t-2 18l245 1224q2 11 10 18q8 8 24 13q22 6 42 8q36 2 64 2q30 0 62 -2q22 -3 40 -8q15 -5 18 -13q5 -6 3 -18zM344 1531q8 35 18 59q12 25 31 39q20 15 47 21q27 7 68 7
t65 -7q24 -6 38 -21q12 -13 15 -39q0 -31 -6 -59q-6 -34 -18 -58q-10 -24 -30 -39q-19 -15 -47 -22q-28 -6 -68 -6q-39 0 -65 6q-25 7 -38 22q-14 15 -15 39q-2 27 5 58zM29 1294z" />
    <glyph glyph-name="dotlessi" unicode="&#x131;" horiz-adv-x="503" 
d="M291 34q-1 -6 -9 -18q-14 -9 -24 -12q-18 -5 -40 -8q-34 -2 -61 -2q-29 0 -61 2q-23 3 -36 8q-12 3 -18 12q-4 7 -2 18l178 892q1 9 10 18q8 8 22 12q20 6 40 8q34 2 62 2q30 0 60 -2q19 -2 38 -8q11 -4 17 -12q4 -7 2 -18z" />
    <glyph glyph-name="IJ" unicode="&#x132;" horiz-adv-x="1225" 
d="M319 35q-1 -9 -10 -18t-25 -13q-17 -5 -42 -8q-34 -2 -64 -2t-64 2q-22 3 -38 8q-14 5 -19 13t-2 18l245 1224q2 11 10 18q8 8 24 13q22 6 42 8q36 2 64 2q30 0 62 -2q22 -3 40 -8q15 -5 18 -13q5 -6 3 -18zM1062 344q-15 -75 -46 -150q-30 -69 -76 -114
q-45 -48 -112 -74q-66 -26 -154 -26q-49 0 -90 7q-43 8 -70 19q-27 12 -34 22q-8 11 -8 30q0 3 2 25q2 17 6 38q7 32 10 43q4 21 12 42q8 18 15 30q8 11 16 11q13 0 23 -6q20 -11 24 -13q9 -7 32 -14q17 -7 47 -7q31 0 53 9q21 7 40 26q17 22 28 48q13 31 20 72l181 898
q1 6 9 18q13 9 24 12q22 6 43 8q34 2 64 2q29 0 61 -2q21 -1 40 -7q15 -5 20 -13q5 -6 3 -18z" />
    <glyph glyph-name="ij" unicode="&#x133;" horiz-adv-x="1027" 
d="M549 1226q-8 -40 -19 -62q-11 -24 -32 -42q-18 -14 -49 -22q-29 -6 -72 -6q-42 0 -69 6q-26 8 -40 22q-14 19 -15 42q-2 24 6 62q8 37 19 61q11 23 32 41q17 15 49 23q27 7 72 7q44 0 69 -7q26 -8 40 -23q14 -19 14 -41q3 -24 -5 -61zM291 34q-1 -6 -9 -18
q-14 -9 -24 -12q-18 -5 -40 -8q-34 -2 -61 -2q-29 0 -61 2q-23 3 -36 8q-12 3 -18 12q-4 7 -2 18l177 890q1 6 9 18q14 9 24 12q15 6 40 9q24 3 61 3t61 -3q25 -3 36 -9q12 -3 18 -12q4 -7 2 -18zM1072 1226q-7 -37 -20 -62q-12 -26 -32 -42q-16 -14 -48 -22q-28 -6 -72 -6
q-42 0 -68 6q-29 8 -40 22q-15 16 -16 42q-2 28 5 62q6 30 19 61q11 23 32 41q19 15 50 23q27 7 71 7t69 -7q29 -8 40 -23q13 -14 16 -41q0 -32 -6 -61zM803 -13q-16 -85 -45 -151q-28 -66 -70 -110q-42 -45 -101 -68q-60 -23 -138 -23q-43 0 -83 7q-36 10 -41 15
q-6 8 -7 13q-2 10 -2 21q0 12 2 21q0 10 4 32q2 12 8 36q4 15 11 34q5 11 13 24q9 10 17 10t11 -1t10 -1q2 -1 7 -1.5t7 -0.5q5 -1 20 -1q23 0 44 8q20 7 36 25q15 17 28 47t20 73l186 928q1 9 10 18q8 8 22 12q17 6 41 9q25 3 61 3t60 -3q23 -3 38 -9q11 -4 17 -12
q4 -7 2 -18z" />
    <glyph glyph-name="Jcircumflex" unicode="&#x134;" horiz-adv-x="678" 
d="M515 344q-15 -75 -46 -150q-28 -66 -75 -114q-49 -49 -112 -74q-67 -26 -155 -26q-50 0 -89 7q-45 8 -70 19q-24 10 -36 22q-7 14 -7 30q0 3 2 25q2 17 6 38q1 7 4 21.5t5 21.5q6 23 13 42q7 18 15 30q8 11 16 11q13 0 23 -6q21 -12 23 -13q12 -8 32 -14q18 -7 48 -7
t53 9q24 8 39 26q16 18 29 48q13 31 20 72l181 898q1 9 10 18q8 8 24 12q17 5 42 8q34 2 64 2q28 0 62 -2q21 -1 38 -7q16 -5 20 -13q6 -6 4 -18zM915 1434q8 -13 10 -24q2 -9 -9 -14q-12 -7 -31 -8q-28 -2 -55 -2q-50 0 -66 2q-20 0 -40 4q-15 5 -20 10q-6 5 -13 15
l-90 137l-149 -134q-11 -11 -22 -18q-7 -4 -27 -10q-22 -4 -43 -4q-18 -2 -68 -2q-28 0 -54 2q-17 3 -28 8q-7 7 -2 15q3 8 19 23l238 214q13 14 27 21q12 6 33 13q18 3 42 6q7 0 26.5 0.5t31.5 0.5q39 0 53 -1q26 -2 36 -5q14 -4 26 -13q8 -7 20 -22zM-84 1294z" />
    <glyph glyph-name="jcircumflex" unicode="&#x135;" horiz-adv-x="523" 
d="M300 -13q-16 -82 -44 -151q-29 -66 -70 -110q-44 -46 -102 -68q-60 -23 -138 -23q-44 0 -82 7q-37 10 -42 15q-6 8 -7 13q-2 10 -2 21q0 2 0.5 9t0.5 12q1 5 2.5 16t2.5 16q2 12 8 36q4 15 11 34q7 17 14 24q6 10 16 10q8 0 11 -1t11 -1q2 -1 6.5 -1.5t6.5 -0.5
q5 -1 20 -1q23 0 45 8q18 7 36 25q15 17 27 47q13 30 20 73l186 928q1 6 9 18q14 9 24 12q15 6 40 9t61 3t60 -3q25 -3 37 -9q12 -3 18 -12q4 -7 2 -18zM682 1149q10 -18 13 -31q3 -14 -5 -20q-7 -7 -30 -12q-21 -3 -60 -3q-12 0 -28.5 0.5t-21.5 0.5q-23 4 -28 6
q-11 5 -14 10q-5 6 -10 18l-74 150l-134 -150q-9 -10 -18 -18q-8 -7 -22 -10q-5 -2 -33 -6q-6 0 -22.5 -0.5t-26.5 -0.5q-40 0 -61 3q-22 5 -27 12t2 20q7 14 25 31l202 223q6 9 19 16q10 4 27 9q18 5 39 5q14 2 53 2q25 0 53 -2q22 -2 35 -6q16 -5 22 -10q9 -7 13 -14z
M-153 960z" />
    <glyph glyph-name="Kcommaaccent" unicode="&#x136;" horiz-adv-x="1120" 
d="M1223 1258q0 -19 -13 -38q-16 -24 -42 -52l-458 -485l272 -577q5 -13 12 -34q4 -13 4 -27t-6 -23q-7 -10 -23 -16q-17 -6 -43 -9q-28 -3 -70 -3q-34 0 -68 2q-24 3 -41 8q-14 4 -22 14q-6 7 -11 21l-274 613l-121 -616q-2 -11 -10 -18q-7 -8 -25 -14q-18 -5 -42 -8
q-32 -2 -63 -2t-63 2q-23 3 -39 8q-15 7 -19 14q-5 7 -2 18l244 1223q1 10 9 19q10 8 25 12q18 5 42 8q32 2 64 2q30 0 62 -2q23 -3 39 -8q13 -4 19 -12q4 -9 3 -19l-110 -553l480 549q11 12 21 21q13 10 30 14q21 5 44 8q34 2 65 2q33 0 65 -2q24 -3 40 -8q15 -7 20 -14
t5 -18zM450 -330q-5 -7 -14 -16q-7 -6 -21 -12q-14 -3 -34 -6q-6 0 -24 -0.5t-29 -0.5q-31 0 -49 3q-19 2 -25 8q-8 7 -8 17q2 13 8 24l88 190q5 11 14 19q10 10 25 14q21 6 43 7q34 2 66 2q43 0 62 -4q22 -4 32 -11q8 -9 7 -19q-2 -12 -12 -25z" />
    <glyph glyph-name="kcommaaccent" unicode="&#x137;" horiz-adv-x="983" 
d="M1015 930q0 -14 -13 -38q-19 -27 -45 -54l-315 -297l205 -430q8 -19 14 -42q4 -16 4 -28q0 -13 -7 -21q-6 -9 -22 -15q-15 -6 -42 -9q-34 -2 -66 -2t-64 2q-23 1 -38 7q-13 4 -20 13q-7 7 -10 20l-211 470l-94 -472q-3 -10 -11 -18t-22 -12q-20 -6 -41 -8q-34 -2 -61 -2
q-30 0 -60 2q-26 3 -37 8q-14 3 -17 12q-5 5 -3 17l264 1316q1 11 9 18q9 9 23 13q17 6 41 9t61 3t61 -3q22 -3 36 -9q12 -4 17 -13q4 -6 2 -18l-156 -783l334 357q11 12 21 21q15 9 30 13q23 6 44 7q32 2 63 2q28 0 62 -2q16 -1 39 -6q16 -7 20 -12q5 -8 5 -16zM385 -330
q-8 -11 -15 -16q-4 -5 -20 -12q-14 -3 -34 -6q-6 0 -24 -0.5t-29 -0.5q-31 0 -49 3q-16 1 -26 8q-7 9 -6 17q0 11 7 24l88 190q5 11 14 19q10 10 25 14q21 6 42 7q36 2 67 2q42 0 63 -4q21 -5 31 -11q9 -9 7 -19q-2 -12 -12 -25z" />
    <glyph glyph-name="kgreenlandic" unicode="&#x138;" horiz-adv-x="983" 
d="M864 44q0 -13 -6 -22q-4 -10 -20 -16q-15 -6 -42 -9q-28 -3 -72 -3q-30 0 -62 2q-21 1 -36 7q-11 3 -21 13q-7 7 -12 20l-215 435l-87 -437q-1 -6 -9 -18q-14 -9 -24 -12q-18 -5 -40 -8q-34 -2 -61 -2q-29 0 -61 2q-27 4 -36 8q-13 3 -18 12q-4 5 -2 17l178 894
q2 11 10 17q6 9 22 12q13 5 40 8q34 2 62 2q30 0 60 -2q26 -3 38 -8q13 -3 17 -12q4 -5 2 -17l-79 -397l352 393q9 13 20 21q8 7 28 14q32 5 42 6q34 2 63 2q30 0 62 -2q27 -3 38 -7q15 -5 19 -10q5 -7 5 -14q0 -8 -3 -17q-1 -7 -8 -20l-18 -27q-4 -5 -28 -34l-328 -319
l211 -405q5 -11 15 -38q4 -22 4 -29z" />
    <glyph glyph-name="Lacute" unicode="&#x139;" horiz-adv-x="866" 
d="M788 177q0 -12 -2 -23q0 -9 -4 -35q-7 -31 -10 -41q-3 -12 -12 -38q-11 -22 -18 -29q-11 -11 -23 -11h-593q-10 0 -30 4q-16 8 -22 16q-8 10 -11 26t1 37l236 1176q2 11 9 18q9 9 25 13q18 5 42 8q32 2 64 2q29 0 63 -2q23 -3 39 -8q15 -5 18 -13q5 -6 3 -18l-208 -1042
h408q14 0 19 -11q6 -10 6 -29zM647 1421q-5 -4 -21 -15q-10 -6 -26 -11q-11 -4 -36 -7q-28 -2 -52 -2q-68 0 -84 13q-14 13 11 40l189 204q17 17 26 23q15 10 31 14q23 6 43 7q34 2 61 2q47 0 72 -6t34 -15q9 -10 3 -22q-4 -11 -20 -25zM111 1294z" />
    <glyph glyph-name="lacute" unicode="&#x13a;" horiz-adv-x="503" 
d="M291 34q-1 -6 -9 -18q-14 -9 -23 -12q-18 -5 -40 -8q-34 -2 -61 -2q-30 0 -62 2q-20 3 -36 8q-9 3 -18 12q-3 10 -2 18l263 1315q1 11 9 18q9 9 23 13q17 6 41 9t61 3t61 -3q22 -3 36 -9q12 -4 17 -13q4 -6 2 -18zM585 1482q-4 -3 -11 -8.5t-10 -7.5q-11 -6 -26 -10
q-14 -4 -36 -6q-21 -3 -52 -3q-68 0 -84 13q-14 13 11 40l189 204q17 17 26 23q15 10 31 14q23 6 43 7q34 2 61 2q47 0 72 -6t34 -16q9 -9 3 -21q-4 -11 -20 -25zM49 1355z" />
    <glyph glyph-name="Lcommaaccent" unicode="&#x13b;" horiz-adv-x="866" 
d="M788 177q0 -12 -2 -23q0 -9 -4 -35q-7 -31 -10 -41q-3 -12 -12 -38q-11 -22 -18 -29q-11 -11 -23 -11h-593q-10 0 -30 4q-16 8 -22 16q-8 10 -11 26t1 37l236 1176q2 11 9 18q9 9 25 13q18 5 42 8q32 2 64 2q29 0 63 -2q23 -3 39 -8q15 -5 18 -13q5 -6 3 -18l-208 -1042
h408q14 0 19 -11q6 -10 6 -29zM354 -330q-5 -7 -14 -16q-7 -6 -21 -12q-14 -3 -34 -6q-6 0 -24 -0.5t-29 -0.5q-31 0 -49 3q-19 2 -25 8q-8 7 -8 17q2 13 8 24l88 190q5 11 14 19q10 10 25 14q21 6 43 7q34 2 66 2q43 0 62 -4q22 -4 32 -11q8 -8 7 -19q-2 -12 -12 -25z" />
    <glyph glyph-name="lcommaaccent" unicode="&#x13c;" horiz-adv-x="503" 
d="M291 34q-1 -6 -9 -18q-14 -9 -23 -12q-18 -5 -40 -8q-34 -2 -61 -2q-30 0 -62 2q-20 3 -36 8q-9 3 -18 12q-3 10 -2 18l263 1315q1 11 9 18q9 9 23 13q17 6 41 9t61 3t61 -3q22 -3 36 -9q12 -4 17 -13q4 -6 2 -18zM115 -330q-8 -11 -15 -16q-4 -5 -20 -12q-14 -3 -34 -6
q-6 0 -24 -0.5t-29 -0.5q-31 0 -49 3q-16 1 -26 8q-7 9 -6 17q0 11 7 24l88 190q5 11 14 19q10 10 25 14q21 6 42 7q36 2 67 2q42 0 63 -4q21 -5 31 -11q9 -8 7 -19q-2 -12 -12 -25z" />
    <glyph glyph-name="Lcaron" unicode="&#x13d;" horiz-adv-x="881" 
d="M788 177q0 -12 -2 -23q0 -9 -4 -35q-7 -31 -10 -41q-3 -12 -12 -38q-11 -22 -18 -29q-11 -11 -23 -11h-593q-10 0 -30 4q-16 8 -22 16q-8 10 -11 26t1 37l236 1176q2 11 9 18q9 9 25 13q18 5 42 8q32 2 64 2q29 0 63 -2q23 -3 39 -8q15 -5 18 -13q5 -6 3 -18l-208 -1042
h408q14 0 19 -11q6 -10 6 -29zM819 1010q-5 -9 -14 -18q-6 -5 -21 -10q-18 -4 -32 -4q-13 -2 -48 -2q-18 0 -36 2q-12 3 -19 8q-6 5 -6 14q0 10 4 22l116 305q5 13 13 21t22 14q15 6 38 9q22 3 56 3q38 0 57 -4q21 -3 30 -9t9 -15q-2 -12 -8 -22zM419 960z" />
    <glyph glyph-name="lcaron" unicode="&#x13e;" horiz-adv-x="627" 
d="M291 34q-1 -6 -9 -18q-14 -9 -23 -12q-18 -5 -40 -8q-34 -2 -61 -2q-30 0 -62 2q-20 3 -36 8q-9 3 -18 12q-3 10 -2 18l263 1315q1 11 9 18q9 9 23 13q17 6 41 9t61 3t61 -3q22 -3 36 -9q12 -4 17 -13q4 -6 2 -18zM724 1038q-5 -9 -14 -18q-6 -5 -21 -10q-18 -4 -32 -4
q-13 -2 -48 -2q-18 0 -36 2q-12 3 -19 8q-6 4 -6 14t4 22l116 305q4 12 12 21q10 8 24 14q13 6 37 9q23 3 56 3q38 0 57 -4q21 -3 30 -9t8 -15q0 -11 -7 -22zM324 988z" />
    <glyph glyph-name="Ldot" unicode="&#x13f;" horiz-adv-x="1150" 
d="M788 177q0 -12 -2 -23q0 -9 -4 -35q-7 -31 -10 -41q-3 -12 -12 -38q-11 -22 -18 -29q-11 -11 -23 -11h-593q-10 0 -30 4q-16 8 -22 16q-8 10 -11 26t1 37l236 1176q2 11 9 18q9 9 25 13q18 5 42 8q32 2 64 2q29 0 63 -2q23 -3 39 -8q15 -5 18 -13q5 -6 3 -18l-208 -1042
h408q14 0 19 -11q6 -10 6 -29zM1091 730q0 -24 -4 -48q-3 -16 -11 -50q-6 -16 -18 -46q-13 -24 -25 -36q-22 -22 -55 -29q-37 -8 -73 -8q-33 0 -61 5q-25 6 -38 18q-14 12 -21 28q-6 18 -6 39q0 25 5 45q3 26 12 52q5 23 17 48q11 23 23 33q19 19 48 29q31 11 82 11
q33 0 60 -5q25 -6 40 -18q14 -11 20 -28q5 -18 5 -40z" />
    <glyph glyph-name="ldot" unicode="&#x140;" horiz-adv-x="865" 
d="M291 34q-1 -6 -9 -18q-14 -9 -23 -12q-18 -5 -40 -8q-34 -2 -61 -2q-30 0 -62 2q-20 3 -36 8q-9 3 -18 12q-3 10 -2 18l263 1315q1 11 9 18q9 9 23 13q17 6 41 9t61 3t61 -3q22 -3 36 -9q12 -4 17 -13q4 -6 2 -18zM856 658q0 -24 -4 -48q-6 -34 -12 -50q-6 -23 -18 -46
q-8 -20 -24 -36q-22 -22 -55 -29q-37 -8 -73 -8q-33 0 -60 5q-25 6 -40 18q-14 12 -20 28q-6 18 -6 39q0 13 4 45q4 18 12 52q14 39 18 48q11 23 23 33q19 19 48 29q31 11 82 11q33 0 61 -5q25 -6 38 -18q15 -11 20 -28q6 -16 6 -40z" />
    <glyph glyph-name="Lslash" unicode="&#x141;" horiz-adv-x="886" 
d="M808 177q0 -11 -2 -21q0 -10 -4 -36q-7 -31 -10 -41q-3 -16 -13 -39q-9 -19 -19 -28q-9 -12 -23 -12h-593q-35 0 -52 20q-18 21 -9 63l79 393l-102 -58q-24 -14 -31 -6q-8 6 -8 31q0 2 0.5 9.5t0.5 13.5q1 6 2.5 17t2.5 17q3 20 9 39q5 21 12 38q9 21 16 33q11 14 23 21
l119 66l113 563q1 9 9 18q10 8 24 12q22 6 43 8q34 2 65 2q30 0 62 -2q23 -3 39 -8q11 -4 19 -12q3 -10 2 -18l-80 -397l208 115q22 13 30 4q9 -8 9 -30q0 -2 -0.5 -9t-0.5 -13q-1 -5 -2.5 -16.5t-2.5 -15.5q-1 -7 -3.5 -20t-3.5 -19q-11 -35 -12 -38q-9 -21 -16 -33
q-9 -14 -20 -20l-230 -127l-85 -424h409q14 0 20 -12t6 -28z" />
    <glyph glyph-name="lslash" unicode="&#x142;" horiz-adv-x="540" 
d="M629 1025q0 -7 -2 -29q-1 -9 -5 -36q-6 -24 -10 -36l-12 -36q-10 -20 -16 -28q-8 -13 -18 -17l-107 -61l-149 -748q-3 -9 -10 -18q-11 -9 -22 -12q-20 -6 -41 -8q-34 -2 -62 -2q-29 0 -61 2q-20 3 -36 8q-9 3 -18 12q-3 10 -2 18l119 591l-94 -53q-19 -10 -27 -3
q-7 9 -7 29q0 19 4 42q4 26 12 55q6 24 19 51q11 24 27 31l109 62l101 510q1 9 10 18t24 13q17 6 41 9t61 3t59 -3q23 -3 37 -9q11 -4 17 -13q4 -6 2 -18l-70 -352l94 53q17 8 24 2q9 -8 9 -27z" />
    <glyph glyph-name="Nacute" unicode="&#x143;" horiz-adv-x="1344" 
d="M1127 92q-5 -23 -15 -41q-12 -19 -28 -30q-16 -13 -34 -17q-18 -6 -38 -6h-112q-38 0 -59 7q-25 8 -39 25q-16 16 -30 49q-14 32 -27 79l-191 578q-20 60 -40 135q-20 67 -36 135h-2q-13 -98 -23 -156q-20 -112 -29 -153l-132 -661q-2 -11 -10 -18q-7 -8 -22 -13
q-18 -5 -38 -8q-24 -3 -59 -3q-36 0 -57 3q-20 3 -35 8q-12 4 -15 13q-4 7 -1 18l233 1164q9 47 41 70q31 24 72 24h137q36 0 56 -8q25 -6 40 -24q14 -12 30 -42q13 -27 23 -64l193 -583q17 -49 34 -111q5 -18 16 -55t17 -55h2q12 85 25 148q4 28 27 149l123 610q2 11 9 17
q7 9 21 12q11 4 38 8q30 2 58 2t58 -2q26 -3 35 -8q11 -3 16 -12q4 -5 2 -17zM999 1421q-5 -4 -21 -15q-10 -6 -26 -11q-11 -4 -36 -7q-28 -2 -52 -2q-68 0 -84 13q-14 13 11 40l189 204q17 17 26 23q15 10 31 14q23 6 43 7q34 2 61 2q47 0 72 -6t34 -15q9 -10 3 -22
q-4 -11 -20 -25zM463 1294z" />
    </font>
</defs>
</svg>
