<?xml version="1.0" standalone="no"?>
<!DOCTYPE svg PUBLIC "-//W3C//DTD SVG 1.1//EN" "http://www.w3.org/Graphics/SVG/1.1/DTD/svg11.dtd" >
<svg xmlns="http://www.w3.org/2000/svg">
<metadata></metadata>
<defs>
<font id="permianseriftypefaceregular" horiz-adv-x="513" >
<font-face units-per-em="1000" ascent="750" descent="-250" />
<missing-glyph horiz-adv-x="235" />
<glyph horiz-adv-x="1000" />
<glyph horiz-adv-x="1000" />
<glyph unicode="&#xd;" horiz-adv-x="1000" />
<glyph unicode=" "  horiz-adv-x="235" />
<glyph unicode="&#x09;" horiz-adv-x="235" />
<glyph unicode="&#xa0;" horiz-adv-x="235" />
<glyph unicode="!" horiz-adv-x="277" d="M31 43q0 26 16.5 45.5t47.5 19.5q24 0 39.5 -16t15.5 -42t-16.5 -45.5t-47.5 -19.5q-24 0 -39.5 16t-15.5 42zM90 200l72 501l105 5l-124 -506h-53z" />
<glyph unicode="&#x22;" horiz-adv-x="370" d="M107 463l16 238l105 5l-68 -243h-53zM267 463l16 238l105 5l-68 -243h-53z" />
<glyph unicode="#" horiz-adv-x="748" d="M33 143v74h134l93 166h-145v74h186l76 135h82l-76 -135h159l76 135h82l-76 -135h92v-74h-133l-92 -166h143v-74h-185l-80 -143h-83l81 143h-159l-80 -143h-83l81 143h-93zM250 217h158l93 166h-159z" />
<glyph unicode="$" horiz-adv-x="512" d="M-1 24l31 156h30v-126q51 -16 115 -16q74 0 124 34.5t50 98.5q0 39 -26.5 69t-64.5 50.5t-75.5 41.5t-64 55t-26.5 79q0 81 60.5 137t157.5 67l20 145q41 14 78 0l-34 -144q40 -2 74.5 -11.5t49.5 -17.5l14 -9l-38 -159h-38l9 124q-47 22 -112 22q-63 0 -103.5 -31.5 t-40.5 -90.5q0 -36 26.5 -64t64.5 -48.5t76 -42.5t64.5 -57t26.5 -80q0 -85 -60 -142.5t-158 -72.5l-19 -144q-39 -14 -78 0l33 139q-50 0 -91.5 9.5t-57.5 18.5z" />
<glyph unicode="%" horiz-adv-x="951" d="M81 497q0 86 58.5 151.5t161.5 65.5q79 0 121 -44t42 -115q0 -91 -61 -152.5t-158 -61.5q-73 0 -118.5 39.5t-45.5 116.5zM176 496q0 -43 19 -72.5t59 -29.5q52 0 82.5 47t30.5 113q0 44 -19.5 75.5t-58.5 31.5q-55 0 -84 -46t-29 -119zM182 0l502 700h97l-501 -700h-98z M507 146q0 86 58.5 151.5t161.5 65.5q79 0 121 -44t42 -115q0 -91 -61 -152.5t-158 -61.5q-73 0 -118.5 39.5t-45.5 116.5zM602 145q0 -43 19 -72.5t59 -29.5q52 0 82.5 47t30.5 113q0 44 -19.5 75.5t-58.5 31.5q-55 0 -84 -46t-29 -119z" />
<glyph unicode="&#x26;" horiz-adv-x="711" d="M27 143q0 65 41.5 116t127.5 97q-60 91 -60 164q0 81 58.5 137.5t148.5 56.5q82 0 122.5 -36t40.5 -95q0 -61 -47 -108t-155 -114l43 -63q62 -93 96 -136q72 81 126 211l-94 14v31h218v-31l-72 -14q-59 -144 -151 -245q81 -96 139 -96h20v-32h-49q-97 0 -172 70 q-100 -80 -207 -80q-78 0 -126 41.5t-48 111.5zM122 164q0 -57 28.5 -87t76.5 -30q76 0 150 54q-19 21 -36 44.5t-44 64l-33 49.5l-47 68l-3 3q-44 -32 -68 -77t-24 -89zM230 542q0 -72 54 -152q130 92 130 182q0 43 -20.5 67.5t-56.5 24.5q-49 0 -78 -36t-29 -86z" />
<glyph unicode="'" horiz-adv-x="210" d="M107 463l16 238l105 5l-68 -243h-53z" />
<glyph unicode="(" horiz-adv-x="321" d="M25 138q0 199 100 370t293 254l13 -25q-106 -58 -179 -158t-104 -207.5t-31 -220.5q0 -241 135 -376l-17 -25q-102 63 -156 163.5t-54 224.5z" />
<glyph unicode=")" horiz-adv-x="323" d="M-121 -225q106 58 179 158t104 207.5t31 220.5q0 241 -135 376l17 25q102 -63 156 -163.5t54 -224.5q0 -199 -100 -370t-293 -254z" />
<glyph unicode="*" horiz-adv-x="538" d="M111 707q9 23 30 28.5t48 -10.5l96 -64l31 19v131q0 26 15 43.5t41 17.5t34 -19t-3 -42l-55 -129l22 -21l120 65q29 15 48.5 9.5t25.5 -28.5q6 -22 -10.5 -38.5t-47.5 -19.5l-129 -17l-19 -35l70 -80q19 -24 15.5 -44t-24.5 -32q-22 -12 -41 -1.5t-26 40.5l-24 97h-38 l-72 -111q-17 -26 -40.5 -32t-35.5 7q-15 9 -13.5 33.5t28.5 44.5l113 80l-4 34l-113 17q-27 4 -38.5 20t-3.5 37z" />
<glyph unicode="+" horiz-adv-x="507" d="M46 253v64h176l33 174h70l-33 -174h165v-64h-178l-33 -173h-70l33 173h-163z" />
<glyph unicode="," horiz-adv-x="243" d="M-22 -149q81 61 106 137q-26 -5 -44.5 10t-18.5 47q0 27 17.5 45t46.5 18q23 0 39 -16t16 -44q0 -63 -39.5 -122t-100.5 -102z" />
<glyph unicode="-" horiz-adv-x="447" d="M77 252v69l291 10v-69z" />
<glyph unicode="." horiz-adv-x="240" d="M20 43q0 26 16.5 45.5t47.5 19.5q24 0 39.5 -16t15.5 -42t-16.5 -45.5t-47.5 -19.5q-24 0 -39.5 16t-15.5 42z" />
<glyph unicode="/" horiz-adv-x="402" d="M-68 -174l431 874h82l-430 -874h-83z" />
<glyph unicode="0" horiz-adv-x="598" d="M57 231q0 73 20 153t57.5 154.5t101.5 123t142 48.5q96 0 139.5 -66.5t43.5 -175.5q0 -57 -12 -120.5t-38.5 -127.5t-63 -115t-91 -83t-117.5 -32q-95 0 -138.5 66.5t-43.5 174.5zM159 228q0 -98 20 -143t74 -45q83 0 143.5 129t60.5 299q0 97 -21 144.5t-74 47.5 q-56 0 -103.5 -62t-73.5 -161t-26 -209z" />
<glyph unicode="1" horiz-adv-x="369" d="M68 618l249 88h26l-137 -706h-98l120 618l-150 -30z" />
<glyph unicode="2" horiz-adv-x="493" d="M-14 0v30q213 212 286 319.5t73 197.5q0 45 -29.5 70.5t-80.5 25.5q-40 0 -75.5 -8.5t-51.5 -17.5l-16 -9v37q10 7 27 18t66 29t93 18q78 0 124 -41.5t46 -111.5q0 -57 -20.5 -110t-72 -115.5t-107.5 -117t-158 -146.5l328 21l-5 -89h-427z" />
<glyph unicode="3" horiz-adv-x="508" d="M-5 56l14 32q62 -33 132 -33q91 0 143 46.5t52 121.5q0 130 -179 130l10 39q96 4 151 47t55 109q0 95 -118 95q-35 0 -67.5 -9t-47.5 -18l-15 -9v38q9 7 25 18t65 29t96 18q76 0 119.5 -38t43.5 -103q0 -67 -51 -120t-140 -72q72 -10 112 -50t40 -107q0 -91 -73 -160.5 t-185 -69.5q-56 0 -101.5 16.5t-63.5 33.5z" />
<glyph unicode="4" horiz-adv-x="546" d="M-4 205l419 515l78 -16l-92 -477l93 2l-7 -70h-100l-17 -90l-13 -93h-99l35 183h-279zM86 222l220 4l55 282l23 96h-3q-21 -40 -59 -87z" />
<glyph unicode="5" horiz-adv-x="511" d="M1 60l12 24q53 -30 142 -30q86 0 135.5 40.5t49.5 113.5q0 163 -242 163l76 329h329l-9 -89l-276 18l-44 -189q268 -10 268 -212q0 -102 -68.5 -170t-190.5 -68q-62 0 -110.5 22t-71.5 48z" />
<glyph unicode="6" horiz-adv-x="539" d="M51 229q5 100 34.5 183t85.5 148.5t146.5 104t209.5 43.5v-40q-285 -17 -355 -288q49 49 132 49q80 0 129 -51t45 -142q-5 -102 -70.5 -174t-176.5 -72q-89 0 -137 67t-43 172zM152 235q-4 -78 19 -136t78 -58t90 54.5t38 129.5q3 66 -25.5 104t-83.5 38q-65 0 -107 -39 q-7 -45 -9 -93z" />
<glyph unicode="7" horiz-adv-x="436" d="M35 7q73 158 174 332t196 299l-319 -22l6 84h399v-26q-178 -270 -366 -691z" />
<glyph unicode="8" horiz-adv-x="545" d="M38 159q0 127 172 207q-44 35 -68 72t-24 89q0 84 61.5 133.5t156.5 49.5q81 0 128.5 -38.5t47.5 -104.5q0 -59 -46.5 -107t-112.5 -79q35 -26 57 -48.5t40 -59.5t18 -81q0 -85 -65.5 -144t-167.5 -59q-91 0 -144 45t-53 125zM134 172q0 -62 27.5 -96.5t79.5 -34.5 q56 0 93 36.5t37 98.5q0 27 -9 50t-32 45.5t-36.5 33t-48.5 35.5q-61 -33 -86 -74t-25 -94zM216 553q0 -45 25.5 -77t75.5 -69q50 32 73.5 65.5t23.5 81.5q0 106 -98 106q-47 0 -73.5 -29t-26.5 -78z" />
<glyph unicode="9" horiz-adv-x="539" d="M31 -10v40q284 16 354 288q-49 -49 -131 -49q-80 0 -129 51t-45 142q5 102 70.5 174t176.5 72q89 0 137 -67t43 -172q-5 -100 -34.5 -183t-85.5 -148.5t-146.5 -104t-209.5 -43.5zM181 473q-3 -66 25.5 -104t83.5 -38q65 0 106 38q7 42 10 94q4 78 -19 136t-78 58 t-90 -54.5t-38 -129.5z" />
<glyph unicode=":" horiz-adv-x="268" d="M31 43q0 26 16.5 45.5t47.5 19.5q24 0 39.5 -16t15.5 -42t-16.5 -45.5t-47.5 -19.5q-24 0 -39.5 16t-15.5 42zM102 441q0 26 16.5 45.5t47.5 19.5q24 0 39.5 -16t15.5 -42t-16.5 -45.5t-47.5 -19.5q-24 0 -39.5 16t-15.5 42z" />
<glyph unicode=";" horiz-adv-x="289" d="M-13 -149q81 61 106 137q-26 -5 -44.5 10t-18.5 47q0 27 17.5 45t46.5 18q23 0 39 -16t16 -44q0 -63 -39.5 -122t-100.5 -102zM123 441q0 26 16.5 45.5t47.5 19.5q24 0 39.5 -16t15.5 -42t-16.5 -45.5t-47.5 -19.5q-24 0 -39.5 16t-15.5 42z" />
<glyph unicode="&#x3c;" horiz-adv-x="435" d="M40 291v9l272 200h104l-287 -212l187 -237h-85z" />
<glyph unicode="=" horiz-adv-x="610" d="M96 152v69h411v-69h-411zM96 342v69h411v-69h-411z" />
<glyph unicode="&#x3e;" horiz-adv-x="432" d="M9 50l287 212l-187 237h85l191 -240v-9l-272 -200h-104z" />
<glyph unicode="?" horiz-adv-x="431" d="M105 46q0 26 16.5 45.5t47.5 19.5q24 0 39.5 -16t15.5 -42t-16.5 -45.5t-47.5 -19.5q-24 0 -39.5 16t-15.5 42zM106 271q0 39 22.5 72t55 57.5t65 48.5t55 55.5t22.5 67.5q0 83 -102 83q-30 0 -58.5 -6t-41.5 -12l-14 -6v40q7 5 19.5 12t55.5 19t90 12q76 0 114 -37.5 t38 -95.5q0 -43 -23.5 -80t-56.5 -63.5t-66 -50.5t-56.5 -50.5t-23.5 -53.5q0 -23 18 -29t41 10l20 -30q-53 -38 -97 -38q-34 0 -55.5 20t-21.5 55z" />
<glyph unicode="@" horiz-adv-x="878" d="M25 100q0 105 34.5 199t97.5 165.5t158.5 114t209.5 42.5q128 0 211 -77.5t83 -226.5q0 -117 -73 -222t-165 -105q-75 0 -95 63q-5 -7 -14 -17.5t-41.5 -28t-69.5 -17.5q-64 0 -100.5 47t-36.5 128q0 60 23.5 119t75 102.5t120.5 43.5q30 0 55 -9t36 -19l10 -9l79 42h11 l-60 -348q-4 -16 2.5 -29.5t23.5 -13.5q52 0 86 76.5t34 173.5q0 126 -62.5 197t-172.5 71q-112 0 -196 -66.5t-124 -164.5t-40 -208q0 -117 52.5 -184.5t164.5 -67.5q29 0 56 4l-4 -46q-43 -7 -87 -7q-139 0 -210.5 73t-71.5 205zM322 166q0 -50 19.5 -81.5t52.5 -31.5 q25 0 47 11.5t32 23.5l10 12l41 237q-20 32 -68 32q-62 0 -98 -57t-36 -146z" />
<glyph unicode="A" horiz-adv-x="631" d="M-49 0v31l73 13l321 657l83 6l95 -663l71 -13v-31h-243v31l70 13l-22 164h-233l-24 -53q-24 -52 -43 -111l83 -13v-31h-231zM190 258h202l-34 256l-9 89h-4q-12 -39 -34 -86z" />
<glyph unicode="B" horiz-adv-x="612" d="M2 0v31l80 13l110 612l-79 13v31h230q108 0 163 -39.5t55 -110.5q0 -66 -44.5 -115.5t-104.5 -63.5l-1 -3q61 -9 100 -48.5t39 -95.5q0 -107 -85 -165.5t-210 -58.5h-253zM182 50h80q84 0 136 44.5t52 119.5q0 59 -33 92.5t-98 33.5h-86zM242 390h112q49 19 76.5 57.5 t27.5 88.5q0 114 -131 114h-39z" />
<glyph unicode="C" horiz-adv-x="592" d="M55 258q0 79 27.5 159.5t76.5 147t124 108t162 41.5q46 0 86.5 -10t58.5 -20l18 -10l-31 -144h-39l2 108q-42 29 -105 29q-110 0 -192 -118t-82 -288q0 -100 50 -163.5t139 -63.5q27 0 70 13l50 126h42l-32 -148q-58 -39 -151 -39q-129 0 -201.5 77.5t-72.5 194.5z" />
<glyph unicode="D" horiz-adv-x="692" d="M2 0v31l80 13l110 612l-79 13v31h242q146 0 224 -73t78 -194q0 -185 -120.5 -309t-301.5 -124h-233zM182 50h70q126 0 213 105.5t87 263.5q0 110 -55.5 170.5t-166.5 60.5h-42z" />
<glyph unicode="E" horiz-adv-x="561" d="M2 31l80 13l110 612l-79 13v31h458l-30 -170h-41l1 114l-213 6l-47 -267h195l-11 -61l-193 11l-50 -283l220 4l53 119h41l-39 -173h-454z" />
<glyph unicode="F" horiz-adv-x="534" d="M2 31l80 13l110 612l-79 13v31h458l-30 -170h-41l1 114l-213 6l-51 -287h196l-11 -61l-194 10l-48 -268l90 -13v-31h-267z" />
<glyph unicode="G" horiz-adv-x="659" d="M56 258q0 88 28.5 169.5t79.5 145.5t130.5 102.5t173.5 38.5q44 0 84 -10t58 -20l19 -10l-31 -144h-36v107q-53 30 -106 30q-72 0 -130.5 -38t-92.5 -97t-52.5 -124t-18.5 -126q0 -117 50 -182.5t126 -65.5q44 0 81 11l41 215l-98 14v31h268v-31l-72 -14l-45 -242 q-92 -32 -179 -32q-72 0 -127.5 24t-87.5 64.5t-47.5 87t-15.5 96.5z" />
<glyph unicode="H" horiz-adv-x="755" d="M2 0v31l80 13l110 612l-79 13l1 31h258l-1 -31l-81 -13l-49 -271h304l49 271l-79 13l1 31h258l-1 -31l-81 -13l-110 -612l79 -13l-1 -31h-258l1 31l81 13l52 291h-304l-52 -291l79 -13l-1 -31h-256z" />
<glyph unicode="I" horiz-adv-x="353" d="M2 0v31l80 13l110 612l-79 13v31h258v-31l-81 -13l-110 -612l79 -13v-31h-257z" />
<glyph unicode="J" horiz-adv-x="338" d="M-37 -141l51 58q33 37 46 69.5t24 92.5l103 577l-79 13v31h258v-31l-81 -13l-94 -525q-13 -73 -38 -118q-6 -12 -13 -23t-16 -22.5t-15.5 -20t-18.5 -21t-17.5 -18.5t-20.5 -19.5t-19.5 -18t-22 -20.5t-21.5 -19z" />
<glyph unicode="K" horiz-adv-x="643" d="M2 0v31l80 13l110 612l-79 13v31h253v-31l-76 -13l-48 -267h74l208 267l-62 13v31h214v-31l-75 -13l-233 -272l188 -345l47 -8v-31h-135l-182 339h-53l-53 -295l79 -13l-1 -31h-256z" />
<glyph unicode="L" horiz-adv-x="538" d="M2 0v31l80 13l110 612l-79 13v31h258v-31l-81 -13l-108 -606l221 4l53 119h41l-39 -173h-456z" />
<glyph unicode="M" horiz-adv-x="878" d="M3 0v31l80 17l109 608l-79 13v31h198l101 -400l12 -69h3q14 30 36 66l249 403h184v-31l-81 -13l-109 -610l78 -15v-31h-252v31l82 15l83 469l23 111h-3q-29 -60 -54 -100l-267 -426h-20l-110 428l-23 102h-3q-2 -40 -16 -118l-83 -464l78 -17v-31h-216z" />
<glyph unicode="N" horiz-adv-x="739" d="M-4 0v31l80 16l105 592l-20 36v25l89 4l251 -473l35 -78l4 1q4 46 12 87l73 410l-77 18v31h218v-31l-83 -18l-115 -651l-40 -7l-265 498l-38 79l-3 -1q-3 -44 -12 -90l-76 -432l78 -16v-31h-216z" />
<glyph unicode="O" horiz-adv-x="698" d="M55 244q0 77 23.5 158t66 151.5t112.5 115.5t154 45q118 0 184.5 -70t66.5 -188q0 -77 -23.5 -158t-66 -151.5t-112.5 -115.5t-154 -45q-118 0 -184.5 70t-66.5 188zM161 261q0 -102 38.5 -165t115.5 -63q65 0 121.5 61t88 154.5t31.5 190.5q0 102 -38.5 165t-115.5 63 q-65 0 -121.5 -61t-88 -154t-31.5 -191z" />
<glyph unicode="P" horiz-adv-x="589" d="M2 0v31l80 13l110 612l-79 13v31h246q111 0 171 -44t60 -129q0 -113 -84.5 -181.5t-211.5 -68.5h-72l-42 -233l100 -13v-31h-278zM231 327h72q78 0 131.5 49.5t53.5 136.5q0 137 -152 137h-48z" />
<glyph unicode="Q" horiz-adv-x="698" d="M55 244q0 77 23.5 158t66 151.5t112.5 115.5t154 45q118 0 184.5 -70t66.5 -188q0 -85 -26 -172t-82 -163t-131 -110q28 -23 41 -44l55 -84q23 -36 44 -47t53 -11v-31h-60q-52 0 -83.5 14t-60.5 60l-75 120q-20 -2 -31 -2q-118 0 -184.5 70t-66.5 188zM161 261 q0 -102 38.5 -165t115.5 -63q65 0 121.5 61t88 154.5t31.5 190.5q0 102 -38.5 165t-115.5 63q-65 0 -121.5 -61t-88 -154t-31.5 -191z" />
<glyph unicode="R" horiz-adv-x="636" d="M-2 0v31l85 13l109 612l-78 13v31h246q231 0 231 -180q0 -82 -57 -135.5t-141 -72.5l165 -277l35 -6v-29h-124l-169 295h-75l-44 -251l99 -13v-31h-282zM234 345h72q81 0 132.5 47t51.5 126q0 132 -153 132h-48z" />
<glyph unicode="S" d="M22 25l37 148h38v-120q46 -15 112 -15q63 0 103.5 33.5t40.5 91.5t-26 91t-91 77q-72 50 -94 73q-48 50 -48 117q0 79 66 136t175 57q52 0 93 -11t56 -21l16 -11l-37 -141h-39v108q-46 24 -97 24q-64 0 -103.5 -33t-39.5 -87q0 -46 26 -75.5t95 -76.5q28 -19 41 -29 t36 -30.5t33.5 -39t19.5 -46.5t9 -60q0 -88 -62.5 -143.5t-180.5 -55.5q-51 0 -95.5 9.5t-63.5 19.5z" />
<glyph unicode="T" horiz-adv-x="592" d="M66 530l29 170h544l-29 -170h-46v112l-157 9l-108 -607l79 -13l-1 -31h-258l1 31l81 13l108 607l-159 -9l-47 -112h-37z" />
<glyph unicode="U" horiz-adv-x="698" d="M99 669v31h258v-31l-82 -14l-72 -404q-18 -100 9.5 -156t106.5 -56q88 0 131.5 56.5t62.5 165.5l71 394l-83 14v31h233v-31l-82 -14l-66 -371q-9 -48 -19.5 -85t-32 -79.5t-50 -69.5t-74 -45.5t-104.5 -18.5q-125 0 -174 72.5t-26 204.5l71 393z" />
<glyph unicode="V" horiz-adv-x="636" d="M54 669v31h243v-31l-70 -13l71 -464l10 -89h4q11 39 33 86l170 356q12 26 22.5 53.5t14.5 42.5l5 15l-83 13v31h231v-31l-73 -13l-322 -657l-79 -6l-106 663z" />
<glyph unicode="W" horiz-adv-x="920" d="M56 669v31h259v-31l-85 -13l36 -434l4 -121h4q12 52 37 117l184 482l80 5l38 -492q2 -29 2.5 -58t0.5 -43l-1 -15h4q14 49 42 115l141 335q11 26 20.5 53.5t13.5 41.5l4 14l-79 13v31h226v-31l-67 -13q-60 -118 -96 -201l-197 -455l-91 -6l-36 461l-4 112h-4 q-16 -58 -36 -110l-174 -457l-89 -6l-62 662z" />
<glyph unicode="X" horiz-adv-x="658" d="M-38 0v31l69 16l260 296l-146 312l-69 14v31h265v-31l-88 -13l110 -251q19 26 53 68l81 100q15 19 27.5 38.5t17.5 29.5l5 10l-74 18v31h234v-31l-71 -15l-250 -289l153 -321l70 -13v-31h-264v31l90 13l-121 260q-17 -29 -51 -69l-92 -108q-15 -18 -28.5 -38t-19.5 -31 l-6 -11l77 -16v-31h-232z" />
<glyph unicode="Y" horiz-adv-x="609" d="M51 669v31h241v-31l-77 -13l89 -223l30 -88h4q23 38 58 90l95 141q12 18 22.5 37t14.5 29l4 10l-66 17v31h211v-31l-67 -15l-248 -355l-46 -255l79 -13l-1 -31h-258l1 31l81 13l46 255l-146 357z" />
<glyph unicode="Z" horiz-adv-x="532" d="M-6 0v25l420 623l-226 -8l-41 -109h-41l29 169h399v-25l-422 -624l267 9l48 113h38l-36 -173h-435z" />
<glyph unicode="[" horiz-adv-x="299" d="M-2 -239l173 984h178l-9 -51h-100l-155 -882h100l-9 -51h-178z" />
<glyph unicode="\" horiz-adv-x="447" d="M78 700h82l262 -874h-83z" />
<glyph unicode="]" horiz-adv-x="300" d="M-63 -239l9 51h99l155 882h-100l9 51h178l-173 -984h-177z" />
<glyph unicode="^" horiz-adv-x="467" d="M20 533l205 227h17l205 -227h-94l-120 139l-120 -139h-93z" />
<glyph unicode="_" horiz-adv-x="506" d="M-54 -110h460v-63h-460v63z" />
<glyph unicode="`" horiz-adv-x="312" d="M59 766l74 49l108 -205l-34 -23z" />
<glyph unicode="a" horiz-adv-x="562" d="M33 140q0 150 82 260t193 110q68 0 114 -37l51 33l20 -5l-97 -451l124 82v-49l-87 -58q-47 -32 -78 -32q-25 0 -41 20t-8 55l5 23l-66 -49q-62 -47 -113 -47q-42 0 -70.5 36.5t-28.5 108.5zM134 155q0 -91 42 -91q24 0 55 22l93 67l55 256q-24 59 -73 59q-70 0 -121 -100 t-51 -213z" />
<glyph unicode="b" horiz-adv-x="536" d="M23 -10l155 724l-81 8v31l165 15l20 -5l-76 -353l70 52q62 47 113 47q42 0 70.5 -36.5t28.5 -108.5q0 -150 -82 -260t-193 -110q-74 0 -123 43l-46 -47h-21zM139 99q25 -63 76 -63q70 0 121 100t51 213q0 91 -42 91q-24 0 -55 -22l-97 -70z" />
<glyph unicode="c" horiz-adv-x="432" d="M38 185q0 78 30.5 152t87.5 123.5t126 49.5q36 0 76 -10.5t50 -11.5l-26 -80q-27 7 -56 32t-52 25q-39 0 -71 -44.5t-48.5 -107t-16.5 -124.5q0 -139 71 -139q43 0 90 36l61 47v-51l-46 -35q-73 -57 -131 -57q-69 0 -107 51.5t-38 143.5z" />
<glyph unicode="d" horiz-adv-x="573" d="M33 140q0 150 82 260t193 110q48 0 90 -21l49 226l-81 8v31l165 15l20 -5l-152 -711l123 80v-49l-87 -58q-47 -32 -78 -32q-25 0 -41 20t-8 55l5 24l-68 -51q-62 -47 -113 -47q-42 0 -70.5 36.5t-28.5 108.5zM134 155q0 -91 42 -91q24 0 55 22l95 69l54 252 q-24 61 -74 61q-70 0 -121 -100t-51 -213z" />
<glyph unicode="e" horiz-adv-x="461" d="M37 174q0 141 80.5 238.5t188.5 97.5q61 0 94.5 -29t33.5 -70q0 -96 -149 -147l-147 -50q-1 -10 -1 -28q0 -67 21.5 -101.5t55.5 -34.5q43 0 90 36l61 47v-51l-46 -35q-75 -58 -131 -57q-70 0 -110.5 50t-40.5 134zM143 261l73 28q61 23 88 51.5t27 69.5q0 25 -14.5 39.5 t-35.5 14.5q-50 0 -87 -59.5t-51 -143.5z" />
<glyph unicode="f" horiz-adv-x="384" d="M-9 0v31l80 11l84 413h-85v45h94l3 14q20 100 80 171t139 71q29 0 71 -8.5t58 -10.5l-19 -81q-29 4 -68 29.5t-60 25.5q-40 0 -63 -42.5t-42 -139.5l-6 -29h132v-45h-141l-84 -413l110 -11v-31h-283z" />
<glyph unicode="g" horiz-adv-x="535" d="M-49 -209l33 84q32 -12 88.5 -50t87.5 -38q42 0 74.5 42.5t50.5 126.5l29 137l-69 -51q-62 -47 -113 -47q-42 0 -70.5 36.5t-28.5 108.5q0 150 82 260t193 110q70 0 119 -41l48 35l20 -5l-109 -504q-25 -114 -83 -184t-148 -70q-28 0 -56.5 5t-46.5 11t-50 17t-51 17z M134 155q0 -91 42 -91q24 0 55 22l96 69l53 252q-24 61 -74 61q-70 0 -121 -100t-51 -213z" />
<glyph unicode="h" horiz-adv-x="559" d="M25 0l153 714l-81 8v31l165 15l20 -5l-75 -350l105 71q37 26 72 26q54 0 74 -41t7 -105l-67 -313l124 81v-49l-87 -58q-47 -32 -78 -32q-25 0 -40.5 19.5t-7.5 54.5l65 306q9 43 -11.5 59.5t-62.5 -9.5l-105 -68l-76 -355h-94z" />
<glyph unicode="i" horiz-adv-x="326" d="M53 68l84 388l-81 8v31l165 15l20 -5l-97 -456l123 83v-49l-87 -58q-47 -32 -78 -32q-25 0 -41 20t-8 55zM154 659q0 26 16.5 45.5t47.5 19.5q24 0 39.5 -16t15.5 -42t-16.5 -45.5t-47.5 -19.5q-24 0 -39.5 16t-15.5 42z" />
<glyph unicode="j" horiz-adv-x="281" d="M-221 -238l20 81q29 -4 67.5 -28.5t59.5 -24.5q42 0 65 42.5t42 129.5l105 494l-81 8v31l165 15l20 -5l-109 -505q-23 -107 -81 -182t-144 -75q-29 0 -71 8.5t-58 10.5zM155 659q0 26 16.5 45.5t47.5 19.5q24 0 39.5 -16t15.5 -42t-16.5 -45.5t-47.5 -19.5 q-24 0 -39.5 16t-15.5 42z" />
<glyph unicode="k" horiz-adv-x="516" d="M25 0l153 714l-81 8v31l165 15l20 -5l-163 -763h-94zM180 250v4q115 154 170 203.5t119 49.5l-26 -100q-39 0 -77.5 -23.5t-104.5 -96.5l108 -227l111 72v-51l-73 -48q-36 -23 -50 -30t-29 -7q-25 0 -37 24z" />
<glyph unicode="l" horiz-adv-x="296" d="M40 68l139 646l-81 8v31l165 15l20 -5l-153 -713l124 82v-49l-87 -58q-47 -32 -78 -32q-25 0 -41 20t-8 55z" />
<glyph unicode="m" horiz-adv-x="822" d="M41 0l97 456l-80 8v31l165 15l20 -5l-20 -92l105 71q37 26 72 26q80 0 76 -99l108 73q37 26 72 26q37 0 56 -22t19.5 -56t-6.5 -75l-64 -305l123 80v-49l-87 -58q-47 -32 -78 -32q-25 0 -40.5 19.5t-7.5 54.5l61 289q12 59 -0.5 76.5t-57.5 -9.5l-106 -68l-74 -355h-93 l75 356q12 59 -0.5 76.5t-57.5 -9.5l-108 -70l-75 -353h-94z" />
<glyph unicode="n" horiz-adv-x="576" d="M41 0l97 456l-80 8v31l165 15l20 -5l-20 -92l105 71q37 26 72 26q53 0 74 -39.5t7 -106.5l-67 -313l124 81v-49l-87 -58q-47 -32 -78 -32q-25 0 -40.5 19.5t-7.5 54.5l65 306q10 47 -15.5 60.5t-58.5 -10.5l-105 -68l-76 -355h-94z" />
<glyph unicode="o" horiz-adv-x="514" d="M36 167q0 79 28.5 155.5t92 132t148.5 55.5q74 0 116 -46t42 -128q0 -58 -17 -117t-48.5 -111t-85 -85t-118.5 -33q-74 0 -116 46t-42 131zM136 163q0 -131 76 -131q44 0 76.5 38t48 93.5t22 101t6.5 76.5q0 127 -76 127q-42 0 -73.5 -32.5t-47.5 -83t-24 -98.5t-8 -91z " />
<glyph unicode="p" horiz-adv-x="550" d="M-84 -219l79 11l144 664l-80 8v31l165 15l20 -5l-21 -94l107 72q39 27 74 27q99 0 99 -145q0 -150 -82.5 -262.5t-193.5 -112.5q-48 0 -90 22l-48 -220l110 -11v-31h-283v31zM155 98q13 -31 36 -48.5t48 -17.5q43 0 81.5 52.5t60 128t21.5 147.5q0 81 -37 81 q-16 0 -45 -18l-109 -70z" />
<glyph unicode="q" horiz-adv-x="535" d="M33 140q0 150 82 260t193 110q70 0 119 -41l48 35l20 -5l-153 -707l80 -11v-31h-283v31l110 11l64 301l-68 -51q-62 -47 -113 -47q-42 0 -70.5 36.5t-28.5 108.5zM134 155q0 -91 42 -91q24 0 55 22l96 69l53 252q-24 61 -74 61q-70 0 -121 -100t-51 -213z" />
<glyph unicode="r" horiz-adv-x="427" d="M41 0l97 456l-80 8v31l165 15l20 -5l-27 -127l52 71q45 61 83 61q17 0 30 -5.5t30 -17t33 -18.5l-42 -81q-24 9 -45.5 27t-31.5 18t-18 -6.5t-25 -28.5l-87 -117l-60 -281h-94z" />
<glyph unicode="s" horiz-adv-x="394" d="M-2 15l20 81q27 -4 77.5 -29t78.5 -25q51 0 51 60q0 32 -15.5 60t-37.5 50.5l-44 45t-37.5 53t-15.5 65.5q0 55 44 94.5t114 39.5q34 0 74.5 -10t57.5 -11l-19 -79q-28 4 -66 30t-64 26q-52 0 -52 -66q0 -30 24 -61.5t52 -56t52 -63.5t24 -82q0 -67 -44 -105.5 t-118 -38.5q-36 0 -90 10.5t-66 11.5z" />
<glyph unicode="t" horiz-adv-x="381" d="M50 455v45h93l19 90l76 42h28l-28 -132h131v-45h-141l-67 -320q-11 -51 10.5 -68t71.5 14l83 54v-52l-70 -48q-63 -43 -107 -43q-57 0 -75 43.5t-4 109.5l64 310h-84z" />
<glyph unicode="u" horiz-adv-x="572" d="M50 464v31l165 15l20 -5l-81 -379q-8 -41 13 -56t66 12l100 64l77 354h94l-98 -448l123 80v-49l-87 -58q-47 -32 -78 -32q-25 0 -40.5 19.5t-7.5 54.5l4 21l-103 -70q-37 -26 -75 -26q-50 0 -71 39t-8 99l67 326z" />
<glyph unicode="v" horiz-adv-x="485" d="M37 464v31l152 15l20 -5l17 -414q142 147 170 365l-70 8v31l128 13l21 -5q-37 -310 -261 -477l-35 -26h-40l-20 455z" />
<glyph unicode="w" horiz-adv-x="735" d="M37 464v31l150 15l20 -5l9 -407q49 63 96.5 158.5t67.5 167.5l-1 31l-67 9v31l133 15l20 -5l10 -418q70 66 115 167t54 202l-71 8v31l128 13l21 -5q-13 -154 -80.5 -277t-180.5 -201l-37 -25h-35l-7 300q-31 -77 -82.5 -153.5t-107.5 -124.5l-26 -22h-37l-10 455z" />
<glyph unicode="x" horiz-adv-x="528" d="M4 -10l21 102q74 0 186 155l-84 208l-82 9v31l140 15l20 -5l78 -193q66 104 114.5 149.5t100.5 45.5l-21 -102q-70 0 -175 -140l88 -218l82 -9v-31l-139 -15l-20 5l-83 204q-72 -114 -122.5 -162.5t-103.5 -48.5z" />
<glyph unicode="y" d="M1 -200q34 35 106.5 83.5t99.5 73.5l-91 498l-82 9v31l149 15l20 -5l77 -451q52 88 88.5 200.5t40.5 200.5l-79 9v31l128 13l21 -5q0 -123 -58.5 -268t-132.5 -246q-41 -56 -76.5 -96t-87 -90t-67.5 -67z" />
<glyph unicode="z" horiz-adv-x="432" d="M-3 0v21l314 406l-185 -7l-22 -54h-38l29 134h318v-21l-313 -406l194 7l22 55h38l-29 -135h-328z" />
<glyph unicode="{" horiz-adv-x="319" d="M9 239v35q59 12 90 41t44 97l36 185q15 74 51.5 111t101.5 37h54v-31h-29q-77 0 -100 -117l-34 -175q-19 -99 -108 -152q30 -14 45.5 -53.5t5.5 -91.5l-42 -216q-23 -117 54 -117h23l-1 -31h-59q-65 0 -87.5 37t-7.5 111l40 209q21 106 -3 137q-38 -13 -74 -16z" />
<glyph unicode="|" horiz-adv-x="261" d="M-7 -259l181 1024h78l-181 -1024h-78z" />
<glyph unicode="}" horiz-adv-x="323" d="M-78 -208h29q77 0 100 117l34 175q19 99 108 152q-30 14 -45.5 53.5t-5.5 91.5l42 216q23 117 -54 117h-23l1 31h59q65 0 87.5 -37t7.5 -111l-40 -209q-21 -106 3 -137q38 13 74 16v-35q-59 -12 -90 -41t-44 -97l-36 -185q-15 -74 -51.5 -111t-101.5 -37h-54v31z" />
<glyph unicode="~" horiz-adv-x="542" d="M63 240q0 56 31.5 94t80.5 38q44 0 98.5 -32.5t96.5 -32.5q26 0 48 17.5t35 49.5l30 -11q0 -55 -31.5 -93.5t-78.5 -38.5q-39 0 -96.5 32.5t-97.5 32.5q-60 0 -86 -67z" />
<glyph unicode="&#xa2;" horiz-adv-x="441" d="M36 185q0 116 64.5 214.5t160.5 108.5l23 112h58l-23 -113q17 -2 43.5 -9.5t43.5 -9.5l-26 -80q-27 7 -56 32t-52 25q-39 0 -71 -44.5t-48.5 -107t-16.5 -124.5q0 -139 71 -139q43 0 90 36l61 47v-51l-46 -35q-56 -45 -102 -54l-22 -107h-58l22 107q-56 10 -86 60 t-30 132z" />
<glyph unicode="&#xa3;" horiz-adv-x="570" d="M18 0v34q56 26 84 75.5t32 144.5l2 42h-80v50h82l6 111q7 128 81 193t195 65q31 0 65 -5t53 -10l18 -5l-31 -180h-39v128q-35 8 -87 8q-81 0 -117.5 -45t-40.5 -127l-7 -133h179v-50h-181q-4 -93 -29 -150t-89 -90l300 16l36 108h42l-33 -180h-441z" />
<glyph unicode="&#xa5;" horiz-adv-x="703" d="M102 669v31h241v-31l-77 -13l89 -223l30 -88h4q23 38 58 90l95 141q12 18 22.5 37t14.5 29l4 10l-66 17v31h211v-31l-67 -15l-231 -330h106v-60h-130l-14 -81h144v-60h-155l-14 -79l79 -13l-1 -31h-258l1 31l81 13l14 79h-118v60h129l14 81h-143v60h140l-136 332z" />
<glyph unicode="&#xa8;" horiz-adv-x="502" d="M94 679q0 26 16.5 45.5t47.5 19.5q24 0 39.5 -16t15.5 -42t-16.5 -45.5t-47.5 -19.5q-24 0 -39.5 16t-15.5 42zM287 679q0 26 16.5 45.5t47.5 19.5q24 0 39.5 -16t15.5 -42t-16.5 -45.5t-47.5 -19.5q-24 0 -39.5 16t-15.5 42z" />
<glyph unicode="&#xa9;" horiz-adv-x="820" d="M55 281q0 117 54.5 216.5t155.5 159.5t226 60q140 0 217.5 -76.5t77.5 -212.5q0 -117 -54.5 -216.5t-155.5 -159.5t-226 -60q-140 0 -217.5 76.5t-77.5 212.5zM142 281q0 -106 59.5 -174.5t157.5 -68.5q141 0 240.5 111.5t99.5 278.5q0 106 -59.5 174.5t-157.5 68.5 q-141 0 -240.5 -111.5t-99.5 -278.5zM255 310q0 107 75 179t167 72q28 0 51.5 -4t33.5 -8l9 -4l-28 -130h-36v95q-24 3 -25 3q-74 0 -118.5 -55t-44.5 -136q0 -52 24 -83.5t73 -31.5q24 0 49.5 5t38.5 10l14 5l-9 -43q-47 -25 -122 -25q-71 0 -111.5 40t-40.5 111z" />
<glyph unicode="&#xab;" d="M19 240l6 29q19 16 57.5 47t51 41t37 30t36.5 31t28 26t31 31l20 -18q-33 -54 -71.5 -97.5t-102.5 -105.5q65 -88 108 -223l-28 -15q-71 115 -173 224zM229 240l6 29q99 80 138.5 114.5t84.5 81.5l21 -18q-65 -104 -157 -193q74 -101 104 -203l-26 -15q-28 45 -59 81.5 t-112 122.5z" />
<glyph unicode="&#xad;" horiz-adv-x="447" d="M77 252v69l291 10v-69z" />
<glyph unicode="&#xae;" horiz-adv-x="501" d="M85 490q0 94 67 159.5t174 65.5q77 0 122.5 -42.5t45.5 -109.5q0 -94 -67 -159.5t-174 -65.5q-77 0 -122.5 42.5t-45.5 109.5zM148 491q0 -59 29.5 -88.5t81.5 -29.5q68 0 120 50t52 139q0 59 -29.5 89t-81.5 30q-67 0 -119.5 -51t-52.5 -139zM181 433v19l25 4l27 141 l-32 6v20h113q68 0 68 -51q0 -43 -48 -59l23 -58l21 -5v-17h-65l-24 64h-27l-13 -64h-68zM267 522h20q44 0 44 42q0 33 -32 33h-18z" />
<glyph unicode="&#xb4;" horiz-adv-x="294" d="M48 624l173 153l52 -72l-202 -115z" />
<glyph unicode="&#xb8;" horiz-adv-x="240" d="M28 -182l10 20q27 -15 64 -15q28 0 42 13t14 32q0 13 -14 20.5t-35 7.5q-19 0 -39 -6l-12 13l73 81h41l-51 -53q39 6 73 -8t34 -50q0 -45 -30 -69t-65 -24q-32 0 -58 9.5t-37 18.5z" />
<glyph unicode="&#xbb;" horiz-adv-x="514" d="M18 43q65 104 157 193q-74 101 -104 203l26 15q28 -45 59 -81.5t112 -122.5l-6 -29q-99 -80 -138.5 -114.5t-84.5 -81.5zM211 33q33 54 71.5 97.5t102.5 105.5q-65 88 -108 223l28 15q71 -115 173 -224l-6 -29q-19 -16 -57.5 -47t-51 -41t-37 -30t-36.5 -31t-28 -26 t-31 -31z" />
<glyph unicode="&#x2c6;" horiz-adv-x="384" d="M32 592l159 119h29l105 -124l-25 -24l-103 69l-148 -70z" />
<glyph unicode="&#x2da;" horiz-adv-x="308" d="M39 614q0 47 34 73t78 26q40 0 65.5 -20.5t25.5 -58.5q0 -47 -34 -73t-78 -26q-40 0 -65.5 20.5t-25.5 58.5zM89 619q0 -22 12 -35t33 -13q24 0 41 16.5t17 41.5q0 22 -12 35t-33 13q-24 0 -41 -16.5t-17 -41.5z" />
<glyph unicode="&#x2dc;" horiz-adv-x="424" d="M28 554q39 104 113 104q36 0 77.5 -23.5t64.5 -23.5q30 0 63 46l35 -13q-18 -49 -42 -76t-62 -27q-37 0 -76 23t-61 23q-24 0 -39.5 -9.5t-36.5 -33.5z" />
<glyph unicode="&#x401;" horiz-adv-x="561" d="M2 31l80 13l110 612l-79 13v31h458l-30 -170h-41l1 114l-213 6l-47 -267h195l-11 -61l-193 11l-50 -283l220 4l53 119h41l-39 -173h-454zM224 834q0 26 16.5 45.5t47.5 19.5q24 0 39.5 -16t15.5 -42t-16.5 -45.5t-47.5 -19.5q-24 0 -39.5 16t-15.5 42zM417 834 q0 26 16.5 45.5t47.5 19.5q24 0 39.5 -16t15.5 -42t-16.5 -45.5t-47.5 -19.5q-24 0 -39.5 16t-15.5 42z" />
<glyph unicode="&#x402;" horiz-adv-x="714" d="M66 530l29 170h544l-29 -170h-46v112l-157 9l-43 -241q60 25 111 25q87 0 136.5 -46t49.5 -125q0 -136 -66.5 -221t-179.5 -125l-15 30q161 84 161 307q0 117 -119 117q-54 0 -86 -8l-57 -320l79 -13l-1 -31h-258l1 31l81 13l108 607l-159 -9l-47 -112h-37z" />
<glyph unicode="&#x403;" horiz-adv-x="525" d="M2 31l80 13l110 612l-79 13v31h458l-30 -170h-41l1 114l-213 6l-108 -606l90 -13v-31h-267zM327 812l173 153l52 -72l-202 -115z" />
<glyph unicode="&#x404;" horiz-adv-x="589" d="M55 258q0 79 27.5 159.5t76.5 147t124 108t162 41.5q46 0 86.5 -10t58.5 -20l18 -10l-31 -144h-39l2 108q-42 29 -105 29q-90 0 -164 -82t-99 -212l271 17l-13 -78l-266 12q-3 -32 -3 -63q0 -100 50 -163.5t139 -63.5q27 0 70 13l50 126h42l-32 -148q-58 -39 -151 -39 q-129 0 -201.5 77.5t-72.5 194.5z" />
<glyph unicode="&#x405;" d="M22 25l37 148h38v-120q46 -15 112 -15q63 0 103.5 33.5t40.5 91.5t-26 91t-91 77q-72 50 -94 73q-48 50 -48 117q0 79 66 136t175 57q52 0 93 -11t56 -21l16 -11l-37 -141h-39v108q-46 24 -97 24q-64 0 -103.5 -33t-39.5 -87q0 -46 26 -75.5t95 -76.5q28 -19 41 -29 t36 -30.5t33.5 -39t19.5 -46.5t9 -60q0 -88 -62.5 -143.5t-180.5 -55.5q-51 0 -95.5 9.5t-63.5 19.5z" />
<glyph unicode="&#x406;" horiz-adv-x="350" d="M-5 0l2 21l85 23l107 612l-75 23l3 21h258l-3 -21l-85 -23l-107 -612l75 -23l-3 -21h-257z" />
<glyph unicode="&#x407;" horiz-adv-x="353" d="M2 0v31l80 13l110 612l-79 13v31h258v-31l-81 -13l-110 -612l79 -13v-31h-257zM104 836q0 26 16.5 45.5t47.5 19.5q24 0 39.5 -16t15.5 -42t-16.5 -45.5t-47.5 -19.5q-24 0 -39.5 16t-15.5 42zM297 836q0 26 16.5 45.5t47.5 19.5q24 0 39.5 -16t15.5 -42t-16.5 -45.5 t-47.5 -19.5q-24 0 -39.5 16t-15.5 42z" />
<glyph unicode="&#x408;" horiz-adv-x="338" d="M-37 -141l51 58q33 37 46 69.5t24 92.5l103 577l-79 13v31h258v-31l-81 -13l-94 -525q-13 -73 -38 -118q-6 -12 -13 -23t-16 -22.5t-15.5 -20t-18.5 -21t-17.5 -18.5t-20.5 -19.5t-19.5 -18t-22 -20.5t-21.5 -19z" />
<glyph unicode="&#x409;" horiz-adv-x="927" d="M-38 78q26 -2 37 -2q71 0 117 91q35 68 79 229t62 260l-77 13v31h532v-31l-93 -13l-42 -241h88q216 0 216 -164q0 -110 -82.5 -180.5t-211.5 -70.5h-256v31l83 13l105 602h-203q-79 -377 -156 -528q-64 -128 -146 -128q-16 0 -28.5 2.5t-17.5 5.5l-5 2zM513 50h64 q93 0 148 54t55 139q0 65 -35.5 93.5t-115.5 28.5h-61z" />
<glyph unicode="&#x40a;" horiz-adv-x="998" d="M2 0v31l80 13l110 612l-79 13l1 31h258l-1 -31l-81 -13l-49 -271h303l48 271l-76 13v31h267v-31l-93 -13l-42 -241h88q216 0 216 -164q0 -110 -82.5 -180.5t-211.5 -70.5h-256v31l83 13l51 291h-304l-52 -291l79 -13l-1 -31h-256zM584 50h64q93 0 148 54t55 139 q0 65 -35.5 93.5t-115.5 28.5h-61z" />
<glyph unicode="&#x40b;" horiz-adv-x="752" d="M66 530l29 170h544l-29 -170h-46v112l-157 9l-44 -244q84 28 149 28q95 0 128.5 -55t17.5 -149l-33 -187l77 -13l-1 -31h-247l1 31l73 13l31 180q6 41 4.5 74t-24.5 53.5t-70 20.5q-36 0 -114 -12l-56 -316l79 -13l-1 -31h-258l1 31l81 13l108 607l-159 -9l-47 -112h-37z " />
<glyph unicode="&#x40c;" horiz-adv-x="643" d="M2 0v31l80 13l110 612l-79 13v31h253v-31l-76 -13l-48 -267h74l208 267l-62 13v31h214v-31l-75 -13l-233 -272l188 -345l47 -8v-31h-135l-182 339h-53l-53 -295l79 -13l-1 -31h-256zM398 812l173 153l52 -72l-202 -115z" />
<glyph unicode="&#x40e;" horiz-adv-x="602" d="M61 669v31h232v-31l-71 -14l88 -342l15 -77h4q15 42 35 79l167 340l-79 14v31h222v-31l-75 -15l-271 -512q-81 -152 -184 -152q-22 0 -39 5t-23 11l-6 5l13 70q30 -11 65 -11q65 0 113 71l-136 514zM205 848l65 61q7 -7 28 -36.5t40 -42.5t46 -13t50.5 13t55 42.5 t40.5 36.5l43 -61q-33 -27 -85.5 -48.5t-110.5 -21.5q-111 0 -172 70z" />
<glyph unicode="&#x40f;" horiz-adv-x="766" d="M0 0v31l83 13l108 612l-78 13l1 31h257v-31l-82 -13l-107 -606h315l107 606l-78 13v31h259l-1 -31l-82 -13l-108 -612l77 -13v-31h-298l-45 -184h-43l1 184h-286z" />
<glyph unicode="&#x410;" horiz-adv-x="631" d="M-49 0v31l73 13l321 657l83 6l95 -663l71 -13v-31h-243v31l70 13l-22 164h-233l-24 -53q-24 -52 -43 -111l83 -13v-31h-231zM190 258h202l-34 256l-9 89h-4q-12 -39 -34 -86z" />
<glyph unicode="&#x411;" horiz-adv-x="604" d="M2 31l82 13l107 612l-77 13l-1 31h468l-30 -170h-41v114h-222l-41 -229h87q101 0 155.5 -45.5t55.5 -121.5q2 -106 -85 -177t-213 -71h-244zM183 50h70q91 0 142.5 57t49.5 129q-2 129 -146 129h-61z" />
<glyph unicode="&#x412;" horiz-adv-x="612" d="M2 0v31l80 13l110 612l-79 13v31h230q108 0 163 -39.5t55 -110.5q0 -66 -44.5 -115.5t-104.5 -63.5l-1 -3q61 -9 100 -48.5t39 -95.5q0 -107 -85 -165.5t-210 -58.5h-253zM182 50h80q84 0 136 44.5t52 119.5q0 59 -33 92.5t-98 33.5h-86zM242 390h112q49 19 76.5 57.5 t27.5 88.5q0 114 -131 114h-39z" />
<glyph unicode="&#x413;" horiz-adv-x="525" d="M2 31l80 13l110 612l-79 13v31h458l-30 -170h-41l1 114l-213 6l-108 -606l90 -13v-31h-267z" />
<glyph unicode="&#x414;" horiz-adv-x="681" d="M-86 -184l41 234h53q74 65 144.5 226.5t108.5 379.5l-78 13v31h512l-1 -31l-82 -13l-107 -606h103l-39 -234h-41v184h-513l-60 -184h-41zM80 50h327l105 599h-194q-90 -444 -238 -599z" />
<glyph unicode="&#x415;" horiz-adv-x="561" d="M2 31l80 13l110 612l-79 13v31h458l-30 -170h-41l1 114l-213 6l-47 -267h195l-11 -61l-193 11l-50 -283l220 4l53 119h41l-39 -173h-454z" />
<glyph unicode="&#x416;" horiz-adv-x="928" d="M-50 0v31l53 9l309 354l-147 262l-69 13v31h211v-31l-68 -13l128 -267h64l48 267l-74 13v31h249v-31l-77 -13l-48 -267h64l223 267l-63 13v31h215v-31l-75 -13l-247 -272l191 -345l48 -8v-31h-129l-187 339h-49l-53 -295l79 -13l-1 -31h-256v31l80 13l53 295h-51 l-290 -339h-131z" />
<glyph unicode="&#x417;" horiz-adv-x="503" d="M-9 25l31 148h36v-123q40 -12 90 -12q86 0 136 48t50 122q0 134 -142 134h-44l9 50h42q85 0 132.5 47t47.5 107q0 52 -27 84t-83 32q-53 0 -97 -21l-20 -108h-39v141q7 4 20 11t61 18t104 11q90 0 135.5 -42t45.5 -107q0 -73 -55 -125.5t-126 -67.5v-3q65 -5 101 -45.5 t36 -103.5q0 -91 -81 -162.5t-202 -71.5q-44 0 -84.5 9.5t-58.5 19.5z" />
<glyph unicode="&#x418;" horiz-adv-x="765" d="M1 0v31l83 13l107 612l-77 13v31h258v-31l-83 -13l-84 -468l-19 -85h6q29 48 47 71l372 526h173v-31l-83 -13l-107 -612l77 -13l-1 -31h-258l1 31l83 13l86 493l13 56h-5q-18 -31 -34 -51l-382 -542h-173z" />
<glyph unicode="&#x419;" horiz-adv-x="765" d="M1 0v31l83 13l107 612l-77 13v31h258v-31l-83 -13l-84 -468l-19 -85h6q29 48 47 71l372 526h173v-31l-83 -13l-107 -612l77 -13l-1 -31h-258l1 31l83 13l86 493l13 56h-5q-18 -31 -34 -51l-382 -542h-173zM300 848l65 61q7 -7 28 -36.5t40 -42.5t46 -13t50.5 13t55 42.5 t40.5 36.5l43 -61q-33 -27 -85.5 -48.5t-110.5 -21.5q-111 0 -172 70z" />
<glyph unicode="&#x41a;" horiz-adv-x="643" d="M2 0v31l80 13l110 612l-79 13v31h253v-31l-76 -13l-48 -267h74l208 267l-62 13v31h214v-31l-75 -13l-233 -272l188 -345l47 -8v-31h-135l-182 339h-53l-53 -295l79 -13l-1 -31h-256z" />
<glyph unicode="&#x41b;" horiz-adv-x="682" d="M-38 78q26 -2 37 -2q71 0 117 91q35 68 79 229t62 260l-77 13v31h521v-31l-83 -13l-108 -612l78 -13v-31h-258v31l82 13l107 602h-203q-79 -377 -156 -528q-64 -128 -146 -128q-16 0 -28.5 2.5t-17.5 5.5l-5 2z" />
<glyph unicode="&#x41c;" horiz-adv-x="878" d="M3 0v31l80 17l109 608l-79 13v31h198l101 -400l12 -69h3q14 30 36 66l249 403h184v-31l-81 -13l-109 -610l78 -15v-31h-252v31l82 15l83 469l23 111h-3q-29 -60 -54 -100l-267 -426h-20l-110 428l-23 102h-3q-2 -40 -16 -118l-83 -464l78 -17v-31h-216z" />
<glyph unicode="&#x41d;" horiz-adv-x="755" d="M2 0v31l80 13l110 612l-79 13l1 31h258l-1 -31l-81 -13l-49 -271h304l49 271l-79 13l1 31h258l-1 -31l-81 -13l-110 -612l79 -13l-1 -31h-258l1 31l81 13l52 291h-304l-52 -291l79 -13l-1 -31h-256z" />
<glyph unicode="&#x41e;" horiz-adv-x="698" d="M55 244q0 77 23.5 158t66 151.5t112.5 115.5t154 45q118 0 184.5 -70t66.5 -188q0 -77 -23.5 -158t-66 -151.5t-112.5 -115.5t-154 -45q-118 0 -184.5 70t-66.5 188zM161 261q0 -102 38.5 -165t115.5 -63q65 0 121.5 61t88 154.5t31.5 190.5q0 102 -38.5 165t-115.5 63 q-65 0 -121.5 -61t-88 -154t-31.5 -191z" />
<glyph unicode="&#x41f;" horiz-adv-x="756" d="M1 31l83 13l107 612l-77 13l1 31h660l-1 -31l-83 -13l-107 -612l77 -13v-31h-258v31l83 13l106 606h-304l-106 -606l77 -13v-31h-257z" />
<glyph unicode="&#x420;" horiz-adv-x="589" d="M2 0v31l80 13l110 612l-79 13v31h246q111 0 171 -44t60 -129q0 -113 -84.5 -181.5t-211.5 -68.5h-72l-42 -233l100 -13v-31h-278zM231 327h72q78 0 131.5 49.5t53.5 136.5q0 137 -152 137h-48z" />
<glyph unicode="&#x421;" horiz-adv-x="592" d="M55 258q0 79 27.5 159.5t76.5 147t124 108t162 41.5q46 0 86.5 -10t58.5 -20l18 -10l-31 -144h-39l2 108q-42 29 -105 29q-110 0 -192 -118t-82 -288q0 -100 50 -163.5t139 -63.5q27 0 70 13l50 126h42l-32 -148q-58 -39 -151 -39q-129 0 -201.5 77.5t-72.5 194.5z" />
<glyph unicode="&#x422;" horiz-adv-x="595" d="M66 530l29 170h544l-29 -170h-46v112l-157 9l-108 -607l79 -13l-1 -31h-258l1 31l81 13l108 607l-159 -9l-47 -112h-37z" />
<glyph unicode="&#x423;" horiz-adv-x="602" d="M61 669v31h232v-31l-71 -14l88 -342l15 -77h4q15 42 35 79l167 340l-79 14v31h222v-31l-75 -15l-271 -512q-81 -152 -184 -152q-22 0 -39 5t-23 11l-6 5l13 70q30 -11 65 -11q65 0 113 71l-136 514z" />
<glyph unicode="&#x424;" horiz-adv-x="792" d="M44 321q0 65 22 122.5t65 104.5t115 75t165 29l12 65l-69 8l1 30h235v-30l-73 -8l-12 -65q72 -1 126.5 -22.5t84.5 -55.5t44.5 -71.5t14.5 -77.5q0 -65 -22 -122.5t-65 -104.5t-115.5 -75t-165.5 -29l-10 -61l68 -12v-30h-238v30l76 12l10 61q-72 1 -126.5 22t-84 55.5 t-44 72t-14.5 77.5zM143 331q0 -82 46.5 -135.5t131.5 -57.5l82 469q-115 -2 -187.5 -74t-72.5 -202zM415 139q116 2 188.5 74t72.5 202q0 82 -46.5 135.5t-131.5 57.5z" />
<glyph unicode="&#x425;" horiz-adv-x="658" d="M-38 0v31l69 16l260 296l-146 312l-69 14v31h265v-31l-88 -13l110 -251q19 26 53 68l81 100q15 19 27.5 38.5t17.5 29.5l5 10l-74 18v31h234v-31l-71 -15l-250 -289l153 -321l70 -13v-31h-264v31l90 13l-121 260q-17 -29 -51 -69l-92 -108q-15 -18 -28.5 -38t-19.5 -31 l-6 -11l77 -16v-31h-232z" />
<glyph unicode="&#x426;" horiz-adv-x="770" d="M0 0v31l83 13l108 612l-78 13v31h258v-31l-82 -13l-107 -606h314l107 606l-78 13v31h258v-31l-82 -13l-107 -606h103l-40 -234h-41l1 184h-617z" />
<glyph unicode="&#x427;" horiz-adv-x="686" d="M72 669v31h258v-31l-83 -13l-22 -125q-34 -193 129 -193q56 0 116 10l54 308l-77 13v31h258v-31l-83 -13l-107 -612l77 -13v-31h-278v31l103 13l45 257q-77 -18 -143 -18q-117 0 -165 65.5t-29 172.5l24 135z" />
<glyph unicode="&#x428;" horiz-adv-x="1025" d="M1 31l83 13l107 612l-77 13v31h258v-31l-83 -13l-106 -606h238l106 606l-77 13v31h258v-31l-83 -13l-106 -606h238l106 606l-77 13v31h258v-31l-83 -13l-107 -612l77 -13v-31h-929z" />
<glyph unicode="&#x429;" horiz-adv-x="1030" d="M-1 0l1 31l83 13l108 612l-78 13v31h258v-31l-82 -13l-107 -606h238l107 606l-78 13v31h258v-31l-82 -13l-107 -606h238l107 606l-78 13v31h258v-31l-82 -13l-107 -606h103l-39 -234h-41v184h-878z" />
<glyph unicode="&#x42a;" horiz-adv-x="703" d="M66 530l31 170h391v-31l-93 -13l-42 -241h88q216 0 216 -164q0 -110 -82.5 -180.5t-211.5 -70.5h-256v31l83 13l105 603l-143 -4l-49 -113h-37zM289 50h64q93 0 148 54t55 139q0 65 -35.5 93.5t-115.5 28.5h-61z" />
<glyph unicode="&#x42b;" horiz-adv-x="906" d="M1 0v31l83 13l107 612l-76 13v31h267v-31l-93 -13l-42 -241h88q216 0 216 -164q0 -110 -82.5 -180.5t-211.5 -70.5h-256zM183 50h64q93 0 148 54t55 139q0 65 -35.5 93.5t-115.5 28.5h-61zM555 0v31l80 13l110 612l-79 13v31h258v-31l-81 -13l-110 -612l79 -13v-31h-257z " />
<glyph unicode="&#x42c;" horiz-adv-x="597" d="M1 0v31l83 13l107 612l-76 13v31h267v-31l-93 -13l-42 -241h88q216 0 216 -164q0 -110 -82.5 -180.5t-211.5 -70.5h-256zM183 50h64q93 0 148 54t55 139q0 65 -35.5 93.5t-115.5 28.5h-61z" />
<glyph unicode="&#x42d;" horiz-adv-x="562" d="M3 25l31 148h36v-123q47 -17 103 -17q83 0 150 78t86 212l-256 -12l12 71l249 -6q2 28 2 43q0 243 -155 243q-53 0 -97 -21l-20 -108h-39v141q7 4 21 11t58.5 18t91.5 11q127 0 186.5 -77t59.5 -203q0 -100 -30.5 -185.5t-81 -142t-115 -88.5t-132.5 -32q-44 0 -84 9.5 t-58 19.5z" />
<glyph unicode="&#x42e;" horiz-adv-x="987" d="M2 0v31l80 13l110 612l-79 13v31h258v-31l-81 -13l-49 -271h124q16 65 45.5 122t73 104.5t105.5 75t136 27.5q114 0 169.5 -69t55.5 -190q0 -62 -13.5 -125.5t-44 -125.5t-73.5 -110.5t-107 -78t-140 -29.5q-114 0 -169.5 68.5t-55.5 189.5q0 48 7 91h-122l-52 -291 l79 -13v-31h-257zM453 261q0 -228 154 -228q73 0 128.5 61.5t82 152.5t26.5 192q0 228 -156 228q-72 0 -127 -61.5t-81.5 -153t-26.5 -191.5z" />
<glyph unicode="&#x42f;" horiz-adv-x="642" d="M-22 0v24l38 14l208 256q-49 19 -79.5 62t-30.5 102q0 112 82 177t221 65h246v-21l-84 -23l-108 -612l76 -23v-21h-279v21l105 23l40 229h-106l-212 -273h-117zM214 475q0 -78 40 -116t106 -38h62l58 329h-58q-104 0 -156 -48.5t-52 -126.5z" />
<glyph unicode="&#x430;" horiz-adv-x="562" d="M33 140q0 150 82 260t193 110q68 0 114 -37l51 33l20 -5l-97 -451l124 82v-49l-87 -58q-47 -32 -78 -32q-25 0 -41 20t-8 55l5 23l-66 -49q-62 -47 -113 -47q-42 0 -70.5 36.5t-28.5 108.5zM134 155q0 -91 42 -91q24 0 55 22l93 67l55 256q-24 59 -73 59q-70 0 -121 -100 t-51 -213z" />
<glyph unicode="&#x431;" horiz-adv-x="528" d="M64 268q24 193 103 301.5t194 133.5q10 2 52.5 9.5t62.5 12.5q16 4 26.5 11.5t14.5 13t16 25.5h29q-12 -61 -35.5 -96.5t-75.5 -47.5q-22 -5 -122 -23q-81 -14 -132.5 -76t-77.5 -180l3 -1q24 67 74 106.5t124 39.5q73 0 113.5 -48t40.5 -130q0 -127 -72 -228t-179 -101 q-94 0 -135 71t-24 207zM157 160q0 -125 73 -125q44 0 78.5 47t51.5 113.5t17 134.5q0 122 -74 122q-39 0 -69.5 -31t-46 -79t-23 -94.5t-7.5 -87.5z" />
<glyph unicode="&#x432;" horiz-adv-x="477" d="M35 167q0 58 17.5 117t49.5 110.5t85.5 83.5t117.5 32q59 0 89.5 -28t30.5 -78q0 -46 -30.5 -82.5t-81.5 -53.5v-4q44 -2 67.5 -28.5t23.5 -68.5q0 -75 -62 -126t-149 -51q-74 0 -116 46t-42 131zM135 163q0 -131 76 -131q43 0 71.5 38.5t28.5 90.5q0 87 -86 73l-87 -14 q-3 -32 -3 -57zM143 260l134 20q26 20 42 54t16 68q0 66 -47 66q-41 0 -72.5 -33t-47.5 -76.5t-25 -98.5z" />
<glyph unicode="&#x433;" horiz-adv-x="373" d="M32 75q1 46 63 119q14 17 58 69.5t62 75.5q32 43 26.5 71.5t-40.5 28.5q-28 0 -67 -22.5t-78 -64.5v56q96 102 180 102q39 0 64.5 -22t23.5 -65q-1 -46 -63 -119q-17 -21 -59 -71t-61 -74q-32 -43 -26.5 -71.5t40.5 -28.5q28 0 68 22.5t78 64.5v-56q-96 -102 -181 -102 q-39 0 -64.5 22t-23.5 65z" />
<glyph unicode="&#x434;" horiz-adv-x="530" d="M42 175q0 77 27 148t82 119t127 48q66 0 102 -54q-10 120 -51 191.5t-115 112.5l12 22q78 -23 134.5 -86t82.5 -141t26 -161q0 -76 -15.5 -143t-47 -122t-84.5 -87t-122 -32q-76 0 -117 47.5t-41 137.5zM140 168q0 -136 74 -136t114.5 78.5t40.5 188.5q0 69 -24 106 t-68 37q-33 0 -60.5 -28t-43.5 -71t-24.5 -88.5t-8.5 -86.5z" />
<glyph unicode="&#x435;" horiz-adv-x="461" d="M37 174q0 141 80.5 238.5t188.5 97.5q61 0 94.5 -29t33.5 -70q0 -96 -149 -147l-147 -50q-1 -10 -1 -28q0 -67 21.5 -101.5t55.5 -34.5q43 0 90 36l61 47v-51l-46 -35q-75 -58 -131 -57q-70 0 -110.5 50t-40.5 134zM143 261l73 28q61 23 88 51.5t27 69.5q0 25 -14.5 39.5 t-35.5 14.5q-50 0 -87 -59.5t-51 -143.5z" />
<glyph unicode="&#x436;" horiz-adv-x="817" d="M-13 2l18 81q18 -6 39 -26t36 -20q39 0 74 87t35 203q0 118 -45 118q-13 0 -32 -14l-47 -35v52l32 24q28 22 46 30t43 8q88 0 88 -144q0 -104 -44 -190h5l142 160l36 164h80l-55 -259l162 180q25 31 41 47t42 29t56 13q16 0 27 -2t23.5 -5t24.5 -5l-18 -81q-18 6 -39 26 t-36 20q-39 0 -74 -87t-35 -203q0 -118 45 -118q13 0 32 14l47 35v-52l-32 -24q-28 -22 -46 -30t-43 -8q-88 0 -88 144q0 47 16 105t34 95h-4l-152 -171l-34 -163h-82l55 257l-159 -178q-25 -31 -41 -47t-42 -29t-56 -13q-16 0 -27 2t-23.5 5t-24.5 5z" />
<glyph unicode="&#x437;" horiz-adv-x="413" d="M-16 50l44 67q24 -16 47 -38.5t38.5 -33.5t35.5 -11q41 0 69 36t28 87q0 90 -95 90h-43l8 40h45q48 0 76 26.5t28 79.5q0 32 -15 52.5t-44 20.5q-24 0 -64.5 -25.5t-73.5 -30.5v72q7 1 54.5 14.5t94.5 13.5q65 0 103.5 -27t38.5 -80q0 -47 -31 -84t-92 -49v-4 q45 -4 74 -32t29 -74q0 -73 -56.5 -121.5t-132.5 -48.5q-51 0 -85.5 14t-80.5 46z" />
<glyph unicode="&#x438;" horiz-adv-x="572" d="M50 464v31l165 15l20 -5l-81 -379q-8 -41 13 -56t66 12l100 64l77 354h94l-98 -448l123 80v-49l-87 -58q-47 -32 -78 -32q-25 0 -40.5 19.5t-7.5 54.5l4 21l-103 -70q-37 -26 -75 -26q-50 0 -71 39t-8 99l67 326z" />
<glyph unicode="&#x439;" horiz-adv-x="572" d="M50 464v31l165 15l20 -5l-81 -379q-8 -41 13 -56t66 12l100 64l77 354h94l-98 -448l123 80v-49l-87 -58q-47 -32 -78 -32q-25 0 -40.5 19.5t-7.5 54.5l4 21l-103 -70q-37 -26 -75 -26q-50 0 -71 39t-8 99l67 326zM164 696l67 61q8 -9 21.5 -27.5t22 -29.5t26.5 -20.5 t41 -9.5q24 0 44.5 13.5t45 37.5t44.5 36l43 -64q-83 -67 -180 -67q-117 0 -175 70z" />
<glyph unicode="&#x43a;" horiz-adv-x="532" d="M41 0l97 456l-80 8v31l165 15l20 -5l-108 -505h-94zM196 250v4q115 154 170 203.5t119 49.5l-25 -96q-42 0 -81 -22.5t-106 -97.5l112 -231l111 72v-51l-73 -48q-36 -23 -50 -30t-29 -7q-25 0 -37 24z" />
<glyph unicode="&#x43b;" horiz-adv-x="537" d="M-30 0v74q11 -5 26 -5q34 0 63 30t52.5 88t41 121t35.5 148l-72 13v31h353l-99 -452l125 84v-49l-87 -58q-47 -32 -78 -32q-25 0 -40.5 19.5t-7.5 54.5l82 388h-129q-52 -242 -101 -353.5t-123 -111.5q-12 0 -22.5 2.5t-14.5 5.5z" />
<glyph unicode="&#x43c;" horiz-adv-x="732" d="M-13 0v72q10 -2 24 -2q97 0 164 384v2l-70 13v31h151l68 -273l14 -71h5q15 34 38 67l188 277h95l-98 -450l124 82v-49l-87 -58q-47 -32 -78 -32q-25 0 -40.5 19.5t-7.5 54.5l51 241l21 81h-4q-26 -46 -42 -69l-196 -290h-24l-68 266q-5 20 -8.5 38.5t-4.5 27.5l-1 8h-4 q-4 -41 -11 -73q-35 -160 -71.5 -233.5t-91.5 -73.5q-12 0 -21 2.5t-12 5.5z" />
<glyph unicode="&#x43d;" horiz-adv-x="572" d="M41 0l97 456l-80 8v31l165 15l20 -5l-48 -226l166 4l46 217h95l-95 -438l121 80v-59l-87 -58q-47 -32 -78 -32q-25 0 -40.5 19.5t-7.5 54.5l36 170l-166 -4l-50 -233h-94z" />
<glyph unicode="&#x43e;" horiz-adv-x="514" d="M36 167q0 79 28.5 155.5t92 132t148.5 55.5q74 0 116 -46t42 -128q0 -58 -17 -117t-48.5 -111t-85 -85t-118.5 -33q-74 0 -116 46t-42 131zM136 163q0 -131 76 -131q44 0 76.5 38t48 93.5t22 101t6.5 76.5q0 127 -76 127q-42 0 -73.5 -32.5t-47.5 -83t-24 -98.5t-8 -91z " />
<glyph unicode="&#x43f;" horiz-adv-x="574" d="M41 0l97 456l-80 8v31l165 15l20 -5l-20 -92l105 71q37 26 72 26q53 0 74 -39.5t7 -106.5l-67 -313l124 81v-49l-87 -58q-47 -32 -78 -32q-25 0 -40.5 19.5t-7.5 54.5l65 306q10 47 -15.5 60.5t-58.5 -10.5l-105 -68l-76 -355h-94z" />
<glyph unicode="&#x440;" horiz-adv-x="550" d="M-84 -219l79 11l144 664l-80 8v31l165 15l20 -5l-21 -94l107 72q39 27 74 27q99 0 99 -145q0 -150 -82.5 -262.5t-193.5 -112.5q-48 0 -90 22l-48 -220l110 -11v-31h-283v31zM155 98q13 -31 36 -48.5t48 -17.5q43 0 81.5 52.5t60 128t21.5 147.5q0 81 -37 81 q-16 0 -45 -18l-109 -70z" />
<glyph unicode="&#x441;" horiz-adv-x="431" d="M38 185q0 78 30.5 152t87.5 123.5t126 49.5q36 0 76 -10.5t50 -11.5l-26 -80q-27 7 -56 32t-52 25q-39 0 -71 -44.5t-48.5 -107t-16.5 -124.5q0 -139 71 -139q43 0 90 36l61 47v-51l-46 -35q-73 -57 -131 -57q-69 0 -107 51.5t-38 143.5z" />
<glyph unicode="&#x442;" horiz-adv-x="821" d="M41 0l97 456l-80 8v31l165 15l20 -5l-20 -92l105 71q37 26 72 26q80 0 76 -99l108 73q37 26 72 26q37 0 56 -22t19.5 -56t-6.5 -75l-64 -305l123 80v-49l-87 -58q-47 -32 -78 -32q-25 0 -40.5 19.5t-7.5 54.5l61 289q12 59 -0.5 76.5t-57.5 -9.5l-106 -68l-74 -355h-93 l75 356q12 59 -0.5 76.5t-57.5 -9.5l-108 -70l-75 -353h-94z" />
<glyph unicode="&#x443;" d="M1 -200q34 35 106.5 83.5t99.5 73.5l-91 498l-82 9v31l149 15l20 -5l77 -451q52 88 88.5 200.5t40.5 200.5l-79 9v31l128 13l21 -5q0 -123 -58.5 -268t-132.5 -246q-41 -56 -76.5 -96t-87 -90t-67.5 -67z" />
<glyph unicode="&#x444;" horiz-adv-x="800" d="M33 140q0 150 82 260t193 110q50 0 88 -20l10 47q21 101 78.5 163.5t133.5 62.5q29 0 71 -8.5t58 -10.5l-19 -81q-29 4 -67.5 29.5t-59.5 25.5q-39 0 -62 -37t-37 -107l-34 -166l72 54q62 47 113 47q42 0 70.5 -36.5t28.5 -108.5q0 -150 -82 -260t-193 -110q-49 0 -89 20 l-45 -222l75 -11v-31h-239v31l75 11l62 303l-71 -53q-62 -47 -113 -47q-42 0 -70.5 36.5t-28.5 108.5zM132 155q0 -91 44 -91q24 0 55 22l97 70l52 253q-26 59 -74 59q-47 0 -88 -48.5t-63.5 -120.5t-22.5 -144zM405 95q24 -59 74 -59q47 0 88 48.5t63.5 120.5t22.5 144 q0 91 -44 91q-24 0 -55 -22l-98 -71z" />
<glyph unicode="&#x445;" horiz-adv-x="528" d="M4 -10l21 102q74 0 186 155l-84 208l-82 9v31l140 15l20 -5l78 -193q66 104 114.5 149.5t100.5 45.5l-21 -102q-70 0 -175 -140l88 -218l82 -9v-31l-139 -15l-20 5l-83 204q-72 -114 -122.5 -162.5t-103.5 -48.5z" />
<glyph unicode="&#x446;" horiz-adv-x="593" d="M51 464v31l165 15l20 -5l-79 -371q-5 -21 -2.5 -36t10.5 -24t25.5 -6t41.5 19l92 59l77 354h94l-96 -438l156 104l15 -19l-11 -19q-11 -19 -16.5 -46t-6 -51.5t-6 -54t-15 -55.5t-35 -54t-64.5 -51l-17 20q25 18 37 49.5t13.5 61t14 69t38.5 70.5q-5 -4 -29.5 -25.5 t-33.5 -27.5t-27.5 -18.5t-32.5 -17t-29 -4.5q-25 0 -37.5 20.5t-5.5 53.5l4 21l-103 -70q-37 -26 -72 -26q-37 0 -56 22t-19.5 56t6.5 75l64 311z" />
<glyph unicode="&#x447;" horiz-adv-x="552" d="M40 464v31l165 15l20 -5l-43 -204q-9 -45 7 -62t62 9l98 63l41 189h94l-99 -451l124 83v-49l-87 -58q-47 -32 -78 -32q-25 0 -40.5 19.5t-7.5 54.5l40 186l-103 -70q-37 -26 -72 -26q-37 0 -56 22t-19.5 56t6.5 75l29 146z" />
<glyph unicode="&#x448;" horiz-adv-x="807" d="M51 464v31l165 15l20 -5l-79 -371q-9 -44 8.5 -60t66.5 13l83 54q1 1 1 2v2l73 355h95l-76 -359q-11 -51 6 -67.5t64 11.5l89 57l78 358h94l-98 -451l123 83v-49l-87 -58q-47 -32 -78 -32q-25 0 -40.5 19.5t-7.5 54.5l3 17l-97 -66q-37 -26 -72 -26q-78 0 -76 94 l-101 -68q-37 -26 -72 -26q-37 0 -56 22t-19.5 56t6.5 75l64 311z" />
<glyph unicode="&#x449;" horiz-adv-x="837" d="M51 464v31l165 15l20 -5l-79 -371q-5 -21 -2.5 -36t10.5 -24t25.5 -6t41.5 19l83 54q1 1 1 2v2l73 355h95l-76 -359q-11 -51 6 -67.5t64 11.5l89 57l78 358h94l-95 -437l155 103l15 -19l-11 -19q-11 -19 -16.5 -46t-6 -51.5t-6 -54t-15 -55.5t-35 -54t-64.5 -51l-17 20 q21 15 32 37.5t14.5 48t7.5 52t15.5 57t33.5 55.5q-5 -4 -29.5 -25.5t-33.5 -27.5t-27.5 -18.5t-32.5 -17t-29 -4.5q-25 0 -38 19t-5 55l3 17l-97 -66q-37 -26 -72 -26q-78 0 -76 94l-101 -68q-37 -26 -72 -26q-37 0 -56 22t-19.5 56t6.5 75l64 311z" />
<glyph unicode="&#x44a;" horiz-adv-x="504" d="M42 369l24 131h288v-27q-87 -77 -130 -182l50 22q37 16 71 16q45 0 74.5 -27.5t29.5 -82.5q0 -96 -65.5 -162.5t-154.5 -66.5q-63 0 -97 37t-34 105q0 149 169 314l-163 -10l-33 -67h-29zM188 105q0 -71 54 -71q50 0 82 48t32 114q0 36 -16 56.5t-43 20.5q-18 0 -39 -9 l-51 -23q-19 -67 -19 -136z" />
<glyph unicode="&#x44b;" horiz-adv-x="725" d="M50 464v31l165 15l20 -5l-43 -205l52 23q30 13 61 13.5t56.5 -11t41.5 -39.5t16 -67q0 -96 -65.5 -162.5t-154.5 -66.5q-80 0 -115.5 40.5t-19.5 116.5l66 309zM158 137q-22 -103 54 -103q50 0 82 48t32 114q0 49 -28 73t-70 5l-46 -21zM468 68l84 388l-81 8v31l165 15 l20 -5l-97 -454l123 81v-49l-87 -58q-47 -32 -78 -32q-25 0 -41 20t-8 55z" />
<glyph unicode="&#x44c;" horiz-adv-x="474" d="M50 464v31l165 15l20 -5l-43 -205l52 23q30 13 61 13.5t56.5 -11t41.5 -39.5t16 -67q0 -96 -65.5 -162.5t-154.5 -66.5q-80 0 -115.5 40.5t-19.5 116.5l66 309zM158 137q-22 -103 54 -103q50 0 82 48t32 114q0 49 -28 73t-70 5l-46 -21z" />
<glyph unicode="&#x44d;" horiz-adv-x="430" d="M-13 21l26 75q17 -11 38.5 -26.5t30.5 -21t21.5 -10.5t24.5 -5q56 0 90.5 57t49.5 138l-164 -21v77l172 -6q5 43 5 63q0 127 -76 127q-21 0 -60 -26.5t-73 -31.5v77q1 0 51.5 11.5t97.5 11.5q74 0 116 -46t42 -128q0 -58 -17 -117t-48.5 -111t-85 -85t-118.5 -33 q-43 0 -123 31z" />
<glyph unicode="&#x44e;" horiz-adv-x="753" d="M42 0l97 456l-80 8v31l165 15l20 -5l-49 -227h88q22 98 83 165t158 67q78 0 126.5 -50.5t48.5 -136.5q0 -58 -15 -114.5t-44 -106.5t-79 -81t-113 -31q-78 0 -126.5 52t-48.5 144q0 22 3 46h-91l-49 -232h-94zM373 196q0 -80 23.5 -122t65.5 -42q38 0 66.5 31t43 78 t21 90.5t6.5 80.5q0 156 -87 156q-38 0 -66.5 -28.5t-43.5 -72.5t-22 -87.5t-7 -83.5z" />
<glyph unicode="&#x44f;" horiz-adv-x="519" d="M-12 0v71q11 -4 26 -4q36 0 71.5 35t79.5 104q-41 10 -66 40t-25 73q0 80 58.5 130.5t153.5 50.5h165l-99 -450l124 82v-49l-87 -58q-47 -32 -78 -32q-25 0 -40.5 19.5t-7.5 54.5l26 120h-82q-25 -47 -42.5 -76t-40.5 -60t-46.5 -46t-48.5 -15q-12 0 -22.5 2.5t-14.5 5.5 zM168 316q0 -39 25.5 -62.5t61.5 -23.5h43l49 227h-43q-70 0 -103 -39.5t-33 -101.5z" />
<glyph unicode="&#x451;" horiz-adv-x="461" d="M37 174q0 141 80.5 238.5t188.5 97.5q61 0 94.5 -29t33.5 -70q0 -96 -149 -147l-147 -50q-1 -10 -1 -28q0 -67 21.5 -101.5t55.5 -34.5q43 0 90 36l61 47v-51l-46 -35q-75 -58 -131 -57q-70 0 -110.5 50t-40.5 134zM143 261l73 28q61 23 88 51.5t27 69.5q0 25 -14.5 39.5 t-35.5 14.5q-50 0 -87 -59.5t-51 -143.5zM156 647q0 26 16.5 45.5t47.5 19.5q24 0 39.5 -16t15.5 -42t-16.5 -45.5t-47.5 -19.5q-24 0 -39.5 16t-15.5 42zM349 647q0 26 16.5 45.5t47.5 19.5q24 0 39.5 -16t15.5 -42t-16.5 -45.5t-47.5 -19.5q-24 0 -39.5 16t-15.5 42z" />
<glyph unicode="&#x452;" horiz-adv-x="529" d="M25 0l124 579h-79v54h90l18 81l-81 8v31l165 15l20 -5l-28 -130h130v-54h-142l-35 -166l105 71q37 26 72 26q56 0 75.5 -42t4.5 -111l-76 -356q-21 -96 -64 -135t-115 -39q-28 0 -79 11l14 65q17 -3 41.5 -17t40.5 -14q24 0 38.5 28t27.5 89l83 388q8 40 -15 55t-60 -9 l-106 -69l-75 -354h-94z" />
<glyph unicode="&#x453;" horiz-adv-x="373" d="M32 75q1 46 63 119q14 17 58 69.5t62 75.5q32 43 26.5 71.5t-40.5 28.5q-28 0 -67 -22.5t-78 -64.5v56q96 102 180 102q39 0 64.5 -22t23.5 -65q-1 -46 -63 -119q-17 -21 -59 -71t-61 -74q-32 -43 -26.5 -71.5t40.5 -28.5q28 0 68 22.5t78 64.5v-56q-96 -102 -181 -102 q-39 0 -64.5 22t-23.5 65zM188 624l173 153l52 -72l-202 -115z" />
<glyph unicode="&#x454;" horiz-adv-x="431" d="M38 185q0 78 30.5 152t87.5 123.5t126 49.5q36 0 76 -10.5t50 -11.5l-26 -80q-27 7 -56 32t-52 25q-45 0 -79 -55.5t-49 -134.5l172 23v-73l-178 3q-2 -26 -2 -39q0 -139 71 -139q43 0 90 36l61 47v-51l-46 -35q-73 -57 -131 -57q-69 0 -107 51.5t-38 143.5z" />
<glyph unicode="&#x455;" horiz-adv-x="394" d="M-2 15l20 81q27 -4 77.5 -29t78.5 -25q51 0 51 60q0 32 -15.5 60t-37.5 50.5l-44 45t-37.5 53t-15.5 65.5q0 55 44 94.5t114 39.5q34 0 74.5 -10t57.5 -11l-19 -79q-28 4 -66 30t-64 26q-52 0 -52 -66q0 -30 24 -61.5t52 -56t52 -63.5t24 -82q0 -67 -44 -105.5 t-118 -38.5q-36 0 -90 10.5t-66 11.5z" />
<glyph unicode="&#x456;" horiz-adv-x="326" d="M53 68l84 388l-81 8v31l165 15l20 -5l-97 -456l123 83v-49l-87 -58q-47 -32 -78 -32q-25 0 -41 20t-8 55zM154 659q0 26 16.5 45.5t47.5 19.5q24 0 39.5 -16t15.5 -42t-16.5 -45.5t-47.5 -19.5q-24 0 -39.5 16t-15.5 42z" />
<glyph unicode="&#x457;" horiz-adv-x="326" d="M34 647q0 26 16.5 45.5t47.5 19.5q24 0 39.5 -16t15.5 -42t-16.5 -45.5t-47.5 -19.5q-24 0 -39.5 16t-15.5 42zM53 68l84 388l-81 8v31l165 15l20 -5l-97 -454l123 81v-49l-87 -58q-47 -32 -78 -32q-25 0 -41 20t-8 55zM227 647q0 26 16.5 45.5t47.5 19.5q24 0 39.5 -16 t15.5 -42t-16.5 -45.5t-47.5 -19.5q-24 0 -39.5 16t-15.5 42z" />
<glyph unicode="&#x458;" horiz-adv-x="281" d="M-221 -238l20 81q29 -4 67.5 -28.5t59.5 -24.5q42 0 65 42.5t42 129.5l105 494l-81 8v31l165 15l20 -5l-109 -505q-23 -107 -81 -182t-144 -75q-29 0 -71 8.5t-58 10.5zM155 659q0 26 16.5 45.5t47.5 19.5q24 0 39.5 -16t15.5 -42t-16.5 -45.5t-47.5 -19.5 q-24 0 -39.5 16t-15.5 42z" />
<glyph unicode="&#x459;" horiz-adv-x="711" d="M-29 0v74q11 -5 26 -5q34 0 62.5 30t51.5 88.5t40 120t35 148.5l-72 13v31h356l-42 -200l52 23q42 15 81 13t67 -33.5t28 -83.5q0 -95 -66 -162t-155 -67q-80 0 -115.5 40.5t-19.5 116.5l65 308h-129q-52 -242 -101 -353.5t-123 -111.5q-12 0 -22.5 2.5t-14.5 5.5z M394 137q-10 -46 3 -74.5t51 -28.5q50 0 82 49t32 113q0 49 -28 73t-70 5l-46 -21z" />
<glyph unicode="&#x45a;" horiz-adv-x="743" d="M42 0l97 456l-80 8v31l165 15l20 -5l-49 -227h164l48 222h95l-42 -200l52 23q42 15 81 13t67 -33.5t28 -83.5q0 -95 -66 -162t-155 -67q-80 0 -115.5 40.5t-19.5 116.5l17 81h-164l-49 -228h-94zM426 137q-10 -46 3 -74.5t51 -28.5q50 0 82 49t32 113q0 49 -28 73t-70 5 l-46 -21z" />
<glyph unicode="&#x45b;" horiz-adv-x="580" d="M25 0l124 579h-79v54h90l18 81l-81 8v31l165 15l20 -5l-28 -130h130v-54h-142l-35 -166l105 71q37 26 72 26q54 0 74 -41t7 -105l-67 -313l124 81v-49l-87 -58q-47 -32 -78 -32q-25 0 -40.5 19.5t-7.5 54.5l65 306q9 43 -11.5 59.5t-62.5 -9.5l-105 -68l-76 -355h-94z " />
<glyph unicode="&#x45c;" horiz-adv-x="532" d="M41 0l97 456l-80 8v31l165 15l20 -5l-108 -505h-94zM196 250v4q115 154 170 203.5t119 49.5l-25 -96q-42 0 -81 -22.5t-106 -97.5l112 -231l111 72v-51l-73 -48q-36 -23 -50 -30t-29 -7q-25 0 -37 24zM263 623l173 153l52 -72l-202 -115z" />
<glyph unicode="&#x45e;" d="M1 -200q34 35 106.5 83.5t99.5 73.5l-91 498l-82 9v31l149 15l20 -5l77 -451q52 88 88.5 200.5t40.5 200.5l-79 9v31l128 13l21 -5q0 -123 -58.5 -268t-132.5 -246q-41 -56 -76.5 -96t-87 -90t-67.5 -67zM133 696l67 61q7 -8 22 -27t24 -28t26.5 -18t38.5 -9t43.5 9.5 t34.5 17.5t38.5 29t32.5 26l41 -61q-34 -27 -87 -48.5t-111 -21.5q-112 0 -170 70z" />
<glyph unicode="&#x45f;" horiz-adv-x="572" d="M50 464v31l165 15l20 -5l-81 -379q-8 -41 13 -56t66 12l100 64l77 354h94l-98 -448l123 80v-49l-87 -58q-47 -32 -78 -32q-25 0 -40.5 19.5t-7.5 54.5l4 21l-103 -70q-37 -26 -75 -26q-50 0 -71 39t-8 99l67 326zM121 -265q27 22 37 54.5t10 61.5t17.5 68.5t57.5 73.5 l17 -11q-15 -18 -19 -44.5t-4.5 -53t-6 -55t-28 -58.5t-64.5 -55z" />
<glyph unicode="&#x490;" horiz-adv-x="512" d="M2 0v31l82 13l107 612l-77 13v31h379l52 145h40l-38 -220l-260 19l-105 -600l87 -13l-1 -31h-266z" />
<glyph unicode="&#x491;" horiz-adv-x="433" d="M-21 0l7 31l80 13l88 412l-76 13l6 31h292l58 135h36l-46 -201l-179 12l-85 -402l97 -13l-7 -31h-271z" />
<glyph unicode="&#x2000;" horiz-adv-x="482" />
<glyph unicode="&#x2001;" horiz-adv-x="965" />
<glyph unicode="&#x2002;" horiz-adv-x="482" />
<glyph unicode="&#x2003;" horiz-adv-x="965" />
<glyph unicode="&#x2004;" horiz-adv-x="321" />
<glyph unicode="&#x2005;" horiz-adv-x="241" />
<glyph unicode="&#x2006;" horiz-adv-x="160" />
<glyph unicode="&#x2007;" horiz-adv-x="160" />
<glyph unicode="&#x2008;" horiz-adv-x="120" />
<glyph unicode="&#x2009;" horiz-adv-x="193" />
<glyph unicode="&#x200a;" horiz-adv-x="53" />
<glyph unicode="&#x2010;" horiz-adv-x="447" d="M77 252v69l291 10v-69z" />
<glyph unicode="&#x2011;" horiz-adv-x="447" d="M77 252v69l291 10v-69z" />
<glyph unicode="&#x2012;" horiz-adv-x="447" d="M77 252v69l291 10v-69z" />
<glyph unicode="&#x2013;" horiz-adv-x="597" d="M81 259v64h431v-64h-431z" />
<glyph unicode="&#x2014;" horiz-adv-x="828" d="M82 262v64h661v-64h-661z" />
<glyph unicode="&#x2018;" horiz-adv-x="230" d="M86 488q0 63 39.5 122t100.5 102l22 -27q-81 -61 -106 -137q26 5 44.5 -10t18.5 -47q0 -27 -17.5 -45t-46.5 -18q-23 0 -39 16t-16 44z" />
<glyph unicode="&#x2019;" horiz-adv-x="229" d="M80 455q81 61 106 137q-26 -5 -44.5 10t-18.5 47q0 27 17.5 45t46.5 18q23 0 39 -16t16 -44q0 -63 -39.5 -122t-100.5 -102z" />
<glyph unicode="&#x201a;" horiz-adv-x="243" d="M-22 -149q81 61 106 137q-26 -5 -44.5 10t-18.5 47q0 27 17.5 45t46.5 18q23 0 39 -16t16 -44q0 -63 -39.5 -122t-100.5 -102z" />
<glyph unicode="&#x201c;" horiz-adv-x="424" d="M86 488q0 63 39.5 122t100.5 102l22 -27q-81 -61 -106 -137q26 5 44.5 -10t18.5 -47q0 -27 -17.5 -45t-46.5 -18q-23 0 -39 16t-16 44zM280 488q0 63 39.5 122t100.5 102l22 -27q-81 -61 -106 -137q26 5 44.5 -10t18.5 -47q0 -27 -17.5 -45t-46.5 -18q-23 0 -39 16 t-16 44z" />
<glyph unicode="&#x201d;" horiz-adv-x="423" d="M80 455q81 61 106 137q-26 -5 -44.5 10t-18.5 47q0 27 17.5 45t46.5 18q23 0 39 -16t16 -44q0 -63 -39.5 -122t-100.5 -102zM274 455q81 61 106 137q-26 -5 -44.5 10t-18.5 47q0 27 17.5 45t46.5 18q23 0 39 -16t16 -44q0 -63 -39.5 -122t-100.5 -102z" />
<glyph unicode="&#x201e;" horiz-adv-x="435" d="M-22 -149q81 61 106 137q-26 -5 -44.5 10t-18.5 47q0 27 17.5 45t46.5 18q23 0 39 -16t16 -44q0 -63 -39.5 -122t-100.5 -102zM170 -149q81 61 106 137q-26 -5 -44.5 10t-18.5 47q0 27 17.5 45t46.5 18q23 0 39 -16t16 -44q0 -63 -39.5 -122t-100.5 -102z" />
<glyph unicode="&#x2026;" horiz-adv-x="749" d="M20 43q0 26 16.5 45.5t47.5 19.5q24 0 39.5 -16t15.5 -42t-16.5 -45.5t-47.5 -19.5q-24 0 -39.5 16t-15.5 42zM274 43q0 26 16.5 45.5t47.5 19.5q24 0 39.5 -16t15.5 -42t-16.5 -45.5t-47.5 -19.5q-24 0 -39.5 16t-15.5 42zM529 43q0 26 16.5 45.5t47.5 19.5 q24 0 39.5 -16t15.5 -42t-16.5 -45.5t-47.5 -19.5q-24 0 -39.5 16t-15.5 42z" />
<glyph unicode="&#x202f;" horiz-adv-x="193" />
<glyph unicode="&#x2039;" horiz-adv-x="346" d="M18 272l1 11l275 226l41 -55l-246 -183l163 -232l-57 -39z" />
<glyph unicode="&#x203a;" horiz-adv-x="347" d="M-3 54l246 183l-163 232l57 39l177 -272l-1 -11l-275 -226z" />
<glyph unicode="&#x205f;" horiz-adv-x="241" />
<glyph unicode="&#x20ac;" horiz-adv-x="695" d="M53 236v60h102q5 48 16 90h-118v60h137q45 119 137 193.5t221 74.5q47 0 86.5 -10t55.5 -20l16 -10l-31 -144h-39l2 108q-42 29 -105 29q-89 0 -152 -61t-94 -160h298l-21 -60h-293q-10 -48 -11 -90h280l-21 -60h-260q5 -98 47.5 -150t119.5 -52q48 0 92 14l50 125h42 l-32 -148q-7 -4 -21 -10.5t-58.5 -17.5t-92.5 -11q-126 0 -188.5 66.5t-64.5 183.5h-100z" />
<glyph unicode="&#x2122;" horiz-adv-x="952" d="M98 583l18 118h329l-17 -118h-28v72h-83l-46 -236l52 -14v-26h-186v26l57 14l46 236h-87l-28 -72h-27zM419 379v26l64 14l46 240l-56 19v24h124l67 -143l17 -51h3q18 26 37 49l112 146h125v-25l-58 -19l-46 -240l51 -14v-26h-186v26l59 14l21 110l15 71l-2 1 q-16 -27 -48 -63l-106 -123h-11l-57 122q-7 15 -13 31t-8 25l-2 9l-2 -1q-2 -33 -10 -71l-21 -111l47 -14v-26h-162z" />
<glyph unicode="&#xe000;" horiz-adv-x="510" d="M0 0v510h510v-510h-510z" />
</font>
</defs>
</svg>
