<?xml version="1.0" encoding="UTF-8" standalone="no"?>
<!DOCTYPE svg PUBLIC "-//W3C//DTD SVG 1.1//EN" "http://www.w3.org/Graphics/SVG/1.1/DTD/svg11.dtd">
<svg xmlns="http://www.w3.org/2000/svg">
<metadata/>
<defs>
<font id="itc_lubalin_graph_stddemi" horiz-adv-x="1187">
<font-face units-per-em="2048" ascent="1473" descent="-575"/>
<missing-glyph horiz-adv-x="614"/>
<glyph unicode="ﬁ" horiz-adv-x="1105" d="M35 0v233h141v627h-141v234h141q-3 207 105 308t319 99v-219q-95 3 -137.5 -46t-36.5 -142h532v-861h142v-233h-1065zM426 233h283v627h-283v-627zM709 1198v264h249v-264h-249z"/>
<glyph unicode="ﬂ" horiz-adv-x="1105" d="M35 0v233h141v627h-141v234h141q1 223 111.5 315t337.5 92h331v-1268h142v-233h-1063zM426 233h281v1049h-54q-63 0 -99 -5t-69.5 -23.5t-47 -57.5t-11.5 -102h143v-234h-143v-627z"/>
<glyph horiz-adv-x="2048"/>
<glyph horiz-adv-x="2048"/>
<glyph unicode="" horiz-adv-x="2048"/>
<glyph unicode=" " horiz-adv-x="614"/>
<glyph unicode="	" horiz-adv-x="614"/>
<glyph unicode=" " horiz-adv-x="614"/>
<glyph unicode="!" horiz-adv-x="409" d="M76 0v289h258v-289h-258zM76 438v1024h258v-1024h-258z"/>
<glyph unicode="&quot;" horiz-adv-x="819" d="M74 1462h258l-56 -588h-149zM471 1462h258l-55 -588h-150z"/>
<glyph unicode="#" d="M55 489v154h273l30 209h-243v154h266l65 456h154l-63 -456h211l65 456h156l-66 -456h232v-154h-254l-29 -209h223v-154h-248l-71 -489h-156l70 489h-211l-70 -489h-156l70 489h-248zM483 643h209l31 209h-211z"/>
<glyph unicode="$" d="M111 1065q0 155 104 272.5t258 137.5v215h213v-238q73 -11 121 -78v88h192v-401h-227q-5 82 -59.5 134t-137.5 52q-80 0 -136 -48.5t-56 -127.5q0 -45 16 -78.5t46.5 -55.5t63 -35t77.5 -25q223 -58 317 -125q85 -60 130.5 -147t45.5 -191q0 -173 -110 -297t-283 -152 v-211h-213v246l-16 2q-47 16 -70 31t-51 51v-84h-207v434h244q-5 -97 59.5 -165t161.5 -68q88 0 147.5 54.5t59.5 141.5q0 49 -18.5 86.5t-54.5 62t-70 39t-83 29.5q-76 23 -108.5 33t-93 36t-99.5 54q-77 55 -120 142.5t-43 185.5z"/>
<glyph unicode="%" horiz-adv-x="1761" d="M66 1135q0 147 106.5 252.5t253.5 105.5q151 0 259 -106.5t108 -256.5q0 -151 -105.5 -257.5t-257.5 -106.5q-153 0 -258.5 108t-105.5 261zM279 1133q0 -65 43.5 -109.5t107.5 -44.5q62 0 106 44t44 105q0 63 -44.5 107.5t-107.5 44.5q-62 0 -105.5 -43t-43.5 -104z M449 0l659 1462h201l-658 -1462h-202zM969 346q0 149 106 254t254 105q151 0 259 -105.5t108 -255.5q0 -151 -106.5 -259t-256.5 -108q-153 0 -258.5 108t-105.5 261zM1182 344q0 -63 44.5 -108.5t108.5 -45.5q61 0 104.5 45t43.5 107t-44.5 107t-105.5 45 q-62 0 -106.5 -43.5t-44.5 -106.5z"/>
<glyph unicode="&amp;" horiz-adv-x="1474" d="M74 395q0 72 23 134.5t68.5 113.5t93 89t114.5 79l-15 14q-74 77 -109.5 148t-35.5 166q0 156 110 259t267 103q151 0 258.5 -98t107.5 -246q0 -110 -64.5 -200t-168.5 -150l235 -232l144 312h303v-228h-145l-127 -258l249 -251l-172 -170l-231 229q-174 -238 -440 -238 q-120 0 -226 53t-172.5 151.5t-66.5 219.5zM342 414q0 -86 63.5 -145.5t149.5 -59.5q87 0 144.5 45t103.5 129l-273 268q-86 -44 -137 -99t-51 -138zM457 1143q0 -55 26 -95.5t76 -84.5l19 -17q149 94 149 195q0 60 -38 102.5t-97 42.5q-60 0 -97.5 -41t-37.5 -102z"/>
<glyph unicode="'" horiz-adv-x="409" d="M74 1462h258l-56 -588h-149z"/>
<glyph unicode="(" horiz-adv-x="737" d="M74 596q0 190 74.5 365.5t213.5 308.5t318 192v-305q-150 -86 -237 -236t-87 -323q0 -171 87.5 -324.5t236.5 -234.5v-311q-273 98 -439.5 337.5t-166.5 530.5z"/>
<glyph unicode=")" horiz-adv-x="737" d="M74 39q149 81 236 234.5t87 324.5q0 173 -86.5 322t-236.5 237v305q179 -59 318 -192t213.5 -308.5t74.5 -365.5q0 -192 -75 -367t-213 -306t-318 -195v311z"/>
<glyph unicode="*" horiz-adv-x="737" d="M70 1104v131l192 -6l-112 160l112 73l107 -176l96 176l117 -69l-103 -158l189 10v-129l-187 4l105 -153l-111 -74l-100 174l-90 -174l-113 63l98 160z"/>
<glyph unicode="+" horiz-adv-x="1351" d="M156 639v188h426v426h188v-426h426v-188h-426v-426h-188v426h-426z"/>
<glyph unicode="," horiz-adv-x="614" d="M178 0v289h258v-328q0 -68 -8.5 -110.5t-40.5 -81.5q-34 -41 -71.5 -52.5t-98.5 -11.5h-39v139h27q24 0 40.5 8t25 18.5t12.5 30.5t5 34t1 38v27h-111z"/>
<glyph unicode="-" horiz-adv-x="655" d="M66 414v248h524v-248h-524z"/>
<glyph unicode="." horiz-adv-x="614" d="M178 0v289h258v-289h-258z"/>
<glyph unicode="/" d="M74 -399l915 1861h182l-917 -1861h-180z"/>
<glyph unicode="0" d="M66 532v410q0 129 27.5 217.5t107.5 171.5q77 80 179.5 125t211.5 45q104 0 200.5 -39t172.5 -110q91 -85 124 -179.5t33 -230.5v-410q0 -128 -28.5 -217t-108.5 -172q-80 -81 -181.5 -126.5t-211.5 -45.5q-101 0 -198 40t-173 112q-90 85 -122.5 178.5t-32.5 230.5z M340 528q0 -71 8.5 -117.5t38.5 -91.5q68 -98 207 -98q67 0 124.5 29t90.5 84q25 41 32 85t7 109v414q0 71 -8.5 117.5t-40.5 91.5q-33 49 -87.5 74.5t-117.5 25.5q-67 0 -124.5 -29.5t-90.5 -84.5q-18 -29 -27 -64.5t-10.5 -60t-1.5 -70.5v-414z"/>
<glyph unicode="1" d="M274 1229v233h486v-1229h172v-233h-615v233h172v996h-215z"/>
<glyph unicode="2" d="M104 985q-1 145 63 263t179.5 185.5t259.5 67.5q130 0 239.5 -64t172.5 -174t63 -241q0 -62 -16.5 -120t-37.5 -98.5t-64.5 -91.5t-72.5 -79.5t-87 -81.5l-346 -318h374v156h240v-389h-960v233l526 510q4 4 26 25.5t28 27.5t25.5 26t26.5 30t21.5 29t20.5 32.5t14 32.5 t11 37t3 37q0 91 -65 151t-156 60q-101 0 -164.5 -72t-58.5 -174h-265z"/>
<glyph unicode="3" d="M86 422h276q14 -89 78.5 -148t153.5 -59q97 0 166 68.5t69 165.5q0 111 -73.5 177t-184.5 66h-55l-12 -2v213h57q99 0 163 46t64 143q0 81 -52 131.5t-132 50.5q-74 0 -124.5 -47.5t-53.5 -122.5h-252q1 116 63 208t161 140.5t212 48.5q112 0 208 -45.5t157 -134.5 t61 -203q0 -93 -45.5 -177t-124.5 -124q113 -41 181.5 -146.5t68.5 -230.5q0 -93 -40 -179t-111 -152q-144 -138 -355 -138q-100 0 -192 31t-164.5 87t-117.5 142.5t-50 190.5z"/>
<glyph unicode="4" d="M20 389v213l631 860h314v-860h219v-213h-219v-156h170v-233h-611v233h170v156h-674zM317 602h377v531z"/>
<glyph unicode="5" d="M57 391h287q31 -79 95.5 -123.5t150.5 -44.5q116 0 195 79t79 194t-81 191.5t-195 76.5q-77 0 -139.5 -38t-96.5 -105l-229 59l131 782h778v-233h-563l-57 -309q110 77 256 77q135 0 245.5 -69t172 -183.5t61.5 -248.5q0 -151 -77 -272.5t-204.5 -187t-277.5 -65.5 q-199 0 -344.5 114t-186.5 306z"/>
<glyph unicode="6" d="M61 524q0 97 33 182t96 179l394 577h305l-340 -485q57 33 129 33q130 0 237.5 -71t166.5 -185t59 -242q0 -148 -71 -272.5t-195.5 -196.5t-274.5 -72q-100 0 -203 43t-176 113q-77 77 -118.5 182.5t-41.5 214.5zM330 510q0 -113 78.5 -193.5t193.5 -80.5q111 0 193 78.5 t82 187.5q0 115 -79 195.5t-194 80.5q-113 0 -193.5 -77.5t-80.5 -190.5z"/>
<glyph unicode="7" d="M117 993v469h970v-235l-544 -1227h-301l565 1229h-426v-236h-264z"/>
<glyph unicode="8" d="M84 426q0 122 70.5 226.5t183.5 148.5q-85 38 -133.5 118t-48.5 175q0 91 36.5 168.5t98 129t142 80.5t167.5 29q107 0 201.5 -48.5t153.5 -138t59 -198.5q0 -197 -166 -301q115 -38 185.5 -143.5t70.5 -229.5q0 -137 -73.5 -246.5t-190 -167t-250.5 -57.5 q-99 0 -190.5 31.5t-161.5 88.5t-112 144t-42 191zM352 442q0 -99 70.5 -166t169.5 -67q94 0 160.5 69.5t66.5 163.5q0 97 -69 165.5t-166 68.5t-164.5 -68.5t-67.5 -165.5zM399 1085q0 -78 54 -133t133 -55q76 0 130 54.5t54 129.5q0 76 -54 132.5t-128 56.5 q-77 0 -133 -54.5t-56 -130.5z"/>
<glyph unicode="9" d="M57 965q0 107 45 206t119 171.5t175 115.5t208 43q102 0 201.5 -39.5t175.5 -109.5q168 -158 168 -402q0 -105 -28.5 -184t-92.5 -176l-391 -590h-338l365 485q-70 -34 -129 -34q-136 0 -247 73t-171 190.5t-60 250.5zM328 965q0 -116 80 -197.5t196 -81.5t195.5 81.5 t79.5 197.5q0 110 -82 189t-193 79q-113 0 -194.5 -79t-81.5 -189z"/>
<glyph unicode=":" horiz-adv-x="614" d="M178 0v289h258v-289h-258zM178 764v289h258v-289h-258z"/>
<glyph unicode=";" horiz-adv-x="614" d="M178 0v289h258v-328q0 -68 -8.5 -110.5t-40.5 -81.5q-34 -41 -71.5 -52.5t-98.5 -11.5h-39v139h27q24 0 40.5 8t25 18.5t12.5 30.5t5 34t1 38v27h-111zM178 764v289h258v-289h-258z"/>
<glyph unicode="&lt;" horiz-adv-x="1351" d="M113 643v180l1106 510v-188l-922 -414l922 -407v-187z"/>
<glyph unicode="=" horiz-adv-x="1351" d="M156 477v191h1040v-191h-1040zM156 797v190h1040v-190h-1040z"/>
<glyph unicode="&gt;" horiz-adv-x="1351" d="M113 137v187l921 407l-921 414v188l1106 -510v-180z"/>
<glyph unicode="?" horiz-adv-x="1105" d="M74 999q-2 136 61.5 251.5t177.5 183t252 67.5q127 0 237.5 -65t176 -175.5t65.5 -238.5q0 -69 -17 -125.5t-45.5 -95t-62.5 -72t-70.5 -65.5t-68 -66t-55.5 -82t-33 -106h-258q0 83 28.5 154t68 119t108.5 112q32 29 42.5 38.5t34.5 36t33 44t18 45.5t9 57 q0 88 -63 153.5t-150 65.5q-99 0 -161 -67.5t-64 -168.5h-264zM434 0v289h258v-289h-258z"/>
<glyph unicode="@" horiz-adv-x="1802" d="M168 721q0 157 64.5 302t172 249.5t253.5 166.5t303 62q135 0 257.5 -45t215 -124.5t147.5 -197.5t55 -255q0 -214 -106 -359q-60 -83 -151 -137.5t-185 -54.5q-66 0 -101 31.5t-44 97.5q-94 -121 -236 -121q-131 0 -208 96t-77 232q0 85 36 172.5t95 157t142.5 113.5 t171.5 44q65 0 121 -34.5t80 -92.5l22 63h147l-151 -491q-18 -61 -18 -90q0 -62 61 -62q47 0 100.5 36t87.5 79q99 122 99 301q0 120 -44.5 219t-121.5 164.5t-179.5 101t-220.5 35.5q-271 0 -460 -186q-197 -194 -197 -463q0 -187 89.5 -334.5t242 -227t338.5 -79.5 q162 0 292.5 52t243.5 165l43 -92q-115 -127 -255.5 -185.5t-317.5 -58.5q-152 0 -301.5 51.5t-259.5 147.5q-114 99 -180 248t-66 303zM690 657q0 -75 39.5 -127.5t110.5 -52.5q150 0 225 203q41 113 41 192q0 63 -35 102.5t-98 39.5q-61 0 -115.5 -34.5t-90 -88 t-56.5 -115.5t-21 -119z"/>
<glyph unicode="A" horiz-adv-x="1597" d="M14 0v233h156l426 996h-162v233h490l512 -1229h155v-233h-616v205h162l-86 219h-514l-84 -219h157v-205h-596zM608 639h373l-184 502h-2z"/>
<glyph unicode="B" horiz-adv-x="1228" d="M45 0v233h158v996h-158v233h649q96 0 169.5 -15.5t133.5 -60.5q138 -106 138 -290q0 -102 -50 -186t-141 -126q122 -50 188 -148t66 -228q0 -89 -36 -171.5t-101 -138.5q-67 -59 -146.5 -78.5t-189.5 -19.5h-680zM481 244h154q50 0 73 1t63.5 9.5t66.5 26.5 q39 26 60.5 69t21.5 90q0 106 -80 166q-28 20 -65.5 30t-63.5 11.5t-74 1.5h-156v-405zM483 879h142h24.5h26t23.5 0.5t25 2t22 4t23.5 6.5t21.5 9.5t22 13.5q66 48 66 140q0 96 -76 145q-11 7 -22 12t-26 8t-23 5t-28 3t-24.5 1h-28h-24.5h-144v-350z"/>
<glyph unicode="C" horiz-adv-x="1556" d="M41 743q0 151 59 291t158 242.5t238 163.5t292 61q131 0 248.5 -45t204.5 -135v147h229v-467h-266q-61 103 -172 163.5t-231 60.5q-206 0 -342.5 -139t-136.5 -345q0 -197 139 -339t336 -142q127 0 235.5 58t175.5 163h301q-72 -223 -273 -366.5t-437 -143.5 q-147 0 -289.5 60.5t-247.5 165.5q-107 108 -164 250t-57 296z"/>
<glyph unicode="D" horiz-adv-x="1515" d="M45 0v233h160v996h-160v233h694q163 0 284 -42.5t226 -149.5q103 -105 155 -245.5t52 -297.5q0 -142 -48 -275t-140 -235q-104 -118 -233.5 -167.5t-299.5 -49.5h-690zM483 252h219q120 0 205.5 26t151.5 103q58 67 88.5 160t30.5 186q0 105 -31.5 204t-95.5 167 q-69 70 -148.5 93t-195.5 23h-224v-962z"/>
<glyph unicode="E" d="M45 0v233h160v996h-160v233h1083v-440h-278v190h-367v-364h426v-217h-426v-387h367v198h278v-442h-1083z"/>
<glyph unicode="F" d="M45 0v233h160v996h-160v233h1092v-440h-279v190h-375v-374h424v-215h-424v-390h160v-233h-598z"/>
<glyph unicode="G" horiz-adv-x="1597" d="M41 735q0 310 207 529q106 111 251.5 174t297.5 63q259 0 460 -174v135h230v-430h-303q-71 95 -166 142q-94 49 -215 49q-203 0 -342 -140.5t-139 -343.5q0 -202 139 -345.5t340 -143.5q147 0 261.5 76t168.5 211h-541v235h850v-772h-231v225q-83 -123 -218 -188.5 t-290 -65.5t-296 60.5t-242.5 163t-161.5 243.5t-60 297z"/>
<glyph unicode="H" horiz-adv-x="1515" d="M45 0v233h160v996h-160v233h596v-233h-158v-352h564v352h-158v233h594v-233h-158v-996h158v-233h-594v233h158v365h-564v-365h158v-233h-596z"/>
<glyph unicode="I" horiz-adv-x="696" d="M45 0v233h160v996h-160v233h596v-233h-158v-996h158v-233h-596z"/>
<glyph unicode="J" horiz-adv-x="1105" d="M25 412h290q2 -73 45 -128t115 -55q88 0 137 80q29 51 29 185v735h-160v233h596v-233h-157v-770q0 -115 -19 -191t-82 -149q-61 -69 -153 -108.5t-189 -39.5q-200 0 -329 123q-123 116 -123 298v20z"/>
<glyph unicode="K" horiz-adv-x="1474" d="M45 0v233h160v996h-160v233h596v-233h-158v-428l453 428h-131v233h602v-233h-125l-520 -479l547 -517h129v-233h-623v233h143l-475 453v-453h158v-233h-596z"/>
<glyph unicode="L" horiz-adv-x="1146" d="M45 0v233h160v996h-160v233h596v-233h-158v-979h351v192h278v-442h-1067z"/>
<glyph unicode="M" horiz-adv-x="1966" d="M37 0v233h160v996h-160v233h549l397 -1032l397 1032h549v-233h-160v-996h160v-233h-596v233h158v850l-404 -1083h-196l-416 1083v-850h170v-233h-608z"/>
<glyph unicode="N" horiz-adv-x="1638" d="M45 0v233h158v996h-158v233h410l696 -979v746h-160v233h596v-233h-157v-1229h-261l-688 963v-730h160v-233h-596z"/>
<glyph unicode="O" horiz-adv-x="1597" d="M41 731q0 127 39 244.5t110.5 212t166.5 165t212.5 108.5t243.5 38q153 0 294 -60t243.5 -161.5t163.5 -241.5t61 -293q0 -158 -60.5 -301t-162.5 -247t-244.5 -165t-300.5 -61q-156 0 -297.5 60t-244 162t-163.5 243.5t-61 296.5zM328 739q0 -204 139 -347.5t340 -143.5 q133 0 244 66.5t174 180t63 246.5q0 129 -64 239.5t-174 175.5t-239 65q-131 0 -242 -64t-176 -175t-65 -243z"/>
<glyph unicode="P" horiz-adv-x="1228" d="M47 0v233h158v996h-158v233h582q258 0 389 -96q90 -66 135 -165t45 -216q0 -98 -36.5 -187.5t-104.5 -156.5q-75 -77 -164 -106t-209 -29h-201v-273h160v-233h-596zM483 758h166q44 0 70 2t59.5 13.5t59.5 33.5q80 68 80 178q0 54 -25 101.5t-68 76.5q-40 29 -82 37 t-106 8h-154v-450z"/>
<glyph unicode="Q" horiz-adv-x="1761" d="M41 743q0 153 60.5 293.5t162 242t242 162t293.5 60.5q156 0 298.5 -60t246 -161.5t164.5 -243t61 -297.5q0 -132 -44.5 -257t-129.5 -220q83 -59 168 -65v135h204v-371l-86 -6q-261 0 -450 147q-200 -131 -428 -131q-158 0 -300 61t-243 164.5t-160 246t-59 300.5z M328 782l6 -75q119 49 256 49q171 0 314 -80.5t276 -224.5q102 120 102 278q0 205 -139.5 349.5t-343.5 144.5q-98 0 -188 -38.5t-156 -109.5q-57 -61 -92 -138.5t-35 -154.5zM389 485q63 -112 175.5 -173.5t244.5 -61.5q117 0 203 55q-103 107 -208 166t-231 59 q-104 0 -184 -45z"/>
<glyph unicode="R" horiz-adv-x="1310" d="M45 0v233h158v996h-158v233h653q124 0 214 -22t169 -90q85 -73 129.5 -172t44.5 -213q0 -107 -43.5 -203.5t-127.5 -162.5t-191 -75l227 -291h166v-233h-342l-463 657v-424h125v-233h-561zM481 684h152q80 0 137 11t107 48q100 77 100 211q0 60 -25 115.5t-71 91.5 q-29 24 -66 36t-63.5 13.5t-77.5 1.5h-193v-528z"/>
<glyph unicode="S" horiz-adv-x="1064" d="M41 1071q0 118 61 215.5t162.5 152t218.5 54.5q174 0 260 -113v82h213v-393h-249q-2 82 -56 136.5t-135 54.5q-85 0 -142 -49.5t-57 -133.5q0 -49 17 -84t58 -58.5t67.5 -33.5t84.5 -27q9 -3 13 -4q73 -20 114 -33t98 -39.5t101 -60.5q146 -118 146 -307 q0 -198 -131.5 -328.5t-331.5 -130.5q-179 0 -281 125v-96h-221v434h254q0 -94 59.5 -158.5t157.5 -64.5q93 0 154 54.5t61 146.5q0 30 -9 56t-20 44t-35 35.5t-39.5 26.5t-48.5 21.5t-47.5 16.5t-50.5 15q-70 20 -105 32t-87 36.5t-94 56.5q-160 120 -160 319z"/>
<glyph unicode="T" horiz-adv-x="1228" d="M41 1001v461h1151v-461h-221v213h-215v-981h159v-233h-598v233h160v981h-215v-213h-221z"/>
<glyph unicode="U" horiz-adv-x="1433" d="M47 1229v233h569v-233h-133v-688q0 -44 2 -72.5t12 -66t29 -66.5q33 -50 86.5 -76.5t114.5 -26.5q117 0 188 89q54 69 54 219v688h-133v233h569v-233h-158v-725q0 -125 -28 -215t-105 -170q-141 -148 -387 -148q-239 0 -377 135q-84 82 -114.5 178t-30.5 228v717h-158z "/>
<glyph unicode="V" horiz-adv-x="1515" d="M14 1229v233h592v-233h-139l289 -844l309 844h-141v233h575v-233h-156l-446 -1229h-305l-420 1229h-158z"/>
<glyph unicode="W" horiz-adv-x="2088" d="M14 1229v233h594v-233h-159l206 -768l265 1001h235l281 -993l196 760h-164v233h594v-233h-161l-326 -1229h-264l-271 965l-270 -965h-260l-350 1229h-146z"/>
<glyph unicode="X" horiz-adv-x="1515" d="M39 0v233h143l408 508l-385 488h-150v233h602v-215h-135l236 -311l235 311h-135v215h604v-233h-147l-393 -488l405 -508h150v-233h-600v215h143l-262 334l-264 -334h145v-215h-600z"/>
<glyph unicode="Y" horiz-adv-x="1392" d="M14 1229v233h566v-233h-136l246 -484l244 484h-139v233h563v-233h-146l-385 -719v-277h160v-233h-596v233h158v277l-387 719h-148z"/>
<glyph unicode="Z" horiz-adv-x="1146" d="M41 0v219l696 1000h-413v-201h-248v444h997v-211l-700 -1007h475v200h256v-444h-1063z"/>
<glyph unicode="[" horiz-adv-x="778" d="M84 -264v1726h610v-235h-329v-1256h329v-235h-610z"/>
<glyph unicode="\" horiz-adv-x="1269" d="M221 1462h207l623 -1462h-205z"/>
<glyph unicode="]" horiz-adv-x="778" d="M84 -29h330v1256h-330v235h610v-1726h-610v235z"/>
<glyph unicode="^" horiz-adv-x="1351" d="M78 356l506 1106h180l510 -1106h-187l-415 908l-408 -908h-186z"/>
<glyph unicode="_" horiz-adv-x="1024" d="M0 -154h1024v-102h-1024v102z"/>
<glyph unicode="`" horiz-adv-x="942" d="M145 1485l101 221l549 -295l-84 -182z"/>
<glyph unicode="a" horiz-adv-x="1351" d="M25 541q0 156 76 290t208.5 212.5t288.5 78.5q106 0 194.5 -47.5t145.5 -136.5v156h391v-234h-137v-627h137v-233h-391v147q-58 -88 -149.5 -132t-202.5 -44q-153 0 -282.5 77.5t-204 208.5t-74.5 284zM283 541q0 -133 96.5 -229.5t228.5 -96.5q140 0 237 99t97 239 q0 135 -97.5 230.5t-232.5 95.5q-138 0 -233.5 -99.5t-95.5 -238.5z"/>
<glyph unicode="b" horiz-adv-x="1351" d="M35 0v233h141v996h-141v233h391v-526q58 85 145.5 129.5t192.5 44.5q114 0 218 -45t179.5 -120.5t120.5 -179.5t45 -218q0 -107 -38 -207.5t-109 -177.5q-73 -81 -177 -129.5t-210 -48.5q-111 0 -208 46.5t-159 133.5v-164h-391zM416 553q0 -142 98.5 -240t239.5 -98 q136 0 230.5 100t94.5 236q0 137 -97.5 234.5t-233.5 97.5q-137 0 -234.5 -97t-97.5 -233z"/>
<glyph unicode="c" d="M25 547q0 150 71.5 283t199.5 214.5t279 81.5q186 0 314 -137v105h215v-365h-234q-46 67 -116 109q-71 41 -156 41q-138 0 -231 -97t-93 -235q0 -139 96.5 -234.5t233.5 -95.5q82 0 155 41t107 111h279q-51 -172 -206.5 -285t-336.5 -113q-156 0 -289 77t-210.5 209.5 t-77.5 289.5z"/>
<glyph unicode="d" horiz-adv-x="1351" d="M25 547q0 113 43.5 217t117.5 180.5t177.5 122t216.5 45.5q105 0 200.5 -47t159.5 -131v295h-143v233h393v-1229h141v-233h-391v164q-60 -90 -153 -135t-205 -45q-150 0 -278.5 77t-203.5 207t-75 279zM285 543q0 -135 96.5 -232.5t232.5 -97.5q139 0 235.5 99.5 t96.5 238.5q0 135 -97 231.5t-231 96.5q-139 0 -236 -98t-97 -238z"/>
<glyph unicode="e" d="M27 543q0 160 73.5 293.5t204.5 211.5t291 78q113 0 221.5 -47t188.5 -129q153 -161 153 -409l-8 -88h-885q25 -114 118 -188.5t210 -74.5q175 0 264 132h260q-65 -158 -206 -254.5t-310 -96.5q-157 0 -289 75t-209 207t-77 290zM264 645h664q-32 118 -126.5 188 t-217.5 70q-110 0 -203.5 -75.5t-116.5 -182.5z"/>
<glyph unicode="f" horiz-adv-x="655" d="M35 0v233h141v627h-141v234h141q-1 203 107.5 305t316.5 102v-223h-4q-90 0 -132 -46q-39 -43 -39 -120q0 -9 1 -18h143v-234h-143v-627h143v-233h-534z"/>
<glyph unicode="g" horiz-adv-x="1351" d="M25 549q0 148 75 278t203.5 207.5t276.5 77.5q249 0 364 -178v160h371v-234h-141v-715q0 -147 -26 -242.5t-112 -181.5q-168 -165 -428 -165q-87 0 -169.5 21.5t-154.5 63.5t-124.5 110.5t-73.5 154.5h289q31 -65 100 -100t146 -35q65 0 127.5 26.5t103.5 73.5 q48 57 62 111.5t14 142.5v41q-112 -182 -350 -182q-152 0 -280 77.5t-200.5 207t-72.5 280.5zM281 551q0 -140 97 -238t236 -98q140 0 236 99.5t96 238.5q0 136 -98.5 233t-235.5 97q-136 0 -233.5 -97.5t-97.5 -234.5z"/>
<glyph unicode="h" horiz-adv-x="1310" d="M35 0v233h141v996h-141v233h391v-532q52 92 137 140t191 48q94 0 173.5 -42t135.5 -118t73 -154.5t17 -193.5v-377h141v-233h-532v233h141v310v33v36t-1 31.5t-3.5 35t-6.5 30.5t-10.5 33t-15.5 30q-64 100 -198 100q-56 0 -106 -23t-83 -65q-26 -32 -38 -72t-13.5 -65.5 t-1.5 -81.5v-332h141v-233h-532z"/>
<glyph unicode="i" horiz-adv-x="614" d="M39 0v233h143v627h-141v234h391v-861h141v-233h-534zM182 1198v264h250v-264h-250z"/>
<glyph unicode="j" horiz-adv-x="573" d="M25 -180q26 1 48 6.5t38.5 13.5t30 19t22.5 24.5t16 29t10.5 32.5t6 35.5t3 38t1.5 39.5t0 40v21v741h-142v234h392v-1078q0 -213 -105 -314.5t-321 -113.5v232zM201 1198v264h250v-264h-250z"/>
<glyph unicode="k" horiz-adv-x="1228" d="M35 0v233h143v996h-143v233h393v-858l281 281h-113v209h539v-234h-134l-301 -291l320 -336h172v-233h-596v233h92l-260 287v-287h98v-233h-491z"/>
<glyph unicode="l" horiz-adv-x="614" d="M35 0v233h151v996h-141v233h391v-1229h142v-233h-543z"/>
<glyph unicode="m" horiz-adv-x="2007" d="M41 0v233h141v627h-141v234h369v-164q116 190 315 190q112 0 202.5 -62.5t137.5 -166.5q44 103 143.5 166t214.5 63q90 0 173.5 -36t142.5 -103q31 -36 49.5 -74t26 -86t9 -80.5t1.5 -93.5v-414h141v-233h-532v233h141v353q0 47 -1 71.5t-9 60.5t-23 66q-63 90 -178 90 q-53 0 -103 -21t-81 -60q-24 -31 -36 -67.5t-14 -63t-2 -76.5v-353h142v-233h-533v233h142v336q0 148 -33 205q-26 48 -74.5 74t-105.5 26q-109 0 -174 -79q-38 -46 -49 -97.5t-11 -126.5v-338h141v-233h-532z"/>
<glyph unicode="n" horiz-adv-x="1310" d="M35 0v233h141v627h-141v234h391v-156q48 88 134 134t190 46q90 0 172.5 -35.5t142.5 -99.5q43 -47 64 -103t24.5 -98t3.5 -120v-429h141v-233h-532v233h141v355q0 45 -1.5 70t-11.5 61.5t-30 64.5q-33 43 -84 65.5t-108 22.5q-59 0 -112.5 -24t-86.5 -68 q-22 -28 -33 -72.5t-12.5 -74.5t-1.5 -82v-318h141v-233h-532z"/>
<glyph unicode="o" d="M25 551q0 117 46 224t123.5 183.5t184 122t223.5 45.5q154 0 285.5 -78t207.5 -210t76 -285q0 -157 -76 -291t-208.5 -212.5t-290.5 -78.5q-156 0 -288 79t-207.5 212.5t-75.5 288.5zM270 553q0 -137 94 -236.5t232 -99.5q136 0 233 96.5t97 233.5q0 135 -94.5 234.5 t-229.5 99.5q-136 0 -234 -96t-98 -232z"/>
<glyph unicode="p" horiz-adv-x="1351" d="M35 -166h139v1026h-139v234h391v-172q59 92 152 138t206 46q152 0 280.5 -76t202.5 -205.5t74 -281.5q0 -148 -72 -276.5t-198 -205.5t-274 -77q-111 0 -209 43t-162 127v-320h141v-233h-532v233zM424 545q0 -137 97 -233.5t233 -96.5q135 0 232 96.5t97 231.5t-94 234.5 t-229 99.5q-139 0 -237.5 -96t-98.5 -236z"/>
<glyph unicode="q" horiz-adv-x="1351" d="M25 543q0 152 74.5 281.5t203.5 205.5t281 76q113 0 205 -46t151 -138v172h391v-234h-139v-1026h139v-233h-532v233h141v320q-64 -84 -162 -127t-209 -43q-148 0 -274 77t-198 205.5t-72 276.5zM285 543q0 -135 96.5 -231.5t230.5 -96.5q138 0 234 96.5t96 233.5 q0 140 -98 236t-238 96q-135 0 -228 -99.5t-93 -234.5z"/>
<glyph unicode="r" horiz-adv-x="778" d="M35 0v233h141v627h-141v234h373v-187q46 94 132 144t195 55v-256q-134 -7 -215 -80q-56 -48 -75 -109.5t-19 -150.5v-277h141v-233h-532z"/>
<glyph unicode="s" horiz-adv-x="942" d="M47 786q0 101 52.5 177.5t136 114.5t182.5 38q171 0 248 -98v76h184v-297h-242q-3 58 -42.5 93.5t-98.5 35.5q-55 0 -97 -30.5t-42 -84.5q0 -29 12 -52.5t27.5 -37t44 -25t46.5 -16.5t50 -12q50 -11 85 -20.5t81 -26t77.5 -34t64.5 -44.5t53 -58.5t33 -75t13 -94.5 q0 -106 -55.5 -186t-143 -119t-192.5 -39q-180 0 -282 119v-90h-191v317h256q6 -74 53 -118.5t123 -44.5q60 0 105 38t45 97q0 18 -3 33t-11.5 27.5t-15 21.5t-21.5 17.5t-23 13.5t-28 11.5t-27 9t-30 8.5t-28 7q-51 13 -82.5 22t-79 26t-76.5 34t-63 43.5t-53 57t-32 73 t-13 92.5z"/>
<glyph unicode="t" horiz-adv-x="696" d="M25 860v234h172v368h249v-368h187v-234h-187v-627h199v-233h-448v860h-172z"/>
<glyph unicode="u" horiz-adv-x="1310" d="M27 860v234h391v-592q0 -44 2 -72.5t12 -66.5t29 -66q61 -94 184 -94q52 0 102 24.5t82 65.5q22 31 33 70.5t13 67.5t2 77v352h-142v234h391v-861h142v-233h-371v135q-53 -78 -142.5 -121t-187.5 -43q-88 0 -167 36.5t-136 103.5q-56 66 -76 141.5t-20 175.5v432h-141z "/>
<glyph unicode="v" horiz-adv-x="1228" d="M14 860v234h510v-234h-110l200 -553h2l215 553h-116v234h504v-234h-129l-345 -860h-262l-336 860h-133z"/>
<glyph unicode="w" horiz-adv-x="1802" d="M14 860v234h506v-234h-121l158 -514h2l229 707h205l213 -707h2l168 514h-125v234h516v-234h-145l-299 -860h-242l-198 643l-236 -643h-233l-262 860h-138z"/>
<glyph unicode="x" horiz-adv-x="1269" d="M35 0v233h129l289 320l-283 307h-123v234h504v-193h-92l168 -190l166 190h-93v193h498v-234h-123l-278 -307l293 -320h127v-233h-517v205h86l-159 194l-162 -194h86v-205h-516z"/>
<glyph unicode="y" horiz-adv-x="1228" d="M14 860v234h516v-234h-106l194 -534l207 534h-106v234h510v-234h-137l-424 -1026h143v-233h-532v233h137l73 180l-331 846h-144z"/>
<glyph unicode="z" horiz-adv-x="942" d="M25 0v201l555 659h-312v-129h-219v363h840v-226l-527 -635h336v121h220v-354h-893z"/>
<glyph unicode="{" horiz-adv-x="655" d="M74 604q55 9 104 45q28 22 41.5 53.5t15 53.5t1.5 67v336q0 52 2.5 85t17 77.5t41.5 71.5q13 12 27 22t32 17t31 12.5t36.5 8.5t33.5 5t38 3t34.5 1h37.5h33q-88 -27 -124 -81.5t-36 -149.5v-354q0 -47 -3.5 -80t-14.5 -67t-30 -57t-51.5 -41t-78.5 -28q104 -25 141 -85 t37 -173v-379q0 -99 34 -151t126 -80q-8 0 -42.5 -0.5t-44.5 0t-38 2t-41.5 5t-36 9t-41 14.5t-37.5 21q-37 24 -56 62t-23 70.5t-4 84.5v379q0 38 -1.5 57t-11.5 45t-30 50q-44 50 -119 69z"/>
<glyph unicode="|" horiz-adv-x="1351" d="M582 -512v2048h188v-2048h-188z"/>
<glyph unicode="}" horiz-adv-x="655" d="M76 -264q91 28 124 80t33 151v379q0 112 37.5 172.5t141.5 85.5q-107 23 -143 88.5t-36 184.5v354q0 96 -34.5 150t-122.5 79q53 0 104 0.5t106 -16t91 -51.5q27 -27 41.5 -71.5t17 -77.5t2.5 -85v-336q0 -45 1.5 -67t15 -53.5t41.5 -53.5q49 -36 104 -45 q-75 -19 -119 -69q-20 -24 -30 -50t-11.5 -45t-1.5 -57v-379q0 -51 -4 -84t-23.5 -71t-56.5 -62q-19 -12 -37.5 -21t-40.5 -14.5l-36 -9t-41.5 -5t-37.5 -2t-43.5 0t-41.5 0.5z"/>
<glyph unicode="~" horiz-adv-x="1351" d="M82 643q28 44 51 76t56.5 68.5t67 59t78 37.5t93.5 15q74 0 171.5 -34.5t184 -68.5t134.5 -34q22 0 43 8t35 17t33 30.5t26.5 31t26 37t22.5 32.5l147 -95q-79 -111 -119 -150q-94 -93 -214 -93q-37 0 -76.5 8t-64 16.5t-72.5 26.5l-99 39q-12 4 -40.5 15t-46.5 17 t-43 11.5t-44 5.5q-22 0 -41 -4.5t-37 -17t-29 -20.5t-28 -31t-22.5 -30t-24.5 -36t-21 -33z"/>
<glyph unicode="¡" horiz-adv-x="409" d="M76 -371v1024h258v-1024h-258zM76 805v289h258v-289h-258z"/>
<glyph unicode="¢" d="M121 727q0 169 109 306t274 171v203h205v-199q103 -25 172 -100v80h157v-332h-237q-25 51 -78 79t-113 28q-97 0 -164 -67t-67 -165q0 -99 69 -164t168 -65q103 0 177 90h274q-37 -128 -131 -213t-227 -121v-199h-205v207q-164 29 -273.5 162t-109.5 299z"/>
<glyph unicode="£" d="M27 614v205h137q-62 98 -62 215q0 96 39.5 182.5t103.5 146.5t147 95t169 35q74 0 131 -28t111 -87v84h229v-405h-229q-4 91 -65.5 147t-147.5 56q-96 0 -162 -70t-66 -174q0 -109 76 -197h375v-205h-252q46 -57 70 -104.5t24 -106.5q0 -120 -92 -188h127q39 0 64 2 t58 12t56 29q34 27 53 72t19 94q0 36 -12 76h215q20 -53 20 -109q0 -183 -139 -297q-111 -94 -319 -94h-590v215h151q60 9 95.5 52.5t35.5 109.5q0 45 -17 88t-35 68.5t-54 68.5q-7 8 -10 12h-254z"/>
<glyph unicode="¤" d="M76 319l112 111q-40 54 -62 127.5t-22 144.5q0 70 22 144.5t62 128.5l-110 108l141 142l107 -109q121 84 276 84q144 0 277 -82l106 107l141 -142l-108 -106q82 -118 82 -277q0 -78 -19 -138.5t-63 -133.5l108 -109l-141 -137l-106 107q-133 -86 -273 -86q-151 0 -278 86 l-109 -107zM330 702q0 -113 78.5 -193.5t191.5 -80.5t193.5 78.5t80.5 191.5q0 116 -79 196.5t-193 80.5t-193 -80t-79 -193z"/>
<glyph unicode="¥" d="M0 1231v231h498v-231h-117l217 -488l215 488h-117v231h492v-231h-129l-170 -371h237v-117h-295l-43 -88h338v-116h-395l-12 -31v-275h141v-233h-524v233h139v275l-16 31h-400v116h342l-39 88h-303v117h246l-174 371h-131z"/>
<glyph unicode="¦" horiz-adv-x="1351" d="M582 358h188v-716h-188v716zM582 666v716h188v-716h-188z"/>
<glyph unicode="§" horiz-adv-x="942" d="M76 84v31h219q-7 -84 42.5 -131t135.5 -47q75 0 128.5 41t53.5 114q0 26 -7.5 47.5t-16.5 36t-29 28t-32.5 20.5t-41 16t-40 12t-42.5 10q-348 80 -348 354q0 101 57.5 179t153.5 110q-200 76 -200 246q0 137 106 224t246 87q152 0 261.5 -86t108.5 -235h-208 q7 56 -39 92.5t-105 36.5q-64 0 -108.5 -38.5t-44.5 -101.5q0 -21 6.5 -40t14.5 -32t25.5 -26t28.5 -20t35.5 -16.5t35 -13t37.5 -11.5t34 -10q66 -18 111.5 -38.5t84.5 -56.5q53 -45 82 -109.5t29 -135.5q0 -93 -49 -167t-133 -118q95 -33 146.5 -100t51.5 -166 q0 -100 -56 -179t-142.5 -119t-184.5 -40q-171 0 -282 94q-58 48 -91.5 116.5t-33.5 141.5zM305 612q0 -67 50.5 -109t117.5 -42q64 0 113 44t49 107q0 66 -49 110t-115 44q-68 0 -117 -44t-49 -110z"/>
<glyph unicode="¨" horiz-adv-x="942" d="M156 1198v264h250v-264h-250zM537 1198v264h249v-264h-249z"/>
<glyph unicode="©" horiz-adv-x="1679" d="M78 737q0 208 102 383.5t278 278t384 102.5q123 0 239 -38.5t210 -108.5t165 -163t109.5 -209t38.5 -239q0 -159 -60 -302.5t-162.5 -246t-245.5 -163t-302 -60.5q-154 0 -294 61.5t-241 164.5t-161 244.5t-60 295.5zM180 739q0 -180 89 -332.5t241 -240.5t332 -88 q133 0 254.5 52t209.5 139.5t140.5 208t52.5 253.5q0 137 -52 260.5t-140 212t-210.5 140t-258.5 51.5q-133 0 -254.5 -52.5t-210 -140.5t-141 -209t-52.5 -254zM408 729q0 205 129 337t331 132q84 0 163 -26t142.5 -84.5t81.5 -139.5l-139 -33q-17 95 -84.5 146t-169.5 51 q-101 0 -175 -54.5t-108 -137.5t-34 -183q0 -155 81 -258.5t232 -103.5q101 0 171.5 54.5t103.5 152.5l122 -39q-41 -125 -157 -191.5t-256 -66.5q-196 0 -315 124t-119 320z"/>
<glyph unicode="ª" horiz-adv-x="860" d="M27 1151q0 140 98 245t237 105q132 0 203 -92v74h246v-152h-84v-354h84v-152h-246v72q-72 -90 -200 -90q-140 0 -239 102t-99 242zM193 1151q0 -75 54.5 -129.5t129.5 -54.5q79 0 133.5 55t54.5 135q0 76 -54.5 130t-129.5 54q-79 0 -133.5 -55.5t-54.5 -134.5z"/>
<glyph unicode="«" horiz-adv-x="737" d="M74 451v194l252 291l12 -236l-131 -161l131 -160l-12 -221zM403 451v186l250 295l13 -244l-127 -151l127 -152l-13 -217z"/>
<glyph unicode="¬" horiz-adv-x="1351" d="M80 797v190h1192v-631h-191v441h-1001z"/>
<glyph unicode="­" horiz-adv-x="655" d="M66 414v248h524v-248h-524z"/>
<glyph unicode="®" horiz-adv-x="1679" d="M76 739q0 156 61 297.5t164 243t244.5 161.5t296.5 60t296.5 -61t243.5 -163.5t162 -244t60 -297.5t-61 -297.5t-164 -244t-245 -162.5t-298 -60q-155 0 -296 61.5t-242.5 164.5t-161.5 245t-60 297zM182 739q0 -137 52 -259.5t140.5 -210.5t211.5 -139.5t260 -51.5 q177 0 328 90t238 242t87 329q0 135 -52.5 257t-141.5 210t-211.5 139.5t-257.5 51.5q-132 0 -253.5 -52.5t-209 -141t-139.5 -210t-52 -254.5zM526 291v909h416q146 0 217 -41q107 -61 107 -207q0 -124 -74.5 -185.5t-202.5 -64.5l260 -411h-149l-246 411h-199v-411h-129z M655 801h238q40 0 70 2.5t65 12t57 26t37 47t15 72.5q0 38 -14.5 66t-36 43.5t-54 24t-60 11t-63.5 2.5h-254v-307z"/>
<glyph unicode="¯" horiz-adv-x="1064" d="M145 1305v200h787v-200h-787z"/>
<glyph unicode="°" horiz-adv-x="819" d="M102 1194q0 126 90.5 216.5t217.5 90.5q126 0 216.5 -90.5t90.5 -216.5q0 -127 -90.5 -217t-216.5 -90q-128 0 -218 90t-90 217zM246 1194q0 -68 47 -114.5t117 -49.5q69 0 116 47.5t47 116.5t-47 116.5t-116 47.5t-116.5 -47.5t-47.5 -116.5z"/>
<glyph unicode="±" horiz-adv-x="1351" d="M156 209v188h1040v-188h-1040zM156 827v189h426v237h188v-237h426v-189h-426v-241h-188v241h-426z"/>
<glyph unicode="²" horiz-adv-x="712" d="M39 1192q-2 132 91 220.5t235 88.5q129 0 219 -83.5t90 -203.5q0 -37 -10.5 -71.5t-24.5 -59.5t-42.5 -55t-48 -47.5t-56.5 -48.5l-224 -191h244v93h156v-234h-625v141l342 306q1 1 24 22t28.5 26t22.5 24t22.5 30t11.5 28.5t6 34.5q0 54 -43 90.5t-103 36.5 q-65 0 -105.5 -43t-37.5 -104h-172z"/>
<glyph unicode="³" horiz-adv-x="712" d="M16 854h179q9 -54 50.5 -89.5t100.5 -35.5q63 0 108.5 41.5t45.5 99.5q0 66 -48.5 106t-119.5 40h-45v127h37q66 0 107.5 27t41.5 85q0 49 -34 79t-87 30q-48 0 -80.5 -28t-33.5 -72h-164q0 104 84.5 170.5t197.5 66.5q112 0 194.5 -63.5t82.5 -165.5q0 -56 -29.5 -106 t-81.5 -74q74 -26 119 -89.5t45 -138.5q0 -118 -100 -199t-230 -81q-136 0 -235 73t-105 197z"/>
<glyph unicode="´" horiz-adv-x="942" d="M145 1407l543 307l109 -219l-566 -266z"/>
<glyph unicode="µ" horiz-adv-x="1310" d="M35 860v234h391v-592q0 -51 6 -92.5t21.5 -81t40 -66t65 -43t94.5 -16.5q15 0 35 3t57.5 19.5t66.5 44.5t51 84.5t22 132.5v373h-142v234h392v-861h141v-233h-371v135q-53 -78 -142.5 -121t-187.5 -43q-81 0 -149 29v-399h-250v1259h-141z"/>
<glyph unicode="¶" horiz-adv-x="1105" d="M33 1096q0 80 32.5 152t92.5 124q61 54 129 72t166 18h655v-233h-141v-1493h-185v1493h-200v-1493h-185v995q-154 5 -259 108t-105 257z"/>
<glyph unicode="·" horiz-adv-x="614" d="M178 590v289h258v-289h-258z"/>
<glyph unicode="¸" horiz-adv-x="737" d="M141 -362h152q18 -62 74 -62q34 0 54.5 21t20.5 55q0 33 -21 56.5t-54 23.5q-40 0 -70 -33l-123 51l98 250h160l-57 -141l26 2q83 0 139 -61t56 -144q0 -100 -65.5 -164.5t-165.5 -64.5q-91 0 -154.5 60.5t-69.5 150.5z"/>
<glyph unicode="¹" horiz-adv-x="712" d="M137 1323v139h316v-737h112v-139h-399v139h110v598h-139z"/>
<glyph unicode="º" horiz-adv-x="737" d="M33 1161q0 142 100.5 241t243.5 99q140 0 240 -99t100 -237q0 -143 -100 -245.5t-244 -102.5q-141 0 -240.5 101.5t-99.5 242.5zM195 1161q0 -76 52 -130t126 -54q75 0 128.5 53.5t53.5 128.5q0 74 -52.5 128t-125.5 54q-75 0 -128.5 -53t-53.5 -127z"/>
<glyph unicode="»" horiz-adv-x="737" d="M74 385l125 152l-125 151l12 244l248 -295v-186l-248 -283zM401 379l129 160l-129 161l11 236l254 -291v-194l-254 -293z"/>
<glyph unicode="¼" horiz-adv-x="1781" d="M115 1323v139h315v-737h113v-139h-400v139h111v598h-139zM391 0l660 1462h200l-655 -1462h-205zM944 233v127l410 517h202v-517h144v-127h-144v-94h111v-139h-395v139h110v94h-438zM1137 360h245v318z"/>
<glyph unicode="½" horiz-adv-x="1781" d="M137 1323v139h316v-737h112v-139h-399v139h110v598h-139zM412 0l659 1462h201l-656 -1462h-204zM1067 592q-2 132 91 220.5t235 88.5q129 0 219 -83.5t90 -203.5q0 -37 -10.5 -71.5t-24.5 -59.5t-42.5 -55t-48 -47.5t-56.5 -48.5l-224 -191h244v92h156v-233h-625v141 l342 305q3 3 21 19t24 22t20.5 21t20.5 24.5t14.5 23.5t11.5 27.5t3 28.5q0 54 -43 90.5t-103 36.5q-65 0 -105.5 -43t-37.5 -104h-172z"/>
<glyph unicode="¾" horiz-adv-x="1781" d="M20 854h179q9 -54 50.5 -89.5t100.5 -35.5q63 0 108.5 41.5t45.5 99.5q0 66 -48.5 106t-119.5 40h-45v127h37q66 0 107.5 27t41.5 85q0 49 -34 79t-87 30q-48 0 -80.5 -28t-33.5 -72h-164q0 104 84.5 170.5t197.5 66.5q112 0 194.5 -63.5t82.5 -165.5q0 -56 -29.5 -106 t-81.5 -74q74 -26 119 -89.5t45 -138.5q0 -118 -100 -199t-230 -81q-136 0 -235 73t-105 197zM463 0l659 1462h201l-655 -1462h-205zM985 233v127l410 517h202v-517h144v-127h-144v-94h111v-139h-395v139h110v94h-438zM1178 360h245v318z"/>
<glyph unicode="¿" horiz-adv-x="1105" d="M74 72q0 69 17 125.5t45.5 95t62.5 72t70.5 65.5t68.5 65.5t56.5 81.5t33.5 105h258q0 -82 -28.5 -152.5t-68.5 -118.5t-108 -112q-38 -35 -53 -49t-40 -45t-34.5 -61.5t-9.5 -67.5q0 -87 62.5 -151t150.5 -64q99 0 161 66.5t64 166.5h262q2 -138 -61.5 -252.5t-177 -181 t-250.5 -66.5q-96 0 -184.5 38.5t-153.5 102.5t-104 152.5t-39 184.5zM428 805v289h258v-289h-258z"/>
<glyph unicode="À" horiz-adv-x="1597" d="M14 0v233h156l426 996h-162v233h490l512 -1229h155v-233h-616v205h162l-86 219h-514l-84 -219h157v-205h-596zM432 1853l100 222l549 -295l-84 -183zM608 639h373l-184 502h-2z"/>
<glyph unicode="Á" horiz-adv-x="1597" d="M14 0v233h156l426 996h-162v233h490l512 -1229h155v-233h-616v205h162l-86 219h-514l-84 -219h157v-205h-596zM432 1776l543 307l108 -219l-565 -267zM608 639h373l-184 502h-2z"/>
<glyph unicode="Â" horiz-adv-x="1597" d="M14 0v233h156l426 996h-162v233h490l512 -1229h155v-233h-616v205h162l-86 219h-514l-84 -219h157v-205h-596zM330 1661l354 344h172l354 -344h-282l-158 154l-158 -154h-282zM608 639h373l-184 502h-2z"/>
<glyph unicode="Ã" horiz-adv-x="1597" d="M14 0v233h156l426 996h-162v233h490l512 -1229h155v-233h-616v205h162l-86 219h-514l-84 -219h157v-205h-596zM373 1851q41 33 98.5 54.5t108.5 21.5q54 0 151 -29q88 -30 148 -30q97 0 157 55l121 -166q-107 -92 -229 -92q-60 0 -153.5 30.5t-133.5 30.5q-72 0 -137 -59 zM608 639h373l-184 502h-2z"/>
<glyph unicode="Ä" horiz-adv-x="1597" d="M14 0v233h156l426 996h-162v233h490l512 -1229h155v-233h-616v205h162l-86 219h-514l-84 -219h157v-205h-596zM442 1567v264h250v-264h-250zM608 639h373l-184 502h-2zM823 1567v264h250v-264h-250z"/>
<glyph unicode="Å" horiz-adv-x="1597" d="M14 0v233h156l426 996h-162v233h490l512 -1229h155v-233h-616v205h162l-86 219h-514l-84 -219h157v-205h-596zM537 1837q0 99 71 168.5t170 69.5t168.5 -71.5t69.5 -170.5q0 -98 -70 -169t-168 -71q-101 0 -171 71t-70 173zM608 639h373l-184 502h-2zM680 1831 q0 -39 28.5 -66.5t67.5 -27.5q41 0 68.5 29t27.5 71q0 38 -29 66t-67 28q-41 0 -68.5 -29t-27.5 -71z"/>
<glyph unicode="Æ" horiz-adv-x="2007" d="M14 0v233h162l680 996h-154v233h1258v-440h-279v192h-370v-368h428v-211h-428v-389h370v196h279v-442h-1086v197h158v233h-432l-154 -233h160v-197h-592zM725 635h307v475h-2z"/>
<glyph unicode="Ç" horiz-adv-x="1556" d="M41 743q0 151 59 291t158 242.5t238 163.5t292 61q131 0 248.5 -45t204.5 -135v147h229v-467h-266q-61 103 -172 163.5t-231 60.5q-206 0 -342.5 -139t-136.5 -345q0 -197 139 -339t336 -142q127 0 235.5 58t175.5 163h301q-67 -211 -250.5 -351t-406.5 -155l-47 -116 l26 2q83 0 139 -61t56 -144q0 -100 -65.5 -164.5t-165.5 -64.5q-91 0 -154.5 60.5t-69.5 150.5h152q18 -62 74 -62q34 0 54.5 21t20.5 55q0 33 -21 56.5t-54 23.5q-40 0 -70 -33l-123 51l90 230q-122 19 -234 75t-198 142q-107 108 -164 250t-57 296z"/>
<glyph unicode="È" d="M45 0v233h160v996h-160v233h1083v-440h-278v190h-367v-364h426v-217h-426v-387h367v198h278v-442h-1083zM268 1853l101 222l549 -295l-84 -183z"/>
<glyph unicode="É" d="M45 0v233h160v996h-160v233h1083v-440h-278v190h-367v-364h426v-217h-426v-387h367v198h278v-442h-1083zM268 1776l543 307l109 -219l-566 -267z"/>
<glyph unicode="Ê" d="M45 0v233h160v996h-160v233h1083v-440h-278v190h-367v-364h426v-217h-426v-387h367v198h278v-442h-1083zM145 1661l355 344h172l354 -344h-283l-157 154l-158 -154h-283z"/>
<glyph unicode="Ë" d="M45 0v233h160v996h-160v233h1083v-440h-278v190h-367v-364h426v-217h-426v-387h367v198h278v-442h-1083zM279 1567v264h249v-264h-249zM659 1567v264h250v-264h-250z"/>
<glyph unicode="Ì" horiz-adv-x="696" d="M23 1853l100 222l549 -295l-84 -183zM45 0v233h160v996h-160v233h596v-233h-158v-996h158v-233h-596z"/>
<glyph unicode="Í" horiz-adv-x="696" d="M23 1776l542 307l109 -219l-565 -267zM45 0v233h160v996h-160v233h596v-233h-158v-996h158v-233h-596z"/>
<glyph unicode="Î" horiz-adv-x="696" d="M-80 1661l354 344h172l355 -344h-283l-158 154l-157 -154h-283zM45 0v233h160v996h-160v233h596v-233h-158v-996h158v-233h-596z"/>
<glyph unicode="Ï" horiz-adv-x="696" d="M33 1567v264h250v-264h-250zM45 0v233h160v996h-160v233h596v-233h-158v-996h158v-233h-596zM414 1567v264h250v-264h-250z"/>
<glyph unicode="Ð" horiz-adv-x="1515" d="M45 0v233h160v398h-160v217h160v381h-160v233h694q163 0 284 -42.5t226 -149.5q103 -105 155 -245.5t52 -297.5q0 -142 -48 -275t-140 -235q-104 -118 -233.5 -167.5t-299.5 -49.5h-690zM483 252h219q120 0 205.5 26t151.5 103q58 67 88.5 160t30.5 186q0 105 -31.5 204 t-95.5 167q-69 70 -148.5 93t-195.5 23h-224v-366h279v-217h-279v-379z"/>
<glyph unicode="Ñ" horiz-adv-x="1638" d="M45 0v233h158v996h-158v233h410l696 -979v746h-160v233h596v-233h-157v-1229h-261l-688 963v-730h160v-233h-596zM434 1851q41 33 98.5 54.5t108.5 21.5q55 0 152 -29q88 -30 147 -30q98 0 158 55l121 -166q-107 -92 -230 -92q-60 0 -153.5 30.5t-133.5 30.5 q-72 0 -137 -59z"/>
<glyph unicode="Ò" horiz-adv-x="1597" d="M41 731q0 127 39 244.5t110.5 212t166.5 165t212.5 108.5t243.5 38q153 0 294 -60t243.5 -161.5t163.5 -241.5t61 -293q0 -158 -60.5 -301t-162.5 -247t-244.5 -165t-300.5 -61q-156 0 -297.5 60t-244 162t-163.5 243.5t-61 296.5zM328 739q0 -204 139 -347.5t340 -143.5 q133 0 244 66.5t174 180t63 246.5q0 129 -64 239.5t-174 175.5t-239 65q-131 0 -242 -64t-176 -175t-65 -243zM473 1853l100 222l549 -295l-84 -183z"/>
<glyph unicode="Ó" horiz-adv-x="1597" d="M41 731q0 127 39 244.5t110.5 212t166.5 165t212.5 108.5t243.5 38q153 0 294 -60t243.5 -161.5t163.5 -241.5t61 -293q0 -158 -60.5 -301t-162.5 -247t-244.5 -165t-300.5 -61q-156 0 -297.5 60t-244 162t-163.5 243.5t-61 296.5zM328 739q0 -204 139 -347.5t340 -143.5 q133 0 244 66.5t174 180t63 246.5q0 129 -64 239.5t-174 175.5t-239 65q-131 0 -242 -64t-176 -175t-65 -243zM473 1776l543 307l108 -219l-565 -267z"/>
<glyph unicode="Ô" horiz-adv-x="1597" d="M41 731q0 127 39 244.5t110.5 212t166.5 165t212.5 108.5t243.5 38q153 0 294 -60t243.5 -161.5t163.5 -241.5t61 -293q0 -158 -60.5 -301t-162.5 -247t-244.5 -165t-300.5 -61q-156 0 -297.5 60t-244 162t-163.5 243.5t-61 296.5zM328 739q0 -204 139 -347.5t340 -143.5 q133 0 244 66.5t174 180t63 246.5q0 129 -64 239.5t-174 175.5t-239 65q-131 0 -242 -64t-176 -175t-65 -243zM350 1661l355 344h172l354 -344h-283l-157 154l-158 -154h-283z"/>
<glyph unicode="Õ" horiz-adv-x="1597" d="M41 731q0 127 39 244.5t110.5 212t166.5 165t212.5 108.5t243.5 38q153 0 294 -60t243.5 -161.5t163.5 -241.5t61 -293q0 -158 -60.5 -301t-162.5 -247t-244.5 -165t-300.5 -61q-156 0 -297.5 60t-244 162t-163.5 243.5t-61 296.5zM328 739q0 -204 139 -347.5t340 -143.5 q133 0 244 66.5t174 180t63 246.5q0 129 -64 239.5t-174 175.5t-239 65q-131 0 -242 -64t-176 -175t-65 -243zM414 1851q41 33 98.5 54.5t108.5 21.5q54 0 151 -29q88 -30 148 -30q97 0 157 55l121 -166q-107 -92 -229 -92q-60 0 -153.5 30.5t-133.5 30.5q-72 0 -137 -59z "/>
<glyph unicode="Ö" horiz-adv-x="1597" d="M41 731q0 127 39 244.5t110.5 212t166.5 165t212.5 108.5t243.5 38q153 0 294 -60t243.5 -161.5t163.5 -241.5t61 -293q0 -158 -60.5 -301t-162.5 -247t-244.5 -165t-300.5 -61q-156 0 -297.5 60t-244 162t-163.5 243.5t-61 296.5zM328 739q0 -204 139 -347.5t340 -143.5 q133 0 244 66.5t174 180t63 246.5q0 129 -64 239.5t-174 175.5t-239 65q-131 0 -242 -64t-176 -175t-65 -243zM483 1567v264h250v-264h-250zM864 1567v264h250v-264h-250z"/>
<glyph unicode="×" horiz-adv-x="1351" d="M186 377l357 356l-357 357l133 133l357 -357l356 357l133 -133l-356 -357l356 -356l-133 -133l-356 356l-357 -356z"/>
<glyph unicode="Ø" horiz-adv-x="1597" d="M43 733q0 158 60.5 300.5t163.5 244.5t245 162.5t299 60.5q105 0 185.5 -22.5t179.5 -75.5l28 -17l146 179l155 -123l-145 -178q207 -226 207 -537q0 -157 -62 -298t-166.5 -241t-247 -158.5t-298.5 -58.5q-181 0 -322 72l-72 37l-147 -184l-154 122l152 187 q-207 223 -207 528zM326 731q0 -87 26.5 -152.5t83.5 -142.5l590 725q-52 25 -77 35.5t-65.5 19.5t-86.5 9q-129 0 -238 -68.5t-171 -182t-62 -243.5zM584 307q50 -22 74.5 -32t64 -18.5t82.5 -8.5q133 0 243.5 65t173 176.5t62.5 243.5q0 93 -24.5 158t-81.5 145z"/>
<glyph unicode="Ù" horiz-adv-x="1433" d="M47 1229v233h569v-233h-133v-688q0 -44 2 -72.5t12 -66t29 -66.5q33 -50 86.5 -76.5t114.5 -26.5q117 0 188 89q54 69 54 219v688h-133v233h569v-233h-158v-725q0 -125 -28 -215t-105 -170q-141 -148 -387 -148q-239 0 -377 135q-84 82 -114.5 178t-30.5 228v717h-158z M391 1853l101 222l548 -295l-84 -183z"/>
<glyph unicode="Ú" horiz-adv-x="1433" d="M47 1229v233h569v-233h-133v-688q0 -44 2 -72.5t12 -66t29 -66.5q33 -50 86.5 -76.5t114.5 -26.5q117 0 188 89q54 69 54 219v688h-133v233h569v-233h-158v-725q0 -125 -28 -215t-105 -170q-141 -148 -387 -148q-239 0 -377 135q-84 82 -114.5 178t-30.5 228v717h-158z M391 1776l543 307l108 -219l-565 -267z"/>
<glyph unicode="Û" horiz-adv-x="1433" d="M47 1229v233h569v-233h-133v-688q0 -44 2 -72.5t12 -66t29 -66.5q33 -50 86.5 -76.5t114.5 -26.5q117 0 188 89q54 69 54 219v688h-133v233h569v-233h-158v-725q0 -125 -28 -215t-105 -170q-141 -148 -387 -148q-239 0 -377 135q-84 82 -114.5 178t-30.5 228v717h-158z M289 1661l354 344h172l354 -344h-282l-158 154l-158 -154h-282z"/>
<glyph unicode="Ü" horiz-adv-x="1433" d="M47 1229v233h569v-233h-133v-688q0 -44 2 -72.5t12 -66t29 -66.5q33 -50 86.5 -76.5t114.5 -26.5q117 0 188 89q54 69 54 219v688h-133v233h569v-233h-158v-725q0 -125 -28 -215t-105 -170q-141 -148 -387 -148q-239 0 -377 135q-84 82 -114.5 178t-30.5 228v717h-158z M422 1567v264h250v-264h-250zM803 1567v264h250v-264h-250z"/>
<glyph unicode="Ý" horiz-adv-x="1392" d="M14 1229v233h566v-233h-136l246 -484l244 484h-139v233h563v-233h-146l-385 -719v-277h160v-233h-596v233h158v277l-387 719h-148zM371 1776l542 307l109 -219l-565 -267z"/>
<glyph unicode="Þ" horiz-adv-x="1228" d="M47 0v233h158v996h-158v233h596v-233h-160v-80h146q104 0 183.5 -9.5t155 -36.5t124 -72t77.5 -120.5t29 -177.5q0 -110 -38.5 -190.5t-109.5 -127.5t-161.5 -69t-204.5 -22h-201v-91h160v-233h-596zM483 547h166q66 0 110.5 7t83 26.5t57 57t18.5 95.5q0 59 -21.5 98.5 t-62.5 59.5t-87.5 27.5t-109.5 7.5h-154v-379z"/>
<glyph unicode="ß" horiz-adv-x="1228" d="M25 0v233h143v732q0 116 23.5 201t89.5 163q68 81 161 126.5t176 45.5q183 0 310 -120t127 -302q0 -95 -45 -172.5t-129 -111.5q145 -23 227 -131.5t82 -260.5q0 -193 -122 -314.5t-302 -121.5q-106 0 -209 39v234q76 -43 160 -43q93 0 158 62t65 155q0 63 -27.5 110.5 t-74.5 73.5t-99.5 38.5t-111.5 12.5h-56v221h33q86 0 141.5 54t55.5 139q0 82 -51.5 135t-126.5 53q-47 0 -89.5 -25.5t-72.5 -66.5q-21 -29 -31 -68t-11 -62t-1 -75v-954h-393z"/>
<glyph unicode="à" horiz-adv-x="1351" d="M25 541q0 156 76 290t208.5 212.5t288.5 78.5q106 0 194.5 -47.5t145.5 -136.5v156h391v-234h-137v-627h137v-233h-391v147q-58 -88 -149.5 -132t-202.5 -44q-153 0 -282.5 77.5t-204 208.5t-74.5 284zM283 541q0 -133 96.5 -229.5t228.5 -96.5q140 0 237 99t97 239 q0 135 -97.5 230.5t-232.5 95.5q-138 0 -233.5 -99.5t-95.5 -238.5zM350 1485l101 221l548 -295l-84 -182z"/>
<glyph unicode="á" horiz-adv-x="1351" d="M25 541q0 156 76 290t208.5 212.5t288.5 78.5q106 0 194.5 -47.5t145.5 -136.5v156h391v-234h-137v-627h137v-233h-391v147q-58 -88 -149.5 -132t-202.5 -44q-153 0 -282.5 77.5t-204 208.5t-74.5 284zM283 541q0 -133 96.5 -229.5t228.5 -96.5q140 0 237 99t97 239 q0 135 -97.5 230.5t-232.5 95.5q-138 0 -233.5 -99.5t-95.5 -238.5zM350 1407l543 307l108 -219l-565 -266z"/>
<glyph unicode="â" horiz-adv-x="1351" d="M25 541q0 156 76 290t208.5 212.5t288.5 78.5q106 0 194.5 -47.5t145.5 -136.5v156h391v-234h-137v-627h137v-233h-391v147q-58 -88 -149.5 -132t-202.5 -44q-153 0 -282.5 77.5t-204 208.5t-74.5 284zM227 1272l355 344h172l354 -344h-283l-157 153l-158 -153h-283z M283 541q0 -133 96.5 -229.5t228.5 -96.5q140 0 237 99t97 239q0 135 -97.5 230.5t-232.5 95.5q-138 0 -233.5 -99.5t-95.5 -238.5z"/>
<glyph unicode="ã" horiz-adv-x="1351" d="M25 541q0 156 76 290t208.5 212.5t288.5 78.5q106 0 194.5 -47.5t145.5 -136.5v156h391v-234h-137v-627h137v-233h-391v147q-58 -88 -149.5 -132t-202.5 -44q-153 0 -282.5 77.5t-204 208.5t-74.5 284zM270 1483q41 33 98.5 54.5t108.5 21.5q55 0 152 -29q91 -31 147 -31 q98 0 158 55l121 -165q-108 -93 -230 -93q-60 0 -153 31t-133 31q-72 0 -138 -60zM283 541q0 -133 96.5 -229.5t228.5 -96.5q140 0 237 99t97 239q0 135 -97.5 230.5t-232.5 95.5q-138 0 -233.5 -99.5t-95.5 -238.5z"/>
<glyph unicode="ä" horiz-adv-x="1351" d="M25 541q0 156 76 290t208.5 212.5t288.5 78.5q106 0 194.5 -47.5t145.5 -136.5v156h391v-234h-137v-627h137v-233h-391v147q-58 -88 -149.5 -132t-202.5 -44q-153 0 -282.5 77.5t-204 208.5t-74.5 284zM283 541q0 -133 96.5 -229.5t228.5 -96.5q140 0 237 99t97 239 q0 135 -97.5 230.5t-232.5 95.5q-138 0 -233.5 -99.5t-95.5 -238.5zM340 1198v264h250v-264h-250zM721 1198v264h250v-264h-250z"/>
<glyph unicode="å" horiz-adv-x="1351" d="M25 541q0 156 76 290t208.5 212.5t288.5 78.5q106 0 194.5 -47.5t145.5 -136.5v156h391v-234h-137v-627h137v-233h-391v147q-58 -88 -149.5 -132t-202.5 -44q-153 0 -282.5 77.5t-204 208.5t-74.5 284zM283 541q0 -133 96.5 -229.5t228.5 -96.5q140 0 237 99t97 239 q0 135 -97.5 230.5t-232.5 95.5q-138 0 -233.5 -99.5t-95.5 -238.5zM393 1468q0 99 71.5 168.5t170.5 69.5t168 -71.5t69 -170.5q0 -98 -69.5 -168.5t-167.5 -70.5q-101 0 -171.5 71t-70.5 172zM537 1462q0 -39 28.5 -66.5t67.5 -27.5q41 0 68.5 29t27.5 71q0 38 -29 66.5 t-67 28.5q-41 0 -68.5 -29.5t-27.5 -71.5z"/>
<glyph unicode="æ" horiz-adv-x="2129" d="M27 559q0 148 76.5 279t206.5 209.5t278 78.5q104 0 194.5 -45t153.5 -127v140h250v-154q127 186 352 186q113 0 217.5 -46.5t179.5 -123.5t119.5 -182t44.5 -217q0 -94 -6 -94h-889q21 -108 114 -178t204 -70q77 0 134 27t113 86h289q-68 -162 -213 -259.5t-319 -97.5 q-103 0 -194.5 52t-145.5 141v-164h-250v168q-52 -92 -138.5 -144.5t-189.5 -52.5q-159 0 -293 78.5t-211 213.5t-77 296zM276 561q0 -142 97.5 -244t238.5 -102q147 0 248 98t101 246q0 136 -105.5 235t-239.5 99q-132 0 -236 -99.5t-104 -232.5zM1202 653h641 q-33 104 -121 172t-196 68q-116 0 -200.5 -64.5t-123.5 -175.5z"/>
<glyph unicode="ç" d="M25 547q0 150 71.5 283t199.5 214.5t279 81.5q186 0 314 -137v105h215v-365h-234q-46 67 -116 109q-71 41 -156 41q-138 0 -231 -97t-93 -235q0 -139 96.5 -234.5t233.5 -95.5q82 0 155 41t107 111h279q-45 -156 -179 -264.5t-296 -127.5l-49 -118l26 2q83 0 139 -61 t56 -144q0 -99 -66 -164t-166 -65q-91 0 -154 60.5t-69 150.5h152q18 -62 73 -62q34 0 55 21t21 55q0 33 -21.5 56.5t-54.5 23.5q-39 0 -69 -33l-123 51l90 232q-208 32 -346.5 191.5t-138.5 373.5z"/>
<glyph unicode="è" d="M27 543q0 160 73.5 293.5t204.5 211.5t291 78q113 0 221.5 -47t188.5 -129q153 -161 153 -409l-8 -88h-885q25 -114 118 -188.5t210 -74.5q175 0 264 132h260q-65 -158 -206 -254.5t-310 -96.5q-157 0 -289 75t-209 207t-77 290zM248 1485l100 221l549 -295l-84 -182z M264 645h664q-32 118 -126.5 188t-217.5 70q-110 0 -203.5 -75.5t-116.5 -182.5z"/>
<glyph unicode="é" d="M27 543q0 160 73.5 293.5t204.5 211.5t291 78q113 0 221.5 -47t188.5 -129q153 -161 153 -409l-8 -88h-885q25 -114 118 -188.5t210 -74.5q175 0 264 132h260q-65 -158 -206 -254.5t-310 -96.5q-157 0 -289 75t-209 207t-77 290zM264 645h664q-32 118 -126.5 188 t-217.5 70q-110 0 -203.5 -75.5t-116.5 -182.5zM268 1407l543 307l109 -219l-566 -266z"/>
<glyph unicode="ê" d="M27 543q0 160 73.5 293.5t204.5 211.5t291 78q113 0 221.5 -47t188.5 -129q153 -161 153 -409l-8 -88h-885q25 -114 118 -188.5t210 -74.5q175 0 264 132h260q-65 -158 -206 -254.5t-310 -96.5q-157 0 -289 75t-209 207t-77 290zM145 1272l355 344h172l354 -344h-283 l-157 153l-158 -153h-283zM264 645h664q-32 118 -126.5 188t-217.5 70q-110 0 -203.5 -75.5t-116.5 -182.5z"/>
<glyph unicode="ë" d="M27 543q0 160 73.5 293.5t204.5 211.5t291 78q113 0 221.5 -47t188.5 -129q153 -161 153 -409l-8 -88h-885q25 -114 118 -188.5t210 -74.5q175 0 264 132h260q-65 -158 -206 -254.5t-310 -96.5q-157 0 -289 75t-209 207t-77 290zM258 1198v264h250v-264h-250zM264 645 h664q-32 118 -126.5 188t-217.5 70q-110 0 -203.5 -75.5t-116.5 -182.5zM639 1198v264h250v-264h-250z"/>
<glyph unicode="ì" horiz-adv-x="614" d="M-18 1485l100 221l549 -295l-84 -182zM39 0v233h143v627h-141v234h391v-861h141v-233h-534z"/>
<glyph unicode="í" horiz-adv-x="614" d="M-18 1407l542 307l109 -219l-565 -266zM39 0v233h143v627h-141v234h391v-861h141v-233h-534z"/>
<glyph unicode="î" horiz-adv-x="614" d="M-141 1272l354 344h172l354 -344h-282l-158 153l-158 -153h-282zM39 0v233h143v627h-141v234h391v-861h141v-233h-534z"/>
<glyph unicode="ï" horiz-adv-x="614" d="M-8 1198v264h250v-264h-250zM39 0v233h143v627h-141v234h391v-861h141v-233h-534zM373 1198v264h250v-264h-250z"/>
<glyph unicode="ð" d="M25 551q0 117 46 224t123.5 183.5t184 122t223.5 45.5q49 0 88 -8q-54 51 -112 90l-295 -88l-168 109l280 86q-92 45 -207 80l293 80q78 -22 178 -78l254 78l168 -117l-258 -76q348 -291 348 -729q0 -157 -76 -291t-208.5 -212.5t-290.5 -78.5q-156 0 -288 79 t-207.5 212.5t-75.5 288.5zM270 553q0 -137 94 -236.5t232 -99.5q136 0 233 96.5t97 233.5q0 135 -94.5 234.5t-229.5 99.5q-136 0 -234 -96t-98 -232z"/>
<glyph unicode="ñ" horiz-adv-x="1310" d="M35 0v233h141v627h-141v234h391v-156q48 88 134 134t190 46q90 0 172.5 -35.5t142.5 -99.5q43 -47 64 -103t24.5 -98t3.5 -120v-429h141v-233h-532v233h141v355q0 45 -1.5 70t-11.5 61.5t-30 64.5q-33 43 -84 65.5t-108 22.5q-59 0 -112.5 -24t-86.5 -68 q-22 -28 -33 -72.5t-12.5 -74.5t-1.5 -82v-318h141v-233h-532zM270 1483q41 33 98.5 54.5t108.5 21.5q55 0 152 -29q91 -31 147 -31q98 0 158 55l121 -165q-108 -93 -230 -93q-60 0 -153 31t-133 31q-72 0 -138 -60z"/>
<glyph unicode="ò" d="M25 551q0 117 46 224t123.5 183.5t184 122t223.5 45.5q154 0 285.5 -78t207.5 -210t76 -285q0 -157 -76 -291t-208.5 -212.5t-290.5 -78.5q-156 0 -288 79t-207.5 212.5t-75.5 288.5zM268 1485l101 221l549 -295l-84 -182zM270 553q0 -137 94 -236.5t232 -99.5 q136 0 233 96.5t97 233.5q0 135 -94.5 234.5t-229.5 99.5q-136 0 -234 -96t-98 -232z"/>
<glyph unicode="ó" d="M25 551q0 117 46 224t123.5 183.5t184 122t223.5 45.5q154 0 285.5 -78t207.5 -210t76 -285q0 -157 -76 -291t-208.5 -212.5t-290.5 -78.5q-156 0 -288 79t-207.5 212.5t-75.5 288.5zM268 1407l543 307l109 -219l-566 -266zM270 553q0 -137 94 -236.5t232 -99.5 q136 0 233 96.5t97 233.5q0 135 -94.5 234.5t-229.5 99.5q-136 0 -234 -96t-98 -232z"/>
<glyph unicode="ô" d="M25 551q0 117 46 224t123.5 183.5t184 122t223.5 45.5q154 0 285.5 -78t207.5 -210t76 -285q0 -157 -76 -291t-208.5 -212.5t-290.5 -78.5q-156 0 -288 79t-207.5 212.5t-75.5 288.5zM166 1272l354 344h172l355 -344h-283l-158 153l-157 -153h-283zM270 553 q0 -137 94 -236.5t232 -99.5q136 0 233 96.5t97 233.5q0 135 -94.5 234.5t-229.5 99.5q-136 0 -234 -96t-98 -232z"/>
<glyph unicode="õ" d="M25 551q0 117 46 224t123.5 183.5t184 122t223.5 45.5q154 0 285.5 -78t207.5 -210t76 -285q0 -157 -76 -291t-208.5 -212.5t-290.5 -78.5q-156 0 -288 79t-207.5 212.5t-75.5 288.5zM209 1483q41 33 98.5 54.5t108.5 21.5q54 0 151 -29q91 -31 148 -31q97 0 157 55 l121 -165q-108 -93 -229 -93q-60 0 -153.5 31t-133.5 31q-71 0 -137 -60zM270 553q0 -137 94 -236.5t232 -99.5q136 0 233 96.5t97 233.5q0 135 -94.5 234.5t-229.5 99.5q-136 0 -234 -96t-98 -232z"/>
<glyph unicode="ö" d="M25 551q0 117 46 224t123.5 183.5t184 122t223.5 45.5q154 0 285.5 -78t207.5 -210t76 -285q0 -157 -76 -291t-208.5 -212.5t-290.5 -78.5q-156 0 -288 79t-207.5 212.5t-75.5 288.5zM258 1198v264h250v-264h-250zM270 553q0 -137 94 -236.5t232 -99.5q136 0 233 96.5 t97 233.5q0 135 -94.5 234.5t-229.5 99.5q-136 0 -234 -96t-98 -232zM639 1198v264h250v-264h-250z"/>
<glyph unicode="÷" horiz-adv-x="1351" d="M156 639v188h1040v-188h-1040zM582 287v223h188v-223h-188zM582 956v224h188v-224h-188z"/>
<glyph unicode="ø" horiz-adv-x="1228" d="M25 545q0 119 46.5 227t125 185.5t187 123t228.5 45.5q154 0 269 -63l102 139l145 -110l-102 -136q164 -174 164 -389q0 -163 -74.5 -299t-208 -216.5t-297.5 -80.5q-73 0 -133.5 15t-138.5 47l-109 -146l-141 109l107 145l-15 15q-77 92 -102 147q-53 119 -53 242z M272 551q0 -113 78 -207l379 512q-78 29 -125 29q-140 0 -236 -97t-96 -237zM496 238q77 -25 110 -25q143 0 240.5 95t97.5 239q0 101 -74 196z"/>
<glyph unicode="ù" horiz-adv-x="1310" d="M27 860v234h391v-592q0 -44 2 -72.5t12 -66.5t29 -66q61 -94 184 -94q52 0 102 24.5t82 65.5q22 31 33 70.5t13 67.5t2 77v352h-142v234h391v-861h142v-233h-371v135q-53 -78 -142.5 -121t-187.5 -43q-88 0 -167 36.5t-136 103.5q-56 66 -76 141.5t-20 175.5v432h-141z M309 1485l101 221l548 -295l-84 -182z"/>
<glyph unicode="ú" horiz-adv-x="1310" d="M27 860v234h391v-592q0 -44 2 -72.5t12 -66.5t29 -66q61 -94 184 -94q52 0 102 24.5t82 65.5q22 31 33 70.5t13 67.5t2 77v352h-142v234h391v-861h142v-233h-371v135q-53 -78 -142.5 -121t-187.5 -43q-88 0 -167 36.5t-136 103.5q-56 66 -76 141.5t-20 175.5v432h-141z M309 1407l543 307l109 -219l-566 -266z"/>
<glyph unicode="û" horiz-adv-x="1310" d="M27 860v234h391v-592q0 -44 2 -72.5t12 -66.5t29 -66q61 -94 184 -94q52 0 102 24.5t82 65.5q22 31 33 70.5t13 67.5t2 77v352h-142v234h391v-861h142v-233h-371v135q-53 -78 -142.5 -121t-187.5 -43q-88 0 -167 36.5t-136 103.5q-56 66 -76 141.5t-20 175.5v432h-141z M186 1272l355 344h172l354 -344h-283l-157 153l-158 -153h-283z"/>
<glyph unicode="ü" horiz-adv-x="1310" d="M27 860v234h391v-592q0 -44 2 -72.5t12 -66.5t29 -66q61 -94 184 -94q52 0 102 24.5t82 65.5q22 31 33 70.5t13 67.5t2 77v352h-142v234h391v-861h142v-233h-371v135q-53 -78 -142.5 -121t-187.5 -43q-88 0 -167 36.5t-136 103.5q-56 66 -76 141.5t-20 175.5v432h-141z M319 1198v264h250v-264h-250zM700 1198v264h250v-264h-250z"/>
<glyph unicode="ý" horiz-adv-x="1228" d="M14 860v234h516v-234h-106l194 -534l207 534h-106v234h510v-234h-137l-424 -1026h143v-233h-532v233h137l73 180l-331 846h-144zM289 1407l542 307l109 -219l-565 -266z"/>
<glyph unicode="þ" horiz-adv-x="1351" d="M35 -166h139v1395h-139v233h391v-540q59 92 152 138t206 46q152 0 280.5 -76t202.5 -205.5t74 -281.5q0 -148 -72 -276.5t-198 -205.5t-274 -77q-111 0 -209 43t-162 127v-320h141v-233h-532v233zM424 545q0 -137 97 -233.5t233 -96.5q135 0 232 96.5t97 231.5t-94 234.5 t-229 99.5q-139 0 -237.5 -96t-98.5 -236z"/>
<glyph unicode="ÿ" horiz-adv-x="1228" d="M14 860v234h516v-234h-106l194 -534l207 534h-106v234h510v-234h-137l-424 -1026h143v-233h-532v233h137l73 180l-331 846h-144zM299 1198v264h250v-264h-250zM680 1198v264h250v-264h-250z"/>
<glyph unicode="Œ" horiz-adv-x="2252" d="M41 737q0 204 101 380t274.5 280t376.5 104q306 0 489 -250v211h924v-432h-279v189h-368v-369h415v-219h-415v-385h368v194h279v-440h-924v217q-171 -246 -483 -246q-158 0 -299 60t-241.5 162t-159 244t-58.5 300zM319 729q0 -129 64 -239.5t173.5 -175t238.5 -64.5 q195 0 334 142.5t139 338.5q0 129 -60.5 242.5t-169.5 182.5t-239 69q-133 0 -244 -67.5t-173.5 -181t-62.5 -247.5z"/>
<glyph unicode="œ" horiz-adv-x="2129" d="M27 551q0 158 79 290.5t214 208.5t294 76q156 0 295 -82q55 -31 85 -59.5t67 -81.5l10 -16q71 115 194.5 175t266.5 60q153 0 286.5 -75t213 -206t79.5 -284l-8 -94h-899q24 -111 113.5 -178.5t206.5 -67.5q159 0 264 117h285q-68 -166 -216 -264.5t-329 -98.5 q-142 0 -262 60t-195 174q-68 -112 -192 -173t-263 -61q-162 0 -297 77t-213.5 210.5t-78.5 292.5zM266 549q0 -138 101 -236t241 -98q141 0 241.5 99t100.5 237q0 139 -102 236.5t-242 97.5t-240 -99t-100 -237zM1210 649h631q-40 111 -124 172.5t-201 61.5 q-105 0 -191.5 -67.5t-114.5 -166.5z"/>
<glyph unicode="Ÿ" horiz-adv-x="1392" d="M14 1229v233h566v-233h-136l246 -484l244 484h-139v233h563v-233h-146l-385 -719v-277h160v-233h-596v233h158v277l-387 719h-148zM360 1567v264h250v-264h-250zM741 1567v264h250v-264h-250z"/>
<glyph unicode="ˆ" d="M145 1292l355 344h172l354 -344h-283l-157 154l-158 -154h-283z"/>
<glyph unicode="˜" horiz-adv-x="1064" d="M147 1483q41 33 98.5 54.5t108.5 21.5q55 0 152 -29q91 -31 147 -31q98 0 158 55l121 -165q-108 -93 -230 -93q-60 0 -153 31t-133 31q-71 0 -137 -60z"/>
<glyph unicode=" " horiz-adv-x="1041"/>
<glyph unicode=" " horiz-adv-x="2083"/>
<glyph unicode=" " horiz-adv-x="1041"/>
<glyph unicode=" " horiz-adv-x="2083"/>
<glyph unicode=" " horiz-adv-x="694"/>
<glyph unicode=" " horiz-adv-x="520"/>
<glyph unicode=" " horiz-adv-x="347"/>
<glyph unicode=" " horiz-adv-x="347"/>
<glyph unicode=" " horiz-adv-x="260"/>
<glyph unicode=" " horiz-adv-x="416"/>
<glyph unicode=" " horiz-adv-x="115"/>
<glyph unicode="‐" horiz-adv-x="655" d="M66 414v248h524v-248h-524z"/>
<glyph unicode="‑" horiz-adv-x="655" d="M66 414v248h524v-248h-524z"/>
<glyph unicode="‒" horiz-adv-x="655" d="M66 414v248h524v-248h-524z"/>
<glyph unicode="–" horiz-adv-x="1024" d="M-12 414v248h1048v-248h-1048z"/>
<glyph unicode="—" horiz-adv-x="2048" d="M-12 414v248h2072v-248h-2072z"/>
<glyph unicode="‘" horiz-adv-x="409" d="M74 879v329q0 67 8.5 110t40.5 83q33 40 70 50.5t100 10.5h39v-139l-25 2q-30 0 -48.5 -10.5t-26 -32.5t-9.5 -39t-2 -47v-29h111v-288h-258z"/>
<glyph unicode="’" horiz-adv-x="409" d="M72 1174v288h260v-329q0 -65 -9.5 -108.5t-41.5 -82.5q-32 -40 -69 -51.5t-99 -11.5h-39v139l24 -2q30 0 48.5 10.5t26 32.5t9.5 39.5t2 48.5v27h-112z"/>
<glyph unicode="‚" horiz-adv-x="409" d="M74 0v289h258v-328q0 -68 -8.5 -110.5t-40.5 -81.5q-34 -41 -71.5 -52.5t-98.5 -11.5h-39v139h26q24 0 40.5 8t25 18.5t12.5 30.5t5 34t1 38v27h-110z"/>
<glyph unicode="“" horiz-adv-x="778" d="M72 879v329q0 47 1.5 71.5t13.5 59t36 62.5q34 39 71 50t99 11h39v-139l-27 2q-20 0 -34.5 -5t-23.5 -15.5t-14.5 -21t-8 -28t-3 -29.5t-0.5 -32v-27h111v-288h-260zM451 879v329q0 65 9.5 109t41.5 84q33 40 69 50.5t101 10.5h39v-139l-27 2q-24 0 -40.5 -8t-24.5 -19 t-12.5 -31t-5.5 -34t-1 -37v-29h111v-288h-260z"/>
<glyph unicode="”" horiz-adv-x="778" d="M72 1174v288h260v-329q0 -65 -9.5 -108.5t-41.5 -82.5q-32 -40 -69 -51.5t-99 -11.5h-39v139l24 -2q30 0 48.5 10.5t26 32.5t9.5 39.5t2 48.5v27h-112zM451 1174v288h260v-329q0 -64 -10 -108t-42 -83q-32 -40 -68.5 -51.5t-98.5 -11.5h-39v139l24 -2q30 0 48.5 10.5 t26 32.5t9.5 39.5t2 48.5v27h-112z"/>
<glyph unicode="„" horiz-adv-x="778" d="M72 0v289h258v-330q0 -47 -1.5 -71t-13 -58.5t-34.5 -62.5q-32 -39 -69.5 -50.5t-98.5 -11.5h-39v139l24 -2q30 0 48.5 10.5t26 32.5t9.5 39.5t2 48.5v27h-112zM451 0v289h258v-328q0 -47 -2 -72t-13.5 -59t-34.5 -61q-32 -41 -69 -52.5t-98 -11.5h-39v139h24q24 0 41 8 t25.5 18.5t13 30.5t5.5 34t1 38v27h-112z"/>
<glyph unicode="•" horiz-adv-x="1228" d="M289 367v731h651v-731h-651z"/>
<glyph unicode="…" horiz-adv-x="2048" d="M213 0v289h258v-289h-258zM895 0v289h258v-289h-258zM1577 0v289h258v-289h-258z"/>
<glyph unicode=" " horiz-adv-x="416"/>
<glyph unicode="‹" horiz-adv-x="409" d="M74 451v194l252 291l12 -236l-131 -161l131 -160l-12 -221z"/>
<glyph unicode="›" horiz-adv-x="409" d="M74 379l129 160l-129 161l10 236l254 -291v-194l-254 -293z"/>
<glyph unicode=" " horiz-adv-x="520"/>
<glyph unicode="€" d="M0 578v116h133v49q0 40 2 60h-135v117h143q22 169 84 297t172 206t256 78q96 0 168.5 -45t108.5 -135v147h188v-475h-235q-37 258 -226 258q-203 0 -247 -331h372v-117h-381q-2 -20 -2 -62v-47h383v-116h-374q33 -357 258 -357q212 0 245 260h236q-63 -510 -483 -510 q-109 0 -214 52t-180 161q-104 150 -131 394h-141z"/>
<glyph unicode="™" horiz-adv-x="2007" d="M0 1346v116h676v-116h-264v-717h-146v717h-266zM823 629v833h213l238 -588l250 588h209v-833h-129v717l-289 -717h-78l-283 717v-717h-131z"/>
<glyph unicode="◼" horiz-adv-x="1095" d="M0 0v1096h1096v-1096h-1096z"/>
</font>
</defs>
</svg>
