<?xml version="1.0" standalone="no"?>
<!DOCTYPE svg PUBLIC "-//W3C//DTD SVG 1.1//EN" "http://www.w3.org/Graphics/SVG/1.1/DTD/svg11.dtd" >
<svg xmlns="http://www.w3.org/2000/svg">
<metadata></metadata>
<defs>
<font id="permiansanstypefaceregular" horiz-adv-x="431" >
<font-face units-per-em="1000" ascent="750" descent="-250" />
<missing-glyph horiz-adv-x="235" />
<glyph horiz-adv-x="1000" />
<glyph horiz-adv-x="1000" />
<glyph unicode="&#xd;" horiz-adv-x="1000" />
<glyph unicode=" "  horiz-adv-x="235" />
<glyph unicode="&#x09;" horiz-adv-x="235" />
<glyph unicode="&#xa0;" horiz-adv-x="235" />
<glyph unicode="!" horiz-adv-x="303" d="M72 63q0 38 24.5 59.5t60.5 21.5q35 0 55.5 -20t20.5 -55q0 -40 -23 -62t-61 -22q-32 0 -54.5 22t-22.5 56zM74 701l154 5l-22 -486h-109z" />
<glyph unicode="&#x22;" horiz-adv-x="400" d="M58 701l134 5l-31 -243h-95zM220 701l134 5l-31 -243h-95z" />
<glyph unicode="#" horiz-adv-x="700" d="M55 139v104h105l44 116h-109v104h149l50 129h127l-48 -129h77l50 129h127l-48 -129h64v-104h-104l-45 -116h101v-104h-140l-54 -139h-128l53 139h-77l-54 -139h-128l53 139h-65zM288 243h78l44 116h-77z" />
<glyph unicode="$" horiz-adv-x="515" d="M47 479q0 66 45.5 116t129.5 64l-10 146q21 7 55 7t53 -7l-13 -144q36 -3 70.5 -12t51.5 -17l17 -8l-29 -88q-73 30 -147 30q-46 0 -69 -19t-23 -50q0 -37 30 -62.5t73 -43.5t86.5 -39.5t73.5 -64.5t30 -106q0 -76 -48 -125.5t-132 -62.5l13 -146q-20 -7 -49 -7t-49 7 l10 139q-41 2 -82.5 12t-62.5 19l-21 9l28 90q82 -34 163 -34q99 0 99 81q0 28 -16 48t-42 33t-57 25t-62.5 28t-57.5 37.5t-42 58.5t-16 86z" />
<glyph unicode="%" horiz-adv-x="990" d="M43 526q0 83 52.5 137.5t139.5 54.5q97 0 149.5 -48t52.5 -132q0 -88 -58 -144.5t-148 -56.5q-86 0 -137 52t-51 137zM173 0l478 700h157l-477 -700h-158zM193 534q0 -50 12.5 -80t35.5 -30q45 0 45 98q0 52 -10 80.5t-38 28.5q-45 0 -45 -97zM553 179q0 83 52.5 137.5 t139.5 54.5q97 0 149.5 -48t52.5 -132q0 -88 -58 -144.5t-148 -56.5q-86 0 -137 52t-51 137zM703 187q0 -50 12.5 -80t35.5 -30q45 0 45 98q0 52 -10 80.5t-38 28.5q-45 0 -45 -97z" />
<glyph unicode="&#x26;" horiz-adv-x="722" d="M54 178q0 122 123 189q-78 92 -82 164q-5 79 48.5 131t149.5 52q89 0 144 -42t55 -120q0 -54 -41 -107.5t-103 -95.5l45 -51q47 -56 93 -100q53 69 112 192l80 -40q-72 -143 -123 -211q75 -57 115 -57h10v-82h-32q-52 0 -91 12t-82 45q-87 -67 -198 -67 q-94 0 -158.5 50.5t-64.5 137.5zM189 200q0 -57 31 -87.5t78 -30.5q55 0 107 36q-42 41 -132 141l-48 53q-36 -50 -36 -112zM224 555q0 -26 13 -54.5t25.5 -46.5t36.5 -48q63 68 63 152q0 32 -16.5 52t-45.5 20q-36 0 -56 -19t-20 -56z" />
<glyph unicode="'" horiz-adv-x="238" d="M58 701l134 5l-31 -243h-95z" />
<glyph unicode="(" horiz-adv-x="368" d="M38 289q0 174 76.5 309t213.5 204l31 -49q-108 -114 -150.5 -213.5t-42.5 -240.5q0 -101 23 -177t65 -135.5t119 -134.5l-41 -50q-143 81 -218.5 206.5t-75.5 280.5z" />
<glyph unicode=")" horiz-adv-x="364" d="M-9 752l41 50q143 -81 218.5 -206.5t75.5 -280.5q0 -174 -76.5 -309t-213.5 -204l-31 49q108 114 150.5 213.5t42.5 240.5q0 101 -23 177t-65 135.5t-119 134.5z" />
<glyph unicode="*" horiz-adv-x="547" d="M46 709q10 31 34.5 42.5t53 4t51.5 -30.5l60 -60l9 7l-32 66q-26 52 -13.5 91t68.5 39q52 0 66 -40t-14 -93l-34 -62l10 -7l57 59q40 41 81.5 36t57.5 -52q15 -47 -16.5 -70.5t-90.5 -23.5l-68 4l-3 -10l64 -34q28 -14 46 -37.5t16 -51t-30 -47.5q-44 -28 -77 -6.5 t-47 76.5l-16 65h-11l-16 -65q-14 -60 -51.5 -78.5t-72.5 8.5q-22 15 -28 39t9 51t51 46l65 36l-3 10l-69 -6q-55 -2 -89 21t-18 73z" />
<glyph unicode="+" horiz-adv-x="512" d="M50 232v106h151v153h108v-153h152v-106h-152v-152h-108v152h-151z" />
<glyph unicode="," horiz-adv-x="275" d="M39 -131q57 53 78 117q-28 5 -45 26t-17 51q0 38 24 60t59 22q36 0 58 -22.5t22 -68.5q0 -62 -33.5 -129t-81.5 -109z" />
<glyph unicode="-" d="M70 232v109l291 10v-109z" />
<glyph unicode="." horiz-adv-x="274" d="M56 63q0 38 24.5 59.5t60.5 21.5q35 0 55.5 -20t20.5 -55q0 -40 -23 -62t-61 -22q-32 0 -54.5 22t-22.5 56z" />
<glyph unicode="/" horiz-adv-x="525" d="M-52 -172l431 872h132l-430 -872h-133z" />
<glyph unicode="0" horiz-adv-x="617" d="M61 329q0 176 66 278.5t193 102.5q74 0 129 -50t81 -125.5t26 -163.5q0 -176 -66 -278.5t-193 -102.5q-74 0 -129 50t-81 125.5t-26 163.5zM203 380q0 -295 108 -295q29 0 50 21t32 56.5t16 74.5t5 83q0 295 -106 295q-32 0 -53.5 -18.5t-32.5 -53.5t-15 -73t-4 -90z" />
<glyph unicode="1" horiz-adv-x="402" d="M21 644l230 62h56v-706h-138v591l-138 -14z" />
<glyph unicode="2" horiz-adv-x="511" d="M27 0v70l100 107q173 186 173 317q0 114 -121 114q-29 0 -61 -4t-50 -8l-17 -3v82q66 35 178 35q95 0 152 -48.5t57 -140.5q0 -89 -49 -172t-156 -197l-59 -64l194 8l92 5l-8 -101h-425z" />
<glyph unicode="3" horiz-adv-x="539" d="M40 19l18 92q74 -25 130 -25q155 0 155 119q0 55 -46.5 86.5t-105.5 31.5h-39l5 94h33q53 0 90 30.5t37 76.5q0 42 -25 64t-92 22q-28 0 -60.5 -4t-51.5 -8l-19 -5v82q68 35 164 35t158 -43t62 -118q0 -59 -41.5 -107t-112.5 -63q84 -11 134 -59.5t50 -123.5 q0 -87 -73.5 -146.5t-192.5 -59.5q-43 0 -87 7t-67 15z" />
<glyph unicode="4" horiz-adv-x="592" d="M16 215l341 499h99v-470l94 1l-8 -96h-86v-66l5 -93h-135v159h-282zM138 239l190 4v191l3 104h-3q-13 -31 -47 -85z" />
<glyph unicode="5" horiz-adv-x="526" d="M41 19l20 85q65 -16 129 -16q66 0 105 30.5t39 92.5q0 66 -64 107.5t-185 52.5l18 329h343l-5 -109l-249 6l-8 -136q290 -39 290 -256q0 -91 -68.5 -153t-183.5 -62q-94 0 -181 29z" />
<glyph unicode="6" horiz-adv-x="579" d="M54 280q0 194 95 302.5t303 142.5l22 -89q-121 -33 -186 -83t-87 -141q58 27 131 27q88 0 146 -59t58 -156q0 -99 -65 -166.5t-176 -67.5q-116 0 -178.5 81t-62.5 209zM192 271q0 -88 30 -137.5t79 -49.5q46 0 72 32.5t26 91.5q0 62 -28 100t-80 38q-49 0 -99 -28v-47z " />
<glyph unicode="7" horiz-adv-x="470" d="M32 591l8 109h412v-41q-79 -169 -126.5 -319.5t-95.5 -352.5l-140 29q57 217 254 585l-227 -4z" />
<glyph unicode="8" horiz-adv-x="567" d="M60 174q0 126 129 190q-52 36 -81 75t-29 96q0 81 59.5 128t158.5 47q88 0 138.5 -42.5t52.5 -117.5q1 -97 -108 -167q60 -39 94 -84.5t34 -112.5q0 -86 -67 -141.5t-161 -55.5q-98 0 -159 49t-61 136zM175 192q0 -53 30 -80t71 -27q48 0 74.5 24t26.5 68 q0 45 -31.5 77.5t-91.5 68.5q-37 -24 -58 -59t-21 -72zM211 544q0 -34 25.5 -60.5t74.5 -57.5q61 51 62 115q1 34 -20.5 54t-57.5 20q-39 0 -61.5 -20t-22.5 -51z" />
<glyph unicode="9" horiz-adv-x="578" d="M43 476q0 99 64.5 166.5t175.5 67.5q113 0 177 -76t64 -214q0 -380 -398 -445l-22 89q120 32 185.5 82t87.5 141q-58 -26 -131 -26q-88 0 -145.5 59t-57.5 156zM178 483q0 -64 31 -96.5t78 -32.5q53 0 99 28v56q0 84 -28 131t-81 47q-47 0 -73 -37.5t-26 -95.5z" />
<glyph unicode=":" horiz-adv-x="301" d="M70 63q0 38 24.5 59.5t60.5 21.5q35 0 55.5 -20t20.5 -55q0 -40 -23 -62t-61 -22q-32 0 -54.5 22t-22.5 56zM70 420q0 38 24.5 59.5t60.5 21.5q35 0 55.5 -20t20.5 -55q0 -40 -23 -62t-61 -22q-32 0 -54.5 22t-22.5 56z" />
<glyph unicode=";" horiz-adv-x="305" d="M55 -131q57 53 78 117q-28 5 -45 26t-17 51q0 38 24 60t59 22q36 0 58 -22.5t22 -68.5q0 -62 -33.5 -129t-81.5 -109zM73 419q0 38 24.5 59.5t60.5 21.5q35 0 55.5 -20t20.5 -55q0 -40 -23 -62t-61 -22q-32 0 -54.5 22t-22.5 56z" />
<glyph unicode="&#x3c;" horiz-adv-x="467" d="M42 230v69l348 210v-157l-184 -87l184 -89v-156z" />
<glyph unicode="=" horiz-adv-x="567" d="M78 122v104h411v-104h-411zM78 332v104h411v-104h-411z" />
<glyph unicode="&#x3e;" horiz-adv-x="467" d="M77 20v156l184 89l-184 87v157l348 -210v-69z" />
<glyph unicode="?" horiz-adv-x="426" d="M47 595v93q49 26 142 26q78 0 130.5 -39.5t52.5 -104.5q0 -49 -22.5 -93t-49 -70t-49 -57t-22.5 -57q0 -13 11.5 -17t22.5 6l38 -48q-33 -38 -89 -38q-48 0 -76 24.5t-28 63.5q0 37 19.5 72t42.5 59t42.5 59.5t19.5 74.5q0 33 -24 50.5t-60 17.5q-20 0 -45 -5.5 t-41 -11.5zM122 63q0 38 24.5 59.5t60.5 21.5q35 0 55.5 -20t20.5 -55q0 -40 -23 -62t-61 -22q-32 0 -54.5 22t-22.5 56z" />
<glyph unicode="@" horiz-adv-x="950" d="M46 179q0 119 51 216t153 156t239 59q189 0 294 -96t105 -251q0 -125 -51 -209t-141 -84q-24 0 -44.5 7t-33 16t-23 21.5t-14 17.5t-5.5 10q-17 -25 -28 -35q-41 -37 -105 -37q-82 0 -135.5 65.5t-53.5 163.5q0 102 58 166.5t147 64.5q33 0 61.5 -9t41.5 -19l12 -9l77 31 h26v-312q0 -48 27 -48q22 0 40 37t18 106q0 48 -8 91.5t-27.5 85t-49 71.5t-76.5 48.5t-107 18.5q-135 0 -224.5 -84t-89.5 -237q0 -78 21.5 -137.5t56.5 -93.5t82.5 -54t94.5 -25t99 0v-82q-222 -31 -355 72.5t-133 297.5zM391 202q0 -58 24 -92.5t65 -34.5q16 0 32.5 6.5 t24.5 12.5l8 6l-1 223q-14 18 -60 18q-39 0 -66 -36.5t-27 -102.5z" />
<glyph unicode="A" horiz-adv-x="636" d="M23 0q9 64 49 177l188 520l109 6l216 -583q12 -33 24.5 -62.5t18.5 -42.5l6 -13l-143 -6l-56 153h-267q-29 -91 -38 -149h-107zM199 240h203l-87 240l-16 61h-4q-5 -31 -15 -61z" />
<glyph unicode="B" horiz-adv-x="641" d="M90 700h230q111 0 175 -48.5t64 -127.5q0 -119 -118 -153v-4q70 -14 109 -56t39 -106q0 -96 -74.5 -150.5t-185.5 -54.5h-233v598zM233 90h96q58 0 90 30t32 83t-29.5 86t-91.5 33h-97v-232zM233 412h145q5 4 13 11.5t21 32.5t13 53q0 44 -28 72.5t-88 28.5h-76v-198z " />
<glyph unicode="C" horiz-adv-x="594" d="M56 329q0 174 87 279t242 105q28 0 57 -3.5t61 -9t49 -7.5l-14 -98q-26 1 -73.5 10.5t-81.5 9.5q-86 0 -135.5 -68t-49.5 -183q0 -123 51 -198.5t161 -75.5q35 0 67.5 5t47.5 9l15 5l17 -90q-52 -29 -153 -29q-162 0 -255 94t-93 245z" />
<glyph unicode="D" horiz-adv-x="743" d="M90 700h217q184 0 283.5 -85.5t99.5 -251.5q0 -92 -30.5 -163t-84.5 -114t-122 -64.5t-147 -21.5h-210v598zM234 92h47q264 0 264 254q0 126 -63.5 194t-195.5 68h-52v-516z" />
<glyph unicode="E" horiz-adv-x="598" d="M90 700h453l-5 -99q-39 5 -85 6l-219 3v-210l259 5l-5 -106l-254 8v-216l204 3l105 6l-5 -100h-442v598z" />
<glyph unicode="F" horiz-adv-x="578" d="M90 700h453l-5 -100q-49 5 -96 6l-208 3v-229l259 5l-5 -106l-254 8v-194l5 -93h-143v598z" />
<glyph unicode="G" horiz-adv-x="684" d="M54 347q0 160 99 263t265 103q32 0 64 -3.5t67.5 -9t50.5 -7.5l-14 -98q-15 2 -48.5 7.5t-66 9t-61.5 3.5q-50 0 -88.5 -17t-61.5 -44t-38 -64t-20.5 -74t-5.5 -78q0 -120 67.5 -185.5t175.5 -65.5l48 5v117l-6 103l139 5v-302q-96 -25 -181 -25q-183 0 -284 87.5 t-101 269.5z" />
<glyph unicode="H" horiz-adv-x="782" d="M90 701l144 5v-297h314v189l-6 103l144 5v-613l5 -93h-143v315h-314v-222l5 -93h-143v598z" />
<glyph unicode="I" horiz-adv-x="330" d="M90 701l144 5v-613l5 -93h-143v598z" />
<glyph unicode="J" horiz-adv-x="329" d="M-12 -148q15 19 34.5 43.5t26.5 33.5t16 22t13 21.5t8 20.5q10 29 10 97v508l-6 103l144 5v-615q0 -69 -18 -114q-10 -26 -31 -54t-40.5 -49t-80.5 -83z" />
<glyph unicode="K" horiz-adv-x="652" d="M90 701l144 5v-301h58q17 23 32.5 44.5t27 38t24 36.5t19.5 31t17.5 29.5t14.5 25t13.5 25t11.5 21.5t11.5 23t10.5 21h133q-88 -157 -218 -321l208 -309l51 -70l-153 -5l-215 317h-46v-219l5 -93h-143v598z" />
<glyph unicode="L" horiz-adv-x="560" d="M90 700l144 5v-614l215 2q24 0 47.5 1.5t35.5 3.5l11 2l-5 -100h-442v598z" />
<glyph unicode="M" horiz-adv-x="922" d="M90 701l119 5l211 -321q11 -16 20 -32.5t12 -25.5l4 -9h3q12 28 33 60l210 323l124 5v-613l5 -93h-139v425l4 109l-4 1q-9 -28 -40 -75l-188 -290h-43l-171 257l-54 89l-3 -1q7 -43 7 -110v-322l5 -83h-109v587z" />
<glyph unicode="N" horiz-adv-x="755" d="M90 701l101 5l334 -459q10 -14 18 -28t11 -21l3 -6l3 1q-5 28 -5 68v337l-6 103l111 5v-706l-95 -10l-335 459l-33 61h-3q7 -45 7 -71v-346l5 -93h-110v598z" />
<glyph unicode="O" horiz-adv-x="759" d="M57 337q0 171 85.5 272t248.5 101q98 0 170.5 -50.5t106.5 -127.5t34 -169q0 -171 -85.5 -272t-248.5 -101q-98 0 -170.5 50.5t-106.5 127.5t-34 169zM199 362q0 -58 9 -106t30 -89t59 -64t91 -23q87 0 129.5 68.5t42.5 189.5q0 58 -9 106t-30 89t-59 64t-91 23 q-87 0 -129.5 -68.5t-42.5 -189.5z" />
<glyph unicode="P" horiz-adv-x="605" d="M90 700h216q123 0 193 -61.5t70 -147.5q0 -103 -73.5 -173.5t-195.5 -70.5h-66v-154l5 -93h-143v598zM234 340h50q73 0 109 38.5t36 107.5q0 55 -35 88.5t-102 33.5h-58v-268z" />
<glyph unicode="Q" horiz-adv-x="740" d="M58 337q0 172 81 272.5t243 100.5q98 0 168 -50.5t101.5 -127.5t31.5 -169q0 -223 -127 -316l105 -154l58 -76l-147 -5l-122 188q-40 -10 -91 -10q-98 0 -168 50.5t-101.5 127.5t-31.5 169zM200 362q0 -283 179 -283q162 0 162 259q0 283 -179 283q-162 0 -162 -259z" />
<glyph unicode="R" horiz-adv-x="647" d="M90 700h216q129 0 201 -59.5t72 -162.5q0 -64 -41 -113t-103 -70l130 -219l52 -76l-154 -5l-146 252h-83v-154l5 -93h-143v598zM234 338h38q84 0 125.5 39t41.5 106q0 59 -38 92t-109 33h-58v-270z" />
<glyph unicode="S" horiz-adv-x="549" d="M61 511q0 92 62 147t163 55q49 0 113 -9.5t79 -10.5l-16 -100q-29 2 -79.5 11t-76.5 9q-108 0 -108 -89q0 -37 24.5 -64.5t87.5 -51.5q103 -40 145.5 -88t42.5 -130q0 -94 -70 -147t-197 -53q-49 0 -91.5 6t-59.5 12l-18 7v97q73 -23 169 -23q67 0 98.5 27t31.5 64 q0 42 -22 70t-96 54q-92 33 -137 81.5t-45 125.5z" />
<glyph unicode="T" horiz-adv-x="589" d="M23 600l5 100h540l-4 -99q-32 3 -80 4h-119v-512l5 -93h-143v605l-117 2q-18 0 -40 -1.5t-34 -3.5z" />
<glyph unicode="U" horiz-adv-x="752" d="M83 701l144 5v-425q0 -104 40 -152t122 -48q75 0 121 50t46 150v317l-6 103l114 5v-425q0 -140 -74 -217.5t-216 -77.5q-130 0 -207.5 76.5t-77.5 217.5v318z" />
<glyph unicode="V" horiz-adv-x="644" d="M2 696l149 6l183 -502l11 -42h4q-1 18 7 41l117 348q30 89 39 153h107q-9 -67 -49 -179l-188 -520l-115 -6l-216 583q-12 33 -24 62.5t-19 42.5z" />
<glyph unicode="W" horiz-adv-x="971" d="M18 697l143 6l123 -435q8 -28 14 -56.5t8 -43.5l3 -15h4q5 53 21 118l104 429l119 5l115 -433q8 -29 13.5 -59.5t7.5 -46.5l2 -17h4q6 57 24 119l74 258q26 90 35 174h111q-15 -108 -53 -221l-152 -477l-120 -6l-105 398l-24 121h-5q-9 -71 -19 -115l-95 -398l-142 -6 l-171 583z" />
<glyph unicode="X" horiz-adv-x="654" d="M22 700l162 5l155 -263l84 122q18 27 37 61.5t28 55.5l10 21h122q-24 -73 -93 -166l-129 -173l175 -267l66 -96l-156 -5l-171 275l-73 -120l-90 -150h-125q39 82 116 183l117 160l-162 251z" />
<glyph unicode="Y" horiz-adv-x="602" d="M-10 700l158 5l178 -324l99 200q16 33 28.5 63t16.5 43l4 13h117q-36 -80 -76 -158l-143 -259v-190l5 -93h-143v284l-186 324q-11 20 -25.5 43t-23.5 36z" />
<glyph unicode="Z" horiz-adv-x="578" d="M42 0v50l322 566l-218 -9l-90 -6l5 99h470v-50l-327 -572l204 9l119 9l-5 -96h-480z" />
<glyph unicode="[" horiz-adv-x="305" d="M82 -199v984h178v-61h-60v-862h60v-61h-178z" />
<glyph unicode="\" horiz-adv-x="514" d="M14 700h122l431 -874h-123z" />
<glyph unicode="]" horiz-adv-x="305" d="M45 -138h60v862h-60v61h178v-984h-178v61z" />
<glyph unicode="^" horiz-adv-x="427" d="M20 533l191 227h5l191 -227h-124l-70 86l-70 -86h-123z" />
<glyph unicode="_" horiz-adv-x="489" d="M15 -101h459v-92h-459v92z" />
<glyph unicode="`" horiz-adv-x="550" d="M43 746l96 101l160 -181l-69 -74z" />
<glyph unicode="a" horiz-adv-x="546" d="M41 122q0 134 171 162q55 9 116 9v31q0 46 -27.5 70t-76.5 24q-37 0 -73 -5.5t-53 -10.5l-18 -6v87q67 27 172 27q113 0 162 -49t47 -131q0 -21 -1 -72t-2 -93.5t-1 -64.5q0 -18 11 -18q8 0 17.5 5t14.5 10l6 5v-83q-32 -29 -78 -29q-63 0 -79 62q-68 -62 -158 -62 q-74 0 -112 38t-38 94zM175 136q0 -24 14.5 -38t42.5 -14q46 0 92 36q0 23 2 107q-48 -2 -85 -13q-66 -19 -66 -78z" />
<glyph unicode="b" horiz-adv-x="611" d="M70 750l139 5l-2 -296q58 51 137 51q106 0 161.5 -67t55.5 -166q0 -136 -72 -211.5t-207 -75.5q-113 0 -206 40v617zM207 377q2 -38 2 -96v-176q48 -25 88 -25q127 0 127 176q0 73 -27.5 113.5t-82.5 40.5q-53 0 -107 -33z" />
<glyph unicode="c" horiz-adv-x="484" d="M49 234q0 123 67 199.5t179 76.5q30 0 75 -9.5t67 -10.5l-10 -102q-24 2 -69 12.5t-68 10.5q-47 0 -76.5 -39t-29.5 -114q0 -77 38 -122.5t107 -45.5q27 0 54 7t41 13l14 7v-94q-52 -33 -141 -33q-115 0 -181.5 67.5t-66.5 176.5z" />
<glyph unicode="d" horiz-adv-x="612" d="M50 231q0 132 68.5 205.5t170.5 73.5q71 0 112 -33v170q0 25 -1.5 51t-3.5 39l-2 13l139 5v-651l6 -103l-130 -5l-3 46q-44 -52 -133 -52q-101 0 -162 67.5t-61 173.5zM187 254q0 -77 29 -123t92 -46q60 0 93 39v256q-30 41 -92 41q-59 0 -90.5 -44t-31.5 -123z" />
<glyph unicode="e" horiz-adv-x="560" d="M48 242q0 124 70 196t181 72q119 0 172 -77.5t39 -195.5h-327q3 -67 46 -107t112 -40q37 0 74 7t56 13l19 7v-93q-60 -34 -169 -34q-126 0 -199.5 67t-73.5 185zM190 321l185 4q-1 51 -21 74t-59 23q-42 0 -71 -28t-34 -73z" />
<glyph unicode="f" horiz-adv-x="404" d="M44 412v88h57v77q0 81 50 132t141 51q37 0 84.5 -9.5t67.5 -10.5l-19 -102q-34 3 -70.5 13t-56.5 10q-65 0 -65 -90v-71h151l-5 -93l-146 2v-316l5 -93h-138v411z" />
<glyph unicode="g" horiz-adv-x="562" d="M35 -109q0 84 80 123q-21 23 -21 66q0 21 13 45.5t38 41.5q-42 19 -66.5 58.5t-24.5 92.5q0 86 58.5 139t162.5 53q51 0 104 -20l159 12l-3 -72l-96 1v-4q34 -34 34 -104q0 -73 -57 -127.5t-164 -54.5q-23 0 -53 4q-5 -8 -5 -18q0 -31 49 -34l97 -6q171 -10 171 -161 q0 -77 -61 -132t-175 -56q-105 -2 -172.5 35.5t-67.5 117.5zM149 -71q0 -49 40 -79t107 -30q53 0 84.5 24t31.5 60q0 32 -22 46.5t-70 16.5l-81 5q-51 4 -78 14q-12 -24 -12 -57zM189 328q0 -46 20.5 -74.5t53.5 -28.5q36 0 55.5 28.5t19.5 71.5q0 47 -20 73.5t-54 26.5 q-35 0 -55 -28t-20 -69z" />
<glyph unicode="h" horiz-adv-x="606" d="M73 750l139 5l-2 -305q73 60 164 60q75 0 116 -47t41 -128v-252l5 -83h-138v297q0 60 -18 86.5t-63 26.5q-22 0 -42 -5.5t-29.5 -10t-35.5 -18.5q2 -20 2 -95v-198l5 -83h-138v647z" />
<glyph unicode="i" horiz-adv-x="291" d="M64 669q0 33 23 51.5t59 18.5q34 0 54 -18t20 -50q0 -35 -22 -55t-59 -20q-32 0 -53.5 20.5t-21.5 52.5zM73 500l139 5v-412l5 -93h-138v397z" />
<glyph unicode="j" horiz-adv-x="291" d="M-13 -207q49 63 76 121q16 31 16 112v371l-6 103l139 5v-479q0 -76 -19 -111q-30 -58 -143 -172zM68 669q0 33 23 51.5t59 18.5q34 0 54 -18t20 -50q0 -35 -22 -55t-59 -20q-32 0 -53.5 20.5t-21.5 52.5z" />
<glyph unicode="k" horiz-adv-x="551" d="M73 751l139 5v-458h32l61 87q26 37 44.5 65.5t24.5 39.5l5 10h131q-36 -63 -107 -146l-67 -75l145 -203l60 -76l-156 -5l-145 214h-28v-116l5 -93h-138v648z" />
<glyph unicode="l" horiz-adv-x="291" d="M73 751l139 5v-663l5 -93h-138v648z" />
<glyph unicode="m" horiz-adv-x="898" d="M73 500l132 5l3 -55q38 31 70 45.5t78 14.5q44 0 80.5 -18.5t52.5 -50.5q80 69 168 69q77 0 121.5 -46.5t44.5 -121.5v-259l5 -83h-138v297q0 113 -80 113q-32 0 -51.5 -8t-48.5 -26q5 -28 5 -54v-239l5 -83h-138v297q0 58 -17.5 85.5t-55.5 27.5q-36 0 -99 -34 q2 -20 2 -95v-198l5 -83h-138v397z" />
<glyph unicode="n" horiz-adv-x="605" d="M73 500l132 5l3 -56q39 31 76.5 46t94.5 15q74 0 113 -48.5t39 -137.5v-241l5 -83h-138v309q0 101 -78 101q-46 0 -110 -34q2 -27 2 -75v-218l5 -83h-138v397z" />
<glyph unicode="o" horiz-adv-x="584" d="M50 233q0 129 68 203t187 74q107 0 168 -66t61 -177q0 -128 -68.5 -202.5t-186.5 -74.5q-107 0 -168 66t-61 177zM185 258q0 -82 27 -130t82 -48q51 0 78 40.5t27 116.5q0 91 -24.5 137.5t-84.5 46.5q-52 0 -78.5 -42.5t-26.5 -120.5z" />
<glyph unicode="p" horiz-adv-x="614" d="M73 500l132 5l3 -48q31 28 62.5 40.5t84.5 12.5q96 0 152.5 -68t56.5 -165q0 -132 -67.5 -209.5t-173.5 -77.5q-32 0 -60 7t-39 15l-12 7v-186l5 -83h-138v647zM210 377q2 -16 2 -76v-191q34 -30 89 -30q60 0 93 47t33 120q0 85 -30.5 124t-79.5 39q-53 0 -107 -33z" />
<glyph unicode="q" horiz-adv-x="622" d="M49 242q0 121 73.5 194.5t196.5 73.5q71 0 132 -36l60 26h32v-667l5 -83h-138v297q-6 -6 -16.5 -15.5t-45.5 -25.5t-74 -16q-110 0 -167.5 70t-57.5 182zM186 251q0 -69 33.5 -115t94.5 -46q25 0 49 9.5t35 18.5l12 10v259q-52 34 -95 34q-54 0 -91.5 -46t-37.5 -124z " />
<glyph unicode="r" horiz-adv-x="444" d="M73 500l134 5l2 -76q30 42 54 61.5t52 19.5q20 0 37.5 -6t41 -18t42.5 -18l-49 -107q-15 6 -39 17t-39 16.5t-28 5.5q-28 0 -71 -39q2 -24 2 -71v-207l5 -83h-138v397z" />
<glyph unicode="s" horiz-adv-x="455" d="M52 362q0 70 50 109t123 39q39 0 91.5 -9.5t73.5 -10.5l-10 -101q-29 2 -79 12t-81 10q-58 0 -58 -36q0 -19 17 -35t73 -35q80 -28 118.5 -65.5t38.5 -98.5q0 -76 -51.5 -113.5t-140.5 -37.5q-35 0 -88.5 9.5t-73.5 11.5l10 102q19 -2 73 -13t86 -11q75 0 75 40 q0 19 -22 34t-74 35q-83 31 -117 64.5t-34 99.5z" />
<glyph unicode="t" horiz-adv-x="432" d="M41 413v76l57 11l71 116h59v-116h165l-3 -92l-162 2v-231q0 -95 81 -95q19 0 40 4t33 8l11 4v-89q-46 -21 -103 -21q-98 0 -146 39.5t-48 125.5v176l5 81z" />
<glyph unicode="u" horiz-adv-x="606" d="M70 500h138v-309q0 -101 78 -101q46 0 110 34q-2 27 -2 75v218l-5 83h138v-397l6 -103l-132 -5l-3 56q-39 -31 -76.5 -46t-94.5 -15q-74 0 -113 48.5t-39 137.5v241z" />
<glyph unicode="v" horiz-adv-x="516" d="M11 500l145 5l100 -295q8 -24 14 -45.5t8 -30.5l1 -10h4q5 33 20 79l52 156q20 64 32 141h105q-7 -81 -41 -169l-130 -331l-121 -5l-147 402z" />
<glyph unicode="w" horiz-adv-x="794" d="M19 500l132 5l84 -282q7 -24 12 -48.5t7 -36.5l1 -12h4q4 41 21 103l46 170q8 32 13 57t6 34l1 10l106 7l86 -276q8 -25 15 -52t9 -41l3 -14h4q7 49 24 109l33 113q23 90 28 154h104q-3 -76 -45 -202l-102 -298l-121 -5l-77 257q-7 21 -12.5 44t-7.5 35l-2 12h-4 q-7 -45 -21 -101l-61 -242l-128 -5l-123 402z" />
<glyph unicode="x" horiz-adv-x="554" d="M23 500l156 5l113 -173l31 48l75 120h116q-46 -76 -113 -164l-58 -77l139 -183l59 -76l-156 -5l-125 175l-23 -34q-26 -39 -47.5 -73t-29.5 -49l-8 -14h-128q53 78 108 146l76 95l-122 176q-14 21 -30 41.5t-24 31.5z" />
<glyph unicode="y" horiz-adv-x="524" d="M12 500l147 5l96 -293q8 -26 14.5 -51t8.5 -37l3 -11h4q9 47 26 101l46 143q31 96 36 143h108q-7 -86 -56 -202l-126 -307q-23 -55 -44 -116t-31 -95l-9 -34l-129 6q29 80 87 185l16 29l-155 431z" />
<glyph unicode="z" horiz-adv-x="485" d="M45 0v40l227 370l-114 -5l-106 -8l7 103h377v-40l-228 -372l129 3l103 8l-8 -99h-387z" />
<glyph unicode="{" horiz-adv-x="349" d="M15 315q111 15 111 107v215q0 74 29.5 111t94.5 37h54v-71q-37 0 -48.5 -18t-11.5 -79v-153q0 -127 -87 -174q87 -45 87 -191v-154q0 -46 12 -64.5t48 -18.5v-61h-54q-65 0 -94.5 37t-29.5 111v161q0 117 -26 144q-35 -13 -71 -16z" />
<glyph unicode="|" horiz-adv-x="282" d="M82 -259v1024h118v-1024h-118z" />
<glyph unicode="}" horiz-adv-x="349" d="M45 -128q37 0 48.5 18t11.5 79v153q0 127 87 174q-87 45 -87 191v154q0 46 -12 64.5t-48 18.5v61h54q65 0 94.5 -37t29.5 -111v-161q0 -117 26 -144q35 13 71 16l14 -77q-111 -15 -111 -107v-215q0 -74 -29.5 -111t-94.5 -37h-54v71z" />
<glyph unicode="~" horiz-adv-x="553" d="M49 271q1 4 4 10t15 21.5t27 27.5t41 22t57 10q54 0 102.5 -22.5t81.5 -22.5q25 0 43 8.5t24 17.5l5 9l55 -67q-1 -4 -4 -10t-14.5 -21.5t-25.5 -27.5t-38.5 -22t-53.5 -10q-46 0 -100 22.5t-92 22.5q-22 0 -39.5 -8.5t-24.5 -17.5l-6 -9z" />
<glyph unicode="&#xa2;" horiz-adv-x="496" d="M45 234q0 105 49.5 177.5t135.5 92.5v106h98v-102q12 -2 32.5 -6.5t38 -7.5t34.5 -4l-10 -102q-24 2 -69 12.5t-68 10.5q-47 0 -76.5 -39t-29.5 -114q0 -71 37 -119.5t98 -48.5q30 0 59.5 7t44.5 13l15 7v-94q-40 -23 -106 -30v-107h-98v110q-87 18 -136 81.5t-49 156.5z " />
<glyph unicode="&#xa3;" horiz-adv-x="575" d="M61 282v94h70l-7 84q-10 114 54 184.5t181 70.5q30 0 75 -9t67 -11l-10 -102q-27 2 -70.5 12.5t-66.5 10.5q-48 0 -71 -20.5t-23.5 -51.5t1.5 -66l8 -102h159v-94h-152q3 -70 -11.5 -118t-59.5 -74l228 6l96 6l-5 -102h-462v84q4 1 10 3t21 14t26 29.5t18 52.5t3 80 l-2 19h-77z" />
<glyph unicode="&#xa5;" horiz-adv-x="680" d="M35 700l158 5l178 -324l99 200q16 33 28.5 63t16.5 43l4 13h117q-24 -63 -76 -158l-104 -188h104v-94h-143v-77h143v-94h-143l5 -89h-143v89h-130v94h130v77h-130v94h90l-146 254z" />
<glyph unicode="&#xa8;" horiz-adv-x="502" d="M85 708q0 39 23.5 60.5t60.5 21.5q36 0 56 -20.5t20 -57.5q0 -41 -22.5 -63t-60.5 -22q-34 0 -55.5 22t-21.5 59zM293 708q0 39 23.5 60.5t60.5 21.5q36 0 56 -20.5t20 -57.5q0 -41 -22.5 -63t-60.5 -22q-34 0 -55.5 22t-21.5 59z" />
<glyph unicode="&#xa9;" horiz-adv-x="815" d="M50 354q0 152 103 257.5t255 105.5q151 0 254 -105.5t103 -257.5q0 -150 -104 -256t-253 -106q-152 0 -255 104.5t-103 257.5zM178 354q0 -121 62.5 -193.5t167.5 -72.5q102 0 166 74t64 192q0 119 -64.5 193t-165.5 74q-97 0 -163.5 -74.5t-66.5 -192.5zM233 348 q0 99 52.5 156t147.5 57q23 0 59 -7.5t53 -8.5l-15 -89q-18 2 -47 10t-47 8q-31 0 -51 -30.5t-20 -77.5q0 -118 89 -118q21 0 43.5 5t34.5 10l12 5v-84q-42 -25 -108 -25q-93 0 -148 52.5t-55 136.5z" />
<glyph unicode="&#xab;" horiz-adv-x="558" d="M25 231v29l50 46q94 86 143 176l92 -48q-21 -48 -56 -98.5t-66 -80.5l-12 -10l12 -11q62 -53 118 -177l-88 -48q-49 90 -143 176zM235 231v29l50 46q56 51 83 83t51 78l91 -48q-36 -93 -112 -164l-12 -10l12 -11q37 -32 60.5 -67.5t46.5 -93.5l-87 -47q-23 45 -49 75 t-84 84z" />
<glyph unicode="&#xad;" d="M70 232v109l291 10v-109z" />
<glyph unicode="&#xae;" horiz-adv-x="561" d="M51 526q0 88 57 148.5t173 60.5t173 -60.5t57 -148.5q0 -87 -57 -147.5t-173 -60.5t-173 60t-57 148zM146 526q0 -82 35.5 -113.5t99.5 -31.5t99 31.5t35 113.5q0 87 -34 117.5t-100 30.5t-100.5 -30.5t-34.5 -117.5zM187 628h100q99 0 99 -66q0 -16 -10.5 -30t-26.5 -20 l8 -22l23 -52h-86l-14 54h-8v-20l2 -34h-83v143zM272 538h14q16 0 16 21q0 22 -18 22h-12v-43z" />
<glyph unicode="&#xb4;" horiz-adv-x="294" d="M43 665l160 181l97 -100l-187 -154z" />
<glyph unicode="&#xb8;" horiz-adv-x="240" d="M0 -180l24 61q39 -10 76 -10q33 0 33 22q0 13 -16.5 17t-41.5 -8l-13 15l37 103l58 4v-56q41 -4 64.5 -23t23.5 -53q0 -41 -35.5 -66.5t-93.5 -25.5q-64 0 -116 20z" />
<glyph unicode="&#xbb;" horiz-adv-x="558" d="M48 419l91 48q24 -46 51 -78t83 -83l50 -46v-29l-50 -46q-58 -54 -84 -84t-49 -75l-87 47q23 58 46.5 93.5t60.5 67.5l13 11l-13 10q-76 71 -112 164zM248 434l92 48q49 -90 143 -176l50 -46v-29l-50 -46q-94 -86 -143 -176l-88 48q56 124 118 177l13 11l-13 10 q-31 30 -66 80.5t-56 98.5z" />
<glyph unicode="&#x2c6;" horiz-adv-x="384" d="M30 595l151 124h38l148 -118l-59 -73l-108 74l-109 -76z" />
<glyph unicode="&#x2da;" horiz-adv-x="308" d="M29 656q0 51 35.5 81t89.5 30t89 -30t35 -81t-35 -81t-89 -30t-89.5 30t-35.5 81zM129 656q0 -16 7.5 -27t17.5 -11q22 0 22 38q0 36 -22 36q-11 0 -18 -10t-7 -26z" />
<glyph unicode="&#x2dc;" horiz-adv-x="424" d="M38 553q8 48 41 83.5t83 35.5q38 0 73.5 -18t48.5 -18q15 0 25 12.5t13 26.5l80 -20q-9 -57 -41.5 -88t-73.5 -31q-36 0 -72.5 18t-50.5 18q-16 0 -28 -12t-16 -27z" />
<glyph unicode="&#x401;" horiz-adv-x="598" d="M90 700h453l-5 -99q-39 5 -85 6l-219 3v-210l259 5l-5 -106l-254 8v-216l204 3l105 6l-5 -100h-442v598zM136 849q0 39 23.5 60.5t60.5 21.5q36 0 56 -20.5t20 -57.5q0 -41 -22.5 -63t-60.5 -22q-34 0 -55.5 22t-21.5 59zM344 849q0 39 23.5 60.5t60.5 21.5 q36 0 56 -20.5t20 -57.5q0 -41 -22.5 -63t-60.5 -22q-34 0 -55.5 22t-21.5 59z" />
<glyph unicode="&#x402;" horiz-adv-x="735" d="M20 604l9 96h536l-4 -95l-98 6l-101 -2v-181q45 22 118 22q109 0 163 -56.5t54 -147.5q0 -100 -40.5 -174.5t-141.5 -128.5l-60 95q52 29 81 81t29 118q0 113 -116 113q-24 0 -46 -2.5t-31 -5.5l-10 -2v-247l5 -93h-143v609l-109 2q-24 0 -47.5 -1.5t-35.5 -3.5z" />
<glyph unicode="&#x403;" horiz-adv-x="533" d="M90 700h423l-5 -109q-41 8 -107 8h-167v-506l5 -93h-143v598zM221 823l160 181l97 -100l-187 -154z" />
<glyph unicode="&#x404;" horiz-adv-x="599" d="M56 329q0 174 87 279t242 105q28 0 57 -3.5t61 -9t49 -7.5l-14 -96q-26 1 -73.5 10.5t-81.5 9.5q-84 0 -133.5 -62t-53.5 -154l280 4v-103l-276 4q4 -86 54 -152t137 -66q47 0 86 5.5t55 10.5l15 6v-95q-46 -25 -153 -25q-151 0 -244.5 94.5t-93.5 244.5z" />
<glyph unicode="&#x405;" horiz-adv-x="549" d="M61 511q0 92 62 147t163 55q49 0 113 -9.5t79 -10.5l-16 -100q-29 2 -79.5 11t-76.5 9q-108 0 -108 -89q0 -37 24.5 -64.5t87.5 -51.5q103 -40 145.5 -88t42.5 -130q0 -94 -70 -147t-197 -53q-49 0 -91.5 6t-59.5 12l-18 7v97q73 -23 169 -23q67 0 98.5 27t31.5 64 q0 42 -22 70t-96 54q-92 33 -137 81.5t-45 125.5z" />
<glyph unicode="&#x406;" horiz-adv-x="330" d="M90 701l144 5v-613l5 -93h-143v598z" />
<glyph unicode="&#x407;" horiz-adv-x="330" d="M-15 833q0 39 23.5 60.5t60.5 21.5q36 0 56 -20.5t20 -57.5q0 -41 -22.5 -63t-60.5 -22q-34 0 -55.5 22t-21.5 59zM90 701l144 5v-613l5 -93h-143v598zM183 833q0 39 23.5 60.5t60.5 21.5q36 0 56 -20.5t20 -57.5q0 -41 -22.5 -63t-60.5 -22q-34 0 -55.5 22t-21.5 59z " />
<glyph unicode="&#x408;" horiz-adv-x="329" d="M-12 -148q15 19 34.5 43.5t26.5 33.5t16 22t13 21.5t8 20.5q10 29 10 97v508l-6 103l144 5v-615q0 -69 -18 -114q-10 -26 -31 -54t-40.5 -49t-80.5 -83z" />
<glyph unicode="&#x409;" horiz-adv-x="988" d="M11 105q93 36 120.5 140.5t44.5 365.5q4 58 6 89h429v-247h91q99 0 176 -58.5t77 -151.5q0 -113 -68.5 -178t-194.5 -65h-219v606h-172q-17 -253 -34 -340q-33 -168 -126 -237q-32 -25 -75 -41zM611 95h31q92 0 132.5 41t40.5 99q0 54 -37 88.5t-112 34.5h-55v-263z" />
<glyph unicode="&#x40a;" horiz-adv-x="1083" d="M90 701l144 5v-299h334v191l-6 101l144 5v-251h91q99 0 176 -58.5t77 -151.5q0 -113 -68.5 -178t-194.5 -65h-219v313h-334v-220l5 -93h-143v598zM706 95h31q92 0 132.5 41t40.5 99q0 54 -37 88.5t-112 34.5h-55v-263z" />
<glyph unicode="&#x40b;" horiz-adv-x="767" d="M21 604l5 96h540l-4 -95l-84 4h-115v-189q52 30 160 30q96 0 143.5 -52t47.5 -162v-236h-138v216q0 74 -26 104t-103 30q-21 0 -42 -2t-31 -4l-11 -1v-250l5 -93h-143v609l-103 2q-20 0 -45 -1.5t-41 -3.5z" />
<glyph unicode="&#x40c;" horiz-adv-x="652" d="M90 701l144 5v-301h58q17 23 32.5 44.5t27 38t24 36.5t19.5 31t17.5 29.5t14.5 25t13.5 25t11.5 21.5t11.5 23t10.5 21h133q-88 -157 -218 -321l208 -309l51 -70l-153 -5l-215 317h-46v-219l5 -93h-143v598zM278 823l160 181l97 -100l-187 -154z" />
<glyph unicode="&#x40e;" horiz-adv-x="608" d="M3 700l147 3l146 -309q12 -25 22.5 -54.5t15.5 -45.5l4 -17h3q14 58 39 119l60 145q17 43 29.5 82.5t16.5 58.5l4 18h107q-21 -85 -82 -225l-123 -279q-30 -69 -49 -118t-23 -64l-4 -14h-127q23 58 82 153l-215 444zM127 847l86 88q8 -7 32.5 -33.5t41.5 -37t40 -10.5 q15 0 29 4t28 13.5t22.5 16.5t24.5 22t22 21l58 -90q-86 -80 -184 -80q-101 0 -200 86z" />
<glyph unicode="&#x40f;" horiz-adv-x="762" d="M90 701l144 5v-612h294v504l-6 103l144 5v-613l5 -93h-230v-120l5 -90l-120 -6l-8 216h-222v598z" />
<glyph unicode="&#x410;" horiz-adv-x="636" d="M23 0q9 64 49 177l188 520l109 6l216 -583q12 -33 24.5 -62.5t18.5 -42.5l6 -13l-143 -6l-56 153h-267q-29 -91 -38 -149h-107zM199 240h203l-87 240l-16 61h-4q-5 -31 -15 -61z" />
<glyph unicode="&#x411;" horiz-adv-x="623" d="M90 700h433l-3 -104q-47 8 -107 9l-179 4v-186h72q137 0 205 -53.5t68 -154.5q0 -96 -73.5 -155.5t-199.5 -59.5h-210v598zM234 92h64q70 0 105.5 32.5t35.5 87.5q0 53 -34.5 85.5t-106.5 32.5h-64v-238z" />
<glyph unicode="&#x412;" horiz-adv-x="641" d="M90 700h230q111 0 175 -48.5t64 -127.5q0 -119 -118 -153v-4q70 -14 109 -56t39 -106q0 -96 -74.5 -150.5t-185.5 -54.5h-233v598zM233 90h96q58 0 90 30t32 83t-29.5 86t-91.5 33h-97v-232zM233 412h145q5 4 13 11.5t21 32.5t13 53q0 44 -28 72.5t-88 28.5h-76v-198z " />
<glyph unicode="&#x413;" horiz-adv-x="533" d="M90 700h423l-5 -109q-41 8 -107 8h-167v-506l5 -93h-143v598z" />
<glyph unicode="&#x414;" horiz-adv-x="737" d="M9 92h62q59 93 84 240t36 368h425v-608h73v-202l5 -90l-115 -6l-8 206h-442v-110l5 -90l-115 -6zM196 92h282v516h-176q-16 -346 -106 -516z" />
<glyph unicode="&#x415;" horiz-adv-x="598" d="M90 700h453l-5 -99q-39 5 -85 6l-219 3v-210l259 5l-5 -106l-254 8v-216l204 3l105 6l-5 -100h-442v598z" />
<glyph unicode="&#x416;" horiz-adv-x="986" d="M2 0q31 38 51 65l224 303q-181 223 -242 331l131 6q47 -94 203 -302h52v195l-6 103l144 5v-303h55q107 147 139.5 194.5t62.5 102.5h124q-54 -105 -234 -327l221 -303l57 -70l-158 -5l-226 312h-41v-214l5 -93h-143v307h-40l-226 -307h-153z" />
<glyph unicode="&#x417;" horiz-adv-x="523" d="M40 15v98q72 -23 158 -23q58 0 94 32t36 91q0 46 -30 74.5t-81 28.5h-70v93h55q54 0 84 28.5t30 78.5q0 48 -29 75.5t-75 27.5q-32 0 -88.5 -9.5t-65.5 -10.5l-14 94q16 2 49 7.5t63 9t62 3.5q108 0 172 -48t64 -140q0 -57 -35.5 -101t-95.5 -59v-3q59 -4 101 -48.5 t42 -109.5q0 -93 -71.5 -153.5t-193.5 -60.5q-42 0 -82.5 6t-59.5 12z" />
<glyph unicode="&#x418;" horiz-adv-x="782" d="M90 701l141 5v-425l-6 -99l5 -1q18 45 43 81l300 439l113 5v-613l5 -93h-140v416l4 105l-4 1q-21 -50 -47 -89l-295 -433h-113v598z" />
<glyph unicode="&#x419;" horiz-adv-x="782" d="M90 701l141 5v-425l-6 -99l5 -1q18 45 43 81l300 439l113 5v-613l5 -93h-140v416l4 105l-4 1q-21 -50 -47 -89l-295 -433h-113v598zM195 848l86 92q11 -10 32.5 -35.5t39.5 -38t42 -12.5t42 12.5t39.5 38t32.5 35.5l86 -92q-94 -81 -200 -81t-200 81z" />
<glyph unicode="&#x41a;" horiz-adv-x="652" d="M90 701l144 5v-301h58q17 23 32.5 44.5t27 38t24 36.5t19.5 31t17.5 29.5t14.5 25t13.5 25t11.5 21.5t11.5 23t10.5 21h133q-88 -157 -218 -321l208 -309l51 -70l-153 -5l-215 317h-46v-219l5 -93h-143v598z" />
<glyph unicode="&#x41b;" horiz-adv-x="703" d="M7 105q25 11 44.5 25t35.5 37t27 46t20.5 62t15 75.5t11 97t9 114t8.5 138.5h429v-607l5 -93h-143v606h-174q-5 -91 -9.5 -153t-13 -124.5t-19.5 -104.5t-27.5 -81.5t-40 -66.5t-53.5 -49t-70 -39z" />
<glyph unicode="&#x41c;" horiz-adv-x="922" d="M90 701l119 5l211 -321q11 -16 20 -32.5t12 -25.5l4 -9h3q12 28 33 60l210 323l124 5v-613l5 -93h-139v425l4 109l-4 1q-9 -28 -40 -75l-188 -290h-43l-171 257l-54 89l-3 -1q7 -43 7 -110v-322l5 -83h-109v587z" />
<glyph unicode="&#x41d;" horiz-adv-x="782" d="M90 701l144 5v-297h314v189l-6 103l144 5v-613l5 -93h-143v315h-314v-222l5 -93h-143v598z" />
<glyph unicode="&#x41e;" horiz-adv-x="759" d="M57 337q0 171 85.5 272t248.5 101q98 0 170.5 -50.5t106.5 -127.5t34 -169q0 -171 -85.5 -272t-248.5 -101q-98 0 -170.5 50.5t-106.5 127.5t-34 169zM199 362q0 -58 9 -106t30 -89t59 -64t91 -23q87 0 129.5 68.5t42.5 189.5q0 58 -9 106t-30 89t-59 64t-91 23 q-87 0 -129.5 -68.5t-42.5 -189.5z" />
<glyph unicode="&#x41f;" horiz-adv-x="752" d="M90 700h566v-607l5 -93h-143v606h-284v-513l5 -93h-143v597z" />
<glyph unicode="&#x420;" horiz-adv-x="605" d="M90 700h216q123 0 193 -61.5t70 -147.5q0 -103 -73.5 -173.5t-195.5 -70.5h-66v-154l5 -93h-143v598zM234 340h50q73 0 109 38.5t36 107.5q0 55 -35 88.5t-102 33.5h-58v-268z" />
<glyph unicode="&#x421;" horiz-adv-x="594" d="M56 329q0 174 87 279t242 105q28 0 57 -3.5t61 -9t49 -7.5l-14 -98q-26 1 -73.5 10.5t-81.5 9.5q-86 0 -135.5 -68t-49.5 -183q0 -123 51 -198.5t161 -75.5q35 0 67.5 5t47.5 9l15 5l17 -90q-52 -29 -153 -29q-162 0 -255 94t-93 245z" />
<glyph unicode="&#x422;" horiz-adv-x="589" d="M23 600l5 100h540l-4 -99q-32 3 -80 4h-119v-512l5 -93h-143v605l-117 2q-18 0 -40 -1.5t-34 -3.5z" />
<glyph unicode="&#x423;" horiz-adv-x="608" d="M3 700l147 3l146 -309q12 -25 22.5 -54.5t15.5 -45.5l4 -17h3q14 58 39 119l60 145q17 43 29.5 82.5t16.5 58.5l4 18h107q-21 -85 -82 -225l-123 -279q-30 -69 -49 -118t-23 -64l-4 -14h-127q23 58 82 153l-215 444z" />
<glyph unicode="&#x424;" horiz-adv-x="846" d="M42 366q0 122 78.5 202t239.5 81l-5 101l137 5v-106q160 -1 239 -81.5t79 -201.5q0 -55 -18.5 -104t-55 -90.5t-99.5 -66t-145 -24.5l5 -101h-138l1 101q-159 1 -238.5 84.5t-79.5 200.5zM177 366q0 -100 52 -148.5t131 -48.5v393q-69 -1 -126 -50.5t-57 -145.5zM492 169 q76 0 129.5 48.5t53.5 148.5q0 97 -55.5 146.5t-127.5 49.5v-393z" />
<glyph unicode="&#x425;" horiz-adv-x="654" d="M22 700l162 5l155 -263l84 122q18 27 37 61.5t28 55.5l10 21h122q-24 -73 -93 -166l-129 -173l175 -267l66 -96l-156 -5l-171 275l-73 -120l-90 -150h-125q39 82 116 183l117 160l-162 251z" />
<glyph unicode="&#x426;" horiz-adv-x="787" d="M90 701l144 5v-612h294v504l-6 103l144 5v-612h73v-204l5 -90l-115 -6l-8 206h-525v598z" />
<glyph unicode="&#x427;" horiz-adv-x="700" d="M45 701l144 5v-178q0 -96 40.5 -137.5t121.5 -41.5q30 0 59 3.5t42 7.5l14 3v235l-6 103l144 5v-613l5 -93h-143v278q-52 -23 -154 -23q-132 0 -196.5 69.5t-64.5 190.5v83z" />
<glyph unicode="&#x428;" horiz-adv-x="1042" d="M90 701l144 5v-612h218v504l-6 103l144 5v-612h218v504l-6 103l144 5v-613l5 -93h-855v598z" />
<glyph unicode="&#x429;" horiz-adv-x="1067" d="M90 701l144 5v-612h218v504l-6 103l144 5v-612h218v504l-6 103l144 5v-612h73v-204l5 -90l-115 -6l-8 206h-805v598z" />
<glyph unicode="&#x42a;" horiz-adv-x="706" d="M21 599l7 101h299v-247h82q116 0 189.5 -54.5t73.5 -150.5q0 -110 -69.5 -179t-193.5 -69h-220v606h-70q-22 0 -46.5 -2t-38.5 -4zM327 95h47q86 0 122 37.5t36 93.5q0 132 -157 132h-48v-263z" />
<glyph unicode="&#x42b;" horiz-adv-x="890" d="M90 700l144 5v-252h82q116 0 189.5 -54.5t73.5 -150.5q0 -110 -69.5 -179t-193.5 -69h-220v598zM234 95h47q86 0 122 37.5t36 93.5q0 132 -157 132h-48v-263zM650 701l144 5v-613l5 -93h-143v598z" />
<glyph unicode="&#x42c;" horiz-adv-x="613" d="M90 700l144 5v-252h82q116 0 189.5 -54.5t73.5 -150.5q0 -110 -69.5 -179t-193.5 -69h-220v598zM234 95h47q86 0 122 37.5t36 93.5q0 132 -157 132h-48v-263z" />
<glyph unicode="&#x42d;" horiz-adv-x="585" d="M42 10l14 98q26 -1 73.5 -10.5t81.5 -9.5q75 0 119 58.5t53 158.5l-268 -8v108l269 -5q-8 98 -58 155.5t-147 57.5q-28 0 -58.5 -4.5t-46.5 -9.5l-17 -5v90q53 29 159 29q142 0 227 -94.5t85 -244.5q0 -102 -35 -188t-109 -141t-175 -55q-28 0 -57 3.5t-61 9t-49 7.5z " />
<glyph unicode="&#x42e;" horiz-adv-x="1035" d="M90 701l144 5v-297h103q17 140 101 220.5t229 80.5q98 0 170.5 -50.5t106.5 -127.5t34 -169q0 -171 -85.5 -272t-248.5 -101q-140 0 -222 94.5t-89 230.5h-99v-222l5 -93h-143v598zM475 362q0 -58 9 -106t30 -89t59 -64t91 -23q82 0 127 70t45 188q0 58 -9 106t-30 89 t-59 64t-91 23q-83 0 -127.5 -70t-44.5 -188z" />
<glyph unicode="&#x42f;" horiz-adv-x="644" d="M28 0l174 281q-57 21 -92 72.5t-35 120.5q0 102 72 164t190 62h211v-598l6 -102l-144 -5v252h-95l-141 -247h-146zM215 474q0 -66 36.5 -99t99.5 -33h59v263h-56q-139 0 -139 -131z" />
<glyph unicode="&#x430;" horiz-adv-x="545" d="M38 122q0 134 171 162q55 9 116 9v31q0 46 -27.5 70t-76.5 24q-37 0 -73 -5.5t-54 -10.5l-17 -6v87q67 27 172 27q113 0 162 -49t47 -131q0 -21 -1 -72t-2 -93.5t-1 -64.5q0 -18 11 -18q8 0 17.5 5t15.5 10l5 5v-83q-32 -29 -78 -29q-63 0 -79 62q-68 -62 -158 -62 q-74 0 -112 38t-38 94zM172 136q0 -24 14.5 -38t42.5 -14q46 0 92 36q0 23 2 107q-48 -2 -85 -13q-66 -19 -66 -78z" />
<glyph unicode="&#x431;" horiz-adv-x="592" d="M62 287q0 106 14.5 182t50.5 135.5t99.5 93t157.5 43.5q47 5 78.5 10t39.5 7l8 3l23 -110q-32 -14 -135 -24q-123 -14 -178 -65.5t-71 -171.5l5 -1q17 45 64 72t107 27q100 0 159.5 -62t59.5 -168q0 -124 -65.5 -196t-172.5 -72q-116 0 -180 74.5t-64 222.5zM191 229 q0 -67 28.5 -110t77.5 -43q57 0 86.5 46.5t29.5 128.5q0 63 -28.5 99.5t-78.5 36.5q-55 0 -85 -41t-30 -117z" />
<glyph unicode="&#x432;" horiz-adv-x="548" d="M70 500h230q88 0 133 -33t45 -90q0 -44 -23.5 -75t-63.5 -40v-3q49 -6 80.5 -33.5t31.5 -77.5q0 -148 -203 -148h-224v397q0 29 -1.5 55t-2.5 37zM203 87h91q35 0 57 17.5t22 46.5q0 25 -20.5 43t-65.5 18h-84v-125zM203 299h84q29 0 47.5 15.5t18.5 42.5q0 56 -73 56 h-77v-114z" />
<glyph unicode="&#x433;" horiz-adv-x="430" d="M70 500h343l-4 -102q-24 5 -60 5l-140 2v-322l5 -83h-138v397z" />
<glyph unicode="&#x434;" horiz-adv-x="612" d="M15 92h48q41 51 58 136.5t27 271.5h362v-408h63v-171l5 -83l-115 -5l-7 167h-321v-79l5 -83l-115 -5zM185 92h192v315h-123q-6 -123 -21 -192t-48 -123z" />
<glyph unicode="&#x435;" horiz-adv-x="554" d="M45 242q0 124 70 196t181 72q119 0 172 -77.5t39 -195.5h-327q3 -67 46 -107t112 -40q37 0 74 7t56 13l19 7v-93q-60 -34 -169 -34q-126 0 -199.5 67t-73.5 185zM187 321l185 4q-1 51 -21 74t-59 23q-42 0 -71 -28t-34 -73z" />
<glyph unicode="&#x436;" horiz-adv-x="803" d="M5 0q29 28 65 75l146 188l-91 108q-28 32 -50 64.5t-31 48.5l-8 16l127 1q10 -33 69 -116l60 -89h43v101l-6 103l139 5v-209h47l58 89q23 36 39 65t20 40l4 10h120q-23 -58 -80 -129l-85 -106l142 -190q16 -21 32.5 -39.5t24.5 -27.5l8 -8l-148 -5l-150 216h-32v-118 l5 -93h-138v211h-31l-151 -211h-148z" />
<glyph unicode="&#x437;" horiz-adv-x="464" d="M36 23v89q56 -27 140 -27q44 0 74 16.5t30 49.5q0 60 -77 60h-72v93h62q75 0 75 55q0 24 -18.5 39.5t-51.5 15.5q-22 0 -45.5 -3.5t-55.5 -10t-41 -7.5l-16 96q13 2 46.5 8t61.5 9.5t57 3.5q86 0 143.5 -33t57.5 -102q0 -89 -95 -115v-3q107 -17 107 -109 q0 -69 -59 -113.5t-175 -44.5q-43 0 -80 8t-52 16z" />
<glyph unicode="&#x438;" horiz-adv-x="632" d="M70 500l137 5v-281l-4 -84h4q16 37 37 70l179 290l133 5v-412l5 -93h-136v257q0 25 1.5 49t3.5 35l2 11h-5q-14 -40 -44 -86l-174 -266h-133v397z" />
<glyph unicode="&#x439;" horiz-adv-x="632" d="M70 500l137 5v-281l-4 -84h4q16 37 37 70l179 290l133 5v-412l5 -93h-136v257q0 25 1.5 49t3.5 35l2 11h-5q-14 -40 -44 -86l-174 -266h-133v397zM121 679l86 88q9 -8 32 -34t40.5 -36.5t41.5 -10.5q20 0 38.5 8t29 16.5t29.5 26.5t29 26l69 -84q-87 -81 -195 -81 q-106 0 -200 81z" />
<glyph unicode="&#x43a;" horiz-adv-x="549" d="M70 500l139 5v-208h41l71 106q19 28 33.5 52.5t19.5 34.5l6 10h129q-14 -32 -83 -119l-80 -100l137 -205q11 -17 25.5 -36t23.5 -30l9 -10l-157 -2l-130 212h-45v-117l5 -93h-138v397z" />
<glyph unicode="&#x43b;" horiz-adv-x="574" d="M8 87q41 23 64 47.5t38.5 73t21.5 113t10 179.5h356v-417l5 -83h-138v407h-111q-8 -191 -47 -289t-145 -135z" />
<glyph unicode="&#x43c;" horiz-adv-x="742" d="M73 500l116 5l134 -209q14 -22 24 -39.5t13 -24.5l3 -6h5q14 24 39 62l140 212l115 5l6 -412l7 -93h-129l-6 238q0 26 1.5 53.5t2.5 42.5l2 15l-4 1q-12 -34 -45 -83l-126 -187h-41l-119 180q-12 17 -22.5 36.5t-14.5 30.5l-5 11l-5 -2q5 -40 5 -82l-1 -161 q0 -20 1.5 -43.5t2.5 -36.5l2 -13h-100l3 397z" />
<glyph unicode="&#x43d;" horiz-adv-x="607" d="M70 500l139 5v-204h189v96l-6 103l139 5v-412l5 -93h-138v207h-189v-114l5 -93h-138v397z" />
<glyph unicode="&#x43e;" horiz-adv-x="578" d="M47 233q0 129 68 203t187 74q107 0 168 -66t61 -177q0 -128 -68.5 -202.5t-186.5 -74.5q-107 0 -168 66t-61 177zM182 258q0 -82 27 -130t82 -48q51 0 78 40.5t27 116.5q0 91 -24.5 137.5t-84.5 46.5q-52 0 -78.5 -42.5t-26.5 -120.5z" />
<glyph unicode="&#x43f;" horiz-adv-x="599" d="M70 500h453v-417l5 -83h-138v407h-181v-324l5 -83h-138v397z" />
<glyph unicode="&#x440;" horiz-adv-x="608" d="M70 500l132 5l3 -48q31 28 62.5 40.5t84.5 12.5q96 0 152.5 -68t56.5 -165q0 -132 -67.5 -209.5t-173.5 -77.5q-32 0 -60 7t-40 15l-11 7v-186l5 -83h-138v647zM207 377q2 -16 2 -76v-191q34 -30 89 -30q60 0 93 47t33 120q0 85 -30.5 124t-79.5 39q-53 0 -107 -33z" />
<glyph unicode="&#x441;" horiz-adv-x="478" d="M46 234q0 123 67 199.5t179 76.5q30 0 75 -9.5t67 -10.5l-10 -102q-24 2 -69 12.5t-68 10.5q-47 0 -76.5 -39t-29.5 -114q0 -77 38 -122.5t107 -45.5q27 0 54 7t41 13l14 7v-94q-52 -33 -141 -33q-115 0 -181.5 67.5t-66.5 176.5z" />
<glyph unicode="&#x442;" horiz-adv-x="461" d="M18 402l5 98h420l-4 -98q-30 5 -66 6l-74 2v-327l5 -83h-138v408l-63 -2z" />
<glyph unicode="&#x443;" horiz-adv-x="516" d="M8 500l147 5l96 -293q8 -26 14.5 -51t8.5 -37l3 -11h4q9 47 26 101l46 143q31 96 36 143h108q-7 -86 -56 -202l-126 -307q-23 -55 -44 -116t-31 -95l-9 -34l-129 6q29 80 87 185l16 29l-155 431z" />
<glyph unicode="&#x444;" horiz-adv-x="832" d="M48 230q0 127 66 203.5t168 76.5q19 0 36.5 -4.5t25.5 -9.5l7 -4v155l-6 103l137 5v-272q40 27 99 27q103 0 153.5 -67.5t50.5 -172.5q0 -127 -65 -203.5t-161 -76.5q-22 0 -41 4.5t-28 9.5l-8 4v-175l5 -83h-136v267q-36 -27 -99 -27q-103 0 -153.5 67.5t-50.5 172.5z M185 240q0 -76 27 -118.5t76 -42.5q15 0 31 3.5t24 6.5l8 3v317q-15 15 -49 15q-55 0 -86 -47.5t-31 -136.5zM482 91q15 -15 58 -15q49 0 78.5 47.5t29.5 134.5q0 78 -27 120.5t-77 42.5q-16 0 -31.5 -3.5t-22.5 -6.5l-8 -3v-317z" />
<glyph unicode="&#x445;" horiz-adv-x="548" d="M20 500l156 5l113 -173l31 48l75 120h116q-46 -76 -113 -164l-58 -77l139 -183l59 -76l-156 -5l-125 175l-23 -34q-26 -39 -47.5 -73t-29.5 -49l-8 -14h-128q53 78 108 146l76 95l-122 176q-14 21 -30 41.5t-25 31.5z" />
<glyph unicode="&#x446;" horiz-adv-x="637" d="M70 500l139 5v-413h191v305l-6 103l139 5v-413h68v-171l5 -83l-115 -5l-7 167h-408v397z" />
<glyph unicode="&#x447;" horiz-adv-x="551" d="M36 500l139 5v-148q0 -100 95 -100q21 0 39 4t25 8l8 4v124l-6 103l139 5v-412l5 -93h-138v192q-41 -31 -118 -31t-129.5 44t-52.5 133v59z" />
<glyph unicode="&#x448;" horiz-adv-x="869" d="M70 500l139 5v-412h159v304l-6 103l139 5v-412h159v304l-6 103l139 5v-422l5 -83h-722v397z" />
<glyph unicode="&#x449;" horiz-adv-x="897" d="M70 500l139 5v-413h159v305l-6 103l139 5v-413h159v305l-6 103l139 5v-413h68v-171l5 -83l-115 -5l-7 167h-668v397z" />
<glyph unicode="&#x44a;" horiz-adv-x="597" d="M20 404l4 96h256v-165h85q109 0 155 -45.5t46 -115.5q0 -33 -9 -61.5t-30.5 -55t-62.5 -42t-99 -15.5h-220v409h-43zM280 88h57q37 0 62.5 22.5t25.5 57.5t-25 57t-63 22h-57v-159z" />
<glyph unicode="&#x44b;" horiz-adv-x="761" d="M70 500l139 5v-170h77q93 0 151 -40t58 -121q0 -82 -59.5 -128t-149.5 -46h-210v397zM209 88h57q37 0 62.5 22.5t25.5 57.5t-25 57t-63 22h-57v-159zM546 500l139 5v-412l5 -93h-138v397z" />
<glyph unicode="&#x44c;" horiz-adv-x="525" d="M70 500l139 5v-170h77q93 0 151 -40t58 -121q0 -82 -59.5 -128t-149.5 -46h-210v397zM209 88h57q37 0 62.5 22.5t25.5 57.5t-25 57t-63 22h-57v-159z" />
<glyph unicode="&#x44d;" horiz-adv-x="477" d="M32 489q15 2 44.5 8t55.5 9.5t55 3.5q105 0 175 -64.5t70 -182.5q0 -125 -71.5 -199t-190.5 -74q-34 0 -67 7t-49 14l-16 7v95q49 -23 128 -23q114 0 128 117l-180 -9v103l180 -7q-3 50 -31 83.5t-78 33.5q-29 0 -75 -10t-58 -12z" />
<glyph unicode="&#x44e;" horiz-adv-x="829" d="M70 500l139 5v-204h85q18 98 85 151t169 53q108 0 171 -63t63 -169q0 -131 -70 -205t-190 -74q-103 0 -165.5 57t-68.5 156h-79v-114l5 -93h-138v397zM423 253q0 -78 28.5 -125.5t91.5 -47.5q54 0 79 48t25 115q0 178 -116 178q-56 0 -82 -46.5t-26 -121.5z" />
<glyph unicode="&#x44f;" horiz-adv-x="541" d="M32 0l116 190q-42 14 -67 49.5t-25 88.5q0 82 57.5 127t151.5 45h200v-407l5 -93h-138v157h-75l-86 -157h-139zM194 327q0 -35 22 -58t60 -23h58v161h-59q-42 0 -61.5 -24.5t-19.5 -55.5z" />
<glyph unicode="&#x451;" horiz-adv-x="554" d="M45 242q0 124 70 196t181 72q119 0 172 -77.5t39 -195.5h-327q3 -67 46 -107t112 -40q37 0 74 7t56 13l19 7v-93q-60 -34 -169 -34q-126 0 -199.5 67t-73.5 185zM114 677q0 39 23.5 60.5t60.5 21.5q36 0 56 -20.5t20 -57.5q0 -41 -22.5 -63t-60.5 -22q-34 0 -55.5 22 t-21.5 59zM187 321l185 4q-1 51 -21 74t-59 23q-42 0 -71 -28t-34 -73zM322 677q0 39 23.5 60.5t60.5 21.5q36 0 56 -20.5t20 -57.5q0 -41 -22.5 -63t-60.5 -22q-34 0 -55.5 22t-21.5 59z" />
<glyph unicode="&#x452;" horiz-adv-x="603" d="M1 540v93h75v14l-6 103l139 5l-1 -122h174v-93h-175v-114q70 24 135 24q87 0 141.5 -49.5t54.5 -155.5v-157q0 -86 -37 -159.5t-120 -147.5l-66 61q54 58 74.5 113t20.5 133v129q0 71 -25.5 102t-91.5 31q-24 0 -45 -3t-30 -5l-10 -3q1 -28 1 -58v-198l5 -83h-138v540 h-75z" />
<glyph unicode="&#x453;" horiz-adv-x="430" d="M70 500h343l-4 -102q-24 5 -60 5l-140 2v-322l5 -83h-138v397zM166 645l160 181l97 -100l-187 -154z" />
<glyph unicode="&#x454;" horiz-adv-x="468" d="M45 240q0 114 67 192t174 78q36 0 80 -9.5t64 -10.5l-17 -103q-25 1 -63.5 14t-68.5 13q-37 0 -66.5 -31t-32.5 -89l178 7v-103l-175 7q5 -50 38.5 -82.5t86.5 -32.5q32 0 61.5 7t43.5 13l14 7v-94q-50 -33 -131 -33q-119 0 -186 68.5t-67 181.5z" />
<glyph unicode="&#x455;" horiz-adv-x="449" d="M49 362q0 70 50 109t123 39q39 0 91.5 -9.5t73.5 -10.5l-10 -101q-29 2 -79 12t-81 10q-58 0 -58 -36q0 -19 17 -35t73 -35q80 -28 118.5 -65.5t38.5 -98.5q0 -76 -51.5 -113.5t-140.5 -37.5q-35 0 -88.5 9.5t-73.5 11.5l10 102q19 -2 73 -13t86 -11q75 0 75 40 q0 19 -22 34t-74 35q-83 31 -117 64.5t-34 99.5z" />
<glyph unicode="&#x456;" horiz-adv-x="285" d="M61 669q0 33 23 51.5t59 18.5q34 0 54 -18t20 -50q0 -35 -22 -55t-59 -20q-32 0 -53.5 20.5t-21.5 52.5zM70 500l139 5v-412l5 -93h-138v397z" />
<glyph unicode="&#x457;" horiz-adv-x="285" d="M-29 648q0 35 21 54t54 19q32 0 49.5 -18t17.5 -51q0 -36 -19.5 -56t-52.5 -20q-31 0 -50.5 20t-19.5 52zM70 500l139 5v-412l5 -93h-138v397zM183 648q0 35 21 54t54 19q67 0 67 -69q0 -36 -19.5 -56t-52.5 -20q-31 0 -50.5 20t-19.5 52z" />
<glyph unicode="&#x458;" horiz-adv-x="285" d="M-16 -207q49 63 76 121q16 31 16 112v371l-6 103l139 5v-479q0 -76 -19 -111q-30 -58 -143 -172zM65 669q0 33 23 51.5t59 18.5q34 0 54 -18t20 -50q0 -35 -22 -55t-59 -20q-32 0 -53.5 20.5t-21.5 52.5z" />
<glyph unicode="&#x459;" horiz-adv-x="823" d="M8 86q50 28 74 61.5t39.5 115t20.5 237.5h356v-167h87q92 0 150.5 -42.5t58.5 -123.5q0 -76 -55 -121.5t-147 -45.5h-227v407h-111q-8 -198 -47 -293t-145 -131zM498 86h58q43 0 68.5 21t25.5 56q0 84 -85 84h-67v-161z" />
<glyph unicode="&#x45a;" horiz-adv-x="842" d="M70 500l139 5v-204h174v96l-6 103l139 5v-172h87q94 0 151.5 -40t57.5 -126q0 -79 -54.5 -123t-147.5 -44h-227v207h-174v-114l5 -93h-138v397zM516 86h58q43 0 68.5 21t25.5 56q0 84 -85 84h-67v-161z" />
<glyph unicode="&#x45b;" horiz-adv-x="612" d="M1 540v93h75v14l-6 103l139 5l-1 -122h174v-93h-175v-114q70 24 135 24q88 0 147 -50t59 -155v-162l5 -83h-143v217q0 133 -126 133q-19 0 -39 -3t-31 -5l-10 -3q5 -22 5 -58v-198l5 -83h-138v540h-75z" />
<glyph unicode="&#x45c;" horiz-adv-x="549" d="M70 500l139 5v-208h41l71 106q19 28 33.5 52.5t19.5 34.5l6 10h129q-14 -32 -83 -119l-80 -100l137 -205q11 -17 25.5 -36t23.5 -30l9 -10l-157 -2l-130 212h-45v-117l5 -93h-138v397zM230 644l160 181l97 -100l-187 -154z" />
<glyph unicode="&#x45e;" horiz-adv-x="516" d="M8 500l147 5l96 -293q8 -26 14.5 -51t8.5 -37l3 -11h4q9 47 26 101l46 143q31 96 36 143h108q-7 -86 -56 -202l-126 -307q-23 -55 -44 -116t-31 -95l-9 -34l-129 6q29 80 87 185l16 29l-155 431zM72 679l86 88q9 -8 32 -34t40.5 -36.5t41.5 -10.5q20 0 38.5 8t29 16.5 t29.5 26.5t29 26l69 -84q-87 -81 -195 -81q-106 0 -200 81z" />
<glyph unicode="&#x45f;" horiz-adv-x="609" d="M70 500l139 5v-412h191v304l-6 103l139 5v-422l5 -83h-179v-79l5 -83l-118 -5l-7 167h-163v397z" />
<glyph unicode="&#x490;" horiz-adv-x="534" d="M90 700h319l15 163h89l-5 -265l-274 9v-514l5 -93h-143v598z" />
<glyph unicode="&#x491;" horiz-adv-x="430" d="M70 500h240l2 40l2 94h105l-10 -237l-200 5v-319l5 -83h-138v397z" />
<glyph unicode="&#x2000;" horiz-adv-x="502" />
<glyph unicode="&#x2001;" horiz-adv-x="1004" />
<glyph unicode="&#x2002;" horiz-adv-x="502" />
<glyph unicode="&#x2003;" horiz-adv-x="1004" />
<glyph unicode="&#x2004;" horiz-adv-x="334" />
<glyph unicode="&#x2005;" horiz-adv-x="251" />
<glyph unicode="&#x2006;" horiz-adv-x="167" />
<glyph unicode="&#x2007;" horiz-adv-x="167" />
<glyph unicode="&#x2008;" horiz-adv-x="125" />
<glyph unicode="&#x2009;" horiz-adv-x="200" />
<glyph unicode="&#x200a;" horiz-adv-x="55" />
<glyph unicode="&#x2010;" d="M70 232v109l291 10v-109z" />
<glyph unicode="&#x2011;" d="M70 232v109l291 10v-109z" />
<glyph unicode="&#x2012;" d="M70 232v109l291 10v-109z" />
<glyph unicode="&#x2013;" horiz-adv-x="656" d="M72 239v114h511v-114h-511z" />
<glyph unicode="&#x2014;" horiz-adv-x="830" d="M69 242v114h691v-114h-691z" />
<glyph unicode="&#x2018;" horiz-adv-x="267" d="M47 496q0 62 33.5 129t81.5 109l64 -53q-57 -53 -78 -117q28 -5 45 -26t17 -51q0 -38 -24 -60t-59 -22q-36 0 -58 22.5t-22 68.5z" />
<glyph unicode="&#x2019;" horiz-adv-x="259" d="M41 473q57 53 78 117q-28 5 -45 26t-17 51q0 38 24 60t59 22q36 0 58 -22.5t22 -68.5q0 -62 -33.5 -129t-81.5 -109z" />
<glyph unicode="&#x201a;" horiz-adv-x="275" d="M39 -131q57 53 78 117q-28 5 -45 26t-17 51q0 38 24 60t59 22q36 0 58 -22.5t22 -68.5q0 -62 -33.5 -129t-81.5 -109z" />
<glyph unicode="&#x201c;" horiz-adv-x="471" d="M47 496q0 62 33.5 129t81.5 109l64 -53q-57 -53 -78 -117q28 -5 45 -26t17 -51q0 -38 -24 -60t-59 -22q-36 0 -58 22.5t-22 68.5zM251 496q0 62 33.5 129t81.5 109l64 -53q-57 -53 -78 -117q28 -5 45 -26t17 -51q0 -38 -24 -60t-59 -22q-36 0 -58 22.5t-22 68.5z" />
<glyph unicode="&#x201d;" horiz-adv-x="463" d="M41 473q57 53 78 117q-28 5 -45 26t-17 51q0 38 24 60t59 22q36 0 58 -22.5t22 -68.5q0 -62 -33.5 -129t-81.5 -109zM245 473q57 53 78 117q-28 5 -45 26t-17 51q0 38 24 60t59 22q36 0 58 -22.5t22 -68.5q0 -62 -33.5 -129t-81.5 -109z" />
<glyph unicode="&#x201e;" horiz-adv-x="480" d="M39 -131q57 53 78 117q-28 5 -45 26t-17 51q0 38 24 60t59 22q36 0 58 -22.5t22 -68.5q0 -62 -33.5 -129t-81.5 -109zM244 -131q57 53 78 117q-28 5 -45 26t-17 51q0 38 24 60t59 22q36 0 58 -22.5t22 -68.5q0 -62 -33.5 -129t-81.5 -109z" />
<glyph unicode="&#x2026;" horiz-adv-x="783" d="M57 60q0 40 23 62t61 22q32 0 54.5 -22t22.5 -56q0 -38 -24.5 -59.5t-60.5 -21.5q-35 0 -55.5 20t-20.5 55zM314 60q0 40 23 62t61 22q32 0 54.5 -22t22.5 -56q0 -38 -24.5 -59.5t-60.5 -21.5q-35 0 -55.5 20t-20.5 55zM566 60q0 40 23 62t61 22q32 0 54.5 -22t22.5 -56 q0 -38 -24.5 -59.5t-60.5 -21.5q-35 0 -55.5 20t-20.5 55z" />
<glyph unicode="&#x202f;" horiz-adv-x="200" />
<glyph unicode="&#x2039;" horiz-adv-x="363" d="M25 240v29l188 240l106 -66l-140 -185l142 -187l-108 -71z" />
<glyph unicode="&#x203a;" horiz-adv-x="363" d="M42 71l142 187l-140 185l106 66l188 -240v-29l-188 -240z" />
<glyph unicode="&#x205f;" horiz-adv-x="251" />
<glyph unicode="&#x20ac;" horiz-adv-x="703" d="M52 226v94h95v9q0 31 1 47h-96v94h110q28 115 104.5 179t199.5 64q28 0 59 -3.5t67 -9t51 -7.5l-14 -98q-25 1 -78 10.5t-87 9.5q-130 0 -164 -145h295l-13 -94h-293v-12q0 -30 1 -44h275l-12 -94h-247q40 -136 183 -136q43 0 78 5t49 9l13 5l29 -86q-55 -33 -173 -33 q-133 0 -216.5 63t-110.5 173h-106z" />
<glyph unicode="&#x2122;" horiz-adv-x="835" d="M43 619l3 82h282l-3 -82l-81 6v-170l3 -73h-119v243zM350 701l100 4l74 -108q13 -19 21.5 -37t10.5 -26l3 -8h2q13 38 36 77l64 106l95 -4v-250l4 -72h-119v73q0 29 2 53t4 34l2 10l-3 1q-12 -29 -25 -49l-58 -87h-40l-57 78q-9 12 -18.5 28.5t-14.5 27.5l-5 10l-2 -1 q14 -35 14 -88v-26l4 -64h-88v230z" />
<glyph unicode="&#xe000;" horiz-adv-x="505" d="M0 0v505h505v-505h-505z" />
</font>
</defs>
</svg>
