<?xml version="1.0" standalone="no"?>
<!DOCTYPE svg PUBLIC "-//W3C//DTD SVG 1.1//EN" "http://www.w3.org/Graphics/SVG/1.1/DTD/svg11.dtd" >
<svg>
<metadata>
Created by FontForge 20110222 at Mon Apr 21 08:53:01 2014
 By Orthosie Webhosting
(c) 2007 Adobe Systems Incorporated. All Rights Reserved.
</metadata>
<defs>
<font id="ArnoProBoldItalicDisplay" horiz-adv-x="467" >
  <font-face 
    font-family="ArnoProBoldItalicDisplay"
    font-weight="700"
    font-style="italic"
    font-stretch="normal"
    units-per-em="1000"
    panose-1="2 2 8 2 5 5 6 9 4 3"
    ascent="688"
    descent="-312"
    x-height="403"
    cap-height="603"
    bbox="-203.333 -393.703 1283 857"
    underline-thickness="50"
    underline-position="-50"
    slope="-11"
    unicode-range="U+0020-FB06"
  />
<missing-glyph horiz-adv-x="500" 
d="M-30 0v700h500v-700h-500zM220 395l170 255h-340zM250 350l170 -255v510zM50 50h340l-170 255zM20 605v-510l170 255z" />
    <glyph glyph-name="f_f" unicode="ff" horiz-adv-x="496" 
d="M30 352q-3 3 -1 6q2 7 12.5 18.5t15.5 14.5q28 -2 42 -2q5 0 5 6q33 144 147 216q53 33 96 33q47 0 47 -19q0 -17 -45 -62q-2 -2 -7 -3t-6 1q-4 4 -11.5 12t-11.5 11.5t-10 8.5t-12 7t-12 2q-19 0 -30 -35q-12 -42 -31 -172q0 -6 4 -6h120q5 3 5 6q15 68 39 115t49 72
t66 53q58 39 105 39q40 0 40 -21q0 -11 -16.5 -36t-26.5 -35q-2 -2 -7 -3t-6 1q-42 42 -68 42q-18 0 -30 -40q-16 -59 -32 -187q0 -6 5 -6q54 0 90 6q2 -10 -5 -17q-30 -22 -65 -25q-18 -3 -28 -3q-4 -4 -4 -5q-7 -40 -23.5 -154t-29.5 -172q-25 -111 -106 -182.5
t-145 -71.5q-45 0 -64 23q-16 16 -19 40q-40 -47 -85 -70t-83 -23q-29 0 -44.5 10.5t-15.5 24.5q1 11 10.5 34.5t17.5 35.5q1 2 3 3t3.5 2t3.5 1.5t3 1.5q46 -60 95 -60q28 0 39 59q20 105 81 494q1 2 -0.5 5t-3.5 3zM214 349q-4 -4 -4 -5q-6 -32 -27.5 -170t-34.5 -198
q-13 -58 -44 -103q19 -29 48 -45.5t58 -16.5q23 0 35 16.5t21 68.5q14 70 28 157.5t26.5 176.5t16.5 111q1 2 -0.5 5t-3.5 3h-119z" />
    <glyph glyph-name="f_f_i" unicode="ffi" horiz-adv-x="730" 
d="M153 -235q-49 0 -68 23q-16 16 -19 40q-40 -47 -85 -70t-83 -23q-29 0 -44.5 10.5t-15.5 24.5q5 35 27 71q1 2 3 3t3.5 2t3.5 1.5t3 1.5q47 -61 96 -61q28 0 39 59q13 65 81 494q1 2 -0.5 5t-3.5 3l-63 3q-3 3 -1 6q2 7 14.5 18t18.5 15q28 -2 39 -2q4 0 6 5
q32 145 147 217q53 33 96 33q47 0 47 -19q0 -6 -6.5 -15.5t-12.5 -16t-16.5 -16t-11.5 -10.5q-2 -2 -7 -3t-6 1q-3 3 -8 8.5t-7.5 7.5t-7 6t-7.5 6t-7 4t-8 3t-9 1q-20 0 -31 -37q-13 -46 -31 -169q0 -6 4 -6h120q5 3 5 6q31 164 152 239q63 39 126 41q59 0 84 -31
q6 -7 2 -23q-3 -24 -44 -54q-11 -8 -17 -2q-26 34 -48 51.5t-52 17.5q-32 0 -52 -50q-23 -59 -40 -188q0 -7 4 -7h77q115 0 157 15q4 1 5.5 -3t-0.5 -8q-10 -21 -18 -61q-38 -176 -42 -237q-1 -21 8 -21q17 0 49 36q3 -1 3 -2q1 -3 -1 -14t-3 -12q-37 -45 -78 -71.5
t-67 -26.5q-38 0 -26 82q4 31 14.5 87t22.5 117.5t15 77.5q1 4 0 7t-4 2q-23 -7 -117 -7q-4 -4 -4 -5q-6 -33 -24 -148.5t-31 -175.5q-25 -113 -101 -184.5t-144 -71.5zM211 -189q23 0 34 16.5t21 68.5q14 70 28 157.5t26.5 176.5t16.5 111q1 2 -0.5 5t-3.5 3h-119
q-4 -4 -4 -5q-6 -32 -27.5 -170t-34.5 -198q-13 -58 -44 -103q19 -29 48.5 -45.5t58.5 -16.5z" />
    <glyph glyph-name="f_f_l" unicode="ffl" horiz-adv-x="727" 
d="M347 644q47 0 47 -19q0 -6 -6.5 -15.5t-12.5 -16t-16.5 -16t-11.5 -10.5q-2 -2 -7 -3t-6 1l-7 7l-7 7l-6 6t-6.5 5.5t-6 4t-6.5 3t-7 1.5t-8 1q-20 0 -31 -37q-13 -46 -31 -169q0 -6 4 -6h120q5 2 5 6q20 89 57 144t95 94q59 38 119 38q28 0 62 -12q22 1 54 20
q2 0 6 -3.5t3 -5.5q-4 -5 -9.5 -30t-12.5 -66.5t-10 -55.5q-68 -383 -69 -417q-2 -31 11 -31q17 0 55 35q3 -1 3 -2q1 -3 0.5 -10t-2.5 -9q-31 -40 -72.5 -69t-79.5 -29q-42 0 -26 115q7 53 41.5 250.5t38.5 225.5q6 26 -4 37q-18 21 -47 21q-25 0 -41.5 -17t-28.5 -67
q-17 -56 -30 -156q0 -6 4 -6q51 0 81 5q2 -10 -5 -17q-24 -26 -67 -26h-16q-4 0 -4 -5q-6 -33 -24 -148.5t-31 -175.5q-25 -112 -102.5 -184t-144.5 -72q-47 0 -66 23q-16 16 -19 40q-40 -47 -85 -70t-83 -23q-29 0 -44.5 10.5t-15.5 24.5q5 35 27 71q1 2 3 3t3.5 2t3.5 1.5
t3 1.5q47 -61 96 -61q26 0 39 59q9 40 24.5 134t36.5 227l20 133q1 2 -0.5 5t-3.5 2l-60 3q-3 3 -1 6q2 7 12.5 18.5t15.5 14.5q28 -2 42 -2q5 0 5 6q20 87 56.5 135t90.5 82q53 33 96 33zM214 349q-4 -4 -4 -5q-6 -32 -27.5 -170t-34.5 -198q-13 -58 -44 -103
q19 -29 48.5 -45.5t58.5 -16.5q23 0 34 16.5t21 68.5q14 70 28 157.5t26.5 176.5t16.5 111q1 2 -0.5 5t-3.5 3h-119z" />
    <glyph glyph-name="longs_t" unicode="&#x17f;t" horiz-adv-x="499" 
d="M366 670q54 0 80 -18q20 -13 24 -30t-5 -68l-30 -162q0 -5 3 -5q78 0 96 9q1 -1 1 -6t-1 -6q-5 -9 -19.5 -19t-25.5 -12q-19 -4 -59 -6q-4 0 -4 -5q-37 -217 -38 -232q-3 -43 14 -43q32 0 79 60q2 0 2 -4q0 -15 -2 -21q-25 -38 -79 -78t-94 -40q-49 0 -36 102
q10 83 46 256q0 4 -2 4q-48 0 -62 2q-1 1 -1 3t1 3q6 8 22 21.5t21 13.5h26q5 0 5 5q17 75 35 189q3 26 -6 37q-13 17 -41 17q-51 0 -75 -87q-15 -51 -40 -211q-45 -294 -60 -363q-22 -100 -104 -170.5t-146 -70.5q-29 0 -44.5 10.5t-15.5 24.5q4 28 30 70q1 2 3 3t3.5 2
t3.5 1.5t3 1.5q46 -60 93 -60q28 0 39 59q24 124 68 416q21 143 62.5 232t119.5 139q56 36 110 36z" />
    <glyph glyph-name="R_A" unicode="RA" horiz-adv-x="1107" 
d="M81 587q-3 10 3 16q9 0 62.5 -1.5t67.5 -1.5q37 -1 91.5 0t58.5 1q167 0 167 -134q0 -60 -41 -103t-105 -64q-4 -2 -2 -6q18 -39 67.5 -124t80.5 -120q12 -15 22 -16q5 -1 11 10q62 110 155 287t114 228q3 6 17 43q1 0 5.5 -0.5t12 -1t16.5 -0.5q11 0 20.5 0.5t15 1
t6.5 0.5q0 -12 7 -47q66 -397 76 -444q12 -62 26 -76t65 -20q3 -2 2.5 -9t-3.5 -9q-8 0 -49 1.5t-76 1.5q-37 0 -148 -3q-2 2 -2.5 9.5t1.5 8.5q40 4 51 12q13 7 13 22q-1 20 -6 55.5t-11.5 76.5t-8.5 55q0 7 -6 7q-9 1 -60 1h-81q-6 0 -12 -10q-9 -16 -54 -101.5
t-54 -105.5q-4 -7 5 -9l24 -3q2 -1 1.5 -9.5t-3.5 -9.5q-21 -1 -87 -1q-64 2 -96.5 12t-58.5 44q-29 38 -108 198q-2 2 -4.5 6.5t-4 7t-4 5.5t-4.5 5t-5 3t-7 1h-8q-2 0 -4 -2.5t-2 -3.5q-5 -28 -10 -63.5t-10 -75.5t-8 -58q-3 -28 3 -39.5t24 -15.5q6 -2 18 -3t24 -3
q1 -2 -0.5 -8.5t-2.5 -7.5q-20 0 -44.5 0.5t-41.5 1.5t-19 1l-175 -3q-2 2 -1 8t3 8q19 1 37 6q19 4 28.5 13.5t15.5 35.5q24 104 78 465q5 37 -19 45q-16 6 -49 9zM405 459q0 54 -26.5 85.5t-70.5 31.5q-14 0 -20 -3q-5 -2 -10 -15q-2 -8 -42 -253q-2 -8 5 -8q58 -1 92 17
q36 18 54 49t18 96zM821 472q-15 -32 -49 -98.5t-45 -91.5q-1 -2 0 -3.5t2 -1.5q18 -2 62 -2q55 0 62 1q3 0 3 5q-21 139 -31 191h-4z" />
    <glyph glyph-name="K_A" unicode="KA" horiz-adv-x="1122" 
d="M439 585q-1 2 -0.5 9t2.5 9q9 0 50.5 -1.5t59.5 -1.5q40 0 79.5 1.5t41.5 1.5q2 -1 1 -9t-3 -9q-47 -9 -71 -21.5t-64 -51.5q-31 -31 -95 -91.5t-83 -79.5l-1 -3q49 -98 142 -221q53 -69 71 -77q1 -2 4 -1.5t4 3.5q241 433 276 517q12 25 16 43q1 0 5.5 -0.5t12.5 -1
t17 -0.5q11 0 21 0.5t15.5 1t6.5 0.5q2 -28 6 -47q7 -37 36.5 -217.5t39.5 -228.5q12 -63 24 -75.5t62 -18.5q3 -2 2.5 -9t-3.5 -9q-8 0 -46.5 1.5t-73.5 1.5q-37 0 -148 -3q-2 2 -2.5 9.5t1.5 8.5q40 4 51 12q13 7 13 22q-1 20 -6 55.5t-11.5 76.5t-8.5 55q0 7 -6 7
q-9 1 -60 1h-85q-6 0 -12 -10q-73 -136 -107 -203q-4 -6 1 -9q8 -3 48 -8q1 -1 0 -8.5t-3 -9.5q-37 -6 -111.5 -3t-99.5 14q-31 13 -54 40q-30 33 -141 220l-5 7q-4 7 -5 8q-2 4 4 10q36 19 94.5 69t110.5 109q55 64 58 83q2 13 -19 21q-24 8 -52 11zM89 585q-3 6 3 18
q3 0 43.5 -1.5t84.5 -1.5q52 0 94.5 2t43.5 2q2 -1 1.5 -9.5t-3.5 -9.5q-20 -3 -42 -8q-16 -4 -23.5 -17.5t-12.5 -38.5q-23 -131 -70 -444q-6 -47 24 -54q4 -1 42 -8q1 -2 -0.5 -9.5t-2.5 -8.5q-12 0 -60 1.5t-77 1.5q-20 0 -51.5 -1t-55 -1.5t-35.5 -0.5q-1 2 -1 9.5
t2 8.5q38 5 46 7q32 7 43 64q14 74 39 227.5t32 215.5q5 40 -17 47q-10 3 -47 9zM841 472q-16 -33 -51 -99.5t-46 -90.5q-2 -5 2 -5q18 -2 65 -2q55 0 62 1q1 0 2.5 3.5t0.5 4.5q-19 122 -31 188h-4z" />
    <glyph glyph-name="T_T" unicode="TT" horiz-adv-x="982" 
d="M71 450q-2 -2 -8.5 1t-7.5 6q39 121 43 150q0 3 4 3q39 -10 87 -10h729q63 0 97 10q5 0 5 -7q-17 -41 -42 -155q-2 -3 -9 -3t-9 3q0 16 -8 77q-7 42 -39 45q-74 5 -99 1q-6 -3 -7 -6q-6 -25 -36 -229.5t-37 -264.5q-2 -24 2 -34t19 -14q26 -7 61 -10q2 -1 0.5 -8t-3.5 -8
q-27 0 -74 1.5t-74 1.5q-28 0 -79.5 -1.5t-77.5 -1.5q-1 1 -0.5 8t1.5 8q39 4 55 8q18 4 27 18t17 53q14 67 41.5 241t34.5 232q0 6 -4 6h-277q-6 -3 -7 -6q-6 -25 -36.5 -230t-37.5 -264q-2 -24 2 -34t19 -14q26 -7 61 -10q2 -1 0.5 -8t-3.5 -8q-27 0 -74 1.5t-74 1.5
q-28 0 -79.5 -1.5t-77.5 -1.5q-1 1 -0.5 8t1.5 8q39 4 55 8q18 4 27 18t17 53q14 68 42.5 244t35.5 229q0 6 -4 6q-38 2 -81 0q-28 -2 -55 -28q-31 -31 -63 -93z" />
    <glyph glyph-name="T_h" unicode="Th" horiz-adv-x="941" 
d="M862 403q18 0 26 -14.5t7.5 -39.5t-7.5 -64q-4 -24 -14 -71t-15 -76.5t-5 -49.5q0 -19 9 -19q16 0 50 34q3 -1 3 -3q2 -10 -2 -18q-26 -36 -73 -67t-82 -31t-20 88q27 152 39 209q11 49 -4 49q-18 0 -47.5 -27.5t-56.5 -74.5q-21 -36 -38 -98q-20 -76 -6 -99
q-19 -14 -59.5 -32t-48.5 -18q-10 0 -12 10q-2 13 2 46q14 87 51 290t44 245q-20 -2 -91 -2h-96q-5 0 -7 -6q-6 -25 -36.5 -228.5t-37.5 -262.5q-2 -24 2 -34t19 -14q26 -7 61 -10q2 -1 0.5 -9t-3.5 -9q-28 0 -74 1.5t-74 1.5t-79.5 -1.5t-77.5 -1.5q-1 1 -0.5 9t1.5 9
q39 4 55 8q18 4 27 18t17 53q14 68 42 242t35 228q0 6 -4 6q-12 1 -48.5 1t-50.5 -1q-30 -2 -52 -23q-18 -18 -53 -86q-2 -2 -9.5 1t-8.5 6q33 103 38 139q0 3 4 3q39 -10 87 -10h319q79 0 100 1q7 33 20 42q32 17 110 35q3 -1 5 -5.5t1 -8.5q-13 -10 -32 -109
q-42 -210 -57 -300q1 -2 5 1q118 147 202 147z" />
    <glyph glyph-name="f_b" unicode="fb" horiz-adv-x="704" 
d="M373 670q42 0 68 -13q26 2 60 21q2 0 6 -3.5t3 -5.5q-10 -14 -38 -152q-28 -154 -44 -236q0 -3 2 -1q45 52 96.5 87.5t90.5 35.5q28 0 43.5 -29t15.5 -76q0 -64 -26.5 -125.5t-76.5 -105.5q-93 -83 -190 -83q-43 0 -67 29.5t-23 79.5q0 17 3 41.5t6 41.5l3 16
q6 30 35.5 189.5t35.5 194.5q3 24 -6 34q-22 25 -51 25q-47 0 -71 -86q-15 -52 -29 -154q0 -6 4 -6q51 0 81 5q2 -10 -5 -17q-21 -23 -60 -26q-12 -2 -24 -2q-4 -4 -4 -5v-3q-5 -30 -27 -167.5t-35 -197.5q-22 -100 -104 -170.5t-146 -70.5q-29 0 -44.5 10.5t-15.5 24.5
q0 27 31 77q5 8 13 8q53 -69 93 -69q27 0 38 61q12 61 81 495q0 7 -4 7q-28 0 -60 2q-3 3 -1 6q5 9 17 19.5t17 13.5l34 -1q6 0 7 7q20 93 54.5 144.5t96.5 92.5q57 37 117 37zM445 19q26 0 49 29q32 40 49 102t17 117q0 64 -30 64q-16 0 -40.5 -19.5t-49.5 -56.5
q-20 -30 -30.5 -79t-10.5 -87q0 -70 46 -70z" />
    <glyph glyph-name="f_f_b" unicode="ffb" horiz-adv-x="938" 
d="M457 350q-4 -4 -4 -5q-6 -33 -24 -148.5t-31 -175.5q-25 -113 -101 -184.5t-144 -71.5q-49 0 -68 23q-16 16 -19 40q-40 -47 -85 -70t-83 -23q-29 0 -44.5 10.5t-15.5 24.5q5 35 27 71q1 2 3 3t3.5 2t3.5 1.5t3 1.5q47 -61 96 -61q28 0 39 59q13 65 81 494q1 2 -0.5 5
t-3.5 3v-1l-60 3q-3 3 -1 6q2 7 12.5 19t15.5 15q28 -2 42 -2q5 0 5 6q11 50 29 88.5t41 63.5t38.5 37.5t38.5 26.5q53 33 96 33q47 0 47 -19q0 -11 -17.5 -32.5t-28.5 -29.5q-9 -6 -13 -2q-3 3 -13 14t-14 14.5t-12 7.5t-16 4q-20 0 -31 -37q-13 -46 -31 -169q0 -6 4 -6
h120q5 3 5 6q22 99 55.5 147t96.5 90q59 38 115 38q42 0 68 -13q22 1 56 21q2 0 6 -3.5t3 -5.5q-8 -10 -36 -152q-9 -49 -15.5 -82.5t-15 -74t-16.5 -79.5q0 -3 2 -1q44 52 96 87.5t92 35.5q28 0 42 -28.5t14 -76.5q0 -64 -26.5 -125.5t-76.5 -105.5q-93 -83 -190 -83
q-47 0 -69.5 29t-21.5 80q0 17 3.5 41.5t6.5 41.5l3 16q69 343 76 384q5 24 -4 34q-22 25 -51 25q-47 0 -71 -86q-15 -52 -29 -154q0 -6 4 -6q51 0 81 5q3 -10 -5 -18q-21 -23 -60 -26q-18 -3 -23 0zM214 349q-4 -4 -4 -5q-6 -32 -27.5 -170t-34.5 -198q-13 -58 -44 -103
q19 -29 48.5 -45.5t58.5 -16.5q23 0 34 16.5t21 68.5q14 70 28 157.5t26.5 176.5t16.5 111q1 2 -0.5 5t-3.5 3h-119zM679 20q26 0 49 29q32 40 49 101t17 115q0 65 -31 65q-37 0 -87 -75q-20 -30 -30.5 -78.5t-10.5 -85.5q0 -71 44 -71z" />
    <glyph glyph-name="f_f_h" unicode="ffh" horiz-adv-x="954" 
d="M545 393q2 -10 -5 -17q-21 -23 -60 -26q-18 -3 -23 0q-4 -4 -4 -5q-7 -40 -23.5 -153.5t-29.5 -171.5q-25 -113 -102 -184t-145 -71q-49 0 -68 23q-16 16 -19 40q-40 -47 -85 -70t-83 -23q-29 0 -44.5 10.5t-15.5 24.5q5 35 27 71q1 2 3 3t3.5 2t3.5 1.5t3 1.5
q47 -61 96 -61q28 0 39 59q13 65 81 494q1 2 -0.5 5t-3.5 2l-60 3q-3 3 -1 6q2 7 12.5 18.5t15.5 14.5q28 -2 42 -2q5 0 5 6q19 87 57 136t90 81q53 33 96 33q47 0 47 -19q0 -18 -45 -63q-2 -2 -7 -2t-7 2t-9 9.5t-9.5 9.5t-8.5 7t-9.5 7t-9 3.5t-10.5 1.5q-19 0 -30 -37
q-13 -46 -31 -169q0 -6 4 -6h120q5 2 5 6q15 69 37.5 114.5t47.5 70.5t67 53q59 38 121 38q42 0 68 -13q22 1 56 21q2 0 6 -3.5t3 -5.5q-8 -11 -37 -157l-46 -257q1 -2 5 1q46 61 102 104t102 43q25 0 29.5 -33t-5.5 -82q-5 -28 -14 -72.5t-14.5 -75t-5.5 -50.5q0 -19 9 -19
q14 0 50 36q3 -1 3 -3q2 -11 -2 -19q-26 -36 -73.5 -68.5t-82.5 -32.5q-36 0 -21 88q8 46 45 227q7 31 -8 31q-18 0 -48 -28t-57 -75q-21 -35 -37 -95q-21 -81 -8 -102q-93 -50 -108 -50q-10 0 -12 10q-2 11 3 47q13 85 51 284t47 254q3 26 -4 34q-22 25 -56 25
q-46 0 -71 -88q-16 -54 -29 -152q0 -6 4 -6q51 0 81 5zM214 349q-4 -4 -4 -5q-6 -32 -27.5 -170t-34.5 -198q-13 -58 -44 -103q19 -29 48.5 -45.5t58.5 -16.5q23 0 34 16.5t21 68.5q14 70 28 157.5t26.5 176.5t16.5 111q1 2 -0.5 5t-3.5 3h-119z" />
    <glyph glyph-name="f_f_j" unicode="ffj" horiz-adv-x="731" 
d="M625 675q59 0 84 -31q6 -7 2 -23q-1 -12 -17 -32t-29 -29q-11 -8 -17 -2q-2 3 -11.5 15.5t-12.5 16.5t-11.5 13.5t-13.5 13t-13 9t-16.5 7.5t-17.5 2q-32 0 -52 -50q-21 -53 -42 -189q-2 -8 4 -8h90q86 0 146 17q3 1 4.5 -3t0.5 -8q-4 -13 -10.5 -48.5t-12.5 -72.5
t-16 -99t-16 -98q-16 -88 -39.5 -138t-67.5 -90q-55 -50 -128 -71q-8 3 -11 16q0 1 1 3l1 2q48 22 69 51t36 99q9 43 30 171q32 205 37 224q1 6 -1 8t-5 1q-17 -4 -110 -4q-7 0 -7 -3q-6 -33 -24 -148.5t-31 -175.5q-25 -113 -100.5 -184.5t-143.5 -71.5q-50 0 -69 23
q-16 16 -19 40q-40 -47 -85 -70t-83 -23q-29 0 -44.5 10.5t-15.5 24.5q5 35 27 71q1 2 3 3t3.5 2t3.5 1.5t3 1.5q22 -29 48.5 -46.5t47.5 -17.5q27 0 39 62q13 65 81 494q1 2 -0.5 5t-3.5 3l-63 3q-3 3 -1 6q2 7 13 16.5t17 13.5q12 1 42 1q4 0 6 5q11 51 27.5 88t39 62
t38.5 37.5t42 29.5q53 33 96 33q47 0 47 -19q0 -6 -6.5 -15.5t-12.5 -16t-16.5 -16t-11.5 -10.5q-2 -2 -7 -3t-6 1q-3 3 -8 8.5t-7.5 7.5t-7 6t-7.5 6t-7 4t-8 3t-9 1q-20 0 -31 -37q-13 -46 -31 -169q0 -6 4 -6h120q5 3 5 6q30 166 149 239q63 39 129 41zM214 349
q-4 -4 -4 -5q-6 -32 -27.5 -170t-34.5 -198q-13 -58 -44 -103q19 -29 49 -46.5t59 -17.5q23 0 33.5 17t20.5 70q14 70 28 157.5t26.5 176.5t16.5 111q1 2 -0.5 5t-3.5 3h-119z" />
    <glyph glyph-name="f_f_k" unicode="ffk" horiz-adv-x="940" 
d="M456 348l1 2q-4 -4 -4 -5q-6 -33 -24 -148.5t-31 -175.5q-25 -113 -102 -184.5t-145 -71.5q-47 0 -66 23q-16 16 -19 40q-40 -47 -85 -70t-83 -23q-29 0 -44.5 10.5t-15.5 24.5q5 35 27 71q1 2 3 3t3.5 2t3.5 1.5t3 1.5q22 -29 48.5 -46.5t47.5 -17.5q15 0 23.5 12.5
t15.5 49.5q13 65 81 494q1 2 -0.5 5t-3.5 2l-60 3q-3 3 -1 6q2 7 12.5 18.5t15.5 14.5q28 -2 42 -2q5 0 5 6q14 62 41 108.5t49.5 66.5t56.5 42q51 33 96 33q47 0 47 -20q0 -6 -6.5 -15t-13 -15.5t-16.5 -16t-11 -10.5q-2 -2 -7 -3t-6 1q-3 3 -8 8.5t-7.5 7.5t-7 6t-7.5 6
t-7 4t-8 3t-9 1q-20 0 -31 -37q-12 -45 -31 -170q0 -6 4 -6h120q5 2 5 6q22 99 56 147.5t97 90.5q59 38 118 38q42 0 68 -13q22 1 56 21q2 0 6 -3.5t3 -5.5q-8 -10 -36 -152q-8 -46 -22 -127.5t-32 -174.5q-1 -7 4 -2q29 39 60.5 75.5t78.5 75.5t78 39q39 0 53 -19
q2 -1 2.5 -8t-1.5 -11q-5 -13 -23.5 -38t-25.5 -26q-32 25 -70 25q-22 0 -52.5 -27t-39.5 -44q-1 -1 -0.5 -4t2.5 -4q14 -9 40 -46q5 -7 23 -33.5t25.5 -37t21 -27t24 -23t19.5 -6.5q25 0 56 41q2 0 3 -1q2 -3 2.5 -10t-0.5 -9q-70 -108 -134 -108q-30 0 -63 44
q-10 14 -40 66t-40 65q-5 8 -12 -1q-4 -3 -9 -26q-4 -19 -8 -48q-4 -43 5 -59q-7 -10 -53 -28.5t-55 -18.5q-12 0 -12 29q0 25 21 134q70 370 78 430q5 24 -4 34q-22 25 -55 25q-47 0 -71 -86q-15 -53 -29 -153q0 -6 4 -6q51 0 81 5q2 -10 -5 -17q-21 -23 -60 -26
q-12 -2 -24 -2zM214 349q-4 -4 -4 -5q-6 -32 -27.5 -170t-34.5 -198q-13 -58 -44 -103q19 -29 48 -46t58 -17q23 0 35 17t21 69q14 70 28 157.5t26.5 176.5t16.5 111q1 2 -0.5 5t-3.5 3h-119z" />
    <glyph glyph-name="f_f_t" unicode="fft" horiz-adv-x="758" 
d="M347 644q47 0 47 -19q0 -6 -6.5 -15.5t-12.5 -16t-16.5 -16t-11.5 -10.5q-2 -2 -7 -3t-6 1l-5.5 5.5l-5.5 5.5l-5 5t-5.5 5t-5 3.5t-5 3.5t-4.5 2.5t-5.5 2t-6 1t-6.5 0.5q-20 0 -31 -37q-13 -48 -31 -167q0 -6 4 -6h119q5 3 5 6q19 97 53 144.5t101 94.5q57 40 104 40
q40 0 40 -20q0 -21 -43 -64q-2 -2 -7 -3t-6 1q-31 31 -64 31q-22 0 -34 -38q-17 -60 -32 -186q0 -6 4 -6l120 1q2 0 5 5q19 77 26 93q3 6 15.5 17t40.5 26.5t62 25.5q2 1 4 -3.5t1 -5.5q-13 -21 -21 -53q-5 -20 -21 -102q0 -5 3 -5q78 0 96 9q1 -1 1 -6t-1 -6
q-5 -9 -19.5 -19t-25.5 -12q-19 -4 -59 -6q-4 0 -4 -5q-34 -158 -39 -236q-3 -40 14 -40q33 0 80 60q2 0 2 -4q0 -19 -2 -25q-24 -37 -78.5 -75.5t-94.5 -38.5q-25 0 -35.5 25t-3.5 73q8 58 47 261q1 7 -4 7h-114q-4 -4 -4 -5q-6 -33 -24 -148.5t-31 -175.5
q-25 -113 -101 -184.5t-144 -71.5q-49 0 -68 23q-16 16 -19 40q-40 -47 -85 -70t-83 -23q-29 0 -44.5 10.5t-15.5 24.5q5 35 27 71q1 2 3 3t3.5 2t3.5 1.5t3 1.5q47 -61 96 -61q28 0 39 59q13 65 81 494q1 2 -0.5 5t-3.5 3l-63 3q-3 3 -1 6q2 7 14.5 18t18.5 15q28 -2 39 -2
q4 0 6 5q11 51 27.5 88t39 62t38.5 37.5t42 29.5q53 33 96 33zM214 349q-4 -4 -4 -5q-6 -32 -27.5 -170t-34.5 -198q-13 -58 -44 -103q19 -29 48.5 -45.5t58.5 -16.5q23 0 34 16.5t21 68.5q14 70 28 157.5t26.5 176.5t16.5 111q1 2 -0.5 5t-3.5 3h-119z" />
    <glyph glyph-name="f_h" unicode="fh" horiz-adv-x="709" 
d="M373 670q42 0 68 -13q25 2 59 21q2 0 6 -3.5t3 -5.5q-8 -10 -36 -152q-11 -66 -27.5 -155t-19.5 -107q1 -2 5 1q109 147 202 147q26 0 32.5 -26.5t-2.5 -68.5q-5 -27 -15 -77t-16.5 -86t-6.5 -56q0 -19 9 -19q13 0 50 37q3 0 3 -2q2 -11 -2 -20q-26 -36 -73 -68.5
t-82 -32.5q-36 0 -21 88q10 55 45 228q7 31 -8 31q-18 0 -49 -29.5t-58 -76.5q-19 -32 -38 -103q-22 -81 -8 -103q-93 -50 -108 -50q-10 0 -12 10q-2 11 3 47q12 75 51 280t48 270q5 23 -5 34q-22 25 -51 25q-46 0 -70 -86q-17 -58 -30 -154q0 -6 4 -6q51 0 81 5
q2 -10 -5 -17q-21 -23 -60 -26q-12 -2 -24 -2q-4 -4 -4 -5v-3q-5 -30 -27 -167.5t-35 -197.5q-22 -100 -104 -170.5t-146 -70.5q-29 0 -44.5 10.5t-15.5 24.5q5 33 31 75q1 2 3 3t3.5 2t3.5 1.5t3 1.5q50 -65 92 -65q28 0 39 59q12 61 81 495q0 7 -4 7q-28 0 -60 2
q-3 3 -1 6q5 9 17 19.5t17 13.5l34 -1q6 0 7 7q36 161 154 238q56 36 114 36z" />
    <glyph glyph-name="f_i" unicode="fi" horiz-adv-x="490" 
d="M384 675q59 0 84 -31q6 -7 2 -23q-1 -12 -17 -32t-29 -29q-11 -8 -17 -2q-38 50 -56 62q-20 14 -42 14q-32 0 -52 -50q-21 -55 -39 -189q0 -6 4 -6q11 -1 77 -1q115 0 157 15q4 1 5.5 -3t-0.5 -8q-10 -21 -18 -61q-39 -177 -42 -236q-1 -21 8 -21q17 0 49 36q3 -1 3 -2
q1 -3 -1 -13.5t-3 -11.5q-37 -45 -78 -72t-67 -27q-38 0 -26 82q4 30 14.5 86.5t22.5 116.5t15 77q1 4 0 7t-4 2q-20 -6 -115 -6q-7 0 -8 -9q-5 -29 -27 -166.5t-35 -197.5q-22 -100 -104 -170.5t-146 -70.5q-29 0 -44.5 10.5t-15.5 24.5q4 28 30 70q1 2 3 3t3.5 2t3.5 1.5
t3 1.5q46 -60 93 -60q28 0 39 59q13 65 81 494q0 7 -4 7q-28 0 -60 2q-3 3 -1 6q5 9 17 19.5t17 13.5l36 -1q4 0 7 7q20 93 54.5 144.5t97.5 94.5q25 17 62.5 29t62.5 12z" />
    <glyph glyph-name="f_j" unicode="fj" horiz-adv-x="490" 
d="M91 348q-28 0 -60 2q-3 3 -1 6q5 9 17 19.5t17 13.5l36 -1q4 0 7 7q18 85 55.5 140.5t99.5 98.5q26 18 61.5 29.5t60.5 11.5q59 0 84 -31q6 -7 2 -23q-1 -12 -18.5 -32.5t-30.5 -30.5q-8 -5 -12 -1q-19 25 -29.5 37t-30 24.5t-40.5 12.5q-33 0 -51 -46q-23 -59 -40 -191
q0 -6 4 -6h103q67 0 126 17q3 1 4.5 -3t0.5 -8q-4 -13 -10.5 -48.5t-12.5 -72.5t-16 -99t-16 -98q-16 -88 -39.5 -138t-67.5 -90q-55 -50 -128 -71q-7 2 -10 15q0 1 1 3l1 2q49 22 69 49.5t35 97.5q6 30 30 175q32 205 37 224q3 11 -4 9q-17 -4 -107 -4q-5 -2 -7 -8
q-5 -29 -27 -166.5t-35 -197.5q-22 -100 -104 -170.5t-146 -70.5q-29 0 -44.5 10.5t-15.5 24.5q4 28 30 70q1 2 3 3t3.5 2t3.5 1.5t3 1.5q46 -60 93 -60q28 0 39 59q13 65 81 494q0 7 -4 7z" />
    <glyph glyph-name="f_k" unicode="fk" horiz-adv-x="694" 
d="M373 670q42 0 68 -13q26 2 59 21q2 0 6 -3.5t3 -5.5q-9 -19 -36 -152l-58 -301q-1 -8 4 -2q28 37 61 75t80 76t78 38q41 0 51 -16q2 -1 2 -7.5t-2 -10.5q-5 -13 -23 -38.5t-25 -26.5q-31 24 -71 24q-21 0 -51 -28t-39 -45q-2 -5 2 -8q13 -8 38 -44q67 -96 84 -112t30 -16
q14 0 25 7t31 34q2 0 3 -1q2 -3 2.5 -10.5t-0.5 -9.5q-66 -108 -133 -108q-31 0 -64 44q-10 14 -39.5 66t-39.5 65q-6 9 -13 -1q-4 -3 -9 -24q-4 -18 -8 -49q-4 -43 5 -60q-7 -9 -53 -27.5t-55 -18.5q-12 0 -12 29q0 24 21 133q77 411 81 432q4 22 -6 34q-21 24 -50 24
q-47 0 -71 -85q-17 -58 -30 -154q0 -6 4 -6q51 0 81 5q2 -10 -5 -17q-21 -23 -60 -26q-12 -2 -24 -2q-4 -4 -4 -8q-5 -30 -27 -167.5t-35 -197.5q-22 -100 -104 -170.5t-146 -70.5q-29 0 -44.5 10.5t-15.5 24.5q1 11 11.5 37.5t18.5 38.5q1 2 3 3t3.5 2t3.5 1.5t3 1.5
q51 -66 95 -66q26 0 37 60q13 65 81 494q0 7 -4 7q-28 0 -60 2q-3 3 -1 6q5 9 17 19.5t17 13.5l34 -1q6 0 7 7q19 87 55 142t97 95q57 37 116 37z" />
    <glyph glyph-name="f_l" unicode="fl" horiz-adv-x="490" 
d="M304 394q2 -10 -5 -17q-21 -23 -60 -26q-12 -2 -22 -2q-5 -6 -6 -8q-37 -252 -62 -365q-22 -100 -104 -170.5t-146 -70.5q-29 0 -44.5 10.5t-15.5 24.5q4 28 30 70q1 2 3 3t3.5 2t3.5 1.5t3 1.5q46 -60 93 -60q28 0 39 59q12 61 81 495q0 7 -4 7q-28 0 -60 2q-3 3 -1 6
q5 9 17 19.5t17 13.5l34 -1q6 0 7 7q19 86 54 141.5t97 95.5q57 37 115 37q44 0 70 -13q22 1 56 21q2 0 6 -3.5t3 -5.5q-8 -10 -36 -152q-63 -355 -65 -417q-2 -31 11 -31q21 0 55 35q3 -1 3 -2q1 -3 0 -11.5t-3 -10.5q-30 -39 -72.5 -67t-78.5 -28q-42 0 -26 115
q7 53 41.5 250.5t38.5 225.5q5 24 -4 34q-22 25 -51 25q-47 0 -71 -86q-15 -52 -29 -154q0 -6 4 -6q51 0 81 5z" />
    <glyph glyph-name="f_r" unicode="fr" horiz-adv-x="568" 
d="M562 403q13 0 24.5 -8t16.5 -19v-11q0 -19 -18.5 -49.5t-31.5 -43.5q-4 -4 -9 -2q-33 31 -51 31t-55 -74q-20 -39 -37 -115q-14 -60 -8 -83q-3 -6 -49 -25t-57 -20q-3 0 -6.5 4.5t-2.5 12.5q2 16 28.5 152t29.5 168q3 28 -13 28h-109q-4 -2 -4 -5q-48 -308 -61 -368
q-22 -100 -104 -170.5t-146 -70.5q-29 0 -44.5 10.5t-15.5 24.5q2 11 12.5 36t18.5 36q4 6 12 6q48 -62 93 -62q28 0 39 59q14 70 30 169t31.5 205t18.5 122q1 2 -0.5 5t-3.5 3q-10 0 -30.5 0.5t-29.5 0.5q0 1 -1 3t0 3q2 7 28 33h42q5 3 5 6q22 99 57.5 148.5t99.5 91.5
q61 39 105 39q40 0 40 -20q0 -11 -16.5 -38.5t-26.5 -37.5q-2 -2 -7 -3t-6 1q-35 46 -67 46q-21 0 -33 -40q-15 -54 -32 -187q0 -7 5 -7q15 0 52 0.5t50 0.5q29 0 53.5 2t38.5 4t17 2q19 0 5 -75q-5 -27 -17 -77h2q37 72 66 108q39 50 72 50z" />
    <glyph glyph-name="f_t" unicode="ft" horiz-adv-x="516" 
d="M210 344q-46 -300 -61 -368q-22 -100 -104 -170.5t-146 -70.5q-29 0 -44.5 10.5t-15.5 24.5q4 28 30 70q1 2 3 3t3.5 2t3.5 1.5t3 1.5q46 -60 93 -60q28 0 39 59q14 70 30 168t32 205t18 121q1 2 -0.5 5t-3.5 3q-10 0 -30.5 0.5t-29.5 0.5q0 1 -1 3t0 3q2 7 28 33h42
q5 3 5 6q22 96 57.5 146t100.5 94q58 39 104 39q38 0 38 -19q0 -22 -43 -65q-2 -2 -7 -3t-6 1q-32 32 -61 32q-25 0 -37 -41q-16 -57 -32 -184q0 -6 2 -6l119 1q3 0 5 5q23 84 27 93q3 7 14.5 17.5t38.5 26t61 25.5q2 1 4 -3.5t1 -5.5q-8 -12 -18 -54q-2 -9 -20 -101
q0 -5 3 -5q78 0 96 9q1 -1 1 -6t-1 -6q-5 -9 -19.5 -19t-25.5 -12q-19 -4 -58 -6q-4 0 -4 -5q-33 -154 -40 -236q-3 -40 14 -40q33 0 80 60q3 0 3 -4q0 -14 -3 -23q-24 -38 -77.5 -77t-93.5 -39q-25 0 -35.5 25t-3.5 73q6 54 46 261q1 7 -4 7h-113q-5 0 -7 -6z" />
    <glyph glyph-name="longs_b" unicode="&#x17f;b" horiz-adv-x="694" 
d="M366 670q39 0 65 -13q26 2 60 21q2 0 6 -3.5t3 -5.5q-10 -14 -38 -152q-32 -175 -43 -233q0 -3 2 -1q43 54 95.5 87t93.5 33q28 0 42 -28.5t14 -76.5q0 -64 -26.5 -125.5t-76.5 -105.5q-93 -83 -190 -83q-43 0 -67 29.5t-23 79.5q0 17 3 41.5t6 41.5l3 16q65 357 70 388
q3 24 -6 34q-19 21 -44 21q-51 0 -74 -82q-19 -64 -40 -207q-48 -316 -60 -370q-22 -100 -104 -170.5t-146 -70.5q-29 0 -44.5 10.5t-15.5 24.5q4 28 30 70q1 2 3 3t3.5 2t3.5 1.5t3 1.5q48 -63 93 -63q27 0 39 62q18 92 68 416q24 153 63.5 236.5t118.5 134.5q56 36 110 36
zM435 19q26 0 49 29q32 40 49 102t17 117q0 65 -31 65q-41 0 -89 -73q-20 -30 -30.5 -81t-10.5 -89q0 -70 46 -70z" />
    <glyph glyph-name="longs_h" unicode="&#x17f;h" horiz-adv-x="696" 
d="M366 670q39 0 65 -13q23 2 57 21q2 0 6 -3.5t3 -5.5q-11 -14 -37 -152q-26 -155 -50 -269q1 -2 5 1q50 68 104.5 111t100.5 43q26 0 32.5 -26.5t-2.5 -68.5q-5 -27 -15 -77.5t-16.5 -86.5t-6.5 -56q0 -19 9 -19q13 0 50 37q3 -1 3 -3q2 -12 -2 -21q-26 -36 -73 -67
t-82 -31q-36 0 -21 88q10 55 45 228q7 31 -8 31q-18 0 -49 -29.5t-58 -76.5q-19 -32 -38 -103q-22 -81 -8 -103q-93 -50 -108 -50q-10 0 -12 10q-2 11 3 47q12 74 51 280t49 276q3 23 -7 34q-17 20 -40 20q-50 0 -75 -90q-16 -56 -40 -207q-45 -294 -60 -363
q-22 -100 -104 -170.5t-146 -70.5q-29 0 -44.5 10.5t-15.5 24.5q4 28 30 70q1 2 3 3t3.5 2t3.5 1.5t3 1.5q46 -60 93 -60q28 0 39 59q15 78 69 416q23 145 63.5 233t117.5 138q56 36 110 36z" />
    <glyph glyph-name="longs_i" unicode="&#x17f;i" horiz-adv-x="473" 
d="M372 675q41 0 65 -12.5t24 -25.5q0 -21 -2 -24q-8 -14 -23 -32t-24 -22q-10 -5 -13 -2q-2 3 -12 16.5t-16.5 21t-18 18t-24 15.5t-26.5 5q-40 0 -59 -72q-25 -89 -42 -215q-33 -250 -60 -370q-22 -100 -104 -170.5t-146 -70.5q-29 0 -44.5 10.5t-15.5 24.5q4 28 30 70
q1 2 3 3t3.5 2t3.5 1.5t3 1.5q46 -60 93 -60q28 0 39 59q26 135 68 416q14 95 32 159.5t43.5 104.5t46 60.5t56.5 46.5q25 17 60 29t60 12zM444 112q3 -1 3 -2q0 -18 -2 -20q-38 -46 -80.5 -76t-67.5 -30q-39 0 -25 83q6 37 26 123.5t24 110.5q4 16 -3 16q-10 0 -52 -28
q-2 0 -2 1q-1 2 -0.5 10t2.5 9q37 37 83 65.5t70 28.5q14 0 16 -27t-5 -54q-5 -26 -17 -80.5t-19 -90.5t-8 -56q-1 -21 8 -21q13 0 49 38z" />
    <glyph glyph-name="longs_k" unicode="&#x17f;k" horiz-adv-x="679" 
d="M366 670q39 0 65 -13q22 1 56 21q2 0 6 -3.5t3 -5.5q-7 -9 -26 -96l-70 -356q-1 -3 1 -3t3 1q3 4 26.5 32t36 42t37.5 39.5t42.5 39t39.5 24.5t40 11q38 0 48 -16q1 -1 1.5 -7t-0.5 -10q-3 -13 -22.5 -39t-26.5 -27q-31 24 -71 24q-22 0 -52 -28.5t-39 -45.5q-2 -3 1 -5
q15 -9 40 -47q37 -55 60.5 -84t33.5 -36t19 -7q26 0 57 41q3 0 3 -1q2 -3 2.5 -10.5t-0.5 -9.5q-70 -108 -134 -108q-30 0 -63 44q-10 14 -40 66t-40 65q-5 8 -12 -1q-4 -3 -9 -24q-2 -9 -9 -63q-2 -26 6 -46q-7 -9 -52.5 -27.5t-54.5 -18.5q-13 0 -13 29q0 24 21 133
q5 29 25 129t35 181t22 127q2 22 -7 34q-16 20 -40 20q-50 0 -74 -87q-16 -53 -40 -209q-45 -294 -60 -363q-22 -100 -104 -170.5t-146 -70.5q-29 0 -44.5 10.5t-15.5 24.5q4 28 30 70q1 2 3 3t3.5 2t3.5 1.5t3 1.5q46 -60 93 -60q28 0 39 59q24 124 68 416q21 143 62.5 232
t119.5 139q56 36 110 36z" />
    <glyph glyph-name="longs_l" unicode="&#x17f;l" horiz-adv-x="478" 
d="M366 670q39 0 65 -13q23 2 57 21q2 0 6 -3.5t3 -5.5q-10 -14 -37 -147q-66 -375 -68 -422q-2 -31 11 -31q17 0 55 35q3 -1 3 -2q1 -3 1 -8.5t-2 -7.5q-32 -41 -73.5 -71t-79.5 -30q-42 0 -26 115q7 54 42.5 256t39.5 227q2 22 -6 34q-15 20 -43 20q-49 0 -73 -86
q-19 -65 -41 -212q-4 -26 -13 -87.5t-14.5 -100t-14.5 -89t-17 -86.5q-22 -100 -104 -170.5t-146 -70.5q-29 0 -44.5 10.5t-15.5 24.5q4 28 30 70q1 2 3 3t3.5 2t3.5 1.5t3 1.5q46 -60 93 -60q28 0 39 59q24 124 68 416q21 143 62.5 232t119.5 139q56 36 110 36z" />
    <glyph glyph-name="longs_longs" unicode="&#x17f;&#x17f;" horiz-adv-x="484" 
d="M98 -125l-1 -1q37 -60 115 -60q14 0 26.5 16t18.5 47q20 103 62 386q17 118 43.5 191.5t56 109t80.5 70.5q57 40 103 40q38 0 38 -19q0 -22 -43 -65q-2 -2 -7 -3t-6 1q-31 31 -63 31q-23 0 -35 -40q-18 -64 -41 -233q-34 -253 -53 -340q-23 -103 -102.5 -172t-154.5 -69
q-52 0 -70 38q-6 12 -6 24q-39 -42 -86 -67t-82 -25q-29 0 -44.5 10.5t-15.5 24.5q4 28 30 70q1 2 3 3t3.5 2t3.5 1.5t3 1.5q46 -60 93 -60q28 0 39 59q14 70 26 145t23.5 152.5t14.5 98.5q17 114 43.5 187t57.5 111t80 73q57 40 103 40q38 0 38 -19q0 -22 -43 -65
q-2 -2 -7 -3t-6 1q-31 31 -63 31q-23 0 -35 -40q-18 -64 -41 -233q-32 -245 -56 -350q-12 -54 -43 -101z" />
    <glyph glyph-name="longs_longs_i" unicode="&#x17f;&#x17f;i" horiz-adv-x="718" 
d="M354 654q38 0 38 -19q0 -22 -43 -65q-2 -2 -7 -3t-6 1q-34 34 -60 34q-25 0 -38 -43q-18 -64 -41 -233q-32 -245 -56 -350q-12 -54 -43 -101l-1 -1q40 -65 108 -65q39 0 52 68q18 94 39 234t23 152q14 95 32 159t43.5 104t46 60t56.5 46q25 17 60.5 30t59.5 13
q41 0 65 -12.5t24 -25.5q0 -21 -2 -24q-8 -14 -23 -32t-24 -22q-10 -5 -13 -2q-1 1 -12 16t-17 21t-17.5 17t-24 15.5t-26.5 4.5q-39 0 -59 -66q-23 -81 -42 -219q-4 -28 -15 -107t-20 -133t-19 -100q-23 -103 -102.5 -172t-154.5 -69q-52 0 -70 38q-6 12 -6 24
q-39 -42 -86 -67t-82 -25q-29 0 -44.5 10.5t-15.5 24.5q4 28 30 70q1 2 3 3t3.5 2t3.5 1.5t3 1.5q49 -64 92 -64q28 0 40 63q14 70 26 145t23.5 152.5t14.5 98.5q17 114 43.5 187t57.5 111t80 73q57 40 103 40zM689 112q3 -1 3 -2q0 -18 -2 -20q-38 -46 -80.5 -76t-67.5 -30
q-39 0 -25 83q6 37 26 123.5t24 110.5q4 16 -3 16q-10 0 -52 -28q-2 0 -2 1q-1 2 -0.5 10t2.5 9q37 37 83 65.5t70 28.5q14 0 16 -27t-5 -54q-5 -26 -17 -80.5t-19 -90.5t-8 -56q-1 -21 8 -21q13 0 49 38z" />
    <glyph glyph-name="longs_longs_l" unicode="&#x17f;&#x17f;l" horiz-adv-x="722" 
d="M354 654q38 0 38 -19q0 -22 -43 -65q-2 -2 -7 -3t-6 1q-33 33 -60 33q-25 0 -38 -43q-18 -65 -41 -232q-32 -245 -56 -350q-12 -54 -43 -101l-1 -1q15 -29 45 -47.5t61 -18.5q23 0 35.5 19.5t21.5 64.5q18 93 37 224.5t22 146.5q21 144 62 232.5t119 138.5q56 36 110 36
q39 0 65 -13q23 2 57 21q2 0 6 -3.5t3 -5.5q-10 -14 -37 -147q-66 -375 -68 -422q-2 -31 11 -31q17 0 55 35q3 -1 3 -2q1 -3 1 -9.5t-2 -8.5q-31 -40 -73 -69.5t-80 -29.5q-42 0 -26 115q7 54 42.5 254.5t39.5 226.5q3 25 -5 35q-15 21 -42 21q-50 0 -77 -95
q-17 -57 -38 -200q-32 -243 -53 -336q-23 -103 -102.5 -172t-154.5 -69q-52 0 -70 38q-6 12 -6 24q-39 -42 -86 -67t-82 -25q-29 0 -44.5 10.5t-15.5 24.5q4 28 30 70q1 2 3 3t3.5 2t3.5 1.5t3 1.5q49 -64 90 -64q31 0 42 63q14 70 26 145t23.5 152.5t14.5 98.5
q17 114 43.5 187t57.5 111t80 73q57 40 103 40z" />
    <glyph glyph-name="t_t" unicode="tt" horiz-adv-x="535" 
d="M79 389h26q5 0 5 5q13 59 25 84q3 7 14.5 17.5t38.5 26t61 25.5q2 1 4 -3.5t1 -5.5q-9 -13 -18 -53q-7 -30 -19 -93q0 -5 3 -5l139 2q5 0 5 5q19 85 28 104q3 7 14.5 17.5t38.5 26t61 25.5q2 1 4 -3.5t1 -5.5q-9 -13 -18 -53q-2 -9 -22 -113q0 -5 3 -5q78 0 96 9
q1 -1 1 -6t-1 -6q-5 -9 -19.5 -19t-25.5 -12q-19 -4 -59 -6q-4 0 -4 -5q-37 -217 -38 -232q-3 -43 14 -43q32 0 79 60q2 0 2 -4q0 -15 -2 -21q-25 -38 -79 -78t-94 -40q-49 0 -36 102q10 83 46 256q0 4 -2 4l-140 1q-4 0 -4 -5q-37 -217 -38 -232q-3 -43 14 -43q30 0 69 50
q2 0 2 -4q0 -15 -2 -21q-24 -37 -74.5 -72.5t-88.5 -35.5q-49 0 -36 102q10 83 46 256q0 4 -2 4q-48 0 -62 2q-1 1 -1 3t1 3q6 8 22 21.5t21 13.5z" />
    <glyph glyph-name="u0162_u0068" unicode="&#x162;h" horiz-adv-x="941" 
d="M862 403q18 0 26 -14.5t7.5 -39.5t-7.5 -64q-4 -24 -14 -71t-15 -76.5t-5 -49.5q0 -19 9 -19q16 0 50 34q3 -1 3 -3q2 -10 -2 -18q-26 -36 -73 -67t-82 -31t-20 88q27 152 39 209q11 49 -4 49q-18 0 -47.5 -27.5t-56.5 -74.5q-21 -36 -38 -98q-20 -76 -6 -99
q-19 -14 -59.5 -32t-48.5 -18q-10 0 -12 10q-2 13 2 46q14 87 51 290t44 245q-20 -2 -91 -2h-96q-5 0 -7 -6q-6 -25 -36.5 -228.5t-37.5 -262.5q-2 -24 2 -34t19 -14q26 -7 61 -10q2 -1 0.5 -9t-3.5 -9q-28 0 -74 1.5t-74 1.5t-79.5 -1.5t-77.5 -1.5q-1 1 -0.5 9t1.5 9
q39 4 55 8q18 4 27 18t17 53q14 68 42 242t35 228q0 6 -4 6q-12 1 -48.5 1t-50.5 -1q-30 -2 -52 -23q-18 -18 -53 -86q-2 -2 -9.5 1t-8.5 6q33 103 38 139q0 3 4 3q39 -10 87 -10h319q79 0 100 1q7 33 20 42q32 17 110 35q3 -1 5 -5.5t1 -8.5q-13 -10 -32 -109
q-42 -210 -57 -300q1 -2 5 1q118 147 202 147zM264 -31q18 0 30 -21.5t7 -50.5q-6 -36 -37.5 -64t-83.5 -41q-3 2 -6 7.5t-2 10.5q39 16 55 29t18 30q6 35 -50 51q-1 1 0 6.5t2 6.5q11 13 32 24.5t35 11.5z" />
    <glyph glyph-name="Tcaron_h" unicode="&#x164;h" horiz-adv-x="941" 
d="M862 403q18 0 26 -14.5t7.5 -39.5t-7.5 -64q-4 -24 -14 -71t-15 -76.5t-5 -49.5q0 -19 9 -19q16 0 50 34q3 -1 3 -3q2 -10 -2 -18q-26 -36 -73 -67t-82 -31t-20 88q27 152 39 209q11 49 -4 49q-18 0 -47.5 -27.5t-56.5 -74.5q-21 -36 -38 -98q-20 -76 -6 -99
q-19 -14 -59.5 -32t-48.5 -18q-10 0 -12 10q-2 13 2 46q14 87 51 290t44 245q-20 -2 -91 -2h-96q-5 0 -7 -6q-6 -25 -36.5 -228.5t-37.5 -262.5q-2 -24 2 -34t19 -14q26 -7 61 -10q2 -1 0.5 -9t-3.5 -9q-28 0 -74 1.5t-74 1.5t-79.5 -1.5t-77.5 -1.5q-1 1 -0.5 9t1.5 9
q39 4 55 8q18 4 27 18t17 53q14 68 42 242t35 228q0 6 -4 6q-12 1 -48.5 1t-50.5 -1q-30 -2 -52 -23q-18 -18 -53 -86q-2 -2 -9.5 1t-8.5 6q33 103 38 139q0 3 4 3q39 -10 87 -10h319q79 0 100 1q7 33 20 42q32 17 110 35q3 -1 5 -5.5t1 -8.5q-13 -10 -32 -109
q-42 -210 -57 -300q1 -2 5 1q118 147 202 147zM358 635q-3 -1 -12 -3q-6 11 -48.5 57.5t-58.5 60.5q5 11 10 11q8 0 111 -59q8 -2 10 0q130 59 141 59q3 0 5 -6t1 -9q-42 -25 -159 -111z" />
    <glyph glyph-name="gamma_gamma" unicode="&#x3b3;&#x3b3;" horiz-adv-x="814" 
d="M472 287q-49 -1 -106.5 -60.5t-117.5 -204.5q-5 -14 -16 -51q-45 -223 -52 -233q-4 -7 -17 -7q-17 0 -46.5 21.5t-26.5 39.5q2 11 12.5 32.5t33.5 64.5t36 69q19 38 24 61q16 70 13 126q-3 66 -25.5 105t-62.5 39q-57 0 -102 -49q-5 0 -5 2q-4 16 0 22q37 67 85 103
t87 36t62 -26t25 -94q1 -63 -30 -192q0 -2 3 -3q2 -1 4 3q36 87 75.5 153.5t90.5 112t100 45.5q46 0 73 -29.5t27 -113.5q0 -48 -21 -153q0 -2 2 -3t4 3q33 82 75.5 154.5t66.5 99.5q38 43 59 43q13 0 24.5 -6t16.5 -12l5 -6q0 -9 -2 -11q-50 -23 -134 -135.5t-118 -200.5
q-12 -30 -13 -40q-36 -232 -40 -242q-5 -9 -19 -9q-17 0 -45.5 21.5t-25.5 39.5q4 23 73 177q13 29 20 66q9 62 9 116t-20.5 90t-60.5 36z" />
    <glyph glyph-name="u03BB_u03BB" unicode="&#x3bb;&#x3bb;" horiz-adv-x="748" 
d="M601 -18q-32 0 -45 44q-6 20 -11 66.5t-7.5 88.5t-4.5 81l-2 38q-1 1 -4 -1q-90 -175 -129 -227q-68 -89 -125 -89q-51 0 -64 74q-4 27 -8.5 88t-7.5 113t-3 53t-1 1.5t-2 -0.5q-50 -72 -108 -226q-17 -43 -21 -100l-7 -4q-15 0 -31.5 6t-26 13.5t-8.5 11.5q7 32 53 109
q20 35 72.5 121.5t67.5 111.5q4 10 6 21q0 36 -10 103q-8 54 -25 73.5t-45 19.5q-26 0 -52 -11q-4 0 -4 4q0 9 5 17q55 62 115 62q52 0 73 -47.5t38 -187.5q29 -241 33 -266q10 -58 39 -58q20 0 44 34q57 79 124 240q8 15 6 33q-5 54 -11 87q-11 64 -33 90t-56 26
q-37 0 -75 -25q-2 0 -4 3q-1 3 1 11.5t4 10.5q28 34 68 56.5t73 22.5q53 0 79.5 -50t43.5 -185q7 -50 18.5 -150.5t18.5 -139.5q9 -48 17 -61.5t22 -13.5q18 0 48 27q4 0 4 -3q2 -10 -5 -21q-29 -43 -65.5 -69t-71.5 -26z" />
    <glyph glyph-name=".notdef" horiz-adv-x="500" 
d="M-30 0v700h500v-700h-500zM220 395l170 255h-340zM250 350l170 -255v510zM50 50h340l-170 255zM20 605v-510l170 255z" />
    <glyph glyph-name=".null" horiz-adv-x="0" 
 />
    <glyph glyph-name="nonmarkingreturn" horiz-adv-x="333" 
 />
    <glyph glyph-name="space" unicode=" " horiz-adv-x="155" 
 />
    <glyph glyph-name="exclam" unicode="!" horiz-adv-x="276" 
d="M276 594q20 0 30 -10q0 -10 -55 -173.5t-74 -206.5q-13 -11 -21 -11q-5 0 -8 3q-2 15 -4 165t0 184q-1 6 7 18t18 15q22 8 56 13t51 3zM153 122q24 0 41 -15q15 -17 15 -48q0 -33 -23 -53q-21 -20 -54 -20q-23 0 -40 18q-13 18 -13 39q0 35 23 58q21 21 51 21z" />
    <glyph glyph-name="quotedbl" unicode="&#x22;" horiz-adv-x="312" 
d="M121 637q5 7 35.5 29t37.5 22q2 -1 6 -5q2 -6 0 -16q-3 -29 -26 -101.5t-38 -98.5t-46 -52q-2 -1 -6 0.5t-4 3.5q12 38 26 110t15 108zM258 637q5 7 35.5 29t37.5 22q5 0 7 -5q1 -6 -1 -20q-3 -29 -26 -99.5t-38 -96.5t-46 -52q-7 -2 -10 4q12 38 26 110t15 108z" />
    <glyph glyph-name="numbersign" unicode="#" horiz-adv-x="403" 
d="M303 464l33 121q13 9 29 12q3 -2 3 -3l-37 -128q0 -2 5 -2q64 0 89 5q1 -4 -6 -23q-43 -43 -101 -43q-6 0 -6 -4l-26 -90q0 -4 4 -4q61 0 87 5q1 -2 -1.5 -12t-4.5 -13q-43 -45 -101 -45q-3 0 -3 -5l-34 -129q-1 -3 -6 -3q-2 0 -9.5 8t-8.5 10q16 54 32 119h-88
q-4 0 -4 -4l-39 -132q-1 -2 -6 -2q-9 3 -17 19q6 21 18.5 65t15.5 54q-74 0 -86 3l25 67q35 -5 80 -5l28 98q-53 0 -83 3l25 60q10 0 35.5 -0.5t38.5 -0.5l32 111q0 1 13 6.5t16 5.5q1 0 1 -2l1 -2l-33 -114q0 -5 3 -5zM286 403h-85q-5 0 -8 -5l-25 -89q0 -4 2 -4h87z" />
    <glyph glyph-name="dollar" unicode="$" horiz-adv-x="484" 
d="M253 375q2 -2 5 1l40 185q0 3 -3 3q-51 -3 -77 -31t-26 -67q0 -51 61 -91zM246 217l-40 -191q0 -3 2 -3q46 -1 76.5 21t30.5 72q0 62 -66 104q-1 1 -2 -0.5t-1 -2.5zM156 -84l17 82q2 4 -3 4q-44 4 -126 31q-4 14 -5 63.5t1 70.5q2 5 17 5q10 -76 41.5 -107t78.5 -40
q3 0 4 3l43 201q-1 6 -4 7q-65 42 -96 80t-32 90q0 84 56.5 130.5t150.5 46.5q3 0 5 3l15 68q14 7 24 7q4 0 5 -1l-17 -73q-2 -4 1 -4q12 -1 72 -11q51 -7 52 -7q-21 -60 -33 -114q-2 -2 -9 -2.5t-8 1.5q5 58 -11.5 83t-67.5 30q-3 0 -3 -3l-42 -195q0 -5 4 -7
q4 -3 20.5 -14t21.5 -14.5t19 -14t19 -15.5t16.5 -15t15.5 -17t11.5 -18t10.5 -20.5t5.5 -21t2.5 -24.5q0 -80 -62.5 -130t-161.5 -52q-4 0 -4 -3l-15 -77q-2 -2 -11.5 -5t-13.5 -3q-2 0 -4 2z" />
    <glyph glyph-name="percent" unicode="%" horiz-adv-x="681" 
d="M118 36q77 95 228 283t228 283q10 6 33 9q6 -2 3 -7q-18 -20 -228.5 -282.5t-251.5 -311.5q-5 -2 -7 0q-9 16 -5 26zM264 591q44 0 69 -29t25 -78q0 -111 -80 -171q-48 -36 -109 -36q-46 0 -71 28t-25 75q0 52 19.5 97.5t52.5 72.5q53 41 119 41zM231 569q-32 0 -49 -68
t-17 -122q0 -80 34 -80q28 0 46.5 61t18.5 129q0 44 -7.5 62t-25.5 18zM553 351q44 0 69.5 -28.5t25.5 -76.5q0 -110 -72 -170q-48 -40 -117 -40q-48 0 -72 28.5t-24 76.5q0 51 19 96t52 72q52 42 119 42zM523 328q-28 0 -48 -66.5t-20 -122.5q0 -81 35 -81q27 0 45.5 65.5
t18.5 127.5q0 43 -7 60t-24 17z" />
    <glyph glyph-name="ampersand" unicode="&#x26;" horiz-adv-x="683" 
d="M461 319q30 0 74 -6.5t64 -6.5q33 0 33 25q0 27 -34 70q4 8 27.5 27.5t35.5 24.5q18 -11 18 -56q0 -53 -40.5 -104.5t-104.5 -60.5q-27 -106 -107.5 -181t-180.5 -75q-93 0 -141.5 64.5t-48.5 156.5q0 117 84 193q23 22 59 41t59 19q30 0 48.5 -27.5t18.5 -63.5
q0 -1 1 -1.5t2 0.5q48 66 50 154q1 18 -6 51q6 9 33.5 30.5t37.5 22.5q6 -1 9 -15.5t2 -25.5q-2 -70 -44.5 -142.5t-120.5 -158.5q-52 -59 -107 -116q-2 -2 -2 -9q46 -98 162 -98q61 0 95 41.5t34 112.5q0 12 -3 18q-5 11 -14 15.5t-33 4.5q-65 0 -94 -81h-5q-8 3 -10 16
q18 56 56.5 98.5t92.5 42.5zM196 401q-17 0 -29.5 -28t-12.5 -89q0 -59 14 -94q2 -6 6 -3q29 24 52 57q14 19 14 67q0 37 -13 63.5t-31 26.5z" />
    <glyph glyph-name="quotesingle" unicode="'" horiz-adv-x="174" 
d="M121 634q5 7 34.5 29.5t36.5 22.5t8 -5q2 -7 0 -18q-2 -31 -25 -99.5t-39 -96.5q-20 -34 -46 -52q-8 0 -10 4q12 39 26 109t15 106z" />
    <glyph glyph-name="parenleft" unicode="(" horiz-adv-x="362" 
d="M81 191q0 193 93.5 343.5t236.5 235.5q4 0 8 -6.5t3 -8.5q-120 -84 -193 -238t-75 -331q-2 -112 25.5 -206.5t79.5 -155.5q1 -2 -4 -8t-9 -6q-19 11 -45 41t-54 76.5t-47 117t-19 146.5z" />
    <glyph glyph-name="parenright" unicode=")" horiz-adv-x="352" 
d="M308 389q0 -193 -94 -343.5t-237 -235.5q-4 0 -7.5 6t-2.5 10q120 84 193 237.5t75 330.5q3 238 -103 363q-1 2 4 7.5t9 5.5q19 -11 44.5 -41t53.5 -76.5t46.5 -117t18.5 -146.5z" />
    <glyph glyph-name="asterisk" unicode="*" horiz-adv-x="316" 
d="M231 523q22 4 117 33l2 -7q-1 -1 -5.5 -7t-9 -11.5t-7.5 -6.5q-41 -18 -91 -30q13 -16 43.5 -47t43.5 -39q0 -4 -5 -7q-3 -2 -18.5 -1.5t-22.5 3.5q-21 13 -43 34t-25 23q-31 -93 -35 -113h-4q-10 1 -16.5 18.5t-4.5 31.5q6 33 23 82q-72 -18 -120 -26l-6 3q23 27 32 28
q17 5 87 22q-8 7 -33 36.5t-34 43.5q-6 6 1 11q22 13 38 13q15 -25 57 -71q27 88 29 91q3 5 23 6.5t21 -0.5q4 0 3 -6q-5 -11 -14.5 -37.5t-17 -47.5t-8.5 -22z" />
    <glyph glyph-name="plus" unicode="+" horiz-adv-x="460" 
d="M424 235q-9 -35 -13 -36t-30 -1h-64t-61 -1q-6 0 -6 -7v-63t0.5 -64t-0.5 -33q-1 -4 -40 -17l-7 1v34.5v67v81.5h-167v8q6 32 10 41q4 -1 97 -1h60v57q0 84 -2 108q30 10 45 10q4 0 4 -29v-32.5v-54.5v-51q0 -8 5 -8h169v-10z" />
    <glyph glyph-name="comma" unicode="," horiz-adv-x="170" 
d="M-52 -147q0 4 1 5q59 38 77 67t18 71q0 40 -25 87q15 15 44.5 37.5t43.5 26.5q1 1 8 0.5t8 -1.5q17 -17 17 -62q0 -73 -58.5 -142t-116.5 -96q-2 -1 -9 1.5t-8 5.5z" />
    <glyph glyph-name="hyphen" unicode="-" horiz-adv-x="280" 
d="M59 235q99 -1 190 5q2 -4 0 -13q-1 -8 -13.5 -29.5t-16.5 -23.5q-29 -10 -188 -10q-2 4 -2 11q3 13 14.5 36.5t15.5 23.5z" />
    <glyph glyph-name="period" unicode="." horiz-adv-x="170" 
d="M78 122q24 0 41 -15q15 -17 15 -48q0 -33 -24 -54q-20 -19 -51 -19q-25 0 -42 18q-13 18 -13 39q0 35 23 58q21 21 51 21z" />
    <glyph glyph-name="slash" unicode="/" horiz-adv-x="411" 
d="M456 686q3 0 3 -3q-12 -30 -200.5 -371t-235.5 -409q-2 -3 -18 -10.5t-22 -9.5q-3 2 -5 5q63 100 222 387t219 401q1 2 15.5 6t21.5 4z" />
    <glyph glyph-name="zero" unicode="0" horiz-adv-x="484" 
d="M316 594q85 0 124 -55t39 -145q0 -113 -43 -221.5t-120 -154.5q-48 -30 -112 -30q-166 0 -166 201q0 100 36.5 205.5t110.5 156.5q63 43 131 43zM298 573q-21 0 -39 -20q-41 -45 -68 -167t-27 -232q0 -84 15.5 -114t43.5 -30q17 0 29 12q41 39 72.5 177t31.5 252
q0 43 -5.5 70t-16 37t-17.5 12.5t-19 2.5z" />
    <glyph glyph-name="one" unicode="1" horiz-adv-x="484" 
d="M356 15q1 -2 -1 -9.5t-3 -8.5q-29 0 -69 1.5t-69 1.5q-28 0 -72 -1.5t-71 -1.5q-1 2 0 9.5t2 8.5q41 6 49 7q14 3 22.5 13.5t11.5 20t7 29.5q8 37 36 206q26 157 29 194q4 38 -17 42q-16 4 -46 7q-1 2 0 8.5t3 8.5q95 5 190 43q12 3 12 -3q-12 -57 -29 -157
q-50 -341 -51 -345q-4 -27 -0.5 -45t20.5 -22q23 -5 46 -7z" />
    <glyph glyph-name="two" unicode="2" horiz-adv-x="484" 
d="M215 510q-64 0 -117 -52q-1 -1 -4 1.5t-5.5 6.5t-1.5 5q96 123 204 123q61 0 102.5 -43t41.5 -109q0 -58 -33.5 -112t-110.5 -120q-58 -50 -125 -104q-1 -1 -1 -3t2 -2q81 -6 211 0q43 2 76 60q1 1 4.5 0t6.5 -3.5t3 -3.5q-41 -104 -70 -140q-9 -16 -54 -17
q-41 -1 -131.5 1t-122.5 2q-55 0 -73 -2q2 16 4 21q126 89 200 169q52 56 73 103.5t21 103.5q0 48 -26.5 81.5t-73.5 33.5z" />
    <glyph glyph-name="three" unicode="3" horiz-adv-x="484" 
d="M298 594q54 0 90 -35t36 -87q0 -43 -26.5 -75.5t-83.5 -65.5q-1 -1 -2 -2.5t0 -2.5q56 -19 89.5 -57.5t33.5 -88.5q0 -58 -33.5 -108t-91.5 -79q-66 -35 -138 -35q-68 0 -108 21q-30 16 -35 38q-8 40 2 95q3 4 14 4q4 -31 15.5 -54t19.5 -31.5t24 -21.5q35 -28 87 -28
q56 0 87.5 41.5t31.5 105.5q0 59 -29.5 94.5t-86.5 35.5q-17 0 -29 -2q0 5 8 20t13 19q73 14 104 42.5t31 77.5q0 46 -25 76t-71 30q-59 0 -111 -51q-2 0 -6.5 5.5t-4.5 7.5q101 111 195 111z" />
    <glyph glyph-name="four" unicode="4" horiz-adv-x="484" 
d="M469 178l-95 1q-4 0 -4 -4l-28 -187q-65 0 -130 -9l34 195q0 5 -3 5l-227 2q1 5 10 29q53 61 175.5 198t162.5 179q3 0 13 -0.5t19 -0.5q10 0 22.5 0.5t14.5 0.5q-2 -13 -23.5 -151.5t-29.5 -199.5q-1 -2 1 -4.5t4 -2.5l101 2q-2 -7 -5.5 -15t-6 -17t-5.5 -21zM85 227
h165q1 0 3.5 2t2.5 3l46 251q-2 2 -4 0q-23 -24 -104.5 -119t-110.5 -133q-2 -4 2 -4z" />
    <glyph glyph-name="five" unicode="5" horiz-adv-x="484" 
d="M418 598q3 0 7.5 -3t4.5 -6q0 -8 -14 -36.5t-26 -43.5q-17 -22 -30 -27.5t-35 -5.5q-35 0 -75 3.5t-50 3.5q-4 0 -8 -6q-17 -30 -26 -59q0 -6 3 -8q161 -88 176 -99q43 -31 63.5 -62t20.5 -75q0 -51 -24 -93.5t-61.5 -68t-79 -39.5t-79.5 -14q-53 0 -92.5 20t-58.5 48
q-7 11 -7 28q0 19 30 61q5 3 8 3q69 -128 166 -128q49 0 70.5 28.5t21.5 72.5q0 66 -65 119q-21 16 -54.5 38t-65 41.5t-37.5 23.5q0 17 3 26q48 115 103 220q16 26 30 26q3 0 50 -2.5t80 -2.5q31 0 51 17z" />
    <glyph glyph-name="six" unicode="6" horiz-adv-x="484" 
d="M505 628q-117 -53 -190 -129t-109 -154q-2 -6 3 -6q69 44 123 44q55 0 92 -41t38 -113q0 -72 -37.5 -131t-107.5 -90q-45 -21 -96 -21q-92 0 -137.5 53.5t-45.5 137.5t42 164t109.5 139.5t148 102t161.5 61.5q4 0 6 -7.5t0 -9.5zM251 327q-27 0 -51 -13q-5 -3 -10 -12
q-23 -75 -23 -137q0 -154 81 -154q37 0 63 55t26 125q0 136 -86 136z" />
    <glyph glyph-name="seven" unicode="7" horiz-adv-x="484" 
d="M521 583q1 -1 1.5 -6t-0.5 -6q-30 -61 -183.5 -320.5t-160.5 -273.5q-1 -2 -6 -4q-3 0 -12 6t-10 8q-2 7 1 12q218 345 284 463v7q-15 2 -114 1.5t-153 -2.5q-20 -2 -33 -13.5t-34 -45.5q-1 -1 -9 2.5t-8 5.5q43 97 61 175q22 -10 70 -10h207q82 0 99 1z" />
    <glyph glyph-name="eight" unicode="8" horiz-adv-x="484" 
d="M319 594q65 0 103 -34t39 -89q0 -9 -2 -18t-3.5 -15.5t-7.5 -15t-9 -13.5t-12.5 -13t-13.5 -11.5t-16 -12.5t-16.5 -12t-19.5 -13.5t-20 -13.5q-4 -2 -1 -5q102 -86 102 -151q0 -82 -66 -135t-158 -53q-89 0 -131.5 38t-42.5 93q0 37 31.5 68t121.5 86q1 2 -1 4
q-76 67 -76 136q0 91 80 144q53 36 119 36zM292 571q-32 0 -52.5 -24.5t-20.5 -59.5q0 -38 21 -68t80 -75q2 -2 6 1q52 54 52 117q2 45 -22 77t-64 32zM243 12q40 0 64.5 25.5t24.5 68.5q-1 34 -24 64.5t-90 90.5q-1 1 -3.5 1.5t-3.5 -0.5q-77 -64 -77 -135q0 -51 30 -83
t79 -32z" />
    <glyph glyph-name="nine" unicode="9" horiz-adv-x="484" 
d="M41 -53q-2 0 -5 7.5t-2 9.5q105 46 170 109.5t111 150.5q1 4 -2 5q-75 -33 -121 -33q-59 0 -95 44.5t-37 108.5q0 70 35 128.5t97 89.5q52 27 111 27q86 0 131.5 -55t45.5 -141q0 -158 -125.5 -281.5t-313.5 -169.5zM284 571q-40 0 -71 -51.5t-31 -123.5q0 -80 29 -115.5
t75 -35.5q20 0 32 6q9 3 14 20q28 78 28 154q0 146 -76 146z" />
    <glyph glyph-name="colon" unicode=":" horiz-adv-x="291" 
d="M173 366q24 0 41 -15q15 -17 15 -48q0 -33 -24 -54q-20 -19 -51 -19q-25 0 -42 18q-13 18 -13 39q0 35 23 58q21 21 51 21zM136 122q24 0 41 -15q15 -17 15 -48q0 -33 -24 -54q-20 -19 -51 -19q-25 0 -42 18q-13 18 -13 39q0 35 23 58q21 21 51 21z" />
    <glyph glyph-name="semicolon" unicode=";" horiz-adv-x="291" 
d="M173 366q24 0 41 -15q15 -17 15 -48q0 -33 -24 -54q-20 -19 -51 -19q-25 0 -42 18q-13 18 -13 39q0 35 23 58q21 21 51 21zM0 -147q0 4 1 5q59 39 76.5 67.5t17.5 70.5q0 40 -25 87q15 15 44.5 37.5t43.5 26.5q1 1 8 0.5t8 -1.5q17 -17 17 -62q0 -73 -58.5 -142
t-116.5 -96q-2 -1 -8.5 1.5t-7.5 5.5z" />
    <glyph glyph-name="less" unicode="&#x3c;" horiz-adv-x="460" 
d="M389 359q-17 -16 -252 -136q-4 -1 -2 -5q9 -5 75 -37.5t127 -64t70 -40.5q2 -2 -5 -19t-11 -22q-1 -3 -7 -3q-27 20 -151 83.5t-181 86.5q0 3 5.5 17.5t7.5 15.5q65 31 189.5 96t143.5 81q3 0 5 -4q0 -11 -5 -28t-9 -21z" />
    <glyph glyph-name="equal" unicode="=" horiz-adv-x="460" 
d="M412 275l-372 -2q-3 1 -3 8q0 4 4 21.5t6 20.5q5 -2 97 -2h279q3 -1 3 -7q0 -5 -5 -21.5t-9 -17.5zM412 122l-373 -2q-3 2 -3 8q3 18 11 42q5 -2 97 -2h279q2 0 2 -7q0 -5 -4.5 -21.5t-8.5 -17.5z" />
    <glyph glyph-name="greater" unicode="&#x3e;" horiz-adv-x="460" 
d="M71 85q17 16 252 136q4 1 2 5q-9 5 -75 37.5t-127 64t-70 40.5q-2 2 5 19t11 22q1 3 7 3q27 -20 151 -83.5t181 -86.5q0 -3 -5.5 -17.5t-7.5 -15.5q-65 -31 -189.5 -96t-143.5 -81q-3 0 -5 4q0 11 5 28t9 21z" />
    <glyph glyph-name="question" unicode="?" horiz-adv-x="326" 
d="M202 301q0 -27 21 -54q5 -8 -4 -17q-7 -7 -26 -18t-31 -15q-18 -5 -28 1q-17 10 -26.5 28t-7.5 33q1 15 17 29q10 9 56.5 35t58.5 35q25 19 25 43q0 69 -99 102l-23 8q-13 6 -13 15t14 26.5t33 32.5q16 13 35 13q58 0 100 -42q45 -44 45 -105q0 -34 -24 -58
q-9 -8 -23 -18.5t-25 -17t-30.5 -18.5t-26.5 -16q-18 -11 -18 -22zM159 122q24 0 41 -15q15 -17 15 -48q0 -33 -24 -54q-20 -19 -51 -19q-25 0 -42 18q-13 18 -13 39q0 35 23 58q21 21 51 21z" />
    <glyph glyph-name="at" unicode="@" horiz-adv-x="748" 
d="M528 44h1q10 0 25 5t35 20t36 37t27.5 60.5t11.5 86.5q0 69 -22 123t-58.5 86t-79.5 48.5t-88 16.5q-39 0 -78.5 -10t-83 -37.5t-76 -70.5t-54 -116t-21.5 -166q0 -81 16.5 -141.5t41.5 -91t45 -44.5t37 -19q16 -5 38 -5q4 -2 2 -8q-10 -10 -42 -10q-10 0 -31 9t-50.5 32
t-55 56.5t-43.5 89.5t-18 123q0 172 116 305q58 67 135.5 103.5t154.5 36.5q116 0 189 -80.5t73 -187.5q0 -76 -29 -138t-72.5 -97.5t-88 -54.5t-80.5 -18q-51 0 -37 96q1 4 2 13t3 17q1 3 -2 3q-2 0 -3 -2q-36 -49 -81.5 -87.5t-79.5 -38.5q-32 0 -44 39q-5 20 -5 50
q0 127 84 219q27 31 86.5 60.5t108.5 29.5q56 0 92 -13q-12 -26 -19 -60q-35 -167 -38 -234q-2 -35 20 -35zM327 77q41 0 85 84q10 19 24 83q16 56 19 92q-11 11 -45 11q-32 0 -53 -20t-36 -70q-20 -56 -20 -120q0 -60 26 -60z" />
    <glyph glyph-name="A" unicode="A" horiz-adv-x="560" 
d="M-66 15q53 8 72.5 19t42.5 53q52 90 135 252t108 220q16 40 17 43q1 0 6 -0.5t13 -1t17 -0.5q10 0 19.5 0.5t14.5 1t6 0.5q0 -17 6 -47q4 -21 33 -207.5t39 -236.5q12 -62 26 -76t65 -20q2 -1 1.5 -9t-3.5 -9q-8 0 -49 1.5t-76 1.5q-37 0 -148 -3q-2 2 -2 9.5t2 8.5
q40 4 51 12q13 8 13 22q0 7 -25 187q0 6 -5 6q-9 1 -60 1h-79q-6 0 -11 -9q-76 -143 -81 -175q-5 -27 23 -34q9 -2 51 -10q1 -2 0.5 -9.5t-2.5 -8.5q-2 0 -20.5 0.5t-47 1.5t-55.5 1q-30 0 -62.5 -1.5t-35.5 -1.5q-1 2 -1 9t2 9zM279 472q-74 -152 -92 -191q-1 -1 -0.5 -3
t1.5 -2q5 -1 59 -1q55 0 62 1q3 0 3 5q-12 88 -29 191q-2 2 -4 0z" />
    <glyph glyph-name="B" unicode="B" horiz-adv-x="567" 
d="M-11 15q31 3 52 8q24 6 34 45q14 58 42 229q34 206 36 238q4 33 -16 40q-21 7 -50 10q-3 3 -2 9.5t4 8.5q11 0 59 -1.5t73 -1.5q41 0 86 0.5t72 0.5q154 0 154 -124q0 -55 -35.5 -93t-100.5 -55q-1 -1 -1 -3t1 -3q133 -32 133 -138q0 -65 -40 -111t-105 -65
q-61 -17 -143 -17q-18 0 -118.5 2.5t-136.5 2.5q-2 1 -1.5 9t3.5 9zM312 576q-17 0 -23 -4q-6 -3 -8 -15q-16 -83 -37 -221q-1 -6 5 -8q8 -1 20 -1q66 0 104 36t38 109q0 104 -99 104zM272 16q50 0 87 40.5t37 115.5q0 61 -36 96t-96 35q-18 0 -21 -1t-5 -8
q-34 -225 -35 -238q0 -13 9 -22q18 -18 60 -18z" />
    <glyph glyph-name="C" unicode="C" horiz-adv-x="584" 
d="M547 455q0 56 -7.5 81t-25.5 37q-30 20 -88 20q-99 0 -161 -98.5t-62 -242.5q0 -107 49 -167t134 -60q41 0 69 14q50 24 100 91q3 0 8 -4t4 -7q-14 -31 -44 -64.5t-51 -45.5q-48 -27 -146 -27q-131 0 -197 72t-66 190q0 104 50 194.5t148 138.5q78 39 182 39q46 0 102 -9
l57 -10q-24 -66 -36 -142q-2 -2 -10 -2t-9 2z" />
    <glyph glyph-name="D" unicode="D" horiz-adv-x="668" 
d="M-16 15q50 5 56 6q15 3 21.5 13.5t12.5 32.5q6 25 40.5 228.5t37.5 245.5q3 31 -22 37q-17 5 -45 8q-2 2 -0.5 9t4.5 9q8 0 56 -2t58 -2q37 0 78.5 0.5t81.5 0.5q144 0 211 -77q62 -70 62 -180q0 -175 -110 -266q-45 -39 -97 -58.5t-90.5 -23t-105.5 -3.5q-19 0 -108 2
t-143 2q-2 1 -1.5 9t3.5 9zM204 67q-4 -24 15 -35q23 -14 68 -14q68 0 122 55q43 44 67.5 118t24.5 149q0 131 -56 187q-47 49 -127 49q-12 0 -24 -3q-8 -2 -10 -15q-34 -184 -80 -491z" />
    <glyph glyph-name="E" unicode="E" horiz-adv-x="535" 
d="M-12 15q34 3 53 9q15 4 22 14.5t13 37.5q15 71 41 232t33 220q3 23 -0.5 34.5t-18.5 16.5q-18 6 -46 8q0 11 3 17q7 0 57.5 -2t76.5 -2h197q85 0 109 5q2 -2 2 -5q-21 -46 -40 -147q-2 -2 -9 -2t-9 2q0 63 -10 89q-11 25 -38 28q-17 1 -66 2t-66 0q-6 -1 -9 -9
q-19 -95 -39 -233q0 -7 6 -7q76 0 120 3q26 1 42 34q11 20 17 38q1 2 9 2t10 -2q-8 -28 -19 -94q-8 -50 -14 -97q-2 -2 -8.5 -2t-8.5 1q-1 25 -6 53q-5 26 -27 30q-21 4 -121 4q-7 0 -7 -8q-5 -28 -16 -103t-16 -107q-6 -38 14 -42q25 -5 138 -5q46 0 75 28q34 34 66 92
q2 1 8.5 -2t7.5 -5q-6 -24 -23.5 -67.5t-31.5 -63.5q-6 -9 -12 -11t-24 -2q-30 0 -116.5 1.5t-170.5 1.5q-41 0 -75 -1t-52.5 -1.5t-21.5 -0.5q-1 2 -1 9t2 9z" />
    <glyph glyph-name="F" unicode="F" horiz-adv-x="499" 
d="M-10 15q50 8 51 8q26 6 36 55q14 63 40.5 227t32.5 220q4 29 -1.5 40t-21.5 16q-18 4 -41 6q-1 2 -0.5 8.5t2.5 8.5q4 0 23 -1t49 -2t61 -1h218q68 0 96 4q5 0 3 -6q-28 -61 -42 -143q-2 -1 -9 -1t-8 1q0 30 -5 70q-7 40 -42 44q-22 2 -71.5 2.5t-67.5 -1.5
q-4 -1 -7.5 -6t-3.5 -8q-27 -139 -39 -238q-1 -6 5 -6q93 0 124 2q18 0 31 8t16 13.5t11 18.5q1 2 16 37q2 3 10 2t9 -3q-17 -76 -21 -97q-2 -13 -6 -46.5t-5 -41.5q-1 -2 -8.5 -3t-9.5 2q-2 25 -4 39q-5 32 -32 35q-40 4 -136 4q-3 0 -6 -3.5t-3 -5.5q-22 -138 -28 -187
q-6 -26 -1.5 -40t9 -17t17.5 -7q8 -2 49 -7q1 -2 -0.5 -9.5t-3.5 -8.5q-15 0 -65.5 1.5t-78.5 1.5q-36 0 -85.5 -1.5t-58.5 -1.5q-1 1 0 9t2 9z" />
    <glyph glyph-name="G" unicode="G" horiz-adv-x="649" 
d="M562 41q0 -13 -5 -16q-40 -14 -104.5 -28.5t-110.5 -14.5q-139 0 -210 63t-71 196q0 109 58 205t159 138q83 34 187 34q38 0 94 -8q68 -10 78 -11q-29 -73 -38 -150q-1 -4 -9.5 -4t-9.5 3q1 92 -28 117q-35 30 -108 30q-99 0 -170 -105.5t-71 -260.5q0 -222 157 -222
q22 0 32 6q14 8 22 27q9 29 23 144q4 32 -2 42.5t-26 15.5q-21 5 -44 8q-1 2 0 9t3 9q6 0 45 -2t86 -2q83 0 135 5q1 -2 0 -9t-2 -10l-25 -6q-21 -6 -28.5 -18.5t-18.5 -72.5q-12 -59 -13 -85q0 -8 0.5 -12t4 -8t10.5 -7z" />
    <glyph glyph-name="H" unicode="H" horiz-adv-x="690" 
d="M88 585q-2 2 -1 9.5t3 8.5q2 0 52.5 -1.5t78.5 -1.5q29 0 80.5 1.5t54.5 1.5q2 -2 0.5 -9.5t-3.5 -8.5q-32 -5 -36 -6q-18 -5 -26 -14t-13 -35q-13 -68 -32 -190q0 -8 3 -9q8 -2 117 -2q113 0 120 1q3 0 5 7q15 80 30 199q3 22 -2.5 31t-19.5 12q-2 0 -41 6
q-2 2 -1.5 9.5t3.5 9.5q10 0 50 -2t81 -2q52 0 92 1.5t42 1.5q2 -2 1.5 -9t-2.5 -9q-19 -3 -40 -8q-15 -4 -23 -13t-12 -31q-40 -226 -72 -450q-8 -52 21 -60q1 0 47 -8q1 -2 -0.5 -9.5t-3.5 -8.5q-1 0 -44.5 1.5t-85.5 1.5q-44 0 -76.5 -1t-48.5 -1.5t-22 -0.5q-2 2 -1.5 9
t2.5 9q8 1 42 7q17 3 25 15t15 44q23 106 37 207q2 8 -5 8h-123q-111 -1 -114 -2q-4 -2 -4 -6q-1 -5 -14 -89.5t-17 -117.5q-6 -51 19 -57q7 -2 47 -9q1 -2 -0.5 -9t-3.5 -9q-4 0 -50 1.5t-87 1.5q-53 0 -98 -2l-44 -1q-2 2 -1 9t2 9l39 5q21 4 31 17.5t19 51.5
q10 46 37.5 220t32.5 221q1 24 -2.5 33t-15.5 13q-16 5 -44 9z" />
    <glyph glyph-name="I" unicode="I" horiz-adv-x="320" 
d="M87 585q-2 2 -1 9t3 9l39 -1q40 -2 90 -2t94 2l44 1q2 -1 1 -8.5t-3 -9.5q-35 -5 -42 -7q-16 -4 -22.5 -12.5t-12.5 -37.5q-1 -4 -36 -220q-32 -210 -35 -235q0 -10 -1 -19.5t5.5 -18.5t20.5 -12q5 -1 43 -8q2 -1 0.5 -9t-4.5 -9q-13 0 -61 1.5t-78 1.5q-104 -2 -142 -2
q-2 2 -1.5 8.5t2.5 8.5q32 4 44 7q20 5 28 13.5t14 38.5q15 69 43 246q26 155 31 219q4 29 -18 37q-16 5 -45 9z" />
    <glyph glyph-name="J" unicode="J" horiz-adv-x="308" 
d="M86 585q-2 2 -0.5 9t3.5 9q5 0 52.5 -1.5t77.5 -1.5q27 0 77 1.5t59 1.5q2 -3 -2 -19q-5 -1 -19.5 -3t-20.5 -4q-14 -4 -21.5 -15.5t-12.5 -41.5q-10 -56 -33.5 -204.5t-34.5 -207.5q-8 -42 -13.5 -65.5t-18.5 -57.5t-31 -57q-71 -93 -198 -127q-3 1 -6 8t-2 9q0 3 2 3
q41 12 65 36t32 49q10 30 25 103q47 229 84 518q0 2 0.5 9t0.5 9t-0.5 7.5t-1.5 8t-3 6t-5.5 5.5t-8.5 4q-21 7 -46 9z" />
    <glyph glyph-name="K" unicode="K" horiz-adv-x="612" 
d="M86 585q-2 2 -0.5 9t3.5 9q3 0 43.5 -1.5t84.5 -1.5q52 0 94.5 2t43.5 2q2 -1 1.5 -9.5t-3.5 -9.5q-20 -3 -42 -8q-27 -7 -36 -54q-20 -110 -70 -448q-6 -45 24 -52q4 -1 42 -8q1 -2 -0.5 -9.5t-2.5 -8.5q-12 0 -60 1.5t-77 1.5q-20 0 -51.5 -1t-55 -1.5t-35.5 -0.5
q-2 2 -2 9.5t3 8.5q38 5 46 7q17 4 27 18t16 44q50 264 71 445q5 40 -17 47q-10 3 -47 9zM441 585q-1 2 -0.5 9t2.5 9q9 0 49.5 -1.5t58.5 -1.5q40 0 77.5 1.5t39.5 1.5q2 -1 1 -9t-3 -9q-49 -8 -72 -21.5t-56 -46.5q-62 -64 -183 -177l-1 -3q29 -58 90.5 -157t90.5 -130
q18 -21 48 -30q12 -4 44 -6q1 -1 0 -8.5t-3 -9.5q-38 -6 -104 -2.5t-92 14.5q-32 13 -56 47q-20 27 -59 96.5t-62 118.5q-5 12 -10 15q-2 4 4 10q40 20 97 66t116 112q31 35 41.5 50t12.5 28q2 14 -18 22q-19 6 -53 12z" />
    <glyph glyph-name="L" unicode="L" horiz-adv-x="534" 
d="M86 586q-1 1 0 8.5t3 8.5q11 0 53 -1.5t73 -1.5q30 0 80 1.5t60 1.5q1 -1 0 -8.5t-2 -9.5q-26 -2 -44 -8q-11 -3 -17.5 -11.5t-9 -14.5t-5.5 -20q-9 -39 -39 -235.5t-33 -233.5q-1 -12 4.5 -20t11.5 -9q30 -6 133 -6q38 0 75 34t80 114q3 1 9 -2.5t6 -5.5
q-6 -27 -28 -83.5t-40 -75.5q-8 -11 -59 -11q-39 0 -135 1.5t-132 1.5q-30 0 -83.5 -1.5t-62.5 -1.5q-2 2 -1.5 9t2.5 9q45 6 54 8q26 7 35 42q13 52 42.5 234t33.5 238q0 10 0.5 17.5t-4.5 13.5t-17 10q-13 3 -43 8z" />
    <glyph glyph-name="M" unicode="M" horiz-adv-x="777" 
d="M99 585q-1 3 1 10t4 8q142 -4 196 -3q0 -6 10 -58q26 -121 87 -336h2q27 45 92.5 162.5t91.5 170.5q13 26 26 61q39 -1 108.5 1t84.5 2q1 -2 1 -8.5t-2 -9.5q-32 -5 -46 -8q-30 -5 -36 -49q-7 -52 -21 -221t-16 -225q0 -48 25 -58q20 -6 46 -9q1 -3 0 -9.5t-3 -8.5
q-1 0 -45.5 1.5t-92.5 1.5q-29 0 -79 -1.5t-59 -1.5q-2 2 -1.5 9t2.5 9q17 2 41 8q16 4 23.5 16.5t11.5 45.5q9 67 25 218.5t18 194.5h-2l-2 -1q-7 -14 -121 -231t-138 -269q-3 -1 -13.5 -1t-13.5 1q-8 51 -46 230.5t-57 259.5h-3q-71 -262 -94 -397q-9 -57 27 -65
q11 -4 52 -10q2 -1 0.5 -9.5t-3.5 -8.5q-9 0 -51 1.5t-65 1.5q-19 0 -53.5 -1.5t-51.5 -1.5q-2 2 -1.5 9.5t3.5 8.5q30 4 48 10q19 7 29 20t23 45q32 90 118 435q3 12 -4 29t-22 21q-19 5 -54 10z" />
    <glyph glyph-name="N" unicode="N" horiz-adv-x="641" 
d="M64 585q-5 10 3 18q151 -3 155 -3q30 0 42 1q4 -11 25 -52q53 -101 229 -414l1 1q54 315 58 385q2 23 -4 36.5t-29 18.5q-14 3 -58 9q-1 2 -0.5 9t2.5 9q9 0 44 -1.5t78 -1.5q36 0 63 1.5t30 1.5q1 -2 0.5 -9t-2.5 -9q-20 -3 -37 -9q-22 -7 -32.5 -20t-15.5 -39
q-9 -43 -20 -106t-25.5 -149.5t-22.5 -132.5q-3 -19 -9 -68t-9 -66q-4 0 -18.5 1t-28.5 1q-27 0 -43 -2q-33 67 -137.5 264.5t-123.5 230.5q-1 0 -1 -0.5t-1 -0.5q-9 -41 -35.5 -206t-29.5 -198q-3 -29 4 -41.5t31 -19.5q15 -4 54 -9q1 -2 0.5 -9.5t-2.5 -9.5q-3 0 -43.5 2
t-74.5 2q-20 0 -53 -1.5t-53 -1.5q-1 2 -1 9t2 9q17 2 47 9q22 5 31.5 18.5t15.5 36.5q30 120 79 427q3 17 -6 39.5t-27 29.5q-17 6 -52 10z" />
    <glyph glyph-name="O" unicode="O" horiz-adv-x="669" 
d="M293 -18q-118 0 -176.5 63.5t-56.5 176.5q2 149 85 259q105 137 266 137q105 0 165 -59t64 -176q2 -69 -20 -142.5t-59 -121.5q-47 -63 -119 -100t-149 -37zM312 7q44 0 78 31q57 51 86.5 158t29.5 221q0 177 -113 177q-60 0 -107 -66.5t-69 -156.5t-22 -178
q0 -90 29.5 -138t87.5 -48z" />
    <glyph glyph-name="P" unicode="P" horiz-adv-x="535" 
d="M284 241q-22 0 -50 4q-3 0 -5 -6q-18 -110 -24 -167q-7 -42 23 -48q32 -6 54 -9q2 -1 1 -9t-4 -9q-6 0 -53 1.5t-91 1.5q-25 0 -71.5 -1.5t-71.5 -1.5q-1 3 -0.5 9.5t2.5 8.5q39 7 45 8q29 8 36 47q56 305 75 454q3 25 -1 38t-21 17q-7 2 -23.5 4.5t-18.5 2.5q-2 9 3 17
q9 0 48 -1.5t76 -1.5q67 1 151 1q33 0 61.5 -7t55 -23.5t42 -48.5t15.5 -77q0 -54 -26.5 -98.5t-72.5 -70.5q-61 -34 -155 -35zM266 267q66 0 106 51.5t41 130.5q1 63 -26.5 94.5t-74.5 31.5q-14 0 -20 -3q-9 -5 -12 -18q-15 -71 -46 -278q0 -7 6 -7q14 -2 26 -2z" />
    <glyph glyph-name="Q" unicode="Q" horiz-adv-x="669" 
d="M309 6q49 0 80 31q117 114 117 383q0 174 -110 174q-59 0 -106.5 -63t-71 -153.5t-23.5 -184.5q0 -187 114 -187zM413 618q105 0 166 -62t61 -179q0 -72 -22 -142t-59 -118q-75 -97 -181 -124q12 -2 26.5 -8t24 -10.5t29.5 -15t29 -15.5q7 -4 27 -14t28.5 -14t25.5 -11.5
t28 -10.5t25.5 -6t28.5 -3q52 0 97 23q2 -1 4 -8t1 -10q-82 -83 -198 -83q-59 0 -118 42q-30 21 -73.5 57t-72.5 56q-22 14 -70 28q-160 40 -160 231q0 70 22.5 140.5t65.5 123.5q106 133 265 133z" />
    <glyph glyph-name="R" unicode="R" horiz-adv-x="579" 
d="M81 585q-1 2 0.5 9.5t2.5 8.5q9 0 62.5 -1.5t67.5 -1.5q37 -1 91.5 0t58.5 1q167 0 167 -134q0 -60 -39 -101t-104 -62q-4 -2 -2 -6q14 -38 58 -123t71 -119q18 -22 31.5 -30t42.5 -12q2 -2 1.5 -10t-4.5 -9q-140 -3 -178 18q-19 12 -38 40q-27 45 -93 201q-10 24 -29 24
h-11q-1 0 -3.5 -2t-2.5 -4q-6 -34 -29 -196q-3 -27 4 -38.5t25 -15.5q9 -2 40 -7q1 -2 -0.5 -9.5t-2.5 -8.5q-8 0 -53 1.5t-92 1.5l-135 -3q-2 2 -1 9t3 9q23 3 37 6q18 4 28 13.5t16 35.5q15 65 44.5 242t33.5 219q5 37 -19 45q-16 6 -49 9zM405 459q0 54 -26.5 85
t-70.5 31q-14 0 -20 -3q-7 -2 -10 -16q-2 -8 -41 -247q-2 -8 5 -8q51 -1 90 16q37 16 55 47.5t18 94.5z" />
    <glyph glyph-name="S" unicode="S" horiz-adv-x="457" 
d="M55 172q7 -61 19.5 -91t37.5 -49q34 -26 94 -26q45 0 72 24t27 69q0 36 -20.5 68.5t-72.5 76.5q-30 25 -46.5 40.5t-37.5 40t-31 50.5t-10 54q0 85 59.5 137t150.5 52q39 0 105 -11q31 -6 47 -6q-10 -27 -33 -137q-2 -2 -10 -2t-10 2q0 35 -1 50t-6 31t-16 26
q-26 25 -79 25q-45 0 -71.5 -29.5t-26.5 -71.5q0 -50 44 -94q17 -16 35 -31t39.5 -32t32.5 -26q40 -33 58 -65.5t18 -73.5q0 -86 -67 -138.5t-171 -52.5q-41 0 -84 11.5t-65 24.5q-5 12 -5 67.5t5 84.5q1 2 9 2.5t10 -0.5z" />
    <glyph glyph-name="T" unicode="T" horiz-adv-x="572" 
d="M97 15q37 4 54 8q18 4 27 18t17 53q14 69 43 245t36 227q0 6 -4 6q-37 2 -79 0q-32 -2 -54 -23q-28 -28 -65 -100q-2 -2 -9 1t-8 6q34 96 43 151q0 3 4 3q39 -10 87 -10h319q65 0 99 10q3 0 3 -7q-24 -57 -45 -154q-2 -3 -9.5 -3t-9.5 3q0 64 -6 90q-7 29 -40 32
q-72 5 -97 1q-6 -3 -7 -6q-7 -28 -38 -234t-36 -259q-2 -23 2.5 -34t19.5 -15q22 -6 59 -9q2 -1 0.5 -9t-3.5 -9q-28 0 -75 1.5t-75 1.5q-48 0 -99 -1.5t-56 -1.5q-1 1 0 9t2 9z" />
    <glyph glyph-name="U" unicode="U" horiz-adv-x="633" 
d="M72 585q-2 10 3 18q11 0 57 -1.5t73 -1.5q45 0 87 1.5t50 1.5q1 -3 0 -9.5t-2 -8.5l-34 -5q-34 -6 -42 -48q-12 -63 -45 -273q-9 -58 -9 -110q0 -55 34.5 -85t99.5 -30q70 0 110 34.5t61 131.5q42 196 54 311q4 34 -4.5 46.5t-33.5 18.5l-46 9q-3 1 -2 8.5t3 9.5
q10 0 48 -1.5t62 -1.5q19 0 61 1.5t47 1.5q1 -1 0 -9t-2 -9q-30 -5 -43 -9q-22 -7 -32.5 -20.5t-17.5 -47.5q-11 -51 -31 -158t-25 -131q-14 -73 -40.5 -122t-62.5 -73t-72 -33t-83 -9q-128 0 -181 65q-32 38 -30 108q0 25 9.5 90t23.5 153.5t20 128.5q5 44 -26 51
q-27 5 -39 7z" />
    <glyph glyph-name="V" unicode="V" horiz-adv-x="557" 
d="M42 585q-2 2 -0.5 9.5t3.5 8.5q13 0 59.5 -1.5t73.5 -1.5q74 0 128 3q1 -1 1 -9t-2 -9q-27 -4 -40 -8q-20 -6 -17 -38q26 -209 56 -398h3q28 45 105 186.5t98 185.5q24 51 -3 60q-21 7 -62 12q-1 2 0 9t3 9q3 0 45 -1.5t63 -1.5q40 0 72 2l31 1q1 -2 1 -9.5t-2 -8.5
q-5 -1 -18.5 -3t-20.5 -4q-23 -5 -37.5 -21t-45.5 -67q-21 -35 -94 -168t-104 -187q-23 -39 -78 -142q-10 1 -35 1q-5 0 -16.5 -0.5t-15.5 -0.5q-4 48 -14 126q-7 59 -16.5 126.5t-19.5 136t-14 94.5q-8 58 -17 76.5t-31 25.5q-16 4 -39 7z" />
    <glyph glyph-name="W" unicode="W" horiz-adv-x="778" 
d="M41 585q-1 3 -0.5 10t2.5 9q3 0 48 -2t85 -2q38 0 83 1.5t48 1.5q2 -2 1.5 -8.5t-3.5 -9.5q-35 -5 -48 -12q-13 -6 -13 -30q8 -124 29 -357q1 -1 3 -1q111 207 184 380q1 0 12 -1t19 -1q10 0 19.5 1t11.5 1q11 -119 57 -391q2 -2 4 0q106 207 162 339q1 2 4.5 12.5t4 15
t0.5 12.5t-5 12.5t-14 7.5q-10 3 -57 12q-2 2 -2 9.5t2 9.5q1 0 38.5 -2t73.5 -2q30 0 59 2t31 2q2 -2 2 -10.5t-3 -9.5q-23 -4 -39 -9q-16 -6 -26.5 -15.5t-14.5 -16.5t-16 -31q-107 -208 -251 -519q-2 0 -11.5 0.5t-18.5 0.5q-8 0 -17.5 -1t-12.5 0q-22 194 -58 392
q-2 2 -4 0q-98 -190 -195 -392q-1 0 -11 0.5t-19 0.5q-10 0 -20 -0.5t-11 -0.5q-27 381 -41 520q0 2 -1 11t-1.5 12t-2 10t-3 10.5t-4.5 8t-7 7t-9 4.5q-8 2 -44 9z" />
    <glyph glyph-name="X" unicode="X" horiz-adv-x="558" 
d="M-47 15q27 3 45 7q20 5 36 17t46 46q34 38 158 196q2 4 0 6q-6 15 -34.5 94t-40.5 108q-16 37 -27.5 55.5t-19 23.5t-24.5 10q-15 4 -42 7q-4 2 -2.5 9t4.5 9q15 0 62.5 -1.5t76.5 -1.5q74 0 131 3q2 -2 2 -9.5t-2 -9.5q-26 -4 -39 -8q-17 -5 -12 -21q3 -10 60 -174
q1 -5 4 0q89 107 121 167q13 21 -5 28q-12 4 -48 9q-3 4 -2.5 10t3.5 8q2 0 35 -1.5t58 -1.5q31 0 64 1.5t38 1.5q2 -3 2 -9t-2 -8q-16 -1 -38 -7q-24 -6 -40 -17.5t-46 -46.5q-45 -53 -127 -162q-1 -1 -1.5 -4.5t0.5 -4.5q71 -186 88 -226q22 -52 34.5 -69.5t35.5 -25.5
q12 -4 42 -8q3 -3 2.5 -9t-3.5 -9q-10 0 -57 1.5t-80 1.5q-39 0 -83 -1.5t-56 -1.5q-5 6 -1 18q38 6 49 11q10 5 7 17q-31 100 -74 206q-2 2 -4 0q-113 -146 -146 -198q-13 -23 21 -29l38 -7q2 -3 1.5 -9.5t-3.5 -7.5q-4 0 -22.5 0.5t-41 1t-40.5 0.5l-102 -3q-2 3 -1.5 10
t2.5 8z" />
    <glyph glyph-name="Y" unicode="Y" horiz-adv-x="490" 
d="M68 15q33 4 53 8q18 5 26 19.5t13 39.5q21 105 28 161q3 27 -2 48q-23 85 -68 212q-10 27 -16 41.5t-14 22t-12 8.5t-18 5q-7 2 -16.5 3t-13.5 2q-2 2 -0.5 9.5t3.5 8.5q15 0 57 -1.5t69 -1.5q84 0 135 3q2 -2 1.5 -9t-2.5 -9q-5 -1 -21 -4t-17 -3q-22 -5 -17 -25
q14 -66 73 -233q0 -1 1 -1t2 1q51 68 140 211q21 36 -5 45q-21 7 -41 9q-2 3 -1 10t4 8q1 0 36 -1.5t56 -1.5q29 0 61.5 1.5t36.5 1.5q2 -2 1.5 -9t-3.5 -9q-33 -5 -43 -8q-22 -6 -36.5 -18.5t-40.5 -48.5q-85 -114 -147 -213q-12 -19 -15 -36q-18 -106 -26 -181
q-4 -21 0 -37t22 -20q10 -3 52 -8q1 -3 0 -10t-4 -8q-7 0 -56.5 1.5t-98.5 1.5q-25 0 -68.5 -1.5t-69.5 -1.5q-2 3 -1 9.5t3 8.5z" />
    <glyph glyph-name="Z" unicode="Z" horiz-adv-x="542" 
d="M83 444q-2 -2 -10 2t-8 7q26 62 49 158q32 -11 87 -11h220q73 0 128 3q2 -4 -1 -14q-23 -37 -196 -288.5t-182 -265.5q-1 -1 -0.5 -3.5t1.5 -2.5q12 -1 96 -1.5t100 0.5q33 2 53 18q47 38 98 128q2 1 8.5 -3t7.5 -6q-9 -32 -29 -82.5t-40 -74.5q-9 -11 -56 -11
q-52 0 -164 1.5t-151 1.5q-10 0 -30 -0.5t-36.5 -1t-25.5 -1.5q-1 1 -1 7.5t1 8.5q39 43 190 260t201 294q3 5 -4 5q-115 0 -144 -1q-47 -1 -66.5 -9t-40.5 -32q-22 -26 -55 -86z" />
    <glyph glyph-name="bracketleft" unicode="[" horiz-adv-x="337" 
d="M220 716q-5 0 -7 -7q-16 -59 -73 -409q-54 -329 -59 -414q0 -9 10 -13q17 -5 138 -5q1 -6 -4.5 -21.5t-12.5 -15.5q-99 -2 -141 0q-29 2 -41 9q2 30 70 456t74 452q0 2 2 4t4 2h181q-4 -35 -15 -36q-29 -2 -126 -2z" />
    <glyph glyph-name="backslash" unicode="\" horiz-adv-x="377" 
d="M128 691q4 0 5 -1q29 -138 94.5 -430.5t86.5 -364.5q0 -3 -4 -5q-9 2 -24 10t-16 13q-7 23 -42 176.5t-76.5 337t-55.5 241.5q17 17 32 23z" />
    <glyph glyph-name="bracketright" unicode="]" horiz-adv-x="307" 
d="M299 753q8 0 11 -6q0 -18 -69 -457t-75 -454q-3 -6 -6 -6q-16 -2 -183 -2q-1 4 2.5 20t6.5 16q89 0 133 4q5 0 7 7q6 19 31 160.5t41 246.5q53 331 56 411q0 19 -7 20q-42 4 -133 4q-1 7 2 20.5t10 13.5q88 2 173 2z" />
    <glyph glyph-name="asciicircum" unicode="^" horiz-adv-x="372" 
d="M79 300q-10 -13 -40 -13q-10 0 -10 7q12 16 68 130.5t73 153.5q1 1 14 5t16 4q21 -49 74.5 -154.5t68.5 -126.5q-1 -5 -3 -7q-5 -4 -23 -9t-20 -3q-8 8 -33 55.5t-50.5 99.5t-29.5 59q-5 2 -6 0q-4 -9 -29 -62.5t-44.5 -92.5t-25.5 -46z" />
    <glyph glyph-name="underscore" unicode="_" horiz-adv-x="500" 
d="M557 -182v-51h-569v51h569z" />
    <glyph glyph-name="grave" unicode="`" horiz-adv-x="400" 
d="M166 582q-2 3 3 8q10 3 40 3t39 -3q8 -30 31 -155q-1 -2 -9 -4.5t-10 -1.5q-81 129 -94 153z" />
    <glyph glyph-name="a" unicode="a" horiz-adv-x="461" 
d="M438 110q3 -2 3 -3q0 -14 -4 -23q-30 -39 -77 -69.5t-74 -30.5q-42 0 -26 92l8 43q1 3 -2 3q-2 0 -3 -2q-97 -136 -173 -136q-28 0 -42.5 31t-14.5 67q0 143 94 236q31 31 87.5 58t113.5 27q64 0 109 -13q-14 -29 -21 -62q-33 -141 -40 -229q-2 -27 10 -27q17 0 52 38z
M177 69q17 0 44.5 31t50.5 77q13 25 24 80q16 72 20 96q-17 12 -51 12t-55.5 -18.5t-38.5 -69.5q-21 -60 -21 -139q0 -69 27 -69z" />
    <glyph glyph-name="b" unicode="b" horiz-adv-x="459" 
d="M375 403q28 0 42 -28.5t14 -76.5q0 -65 -27.5 -127.5t-79.5 -106.5q-93 -80 -191 -80q-43 0 -64.5 28.5t-20.5 79.5q0 17 3 42t6 42l3 16q61 333 69 386q2 19 -9 19q-18 0 -51 -17q-2 2 -1 9.5t3 9.5q121 75 168 75q22 0 11 -56q-9 -53 -32 -168.5t-33 -168.5q0 -3 2 -1
q44 52 96 87.5t92 35.5zM200 20q24 0 49 29q31 38 48.5 101t17.5 117q0 63 -31 63q-38 0 -87 -74q-40 -61 -40 -159q0 -77 43 -77z" />
    <glyph glyph-name="c" unicode="c" horiz-adv-x="342" 
d="M214 365q-26 0 -45.5 -52.5t-19.5 -145.5q0 -115 73 -115q51 0 101 61q4 0 4 -4q2 -12 -5 -23q-36 -48 -88 -75t-99 -27q-60 0 -84 49q-16 33 -16 84q0 57 22.5 119t71.5 103q74 62 152 62q37 0 58 -15q12 -9 12 -22q0 -11 -16.5 -37t-28.5 -32q-2 -1 -5.5 -1t-4.5 2
q-44 69 -82 69z" />
    <glyph glyph-name="d" unicode="d" horiz-adv-x="471" 
d="M33 97q0 59 21.5 124t65.5 109q25 25 77.5 48t96.5 23q20 0 34 -2q2 0 4 5q21 103 28 168q3 25 -9 26q-19 2 -59 -14q-1 3 0 10.5t3 9.5q40 24 96.5 47t80.5 23q19 -1 8 -63q-9 -53 -34.5 -189.5t-40.5 -222.5t-15 -107q0 -19 9 -19q18 0 56 38q2 -2 2 -3q3 -10 -3 -21
q-42 -52 -91.5 -83.5t-74.5 -31.5q-14 0 -19 21.5t2 57.5q2 16 5.5 36t4.5 30q0 5 -4 1q-38 -52 -90 -93t-93 -41q-28 0 -44.5 29.5t-16.5 83.5zM182 65q19 0 43.5 23t45.5 58q19 31 26 64q21 98 21 112q0 20 -8 30q-19 22 -55 22q-44 0 -73.5 -76t-29.5 -167q0 -66 30 -66z
" />
    <glyph glyph-name="e" unicode="e" horiz-adv-x="350" 
d="M214 368q-22 0 -42 -43t-27 -113q1 -3 3 -4q35 10 65 34q32 27 32 82q0 21 -9.5 32.5t-21.5 11.5zM281 402q30 0 46 -18.5t16 -43.5q0 -56 -85 -105q-48 -27 -110 -50q-4 0 -4 -5q-1 -6 -1 -11q0 -55 15.5 -84t54.5 -29q60 0 114 61q3 0 3 -4q0 -7 -4 -23
q-29 -43 -85 -74.5t-106 -31.5q-101 0 -101 134q0 64 22 122t57 92q26 26 77.5 48t90.5 22z" />
    <glyph glyph-name="f" unicode="f" horiz-adv-x="253" 
d="M30 350q-3 3 -1 6q2 7 13 19t15 14h43q4 0 4 4q33 148 157 238q60 43 106 43q42 0 42 -21q0 -11 -19.5 -37.5t-31.5 -37.5q-2 -2 -7 -3t-6 1q-40 40 -63 40q-19 0 -33 -46q-16 -58 -31 -175q0 -6 4 -6q54 0 90 6q2 -10 -5 -17q-31 -23 -65 -26q-18 -3 -28 -3q-4 -4 -4 -5
q-48 -310 -61 -368q-22 -100 -104 -170.5t-146 -70.5q-29 0 -44.5 10.5t-15.5 24.5q2 35 31 77q1 2 3 3t3.5 2t3.5 1.5t3 1.5q53 -69 93 -69q15 0 23.5 14.5t15.5 54.5q17 94 48 289t31 196q2 8 -3 8q-33 0 -61 2z" />
    <glyph glyph-name="g" unicode="g" horiz-adv-x="409" 
d="M465 389q1 -1 0.5 -7.5t-1.5 -8.5q-18 -38 -63 -52q-18 -4 -23 -4q1 -8 1 -23q-1 -55 -26.5 -102t-63.5 -71q-36 -24 -89 -35q-15 -3 -23 -3q-6 0 -13 -5t-7 -10q0 -11 26 -24q5 -3 8 -4q10 -5 35.5 -17.5t46 -23t39.5 -23.5q38 -25 52 -44.5t14 -49.5q0 -26 -22.5 -57
t-61.5 -56q-69 -45 -138 -45q-85 0 -137.5 34.5t-52.5 84.5q0 36 129 104q3 1 0 4q-42 31 -42 60q0 10 10 20q22 22 80 51q1 1 0.5 2.5t-1.5 1.5q-50 7 -73 37t-22 73q1 51 27.5 100t68.5 75q51 32 111 32q31 0 91 -24q33 -13 54 -13q37 0 66 23zM199 107q33 0 53 69.5
t20 135.5q0 70 -38 70q-32 0 -53.5 -65.5t-21.5 -129.5q0 -80 40 -80zM204 -236q83 0 83 49q0 36 -56 70q-84 52 -107 52q-17 0 -47 -24.5t-30 -46.5q0 -35 44.5 -67.5t112.5 -32.5z" />
    <glyph glyph-name="h" unicode="h" horiz-adv-x="469" 
d="M304 330q-18 0 -47.5 -29t-57.5 -76q-20 -34 -36 -93q-21 -78 -7 -100q-9 -10 -54.5 -30t-53.5 -20q-10 0 -12 10q-2 11 3 47q12 78 49 272t46 256q3 28 -9 28q-15 0 -54 -18q-1 2 0.5 10.5t2.5 9.5q45 30 95.5 53.5t75.5 23.5q19 0 9 -56q-47 -258 -70 -367q1 -2 5 1
q48 66 104 108.5t100 42.5q28 0 33 -32.5t-7 -85.5q-32 -178 -34 -197q0 -19 9 -19q15 0 49 34q3 -1 3 -3q2 -10 -2 -18q-25 -34 -73.5 -66t-79.5 -32q-37 0 -22 88q18 98 40 208q10 50 -5 50z" />
    <glyph glyph-name="i" unicode="i" horiz-adv-x="242" 
d="M216 110q3 -1 3 -2q0 -16 -2 -18q-36 -46 -79.5 -76t-69.5 -30q-38 0 -24 83q7 38 25 124.5t22 109.5q4 16 -5 16q-13 0 -50 -28q-2 0 -2 1q-1 2 -0.5 10t2.5 9q37 37 83 65.5t71 28.5q14 0 16.5 -27t-4.5 -54q-5 -25 -17 -80.5t-19 -92t-8 -56.5q-1 -21 8 -21
q15 0 50 38zM201 573q25 0 31 -11q7 -15 4 -32q-3 -34 -29 -54q-7 -4 -29 -7t-27 -1q-22 15 -22 43q0 27 11 40q24 22 61 22z" />
    <glyph glyph-name="j" unicode="j" horiz-adv-x="257" 
d="M-71 -276q-3 1 -5.5 7.5t-2.5 9.5q50 19 69.5 49t38.5 113q17 69 40.5 205t29.5 188q3 16 -7 16q-15 0 -58 -32q-3 3 -3 4q-1 3 1 11t3 9q52 45 100 72t71 27q28 0 9 -113q-12 -77 -43 -248q-31 -176 -111 -243q-66 -56 -132 -75zM201 573q25 0 31 -11q7 -15 4 -32
q-4 -35 -29 -54q-7 -4 -28 -7.5t-28 -0.5q-22 9 -22 41q0 29 12 43q23 21 60 21z" />
    <glyph glyph-name="k" unicode="k" horiz-adv-x="455" 
d="M244 674q21 0 10 -60q-13 -73 -38.5 -198t-39.5 -199q-1 -3 1 -3t3 1q3 4 26.5 32t36 42t37.5 39.5t42.5 39t39.5 24.5t40 11q38 0 48 -16q1 -1 1.5 -7t-0.5 -10q-3 -13 -22.5 -39t-26.5 -27q-31 24 -71 24q-22 0 -52 -28.5t-39 -45.5q-2 -3 1 -5q15 -9 40 -47
q37 -55 60.5 -84t33.5 -36t19 -7q26 0 57 41q3 0 3 -1q2 -3 2.5 -10.5t-0.5 -9.5q-70 -108 -134 -108q-30 0 -63 44q-10 14 -40 66t-40 65q-5 8 -12 -1q-4 -3 -9 -24q-2 -9 -9 -63q-2 -26 6 -46q-7 -9 -52.5 -27.5t-54.5 -18.5q-13 0 -13 29q0 24 21 133q5 28 25 128.5
t34.5 177.5t19.5 117q4 29 -10 29q-22 0 -50 -16q-1 2 0.5 10.5t2.5 9.5q112 74 166 74z" />
    <glyph glyph-name="l" unicode="l" horiz-adv-x="238" 
d="M69 579q-1 2 1 10.5t3 9.5q44 30 94 52.5t70 22.5q22 0 8 -71q-9 -53 -31.5 -177t-37.5 -211.5t-17 -114.5q-2 -30 11 -30q19 0 56 34q4 0 4 -4q0 -13 -4 -17q-29 -37 -75 -67.5t-79 -30.5q-40 0 -24 119q6 50 40 236.5t40 228.5q2 26 -8 26q-16 0 -51 -16z" />
    <glyph glyph-name="m" unicode="m" horiz-adv-x="695" 
d="M33 279q-2 0 -2 3q-2 9 4 21q46 50 88 75t64 25q29 0 10 -103q-6 -36 -9 -48l5 2q42 55 101 102t101 47q40 0 34 -75q-1 -19 -10 -73h4q36 51 95 99.5t103 48.5t26 -110q-4 -24 -19.5 -100.5t-17.5 -100.5q-2 -21 9 -21q18 0 49 35q3 -2 3 -3q0 -14 -3 -23
q-39 -47 -82.5 -71.5t-69.5 -24.5q-41 0 -18 104l39 195q8 40 -9 40t-43.5 -24.5t-53.5 -71.5q-28 -50 -47 -131q-11 -48 -5 -68q-9 -8 -51.5 -26t-55.5 -18q-1 0 -3 1.5t-4 5.5t-2 9q1 17 25 126t29 157q3 40 -13 40q-20 0 -52 -32.5t-52 -66.5q-31 -50 -43 -104
q-17 -73 -9 -91q-10 -7 -54.5 -26t-52.5 -19q-9 0 -9 16q0 9 9 56q42 202 46 228q2 5 1.5 16t-5.5 11q-12 0 -50 -32z" />
    <glyph glyph-name="n" unicode="n" horiz-adv-x="465" 
d="M35 280q-1 -1 -2 0t-1 2q-1 2 1 11.5t3 10.5q38 42 82 70.5t68 28.5q32 0 11 -104l-9 -46l1 -1h1q67 94 142 134q32 17 57 17q28 0 32.5 -36.5t-9.5 -100.5q-30 -152 -32 -180q-2 -17 7 -17q17 0 51 37q2 0 3 -2q3 -12 -3 -24q-33 -42 -79 -69t-74 -27q-37 0 -21 94
q5 28 19 92t22 103q11 53 -6 53q-19 0 -47.5 -28.5t-56.5 -76.5q-23 -39 -42 -125q-8 -35 -4 -67q-9 -9 -53 -27t-54 -18q-12 0 -7 30q3 19 27.5 136.5t26.5 141.5q3 20 -6 20q-13 0 -48 -32z" />
    <glyph glyph-name="o" unicode="o" horiz-adv-x="437" 
d="M285 403q120 0 120 -135q0 -78 -32 -148.5t-97 -104.5q-59 -31 -122 -31q-121 0 -121 138q0 68 26.5 132t76.5 99q73 50 149 50zM149 112q0 -102 46 -102q29 0 51 46t31.5 105.5t9.5 117.5q0 97 -46 97q-40 0 -66 -79.5t-26 -184.5z" />
    <glyph glyph-name="p" unicode="p" 
d="M225 18q22 0 34 10.5t24 33.5q17 33 28.5 91.5t11.5 105.5q0 69 -29 69q-32 0 -81 -74q-21 -33 -30 -64q-19 -56 -24 -125q0 -11 7 -20q22 -27 59 -27zM440 291q0 -64 -20.5 -124t-59.5 -98q-43 -40 -90.5 -61t-79.5 -21q-29 0 -42 5q-20 -117 -23 -176q-2 -23 3 -31.5
t22 -11.5q11 -2 43 -4q2 -1 1 -9t-4 -10q-91 1 -252 -22q-2 2 -2 9t2 8q29 7 36 10q23 7 31 40q9 38 39 212q43 262 47 296q2 17 -7 17q-16 0 -54 -32l-1 2q-1 2 -1 3q0 15 3 19q28 32 87.5 74.5t82.5 42.5q12 0 12 -25q0 -20 -20 -134q0 -1 1 -2t2 0q46 59 95.5 97t85.5 38
q27 0 45 -27t18 -85z" />
    <glyph glyph-name="q" unicode="q" horiz-adv-x="457" 
d="M401 -249q-179 -7 -255 -26q-2 1 -2.5 8.5t1.5 9.5q31 8 53 19q18 9 24 38q9 39 29 159t26 152h-2q-47 -63 -96.5 -95t-83.5 -32q-33 0 -47.5 31.5t-14.5 76.5q0 58 20 120.5t58 102.5q27 29 86.5 58.5t110.5 29.5q54 0 126 -18q-8 -19 -18 -62q-14 -69 -42 -259
t-33 -256q0 -28 17 -34q11 -4 45 -7q1 -1 0 -8t-2 -8zM186 68q18 0 41 19t42 54q14 28 20 51q17 70 23 148q0 9 -5 13q-20 16 -58 16q-33 0 -56 -40q-18 -30 -29.5 -85t-11.5 -96q0 -80 34 -80z" />
    <glyph glyph-name="r" unicode="r" horiz-adv-x="322" 
d="M178 245q37 72 66 108q39 50 72 50q13 0 24.5 -8t16.5 -19v-11q0 -19 -18.5 -49.5t-31.5 -43.5q-4 -4 -9 -2q-33 31 -51 31q-23 0 -56 -74q-22 -49 -37 -115q-14 -60 -8 -83q-3 -6 -49 -25t-57 -20q-3 0 -6.5 4.5t-2.5 12.5q3 21 26.5 133.5t27.5 144.5q3 35 -4 35
q-18 0 -50 -29l-2 2q-4 6 3 20q40 40 83.5 68t64.5 28q25 0 9 -92q-2 -10 -7 -34.5t-6 -31.5h2z" />
    <glyph glyph-name="s" unicode="s" horiz-adv-x="311" 
d="M225 403q52 0 62 -26q0 -8 -1 -12q-4 -12 -18 -32.5t-25 -28.5q-1 -1 -5.5 -1.5t-5.5 0.5q-38 55 -76 55q-19 0 -29 -10.5t-10 -25.5q0 -17 17.5 -36.5t67.5 -53.5q41 -28 56.5 -49t15.5 -48q0 -62 -82 -114q-59 -37 -118 -37q-40 0 -64 19q-16 13 -16 28q0 7 12.5 37
t24.5 45q2 2 7 3t6 -2q11 -43 40.5 -66.5t56.5 -23.5q22 0 34 10t12 26q0 18 -13.5 34.5t-64.5 54.5q-64 49 -64 94q0 59 54 106q27 25 62.5 39.5t63.5 14.5z" />
    <glyph glyph-name="t" unicode="t" horiz-adv-x="281" 
d="M208 343q-34 -203 -37 -232q-3 -43 14 -43q31 0 78 59q4 0 4 -3q0 -11 -4 -23q-25 -39 -78 -78t-95 -39q-49 0 -36 102q7 57 46 256q0 4 -2 4q-48 0 -62 2q-1 1 -1 3t1 3q6 8 22 21.5t21 13.5h26q5 0 5 5q18 79 27 94q6 10 43.5 34.5t73.5 36.5q2 1 4 -3.5t1 -5.5
q-13 -19 -21 -55q-9 -37 -21 -102q0 -5 3 -5q78 0 96 9q1 -1 1 -6t-1 -6q-5 -9 -21 -19t-28 -12q-20 -4 -55 -6q-4 0 -4 -5z" />
    <glyph glyph-name="u" unicode="u" horiz-adv-x="462" 
d="M93 292q3 21 -4 21q-17 0 -52 -28q-1 -1 -2 0t-1 2q-3 10 4 20q41 41 85.5 68.5t68.5 27.5q29 0 8 -115q-36 -189 -36 -190q-4 -32 13 -32q16 0 42 24t52 69q7 11 18 48q21 100 26 119t11 29q7 7 49.5 26.5t61.5 21.5q4 -4 4 -10q-8 -10 -17 -50q-39 -172 -44 -244
q-2 -28 10 -28q15 0 47 37q1 0 3 -2q3 -5 -3 -24q-31 -42 -76 -70t-73 -28q-38 0 -26 72l5 32.5t5 29.5q0 1 -1.5 1t-2.5 -1q-32 -45 -80 -87q-55 -47 -101 -47q-52 0 -37 98q2 10 43 210z" />
    <glyph glyph-name="v" unicode="v" horiz-adv-x="390" 
d="M304 286q0 34 -28 69q-5 5 4 13q17 12 42.5 23.5t36.5 11.5q10 0 17 -18.5t7 -43.5q0 -93 -73 -185q-47 -58 -101 -105.5t-91 -66.5q-8 -3 -21 1q-6 12 -8.5 20.5t-5 32.5t-3.5 67q-1 25 0 101l1 77q0 30 -9 30q-11 0 -43 -25l-2 2q-1 3 -2 8.5t0 6.5q30 36 70 65
q47 33 68 33q27 0 27 -98q0 -19 -0.5 -87t-0.5 -87q0 -44 6 -53q3 -4 7 0q45 38 75 93.5t27 114.5z" />
    <glyph glyph-name="w" unicode="w" horiz-adv-x="581" 
d="M416 86q47 56 72 115t25 104q0 20 -10.5 31.5t-42.5 14.5q-2 5 3 15q70 37 102 37q6 0 11.5 -11.5t5.5 -27.5q1 -46 -23 -102q-29 -66 -93 -150t-117 -123q-3 -1 -26 -5q-8 10 -15.5 38.5t-12 55t-10 66t-7.5 49.5h-4q-30 -53 -88 -123.5t-84 -84.5q-2 -1 -9.5 -1.5
t-8.5 0.5q-8 18 -5 128q4 136 3 165q-2 35 -13 35q-16 0 -52 -36q-3 0 -3 4q0 11 4 19q39 45 80.5 74.5t66.5 29.5q19 0 23.5 -25t3.5 -70q0 -13 -2 -62.5t-3 -77.5q0 -46 3 -50q2 -2 4 0q38 40 102 165l32 60q16 9 44 9q16 -228 39 -266q3 -2 5 0z" />
    <glyph glyph-name="x" unicode="x" horiz-adv-x="437" 
d="M53 254h-3q-9 12 -6 17q21 41 63.5 86.5t77.5 45.5q23 0 42 -45q11 -24 33 -95q2 -5 5 -1q46 66 63 86q46 55 82 55q25 0 25 -37q0 -23 -11 -55.5t-22 -46.5q-5 -4 -17 -2q0 69 -26 69q-22 0 -87 -94q-2 -3 -1 -7q40 -120 53 -139q10 -16 22 -16q21 0 62 60q0 3 4 1l2 -2
q1 -3 -1 -16.5t-3 -14.5q-31 -57 -71 -88t-65 -31q-17 0 -29.5 10t-27.5 43q-9 21 -34 101q-1 3 -3 1q-56 -86 -89 -120q-32 -35 -62 -35q-27 0 -28 38q-3 56 42 121q2 4 9 3t7 -4q-4 -26 -1 -42t8.5 -23t13.5 -7q18 0 51 39q22 24 40 54q5 7 2 13q-14 45 -36 103
q-13 31 -24 31q-18 0 -60 -56z" />
    <glyph glyph-name="y" unicode="y" horiz-adv-x="394" 
d="M149 402q33 0 54 -101q20 -93 30 -237q0 -4 3 0q39 67 51 106t14 81q0 45 -21 92q-1 2 0.5 6.5t4.5 7.5q58 48 78 48q8 0 14 -18.5t5 -33.5q-2 -61 -37 -138q-56 -119 -131.5 -231t-133.5 -169q-81 -80 -123 -80q-22 0 -22 13q0 8 26.5 57t32.5 56q7 7 13 5
q31 -18 57 -18q14 0 28 13.5t36 47.5q10 16 10 44q2 46 -12 142t-30 157q-14 51 -30 51q-18 0 -53 -42q-2 -1 -4 1q0 23 3 28q27 43 67 77.5t70 34.5z" />
    <glyph glyph-name="z" unicode="z" horiz-adv-x="416" 
d="M331 365q15 0 31 9t24.5 16.5t23.5 23.5q1 1 2.5 0.5t2.5 -2.5q0 -3 -0.5 -9.5t-1.5 -12.5l-1 -5q-5 -10 -114 -113l-171 -161q-1 -1 -1 -3t1 -2q50 -7 85 -19q68 -23 91 -23q31 0 54 18.5t49 64.5q4 2 5 -1q6 -16 3 -21q-25 -50 -78 -102t-108 -52q-26 0 -96 33
q-48 24 -69 24q-11 0 -21.5 -5.5t-17 -11.5t-13.5 -13.5t-8 -8.5q-3 -4 -6 -1q-3 2 -3.5 14t1.5 14q17 25 90 90q10 9 96.5 90t89.5 84q5 5 -1 5q-27 -6 -83 4q-60 10 -74 10q-41 0 -71 -46q-2 -2 -4 -1q-4 1 -7 6.5t-2 7.5q4 10 35 59.5t40 60.5q15 17 34 17q17 0 83 -17
q78 -21 110 -21z" />
    <glyph glyph-name="braceleft" unicode="{" horiz-adv-x="381" 
d="M59 299q24 1 42 6.5t30 10.5t21.5 20.5t14 23t9 31t5.5 31.5t4 38q1 6 4.5 45t4.5 46q24 189 237 208q2 -1 3.5 -9t-0.5 -9q-78 -11 -113 -49t-43 -103q-3 -20 -7 -78t-8 -86q-18 -110 -152 -136v-3q51 -5 80 -29t35 -49.5t2 -52.5q-5 -32 -20.5 -93.5t-19.5 -82.5
q-10 -65 22 -95t97 -38q0 -2 -6.5 -9t-8.5 -8q-83 -1 -136 42t-42 119q4 36 19 95q29 100 14.5 142t-96.5 53q0 3 3 11t5 8z" />
    <glyph glyph-name="bar" unicode="|" horiz-adv-x="248" 
d="M92 710h64v-1020h-64v1020z" />
    <glyph glyph-name="braceright" unicode="}" horiz-adv-x="374" 
d="M353 278q-41 -1 -67.5 -13t-39 -36t-17.5 -49t-6 -64q-4 -64 -6 -80q-29 -189 -238 -208q-2 1 -3.5 8.5t-0.5 9.5q79 11 113.5 48.5t42.5 101.5q3 20 6.5 71t7.5 79q3 19 11 38t24 41.5t46 39.5t70 24q2 1 0 3q-51 5 -79.5 28.5t-34.5 48.5t-2 52q5 32 21.5 98.5
t20.5 88.5q11 66 -18 96t-92 37q-1 2 1 9t4 8q82 1 134.5 -40.5t44.5 -117.5q-3 -27 -18 -98q-2 -9 -7 -31t-6.5 -30.5t-4.5 -27t-2.5 -26t1.5 -22t6 -21t12.5 -16t18.5 -14.5t27 -10t36 -7q0 -17 -6 -19z" />
    <glyph glyph-name="asciitilde" unicode="~" horiz-adv-x="460" 
d="M170 274q28 0 83 -26q44 -21 67 -21q49 0 96 54h2q2 0 5 -1t3 -2q0 -17 -6 -32q-14 -25 -49.5 -49t-74.5 -24q-26 0 -84 30q-39 18 -68 18q-21 0 -52 -19.5t-47 -36.5q-4 -4 -7 4q0 21 9 35q18 23 57.5 46.5t65.5 23.5z" />
    <glyph glyph-name="uni00A0" unicode="&#xa0;" horiz-adv-x="155" 
 />
    <glyph glyph-name="exclamdown" unicode="&#xa1;" horiz-adv-x="244" 
d="M5 -202q-20 0 -30 10q0 10 55.5 174t74.5 207q12 10 21 10q5 0 8 -3q2 -15 3.5 -162.5t-0.5 -186.5q1 -6 -7 -18t-18 -15q-22 -8 -56 -13t-51 -3zM128 270q-23 0 -41 16q-15 17 -15 47q0 33 23 53q21 20 54 20q23 0 40 -18q13 -18 13 -39q0 -35 -23 -58q-21 -21 -51 -21z
" />
    <glyph glyph-name="cent" unicode="&#xa2;" horiz-adv-x="484" 
d="M356 477q-3 1 -5 -3l-61 -306q9 -3 28 -3q74 2 119 40q2 -2 3 -9.5t-1 -8.5q-57 -67 -159 -88q-2 0 -5 -5l-16 -75q-12 -6 -24 -8q-2 0 -4 2l18 81q0 4 -3 4q-82 0 -130 62q-32 44 -30 108q0 59 32.5 114.5t93.5 84.5q51 27 121 33l14 70q6 4 23 8q4 0 5 -1l-17 -76
q46 0 78 -12q28 -14 31 -26q0 -11 -4 -18q-15 -25 -35 -34h-7q-31 54 -65 66zM266 176l61 300q0 3 -3 3q-54 -3 -86.5 -53.5t-32.5 -124.5q0 -100 61 -125z" />
    <glyph glyph-name="sterling" unicode="&#xa3;" horiz-adv-x="484" 
d="M115 302q8 72 23 120.5t50 87.5q75 83 171 83q29 0 49.5 -5.5t28.5 -12.5t8 -15t-11 -29.5t-23 -34.5h-11q-47 68 -88 68q-21 0 -34 -27q-11 -24 -22 -126.5t-11 -104.5q0 -4 4 -4q69 0 111 3q0 -11 -3 -14q-10 -13 -37 -18q-25 -4 -79 -4q-2 0 -4 -4q-27 -106 -117 -164
q39 6 112 -4q75 -12 101 -12q41 0 63 14t47 65h3q7 -4 10 -15q-71 -174 -173 -174q-36 0 -102 18q-87 23 -108 23q-40 0 -73 -32q-9 3 -11 8q3 12 16 41.5t17 32.5q14 10 46 26q37 17 45 178q-53 0 -74 1v6q4 12 15 26z" />
    <glyph glyph-name="currency" unicode="&#xa4;" horiz-adv-x="484" 
d="M285 453q42 0 79 -24q4 -2 6 0q42 43 54 50q6 3 39 3q2 -2 2 -7q-1 -1 -72 -77q22 -46 18 -97q-5 -58 -42 -105q-3 -5 -1 -10q44 -57 61 -74q0 -7 -6 -13q-44 -7 -57 1q-22 17 -48 51q-42 -31 -95 -31q-51 0 -89 33q-35 -28 -72 -67q-1 -1 -4 -0.5t-4 1.5q0 37 6 42
q10 12 26 28.5t22 23.5l1 6q-18 46 -14 87q7 62 39 102q-28 37 -44 56q0 1 -0.5 5t-0.5 7q1 4 10.5 22t14.5 24q1 1 6.5 1t6.5 -1q48 -64 51 -67q2 -3 8 0q41 30 99 30zM254 408q-43 0 -68 -31.5t-30 -79.5q-5 -62 24 -94.5t74 -32.5q85 0 95 110q5 53 -21.5 90.5
t-73.5 37.5z" />
    <glyph glyph-name="yen" unicode="&#xa5;" horiz-adv-x="484" 
d="M300 185q-4 0 -4 -4l-15 -102q-7 -50 23 -57q14 -3 40 -7q0 -13 -5 -18q-27 0 -69 1.5t-71 1.5q-25 0 -60 -1.5t-61 -1.5q-2 1 -0.5 9t3.5 9q27 3 40 6q30 7 38 60q11 49 19 101q0 3 -2 3q-61 -1 -73 -1q0 18 9 25q3 0 7 -0.5t18.5 -0.5h42.5q3 2 3 3l9 55q0 7 -4 7
q-36 -1 -72 -1q3 19 10 25q2 0 11 -0.5t24 -0.5h31q3 0 3 5q-7 42 -54 203q-10 31 -19 42.5t-26 16.5q-19 4 -24 4q-2 3 -0.5 9.5t3.5 8.5q15 0 50.5 -1.5t62.5 -1.5q62 0 110 3q1 -2 1 -9t-2 -9q-5 -1 -16 -4t-13 -3q-16 -5 -11 -27q17 -80 48 -193q1 -3 4 0
q73 116 102 180q16 32 -14 40q-20 6 -35 7q0 12 3 18q2 0 35.5 -2t54.5 -2q19 0 46.5 2t36.5 2q1 -1 0 -8.5t-2 -9.5q-24 -3 -31 -6q-21 -5 -37.5 -20t-37.5 -48q-11 -19 -40 -65t-49 -79.5t-27 -47.5q-2 -5 3 -5q24 0 47 0.5t25 0.5q-6 -20 -8 -24q-2 0 -24 0.5t-44 0.5
q-3 -2 -4 -4l-9 -58q0 -4 2 -4q27 0 49 0.5t24 0.5q-4 -21 -8 -25q-2 0 -24 0.5t-43 0.5z" />
    <glyph glyph-name="brokenbar" unicode="&#xa6;" horiz-adv-x="249" 
d="M91 631h66v-348h-66v348zM91 127h66v-355h-66v355z" />
    <glyph glyph-name="section" unicode="&#xa7;" horiz-adv-x="435" 
d="M270 495q-19 0 -19 -42q2 -24 9 -45q14 -37 72 -150q39 -72 37 -133q0 -80 -45 -141q-39 -52 -87.5 -82.5t-85.5 -30.5q-69 0 -107 43q-9 14 -8 25q1 5 9.5 22.5t12.5 23.5q1 0 2.5 0.5t2.5 0.5q24 -33 58.5 -51t52.5 -18q17 0 17 30q-1 26 -15 51q-10 24 -54 106
q-51 99 -51 178q0 56 23 107.5t59 86.5q26 26 65 45.5t68 19.5q56 0 91 -35q11 -13 8 -26q-1 -17 -22 -36l-5 -2q-13 13 -43.5 33t-44.5 20zM221 -82q89 37 89 162q0 59 -49 159q-3 5 -15.5 30t-17.5 37t-13.5 34t-12 40t-3.5 36q0 45 24 81q-44 -6 -70 -54t-26 -106
q-1 -73 45 -169q2 -3 19 -37t24.5 -50.5t16.5 -44t9 -46.5q0 -48 -20 -72z" />
    <glyph glyph-name="dieresis" unicode="&#xa8;" horiz-adv-x="400" 
d="M191 562q25 0 31 -13q6 -16 3 -31q-4 -27 -28 -45q-6 -4 -27.5 -5.5t-26.5 0.5q-23 16 -21 37q0 26 10 38q7 7 26.5 13t32.5 6zM344 562q21 0 31 -13q1 -6 2 -16.5t0 -14.5q-5 -28 -28 -45q-6 -4 -27.5 -5.5t-26.5 0.5q-21 14 -21 37q0 27 11 38q7 7 26.5 13t32.5 6z" />
    <glyph glyph-name="copyright" unicode="&#xa9;" horiz-adv-x="697" 
d="M359 619q128 0 213 -89.5t85 -219.5t-87 -220.5t-211 -90.5q-126 0 -212.5 88.5t-86.5 222.5q0 129 87 219t212 90zM357 598q-113 0 -191.5 -83.5t-78.5 -204.5q0 -120 81 -203.5t195 -83.5q111 0 189 84t78 203q0 120 -80.5 204t-192.5 84zM392 474q-54 0 -80.5 -44
t-26.5 -115q0 -42 9 -76.5t35.5 -61.5t68.5 -27q49 0 96 68q1 0 6 -3.5t6 -4.5q-5 -18 -22.5 -43.5t-24.5 -30.5q-43 -12 -87 -12q-93 0 -143 46t-50 135q0 78 55 133t154 55q29 0 69 -5q19 -3 45 -4q-8 -66 -9 -96q-2 -1 -8.5 -1t-6.5 1q-7 54 -30 70q-22 16 -56 16z" />
    <glyph glyph-name="ordfeminine" unicode="&#xaa;" horiz-adv-x="312" 
d="M328 318q2 0 2 -1q0 -13 -2 -17q-18 -28 -55.5 -49.5t-59.5 -21.5q-29 0 -18 65q0 2 1 9t2 12q0 4 -4 0q-65 -86 -110 -86q-21 0 -31 21t-10 46q0 83 61 143q20 20 63.5 40.5t78.5 20.5q49 0 75 -9q-8 -17 -13 -40q-20 -85 -24 -141q-2 -18 6 -18q13 0 38 26zM146 295
q25 0 56 60q10 20 18 52q10 35 13 59q-10 7 -31 7q-40 0 -60 -57q-13 -38 -13 -80q0 -41 17 -41z" />
    <glyph glyph-name="guillemotleft" unicode="&#xab;" horiz-adv-x="600" 
d="M162 182q22 -14 68 -56.5t66 -67.5q1 -1 -1 -11t-3 -14q0 -1 -0.5 -1t-0.5 -1q-19 20 -103.5 75t-128.5 73q0 1 5 11q75 28 164 77t121 71l2 -3q-1 -1 -3.5 -10t-3.5 -10q-24 -22 -83.5 -64.5t-97.5 -64.5zM364 182q22 -14 67.5 -56t67.5 -68q1 -1 -1 -11t-3 -14
q0 -1 -0.5 -1t-0.5 -1q-20 21 -104.5 75.5t-128.5 72.5q0 1 1.5 3t2.5 4l2 4q130 47 285 148v-1q1 -1 1 -2l-3 -9q-2 -10 -3 -11q-26 -23 -85 -65.5t-97 -63.5z" />
    <glyph glyph-name="logicalnot" unicode="&#xac;" horiz-adv-x="460" 
d="M74 259q-30 0 -30 5q9 38 15 46q14 -3 160 -3h67.5t51 0.5t33.5 0.5h21.5h8.5t3 -2.5t2 -3.5q0 -5 -0.5 -67t-0.5 -93q0 -55 2 -77q-29 -9 -46 -9q-1 0 -3.5 2.5t-2.5 3.5v172q0 25 -14 25h-267z" />
    <glyph glyph-name="uni00AD" unicode="&#xad;" horiz-adv-x="280" 
d="M59 235q99 -1 190 5q2 -4 0 -13q-1 -8 -13.5 -29.5t-16.5 -23.5q-29 -10 -188 -10q-2 4 -2 11q3 13 14.5 36.5t15.5 23.5z" />
    <glyph glyph-name="registered" unicode="&#xae;" horiz-adv-x="214" 
d="M152 588q41 0 69.5 -29t28.5 -70t-28.5 -70t-69.5 -29t-69.5 28.5t-28.5 70.5q0 41 29 70t69 29zM152 574q-36 0 -58 -24.5t-22 -60.5q0 -35 23.5 -60t56.5 -25q37 0 59.5 24.5t22.5 60.5q0 35 -24 60t-58 25zM103 446q-1 4 0 6q13 2 13 10v63q0 8 -13 9q-1 1 -0.5 3.5
t1.5 2.5h59q29 0 29 -25q0 -16 -19 -21q15 -25 21 -32q8 -10 19 -11q0 -5 -1 -6q-24 0 -32 2q-10 2 -14 10q-3 5 -8 14t-7 12q-3 6 -7 6v-26q0 -6 2 -7t11 -3q2 -2 0 -7q-2 0 -12.5 0.5t-14.5 0.5q-5 0 -15.5 -0.5t-11.5 -0.5zM144 495q11 0 15 2q7 3 7 15q0 21 -18 21
q-4 0 -4 -5v-33z" />
    <glyph glyph-name="macron" unicode="&#xaf;" horiz-adv-x="400" 
d="M160 539q18 -2 50 -2q147 0 156 3q-1 -11 -12 -31.5t-14 -21.5q-30 -6 -168 -6l-35 2q9 34 23 56z" />
    <glyph glyph-name="degree" unicode="&#xb0;" horiz-adv-x="270" 
d="M120 591q48 0 75 -32t27 -81q0 -46 -31 -77t-74 -31q-45 0 -75.5 29t-30.5 77q0 54 31.5 84.5t77.5 30.5zM115 546q-27 0 -45.5 -18.5t-18.5 -44.5q0 -34 20 -51t48 -17q64 0 64 62q0 28 -18 48.5t-50 20.5z" />
    <glyph glyph-name="plusminus" unicode="&#xb1;" horiz-adv-x="460" 
d="M425 320q-1 -7 -7.5 -22t-10.5 -16q-4 0 -29 -0.5t-63 -1t-60 -0.5q-5 0 -5 -4v-148q0 -4 -15.5 -10t-23.5 -7q-7 0 -7 3q0 83 -1 166h-165q-2 0 -2 8q4 24 10 42q8 -3 102 -3h55v57q0 69 -2 93q25 11 45 11q4 0 4 -30v-125q0 -6 5 -6h168q2 -4 2 -7zM411 31l-375 -3v9
q6 32 10 41q4 -1 97 -1h281v-10q-9 -35 -13 -36z" />
    <glyph glyph-name="two.k" unicode="&#xb2;" horiz-adv-x="323" 
d="M309 648q0 -40 -20.5 -69t-70.5 -68q-13 -10 -59 -43q-2 -2 1 -2q36 -2 109 0q28 0 53 41q2 1 7 -2.5t5 -5.5q-20 -55 -47 -101q-12 -15 -30 -15q-28 -1 -90 0.5t-85 1.5q-6 0 -23.5 -0.5t-24.5 -0.5q-1 1 1 9.5t4 10.5q83 54 120 90q54 54 54 119q0 26 -16.5 44
t-44.5 18q-38 0 -74 -35q-1 -1 -3 2t-3.5 6.5t-1.5 4.5q68 89 146 89q41 0 67 -27t26 -67z" />
    <glyph glyph-name="three.k" unicode="&#xb3;" horiz-adv-x="323" 
d="M225 742q35 0 57.5 -20.5t22.5 -51.5q0 -49 -67 -83q-3 -2 -2 -3q75 -23 75 -85q0 -57 -56.5 -94t-120.5 -37q-35 0 -61 11q-18 10 -21 21q-3 12 -3.5 31.5t1.5 26.5q0 4 12 4q10 -43 39 -61q26 -14 50 -14q66 0 66 79q0 33 -18 55t-49 22q-7 0 -18 -1q-1 3 4.5 12.5
t8.5 11.5q51 11 66 21t15 40q0 26 -15 43t-42 17q-33 0 -69 -33q-1 0 -4 6t-2 8q64 74 131 74z" />
    <glyph glyph-name="acute" unicode="&#xb4;" horiz-adv-x="400" 
d="M371 585q2 -1 3 -4.5t0 -5.5q-9 -11 -40 -38.5t-72 -62.5t-49 -42q-3 -1 -8 3t-5 8q19 29 49 76.5t35 55.5q6 4 42 8t45 2z" />
    <glyph glyph-name="mu" unicode="&#xb5;" horiz-adv-x="449" 
d="M425 83q-30 -49 -69 -74t-67 -25q-54 0 -38 95l5 30q0 1 -1.5 1t-2.5 -1q-77 -125 -144 -125q-26 0 -40 22q-21 -71 -21 -117q0 -73 112 -113q1 -2 -1 -8t-4 -7q-12 -13 -44.5 -25t-58.5 -12q-5 0 -9 2t-11 8.5t-11 20t-7 37t0 57.5q6 86 32 249q39 248 48 260
q9 13 53 28t63 17q2 0 4 -4t1 -6q-9 -5 -31.5 -119.5t-27.5 -168.5q-3 -39 20 -39q39 0 86 101q9 19 18 51q6 26 10 44.5t7 32.5t5.5 23.5t3.5 14.5t3 9.5t2 5.5t2.5 4t2.5 4q7 7 51 26t63 21q4 -2 4 -10q-14 -16 -21 -48q-44 -185 -46 -254q0 -21 11 -21q18 0 46 35
q1 0 3 -2q1 -2 1 -10t-2 -10z" />
    <glyph glyph-name="paragraph" unicode="&#xb6;" horiz-adv-x="533" 
d="M560 588q-26 -3 -39 -6q-15 -4 -19 -5t-15 -11.5t-16.5 -28.5t-14 -53.5t-16.5 -89.5q-5 -28 -16.5 -104.5t-22 -142t-17.5 -104.5q-12 -64 -32 -112.5t-41 -74.5t-46 -41.5t-42.5 -20t-34.5 -4.5q-28 0 -51.5 16.5t-30.5 40.5q-7 28 3 69q2 2 10 8q36 -74 106 -74
q28 0 47 10t31.5 28t22.5 54.5t17 75.5t18 106q1 9 2 14q-50 -20 -91 -21q-93 11 -140 72t-47 147q0 110 72.5 175.5t178.5 77.5q26 3 227 18q5 -8 -3 -19zM285 307q-3 -129 79 -151q32 218 50 314q15 72 31 99q-75 -4 -116 -76t-44 -186z" />
    <glyph glyph-name="periodcentered" unicode="&#xb7;" horiz-adv-x="187" 
d="M107 256q24 0 41 -15q15 -17 15 -48q0 -33 -24 -54q-20 -19 -51 -19q-25 0 -42 18q-13 18 -13 39q0 35 23 58q21 21 51 21z" />
    <glyph glyph-name="cedilla" unicode="&#xb8;" horiz-adv-x="399" 
d="M174 11h19l-33 -44q-2 -2 1 -5q12 -5 36 -23q23 -18 23 -46q0 -37 -36 -63.5t-64 -26.5q-29 0 -48 28q-3 11 4 16q31 -17 59 -17q36 0 36 31q0 36 -70 57q0 5 1 8q61 72 72 85z" />
    <glyph glyph-name="one.k" unicode="&#xb9;" horiz-adv-x="323" 
d="M277 398q1 -3 -0.5 -8.5t-3.5 -6.5q-19 0 -57 1t-57 1t-49 -1t-48 -1q-2 2 -1 8t3 7l31 5q10 2 16 9t8.5 12.5t5.5 18.5q17 87 22 117q15 83 18 110q2 22 -13 25l-29 5q-1 2 0 7t3 6q75 4 143 29q5 0 5 -4q-5 -20 -18 -97q-10 -63 -30 -201q-5 -32 15 -37q11 -3 36 -5z
" />
    <glyph glyph-name="ordmasculine" unicode="&#xba;" horiz-adv-x="310" 
d="M226 500q45 0 67 -25t22 -65q0 -112 -88 -159q-44 -22 -89 -22q-42 0 -64.5 24t-22.5 67q0 97 71 148q47 32 104 32zM197 481q-23 0 -39.5 -50.5t-16.5 -117.5q0 -64 28 -64q27 0 41 50.5t14 117.5q0 64 -27 64z" />
    <glyph glyph-name="guillemotright" unicode="&#xbb;" horiz-adv-x="600" 
d="M429 187q-22 14 -68 56.5t-66 67.5q-1 1 1 11t3 14l1 1v1q19 -20 103.5 -75t128.5 -73q0 -1 -5 -11q-75 -28 -164 -77t-121 -71l-2 3q1 1 3.5 10t3.5 10q24 22 83.5 64.5t97.5 64.5zM227 187q-22 14 -67.5 56t-67.5 68q-1 1 1 11t3 14v1l1 1q20 -21 104.5 -75.5
t128.5 -72.5q0 -1 -1.5 -3t-2.5 -4l-2 -4q-130 -47 -285 -148q0 1 -1 3l2 10q3 9 4 10q26 23 85 65.5t97 63.5z" />
    <glyph glyph-name="onequarter" unicode="&#xbc;" horiz-adv-x="710" 
d="M665 106l-58 -1l-3 -3l-16 -112q-37 0 -97 -9l20 120q1 1 0.5 2t-1.5 1l-140 -1q3 17 8 26q181 195 206 219q4 2 29.5 5.5t29.5 3.5q-9 -45 -32 -206q0 -4 3 -4l63 3q-8 -23 -12 -44zM277 250q1 -3 -0.5 -8.5t-3.5 -6.5q-19 0 -57 1t-57 1t-49 -1t-48 -1q-2 2 -1 8t3 7
l31 5q10 2 16 9t8.5 12.5t5.5 18.5q17 87 22 117q15 83 18 110q2 22 -13 25l-29 5q-1 2 0 7t3 6q75 4 143 29q5 0 5 -4q-5 -20 -18 -97q-10 -63 -30 -201q-5 -32 15 -37q11 -3 36 -5zM603 609q1 1 11 -1t14 -3v-2q-9 -9 -234.5 -319.5t-244.5 -332.5l-2 -1q-3 3 -7 10.5
t-3 8.5q6 10 234 323.5t232 316.5zM516 144l3 3l23 129q0 1 -2 0q-27 -25 -118 -131l-1 -3z" />
    <glyph glyph-name="onehalf" unicode="&#xbd;" horiz-adv-x="710" 
d="M649 263q0 -39 -20.5 -68.5t-70.5 -68.5q-13 -10 -59 -43q-2 -2 1 -2q36 -2 109 0q28 0 53 41q2 1 7 -2.5t5 -5.5q-20 -54 -47 -101q-12 -15 -30 -15q-28 -1 -90 0.5t-85 1.5q-6 0 -23.5 -0.5t-24.5 -0.5q-1 1 1 9.5t4 10.5q83 54 120 90q54 54 54 119q0 26 -16.5 44
t-44.5 18q-38 0 -74 -35q-1 -1 -3 2t-3.5 6.5t-1.5 4.5q68 89 146 89q41 0 67 -27t26 -67zM266 250q1 -3 -0.5 -8.5t-3.5 -6.5q-19 0 -57 1t-57 1t-49 -1t-48 -1q-2 2 -1 8t3 7l31 5q10 2 16 9t8.5 12.5t5.5 18.5q17 87 22 117q15 83 18 110q2 22 -13 25l-29 5q-1 2 0 7t3 6
q75 4 143 29q5 0 5 -4q-5 -20 -18 -97q-10 -63 -30 -201q-5 -32 15 -37q11 -3 36 -5zM574 609q1 1 11 -1t14 -3v-2q-9 -9 -234.5 -319.5t-244.5 -332.5l-2 -1q-3 3 -7 10.5t-3 8.5q6 10 234 323.5t232 316.5z" />
    <glyph glyph-name="threequarters" unicode="&#xbe;" horiz-adv-x="710" 
d="M662 106l-58 -1l-3 -3l-16 -112q-37 0 -97 -9l20 120q1 1 0.5 2t-1.5 1l-140 -1q3 17 8 26q181 195 206 219q4 2 29.5 5.5t29.5 3.5q-9 -45 -32 -206q0 -4 3 -4l63 3q-8 -23 -12 -44zM235 594q35 0 57.5 -20.5t22.5 -51.5q0 -49 -67 -83q-3 -2 -2 -3q75 -23 75 -85
q0 -57 -56.5 -94t-120.5 -37q-35 0 -61 11q-18 10 -21 21q-3 12 -3.5 31.5t1.5 26.5q0 4 12 4q10 -43 39 -61q26 -14 50 -14q66 0 66 79q0 33 -18 55t-49 22q-7 0 -18 -1q-1 3 4.5 12.5t8.5 11.5q51 11 66 21t15 40q0 26 -15 43t-42 17q-33 0 -69 -33q-1 0 -4 6t-2 8
q64 74 131 74zM613 609q1 1 11 -1t14 -3v-2q-9 -9 -234.5 -319.5t-244.5 -332.5l-2 -1q-3 3 -7 10.5t-3 8.5q6 10 234 323.5t232 316.5zM513 144l3 3l23 129q0 1 -2 0q-27 -25 -118 -131l-1 -3z" />
    <glyph glyph-name="questiondown" unicode="&#xbf;" horiz-adv-x="338" 
d="M147 84q0 29 -21 56q-5 8 4 17q7 7 26 18t31 15q18 5 28 -1q17 -10 26.5 -28t7.5 -33q-1 -15 -17 -29q-11 -10 -57 -36.5t-58 -35.5q-25 -19 -25 -43q0 -67 99 -100l23 -8q13 -6 13 -15q0 -23 -47 -59q-16 -13 -35 -13q-58 0 -100 42q-45 44 -45 105q0 34 24 58
q11 11 28 22t43 26t34 20q18 11 18 22zM190 265q-24 0 -41 15q-15 17 -15 48q0 33 24 54q20 19 51 19q25 0 42 -18q13 -18 13 -39q0 -35 -23 -58q-21 -21 -51 -21z" />
    <glyph glyph-name="Agrave" unicode="&#xc0;" horiz-adv-x="560" 
d="M-66 15q53 8 72.5 19t42.5 53q52 90 135 252t108 220q16 40 17 43q1 0 6 -0.5t13 -1t17 -0.5q10 0 19.5 0.5t14.5 1t6 0.5q0 -17 6 -47q4 -21 33 -207.5t39 -236.5q12 -62 26 -76t65 -20q2 -1 1.5 -9t-3.5 -9q-8 0 -49 1.5t-76 1.5q-37 0 -148 -3q-2 2 -2 9.5t2 8.5
q40 4 51 12q13 8 13 22q0 7 -25 187q0 6 -5 6q-9 1 -60 1h-79q-6 0 -11 -9q-76 -143 -81 -175q-5 -27 23 -34q9 -2 51 -10q1 -2 0.5 -9.5t-2.5 -8.5q-2 0 -20.5 0.5t-47 1.5t-55.5 1q-30 0 -62.5 -1.5t-35.5 -1.5q-1 2 -1 9t2 9zM279 472q-74 -152 -92 -191q-1 -1 -0.5 -3
t1.5 -2q5 -1 59 -1q55 0 62 1q3 0 3 5q-12 88 -29 191q-2 2 -4 0zM219 737q-2 4 1 10q5 6 37 17.5t39 9.5q9 -12 38.5 -65t39.5 -74q0 -1 -3 -3.5t-7 -4.5t-5 -2q-2 0 -67 51.5t-73 60.5z" />
    <glyph glyph-name="Aacute" unicode="&#xc1;" horiz-adv-x="560" 
d="M-66 15q53 8 72.5 19t42.5 53q52 90 135 252t108 220q16 40 17 43q1 0 6 -0.5t13 -1t17 -0.5q10 0 19.5 0.5t14.5 1t6 0.5q0 -17 6 -47q4 -21 33 -207.5t39 -236.5q12 -62 26 -76t65 -20q2 -1 1.5 -9t-3.5 -9q-8 0 -49 1.5t-76 1.5q-37 0 -148 -3q-2 2 -2 9.5t2 8.5
q40 4 51 12q13 8 13 22q0 7 -25 187q0 6 -5 6q-9 1 -60 1h-79q-6 0 -11 -9q-76 -143 -81 -175q-5 -27 23 -34q9 -2 51 -10q1 -2 0.5 -9.5t-2.5 -8.5q-2 0 -20.5 0.5t-47 1.5t-55.5 1q-30 0 -62.5 -1.5t-35.5 -1.5q-1 2 -1 9t2 9zM279 472q-74 -152 -92 -191q-1 -1 -0.5 -3
t1.5 -2q5 -1 59 -1q55 0 62 1q3 0 3 5q-12 88 -29 191q-2 2 -4 0zM502 724q1 -1 0.5 -5.5t-1.5 -5.5q-12 -8 -97.5 -45t-89.5 -37q-1 0 -6 6.5t-5 8.5q92 88 139 122q10 1 32 -16t28 -28z" />
    <glyph glyph-name="Acircumflex" unicode="&#xc2;" horiz-adv-x="560" 
d="M-66 15q53 8 72.5 19t42.5 53q52 90 135 252t108 220q16 40 17 43q1 0 6 -0.5t13 -1t17 -0.5q10 0 19.5 0.5t14.5 1t6 0.5q0 -17 6 -47q4 -21 33 -207.5t39 -236.5q12 -62 26 -76t65 -20q2 -1 1.5 -9t-3.5 -9q-8 0 -49 1.5t-76 1.5q-37 0 -148 -3q-2 2 -2 9.5t2 8.5
q40 4 51 12q13 8 13 22q0 7 -25 187q0 6 -5 6q-9 1 -60 1h-79q-6 0 -11 -9q-76 -143 -81 -175q-5 -27 23 -34q9 -2 51 -10q1 -2 0.5 -9.5t-2.5 -8.5q-2 0 -20.5 0.5t-47 1.5t-55.5 1q-30 0 -62.5 -1.5t-35.5 -1.5q-1 2 -1 9t2 9zM279 472q-74 -152 -92 -191q-1 -1 -0.5 -3
t1.5 -2q5 -1 59 -1q55 0 62 1q3 0 3 5q-12 88 -29 191q-2 2 -4 0zM368 738q8 4 12 3q6 -10 47 -55t58 -59q0 -3 -3.5 -8t-5.5 -5q-4 0 -50 22.5t-59 29.5q-7 2 -12 0q-23 -10 -80 -31t-61 -21q-3 0 -5.5 6t-1.5 9q26 15 86 55.5t75 53.5z" />
    <glyph glyph-name="Atilde" unicode="&#xc3;" horiz-adv-x="560" 
d="M-66 15q53 8 72.5 19t42.5 53q52 90 135 252t108 220q16 40 17 43q1 0 6 -0.5t13 -1t17 -0.5q10 0 19.5 0.5t14.5 1t6 0.5q0 -17 6 -47q4 -21 33 -207.5t39 -236.5q12 -62 26 -76t65 -20q2 -1 1.5 -9t-3.5 -9q-8 0 -49 1.5t-76 1.5q-37 0 -148 -3q-2 2 -2 9.5t2 8.5
q40 4 51 12q13 8 13 22q0 7 -25 187q0 6 -5 6q-9 1 -60 1h-79q-6 0 -11 -9q-76 -143 -81 -175q-5 -27 23 -34q9 -2 51 -10q1 -2 0.5 -9.5t-2.5 -8.5q-2 0 -20.5 0.5t-47 1.5t-55.5 1q-30 0 -62.5 -1.5t-35.5 -1.5q-1 2 -1 9t2 9zM279 472q-74 -152 -92 -191q-1 -1 -0.5 -3
t1.5 -2q5 -1 59 -1q55 0 62 1q3 0 3 5q-12 88 -29 191q-2 2 -4 0zM425 689q36 0 73 33q2 2 4 -4q3 -7 2 -11q-15 -20 -51.5 -43.5t-62.5 -23.5q-21 0 -61 13q-37 10 -45 10q-26 0 -62 -28q-2 0 -4 3t-2 6.5t1 5.5q14 17 47 39.5t54 22.5q12 0 58 -12q36 -11 49 -11z" />
    <glyph glyph-name="Adieresis" unicode="&#xc4;" horiz-adv-x="560" 
d="M-66 15q53 8 72.5 19t42.5 53q52 90 135 252t108 220q16 40 17 43q1 0 6 -0.5t13 -1t17 -0.5q10 0 19.5 0.5t14.5 1t6 0.5q0 -17 6 -47q4 -21 33 -207.5t39 -236.5q12 -62 26 -76t65 -20q2 -1 1.5 -9t-3.5 -9q-8 0 -49 1.5t-76 1.5q-37 0 -148 -3q-2 2 -2 9.5t2 8.5
q40 4 51 12q13 8 13 22q0 7 -25 187q0 6 -5 6q-9 1 -60 1h-79q-6 0 -11 -9q-76 -143 -81 -175q-5 -27 23 -34q9 -2 51 -10q1 -2 0.5 -9.5t-2.5 -8.5q-2 0 -20.5 0.5t-47 1.5t-55.5 1q-30 0 -62.5 -1.5t-35.5 -1.5q-1 2 -1 9t2 9zM279 472q-74 -152 -92 -191q-1 -1 -0.5 -3
t1.5 -2q5 -1 59 -1q55 0 62 1q3 0 3 5q-12 88 -29 191q-2 2 -4 0zM281 733q26 0 36 -15q5 -7 5 -29q-3 -27 -26 -45q-5 -4 -26 -4.5t-26 1.5q-24 16 -24 40q-2 24 8 35q19 17 53 17zM454 733q27 0 34 -14q6 -10 6 -30q-3 -29 -26 -45q-5 -4 -26.5 -5.5t-26.5 0.5
q-21 13 -23 37q-2 27 9 38q21 19 53 19z" />
    <glyph glyph-name="Aring" unicode="&#xc5;" horiz-adv-x="560" 
d="M-66 15q53 8 72.5 19t42.5 53q52 90 135 252t108 220q16 40 17 43q1 0 6 -0.5t13 -1t17 -0.5q10 0 19.5 0.5t14.5 1t6 0.5q0 -17 6 -47q4 -21 33 -207.5t39 -236.5q12 -62 26 -76t65 -20q2 -1 1.5 -9t-3.5 -9q-8 0 -49 1.5t-76 1.5q-37 0 -148 -3q-2 2 -2 9.5t2 8.5
q40 4 51 12q13 8 13 22q0 7 -25 187q0 6 -5 6q-9 1 -60 1h-79q-6 0 -11 -9q-76 -143 -81 -175q-5 -27 23 -34q9 -2 51 -10q1 -2 0.5 -9.5t-2.5 -8.5q-2 0 -20.5 0.5t-47 1.5t-55.5 1q-30 0 -62.5 -1.5t-35.5 -1.5q-1 2 -1 9t2 9zM279 472q-74 -152 -92 -191q-1 -1 -0.5 -3
t1.5 -2q5 -1 59 -1q55 0 62 1q3 0 3 5q-12 88 -29 191q-2 2 -4 0zM366 759q30 0 49 -20t17 -49q-3 -34 -26 -53.5t-57 -19.5q-28 0 -49.5 18t-18.5 54q3 32 26.5 51t58.5 19zM358 725q-45 0 -48 -36q-1 -16 12.5 -26.5t33.5 -10.5q18 0 32.5 10t15.5 24q2 39 -46 39z" />
    <glyph glyph-name="AE" unicode="&#xc6;" horiz-adv-x="787" 
d="M306 586q-2 10 3 18q5 0 28 -1t59.5 -2t74.5 -1h178q91 0 124 6q3 -2 3 -7q-10 -20 -21.5 -66.5t-15.5 -78.5q-13 -5 -19 -1q0 69 -11 93q-7 20 -29 24q-14 2 -67 2.5t-64 -1.5q-10 -2 -13 -13q-8 -48 -33 -245q0 -7 5 -7q79 0 109 1q34 2 54 37q14 22 19 40q5 5 17 -3
q-20 -77 -23 -92q-1 -8 -13 -101q-2 -1 -9.5 -1.5t-8.5 0.5q0 29 -6 53q-6 26 -34 30q-16 2 -109 2q-7 0 -7 -8q-12 -85 -22 -188q-2 -12 2 -28t12 -17q20 -4 82 -4q54 0 77.5 6t39.5 22q28 26 66 97q1 1 7 -2.5t8 -5.5q-5 -22 -24 -67t-34 -67q-7 -10 -14.5 -11.5
t-43.5 -1.5q-23 0 -103.5 1.5t-148.5 1.5q-24 0 -77 -1.5t-78 -1.5q-2 2 -1 9.5t3 8.5q47 5 64 10q15 4 22 15.5t12 38.5q23 141 29 187q-2 5 -4 5q-13 1 -139 1q-9 0 -15 -10q-8 -12 -45 -66t-61 -90.5t-29 -48.5q-11 -24 12 -33q21 -6 53 -9q1 -1 -0.5 -9t-3.5 -9
q-15 0 -56 1.5t-63 1.5q-18 0 -47.5 -1.5t-45.5 -1.5q-1 2 -0.5 9t2.5 9q46 6 70 18.5t53 53.5q166 223 327 473q5 7 -3 9q-12 7 -74 17zM420 562l-3 1q-16 -25 -54.5 -82t-69 -103.5t-43.5 -67.5q0 -5 2 -5q5 0 57.5 -1t66.5 0q4 0 6 5q32 187 38 253z" />
    <glyph glyph-name="Ccedilla" unicode="&#xc7;" horiz-adv-x="584" 
d="M549 462q0 54 -8 77t-27 35q-28 19 -86 19q-99 0 -162 -98.5t-63 -242.5q0 -108 48 -167.5t133 -59.5q41 0 69 14q44 21 96 91q3 0 8 -4t4 -7q-15 -31 -43 -64.5t-48 -45.5q-45 -25 -138 -27l-13 -18q-4 -7 2 -10q24 -15 36 -24q24 -17 24 -48q0 -38 -39 -65.5t-68 -27.5
q-31 0 -51 29q-3 12 4 17q33 -18 63 -18q39 0 39 32q0 38 -75 59q0 6 1 9q32 38 55 65q-123 4 -185 75.5t-62 186.5q0 103 51 194t149 139q78 39 182 39q46 0 102 -9q11 -2 57 -10q-26 -72 -36 -135q-2 -2 -10 -2t-9 2z" />
    <glyph glyph-name="Egrave" unicode="&#xc8;" horiz-adv-x="535" 
d="M-12 15q34 3 53 9q15 4 22 14.5t13 37.5q15 71 41 232t33 220q3 23 -0.5 34.5t-18.5 16.5q-18 6 -46 8q0 11 3 17q7 0 57.5 -2t76.5 -2h197q85 0 109 5q2 -2 2 -5q-21 -46 -40 -147q-2 -2 -9 -2t-9 2q0 63 -10 89q-11 25 -38 28q-17 1 -66 2t-66 0q-6 -1 -9 -9
q-19 -95 -39 -233q0 -7 6 -7q76 0 120 3q26 1 42 34q11 20 17 38q1 2 9 2t10 -2q-8 -28 -19 -94q-8 -50 -14 -97q-2 -2 -8.5 -2t-8.5 1q-1 25 -6 53q-5 26 -27 30q-21 4 -121 4q-7 0 -7 -8q-5 -28 -16 -103t-16 -107q-6 -38 14 -42q25 -5 138 -5q46 0 75 28q34 34 66 92
q2 1 8.5 -2t7.5 -5q-6 -24 -23.5 -67.5t-31.5 -63.5q-6 -9 -12 -11t-24 -2q-30 0 -116.5 1.5t-170.5 1.5q-41 0 -75 -1t-52.5 -1.5t-21.5 -0.5q-1 2 -1 9t2 9zM220 743q-2 4 1 10q5 6 37 17.5t39 9.5q9 -12 38.5 -65t39.5 -74q0 -1 -3 -3.5t-7 -4.5t-5 -2q-2 0 -67 51.5
t-73 60.5z" />
    <glyph glyph-name="Eacute" unicode="&#xc9;" horiz-adv-x="535" 
d="M-12 15q34 3 53 9q15 4 22 14.5t13 37.5q15 71 41 232t33 220q3 23 -0.5 34.5t-18.5 16.5q-18 6 -46 8q0 11 3 17q7 0 57.5 -2t76.5 -2h197q85 0 109 5q2 -2 2 -5q-21 -46 -40 -147q-2 -2 -9 -2t-9 2q0 63 -10 89q-11 25 -38 28q-17 1 -66 2t-66 0q-6 -1 -9 -9
q-19 -95 -39 -233q0 -7 6 -7q76 0 120 3q26 1 42 34q11 20 17 38q1 2 9 2t10 -2q-8 -28 -19 -94q-8 -50 -14 -97q-2 -2 -8.5 -2t-8.5 1q-1 25 -6 53q-5 26 -27 30q-21 4 -121 4q-7 0 -7 -8q-5 -28 -16 -103t-16 -107q-6 -38 14 -42q25 -5 138 -5q46 0 75 28q34 34 66 92
q2 1 8.5 -2t7.5 -5q-6 -24 -23.5 -67.5t-31.5 -63.5q-6 -9 -12 -11t-24 -2q-30 0 -116.5 1.5t-170.5 1.5q-41 0 -75 -1t-52.5 -1.5t-21.5 -0.5q-1 2 -1 9t2 9zM499 723q1 -1 0.5 -5.5t-1.5 -5.5q-12 -8 -97.5 -45t-89.5 -37q-1 0 -6 6.5t-5 8.5q92 88 139 122q10 1 32 -16
t28 -28z" />
    <glyph glyph-name="Ecircumflex" unicode="&#xca;" horiz-adv-x="535" 
d="M-12 15q34 3 53 9q15 4 22 14.5t13 37.5q15 71 41 232t33 220q3 23 -0.5 34.5t-18.5 16.5q-18 6 -46 8q0 11 3 17q7 0 57.5 -2t76.5 -2h197q85 0 109 5q2 -2 2 -5q-21 -46 -40 -147q-2 -2 -9 -2t-9 2q0 63 -10 89q-11 25 -38 28q-17 1 -66 2t-66 0q-6 -1 -9 -9
q-19 -95 -39 -233q0 -7 6 -7q76 0 120 3q26 1 42 34q11 20 17 38q1 2 9 2t10 -2q-8 -28 -19 -94q-8 -50 -14 -97q-2 -2 -8.5 -2t-8.5 1q-1 25 -6 53q-5 26 -27 30q-21 4 -121 4q-7 0 -7 -8q-5 -28 -16 -103t-16 -107q-6 -38 14 -42q25 -5 138 -5q46 0 75 28q34 34 66 92
q2 1 8.5 -2t7.5 -5q-6 -24 -23.5 -67.5t-31.5 -63.5q-6 -9 -12 -11t-24 -2q-30 0 -116.5 1.5t-170.5 1.5q-41 0 -75 -1t-52.5 -1.5t-21.5 -0.5q-1 2 -1 9t2 9zM360 760q8 4 12 3q6 -10 47 -55t58 -59q0 -3 -3.5 -8t-5.5 -5q-4 0 -50 22.5t-59 29.5q-7 2 -12 0
q-23 -10 -80 -31t-61 -21q-3 0 -5.5 6t-1.5 9q26 15 86 55.5t75 53.5z" />
    <glyph glyph-name="Edieresis" unicode="&#xcb;" horiz-adv-x="535" 
d="M-12 15q34 3 53 9q15 4 22 14.5t13 37.5q15 71 41 232t33 220q3 23 -0.5 34.5t-18.5 16.5q-18 6 -46 8q0 11 3 17q7 0 57.5 -2t76.5 -2h197q85 0 109 5q2 -2 2 -5q-21 -46 -40 -147q-2 -2 -9 -2t-9 2q0 63 -10 89q-11 25 -38 28q-17 1 -66 2t-66 0q-6 -1 -9 -9
q-19 -95 -39 -233q0 -7 6 -7q76 0 120 3q26 1 42 34q11 20 17 38q1 2 9 2t10 -2q-8 -28 -19 -94q-8 -50 -14 -97q-2 -2 -8.5 -2t-8.5 1q-1 25 -6 53q-5 26 -27 30q-21 4 -121 4q-7 0 -7 -8q-5 -28 -16 -103t-16 -107q-6 -38 14 -42q25 -5 138 -5q46 0 75 28q34 34 66 92
q2 1 8.5 -2t7.5 -5q-6 -24 -23.5 -67.5t-31.5 -63.5q-6 -9 -12 -11t-24 -2q-30 0 -116.5 1.5t-170.5 1.5q-41 0 -75 -1t-52.5 -1.5t-21.5 -0.5q-1 2 -1 9t2 9zM264 745q26 0 36 -15q5 -7 5 -29q-3 -27 -26 -45q-5 -4 -26 -4.5t-26 1.5q-24 16 -24 40q-2 24 8 35q19 17 53 17
zM437 745q27 0 34 -14q6 -10 6 -30q-3 -29 -26 -45q-5 -4 -26.5 -5.5t-26.5 0.5q-21 13 -23 37q-2 27 9 38q21 19 53 19z" />
    <glyph glyph-name="Igrave" unicode="&#xcc;" horiz-adv-x="320" 
d="M87 585q-2 2 -1 9t3 9l39 -1q40 -2 90 -2t94 2l44 1q2 -1 1 -8.5t-3 -9.5q-35 -5 -42 -7q-16 -4 -22.5 -12.5t-12.5 -37.5q-1 -4 -36 -220q-32 -210 -35 -235q0 -10 -1 -19.5t5.5 -18.5t20.5 -12q5 -1 43 -8q2 -1 0.5 -9t-4.5 -9q-13 0 -61 1.5t-78 1.5q-104 -2 -142 -2
q-2 2 -1.5 8.5t2.5 8.5q32 4 44 7q20 5 28 13.5t14 38.5q15 69 43 246q26 155 31 219q4 29 -18 37q-16 5 -45 9zM117 747q-2 4 1 10q5 6 37 17.5t39 9.5q9 -12 38.5 -65t39.5 -74q0 -1 -3 -3.5t-7 -4.5t-5 -2q-2 0 -67 51.5t-73 60.5z" />
    <glyph glyph-name="Iacute" unicode="&#xcd;" horiz-adv-x="320" 
d="M87 585q-2 2 -1 9t3 9l39 -1q40 -2 90 -2t94 2l44 1q2 -1 1 -8.5t-3 -9.5q-35 -5 -42 -7q-16 -4 -22.5 -12.5t-12.5 -37.5q-1 -4 -36 -220q-32 -210 -35 -235q0 -10 -1 -19.5t5.5 -18.5t20.5 -12q5 -1 43 -8q2 -1 0.5 -9t-4.5 -9q-13 0 -61 1.5t-78 1.5q-104 -2 -142 -2
q-2 2 -1.5 8.5t2.5 8.5q32 4 44 7q20 5 28 13.5t14 38.5q15 69 43 246q26 155 31 219q4 29 -18 37q-16 5 -45 9zM392 728q1 -1 0.5 -5.5t-1.5 -5.5q-12 -8 -97.5 -45t-89.5 -37q-1 0 -6 6.5t-5 8.5q92 88 139 122q10 1 32 -16t28 -28z" />
    <glyph glyph-name="Icircumflex" unicode="&#xce;" horiz-adv-x="320" 
d="M87 585q-2 2 -1 9t3 9l39 -1q40 -2 90 -2t94 2l44 1q2 -1 1 -8.5t-3 -9.5q-35 -5 -42 -7q-16 -4 -22.5 -12.5t-12.5 -37.5q-1 -4 -36 -220q-32 -210 -35 -235q0 -10 -1 -19.5t5.5 -18.5t20.5 -12q5 -1 43 -8q2 -1 0.5 -9t-4.5 -9q-13 0 -61 1.5t-78 1.5q-104 -2 -142 -2
q-2 2 -1.5 8.5t2.5 8.5q32 4 44 7q20 5 28 13.5t14 38.5q15 69 43 246q26 155 31 219q4 29 -18 37q-16 5 -45 9zM256 760q8 4 12 3q6 -10 47 -55t58 -59q0 -3 -3.5 -8t-5.5 -5q-4 0 -50 22.5t-59 29.5q-7 2 -12 0q-23 -10 -80 -31t-61 -21q-3 0 -5.5 6t-1.5 9q26 15 86 55.5
t75 53.5z" />
    <glyph glyph-name="Idieresis" unicode="&#xcf;" horiz-adv-x="320" 
d="M87 585q-2 2 -1 9t3 9l39 -1q40 -2 90 -2t94 2l44 1q2 -1 1 -8.5t-3 -9.5q-35 -5 -42 -7q-16 -4 -22.5 -12.5t-12.5 -37.5q-1 -4 -36 -220q-32 -210 -35 -235q0 -10 -1 -19.5t5.5 -18.5t20.5 -12q5 -1 43 -8q2 -1 0.5 -9t-4.5 -9q-13 0 -61 1.5t-78 1.5q-104 -2 -142 -2
q-2 2 -1.5 8.5t2.5 8.5q32 4 44 7q20 5 28 13.5t14 38.5q15 69 43 246q26 155 31 219q4 29 -18 37q-16 5 -45 9zM165 748q26 0 36 -15q5 -7 5 -29q-3 -27 -26 -45q-5 -4 -26 -4.5t-26 1.5q-24 16 -24 40q-2 24 8 35q19 17 53 17zM338 748q27 0 34 -14q6 -10 6 -30
q-3 -29 -26 -45q-5 -4 -26.5 -5.5t-26.5 0.5q-21 13 -23 37q-2 27 9 38q21 19 53 19z" />
    <glyph glyph-name="Eth" unicode="&#xd0;" horiz-adv-x="678" 
d="M331 576q-15 0 -27 -3q-8 -2 -10 -15q-10 -54 -39 -231q31 0 58.5 0.5t43.5 0.5h20q-2 -17 -9 -28h-38q-37 1 -79 1q-34 -215 -37 -236q-4 -24 13 -33q26 -16 75 -16q63 0 117 55q43 43 67.5 118.5t24.5 150.5q0 131 -56 187q-47 49 -124 49zM95 586q-2 2 -0.5 9t4.5 9
q8 0 56 -2t58 -2q37 0 80 0.5t83 0.5q142 0 208 -76q62 -70 62 -182q0 -171 -112 -264q-66 -56 -131 -72t-172 -16q-19 0 -102 3t-137 3q-2 1 -1.5 9t3.5 9q50 5 56 6q15 3 21.5 13.5t12.5 32.5q4 15 42 234q-39 -1 -80 -1q3 19 12 28h24q25 -1 48 -1q30 178 32 214
q3 31 -22 37q-17 5 -45 8z" />
    <glyph glyph-name="Ntilde" unicode="&#xd1;" horiz-adv-x="641" 
d="M64 585q-5 10 3 18q151 -3 155 -3q30 0 42 1q4 -11 25 -52q53 -101 229 -414l1 1q54 315 58 385q2 23 -4 36.5t-29 18.5q-14 3 -58 9q-1 2 -0.5 9t2.5 9q9 0 44 -1.5t78 -1.5q36 0 63 1.5t30 1.5q1 -2 0.5 -9t-2.5 -9q-20 -3 -37 -9q-22 -7 -32.5 -20t-15.5 -39
q-9 -43 -20 -106t-25.5 -149.5t-22.5 -132.5q-3 -19 -9 -68t-9 -66q-4 0 -18.5 1t-28.5 1q-27 0 -43 -2q-33 67 -137.5 264.5t-123.5 230.5q-1 0 -1 -0.5t-1 -0.5q-9 -41 -35.5 -206t-29.5 -198q-3 -29 4 -41.5t31 -19.5q15 -4 54 -9q1 -2 0.5 -9.5t-2.5 -9.5q-3 0 -43.5 2
t-74.5 2q-20 0 -53 -1.5t-53 -1.5q-1 2 -1 9t2 9q17 2 47 9q22 5 31.5 18.5t15.5 36.5q30 120 79 427q3 17 -6 39.5t-27 29.5q-17 6 -52 10zM473 702q36 0 73 33q2 2 4 -4q3 -7 2 -11q-15 -20 -51.5 -43.5t-62.5 -23.5q-21 0 -61 13q-37 10 -45 10q-26 0 -62 -28q-2 0 -4 3
t-2 6.5t1 5.5q14 17 47 39.5t54 22.5q12 0 58 -12q36 -11 49 -11z" />
    <glyph glyph-name="Ograve" unicode="&#xd2;" horiz-adv-x="669" 
d="M293 -18q-118 0 -176.5 63.5t-56.5 176.5q2 149 85 259q105 137 266 137q105 0 165 -59t64 -176q2 -69 -20 -142.5t-59 -121.5q-47 -63 -119 -100t-149 -37zM312 7q44 0 78 31q57 51 86.5 158t29.5 221q0 177 -113 177q-60 0 -107 -66.5t-69 -156.5t-22 -178
q0 -90 29.5 -138t87.5 -48zM300 757q-2 4 1 10q5 6 37 17.5t39 9.5q9 -12 38.5 -65t39.5 -74q0 -1 -3 -3.5t-7 -4.5t-5 -2q-2 0 -67 51.5t-73 60.5z" />
    <glyph glyph-name="Oacute" unicode="&#xd3;" horiz-adv-x="669" 
d="M293 -18q-118 0 -176.5 63.5t-56.5 176.5q2 149 85 259q105 137 266 137q105 0 165 -59t64 -176q2 -69 -20 -142.5t-59 -121.5q-47 -63 -119 -100t-149 -37zM312 7q44 0 78 31q57 51 86.5 158t29.5 221q0 177 -113 177q-60 0 -107 -66.5t-69 -156.5t-22 -178
q0 -90 29.5 -138t87.5 -48zM553 744q1 -1 0.5 -5.5t-1.5 -5.5q-12 -8 -97.5 -45t-89.5 -37q-1 0 -6 6.5t-5 8.5q92 88 139 122q10 1 32 -16t28 -28z" />
    <glyph glyph-name="Ocircumflex" unicode="&#xd4;" horiz-adv-x="669" 
d="M293 -18q-118 0 -176.5 63.5t-56.5 176.5q2 149 85 259q105 137 266 137q105 0 165 -59t64 -176q2 -69 -20 -142.5t-59 -121.5q-47 -63 -119 -100t-149 -37zM312 7q44 0 78 31q57 51 86.5 158t29.5 221q0 177 -113 177q-60 0 -107 -66.5t-69 -156.5t-22 -178
q0 -90 29.5 -138t87.5 -48zM435 768q8 4 12 3q6 -10 47 -55t58 -59q0 -3 -3.5 -8t-5.5 -5q-4 0 -50 22.5t-59 29.5q-7 2 -12 0q-23 -10 -80 -31t-61 -21q-3 0 -5.5 6t-1.5 9q26 15 86 55.5t75 53.5z" />
    <glyph glyph-name="Otilde" unicode="&#xd5;" horiz-adv-x="669" 
d="M293 -18q-118 0 -176.5 63.5t-56.5 176.5q2 149 85 259q105 137 266 137q105 0 165 -59t64 -176q2 -69 -20 -142.5t-59 -121.5q-47 -63 -119 -100t-149 -37zM312 7q44 0 78 31q57 51 86.5 158t29.5 221q0 177 -113 177q-60 0 -107 -66.5t-69 -156.5t-22 -178
q0 -90 29.5 -138t87.5 -48zM481 712q36 0 73 33q2 2 4 -4q3 -7 2 -11q-15 -20 -51.5 -43.5t-62.5 -23.5q-21 0 -61 13q-37 10 -45 10q-26 0 -62 -28q-2 0 -4 3t-2 6.5t1 5.5q14 17 47 39.5t54 22.5q12 0 58 -12q36 -11 49 -11z" />
    <glyph glyph-name="Odieresis" unicode="&#xd6;" horiz-adv-x="669" 
d="M293 -18q-118 0 -176.5 63.5t-56.5 176.5q2 149 85 259q105 137 266 137q105 0 165 -59t64 -176q2 -69 -20 -142.5t-59 -121.5q-47 -63 -119 -100t-149 -37zM312 7q44 0 78 31q57 51 86.5 158t29.5 221q0 177 -113 177q-60 0 -107 -66.5t-69 -156.5t-22 -178
q0 -90 29.5 -138t87.5 -48zM340 753q26 0 36 -15q5 -7 5 -29q-3 -27 -26 -45q-5 -4 -26 -4.5t-26 1.5q-24 16 -24 40q-2 24 8 35q19 17 53 17zM513 753q27 0 34 -14q6 -10 6 -30q-3 -29 -26 -45q-5 -4 -26.5 -5.5t-26.5 0.5q-21 13 -23 37q-2 27 9 38q21 19 53 19z" />
    <glyph glyph-name="multiply" unicode="&#xd7;" horiz-adv-x="460" 
d="M363 395q5 7 55 11q7 -3 3 -9q-45 -59 -159 -185v-6q122 -137 153 -163q0 -6 -2 -8q-8 -2 -34 1.5t-35 10.5q-15 11 -117 121q-4 4 -6 1q-98 -111 -117 -125q-19 -12 -59 -12q-7 2 -4 9q11 9 71 74t78 86q3 5 0 8q-107 117 -144 163q0 5 11 20.5t16 20.5q4 2 8 0
q4 -8 61.5 -75t86.5 -98q73 80 134 155z" />
    <glyph glyph-name="Oslash" unicode="&#xd8;" horiz-adv-x="666" 
d="M546 585l1 1l34 47q2 1 11.5 0.5t12.5 -2.5q1 -1 1.5 -3.5t-0.5 -3.5q-3 -6 -38 -56q72 -60 72 -187q0 -72 -23 -146t-60 -122q-101 -131 -265 -131q-70 0 -127 27q-23 -33 -35 -47q-1 -1 -10 2t-12 5q-2 1 -2 3t2 4q27 36 35 48q-84 61 -84 191q0 71 23 144.5t66 125.5
q106 133 265 133q79 0 133 -33zM495 517v1q-24 76 -100 76q-59 0 -108 -72t-73 -166.5t-24 -177.5q0 -57 7 -78q48 65 298 417zM505 486l-1 -1q-47 -66 -153 -216.5t-143 -201.5q27 -61 101 -61q39 0 75 33q57 52 91 165.5t34 218.5q0 39 -4 63z" />
    <glyph glyph-name="Ugrave" unicode="&#xd9;" horiz-adv-x="633" 
d="M72 585q-2 10 3 18q11 0 57 -1.5t73 -1.5q45 0 87 1.5t50 1.5q1 -3 0 -9.5t-2 -8.5l-34 -5q-34 -6 -42 -48q-12 -63 -45 -273q-9 -58 -9 -110q0 -55 34.5 -85t99.5 -30q70 0 110 34.5t61 131.5q42 196 54 311q4 34 -4.5 46.5t-33.5 18.5l-46 9q-3 1 -2 8.5t3 9.5
q10 0 48 -1.5t62 -1.5q19 0 61 1.5t47 1.5q1 -1 0 -9t-2 -9q-30 -5 -43 -9q-22 -7 -32.5 -20.5t-17.5 -47.5q-11 -51 -31 -158t-25 -131q-14 -73 -40.5 -122t-62.5 -73t-72 -33t-83 -9q-128 0 -181 65q-32 38 -30 108q0 25 9.5 90t23.5 153.5t20 128.5q5 44 -26 51
q-27 5 -39 7zM291 747q-2 4 1 10q5 6 37 17.5t39 9.5q9 -12 38.5 -65t39.5 -74q0 -1 -3 -3.5t-7 -4.5t-5 -2q-2 0 -67 51.5t-73 60.5z" />
    <glyph glyph-name="Uacute" unicode="&#xda;" horiz-adv-x="633" 
d="M72 585q-2 10 3 18q11 0 57 -1.5t73 -1.5q45 0 87 1.5t50 1.5q1 -3 0 -9.5t-2 -8.5l-34 -5q-34 -6 -42 -48q-12 -63 -45 -273q-9 -58 -9 -110q0 -55 34.5 -85t99.5 -30q70 0 110 34.5t61 131.5q42 196 54 311q4 34 -4.5 46.5t-33.5 18.5l-46 9q-3 1 -2 8.5t3 9.5
q10 0 48 -1.5t62 -1.5q19 0 61 1.5t47 1.5q1 -1 0 -9t-2 -9q-30 -5 -43 -9q-22 -7 -32.5 -20.5t-17.5 -47.5q-11 -51 -31 -158t-25 -131q-14 -73 -40.5 -122t-62.5 -73t-72 -33t-83 -9q-128 0 -181 65q-32 38 -30 108q0 25 9.5 90t23.5 153.5t20 128.5q5 44 -26 51
q-27 5 -39 7zM563 726q1 -1 0.5 -5.5t-1.5 -5.5q-12 -8 -97.5 -45t-89.5 -37q-1 0 -6 6.5t-5 8.5q92 88 139 122q10 1 32 -16t28 -28z" />
    <glyph glyph-name="Ucircumflex" unicode="&#xdb;" horiz-adv-x="633" 
d="M72 585q-2 10 3 18q11 0 57 -1.5t73 -1.5q45 0 87 1.5t50 1.5q1 -3 0 -9.5t-2 -8.5l-34 -5q-34 -6 -42 -48q-12 -63 -45 -273q-9 -58 -9 -110q0 -55 34.5 -85t99.5 -30q70 0 110 34.5t61 131.5q42 196 54 311q4 34 -4.5 46.5t-33.5 18.5l-46 9q-3 1 -2 8.5t3 9.5
q10 0 48 -1.5t62 -1.5q19 0 61 1.5t47 1.5q1 -1 0 -9t-2 -9q-30 -5 -43 -9q-22 -7 -32.5 -20.5t-17.5 -47.5q-11 -51 -31 -158t-25 -131q-14 -73 -40.5 -122t-62.5 -73t-72 -33t-83 -9q-128 0 -181 65q-32 38 -30 108q0 25 9.5 90t23.5 153.5t20 128.5q5 44 -26 51
q-27 5 -39 7zM434 764q8 4 12 3q6 -10 47 -55t58 -59q0 -3 -3.5 -8t-5.5 -5q-4 0 -50 22.5t-59 29.5q-7 2 -12 0q-23 -10 -80 -31t-61 -21q-3 0 -5.5 6t-1.5 9q26 15 86 55.5t75 53.5z" />
    <glyph glyph-name="Udieresis" unicode="&#xdc;" horiz-adv-x="633" 
d="M72 585q-2 10 3 18q11 0 57 -1.5t73 -1.5q45 0 87 1.5t50 1.5q1 -3 0 -9.5t-2 -8.5l-34 -5q-34 -6 -42 -48q-12 -63 -45 -273q-9 -58 -9 -110q0 -55 34.5 -85t99.5 -30q70 0 110 34.5t61 131.5q42 196 54 311q4 34 -4.5 46.5t-33.5 18.5l-46 9q-3 1 -2 8.5t3 9.5
q10 0 48 -1.5t62 -1.5q19 0 61 1.5t47 1.5q1 -1 0 -9t-2 -9q-30 -5 -43 -9q-22 -7 -32.5 -20.5t-17.5 -47.5q-11 -51 -31 -158t-25 -131q-14 -73 -40.5 -122t-62.5 -73t-72 -33t-83 -9q-128 0 -181 65q-32 38 -30 108q0 25 9.5 90t23.5 153.5t20 128.5q5 44 -26 51
q-27 5 -39 7zM342 747q26 0 36 -15q5 -7 5 -29q-3 -27 -26 -45q-5 -4 -26 -4.5t-26 1.5q-24 16 -24 40q-2 24 8 35q19 17 53 17zM515 747q27 0 34 -14q6 -10 6 -30q-3 -29 -26 -45q-5 -4 -26.5 -5.5t-26.5 0.5q-21 13 -23 37q-2 27 9 38q21 19 53 19z" />
    <glyph glyph-name="Yacute" unicode="&#xdd;" horiz-adv-x="490" 
d="M68 15q33 4 53 8q18 5 26 19.5t13 39.5q21 105 28 161q3 27 -2 48q-23 85 -68 212q-10 27 -16 41.5t-14 22t-12 8.5t-18 5q-7 2 -16.5 3t-13.5 2q-2 2 -0.5 9.5t3.5 8.5q15 0 57 -1.5t69 -1.5q84 0 135 3q2 -2 1.5 -9t-2.5 -9q-5 -1 -21 -4t-17 -3q-22 -5 -17 -25
q14 -66 73 -233q0 -1 1 -1t2 1q51 68 140 211q21 36 -5 45q-21 7 -41 9q-2 3 -1 10t4 8q1 0 36 -1.5t56 -1.5q29 0 61.5 1.5t36.5 1.5q2 -2 1.5 -9t-3.5 -9q-33 -5 -43 -8q-22 -6 -36.5 -18.5t-40.5 -48.5q-85 -114 -147 -213q-12 -19 -15 -36q-18 -106 -26 -181
q-4 -21 0 -37t22 -20q10 -3 52 -8q1 -3 0 -10t-4 -8q-7 0 -56.5 1.5t-98.5 1.5q-25 0 -68.5 -1.5t-69.5 -1.5q-2 3 -1 9.5t3 8.5zM505 730q1 -1 0.5 -5.5t-1.5 -5.5q-12 -8 -97.5 -45t-89.5 -37q-1 0 -6 6.5t-5 8.5q92 88 139 122q10 1 32 -16t28 -28z" />
    <glyph glyph-name="Thorn" unicode="&#xde;" horiz-adv-x="534" 
d="M385 329q0 56 -26.5 87t-71.5 31q-13 0 -21 -4t-10 -14q-12 -54 -41 -266q22 -4 39 -4q67 0 99 46.5t32 123.5zM91 585q-1 1 0 8.5t3 9.5q15 0 54 -1.5t67 -1.5q24 0 66.5 1.5t67.5 1.5q1 -2 0.5 -8.5t-2.5 -9.5q-37 -6 -45 -9q-14 -4 -19 -14t-12 -42l-7 -44
q0 -4 1.5 -5.5t2.5 -1.5h2q6 0 33.5 1t43.5 1q81 0 125 -36q43 -36 43 -104q0 -111 -98 -166q-49 -29 -128 -31q-41 -2 -77 7l-9 -66q-5 -44 21 -52q14 -4 46 -8q1 -1 0 -9t-3 -9q-2 0 -23 0.5t-51 1.5t-53 1q-53 0 -97.5 -1.5t-47.5 -1.5q-1 2 -1 9.5t1 8.5q40 5 50 8
q23 7 33 49q9 35 37 216.5t35 232.5q3 26 -0.5 39.5t-18.5 18.5q-16 4 -40 6z" />
    <glyph glyph-name="germandbls" unicode="&#xdf;" horiz-adv-x="505" 
d="M98 389q4 0 5 4q19 91 55 145t88 92q61 44 135 44q51 0 83.5 -31.5t31.5 -83.5q0 -35 -34 -74q-19 -21 -47 -49.5t-29 -29.5q-19 -19 -19 -35q0 -15 42 -72q3 -4 4 -6q53 -73 53 -121q0 -54 -43.5 -103.5t-96.5 -71.5q-36 -14 -64 -14q-38 0 -50 21q-4 18 -3 39.5t5 34.5
q2 6 10 6q40 -54 105 -54q24 0 37.5 13.5t13.5 35.5q2 41 -42 103q-60 83 -62 87q-8 12 -6.5 35t12.5 34q10 10 32.5 30t31.5 29t24 26.5t21 31t11.5 33.5t5.5 42q0 51 -19.5 82.5t-55.5 31.5q-39 0 -63.5 -53.5t-49.5 -190.5q-6 -35 -31.5 -206.5t-38.5 -216.5
q-24 -87 -101 -164.5t-150 -77.5q-31 0 -45.5 11t-14.5 25t13 42t19 35q5 6 12 6q51 -67 95 -67q29 0 50 132q1 7 2 10q12 72 34 216t32 197q2 7 -3 7l-60 1q-2 1 -2 5t1 6q2 5 12.5 16.5t13.5 11.5h40z" />
    <glyph glyph-name="agrave" unicode="&#xe0;" horiz-adv-x="461" 
d="M438 110q3 -2 3 -3q0 -14 -4 -23q-30 -39 -77 -69.5t-74 -30.5q-42 0 -26 92l8 43q1 3 -2 3q-2 0 -3 -2q-97 -136 -173 -136q-28 0 -42.5 31t-14.5 67q0 143 94 236q31 31 87.5 58t113.5 27q64 0 109 -13q-14 -29 -21 -62q-33 -141 -40 -229q-2 -27 10 -27q17 0 52 38z
M177 69q17 0 44.5 31t50.5 77q13 25 24 80q16 72 20 96q-17 12 -51 12t-55.5 -18.5t-38.5 -69.5q-21 -60 -21 -139q0 -69 27 -69zM208 582q-2 3 3 8q10 3 40 3t39 -3q8 -30 31 -155q-1 -2 -9 -4.5t-10 -1.5q-81 129 -94 153z" />
    <glyph glyph-name="aacute" unicode="&#xe1;" horiz-adv-x="461" 
d="M438 110q3 -2 3 -3q0 -14 -4 -23q-30 -39 -77 -69.5t-74 -30.5q-42 0 -26 92l8 43q1 3 -2 3q-2 0 -3 -2q-97 -136 -173 -136q-28 0 -42.5 31t-14.5 67q0 143 94 236q31 31 87.5 58t113.5 27q64 0 109 -13q-14 -29 -21 -62q-33 -141 -40 -229q-2 -27 10 -27q17 0 52 38z
M177 69q17 0 44.5 31t50.5 77q13 25 24 80q16 72 20 96q-17 12 -51 12t-55.5 -18.5t-38.5 -69.5q-21 -60 -21 -139q0 -69 27 -69zM431 585q2 -1 3 -4.5t0 -5.5q-9 -11 -40 -38.5t-72 -62.5t-49 -42q-3 -1 -8 3t-5 8q19 29 49 76.5t35 55.5q6 4 42 8t45 2z" />
    <glyph glyph-name="acircumflex" unicode="&#xe2;" horiz-adv-x="461" 
d="M438 110q3 -2 3 -3q0 -14 -4 -23q-30 -39 -77 -69.5t-74 -30.5q-42 0 -26 92l8 43q1 3 -2 3q-2 0 -3 -2q-97 -136 -173 -136q-28 0 -42.5 31t-14.5 67q0 143 94 236q31 31 87.5 58t113.5 27q64 0 109 -13q-14 -29 -21 -62q-33 -141 -40 -229q-2 -27 10 -27q17 0 52 38z
M177 69q17 0 44.5 31t50.5 77q13 25 24 80q16 72 20 96q-17 12 -51 12t-55.5 -18.5t-38.5 -69.5q-21 -60 -21 -139q0 -69 27 -69zM304 531q-56 -77 -64 -82q-8 -6 -31 -10q-4 2 -4 8q18 22 58.5 76.5t51.5 74.5q2 3 13 6t15 3q39 -123 59 -154q-3 -4 -19.5 -10t-27.5 -7
q-6 3 -46 95h-5z" />
    <glyph glyph-name="atilde" unicode="&#xe3;" horiz-adv-x="461" 
d="M438 110q3 -2 3 -3q0 -14 -4 -23q-30 -39 -77 -69.5t-74 -30.5q-42 0 -26 92l8 43q1 3 -2 3q-2 0 -3 -2q-97 -136 -173 -136q-28 0 -42.5 31t-14.5 67q0 143 94 236q31 31 87.5 58t113.5 27q64 0 109 -13q-14 -29 -21 -62q-33 -141 -40 -229q-2 -27 10 -27q17 0 52 38z
M177 69q17 0 44.5 31t50.5 77q13 25 24 80q16 72 20 96q-17 12 -51 12t-55.5 -18.5t-38.5 -69.5q-21 -60 -21 -139q0 -69 27 -69zM348 529q33 0 69 34q2 2 3 -3q1 -8 0 -15q-14 -22 -48.5 -47t-59.5 -25q-20 0 -58 14q-33 10 -42 10q-31 0 -60 -29l-2 4q-1 5 -1.5 9.5
t0.5 6.5q13 18 44 41.5t52 23.5q15 0 56 -13q33 -11 47 -11z" />
    <glyph glyph-name="adieresis" unicode="&#xe4;" horiz-adv-x="461" 
d="M438 110q3 -2 3 -3q0 -14 -4 -23q-30 -39 -77 -69.5t-74 -30.5q-42 0 -26 92l8 43q1 3 -2 3q-2 0 -3 -2q-97 -136 -173 -136q-28 0 -42.5 31t-14.5 67q0 143 94 236q31 31 87.5 58t113.5 27q64 0 109 -13q-14 -29 -21 -62q-33 -141 -40 -229q-2 -27 10 -27q17 0 52 38z
M177 69q17 0 44.5 31t50.5 77q13 25 24 80q16 72 20 96q-17 12 -51 12t-55.5 -18.5t-38.5 -69.5q-21 -60 -21 -139q0 -69 27 -69zM236 562q24 0 31 -13q6 -16 3 -31q-4 -27 -28 -45q-6 -4 -27.5 -5.5t-26.5 0.5q-23 16 -21 37q0 26 10 38q7 7 26.5 13t32.5 6zM389 562
q21 0 31 -13q1 -6 2 -16.5t0 -14.5q-5 -28 -28 -45q-6 -4 -27.5 -5.5t-26.5 0.5q-21 14 -21 37q0 27 11 38q7 7 26.5 13t32.5 6z" />
    <glyph glyph-name="aring" unicode="&#xe5;" horiz-adv-x="461" 
d="M438 110q3 -2 3 -3q0 -14 -4 -23q-30 -39 -77 -69.5t-74 -30.5q-42 0 -26 92l8 43q1 3 -2 3q-2 0 -3 -2q-97 -136 -173 -136q-28 0 -42.5 31t-14.5 67q0 143 94 236q31 31 87.5 58t113.5 27q64 0 109 -13q-14 -29 -21 -62q-33 -141 -40 -229q-2 -27 10 -27q17 0 52 38z
M177 69q17 0 44.5 31t50.5 77q13 25 24 80q16 72 20 96q-17 12 -51 12t-55.5 -18.5t-38.5 -69.5q-21 -60 -21 -139q0 -69 27 -69zM318 595q32 0 48 -21t14 -52q-1 -35 -24 -56t-56 -21q-24 0 -44 18t-17 55q1 33 24.5 55t54.5 22zM310 559q-20 0 -32 -11t-12 -29
q-1 -17 10.5 -27t30.5 -10q21 0 34 10t15 26q1 20 -10 30.5t-36 10.5z" />
    <glyph glyph-name="ae" unicode="&#xe6;" horiz-adv-x="559" 
d="M302 381q27 0 42 -26q77 47 132 47q40 0 59 -25.5t16 -59.5q-1 -12 -4 -19.5t-14 -19.5t-34 -28q-14 -9 -69.5 -43.5t-81.5 -52.5q-2 -2 -2 -7q0 -40 17 -65t53 -25q57 0 116 61q4 0 4 -4q2 -10 -6 -30q-32 -42 -85 -71t-108 -29q-93 0 -102 103q-126 -103 -158 -103
q-54 0 -54 94q0 54 24 114.5t71 103.5q29 29 86.5 57t97.5 28zM140 143q0 -30 9.5 -48.5t24.5 -18.5q18 0 59 35q0 66 24.5 125t64.5 100q-19 13 -61 13q-31 0 -55 -19.5t-37 -46.5q-29 -60 -29 -140zM421 371q-25 0 -48 -49.5t-27 -135.5q0 -2 1.5 -3.5t2.5 -0.5
q27 16 64 44q23 17 31.5 35.5t8.5 53.5q0 28 -10 42t-23 14z" />
    <glyph glyph-name="ccedilla" unicode="&#xe7;" horiz-adv-x="342" 
d="M214 365q-26 0 -45.5 -52.5t-19.5 -145.5q0 -56 19.5 -85.5t53.5 -29.5q56 0 101 61q4 0 4 -4q2 -12 -4 -21q-47 -64 -124 -92l-28 -29q-3 -5 2 -8q4 -2 8 -5t7 -4.5t7 -4.5l8 -6q23 -18 23 -46q0 -37 -36 -63.5t-64 -26.5q-29 0 -48 28q-3 11 4 16q31 -17 59 -17
q36 0 36 31q0 36 -70 57q0 5 1 8l61 62q-24 -4 -34 -4q-60 0 -84 49q-16 33 -16 84q0 57 22.5 119t71.5 103q74 62 152 62q37 0 58 -15q12 -9 12 -22q0 -11 -16.5 -37t-28.5 -32q-2 -1 -5.5 -1t-4.5 2q-44 69 -82 69z" />
    <glyph glyph-name="egrave" unicode="&#xe8;" horiz-adv-x="350" 
d="M214 368q-22 0 -42 -43t-27 -113q1 -3 3 -4q35 10 65 34q32 27 32 82q0 21 -9.5 32.5t-21.5 11.5zM281 402q30 0 46 -18.5t16 -43.5q0 -56 -85 -105q-48 -27 -110 -50q-4 0 -4 -5q-1 -6 -1 -11q0 -55 15.5 -84t54.5 -29q60 0 114 61q3 0 3 -4q0 -7 -4 -23
q-29 -43 -85 -74.5t-106 -31.5q-101 0 -101 134q0 64 22 122t57 92q26 26 77.5 48t90.5 22zM162 582q-2 3 3 8q10 3 40 3t39 -3q8 -30 31 -155q-1 -2 -9 -4.5t-10 -1.5q-81 129 -94 153z" />
    <glyph glyph-name="eacute" unicode="&#xe9;" horiz-adv-x="350" 
d="M214 368q-22 0 -42 -43t-27 -113q1 -3 3 -4q35 10 65 34q32 27 32 82q0 21 -9.5 32.5t-21.5 11.5zM281 402q30 0 46 -18.5t16 -43.5q0 -56 -85 -105q-48 -27 -110 -50q-4 0 -4 -5q-1 -6 -1 -11q0 -55 15.5 -84t54.5 -29q60 0 114 61q3 0 3 -4q0 -7 -4 -23
q-29 -43 -85 -74.5t-106 -31.5q-101 0 -101 134q0 64 22 122t57 92q26 26 77.5 48t90.5 22zM367 581q2 -1 3 -4.5t0 -5.5q-9 -11 -40 -38.5t-72 -62.5t-49 -42q-3 -1 -8 3t-5 8q19 29 49 76.5t35 55.5q6 4 42 8t45 2z" />
    <glyph glyph-name="ecircumflex" unicode="&#xea;" horiz-adv-x="350" 
d="M214 368q-22 0 -42 -43t-27 -113q1 -3 3 -4q35 10 65 34q32 27 32 82q0 21 -9.5 32.5t-21.5 11.5zM281 402q30 0 46 -18.5t16 -43.5q0 -56 -85 -105q-48 -27 -110 -50q-4 0 -4 -5q-1 -6 -1 -11q0 -55 15.5 -84t54.5 -29q60 0 114 61q3 0 3 -4q0 -7 -4 -23
q-29 -43 -85 -74.5t-106 -31.5q-101 0 -101 134q0 64 22 122t57 92q26 26 77.5 48t90.5 22zM240 522q-56 -77 -64 -82q-8 -6 -31 -10q-4 2 -4 8q18 22 58.5 76.5t51.5 74.5q2 3 13 6t15 3q39 -123 59 -154q-3 -4 -19.5 -10t-27.5 -7q-6 3 -46 95h-5z" />
    <glyph glyph-name="edieresis" unicode="&#xeb;" horiz-adv-x="350" 
d="M214 368q-22 0 -42 -43t-27 -113q1 -3 3 -4q35 10 65 34q32 27 32 82q0 21 -9.5 32.5t-21.5 11.5zM281 402q30 0 46 -18.5t16 -43.5q0 -56 -85 -105q-48 -27 -110 -50q-4 0 -4 -5q-1 -6 -1 -11q0 -55 15.5 -84t54.5 -29q60 0 114 61q3 0 3 -4q0 -7 -4 -23
q-29 -43 -85 -74.5t-106 -31.5q-101 0 -101 134q0 64 22 122t57 92q26 26 77.5 48t90.5 22zM187 562q25 0 31 -13q6 -16 3 -31q-4 -27 -28 -45q-6 -4 -27.5 -5.5t-26.5 0.5q-23 16 -21 37q0 26 10 38q7 7 26.5 13t32.5 6zM340 562q21 0 31 -13q1 -6 2 -16.5t0 -14.5
q-5 -28 -28 -45q-6 -4 -27.5 -5.5t-26.5 0.5q-21 14 -21 37q0 27 11 38q7 7 26.5 13t32.5 6z" />
    <glyph glyph-name="igrave" unicode="&#xec;" horiz-adv-x="242" 
d="M216 110q3 -1 3 -2q0 -16 -2 -18q-36 -46 -79.5 -76t-69.5 -30q-38 0 -24 83q7 38 25 124.5t22 109.5q4 16 -5 16q-13 0 -50 -28q-2 0 -2 1q-1 2 -0.5 10t2.5 9q37 37 83 65.5t71 28.5q14 0 16.5 -27t-4.5 -54q-5 -25 -17 -80.5t-19 -92t-8 -56.5q-1 -21 8 -21
q15 0 50 38zM78 582q-2 3 3 8q10 3 40 3t39 -3q8 -30 31 -155q-1 -2 -9 -4.5t-10 -1.5q-81 129 -94 153z" />
    <glyph glyph-name="iacute" unicode="&#xed;" horiz-adv-x="242" 
d="M216 110q3 -1 3 -2q0 -16 -2 -18q-36 -46 -79.5 -76t-69.5 -30q-38 0 -24 83q7 38 25 124.5t22 109.5q4 16 -5 16q-13 0 -50 -28q-2 0 -2 1q-1 2 -0.5 10t2.5 9q37 37 83 65.5t71 28.5q14 0 16.5 -27t-4.5 -54q-5 -25 -17 -80.5t-19 -92t-8 -56.5q-1 -21 8 -21
q15 0 50 38zM301 585q2 -1 3 -4.5t0 -5.5q-9 -11 -40 -38.5t-72 -62.5t-49 -42q-3 -1 -8 3t-5 8q19 29 49 76.5t35 55.5q6 4 42 8t45 2z" />
    <glyph glyph-name="icircumflex" unicode="&#xee;" horiz-adv-x="242" 
d="M216 110q3 -1 3 -2q0 -16 -2 -18q-36 -46 -79.5 -76t-69.5 -30q-38 0 -24 83q7 38 25 124.5t22 109.5q4 16 -5 16q-13 0 -50 -28q-2 0 -2 1q-1 2 -0.5 10t2.5 9q37 37 83 65.5t71 28.5q14 0 16.5 -27t-4.5 -54q-5 -25 -17 -80.5t-19 -92t-8 -56.5q-1 -21 8 -21
q15 0 50 38zM165 522q-56 -77 -64 -82q-8 -6 -31 -10q-4 2 -4 8q18 22 58.5 76.5t51.5 74.5q2 3 13 6t15 3q39 -123 59 -154q-3 -4 -19.5 -10t-27.5 -7q-6 3 -46 95h-5z" />
    <glyph glyph-name="idieresis" unicode="&#xef;" horiz-adv-x="242" 
d="M216 110q3 -1 3 -2q0 -16 -2 -18q-36 -46 -79.5 -76t-69.5 -30q-38 0 -24 83q7 38 25 124.5t22 109.5q4 16 -5 16q-13 0 -50 -28q-2 0 -2 1q-1 2 -0.5 10t2.5 9q37 37 83 65.5t71 28.5q14 0 16.5 -27t-4.5 -54q-5 -25 -17 -80.5t-19 -92t-8 -56.5q-1 -21 8 -21
q15 0 50 38zM112 562q24 0 31 -13q6 -16 3 -31q-4 -27 -28 -45q-6 -4 -27.5 -5.5t-26.5 0.5q-23 16 -21 37q0 26 10 38q7 7 26.5 13t32.5 6zM265 562q21 0 31 -13q1 -6 2 -16.5t0 -14.5q-5 -28 -28 -45q-6 -4 -27.5 -5.5t-26.5 0.5q-21 14 -21 37q0 27 11 38q7 7 26.5 13
t32.5 6z" />
    <glyph glyph-name="eth" unicode="&#xf0;" horiz-adv-x="447" 
d="M33 124q0 67 27.5 132t80.5 102q63 45 129 45q24 0 35 -2q2 54 -20 113q-12 -5 -98 -32q-3 0 -3 5q4 18 10 21l83 29q-38 81 -146 111q-2 8 5 15q144 -2 221 -92q2 -2 6 -2q58 22 90 36l2 -2q0 -18 -7 -24q-8 -6 -68 -30q-5 -2 -3 -7q47 -83 47 -181q0 -278 -174 -359
q-40 -18 -91 -18q-63 0 -94.5 37t-31.5 103zM198 9q35 0 61 62.5t36 130.5t10 118q0 31 -15 46t-31 15q-28 0 -50.5 -31t-34.5 -76t-18.5 -85t-6.5 -68q-2 -112 49 -112z" />
    <glyph glyph-name="ntilde" unicode="&#xf1;" horiz-adv-x="465" 
d="M35 280q-1 -1 -2 0t-1 2q-1 2 1 11.5t3 10.5q38 42 82 70.5t68 28.5q32 0 11 -104l-9 -46l1 -1h1q67 94 142 134q32 17 57 17q28 0 32.5 -36.5t-9.5 -100.5q-30 -152 -32 -180q-2 -17 7 -17q17 0 51 37q2 0 3 -2q3 -12 -3 -24q-33 -42 -79 -69t-74 -27q-37 0 -21 94
q5 28 19 92t22 103q11 53 -6 53q-19 0 -47.5 -28.5t-56.5 -76.5q-23 -39 -42 -125q-8 -35 -4 -67q-9 -9 -53 -27t-54 -18q-12 0 -7 30q3 19 27.5 136.5t26.5 141.5q3 20 -6 20q-13 0 -48 -32zM350 529q33 0 69 34q2 2 3 -3q1 -8 0 -15q-14 -22 -48.5 -47t-59.5 -25
q-20 0 -58 14q-33 10 -42 10q-31 0 -60 -29l-2 4q-1 5 -1.5 9.5t0.5 6.5q13 18 44 41.5t52 23.5q15 0 56 -13q33 -11 47 -11z" />
    <glyph glyph-name="ograve" unicode="&#xf2;" horiz-adv-x="437" 
d="M285 403q120 0 120 -135q0 -78 -32 -148.5t-97 -104.5q-59 -31 -122 -31q-121 0 -121 138q0 68 26.5 132t76.5 99q73 50 149 50zM149 112q0 -102 46 -102q29 0 51 46t31.5 105.5t9.5 117.5q0 97 -46 97q-40 0 -66 -79.5t-26 -184.5zM184 582q-2 3 3 8q10 3 40 3t39 -3
q8 -30 31 -155q-1 -2 -9 -4.5t-10 -1.5q-81 129 -94 153z" />
    <glyph glyph-name="oacute" unicode="&#xf3;" horiz-adv-x="437" 
d="M285 403q120 0 120 -135q0 -78 -32 -148.5t-97 -104.5q-59 -31 -122 -31q-121 0 -121 138q0 68 26.5 132t76.5 99q73 50 149 50zM149 112q0 -102 46 -102q29 0 51 46t31.5 105.5t9.5 117.5q0 97 -46 97q-40 0 -66 -79.5t-26 -184.5zM386 585q2 -1 3 -4.5t0 -5.5
q-9 -11 -40 -38.5t-72 -62.5t-49 -42q-3 -1 -8 3t-5 8q19 29 49 76.5t35 55.5q6 4 42 8t45 2z" />
    <glyph glyph-name="ocircumflex" unicode="&#xf4;" horiz-adv-x="437" 
d="M285 403q120 0 120 -135q0 -78 -32 -148.5t-97 -104.5q-59 -31 -122 -31q-121 0 -121 138q0 68 26.5 132t76.5 99q73 50 149 50zM149 112q0 -102 46 -102q29 0 51 46t31.5 105.5t9.5 117.5q0 97 -46 97q-40 0 -66 -79.5t-26 -184.5zM262 522q-56 -77 -64 -82
q-8 -6 -31 -10q-4 2 -4 8q18 22 58.5 76.5t51.5 74.5q2 3 13 6t15 3q39 -123 59 -154q-3 -4 -19.5 -10t-27.5 -7q-6 3 -46 95h-5z" />
    <glyph glyph-name="otilde" unicode="&#xf5;" horiz-adv-x="437" 
d="M285 403q120 0 120 -135q0 -78 -32 -148.5t-97 -104.5q-59 -31 -122 -31q-121 0 -121 138q0 68 26.5 132t76.5 99q73 50 149 50zM149 112q0 -102 46 -102q29 0 51 46t31.5 105.5t9.5 117.5q0 97 -46 97q-40 0 -66 -79.5t-26 -184.5zM336 529q33 0 69 34q2 2 3 -3
q1 -8 0 -15q-14 -22 -48.5 -47t-59.5 -25q-20 0 -58 14q-33 10 -42 10q-31 0 -60 -29l-2 4q-1 5 -1.5 9.5t0.5 6.5q13 18 44 41.5t52 23.5q15 0 56 -13q33 -11 47 -11z" />
    <glyph glyph-name="odieresis" unicode="&#xf6;" horiz-adv-x="437" 
d="M285 403q120 0 120 -135q0 -78 -32 -148.5t-97 -104.5q-59 -31 -122 -31q-121 0 -121 138q0 68 26.5 132t76.5 99q73 50 149 50zM149 112q0 -102 46 -102q29 0 51 46t31.5 105.5t9.5 117.5q0 97 -46 97q-40 0 -66 -79.5t-26 -184.5zM209 562q25 0 31 -13q6 -16 3 -31
q-4 -27 -28 -45q-6 -4 -27.5 -5.5t-26.5 0.5q-23 16 -21 37q0 26 10 38q7 7 26.5 13t32.5 6zM362 562q21 0 31 -13q1 -6 2 -16.5t0 -14.5q-5 -28 -28 -45q-6 -4 -27.5 -5.5t-26.5 0.5q-21 14 -21 37q0 27 11 38q7 7 26.5 13t32.5 6z" />
    <glyph glyph-name="divide" unicode="&#xf7;" horiz-adv-x="460" 
d="M270 365q0 -25 -21 -48q-3 -3 -20.5 -5t-24.5 3q-18 13 -18 35q-1 3 1.5 14.5t4.5 13.5q18 14 44 14q23 0 28 -7q6 -8 6 -20zM411 199l-375 -2q-2 1 -2 8q2 18 12 41q4 -1 97 -1h281q3 -1 3 -7t-6 -22t-10 -17zM270 107q0 -27 -15 -43q-3 -3 -21.5 -5.5t-26.5 1.5
q-21 17 -21 36q-1 3 1.5 14t4.5 13q13 14 44 14q23 0 28 -7q6 -8 6 -23z" />
    <glyph glyph-name="oslash" unicode="&#xf8;" horiz-adv-x="437" 
d="M193 11q25 0 45 30.5t30.5 73t16 77.5t5.5 52v32l-141 -203q7 -62 44 -62zM242 377q-42 0 -69.5 -81.5t-27.5 -151.5q0 -26 1 -35l142 201q-4 67 -46 67zM279 403q50 0 75 -19l22 30q3 5 24 5q1 0 3 -2t1 -3l-33 -46q34 -41 34 -106q-1 -84 -37 -149t-95 -98
q-55 -31 -121 -31q-43 0 -65 17l-21 -24q-14 -9 -31 -11q-3 2 -3 5l37 45q-37 36 -36 107q1 77 28.5 137t75.5 94q71 49 142 49z" />
    <glyph glyph-name="ugrave" unicode="&#xf9;" horiz-adv-x="462" 
d="M93 292q3 21 -4 21q-17 0 -52 -28q-1 -1 -2 0t-1 2q-3 10 4 20q41 41 85.5 68.5t68.5 27.5q29 0 8 -115q-36 -189 -36 -190q-4 -32 13 -32q16 0 42 24t52 69q7 11 18 48q21 100 26 119t11 29q7 7 49.5 26.5t61.5 21.5q4 -4 4 -10q-8 -10 -17 -50q-39 -172 -44 -244
q-2 -28 10 -28q15 0 47 37q1 0 3 -2q3 -5 -3 -24q-31 -42 -76 -70t-73 -28q-38 0 -26 72l5 32.5t5 29.5q0 1 -1.5 1t-2.5 -1q-32 -45 -80 -87q-55 -47 -101 -47q-52 0 -37 98q2 10 43 210zM190 582q-2 3 3 8q10 3 40 3t39 -3q8 -30 31 -155q-1 -2 -9 -4.5t-10 -1.5
q-81 129 -94 153z" />
    <glyph glyph-name="uacute" unicode="&#xfa;" horiz-adv-x="462" 
d="M93 292q3 21 -4 21q-17 0 -52 -28q-1 -1 -2 0t-1 2q-3 10 4 20q41 41 85.5 68.5t68.5 27.5q29 0 8 -115q-36 -189 -36 -190q-4 -32 13 -32q16 0 42 24t52 69q7 11 18 48q21 100 26 119t11 29q7 7 49.5 26.5t61.5 21.5q4 -4 4 -10q-8 -10 -17 -50q-39 -172 -44 -244
q-2 -28 10 -28q15 0 47 37q1 0 3 -2q3 -5 -3 -24q-31 -42 -76 -70t-73 -28q-38 0 -26 72l5 32.5t5 29.5q0 1 -1.5 1t-2.5 -1q-32 -45 -80 -87q-55 -47 -101 -47q-52 0 -37 98q2 10 43 210zM422 585q2 -1 3 -4.5t0 -5.5q-9 -11 -40 -38.5t-72 -62.5t-49 -42q-3 -1 -8 3t-5 8
q19 29 49 76.5t35 55.5q6 4 42 8t45 2z" />
    <glyph glyph-name="ucircumflex" unicode="&#xfb;" horiz-adv-x="462" 
d="M93 292q3 21 -4 21q-17 0 -52 -28q-1 -1 -2 0t-1 2q-3 10 4 20q41 41 85.5 68.5t68.5 27.5q29 0 8 -115q-36 -189 -36 -190q-4 -32 13 -32q16 0 42 24t52 69q7 11 18 48q21 100 26 119t11 29q7 7 49.5 26.5t61.5 21.5q4 -4 4 -10q-8 -10 -17 -50q-39 -172 -44 -244
q-2 -28 10 -28q15 0 47 37q1 0 3 -2q3 -5 -3 -24q-31 -42 -76 -70t-73 -28q-38 0 -26 72l5 32.5t5 29.5q0 1 -1.5 1t-2.5 -1q-32 -45 -80 -87q-55 -47 -101 -47q-52 0 -37 98q2 10 43 210zM286 528q-56 -77 -64 -82q-8 -6 -31 -10q-4 2 -4 8q18 22 58.5 76.5t51.5 74.5
q2 3 13 6t15 3q39 -123 59 -154q-3 -4 -19.5 -10t-27.5 -7q-6 3 -46 95h-5z" />
    <glyph glyph-name="udieresis" unicode="&#xfc;" horiz-adv-x="462" 
d="M93 292q3 21 -4 21q-17 0 -52 -28q-1 -1 -2 0t-1 2q-3 10 4 20q41 41 85.5 68.5t68.5 27.5q29 0 8 -115q-36 -189 -36 -190q-4 -32 13 -32q16 0 42 24t52 69q7 11 18 48q21 100 26 119t11 29q7 7 49.5 26.5t61.5 21.5q4 -4 4 -10q-8 -10 -17 -50q-39 -172 -44 -244
q-2 -28 10 -28q15 0 47 37q1 0 3 -2q3 -5 -3 -24q-31 -42 -76 -70t-73 -28q-38 0 -26 72l5 32.5t5 29.5q0 1 -1.5 1t-2.5 -1q-32 -45 -80 -87q-55 -47 -101 -47q-52 0 -37 98q2 10 43 210zM232 562q24 0 31 -13q6 -16 3 -31q-4 -27 -28 -45q-6 -4 -27.5 -5.5t-26.5 0.5
q-23 16 -21 37q0 26 10 38q7 7 26.5 13t32.5 6zM385 562q21 0 31 -13q1 -6 2 -16.5t0 -14.5q-5 -28 -28 -45q-6 -4 -27.5 -5.5t-26.5 0.5q-21 14 -21 37q0 27 11 38q7 7 26.5 13t32.5 6z" />
    <glyph glyph-name="yacute" unicode="&#xfd;" horiz-adv-x="394" 
d="M149 402q33 0 54 -101q20 -93 30 -237q0 -4 3 0q39 67 51 106t14 81q0 45 -21 92q-1 2 0.5 6.5t4.5 7.5q58 48 78 48q8 0 14 -18.5t5 -33.5q-2 -61 -37 -138q-56 -119 -131.5 -231t-133.5 -169q-81 -80 -123 -80q-22 0 -22 13q0 8 26.5 57t32.5 56q7 7 13 5
q31 -18 57 -18q14 0 28 13.5t36 47.5q10 16 10 44q2 46 -12 142t-30 157q-14 51 -30 51q-18 0 -53 -42q-2 -1 -4 1q0 23 3 28q27 43 67 77.5t70 34.5zM389 585q2 -1 3 -4.5t0 -5.5q-9 -11 -40 -38.5t-72 -62.5t-49 -42q-3 -1 -8 3t-5 8q19 29 49 76.5t35 55.5q6 4 42 8t45 2
z" />
    <glyph glyph-name="thorn" unicode="&#xfe;" horiz-adv-x="459" 
d="M157 -16q-10 0 -20 2q-19 -120 -24 -172q-2 -30 18 -35q8 -2 58 -6q2 -1 1 -9.5t-4 -10.5q-74 1 -262 -26q-2 1 -2 9t2 10q24 6 38 11q23 7 31 40q5 20 22 117.5t32.5 185.5t15.5 89q62 321 66 387q2 19 -9 19q-20 0 -53 -17q-1 2 -0.5 10t2.5 10q123 76 174 76
q8 0 10 -19t-3 -42q-8 -43 -65 -332q0 -3 2 -1q44 52 96 87.5t92 35.5q28 0 42 -28.5t14 -76.5q0 -66 -25.5 -130t-74.5 -107q-43 -38 -92 -57.5t-82 -19.5zM202 15q24 0 47 28q32 40 49 104.5t17 119.5q0 64 -31 64q-37 0 -87 -75q-20 -30 -32.5 -85.5t-12.5 -92.5
q0 -23 8 -39q12 -24 42 -24z" />
    <glyph glyph-name="ydieresis" unicode="&#xff;" horiz-adv-x="394" 
d="M149 402q33 0 54 -101q20 -93 30 -237q0 -4 3 0q39 67 51 106t14 81q0 45 -21 92q-1 2 0.5 6.5t4.5 7.5q58 48 78 48q8 0 14 -18.5t5 -33.5q-2 -61 -37 -138q-56 -119 -131.5 -231t-133.5 -169q-81 -80 -123 -80q-22 0 -22 13q0 8 26.5 57t32.5 56q7 7 13 5
q31 -18 57 -18q14 0 28 13.5t36 47.5q10 16 10 44q2 46 -12 142t-30 157q-14 51 -30 51q-18 0 -53 -42q-2 -1 -4 1q0 23 3 28q27 43 67 77.5t70 34.5zM191 562q25 0 31 -13q6 -16 3 -31q-4 -27 -28 -45q-6 -4 -27.5 -5.5t-26.5 0.5q-23 16 -21 37q0 26 10 38q7 7 26.5 13
t32.5 6zM344 562q21 0 31 -13q1 -6 2 -16.5t0 -14.5q-5 -28 -28 -45q-6 -4 -27.5 -5.5t-26.5 0.5q-21 14 -21 37q0 27 11 38q7 7 26.5 13t32.5 6z" />
    <glyph glyph-name="uni0100" unicode="&#x100;" horiz-adv-x="560" 
d="M-66 15q53 8 72.5 19t42.5 53q52 90 135 252t108 220q16 40 17 43q1 0 6 -0.5t13 -1t17 -0.5q10 0 19.5 0.5t14.5 1t6 0.5q0 -17 6 -47q4 -21 33 -207.5t39 -236.5q12 -62 26 -76t65 -20q2 -1 1.5 -9t-3.5 -9q-8 0 -49 1.5t-76 1.5q-37 0 -148 -3q-2 2 -2 9.5t2 8.5
q40 4 51 12q13 8 13 22q0 7 -25 187q0 6 -5 6q-9 1 -60 1h-79q-6 0 -11 -9q-76 -143 -81 -175q-5 -27 23 -34q9 -2 51 -10q1 -2 0.5 -9.5t-2.5 -8.5q-2 0 -20.5 0.5t-47 1.5t-55.5 1q-30 0 -62.5 -1.5t-35.5 -1.5q-1 2 -1 9t2 9zM279 472q-74 -152 -92 -191q-1 -1 -0.5 -3
t1.5 -2q5 -1 59 -1q55 0 62 1q3 0 3 5q-12 88 -29 191q-2 2 -4 0zM258 706q20 -2 55 -2q161 -2 172 1q-2 -11 -12.5 -29t-14.5 -19q-11 -2 -185 -2l-39 2q5 21 24 49z" />
    <glyph glyph-name="uni0101" unicode="&#x101;" horiz-adv-x="461" 
d="M438 110q3 -2 3 -3q0 -14 -4 -23q-30 -39 -77 -69.5t-74 -30.5q-42 0 -26 92l8 43q1 3 -2 3q-2 0 -3 -2q-97 -136 -173 -136q-28 0 -42.5 31t-14.5 67q0 143 94 236q31 31 87.5 58t113.5 27q64 0 109 -13q-14 -29 -21 -62q-33 -141 -40 -229q-2 -27 10 -27q17 0 52 38z
M177 69q17 0 44.5 31t50.5 77q13 25 24 80q16 72 20 96q-17 12 -51 12t-55.5 -18.5t-38.5 -69.5q-21 -60 -21 -139q0 -69 27 -69zM210 539q18 -2 50 -2q147 0 156 3q-1 -11 -12 -31.5t-14 -21.5q-30 -6 -168 -6l-35 2q9 34 23 56z" />
    <glyph glyph-name="uni0102" unicode="&#x102;" horiz-adv-x="560" 
d="M-66 15q53 8 72.5 19t42.5 53q52 90 135 252t108 220q16 40 17 43q1 0 6 -0.5t13 -1t17 -0.5q10 0 19.5 0.5t14.5 1t6 0.5q0 -17 6 -47q4 -21 33 -207.5t39 -236.5q12 -62 26 -76t65 -20q2 -1 1.5 -9t-3.5 -9q-8 0 -49 1.5t-76 1.5q-37 0 -148 -3q-2 2 -2 9.5t2 8.5
q40 4 51 12q13 8 13 22q0 7 -25 187q0 6 -5 6q-9 1 -60 1h-79q-6 0 -11 -9q-76 -143 -81 -175q-5 -27 23 -34q9 -2 51 -10q1 -2 0.5 -9.5t-2.5 -8.5q-2 0 -20.5 0.5t-47 1.5t-55.5 1q-30 0 -62.5 -1.5t-35.5 -1.5q-1 2 -1 9t2 9zM279 472q-74 -152 -92 -191q-1 -1 -0.5 -3
t1.5 -2q5 -1 59 -1q55 0 62 1q3 0 3 5q-12 88 -29 191q-2 2 -4 0zM368 681q67 0 111 54q4 4 15 4q5 0 5 -4q-20 -46 -63 -74.5t-97 -28.5q-49 0 -78.5 23t-25.5 59q5 7 19.5 17t18.5 11q1 1 5 1t6 -1q11 -61 84 -61z" />
    <glyph glyph-name="uni0103" unicode="&#x103;" horiz-adv-x="461" 
d="M438 110q3 -2 3 -3q0 -14 -4 -23q-30 -39 -77 -69.5t-74 -30.5q-42 0 -26 92l8 43q1 3 -2 3q-2 0 -3 -2q-97 -136 -173 -136q-28 0 -42.5 31t-14.5 67q0 143 94 236q31 31 87.5 58t113.5 27q64 0 109 -13q-14 -29 -21 -62q-33 -141 -40 -229q-2 -27 10 -27q17 0 52 38z
M177 69q17 0 44.5 31t50.5 77q13 25 24 80q16 72 20 96q-17 12 -51 12t-55.5 -18.5t-38.5 -69.5q-21 -60 -21 -139q0 -69 27 -69zM308 508q50 0 100 62q7 7 16 7q5 0 5 -2q-19 -53 -59.5 -87t-94.5 -34q-47 0 -73 25t-22 67q4 9 19 20t26 13q1 1 5 1t6 -1q7 -71 72 -71z" />
    <glyph glyph-name="uni0104" unicode="&#x104;" horiz-adv-x="560" 
d="M554 15q2 -1 1.5 -9t-3.5 -9q-8 0 -47 1.5t-71 1.5q-70 -63 -70 -111q0 -20 10.5 -31.5t28.5 -11.5q27 0 55 16q4 -14 -5 -23q-22 -29 -51.5 -42t-52.5 -13q-29 0 -49 16.5t-20 48.5q0 20 12.5 42t39 44.5t41 33.5t42.5 31q-31 0 -136 -3q-2 2 -2 9.5t2 8.5q40 4 51 12
q13 8 13 22q0 7 -25 187q0 6 -5 6q-9 1 -60 1h-79q-6 0 -11 -9q-76 -143 -81 -175q-5 -27 23 -34q9 -2 51 -10q1 -2 0.5 -9.5t-2.5 -8.5q-2 0 -20.5 0.5t-47 1.5t-55.5 1q-30 0 -62.5 -1.5t-35.5 -1.5q-1 2 -1 9t2 9q53 8 72.5 19t42.5 53q52 90 135 252t108 220
q16 40 17 43q1 0 6 -0.5t13 -1t17 -0.5q10 0 19.5 0.5t14.5 1t6 0.5q0 -17 6 -47q4 -21 33 -207.5t39 -236.5q12 -62 26 -76t65 -20zM279 472q-74 -152 -92 -191q-1 -1 -0.5 -3t1.5 -2q5 -1 59 -1q55 0 62 1q3 0 3 5q-12 88 -29 191q-2 2 -4 0z" />
    <glyph glyph-name="uni0105" unicode="&#x105;" horiz-adv-x="447" 
d="M257 122q1 3 -2 3q-2 0 -3 -2q-37 -52 -88.5 -95.5t-89.5 -43.5q-28 0 -40 29t-12 66q0 60 24 124.5t70 111.5q31 31 90.5 59.5t116.5 28.5q58 0 103 -13q-14 -29 -21 -62q-10 -42 -24 -122t-16 -109q-2 -27 10 -27q17 0 52 38q3 -2 3 -3q0 -13 -4 -22q-23 -31 -65 -61
q-78 -70 -78 -115q0 -41 37 -41q23 0 51 15q4 -11 -4 -22q-39 -53 -98 -53q-27 0 -45.5 16t-18.5 47q0 45 95 120q-40 -13 -51 8t0 85zM165 69q17 0 45 31t51 77q13 26 24 79q16 72 20 96q-17 12 -51 12t-55.5 -18.5t-38.5 -69.5q-21 -60 -21 -139q0 -68 26 -68z" />
    <glyph glyph-name="uni0106" unicode="&#x106;" horiz-adv-x="584" 
d="M547 455q0 56 -7.5 81t-25.5 37q-30 20 -88 20q-99 0 -161 -98.5t-62 -242.5q0 -107 49 -167t134 -60q41 0 69 14q50 24 100 91q3 0 8 -4t4 -7q-14 -31 -44 -64.5t-51 -45.5q-48 -27 -146 -27q-131 0 -197 72t-66 190q0 104 50 194.5t148 138.5q78 39 182 39q46 0 102 -9
l57 -10q-24 -66 -36 -142q-2 -2 -10 -2t-9 2zM593 738q1 -1 0.5 -5.5t-1.5 -5.5q-12 -8 -97.5 -45t-89.5 -37q-1 0 -6 6.5t-5 8.5q92 88 139 122q10 1 32 -16t28 -28z" />
    <glyph glyph-name="uni0107" unicode="&#x107;" horiz-adv-x="342" 
d="M214 365q-26 0 -45.5 -52.5t-19.5 -145.5q0 -115 73 -115q51 0 101 61q4 0 4 -4q2 -12 -5 -23q-36 -48 -88 -75t-99 -27q-60 0 -84 49q-16 33 -16 84q0 57 22.5 119t71.5 103q74 62 152 62q37 0 58 -15q12 -9 12 -22q0 -11 -16.5 -37t-28.5 -32q-2 -1 -5.5 -1t-4.5 2
q-44 69 -82 69zM380 585q2 -1 3 -4.5t0 -5.5q-9 -11 -40 -38.5t-72 -62.5t-49 -42q-3 -1 -8 3t-5 8q19 29 49 76.5t35 55.5q6 4 42 8t45 2z" />
    <glyph glyph-name="uni0108" unicode="&#x108;" horiz-adv-x="584" 
d="M547 455q0 56 -7.5 81t-25.5 37q-30 20 -88 20q-99 0 -161 -98.5t-62 -242.5q0 -107 49 -167t134 -60q41 0 69 14q50 24 100 91q3 0 8 -4t4 -7q-14 -31 -44 -64.5t-51 -45.5q-48 -27 -146 -27q-131 0 -197 72t-66 190q0 104 50 194.5t148 138.5q78 39 182 39q46 0 102 -9
l57 -10q-24 -66 -36 -142q-2 -2 -10 -2t-9 2zM456 762q8 4 12 3q6 -10 47 -55t58 -59q0 -3 -3.5 -8t-5.5 -5q-4 0 -50 22.5t-59 29.5q-7 2 -12 0q-23 -10 -80 -31t-61 -21q-3 0 -5.5 6t-1.5 9q26 15 86 55.5t75 53.5z" />
    <glyph glyph-name="uni0109" unicode="&#x109;" horiz-adv-x="342" 
d="M214 365q-26 0 -45.5 -52.5t-19.5 -145.5q0 -115 73 -115q51 0 101 61q4 0 4 -4q2 -12 -5 -23q-36 -48 -88 -75t-99 -27q-60 0 -84 49q-16 33 -16 84q0 57 22.5 119t71.5 103q74 62 152 62q37 0 58 -15q12 -9 12 -22q0 -11 -16.5 -37t-28.5 -32q-2 -1 -5.5 -1t-4.5 2
q-44 69 -82 69zM235 522q-56 -77 -64 -82q-8 -6 -31 -10q-4 2 -4 8q18 22 58.5 76.5t51.5 74.5q2 3 13 6t15 3q39 -123 59 -154q-3 -4 -19.5 -10t-27.5 -7q-6 3 -46 95h-5z" />
    <glyph glyph-name="uni010A" unicode="&#x10a;" horiz-adv-x="584" 
d="M547 455q0 56 -7.5 81t-25.5 37q-30 20 -88 20q-99 0 -161 -98.5t-62 -242.5q0 -107 49 -167t134 -60q41 0 69 14q50 24 100 91q3 0 8 -4t4 -7q-14 -31 -44 -64.5t-51 -45.5q-48 -27 -146 -27q-131 0 -197 72t-66 190q0 104 50 194.5t148 138.5q78 39 182 39q46 0 102 -9
l57 -10q-24 -66 -36 -142q-2 -2 -10 -2t-9 2zM490 716q-6 -32 -29 -47q-12 -6 -36 -7.5t-29 2.5q-22 14 -22 43q0 26 16 42q17 19 56 19q26 0 41 -15q8 -19 3 -37z" />
    <glyph glyph-name="uni010B" unicode="&#x10b;" horiz-adv-x="342" 
d="M214 365q-26 0 -45.5 -52.5t-19.5 -145.5q0 -115 73 -115q51 0 101 61q4 0 4 -4q2 -12 -5 -23q-36 -48 -88 -75t-99 -27q-60 0 -84 49q-16 33 -16 84q0 57 22.5 119t71.5 103q74 62 152 62q37 0 58 -15q12 -9 12 -22q0 -11 -16.5 -37t-28.5 -32q-2 -1 -5.5 -1t-4.5 2
q-44 69 -82 69zM272 564q24 0 31 -13q7 -15 4 -32q-6 -29 -29 -46q-7 -4 -29 -5.5t-27 0.5q-24 17 -22 41q0 25 11 38q19 17 61 17z" />
    <glyph glyph-name="uni010C" unicode="&#x10c;" horiz-adv-x="584" 
d="M547 455q0 56 -7.5 81t-25.5 37q-30 20 -88 20q-99 0 -161 -98.5t-62 -242.5q0 -107 49 -167t134 -60q41 0 69 14q50 24 100 91q3 0 8 -4t4 -7q-14 -31 -44 -64.5t-51 -45.5q-48 -27 -146 -27q-131 0 -197 72t-66 190q0 104 50 194.5t148 138.5q78 39 182 39q46 0 102 -9
l57 -10q-24 -66 -36 -142q-2 -2 -10 -2t-9 2zM433 649q-3 -1 -12 -3q-6 11 -48.5 57.5t-58.5 60.5q6 11 10 11q8 0 111 -59q7 -2 10 0q130 59 141 59q3 0 5 -6t1 -9q-42 -25 -159 -111z" />
    <glyph glyph-name="uni010D" unicode="&#x10d;" horiz-adv-x="342" 
d="M214 365q-26 0 -45.5 -52.5t-19.5 -145.5q0 -115 73 -115q51 0 101 61q4 0 4 -4q2 -12 -5 -23q-36 -48 -88 -75t-99 -27q-60 0 -84 49q-16 33 -16 84q0 57 22.5 119t71.5 103q74 62 152 62q37 0 58 -15q12 -9 12 -22q0 -11 -16.5 -37t-28.5 -32q-2 -1 -5.5 -1t-4.5 2
q-44 69 -82 69zM272 501q57 77 65 83q6 4 33 9q4 -2 4 -8q-24 -25 -60 -75t-51 -77q-2 -3 -13 -6t-15 -3q-13 45 -32.5 95t-25.5 60q3 5 18.5 11t26.5 6q10 0 46 -95h4z" />
    <glyph glyph-name="uni010E" unicode="&#x10e;" horiz-adv-x="668" 
d="M-16 15q50 5 56 6q15 3 21.5 13.5t12.5 32.5q6 25 40.5 228.5t37.5 245.5q3 31 -22 37q-17 5 -45 8q-2 2 -0.5 9t4.5 9q8 0 56 -2t58 -2q37 0 78.5 0.5t81.5 0.5q144 0 211 -77q62 -70 62 -180q0 -175 -110 -266q-45 -39 -97 -58.5t-90.5 -23t-105.5 -3.5q-19 0 -108 2
t-143 2q-2 1 -1.5 9t3.5 9zM204 67q-4 -24 15 -35q23 -14 68 -14q68 0 122 55q43 44 67.5 118t24.5 149q0 131 -56 187q-47 49 -127 49q-12 0 -24 -3q-8 -2 -10 -15q-34 -184 -80 -491zM356 639q-3 -1 -12 -3q-6 11 -48.5 57.5t-58.5 60.5q5 11 10 11q8 0 111 -59q7 -2 10 0
q130 59 141 59q3 0 5 -6t1 -9q-42 -25 -159 -111z" />
    <glyph glyph-name="uni010F" unicode="&#x10f;" horiz-adv-x="471" 
d="M33 97q0 59 21.5 124t65.5 109q25 25 77.5 48t96.5 23q20 0 34 -2q2 0 4 5q21 103 28 168q3 25 -9 26q-19 2 -59 -14q-1 3 0 10.5t3 9.5q40 24 96.5 47t80.5 23q19 -1 8 -63q-9 -53 -34.5 -189.5t-40.5 -222.5t-15 -107q0 -19 9 -19q18 0 56 38q2 -2 2 -3q3 -10 -3 -21
q-42 -52 -91.5 -83.5t-74.5 -31.5q-14 0 -19 21.5t2 57.5q2 16 5.5 36t4.5 30q0 5 -4 1q-38 -52 -90 -93t-93 -41q-28 0 -44.5 29.5t-16.5 83.5zM182 65q19 0 43.5 23t45.5 58q19 31 26 64q21 98 21 112q0 20 -8 30q-19 22 -55 22q-44 0 -73.5 -76t-29.5 -167q0 -66 30 -66z
M615 703q5 0 2 -15q-4 -25 -25 -91.5t-35 -99.5q-3 -5 -15 -16t-19 -14q-4 -3 -4 3q22 127 24 182q0 3 6 9q7 8 32.5 25t33.5 17z" />
    <glyph glyph-name="uni0110" unicode="&#x110;" horiz-adv-x="678" 
d="M331 576q-15 0 -27 -3q-8 -2 -10 -15q-10 -54 -39 -231q31 0 58.5 0.5t43.5 0.5h20q-2 -17 -9 -28h-38q-37 1 -79 1q-34 -215 -37 -236q-4 -24 13 -33q26 -16 75 -16q63 0 117 55q43 43 67.5 118.5t24.5 150.5q0 131 -56 187q-47 49 -124 49zM95 586q-2 2 -0.5 9t4.5 9
q8 0 56 -2t58 -2q37 0 80 0.5t83 0.5q142 0 208 -76q62 -70 62 -182q0 -171 -112 -264q-66 -56 -131 -72t-172 -16q-19 0 -102 3t-137 3q-2 1 -1.5 9t3.5 9q50 5 56 6q15 3 21.5 13.5t12.5 32.5q4 15 42 234q-39 -1 -80 -1q3 19 12 28h24q25 -1 48 -1q30 178 32 214
q3 31 -22 37q-17 5 -45 8z" />
    <glyph glyph-name="uni0111" unicode="&#x111;" horiz-adv-x="471" 
d="M294 401q6 0 32 -2q4 0 6 6q6 27 15 83h-98q3 18 10 25h92l9 62q3 23 -8 24q-18 2 -60 -15q-1 3 0 10.5t3 9.5q135 70 180 70q16 -2 5 -58l-20 -103h73q-2 -15 -8 -25h-70q-65 -348 -65 -396q0 -18 9 -18q19 0 56 37q2 -2 2 -3q1 -3 0 -10t-2 -9q-42 -52 -92.5 -84.5
t-75.5 -32.5q-14 0 -18 21.5t3 57.5l9 66q0 5 -4 1q-38 -52 -90 -93t-93 -41q-28 0 -44.5 29.5t-16.5 83.5q0 59 21.5 124t65.5 109q25 25 77.5 48t96.5 23zM182 65q19 0 43.5 23t45.5 58q19 31 26 64q21 98 21 112q0 20 -8 30q-19 22 -55 22q-44 0 -73.5 -76t-29.5 -167
q0 -66 30 -66z" />
    <glyph glyph-name="uni0112" unicode="&#x112;" horiz-adv-x="535" 
d="M-12 15q34 3 53 9q15 4 22 14.5t13 37.5q15 71 41 232t33 220q3 23 -0.5 34.5t-18.5 16.5q-18 6 -46 8q0 11 3 17q7 0 57.5 -2t76.5 -2h197q85 0 109 5q2 -2 2 -5q-21 -46 -40 -147q-2 -2 -9 -2t-9 2q0 63 -10 89q-11 25 -38 28q-17 1 -66 2t-66 0q-6 -1 -9 -9
q-19 -95 -39 -233q0 -7 6 -7q76 0 120 3q26 1 42 34q11 20 17 38q1 2 9 2t10 -2q-8 -28 -19 -94q-8 -50 -14 -97q-2 -2 -8.5 -2t-8.5 1q-1 25 -6 53q-5 26 -27 30q-21 4 -121 4q-7 0 -7 -8q-5 -28 -16 -103t-16 -107q-6 -38 14 -42q25 -5 138 -5q46 0 75 28q34 34 66 92
q2 1 8.5 -2t7.5 -5q-6 -24 -23.5 -67.5t-31.5 -63.5q-6 -9 -12 -11t-24 -2q-30 0 -116.5 1.5t-170.5 1.5q-41 0 -75 -1t-52.5 -1.5t-21.5 -0.5q-1 2 -1 9t2 9zM244 715q20 -2 55 -2q161 -2 172 1q-2 -11 -12.5 -29t-14.5 -19q-11 -2 -185 -2l-39 2q5 21 24 49z" />
    <glyph glyph-name="uni0113" unicode="&#x113;" horiz-adv-x="350" 
d="M214 368q-22 0 -42 -43t-27 -113q1 -3 3 -4q35 10 65 34q32 27 32 82q0 21 -9.5 32.5t-21.5 11.5zM281 402q30 0 46 -18.5t16 -43.5q0 -56 -85 -105q-48 -27 -110 -50q-4 0 -4 -5q-1 -6 -1 -11q0 -55 15.5 -84t54.5 -29q60 0 114 61q3 0 3 -4q0 -7 -4 -23
q-29 -43 -85 -74.5t-106 -31.5q-101 0 -101 134q0 64 22 122t57 92q26 26 77.5 48t90.5 22zM156 539q18 -2 50 -2q147 0 156 3q-1 -11 -12 -31.5t-14 -21.5q-30 -6 -168 -6l-35 2q9 34 23 56z" />
    <glyph glyph-name="uni0114" unicode="&#x114;" horiz-adv-x="535" 
d="M-12 15q34 3 53 9q15 4 22 14.5t13 37.5q15 71 41 232t33 220q3 23 -0.5 34.5t-18.5 16.5q-18 6 -46 8q0 11 3 17q7 0 57.5 -2t76.5 -2h197q85 0 109 5q2 -2 2 -5q-21 -46 -40 -147q-2 -2 -9 -2t-9 2q0 63 -10 89q-11 25 -38 28q-17 1 -66 2t-66 0q-6 -1 -9 -9
q-19 -95 -39 -233q0 -7 6 -7q76 0 120 3q26 1 42 34q11 20 17 38q1 2 9 2t10 -2q-8 -28 -19 -94q-8 -50 -14 -97q-2 -2 -8.5 -2t-8.5 1q-1 25 -6 53q-5 26 -27 30q-21 4 -121 4q-7 0 -7 -8q-5 -28 -16 -103t-16 -107q-6 -38 14 -42q25 -5 138 -5q46 0 75 28q34 34 66 92
q2 1 8.5 -2t7.5 -5q-6 -24 -23.5 -67.5t-31.5 -63.5q-6 -9 -12 -11t-24 -2q-30 0 -116.5 1.5t-170.5 1.5q-41 0 -75 -1t-52.5 -1.5t-21.5 -0.5q-1 2 -1 9t2 9zM350 693q67 0 111 54q4 4 15 4q5 0 5 -4q-20 -46 -63 -74.5t-97 -28.5q-49 0 -78.5 23t-25.5 59q5 7 19.5 17
t18.5 11q1 1 5 1t6 -1q11 -61 84 -61z" />
    <glyph glyph-name="uni0115" unicode="&#x115;" horiz-adv-x="350" 
d="M214 368q-22 0 -42 -43t-27 -113q1 -3 3 -4q35 10 65 34q32 27 32 82q0 21 -9.5 32.5t-21.5 11.5zM281 402q30 0 46 -18.5t16 -43.5q0 -56 -85 -105q-48 -27 -110 -50q-4 0 -4 -5q-1 -6 -1 -11q0 -55 15.5 -84t54.5 -29q60 0 114 61q3 0 3 -4q0 -7 -4 -23
q-29 -43 -85 -74.5t-106 -31.5q-101 0 -101 134q0 64 22 122t57 92q26 26 77.5 48t90.5 22zM264 508q50 0 100 62q7 7 16 7q5 0 5 -2q-19 -53 -59.5 -87t-94.5 -34q-47 0 -73 25t-22 67q4 9 19 20t26 13q1 1 5 1t6 -1q7 -71 72 -71z" />
    <glyph glyph-name="uni0116" unicode="&#x116;" horiz-adv-x="535" 
d="M-12 15q34 3 53 9q15 4 22 14.5t13 37.5q15 71 41 232t33 220q3 23 -0.5 34.5t-18.5 16.5q-18 6 -46 8q0 11 3 17q7 0 57.5 -2t76.5 -2h197q85 0 109 5q2 -2 2 -5q-21 -46 -40 -147q-2 -2 -9 -2t-9 2q0 63 -10 89q-11 25 -38 28q-17 1 -66 2t-66 0q-6 -1 -9 -9
q-19 -95 -39 -233q0 -7 6 -7q76 0 120 3q26 1 42 34q11 20 17 38q1 2 9 2t10 -2q-8 -28 -19 -94q-8 -50 -14 -97q-2 -2 -8.5 -2t-8.5 1q-1 25 -6 53q-5 26 -27 30q-21 4 -121 4q-7 0 -7 -8q-5 -28 -16 -103t-16 -107q-6 -38 14 -42q25 -5 138 -5q46 0 75 28q34 34 66 92
q2 1 8.5 -2t7.5 -5q-6 -24 -23.5 -67.5t-31.5 -63.5q-6 -9 -12 -11t-24 -2q-30 0 -116.5 1.5t-170.5 1.5q-41 0 -75 -1t-52.5 -1.5t-21.5 -0.5q-1 2 -1 9t2 9zM403 700q-6 -32 -29 -47q-12 -6 -36 -7.5t-29 2.5q-22 14 -22 43q0 26 16 42q17 19 56 19q26 0 41 -15
q8 -19 3 -37z" />
    <glyph glyph-name="uni0117" unicode="&#x117;" horiz-adv-x="350" 
d="M214 368q-22 0 -42 -43t-27 -113q1 -3 3 -4q35 10 65 34q32 27 32 82q0 21 -9.5 32.5t-21.5 11.5zM281 402q30 0 46 -18.5t16 -43.5q0 -56 -85 -105q-48 -27 -110 -50q-4 0 -4 -5q-1 -6 -1 -11q0 -55 15.5 -84t54.5 -29q60 0 114 61q3 0 3 -4q0 -7 -4 -23
q-29 -43 -85 -74.5t-106 -31.5q-101 0 -101 134q0 64 22 122t57 92q26 26 77.5 48t90.5 22zM269 564q25 0 31 -13q7 -15 4 -32q-6 -29 -29 -46q-7 -4 -29 -5.5t-27 0.5q-24 17 -22 41q0 25 11 38q19 17 61 17z" />
    <glyph glyph-name="uni0118" unicode="&#x118;" horiz-adv-x="535" 
d="M390 -3q-28 0 -101 1.5t-153 1.5q-41 0 -75 -1t-52.5 -1.5t-21.5 -0.5q-1 2 -1 9t2 9q34 3 53 9q15 4 22 14.5t13 37.5q15 71 41 232t33 220q3 23 -0.5 34.5t-18.5 16.5q-18 6 -46 8q0 11 3 17q7 0 57.5 -2t76.5 -2h197q83 0 107 5q2 -2 2 -5q-14 -31 -35 -141
q-2 -2 -9 -2t-9 2q0 66 -9 89q-8 19 -33 21q-72 6 -141 3q-6 -1 -9 -9q-19 -95 -39 -233q0 -7 6 -7q76 0 120 3q28 1 44 33q8 14 17 42q1 2 9 2t10 -2q-15 -51 -21 -97q-6 -36 -13 -94q-2 -2 -8.5 -2t-8.5 1q-2 34 -4 47q-6 28 -29 32q-27 5 -122 5q-7 0 -7 -8
q-5 -28 -16 -103t-16 -107q-6 -38 14 -42q25 -5 138 -5q44 0 78 32q31 31 63 89q2 1 8.5 -2t7.5 -5q-6 -24 -23.5 -68t-31.5 -64q-6 -8 -14.5 -10.5t-35.5 -2.5q-66 -61 -66 -108q0 -20 10.5 -31.5t28.5 -11.5q27 0 55 16q4 -14 -5 -23q-22 -29 -51.5 -42t-52.5 -13
q-29 0 -49 16.5t-20 48.5q0 58 131 148z" />
    <glyph glyph-name="uni0119" unicode="&#x119;" horiz-adv-x="350" 
d="M214 368q-22 0 -42 -43t-27 -113q1 -3 3 -4q35 10 65 34q32 27 32 82q0 21 -9.5 32.5t-21.5 11.5zM281 402q30 0 46 -18.5t16 -43.5q0 -56 -85 -105q-48 -27 -110 -50q-2 0 -4 -5q-1 -2 -1 -7q0 -117 70 -117q57 0 114 62q3 0 3 -4q0 -6 -3 -18q-31 -45 -92 -83
q-35 -27 -52 -56.5t-17 -49.5q0 -41 37 -41q23 0 51 15q4 -11 -4 -22q-39 -53 -98 -53q-27 0 -45.5 16t-18.5 47q0 53 101 124q-26 -9 -54 -9q-101 0 -101 134q0 64 22 122t57 92q26 26 77.5 48t90.5 22z" />
    <glyph glyph-name="uni011A" unicode="&#x11a;" horiz-adv-x="535" 
d="M-12 15q34 3 53 9q15 4 22 14.5t13 37.5q15 71 41 232t33 220q3 23 -0.5 34.5t-18.5 16.5q-18 6 -46 8q0 11 3 17q7 0 57.5 -2t76.5 -2h197q85 0 109 5q2 -2 2 -5q-21 -46 -40 -147q-2 -2 -9 -2t-9 2q0 63 -10 89q-11 25 -38 28q-17 1 -66 2t-66 0q-6 -1 -9 -9
q-19 -95 -39 -233q0 -7 6 -7q76 0 120 3q26 1 42 34q11 20 17 38q1 2 9 2t10 -2q-8 -28 -19 -94q-8 -50 -14 -97q-2 -2 -8.5 -2t-8.5 1q-1 25 -6 53q-5 26 -27 30q-21 4 -121 4q-7 0 -7 -8q-5 -28 -16 -103t-16 -107q-6 -38 14 -42q25 -5 138 -5q46 0 75 28q34 34 66 92
q2 1 8.5 -2t7.5 -5q-6 -24 -23.5 -67.5t-31.5 -63.5q-6 -9 -12 -11t-24 -2q-30 0 -116.5 1.5t-170.5 1.5q-41 0 -75 -1t-52.5 -1.5t-21.5 -0.5q-1 2 -1 9t2 9zM341 638q-3 -2 -12 -3q-6 11 -48.5 57.5t-58.5 60.5q6 11 10 11q8 0 111 -59q7 -3 10 0q130 59 141 59q3 0 5 -6
t1 -9q-42 -25 -159 -111z" />
    <glyph glyph-name="uni011B" unicode="&#x11b;" horiz-adv-x="350" 
d="M214 368q-22 0 -42 -43t-27 -113q1 -3 3 -4q35 10 65 34q32 27 32 82q0 21 -9.5 32.5t-21.5 11.5zM281 402q30 0 46 -18.5t16 -43.5q0 -56 -85 -105q-48 -27 -110 -50q-4 0 -4 -5q-1 -6 -1 -11q0 -55 15.5 -84t54.5 -29q60 0 114 61q3 0 3 -4q0 -7 -4 -23
q-29 -43 -85 -74.5t-106 -31.5q-101 0 -101 134q0 64 22 122t57 92q26 26 77.5 48t90.5 22zM256 501q57 77 65 83q6 4 33 9q4 -2 4 -8q-24 -25 -60 -75t-51 -77q-2 -3 -13 -6t-15 -3q-13 45 -32.5 95t-25.5 60q3 5 18.5 11t26.5 6q10 0 46 -95h4z" />
    <glyph glyph-name="uni011C" unicode="&#x11c;" horiz-adv-x="649" 
d="M562 41q0 -13 -5 -16q-40 -14 -104.5 -28.5t-110.5 -14.5q-139 0 -210 63t-71 196q0 109 58 205t159 138q83 34 187 34q38 0 94 -8q68 -10 78 -11q-29 -73 -38 -150q-1 -4 -9.5 -4t-9.5 3q1 92 -28 117q-35 30 -108 30q-99 0 -170 -105.5t-71 -260.5q0 -222 157 -222
q22 0 32 6q14 8 22 27q9 29 23 144q4 32 -2 42.5t-26 15.5q-21 5 -44 8q-1 2 0 9t3 9q6 0 45 -2t86 -2q83 0 135 5q1 -2 0 -9t-2 -10l-25 -6q-21 -6 -28.5 -18.5t-18.5 -72.5q-12 -59 -13 -85q0 -8 0.5 -12t4 -8t10.5 -7zM473 770q8 4 12 3q6 -10 47 -55t58 -59
q0 -3 -3.5 -8t-5.5 -5q-4 0 -50 22.5t-59 29.5q-7 2 -12 0q-23 -10 -80 -31t-61 -21q-3 0 -5.5 6t-1.5 9q26 15 86 55.5t75 53.5z" />
    <glyph glyph-name="uni011D" unicode="&#x11d;" horiz-adv-x="409" 
d="M465 389q1 -1 0.5 -7.5t-1.5 -8.5q-18 -38 -63 -52q-18 -4 -23 -4q1 -8 1 -23q-1 -55 -26.5 -102t-63.5 -71q-36 -24 -89 -35q-15 -3 -23 -3q-6 0 -13 -5t-7 -10q0 -11 26 -24q5 -3 8 -4q10 -5 35.5 -17.5t46 -23t39.5 -23.5q38 -25 52 -44.5t14 -49.5q0 -26 -22.5 -57
t-61.5 -56q-69 -45 -138 -45q-85 0 -137.5 34.5t-52.5 84.5q0 36 129 104q3 1 0 4q-42 31 -42 60q0 10 10 20q22 22 80 51q1 1 0.5 2.5t-1.5 1.5q-50 7 -73 37t-22 73q1 51 27.5 100t68.5 75q51 32 111 32q31 0 91 -24q33 -13 54 -13q37 0 66 23zM199 107q33 0 53 69.5
t20 135.5q0 70 -38 70q-32 0 -53.5 -65.5t-21.5 -129.5q0 -80 40 -80zM204 -236q83 0 83 49q0 36 -56 70q-84 52 -107 52q-17 0 -47 -24.5t-30 -46.5q0 -35 44.5 -67.5t112.5 -32.5zM248 522q-56 -77 -64 -82q-8 -6 -31 -10q-4 2 -4 8q18 22 58.5 76.5t51.5 74.5q2 3 13 6
t15 3q39 -123 59 -154q-3 -4 -19.5 -10t-27.5 -7q-6 3 -46 95h-5z" />
    <glyph glyph-name="uni011E" unicode="&#x11e;" horiz-adv-x="649" 
d="M562 41q0 -13 -5 -16q-40 -14 -104.5 -28.5t-110.5 -14.5q-139 0 -210 63t-71 196q0 109 58 205t159 138q83 34 187 34q38 0 94 -8q68 -10 78 -11q-29 -73 -38 -150q-1 -4 -9.5 -4t-9.5 3q1 92 -28 117q-35 30 -108 30q-99 0 -170 -105.5t-71 -260.5q0 -222 157 -222
q22 0 32 6q14 8 22 27q9 29 23 144q4 32 -2 42.5t-26 15.5q-21 5 -44 8q-1 2 0 9t3 9q6 0 45 -2t86 -2q83 0 135 5q1 -2 0 -9t-2 -10l-25 -6q-21 -6 -28.5 -18.5t-18.5 -72.5q-12 -59 -13 -85q0 -8 0.5 -12t4 -8t10.5 -7zM468 706q67 0 111 54q4 4 15 4q5 0 5 -4
q-20 -46 -63 -74.5t-97 -28.5q-49 0 -78.5 23t-25.5 59q5 7 19.5 17t18.5 11q1 1 5 1t6 -1q11 -61 84 -61z" />
    <glyph glyph-name="uni011F" unicode="&#x11f;" horiz-adv-x="409" 
d="M465 389q1 -1 0.5 -7.5t-1.5 -8.5q-18 -38 -63 -52q-18 -4 -23 -4q1 -8 1 -23q-1 -55 -26.5 -102t-63.5 -71q-36 -24 -89 -35q-15 -3 -23 -3q-6 0 -13 -5t-7 -10q0 -11 26 -24q5 -3 8 -4q10 -5 35.5 -17.5t46 -23t39.5 -23.5q38 -25 52 -44.5t14 -49.5q0 -26 -22.5 -57
t-61.5 -56q-69 -45 -138 -45q-85 0 -137.5 34.5t-52.5 84.5q0 36 129 104q3 1 0 4q-42 31 -42 60q0 10 10 20q22 22 80 51q1 1 0.5 2.5t-1.5 1.5q-50 7 -73 37t-22 73q1 51 27.5 100t68.5 75q51 32 111 32q31 0 91 -24q33 -13 54 -13q37 0 66 23zM199 107q33 0 53 69.5
t20 135.5q0 70 -38 70q-32 0 -53.5 -65.5t-21.5 -129.5q0 -80 40 -80zM204 -236q83 0 83 49q0 36 -56 70q-84 52 -107 52q-17 0 -47 -24.5t-30 -46.5q0 -35 44.5 -67.5t112.5 -32.5zM281 505q50 0 100 62q7 7 16 7q5 0 5 -2q-19 -53 -59.5 -87t-94.5 -34q-47 0 -73 25
t-22 67q4 9 19 20t26 13q2 1 6 1t5 -1q7 -71 72 -71z" />
    <glyph glyph-name="uni0120" unicode="&#x120;" horiz-adv-x="649" 
d="M562 41q0 -13 -5 -16q-40 -14 -104.5 -28.5t-110.5 -14.5q-139 0 -210 63t-71 196q0 109 58 205t159 138q83 34 187 34q38 0 94 -8q68 -10 78 -11q-29 -73 -38 -150q-1 -4 -9.5 -4t-9.5 3q1 92 -28 117q-35 30 -108 30q-99 0 -170 -105.5t-71 -260.5q0 -222 157 -222
q22 0 32 6q14 8 22 27q9 29 23 144q4 32 -2 42.5t-26 15.5q-21 5 -44 8q-1 2 0 9t3 9q6 0 45 -2t86 -2q83 0 135 5q1 -2 0 -9t-2 -10l-25 -6q-21 -6 -28.5 -18.5t-18.5 -72.5q-12 -59 -13 -85q0 -8 0.5 -12t4 -8t10.5 -7zM513 716q-6 -32 -29 -47q-12 -6 -36 -7.5t-29 2.5
q-22 14 -22 43q0 26 16 42q17 19 56 19q26 0 41 -15q8 -19 3 -37z" />
    <glyph glyph-name="uni0121" unicode="&#x121;" horiz-adv-x="409" 
d="M465 389q1 -1 0.5 -7.5t-1.5 -8.5q-18 -38 -63 -52q-18 -4 -23 -4q1 -8 1 -23q-1 -55 -26.5 -102t-63.5 -71q-36 -24 -89 -35q-15 -3 -23 -3q-6 0 -13 -5t-7 -10q0 -11 26 -24q5 -3 8 -4q10 -5 35.5 -17.5t46 -23t39.5 -23.5q38 -25 52 -44.5t14 -49.5q0 -26 -22.5 -57
t-61.5 -56q-69 -45 -138 -45q-85 0 -137.5 34.5t-52.5 84.5q0 36 129 104q3 1 0 4q-42 31 -42 60q0 10 10 20q22 22 80 51q1 1 0.5 2.5t-1.5 1.5q-50 7 -73 37t-22 73q1 51 27.5 100t68.5 75q51 32 111 32q31 0 91 -24q33 -13 54 -13q37 0 66 23zM199 107q33 0 53 69.5
t20 135.5q0 70 -38 70q-32 0 -53.5 -65.5t-21.5 -129.5q0 -80 40 -80zM204 -236q83 0 83 49q0 36 -56 70q-84 52 -107 52q-17 0 -47 -24.5t-30 -46.5q0 -35 44.5 -67.5t112.5 -32.5zM278 568q24 0 31 -13q7 -15 4 -32q-6 -29 -29 -46q-7 -4 -29 -5.5t-27 0.5q-24 17 -22 41
q0 25 11 38q19 17 61 17z" />
    <glyph glyph-name="uni0122" unicode="&#x122;" horiz-adv-x="649" 
d="M562 41q0 -13 -5 -16q-40 -14 -104.5 -28.5t-110.5 -14.5q-139 0 -210 63t-71 196q0 109 58 205t159 138q83 34 187 34q38 0 94 -8q68 -10 78 -11q-29 -73 -38 -150q-1 -4 -9.5 -4t-9.5 3q1 92 -28 117q-35 30 -108 30q-99 0 -170 -105.5t-71 -260.5q0 -222 157 -222
q22 0 32 6q14 8 22 27q9 29 23 144q4 32 -2 42.5t-26 15.5q-21 5 -44 8q-1 2 0 9t3 9q6 0 45 -2t86 -2q83 0 135 5q1 -2 0 -9t-2 -10l-25 -6q-21 -6 -28.5 -18.5t-18.5 -72.5q-12 -59 -13 -85q0 -8 0.5 -12t4 -8t10.5 -7zM337 -49q18 0 30 -21.5t7 -50.5q-6 -36 -37.5 -64
t-83.5 -41q-11 6 -8 18q39 16 55 29t18 30q6 35 -50 51q-1 1 0 6.5t2 6.5q11 13 32 24.5t35 11.5z" />
    <glyph glyph-name="uni0123" unicode="&#x123;" horiz-adv-x="409" 
d="M251 434q-18 0 -30 21.5t-7 50.5q6 36 37.5 64t83.5 41q11 -6 8 -18q-39 -16 -55 -29t-18 -30q-6 -35 50 -51q1 -1 0 -6.5t-2 -6.5q-11 -13 -32 -24.5t-35 -11.5zM465 389q1 -1 0.5 -7.5t-1.5 -8.5q-18 -38 -63 -52q-18 -4 -23 -4q1 -8 1 -23q-1 -55 -26.5 -102
t-63.5 -71q-36 -24 -89 -35q-15 -3 -23 -3q-6 0 -13 -5t-7 -10q0 -11 26 -24q5 -3 8 -4q10 -5 35.5 -17.5t46 -23t39.5 -23.5q38 -25 52 -44.5t14 -49.5q0 -26 -22.5 -57t-61.5 -56q-69 -45 -138 -45q-85 0 -137.5 34.5t-52.5 84.5q0 36 129 104q3 1 0 4q-42 31 -42 60
q0 10 10 20q22 22 80 51q1 1 0.5 2.5t-1.5 1.5q-50 7 -73 37t-22 73q1 51 27.5 100t68.5 75q51 32 111 32q31 0 91 -24q33 -13 54 -13q37 0 66 23zM199 107q33 0 53 69.5t20 135.5q0 70 -38 70q-32 0 -53.5 -65.5t-21.5 -129.5q0 -80 40 -80zM204 -236q83 0 83 49
q0 36 -56 70q-84 52 -107 52q-17 0 -47 -24.5t-30 -46.5q0 -35 44.5 -67.5t112.5 -32.5z" />
    <glyph glyph-name="uni0124" unicode="&#x124;" horiz-adv-x="690" 
d="M88 585q-2 2 -1 9.5t3 8.5q2 0 52.5 -1.5t78.5 -1.5q29 0 80.5 1.5t54.5 1.5q2 -2 0.5 -9.5t-3.5 -8.5q-32 -5 -36 -6q-18 -5 -26 -14t-13 -35q-13 -68 -32 -190q0 -8 3 -9q8 -2 117 -2q113 0 120 1q3 0 5 7q15 80 30 199q3 22 -2.5 31t-19.5 12q-2 0 -41 6
q-2 2 -1.5 9.5t3.5 9.5q10 0 50 -2t81 -2q52 0 92 1.5t42 1.5q2 -2 1.5 -9t-2.5 -9q-19 -3 -40 -8q-15 -4 -23 -13t-12 -31q-40 -226 -72 -450q-8 -52 21 -60q1 0 47 -8q1 -2 -0.5 -9.5t-3.5 -8.5q-1 0 -44.5 1.5t-85.5 1.5q-44 0 -76.5 -1t-48.5 -1.5t-22 -0.5q-2 2 -1.5 9
t2.5 9q8 1 42 7q17 3 25 15t15 44q23 106 37 207q2 8 -5 8h-123q-111 -1 -114 -2q-4 -2 -4 -6q-1 -5 -14 -89.5t-17 -117.5q-6 -51 19 -57q7 -2 47 -9q1 -2 -0.5 -9t-3.5 -9q-4 0 -50 1.5t-87 1.5q-53 0 -98 -2l-44 -1q-2 2 -1 9t2 9l39 5q21 4 31 17.5t19 51.5
q10 46 37.5 220t32.5 221q1 24 -2.5 33t-15.5 13q-16 5 -44 9zM444 765q8 4 12 3q6 -10 47 -55t58 -59q0 -3 -3.5 -8t-5.5 -5q-4 0 -50 22.5t-59 29.5q-7 2 -12 0q-23 -10 -80 -31t-61 -21q-3 0 -5.5 6t-1.5 9q26 15 86 55.5t75 53.5z" />
    <glyph glyph-name="uni0125" unicode="&#x125;" horiz-adv-x="469" 
d="M215 774q3 1 13 3q8 -8 51 -42.5t63 -48.5q0 -3 -3 -8.5t-6 -4.5q-4 1 -53.5 18t-63.5 22q-5 2 -10 0q-4 -1 -39.5 -12t-63 -19.5t-30.5 -8.5t-4.5 5t-0.5 9q123 67 147 87zM304 330q-18 0 -47.5 -29t-57.5 -76q-20 -34 -36 -93q-21 -78 -7 -100q-9 -10 -54.5 -30
t-53.5 -20q-10 0 -12 10q-2 11 3 47q12 78 49 272t46 256q3 28 -9 28q-15 0 -54 -18q-1 2 0.5 10.5t2.5 9.5q45 30 95.5 53.5t75.5 23.5q19 0 9 -56q-47 -258 -70 -367q1 -2 5 1q48 66 104 108.5t100 42.5q28 0 33 -32.5t-7 -85.5q-32 -178 -34 -197q0 -19 9 -19q15 0 49 34
q3 -1 3 -3q2 -10 -2 -18q-25 -34 -73.5 -66t-79.5 -32q-37 0 -22 88q18 98 40 208q10 50 -5 50z" />
    <glyph glyph-name="Hbar" unicode="&#x126;" horiz-adv-x="690" 
d="M88 585q-2 2 -1 9.5t3 8.5q2 0 52.5 -1.5t78.5 -1.5q29 0 80.5 1.5t54.5 1.5q2 -2 0.5 -9.5t-3.5 -8.5q-32 -5 -36 -6q-18 -5 -26 -14t-13 -35l-17 -95q32 0 82 -0.5t68 -0.5h96l14 102q3 22 -2.5 31t-19.5 12q-2 0 -41 6q-2 2 -1.5 9.5t3.5 9.5q10 0 50 -2t81 -2
q52 0 92 1.5t42 1.5q2 -2 1.5 -9t-2.5 -9q-19 -3 -40 -8q-15 -4 -23 -13t-12 -31l-17 -98h62q1 -3 -1 -13.5t-5 -12.5h-60q-39 -237 -51 -326q-8 -52 21 -60q1 0 47 -8q1 -2 -0.5 -9.5t-3.5 -8.5q-1 0 -44.5 1.5t-85.5 1.5q-44 0 -76.5 -1t-48.5 -1.5t-22 -0.5q-2 2 -1.5 9
t2.5 9q8 1 42 7q17 3 25 15t15 44q22 103 34 187q2 8 -5 8h-123q-111 -1 -114 -2q-4 -2 -4 -6q-1 -8 -12.5 -81t-15.5 -106q-6 -51 19 -57q7 -2 47 -9q1 -2 -0.5 -9t-3.5 -9q-4 0 -50 1.5t-87 1.5q-53 0 -98 -2l-44 -1q-2 2 -1 9t2 9l39 5q21 4 31 17.5t19 51.5
q11 52 53 320q-5 0 -32.5 -0.5t-30.5 -0.5q3 23 8 27h59l13 95q1 24 -2.5 33t-15.5 13q-16 5 -44 9zM363 309q113 0 120 1q3 0 5 7q13 77 15 93h-246l-14 -90q0 -8 3 -9q8 -2 117 -2z" />
    <glyph glyph-name="hbar" unicode="&#x127;" horiz-adv-x="469" 
d="M71 577q-1 2 0.5 10.5t2.5 9.5q45 30 95.5 53.5t75.5 23.5q19 0 9 -56q-3 -17 -11 -57t-9 -48h109q-2 -15 -8 -25h-105q-24 -135 -46 -239q1 -2 5 1q49 66 104.5 109.5t99.5 43.5q26 0 32.5 -26.5t-2.5 -68.5q-5 -27 -15 -77.5t-16.5 -86.5t-6.5 -56q0 -19 9 -19
q15 0 49 34q3 -1 3 -3q2 -10 -2 -18q-26 -36 -72.5 -67t-81.5 -31q-36 0 -21 88q21 118 43 225q8 34 -7 34q-18 0 -48 -29.5t-58 -76.5q-19 -32 -38 -103q-18 -70 -5 -91q-19 -14 -59.5 -32t-48.5 -18q-10 0 -12 10q-2 11 3 47q0 3 83 450h-63q3 18 10 25h57l8 54
q3 28 -9 28q-15 0 -54 -18z" />
    <glyph glyph-name="uni0128" unicode="&#x128;" horiz-adv-x="320" 
d="M87 585q-2 2 -1 9t3 9l39 -1q40 -2 90 -2t94 2l44 1q2 -1 1 -8.5t-3 -9.5q-35 -5 -42 -7q-16 -4 -22.5 -12.5t-12.5 -37.5q-1 -4 -36 -220q-32 -210 -35 -235q0 -10 -1 -19.5t5.5 -18.5t20.5 -12q5 -1 43 -8q2 -1 0.5 -9t-4.5 -9q-13 0 -61 1.5t-78 1.5q-104 -2 -142 -2
q-2 2 -1.5 8.5t2.5 8.5q32 4 44 7q20 5 28 13.5t14 38.5q15 69 43 246q26 155 31 219q4 29 -18 37q-16 5 -45 9zM306 702q36 0 73 33q2 2 4 -4q3 -7 2 -11q-15 -20 -51.5 -43.5t-62.5 -23.5q-21 0 -61 13q-37 10 -45 10q-26 0 -62 -28q-2 0 -4 3t-2 6.5t1 5.5q14 17 47 39.5
t54 22.5q12 0 58 -12q36 -11 49 -11z" />
    <glyph glyph-name="uni0129" unicode="&#x129;" horiz-adv-x="242" 
d="M216 110q3 -1 3 -2q0 -16 -2 -18q-36 -46 -79.5 -76t-69.5 -30q-38 0 -24 83q7 38 25 124.5t22 109.5q4 16 -5 16q-13 0 -50 -28q-2 0 -2 1q-1 2 -0.5 10t2.5 9q37 37 83 65.5t71 28.5q14 0 16.5 -27t-4.5 -54q-5 -25 -17 -80.5t-19 -92t-8 -56.5q-1 -21 8 -21
q15 0 50 38zM239 529q33 0 69 34q2 2 3 -3q1 -8 0 -15q-14 -22 -48.5 -47t-59.5 -25q-20 0 -58 14q-33 10 -42 10q-31 0 -60 -29q-1 0 -2 4.5t-1.5 9t0.5 6.5q13 18 44 41.5t52 23.5q15 0 56 -13q33 -11 47 -11z" />
    <glyph glyph-name="uni012A" unicode="&#x12a;" horiz-adv-x="320" 
d="M87 585q-2 2 -1 9t3 9l39 -1q40 -2 90 -2t94 2l44 1q2 -1 1 -8.5t-3 -9.5q-35 -5 -42 -7q-16 -4 -22.5 -12.5t-12.5 -37.5q-1 -4 -36 -220q-32 -210 -35 -235q0 -10 -1 -19.5t5.5 -18.5t20.5 -12q5 -1 43 -8q2 -1 0.5 -9t-4.5 -9q-13 0 -61 1.5t-78 1.5q-104 -2 -142 -2
q-2 2 -1.5 8.5t2.5 8.5q32 4 44 7q20 5 28 13.5t14 38.5q15 69 43 246q26 155 31 219q4 29 -18 37q-16 5 -45 9zM136 713q20 -2 55 -2q161 -2 172 1q-2 -11 -12.5 -29t-14.5 -19q-11 -2 -185 -2l-39 2q5 21 24 49z" />
    <glyph glyph-name="uni012B" unicode="&#x12b;" horiz-adv-x="242" 
d="M216 110q3 -1 3 -2q0 -16 -2 -18q-36 -46 -79.5 -76t-69.5 -30q-38 0 -24 83q7 38 25 124.5t22 109.5q4 16 -5 16q-13 0 -50 -28q-2 0 -2 1q-1 2 -0.5 10t2.5 9q37 37 83 65.5t71 28.5q14 0 16.5 -27t-4.5 -54q-5 -25 -17 -80.5t-19 -92t-8 -56.5q-1 -21 8 -21
q15 0 50 38zM81 539q18 -2 50 -2q147 0 156 3q-1 -11 -12 -31.5t-14 -21.5q-30 -6 -168 -6l-35 2q9 34 23 56z" />
    <glyph glyph-name="uni012C" unicode="&#x12c;" horiz-adv-x="320" 
d="M87 585q-2 2 -1 9t3 9l39 -1q40 -2 90 -2t94 2l44 1q2 -1 1 -8.5t-3 -9.5q-35 -5 -42 -7q-16 -4 -22.5 -12.5t-12.5 -37.5q-1 -4 -36 -220q-32 -210 -35 -235q0 -10 -1 -19.5t5.5 -18.5t20.5 -12q5 -1 43 -8q2 -1 0.5 -9t-4.5 -9q-13 0 -61 1.5t-78 1.5q-104 -2 -142 -2
q-2 2 -1.5 8.5t2.5 8.5q32 4 44 7q20 5 28 13.5t14 38.5q15 69 43 246q26 155 31 219q4 29 -18 37q-16 5 -45 9zM250 696q67 0 111 54q4 4 15 4q5 0 5 -4q-20 -46 -63 -74.5t-97 -28.5q-49 0 -78.5 23t-25.5 59q5 7 19.5 17t18.5 11q1 1 5 1t6 -1q11 -61 84 -61z" />
    <glyph glyph-name="uni012D" unicode="&#x12d;" horiz-adv-x="242" 
d="M216 110q3 -1 3 -2q0 -16 -2 -18q-36 -46 -79.5 -76t-69.5 -30q-38 0 -24 83q7 38 25 124.5t22 109.5q4 16 -5 16q-13 0 -50 -28q-2 0 -2 1q-1 2 -0.5 10t2.5 9q37 37 83 65.5t71 28.5q14 0 16.5 -27t-4.5 -54q-5 -25 -17 -80.5t-19 -92t-8 -56.5q-1 -21 8 -21
q15 0 50 38zM189 508q50 0 100 62q7 7 16 7q5 0 5 -2q-19 -53 -59.5 -87t-94.5 -34q-47 0 -73 25t-22 67q4 9 19 20t26 13q2 1 6 1t5 -1q7 -71 72 -71z" />
    <glyph glyph-name="uni012E" unicode="&#x12e;" horiz-adv-x="320" 
d="M141 0h-10q-104 -2 -142 -2q-2 2 -1.5 8.5t2.5 8.5q32 4 44 7q20 5 28 13.5t14 38.5q15 69 43 246q26 155 31 219q4 29 -18 37q-16 5 -45 9q-2 2 -1 9t3 9l39 -1q40 -2 90 -2t94 2l44 1q2 -1 1 -8.5t-3 -9.5q-35 -5 -42 -7q-16 -4 -22.5 -12.5t-12.5 -37.5
q-1 -4 -36 -220q-32 -210 -35 -235q0 -10 -1 -19.5t5.5 -18.5t20.5 -12q5 -1 43 -8q2 -1 0.5 -9t-4.5 -9l-110 3q-51 -61 -51 -112q0 -20 13 -31t35 -11q27 0 55 16q4 -14 -5 -23q-22 -29 -51.5 -42t-52.5 -13q-29 0 -49 17.5t-20 50.5q0 57 107 148z" />
    <glyph glyph-name="uni012F" unicode="&#x12f;" horiz-adv-x="242" 
d="M201 573q25 0 31 -11q7 -15 4 -32q-8 -38 -29 -54q-7 -4 -29 -7t-27 -1q-24 17 -22 41q0 29 11 42q24 22 61 22zM217 90q-28 -34 -40 -44q-98 -83 -98 -134q0 -41 37 -41q23 0 51 15q4 -11 -4 -22q-39 -53 -98 -53q-27 0 -45.5 16t-18.5 47q0 45 92 114q-38 -11 -47.5 11
t-1.5 68q7 38 25 124.5t22 109.5q4 16 -3 16q-15 0 -52 -28q-2 0 -2 1q-1 2 -0.5 10t2.5 9q37 36 84 65t71 29q14 0 16 -27t-5 -54q-5 -26 -17 -80.5t-19 -90.5t-8 -56q-1 -21 8 -21q14 0 50 38q3 -1 3 -2q0 -18 -2 -20z" />
    <glyph glyph-name="uni0130" unicode="&#x130;" horiz-adv-x="320" 
d="M87 585q-2 2 -1 9t3 9l39 -1q40 -2 90 -2t94 2l44 1q2 -1 1 -8.5t-3 -9.5q-35 -5 -42 -7q-16 -4 -22.5 -12.5t-12.5 -37.5q-1 -4 -36 -220q-32 -210 -35 -235q0 -10 -1 -19.5t5.5 -18.5t20.5 -12q5 -1 43 -8q2 -1 0.5 -9t-4.5 -9q-13 0 -61 1.5t-78 1.5q-104 -2 -142 -2
q-2 2 -1.5 8.5t2.5 8.5q32 4 44 7q20 5 28 13.5t14 38.5q15 69 43 246q26 155 31 219q4 29 -18 37q-16 5 -45 9zM292 703q-6 -32 -29 -47q-12 -6 -36 -7.5t-29 2.5q-22 14 -22 43q0 26 16 42q17 19 56 19q26 0 41 -15q8 -19 3 -37z" />
    <glyph glyph-name="dotlessi" unicode="&#x131;" horiz-adv-x="242" 
d="M216 110q3 -1 3 -2q0 -16 -2 -18q-36 -46 -79.5 -76t-69.5 -30q-38 0 -24 83q7 38 25 124.5t22 109.5q4 16 -5 16q-13 0 -50 -28q-2 0 -2 1q-1 2 -0.5 10t2.5 9q37 37 83 65.5t71 28.5q14 0 16.5 -27t-4.5 -54q-5 -25 -17 -80.5t-19 -92t-8 -56.5q-1 -21 8 -21
q15 0 50 38z" />
    <glyph glyph-name="IJ" unicode="&#x132;" horiz-adv-x="628" 
d="M87 585q-2 2 -1 9t3 9l39 -1q40 -2 90 -2t94 2l44 1q2 -1 1 -8.5t-3 -9.5q-35 -5 -42 -7q-16 -4 -22.5 -12.5t-12.5 -37.5q-1 -4 -36 -220q-32 -210 -35 -235q0 -10 -1 -19.5t5.5 -18.5t20.5 -12q5 -1 43 -8q2 -1 0.5 -9t-4.5 -9q-13 0 -61 1.5t-78 1.5q-104 -2 -142 -2
q-2 2 -1.5 8.5t2.5 8.5q32 4 44 7q20 5 28 13.5t14 38.5q15 69 43 246q26 155 31 219q4 29 -18 37q-16 5 -45 9zM406 585q-2 2 -0.5 9t3.5 9q5 0 52.5 -1.5t77.5 -1.5q27 0 77 1.5t59 1.5q2 -3 -2 -19q-5 -1 -19.5 -3t-20.5 -4q-14 -4 -21.5 -15.5t-12.5 -41.5
q-10 -56 -33.5 -204.5t-34.5 -207.5q-8 -42 -13.5 -65.5t-18.5 -57.5t-31 -57q-71 -93 -198 -127q-3 1 -6 8t-2 9q0 3 2 3q41 12 65 36t32 49q10 30 25 103q47 229 84 518q0 2 0.5 9t0.5 9t-0.5 7.5t-1.5 8t-3 6t-5.5 5.5t-8.5 4q-21 7 -46 9z" />
    <glyph glyph-name="ij" unicode="&#x133;" horiz-adv-x="499" 
d="M216 110q3 -1 3 -2q0 -16 -2 -18q-36 -46 -79.5 -76t-69.5 -30q-38 0 -24 83q7 38 25 124.5t22 109.5q4 16 -5 16q-13 0 -50 -28q-2 0 -2 1q-1 2 -0.5 10t2.5 9q37 37 83 65.5t71 28.5q14 0 16.5 -27t-4.5 -54q-5 -25 -17 -80.5t-19 -92t-8 -56.5q-1 -21 8 -21
q15 0 50 38zM201 573q25 0 31 -11q7 -15 4 -32q-3 -34 -29 -54q-7 -4 -29 -7t-27 -1q-22 15 -22 43q0 27 11 40q24 22 61 22zM171 -276q-3 1 -5.5 7.5t-2.5 9.5q50 19 69.5 49t38.5 113q17 69 40.5 205t29.5 188q3 16 -7 16q-15 0 -58 -32q-3 3 -3 4q-1 3 1 11t3 9
q52 45 100 72t71 27q28 0 9 -113q-12 -77 -43 -248q-31 -176 -111 -243q-66 -56 -132 -75zM443 573q25 0 31 -11q7 -15 4 -32q-4 -35 -29 -54q-7 -4 -28 -7.5t-28 -0.5q-22 9 -22 41q0 29 12 43q23 21 60 21z" />
    <glyph glyph-name="uni0134" unicode="&#x134;" horiz-adv-x="308" 
d="M86 585q-2 2 -0.5 9t3.5 9q5 0 52.5 -1.5t77.5 -1.5q27 0 77 1.5t59 1.5q2 -3 -2 -19q-5 -1 -19.5 -3t-20.5 -4q-14 -4 -21.5 -15.5t-12.5 -41.5q-10 -56 -33.5 -204.5t-34.5 -207.5q-8 -42 -13.5 -65.5t-18.5 -57.5t-31 -57q-71 -93 -198 -127q-3 1 -6 8t-2 9q0 3 2 3
q41 12 65 36t32 49q10 30 25 103q47 229 84 518q0 2 0.5 9t0.5 9t-0.5 7.5t-1.5 8t-3 6t-5.5 5.5t-8.5 4q-21 7 -46 9zM250 760q8 4 12 3q6 -10 47 -55t58 -59q0 -3 -3.5 -8t-5.5 -5q-4 0 -50 22.5t-59 29.5q-7 2 -12 0q-23 -10 -80 -31t-61 -21q-3 0 -5.5 6t-1.5 9
q26 15 86 55.5t75 53.5z" />
    <glyph glyph-name="uni0135" unicode="&#x135;" horiz-adv-x="257" 
d="M-71 -276q-3 1 -5.5 7.5t-2.5 9.5q50 19 69.5 49t38.5 113q17 69 40.5 205t29.5 188q3 16 -7 16q-15 0 -58 -32q-3 3 -3 4q-1 3 1 11t3 9q52 45 100 72t71 27q28 0 9 -113q-12 -77 -43 -248q-31 -176 -111 -243q-66 -56 -132 -75zM173 522q-56 -77 -64 -82q-8 -6 -31 -10
q-4 2 -4 8q18 22 58.5 76.5t51.5 74.5q2 3 13 6t15 3q39 -123 59 -154q-3 -4 -19.5 -10t-27.5 -7q-6 3 -46 95h-5z" />
    <glyph glyph-name="uni0136" unicode="&#x136;" horiz-adv-x="612" 
d="M86 585q-2 2 -0.5 9t3.5 9q3 0 43.5 -1.5t84.5 -1.5q52 0 94.5 2t43.5 2q2 -1 1.5 -9.5t-3.5 -9.5q-20 -3 -42 -8q-27 -7 -36 -54q-20 -110 -70 -448q-6 -45 24 -52q4 -1 42 -8q1 -2 -0.5 -9.5t-2.5 -8.5q-12 0 -60 1.5t-77 1.5q-20 0 -51.5 -1t-55 -1.5t-35.5 -0.5
q-2 2 -2 9.5t3 8.5q38 5 46 7q17 4 27 18t16 44q50 264 71 445q5 40 -17 47q-10 3 -47 9zM441 585q-1 2 -0.5 9t2.5 9q9 0 49.5 -1.5t58.5 -1.5q40 0 77.5 1.5t39.5 1.5q2 -1 1 -9t-3 -9q-49 -8 -72 -21.5t-56 -46.5q-62 -64 -183 -177l-1 -3q29 -58 90.5 -157t90.5 -130
q18 -21 48 -30q12 -4 44 -6q1 -1 0 -8.5t-3 -9.5q-38 -6 -104 -2.5t-92 14.5q-32 13 -56 47q-20 27 -59 96.5t-62 118.5q-5 12 -10 15q-2 4 4 10q40 20 97 66t116 112q31 35 41.5 50t12.5 28q2 14 -18 22q-19 6 -53 12zM333 -18q18 0 30 -21.5t7 -50.5q-6 -36 -37.5 -64
t-83.5 -41q-11 6 -8 18q39 16 55 29t18 30q6 35 -50 51q-1 1 0 6.5t2 6.5q11 13 32 24.5t35 11.5z" />
    <glyph glyph-name="uni0137" unicode="&#x137;" horiz-adv-x="455" 
d="M244 674q21 0 10 -60q-13 -73 -38.5 -198t-39.5 -199q-1 -3 1 -3t3 1q3 4 26.5 32t36 42t37.5 39.5t42.5 39t39.5 24.5t40 11q38 0 48 -16q1 -1 1.5 -7t-0.5 -10q-3 -13 -22.5 -39t-26.5 -27q-31 24 -71 24q-22 0 -52 -28.5t-39 -45.5q-2 -3 1 -5q15 -9 40 -47
q37 -55 60.5 -84t33.5 -36t19 -7q26 0 57 41q3 0 3 -1q2 -3 2.5 -10.5t-0.5 -9.5q-70 -108 -134 -108q-30 0 -63 44q-10 14 -40 66t-40 65q-5 8 -12 -1q-4 -3 -9 -24q-2 -9 -9 -63q-2 -26 6 -46q-7 -9 -52.5 -27.5t-54.5 -18.5q-13 0 -13 29q0 24 21 133q5 28 25 128.5
t34.5 177.5t19.5 117q4 29 -10 29q-22 0 -50 -16q-1 2 0.5 10.5t2.5 9.5q112 74 166 74zM219 -35q18 0 30 -21.5t7 -50.5q-6 -36 -37.5 -64t-83.5 -41q-11 6 -8 18q39 16 55 29t18 30q6 35 -50 51q-1 1 0 6.5t2 6.5q11 13 32 24.5t35 11.5z" />
    <glyph glyph-name="uni0138" unicode="&#x138;" horiz-adv-x="436" 
d="M32 287v16q41 41 86.5 70.5t68.5 29.5q31 0 11 -96q-13 -65 -20 -99q0 -2 0.5 -2t1.5 1q96 120 140.5 158t81.5 38q20 0 30 -12q1 -8 -15.5 -47.5t-21.5 -42.5q-23 16 -54 16q-21 0 -44 -15t-33.5 -26.5t-31.5 -36.5q-3 -3 0 -4q15 -5 51 -67q42 -71 56.5 -91t30.5 -20
q23 0 56 39q1 1 2.5 -1t1.5 -3q0 -8 -4 -20q-33 -44 -70.5 -66t-63.5 -22q-31 0 -53 38q-16 27 -51 109q-13 31 -19 34q-24 -114 -21 -136q-9 -9 -53.5 -27t-54.5 -18q-4 0 -7 4.5t-2 12.5q4 25 29.5 146t27.5 144q3 22 -5 22q-11 0 -48 -28q-1 -1 -2 0t-1 2z" />
    <glyph glyph-name="uni0139" unicode="&#x139;" horiz-adv-x="534" 
d="M86 586q-1 1 0 8.5t3 8.5q11 0 53 -1.5t73 -1.5q30 0 80 1.5t60 1.5q1 -1 0 -8.5t-2 -9.5q-26 -2 -44 -8q-11 -3 -17.5 -11.5t-9 -14.5t-5.5 -20q-9 -39 -39 -235.5t-33 -233.5q-1 -12 4.5 -20t11.5 -9q30 -6 133 -6q38 0 75 34t80 114q3 1 9 -2.5t6 -5.5
q-6 -27 -28 -83.5t-40 -75.5q-8 -11 -59 -11q-39 0 -135 1.5t-132 1.5q-30 0 -83.5 -1.5t-62.5 -1.5q-2 2 -1.5 9t2.5 9q45 6 54 8q26 7 35 42q13 52 42.5 234t33.5 238q0 10 0.5 17.5t-4.5 13.5t-17 10q-13 3 -43 8zM394 722q1 -1 0.5 -5.5t-1.5 -5.5q-12 -8 -97.5 -45
t-89.5 -37q-1 0 -6 6.5t-5 8.5q92 88 139 122q10 1 32 -16t28 -28z" />
    <glyph glyph-name="uni013A" unicode="&#x13a;" horiz-adv-x="238" 
d="M69 579q-1 2 1 10.5t3 9.5q44 30 94 52.5t70 22.5q22 0 8 -71q-9 -53 -31.5 -177t-37.5 -211.5t-17 -114.5q-2 -30 11 -30q19 0 56 34q4 0 4 -4q0 -13 -4 -17q-29 -37 -75 -67.5t-79 -30.5q-40 0 -24 119q6 50 40 236.5t40 228.5q2 26 -8 26q-16 0 -51 -16zM331 778
q1 -1 0.5 -5.5t-1.5 -5.5q-12 -8 -97.5 -45t-89.5 -37q-1 0 -6 6.5t-5 8.5q92 88 139 122q10 1 32 -16t28 -28z" />
    <glyph glyph-name="uni013B" unicode="&#x13b;" horiz-adv-x="534" 
d="M86 586q-1 1 0 8.5t3 8.5q11 0 53 -1.5t73 -1.5q30 0 80 1.5t60 1.5q1 -1 0 -8.5t-2 -9.5q-26 -2 -44 -8q-11 -3 -17.5 -11.5t-9 -14.5t-5.5 -20q-9 -39 -39 -235.5t-33 -233.5q-1 -12 4.5 -20t11.5 -9q30 -6 133 -6q38 0 75 34t80 114q3 1 9 -2.5t6 -5.5
q-6 -27 -28 -83.5t-40 -75.5q-8 -11 -59 -11q-39 0 -135 1.5t-132 1.5q-30 0 -83.5 -1.5t-62.5 -1.5q-2 2 -1.5 9t2.5 9q45 6 54 8q26 7 35 42q13 52 42.5 234t33.5 238q0 10 0.5 17.5t-4.5 13.5t-17 10q-13 3 -43 8zM258 -32q18 0 30 -21.5t7 -50.5q-6 -36 -37.5 -64
t-83.5 -41q-3 2 -6 7.5t-2 10.5q39 16 55 29t18 30q6 35 -50 51q-1 1 0 6.5t2 6.5q11 13 32 24.5t35 11.5z" />
    <glyph glyph-name="uni013C" unicode="&#x13c;" horiz-adv-x="238" 
d="M69 579q-1 2 1 10.5t3 9.5q44 30 94 52.5t70 22.5q22 0 8 -71q-9 -53 -31.5 -177t-37.5 -211.5t-17 -114.5q-2 -30 11 -30q19 0 56 34q4 0 4 -4q0 -13 -4 -17q-29 -37 -75 -67.5t-79 -30.5q-40 0 -24 119q6 50 40 236.5t40 228.5q2 26 -8 26q-16 0 -51 -16zM101 -35
q18 0 30 -21.5t7 -50.5q-6 -36 -37.5 -64t-83.5 -41q-11 6 -8 18q39 16 55 29t18 30q6 35 -50 51q-1 1 0 6.5t2 6.5q11 13 32 24.5t35 11.5z" />
    <glyph glyph-name="uni013D" unicode="&#x13d;" horiz-adv-x="534" 
d="M86 586q-1 1 0 8.5t3 8.5q11 0 53 -1.5t73 -1.5q30 0 80 1.5t60 1.5q1 -1 0 -8.5t-2 -9.5q-26 -2 -44 -8q-11 -3 -17.5 -11.5t-9 -14.5t-5.5 -20q-9 -39 -39 -235.5t-33 -233.5q-1 -12 4.5 -20t11.5 -9q30 -6 133 -6q38 0 75 34t80 114q3 1 9 -2.5t6 -5.5
q-6 -27 -28 -83.5t-40 -75.5q-8 -11 -59 -11q-39 0 -135 1.5t-132 1.5q-30 0 -83.5 -1.5t-62.5 -1.5q-2 2 -1.5 9t2.5 9q45 6 54 8q26 7 35 42q13 52 42.5 234t33.5 238q0 10 0.5 17.5t-4.5 13.5t-17 10q-13 3 -43 8zM517 633q5 0 2 -15q-4 -25 -25 -91.5t-35 -99.5
q-3 -5 -15 -16t-19 -14q-4 -3 -4 3q22 127 24 182q0 3 6 9q7 8 32.5 25t33.5 17z" />
    <glyph glyph-name="uni013E" unicode="&#x13e;" horiz-adv-x="238" 
d="M69 579q-1 2 1 10.5t3 9.5q44 30 94 52.5t70 22.5q22 0 8 -71q-9 -53 -31.5 -177t-37.5 -211.5t-17 -114.5q-2 -30 11 -30q19 0 56 34q4 0 4 -4q0 -13 -4 -17q-29 -37 -75 -67.5t-79 -30.5q-40 0 -24 119q6 50 40 236.5t40 228.5q2 26 -8 26q-16 0 -51 -16zM372 704
q5 0 2 -15q-4 -25 -25 -91.5t-35 -99.5q-3 -5 -15 -16t-19 -14q-4 -3 -4 3q22 127 24 182q0 3 6 9q7 8 32.5 25t33.5 17z" />
    <glyph glyph-name="Ldot" unicode="&#x13f;" horiz-adv-x="534" 
d="M86 586q-1 1 0 8.5t3 8.5q11 0 53 -1.5t73 -1.5q30 0 80 1.5t60 1.5q1 -1 0 -8.5t-2 -9.5q-26 -2 -44 -8q-11 -3 -17.5 -11.5t-9 -14.5t-5.5 -20q-9 -39 -39 -235.5t-33 -233.5q-1 -12 4.5 -20t11.5 -9q30 -6 133 -6q38 0 75 34t80 114q3 1 9 -2.5t6 -5.5
q-6 -27 -28 -83.5t-40 -75.5q-8 -11 -59 -11q-39 0 -135 1.5t-132 1.5q-30 0 -83.5 -1.5t-62.5 -1.5q-2 2 -1.5 9t2.5 9q45 6 54 8q26 7 35 42q13 52 42.5 234t33.5 238q0 10 0.5 17.5t-4.5 13.5t-17 10q-13 3 -43 8zM476 306q-6 -32 -29 -47q-12 -6 -36 -7.5t-29 2.5
q-22 14 -22 43q0 26 16 42q17 19 56 19q26 0 41 -15q8 -19 3 -37z" />
    <glyph glyph-name="ldot" unicode="&#x140;" horiz-adv-x="238" 
d="M69 579q-1 2 1 10.5t3 9.5q44 30 93.5 52.5t69.5 22.5q22 0 8 -71q-8 -50 -31 -176t-37.5 -213t-16.5 -114q-2 -31 11 -31q18 0 56 35q4 0 4 -4q0 -13 -4 -17q-29 -38 -74.5 -68t-77.5 -30q-42 0 -26 119q6 50 40 236.5t40 228.5q2 26 -8 26q-16 0 -51 -16zM280 384
q22 0 28 -13q7 -15 4 -32q-6 -28 -26 -46q-7 -4 -27 -5.5t-24 0.5q-22 17 -20 41q0 24 10 38q17 17 55 17z" />
    <glyph glyph-name="Lslash" unicode="&#x141;" horiz-adv-x="534" 
d="M86 586q-1 1 0 8.5t3 8.5q3 0 126 -3q39 -1 140 3q1 -1 0 -8.5t-2 -9.5q-26 -2 -44 -8q-11 -3 -17.5 -11.5t-9 -14.5t-5.5 -20q-8 -36 -33 -198q81 34 122 53q2 -1 3 -13t0 -16l-129 -53q-31 -194 -35 -242q-1 -12 4.5 -20t11.5 -9q30 -6 134 -6q37 0 73.5 32.5
t80.5 115.5q3 1 9 -2.5t6 -5.5q-6 -26 -27.5 -82t-40.5 -77q-10 -11 -59 -11q-39 0 -135 1.5t-132 1.5q-30 0 -83.5 -1.5t-62.5 -1.5q-2 2 -1.5 9t2.5 9q45 6 54 8q26 7 35 42q11 45 35 184l-71 -30q-2 1 -3.5 13t-0.5 15q6 2 21.5 8t30 12t28.5 12q34 215 37 258v17.5
t-5.5 13.5t-17.5 10q-15 4 -42 8z" />
    <glyph glyph-name="lslash" unicode="&#x142;" horiz-adv-x="248" 
d="M79 579q-1 2 1 10.5t3 9.5q117 75 163 75q20 0 10 -62q-4 -24 -10 -58.5t-14.5 -81t-13.5 -74.5l57 27q2 -3 3 -12.5t-1 -11.5q-38 -19 -64 -31q-42 -238 -44 -270q-2 -31 11 -31q18 0 56 35q4 0 4 -3q0 -14 -4 -18q-27 -36 -72.5 -67t-79.5 -31q-42 0 -26 119
q7 56 36 212q-50 -23 -53 -24q-3 3 -3 13.5t3 12.5l58 26q31 172 39 225q2 25 -8 26q-14 1 -51 -16z" />
    <glyph glyph-name="uni0143" unicode="&#x143;" horiz-adv-x="641" 
d="M64 585q-5 10 3 18q151 -3 155 -3q30 0 42 1q4 -11 25 -52q53 -101 229 -414l1 1q54 315 58 385q2 23 -4 36.5t-29 18.5q-14 3 -58 9q-1 2 -0.5 9t2.5 9q9 0 44 -1.5t78 -1.5q36 0 63 1.5t30 1.5q1 -2 0.5 -9t-2.5 -9q-20 -3 -37 -9q-22 -7 -32.5 -20t-15.5 -39
q-9 -43 -20 -106t-25.5 -149.5t-22.5 -132.5q-3 -19 -9 -68t-9 -66q-4 0 -18.5 1t-28.5 1q-27 0 -43 -2q-33 67 -137.5 264.5t-123.5 230.5q-1 0 -1 -0.5t-1 -0.5q-9 -41 -35.5 -206t-29.5 -198q-3 -29 4 -41.5t31 -19.5q15 -4 54 -9q1 -2 0.5 -9.5t-2.5 -9.5q-3 0 -43.5 2
t-74.5 2q-20 0 -53 -1.5t-53 -1.5q-1 2 -1 9t2 9q17 2 47 9q22 5 31.5 18.5t15.5 36.5q30 120 79 427q3 17 -6 39.5t-27 29.5q-17 6 -52 10zM552 718q1 -1 0.5 -5.5t-1.5 -5.5q-12 -8 -97.5 -45t-89.5 -37q-1 0 -6 6.5t-5 8.5q92 88 139 122q10 1 32 -16t28 -28z" />
    <glyph glyph-name="uni0144" unicode="&#x144;" horiz-adv-x="465" 
d="M35 280q-1 -1 -2 0t-1 2q-1 2 1 11.5t3 10.5q38 42 82 70.5t68 28.5q32 0 11 -104l-9 -46l1 -1h1q67 94 142 134q32 17 57 17q28 0 32.5 -36.5t-9.5 -100.5q-30 -152 -32 -180q-2 -17 7 -17q17 0 51 37q2 0 3 -2q3 -12 -3 -24q-33 -42 -79 -69t-74 -27q-37 0 -21 94
q5 28 19 92t22 103q11 53 -6 53q-19 0 -47.5 -28.5t-56.5 -76.5q-23 -39 -42 -125q-8 -35 -4 -67q-9 -9 -53 -27t-54 -18q-12 0 -7 30q3 19 27.5 136.5t26.5 141.5q3 20 -6 20q-13 0 -48 -32zM420 585q2 -1 3 -4.5t0 -5.5q-9 -11 -40 -38.5t-72 -62.5t-49 -42q-3 -1 -8 3
t-5 8q19 29 49 76.5t35 55.5q6 4 42 8t45 2z" />
    <glyph glyph-name="uni0145" unicode="&#x145;" horiz-adv-x="641" 
d="M64 585q-5 10 3 18q151 -3 155 -3q30 0 42 1q4 -11 25 -52q53 -101 229 -414l1 1q54 315 58 385q2 23 -4 36.5t-29 18.5q-14 3 -58 9q-1 2 -0.5 9t2.5 9q9 0 44 -1.5t78 -1.5q36 0 63 1.5t30 1.5q1 -2 0.5 -9t-2.5 -9q-20 -3 -37 -9q-22 -7 -32.5 -20t-15.5 -39
q-9 -43 -20 -106t-25.5 -149.5t-22.5 -132.5q-3 -19 -9 -68t-9 -66q-4 0 -18.5 1t-28.5 1q-27 0 -43 -2q-33 67 -137.5 264.5t-123.5 230.5q-1 0 -1 -0.5t-1 -0.5q-9 -41 -35.5 -206t-29.5 -198q-3 -29 4 -41.5t31 -19.5q15 -4 54 -9q1 -2 0.5 -9.5t-2.5 -9.5q-3 0 -43.5 2
t-74.5 2q-20 0 -53 -1.5t-53 -1.5q-1 2 -1 9t2 9q17 2 47 9q22 5 31.5 18.5t15.5 36.5q30 120 79 427q3 17 -6 39.5t-27 29.5q-17 6 -52 10zM302 -25q18 0 30 -21.5t7 -50.5q-6 -36 -37.5 -64t-83.5 -41q-3 2 -6 7.5t-2 10.5q39 16 55 29t18 30q6 35 -50 51q-1 1 0 6.5
t2 6.5q11 13 32 24.5t35 11.5z" />
    <glyph glyph-name="uni0146" unicode="&#x146;" horiz-adv-x="465" 
d="M35 280q-1 -1 -2 0t-1 2q-1 2 1 11.5t3 10.5q38 42 82 70.5t68 28.5q32 0 11 -104l-9 -46l1 -1h1q67 94 142 134q32 17 57 17q28 0 32.5 -36.5t-9.5 -100.5q-30 -152 -32 -180q-2 -17 7 -17q17 0 51 37q2 0 3 -2q3 -12 -3 -24q-33 -42 -79 -69t-74 -27q-37 0 -21 94
q5 28 19 92t22 103q11 53 -6 53q-19 0 -47.5 -28.5t-56.5 -76.5q-23 -39 -42 -125q-8 -35 -4 -67q-9 -9 -53 -27t-54 -18q-12 0 -7 30q3 19 27.5 136.5t26.5 141.5q3 20 -6 20q-13 0 -48 -32zM204 -35q18 0 30 -21.5t7 -50.5q-6 -36 -37.5 -64t-83.5 -41q-3 2 -6 7.5
t-2 10.5q39 16 55 29t18 30q6 35 -50 51q-1 1 0 6.5t2 6.5q11 13 32 24.5t35 11.5z" />
    <glyph glyph-name="uni0147" unicode="&#x147;" horiz-adv-x="641" 
d="M64 585q-5 10 3 18q151 -3 155 -3q30 0 42 1q4 -11 25 -52q53 -101 229 -414l1 1q54 315 58 385q2 23 -4 36.5t-29 18.5q-14 3 -58 9q-1 2 -0.5 9t2.5 9q9 0 44 -1.5t78 -1.5q36 0 63 1.5t30 1.5q1 -2 0.5 -9t-2.5 -9q-20 -3 -37 -9q-22 -7 -32.5 -20t-15.5 -39
q-9 -43 -20 -106t-25.5 -149.5t-22.5 -132.5q-3 -19 -9 -68t-9 -66q-4 0 -18.5 1t-28.5 1q-27 0 -43 -2q-33 67 -137.5 264.5t-123.5 230.5q-1 0 -1 -0.5t-1 -0.5q-9 -41 -35.5 -206t-29.5 -198q-3 -29 4 -41.5t31 -19.5q15 -4 54 -9q1 -2 0.5 -9.5t-2.5 -9.5q-3 0 -43.5 2
t-74.5 2q-20 0 -53 -1.5t-53 -1.5q-1 2 -1 9t2 9q17 2 47 9q22 5 31.5 18.5t15.5 36.5q30 120 79 427q3 17 -6 39.5t-27 29.5q-17 6 -52 10zM402 629q-3 -1 -12 -3q-6 11 -48.5 57.5t-58.5 60.5q5 11 10 11q8 0 111 -59q8 -2 10 0q130 59 141 59q3 0 5 -6t1 -9
q-42 -25 -159 -111z" />
    <glyph glyph-name="uni0148" unicode="&#x148;" horiz-adv-x="465" 
d="M35 280q-1 -1 -2 0t-1 2q-1 2 1 11.5t3 10.5q38 42 82 70.5t68 28.5q32 0 11 -104l-9 -46l1 -1h1q67 94 142 134q32 17 57 17q28 0 32.5 -36.5t-9.5 -100.5q-30 -152 -32 -180q-2 -17 7 -17q17 0 51 37q2 0 3 -2q3 -12 -3 -24q-33 -42 -79 -69t-74 -27q-37 0 -21 94
q5 28 19 92t22 103q11 53 -6 53q-19 0 -47.5 -28.5t-56.5 -76.5q-23 -39 -42 -125q-8 -35 -4 -67q-9 -9 -53 -27t-54 -18q-12 0 -7 30q3 19 27.5 136.5t26.5 141.5q3 20 -6 20q-13 0 -48 -32zM295 501q57 77 65 83q6 4 33 9q4 -2 4 -8q-24 -25 -60 -75t-51 -77q-2 -3 -13 -6
t-15 -3q-13 45 -32.5 95t-25.5 60q3 5 18.5 11t26.5 6q10 0 46 -95h4z" />
    <glyph glyph-name="uni0149" unicode="&#x149;" horiz-adv-x="465" 
d="M35 280q-1 -1 -2 0t-1 2q-1 2 1 11.5t3 10.5q38 42 82 70.5t68 28.5q32 0 11 -104l-9 -46l1 -1h1q67 94 142 134q32 17 57 17q28 0 32.5 -36.5t-9.5 -100.5q-30 -152 -32 -180q-2 -17 7 -17q17 0 51 37q2 0 3 -2q3 -12 -3 -24q-33 -42 -79 -69t-74 -27q-37 0 -21 94
q5 28 19 92t22 103q11 53 -6 53q-19 0 -47.5 -28.5t-56.5 -76.5q-23 -39 -42 -125q-8 -35 -4 -67q-9 -9 -53 -27t-54 -18q-12 0 -7 30q3 19 27.5 136.5t26.5 141.5q3 20 -6 20q-13 0 -48 -32zM178 600q19 0 32 -24.5t9 -54.5q-14 -74 -113 -97q-9 5 -6 16q39 13 53.5 26
t16.5 31q6 36 -52 54q0 5 2 9q10 16 27.5 28t30.5 12z" />
    <glyph glyph-name="Eng" unicode="&#x14a;" horiz-adv-x="641" 
d="M64 585q-5 10 3 18q151 -3 155 -3q30 0 42 1q4 -11 25 -52q28 -54 121 -209t111 -187l1 1q51 298 55 367q2 23 -4 36.5t-29 18.5q-14 3 -58 9q-1 2 -0.5 9t2.5 9q9 0 44 -1.5t78 -1.5q36 0 63 1.5t30 1.5q1 -2 0.5 -9t-2.5 -9q-20 -3 -37 -9q-22 -7 -32.5 -20t-15.5 -39
q-9 -43 -20 -106.5t-25.5 -149.5t-22.5 -133l-15 -102q-21 -131 -59 -185.5t-99 -54.5q-39 0 -52 25q-4 11 -4 36.5t6 38.5l8 3q40 -24 82 -24q62 0 62 51q4 26 -15 61q-31 63 -139.5 258.5t-144.5 256.5h-1l-1 -1q-9 -41 -35.5 -207t-29.5 -199q-6 -54 36 -62q17 -4 53 -8
q1 -2 0.5 -9.5t-2.5 -9.5q-3 0 -43 2t-74 2q-20 0 -53 -1.5t-53 -1.5q-1 2 -1 9t2 9q27 3 47 8q15 4 25 13.5t13.5 18.5t7.5 24q33 131 80 427q3 17 -6 39.5t-27 29.5q-17 6 -52 10z" />
    <glyph glyph-name="eng" unicode="&#x14b;" horiz-adv-x="462" 
d="M187 403q31 0 11 -96l-10 -54q0 -1 2 -1q27 38 65.5 76t77.5 58q36 17 59 17q26 0 33 -38t-1 -70q-9 -72 -35 -217q-20 -111 -42.5 -166t-66.5 -106q-34 -40 -80.5 -70t-71.5 -30q-13 0 -29 5.5t-21 15.5q-6 10 -4 15q6 25 21 58q2 7 12 7q1 -1 14.5 -13.5t31.5 -23.5
t34 -11q14 0 22 6.5t19.5 41.5t23.5 106q55 323 61 366q9 49 -13 49q-18 0 -47.5 -30.5t-57.5 -76.5q-23 -39 -43 -125q-9 -40 -4 -67q-9 -9 -53.5 -27t-54.5 -18q-4 0 -7 4.5t-2 12.5q4 25 29.5 146t27.5 144q3 22 -5 22q-11 0 -48 -28q-1 -1 -2 0t-1 2q-3 8 3 19
q41 41 85 69t67 28z" />
    <glyph glyph-name="uni014C" unicode="&#x14c;" horiz-adv-x="669" 
d="M293 -18q-118 0 -176.5 63.5t-56.5 176.5q2 149 85 259q105 137 266 137q105 0 165 -59t64 -176q2 -69 -20 -142.5t-59 -121.5q-47 -63 -119 -100t-149 -37zM312 7q44 0 78 31q57 51 86.5 158t29.5 221q0 177 -113 177q-60 0 -107 -66.5t-69 -156.5t-22 -178
q0 -90 29.5 -138t87.5 -48zM318 719q20 -2 55 -2q161 -2 172 1q-2 -11 -12.5 -29t-14.5 -19q-11 -2 -185 -2l-39 2q5 21 24 49z" />
    <glyph glyph-name="uni014D" unicode="&#x14d;" horiz-adv-x="437" 
d="M285 403q120 0 120 -135q0 -78 -32 -148.5t-97 -104.5q-59 -31 -122 -31q-121 0 -121 138q0 68 26.5 132t76.5 99q73 50 149 50zM149 112q0 -102 46 -102q29 0 51 46t31.5 105.5t9.5 117.5q0 97 -46 97q-40 0 -66 -79.5t-26 -184.5zM178 539q18 -2 50 -2q147 0 156 3
q-1 -11 -12 -31.5t-14 -21.5q-30 -6 -168 -6l-35 2q9 34 23 56z" />
    <glyph glyph-name="uni014E" unicode="&#x14e;" horiz-adv-x="669" 
d="M293 -18q-118 0 -176.5 63.5t-56.5 176.5q2 149 85 259q105 137 266 137q105 0 165 -59t64 -176q2 -69 -20 -142.5t-59 -121.5q-47 -63 -119 -100t-149 -37zM312 7q44 0 78 31q57 51 86.5 158t29.5 221q0 177 -113 177q-60 0 -107 -66.5t-69 -156.5t-22 -178
q0 -90 29.5 -138t87.5 -48zM429 706q67 0 111 54q4 4 15 4q5 0 5 -4q-20 -46 -63 -74.5t-97 -28.5q-49 0 -78.5 23t-25.5 59q5 7 19.5 17t18.5 11q2 1 6 1t5 -1q11 -61 84 -61z" />
    <glyph glyph-name="uni014F" unicode="&#x14f;" horiz-adv-x="437" 
d="M285 403q120 0 120 -135q0 -78 -32 -148.5t-97 -104.5q-59 -31 -122 -31q-121 0 -121 138q0 68 26.5 132t76.5 99q73 50 149 50zM149 112q0 -102 46 -102q29 0 51 46t31.5 105.5t9.5 117.5q0 97 -46 97q-40 0 -66 -79.5t-26 -184.5zM286 508q50 0 100 62q7 7 16 7
q5 0 5 -2q-19 -53 -59.5 -87t-94.5 -34q-47 0 -73 25t-22 67q4 9 19 20t26 13q1 1 5 1t6 -1q7 -71 72 -71z" />
    <glyph glyph-name="uni0150" unicode="&#x150;" horiz-adv-x="669" 
d="M293 -18q-118 0 -176.5 63.5t-56.5 176.5q2 149 85 259q105 137 266 137q105 0 165 -59t64 -176q2 -69 -20 -142.5t-59 -121.5q-47 -63 -119 -100t-149 -37zM312 7q44 0 78 31q57 51 86.5 158t29.5 221q0 177 -113 177q-60 0 -107 -66.5t-69 -156.5t-22 -178
q0 -90 29.5 -138t87.5 -48zM445 761q3 -7 1 -12q-19 -24 -107 -108q-2 0 -7 3.5t-6 4.5q6 13 25.5 51.5t23.5 49.5q47 11 70 11zM575 773q1 -1 2 -5.5t0 -5.5q-14 -18 -113 -117q-3 -1 -7.5 2t-5.5 5q6 13 17 36t22.5 46t14.5 30q48 11 70 9z" />
    <glyph glyph-name="uni0151" unicode="&#x151;" horiz-adv-x="437" 
d="M285 403q120 0 120 -135q0 -78 -32 -148.5t-97 -104.5q-59 -31 -122 -31q-121 0 -121 138q0 68 26.5 132t76.5 99q73 50 149 50zM149 112q0 -102 46 -102q29 0 51 46t31.5 105.5t9.5 117.5q0 97 -46 97q-40 0 -66 -79.5t-26 -184.5zM326 596q4 -4 2 -8q-40 -57 -129 -158
q-2 -1 -8.5 2t-6.5 5q28 54 71 147q5 4 35.5 9t35.5 3zM446 608q3 -6 2 -9q-19 -28 -132 -162q-2 -1 -8.5 2t-6.5 5q12 25 42 85t35 71q5 3 34.5 6.5t33.5 1.5z" />
    <glyph glyph-name="OE" unicode="&#x152;" horiz-adv-x="893" 
d="M60 215q0 74 22.5 149t64.5 127q104 127 262 127q42 0 78 -9q35 -8 46 -9h233q82 0 117 8q3 0 3 -7q-7 -16 -36 -147q-4 -2 -10.5 -2t-8.5 2q0 76 -8 91q-9 18 -31 22q-14 2 -114 2.5t-114 -1.5l-1 -4q84 -73 72 -237q0 -6 4 -6q90 0 114 2q30 3 48 43q4 9 12 29
q3 1 9.5 0.5t7.5 -2.5l-7 -33q-7 -34 -11 -56q-2 -14 -5.5 -51t-4.5 -46q-1 -2 -9 -2.5t-10 1.5q0 20 -5 42q-10 35 -30 38q-26 3 -113 3q-5 0 -5 -5q-24 -156 -147 -244q-4 -5 2 -7q47 -5 194 -5q47 0 65.5 4.5t34.5 18.5q40 38 72 103q6 2 16 -8q-6 -21 -24 -70t-31 -67
q-9 -12 -58 -12q-36 0 -172 1.5t-150 1.5q-5 0 -55 -9.5t-84 -9.5q-128 0 -190 85q-43 56 -43 149zM305 4q42 0 82 36q49 45 83.5 157.5t34.5 223.5q0 173 -109 173q-56 0 -104 -70t-72.5 -164t-24.5 -179q0 -177 110 -177z" />
    <glyph glyph-name="oe" unicode="&#x153;" horiz-adv-x="597" 
d="M460 366q-24 0 -45 -40t-28 -111q0 -2 1.5 -3.5t2.5 -0.5q41 11 64 30q33 28 33 82q0 43 -28 43zM297 35q-3 3 -5 1q-67 -52 -139 -52q-59 0 -89.5 36t-30.5 102q0 68 26.5 132t76.5 99q73 50 137 50q76 0 104 -58q35 28 77 42.5t75 14.5q30 0 44.5 -16t14.5 -41
q0 -59 -87 -109q-46 -26 -111 -50q-4 0 -4 -5q-2 -12 -2 -19q0 -106 74 -106q57 0 116 64q6 -2 6 -18q-30 -45 -88 -81.5t-110 -36.5q-59 0 -85 51zM149 112q0 -99 45 -99q43 0 68 83.5t25 185.5q0 95 -44 95q-41 0 -67.5 -80.5t-26.5 -184.5z" />
    <glyph glyph-name="uni0154" unicode="&#x154;" horiz-adv-x="579" 
d="M81 585q-1 2 0.5 9.5t2.5 8.5q9 0 62.5 -1.5t67.5 -1.5q37 -1 91.5 0t58.5 1q167 0 167 -134q0 -60 -39 -101t-104 -62q-4 -2 -2 -6q14 -38 58 -123t71 -119q18 -22 31.5 -30t42.5 -12q2 -2 1.5 -10t-4.5 -9q-140 -3 -178 18q-19 12 -38 40q-27 45 -93 201q-10 24 -29 24
h-11q-1 0 -3.5 -2t-2.5 -4q-6 -34 -29 -196q-3 -27 4 -38.5t25 -15.5q9 -2 40 -7q1 -2 -0.5 -9.5t-2.5 -8.5q-8 0 -53 1.5t-92 1.5l-135 -3q-2 2 -1 9t3 9q23 3 37 6q18 4 28 13.5t16 35.5q15 65 44.5 242t33.5 219q5 37 -19 45q-16 6 -49 9zM405 459q0 54 -26.5 85
t-70.5 31q-14 0 -20 -3q-7 -2 -10 -16q-2 -8 -41 -247q-2 -8 5 -8q51 -1 90 16q37 16 55 47.5t18 94.5zM479 728q1 -1 0.5 -5.5t-1.5 -5.5q-12 -8 -97.5 -45t-89.5 -37q-1 0 -6 6.5t-5 8.5q92 88 139 122q10 1 32 -16t28 -28z" />
    <glyph glyph-name="uni0155" unicode="&#x155;" horiz-adv-x="322" 
d="M178 245q37 72 66 108q39 50 72 50q13 0 24.5 -8t16.5 -19v-11q0 -19 -18.5 -49.5t-31.5 -43.5q-4 -4 -9 -2q-33 31 -51 31q-23 0 -56 -74q-22 -49 -37 -115q-14 -60 -8 -83q-3 -6 -49 -25t-57 -20q-3 0 -6.5 4.5t-2.5 12.5q3 21 26.5 133.5t27.5 144.5q3 35 -4 35
q-18 0 -50 -29l-2 2q-4 6 3 20q40 40 83.5 68t64.5 28q25 0 9 -92q-2 -10 -7 -34.5t-6 -31.5h2zM370 585q2 -1 3 -4.5t0 -5.5q-9 -11 -40 -38.5t-72 -62.5t-49 -42q-3 -1 -8 3t-5 8q19 29 49 76.5t35 55.5q6 4 42 8t45 2z" />
    <glyph glyph-name="uni0156" unicode="&#x156;" horiz-adv-x="579" 
d="M81 585q-1 2 0.5 9.5t2.5 8.5q9 0 62.5 -1.5t67.5 -1.5q37 -1 91.5 0t58.5 1q167 0 167 -134q0 -60 -39 -101t-104 -62q-4 -2 -2 -6q14 -38 58 -123t71 -119q18 -22 31.5 -30t42.5 -12q2 -2 1.5 -10t-4.5 -9q-140 -3 -178 18q-19 12 -38 40q-27 45 -93 201q-10 24 -29 24
h-11q-1 0 -3.5 -2t-2.5 -4q-6 -34 -29 -196q-3 -27 4 -38.5t25 -15.5q9 -2 40 -7q1 -2 -0.5 -9.5t-2.5 -8.5q-8 0 -53 1.5t-92 1.5l-135 -3q-2 2 -1 9t3 9q23 3 37 6q18 4 28 13.5t16 35.5q15 65 44.5 242t33.5 219q5 37 -19 45q-16 6 -49 9zM405 459q0 54 -26.5 85
t-70.5 31q-14 0 -20 -3q-7 -2 -10 -16q-2 -8 -41 -247q-2 -8 5 -8q51 -1 90 16q37 16 55 47.5t18 94.5zM310 -32q18 0 30 -21.5t7 -50.5q-6 -36 -37.5 -64t-83.5 -41q-3 2 -6 7.5t-2 10.5q39 16 55 29t18 30q6 35 -50 51q-1 1 0 6.5t2 6.5q11 13 32 24.5t35 11.5z" />
    <glyph glyph-name="uni0157" unicode="&#x157;" horiz-adv-x="322" 
d="M178 245q37 72 66 108q39 50 72 50q13 0 24.5 -8t16.5 -19v-11q0 -19 -18.5 -49.5t-31.5 -43.5q-4 -4 -9 -2q-33 31 -51 31q-23 0 -56 -74q-22 -49 -37 -115q-14 -60 -8 -83q-3 -6 -49 -25t-57 -20q-3 0 -6.5 4.5t-2.5 12.5q3 21 26.5 133.5t27.5 144.5q3 35 -4 35
q-18 0 -50 -29l-2 2q-4 6 3 20q40 40 83.5 68t64.5 28q25 0 9 -92q-2 -10 -7 -34.5t-6 -31.5h2zM82 -35q18 0 30 -21.5t7 -50.5q-6 -36 -37.5 -64t-83.5 -41q-3 2 -6 7.5t-2 10.5q39 16 55 29t18 30q6 35 -50 51q-1 1 0 6.5t2 6.5q11 13 32 24.5t35 11.5z" />
    <glyph glyph-name="uni0158" unicode="&#x158;" horiz-adv-x="579" 
d="M81 585q-1 2 0.5 9.5t2.5 8.5q9 0 62.5 -1.5t67.5 -1.5q37 -1 91.5 0t58.5 1q167 0 167 -134q0 -60 -39 -101t-104 -62q-4 -2 -2 -6q14 -38 58 -123t71 -119q18 -22 31.5 -30t42.5 -12q2 -2 1.5 -10t-4.5 -9q-140 -3 -178 18q-19 12 -38 40q-27 45 -93 201q-10 24 -29 24
h-11q-1 0 -3.5 -2t-2.5 -4q-6 -34 -29 -196q-3 -27 4 -38.5t25 -15.5q9 -2 40 -7q1 -2 -0.5 -9.5t-2.5 -8.5q-8 0 -53 1.5t-92 1.5l-135 -3q-2 2 -1 9t3 9q23 3 37 6q18 4 28 13.5t16 35.5q15 65 44.5 242t33.5 219q5 37 -19 45q-16 6 -49 9zM405 459q0 54 -26.5 85
t-70.5 31q-14 0 -20 -3q-7 -2 -10 -16q-2 -8 -41 -247q-2 -8 5 -8q51 -1 90 16q37 16 55 47.5t18 94.5zM322 634q-3 -2 -12 -3q-6 11 -48.5 57.5t-58.5 60.5q5 11 10 11q8 0 111 -59q8 -3 10 0q130 59 141 59q3 0 5 -6t1 -9q-42 -25 -159 -111z" />
    <glyph glyph-name="uni0159" unicode="&#x159;" horiz-adv-x="322" 
d="M178 245q37 72 66 108q39 50 72 50q13 0 24.5 -8t16.5 -19v-11q0 -19 -18.5 -49.5t-31.5 -43.5q-4 -4 -9 -2q-33 31 -51 31q-23 0 -56 -74q-22 -49 -37 -115q-14 -60 -8 -83q-3 -6 -49 -25t-57 -20q-3 0 -6.5 4.5t-2.5 12.5q3 21 26.5 133.5t27.5 144.5q3 35 -4 35
q-18 0 -50 -29l-2 2q-4 6 3 20q40 40 83.5 68t64.5 28q25 0 9 -92q-2 -10 -7 -34.5t-6 -31.5h2zM244 501q57 77 65 83q6 4 33 9q4 -2 4 -8q-24 -25 -60 -75t-51 -77q-2 -3 -13 -6t-15 -3q-13 45 -32.5 95t-25.5 60q3 5 18.5 11t26.5 6q10 0 46 -95h4z" />
    <glyph glyph-name="uni015A" unicode="&#x15a;" horiz-adv-x="457" 
d="M55 172q7 -61 19.5 -91t37.5 -49q34 -26 94 -26q45 0 72 24t27 69q0 36 -20.5 68.5t-72.5 76.5q-30 25 -46.5 40.5t-37.5 40t-31 50.5t-10 54q0 85 59.5 137t150.5 52q39 0 105 -11q31 -6 47 -6q-10 -27 -33 -137q-2 -2 -10 -2t-10 2q0 35 -1 50t-6 31t-16 26
q-26 25 -79 25q-45 0 -71.5 -29.5t-26.5 -71.5q0 -50 44 -94q17 -16 35 -31t39.5 -32t32.5 -26q40 -33 58 -65.5t18 -73.5q0 -86 -67 -138.5t-171 -52.5q-41 0 -84 11.5t-65 24.5q-5 12 -5 67.5t5 84.5q1 2 9 2.5t10 -0.5zM450 738q1 -1 0.5 -5.5t-1.5 -5.5
q-12 -8 -97.5 -45t-89.5 -37q-1 0 -6 6.5t-5 8.5q92 88 139 122q10 1 32 -16t28 -28z" />
    <glyph glyph-name="uni015B" unicode="&#x15b;" horiz-adv-x="311" 
d="M225 403q52 0 62 -26q0 -8 -1 -12q-4 -12 -18 -32.5t-25 -28.5q-1 -1 -5.5 -1.5t-5.5 0.5q-38 55 -76 55q-19 0 -29 -10.5t-10 -25.5q0 -17 17.5 -36.5t67.5 -53.5q41 -28 56.5 -49t15.5 -48q0 -62 -82 -114q-59 -37 -118 -37q-40 0 -64 19q-16 13 -16 28q0 7 12.5 37
t24.5 45q2 2 7 3t6 -2q11 -43 40.5 -66.5t56.5 -23.5q22 0 34 10t12 26q0 18 -13.5 34.5t-64.5 54.5q-64 49 -64 94q0 59 54 106q27 25 62.5 39.5t63.5 14.5zM337 585q2 -1 3 -4.5t0 -5.5q-9 -11 -40 -38.5t-72 -62.5t-49 -42q-3 -1 -8 3t-5 8q19 29 49 76.5t35 55.5
q6 4 42 8t45 2z" />
    <glyph glyph-name="uni015C" unicode="&#x15c;" horiz-adv-x="457" 
d="M55 172q7 -61 19.5 -91t37.5 -49q34 -26 94 -26q45 0 72 24t27 69q0 36 -20.5 68.5t-72.5 76.5q-30 25 -46.5 40.5t-37.5 40t-31 50.5t-10 54q0 85 59.5 137t150.5 52q39 0 105 -11q31 -6 47 -6q-10 -27 -33 -137q-2 -2 -10 -2t-10 2q0 35 -1 50t-6 31t-16 26
q-26 25 -79 25q-45 0 -71.5 -29.5t-26.5 -71.5q0 -50 44 -94q17 -16 35 -31t39.5 -32t32.5 -26q40 -33 58 -65.5t18 -73.5q0 -86 -67 -138.5t-171 -52.5q-41 0 -84 11.5t-65 24.5q-5 12 -5 67.5t5 84.5q1 2 9 2.5t10 -0.5zM319 768q8 4 12 3q6 -10 47 -55t58 -59
q0 -3 -3.5 -8t-5.5 -5q-4 0 -50 22.5t-59 29.5q-7 2 -12 0q-23 -10 -80 -31t-61 -21q-3 0 -5.5 6t-1.5 9q26 15 86 55.5t75 53.5z" />
    <glyph glyph-name="uni015D" unicode="&#x15d;" horiz-adv-x="311" 
d="M225 403q52 0 62 -26q0 -8 -1 -12q-4 -12 -18 -32.5t-25 -28.5q-1 -1 -5.5 -1.5t-5.5 0.5q-38 55 -76 55q-19 0 -29 -10.5t-10 -25.5q0 -17 17.5 -36.5t67.5 -53.5q41 -28 56.5 -49t15.5 -48q0 -62 -82 -114q-59 -37 -118 -37q-40 0 -64 19q-16 13 -16 28q0 7 12.5 37
t24.5 45q2 2 7 3t6 -2q11 -43 40.5 -66.5t56.5 -23.5q22 0 34 10t12 26q0 18 -13.5 34.5t-64.5 54.5q-64 49 -64 94q0 59 54 106q27 25 62.5 39.5t63.5 14.5zM208 522q-56 -77 -64 -82q-8 -6 -31 -10q-4 2 -4 8q18 22 58.5 76.5t51.5 74.5q2 3 13 6t15 3q39 -123 59 -154
q-3 -4 -19.5 -10t-27.5 -7q-6 3 -46 95h-5z" />
    <glyph glyph-name="uni015E" unicode="&#x15e;" horiz-adv-x="457" 
d="M194 -18q-44 -1 -90 11t-68 25q-5 12 -5 67.5t5 84.5q1 2 9 2.5t10 -0.5q7 -61 19.5 -91t37.5 -49q34 -26 94 -26q45 0 72 24t27 69q0 36 -20.5 68.5t-72.5 76.5q-30 25 -46.5 40.5t-37.5 40t-31 50.5t-10 54q0 85 59.5 137t150.5 52q39 0 105 -11q31 -6 47 -6
q-10 -27 -33 -137q-2 -2 -10 -2t-10 2q0 35 -1 50t-6 31t-16 26q-26 25 -79 25q-45 0 -71.5 -29.5t-26.5 -71.5q0 -50 44 -94q17 -16 35 -31t39.5 -32t32.5 -26q40 -33 58 -65.5t18 -73.5q0 -79 -57.5 -130t-148.5 -59l-14 -20q-5 -6 2 -10q24 -15 36 -24q24 -17 24 -48
q0 -38 -39 -65.5t-68 -27.5q-31 0 -51 29q-3 12 4 17q33 -18 63 -18q39 0 39 32q0 38 -75 59q0 6 1 9z" />
    <glyph glyph-name="uni015F" unicode="&#x15f;" horiz-adv-x="311" 
d="M225 403q52 0 62 -26q0 -8 -1 -12q-4 -12 -18 -32.5t-25 -28.5q-1 -1 -5.5 -1.5t-5.5 0.5q-42 55 -76 55q-19 0 -29 -10.5t-10 -25.5q0 -17 17.5 -36.5t67.5 -53.5q41 -28 56.5 -49t15.5 -48q0 -62 -82 -114q-26 -17 -49 -25l-26 -27q-4 -4 0 -6q21 -11 31 -19
q23 -18 23 -46q0 -37 -36 -63.5t-64 -26.5q-29 0 -48 28q-3 11 4 16q31 -17 59 -17q36 0 36 31q0 36 -70 57q-1 6 1 8l58 57q-16 -4 -37 -4q-40 0 -64 19q-16 13 -16 28q0 7 12.5 35t24.5 43q2 2 7 3t6 -2q11 -43 40 -64.5t55 -21.5q22 0 35 10.5t13 25.5q0 18 -13.5 34.5
t-64.5 54.5q-64 49 -64 94q0 59 54 106q27 25 62.5 39.5t63.5 14.5z" />
    <glyph glyph-name="Scaron" unicode="&#x160;" horiz-adv-x="457" 
d="M55 172q7 -61 19.5 -91t37.5 -49q34 -26 94 -26q45 0 72 24t27 69q0 36 -20.5 68.5t-72.5 76.5q-30 25 -46.5 40.5t-37.5 40t-31 50.5t-10 54q0 85 59.5 137t150.5 52q39 0 105 -11q31 -6 47 -6q-10 -27 -33 -137q-2 -2 -10 -2t-10 2q0 35 -1 50t-6 31t-16 26
q-26 25 -79 25q-45 0 -71.5 -29.5t-26.5 -71.5q0 -50 44 -94q17 -16 35 -31t39.5 -32t32.5 -26q40 -33 58 -65.5t18 -73.5q0 -86 -67 -138.5t-171 -52.5q-41 0 -84 11.5t-65 24.5q-5 12 -5 67.5t5 84.5q1 2 9 2.5t10 -0.5zM300 649q-3 -1 -12 -3q-6 11 -48.5 57.5
t-58.5 60.5q5 11 10 11q8 0 111 -59q8 -2 10 0q130 59 141 59q3 0 5 -6t1 -9q-42 -25 -159 -111z" />
    <glyph glyph-name="scaron" unicode="&#x161;" horiz-adv-x="311" 
d="M225 403q52 0 62 -26q0 -8 -1 -12q-4 -12 -18 -32.5t-25 -28.5q-1 -1 -5.5 -1.5t-5.5 0.5q-38 55 -76 55q-19 0 -29 -10.5t-10 -25.5q0 -17 17.5 -36.5t67.5 -53.5q41 -28 56.5 -49t15.5 -48q0 -62 -82 -114q-59 -37 -118 -37q-40 0 -64 19q-16 13 -16 28q0 7 12.5 37
t24.5 45q2 2 7 3t6 -2q11 -43 40.5 -66.5t56.5 -23.5q22 0 34 10t12 26q0 18 -13.5 34.5t-64.5 54.5q-64 49 -64 94q0 59 54 106q27 25 62.5 39.5t63.5 14.5zM212 501q57 77 65 83q6 4 33 9q4 -2 4 -8q-24 -25 -60 -75t-51 -77q-2 -3 -13 -6t-15 -3q-13 45 -32.5 95
t-25.5 60q3 5 18.5 11t26.5 6q10 0 46 -95h4z" />
    <glyph glyph-name="uni0162" unicode="&#x162;" horiz-adv-x="572" 
d="M97 15q37 4 54 8q18 4 27 18t17 53q14 69 43 245t36 227q0 6 -4 6q-37 2 -79 0q-32 -2 -54 -23q-28 -28 -65 -100q-2 -2 -9 1t-8 6q34 96 43 151q0 3 4 3q39 -10 87 -10h319q65 0 99 10q3 0 3 -7q-24 -57 -45 -154q-2 -3 -9.5 -3t-9.5 3q0 64 -6 90q-7 29 -40 32
q-72 5 -97 1q-6 -3 -7 -6q-7 -28 -38 -234t-36 -259q-2 -23 2.5 -34t19.5 -15q22 -6 59 -9q2 -1 0.5 -9t-3.5 -9q-28 0 -75 1.5t-75 1.5q-48 0 -99 -1.5t-56 -1.5q-1 1 0 9t2 9zM258 -27q18 0 30 -21.5t7 -50.5q-6 -36 -37.5 -64t-83.5 -41q-3 2 -6 7.5t-2 10.5q39 16 55 29
t18 30q6 35 -50 51q-1 1 0 6.5t2 6.5q11 13 32 24.5t35 11.5z" />
    <glyph glyph-name="uni0163" unicode="&#x163;" horiz-adv-x="281" 
d="M208 343q-34 -203 -37 -232q-3 -43 14 -43q31 0 78 59q4 0 4 -3q0 -11 -4 -23q-25 -39 -78 -78t-95 -39q-49 0 -36 102q7 57 46 256q0 4 -2 4q-48 0 -62 2q-1 1 -1 3t1 3q6 8 22 21.5t21 13.5h26q5 0 5 5q18 79 27 94q6 10 43.5 34.5t73.5 36.5q2 1 4 -3.5t1 -5.5
q-13 -19 -21 -55q-9 -37 -21 -102q0 -5 3 -5q78 0 96 9q1 -1 1 -6t-1 -6q-5 -9 -21 -19t-28 -12q-20 -4 -55 -6q-4 0 -4 -5zM123 -35q18 0 30 -21.5t7 -50.5q-6 -36 -37.5 -64t-83.5 -41q-11 6 -8 18q39 16 55 29t18 30q6 35 -50 51q-1 1 0 6.5t2 6.5q11 13 32 24.5t35 11.5
z" />
    <glyph glyph-name="uni0164" unicode="&#x164;" horiz-adv-x="572" 
d="M97 15q37 4 54 8q18 4 27 18t17 53q14 69 43 245t36 227q0 6 -4 6q-37 2 -79 0q-32 -2 -54 -23q-28 -28 -65 -100q-2 -2 -9 1t-8 6q34 96 43 151q0 3 4 3q39 -10 87 -10h319q65 0 99 10q3 0 3 -7q-24 -57 -45 -154q-2 -3 -9.5 -3t-9.5 3q0 64 -6 90q-7 29 -40 32
q-72 5 -97 1q-6 -3 -7 -6q-7 -28 -38 -234t-36 -259q-2 -23 2.5 -34t19.5 -15q22 -6 59 -9q2 -1 0.5 -9t-3.5 -9q-28 0 -75 1.5t-75 1.5q-48 0 -99 -1.5t-56 -1.5q-1 1 0 9t2 9zM347 634q-3 -2 -12 -3q-6 11 -48.5 57.5t-58.5 60.5q6 11 10 11q8 0 111 -59q7 -3 10 0
q130 59 141 59q3 0 5 -6t1 -9q-42 -25 -159 -111z" />
    <glyph glyph-name="uni0165" unicode="&#x165;" horiz-adv-x="281" 
d="M208 343q-34 -203 -37 -232q-3 -43 14 -43q31 0 78 59q4 0 4 -3q0 -11 -4 -23q-25 -39 -78 -78t-95 -39q-49 0 -36 102q7 57 46 256q0 4 -2 4q-48 0 -62 2q-1 1 -1 3t1 3q6 8 22 21.5t21 13.5h26q5 0 5 5q18 79 27 94q6 10 43.5 34.5t73.5 36.5q2 1 4 -3.5t1 -5.5
q-13 -19 -21 -55q-9 -37 -21 -102q0 -5 3 -5q78 0 96 9q1 -1 1 -6t-1 -6q-5 -9 -21 -19t-28 -12q-20 -4 -55 -6q-4 0 -4 -5zM394 711q5 0 2 -15q-4 -25 -25 -91.5t-35 -99.5q-3 -5 -15 -16t-19 -14q-4 -3 -4 3q22 127 24 182q0 3 6 9q7 8 32.5 25t33.5 17z" />
    <glyph glyph-name="Tbar" unicode="&#x166;" horiz-adv-x="572" 
d="M74 450q-2 -2 -9 1t-8 6q36 111 41 150q0 3 4 3q39 -10 87 -10h319q66 0 100 10q2 0 2 -4q-18 -45 -43 -156q-2 -3 -9.5 -3t-9.5 3q0 65 -6 91q-6 27 -39 30q-75 5 -101 1q-6 -3 -7 -6q-11 -52 -38 -240q29 0 61.5 0.5t33.5 0.5q0 -18 -6 -28q-1 0 -37.5 0.5t-55.5 0.5
q-26 -168 -32 -227q-2 -23 2.5 -33.5t19.5 -14.5q26 -7 60 -10q2 -1 0.5 -9t-3.5 -9q-28 0 -74 1.5t-74 1.5t-79 -1.5t-77 -1.5q-1 1 -0.5 9t1.5 9q37 4 54 8q18 4 27.5 18t17.5 53q16 76 37 206q-24 0 -53.5 -0.5t-32.5 -0.5q-1 4 2 14.5t6 13.5q2 0 13.5 -0.5t30 -0.5
h38.5q18 107 35 240q0 6 -4 6q-36 2 -77 0q-30 -2 -55 -26q-26 -26 -62 -96z" />
    <glyph glyph-name="tbar" unicode="&#x167;" horiz-adv-x="281" 
d="M90 -16q-49 0 -36 102q2 17 20 123h-48q3 18 13 26q3 0 19.5 -0.5t20.5 -0.5q10 58 21 108q0 4 -2 4q-48 0 -62 2q-1 1 -1 3t1 3q6 8 22 21.5t21 13.5h26q5 0 5 5q18 79 27 94q6 10 43.5 34.5t73.5 36.5q2 1 4 -3.5t1 -5.5q-13 -19 -21 -55q-9 -37 -21 -102q0 -5 3 -5
q78 0 96 9q1 -1 1 -6t-1 -6q-5 -9 -21 -19t-28 -12q-20 -4 -55 -6q-4 0 -4 -5q-4 -22 -11 -62t-8 -47h71q-2 -13 -9 -25h-66q-13 -78 -15 -99q-3 -43 14 -43q32 0 79 60q4 0 4 -3q0 -11 -4 -23q-24 -38 -78.5 -77.5t-94.5 -39.5z" />
    <glyph glyph-name="uni0168" unicode="&#x168;" horiz-adv-x="633" 
d="M72 585q-2 10 3 18q11 0 57 -1.5t73 -1.5q45 0 87 1.5t50 1.5q1 -3 0 -9.5t-2 -8.5l-34 -5q-34 -6 -42 -48q-12 -63 -45 -273q-9 -58 -9 -110q0 -55 34.5 -85t99.5 -30q70 0 110 34.5t61 131.5q42 196 54 311q4 34 -4.5 46.5t-33.5 18.5l-46 9q-3 1 -2 8.5t3 9.5
q10 0 48 -1.5t62 -1.5q19 0 61 1.5t47 1.5q1 -1 0 -9t-2 -9q-30 -5 -43 -9q-22 -7 -32.5 -20.5t-17.5 -47.5q-11 -51 -31 -158t-25 -131q-14 -73 -40.5 -122t-62.5 -73t-72 -33t-83 -9q-128 0 -181 65q-32 38 -30 108q0 25 9.5 90t23.5 153.5t20 128.5q5 44 -26 51
q-27 5 -39 7zM491 701q36 0 73 33q2 2 4 -4q3 -7 2 -11q-15 -20 -51.5 -43.5t-62.5 -23.5q-21 0 -61 13q-37 10 -45 10q-26 0 -62 -28q-2 0 -4 3t-2 6.5t1 5.5q14 17 47 39.5t54 22.5q12 0 58 -12q36 -11 49 -11z" />
    <glyph glyph-name="uni0169" unicode="&#x169;" horiz-adv-x="462" 
d="M93 292q3 21 -4 21q-17 0 -52 -28q-1 -1 -2 0t-1 2q-3 10 4 20q41 41 85.5 68.5t68.5 27.5q29 0 8 -115q-36 -189 -36 -190q-4 -32 13 -32q16 0 42 24t52 69q7 11 18 48q21 100 26 119t11 29q7 7 49.5 26.5t61.5 21.5q4 -4 4 -10q-8 -10 -17 -50q-39 -172 -44 -244
q-2 -28 10 -28q15 0 47 37q1 0 3 -2q3 -5 -3 -24q-31 -42 -76 -70t-73 -28q-38 0 -26 72l5 32.5t5 29.5q0 1 -1.5 1t-2.5 -1q-32 -45 -80 -87q-55 -47 -101 -47q-52 0 -37 98q2 10 43 210zM356 529q33 0 69 34q2 2 3 -3q1 -8 0 -15q-14 -22 -48.5 -47t-59.5 -25
q-20 0 -58 14q-33 10 -42 10q-31 0 -60 -29q-1 0 -2 4.5t-1.5 9t0.5 6.5q13 18 44 41.5t52 23.5q15 0 56 -13q33 -11 47 -11z" />
    <glyph glyph-name="uni016A" unicode="&#x16a;" horiz-adv-x="633" 
d="M72 585q-2 10 3 18q11 0 57 -1.5t73 -1.5q45 0 87 1.5t50 1.5q1 -3 0 -9.5t-2 -8.5l-34 -5q-34 -6 -42 -48q-12 -63 -45 -273q-9 -58 -9 -110q0 -55 34.5 -85t99.5 -30q70 0 110 34.5t61 131.5q42 196 54 311q4 34 -4.5 46.5t-33.5 18.5l-46 9q-3 1 -2 8.5t3 9.5
q10 0 48 -1.5t62 -1.5q19 0 61 1.5t47 1.5q1 -1 0 -9t-2 -9q-30 -5 -43 -9q-22 -7 -32.5 -20.5t-17.5 -47.5q-11 -51 -31 -158t-25 -131q-14 -73 -40.5 -122t-62.5 -73t-72 -33t-83 -9q-128 0 -181 65q-32 38 -30 108q0 25 9.5 90t23.5 153.5t20 128.5q5 44 -26 51
q-27 5 -39 7zM315 712q20 -2 55 -2q161 -2 172 1q-2 -11 -12.5 -29t-14.5 -19q-11 -2 -185 -2l-39 2q5 21 24 49z" />
    <glyph glyph-name="uni016B" unicode="&#x16b;" horiz-adv-x="462" 
d="M93 292q3 21 -4 21q-17 0 -52 -28q-1 -1 -2 0t-1 2q-3 10 4 20q41 41 85.5 68.5t68.5 27.5q29 0 8 -115q-36 -189 -36 -190q-4 -32 13 -32q16 0 42 24t52 69q7 11 18 48q21 100 26 119t11 29q7 7 49.5 26.5t61.5 21.5q4 -4 4 -10q-8 -10 -17 -50q-39 -172 -44 -244
q-2 -28 10 -28q15 0 47 37q1 0 3 -2q3 -5 -3 -24q-31 -42 -76 -70t-73 -28q-38 0 -26 72l5 32.5t5 29.5q0 1 -1.5 1t-2.5 -1q-32 -45 -80 -87q-55 -47 -101 -47q-52 0 -37 98q2 10 43 210zM201 539q18 -2 50 -2q147 0 156 3q-1 -11 -12 -31.5t-14 -21.5q-30 -6 -168 -6
l-35 2q9 34 23 56z" />
    <glyph glyph-name="uni016C" unicode="&#x16c;" horiz-adv-x="633" 
d="M72 585q-2 10 3 18q11 0 57 -1.5t73 -1.5q45 0 87 1.5t50 1.5q1 -3 0 -9.5t-2 -8.5l-34 -5q-34 -6 -42 -48q-12 -63 -45 -273q-9 -58 -9 -110q0 -55 34.5 -85t99.5 -30q70 0 110 34.5t61 131.5q42 196 54 311q4 34 -4.5 46.5t-33.5 18.5l-46 9q-3 1 -2 8.5t3 9.5
q10 0 48 -1.5t62 -1.5q19 0 61 1.5t47 1.5q1 -1 0 -9t-2 -9q-30 -5 -43 -9q-22 -7 -32.5 -20.5t-17.5 -47.5q-11 -51 -31 -158t-25 -131q-14 -73 -40.5 -122t-62.5 -73t-72 -33t-83 -9q-128 0 -181 65q-32 38 -30 108q0 25 9.5 90t23.5 153.5t20 128.5q5 44 -26 51
q-27 5 -39 7zM436 689q67 0 111 54q4 4 15 4q5 0 5 -4q-20 -46 -63 -74.5t-97 -28.5q-49 0 -78.5 23t-25.5 59q5 7 19.5 17t18.5 11q1 1 5 1t6 -1q11 -61 84 -61z" />
    <glyph glyph-name="uni016D" unicode="&#x16d;" horiz-adv-x="462" 
d="M93 292q3 21 -4 21q-17 0 -52 -28q-1 -1 -2 0t-1 2q-3 10 4 20q41 41 85.5 68.5t68.5 27.5q29 0 8 -115q-36 -189 -36 -190q-4 -32 13 -32q16 0 42 24t52 69q7 11 18 48q21 100 26 119t11 29q7 7 49.5 26.5t61.5 21.5q4 -4 4 -10q-8 -10 -17 -50q-39 -172 -44 -244
q-2 -28 10 -28q15 0 47 37q1 0 3 -2q3 -5 -3 -24q-31 -42 -76 -70t-73 -28q-38 0 -26 72l5 32.5t5 29.5q0 1 -1.5 1t-2.5 -1q-32 -45 -80 -87q-55 -47 -101 -47q-52 0 -37 98q2 10 43 210zM299 508q50 0 100 62q7 7 16 7q5 0 5 -2q-19 -53 -59.5 -87t-94.5 -34q-47 0 -73 25
t-22 67q4 9 19 20t26 13q2 1 6 1t5 -1q7 -71 72 -71z" />
    <glyph glyph-name="Uring" unicode="&#x16e;" horiz-adv-x="633" 
d="M72 585q-2 10 3 18q11 0 57 -1.5t73 -1.5q45 0 87 1.5t50 1.5q1 -3 0 -9.5t-2 -8.5l-34 -5q-34 -6 -42 -48q-12 -63 -45 -273q-9 -58 -9 -110q0 -55 34.5 -85t99.5 -30q70 0 110 34.5t61 131.5q42 196 54 311q4 34 -4.5 46.5t-33.5 18.5l-46 9q-3 1 -2 8.5t3 9.5
q10 0 48 -1.5t62 -1.5q19 0 61 1.5t47 1.5q1 -1 0 -9t-2 -9q-30 -5 -43 -9q-22 -7 -32.5 -20.5t-17.5 -47.5q-11 -51 -31 -158t-25 -131q-14 -73 -40.5 -122t-62.5 -73t-72 -33t-83 -9q-128 0 -181 65q-32 38 -30 108q0 25 9.5 90t23.5 153.5t20 128.5q5 44 -26 51
q-27 5 -39 7zM428 772q30 0 49 -20t17 -49q-3 -34 -26 -53.5t-57 -19.5q-28 0 -49.5 18t-18.5 54q3 32 26.5 51t58.5 19zM420 738q-45 0 -48 -36q-1 -16 12.5 -26.5t33.5 -10.5q18 0 32.5 10t15.5 24q2 39 -46 39z" />
    <glyph glyph-name="uring" unicode="&#x16f;" horiz-adv-x="462" 
d="M93 292q3 21 -4 21q-17 0 -52 -28q-1 -1 -2 0t-1 2q-3 10 4 20q41 41 85.5 68.5t68.5 27.5q29 0 8 -115q-36 -189 -36 -190q-4 -32 13 -32q16 0 42 24t52 69q7 11 18 48q21 100 26 119t11 29q7 7 49.5 26.5t61.5 21.5q4 -4 4 -10q-8 -10 -17 -50q-39 -172 -44 -244
q-2 -28 10 -28q15 0 47 37q1 0 3 -2q3 -5 -3 -24q-31 -42 -76 -70t-73 -28q-38 0 -26 72l5 32.5t5 29.5q0 1 -1.5 1t-2.5 -1q-32 -45 -80 -87q-55 -47 -101 -47q-52 0 -37 98q2 10 43 210zM299 585q32 0 48 -21t14 -52q-1 -35 -24 -56t-56 -21q-24 0 -44 18t-17 55
q1 33 24.5 55t54.5 22zM291 549q-20 0 -32 -11t-12 -29q-1 -17 10.5 -27t30.5 -10q21 0 34 10t15 26q1 20 -10 30.5t-36 10.5z" />
    <glyph glyph-name="uni0170" unicode="&#x170;" horiz-adv-x="633" 
d="M72 585q-2 10 3 18q11 0 57 -1.5t73 -1.5q45 0 87 1.5t50 1.5q1 -3 0 -9.5t-2 -8.5l-34 -5q-34 -6 -42 -48q-12 -63 -45 -273q-9 -58 -9 -110q0 -55 34.5 -85t99.5 -30q70 0 110 34.5t61 131.5q42 196 54 311q4 34 -4.5 46.5t-33.5 18.5l-46 9q-3 1 -2 8.5t3 9.5
q10 0 48 -1.5t62 -1.5q19 0 61 1.5t47 1.5q1 -1 0 -9t-2 -9q-30 -5 -43 -9q-22 -7 -32.5 -20.5t-17.5 -47.5q-11 -51 -31 -158t-25 -131q-14 -73 -40.5 -122t-62.5 -73t-72 -33t-83 -9q-128 0 -181 65q-32 38 -30 108q0 25 9.5 90t23.5 153.5t20 128.5q5 44 -26 51
q-27 5 -39 7zM458 756q1 -2 1.5 -6t-0.5 -6q-19 -24 -107 -108q-2 0 -7 3.5t-6 4.5q6 13 25.5 51.5t23.5 49.5q47 11 70 11zM588 768q1 -1 2 -5.5t0 -5.5q-14 -18 -113 -117q-3 -1 -7.5 2t-5.5 5q6 13 17 36t22.5 46t14.5 30q48 11 70 9z" />
    </font>
</defs>
</svg>
