<?xml version="1.0" standalone="no"?>
<!DOCTYPE svg PUBLIC "-//W3C//DTD SVG 1.1//EN" "http://www.w3.org/Graphics/SVG/1.1/DTD/svg11.dtd" >
<svg>
<metadata>
Created by FontForge 20110222 at Mon Apr 21 08:54:10 2014
 By Orthosie Webhosting
(c) 2007 Adobe Systems Incorporated. All Rights Reserved.
</metadata>
<defs>
<font id="ArnoProDisplay" horiz-adv-x="560" >
  <font-face 
    font-family="ArnoProDisplay"
    font-weight="400"
    font-stretch="normal"
    units-per-em="1000"
    panose-1="2 2 5 2 5 5 6 2 4 3"
    ascent="688"
    descent="-312"
    x-height="385"
    cap-height="613"
    bbox="-159.083 -379.167 1349.89 843"
    underline-thickness="50"
    underline-position="-50"
    unicode-range="U+0020-FB06"
  />
<missing-glyph horiz-adv-x="495" 
d="M0 0v693h495v-693h-495zM248 391l168 253h-337zM277 347l169 -253v505zM79 50h337l-168 252zM50 599v-505l168 253z" />
    <glyph glyph-name="f_f" unicode="ff" horiz-adv-x="464" 
d="M15 12q27 5 35 8q23 6 23 37q0 18 0.5 118.5t0.5 165.5q0 8 -4 8l-49 3q0 9 6 15q32 8 44 13q4 4 4 7q0 165 115 244q46 33 92 35q64 0 102 -41q22 25 59 44.5t65 18.5q27 0 46.5 -11t25.5 -25v-3v-4.5v-3.5q-2 -6 -13.5 -21.5t-17.5 -19.5q-4 -4 -11 0q-1 1 -8 7.5
t-10 8.5t-10 8t-12 8.5t-12.5 6t-14.5 5t-14 1.5q-19 0 -33 -8t-22.5 -25.5t-14 -34.5t-7.5 -46t-2.5 -48t-0.5 -52v-41q0 -8 5 -8q64 1 94 4q-7 -17 -7 -37q-58 3 -88 1q-4 0 -4 -9q1 -56 0.5 -108t0 -102.5t1.5 -72.5q1 -32 27 -38q21 -5 45 -7q2 -2 1.5 -8.5t-3.5 -7.5
q-11 0 -47.5 1.5t-61.5 1.5q-12 0 -46.5 -1.5t-45.5 -1.5q-2 1 -2 7.5t2 8.5q30 4 37 7q21 5 21 35q0 61 2 287q0 8 -4 8h-157q-4 0 -4 -8q0 -39 0.5 -104t0.5 -112t1 -68q1 -33 27 -40q10 -2 38 -5q1 -2 0.5 -8t-2.5 -8q-7 0 -37 1.5t-62 1.5q-26 0 -58 -1.5t-36 -1.5
q-6 6 0 15zM143 399v-10q0 -7 5 -7h155q5 2 5 8q0 104 35 181q-38 58 -99 58q-32 0 -51 -18q-50 -44 -50 -212z" />
    <glyph glyph-name="f_f_i" unicode="ffi" horiz-adv-x="677" 
d="M15 12q27 5 35 8q23 6 23 37q0 18 0.5 118.5t0.5 165.5q0 8 -4 8l-49 3q0 10 5 15q33 7 45 14q4 4 4 6q0 167 113 246q50 33 95 35q64 2 99 -43q24 26 62 45.5t76 19.5q33 -1 58 -16t34 -37q2 -6 0 -17q-8 -23 -30 -33q-9 -2 -16 1q-4 3 -24 25q-35 39 -74 39
q-29 0 -47.5 -16.5t-27.5 -51.5t-12.5 -75t-3.5 -101l1 -20q0 -6 4 -6l135 1q64 0 94 10q-3 -39 -3 -182q0 -109 1 -157q0 -26 21 -34q13 -4 43 -7q2 -1 1 -8.5t-4 -7.5q-9 0 -44 1.5t-54 1.5q-24 0 -56 -1.5t-36 -1.5q-2 1 -2 8t2 8q24 2 38 7q15 6 18 43q2 24 2 146
q0 115 -2 131q-2 10 -10 10h-145q-4 0 -4 -5q1 -57 0.5 -109.5t0 -104t1.5 -73.5q1 -33 28 -40q13 -3 35 -5q1 -2 1 -8.5t-2 -7.5q-4 0 -38 1.5t-60 1.5q-12 0 -47.5 -1.5t-46.5 -1.5q-1 1 -1 8t1 8q31 5 36 6q20 6 20 35t1.5 135t1.5 153q0 8 -4 8h-157q-4 0 -4 -8
q0 -243 2 -284q1 -33 27 -40q6 -1 11.5 -2t13.5 -1.5t13 -1.5q1 -2 0.5 -8.5t-2.5 -7.5q-8 0 -40.5 1.5t-58.5 1.5q-12 0 -47.5 -1.5t-46.5 -1.5q-6 6 0 15zM143 399v-10q0 -7 5 -7h155q5 2 5 8q0 103 35 182q-38 59 -101 59q-29 0 -49 -19q-26 -23 -38 -71t-12 -142z" />
    <glyph glyph-name="f_f_l" unicode="ffl" horiz-adv-x="681" 
d="M15 13q26 4 35 7q23 7 23 37q1 26 1 128v158q0 6 -4 6l-50 3q0 7 6 15q30 7 44 13q4 3 4 7q1 81 26 141t89 105q50 33 95 35q61 2 99 -42q23 26 58 45t67 19q35 0 60 -15q5 -3 13 -1q14 5 29 15q5 0 5 -6q-7 -35 -7 -102q-1 -51 -1 -256q0 -184 3 -268q1 -28 20 -37
q11 -3 44 -7q4 -13 -2 -16q-10 0 -46 1.5t-51 1.5q-20 0 -56 -1.5t-39 -1.5q-2 3 -1.5 8t2.5 7q34 6 40 8q15 7 15 30q3 36 3 273q0 270 -1 280q-2 14 -9 21q-27 28 -65 28q-24 0 -41 -14.5t-26 -35t-14 -55t-6 -62.5t-1 -69q0 -22 1 -28q0 -6 4 -6q62 0 95 3q-6 -20 -6 -36
q-10 0 -46 0.5t-44 0.5q-4 0 -4 -6q3 -279 3 -287q1 -32 28 -39q18 -4 37 -5q1 -1 0 -8t-2 -8q-9 0 -42 1.5t-59 1.5q-12 0 -48.5 -1.5t-46.5 -1.5q-6 6 0 16q33 5 38 7q22 6 22 35q0 23 0.5 67.5t1 109t0.5 110.5q0 8 -4 8h-157q-4 0 -4 -8q3 -279 3 -284q1 -33 26 -40
q10 -2 38 -5q1 -2 0.5 -8t-2.5 -8q-9 0 -41.5 1.5t-58.5 1.5q-12 0 -47.5 -1.5t-46.5 -1.5q-1 2 -1 8t2 8zM143 399v-10q0 -7 5 -7h155q5 2 5 8q0 110 34 185q-38 56 -100 56q-27 0 -49 -19q-26 -24 -38 -71.5t-12 -141.5z" />
    <glyph glyph-name="longs_t" unicode="&#x17f;t" horiz-adv-x="491" 
d="M15 12q11 2 35 8q23 7 23 38q0 18 0.5 117t0.5 164q0 7 -4 7l-49 3q0 12 7 19q24 3 43 15q4 2 4 6q0 87 19 144.5t64 98.5q20 20 49 33.5t53 13.5q49 0 74 -29.5t26 -73.5q1 -20 0.5 -99.5t-1.5 -88.5q0 -6 5 -6q91 0 115 4l-7 -42q-16 0 -55 0.5t-54 0.5q-5 0 -5 -6
q0 -30 -0.5 -110t-0.5 -101q1 -35 8 -58q15 -36 56 -36q35 0 60 18q1 -1 0 -9t-2 -11q-17 -21 -45 -32t-55 -11q-59 0 -79 42q-12 24 -12 114q0 28 0.5 101t0.5 91q0 5 -5 7q-1 0 -53 4q0 6 9 24q35 6 45 10q5 2 5 7q6 71 4 168q0 45 -16 66q-20 26 -54 26q-81 0 -81 -249
q0 -40 0.5 -120t0.5 -141t1 -82q1 -32 27 -39q9 -2 40 -5q1 -2 0.5 -8t-2.5 -8q-9 0 -42 1.5t-59 1.5q-12 0 -47.5 -1.5t-46.5 -1.5q-2 2 -2 7.5t2 7.5z" />
    <glyph glyph-name="R_A" unicode="RA" horiz-adv-x="1122" 
d="M26 598q-1 2 -1 8t2 7q11 0 50 -1.5t53 -1.5q33 0 83 1t72 1q83 0 126.5 -42t43.5 -108q0 -109 -116 -157q-3 -3 -1 -6q27 -45 83.5 -121.5t90.5 -112.5q41 -42 72 -42q14 0 21.5 8t18.5 34q90 217 187 495q10 27 14 51q1 0 5 -0.5t10 -0.5h13h13t9.5 0.5t4.5 0.5
q7 -33 12 -47t74 -222.5t87 -253.5q20 -47 34 -58t64 -17q1 -2 0 -8.5t-2 -7.5q-75 3 -112 3q-81 0 -118 -3q-1 2 -1 7.5t1 8.5q39 6 49 10q17 7 12 27q-16 58 -66 197q-5 5 -7 5q-10 1 -86 1q-73 0 -83 -1q-7 0 -9 -7q-59 -159 -61 -184q-3 -16 1.5 -25.5t26.5 -14.5
q21 -5 43 -8q1 -2 1 -8t-2 -8q-8 0 -43 1.5t-60 1.5q-21 0 -61 -1t-50 -1q-32 0 -53.5 11.5t-46.5 39.5q-17 19 -44.5 57t-63 90.5t-44.5 65.5q-10 17 -24 17q-8 1 -34 0t-28 -1q-4 0 -4 -6q0 -155 2 -196q1 -30 6.5 -40t20.5 -14q12 -3 51 -9q2 -2 1.5 -8t-2.5 -8
q-8 0 -50.5 1.5t-67.5 1.5q-40 0 -78 -2l-38 -1q-3 1 -3 7.5t3 7.5q39 6 46 8q17 4 23 16t8 40q2 56 2 230q0 200 -2 240t-32 45q-22 5 -46 7zM220 589q-19 0 -30 -4q-5 -2 -5 -12q-3 -29 -3 -259q0 -5 4 -5q86 -10 119 4q72 27 72 127q0 70 -40 109.5t-117 39.5zM824 518
q-4 -10 -77 -225q0 -5 3 -6q9 -1 81 -1q61 0 68 1q4 0 2 6q-46 148 -73 226q-4 0 -4 -1z" />
    <glyph glyph-name="K_A" unicode="KA" horiz-adv-x="1123" 
d="M361 598q-1 1 -0.5 7t1.5 8q18 0 49 -1.5t49 -1.5q67 0 109 3q1 -2 1 -7.5t-1 -7.5q-42 -6 -62.5 -17.5t-53.5 -48.5q-137 -153 -180 -196v-3q16 -31 112.5 -140.5t141.5 -143.5q31 -24 60 -24q20 0 31 25q73 166 193 510q10 30 13 51q1 0 11 -0.5t18 -0.5h13t9.5 0.5
t4.5 0.5l13 -47q5 -15 74 -223t86 -253q20 -47 34.5 -58t63.5 -17q1 -2 0.5 -8.5t-2.5 -7.5q-75 3 -111 3q-82 0 -118 -3q-1 2 -1 7.5t1 8.5q39 6 49 10q17 8 11 27q-6 23 -65 197l-3 3q-4 2 -5 2q-10 1 -86 1q-72 0 -83 -1q-6 0 -8 -7q-59 -159 -62 -184q-1 -9 -1 -16.5
t7 -14t22 -9.5q25 -6 43 -8q1 -2 0.5 -8t-2.5 -8q-5 0 -44 1.5t-59 1.5q-6 0 -48 -1.5t-53 -1.5q-35 0 -59 9t-50 33q-35 33 -106 115t-110 134q-6 8 -15 14q0 6 3 9q33 13 91 72t115 131q28 38 28 57q0 12 -21 17q-31 8 -48 10zM23 12q41 5 48 7q14 3 21 11.5t9 19t3 31.5
q2 39 2 240q0 179 -2 217q-1 29 -7.5 39t-24.5 15q-7 2 -23 3.5t-20 2.5q-1 2 -1 7.5t1 7.5q8 0 46.5 -1.5t68.5 -1.5q22 0 59 1.5t47 1.5q2 -1 2 -7t-2 -8q-30 -4 -43 -8q-10 -3 -15 -10.5t-6.5 -17t-2.5 -32.5q-1 -43 -1 -208q0 -166 2 -239q1 -34 7.5 -46.5t26.5 -17.5
q11 -3 47 -7q2 -2 1 -7.5t-3 -7.5q-14 0 -57 1.5t-68 1.5t-68.5 -1.5t-46.5 -1.5q-1 1 -1 7t1 8zM825 520q-8 -21 -78 -227q0 -5 4 -6q9 -1 80 -1q61 0 68 1q4 0 2 6q-60 192 -72 228q-4 0 -4 -1z" />
    <glyph glyph-name="T_T" unicode="TT" horiz-adv-x="1021" 
d="M154 12q43 4 64 9q21 4 27 19t8 53q3 67 3 481q0 8 -6 8q-13 1 -68.5 0.5t-70.5 -1.5q-25 -1 -39 -26q-16 -22 -38 -87q-1 -2 -8.5 -0.5t-8.5 3.5q12 60 18 152l5 2q32 -15 78 -15h788q53 0 87 12q4 0 4 -2q-12 -39 -20 -150q-1 -2 -9 -2t-9 2q-4 56 -15 81q-9 27 -39 29
q-26 1 -79 1.5t-67 -0.5q-5 -2 -5 -9q0 -379 4 -483q2 -39 9.5 -51.5t25.5 -17.5q13 -4 49 -8q2 -1 1 -7.5t-3 -7.5q-14 0 -59 1.5t-65 1.5q-36 0 -84 -1.5t-58 -1.5q-2 3 -2 8t2 7q43 4 64 9q21 4 27 19t8 53q3 68 3 481q0 8 -6 8l-331 -1q-5 -2 -5 -9q0 -379 4 -483
q2 -39 9.5 -51.5t25.5 -17.5q13 -4 49 -8q2 -1 1 -7.5t-3 -7.5q-14 0 -59 1.5t-65 1.5q-36 0 -84 -1.5t-58 -1.5q-2 3 -2 8t2 7z" />
    <glyph glyph-name="T_h" unicode="Th" horiz-adv-x="960" 
d="M160 13q42 4 64 9q21 3 27.5 18t8.5 54q2 88 2 480q0 7 -6 7q-12 1 -69 0.5t-72 -1.5q-23 0 -39 -22q-21 -28 -42 -85q-2 -2 -9 0t-8 4q14 81 17 147h9q31 -14 74 -14l442 1q4 0 4 4v53q0 7 5 7q15 0 29.5 3.5t23.5 6.5l9 3q5 0 5 -5l-1 -9q0 -8 -0.5 -31.5t-0.5 -58.5
v-248q0 -3 4 -1q79 61 137 61q56 0 85.5 -39.5t29.5 -113.5q0 -108 2 -196q0 -13 6 -18q15 -12 55 -16q1 -2 -0.5 -8.5t-3.5 -7.5l-36 2q-35 2 -61 1q-82 -2 -89 -3q-2 2 -2 8t2 8q35 6 39 8q10 5 13 14t4 40q3 160 -5 201q-6 28 -28 50t-64 22q-43 0 -75 -27
q-13 -11 -13 -23q0 -194 3 -234q1 -23 6.5 -32t19.5 -13q15 -4 33 -6q5 -5 0 -15q-2 0 -39 1t-61 1q-19 0 -50 -1.5t-37 -1.5q-5 6 0 16q27 4 34 6q20 6 21 47q2 48 2 171q0 296 -1 331q0 10 -9 12q-31 1 -110.5 1t-98.5 -1q-5 -2 -5 -9q0 -411 4 -482q1 -39 9 -51t26 -17
q13 -4 55 -8q1 -2 0 -8.5t-2 -7.5q-17 0 -64 1.5t-67 1.5q-28 0 -78.5 -2t-63.5 -1q-2 3 -2 8.5t2 7.5z" />
    <glyph glyph-name="f_b" unicode="fb" horiz-adv-x="693" 
d="M14 13q28 4 36 7q22 6 22 35q2 104 2 282q0 8 -4 8l-50 2q0 10 7 19q32 7 43 14q4 2 4 8q1 97 26 159t91 107q43 29 84 29q26 0 52 -11q7 -2 14 0q10 4 30 17q5 0 5 -6q-7 -47 -7 -103q0 -182 2 -234q0 -4 5 -2q91 52 132 52q67 0 108 -51q40 -46 40 -120
q0 -122 -90 -185q-27 -20 -74.5 -36t-78.5 -16q-59 0 -120 23q3 13 5 51q2 72 2 183q0 327 -1 350q0 12 -7 21q-23 28 -61 28q-27 0 -43 -16q-45 -36 -45 -212q0 -22 1 -28q0 -6 4 -6q62 0 95 3q-3 -7 -9 -41q-56 3 -87 1q-4 0 -4 -6q0 -39 0.5 -103.5t0.5 -111t1 -67.5
q1 -33 28 -39q18 -4 37 -5q1 -1 0.5 -8t-1.5 -8q-9 0 -42 1.5t-59 1.5q-12 0 -47.5 -1.5t-46.5 -1.5q-1 2 -1 7.5t1 8.5zM451 348q-32 0 -68 -17q-11 -5 -12 -15q-2 -16 -1.5 -86.5t2.5 -107.5q1 -44 4 -57.5t12 -22.5q26 -18 77 -18t81 34q37 42 37 124q0 75 -33 118
q-36 48 -99 48z" />
    <glyph glyph-name="f_f_b" unicode="ffb" horiz-adv-x="930" 
d="M16 13q29 5 34 7q23 7 23 37q1 52 1 286q0 6 -4 6l-49 3q0 9 6 15q31 8 44 13q4 4 4 7q0 80 25 140t89 105q51 34 95 36q62 2 100 -42q22 26 57 45t67 19q37 0 60 -15q5 -3 13 -1q15 4 29 15q2 0 4 -2.5t2 -3.5q-7 -35 -7 -102q-1 -51 -1 -235q0 -4 5 -2q91 52 132 52
q67 0 109 -51q40 -46 40 -120q0 -122 -89 -185q-28 -21 -69.5 -36.5t-70.5 -15.5q-37 0 -82 14q-16 5 -44 -5q-1 -1 -3 1t-2 4q4 47 6 304q0 274 -2 294q0 13 -9 22q-26 29 -65 29q-30 0 -48.5 -19t-26.5 -57t-10 -72.5t-2 -86.5v-28q0 -6 4 -6q65 0 95 3q-6 -20 -6 -36
q-10 0 -45.5 0.5t-43.5 0.5q-5 0 -5 -6q1 -40 1.5 -105.5t1 -113t1.5 -68.5q0 -31 27 -39q17 -4 37 -5q1 -1 0 -8t-2 -8q-8 0 -41 1.5t-59 1.5q-12 0 -48.5 -1.5t-47.5 -1.5q-6 6 0 16q31 4 38 7q22 5 22 35q0 23 0.5 67.5t1 109t0.5 110.5q0 8 -4 8h-157q-4 0 -4 -8
q3 -276 3 -284q1 -33 27 -40q10 -2 38 -5q3 -10 -3 -16q-8 0 -40.5 1.5t-58.5 1.5q-12 0 -47.5 -1.5t-46.5 -1.5q-6 6 1 16zM143 399v-10q0 -7 5 -7h155q5 2 5 8q0 108 35 183q-40 57 -101 57q-30 0 -49 -18q-27 -24 -38.5 -71t-11.5 -142zM691 350q-39 0 -75 -23
q-7 -5 -7 -12q-2 -19 -2 -86t2 -108q1 -55 19 -71q31 -26 77 -26q49 0 78 33q38 41 38 125q0 74 -34 120q-37 48 -96 48z" />
    <glyph glyph-name="f_f_h" unicode="ffh" horiz-adv-x="933" 
d="M16 13q29 5 34 7q23 7 23 37q1 52 1 286q0 6 -4 6l-49 3q0 9 6 15q31 8 44 13q4 4 4 7q0 81 25 141t90 105q48 33 94 35q62 2 100 -42q23 26 58 45t67 19q35 0 59 -15q5 -3 13 -1q15 4 29 15q2 0 4 -2.5t2 -3.5q-7 -35 -7 -102q-1 -51 -1 -245q0 -3 4 -1q79 61 136 61
q55 0 85.5 -41t30.5 -115q0 -149 1 -193q0 -11 7 -18q4 -3 8.5 -5.5t10.5 -4t9 -2.5t12.5 -2t13.5 -2q1 -3 0 -9t-3 -7q-3 0 -37.5 1.5t-60.5 1.5q-47 0 -89 -3q-2 1 -2 7.5t2 8.5q36 6 39 8q10 5 13 14t4 40q6 154 -5 204q-5 27 -27 48.5t-64 21.5q-45 0 -76 -28
q-12 -9 -12 -23q0 -207 2 -234q2 -23 7 -32t19 -13q15 -4 33 -6q1 -2 1 -7.5t-1 -7.5l-33 1q-33 1 -67 1q-25 0 -53 -1.5t-34 -1.5q-1 2 -1 8t2 8q26 4 33 6q20 6 21 47q0 11 0.5 49t1 101.5t0.5 106.5q0 270 -1 280q0 13 -8 21q-27 28 -65 28q-30 0 -49 -19.5t-27 -57.5
t-10 -73t-2 -86v-28q0 -6 4 -6q65 0 95 3q-6 -20 -6 -36q-10 0 -45.5 0.5t-43.5 0.5q-5 0 -5 -6q1 -40 1.5 -105.5t1 -113t1.5 -68.5q0 -31 27 -39q17 -4 37 -5q1 -1 0 -8t-2 -8q-8 0 -41 1.5t-59 1.5q-12 0 -48.5 -1.5t-47.5 -1.5q-6 6 0 16q31 4 38 7q22 5 22 35
q0 23 0.5 67.5t1 109t0.5 110.5q0 8 -4 8h-157q-4 0 -4 -8q3 -276 3 -284q1 -33 27 -40q10 -2 38 -5q3 -10 -3 -16q-8 0 -40.5 1.5t-58.5 1.5q-12 0 -47.5 -1.5t-46.5 -1.5q-6 6 1 16zM143 399v-10q0 -7 5 -7h155q5 2 5 8q0 110 35 185q-36 56 -100 56q-29 0 -49 -19
q-27 -24 -39 -71t-12 -142z" />
    <glyph glyph-name="f_f_j" unicode="ffj" horiz-adv-x="672" 
d="M14 12q26 4 36 8q22 6 22 37q1 29 1.5 133t0.5 151q0 8 -4 8l-50 3q0 8 5 15q35 8 45 14q4 3 4 6q0 167 114 246q48 33 95 35q63 2 99 -43q23 26 61 45.5t76 19.5q33 -1 59.5 -17t34.5 -37q2 -7 -1 -15q-9 -21 -32 -34q-7 -4 -14 1t-25 26q-36 38 -73 38
q-29 0 -47.5 -16.5t-27.5 -51.5t-12.5 -75t-3.5 -101v-20q0 -6 5 -6l132 1q64 0 96 12q-2 -67 -2 -348q0 -45 -6 -94q-10 -77 -53 -141.5t-87 -89.5q-6 0 -15 7q-1 1 -1 5q50 36 71 90.5t21 159.5v3q0 297 -4 353q0 10 -7 10h-146q-1 0 -3 -3q-1 -3 -2 -2q3 -282 3 -287
q1 -33 27 -40q14 -3 36 -5q1 -2 1 -8.5t-2 -7.5q-5 0 -38.5 1.5t-60.5 1.5q-12 0 -47 -1.5t-46 -1.5q-2 1 -2 7.5t1 8.5q30 4 37 6q20 6 20 35l3 288q0 8 -4 8h-157q-5 0 -5 -8q0 -9 0.5 -128.5t2.5 -155.5q1 -33 27 -40q6 -1 11.5 -2t13.5 -1.5t13 -1.5q1 -2 0.5 -8.5
t-2.5 -7.5q-9 0 -41.5 1.5t-58.5 1.5q-12 0 -47.5 -1.5t-46.5 -1.5q-2 2 -2 7.5t2 7.5zM143 399v-10q0 -7 5 -7h155q5 2 5 8q0 107 34 182q-42 59 -100 59q-28 0 -50 -19q-26 -23 -37.5 -71t-11.5 -142z" />
    <glyph glyph-name="f_f_k" unicode="ffk" horiz-adv-x="892" 
d="M16 13q29 5 34 7q23 7 23 37q1 52 1 286q0 6 -4 6l-49 3q0 9 6 15q31 8 44 13q4 4 4 7q0 81 25 141t90 105q48 33 94 35q62 2 100 -42q22 26 57.5 45t67.5 19q36 0 59 -15q5 -3 13 -1q15 4 29 15q2 0 4 -2.5t2 -3.5q-7 -35 -7 -102q0 -19 -1 -169.5t-2 -207.5q20 0 49 24
q33 31 63.5 69t30.5 49q0 9 -15 13q-15 5 -43 7q-1 1 -0.5 8t1.5 8q107 0 167 9q2 -2 2.5 -8.5t-1.5 -8.5q-50 -10 -73 -34q-11 -11 -104 -114q-2 -2 -1 -4q26 -39 82 -104t85 -87q18 -12 29.5 -14.5t44.5 -3.5q2 -1 1.5 -7.5t-2.5 -8.5q-7 -1 -52 -2.5t-57 -0.5
q-22 0 -35 12q-15 12 -39 40t-60.5 74t-44.5 56q-13 15 -28 14l2 -128q1 -23 6.5 -31.5t21.5 -12.5q8 -2 34 -5q2 -3 1.5 -8.5t-2.5 -7.5q-7 0 -39.5 1.5t-56.5 1.5q-23 0 -54.5 -1.5t-35.5 -1.5q-2 1 -2 8t2 8q26 4 34 7q18 8 21 35q2 30 2 190q0 338 -2 357q0 13 -8 21
q-25 28 -65 28q-30 0 -49 -19.5t-27 -57t-10 -72.5t-2 -86v-28q0 -6 4 -6q65 0 95 3q-6 -20 -6 -36q-10 0 -45.5 0.5t-43.5 0.5q-5 0 -5 -6q1 -40 1.5 -105.5t1 -113t1.5 -68.5q0 -31 27 -39q17 -4 37 -5q1 -1 0 -8t-2 -8q-8 0 -41 1.5t-59 1.5q-12 0 -48.5 -1.5t-47.5 -1.5
q-6 6 0 16q31 4 38 7q22 5 22 35q0 23 0.5 67.5t1 109t0.5 110.5q0 8 -4 8h-157q-4 0 -4 -8q3 -276 3 -284q1 -33 27 -40q10 -2 38 -5q3 -10 -3 -16q-8 0 -40.5 1.5t-58.5 1.5q-12 0 -47.5 -1.5t-46.5 -1.5q-6 6 1 16zM143 399v-10q0 -7 5 -7h155q5 2 5 8q2 114 35 185
q-36 56 -100 56q-29 0 -49 -19q-27 -24 -39 -71t-12 -142z" />
    <glyph glyph-name="f_f_t" unicode="fft" horiz-adv-x="739" 
d="M14 12q26 4 36 8q22 6 22 37q1 29 1.5 134t0.5 152q0 6 -4 6l-50 3q0 7 6 15q24 5 44 14q4 3 4 6q1 174 107 248q43 30 82 30q53 0 66 -29v-9q-2 -7 -11.5 -21t-16.5 -18q-2 -1 -9 -1q-36 41 -73 41q-22 0 -40 -17q-36 -37 -36 -189v-33q0 -7 4 -7h159q5 2 5 8
q2 89 26 156t87 111q46 33 85 33q53 0 72 -33v-11q-7 -21 -30 -39q-4 -4 -11 0q-1 1 -9 8t-11 9.5t-11.5 8.5t-14 8.5t-14.5 5t-17 2.5q-23 0 -40 -16q-43 -35 -43 -194v-51q0 -6 4 -6l150 1q3 1 3 5v77q14 6 36 23.5t28 26.5q5 2 10 -1q-4 -30 -4 -126q0 -6 4 -6
q92 0 116 4q-1 -4 -3.5 -17t-3.5 -20q-15 0 -54 0.5t-55 0.5q-4 0 -4 -6q-3 -146 -1 -217q0 -38 8 -58q13 -36 55 -36q34 0 61 18q1 -1 -0.5 -9t-2.5 -10q-33 -43 -96 -43q-62 0 -82 42q-13 26 -13 114q0 28 0.5 103.5t0.5 93.5q0 7 -4 8h-150q-4 0 -4 -5q0 -238 3 -287
q1 -33 27 -38q21 -5 44 -7q2 -2 1.5 -8.5t-2.5 -7.5q-11 0 -48 1.5t-62 1.5q-12 0 -46 -1.5t-45 -1.5q-1 1 -1 7.5t1 8.5q30 4 37 7q20 5 20 35l3 287q0 8 -4 8h-160q-5 0 -5 -8q1 -43 1 -150t2 -134q1 -33 27 -40q10 -2 38 -5q1 -2 0.5 -8t-2.5 -8q-9 0 -41.5 1.5
t-58.5 1.5q-12 0 -47.5 -1.5t-46.5 -1.5q-2 2 -2 7.5t2 7.5z" />
    <glyph glyph-name="f_h" unicode="fh" horiz-adv-x="700" 
d="M14 13q28 4 36 7q22 6 22 35q2 104 2 282q0 8 -4 8l-49 2q0 11 7 20q27 3 42 13q4 2 4 8q1 96 25.5 158.5t90.5 107.5q46 29 86 29q31 0 57 -11q7 -2 13 0q12 3 30 17q6 0 6 -6q-7 -35 -7 -91v-256q0 -3 4 -1q79 61 137 61q55 0 85 -40.5t30 -115.5q0 -149 1 -193
q0 -10 7 -18q11 -9 54 -16q1 -2 -0.5 -8.5t-2.5 -7.5q-5 0 -38.5 2t-59.5 1q-84 -3 -89 -3q-1 1 -1 7.5t1 8.5q36 6 40 8q10 5 13 14t4 40q3 158 -6 204q-6 27 -28 48t-63 21q-45 0 -76 -27q-12 -9 -12 -22q0 -208 2 -235q1 -23 7 -32t20 -13q13 -3 33 -6q1 -2 1 -7.5
t-1 -7.5q-2 0 -39 1t-62 1q-19 0 -49.5 -1.5t-37.5 -1.5q-2 1 -1.5 7t2.5 9q26 4 33 6q21 6 22 47q2 46 2 171q0 323 -1 351q-2 16 -8 24q-23 34 -66 34q-26 0 -43 -15q-27 -22 -36.5 -75t-9.5 -143q0 -19 1 -25q0 -6 4 -6q62 0 95 3q-6 -19 -8 -41q-58 3 -88 1q-4 0 -4 -6
q0 -39 0.5 -103.5t0.5 -111t1 -67.5q1 -33 28 -39q18 -4 37 -5q1 -2 1 -8t-2 -8q-9 0 -42 1.5t-59 1.5q-23 0 -56 -1.5t-38 -1.5q-2 2 -2 8t2 8z" />
    <glyph glyph-name="f_i" unicode="fi" horiz-adv-x="443" 
d="M15 13q28 4 36 6q21 7 21 37q2 78 2 285q0 8 -4 8l-49 3q0 9 6 15q32 8 43 14q5 3 5 8q0 92 25.5 155.5t89.5 108.5q53 35 94 35q35 0 60.5 -14.5t34.5 -34.5q2 -6 0 -14q-3 -9 -14 -22t-20 -17q-7 -2 -13 2q-5 4 -23 23q-36 38 -76 38q-24 0 -44 -19q-25 -22 -35 -74
t-10 -148v-20q0 -6 4 -6l135 1q65 0 94 10q-3 -39 -3 -182q0 -109 1 -157q0 -26 21 -34q15 -5 39 -7q2 -1 0.5 -8t-3.5 -8q-8 0 -41.5 1.5t-52.5 1.5q-24 0 -55 -1.5t-35 -1.5q-1 2 -1 8t1 8q23 2 36 8q15 6 18 42q2 24 2 146q0 115 -2 131q-2 10 -8 10h-147q-4 0 -4 -9
q0 -39 0.5 -104t0.5 -111.5t1 -67.5q1 -33 26 -40q15 -3 38 -5q2 -2 1 -8.5t-3 -7.5q-4 0 -37.5 1.5t-60.5 1.5q-12 0 -47.5 -1.5t-45.5 -1.5q-2 1 -2 7.5t1 8.5z" />
    <glyph glyph-name="f_j" unicode="fj" horiz-adv-x="439" 
d="M15 13q28 4 36 6q21 7 21 37q2 78 2 285q0 8 -4 8l-49 3q0 9 6 15q32 8 43 14q5 3 5 8q0 92 25 155.5t90 108.5q48 35 93 35q35 0 61.5 -14t34.5 -35q4 -6 0 -14q-2 -7 -14 -20.5t-20 -17.5q-4 -1 -13 1l-7 7t-7 8t-8 9q-36 38 -76 38q-23 0 -46 -21q-25 -22 -34.5 -73
t-9.5 -148v-20q0 -6 4 -6l133 1q62 0 96 12q-2 -40 -2.5 -188.5t-0.5 -159.5q0 -54 -6 -94q-9 -77 -52 -141t-87 -90q-7 0 -16 7q-1 1 -1 2.5t1 2.5q50 36 70.5 90.5t20.5 159.5v3q0 297 -3 353q-2 10 -7 10h-147q-4 0 -4 -9q0 -39 0.5 -104t0.5 -111.5t1 -67.5
q1 -33 26 -40q15 -3 38 -5q2 -2 1 -8.5t-3 -7.5q-4 0 -37.5 1.5t-60.5 1.5q-12 0 -47.5 -1.5t-45.5 -1.5q-2 1 -2 7.5t1 8.5z" />
    <glyph glyph-name="f_k" unicode="fk" horiz-adv-x="658" 
d="M14 11q24 3 36 8q22 5 22 36q2 104 2 282q0 8 -4 8l-49 2q0 12 6 20q27 3 43 13q4 1 4 8q1 96 25.5 158.5t90.5 107.5q47 29 87 29q29 0 55 -11q7 -2 13 0q14 4 31 17q6 0 6 -6q-7 -35 -7 -107q-2 -80 -2 -372q24 0 51 24q33 32 61 69.5t28 48.5q0 9 -15 13q-15 5 -42 7
q-2 2 -1.5 8t2.5 8q105 0 167 9q2 -2 2.5 -8t-1.5 -9q-52 -12 -73 -33q-27 -28 -101 -113q-2 -2 0 -4q25 -39 81 -105t85 -88q12 -9 23 -12.5t18.5 -4t33.5 -1.5q0 -13 -3 -16q-7 -2 -55.5 -3t-59.5 0q-18 3 -31 14q-15 12 -39 39.5t-57.5 70.5t-45.5 57q-9 14 -28 13
q0 -92 2 -126q1 -23 6.5 -31.5t21.5 -12.5q15 -3 35 -6q1 -2 0 -7.5t-2 -7.5q-7 0 -39.5 1.5t-56.5 1.5q-21 0 -49.5 -1.5t-42.5 -1.5q-1 1 -1 7t1 7q19 3 37 9q19 8 20 35q2 30 2 157q0 104 -0.5 189t-0.5 131.5v56.5q-1 11 -9 24q-23 33 -65 33q-26 0 -44 -16
q-45 -38 -45 -216q0 -20 1 -26q0 -6 4 -6q62 0 95 3q-8 -27 -8 -41q-58 3 -88 1q-4 0 -4 -6q0 -39 0.5 -103.5t0.5 -111t1 -67.5q1 -33 28 -40q7 -2 20.5 -3.5t16.5 -2.5q1 -2 1 -7t-2 -7q-9 0 -42 1.5t-59 1.5q-12 0 -47.5 -1.5t-46.5 -1.5q-2 2 -2 7t2 7z" />
    <glyph glyph-name="f_l" unicode="fl" horiz-adv-x="445" 
d="M14 13q28 4 36 7q22 6 22 35l3 282q0 8 -5 8l-49 2q0 11 7 20q26 3 42 13q5 3 5 8q0 96 25 158.5t91 107.5q43 29 85 29q30 0 56 -11q8 -2 14 0q13 5 30 17q2 0 4 -2.5t2 -3.5q-7 -35 -7 -102q-1 -51 -1 -256q0 -226 3 -268q1 -29 19 -36q14 -5 41 -8q2 -2 1 -8.5
t-3 -7.5q-9 0 -39 1.5t-54 1.5q-25 0 -59 -1.5t-36 -1.5q-3 6 0 15q26 3 40 8t16 30q3 27 3 273q0 257 -1 267q0 15 -8 23q-22 33 -63 33q-30 0 -46 -15q-45 -38 -45 -215q0 -22 1 -28q0 -6 4 -6q62 0 95 3q-6 -20 -8 -41q-58 3 -88 1q-4 0 -4 -6q0 -39 0.5 -103.5t0.5 -111
t1 -67.5q1 -33 28 -39q18 -4 37 -5q1 -1 0.5 -8t-1.5 -8q-8 0 -41.5 1.5t-59.5 1.5q-12 0 -47.5 -1.5t-46.5 -1.5q-1 2 -1 7.5t1 8.5z" />
    <glyph glyph-name="f_t" unicode="ft" horiz-adv-x="486" 
d="M15 13q30 5 34 6q23 7 23 38q1 29 1.5 131.5t0.5 148.5q0 8 -4 8l-51 2q0 11 6 19q24 3 45 13q5 5 5 6q0 96 22.5 156.5t84.5 105.5q20 16 47.5 28.5t45.5 12.5q27 0 48.5 -10.5t26.5 -24.5v-8q-2 -9 -13.5 -27t-18.5 -22q-2 -1 -8 -1q-42 47 -89 47q-23 0 -40 -17
q-23 -21 -30 -72.5t-8 -132.5q0 -26 1 -32q0 -6 4 -6h140q4 2 4 6v77q13 6 35.5 23.5t28.5 26.5q4 1 11 -1q-5 -25 -5 -126q0 -6 4 -6q83 0 107 4q0 -2 -3 -17.5t-4 -22.5q-16 0 -50 0.5t-50 0.5q-5 0 -5 -6q-3 -144 -1 -214q1 -35 8 -58q14 -35 52 -35q31 0 55 16
q1 -1 0 -8t-2 -10q-33 -43 -92 -43q-58 0 -78 42q-12 24 -12 114q0 28 0.5 102.5t0.5 92.5q0 6 -5 8h-140q-4 0 -4 -9q0 -39 0.5 -103t0.5 -110t1 -67q1 -32 29 -39q22 -5 45 -7q1 -1 0 -8t-2 -8q-11 0 -48.5 1.5t-62.5 1.5q-12 0 -46 -1.5t-45 -1.5q-2 2 -2 8t2 8z" />
    <glyph glyph-name="longs_b" unicode="&#x17f;b" horiz-adv-x="685" 
d="M14 12q19 3 36 7q22 7 22 36q2 104 2 285q0 6 -4 6l-49 3q0 11 6 19q31 7 43 13q4 3 4 8q1 97 26 161t91 107q41 26 77 26q26 0 51 -10q5 -3 13 0q12 3 31 16q5 0 5 -6q-7 -47 -7 -103q0 -206 2 -233q0 -1 1.5 -2t3.5 0q90 51 132 51q67 0 108 -51q40 -46 40 -120
q0 -122 -90 -185q-27 -20 -74.5 -36t-78.5 -16q-59 0 -120 23q3 13 5 51q2 72 2 183q0 325 -1 347q0 13 -8 23q-22 31 -56 31q-24 0 -39 -13q-45 -39 -45 -218v-68q0 -39 0.5 -106t0.5 -115t1 -69q1 -32 28 -39q22 -5 37 -5q2 -2 1.5 -8t-2.5 -8q-9 0 -42 1.5t-59 1.5
q-12 0 -47.5 -1.5t-46.5 -1.5q-1 2 -1 7.5t1 7.5zM445 349q-32 0 -70 -18q-11 -5 -12 -15q-2 -16 -1.5 -87.5t2.5 -108.5q1 -58 17 -74q27 -23 77 -23q48 0 79 34q38 43 38 125q0 75 -32 119q-37 48 -98 48z" />
    <glyph glyph-name="longs_h" unicode="&#x17f;h" horiz-adv-x="689" 
d="M14 13q28 4 36 6q22 7 22 36q2 104 2 284q0 7 -4 7l-49 3q0 10 7 19q29 6 42 13q4 4 4 7q1 97 26 160t90 107q43 28 75 28q26 0 54 -10q6 -4 13 0q14 3 31 16q6 0 6 -6q-7 -35 -7 -103q0 -29 -0.5 -89t-0.5 -93v-61q0 -3 4 -1q78 60 137 60q55 0 85 -40.5t30 -115.5
q0 -149 1 -193q0 -13 6 -18q14 -11 55 -16q1 -2 -0.5 -8.5t-2.5 -7.5q-8 0 -40.5 1.5t-57.5 1.5q-47 0 -89 -3q-2 2 -2 8t2 8q28 5 38 8q10 4 14 13.5t5 40.5q3 163 -5 204q-6 27 -28 48t-64 21q-45 0 -76 -27q-12 -9 -12 -23q0 -207 2 -234q2 -23 7 -32t19 -13q14 -3 34 -6
q1 -2 0.5 -8t-1.5 -7q-2 0 -38.5 1t-61.5 1q-19 0 -49.5 -1.5t-36.5 -1.5q-2 2 -2 8t2 8q26 4 33 6q20 6 21 47q3 36 3 196q0 312 -1 334q-2 18 -8 23q-22 28 -55 28q-23 0 -38 -14q-48 -40 -48 -222v-64q0 -39 0.5 -105.5t0.5 -115t1 -69.5q1 -33 28 -39q22 -5 36 -5
q1 -2 1 -8t-2 -8q-9 0 -41.5 1.5t-58.5 1.5q-22 0 -53.5 -1.5t-40.5 -1.5q-2 2 -2 8t2 8z" />
    <glyph glyph-name="longs_i" unicode="&#x17f;i" horiz-adv-x="432" 
d="M15 11q28 4 36 7q21 5 21 36q2 104 2 285q0 7 -4 7l-50 3q0 11 8 19q21 3 42 14q5 0 5 8q0 184 115 264q49 34 93 34q33 0 59 -14t34 -37q3 -9 0 -17q-6 -23 -30 -33q-10 -2 -15 1q-8 5 -24 25q-34 37 -75 37q-23 0 -43 -19q-46 -42 -45 -233q0 -323 1 -342q1 -34 27 -39
q12 -3 36 -6q1 -2 1 -7.5t-2 -6.5q-5 0 -38 1.5t-60 1.5q-12 0 -47.5 -1.5t-45.5 -1.5q-2 1 -2 6.5t1 7.5zM423 12q0 -13 -4 -15q-9 0 -42 1.5t-50 1.5q-24 0 -56 -1.5t-37 -1.5q-1 2 -1 7.5t1 7.5q29 5 39 8q16 7 18 41q2 24 2 163q0 22 -0.5 53t-0.5 36q0 11 -5 18
q-8 11 -41 21q-1 2 -1 7.5t1 7.5q70 7 119 29q-2 -54 -2 -168q0 -127 1 -174q0 -26 20 -34q18 -5 39 -8z" />
    <glyph glyph-name="longs_k" unicode="&#x17f;k" horiz-adv-x="655" 
d="M14 13q28 4 36 7q22 6 22 35q2 104 2 284q0 7 -4 7l-49 3q0 11 6 19q24 3 43 12q4 2 4 8q1 97 26 160t90 107q43 28 75 28q26 0 54 -10q6 -4 13 0q14 3 31 16q6 0 6 -6q-7 -35 -7 -103q0 -29 -0.5 -118t-1 -165.5t-0.5 -92.5q24 0 50 24q33 32 61 70t28 49q0 9 -15 13
q-13 5 -41 7q-2 2 -1.5 7.5t2.5 7.5q105 0 167 9q3 -7 1 -17q-3 -1 -11 -3t-11 -2.5t-9.5 -2.5t-9.5 -3.5t-8.5 -4t-9 -5t-7.5 -5.5t-8 -7q-17 -17 -100 -113q-1 -1 -1 -4q26 -39 81.5 -104.5t84.5 -87.5q18 -13 31.5 -16t44.5 -4q0 -12 -3 -15q-7 -2 -55.5 -3t-59.5 0
q-20 3 -32 14q-15 12 -38.5 39.5t-56.5 70t-46 57.5q-11 14 -28 13q0 -92 2 -126q1 -23 6.5 -31.5t21.5 -12.5q4 -1 35 -5q2 -9 -2 -16q-7 0 -40 1.5t-56 1.5q-21 0 -50 -1.5t-42 -1.5q-1 1 -1 8t1 8q28 4 36 7q19 8 20 35q2 30 2 157q0 362 -1 384q-2 18 -8 23
q-22 28 -55 28q-21 0 -38 -14q-48 -40 -48 -223v-63q0 -39 0.5 -105.5t0.5 -115t1 -69.5q1 -32 28 -39q18 -4 36 -5q1 -1 0.5 -8t-1.5 -8q-9 0 -41.5 1.5t-58.5 1.5q-12 0 -47.5 -1.5t-46.5 -1.5q-1 2 -1 7.5t1 8.5z" />
    <glyph glyph-name="longs_l" unicode="&#x17f;l" horiz-adv-x="432" 
d="M14 13q28 4 36 7q22 6 22 35q0 57 2 285q0 8 -4 8l-49 2q0 10 6 18q32 7 42 13q5 3 5 7q1 96 26 159.5t91 107.5q41 28 78 28q27 0 50 -10q6 -3 14 0q12 3 31 16q5 0 5 -6q-7 -35 -7 -103q0 -43 -0.5 -140t-0.5 -108q0 -228 2 -264q2 -24 5 -33.5t14 -13.5q13 -4 43 -8
q1 -2 0.5 -8.5t-2.5 -7.5q-11 0 -41 1.5t-53 1.5q-20 0 -53.5 -1.5t-39.5 -1.5q-1 3 -1.5 8.5t0.5 7.5q31 5 39 8q16 6 17 32q2 36 2 272q0 249 -1 272q0 14 -9 23q-20 27 -54 27q-22 0 -38 -13q-48 -40 -48 -228v-123q0 -193 2 -226q1 -32 28 -39q18 -4 34 -5q1 -1 0.5 -8
t-1.5 -8q-9 0 -40.5 1.5t-57.5 1.5q-12 0 -47.5 -1.5t-46.5 -1.5q-2 1 -2 7.5t2 8.5z" />
    <glyph glyph-name="longs_longs" unicode="&#x17f;&#x17f;" horiz-adv-x="433" 
d="M15 13q2 0 15.5 2.5t18.5 3.5q24 7 24 36q0 18 0.5 118.5t0.5 165.5q0 7 -4 7l-49 3q0 11 6 19q25 3 45 14q3 2 3 7q2 166 116 244q46 33 90 33q52 0 87 -33q5 -5 8 0q59 55 116 55q53 0 72 -35q2 -4 0 -10q-2 -8 -12.5 -21t-17.5 -18q-4 -4 -10 0l-11 10q-11 9 -15.5 12
t-14.5 9.5t-19 9t-19 2.5q-54 0 -68 -63.5t-14 -218.5q-2 -238 2 -308q1 -33 26 -38q11 -3 35 -6q1 -2 1 -8t-2 -8q-11 0 -42.5 1.5t-56.5 1.5q-12 0 -46 -1.5t-45 -1.5q-1 1 -1 7.5t1 8.5q26 4 35 6q22 7 22 34q0 60 2 286q0 7 -4 7l-50 3q0 8 8 19q27 6 42 15q4 2 4 9
q2 115 35 185q-37 52 -90 52q-97 0 -96 -224q0 -40 0.5 -121t0.5 -143t1 -83q1 -33 27 -40q12 -3 36 -5q1 -2 0.5 -8t-2.5 -8q-8 0 -39.5 1.5t-57.5 1.5q-12 0 -47.5 -1.5t-46.5 -1.5q-6 6 0 16z" />
    <glyph glyph-name="longs_longs_i" unicode="&#x17f;&#x17f;i" horiz-adv-x="676" 
d="M15 12q27 5 35 8q23 6 23 37q0 18 0.5 117.5t0.5 164.5q0 7 -4 7l-50 3q0 11 8 19q34 8 43 14q4 4 4 6q3 166 115 245q48 35 98 35q59 0 91 -39q4 -4 8 0q62 61 128 61q33 0 60 -14.5t36 -37.5q2 -6 0 -17q-8 -24 -29 -34q-9 -2 -16 1q-4 3 -24 25q-35 39 -75 39
q-27 0 -46 -17q-25 -24 -35 -81t-10 -164q2 -322 3 -332q1 -33 25 -39q26 -6 34 -6q0 -1 -0.5 -7.5t-1.5 -8.5q-11 0 -41 1.5t-55 1.5q-12 0 -46 -1.5t-45 -1.5q-1 1 -1 7.5t1 8.5q28 4 36 7q21 5 21 35q0 59 2 283q0 8 -4 8l-51 3q0 8 8 19q23 5 43 14q4 3 4 9
q2 111 34 181q-35 59 -98 59q-22 0 -38.5 -9.5t-31.5 -33t-23 -70.5t-8 -115q0 -296 2 -345q1 -34 26 -39q23 -5 39 -6q1 -2 0.5 -8t-2.5 -8q-4 0 -38 1.5t-61 1.5q-12 0 -47.5 -1.5t-46.5 -1.5q-6 6 0 15zM673 13q0 -15 -4 -16q-9 0 -45 1.5t-53 1.5q-24 0 -55.5 -1.5
t-36.5 -1.5q-1 2 -1 8.5t1 7.5q26 2 38 8q17 7 18 41q2 25 2 162q0 75 -1 92q0 11 -4 18q-9 10 -42 20q-1 2 -1 7t1 6q70 7 119 29q-2 -54 -2 -168q0 -125 1 -173q0 -27 20 -35q14 -4 45 -7z" />
    <glyph glyph-name="longs_longs_l" unicode="&#x17f;&#x17f;l" horiz-adv-x="676" 
d="M15 12l35 7q22 7 22 38q1 29 1.5 132t0.5 150q0 7 -4 7l-50 3q0 10 7 19q26 3 43 13q4 3 4 7q1 34 5 59t14.5 60.5t34.5 67t60 56.5q51 37 98 37q53 0 95 -38q3 -3 6 0q61 60 124 60q32 0 56 -17q5 -3 10 0q17 6 34 15q4 -2 4 -6q-9 -24 -9 -109v-241q0 -224 3 -265
q2 -24 5.5 -32.5t14.5 -13.5q18 -7 41 -8q2 -2 1 -8t-3 -8q-11 0 -41 1.5t-53 1.5q-20 0 -54.5 -1.5t-40.5 -1.5q-2 1 -2.5 7.5t1.5 8.5q29 4 41 9q16 8 17 29q2 24 2 272q0 263 -1 277q-1 20 -14 31q-25 21 -60 21q-24 0 -44 -19q-25 -23 -34 -80t-9 -162q0 -50 0.5 -129.5
t0.5 -130.5t1 -73q3 -34 26 -39q20 -5 34 -6q1 -2 1 -9t-3 -7q-11 0 -41 1.5t-55 1.5q-12 0 -46 -1.5t-45 -1.5q-2 2 -2 8t2 8q28 4 36 7q20 5 20 36l3 286q0 4 -4 4l-50 3q0 10 7 19q23 5 43 14q4 2 4 7q2 113 31 179q3 7 0 11q-35 52 -96 52q-46 0 -73 -50.5t-27 -182.5
q0 -307 2 -340q1 -32 27 -39q23 -5 39 -6q1 -2 0.5 -8t-2.5 -8q-5 0 -39.5 1.5t-60.5 1.5q-12 0 -48 -1.5t-46 -1.5q-6 6 0 15z" />
    <glyph glyph-name="t_t" unicode="tt" horiz-adv-x="505" 
d="M494 49q1 -1 0 -7.5t-2 -8.5q-33 -44 -91 -44q-59 0 -79 42q-12 24 -12 114q0 28 0.5 101.5t0.5 92.5q0 5 -5 7l-163 1q-5 0 -5 -6v-66.5v-88.5v-59q1 -35 8 -58q15 -36 52 -36q31 0 55 16q1 -1 0 -7t-2 -9q-33 -44 -92 -44q-58 0 -78 42q-13 26 -13 114q0 28 0.5 102
t0.5 92q0 6 -4 7q-2 1 -50 4q0 8 7 19q22 4 44 13q3 2 3 6v77q14 6 36 23.5t28 26.5q5 1 11 -1q-6 -30 -6 -124q0 -6 5 -6h164q4 2 4 5v87q13 6 35.5 23.5t28.5 26.5q2 1 6 0l4 -1q-5 -25 -5 -135q0 -6 4 -6q84 0 108 4q-5 -18 -7 -42q-15 0 -50 0.5t-51 0.5q-4 0 -4 -6
q-1 -57 -1 -214q1 -35 8 -58q15 -36 52 -36q33 0 55 16z" />
    <glyph glyph-name="u0162_u0068" unicode="&#x162;h" horiz-adv-x="960" 
d="M160 13q42 4 64 9q21 3 27.5 18t8.5 54q2 88 2 480q0 7 -6 7q-12 1 -69 0.5t-72 -1.5q-23 0 -39 -22q-21 -28 -42 -85q-2 -2 -9 0t-8 4q14 81 17 147h9q31 -14 74 -14l442 1q4 0 4 4v53q0 7 5 7q15 0 29.5 3.5t23.5 6.5l9 3q5 0 5 -5l-1 -9q0 -8 -0.5 -31.5t-0.5 -58.5
v-248q0 -3 4 -1q79 61 137 61q56 0 85.5 -39.5t29.5 -113.5q0 -108 2 -196q0 -13 6 -18q15 -12 55 -16q1 -2 -0.5 -8.5t-3.5 -7.5l-36 2q-35 2 -61 1q-82 -2 -89 -3q-2 2 -2 8t2 8q35 6 39 8q10 5 13 14t4 40q3 160 -5 201q-6 28 -28 50t-64 22q-43 0 -75 -27
q-13 -11 -13 -23q0 -194 3 -234q1 -23 6.5 -32t19.5 -13q15 -4 33 -6q5 -5 0 -15q-2 0 -39 1t-61 1q-19 0 -50 -1.5t-37 -1.5q-5 6 0 16q27 4 34 6q20 6 21 47q2 48 2 171q0 296 -1 331q0 10 -9 12q-31 1 -110.5 1t-98.5 -1q-5 -2 -5 -9q0 -411 4 -482q1 -39 9 -51t26 -17
q13 -4 55 -8q1 -2 0 -8.5t-2 -7.5q-17 0 -64 1.5t-67 1.5q-28 0 -78.5 -2t-63.5 -1q-2 3 -2 8.5t2 7.5zM306 -31q14 0 28.5 -17t14.5 -44q0 -78 -96 -106q-2 1 -4.5 6t-1.5 6q62 27 62 67q0 35 -50 50q-1 1 -1.5 4.5t0.5 4.5q5 8 21 18.5t27 10.5z" />
    <glyph glyph-name="Tcaron_h" unicode="&#x164;h" horiz-adv-x="960" 
d="M160 13q42 4 64 9q21 3 27.5 18t8.5 54q2 88 2 480q0 7 -6 7q-12 1 -69 0.5t-72 -1.5q-23 0 -39 -22q-21 -28 -42 -85q-2 -2 -9 0t-8 4q14 81 17 147h9q31 -14 74 -14l442 1q4 0 4 4v53q0 7 5 7q15 0 29.5 3.5t23.5 6.5l9 3q5 0 5 -5l-1 -9q0 -8 -0.5 -31.5t-0.5 -58.5
v-248q0 -3 4 -1q79 61 137 61q56 0 85.5 -39.5t29.5 -113.5q0 -108 2 -196q0 -13 6 -18q15 -12 55 -16q1 -2 -0.5 -8.5t-3.5 -7.5l-36 2q-35 2 -61 1q-82 -2 -89 -3q-2 2 -2 8t2 8q35 6 39 8q10 5 13 14t4 40q3 160 -5 201q-6 28 -28 50t-64 22q-43 0 -75 -27
q-13 -11 -13 -23q0 -194 3 -234q1 -23 6.5 -32t19.5 -13q15 -4 33 -6q5 -5 0 -15q-2 0 -39 1t-61 1q-19 0 -50 -1.5t-37 -1.5q-5 6 0 16q27 4 34 6q20 6 21 47q2 48 2 171q0 296 -1 331q0 10 -9 12q-31 1 -110.5 1t-98.5 -1q-5 -2 -5 -9q0 -411 4 -482q1 -39 9 -51t26 -17
q13 -4 55 -8q1 -2 0 -8.5t-2 -7.5q-17 0 -64 1.5t-67 1.5q-28 0 -78.5 -2t-63.5 -1q-2 3 -2 8.5t2 7.5zM311 651q-2 -4 -11 -4q-9 10 -57 49t-66 51q0 3 3 8.5t5 5.5q4 0 54.5 -21.5t62.5 -28.5q7 -2 10 0q15 8 60 29t49 21q2 0 4.5 -5t1.5 -9q-77 -57 -116 -96z" />
    <glyph glyph-name="gamma_gamma" unicode="&#x3b3;&#x3b3;" horiz-adv-x="787" 
d="M2 289q-2 1 -2.5 8.5t0.5 10.5q27 41 65.5 64.5t66.5 23.5q124 0 114 -290l4 -3q1 0 2 3q37 148 101 231q53 59 108 59q63 0 92.5 -69t27.5 -224l4 -3q1 0 2 3q21 84 51 153.5t49 94.5q35 45 61 45q14 0 32 -13t19 -18q1 -2 0 -6.5t-2 -5.5q-44 -3 -88.5 -59t-72.5 -122
t-41 -124q-8 -34 -8 -52q-3 -209 -8 -227q-1 -5 -12 -5q-9 0 -34.5 15t-25.5 26q0 13 6.5 45t17.5 79t15 67q7 31 8 53q1 70 -11 130.5t-39.5 102t-66.5 41.5q-107 0 -171 -252q-12 -54 -12 -78q-16 -217 -24 -251q-2 -6 -12 -6q-14 0 -37.5 15.5t-23.5 24.5q0 19 23 99
t33 108q7 26 7 68q0 43 -6 86t-20 87.5t-42 72t-67 27.5q-42 0 -83 -35z" />
    <glyph glyph-name="u03BB_u03BB" unicode="&#x3bb;&#x3bb;" horiz-adv-x="730" 
d="M318 -12q-30 0 -50 37q-12 24 -27.5 75t-35 125.5t-23.5 89.5l-4 1q-22 -42 -50 -118t-46 -140q-9 -40 -7 -74q-1 -2 -3 -2q-24 0 -41.5 11t-16.5 19q1 34 39 109q17 38 60.5 129.5t52.5 110.5q4 10 2 21q-7 34 -28 97q-24 67 -50 93t-60 26q-35 0 -56 -14q-3 2 -5 6t0 7
q16 26 45 43.5t56 17.5q47 0 74.5 -45.5t70.5 -185.5q58 -204 84 -280q19 -52 29.5 -67t23.5 -16q16 0 37 40q60 119 106 262q4 11 2 23q-11 56 -32 110q-46 127 -124 127q-41 0 -74 -25q-9 5 -5 13q23 35 56 54.5t63 19.5q49 0 84.5 -51t75.5 -184q13 -44 45 -152.5
t46 -149.5q23 -62 40 -80t39 -18q18 0 34 10q2 -1 3 -6t-1 -8q-41 -61 -100 -61q-24 0 -43 39q-26 52 -88 286h-3q-50 -140 -113 -255q-38 -70 -82 -70z" />
    <glyph glyph-name=".notdef" horiz-adv-x="495" 
d="M0 0v693h495v-693h-495zM248 391l168 253h-337zM277 347l169 -253v505zM79 50h337l-168 252zM50 599v-505l168 253z" />
    <glyph glyph-name=".null" horiz-adv-x="0" 
 />
    <glyph glyph-name="nonmarkingreturn" horiz-adv-x="333" 
 />
    <glyph glyph-name="space" unicode=" " horiz-adv-x="158" 
 />
    <glyph glyph-name="exclam" unicode="!" horiz-adv-x="259" 
d="M169 609q17 0 20 -8q0 -9 -4.5 -65t-13 -159.5t-14.5 -196.5q-2 -2 -10.5 -0.5t-9.5 3.5q-5 67 -14.5 160t-16 156t-6.5 77q-1 6 3 14t9 10q29 9 57 9zM149 83q19 0 31 -12q15 -16 15 -38q0 -18 -13 -31q-11 -14 -36 -14q-19 0 -31 12q-13 14 -13 35q0 19 15 35
q15 13 32 13z" />
    <glyph glyph-name="quotedbl" unicode="&#x22;" horiz-adv-x="256" 
d="M213 629q0 -31 -6 -85.5t-11 -66.5q-11 -31 -18 -38q-1 -2 -4.5 -2t-4.5 1q-2 164 -10 189q5 8 23 23.5t22 15.5l6 -1q3 -5 3 -36zM97 623q0 -31 -6 -87t-10 -68q-6 -20 -18 -36q-1 -2 -4.5 -2t-4.5 1q-2 171 -10 196q4 4 21 17.5t23 15.5q2 2 7 -2q2 -6 2 -35z" />
    <glyph glyph-name="numbersign" unicode="#" horiz-adv-x="395" 
d="M258 455l26 124q9 7 26 11q4 0 4 -3l-28 -129q0 -3 3 -3q60 0 87 4q2 -6 -7 -24q-27 -28 -91 -28q-4 0 -4 -4l-21 -94q0 -4 3 -4q65 0 85 4q3 -8 -3 -20q-31 -35 -92 -35q-2 0 -4 -5l-27 -132q0 -2 -6 -2q-1 0 -8.5 7t-8.5 9q21 102 25 123h-85q-4 0 -4 -4l-30 -134
q-1 -2 -6 -2q-3 1 -10 8t-8 9q4 20 14.5 66.5t12.5 56.5q-71 0 -82 3q-2 3 5.5 27.5t11.5 25.5q33 -5 76 -5l21 102q-59 0 -79 2q-1 4 6.5 26t11.5 23q40 -2 72 -2l24 114q0 1 12 6t15 5q1 0 3 -2l-25 -118q0 -5 3 -5zM248 407h-83q-3 0 -5 -4l-20 -94q0 -4 2 -4h84z" />
    <glyph glyph-name="dollar" unicode="$" horiz-adv-x="450" 
d="M132 475q0 -42 23.5 -69t63.5 -51q3 -2 5 2l21 216q0 4 -3 4q-54 -3 -82 -30.5t-28 -71.5zM236 254l-23 -229q0 -3 2 -3q46 1 79.5 27.5t34.5 76.5q2 42 -17.5 72t-70.5 59q-1 1 -3 0t-2 -3zM178 -84l8 80q0 5 -3 5q-60 2 -128 31q-9 12 -18 117q2 2 8 4t9 1
q16 -71 46 -97.5t86 -33.5q4 0 4 3l23 240q0 4 -3 6q-71 43 -106 79.5t-35 91.5q0 73 48 113.5t127 40.5q4 0 4 3l7 71q7 5 25 5l-8 -76q0 -3 2 -3q21 -1 64 -9q40 -6 51 -6q-12 -59 -17 -112q-2 -2 -8.5 -3t-8.5 2q-2 57 -20 79.5t-63 27.5q-3 0 -3 -3l-23 -227q1 -6 4 -8
q37 -20 56 -32t45.5 -33.5t38.5 -47t12 -56.5q0 -71 -48 -116t-141 -51q-3 0 -3 -4l-8 -79q-18 -3 -24 -3z" />
    <glyph glyph-name="percent" unicode="%" horiz-adv-x="623" 
d="M119 41q70 107 193.5 297.5t170.5 262.5q14 8 30 8q3 0 3 -4q-20 -25 -189 -287.5t-196 -301.5q-4 -2 -6 0q-7 17 -6 25zM484 352q46 0 72.5 -40t26.5 -96q0 -95 -48 -138q-44 -41 -94 -41q-46 0 -74.5 41t-28.5 97q0 82 44 131q48 46 102 46zM455 325q-31 0 -45.5 -35
t-14.5 -80q0 -75 22 -109t53 -34q65 0 65 114q0 59 -20 101.5t-60 42.5zM185 583q47 0 73.5 -40.5t26.5 -95.5q0 -95 -50 -138q-41 -40 -93 -40q-46 0 -74 40t-28 99q0 82 44 129q46 46 101 46zM157 557q-32 0 -46 -35.5t-14 -80.5q0 -74 22.5 -108t53.5 -34q64 0 64 114
q0 57 -21.5 100.5t-58.5 43.5z" />
    <glyph glyph-name="ampersand" unicode="&#x26;" horiz-adv-x="694" 
d="M282 605q52 0 86.5 -33t34.5 -82q0 -38 -26.5 -69t-95.5 -78q-1 -1 -1.5 -2.5t0.5 -2.5q20 -21 81.5 -72.5t110.5 -89.5q2 -2 5 0q38 53 60 125q11 29 -11 38q-8 4 -47 9q-3 1 -2 7.5t3 8.5q3 0 31.5 -1.5t53.5 -1.5q22 0 42.5 0.5t32 1.5t14.5 1q2 -1 2.5 -7.5
t-1.5 -8.5l-35 -7q-25 -8 -42 -35q-13 -22 -30 -54t-29 -53t-23 -35q-1 -1 1 -4q138 -103 153 -121q0 -13 -15.5 -36t-27.5 -35q-7 -4 -11 0q-3 6 -15 17.5t-13 12.5q-48 40 -119 96q0 1 -1.5 1t-2.5 -1q-85 -108 -203 -108q-82 0 -133 48t-51 123q0 40 28 73t106 87
q3 3 1 5q-58 65 -58 136q0 62 43 104.5t104 42.5zM209 302q-3 2 -5 0q-23 -20 -36.5 -33.5t-24.5 -37t-11 -50.5q0 -62 44.5 -102t107.5 -40q89 0 141 67q3 3 1 5q-151 124 -217 191zM266 584q-31 0 -53 -24t-22 -69q0 -73 70 -135q3 -2 5 0q78 60 78 132q0 37 -20 66.5
t-58 29.5z" />
    <glyph glyph-name="quotesingle" unicode="'" horiz-adv-x="144" 
d="M101 628q0 -33 -6.5 -90.5t-11.5 -69.5q-8 -25 -19 -36q-1 -1 -4.5 -1.5t-4.5 0.5q2 146 -11 196q4 5 22 18.5t25 14.5q5 2 8 -1q2 -5 2 -31z" />
    <glyph glyph-name="parenleft" unicode="(" horiz-adv-x="366" 
d="M78 267q0 164 65.5 289t174.5 200q3 -1 7 -6t3 -7q-190 -155 -190 -458q0 -146 46 -274t134 -202q1 -2 -3.5 -7.5t-7.5 -5.5q-22 10 -49.5 34t-59.5 67t-58.5 95.5t-44 125t-17.5 149.5z" />
    <glyph glyph-name="parenright" unicode=")" horiz-adv-x="366" 
d="M288 284q0 -166 -65 -289.5t-175 -198.5q-2 1 -6.5 7t-3.5 7q190 162 190 457q0 319 -180 476q-1 2 3.5 7t7.5 6q22 -10 49.5 -34.5t59.5 -67.5t58.5 -95t44 -125t17.5 -150z" />
    <glyph glyph-name="asterisk" unicode="*" horiz-adv-x="317" 
d="M186 536q67 21 114 44l3 -6q-9 -16 -21 -24q-20 -10 -91 -37q13 -13 49 -42t51 -35q2 -4 -5 -8q-21 -5 -37 1q-15 9 -29.5 19.5t-27.5 20.5t-18 13q-24 -103 -24 -123q-2 -2 -5 0q-5 2 -12.5 12.5t-6.5 21.5q2 23 18 102l-119 -41q-3 0 -3 4q4 6 14 16t15 11q21 9 83 32
q-66 60 -81 77q-3 3 -1 8q17 11 32 11q22 -28 72 -72q16 85 23 105q1 3 15 7t17 4q5 0 5 -4q-4 -12 -10.5 -37t-12.5 -50.5t-7 -29.5z" />
    <glyph glyph-name="plus" unicode="+" horiz-adv-x="460" 
d="M424 232q-7 -29 -13 -30q-4 -1 -30.5 -1h-65.5t-62 -1q-6 0 -6 -7q0 -22 -0.5 -62.5t-0.5 -69.5v-31q-1 -6 -33 -17l-7 1v35.5v68.5v82h-170v8q4 20 10 35q4 -1 99 -1h61v60q0 84 -2 108q30 10 39 10q4 0 4 -29v-141q0 -8 5 -8h172v-10z" />
    <glyph glyph-name="comma" unicode="," horiz-adv-x="156" 
d="M-8 -147q-2 2 0 4q74 70 71 139q-3 32 -26 71q4 9 23 29.5t27 23.5q1 1 5.5 1t6.5 -1q17 -15 20 -63q3 -62 -34.5 -122.5t-79.5 -87.5q-4 0 -8.5 2t-4.5 4z" />
    <glyph glyph-name="hyphen" unicode="-" horiz-adv-x="255" 
d="M42 220q40 0 180 5v-4l1 -3q-3 -35 -12 -37q-6 -1 -82 -3.5t-96 -2.5q-1 6 -1 7q0 8 3.5 23t6.5 15z" />
    <glyph glyph-name="period" unicode="." horiz-adv-x="156" 
d="M79 88q16 0 30 -12q15 -13 15 -38q0 -20 -13 -32q-14 -14 -35 -14q-17 0 -30 13q-14 14 -14 34t15 35q16 14 32 14z" />
    <glyph glyph-name="slash" unicode="/" horiz-adv-x="430" 
d="M387 686l2 -2q-8 -31 -144 -375t-171 -407q-2 -3 -12.5 -10.5t-16.5 -8.5q-4 0 -4 3q51 109 163.5 395t152.5 395q1 2 12 6t18 4z" />
    <glyph glyph-name="zero" unicode="0" horiz-adv-x="450" 
d="M240 602q68 0 113 -51q65 -80 65 -239q0 -200 -93 -282q-45 -41 -107 -41q-64 0 -106 39q-80 73 -80 258q0 167 72 251q56 65 136 65zM219 578q-36 0 -59 -30q-23 -27 -36.5 -89.5t-13.5 -133.5q0 -311 126 -311q32 0 53 24q49 62 49 247q0 140 -32 216.5t-87 76.5z" />
    <glyph glyph-name="one" unicode="1" horiz-adv-x="450" 
d="M349 12q1 -2 -0.5 -8t-2.5 -7q-4 0 -42.5 1.5t-74.5 1.5q-28 0 -53.5 -1t-41.5 -1.5t-20 -0.5q-2 1 -2 8t2 8q37 4 42 5q19 4 26 16.5t8 44.5q2 45 2 222q2 170 -2 205q-4 31 -22 32q-5 1 -49 3q-1 2 -1 7.5t2 7.5q80 8 141 46q8 0 8 -3q-3 -43 -3 -255q0 -201 3 -261
q2 -33 7 -45.5t21 -17.5q13 -4 52 -8z" />
    <glyph glyph-name="two" unicode="2" horiz-adv-x="450" 
d="M162 540q-65 0 -120 -69q-2 0 -6.5 5t-4.5 7q26 43 72.5 81t100.5 38q64 0 106.5 -47.5t42.5 -125.5q0 -97 -113 -225q-18 -21 -117 -133q-1 -1 0 -2.5t2 -1.5q28 -4 110.5 -5.5t106.5 0.5q11 1 19 5t21.5 22t27.5 52q2 1 8.5 -1.5t6.5 -4.5q-30 -108 -52 -131
q-6 -7 -37 -7q-37 0 -124 2t-128 2q-16 0 -49 -3q-6 6 -3 14q62 60 89.5 90t70.5 87q85 110 85 215q0 57 -28 96.5t-87 39.5z" />
    <glyph glyph-name="three" unicode="3" horiz-adv-x="450" 
d="M223 602q52 0 89 -37.5t38 -93.5q0 -75 -90 -140q-3 -2 -1 -4q141 -42 141 -157q0 -100 -85 -162q-66 -50 -151 -50q-54 0 -86 18q-20 11 -28 36q-12 32 -12 67q2 6 13 6q19 -54 51 -77q33 -25 97 -25q48 0 86 36.5t38 103.5q0 66 -36.5 108.5t-105.5 42.5q-20 0 -36 -3
q-2 3 3.5 16t9.5 15q64 15 94.5 49.5t30.5 81.5q0 46 -26 80t-76 34q-60 0 -111 -57q-2 -1 -6.5 6t-3.5 9q81 97 163 97z" />
    <glyph glyph-name="four" unicode="4" horiz-adv-x="450" 
d="M433 170q-66 2 -102 2q-3 0 -3 -5q0 -32 0.5 -96t0.5 -95q-34 0 -78 -11q3 192 3 201q0 5 -4 5l-135 1h-104q0 8 3 23q263 372 278 395q2 2 17 4.5t18 1.5v-372q0 -4 3 -4q75 0 111 1q-8 -37 -8 -51zM68 219q12 -1 70 -1h111q5 0 5 5l3 273q0 1 -1.5 1.5t-2.5 -0.5
q-18 -25 -94.5 -137t-91.5 -137q-1 -1 -0.5 -2.5t1.5 -1.5z" />
    <glyph glyph-name="five" unicode="5" horiz-adv-x="450" 
d="M351 605q2 0 6 -3t3 -5q-22 -48 -41 -65q-15 -12 -32 -12q-30 0 -66 3t-38 3q-7 0 -12 -8q-21 -42 -35 -91q-1 -2 0.5 -6t3.5 -5q141 -77 177 -103q43 -30 63 -64t20 -82q0 -87 -71.5 -148t-156.5 -61q-73 0 -116 40q-17 19 -17 34q0 11 16 41q1 1 4 2t4 0
q60 -85 151 -85q53 0 86 34.5t33 89.5q0 48 -19.5 81t-67.5 66q-31 22 -88 54t-64 37q-4 9 -2 20q13 42 42.5 114.5t43.5 92.5q9 16 18 16q3 0 46 -3t62 -2q31 0 47 15z" />
    <glyph glyph-name="six" unicode="6" horiz-adv-x="450" 
d="M428 632q-123 -55 -194.5 -135.5t-97.5 -164.5q-1 -5 2 -6q90 47 138 47q59 0 101 -48t42 -123q0 -122 -99 -186q-42 -29 -100 -29q-92 0 -138.5 61t-46.5 154q0 144 108 267.5t278 178.5q2 -1 5 -7.5t2 -8.5zM216 329q-36 0 -70 -20q-20 -12 -24 -32q-6 -25 -6 -60
q0 -102 37.5 -153t94.5 -51q45 0 71 39t26 109q0 77 -38 122.5t-91 45.5z" />
    <glyph glyph-name="seven" unicode="7" horiz-adv-x="450" 
d="M422 592q2 -4 2 -9q-18 -57 -138 -326t-126 -283q-2 -3 -6 -3q-14 3 -21 13q-1 1 -1.5 5t0.5 5q8 17 54 113t76.5 161t64.5 140t43 104q0 5 -1 5q-194 4 -261 -1q-21 -2 -33 -14.5t-30 -52.5q-1 -2 -8 1t-8 5q24 77 34 142q18 -7 76 -7h188q61 0 95 2z" />
    <glyph glyph-name="eight" unicode="8" horiz-adv-x="450" 
d="M240 602q62 0 103 -40t41 -102q0 -35 -23.5 -66.5t-81.5 -71.5q-1 -1 -1 -2.5t1 -2.5q69 -47 97 -80.5t28 -82.5q0 -65 -54 -115t-131 -50q-86 0 -129.5 45.5t-43.5 101.5q0 34 26.5 68.5t97.5 85.5q2 1 2.5 2.5t-0.5 2.5q-53 38 -77 73t-24 77q0 69 52 112q50 45 117 45
zM220 579q-41 0 -65 -26.5t-24 -70.5q0 -46 29 -77.5t96 -72.5q5 -3 8 0q63 51 63 121q0 55 -30.5 90.5t-76.5 35.5zM241 12q40 0 67.5 25t27.5 71q0 52 -30.5 87t-110.5 84q-8 4 -10 0q-76 -61 -76 -130q0 -55 36.5 -96t95.5 -41z" />
    <glyph glyph-name="nine" unicode="9" horiz-adv-x="450" 
d="M55 -59q-1 0 -4.5 7t-2.5 9q215 97 275 317q1 2 -0.5 3t-3.5 0q-29 -21 -72 -38t-74 -17q-55 0 -98.5 49.5t-43.5 125.5q0 109 88 168q55 37 116 37q83 0 131.5 -65.5t48.5 -164.5q0 -145 -102 -262.5t-258 -168.5zM204 576q-44 0 -72.5 -37.5t-28.5 -99.5
q0 -83 41 -125.5t98 -42.5q43 0 73 23q10 8 13 19q7 26 7 62q0 85 -36 143t-95 58z" />
    <glyph glyph-name="colon" unicode=":" horiz-adv-x="229" 
d="M115 86q17 0 30 -11q15 -15 15 -38q0 -19 -14 -31q-11 -14 -34 -14q-17 0 -29 13q-14 14 -14 34q0 17 15 34q13 13 31 13zM115 333q18 0 30 -12q15 -14 15 -37q0 -20 -14 -32q-12 -13 -34 -13q-17 0 -29 12q-14 14 -14 34q0 19 15 34q12 14 31 14z" />
    <glyph glyph-name="semicolon" unicode=";" horiz-adv-x="229" 
d="M116 333q18 0 30 -12q15 -14 15 -37q0 -20 -14 -32q-12 -13 -34 -13q-17 0 -29 12q-14 14 -14 34q0 19 15 34q12 14 31 14zM23 -147q-3 3 -1 4q80 73 77 139q-1 26 -26 71q4 9 23 29.5t27 23.5q1 1 6 1t6 -1q6 -4 12.5 -21.5t7.5 -41.5q2 -59 -37 -121t-82 -89
q-4 0 -8.5 2t-4.5 4z" />
    <glyph glyph-name="less" unicode="&#x3c;" horiz-adv-x="460" 
d="M389 365q-25 -24 -257 -142l-1 -5q5 -3 51 -26.5t88 -45.5t83 -45t49 -30q2 -2 -4 -16.5t-11 -20.5q-3 -4 -5 -2q-26 21 -149 85.5t-181 87.5q0 3 4.5 14.5t6.5 12.5q59 27 186.5 95t147.5 85q2 0 4 -2q0 -6 -4.5 -24t-7.5 -21z" />
    <glyph glyph-name="equal" unicode="=" horiz-adv-x="460" 
d="M411 277l-372 -1q-6 3 -3 8q4 24 10 36q8 -2 97 -2h280q2 -1 2 -7q-1 -7 -6 -20t-8 -14zM410 124l-371 -1q-3 1 -3 8q2 14 10 37q8 -3 97 -3h279q2 -1 2 -7q-1 -6 -6.5 -19.5t-7.5 -14.5z" />
    <glyph glyph-name="greater" unicode="&#x3e;" horiz-adv-x="460" 
d="M69 78q12 11 105 61.5t151 80.5l2 5q-4 2 -51 26.5t-88.5 46.5t-82.5 45t-49 30q-2 2 4 16t11 20q3 3 5 2q26 -21 149 -85.5t181 -87.5q0 -3 -5 -14.5t-7 -12.5q-59 -27 -186.5 -95.5t-147.5 -84.5q-2 0 -3 3q0 6 4.5 23.5t7.5 20.5z" />
    <glyph glyph-name="question" unicode="?" horiz-adv-x="334" 
d="M148 265q0 -9 10.5 -26.5t29.5 -32.5q4 -4 -2 -11q-10 -13 -32 -21q-13 -4 -25 0q-18 8 -30.5 25.5t-12.5 36.5q0 24 9 31q5 5 51.5 42.5t59.5 49.5q28 25 28 53q0 35 -28 72t-88 53q-6 2 -17.5 4t-14.5 3q-16 3 -16 13q0 19 22 43q7 10 23 10q53 0 104 -38
q32 -24 50.5 -57.5t18.5 -64.5q0 -47 -20 -69q-13 -15 -57.5 -50t-51.5 -42q-11 -11 -11 -24zM159 83q20 0 32 -12q14 -15 14 -38q0 -19 -12 -31q-13 -14 -37 -14q-18 0 -30 12q-13 14 -13 35q0 20 13 34q18 14 33 14z" />
    <glyph glyph-name="at" unicode="@" horiz-adv-x="747" 
d="M505 37q50 0 100.5 56t50.5 162q0 134 -74 205t-175 71q-34 0 -71 -9.5t-80 -37t-76.5 -69.5t-55.5 -114.5t-22 -164.5q0 -127 48.5 -200t113.5 -92q21 -6 52 -6q2 -1 2 -5.5t-2 -6.5q-18 -9 -42 -9q-16 0 -41.5 9.5t-58 33.5t-60.5 57.5t-47 89t-19 121.5q0 171 108 297
q121 138 285 138q117 0 187.5 -83t70.5 -190q0 -72 -26.5 -131.5t-66.5 -94.5t-82 -54t-77 -19q-42 0 -34 75q3 30 13 75q1 2 -1 2.5t-3 -1.5q-40 -61 -92.5 -106.5t-81.5 -45.5q-44 0 -44 92q0 57 23.5 120t65.5 107q25 28 77 56.5t99 28.5q33 0 74 -9q-14 -31 -21 -60
q-13 -50 -27.5 -136t-15.5 -117q0 -35 26 -35zM301 56q49 0 116 113q19 33 29 79q26 98 28 101q-15 9 -52 9q-72 0 -113 -81q-38 -74 -38 -156q0 -65 30 -65z" />
    <glyph glyph-name="A" unicode="A" 
d="M-33 13q52 7 69.5 20.5t39.5 65.5q30 73 173 464q10 30 13 48q1 0 10.5 -0.5t17.5 -0.5h13t9.5 0.5t4.5 0.5l12 -44q3 -9 73 -221t88 -258q20 -47 34.5 -58t63.5 -17q2 -2 1 -8.5t-3 -7.5q-75 3 -111 3q-82 0 -118 -3q-1 2 -1 7.5t1 8.5q39 6 49 10q17 8 11 27
q-6 23 -65 197l-4 3q-3 2 -4 2q-10 1 -86 1q-72 0 -83 -1q-6 0 -8 -7q-59 -159 -62 -184q-1 -9 -0.5 -16.5t7.5 -14t22 -9.5q25 -6 43 -8q1 -2 0.5 -8t-2.5 -8q-8 0 -48.5 1.5t-65.5 1.5q-26 0 -57 -1.5t-37 -1.5q-2 1 -2 8t2 8zM266 521q-4 0 -4 -1q-8 -21 -78 -227
q0 -5 4 -6q9 -1 80 -1q61 0 68 1q4 0 2 6z" />
    <glyph glyph-name="B" unicode="B" horiz-adv-x="529" 
d="M25 598q-2 1 -2 7.5t2 7.5q14 0 34.5 -1t39 -1.5t38.5 -0.5q25 0 67 1t77 1q27 0 52 -4.5t53.5 -17.5t45.5 -42t17 -71q0 -43 -27 -78.5t-77 -54.5q-1 -2 0 -3q67 -14 106.5 -53t39.5 -101q0 -119 -119 -170q-54 -23 -146 -23q-10 0 -90.5 2t-118.5 1q-2 1 -1.5 8t2.5 8
q45 5 57 8q14 4 20.5 15.5t7.5 38.5q3 46 3 233q0 200 -2 239q-3 34 -24 42q-11 4 -55 9zM224 589q-24 0 -32 -4q-8 -3 -8 -16q-3 -66 -3 -218q0 -6 4 -6q18 -2 51 -2q67 0 90 14q44 29 44 97q0 135 -146 135zM275 19q130 0 130 145q0 76 -47.5 116.5t-129.5 40.5
q-35 0 -43 -2l-4 -4q0 -208 4 -250q2 -17 15 -27q24 -19 75 -19z" />
    <glyph glyph-name="C" unicode="C" horiz-adv-x="641" 
d="M558 463q-7 56 -18.5 80.5t-37.5 37.5q-47 24 -126 24q-111 0 -174 -75.5t-63 -209.5q0 -141 72.5 -224.5t198.5 -83.5q77 0 119 40q30 30 65 92q2 1 8 -2t7 -6q-10 -38 -34 -81t-41 -52q-68 -21 -144 -21q-162 0 -251.5 85.5t-89.5 243.5q0 86 39 157.5t117 113.5
q84 46 205 46q43 0 111.5 -9.5t73.5 -9.5q-16 -64 -18 -144q-1 -2 -6 -3t-9 -1t-4 2z" />
    <glyph glyph-name="D" unicode="D" horiz-adv-x="683" 
d="M24 598q-1 1 0 7.5t2 7.5q72 -3 115 -3q31 0 89.5 2t98.5 2q134 0 212 -68q93 -81 93 -227q0 -173 -132 -262q-93 -64 -225 -64q-30 0 -87 2t-101 2h-72q-2 1 -2 8t2 8q39 4 55 9q10 3 15 6.5t10 14t6 28.5q3 61 3 252q0 175 -2 212q-2 28 -7 38.5t-23 15.5q-20 6 -50 9z
M185 78q2 -24 20 -36q31 -21 117 -21q92 0 147 55q77 79 77 227q0 165 -111 244q-62 43 -186 43q-38 0 -53 -5q-10 -8 -11 -21q-2 -29 -2 -253q0 -201 2 -233z" />
    <glyph glyph-name="E" unicode="E" horiz-adv-x="505" 
d="M28 598q-2 2 -1.5 7.5t2.5 7.5q8 0 45 -1.5t68 -1.5h191q80 0 105 4l3 -3q-10 -37 -18 -131q-2 -2 -8.5 -2t-8.5 1q-2 36 -11 64q-6 19 -16 28t-36 10q-21 2 -78 2t-71 -2q-10 -1 -10 -14q-1 -31 -2 -123.5t0 -107.5q0 -8 4 -8q20 -1 76 -1t79 2q14 1 23 6.5t12.5 11.5
t7.5 17q6 16 9 35q2 1 9.5 1t8.5 -1q-7 -42 -7 -90q0 -22 1 -49t1 -34q-2 -3 -9 -3t-8 2q-3 21 -7 35q-8 32 -40 35q-19 1 -77.5 1.5t-77.5 -0.5q-5 0 -5 -8q-1 -19 0 -98.5t2 -122.5q1 -31 23 -35q30 -6 122 -6q29 0 47 4t24.5 8t15.5 13q26 23 55 93q1 1 7 -2t7 -5
q-3 -21 -17.5 -66.5t-22.5 -62.5q-5 -8 -14 -9.5t-45 -1.5q-20 0 -92 1.5t-151 1.5q-35 0 -77 -1.5t-60 -1.5q-2 1 -2 7.5t2 8.5q50 4 64 8q17 5 24.5 16.5t9.5 40.5q2 48 2 253q0 167 -2 207q-2 28 -7.5 38t-23.5 14q-14 5 -45 8z" />
    <glyph glyph-name="F" unicode="F" horiz-adv-x="481" 
d="M27 598q-1 1 -1 7.5t1 7.5q4 0 42 -1.5t71 -1.5h218q58 0 88 7q2 0 4 -4q-10 -31 -16 -136q-1 -2 -8 -2t-9 1q-4 50 -16 74q-9 28 -42 30q-26 2 -87 2t-75 -2q-12 -2 -12 -17q-2 -42 -2 -241q0 -4 5 -4q124 0 153 2q40 1 51 26q8 21 13 46q2 1 9 1t8 -2q-7 -47 -7 -95
q0 -17 1 -45t1 -37q-1 -2 -7.5 -3t-8.5 0q-4 26 -10 43q-11 27 -34 29q-24 2 -88.5 3t-81.5 0q-4 0 -4 -6q0 -155 2 -200q1 -30 7 -42.5t26 -17.5q21 -4 54 -7q4 -11 0 -16q-14 0 -55 1.5t-70 1.5q-27 0 -66 -1.5t-55 -1.5q-1 2 -1 8t1 8q36 3 46 6q19 4 24.5 16t7.5 41
q2 68 2 235q0 193 -2 223q-1 20 -2 27.5t-6 15t-16 12.5q-15 5 -53 9z" />
    <glyph glyph-name="G" unicode="G" horiz-adv-x="665" 
d="M605 33q1 -2 0 -7.5t-2 -6.5q-143 -37 -208 -37q-169 0 -257.5 82.5t-88.5 245.5q0 95 46 169.5t127 110.5q84 38 192 38q44 0 112 -10.5t72 -10.5q-12 -46 -16 -146q-2 -3 -8.5 -3.5t-10.5 1.5q-4 54 -15 78.5t-33 36.5q-48 29 -137 29q-116 0 -177 -75.5t-61 -210.5
q0 -138 70.5 -225t197.5 -87q45 0 71 10q24 9 27 46q6 66 2 115q-2 29 -9.5 39.5t-30.5 14.5q-7 1 -13.5 2t-16.5 2t-19 2q-2 2 -2 8t2 8q17 0 60 -1.5t67 -1.5q60 0 94 3q2 -2 2 -8t-2 -8q-23 -5 -32 -8q-14 -4 -18.5 -15.5t-5.5 -40.5q-5 -81 -1 -112q2 -14 5.5 -18.5
t16.5 -8.5z" />
    <glyph glyph-name="H" unicode="H" horiz-adv-x="703" 
d="M25 597q-6 6 0 16q13 0 56.5 -1.5t63.5 -1.5q26 0 110 3q2 -2 1.5 -8.5t-2.5 -7.5q-23 -2 -40 -7q-16 -5 -22 -13.5t-7 -32.5q-2 -43 -2 -205q0 -6 5 -8q6 -2 175 -2q143 0 154 1q4 0 4 5q0 184 -2 220q-2 27 -21 34q-22 6 -49 8q-2 2 -2.5 8t2.5 8q7 0 46 -1.5t69 -1.5
q28 0 67 1.5t43 1.5q6 -10 0 -16q-41 -7 -44 -8q-16 -6 -22 -15.5t-7 -37.5q-3 -57 -3 -238q0 -178 3 -228q2 -23 6.5 -33t18.5 -14q15 -6 55 -10q2 -2 1 -8t-3 -8q-18 0 -54 1.5t-61 1.5q-47 0 -119 -3q-6 8 0 16q35 4 47 7q16 5 21.5 15t6.5 37q1 30 1 216q0 7 -5 7
q-15 1 -155 1q-164 0 -174 -2q-4 0 -4 -6q0 -157 2 -205q0 -3 0.5 -10.5t1 -10t1 -8.5t1.5 -8t2.5 -6t3 -6t4 -4.5t5.5 -4t7 -2.5q25 -7 53 -10q2 -2 0.5 -8.5t-3.5 -7.5q-84 3 -114 3q-53 0 -122 -3q-2 1 -2 7.5t2 8.5q29 3 48 9q20 6 25 21t7 54q1 32 1 216q0 198 -2 232
q-3 38 -26 44q-11 3 -53 8z" />
    <glyph glyph-name="I" unicode="I" horiz-adv-x="288" 
d="M27 598q-2 2 -2 7.5t2 7.5q8 0 50.5 -1.5t70.5 -1.5q30 0 64 1.5t41 1.5q5 -8 1 -15l-42 -7q-16 -5 -20.5 -16t-6.5 -38q-3 -57 -3 -224q0 -171 2 -237q1 -18 3 -26.5t8.5 -17t19.5 -11.5q13 -4 49 -8q2 -2 1.5 -8t-2.5 -8q-12 0 -47.5 1.5t-60.5 1.5q-30 0 -67 -1.5
t-60 -1.5q-6 6 0 16q24 2 44 7q18 4 23.5 14t7.5 32q3 44 3 271q0 157 -2 203q0 2 -1 7.5t-1 7.5t-1 6.5t-1.5 6.5t-2 5.5t-3 5.5t-4 4t-5 3.5t-6.5 2.5q-17 5 -52 9z" />
    <glyph glyph-name="J" unicode="J" horiz-adv-x="284" 
d="M27 598q-2 2 -2 7.5t2 7.5q12 0 53.5 -1.5t70.5 -1.5q28 0 64.5 1.5t48.5 1.5q2 -2 2 -7.5t-2 -7.5q-38 -5 -53 -12q-14 -8 -16 -41q-1 -20 -2 -207.5t-3 -233.5q-3 -118 -33 -178q-33 -69 -82 -108t-97 -39t-60 28v12q5 32 16 53q56 -41 94 -41q30 0 51 22q35 37 35 163
q2 90 1 283.5t-4 228.5q-1 14 -1.5 19.5t-3 16t-9 16.5t-16.5 9q-6 2 -54 9z" />
    <glyph glyph-name="K" unicode="K" horiz-adv-x="597" 
d="M182 322q0 -166 2 -239q1 -34 7.5 -46.5t26.5 -17.5q11 -3 47 -7q2 -2 1 -7.5t-3 -7.5q-14 0 -57 1.5t-68 1.5t-68.5 -1.5t-46.5 -1.5q-1 1 -1 7t1 8q41 5 48 7q14 3 21 11.5t9 19t3 31.5q2 39 2 240q0 179 -2 217q-1 29 -7.5 39t-24.5 15q-7 2 -23 3.5t-20 2.5
q-1 2 -1 7.5t1 7.5q8 0 46.5 -1.5t68.5 -1.5q22 0 59 1.5t47 1.5q2 -1 2 -7t-2 -8q-30 -4 -43 -8q-10 -3 -15 -10.5t-6.5 -17t-2.5 -32.5q-1 -43 -1 -208zM361 598q-2 2 -1.5 7.5t2.5 7.5q18 0 49 -1.5t49 -1.5q67 0 109 3q2 -2 2.5 -7.5t-2.5 -7.5q-42 -6 -62.5 -17.5
t-53.5 -48.5q-137 -153 -180 -196v-3q15 -30 113.5 -141t142.5 -147q15 -13 33 -21q20 -10 73 -11q2 -2 1.5 -8.5t-2.5 -7.5q-30 -3 -86 -2t-72 7q-17 5 -50 33q-33 30 -105 114.5t-113 138.5q-6 8 -15 14q0 6 3 9q33 13 91 72t115 131q28 38 28 57q0 12 -21 17
q-31 8 -48 10z" />
    <glyph glyph-name="L" unicode="L" horiz-adv-x="509" 
d="M24 598q-1 1 -1 7.5t2 7.5q7 0 44 -1.5t72 -1.5q31 0 68.5 1.5t42.5 1.5q2 -1 2.5 -7.5t-2.5 -7.5q-7 -1 -20.5 -3.5t-20.5 -4.5q-17 -4 -21 -13t-5 -31q0 -13 -0.5 -49.5t-1 -89.5t-0.5 -86q-2 -167 2 -258q1 -24 17 -29q13 -6 76 -7.5t91 0.5q31 1 55 30q33 37 61 107
q2 2 8.5 0t7.5 -5q-6 -31 -21.5 -81.5t-25.5 -69.5q-9 -12 -40 -12q-29 0 -139.5 2t-134.5 2t-68 -1.5t-54 -1.5q-2 1 -2 7.5t2 8.5q46 6 52 7q17 4 24 13t9 32q3 40 3 275q0 164 -1 189q-2 34 -7 45t-27 16q-2 0 -47 8z" />
    <glyph glyph-name="M" unicode="M" horiz-adv-x="805" 
d="M34 598q-2 2 -1.5 8t2.5 7q5 0 56 -1.5t111 -1.5q2 -22 19 -56q46 -105 112 -248.5t79 -166.5q1 -3 4 0q14 26 90 185.5t107 227.5q17 40 19 58q49 0 95 1.5t61 1.5q2 -1 2 -7.5t-2 -8.5q-34 -3 -57 -10q-30 -7 -30 -42q-1 -43 3 -225.5t7 -242.5q2 -27 9 -39.5t28 -17.5
q17 -4 49 -7q1 -1 1 -7t-1 -9q-6 0 -48 1.5t-74 1.5q-49 0 -118 -3q-2 1 -2 7.5t2 8.5q31 4 46 9q27 7 27 48q2 141 -5 436q-2 2 -4 0q-4 -9 -43 -91.5t-72.5 -155t-69 -153t-46.5 -112.5q-2 -1 -9 -1t-9 1q-11 38 -59 152.5t-99.5 232.5t-59.5 139q-3 0 -3 -2
q-5 -62 -13 -218t-8 -204q0 -35 6.5 -51t26.5 -21q10 -3 53 -9q2 -2 1.5 -8.5t-2.5 -7.5q-9 0 -42 1.5t-59 1.5q-28 0 -67 -1.5t-44 -1.5q-2 2 -2 8t2 8q4 1 12.5 2t15 2t11.5 2q23 4 32.5 19.5t15.5 59.5q6 45 18.5 207t15.5 233q0 36 -27 46q-23 9 -63 14z" />
    <glyph glyph-name="N" unicode="N" horiz-adv-x="688" 
d="M8 598q-1 1 0 7.5t2 7.5q8 0 45 -1.5t57 -1.5q36 0 45 1q7 -16 38 -53q257 -321 369 -453l3 2q0 383 -4 426q-2 24 -9 36.5t-27 18.5q-15 4 -60 10q-1 2 -1 7.5t2 7.5q10 0 50 -1.5t66 -1.5q17 0 53 1.5t40 1.5q1 -1 1 -7t-1 -8q-21 -4 -39 -8q-31 -10 -33 -54
q-3 -35 -4 -103t-1.5 -166.5t-1.5 -138.5q0 -69 2 -133q-27 2 -58 0q-21 32 -107.5 142t-187 235t-104.5 131q-1 1 -2.5 0.5t-1.5 -1.5q-1 -77 -1 -225t2 -190q1 -34 10.5 -47.5t28.5 -18.5q15 -4 53 -8q2 -2 1.5 -8.5t-2.5 -7.5q-6 0 -45 1.5t-67 1.5q-29 0 -62.5 -1.5
t-39.5 -1.5q-1 1 -1 8t1 8q31 3 44 7q18 5 27.5 18.5t11.5 47.5q6 88 9 437q0 28 -23 48q-10 9 -23 14.5t-22 7.5t-33 5z" />
    <glyph glyph-name="O" unicode="O" horiz-adv-x="720" 
d="M354 -18q-65 0 -123 25.5t-97 67.5q-85 94 -85 235q0 104 55 186q42 60 115 96t150 36q143 0 222.5 -90.5t79.5 -221.5q0 -117 -59 -203q-42 -63 -111.5 -97t-146.5 -34zM391 13q68 0 111 38q85 73 85 233q0 82 -28.5 156t-86.5 116q-57 44 -134 44q-51 0 -96 -25
q-53 -32 -79 -96.5t-26 -145.5q0 -83 31 -160.5t94 -121.5q54 -38 129 -38z" />
    <glyph glyph-name="P" unicode="P" horiz-adv-x="504" 
d="M229 257q-4 3 -10 15q0 5 3 5q30 -3 41 -3q41 0 70 16q60 36 58 134q0 75 -39 120.5t-123 45.5q-28 0 -37 -4q-5 -2 -7 -13q-3 -72 -3 -236q0 -230 1 -255q1 -35 8 -46t30 -16q11 -2 48 -7q3 -1 3 -8t-2 -8q-11 0 -57 1.5t-68 1.5q-25 0 -69 -1.5t-53 -1.5q-2 2 -2.5 8
t1.5 8q34 4 47 7t18 6t9.5 15t5.5 37q4 64 4 237q0 188 -2 219q-1 27 -6.5 39.5t-23.5 16.5q-24 6 -48 8q-1 1 0 7.5t2 7.5q6 0 46.5 -1.5t66.5 -1.5t71.5 1t73.5 1q81 0 127 -35q60 -47 61 -130q1 -62 -27.5 -105t-71.5 -65q-49 -25 -102 -25q-30 0 -44 5z" />
    <glyph glyph-name="Q" unicode="Q" horiz-adv-x="720" 
d="M907 -105q-84 -73 -195 -73q-57 0 -125 34q-37 18 -91 50.5t-61 36.5q-60 35 -108 42q-93 10 -158 58q-62 46 -91 118t-29 147q0 107 54 186q44 63 116 98.5t155 35.5q135 0 216 -89t81 -224q0 -144 -87 -236q-51 -55 -133 -85q43 -11 97 -39q158 -71 230 -71
q81 0 123 28q2 -1 4.5 -7.5t1.5 -9.5zM337 601q-98 0 -149 -77t-51 -193q0 -131 68.5 -227t193.5 -96q72 0 130 73t58 204t-65 223.5t-185 92.5z" />
    <glyph glyph-name="R" unicode="R" horiz-adv-x="572" 
d="M26 598q-1 2 -1 8t2 7q11 0 50 -1.5t53 -1.5q33 0 83 1t72 1q82 0 126 -42t44 -108q0 -109 -116 -157q-3 -3 -1 -6q103 -169 168 -233q32 -32 51 -41t55 -12q3 -10 -3 -16q-34 -3 -79 1t-68 14q-25 12 -46 37q-22 25 -78 112.5t-65 100.5q-10 17 -24 17q-8 1 -34.5 0
t-28.5 -1q-4 0 -4 -6q0 -155 2 -196q1 -30 6.5 -40t20.5 -14q12 -3 51 -9q2 -2 1.5 -8t-2.5 -8q-4 0 -46.5 1.5t-71.5 1.5q-40 0 -78 -2l-38 -1q-3 1 -3 7.5t3 7.5q39 6 46 8q17 4 23 16t8 40q2 56 2 230q0 200 -2 240t-32 45q-22 5 -46 7zM220 589q-19 0 -30 -4
q-5 -2 -5 -12q-3 -29 -3 -259q0 -5 4 -5q86 -10 120 4q71 27 71 127q0 70 -40 109.5t-117 39.5z" />
    <glyph glyph-name="S" unicode="S" horiz-adv-x="446" 
d="M51 154q25 -93 70 -123q35 -25 98 -25q47 0 78 29t31 82q0 48 -29 81t-100 77q-70 43 -105 85.5t-35 101.5q0 76 53.5 121t135.5 45q36 0 87 -7.5t52 -7.5q-12 -67 -17 -129q-1 -2 -8.5 -2.5t-8.5 1.5q-4 49 -13 71.5t-28 34.5q-30 18 -77 18q-50 0 -79 -30.5t-30 -76.5
q-1 -68 66 -118q22 -16 62.5 -40t49.5 -30q46 -31 72.5 -65.5t26.5 -84.5q0 -77 -57.5 -128.5t-154.5 -51.5q-40 0 -79 9.5t-55 20.5q-7 9 -14 58t-9 80q1 3 8 4.5t9 -0.5z" />
    <glyph glyph-name="T" unicode="T" horiz-adv-x="601" 
d="M422 12q2 -1 1 -7.5t-3 -7.5q-14 0 -59 1.5t-65 1.5q-36 0 -84 -1.5t-58 -1.5q-2 3 -2 8t2 7q45 5 64 9q21 4 27 19t8 52q3 66 3 483q0 7 -6 7q-13 1 -68.5 0.5t-70.5 -1.5q-25 -1 -40 -26q-13 -21 -37 -87q-1 -2 -8.5 -0.5t-8.5 3.5q14 71 18 152l5 2q32 -15 78 -15h368
q51 0 88 12q4 0 4 -2q-12 -39 -20 -150q-1 -2 -9 -2t-9 2q-4 54 -15 81q-11 26 -39 29q-26 1 -79.5 1.5t-67.5 -0.5q-5 -2 -5 -9q0 -379 4 -483q2 -39 9.5 -51.5t25.5 -17.5q13 -4 49 -8z" />
    <glyph glyph-name="U" unicode="U" horiz-adv-x="662" 
d="M20 598q-2 2 -2 7.5t2 7.5q3 0 44 -1.5t71 -1.5q29 0 65 1.5t43 1.5q1 -1 1 -7t-1 -8q-37 -8 -42 -9q-14 -4 -19.5 -15t-6.5 -40q-6 -152 0 -307q5 -91 33 -131q47 -73 159 -73q77 0 122.5 41t51.5 146q8 152 2 307q-1 41 -11 55t-33 19q-8 2 -21 3.5t-21 2.5
q-1 2 -1 7.5t2 7.5q3 0 37.5 -1t67.5 -1q24 0 54.5 1t36.5 1q2 -2 2 -8t-2 -7q-27 -4 -37 -7q-19 -6 -26 -21t-8 -57q-5 -282 -15 -340q-28 -190 -233 -190q-213 0 -235 180q-4 27 -5 100.5t-1 160.5t-1 113q0 45 -25 53q-10 4 -48 9z" />
    <glyph glyph-name="V" unicode="V" horiz-adv-x="586" 
d="M-25 598q-2 2 -1 8t3 7q8 0 50 -1.5t66 -1.5q49 0 112 3q1 -1 1 -7t-1 -8q-24 -5 -46 -11q-20 -6 -12 -27q22 -61 91 -240.5t81 -208.5l1 -1q2 0 3 1q13 28 79 196t85 224q9 25 5 39t-24 19q-34 7 -50 9q-1 2 0.5 8t2.5 7q8 0 42 -1.5t59 -1.5q26 0 58 1.5t38 1.5
q1 -2 1 -7.5t-1 -7.5q-22 -3 -40 -8q-21 -6 -33 -23t-33 -67q-143 -352 -157 -388q-26 -66 -41 -119q-25 4 -44 0q-29 94 -45 135q-112 302 -151 395q-15 37 -26.5 50.5t-30.5 17.5z" />
    <glyph glyph-name="W" unicode="W" horiz-adv-x="848" 
d="M-28 598q-2 1 -1.5 8t3.5 8q18 0 56.5 -2t66.5 -2q63 1 106 3q1 -1 1 -7t-1 -8q-34 -7 -41 -10q-19 -9 -10 -43q31 -126 119 -420q2 1 3 2q131 364 156 460q17 -2 37 1q12 -51 71.5 -221t89.5 -245h2l2 1q91 289 114 399q11 56 -18 65q-28 7 -56 11q-2 2 -2 7.5t2 7.5
q8 0 47 -1.5t61 -1.5q40 0 100 3q2 -1 2 -7t-2 -8q-38 -8 -48 -12q-16 -7 -25 -21t-20 -44q-29 -82 -85 -264.5t-78 -263.5q-35 0 -38 -1q-37 131 -161 470q-3 0 -4 -2q-151 -437 -160 -466q-3 1 -20 0.5t-21 -1.5q-22 95 -73 274.5t-75 248.5q-13 39 -23.5 53t-31.5 20
q-21 5 -45 9z" />
    <glyph glyph-name="X" unicode="X" horiz-adv-x="582" 
d="M602 14q2 -1 2 -8.5t-3 -8.5l-55 2q-55 2 -95 1q-19 -1 -54.5 -2.5t-40.5 -1.5q-2 2 -2.5 8.5t1.5 8.5q40 8 43 9q14 5 7 19q-26 58 -127 227q-1 2 -2.5 2t-1.5 -2q-106 -154 -137 -218q-9 -23 15 -29q24 -5 44 -8q1 -2 0.5 -8t-2.5 -8q-12 0 -48.5 1.5t-55.5 1.5
q-17 0 -105 -4q-1 2 -1 8.5t1 8.5q36 4 53 8q34 8 76 65q51 69 144 209q2 5 0 8q-77 140 -121 212q-13 22 -17 28t-13 18t-18 17.5t-22 9.5q-28 7 -59 10q-2 2 -2 8t2 7q19 0 57.5 -1.5t70.5 -1.5q60 0 99 3q2 -2 2 -7.5t-2 -7.5q-27 -6 -33 -8q-12 -4 -6 -17
q5 -13 27 -51.5t50 -86.5t38 -67q3 -2 5 0q104 162 114 194q7 21 -11 25q-12 4 -50 10q-1 2 0 8.5t2 7.5q8 0 39 -1.5t55 -1.5q33 0 70 1.5t39 1.5q2 -9 0 -15q-44 -8 -50 -10q-24 -7 -40.5 -21t-48.5 -62q-60 -92 -104 -162q-2 -2 0 -8q106 -187 122 -213
q36 -60 53.5 -77.5t44.5 -23.5q12 -3 51 -7z" />
    <glyph glyph-name="Y" unicode="Y" horiz-adv-x="536" 
d="M-15 598q-1 2 -1 7.5t2 7.5q12 0 53 -1.5t69 -1.5q58 0 97 3q3 -1 3 -7.5t-2 -7.5q-7 -1 -32 -7q-22 -6 -9 -34q65 -134 132 -252h4q99 172 127 240q8 19 3 30t-26 15q-7 2 -20 4t-22 4q-2 2 -1.5 8t3.5 7q78 -3 100 -3q23 0 57.5 1.5t41.5 1.5q2 -1 2 -7t-2 -8l-41 -8
q-22 -5 -35 -18.5t-29 -41.5q-107 -177 -139 -251q-8 -13 -8 -33l3 -160q1 -33 7.5 -48t27.5 -20q19 -4 47 -7q1 -2 0 -7.5t-2 -6.5q-8 0 -53 1.5t-73 1.5q-32 0 -72 -1.5t-52 -1.5q-2 2 -2 7t2 7q28 2 56 8q19 4 25.5 18t7.5 41l2 145q0 33 -8 48q-38 86 -120 233
q-30 53 -44 67t-36 20q-6 2 -12.5 3t-15 2t-15.5 2z" />
    <glyph glyph-name="Z" unicode="Z" horiz-adv-x="551" 
d="M540 158q-4 -26 -19.5 -83t-25.5 -71q-5 -8 -45 -8q-92 0 -202 1.5t-120 1.5q-59 0 -95 -3q-1 1 -1.5 5.5t0.5 5.5q69 92 201 299.5t164 270.5q2 6 -1 6q-224 0 -259 -2q-33 -3 -53 -29q-19 -26 -44 -90q-1 -1 -9 1.5t-8 4.5q21 92 26 151q5 3 10 1q20 -10 83 -10h201
q115 0 152 4q4 0 4 -8q-36 -61 -171.5 -280.5t-182.5 -291.5q-1 -2 -0.5 -3.5t1.5 -1.5q57 -8 257 -5q28 0 50 20q31 26 72 119q7 0 15 -5z" />
    <glyph glyph-name="bracketleft" unicode="[" horiz-adv-x="325" 
d="M105 740h173q2 -1 0.5 -15t-4.5 -14q-29 -1 -128 -1q-6 0 -6 -7q-6 -38 -6 -417q0 -325 4 -415q0 -16 10 -19q18 -5 136 -5q2 -2 0.5 -15.5t-6.5 -14.5q-53 -3 -141 0q-29 1 -39 9l2 908q0 6 5 6z" />
    <glyph glyph-name="backslash" unicode="\" horiz-adv-x="409" 
d="M60 691l1 -1h1q230 -626 310 -798q-2 -4 -5 -4q-24 2 -29 11q-16 31 -77 188t-132.5 344t-93.5 241q10 13 25 19z" />
    <glyph glyph-name="bracketright" unicode="]" horiz-adv-x="328" 
d="M223 -185q-35 0 -87 -0.5t-87 -0.5q-1 1 -1 7.5t2.5 14.5t6.5 8q95 0 126 3q2 0 4 3t2 5q5 38 5 413q0 373 -4 417q-3 19 -10 20q-14 2 -139 2q-2 5 0.5 17t7.5 12q25 2 164 2q11 0 16 -3l-1 -914q0 -6 -5 -6z" />
    <glyph glyph-name="asciicircum" unicode="^" horiz-adv-x="378" 
d="M76 314q-9 -11 -35 -11q-8 0 -8 5q13 16 70 130t71 147q1 1 12.5 5t13.5 4q19 -44 74 -149t71 -128q0 -3 -1 -5q-4 -4 -20 -9.5t-18 -3.5q-8 8 -34.5 56t-54.5 102.5t-31 59.5q-5 2 -6 0q-94 -192 -104 -203z" />
    <glyph glyph-name="underscore" unicode="_" horiz-adv-x="551" 
d="M565 -182v-51h-569v51h569z" />
    <glyph glyph-name="grave" unicode="`" horiz-adv-x="400" 
d="M168 589q15 -34 55 -151q-1 -2 -6 -4.5t-7 -1.5q-45 57 -102 147q-1 0 -0.5 2t1.5 4q6 2 28 4t31 0z" />
    <glyph glyph-name="a" unicode="a" horiz-adv-x="377" 
d="M237 259q0 34 -17 57q-27 38 -79 38q-22 0 -36 -9q-23 -16 -40 -72q-1 -1 -6 1.5t-9 7.5t-4 9q0 8 7 26t11 22q30 23 68.5 40t58.5 17q60 0 91 -50q21 -32 21 -98q0 -28 -1.5 -88t-1.5 -77q0 -44 36 -44q19 0 34 5q0 -16 -4 -20q-32 -36 -78 -36q-34 0 -47 24q-5 9 -7 26
q0 1 -1.5 2t-2.5 0q-77 -52 -111 -52q-29 0 -51 22q-33 33 -33 86q0 26 11 48q14 8 91 33t94 34q6 3 6 9v11.5v14.5v13zM236 189q0 1 -1 2t-2 0q-110 -36 -122 -48q-7 -7 -7 -31q0 -32 19 -52.5t50 -20.5q27 0 52 15q9 7 9 21q2 62 2 114z" />
    <glyph glyph-name="b" unicode="b" horiz-adv-x="456" 
d="M273 396q67 0 108 -51q40 -46 40 -120q0 -123 -89 -185q-27 -21 -68 -36.5t-71 -15.5q-38 0 -83 14q-25 7 -43 1q-1 -1 -3 1t-2 4q4 52 4 237q0 307 -5 360q-1 16 -4 21t-11 9q-9 5 -49 9q-2 1 -1 6.5t3 6.5q75 5 142 31q4 0 4 -7q-10 -14 -10 -179q-1 -95 1 -156
q0 -4 5 -2q84 52 132 52zM218 349q-38 0 -74 -23q-7 -3 -8 -12q-2 -15 -1.5 -85t2.5 -107q1 -55 18 -72q33 -26 78 -26q49 0 78 33q37 40 37 125q0 74 -33 119q-36 48 -97 48z" />
    <glyph glyph-name="c" unicode="c" horiz-adv-x="377" 
d="M362 68q-66 -80 -155 -80q-85 0 -133 65q-39 53 -39 131q0 116 96 172q67 40 126 40q45 0 73 -12q24 -12 29 -25q0 -9 -2 -12q-13 -27 -30 -35q-5 -2 -9 0q-49 52 -105 52q-51 0 -79.5 -41t-28.5 -98q0 -82 37 -127q41 -54 113 -54q64 0 107 46q3 0 3 -3q0 -15 -3 -19z
" />
    <glyph glyph-name="d" unicode="d" horiz-adv-x="464" 
d="M455 39q1 -3 0 -8.5t-2 -6.5q-16 -9 -62 -25.5t-60 -17.5q-6 0 -6 12q-2 16 -2 51q0 4 -4 2q-81 -58 -138 -58q-62 0 -102 51q-44 52 -44 138q0 45 18.5 87t50.5 70q33 27 81 44.5t91 17.5q6 0 46 -5q4 0 4 3q0 187 -2 213q-3 29 -22 34q-24 7 -47 9q-2 7 2 15
q92 0 148 23q3 -2 3 -8q-7 -13 -10 -90q-3 -83 -3 -294q0 -164 2 -218q1 -25 5 -32.5t13 -8.5q20 -1 40 2zM222 364q-47 0 -76 -30q-39 -40 -39 -123q0 -80 38 -126t95 -46q46 0 75 24q7 6 9 18q2 21 2.5 101t-0.5 111q-2 19 -6.5 29t-17.5 20q-31 22 -80 22z" />
    <glyph glyph-name="e" unicode="e" horiz-adv-x="386" 
d="M358 86q4 0 4 -3q2 -9 -2 -17q-72 -78 -156 -78q-74 0 -117 48q-52 56 -52 153q0 121 86 175q20 13 51 22.5t51 9.5q43 0 73.5 -25.5t42 -53t16.5 -57.5q2 -7 12 -8q3 -10 -4 -13q-53 -18 -255 -23q-6 0 -6 -11q2 -67 37 -110q41 -51 110 -51q65 0 109 42zM191 370
q-35 0 -59 -32.5t-27 -90.5q0 -6 3 -6q22 -2 88 0.5t81 6.5q6 3 6 8q-5 45 -28.5 79.5t-63.5 34.5z" />
    <glyph glyph-name="f" unicode="f" horiz-adv-x="231" 
d="M15 13q24 3 36 6q21 7 21 38q1 29 1.5 131.5t0.5 148.5q0 8 -4 8l-49 2q0 11 7 20q27 4 43 14q4 2 4 6q0 97 24.5 158.5t87.5 106.5q51 36 89 36q27 0 47.5 -11t27.5 -25v-8q-2 -7 -15 -25.5t-18 -22.5q-3 -3 -8 -1q-47 47 -88 47q-23 0 -42 -17q-15 -15 -23.5 -50.5
t-10.5 -68t-3 -84.5q0 -28 1 -34q0 -6 4 -6q80 2 96 3q-6 -20 -8 -41q-5 0 -42.5 1t-46.5 0q-4 0 -4 -8q0 -39 0.5 -103t0.5 -109t1 -66q1 -33 29 -39q23 -5 43 -7q1 -1 0 -8t-2 -8q-11 0 -46 1.5t-60 1.5q-12 0 -47.5 -1.5t-46.5 -1.5q-1 1 -1 7.5t1 8.5z" />
    <glyph glyph-name="g" unicode="g" horiz-adv-x="405" 
d="M209 396q37 0 79 -17q27 -10 58 -10q27 0 38.5 4t22.5 15q1 1 4 -1t3 -4q0 -6 -8 -24.5t-16 -24.5q-11 -8 -32 -8q-9 0 -25 1q-3 0 -1 -5q12 -26 12 -66q0 -84 -57 -127q-46 -36 -109 -42q-4 -1 -14 -1q-10 -2 -20 -9.5t-10 -18.5q0 -14 11.5 -22t24.5 -10q12 -2 49 -5
t68.5 -7t45.5 -8q73 -24 73 -99q0 -50 -32.5 -94t-85.5 -72q-51 -27 -109 -27q-65 0 -109 33q-50 36 -50 94q0 27 7 35q17 20 99 83q0 1 -1 3q-29 8 -48 28.5t-19 39.5q0 4 2 12q56 32 70 43q1 1 1 3t-2 2q-41 14 -66.5 51.5t-25.5 94.5q0 72 55 117q24 18 58 30.5t59 12.5z
M176 369q-34 0 -52.5 -30.5t-18.5 -78.5q0 -60 26.5 -102t74.5 -42q28 0 46 18q27 27 27 96q0 55 -25 97t-78 42zM221 -244q67 0 97.5 29.5t30.5 75.5q0 57 -52 76q-43 19 -122 19q-21 0 -36 -10q-57 -38 -57 -84q0 -44 36 -74q39 -32 103 -32z" />
    <glyph glyph-name="h" unicode="h" horiz-adv-x="463" 
d="M6 642q-1 2 -1 7t1 7q77 5 137 32q4 -2 4 -9q-8 -14 -9 -87q-1 -25 -1 -79.5t0.5 -113t0.5 -63.5q0 -3 4 -1q79 61 137 61q55 0 85 -40.5t30 -115.5q0 -149 1 -193q0 -12 7 -19q13 -10 51 -15q1 -3 0 -9t-3 -7q-3 0 -36 1.5t-59 1.5q-47 0 -89 -3q-2 1 -2 7.5t2 8.5
q36 6 39 8q10 5 13.5 14t4.5 40q3 163 -5 204q-6 27 -28 48.5t-64 21.5q-44 0 -76 -28q-12 -9 -12 -23q0 -207 2 -234q2 -23 7 -32t19 -13q14 -3 33 -6q2 -2 2 -7.5t-2 -7.5l-33 1q-33 1 -67 1q-25 0 -53 -1.5t-34 -1.5q-1 2 -1 8t2 8q26 4 33 6q20 6 21 47q2 24 2 171
q0 331 -5 375q-3 20 -20 25q-5 1 -38 5z" />
    <glyph glyph-name="i" unicode="i" horiz-adv-x="213" 
d="M146 538q0 -30 -21 -40q-4 -3 -18 -4.5t-20 1.5q-21 8 -21 36q-2 14 5 24q13 15 40 15q18 0 27 -9q8 -8 8 -23zM203 13q0 -15 -3 -16q-9 0 -42 1.5t-50 1.5q-24 0 -56 -1.5t-37 -1.5q-1 1 -1 8t1 8q27 2 39 8q17 7 18 41q2 25 2 160q0 74 -1 91q0 12 -6 20q-8 10 -40 19
q-1 2 -1 8t1 7q73 8 119 30q-2 -54 -2 -169q0 -125 1 -173q0 -27 21 -35q16 -5 37 -7z" />
    <glyph glyph-name="j" unicode="j" horiz-adv-x="212" 
d="M146 547q0 -27 -15 -42q-3 -3 -19 -6t-20 -1q-24 10 -25 38q0 17 4 22q17 17 44 17q19 0 25 -8q6 -6 6 -20zM150 397q-4 -89 -4 -350q-3 -65 -6 -94q-10 -77 -53.5 -141t-86.5 -90q-10 0 -15 7q-1 1 -1 2.5t1 2.5q50 36 70 90t20 159q0 313 -2 328q-2 21 -17 29
q-14 7 -41 10q-1 3 -1 9t1 8q79 4 135 30z" />
    <glyph glyph-name="k" unicode="k" horiz-adv-x="421" 
d="M227 366q-1 1 -0.5 8t1.5 8q105 0 167 9q2 -2 2.5 -8.5t-1.5 -8.5q-49 -10 -76 -37l-105 -107q-1 -1 -1 -2.5t1 -2.5q26 -40 79 -104.5t81 -86.5q17 -14 30.5 -17.5t37.5 -3.5q2 -1 1.5 -7.5t-2.5 -8.5q-10 -2 -92 -2q-33 1 -52 20q-14 12 -36 40.5t-49.5 65.5t-42.5 55
q-11 13 -33 14q0 -94 2 -128q1 -23 6.5 -31.5t21.5 -12.5q8 -2 34 -5q4 -8 -1 -16q-7 0 -40 1.5t-57 1.5q-23 0 -54.5 -1.5t-36.5 -1.5q-2 1 -2 8t2 8q27 4 35 7q19 8 20 35q2 30 2 157q0 366 -3 400q-2 23 -19 28q-10 3 -38 5q-2 2 -2 7.5t2 7.5q86 7 134 28q5 0 5 -6
q-8 -14 -9 -98q-2 -81 -2 -380q26 6 48 24q29 26 64.5 66.5t35.5 51.5q0 9 -15 13q-15 5 -43 7z" />
    <glyph glyph-name="l" unicode="l" horiz-adv-x="207" 
d="M10 -3q-1 3 -1.5 8.5t0.5 7.5q29 3 41 9q16 9 17 31q2 41 2 270q0 250 -4 279q-2 24 -14 28t-40 7q-2 2 -2 7t2 7q68 7 131 37q4 -2 4 -5q-9 -31 -9 -112v-239q0 -222 3 -264q2 -23 5.5 -32.5t14.5 -14.5q14 -6 40 -8q1 -2 0 -8.5t-2 -7.5q-3 0 -35.5 1.5t-57.5 1.5
q-23 0 -57.5 -1.5t-37.5 -1.5z" />
    <glyph glyph-name="m" unicode="m" horiz-adv-x="714" 
d="M16 13q24 3 37 8q17 5 19 45q3 76 3 225q0 22 -9 33q-10 12 -43 19q-1 2 0.5 8t3.5 7q28 2 61.5 14t54.5 25q3 0 3 -3t-0.5 -28.5t-0.5 -33.5q0 -1 1.5 -2.5t2.5 -0.5q83 67 134 67q69 0 100 -67q2 -5 6 -1q88 68 142 68q55 0 83.5 -39.5t29.5 -111.5q0 -25 0.5 -100
t1.5 -96q0 -16 7 -22q11 -10 51 -14q1 -3 0 -9t-3 -7q-7 0 -39 1.5t-55 1.5q-33 0 -90 -3q-1 1 -1 8t1 8q30 4 43 10q9 3 11 16.5t2 49.5q2 152 -4 180q-5 33 -26.5 55t-63.5 22q-43 0 -85 -36q-2 -2 -2 -9q4 -27 4 -69q0 -166 1 -186q2 -18 14 -23q16 -7 44 -10
q2 -2 1 -8.5t-3 -7.5q-13 0 -44 1.5t-52 1.5q-20 0 -51 -1.5t-38 -1.5q-2 1 -2 7.5t2 8.5q25 3 38 7q9 4 12 12t5 29q2 36 1.5 115.5t-4.5 99.5q-15 71 -86 71q-35 0 -70 -26q-19 -15 -19 -30q0 -185 1 -237q0 -28 20 -34q13 -4 38 -7q2 -1 1 -8t-3 -8q-10 0 -41.5 1.5
t-51.5 1.5q-29 0 -56.5 -1.5t-36.5 -1.5q-2 2 -2 8.5t2 7.5z" />
    <glyph glyph-name="n" unicode="n" horiz-adv-x="468" 
d="M18 13q22 2 35 7q17 6 19 40q2 23 2 162q0 79 -2 93q-2 10 -10.5 16t-36.5 14q-1 2 0 7.5t3 6.5q70 9 117 38q3 0 3 -4q-1 -13 -4 -59q0 -2 1 -3.5t3 -0.5q82 66 138 66q57 0 89 -51q24 -37 24 -114q0 -144 1 -184q0 -19 13 -23q18 -8 43 -11q1 -3 0 -9t-3 -7
q-3 0 -30 1.5t-57 1.5q-35 0 -98 -3q-2 1 -2 8t2 8q30 3 38 6q19 6 21 31q2 31 1.5 109.5t-3.5 101.5q-8 45 -29 64q-22 22 -61 22q-45 0 -81 -33q-10 -10 -10 -36q0 -172 2 -216q1 -34 18 -40q12 -5 42 -9q1 -2 0.5 -8t-1.5 -8q-4 0 -35 1.5t-61 1.5q-34 0 -61 -1.5
t-30 -1.5q-2 1 -2 7.5t2 8.5z" />
    <glyph glyph-name="o" unicode="o" horiz-adv-x="462" 
d="M245 396q85 0 133.5 -55t48.5 -140q0 -55 -23.5 -102.5t-67.5 -75.5q-51 -35 -109 -35q-67 0 -111.5 32t-62 77t-17.5 99q0 105 85 162q55 38 124 38zM213 369q-32 0 -50 -15q-50 -34 -50 -135q0 -89 38.5 -146t99.5 -57q38 0 61 22q38 39 38 132q0 87 -36.5 143
t-100.5 56z" />
    <glyph glyph-name="p" unicode="p" horiz-adv-x="458" 
d="M11 343q-2 1 -1 7.5t3 7.5q27 5 64 20t57 30q1 1 4 -2t2 -5q-2 -20 -2 -67q0 -1 4 -1q91 63 141 63q56 0 95 -44q44 -50 44 -126q0 -109 -84 -178q-33 -27 -78 -43.5t-80 -16.5q-16 0 -40 7q-3 -2 -3 -5q0 -134 3 -189q1 -21 7 -28.5t24 -10.5q6 -1 49 -5q2 -2 1 -9
t-3 -8h-46q-37 0 -70.5 -2.5t-60.5 -5.5t-37 -4q-2 2 -2 8.5t2 8.5q31 8 40 11q22 9 23 44q2 40 2 262q0 215 -2 237q-2 25 -12 32q-12 9 -44 12zM230 347q-43 0 -81 -30q-12 -7 -12 -21q-1 -16 -1 -96t1 -99q1 -40 25 -57q25 -19 71 -19q40 0 73 28q45 40 45 133
q0 77 -36 121q-34 40 -85 40z" />
    <glyph glyph-name="q" unicode="q" horiz-adv-x="459" 
d="M467 -258q-59 0 -79 -1q-42 -2 -87.5 -7t-52.5 -5q-5 10 -1 16q16 2 45 10q14 5 20 15.5t7 34.5q4 82 4 225q0 1 -1.5 2t-2.5 0q-26 -17 -64.5 -30.5t-62.5 -13.5q-66 0 -111.5 55t-45.5 142q0 97 80 158q77 53 177 53q55 0 113 -18q-7 -14 -10 -46q-3 -41 -3 -152
q0 -320 4 -369q2 -25 7 -34.5t21 -12.5q15 -3 45 -6q0 -14 -2 -16zM220 363q-49 0 -80.5 -40t-31.5 -109q0 -84 44 -131.5t107 -47.5q33 0 58 15q6 3 6 11q0 233 -5 259q0 15 -9 22q-26 21 -89 21z" />
    <glyph glyph-name="r" unicode="r" horiz-adv-x="299" 
d="M257 396q29 0 42 -21q1 -1 1 -6.5t-1 -8.5q-1 -8 -11.5 -26.5t-18.5 -27.5q-7 -3 -8 -3q-25 27 -58 27q-26 0 -51 -41q-9 -18 -9 -40q0 -164 3 -194q1 -27 19 -34q24 -6 52 -8q2 -2 1 -8.5t-3 -7.5q-4 0 -41.5 1.5t-59.5 1.5q-45 0 -96 -3q-2 1 -2 7.5t2 8.5q21 2 37 7
q15 7 16 28q4 23 4 178q0 71 -2 84q-3 27 -49 38q0 12 3 13q65 7 113 36q4 0 4 -3q-1 -18 -1 -83q0 -1 1.5 -1.5t2.5 0.5q31 42 59 65q26 21 51 21z" />
    <glyph glyph-name="s" unicode="s" horiz-adv-x="320" 
d="M274 387q-8 -35 -11 -97q-1 -2 -8 -2.5t-8 1.5q-7 65 -36 78q-20 10 -44 10q-26 0 -44 -16t-18 -45q0 -28 16 -47.5t68 -45.5q58 -30 78.5 -55.5t20.5 -61.5q0 -51 -41.5 -84.5t-103.5 -33.5q-54 0 -99 19q-12 44 -12 104q1 2 7 3.5t9 0.5q15 -73 61 -96q21 -11 45 -11
q30 0 49.5 17t19.5 44t-15.5 45.5t-56.5 41.5q-61 32 -83.5 60.5t-22.5 67.5q0 47 36 79.5t100 32.5q30 0 57 -5q26 -4 36 -4z" />
    <glyph glyph-name="t" unicode="t" horiz-adv-x="263" 
d="M243 344q-15 0 -50 0.5t-50 0.5q-5 0 -5 -6v-210q1 -48 7 -60q12 -35 53 -35q31 0 55 16q1 -1 0 -7.5t-2 -9.5q-33 -44 -92 -44q-58 0 -78 42q-13 26 -13 114q0 28 0.5 101t0.5 91q0 6 -4 7q-2 1 -50 4l8 24q40 7 43 8q3 2 3 6v79q14 6 35.5 23.5t27.5 26.5q3 1 12 -2
q-6 -28 -6 -125q0 -6 5 -6q84 0 108 4q-6 -24 -8 -42z" />
    <glyph glyph-name="u" unicode="u" horiz-adv-x="455" 
d="M8 360q-1 2 0.5 8.5t2.5 7.5q79 0 131 16q-5 -27 -5 -187q0 -86 5 -106q15 -61 82 -61q42 0 78 29q10 7 12 28q1 16 1 101.5t-2 125.5q-2 24 -19 29q-11 3 -63 9q-2 1 -1 8t3 8q93 0 155 15q-4 -25 -4 -106l1 -198q0 -30 6 -39.5t22 -9.5q5 0 31 2q0 -16 -2 -17
q-68 -19 -122 -40q-6 0 -6 8v57q0 2 -2 3t-4 0q-72 -63 -129 -63q-113 0 -113 133q0 173 -1 196q-2 30 -14 35q-8 4 -43 8z" />
    <glyph glyph-name="v" unicode="v" horiz-adv-x="386" 
d="M-11 370q-2 2 -1.5 8t2.5 7q8 0 40.5 -1.5t48.5 -1.5q34 0 88 3q2 -1 2 -7t-1 -8q-29 -5 -38 -9q-5 -3 -5 -14q8 -28 46 -128.5t47 -120.5h4q50 121 78 215q7 28 5.5 35.5t-11.5 10.5q-18 8 -45 11q-1 3 0 8.5t3 6.5q3 0 33.5 -1.5t49.5 -1.5q40 0 73 3q2 -1 2 -7t-2 -8
q-31 -6 -33 -7q-23 -8 -35 -37q-36 -76 -99 -245q-18 -47 -30 -86q-24 0 -31 -2q-5 18 -26 77l-78 208q-20 53 -28 65.5t-26 19.5q-8 2 -33 7z" />
    <glyph glyph-name="w" unicode="w" horiz-adv-x="593" 
d="M-13 370q-1 2 -0.5 7.5t1.5 7.5q3 0 31.5 -1.5t63.5 -1.5q33 0 87 3q1 -1 1.5 -7.5t-0.5 -7.5q-5 -1 -16.5 -3.5t-14.5 -3.5q-15 -4 -12 -19q5 -21 36 -120.5t40 -124.5q3 0 3 1q20 47 54.5 137.5t43.5 125.5q13 -2 35 1q2 -8 24 -73q69 -185 74 -195h4q12 27 40 111
t37 121q5 27 -18 33q-22 6 -43 9q-1 3 0 8.5t3 6.5q3 0 32 -1.5t55 -1.5q8 0 71 3q1 -1 1 -7t-1 -8q-2 -1 -8.5 -2t-11.5 -3q-21 -5 -29 -13.5t-18 -32.5q-18 -43 -61 -160.5t-58 -163.5q-17 2 -33 -2q-14 44 -51 141.5t-50 126.5q-2 2 -4 0q-1 -3 -46 -118t-56 -148
q-19 2 -33 -1q-40 157 -96 305q-13 37 -21.5 49t-25.5 17z" />
    <glyph glyph-name="x" unicode="x" horiz-adv-x="367" 
d="M-17 13q42 6 57 15.5t38 39.5q16 22 77 111v6l-69 121q-25 41 -38.5 50t-53.5 13q-1 2 -0.5 8.5t2.5 7.5q7 0 37.5 -1.5t60.5 -1.5q25 0 53 1.5t30 1.5q1 -1 1.5 -7.5t-0.5 -8.5q-26 -5 -30 -6q-11 -4 -6 -16q13 -31 59 -108q2 -4 4 0q45 63 60 99q8 17 -9 23
q-13 5 -37 8q-2 2 -2 8t2 8q7 0 36.5 -1.5t37.5 -1.5q38 0 80 3q2 -1 2.5 -7.5t-1.5 -8.5q-39 -7 -53.5 -15.5t-35.5 -39.5q-14 -19 -65 -95q-2 -2 -1 -7q49 -87 66 -116q33 -55 49.5 -67t56.5 -16q1 -2 1 -8t-2 -8q-3 0 -38 1.5t-61 1.5q-25 0 -55.5 -1.5t-36.5 -1.5
q-4 11 0 16q26 5 33 8q10 5 5 16q-14 34 -66 119q-2 4 -4 0q-55 -82 -66 -109q-9 -18 8 -25q19 -6 45 -9q1 -2 0 -8.5t-2 -7.5q-3 0 -38 2t-51 1l-80 -3q-1 1 -1 7.5t1 8.5z" />
    <glyph glyph-name="y" unicode="y" horiz-adv-x="394" 
d="M-9 370q-1 2 -0.5 8t2.5 7q3 0 30 -1.5t59 -1.5q24 0 54.5 1.5t32.5 1.5q2 -2 2 -7.5t-1 -7.5q-27 -6 -33 -8q-10 -5 -7 -15q7 -25 48 -133.5t49 -124.5h2q72 160 85 242q4 24 -19 31l-40 8q-1 2 -0.5 8t2.5 7q4 0 33.5 -1.5t47.5 -1.5q5 0 77 3q2 -1 2 -7t-2 -8
q-25 -5 -31 -8q-23 -8 -36 -41q-107 -292 -240 -532l-35 -56l-5 -2q-28 7 -38 24q-3 6 -1 10q109 136 156 238q-6 14 -8 18q-52 141 -98 254q-20 50 -29.5 66t-25.5 21q-14 5 -33 8z" />
    <glyph glyph-name="z" unicode="z" horiz-adv-x="351" 
d="M318 385q2 0 2 -10q-92 -169 -197 -341q-2 -7 3 -7q34 -6 131 -6q34 0 72 90q5 3 17 3l2 -2q-8 -35 -33 -100q-7 -17 -20 -17q-32 0 -137.5 3t-125.5 2q-4 2 -4 12q140 218 204 342q2 5 -1 5q-108 0 -127 -3q-15 -1 -23 -5t-20 -22t-26 -54q-3 -1 -10 0.5t-8 4.5
q15 58 24 111q23 -9 68 -9h135q47 0 74 3z" />
    <glyph glyph-name="braceleft" unicode="{" horiz-adv-x="377" 
d="M44 285q53 1 77.5 22.5t25.5 57t-2 81.5q0 7 -3.5 47t-3.5 47q0 99 47.5 147.5t138.5 57.5q3 -1 3 -16q-76 -11 -105.5 -49t-29.5 -102q0 -23 6 -82t6 -85q0 -111 -108 -134v-3q39 -4 64.5 -18t35.5 -36.5t13 -39t3 -39.5q0 -31 -6 -91t-6 -83q0 -66 35 -97t101 -38
q1 -2 -0.5 -9t-2.5 -8q-83 2 -135 41.5t-52 115.5q0 23 6 99q4 54 5.5 93.5t-25.5 66t-93 35.5q-1 2 1 10t4 9z" />
    <glyph glyph-name="bar" unicode="|" horiz-adv-x="250" 
d="M100 710h51v-1020h-51v1020z" />
    <glyph glyph-name="braceright" unicode="}" horiz-adv-x="378" 
d="M333 264q-53 -1 -78.5 -23t-26 -57t3.5 -81q7 -63 7 -81q0 -99 -47 -149t-137 -59q-3 1 -5 7.5t0 8.5q76 12 105.5 48.5t29.5 100.5q0 23 -6 78t-6 81q0 22 2.5 36.5t11.5 36t32.5 37t60.5 25.5v3q-31 3 -53.5 14t-34 24t-18 31.5t-8 32t-1.5 30.5q0 32 6 98t6 88
q0 66 -35.5 97.5t-100.5 37.5q-1 1 1 8t3 8q82 -3 134 -42.5t52 -115.5q0 -35 -6 -99q-9 -94 -3 -123q14 -62 94 -78q11 -3 23 -4q0 -16 -6 -19z" />
    <glyph glyph-name="asciitilde" unicode="~" horiz-adv-x="460" 
d="M169 270q28 0 83 -26q44 -21 67 -21q53 0 100 53l5 -1l1 -1q0 -14 -6 -24q-14 -25 -49.5 -49t-74.5 -24q-26 0 -84 30q-39 18 -68 18q-21 0 -53 -19.5t-48 -36.5q-1 -1 -3 1t-2 3q0 14 9 27q18 23 57.5 46.5t65.5 23.5z" />
    <glyph glyph-name="uni00A0" unicode="&#xa0;" horiz-adv-x="158" 
 />
    <glyph glyph-name="exclamdown" unicode="&#xa1;" horiz-adv-x="239" 
d="M90 -219q-19 0 -20 7q0 9 4.5 65.5t13 159.5t14.5 196q1 2 9.5 0.5t9.5 -3.5q5 -67 14.5 -160t16.5 -156t7 -77q0 -6 -4 -14t-9 -9q-30 -12 -56 -9zM110 307q-20 0 -31 11q-15 15 -15 38q0 19 12 32q14 14 36 14q18 0 31 -12q13 -16 13 -36q0 -18 -14 -34
q-13 -13 -32 -13z" />
    <glyph glyph-name="cent" unicode="&#xa2;" horiz-adv-x="450" 
d="M227 133l31 306q-2 4 -4 4q-55 -1 -89 -42.5t-34 -103.5q0 -124 96 -164zM59 265q0 53 26 98t76 73q43 24 101 32l7 71q17 5 24 5l-8 -73q47 0 79 -12q26 -10 32 -25q1 -4 -2 -14q-10 -16 -24 -24q-3 -2 -6 0q-41 38 -79 44q-4 0 -4 -4l-31 -309q9 -3 27 -3q70 2 117 50
q5 -5 5 -17q-64 -72 -151 -82q-2 0 -4 -4l-7 -73q-2 -1 -12 -2.5t-11 -0.5l8 76q-1 5 -4 5q-73 8 -120 63q-39 50 -39 126z" />
    <glyph glyph-name="sterling" unicode="&#xa3;" horiz-adv-x="450" 
d="M287 -25q-34 0 -105 26q-57 21 -83 21q-30 0 -67 -38q-6 0 -8 5q0 5 5 23.5t8 21.5q15 15 41 29q39 23 31 205q-64 0 -71 2q-3 2 -1 6q4 15 14 23q20 -2 58 -2q2 154 48 216q25 33 58 54.5t53 28t30 6.5q25 0 44.5 -6.5t27.5 -13.5t8 -12q-1 -8 -7 -24.5t-12 -23.5
q-1 -1 -4 -1.5t-4 0.5q-44 44 -89 44q-32 0 -50 -31q-15 -30 -19 -78.5t-5 -153.5q0 -5 4 -5q94 0 134 3q1 -1 0.5 -4.5t-1.5 -4.5q-14 -16 -36 -20q-24 -4 -99 -4q-4 0 -4 -4q-13 -130 -74 -192q34 6 107 -9q65 -17 93 -17q42 0 62 15.5t43 76.5q1 1 2.5 1t2.5 -1
q5 -5 7 -17q-23 -73 -66.5 -109t-75.5 -36z" />
    <glyph glyph-name="currency" unicode="&#xa4;" horiz-adv-x="450" 
d="M246 441q34 0 80 -26q3 -3 6 0q39 43 47 48q14 7 36 7q4 -2 2 -6q-44 -49 -65 -76q29 -43 29 -95q0 -55 -36 -105q-3 -4 0 -9q53 -58 66 -69q1 -1 -0.5 -4t-2.5 -4q-35 -7 -45 0q-21 17 -54 52q-42 -34 -93 -34q-50 0 -90 34q-36 -34 -58 -62q-1 -1 -3.5 -1t-3.5 1
q-2 5 -2.5 19.5t2.5 19.5q8 13 42 49v6q-22 37 -22 83q0 61 31 103q-42 49 -46 54q-3 3 -3 10q0 4 6 18.5t10 19.5q4 4 8 0q41 -51 55 -66q3 -1 8 0q46 33 96 33zM222 407q-46 0 -69.5 -33t-23.5 -83q0 -65 32.5 -98.5t80.5 -33.5q90 0 90 113q0 56 -31 95.5t-79 39.5z" />
    <glyph glyph-name="yen" unicode="&#xa5;" horiz-adv-x="450" 
d="M264 180q-3 0 -3 -4q0 -17 0.5 -52.5t0.5 -43.5q1 -33 6 -45t27 -16q11 -2 44 -6q1 -2 0 -8.5t-2 -7.5q-11 0 -51 1.5t-67 1.5t-58.5 -1.5t-47.5 -1.5q-2 2 -2 8t2 8q30 3 45 6q13 2 19.5 12t7.5 19.5t2 28.5q1 18 1 96q0 5 -5 5q-21 0 -47 -0.5t-37 -0.5q2 20 6 25h12
t26 -0.5t42 -0.5q3 0 3 4v57q0 5 -4 5q-15 0 -43.5 -0.5t-36.5 -0.5q2 19 6 24q2 0 29 -0.5t43 -0.5q1 0 2 2.5t0 3.5q-23 57 -88 192q-25 53 -34.5 64.5t-29.5 17.5q-10 3 -33 5q-1 2 -1 8t2 8q4 0 35 -1.5t61 -1.5q53 0 89 3q2 -2 2 -8t-1 -8q-17 -2 -28 -6
q-11 -3 -11 -10.5t7 -24.5q62 -145 95 -208q0 -1 2 -1t2 1q49 102 88 200q8 20 3.5 29.5t-22.5 14.5l-33 5q-1 2 -0.5 8.5t1.5 7.5q78 -3 79 -3q27 0 81 3q1 -2 1 -8t-1 -8q-22 -2 -31 -5q-33 -9 -56 -59q-89 -189 -100 -216q-3 -5 3 -5q18 0 37.5 0.5t32.5 0.5h15
q0 -13 -4 -23h-83q-4 0 -4 -4v-58q0 -4 3 -4q9 0 45 0.5t38 0.5q0 -12 -4 -24h-78z" />
    <glyph glyph-name="brokenbar" unicode="&#xa6;" horiz-adv-x="251" 
d="M99 631h52v-348h-52v348zM99 127h52v-355h-52v355z" />
    <glyph glyph-name="section" unicode="&#xa7;" horiz-adv-x="412" 
d="M212 503q-16 0 -18 -26q0 -25 20 -67q23 -48 89 -156q55 -83 55 -154q0 -55 -30 -113q-26 -48 -72 -82t-81 -34q-60 0 -105 43q-12 14 -12 25q0 16 15 40q1 1 5 1q27 -33 63 -51t53 -18q14 0 14 25q0 29 -23 62q-14 24 -66 108q-75 117 -75 199q0 96 64 169
q20 26 55 46.5t63 20.5q58 0 92 -41q10 -11 10 -24q0 -12 -17 -31l-4 -1q-18 16 -50 37.5t-45 21.5zM233 -85q36 16 58.5 53t22.5 75q0 51 -17 94t-51 99q-3 5 -17 28t-19.5 33t-17 31.5t-16.5 35.5t-10 33t-6 35q-3 32 11 67q-33 -10 -59 -51t-26 -89q0 -83 64 -192
q5 -7 21 -32t25.5 -41.5t22 -39.5t18.5 -43t6 -36q3 -36 -10 -60z" />
    <glyph glyph-name="dieresis" unicode="&#xa8;" horiz-adv-x="400" 
d="M161 537q0 -28 -19 -37q-4 -2 -16.5 -3t-16.5 1q-20 8 -20 32q0 15 4 23q14 14 37 14q18 0 24 -9q7 -7 7 -21zM309 537q0 -28 -19 -37q-4 -2 -16.5 -3t-16.5 1q-20 8 -20 32q0 15 4 23q14 14 37 14q18 0 24 -9q7 -7 7 -21z" />
    <glyph glyph-name="copyright" unicode="&#xa9;" horiz-adv-x="716" 
d="M358 619q131 0 219.5 -89.5t88.5 -219.5t-90 -220.5t-218 -90.5q-129 0 -218.5 89t-89.5 222q0 129 90 219t218 90zM358 599q-117 0 -199.5 -84.5t-82.5 -204.5q0 -118 83 -203.5t200 -85.5t198.5 83t81.5 206q0 120 -82.5 204.5t-198.5 84.5zM378 478q-62 0 -94 -45.5
t-32 -116.5q0 -65 35 -116t105 -51q24 0 52.5 17.5t52.5 50.5q6 0 10 -8q-5 -18 -23.5 -43t-25.5 -30q-36 -10 -71 -10q-95 0 -150.5 50.5t-55.5 135.5q0 74 53.5 128.5t153.5 54.5q25 0 65 -5q36 -5 49 -4q-7 -46 -9 -93q-2 -1 -8 -1t-7 1q-4 29 -10 43t-20 24
q-25 18 -70 18z" />
    <glyph glyph-name="ordfeminine" unicode="&#xaa;" horiz-adv-x="244" 
d="M243 264q0 -11 -3 -17q-18 -21 -55 -21q-22 0 -32 17q-1 2 -5 16q0 1 -1 1.5t-2 -0.5q-53 -34 -69 -34q-19 0 -33 14q-22 22 -22 55q0 16 8 30q9 6 58.5 21.5t59.5 21.5q4 4 4 6q1 8 1 27q0 21 -11 37q-16 23 -48 23q-15 0 -25 -6q-11 -6 -28 -41q-1 -1 -6 3t-5 5
q0 4 4.5 16.5t6.5 13.5q20 17 44.5 28t38.5 11q41 0 63 -34q13 -22 13 -63q0 -16 -1.5 -54.5t-1.5 -50.5q0 -28 23 -28q16 0 24 3zM150 353q0 2 -2 2q-64 -24 -73 -32q-6 -6 -6 -19q0 -42 44 -42q13 0 28 10q6 6 7 14q2 21 2 67z" />
    <glyph glyph-name="guillemotleft" unicode="&#xab;" horiz-adv-x="565" 
d="M139 186q24 -13 79 -54.5t78 -64.5q1 -1 2 -8.5t0 -11.5q0 -3 -3 -3q-21 20 -104 70.5t-127 66.5q0 7 4 11q65 28 141 73.5t99 63.5q2 -2 2 -3q0 -12 -7 -19q-17 -18 -71 -56t-93 -61v-4zM318 186q25 -14 84 -57.5t83 -66.5q4 -7 2 -21q-2 -2 -3 -2q-20 19 -108.5 72
t-132.5 70q0 6 5 11q71 30 148 76.5t102 66.5q1 0 3 -4q0 -1 -2 -5t-3.5 -8t-2.5 -5q-19 -19 -76.5 -58.5t-98.5 -64.5q-1 -1 0 -4z" />
    <glyph glyph-name="logicalnot" unicode="&#xac;" horiz-adv-x="460" 
d="M73 265q-30 0 -30 4q7 30 15 41q13 -3 160 -3h67.5t51 0.5t33.5 0.5h21.5h8.5q5 0 5 -6q0 -5 -0.5 -67t-0.5 -93q0 -55 2 -77q-29 -9 -40 -9q-1 0 -3.5 2.5t-2.5 3.5v181q0 22 -11 22h-276z" />
    <glyph glyph-name="uni00AD" unicode="&#xad;" horiz-adv-x="255" 
d="M42 220q40 0 180 5v-4l1 -3q-3 -35 -12 -37q-6 -1 -82 -3.5t-96 -2.5q-1 6 -1 7q0 8 3.5 23t6.5 15z" />
    <glyph glyph-name="registered" unicode="&#xae;" horiz-adv-x="244" 
d="M122 596q42 0 70 -28t28 -71q0 -42 -28.5 -70.5t-69.5 -28.5t-69.5 28.5t-28.5 70.5q0 41 29 70t69 29zM122 584q-35 0 -59 -25.5t-24 -61.5t24.5 -62t58.5 -26q36 0 59.5 24.5t23.5 63.5q0 36 -24 61.5t-59 25.5zM75 451q-1 4 0 6q7 1 10.5 2t4.5 2.5t1 5.5v66
q0 5 -2.5 6.5t-12.5 2.5q-1 1 -0.5 4t1.5 3q3 0 10.5 -0.5t11.5 -0.5h32q29 0 29 -24q0 -18 -22 -25q13 -21 24 -34q8 -8 19 -9q1 -1 0 -3t-2 -3q-9 -2 -27 2q-8 2 -11 8q-14 21 -18 29q-5 6 -12 6v-27q0 -6 2.5 -7.5t12.5 -3.5q2 -2 0 -6q-2 0 -11.5 0.5t-14.5 0.5
t-14.5 -0.5t-10.5 -0.5zM111 501q15 0 21 3q7 4 7 15q0 22 -23 22q-5 0 -5 -5v-35z" />
    <glyph glyph-name="macron" unicode="&#xaf;" horiz-adv-x="400" 
d="M114 537q8 -2 41 -2h142q0 -8 -5 -21.5t-7 -14.5q-12 -3 -156 -3q-19 0 -27 2q0 4 12 39z" />
    <glyph glyph-name="degree" unicode="&#xb0;" horiz-adv-x="260" 
d="M129 585q48 0 74.5 -30t26.5 -77q0 -44 -31 -73.5t-73 -29.5q-44 0 -74 28t-30 73q0 52 30.5 80.5t76.5 28.5zM124 550q-29 0 -48.5 -20t-19.5 -47q0 -36 21 -54t51 -18q69 0 69 66q0 29 -20 51t-53 22z" />
    <glyph glyph-name="plusminus" unicode="&#xb1;" horiz-adv-x="460" 
d="M411 31l-373 -3q-2 0 -2 7q5 24 10 37q4 -1 97 -1l280 -1q2 -2 2 -6q-8 -32 -14 -33zM424 317q-6 -32 -14 -33h-31t-66.5 -0.5t-62.5 -0.5q-4 0 -4 -5v-59t-0.5 -65.5t-0.5 -29.5q-2 -10 -32 -17q-7 1 -7 2v22.5v43v53.5v55q-60 -1 -168 -1q-2 2 -2 8q3 21 10 36
q5 -2 98 -2h62v64q0 69 -2 93q25 11 39 11q4 0 4 -30q0 -9 -0.5 -57.5t-0.5 -74.5q0 -6 4 -6h171q3 -3 3 -7z" />
    <glyph glyph-name="two.k" unicode="&#xb2;" horiz-adv-x="307" 
d="M107 704q-44 0 -81 -42q-1 0 -5 4t-4 6q20 31 52.5 55t67.5 24q44 0 72 -30t28 -77q0 -63 -70 -133q-15 -16 -26 -27t-24 -23.5t-23 -22.5q-1 -1 -0.5 -2t1.5 -1q55 -6 131 -3q26 3 47 53q3 1 7.5 -1t5.5 -4q-2 -16 -13 -48t-18 -41q-4 -10 -28 -10q-25 0 -82 1.5
t-85 1.5q-32 0 -39 -1q-1 1 -2 5.5t0 6.5q65 55 91 85q8 8 17 19q52 60 52 124q0 33 -18.5 57t-53.5 24z" />
    <glyph glyph-name="three.k" unicode="&#xb3;" horiz-adv-x="303" 
d="M150 752q35 0 59.5 -23t24.5 -57q0 -52 -57 -85q-1 -1 0 -3q93 -25 93 -96q0 -59 -61 -99q-42 -30 -101 -30q-34 0 -55 10q-14 6 -21 22q-8 20 -8 49q1 2 5.5 3.5t5.5 0.5q14 -35 33 -47q25 -18 63 -18q33 0 56 20.5t23 61.5q0 39 -22.5 64.5t-67.5 25.5q-10 0 -24 -3
q-1 2 2.5 9.5t5.5 9.5q79 17 79 79q0 26 -18 45t-47 19q-38 0 -72 -34q-2 0 -5 4t-2 6q20 27 50 46.5t61 19.5z" />
    <glyph glyph-name="acute" unicode="&#xb4;" horiz-adv-x="400" 
d="M239 580q8 3 31.5 5t28.5 0q1 -1 2 -3.5t0 -3.5q-19 -30 -113 -147q-8 0 -12 8q44 105 63 141z" />
    <glyph glyph-name="mu" unicode="&#xb5;" horiz-adv-x="432" 
d="M65 372q4 5 27 13.5t37 9.5q8 0 11 -2q-7 -217 -7 -267q0 -22 5 -34q13 -35 49 -35q32 0 57 20.5t48 79.5q7 17 7 36q0 140 -1 181q6 6 27.5 13t34.5 8q2 -1 6.5 -1.5t6.5 -1.5q-12 -136 -12 -196v-58q0 -80 26 -80q23 0 47 19q4 -2 2 -15q-13 -33 -41 -53.5t-52 -20.5
q-14 0 -23 8.5t-15 39.5t-6 84h-3q-33 -63 -71.5 -97.5t-61.5 -34.5q-42 0 -57 35q-6 -83 -2 -142q4 -53 30.5 -78.5t75.5 -32.5q2 -7 -3 -14q-8 -9 -36 -21t-47 -12q-21 0 -33.5 26t-15.5 100q-4 118 -6 262z" />
    <glyph glyph-name="paragraph" unicode="&#xb6;" horiz-adv-x="535" 
d="M489 587q-55 -7 -59 -8q-17 -5 -23 -12.5t-10 -47t-3 -129.5v-160.5t1 -159.5q0 -69 -12.5 -122.5t-30.5 -82t-41.5 -46.5t-41.5 -23.5t-34 -5.5q-50 0 -66 35q-11 24 -9 51q1 3 6 8q42 -42 102 -42q57 0 75 64t16 238q-46 -20 -82 -21q-109 13 -170 80.5t-61 165.5
q0 51 20.5 92.5t54 67.5t71.5 41t78 20q48 6 126.5 10.5t92.5 6.5q6 -8 0 -20zM253 363q0 -51 9.5 -92t33.5 -72t62 -37q-5 102 -5 294q0 90 11 112q-55 -6 -83 -53t-28 -152z" />
    <glyph glyph-name="periodcentered" unicode="&#xb7;" horiz-adv-x="178" 
d="M89 237q17 0 31 -12q16 -15 16 -39q0 -19 -14 -33t-34 -14q-19 0 -32 13q-14 14 -14 35q0 19 15 36q16 14 32 14z" />
    <glyph glyph-name="cedilla" unicode="&#xb8;" horiz-adv-x="397" 
d="M216 3h19l-28 -38q24 -14 40 -28q21 -19 21 -42q0 -34 -34 -58.5t-59 -24.5q-32 0 -47 26q-2 9 3 14q29 -15 58 -15q17 0 27 9t10 22q0 33 -64 59q-1 5 0 8q1 2 24 31t30 37z" />
    <glyph glyph-name="one.k" unicode="&#xb9;" horiz-adv-x="298" 
d="M235 395q1 -1 0.5 -7t-2.5 -7q-10 0 -39.5 1t-50.5 1q-19 0 -46.5 -1.5t-38.5 -1.5q-1 2 -1 7.5t1 7.5q20 2 33 4q13 3 17.5 11t6.5 27q2 64 2 130q0 109 -2 120q-2 17 -14 20q-10 2 -35 4q-4 4 1 13q68 6 104 27q6 0 6 -1q-3 -34 -3 -157q0 -105 2 -153q2 -20 6 -27.5
t15 -11.5q6 -2 38 -6z" />
    <glyph glyph-name="ordmasculine" unicode="&#xba;" horiz-adv-x="308" 
d="M163 491q56 0 88.5 -36.5t32.5 -91.5q0 -78 -58 -114q-33 -23 -75 -23q-64 0 -96 38.5t-32 95.5q0 69 54 106q41 25 86 25zM142 473q-28 0 -46 -24t-18 -73q0 -58 24 -94t64 -36q65 0 65 97q0 57 -23.5 93.5t-65.5 36.5z" />
    <glyph glyph-name="guillemotright" unicode="&#xbb;" horiz-adv-x="563" 
d="M424 188q-24 13 -79 54.5t-78 63.5l-1 5v9v7q0 2 2 2q20 -19 105 -70t126 -67q0 -5 -4 -11q-65 -26 -139 -71t-101 -66q-1 0 -1 1l-1 2q4 16 7 19q19 19 73 57.5t91 60.5q3 3 0 4zM246 188q-26 14 -85.5 57.5t-82.5 66.5q-1 3 -1.5 10.5t0.5 10.5q0 2 2 2
q21 -19 109.5 -72.5t131.5 -70.5q0 -6 -5 -11q-68 -29 -147 -76t-103 -66q-3 0 -3 4l4 9q3 8 4 9q48 43 176 123q2 2 0 4z" />
    <glyph glyph-name="onequarter" unicode="&#xbc;" horiz-adv-x="701" 
d="M647 93q-4 0 -28 0.5t-39 0.5q-2 0 -2 -3l1 -117q-24 0 -57 -7l2 123q0 3 -3 3h-70q-29 0 -57 -1h-28q0 9 4 21q27 34 95 123.5t85 113.5q4 4 27 4q0 -209 1 -225q0 -2 1 -2q17 0 45 0.5t29 0.5q-6 -16 -6 -35zM231 247q1 -1 0.5 -7t-2.5 -7q-10 0 -39.5 1t-50.5 1
q-19 0 -46.5 -1.5t-38.5 -1.5q-1 2 -1 7.5t1 7.5q20 2 33 4q13 3 17.5 11t6.5 27q2 64 2 130q0 109 -2 120q-2 17 -14 20q-10 2 -35 4q-4 4 1 13q68 6 104 27q6 0 6 -1q-3 -35 -3 -157q0 -105 2 -153q2 -20 6 -27.5t15 -11.5q6 -2 38 -6zM528 630q0 1 9.5 0.5t12.5 -1.5v-3
q-7 -10 -196 -337t-203 -349q-1 0 -3 -0.5l-2 -0.5q-11 13 -10 16q4 9 196 340t196 335zM408 126q4 0 45 -0.5t68 -0.5l3 3l1 157l-2 1q-12 -14 -59 -78t-56 -79v-3z" />
    <glyph glyph-name="onehalf" unicode="&#xbd;" horiz-adv-x="701" 
d="M227 247q1 -1 0.5 -7t-2.5 -7q-10 0 -39.5 1t-50.5 1q-19 0 -46.5 -1.5t-38.5 -1.5q-1 2 -1 7.5t1 7.5q20 2 33 4q13 3 17.5 11t6.5 27q2 64 2 130q0 109 -2 120q-2 17 -14 20q-10 2 -35 4q-4 4 1 13q68 6 104 27q6 0 6 -1q-3 -35 -3 -157q0 -105 2 -153q2 -20 6 -27.5
t15 -11.5q6 -2 38 -6zM516 630q0 1 9.5 0.5t12.5 -1.5v-3q-7 -10 -196 -337t-203 -349q-1 0 -3 -0.5l-2 -0.5q-11 13 -10 16q4 9 196 340t196 335zM485 309q-44 0 -81 -42q-1 0 -5 4t-4 6q20 31 52.5 55t67.5 24q44 0 72 -30t28 -77q0 -63 -70 -133l-73 -73q-1 -1 -0.5 -2
t1.5 -1q55 -6 131 -3q26 3 47 53q3 1 7.5 -1t5.5 -4q-2 -16 -13 -48t-18 -41q-4 -10 -28 -10q-25 0 -82 1.5t-85 1.5q-32 0 -39 -1q-1 1 -2 5.5t0 6.5q65 55 91 85q8 8 17 19q52 60 52 124q0 33 -18.5 57t-53.5 24z" />
    <glyph glyph-name="threequarters" unicode="&#xbe;" horiz-adv-x="701" 
d="M656 93q-4 0 -28 0.5t-39 0.5q-2 0 -2 -3l1 -117q-24 0 -57 -7l2 123q0 3 -3 3h-70q-29 0 -57 -1h-28q0 9 4 21q27 34 95 123.5t85 113.5q4 4 27 4q0 -209 1 -225q0 -2 1 -2q17 0 45 0.5t29 0.5q-6 -16 -6 -35zM173 604q35 0 59.5 -23t24.5 -57q0 -52 -57 -85q-2 -1 0 -3
q93 -25 93 -96q0 -59 -61 -99q-42 -30 -101 -30q-34 0 -55 10q-14 6 -21 22q-8 20 -8 49q1 2 5.5 3.5t5.5 0.5q14 -35 33 -47q25 -18 63 -18q33 0 56 20.5t23 61.5q0 39 -22.5 64.5t-67.5 25.5q-10 0 -24 -3q-1 2 2.5 9.5t5.5 9.5q79 17 79 79q0 26 -18 45t-47 19
q-38 0 -72 -34q-2 0 -5 4t-2 6q50 66 111 66zM547 630q0 1 9.5 0.5t12.5 -1.5v-3q-7 -10 -196 -337t-203 -349h-2q-2 -1 -3 -1q-11 13 -10 16q4 9 196 340t196 335zM417 126q4 0 45 -0.5t68 -0.5l3 3l1 157l-2 1q-12 -14 -59 -78t-56 -79v-3z" />
    <glyph glyph-name="questiondown" unicode="&#xbf;" horiz-adv-x="312" 
d="M179 120q0 8 -10.5 25.5t-29.5 32.5q-4 4 2 12q11 14 32 21q13 4 24 0q19 -8 31.5 -26t12.5 -36q0 -21 -9 -30q-6 -5 -54 -43t-61 -50q-28 -25 -28 -54q0 -36 30 -72t90 -52l32 -8q16 -3 16 -12q0 -19 -22 -43q-7 -11 -23 -11q-50 0 -104 38q-32 23 -50.5 57t-18.5 66
q0 47 20 69q13 14 56 48.5t52 43.5q12 10 12 24zM167 302q-17 0 -31 12q-15 15 -15 38q0 18 13 31q13 14 37 14q17 0 30 -12q13 -14 13 -36q0 -18 -14 -34q-15 -13 -33 -13z" />
    <glyph glyph-name="Agrave" unicode="&#xc0;" 
d="M-33 13q52 7 69.5 20.5t39.5 65.5q30 73 173 464q10 30 13 48q1 0 10.5 -0.5t17.5 -0.5h13t9.5 0.5t4.5 0.5l12 -44q3 -9 73 -221t88 -258q20 -47 34.5 -58t63.5 -17q2 -2 1 -8.5t-3 -7.5q-75 3 -111 3q-82 0 -118 -3q-1 2 -1 7.5t1 8.5q39 6 49 10q17 8 11 27
q-6 23 -65 197l-4 3q-3 2 -4 2q-10 1 -86 1q-72 0 -83 -1q-6 0 -8 -7q-59 -159 -62 -184q-1 -9 -0.5 -16.5t7.5 -14t22 -9.5q25 -6 43 -8q1 -2 0.5 -8t-2.5 -8q-8 0 -48.5 1.5t-65.5 1.5q-26 0 -57 -1.5t-37 -1.5q-2 1 -2 8t2 8zM266 521q-4 0 -4 -1q-8 -21 -78 -227
q0 -5 4 -6q9 -1 80 -1q61 0 68 1q4 0 2 6zM217 764q8 -5 47 -49t57 -66q1 -1 -1 -3.5t-5.5 -5.5t-5.5 -3q-3 0 -71 40.5t-75 47.5q-1 1 -0.5 4.5t1.5 4.5q6 7 25.5 18t27.5 12z" />
    <glyph glyph-name="Aacute" unicode="&#xc1;" 
d="M-33 13q52 7 69.5 20.5t39.5 65.5q30 73 173 464q10 30 13 48q1 0 10.5 -0.5t17.5 -0.5h13t9.5 0.5t4.5 0.5l12 -44q3 -9 73 -221t88 -258q20 -47 34.5 -58t63.5 -17q2 -2 1 -8.5t-3 -7.5q-75 3 -111 3q-82 0 -118 -3q-1 2 -1 7.5t1 8.5q39 6 49 10q17 8 11 27
q-6 23 -65 197l-4 3q-3 2 -4 2q-10 1 -86 1q-72 0 -83 -1q-6 0 -8 -7q-59 -159 -62 -184q-1 -9 -0.5 -16.5t7.5 -14t22 -9.5q25 -6 43 -8q1 -2 0.5 -8t-2.5 -8q-8 0 -48.5 1.5t-65.5 1.5q-26 0 -57 -1.5t-37 -1.5q-2 1 -2 8t2 8zM266 521q-4 0 -4 -1q-8 -21 -78 -227
q0 -5 4 -6q9 -1 80 -1q61 0 68 1q4 0 2 6zM362 762q9 -1 27 -9t23 -14q1 -1 1 -4t-1 -4q-8 -9 -74 -51t-72 -42q-2 0 -5.5 5t-2.5 7q10 13 52 59.5t52 52.5z" />
    <glyph glyph-name="Acircumflex" unicode="&#xc2;" 
d="M-33 13q52 7 69.5 20.5t39.5 65.5q30 73 173 464q10 30 13 48q1 0 10.5 -0.5t17.5 -0.5h13t9.5 0.5t4.5 0.5l12 -44q3 -9 73 -221t88 -258q20 -47 34.5 -58t63.5 -17q2 -2 1 -8.5t-3 -7.5q-75 3 -111 3q-82 0 -118 -3q-1 2 -1 7.5t1 8.5q39 6 49 10q17 8 11 27
q-6 23 -65 197l-4 3q-3 2 -4 2q-10 1 -86 1q-72 0 -83 -1q-6 0 -8 -7q-59 -159 -62 -184q-1 -9 -0.5 -16.5t7.5 -14t22 -9.5q25 -6 43 -8q1 -2 0.5 -8t-2.5 -8q-8 0 -48.5 1.5t-65.5 1.5q-26 0 -57 -1.5t-37 -1.5q-2 1 -2 8t2 8zM266 521q-4 0 -4 -1q-8 -21 -78 -227
q0 -5 4 -6q9 -1 80 -1q61 0 68 1q4 0 2 6zM279 740q4 4 12 4q8 -10 56 -49t67 -51q0 -3 -3 -8.5t-5 -5.5q-4 0 -54 22t-64 29q-4 2 -9 0q-97 -51 -109 -51q-2 0 -4.5 5t-1.5 9q73 54 115 96z" />
    <glyph glyph-name="Atilde" unicode="&#xc3;" 
d="M-33 13q52 7 69.5 20.5t39.5 65.5q30 73 173 464q10 30 13 48q1 0 10.5 -0.5t17.5 -0.5h13t9.5 0.5t4.5 0.5l12 -44q3 -9 73 -221t88 -258q20 -47 34.5 -58t63.5 -17q2 -2 1 -8.5t-3 -7.5q-75 3 -111 3q-82 0 -118 -3q-1 2 -1 7.5t1 8.5q39 6 49 10q17 8 11 27
q-6 23 -65 197l-4 3q-3 2 -4 2q-10 1 -86 1q-72 0 -83 -1q-6 0 -8 -7q-59 -159 -62 -184q-1 -9 -0.5 -16.5t7.5 -14t22 -9.5q25 -6 43 -8q1 -2 0.5 -8t-2.5 -8q-8 0 -48.5 1.5t-65.5 1.5q-26 0 -57 -1.5t-37 -1.5q-2 1 -2 8t2 8zM266 521q-4 0 -4 -1q-8 -21 -78 -227
q0 -5 4 -6q9 -1 80 -1q61 0 68 1q4 0 2 6zM348 694q34 0 65 29l3 -3q3 -8 2 -11q-11 -19 -40.5 -37.5t-53.5 -18.5q-14 0 -60 12q-26 7 -37 7q-28 0 -58 -25q-1 -1 -3 2.5t-3 7t0 4.5q9 13 38 32.5t47 19.5q24 0 55 -10q34 -9 45 -9z" />
    <glyph glyph-name="Adieresis" unicode="&#xc4;" 
d="M-33 13q52 7 69.5 20.5t39.5 65.5q30 73 173 464q10 30 13 48q1 0 10.5 -0.5t17.5 -0.5h13t9.5 0.5t4.5 0.5l12 -44q3 -9 73 -221t88 -258q20 -47 34.5 -58t63.5 -17q2 -2 1 -8.5t-3 -7.5q-75 3 -111 3q-82 0 -118 -3q-1 2 -1 7.5t1 8.5q39 6 49 10q17 8 11 27
q-6 23 -65 197l-4 3q-3 2 -4 2q-10 1 -86 1q-72 0 -83 -1q-6 0 -8 -7q-59 -159 -62 -184q-1 -9 -0.5 -16.5t7.5 -14t22 -9.5q25 -6 43 -8q1 -2 0.5 -8t-2.5 -8q-8 0 -48.5 1.5t-65.5 1.5q-26 0 -57 -1.5t-37 -1.5q-2 1 -2 8t2 8zM266 521q-4 0 -4 -1q-8 -21 -78 -227
q0 -5 4 -6q9 -1 80 -1q61 0 68 1q4 0 2 6zM250 683q0 -28 -18 -37q-21 -8 -34 -2q-19 8 -19 32q-2 15 4 22q12 14 36 14q16 0 24 -8q7 -8 7 -21zM401 683q0 -28 -18 -37q-21 -8 -34 -2q-19 8 -19 32q-2 15 4 22q12 14 36 14q16 0 24 -8q7 -8 7 -21z" />
    <glyph glyph-name="Aring" unicode="&#xc5;" 
d="M-33 13q52 7 69.5 20.5t39.5 65.5q30 73 173 464q10 30 13 48q1 0 10.5 -0.5t17.5 -0.5h13t9.5 0.5t4.5 0.5l12 -44q3 -9 73 -221t88 -258q20 -47 34.5 -58t63.5 -17q2 -2 1 -8.5t-3 -7.5q-75 3 -111 3q-82 0 -118 -3q-1 2 -1 7.5t1 8.5q39 6 49 10q17 8 11 27
q-6 23 -65 197l-4 3q-3 2 -4 2q-10 1 -86 1q-72 0 -83 -1q-6 0 -8 -7q-59 -159 -62 -184q-1 -9 -0.5 -16.5t7.5 -14t22 -9.5q25 -6 43 -8q1 -2 0.5 -8t-2.5 -8q-8 0 -48.5 1.5t-65.5 1.5q-26 0 -57 -1.5t-37 -1.5q-2 1 -2 8t2 8zM266 521q-4 0 -4 -1q-8 -21 -78 -227
q0 -5 4 -6q9 -1 80 -1q61 0 68 1q4 0 2 6zM292 752q30 0 47.5 -18t17.5 -44q0 -30 -19 -47.5t-50 -17.5q-22 0 -43 15t-21 46q0 30 17.5 48t50.5 18zM288 723q-20 0 -32 -9.5t-12 -26.5q0 -16 14.5 -25t33.5 -9q18 0 31 9.5t13 23.5q0 37 -48 37z" />
    <glyph glyph-name="AE" unicode="&#xc6;" horiz-adv-x="779" 
d="M238 598q-1 2 0 8t3 7q6 0 56 -1.5t87 -1.5h201q81 0 108 4q3 -2 3 -3q-11 -43 -18 -132q-2 -2 -8.5 -2t-8.5 1q-4 43 -13 67q-7 20 -17 28t-36 9q-19 1 -78 1t-77 -1q-6 -2 -6 -11q2 -28 7 -88t9 -108.5t5 -60.5q0 -3 2.5 -5.5t4.5 -2.5q108 0 138 2q22 1 30.5 7.5
t15.5 26.5q7 17 9 39q2 1 9.5 1t8.5 -2q-4 -68 -4 -94q0 -21 1.5 -51.5t1.5 -35.5q-2 -1 -9 -1t-9 1l-9 37q-9 26 -24 32q-7 3 -17 4q-29 2 -141 2q-4 0 -4 -7q8 -110 19 -192q3 -26 10 -34t22 -10q22 -3 124 -3q46 0 69 24q26 28 48 93q2 1 9 -1t8 -4q-1 -16 -13.5 -64
t-23.5 -70q-5 -9 -39 -9q-14 0 -88 1.5t-160 1.5q-34 0 -76.5 -1.5t-60.5 -1.5q-3 1 -3 7.5t2 8.5q41 3 64 10q17 4 22 16t4 42q1 9 -14 186q-2 4 -5 4q-10 1 -77 1h-85q-3 0 -11 -8q-7 -15 -31 -65.5t-41 -87.5t-21 -49q-12 -35 24 -42q26 -5 45 -7q1 -2 1 -8t-2 -8
q-9 0 -49 1.5t-65 1.5q-26 0 -57.5 -1.5t-36.5 -1.5q-1 2 -1 8.5t1 7.5q51 7 70 20.5t45 65.5q124 237 232 473q5 9 -3 12l-25 5t-31 5.5t-21 3.5zM358 578q-1 1 -3 1.5t-3 -0.5q-119 -254 -124 -266q0 -5 4 -6q9 -1 81 -1q53 0 60 1q5 0 5 5q-12 173 -20 266z" />
    <glyph glyph-name="Ccedilla" unicode="&#xc7;" horiz-adv-x="641" 
d="M561 465q-8 56 -21.5 81t-38.5 37q-44 22 -125 22q-111 0 -174 -75.5t-63 -209.5q0 -141 72.5 -224.5t198.5 -83.5q77 0 119 40q32 32 65 92q2 1 8 -2t7 -6q-10 -38 -34 -81t-41 -52q-63 -19 -134 -21l-17 -25q32 -16 43 -27q21 -17 21 -46q0 -36 -35.5 -61.5
t-62.5 -25.5q-33 0 -47 27q-1 2 0 8.5t2 7.5q27 -15 62 -15q37 0 37 30q0 15 -16.5 32t-53.5 29q0 5 1 8q25 35 43 58q-157 4 -242.5 89t-85.5 240q0 86 39 157.5t117 113.5q84 46 205 46q46 0 110 -8l71 -8q-14 -70 -12 -145q-2 -2 -9.5 -3t-8.5 1z" />
    <glyph glyph-name="Egrave" unicode="&#xc8;" horiz-adv-x="505" 
d="M28 598q-2 2 -1.5 7.5t2.5 7.5q8 0 45 -1.5t68 -1.5h191q80 0 105 4l3 -3q-10 -37 -18 -131q-2 -2 -8.5 -2t-8.5 1q-2 36 -11 64q-6 19 -16 28t-36 10q-21 2 -78 2t-71 -2q-10 -1 -10 -14q-1 -31 -2 -123.5t0 -107.5q0 -8 4 -8q20 -1 76 -1t79 2q14 1 23 6.5t12.5 11.5
t7.5 17q6 16 9 35q2 1 9.5 1t8.5 -1q-7 -42 -7 -90q0 -22 1 -49t1 -34q-2 -3 -9 -3t-8 2q-3 21 -7 35q-8 32 -40 35q-19 1 -77.5 1.5t-77.5 -0.5q-5 0 -5 -8q-1 -19 0 -98.5t2 -122.5q1 -31 23 -35q30 -6 122 -6q29 0 47 4t24.5 8t15.5 13q26 23 55 93q1 1 7 -2t7 -5
q-3 -21 -17.5 -66.5t-22.5 -62.5q-5 -8 -14 -9.5t-45 -1.5q-20 0 -92 1.5t-151 1.5q-35 0 -77 -1.5t-60 -1.5q-2 1 -2 7.5t2 8.5q50 4 64 8q17 5 24.5 16.5t9.5 40.5q2 48 2 253q0 167 -2 207q-2 28 -7.5 38t-23.5 14q-14 5 -45 8zM202 771q8 -5 47 -49t57 -66q1 -1 -1 -3.5
t-5.5 -5.5t-5.5 -3q-3 0 -71 40.5t-75 47.5q-1 1 -0.5 4.5t1.5 4.5q6 7 25.5 18t27.5 12z" />
    <glyph glyph-name="Eacute" unicode="&#xc9;" horiz-adv-x="505" 
d="M28 598q-2 2 -1.5 7.5t2.5 7.5q8 0 45 -1.5t68 -1.5h191q80 0 105 4l3 -3q-10 -37 -18 -131q-2 -2 -8.5 -2t-8.5 1q-2 36 -11 64q-6 19 -16 28t-36 10q-21 2 -78 2t-71 -2q-10 -1 -10 -14q-1 -31 -2 -123.5t0 -107.5q0 -8 4 -8q20 -1 76 -1t79 2q14 1 23 6.5t12.5 11.5
t7.5 17q6 16 9 35q2 1 9.5 1t8.5 -1q-7 -42 -7 -90q0 -22 1 -49t1 -34q-2 -3 -9 -3t-8 2q-3 21 -7 35q-8 32 -40 35q-19 1 -77.5 1.5t-77.5 -0.5q-5 0 -5 -8q-1 -19 0 -98.5t2 -122.5q1 -31 23 -35q30 -6 122 -6q29 0 47 4t24.5 8t15.5 13q26 23 55 93q1 1 7 -2t7 -5
q-3 -21 -17.5 -66.5t-22.5 -62.5q-5 -8 -14 -9.5t-45 -1.5q-20 0 -92 1.5t-151 1.5q-35 0 -77 -1.5t-60 -1.5q-2 1 -2 7.5t2 8.5q50 4 64 8q17 5 24.5 16.5t9.5 40.5q2 48 2 253q0 167 -2 207q-2 28 -7.5 38t-23.5 14q-14 5 -45 8zM324 769q9 -1 27 -9t23 -14q1 -1 1 -4
t-1 -4q-8 -9 -74 -51t-72 -42q-2 0 -5.5 5t-2.5 7q10 13 52 59.5t52 52.5z" />
    <glyph glyph-name="Ecircumflex" unicode="&#xca;" horiz-adv-x="505" 
d="M28 598q-2 2 -1.5 7.5t2.5 7.5q8 0 45 -1.5t68 -1.5h191q80 0 105 4l3 -3q-10 -37 -18 -131q-2 -2 -8.5 -2t-8.5 1q-2 36 -11 64q-6 19 -16 28t-36 10q-21 2 -78 2t-71 -2q-10 -1 -10 -14q-1 -31 -2 -123.5t0 -107.5q0 -8 4 -8q20 -1 76 -1t79 2q14 1 23 6.5t12.5 11.5
t7.5 17q6 16 9 35q2 1 9.5 1t8.5 -1q-7 -42 -7 -90q0 -22 1 -49t1 -34q-2 -3 -9 -3t-8 2q-3 21 -7 35q-8 32 -40 35q-19 1 -77.5 1.5t-77.5 -0.5q-5 0 -5 -8q-1 -19 0 -98.5t2 -122.5q1 -31 23 -35q30 -6 122 -6q29 0 47 4t24.5 8t15.5 13q26 23 55 93q1 1 7 -2t7 -5
q-3 -21 -17.5 -66.5t-22.5 -62.5q-5 -8 -14 -9.5t-45 -1.5q-20 0 -92 1.5t-151 1.5q-35 0 -77 -1.5t-60 -1.5q-2 1 -2 7.5t2 8.5q50 4 64 8q17 5 24.5 16.5t9.5 40.5q2 48 2 253q0 167 -2 207q-2 28 -7.5 38t-23.5 14q-14 5 -45 8zM248 754q4 4 12 4q8 -10 56 -49t67 -51
q0 -3 -3 -8.5t-5 -5.5q-4 0 -54 22t-64 29q-4 2 -9 0q-97 -51 -109 -51q-2 0 -4.5 5t-1.5 9q73 54 115 96z" />
    <glyph glyph-name="Edieresis" unicode="&#xcb;" horiz-adv-x="505" 
d="M28 598q-2 2 -1.5 7.5t2.5 7.5q8 0 45 -1.5t68 -1.5h191q80 0 105 4l3 -3q-10 -37 -18 -131q-2 -2 -8.5 -2t-8.5 1q-2 36 -11 64q-6 19 -16 28t-36 10q-21 2 -78 2t-71 -2q-10 -1 -10 -14q-1 -31 -2 -123.5t0 -107.5q0 -8 4 -8q20 -1 76 -1t79 2q14 1 23 6.5t12.5 11.5
t7.5 17q6 16 9 35q2 1 9.5 1t8.5 -1q-7 -42 -7 -90q0 -22 1 -49t1 -34q-2 -3 -9 -3t-8 2q-3 21 -7 35q-8 32 -40 35q-19 1 -77.5 1.5t-77.5 -0.5q-5 0 -5 -8q-1 -19 0 -98.5t2 -122.5q1 -31 23 -35q30 -6 122 -6q29 0 47 4t24.5 8t15.5 13q26 23 55 93q1 1 7 -2t7 -5
q-3 -21 -17.5 -66.5t-22.5 -62.5q-5 -8 -14 -9.5t-45 -1.5q-20 0 -92 1.5t-151 1.5q-35 0 -77 -1.5t-60 -1.5q-2 1 -2 7.5t2 8.5q50 4 64 8q17 5 24.5 16.5t9.5 40.5q2 48 2 253q0 167 -2 207q-2 28 -7.5 38t-23.5 14q-14 5 -45 8zM220 697q0 -28 -18 -37q-21 -8 -34 -2
q-19 8 -19 32q-2 15 4 22q12 14 36 14q16 0 24 -8q7 -8 7 -21zM371 697q0 -28 -18 -37q-21 -8 -34 -2q-19 8 -19 32q-2 15 4 22q12 14 36 14q16 0 24 -8q7 -8 7 -21z" />
    <glyph glyph-name="Igrave" unicode="&#xcc;" horiz-adv-x="288" 
d="M27 598q-2 2 -2 7.5t2 7.5q8 0 50.5 -1.5t70.5 -1.5q30 0 64 1.5t41 1.5q5 -8 1 -15l-42 -7q-16 -5 -20.5 -16t-6.5 -38q-3 -57 -3 -224q0 -171 2 -237q1 -18 3 -26.5t8.5 -17t19.5 -11.5q13 -4 49 -8q2 -2 1.5 -8t-2.5 -8q-12 0 -47.5 1.5t-60.5 1.5q-30 0 -67 -1.5
t-60 -1.5q-6 6 0 16q24 2 44 7q18 4 23.5 14t7.5 32q3 44 3 271q0 157 -2 203q0 2 -1 7.5t-1 7.5t-1 6.5t-1.5 6.5t-2 5.5t-3 5.5t-4 4t-5 3.5t-6.5 2.5q-17 5 -52 9zM78 767q8 -5 47 -49t57 -66q1 -1 -1 -3.5t-5.5 -5.5t-5.5 -3q-3 0 -71 40.5t-75 47.5q-1 1 -0.5 4.5
t1.5 4.5q6 7 25.5 18t27.5 12z" />
    <glyph glyph-name="Iacute" unicode="&#xcd;" horiz-adv-x="288" 
d="M27 598q-2 2 -2 7.5t2 7.5q8 0 50.5 -1.5t70.5 -1.5q30 0 64 1.5t41 1.5q5 -8 1 -15l-42 -7q-16 -5 -20.5 -16t-6.5 -38q-3 -57 -3 -224q0 -171 2 -237q1 -18 3 -26.5t8.5 -17t19.5 -11.5q13 -4 49 -8q2 -2 1.5 -8t-2.5 -8q-12 0 -47.5 1.5t-60.5 1.5q-30 0 -67 -1.5
t-60 -1.5q-6 6 0 16q24 2 44 7q18 4 23.5 14t7.5 32q3 44 3 271q0 157 -2 203q0 2 -1 7.5t-1 7.5t-1 6.5t-1.5 6.5t-2 5.5t-3 5.5t-4 4t-5 3.5t-6.5 2.5q-17 5 -52 9zM215 767q9 -1 27 -9t23 -14q1 -1 1 -4t-1 -4q-8 -9 -74 -51t-72 -42q-2 0 -5.5 5t-2.5 7q10 13 52 59.5
t52 52.5z" />
    <glyph glyph-name="Icircumflex" unicode="&#xce;" horiz-adv-x="288" 
d="M27 598q-2 2 -2 7.5t2 7.5q8 0 50.5 -1.5t70.5 -1.5q30 0 64 1.5t41 1.5q5 -8 1 -15l-42 -7q-16 -5 -20.5 -16t-6.5 -38q-3 -57 -3 -224q0 -171 2 -237q1 -18 3 -26.5t8.5 -17t19.5 -11.5q13 -4 49 -8q2 -2 1.5 -8t-2.5 -8q-12 0 -47.5 1.5t-60.5 1.5q-30 0 -67 -1.5
t-60 -1.5q-6 6 0 16q24 2 44 7q18 4 23.5 14t7.5 32q3 44 3 271q0 157 -2 203q0 2 -1 7.5t-1 7.5t-1 6.5t-1.5 6.5t-2 5.5t-3 5.5t-4 4t-5 3.5t-6.5 2.5q-17 5 -52 9zM136 758q4 4 12 4q8 -10 56 -49t67 -51q0 -3 -3 -8.5t-5 -5.5q-4 0 -54 22t-64 29q-4 2 -9 0
q-97 -51 -109 -51q-2 0 -4.5 5t-1.5 9q73 54 115 96z" />
    <glyph glyph-name="Idieresis" unicode="&#xcf;" horiz-adv-x="288" 
d="M27 598q-2 2 -2 7.5t2 7.5q8 0 50.5 -1.5t70.5 -1.5q30 0 64 1.5t41 1.5q5 -8 1 -15l-42 -7q-16 -5 -20.5 -16t-6.5 -38q-3 -57 -3 -224q0 -171 2 -237q1 -18 3 -26.5t8.5 -17t19.5 -11.5q13 -4 49 -8q2 -2 1.5 -8t-2.5 -8q-12 0 -47.5 1.5t-60.5 1.5q-30 0 -67 -1.5
t-60 -1.5q-6 6 0 16q24 2 44 7q18 4 23.5 14t7.5 32q3 44 3 271q0 157 -2 203q0 2 -1 7.5t-1 7.5t-1 6.5t-1.5 6.5t-2 5.5t-3 5.5t-4 4t-5 3.5t-6.5 2.5q-17 5 -52 9zM103 698q0 -28 -18 -37q-21 -8 -34 -2q-19 8 -19 32q-2 15 4 22q12 14 36 14q16 0 24 -8q7 -8 7 -21z
M254 698q0 -28 -18 -37q-21 -8 -34 -2q-19 8 -19 32q-2 15 4 22q12 14 36 14q16 0 24 -8q7 -8 7 -21z" />
    <glyph glyph-name="Eth" unicode="&#xd0;" horiz-adv-x="683" 
d="M24 598q-1 1 0 7.5t2 7.5q72 -3 115 -3q31 0 89.5 2t98.5 2q134 0 212 -68q93 -81 93 -227q0 -173 -132 -262q-93 -64 -225 -64q-30 0 -87 2t-101 2h-72q-2 1 -2 8t2 8q39 4 55 9q10 3 15 6.5t10 14t6 28.5q3 57 3 233q-72 -2 -85 -2q0 18 5 26h80q0 171 -2 207
q-2 28 -7 38.5t-23 15.5q-20 6 -50 9zM185 78q2 -24 20 -36q31 -21 117 -21q92 0 147 55q77 79 77 227q0 165 -111 244q-62 43 -186 43q-38 0 -53 -5q-10 -8 -11 -21q-2 -28 -2 -236h81t73.5 0.5t30.5 0.5q0 -14 -4 -26q-31 0 -91 0.5t-90 0.5q0 -195 2 -226z" />
    <glyph glyph-name="Ntilde" unicode="&#xd1;" horiz-adv-x="688" 
d="M8 598q-1 1 0 7.5t2 7.5q8 0 45 -1.5t57 -1.5q36 0 45 1q7 -16 38 -53q257 -321 369 -453l3 2q0 383 -4 426q-2 24 -9 36.5t-27 18.5q-15 4 -60 10q-1 2 -1 7.5t2 7.5q10 0 50 -1.5t66 -1.5q17 0 53 1.5t40 1.5q1 -1 1 -7t-1 -8q-21 -4 -39 -8q-31 -10 -33 -54
q-3 -35 -4 -103t-1.5 -166.5t-1.5 -138.5q0 -69 2 -133q-27 2 -58 0q-21 32 -107.5 142t-187 235t-104.5 131q-1 1 -2.5 0.5t-1.5 -1.5q-1 -77 -1 -225t2 -190q1 -34 10.5 -47.5t28.5 -18.5q15 -4 53 -8q2 -2 1.5 -8.5t-2.5 -7.5q-6 0 -45 1.5t-67 1.5q-29 0 -62.5 -1.5
t-39.5 -1.5q-1 1 -1 8t1 8q31 3 44 7q18 5 27.5 18.5t11.5 47.5q6 88 9 437q0 28 -23 48q-10 9 -23 14.5t-22 7.5t-33 5zM412 706q34 0 65 29l3 -3q3 -8 2 -11q-11 -19 -40.5 -37.5t-53.5 -18.5q-14 0 -60 12q-26 7 -37 7q-28 0 -58 -25q-1 -1 -3 2.5t-3 7t0 4.5
q9 13 38 32.5t47 19.5q24 0 55 -10q34 -9 45 -9z" />
    <glyph glyph-name="Ograve" unicode="&#xd2;" horiz-adv-x="720" 
d="M354 -18q-65 0 -123 25.5t-97 67.5q-85 94 -85 235q0 104 55 186q42 60 115 96t150 36q143 0 222.5 -90.5t79.5 -221.5q0 -117 -59 -203q-42 -63 -111.5 -97t-146.5 -34zM391 13q68 0 111 38q85 73 85 233q0 82 -28.5 156t-86.5 116q-57 44 -134 44q-51 0 -96 -25
q-53 -32 -79 -96.5t-26 -145.5q0 -83 31 -160.5t94 -121.5q54 -38 129 -38zM296 787q8 -5 47 -49t57 -66q1 -1 -1 -3.5t-5.5 -5.5t-5.5 -3q-3 0 -71 40.5t-75 47.5q-1 1 -0.5 4.5t1.5 4.5q6 7 25.5 18t27.5 12z" />
    <glyph glyph-name="Oacute" unicode="&#xd3;" horiz-adv-x="720" 
d="M354 -18q-65 0 -123 25.5t-97 67.5q-85 94 -85 235q0 104 55 186q42 60 115 96t150 36q143 0 222.5 -90.5t79.5 -221.5q0 -117 -59 -203q-42 -63 -111.5 -97t-146.5 -34zM391 13q68 0 111 38q85 73 85 233q0 82 -28.5 156t-86.5 116q-57 44 -134 44q-51 0 -96 -25
q-53 -32 -79 -96.5t-26 -145.5q0 -83 31 -160.5t94 -121.5q54 -38 129 -38zM419 784q9 -1 27 -9t23 -14q1 -1 1 -4t-1 -4q-8 -9 -74 -51t-72 -42q-2 0 -5.5 5t-2.5 7q10 13 52 59.5t52 52.5z" />
    <glyph glyph-name="Ocircumflex" unicode="&#xd4;" horiz-adv-x="720" 
d="M354 -18q-65 0 -123 25.5t-97 67.5q-85 94 -85 235q0 104 55 186q42 60 115 96t150 36q143 0 222.5 -90.5t79.5 -221.5q0 -117 -59 -203q-42 -63 -111.5 -97t-146.5 -34zM391 13q68 0 111 38q85 73 85 233q0 82 -28.5 156t-86.5 116q-57 44 -134 44q-51 0 -96 -25
q-53 -32 -79 -96.5t-26 -145.5q0 -83 31 -160.5t94 -121.5q54 -38 129 -38zM352 766q4 4 12 4q8 -10 56 -49t67 -51q0 -3 -3 -8.5t-5 -5.5q-4 0 -54 22t-64 29q-4 2 -9 0q-97 -51 -109 -51q-2 0 -4.5 5t-1.5 9q73 54 115 96z" />
    <glyph glyph-name="Otilde" unicode="&#xd5;" horiz-adv-x="720" 
d="M354 -18q-65 0 -123 25.5t-97 67.5q-85 94 -85 235q0 104 55 186q42 60 115 96t150 36q143 0 222.5 -90.5t79.5 -221.5q0 -117 -59 -203q-42 -63 -111.5 -97t-146.5 -34zM391 13q68 0 111 38q85 73 85 233q0 82 -28.5 156t-86.5 116q-57 44 -134 44q-51 0 -96 -25
q-53 -32 -79 -96.5t-26 -145.5q0 -83 31 -160.5t94 -121.5q54 -38 129 -38zM416 719q34 0 65 29l3 -3q3 -8 2 -11q-11 -19 -40.5 -37.5t-53.5 -18.5q-14 0 -60 12q-26 7 -37 7q-28 0 -58 -25q-1 -1 -3 2.5t-3 7t0 4.5q9 13 38 32.5t47 19.5q24 0 55 -10q34 -9 45 -9z" />
    <glyph glyph-name="Odieresis" unicode="&#xd6;" horiz-adv-x="720" 
d="M354 -18q-65 0 -123 25.5t-97 67.5q-85 94 -85 235q0 104 55 186q42 60 115 96t150 36q143 0 222.5 -90.5t79.5 -221.5q0 -117 -59 -203q-42 -63 -111.5 -97t-146.5 -34zM391 13q68 0 111 38q85 73 85 233q0 82 -28.5 156t-86.5 116q-57 44 -134 44q-51 0 -96 -25
q-53 -32 -79 -96.5t-26 -145.5q0 -83 31 -160.5t94 -121.5q54 -38 129 -38zM319 712q0 -28 -18 -37q-21 -8 -34 -2q-19 8 -19 32q-2 15 4 22q12 14 36 14q16 0 24 -8q7 -8 7 -21zM470 712q0 -28 -18 -37q-21 -8 -34 -2q-19 8 -19 32q-2 15 4 22q12 14 36 14q16 0 24 -8
q7 -8 7 -21z" />
    <glyph glyph-name="multiply" unicode="&#xd7;" horiz-adv-x="460" 
d="M368 397q7 9 49 9q4 -4 2 -6q-39 -51 -162 -187v-6q111 -125 158 -164q0 -7 -2 -8q-6 -2 -30 0.5t-30 7.5q-27 20 -129 130q-3 3 -5 1q-36 -42 -75.5 -83.5t-46.5 -46.5q-19 -12 -54 -12q-4 2 -2 7q11 9 73 75t79 86q3 5 0 8q-106 118 -147 169q0 5 9 18t13 17q5 3 7 1
q5 -8 65.5 -78t88.5 -98q99 107 139 160z" />
    <glyph glyph-name="Oslash" unicode="&#xd8;" horiz-adv-x="720" 
d="M176 38l-48 -66q-1 -1 -10 2t-12 6v4l51 69q-108 95 -108 257q0 104 55 186q42 60 115 96t150 36q94 0 179 -50l41 56q2 2 11.5 0t12.5 -4l-1 -4l-47 -64q106 -86 106 -246q0 -117 -59 -203q-42 -63 -111.5 -97t-146.5 -34q-100 0 -178 56zM199 110l310 418
q-68 72 -167 72q-55 0 -96 -25q-54 -33 -81 -97t-27 -145q0 -129 61 -223zM524 507l-309 -418q64 -78 174 -78q65 0 110 38q89 75 89 235q0 136 -64 223z" />
    <glyph glyph-name="Ugrave" unicode="&#xd9;" horiz-adv-x="662" 
d="M20 598q-2 2 -2 7.5t2 7.5q3 0 44 -1.5t71 -1.5q29 0 65 1.5t43 1.5q1 -1 1 -7t-1 -8q-37 -8 -42 -9q-14 -4 -19.5 -15t-6.5 -40q-6 -152 0 -307q5 -91 33 -131q47 -73 159 -73q77 0 122.5 41t51.5 146q8 152 2 307q-1 41 -11 55t-33 19q-8 2 -21 3.5t-21 2.5
q-1 2 -1 7.5t2 7.5q3 0 37.5 -1t67.5 -1q24 0 54.5 1t36.5 1q2 -2 2 -8t-2 -7q-27 -4 -37 -7q-19 -6 -26 -21t-8 -57q-5 -282 -15 -340q-28 -190 -233 -190q-213 0 -235 180q-4 27 -5 100.5t-1 160.5t-1 113q0 45 -25 53q-10 4 -48 9zM280 770q8 -5 47 -49t57 -66
q1 -1 -1 -3.5t-5.5 -5.5t-5.5 -3q-3 0 -71 40.5t-75 47.5q-1 1 -0.5 4.5t1.5 4.5q6 7 25.5 18t27.5 12z" />
    <glyph glyph-name="Uacute" unicode="&#xda;" horiz-adv-x="662" 
d="M20 598q-2 2 -2 7.5t2 7.5q3 0 44 -1.5t71 -1.5q29 0 65 1.5t43 1.5q1 -1 1 -7t-1 -8q-37 -8 -42 -9q-14 -4 -19.5 -15t-6.5 -40q-6 -152 0 -307q5 -91 33 -131q47 -73 159 -73q77 0 122.5 41t51.5 146q8 152 2 307q-1 41 -11 55t-33 19q-8 2 -21 3.5t-21 2.5
q-1 2 -1 7.5t2 7.5q3 0 37.5 -1t67.5 -1q24 0 54.5 1t36.5 1q2 -2 2 -8t-2 -7q-27 -4 -37 -7q-19 -6 -26 -21t-8 -57q-5 -282 -15 -340q-28 -190 -233 -190q-213 0 -235 180q-4 27 -5 100.5t-1 160.5t-1 113q0 45 -25 53q-10 4 -48 9zM420 767q9 -1 27 -9t23 -14q1 -1 1 -4
t-1 -4q-8 -9 -74 -51t-72 -42q-2 0 -5.5 5t-2.5 7q10 13 52 59.5t52 52.5z" />
    <glyph glyph-name="Ucircumflex" unicode="&#xdb;" horiz-adv-x="662" 
d="M20 598q-2 2 -2 7.5t2 7.5q3 0 44 -1.5t71 -1.5q29 0 65 1.5t43 1.5q1 -1 1 -7t-1 -8q-37 -8 -42 -9q-14 -4 -19.5 -15t-6.5 -40q-6 -152 0 -307q5 -91 33 -131q47 -73 159 -73q77 0 122.5 41t51.5 146q8 152 2 307q-1 41 -11 55t-33 19q-8 2 -21 3.5t-21 2.5
q-1 2 -1 7.5t2 7.5q3 0 37.5 -1t67.5 -1q24 0 54.5 1t36.5 1q2 -2 2 -8t-2 -7q-27 -4 -37 -7q-19 -6 -26 -21t-8 -57q-5 -282 -15 -340q-28 -190 -233 -190q-213 0 -235 180q-4 27 -5 100.5t-1 160.5t-1 113q0 45 -25 53q-10 4 -48 9zM342 759q4 4 12 4q8 -10 56 -49t67 -51
q0 -3 -3 -8.5t-5 -5.5q-4 0 -54 22t-64 29q-4 2 -9 0q-97 -51 -109 -51q-2 0 -4.5 5t-1.5 9q73 54 115 96z" />
    <glyph glyph-name="Udieresis" unicode="&#xdc;" horiz-adv-x="662" 
d="M20 598q-2 2 -2 7.5t2 7.5q3 0 44 -1.5t71 -1.5q29 0 65 1.5t43 1.5q1 -1 1 -7t-1 -8q-37 -8 -42 -9q-14 -4 -19.5 -15t-6.5 -40q-6 -152 0 -307q5 -91 33 -131q47 -73 159 -73q77 0 122.5 41t51.5 146q8 152 2 307q-1 41 -11 55t-33 19q-8 2 -21 3.5t-21 2.5
q-1 2 -1 7.5t2 7.5q3 0 37.5 -1t67.5 -1q24 0 54.5 1t36.5 1q2 -2 2 -8t-2 -7q-27 -4 -37 -7q-19 -6 -26 -21t-8 -57q-5 -282 -15 -340q-28 -190 -233 -190q-213 0 -235 180q-4 27 -5 100.5t-1 160.5t-1 113q0 45 -25 53q-10 4 -48 9zM312 703q0 -28 -18 -37q-21 -8 -34 -2
q-19 8 -19 32q-2 15 4 22q12 14 36 14q16 0 24 -8q7 -8 7 -21zM463 703q0 -28 -18 -37q-21 -8 -34 -2q-19 8 -19 32q-2 15 4 22q12 14 36 14q16 0 24 -8q7 -8 7 -21z" />
    <glyph glyph-name="Yacute" unicode="&#xdd;" horiz-adv-x="536" 
d="M-15 598q-1 2 -1 7.5t2 7.5q12 0 53 -1.5t69 -1.5q58 0 97 3q3 -1 3 -7.5t-2 -7.5q-7 -1 -32 -7q-22 -6 -9 -34q65 -134 132 -252h4q99 172 127 240q8 19 3 30t-26 15q-7 2 -20 4t-22 4q-2 2 -1.5 8t3.5 7q78 -3 100 -3q23 0 57.5 1.5t41.5 1.5q2 -1 2 -7t-2 -8l-41 -8
q-22 -5 -35 -18.5t-29 -41.5q-107 -177 -139 -251q-8 -13 -8 -33l3 -160q1 -33 7.5 -48t27.5 -20q19 -4 47 -7q1 -2 0 -7.5t-2 -6.5q-8 0 -53 1.5t-73 1.5q-32 0 -72 -1.5t-52 -1.5q-2 2 -2 7t2 7q28 2 56 8q19 4 25.5 18t7.5 41l2 145q0 33 -8 48q-38 86 -120 233
q-30 53 -44 67t-36 20q-6 2 -12.5 3t-15 2t-15.5 2zM367 765q9 -1 27 -9t23 -14q1 -1 1 -4t-1 -4q-8 -9 -74 -51t-72 -42q-2 0 -5.5 5t-2.5 7q10 13 52 59.5t52 52.5z" />
    <glyph glyph-name="Thorn" unicode="&#xde;" horiz-adv-x="506" 
d="M25 13q35 4 43 6q14 4 19.5 7.5t11 16.5t6.5 39q1 32 1 238q0 185 -1 213q-1 26 -7.5 39.5t-24.5 18.5q-17 4 -43 7q-1 2 -0.5 8t2.5 7q13 0 51 -1.5t60 -1.5q25 0 61 1.5t44 1.5q2 -1 2 -7t-2 -8q-4 -1 -20 -3.5t-22 -4.5q-10 -2 -14.5 -8t-6 -14t-2.5 -27l-1 -63
q0 -5 5 -5q78 3 98 3q88 0 133 -35q55 -43 55 -123q0 -104 -91 -153q-49 -26 -113 -26q-37 0 -56 7q-5 5 -5 14q0 2 2 4q22 -4 41 -4q50 0 83 19q56 35 56 123q0 152 -164 152q-24 0 -36 -5q-6 -2 -8 -13v-215q0 -102 2 -151q1 -25 9.5 -35.5t30.5 -15.5q7 -1 14.5 -2t17 -2
t14.5 -2q1 -2 1 -8t-2 -8q-11 0 -55 1.5t-66 1.5q-27 0 -73 -1.5t-50 -1.5q-2 1 -2 8t2 8z" />
    <glyph glyph-name="germandbls" unicode="&#xdf;" horiz-adv-x="472" 
d="M73 346l-51 3q-1 4 1 10.5t4 8.5q28 3 47 16q0 108 23.5 163t73.5 96q24 20 54.5 32.5t53.5 12.5q54 0 89.5 -38.5t35.5 -100.5q0 -33 -21 -68q-31 -45 -68 -86q-20 -22 -20 -31q0 -5 3.5 -10.5t12.5 -14.5t18 -17t26.5 -23t31.5 -28q51 -47 51 -103q0 -58 -32.5 -99
t-72.5 -63q-34 -19 -69 -19q-17 0 -34 6.5t-23 16.5q-2 17 5 50q2 5 4 6q42 -38 88 -38q76 0 76 85q0 56 -60 116q-19 17 -51 43t-38 32q-3 4 -2.5 20.5t4.5 18.5q32 26 61 59q51 56 51 128q0 48 -28.5 86t-71.5 38q-34 0 -54.5 -20.5t-34 -84.5t-13.5 -177q-3 -195 1 -311
q1 -34 21 -42q6 -2 31 -6q2 -2 1.5 -8t-2.5 -8q-7 0 -41 1.5t-47 1.5q-18 0 -93 -3q-2 1 -2 7.5t2 8.5q16 1 31 5q27 7 27 39z" />
    <glyph glyph-name="agrave" unicode="&#xe0;" horiz-adv-x="377" 
d="M237 259q0 34 -17 57q-27 38 -79 38q-22 0 -36 -9q-23 -16 -40 -72q-1 -1 -6 1.5t-9 7.5t-4 9q0 8 7 26t11 22q30 23 68.5 40t58.5 17q60 0 91 -50q21 -32 21 -98q0 -28 -1.5 -88t-1.5 -77q0 -44 36 -44q19 0 34 5q0 -16 -4 -20q-32 -36 -78 -36q-34 0 -47 24q-5 9 -7 26
q0 1 -1.5 2t-2.5 0q-77 -52 -111 -52q-29 0 -51 22q-33 33 -33 86q0 26 11 48q14 8 91 33t94 34q6 3 6 9v11.5v14.5v13zM236 189q0 1 -1 2t-2 0q-110 -36 -122 -48q-7 -7 -7 -31q0 -32 19 -52.5t50 -20.5q27 0 52 15q9 7 9 21q2 62 2 114zM157 595q15 -34 55 -151
q-1 -2 -6 -4.5t-7 -1.5q-45 57 -102 147q-1 0 -0.5 2t1.5 4q6 2 28 4t31 0z" />
    <glyph glyph-name="aacute" unicode="&#xe1;" horiz-adv-x="377" 
d="M237 259q0 34 -17 57q-27 38 -79 38q-22 0 -36 -9q-23 -16 -40 -72q-1 -1 -6 1.5t-9 7.5t-4 9q0 8 7 26t11 22q30 23 68.5 40t58.5 17q60 0 91 -50q21 -32 21 -98q0 -28 -1.5 -88t-1.5 -77q0 -44 36 -44q19 0 34 5q0 -16 -4 -20q-32 -36 -78 -36q-34 0 -47 24q-5 9 -7 26
q0 1 -1.5 2t-2.5 0q-77 -52 -111 -52q-29 0 -51 22q-33 33 -33 86q0 26 11 48q14 8 91 33t94 34q6 3 6 9v11.5v14.5v13zM236 189q0 1 -1 2t-2 0q-110 -36 -122 -48q-7 -7 -7 -31q0 -32 19 -52.5t50 -20.5q27 0 52 15q9 7 9 21q2 62 2 114zM218 579q8 3 31.5 5t28.5 0
q1 -1 2 -3.5t0 -3.5q-19 -30 -113 -147q-8 0 -12 8q44 105 63 141z" />
    <glyph glyph-name="acircumflex" unicode="&#xe2;" horiz-adv-x="377" 
d="M237 259q0 34 -17 57q-27 38 -79 38q-22 0 -36 -9q-23 -16 -40 -72q-1 -1 -6 1.5t-9 7.5t-4 9q0 8 7 26t11 22q30 23 68.5 40t58.5 17q60 0 91 -50q21 -32 21 -98q0 -28 -1.5 -88t-1.5 -77q0 -44 36 -44q19 0 34 5q0 -16 -4 -20q-32 -36 -78 -36q-34 0 -47 24q-5 9 -7 26
q0 1 -1.5 2t-2.5 0q-77 -52 -111 -52q-29 0 -51 22q-33 33 -33 86q0 26 11 48q14 8 91 33t94 34q6 3 6 9v11.5v14.5v13zM236 189q0 1 -1 2t-2 0q-110 -36 -122 -48q-7 -7 -7 -31q0 -32 19 -52.5t50 -20.5q27 0 52 15q9 7 9 21q2 62 2 114zM178 536q-12 -22 -32.5 -51.5
t-27.5 -36.5q-9 -9 -23 -9q-3 0 -3 3q69 111 84 150q4 7 18 7q11 -30 39.5 -81.5t40.5 -69.5q-5 -8 -30 -8q-5 3 -28 39t-34 57q-2 2 -4 0z" />
    <glyph glyph-name="atilde" unicode="&#xe3;" horiz-adv-x="377" 
d="M237 259q0 34 -17 57q-27 38 -79 38q-22 0 -36 -9q-23 -16 -40 -72q-1 -1 -6 1.5t-9 7.5t-4 9q0 8 7 26t11 22q30 23 68.5 40t58.5 17q60 0 91 -50q21 -32 21 -98q0 -28 -1.5 -88t-1.5 -77q0 -44 36 -44q19 0 34 5q0 -16 -4 -20q-32 -36 -78 -36q-34 0 -47 24q-5 9 -7 26
q0 1 -1.5 2t-2.5 0q-77 -52 -111 -52q-29 0 -51 22q-33 33 -33 86q0 26 11 48q14 8 91 33t94 34q6 3 6 9v11.5v14.5v13zM236 189q0 1 -1 2t-2 0q-110 -36 -122 -48q-7 -7 -7 -31q0 -32 19 -52.5t50 -20.5q27 0 52 15q9 7 9 21q2 62 2 114zM236 528q30 0 58 28q2 -2 2 -3
q2 -7 -1 -14q-10 -16 -36 -34t-45 -18q-16 0 -58 12q-23 7 -35 7q-24 0 -53 -26q-1 -1 -4 2q0 12 3 15q7 13 32.5 31t42.5 18q18 0 48 -8q34 -10 46 -10z" />
    <glyph glyph-name="adieresis" unicode="&#xe4;" horiz-adv-x="377" 
d="M237 259q0 34 -17 57q-27 38 -79 38q-22 0 -36 -9q-23 -16 -40 -72q-1 -1 -6 1.5t-9 7.5t-4 9q0 8 7 26t11 22q30 23 68.5 40t58.5 17q60 0 91 -50q21 -32 21 -98q0 -28 -1.5 -88t-1.5 -77q0 -44 36 -44q19 0 34 5q0 -16 -4 -20q-32 -36 -78 -36q-34 0 -47 24q-5 9 -7 26
q0 1 -1.5 2t-2.5 0q-77 -52 -111 -52q-29 0 -51 22q-33 33 -33 86q0 26 11 48q14 8 91 33t94 34q6 3 6 9v11.5v14.5v13zM236 189q0 1 -1 2t-2 0q-110 -36 -122 -48q-7 -7 -7 -31q0 -32 19 -52.5t50 -20.5q27 0 52 15q9 7 9 21q2 62 2 114zM150 537q0 -28 -19 -37
q-4 -2 -16.5 -3t-16.5 1q-20 8 -20 32q0 15 4 23q14 14 37 14q18 0 24 -9q7 -7 7 -21zM298 537q0 -28 -19 -37q-4 -2 -16.5 -3t-16.5 1q-20 8 -20 32q0 15 4 23q14 14 37 14q18 0 24 -9q7 -7 7 -21z" />
    <glyph glyph-name="aring" unicode="&#xe5;" horiz-adv-x="377" 
d="M237 259q0 34 -17 57q-27 38 -79 38q-22 0 -36 -9q-23 -16 -40 -72q-1 -1 -6 1.5t-9 7.5t-4 9q0 8 7 26t11 22q30 23 68.5 40t58.5 17q60 0 91 -50q21 -32 21 -98q0 -28 -1.5 -88t-1.5 -77q0 -44 36 -44q19 0 34 5q0 -16 -4 -20q-32 -36 -78 -36q-34 0 -47 24q-5 9 -7 26
q0 1 -1.5 2t-2.5 0q-77 -52 -111 -52q-29 0 -51 22q-33 33 -33 86q0 26 11 48q14 8 91 33t94 34q6 3 6 9v11.5v14.5v13zM236 189q0 1 -1 2t-2 0q-110 -36 -122 -48q-7 -7 -7 -31q0 -32 19 -52.5t50 -20.5q27 0 52 15q9 7 9 21q2 62 2 114zM182 583q28 0 44.5 -19t16.5 -47
q0 -31 -18 -49.5t-47 -18.5q-22 0 -42 16.5t-20 48.5q0 30 18.5 49.5t47.5 19.5zM178 553q-19 0 -30 -10.5t-11 -27.5q0 -16 13.5 -26t31.5 -10q17 0 29 9.5t12 24.5q0 40 -45 40z" />
    <glyph glyph-name="ae" unicode="&#xe6;" horiz-adv-x="579" 
d="M127 -11q-35 0 -59 24q-33 35 -33 83q0 25 11 47q11 7 49 19.5t81 25t54 16.5q5 2 5 8q1 13 1 46q0 35 -16 59q-25 38 -75 38q-20 0 -38 -9q-6 -3 -19 -25t-21 -45q-2 -1 -11 5.5t-9 9.5q0 5 6.5 24.5t8.5 21.5q31 25 70.5 42t60.5 17q62 0 93 -58q1 -1 5 -1
q29 29 64.5 44t60.5 15q30 0 53.5 -12t37 -31.5t20 -35t9.5 -31.5q0 -5 16 -7q-2 -7 -6 -13q-46 -16 -241 -66q-4 0 -4 -7q2 -60 36 -102q41 -51 101 -51q66 0 116 46q1 -2 2 -9.5t0 -9.5q-33 -39 -75 -58.5t-82 -19.5q-82 0 -131 66q-3 3 -5 1q-82 -67 -136 -67zM234 182
q0 2 -3 2q-105 -31 -119 -39q-8 -8 -8 -33q0 -32 19.5 -52t50.5 -20q49 0 79 31q3 4 2 7q-21 51 -21 104zM381 367q-37 0 -60 -38t-21 -102q0 -7 4 -6q147 39 161 44q6 3 6 7q-5 36 -28.5 65.5t-61.5 29.5z" />
    <glyph glyph-name="ccedilla" unicode="&#xe7;" horiz-adv-x="377" 
d="M362 68q-56 -67 -129 -78l-18 -24q21 -12 41 -29q20 -18 20 -42q0 -34 -33.5 -58.5t-59.5 -24.5q-29 0 -46 26q-2 10 3 15q28 -15 58 -15q17 0 27 8.5t10 21.5q0 33 -64 59q-1 5 0 8q24 32 40 53h-4q-85 0 -133 65q-39 53 -39 131q0 116 96 172q67 40 126 40q45 0 73 -12
q24 -12 29 -25q0 -9 -2 -12q-13 -27 -30 -35q-5 -2 -9 0q-49 52 -105 52q-51 0 -79.5 -41t-28.5 -98q0 -82 37 -127q41 -54 113 -54q64 0 107 46q3 0 3 -3q0 -15 -3 -19z" />
    <glyph glyph-name="egrave" unicode="&#xe8;" horiz-adv-x="386" 
d="M358 86q4 0 4 -3q2 -9 -2 -17q-72 -78 -156 -78q-74 0 -117 48q-52 56 -52 153q0 121 86 175q20 13 51 22.5t51 9.5q43 0 73.5 -25.5t42 -53t16.5 -57.5q2 -7 12 -8q3 -10 -4 -13q-53 -18 -255 -23q-6 0 -6 -11q2 -67 37 -110q41 -51 110 -51q65 0 109 42zM191 370
q-35 0 -59 -32.5t-27 -90.5q0 -6 3 -6q22 -2 88 0.5t81 6.5q6 3 6 8q-5 45 -28.5 79.5t-63.5 34.5zM184 590q15 -34 55 -151q-1 -2 -6 -4.5t-7 -1.5q-45 57 -102 147q-1 0 -0.5 2t1.5 4q6 2 28 4t31 0z" />
    <glyph glyph-name="eacute" unicode="&#xe9;" horiz-adv-x="386" 
d="M358 86q4 0 4 -3q2 -9 -2 -17q-72 -78 -156 -78q-74 0 -117 48q-52 56 -52 153q0 121 86 175q20 13 51 22.5t51 9.5q43 0 73.5 -25.5t42 -53t16.5 -57.5q2 -7 12 -8q3 -10 -4 -13q-53 -18 -255 -23q-6 0 -6 -11q2 -67 37 -110q41 -51 110 -51q65 0 109 42zM191 370
q-35 0 -59 -32.5t-27 -90.5q0 -6 3 -6q22 -2 88 0.5t81 6.5q6 3 6 8q-5 45 -28.5 79.5t-63.5 34.5zM239 586q8 3 31.5 5t28.5 0q1 -1 2 -3.5t0 -3.5q-19 -30 -113 -147q-8 0 -12 8q44 105 63 141z" />
    <glyph glyph-name="ecircumflex" unicode="&#xea;" horiz-adv-x="386" 
d="M358 86q4 0 4 -3q2 -9 -2 -17q-72 -78 -156 -78q-74 0 -117 48q-52 56 -52 153q0 121 86 175q20 13 51 22.5t51 9.5q43 0 73.5 -25.5t42 -53t16.5 -57.5q2 -7 12 -8q3 -10 -4 -13q-53 -18 -255 -23q-6 0 -6 -11q2 -67 37 -110q41 -51 110 -51q65 0 109 42zM191 370
q-35 0 -59 -32.5t-27 -90.5q0 -6 3 -6q22 -2 88 0.5t81 6.5q6 3 6 8q-5 45 -28.5 79.5t-63.5 34.5zM207 536q-12 -22 -32.5 -51.5t-27.5 -36.5q-9 -9 -23 -9q-3 0 -3 3q69 111 84 150q1 2 7.5 4.5t10.5 2.5q11 -30 39.5 -81.5t40.5 -69.5q-5 -8 -30 -8q-5 3 -28 39t-34 57
q-2 2 -4 0z" />
    <glyph glyph-name="edieresis" unicode="&#xeb;" horiz-adv-x="386" 
d="M358 86q4 0 4 -3q2 -9 -2 -17q-72 -78 -156 -78q-74 0 -117 48q-52 56 -52 153q0 121 86 175q20 13 51 22.5t51 9.5q43 0 73.5 -25.5t42 -53t16.5 -57.5q2 -7 12 -8q3 -10 -4 -13q-53 -18 -255 -23q-6 0 -6 -11q2 -67 37 -110q41 -51 110 -51q65 0 109 42zM191 370
q-35 0 -59 -32.5t-27 -90.5q0 -6 3 -6q22 -2 88 0.5t81 6.5q6 3 6 8q-5 45 -28.5 79.5t-63.5 34.5zM176 537q0 -28 -19 -37q-4 -2 -16.5 -3t-16.5 1q-20 8 -20 32q0 15 4 23q14 14 37 14q18 0 24 -9q7 -7 7 -21zM324 537q0 -28 -19 -37q-4 -2 -16.5 -3t-16.5 1q-20 8 -20 32
q0 15 4 23q14 14 37 14q18 0 24 -9q7 -7 7 -21z" />
    <glyph glyph-name="igrave" unicode="&#xec;" horiz-adv-x="213" 
d="M202 13q0 -15 -3 -16q-9 0 -41.5 1.5t-49.5 1.5q-24 0 -56 -1.5t-37 -1.5q-1 1 -1 8t1 8q27 2 39 8q17 7 18 41q2 25 2 160q0 74 -1 91q0 12 -6 20q-8 10 -40 19q-1 2 -1 8t1 7q73 8 119 30q-2 -54 -2 -169q0 -125 1 -173q0 -27 21 -35q17 -5 36 -7zM75 589
q15 -34 55 -151q-1 -2 -6 -4.5t-7 -1.5q-45 57 -102 147q-1 0 -0.5 2t1.5 4q6 2 28 4t31 0z" />
    <glyph glyph-name="iacute" unicode="&#xed;" horiz-adv-x="213" 
d="M202 13q0 -15 -3 -16q-9 0 -41.5 1.5t-49.5 1.5q-24 0 -56 -1.5t-37 -1.5q-1 1 -1 8t1 8q27 2 39 8q17 7 18 41q2 25 2 160q0 74 -1 91q0 12 -6 20q-8 10 -40 19q-1 2 -1 8t1 7q73 8 119 30q-2 -54 -2 -169q0 -125 1 -173q0 -27 21 -35q17 -5 36 -7zM146 580q8 3 31.5 5
t28.5 0q1 -1 2 -3.5t0 -3.5q-19 -30 -113 -147q-8 0 -12 8q44 105 63 141z" />
    <glyph glyph-name="icircumflex" unicode="&#xee;" horiz-adv-x="213" 
d="M202 13q0 -15 -3 -16q-9 0 -41.5 1.5t-49.5 1.5q-24 0 -56 -1.5t-37 -1.5q-1 1 -1 8t1 8q27 2 39 8q17 7 18 41q2 25 2 160q0 74 -1 91q0 12 -6 20q-8 10 -40 19q-1 2 -1 8t1 7q73 8 119 30q-2 -54 -2 -169q0 -125 1 -173q0 -27 21 -35q17 -5 36 -7zM98 536
q-12 -22 -32.5 -51.5t-27.5 -36.5q-9 -9 -23 -9q-3 0 -3 3q69 111 84 150q4 7 18 7q11 -30 39.5 -81.5t40.5 -69.5q-5 -8 -30 -8q-5 3 -28 39t-34 57q-2 2 -4 0z" />
    <glyph glyph-name="idieresis" unicode="&#xef;" horiz-adv-x="213" 
d="M202 13q0 -15 -3 -16q-9 0 -41.5 1.5t-49.5 1.5q-24 0 -56 -1.5t-37 -1.5q-1 1 -1 8t1 8q27 2 39 8q17 7 18 41q2 25 2 160q0 74 -1 91q0 12 -6 20q-8 10 -40 19q-1 2 -1 8t1 7q73 8 119 30q-2 -54 -2 -169q0 -125 1 -173q0 -27 21 -35q17 -5 36 -7zM68 537
q0 -28 -19 -37q-4 -2 -16.5 -3t-16.5 1q-20 8 -20 32q0 15 4 23q14 14 37 14q18 0 24 -9q7 -7 7 -21zM216 537q0 -28 -19 -37q-4 -2 -16.5 -3t-16.5 1q-20 8 -20 32q0 15 4 23q14 14 37 14q18 0 24 -9q7 -7 7 -21z" />
    <glyph glyph-name="eth" unicode="&#xf0;" horiz-adv-x="453" 
d="M238 9q46 0 76.5 50t30.5 157q0 76 -16 103q-36 55 -110 55q-40 0 -73.5 -39t-33.5 -120q0 -94 37.5 -150t88.5 -56zM394 585l-81 -40q46 -56 75 -132t29 -154q0 -179 -102 -246q-39 -24 -94 -24q-87 0 -136.5 56.5t-49.5 147.5q0 105 85 164q53 39 123 39q45 0 85 -15
q-19 84 -65 141l-112 -52q-1 0 -2 5.5t-1 11.5t2 7l99 48q-71 90 -188 128q-1 2 1.5 8.5t3.5 7.5q34 -2 103 -34t128 -89l96 45q1 0 1.5 -5.5t0.5 -11t-1 -6.5z" />
    <glyph glyph-name="ntilde" unicode="&#xf1;" horiz-adv-x="468" 
d="M18 13q22 2 35 7q17 6 19 40q2 23 2 162q0 79 -2 93q-2 10 -10.5 16t-36.5 14q-1 2 0 7.5t3 6.5q70 9 117 38q3 0 3 -4q-1 -13 -4 -59q0 -2 1 -3.5t3 -0.5q82 66 138 66q57 0 89 -51q24 -37 24 -114q0 -144 1 -184q0 -19 13 -23q18 -8 43 -11q1 -3 0 -9t-3 -7
q-3 0 -30 1.5t-57 1.5q-35 0 -98 -3q-2 1 -2 8t2 8q30 3 38 6q19 6 21 31q2 31 1.5 109.5t-3.5 101.5q-8 45 -29 64q-22 22 -61 22q-45 0 -81 -33q-10 -10 -10 -36q0 -172 2 -216q1 -34 18 -40q12 -5 42 -9q1 -2 0.5 -8t-1.5 -8q-4 0 -35 1.5t-61 1.5q-34 0 -61 -1.5
t-30 -1.5q-2 1 -2 7.5t2 8.5zM291 528q30 0 58 28q2 -2 2 -3q2 -7 -1 -14q-10 -16 -36 -34t-45 -18q-16 0 -58 12q-23 7 -35 7q-24 0 -53 -26q-1 -1 -4 2q0 12 3 15q7 13 32.5 31t42.5 18q18 0 48 -8q34 -10 46 -10z" />
    <glyph glyph-name="ograve" unicode="&#xf2;" horiz-adv-x="462" 
d="M245 396q85 0 133.5 -55t48.5 -140q0 -55 -23.5 -102.5t-67.5 -75.5q-51 -35 -109 -35q-67 0 -111.5 32t-62 77t-17.5 99q0 105 85 162q55 38 124 38zM213 369q-32 0 -50 -15q-50 -34 -50 -135q0 -89 38.5 -146t99.5 -57q38 0 61 22q38 39 38 132q0 87 -36.5 143
t-100.5 56zM200 589q15 -34 55 -151q-1 -2 -6 -4.5t-7 -1.5q-45 57 -102 147q-1 0 -0.5 2t1.5 4q6 2 28 4t31 0z" />
    <glyph glyph-name="oacute" unicode="&#xf3;" horiz-adv-x="462" 
d="M245 396q85 0 133.5 -55t48.5 -140q0 -55 -23.5 -102.5t-67.5 -75.5q-51 -35 -109 -35q-67 0 -111.5 32t-62 77t-17.5 99q0 105 85 162q55 38 124 38zM213 369q-32 0 -50 -15q-50 -34 -50 -135q0 -89 38.5 -146t99.5 -57q38 0 61 22q38 39 38 132q0 87 -36.5 143
t-100.5 56zM262 580q8 3 31.5 5t28.5 0q1 -1 2 -3.5t0 -3.5q-19 -30 -113 -147q-8 0 -12 8q44 105 63 141z" />
    <glyph glyph-name="ocircumflex" unicode="&#xf4;" horiz-adv-x="462" 
d="M245 396q85 0 133.5 -55t48.5 -140q0 -55 -23.5 -102.5t-67.5 -75.5q-51 -35 -109 -35q-67 0 -111.5 32t-62 77t-17.5 99q0 105 85 162q55 38 124 38zM213 369q-32 0 -50 -15q-50 -34 -50 -135q0 -89 38.5 -146t99.5 -57q38 0 61 22q38 39 38 132q0 87 -36.5 143
t-100.5 56zM222 536q-12 -22 -32.5 -51.5t-27.5 -36.5q-9 -9 -23 -9q-3 0 -3 3q69 111 84 150q4 7 18 7q11 -30 39.5 -81.5t40.5 -69.5q-5 -8 -30 -8q-5 3 -28 39t-34 57q-2 2 -4 0z" />
    <glyph glyph-name="otilde" unicode="&#xf5;" horiz-adv-x="462" 
d="M245 396q85 0 133.5 -55t48.5 -140q0 -55 -23.5 -102.5t-67.5 -75.5q-51 -35 -109 -35q-67 0 -111.5 32t-62 77t-17.5 99q0 105 85 162q55 38 124 38zM213 369q-32 0 -50 -15q-50 -34 -50 -135q0 -89 38.5 -146t99.5 -57q38 0 61 22q38 39 38 132q0 87 -36.5 143
t-100.5 56zM289 528q30 0 58 28q2 -2 2 -3q2 -7 -1 -14q-10 -16 -36 -34t-45 -18q-16 0 -58 12q-23 7 -35 7q-24 0 -53 -26q-1 -1 -4 2q0 12 3 15q7 13 32.5 31t42.5 18q18 0 48 -8q34 -10 46 -10z" />
    <glyph glyph-name="odieresis" unicode="&#xf6;" horiz-adv-x="462" 
d="M245 396q85 0 133.5 -55t48.5 -140q0 -55 -23.5 -102.5t-67.5 -75.5q-51 -35 -109 -35q-67 0 -111.5 32t-62 77t-17.5 99q0 105 85 162q55 38 124 38zM213 369q-32 0 -50 -15q-50 -34 -50 -135q0 -89 38.5 -146t99.5 -57q38 0 61 22q38 39 38 132q0 87 -36.5 143
t-100.5 56zM193 537q0 -28 -19 -37q-4 -2 -16.5 -3t-16.5 1q-20 8 -20 32q0 15 4 23q14 14 37 14q18 0 24 -9q7 -7 7 -21zM341 537q0 -28 -19 -37q-4 -2 -16.5 -3t-16.5 1q-20 8 -20 32q0 15 4 23q14 14 37 14q18 0 24 -9q7 -7 7 -21z" />
    <glyph glyph-name="divide" unicode="&#xf7;" horiz-adv-x="460" 
d="M265 363q0 -21 -18 -41q-3 -3 -17 -4.5t-21 2.5q-15 12 -15 30t5 23q13 13 37 13q18 0 24 -6q5 -10 5 -17zM413 202l-374 -2q-2 0 -2 8q3 20 11 35q4 -1 97 -1h279q1 0 2 -3.5t0 -5.5q-6 -30 -13 -31zM265 105q0 -21 -12 -36q-3 -3 -18.5 -5.5t-22.5 1.5q-18 15 -18 31
q0 17 5 22q13 13 37 13q18 0 24 -6q5 -10 5 -20z" />
    <glyph glyph-name="oslash" unicode="&#xf8;" horiz-adv-x="462" 
d="M245 396q49 0 89 -20l26 40q1 1 8 -5t8 -8l-25 -38q76 -53 76 -164q0 -55 -23.5 -102.5t-67.5 -75.5q-51 -35 -109 -35q-59 0 -103 26l-27 -43q-2 0 -9.5 5.5t-8.5 7.5l27 42q-70 57 -70 170q0 105 85 162q55 38 124 38zM251 16q54 0 78.5 44t24.5 110q0 88 -36 142
l-161 -248q30 -48 94 -48zM216 369q-50 0 -78.5 -39t-28.5 -112q0 -86 35 -134l160 247q-33 38 -88 38z" />
    <glyph glyph-name="ugrave" unicode="&#xf9;" horiz-adv-x="455" 
d="M8 360q-1 2 0.5 8.5t2.5 7.5q79 0 131 16q-5 -27 -5 -187q0 -86 5 -106q15 -61 82 -61q42 0 78 29q10 7 12 28q1 16 1 101.5t-2 125.5q-2 24 -19 29q-11 3 -63 9q-2 1 -1 8t3 8q93 0 155 15q-4 -25 -4 -106l1 -198q0 -30 6 -39.5t22 -9.5q5 0 31 2q0 -16 -2 -17
q-68 -19 -122 -40q-6 0 -6 8v57q0 2 -2 3t-4 0q-72 -63 -129 -63q-113 0 -113 133q0 173 -1 196q-2 30 -14 35q-8 4 -43 8zM188 589q15 -34 55 -151q-1 -2 -6 -4.5t-7 -1.5q-45 57 -102 147q-1 0 -0.5 2t1.5 4q6 2 28 4t31 0z" />
    <glyph glyph-name="uacute" unicode="&#xfa;" horiz-adv-x="455" 
d="M8 360q-1 2 0.5 8.5t2.5 7.5q79 0 131 16q-5 -27 -5 -187q0 -86 5 -106q15 -61 82 -61q42 0 78 29q10 7 12 28q1 16 1 101.5t-2 125.5q-2 24 -19 29q-11 3 -63 9q-2 1 -1 8t3 8q93 0 155 15q-4 -25 -4 -106l1 -198q0 -30 6 -39.5t22 -9.5q5 0 31 2q0 -16 -2 -17
q-68 -19 -122 -40q-6 0 -6 8v57q0 2 -2 3t-4 0q-72 -63 -129 -63q-113 0 -113 133q0 173 -1 196q-2 30 -14 35q-8 4 -43 8zM259 580q8 3 31.5 5t28.5 0q1 -1 2 -3.5t0 -3.5q-19 -30 -113 -147q-8 0 -12 8q44 105 63 141z" />
    <glyph glyph-name="ucircumflex" unicode="&#xfb;" horiz-adv-x="455" 
d="M8 360q-1 2 0.5 8.5t2.5 7.5q79 0 131 16q-5 -27 -5 -187q0 -86 5 -106q15 -61 82 -61q42 0 78 29q10 7 12 28q1 16 1 101.5t-2 125.5q-2 24 -19 29q-11 3 -63 9q-2 1 -1 8t3 8q93 0 155 15q-4 -25 -4 -106l1 -198q0 -30 6 -39.5t22 -9.5q5 0 31 2q0 -16 -2 -17
q-68 -19 -122 -40q-6 0 -6 8v57q0 2 -2 3t-4 0q-72 -63 -129 -63q-113 0 -113 133q0 173 -1 196q-2 30 -14 35q-8 4 -43 8zM218 536q-12 -22 -32.5 -51.5t-27.5 -36.5q-9 -9 -23 -9q-3 0 -3 3q69 111 84 150q4 7 18 7q11 -30 39.5 -81.5t40.5 -69.5q-5 -8 -30 -8
q-5 3 -28 39t-34 57q-2 2 -4 0z" />
    <glyph glyph-name="udieresis" unicode="&#xfc;" horiz-adv-x="455" 
d="M8 360q-1 2 0.5 8.5t2.5 7.5q79 0 131 16q-5 -27 -5 -187q0 -86 5 -106q15 -61 82 -61q42 0 78 29q10 7 12 28q1 16 1 101.5t-2 125.5q-2 24 -19 29q-11 3 -63 9q-2 1 -1 8t3 8q93 0 155 15q-4 -25 -4 -106l1 -198q0 -30 6 -39.5t22 -9.5q5 0 31 2q0 -16 -2 -17
q-68 -19 -122 -40q-6 0 -6 8v57q0 2 -2 3t-4 0q-72 -63 -129 -63q-113 0 -113 133q0 173 -1 196q-2 30 -14 35q-8 4 -43 8zM180 537q0 -28 -19 -37q-4 -2 -16.5 -3t-16.5 1q-20 8 -20 32q0 15 4 23q14 14 37 14q18 0 24 -9q7 -7 7 -21zM328 537q0 -28 -19 -37
q-4 -2 -16.5 -3t-16.5 1q-20 8 -20 32q0 15 4 23q14 14 37 14q18 0 24 -9q7 -7 7 -21z" />
    <glyph glyph-name="yacute" unicode="&#xfd;" horiz-adv-x="394" 
d="M-9 370q-1 2 -0.5 8t2.5 7q3 0 30 -1.5t59 -1.5q24 0 54.5 1.5t32.5 1.5q2 -2 2 -7.5t-1 -7.5q-27 -6 -33 -8q-10 -5 -7 -15q7 -25 48 -133.5t49 -124.5h2q72 160 85 242q4 24 -19 31l-40 8q-1 2 -0.5 8t2.5 7q4 0 33.5 -1.5t47.5 -1.5q5 0 77 3q2 -1 2 -7t-2 -8
q-25 -5 -31 -8q-23 -8 -36 -41q-107 -292 -240 -532l-35 -56l-5 -2q-28 7 -38 24q-3 6 -1 10q109 136 156 238q-6 14 -8 18q-52 141 -98 254q-20 50 -29.5 66t-25.5 21q-14 5 -33 8zM259 580q8 3 31.5 5t28.5 0q1 -1 2 -3.5t0 -3.5q-19 -30 -113 -147q-8 0 -12 8
q44 105 63 141z" />
    <glyph glyph-name="thorn" unicode="&#xfe;" horiz-adv-x="458" 
d="M1 -254q23 4 40 11q21 7 22 44q3 58 3 446q0 303 -5 356q-1 16 -4 21t-11 9q-13 7 -48 9q-1 1 0 7.5t2 7.5q74 5 141 31q4 0 4 -7q-11 -15 -11 -179q0 -44 0.5 -99t0.5 -59t5 -2q87 54 133 54q67 0 109 -51q39 -45 39 -120q0 -122 -90 -185q-25 -19 -66.5 -34t-78.5 -18
q-15 -1 -50 4q0 -151 2 -189q2 -22 7 -29.5t22 -11.5q6 -1 49 -5q1 -2 0 -9t-2 -8h-15h-18.5h-11.5q-33 0 -66.5 -2.5t-62.5 -5.5t-39 -4q-1 3 -1 9.5t1 8.5zM217 349q-30 0 -70 -22q-9 -5 -11 -17q-3 -36 1 -229q0 -19 12 -33q29 -24 82 -24q49 0 80 34q37 42 37 124
q0 75 -33 118q-37 49 -98 49z" />
    <glyph glyph-name="ydieresis" unicode="&#xff;" horiz-adv-x="394" 
d="M-9 370q-1 2 -0.5 8t2.5 7q3 0 30 -1.5t59 -1.5q24 0 54.5 1.5t32.5 1.5q2 -2 2 -7.5t-1 -7.5q-27 -6 -33 -8q-10 -5 -7 -15q7 -25 48 -133.5t49 -124.5h2q72 160 85 242q4 24 -19 31l-40 8q-1 2 -0.5 8t2.5 7q4 0 33.5 -1.5t47.5 -1.5q5 0 77 3q2 -1 2 -7t-2 -8
q-25 -5 -31 -8q-23 -8 -36 -41q-107 -292 -240 -532l-35 -56l-5 -2q-28 7 -38 24q-3 6 -1 10q109 136 156 238q-6 14 -8 18q-52 141 -98 254q-20 50 -29.5 66t-25.5 21q-14 5 -33 8zM179 537q0 -28 -19 -37q-4 -2 -16.5 -3t-16.5 1q-20 8 -20 32q0 15 4 23q14 14 37 14
q18 0 24 -9q7 -7 7 -21zM327 537q0 -28 -19 -37q-4 -2 -16.5 -3t-16.5 1q-20 8 -20 32q0 15 4 23q14 14 37 14q18 0 24 -9q7 -7 7 -21z" />
    <glyph glyph-name="uni0100" unicode="&#x100;" 
d="M-33 13q52 7 69.5 20.5t39.5 65.5q30 73 173 464q10 30 13 48q1 0 10.5 -0.5t17.5 -0.5h13t9.5 0.5t4.5 0.5l12 -44q3 -9 73 -221t88 -258q20 -47 34.5 -58t63.5 -17q2 -2 1 -8.5t-3 -7.5q-75 3 -111 3q-82 0 -118 -3q-1 2 -1 7.5t1 8.5q39 6 49 10q17 8 11 27
q-6 23 -65 197l-4 3q-3 2 -4 2q-10 1 -86 1q-72 0 -83 -1q-6 0 -8 -7q-59 -159 -62 -184q-1 -9 -0.5 -16.5t7.5 -14t22 -9.5q25 -6 43 -8q1 -2 0.5 -8t-2.5 -8q-8 0 -48.5 1.5t-65.5 1.5q-26 0 -57 -1.5t-37 -1.5q-2 1 -2 8t2 8zM266 521q-4 0 -4 -1q-8 -21 -78 -227
q0 -5 4 -6q9 -1 80 -1q61 0 68 1q4 0 2 6zM195 702q20 -2 49 -2h156q0 -8 -5.5 -21.5t-8.5 -14.5q-21 -3 -170 -3l-35 2q0 4 3.5 13t7.5 18z" />
    <glyph glyph-name="uni0101" unicode="&#x101;" horiz-adv-x="377" 
d="M237 259q0 34 -17 57q-27 38 -79 38q-22 0 -36 -9q-23 -16 -40 -72q-1 -1 -6 1.5t-9 7.5t-4 9q0 8 7 26t11 22q30 23 68.5 40t58.5 17q60 0 91 -50q21 -32 21 -98q0 -28 -1.5 -88t-1.5 -77q0 -44 36 -44q19 0 34 5q0 -16 -4 -20q-32 -36 -78 -36q-34 0 -47 24q-5 9 -7 26
q0 1 -1.5 2t-2.5 0q-77 -52 -111 -52q-29 0 -51 22q-33 33 -33 86q0 26 11 48q14 8 91 33t94 34q6 3 6 9v11.5v14.5v13zM236 189q0 1 -1 2t-2 0q-110 -36 -122 -48q-7 -7 -7 -31q0 -32 19 -52.5t50 -20.5q27 0 52 15q9 7 9 21q2 62 2 114zM99 537q8 -2 41 -2h142
q0 -8 -5 -21.5t-7 -14.5q-12 -3 -156 -3q-19 0 -27 2q1 4 12 39z" />
    <glyph glyph-name="uni0102" unicode="&#x102;" 
d="M-33 13q52 7 69.5 20.5t39.5 65.5q30 73 173 464q10 30 13 48q1 0 10.5 -0.5t17.5 -0.5h13t9.5 0.5t4.5 0.5l12 -44q3 -9 73 -221t88 -258q20 -47 34.5 -58t63.5 -17q2 -2 1 -8.5t-3 -7.5q-75 3 -111 3q-82 0 -118 -3q-1 2 -1 7.5t1 8.5q39 6 49 10q17 8 11 27
q-6 23 -65 197l-4 3q-3 2 -4 2q-10 1 -86 1q-72 0 -83 -1q-6 0 -8 -7q-59 -159 -62 -184q-1 -9 -0.5 -16.5t7.5 -14t22 -9.5q25 -6 43 -8q1 -2 0.5 -8t-2.5 -8q-8 0 -48.5 1.5t-65.5 1.5q-26 0 -57 -1.5t-37 -1.5q-2 1 -2 8t2 8zM266 521q-4 0 -4 -1q-8 -21 -78 -227
q0 -5 4 -6q9 -1 80 -1q61 0 68 1q4 0 2 6zM301 681q29 0 48.5 9.5t39.5 34.5q9 9 17 9q3 0 3 -3q-16 -38 -49.5 -63.5t-80.5 -25.5q-39 0 -66.5 18t-27.5 45q0 5 7 14.5t13 14.5h3.5h3.5l1 -1q18 -52 88 -52z" />
    <glyph glyph-name="uni0103" unicode="&#x103;" horiz-adv-x="377" 
d="M237 259q0 34 -17 57q-27 38 -79 38q-22 0 -36 -9q-23 -16 -40 -72q-1 -1 -6 1.5t-9 7.5t-4 9q0 8 7 26t11 22q30 23 68.5 40t58.5 17q60 0 91 -50q21 -32 21 -98q0 -28 -1.5 -88t-1.5 -77q0 -44 36 -44q19 0 34 5q0 -16 -4 -20q-32 -36 -78 -36q-34 0 -47 24q-5 9 -7 26
q0 1 -1.5 2t-2.5 0q-77 -52 -111 -52q-29 0 -51 22q-33 33 -33 86q0 26 11 48q14 8 91 33t94 34q6 3 6 9v11.5v14.5v13zM236 189q0 1 -1 2t-2 0q-110 -36 -122 -48q-7 -7 -7 -31q0 -32 19 -52.5t50 -20.5q27 0 52 15q9 7 9 21q2 62 2 114zM192 501q50 0 77 50q2 2 8 7t8 5
q3 0 3 -4q-11 -42 -42.5 -70.5t-74.5 -28.5q-33 0 -57.5 19t-24.5 50q0 16 27 33q6 0 6 -2q13 -59 70 -59z" />
    <glyph glyph-name="uni0104" unicode="&#x104;" 
d="M443 -193q-25 0 -43.5 16t-18.5 48q0 48 92 129q-80 0 -116 -3q-1 2 -1 7.5t1 8.5q39 6 49 10q17 8 11 27q-6 23 -65 197l-4 3q-3 2 -4 2q-10 1 -86 1q-72 0 -83 -1q-6 0 -8 -7q-59 -159 -62 -184q-1 -9 -0.5 -16.5t7.5 -14t22 -9.5q22 -5 43 -8q1 -2 0.5 -8t-2.5 -8
q-8 0 -48.5 1.5t-65.5 1.5q-26 0 -57 -1.5t-37 -1.5q-1 1 -1 8t1 8q52 7 69.5 20.5t39.5 65.5q70 169 172 461q12 37 14 51q1 0 10.5 -0.5t17.5 -0.5h13t9.5 0.5t4.5 0.5l13 -47q5 -15 74 -223t86 -253q20 -47 34.5 -58t63.5 -17q1 -2 0.5 -8.5t-2.5 -7.5q-63 3 -95 3
q-52 -56 -52 -105q0 -37 43 -37q24 0 46 17q1 -3 0.5 -10.5t-1.5 -9.5q-31 -48 -84 -48zM266 521q-4 0 -4 -1q-8 -21 -78 -227q0 -5 4 -6q9 -1 80 -1q61 0 68 1q4 0 2 6z" />
    <glyph glyph-name="uni0105" unicode="&#x105;" horiz-adv-x="377" 
d="M237 259q0 34 -17 57q-27 38 -79 38q-22 0 -36 -9q-23 -16 -40 -72q-1 -1 -6 1.5t-9 7.5t-4 9q0 8 7 26t11 22q30 23 68.5 40t58.5 17q60 0 91 -50q21 -32 21 -98q0 -28 -1.5 -88t-1.5 -77q0 -44 36 -44q19 0 34 5q0 -16 -4 -20q-16 -17 -38 -28q-59 -49 -59 -95
q0 -36 41 -36q23 0 44 16q4 -9 -1 -19q-30 -46 -80 -46q-24 0 -41.5 15t-17.5 46q0 48 83 112q-42 -4 -56 23q-5 9 -7 26q0 1 -1.5 2t-2.5 0q-77 -52 -111 -52q-29 0 -51 22q-33 33 -33 86q0 26 11 48q14 8 91 33t94 34q6 3 6 9v11.5v14.5v13zM236 189q0 1 -1 2t-2 0
q-110 -36 -122 -48q-7 -7 -7 -31q0 -32 19 -52.5t50 -20.5q27 0 52 15q9 7 9 21q2 62 2 114z" />
    <glyph glyph-name="uni0106" unicode="&#x106;" horiz-adv-x="641" 
d="M558 463q-7 56 -18.5 80.5t-37.5 37.5q-47 24 -126 24q-111 0 -174 -75.5t-63 -209.5q0 -141 72.5 -224.5t198.5 -83.5q77 0 119 40q30 30 65 92q2 1 8 -2t7 -6q-10 -38 -34 -81t-41 -52q-68 -21 -144 -21q-162 0 -251.5 85.5t-89.5 243.5q0 86 39 157.5t117 113.5
q84 46 205 46q43 0 111.5 -9.5t73.5 -9.5q-16 -64 -18 -144q-1 -2 -6 -3t-9 -1t-4 2zM445 783q9 -1 27 -9t23 -14q1 -1 1 -4t-1 -4q-8 -9 -74 -51t-72 -42q-2 0 -5.5 5t-2.5 7q10 13 52 59.5t52 52.5z" />
    <glyph glyph-name="uni0107" unicode="&#x107;" horiz-adv-x="377" 
d="M362 68q-66 -80 -155 -80q-85 0 -133 65q-39 53 -39 131q0 116 96 172q67 40 126 40q45 0 73 -12q24 -12 29 -25q0 -9 -2 -12q-13 -27 -30 -35q-5 -2 -9 0q-49 52 -105 52q-51 0 -79.5 -41t-28.5 -98q0 -82 37 -127q41 -54 113 -54q64 0 107 46q3 0 3 -3q0 -15 -3 -19z
M258 580q8 3 31.5 5t28.5 0q1 -1 2 -3.5t0 -3.5q-19 -30 -113 -147q-8 0 -12 8q44 105 63 141z" />
    <glyph glyph-name="uni0108" unicode="&#x108;" horiz-adv-x="641" 
d="M558 463q-7 56 -18.5 80.5t-37.5 37.5q-47 24 -126 24q-111 0 -174 -75.5t-63 -209.5q0 -141 72.5 -224.5t198.5 -83.5q77 0 119 40q30 30 65 92q2 1 8 -2t7 -6q-10 -38 -34 -81t-41 -52q-68 -21 -144 -21q-162 0 -251.5 85.5t-89.5 243.5q0 86 39 157.5t117 113.5
q84 46 205 46q43 0 111.5 -9.5t73.5 -9.5q-16 -64 -18 -144q-1 -2 -6 -3t-9 -1t-4 2zM367 772q4 4 12 4q8 -10 56 -49t67 -51q0 -3 -3 -8.5t-5 -5.5q-4 0 -54 22t-64 29q-4 2 -9 0q-97 -51 -109 -51q-2 0 -4.5 5t-1.5 9q73 54 115 96z" />
    <glyph glyph-name="uni0109" unicode="&#x109;" horiz-adv-x="377" 
d="M362 68q-66 -80 -155 -80q-85 0 -133 65q-39 53 -39 131q0 116 96 172q67 40 126 40q45 0 73 -12q24 -12 29 -25q0 -9 -2 -12q-13 -27 -30 -35q-5 -2 -9 0q-49 52 -105 52q-51 0 -79.5 -41t-28.5 -98q0 -82 37 -127q41 -54 113 -54q64 0 107 46q3 0 3 -3q0 -15 -3 -19z
M217 536q-12 -22 -32.5 -51.5t-27.5 -36.5q-9 -9 -23 -9q-3 0 -3 3q69 111 84 150q1 2 7.5 4.5t10.5 2.5q11 -30 39.5 -81.5t40.5 -69.5q-5 -8 -30 -8q-5 3 -28 39t-34 57q-2 2 -4 0z" />
    <glyph glyph-name="uni010A" unicode="&#x10a;" horiz-adv-x="641" 
d="M558 463q-7 56 -18.5 80.5t-37.5 37.5q-47 24 -126 24q-111 0 -174 -75.5t-63 -209.5q0 -141 72.5 -224.5t198.5 -83.5q77 0 119 40q30 30 65 92q2 1 8 -2t7 -6q-10 -38 -34 -81t-41 -52q-68 -21 -144 -21q-162 0 -251.5 85.5t-89.5 243.5q0 86 39 157.5t117 113.5
q84 46 205 46q43 0 111.5 -9.5t73.5 -9.5q-16 -64 -18 -144q-1 -2 -6 -3t-9 -1t-4 2zM422 720q0 -30 -20 -39q-4 -2 -18 -3.5t-19 0.5q-21 10 -21 35q-2 16 5 24q13 15 39 15q12 0 26 -9q8 -8 8 -23z" />
    <glyph glyph-name="uni010B" unicode="&#x10b;" horiz-adv-x="377" 
d="M362 68q-66 -80 -155 -80q-85 0 -133 65q-39 53 -39 131q0 116 96 172q67 40 126 40q45 0 73 -12q24 -12 29 -25q0 -9 -2 -12q-13 -27 -30 -35q-5 -2 -9 0q-49 52 -105 52q-51 0 -79.5 -41t-28.5 -98q0 -82 37 -127q41 -54 113 -54q64 0 107 46q3 0 3 -3q0 -15 -3 -19z
M267 537q0 -29 -20 -39q-5 -2 -19 -3.5t-19 0.5q-22 10 -22 36q-2 16 5 24q13 15 40 15q17 0 26 -9t9 -24z" />
    <glyph glyph-name="uni010C" unicode="&#x10c;" horiz-adv-x="641" 
d="M558 463q-7 56 -18.5 80.5t-37.5 37.5q-47 24 -126 24q-111 0 -174 -75.5t-63 -209.5q0 -141 72.5 -224.5t198.5 -83.5q77 0 119 40q30 30 65 92q2 1 8 -2t7 -6q-10 -38 -34 -81t-41 -52q-68 -21 -144 -21q-162 0 -251.5 85.5t-89.5 243.5q0 86 39 157.5t117 113.5
q84 46 205 46q43 0 111.5 -9.5t73.5 -9.5q-16 -64 -18 -144q-1 -2 -6 -3t-9 -1t-4 2zM384 665q-2 -4 -11 -4q-9 10 -57 49t-66 51q0 3 3 8.5t5 5.5q4 0 54.5 -21.5t62.5 -28.5q7 -2 10 0q15 8 60 29t49 21q2 0 4.5 -5t1.5 -9q-77 -57 -116 -96z" />
    <glyph glyph-name="uni010D" unicode="&#x10d;" horiz-adv-x="377" 
d="M362 68q-66 -80 -155 -80q-85 0 -133 65q-39 53 -39 131q0 116 96 172q67 40 126 40q45 0 73 -12q24 -12 29 -25q0 -9 -2 -12q-13 -27 -30 -35q-5 -2 -9 0q-49 52 -105 52q-51 0 -79.5 -41t-28.5 -98q0 -82 37 -127q41 -54 113 -54q64 0 107 46q3 0 3 -3q0 -15 -3 -19z
M228 497q12 22 32.5 52t28.5 37q11 9 23 9q3 0 3 -3q-69 -111 -84 -150q-1 -2 -7.5 -4.5t-10.5 -2.5q-11 30 -39.5 81.5t-40.5 69.5q5 8 30 8q5 -3 26.5 -38t34.5 -59q2 -2 4 0z" />
    <glyph glyph-name="uni010E" unicode="&#x10e;" horiz-adv-x="683" 
d="M24 598q-1 1 0 7.5t2 7.5q72 -3 115 -3q31 0 89.5 2t98.5 2q134 0 212 -68q93 -81 93 -227q0 -173 -132 -262q-93 -64 -225 -64q-30 0 -87 2t-101 2h-72q-2 1 -2 8t2 8q39 4 55 9q10 3 15 6.5t10 14t6 28.5q3 61 3 252q0 175 -2 212q-2 28 -7 38.5t-23 15.5q-20 6 -50 9z
M185 78q2 -24 20 -36q31 -21 117 -21q92 0 147 55q77 79 77 227q0 165 -111 244q-62 43 -186 43q-38 0 -53 -5q-10 -8 -11 -21q-2 -29 -2 -253q0 -201 2 -233zM315 654q-2 -4 -11 -4q-9 10 -57 49t-66 51q0 3 3 8.5t5 5.5q4 0 54.5 -21.5t62.5 -28.5q7 -2 10 0q15 8 60 29
t49 21q2 0 4.5 -5t1.5 -9q-77 -57 -116 -96z" />
    <glyph glyph-name="uni010F" unicode="&#x10f;" horiz-adv-x="464" 
d="M455 39q1 -3 0 -8.5t-2 -6.5q-16 -9 -62 -25.5t-60 -17.5q-6 0 -6 12q-2 16 -2 51q0 4 -4 2q-81 -58 -138 -58q-62 0 -102 51q-44 52 -44 138q0 45 18.5 87t50.5 70q33 27 81 44.5t91 17.5q6 0 46 -5q4 0 4 3q0 187 -2 213q-3 29 -22 34q-24 7 -47 9q-2 7 2 15
q92 0 148 23q3 -2 3 -8q-7 -13 -10 -90q-3 -83 -3 -294q0 -164 2 -218q1 -25 5 -32.5t13 -8.5q20 -1 40 2zM222 364q-47 0 -76 -30q-39 -40 -39 -123q0 -80 38 -126t95 -46q46 0 75 24q7 6 9 18q2 21 2.5 101t-0.5 111q-2 19 -6.5 29t-17.5 20q-31 22 -80 22zM504 693
q5 0 5 -13q0 -25 -5.5 -85.5t-10.5 -88.5q-5 -17 -17 -25q-4 -2 -4 3q0 42 -11 163q0 5 2 8q29 38 41 38z" />
    <glyph glyph-name="uni0110" unicode="&#x110;" horiz-adv-x="683" 
d="M24 598q-1 1 0 7.5t2 7.5q72 -3 115 -3q31 0 89.5 2t98.5 2q134 0 212 -68q93 -81 93 -227q0 -173 -132 -262q-93 -64 -225 -64q-30 0 -87 2t-101 2h-72q-2 1 -2 8t2 8q39 4 55 9q10 3 15 6.5t10 14t6 28.5q3 57 3 233q-72 -2 -85 -2q0 18 5 26h80q0 171 -2 207
q-2 28 -7 38.5t-23 15.5q-20 6 -50 9zM185 78q2 -24 20 -36q31 -21 117 -21q92 0 147 55q77 79 77 227q0 165 -111 244q-62 43 -186 43q-38 0 -53 -5q-10 -8 -11 -21q-2 -28 -2 -236h81t73.5 0.5t30.5 0.5q0 -14 -4 -26q-31 0 -91 0.5t-90 0.5q0 -195 2 -226z" />
    <glyph glyph-name="uni0111" unicode="&#x111;" horiz-adv-x="473" 
d="M35 176q0 45 18.5 88t50.5 70q33 27 83 44.5t95 17.5q32 0 40 -3q4 0 4 3v109q-24 0 -62 -0.5t-49 -0.5q0 17 6 25h105q0 58 -2 81q-1 25 -20 32q-11 3 -50 8q0 6 3 15q77 0 148 23q3 -3 3 -6q-10 -17 -12 -90l-1 -64h37l21 1q0 -12 -4 -24h-54v-209q0 -204 2 -230
q1 -18 3.5 -26.5t5 -10.5t8.5 -3q24 -4 53 2q0 -11 -4 -15q-13 -7 -63 -18.5t-69 -13.5q-6 0 -6 12q-2 16 -2 49q0 4 -5 2q-32 -22 -72 -39t-66 -17q-63 0 -103 51q-42 49 -42 137zM222 365q-46 0 -76 -33q-40 -41 -40 -120t38 -126t94 -47q46 0 75 23q9 6 11 18
q2 21 2.5 101.5t-0.5 111.5q-3 36 -27 52q-28 20 -77 20z" />
    <glyph glyph-name="uni0112" unicode="&#x112;" horiz-adv-x="505" 
d="M28 598q-2 2 -1.5 7.5t2.5 7.5q8 0 45 -1.5t68 -1.5h191q80 0 105 4l3 -3q-10 -37 -18 -131q-2 -2 -8.5 -2t-8.5 1q-2 36 -11 64q-6 19 -16 28t-36 10q-21 2 -78 2t-71 -2q-10 -1 -10 -14q-1 -31 -2 -123.5t0 -107.5q0 -8 4 -8q20 -1 76 -1t79 2q14 1 23 6.5t12.5 11.5
t7.5 17q6 16 9 35q2 1 9.5 1t8.5 -1q-7 -42 -7 -90q0 -22 1 -49t1 -34q-2 -3 -9 -3t-8 2q-3 21 -7 35q-8 32 -40 35q-19 1 -77.5 1.5t-77.5 -0.5q-5 0 -5 -8q-1 -19 0 -98.5t2 -122.5q1 -31 23 -35q30 -6 122 -6q29 0 47 4t24.5 8t15.5 13q26 23 55 93q1 1 7 -2t7 -5
q-3 -21 -17.5 -66.5t-22.5 -62.5q-5 -8 -14 -9.5t-45 -1.5q-20 0 -92 1.5t-151 1.5q-35 0 -77 -1.5t-60 -1.5q-2 1 -2 7.5t2 8.5q50 4 64 8q17 5 24.5 16.5t9.5 40.5q2 48 2 253q0 167 -2 207q-2 28 -7.5 38t-23.5 14q-14 5 -45 8zM159 713q20 -2 49 -2h156q0 -8 -5.5 -21.5
t-8.5 -14.5q-21 -3 -170 -3l-35 2q0 4 3.5 13t7.5 17z" />
    <glyph glyph-name="uni0113" unicode="&#x113;" horiz-adv-x="386" 
d="M358 86q4 0 4 -3q2 -9 -2 -17q-72 -78 -156 -78q-74 0 -117 48q-52 56 -52 153q0 121 86 175q20 13 51 22.5t51 9.5q43 0 73.5 -25.5t42 -53t16.5 -57.5q2 -7 12 -8q3 -10 -4 -13q-53 -18 -255 -23q-6 0 -6 -11q2 -67 37 -110q41 -51 110 -51q65 0 109 42zM191 370
q-35 0 -59 -32.5t-27 -90.5q0 -6 3 -6q22 -2 88 0.5t81 6.5q6 3 6 8q-5 45 -28.5 79.5t-63.5 34.5zM123 537q8 -2 41 -2h142q0 -8 -5 -21.5t-7 -14.5q-12 -3 -156 -3q-19 0 -27 2q1 4 12 39z" />
    <glyph glyph-name="uni0114" unicode="&#x114;" horiz-adv-x="505" 
d="M28 598q-2 2 -1.5 7.5t2.5 7.5q8 0 45 -1.5t68 -1.5h191q80 0 105 4l3 -3q-10 -37 -18 -131q-2 -2 -8.5 -2t-8.5 1q-2 36 -11 64q-6 19 -16 28t-36 10q-21 2 -78 2t-71 -2q-10 -1 -10 -14q-1 -31 -2 -123.5t0 -107.5q0 -8 4 -8q20 -1 76 -1t79 2q14 1 23 6.5t12.5 11.5
t7.5 17q6 16 9 35q2 1 9.5 1t8.5 -1q-7 -42 -7 -90q0 -22 1 -49t1 -34q-2 -3 -9 -3t-8 2q-3 21 -7 35q-8 32 -40 35q-19 1 -77.5 1.5t-77.5 -0.5q-5 0 -5 -8q-1 -19 0 -98.5t2 -122.5q1 -31 23 -35q30 -6 122 -6q29 0 47 4t24.5 8t15.5 13q26 23 55 93q1 1 7 -2t7 -5
q-3 -21 -17.5 -66.5t-22.5 -62.5q-5 -8 -14 -9.5t-45 -1.5q-20 0 -92 1.5t-151 1.5q-35 0 -77 -1.5t-60 -1.5q-2 1 -2 7.5t2 8.5q50 4 64 8q17 5 24.5 16.5t9.5 40.5q2 48 2 253q0 167 -2 207q-2 28 -7.5 38t-23.5 14q-14 5 -45 8zM270 692q29 0 48.5 9.5t39.5 34.5
q9 9 17 9q3 0 3 -3q-16 -38 -49.5 -63.5t-80.5 -25.5q-39 0 -66.5 18t-27.5 45q0 5 7 14.5t13 14.5h3.5t2.5 -1h2q18 -52 88 -52z" />
    <glyph glyph-name="uni0115" unicode="&#x115;" horiz-adv-x="386" 
d="M358 86q4 0 4 -3q2 -9 -2 -17q-72 -78 -156 -78q-74 0 -117 48q-52 56 -52 153q0 121 86 175q20 13 51 22.5t51 9.5q43 0 73.5 -25.5t42 -53t16.5 -57.5q2 -7 12 -8q3 -10 -4 -13q-53 -18 -255 -23q-6 0 -6 -11q2 -67 37 -110q41 -51 110 -51q65 0 109 42zM191 370
q-35 0 -59 -32.5t-27 -90.5q0 -6 3 -6q22 -2 88 0.5t81 6.5q6 3 6 8q-5 45 -28.5 79.5t-63.5 34.5zM218 501q50 0 77 50q2 2 8 7t8 5q3 0 3 -4q-11 -42 -42.5 -70.5t-74.5 -28.5q-33 0 -57.5 19t-24.5 50q0 16 27 33q6 0 6 -2q13 -59 70 -59z" />
    <glyph glyph-name="uni0116" unicode="&#x116;" horiz-adv-x="505" 
d="M28 598q-2 2 -1.5 7.5t2.5 7.5q8 0 45 -1.5t68 -1.5h191q80 0 105 4l3 -3q-10 -37 -18 -131q-2 -2 -8.5 -2t-8.5 1q-2 36 -11 64q-6 19 -16 28t-36 10q-21 2 -78 2t-71 -2q-10 -1 -10 -14q-1 -31 -2 -123.5t0 -107.5q0 -8 4 -8q20 -1 76 -1t79 2q14 1 23 6.5t12.5 11.5
t7.5 17q6 16 9 35q2 1 9.5 1t8.5 -1q-7 -42 -7 -90q0 -22 1 -49t1 -34q-2 -3 -9 -3t-8 2q-3 21 -7 35q-8 32 -40 35q-19 1 -77.5 1.5t-77.5 -0.5q-5 0 -5 -8q-1 -19 0 -98.5t2 -122.5q1 -31 23 -35q30 -6 122 -6q29 0 47 4t24.5 8t15.5 13q26 23 55 93q1 1 7 -2t7 -5
q-3 -21 -17.5 -66.5t-22.5 -62.5q-5 -8 -14 -9.5t-45 -1.5q-20 0 -92 1.5t-151 1.5q-35 0 -77 -1.5t-60 -1.5q-2 1 -2 7.5t2 8.5q50 4 64 8q17 5 24.5 16.5t9.5 40.5q2 48 2 253q0 167 -2 207q-2 28 -7.5 38t-23.5 14q-14 5 -45 8zM298 701q0 -30 -20 -39q-4 -2 -18 -3.5
t-19 0.5q-21 10 -21 35q-2 16 5 24q13 15 39 15q12 0 26 -9q8 -8 8 -23z" />
    <glyph glyph-name="uni0117" unicode="&#x117;" horiz-adv-x="386" 
d="M358 86q4 0 4 -3q2 -9 -2 -17q-72 -78 -156 -78q-74 0 -117 48q-52 56 -52 153q0 121 86 175q20 13 51 22.5t51 9.5q43 0 73.5 -25.5t42 -53t16.5 -57.5q2 -7 12 -8q3 -10 -4 -13q-53 -18 -255 -23q-6 0 -6 -11q2 -67 37 -110q41 -51 110 -51q65 0 109 42zM191 370
q-35 0 -59 -32.5t-27 -90.5q0 -6 3 -6q22 -2 88 0.5t81 6.5q6 3 6 8q-5 45 -28.5 79.5t-63.5 34.5zM248 537q0 -29 -20 -39q-5 -2 -19 -3.5t-19 0.5q-22 10 -22 36q-2 16 5 24q13 15 40 15q17 0 26 -9t9 -24z" />
    <glyph glyph-name="uni0118" unicode="&#x118;" horiz-adv-x="505" 
d="M6 13q50 4 64 8q17 5 24.5 16.5t9.5 40.5q2 48 2 253q0 167 -2 207q-2 28 -7.5 38t-23.5 14q-14 5 -45 8q-2 2 -1.5 7.5t2.5 7.5q8 0 45 -1.5t68 -1.5h191q80 0 105 4l3 -3q-10 -36 -18 -132q-2 -2 -8.5 -2t-8.5 1q-2 37 -11 65q-6 19 -16.5 28t-35.5 10q-20 2 -77.5 2
t-71.5 -2q-10 -1 -10 -14q-1 -31 -2 -123t0 -108q0 -8 5 -8q20 -1 75.5 -1t78.5 2q20 1 29 9.5t14 25.5q6 19 9 35q2 1 9.5 1t8.5 -1q-7 -40 -7 -90q0 -22 1 -49t1 -34q-2 -3 -9 -3t-8 2q-4 24 -7 36q-8 31 -40 34q-20 1 -78 1.5t-77 -0.5q-5 0 -5 -8q-1 -21 0 -98.5
t2 -122.5q1 -31 23 -35q30 -6 122 -6q29 0 47 4t24.5 8t15.5 13q26 23 55 93q1 1 7 -2t7 -5q-3 -17 -16.5 -62.5t-23.5 -66.5q-6 -10 -35 -11q-49 -57 -49 -102q0 -37 43 -37q24 0 46 17q4 -9 -1 -20q-31 -48 -84 -48q-25 0 -43.5 16t-18.5 48q0 44 87 126q-26 0 -99 1.5
t-148 1.5q-35 0 -77 -1.5t-60 -1.5q-2 1 -2 7.5t2 8.5z" />
    <glyph glyph-name="uni0119" unicode="&#x119;" horiz-adv-x="386" 
d="M358 86q4 0 4 -3q2 -9 -2 -17q-41 -46 -95 -66q-53 -45 -53 -92q0 -36 41 -36q23 0 45 16q1 -2 0 -9.5t-2 -9.5q-29 -46 -79 -46q-24 0 -41.5 15.5t-17.5 46.5q0 46 76 106q-15 -3 -30 -3q-74 0 -117 48q-52 56 -52 153q0 120 86 176q47 31 102 31q43 0 73.5 -25.5
t42 -53t16.5 -57.5q2 -7 12 -8q3 -10 -4 -13q-19 -7 -107.5 -14t-147.5 -9q-6 0 -6 -11q2 -67 37 -110q41 -51 110 -51q65 0 109 42zM191 370q-34 0 -58.5 -34.5t-27.5 -91.5q0 -4 3 -4q143 3 172 8q4 2 4 8q-4 44 -28.5 79t-64.5 35z" />
    <glyph glyph-name="uni011A" unicode="&#x11a;" horiz-adv-x="505" 
d="M28 598q-2 2 -1.5 7.5t2.5 7.5q8 0 45 -1.5t68 -1.5h191q80 0 105 4l3 -3q-10 -37 -18 -131q-2 -2 -8.5 -2t-8.5 1q-2 36 -11 64q-6 19 -16 28t-36 10q-21 2 -78 2t-71 -2q-10 -1 -10 -14q-1 -31 -2 -123.5t0 -107.5q0 -8 4 -8q20 -1 76 -1t79 2q14 1 23 6.5t12.5 11.5
t7.5 17q6 16 9 35q2 1 9.5 1t8.5 -1q-7 -42 -7 -90q0 -22 1 -49t1 -34q-2 -3 -9 -3t-8 2q-3 21 -7 35q-8 32 -40 35q-19 1 -77.5 1.5t-77.5 -0.5q-5 0 -5 -8q-1 -19 0 -98.5t2 -122.5q1 -31 23 -35q30 -6 122 -6q29 0 47 4t24.5 8t15.5 13q26 23 55 93q1 1 7 -2t7 -5
q-3 -21 -17.5 -66.5t-22.5 -62.5q-5 -8 -14 -9.5t-45 -1.5q-20 0 -92 1.5t-151 1.5q-35 0 -77 -1.5t-60 -1.5q-2 1 -2 7.5t2 8.5q50 4 64 8q17 5 24.5 16.5t9.5 40.5q2 48 2 253q0 167 -2 207q-2 28 -7.5 38t-23.5 14q-14 5 -45 8zM265 653q-2 -4 -11 -4q-9 10 -57 49
t-66 51q0 3 3 8.5t5 5.5q4 0 54.5 -21.5t62.5 -28.5q7 -2 10 0q15 8 60 29t49 21q2 0 4.5 -5t1.5 -9q-77 -57 -116 -96z" />
    <glyph glyph-name="uni011B" unicode="&#x11b;" horiz-adv-x="386" 
d="M358 86q4 0 4 -3q2 -9 -2 -17q-72 -78 -156 -78q-74 0 -117 48q-52 56 -52 153q0 121 86 175q20 13 51 22.5t51 9.5q43 0 73.5 -25.5t42 -53t16.5 -57.5q2 -7 12 -8q3 -10 -4 -13q-53 -18 -255 -23q-6 0 -6 -11q2 -67 37 -110q41 -51 110 -51q65 0 109 42zM191 370
q-35 0 -59 -32.5t-27 -90.5q0 -6 3 -6q22 -2 88 0.5t81 6.5q6 3 6 8q-5 45 -28.5 79.5t-63.5 34.5zM210 497q12 22 32.5 52t28.5 37q11 9 23 9q3 0 3 -3q-69 -111 -84 -150q-1 -2 -7.5 -4.5t-10.5 -2.5q-11 30 -39.5 81.5t-40.5 69.5q5 8 30 8q5 -3 26.5 -38t34.5 -59
q2 -2 4 0z" />
    <glyph glyph-name="uni011C" unicode="&#x11c;" horiz-adv-x="665" 
d="M605 33q1 -2 0 -7.5t-2 -6.5q-143 -37 -208 -37q-169 0 -257.5 82.5t-88.5 245.5q0 95 46 169.5t127 110.5q84 38 192 38q44 0 112 -10.5t72 -10.5q-12 -46 -16 -146q-2 -3 -8.5 -3.5t-10.5 1.5q-4 54 -15 78.5t-33 36.5q-48 29 -137 29q-116 0 -177 -75.5t-61 -210.5
q0 -138 70.5 -225t197.5 -87q45 0 71 10q24 9 27 46q6 66 2 115q-2 29 -9.5 39.5t-30.5 14.5q-7 1 -13.5 2t-16.5 2t-19 2q-2 2 -2 8t2 8q17 0 60 -1.5t67 -1.5q60 0 94 3q2 -2 2 -8t-2 -8q-23 -5 -32 -8q-14 -4 -18.5 -15.5t-5.5 -40.5q-5 -81 -1 -112q2 -14 5.5 -18.5
t16.5 -8.5zM367 771q4 4 12 4q8 -10 56 -49t67 -51q0 -3 -3 -8.5t-5 -5.5q-4 0 -54 22t-64 29q-4 2 -9 0q-97 -51 -109 -51q-2 0 -4.5 5t-1.5 9q73 54 115 96z" />
    <glyph glyph-name="uni011D" unicode="&#x11d;" horiz-adv-x="405" 
d="M209 396q37 0 79 -17q27 -10 58 -10q27 0 38.5 4t22.5 15q1 1 4 -1t3 -4q0 -6 -8 -24.5t-16 -24.5q-11 -8 -32 -8q-9 0 -25 1q-3 0 -1 -5q12 -26 12 -66q0 -84 -57 -127q-46 -36 -109 -42q-4 -1 -14 -1q-10 -2 -20 -9.5t-10 -18.5q0 -14 11.5 -22t24.5 -10q12 -2 49 -5
t68.5 -7t45.5 -8q73 -24 73 -99q0 -50 -32.5 -94t-85.5 -72q-51 -27 -109 -27q-65 0 -109 33q-50 36 -50 94q0 27 7 35q17 20 99 83q0 1 -1 3q-29 8 -48 28.5t-19 39.5q0 4 2 12q56 32 70 43q1 1 1 3t-2 2q-41 14 -66.5 51.5t-25.5 94.5q0 72 55 117q24 18 58 30.5t59 12.5z
M176 369q-34 0 -52.5 -30.5t-18.5 -78.5q0 -60 26.5 -102t74.5 -42q28 0 46 18q27 27 27 96q0 55 -25 97t-78 42zM221 -244q67 0 97.5 29.5t30.5 75.5q0 57 -52 76q-43 19 -122 19q-21 0 -36 -10q-57 -38 -57 -84q0 -44 36 -74q39 -32 103 -32zM194 536q-12 -22 -32.5 -51.5
t-27.5 -36.5q-9 -9 -23 -9q-3 0 -3 3q69 111 84 150q4 7 18 7q11 -30 39.5 -81.5t40.5 -69.5q-5 -8 -30 -8q-5 3 -28 39t-34 57q-2 2 -4 0z" />
    <glyph glyph-name="uni011E" unicode="&#x11e;" horiz-adv-x="665" 
d="M605 33q1 -2 0 -7.5t-2 -6.5q-143 -37 -208 -37q-169 0 -257.5 82.5t-88.5 245.5q0 95 46 169.5t127 110.5q84 38 192 38q44 0 112 -10.5t72 -10.5q-12 -46 -16 -146q-2 -3 -8.5 -3.5t-10.5 1.5q-4 54 -15 78.5t-33 36.5q-48 29 -137 29q-116 0 -177 -75.5t-61 -210.5
q0 -138 70.5 -225t197.5 -87q45 0 71 10q24 9 27 46q6 66 2 115q-2 29 -9.5 39.5t-30.5 14.5q-7 1 -13.5 2t-16.5 2t-19 2q-2 2 -2 8t2 8q17 0 60 -1.5t67 -1.5q60 0 94 3q2 -2 2 -8t-2 -8q-23 -5 -32 -8q-14 -4 -18.5 -15.5t-5.5 -40.5q-5 -81 -1 -112q2 -14 5.5 -18.5
t16.5 -8.5zM387 710q29 0 48.5 9.5t39.5 34.5q9 9 17 9q3 0 3 -3q-16 -38 -49.5 -63.5t-80.5 -25.5q-39 0 -66.5 18t-27.5 45q0 5 7 14.5t13 14.5h3.5t3.5 -1h1q18 -52 88 -52z" />
    <glyph glyph-name="uni011F" unicode="&#x11f;" horiz-adv-x="405" 
d="M209 396q37 0 79 -17q27 -10 58 -10q27 0 38.5 4t22.5 15q1 1 4 -1t3 -4q0 -6 -8 -24.5t-16 -24.5q-11 -8 -32 -8q-9 0 -25 1q-3 0 -1 -5q12 -26 12 -66q0 -84 -57 -127q-46 -36 -109 -42q-4 -1 -14 -1q-10 -2 -20 -9.5t-10 -18.5q0 -14 11.5 -22t24.5 -10q12 -2 49 -5
t68.5 -7t45.5 -8q73 -24 73 -99q0 -50 -32.5 -94t-85.5 -72q-51 -27 -109 -27q-65 0 -109 33q-50 36 -50 94q0 27 7 35q17 20 99 83q0 1 -1 3q-29 8 -48 28.5t-19 39.5q0 4 2 12q56 32 70 43q1 1 1 3t-2 2q-41 14 -66.5 51.5t-25.5 94.5q0 72 55 117q24 18 58 30.5t59 12.5z
M176 369q-34 0 -52.5 -30.5t-18.5 -78.5q0 -60 26.5 -102t74.5 -42q28 0 46 18q27 27 27 96q0 55 -25 97t-78 42zM221 -244q67 0 97.5 29.5t30.5 75.5q0 57 -52 76q-43 19 -122 19q-21 0 -36 -10q-57 -38 -57 -84q0 -44 36 -74q39 -32 103 -32zM214 501q50 0 77 50q2 2 8 7
t8 5q3 0 3 -4q-11 -42 -42.5 -70.5t-74.5 -28.5q-33 0 -57.5 19t-24.5 50q0 16 27 33q6 0 6 -2q13 -59 70 -59z" />
    <glyph glyph-name="uni0120" unicode="&#x120;" horiz-adv-x="665" 
d="M605 33q1 -2 0 -7.5t-2 -6.5q-143 -37 -208 -37q-169 0 -257.5 82.5t-88.5 245.5q0 95 46 169.5t127 110.5q84 38 192 38q44 0 112 -10.5t72 -10.5q-12 -46 -16 -146q-2 -3 -8.5 -3.5t-10.5 1.5q-4 54 -15 78.5t-33 36.5q-48 29 -137 29q-116 0 -177 -75.5t-61 -210.5
q0 -138 70.5 -225t197.5 -87q45 0 71 10q24 9 27 46q6 66 2 115q-2 29 -9.5 39.5t-30.5 14.5q-7 1 -13.5 2t-16.5 2t-19 2q-2 2 -2 8t2 8q17 0 60 -1.5t67 -1.5q60 0 94 3q2 -2 2 -8t-2 -8q-23 -5 -32 -8q-14 -4 -18.5 -15.5t-5.5 -40.5q-5 -81 -1 -112q2 -14 5.5 -18.5
t16.5 -8.5zM416 716q0 -30 -20 -39q-4 -2 -18 -3.5t-19 0.5q-21 10 -21 35q-2 16 5 24q13 15 39 15q12 0 26 -9q8 -8 8 -23z" />
    <glyph glyph-name="uni0121" unicode="&#x121;" horiz-adv-x="405" 
d="M209 396q37 0 79 -17q27 -10 58 -10q27 0 38.5 4t22.5 15q1 1 4 -1t3 -4q0 -6 -8 -24.5t-16 -24.5q-11 -8 -32 -8q-9 0 -25 1q-3 0 -1 -5q12 -26 12 -66q0 -84 -57 -127q-46 -36 -109 -42q-4 -1 -14 -1q-10 -2 -20 -9.5t-10 -18.5q0 -14 11.5 -22t24.5 -10q12 -2 49 -5
t68.5 -7t45.5 -8q73 -24 73 -99q0 -50 -32.5 -94t-85.5 -72q-51 -27 -109 -27q-65 0 -109 33q-50 36 -50 94q0 27 7 35q17 20 99 83q0 1 -1 3q-29 8 -48 28.5t-19 39.5q0 4 2 12q56 32 70 43q1 1 1 3t-2 2q-41 14 -66.5 51.5t-25.5 94.5q0 72 55 117q24 18 58 30.5t59 12.5z
M176 369q-34 0 -52.5 -30.5t-18.5 -78.5q0 -60 26.5 -102t74.5 -42q28 0 46 18q27 27 27 96q0 55 -25 97t-78 42zM221 -244q67 0 97.5 29.5t30.5 75.5q0 57 -52 76q-43 19 -122 19q-21 0 -36 -10q-57 -38 -57 -84q0 -44 36 -74q39 -32 103 -32zM244 537q0 -29 -20 -39
q-5 -2 -19 -3.5t-19 0.5q-22 10 -22 36q-2 16 5 24q13 15 40 15q17 0 26 -9t9 -24z" />
    <glyph glyph-name="uni0122" unicode="&#x122;" horiz-adv-x="665" 
d="M605 33q1 -2 0 -7.5t-2 -6.5q-143 -37 -208 -37q-169 0 -257.5 82.5t-88.5 245.5q0 95 46 169.5t127 110.5q84 38 192 38q44 0 112 -10.5t72 -10.5q-12 -46 -16 -146q-2 -3 -8.5 -3.5t-10.5 1.5q-4 54 -15 78.5t-33 36.5q-48 29 -137 29q-116 0 -177 -75.5t-61 -210.5
q0 -138 70.5 -225t197.5 -87q45 0 71 10q24 9 27 46q6 66 2 115q-2 29 -9.5 39.5t-30.5 14.5q-7 1 -13.5 2t-16.5 2t-19 2q-2 2 -2 8t2 8q17 0 60 -1.5t67 -1.5q60 0 94 3q2 -2 2 -8t-2 -8q-23 -5 -32 -8q-14 -4 -18.5 -15.5t-5.5 -40.5q-5 -81 -1 -112q2 -14 5.5 -18.5
t16.5 -8.5zM378 -48q14 0 28.5 -17t14.5 -44q0 -78 -96 -106q-2 1 -4.5 6t-1.5 6q62 27 62 67q0 35 -50 50q-1 1 -1.5 4.5t0.5 4.5q5 8 21 18.5t27 10.5z" />
    <glyph glyph-name="uni0123" unicode="&#x123;" horiz-adv-x="405" 
d="M209 396q37 0 79 -17q27 -10 58 -10q27 0 38.5 4t22.5 15q1 1 4 -1t3 -4q0 -6 -8 -24.5t-16 -24.5q-11 -8 -32 -8q-9 0 -25 1q-3 0 -1 -5q12 -26 12 -66q0 -84 -57 -127q-46 -36 -109 -42q-4 -1 -14 -1q-10 -2 -20 -9.5t-10 -18.5q0 -14 11.5 -22t24.5 -10q12 -2 49 -5
t68.5 -7t45.5 -8q73 -24 73 -99q0 -50 -32.5 -94t-85.5 -72q-51 -27 -109 -27q-65 0 -109 33q-50 36 -50 94q0 27 7 35q17 20 99 83q0 1 -1 3q-29 8 -48 28.5t-19 39.5q0 4 2 12q56 32 70 43q1 1 1 3t-2 2q-41 14 -66.5 51.5t-25.5 94.5q0 72 55 117q24 18 58 30.5t59 12.5z
M221 -244q67 0 97.5 29.5t30.5 75.5q0 57 -52 76q-43 19 -122 19q-21 0 -36 -10q-57 -38 -57 -84q0 -44 36 -74q39 -32 103 -32zM176 369q-34 0 -52.5 -30.5t-18.5 -78.5q0 -60 26.5 -102t74.5 -42q28 0 46 18q27 27 27 96q0 55 -25 97t-78 42zM193 450q-16 0 -30.5 18.5
t-14.5 45.5q0 31 25.5 57.5t66.5 36.5q6 -2 6 -16q-61 -23 -61 -59q0 -31 55 -43v-7q-7 -11 -22 -22t-25 -11z" />
    <glyph glyph-name="uni0124" unicode="&#x124;" horiz-adv-x="703" 
d="M25 597q-6 6 0 16q13 0 56.5 -1.5t63.5 -1.5q26 0 110 3q2 -2 1.5 -8.5t-2.5 -7.5q-23 -2 -40 -7q-16 -5 -22 -13.5t-7 -32.5q-2 -43 -2 -205q0 -6 5 -8q6 -2 175 -2q143 0 154 1q4 0 4 5q0 184 -2 220q-2 27 -21 34q-22 6 -49 8q-2 2 -2.5 8t2.5 8q7 0 46 -1.5t69 -1.5
q28 0 67 1.5t43 1.5q6 -10 0 -16q-41 -7 -44 -8q-16 -6 -22 -15.5t-7 -37.5q-3 -57 -3 -238q0 -178 3 -228q2 -23 6.5 -33t18.5 -14q15 -6 55 -10q2 -2 1 -8t-3 -8q-18 0 -54 1.5t-61 1.5q-47 0 -119 -3q-6 8 0 16q35 4 47 7q16 5 21.5 15t6.5 37q1 30 1 216q0 7 -5 7
q-15 1 -155 1q-164 0 -174 -2q-4 0 -4 -6q0 -157 2 -205q0 -3 0.5 -10.5t1 -10t1 -8.5t1.5 -8t2.5 -6t3 -6t4 -4.5t5.5 -4t7 -2.5q25 -7 53 -10q2 -2 0.5 -8.5t-3.5 -7.5q-84 3 -114 3q-53 0 -122 -3q-2 1 -2 7.5t2 8.5q29 3 48 9q20 6 25 21t7 54q1 32 1 216q0 198 -2 232
q-3 38 -26 44q-11 3 -53 8zM346 764q4 4 12 4q8 -10 56 -49t67 -51q0 -3 -3 -8.5t-5 -5.5q-4 0 -54 22t-64 29q-4 2 -9 0q-97 -51 -109 -51q-2 0 -4.5 5t-1.5 9q73 54 115 96z" />
    <glyph glyph-name="uni0125" unicode="&#x125;" horiz-adv-x="463" 
d="M89 781q3 2 12 4q9 -8 55.5 -42t63.5 -45q0 -11 -7 -11q-4 0 -54.5 20.5t-61.5 26.5q-5 2 -9 0q-94 -47 -105 -47q-2 0 -4.5 4.5t-1.5 7.5q17 10 59 41t53 41zM6 642q-1 2 -1 7t1 7q77 5 137 32q4 -2 4 -9q-8 -14 -9 -87q-1 -25 -1 -79.5t0.5 -113t0.5 -63.5q0 -3 4 -1
q79 61 137 61q55 0 85 -40.5t30 -115.5q0 -149 1 -193q0 -12 7 -19q13 -10 51 -15q1 -3 0 -9t-3 -7q-3 0 -36 1.5t-59 1.5q-47 0 -89 -3q-2 1 -2 7.5t2 8.5q36 6 39 8q10 5 13.5 14t4.5 40q3 163 -5 204q-6 27 -28 48.5t-64 21.5q-44 0 -76 -28q-12 -9 -12 -23
q0 -207 2 -234q2 -23 7 -32t19 -13q14 -3 33 -6q2 -2 2 -7.5t-2 -7.5l-33 1q-33 1 -67 1q-25 0 -53 -1.5t-34 -1.5q-1 2 -1 8t2 8q26 4 33 6q20 6 21 47q2 24 2 171q0 331 -5 375q-3 20 -20 25q-5 1 -38 5z" />
    <glyph glyph-name="Hbar" unicode="&#x126;" horiz-adv-x="703" 
d="M25 13q29 3 48 9q20 6 25 21t7 54q1 32 1 216v104h-65q0 20 6 26h59v42.5t-0.5 38t-0.5 21.5q-2 36 -27 44q-8 2 -25 4t-28 4q-6 6 0 16q14 0 57 -1.5t63 -1.5q26 0 110 3q2 -2 1.5 -8t-2.5 -7q-37 -6 -40 -7q-16 -5 -22 -13.5t-7 -33.5q-2 -44 -2 -101l338 1
q1 58 -2 111q-2 27 -21 34q-18 5 -49 9q-2 2 -2 7.5t2 7.5q7 0 46 -1.5t69 -1.5q25 0 65 1.5t45 1.5q2 -2 2 -7.5t-2 -7.5q-36 -6 -44 -9q-17 -5 -23.5 -15t-7.5 -38q-1 -11 -1.5 -44t-0.5 -48h65q0 -16 -4 -26h-60v-120q0 -178 3 -228q2 -23 6.5 -33t18.5 -14q15 -6 55 -10
q2 -2 1.5 -8t-3.5 -8q-18 0 -54 1.5t-61 1.5q-47 0 -119 -3q-8 8 0 16q35 4 48 7q15 5 20.5 14.5t6.5 37.5q1 30 1 194q0 7 -5 7q-32 2 -155 2q-167 0 -174 -2q-4 0 -4 -6q0 -136 2 -184q0 -3 0.5 -10.5t1 -10t1 -8.5t1.5 -8t2.5 -6t3 -6t4 -4.5t5.5 -4t7 -2.5q22 -7 53 -10
q2 -2 0.5 -8.5t-3.5 -7.5q-96 3 -114 3q-53 0 -122 -3q-3 1 -3 7.5t3 8.5zM521 418l-338 -1v-100q1 -5 5 -7q9 -3 175 -3q116 0 152 2q6 0 6 8v101z" />
    <glyph glyph-name="hbar" unicode="&#x127;" horiz-adv-x="463" 
d="M13 13q26 4 33 6q20 6 21 47q2 48 2 171l-1 268q-6 0 -24.5 -0.5t-32.5 -0.5q2 20 6 25h51q0 41 -3 76q-2 26 -19 31q-13 4 -40 6q-2 1 -1.5 6.5t2.5 7.5q71 4 136 32q4 -2 4 -8q-8 -16 -9 -84l-1 -68q17 0 64.5 0.5t48.5 0.5q0 -12 -4 -24h-109l1 -169q0 -3 4 -1
q79 61 137 61q55 0 85 -40.5t30 -115.5q0 -148 1 -192q0 -14 7 -20q13 -11 51 -15q1 -3 0 -9t-3 -7q-8 0 -39 1.5t-56 1.5q-47 0 -89 -3q-2 1 -2 7.5t2 8.5q32 6 39 8q10 4 13.5 13.5t4.5 40.5q3 163 -5 204q-6 27 -28.5 48.5t-64.5 21.5t-76 -29q-11 -8 -11 -22
q0 -207 2 -234q2 -23 7 -32t19 -13q12 -3 33 -6q2 -2 2 -7.5t-2 -7.5q-2 0 -38.5 1t-61.5 1q-19 0 -49.5 -1.5t-37.5 -1.5q-2 1 -1.5 7.5t2.5 8.5z" />
    <glyph glyph-name="uni0128" unicode="&#x128;" horiz-adv-x="288" 
d="M27 598q-2 2 -2 7.5t2 7.5q8 0 50.5 -1.5t70.5 -1.5q30 0 64 1.5t41 1.5q5 -8 1 -15l-42 -7q-16 -5 -20.5 -16t-6.5 -38q-3 -57 -3 -224q0 -171 2 -237q1 -18 3 -26.5t8.5 -17t19.5 -11.5q13 -4 49 -8q2 -2 1.5 -8t-2.5 -8q-12 0 -47.5 1.5t-60.5 1.5q-30 0 -67 -1.5
t-60 -1.5q-6 6 0 16q24 2 44 7q18 4 23.5 14t7.5 32q3 44 3 271q0 157 -2 203q0 2 -1 7.5t-1 7.5t-1 6.5t-1.5 6.5t-2 5.5t-3 5.5t-4 4t-5 3.5t-6.5 2.5q-17 5 -52 9zM200 705q34 0 65 29l3 -3q3 -8 2 -11q-11 -19 -40.5 -37.5t-53.5 -18.5q-14 0 -60 12q-26 7 -37 7
q-28 0 -58 -25q-1 -1 -3 2.5t-3 7t0 4.5q9 13 38 32.5t47 19.5q24 0 55 -10q34 -9 45 -9z" />
    <glyph glyph-name="uni0129" unicode="&#x129;" horiz-adv-x="213" 
d="M202 13q0 -15 -3 -16q-9 0 -41.5 1.5t-49.5 1.5q-24 0 -56 -1.5t-37 -1.5q-1 1 -1 8t1 8q27 2 39 8q17 7 18 41q2 25 2 160q0 74 -1 91q0 12 -6 20q-8 10 -40 19q-1 2 -1 8t1 7q73 8 119 30q-2 -54 -2 -169q0 -125 1 -173q0 -27 21 -35q17 -5 36 -7zM164 528q30 0 58 28
q2 -2 2 -3q2 -7 -1 -14q-10 -16 -36 -34t-45 -18q-16 0 -58 12q-23 7 -35 7q-24 0 -53 -26q-1 -1 -4 2q0 12 3 15q7 13 32.5 31t42.5 18q18 0 48 -8q34 -10 46 -10z" />
    <glyph glyph-name="uni012A" unicode="&#x12a;" horiz-adv-x="288" 
d="M27 598q-2 2 -2 7.5t2 7.5q8 0 50.5 -1.5t70.5 -1.5q30 0 64 1.5t41 1.5q5 -8 1 -15l-42 -7q-16 -5 -20.5 -16t-6.5 -38q-3 -57 -3 -224q0 -171 2 -237q1 -18 3 -26.5t8.5 -17t19.5 -11.5q13 -4 49 -8q2 -2 1.5 -8t-2.5 -8q-12 0 -47.5 1.5t-60.5 1.5q-30 0 -67 -1.5
t-60 -1.5q-6 6 0 16q24 2 44 7q18 4 23.5 14t7.5 32q3 44 3 271q0 157 -2 203q0 2 -1 7.5t-1 7.5t-1 6.5t-1.5 6.5t-2 5.5t-3 5.5t-4 4t-5 3.5t-6.5 2.5q-17 5 -52 9zM48 715q20 -2 49 -2h156q0 -8 -5.5 -21.5t-8.5 -14.5q-21 -3 -170 -3l-35 2q0 4 3.5 13t6.5 17z" />
    <glyph glyph-name="uni012B" unicode="&#x12b;" horiz-adv-x="213" 
d="M202 13q0 -15 -3 -16q-9 0 -41.5 1.5t-49.5 1.5q-24 0 -56 -1.5t-37 -1.5q-1 1 -1 8t1 8q27 2 39 8q17 7 18 41q2 25 2 160q0 74 -1 91q0 12 -6 20q-8 10 -40 19q-1 2 -1 8t1 7q73 8 119 30q-2 -54 -2 -169q0 -125 1 -173q0 -27 21 -35q17 -5 36 -7zM19 537q8 -2 41 -2
h142q0 -8 -5 -21.5t-7 -14.5q-12 -3 -156 -3q-19 0 -27 2q1 4 12 39z" />
    <glyph glyph-name="uni012C" unicode="&#x12c;" horiz-adv-x="288" 
d="M27 598q-2 2 -2 7.5t2 7.5q8 0 50.5 -1.5t70.5 -1.5q30 0 64 1.5t41 1.5q5 -8 1 -15l-42 -7q-16 -5 -20.5 -16t-6.5 -38q-3 -57 -3 -224q0 -171 2 -237q1 -18 3 -26.5t8.5 -17t19.5 -11.5q13 -4 49 -8q2 -2 1.5 -8t-2.5 -8q-12 0 -47.5 1.5t-60.5 1.5q-30 0 -67 -1.5
t-60 -1.5q-6 6 0 16q24 2 44 7q18 4 23.5 14t7.5 32q3 44 3 271q0 157 -2 203q0 2 -1 7.5t-1 7.5t-1 6.5t-1.5 6.5t-2 5.5t-3 5.5t-4 4t-5 3.5t-6.5 2.5q-17 5 -52 9zM155 692q29 0 48.5 9.5t39.5 34.5q9 9 17 9q3 0 3 -3q-16 -38 -49.5 -63.5t-80.5 -25.5q-39 0 -66.5 18
t-27.5 45q0 5 7 14.5t13 14.5h3.5t3.5 -1h1q18 -52 88 -52z" />
    <glyph glyph-name="uni012D" unicode="&#x12d;" horiz-adv-x="213" 
d="M202 13q0 -15 -3 -16q-9 0 -41.5 1.5t-49.5 1.5q-24 0 -56 -1.5t-37 -1.5q-1 1 -1 8t1 8q27 2 39 8q17 7 18 41q2 25 2 160q0 74 -1 91q0 12 -6 20q-8 10 -40 19q-1 2 -1 8t1 7q73 8 119 30q-2 -54 -2 -169q0 -125 1 -173q0 -27 21 -35q17 -5 36 -7zM111 501q50 0 77 50
q2 2 8 7t8 5q3 0 3 -4q-11 -42 -42.5 -70.5t-74.5 -28.5q-33 0 -57.5 19t-24.5 50q0 16 27 33q6 0 6 -2q13 -59 70 -59z" />
    <glyph glyph-name="uni012E" unicode="&#x12e;" horiz-adv-x="288" 
d="M135 -193q-25 0 -43.5 16t-18.5 48q0 49 83 129q-31 0 -68 -1.5t-60 -1.5q-6 6 0 16q24 2 44 7q18 4 23.5 14t7.5 32q3 44 3 271q0 157 -2 203q0 2 -1 7.5t-1 7.5t-1 6.5t-1.5 6.5t-2 5.5t-3 5.5t-4 4t-5 3.5t-6.5 2.5q-17 5 -52 9q-2 2 -2 7.5t2 7.5q8 0 50.5 -1.5
t70.5 -1.5q30 0 64 1.5t41 1.5q5 -8 1 -15l-42 -7q-16 -5 -20.5 -16t-6.5 -38q-3 -57 -3 -224q0 -171 2 -237q1 -18 3 -26.5t8.5 -17t19.5 -11.5q13 -4 49 -8q2 -2 1.5 -8t-2.5 -8q-10 0 -39 1.5t-49 1.5q-45 -55 -45 -102q0 -20 13 -30t30 -10q25 0 47 17q1 -3 0.5 -10.5
t-1.5 -9.5q-31 -48 -84 -48z" />
    <glyph glyph-name="uni012F" unicode="&#x12f;" horiz-adv-x="213" 
d="M93 -184q-24 0 -41.5 15t-17.5 46q0 29 26.5 64.5t54.5 58.5q-28 0 -61.5 -1.5t-38.5 -1.5q-1 1 -1 8t1 8q27 2 39 8q17 7 18 41q2 25 2 160q0 74 -1 91q0 12 -6 20q-8 10 -40 19q-1 2 -1 8t1 7q73 8 119 30q-2 -54 -2 -169q0 -125 1 -173q0 -27 21 -35q13 -4 44 -7
q0 -15 -3 -16q-7 0 -19.5 0.5t-29 1.5t-27.5 1q-43 -53 -43 -97q0 -19 11.5 -29t27.5 -10q25 0 47 17q1 -3 0.5 -10t-1.5 -9q-30 -46 -80 -46zM146 538q0 -30 -21 -40q-4 -3 -18 -4.5t-20 1.5q-21 8 -21 36q-2 14 5 24q13 15 40 15q18 0 27 -9q8 -8 8 -23z" />
    <glyph glyph-name="uni0130" unicode="&#x130;" horiz-adv-x="288" 
d="M27 598q-2 2 -2 7.5t2 7.5q8 0 50.5 -1.5t70.5 -1.5q30 0 64 1.5t41 1.5q5 -8 1 -15l-42 -7q-16 -5 -20.5 -16t-6.5 -38q-3 -57 -3 -224q0 -171 2 -237q1 -18 3 -26.5t8.5 -17t19.5 -11.5q13 -4 49 -8q2 -2 1.5 -8t-2.5 -8q-12 0 -47.5 1.5t-60.5 1.5q-30 0 -67 -1.5
t-60 -1.5q-6 6 0 16q24 2 44 7q18 4 23.5 14t7.5 32q3 44 3 271q0 157 -2 203q0 2 -1 7.5t-1 7.5t-1 6.5t-1.5 6.5t-2 5.5t-3 5.5t-4 4t-5 3.5t-6.5 2.5q-17 5 -52 9zM183 707q0 -30 -20 -39q-4 -2 -18 -3.5t-19 0.5q-21 10 -21 35q-2 16 5 24q13 15 39 15q13 0 26 -9
q8 -8 8 -23z" />
    <glyph glyph-name="dotlessi" unicode="&#x131;" horiz-adv-x="213" 
d="M202 13q0 -15 -3 -16q-9 0 -41.5 1.5t-49.5 1.5q-24 0 -56 -1.5t-37 -1.5q-1 1 -1 8t1 8q27 2 39 8q17 7 18 41q2 25 2 160q0 74 -1 91q0 12 -6 20q-8 10 -40 19q-1 2 -1 8t1 7q73 8 119 30q-2 -54 -2 -169q0 -125 1 -173q0 -27 21 -35q17 -5 36 -7z" />
    <glyph glyph-name="IJ" unicode="&#x132;" horiz-adv-x="572" 
d="M27 598q-2 2 -2 7.5t2 7.5q8 0 50.5 -1.5t70.5 -1.5q30 0 64 1.5t41 1.5q5 -8 1 -15l-42 -7q-16 -5 -20.5 -16t-6.5 -38q-3 -57 -3 -224q0 -171 2 -237q1 -18 3 -26.5t8.5 -17t19.5 -11.5q13 -4 49 -8q2 -2 1.5 -8t-2.5 -8q-12 0 -47.5 1.5t-60.5 1.5q-30 0 -67 -1.5
t-60 -1.5q-6 6 0 16q24 2 44 7q18 4 23.5 14t7.5 32q3 44 3 271q0 157 -2 203q0 2 -1 7.5t-1 7.5t-1 6.5t-1.5 6.5t-2 5.5t-3 5.5t-4 4t-5 3.5t-6.5 2.5q-17 5 -52 9zM315 598q-2 2 -2 7.5t2 7.5q12 0 53.5 -1.5t70.5 -1.5q28 0 64.5 1.5t48.5 1.5q2 -2 2 -7.5t-2 -7.5
q-38 -5 -53 -12q-14 -8 -16 -41q-1 -20 -2 -207.5t-3 -233.5q-3 -118 -33 -178q-33 -69 -82 -108t-97 -39t-60 28v12q5 32 16 53q56 -41 94 -41q30 0 51 22q35 37 35 163q2 90 1 283.5t-4 228.5q-1 14 -1.5 19.5t-3 16t-9 16.5t-16.5 9q-6 2 -54 9z" />
    <glyph glyph-name="ij" unicode="&#x133;" horiz-adv-x="426" 
d="M146 538q0 -30 -21 -40q-4 -3 -18 -4.5t-20 1.5q-21 8 -21 36q-2 14 5 24q13 15 40 15q18 0 27 -9q8 -8 8 -23zM203 13q0 -15 -3 -16q-9 0 -42 1.5t-50 1.5q-24 0 -56 -1.5t-37 -1.5q-1 1 -1 8t1 8q27 2 39 8q17 7 18 41q2 25 2 160q0 74 -1 91q0 12 -6 20q-8 10 -40 19
q-1 2 -1 8t1 7q73 8 119 30q-2 -54 -2 -169q0 -125 1 -173q0 -27 21 -35q16 -5 37 -7zM359 547q0 -27 -15 -42q-3 -3 -19 -6t-20 -1q-24 10 -25 38q0 17 4 22q17 17 44 17q19 0 25 -8q6 -6 6 -20zM363 397q-4 -89 -4 -350q-3 -65 -6 -94q-10 -77 -53.5 -141t-86.5 -90
q-10 0 -15 7q-2 3 0 5q50 36 70 90t20 159q0 313 -2 328q-2 21 -17 29q-14 7 -41 10q-2 3 -2 9t2 8q79 4 135 30z" />
    <glyph glyph-name="uni0134" unicode="&#x134;" horiz-adv-x="284" 
d="M27 598q-2 2 -2 7.5t2 7.5q12 0 53.5 -1.5t70.5 -1.5q28 0 64.5 1.5t48.5 1.5q2 -2 2 -7.5t-2 -7.5q-38 -5 -53 -12q-14 -8 -16 -41q-1 -20 -2 -207.5t-3 -233.5q-3 -118 -33 -178q-33 -69 -82 -108t-97 -39t-60 28v12q5 32 16 53q56 -41 94 -41q30 0 51 22q35 37 35 163
q2 90 1 283.5t-4 228.5q-1 14 -1.5 19.5t-3 16t-9 16.5t-16.5 9q-6 2 -54 9zM137 761q4 4 12 4q8 -10 56 -49t67 -51q0 -3 -3 -8.5t-5 -5.5q-4 0 -54 22t-64 29q-4 2 -9 0q-97 -51 -109 -51q-2 0 -4.5 5t-1.5 9q73 54 115 96z" />
    <glyph glyph-name="uni0135" unicode="&#x135;" horiz-adv-x="212" 
d="M150 397q-4 -89 -4 -350q-3 -65 -6 -94q-10 -77 -53.5 -141t-86.5 -90q-6 0 -15 7q-1 1 -1 2.5t1 2.5q50 36 70 90t20 159q0 313 -2 328q-2 21 -17 29q-14 7 -41 10q-1 3 -1 9t1 8q79 4 135 30zM96 537q-12 -22 -32.5 -51.5t-27.5 -36.5q-9 -9 -23 -9q-3 0 -3 3
q69 111 84 150q4 7 18 7q11 -30 39.5 -81.5t40.5 -69.5q-5 -8 -30 -8q-5 3 -28 39t-34 57q-2 2 -4 0z" />
    <glyph glyph-name="uni0136" unicode="&#x136;" horiz-adv-x="597" 
d="M182 322q0 -166 2 -239q1 -34 7.5 -46.5t26.5 -17.5q11 -3 47 -7q2 -2 1 -7.5t-3 -7.5q-14 0 -57 1.5t-68 1.5t-68.5 -1.5t-46.5 -1.5q-1 1 -1 7t1 8q41 5 48 7q14 3 21 11.5t9 19t3 31.5q2 39 2 240q0 179 -2 217q-1 29 -7.5 39t-24.5 15q-7 2 -23 3.5t-20 2.5
q-1 2 -1 7.5t1 7.5q8 0 46.5 -1.5t68.5 -1.5q22 0 59 1.5t47 1.5q2 -1 2 -7t-2 -8q-30 -4 -43 -8q-10 -3 -15 -10.5t-6.5 -17t-2.5 -32.5q-1 -43 -1 -208zM361 598q-2 2 -1.5 7.5t2.5 7.5q18 0 49 -1.5t49 -1.5q67 0 109 3q2 -2 2.5 -7.5t-2.5 -7.5q-42 -6 -62.5 -17.5
t-53.5 -48.5q-137 -153 -180 -196v-3q15 -30 113.5 -141t142.5 -147q15 -13 33 -21q20 -10 73 -11q2 -2 1.5 -8.5t-2.5 -7.5q-30 -3 -86 -2t-72 7q-17 5 -50 33q-33 30 -105 114.5t-113 138.5q-6 8 -15 14q0 6 3 9q33 13 91 72t115 131q28 38 28 57q0 12 -21 17
q-31 8 -48 10zM340 -26q14 0 28.5 -17t14.5 -44q0 -78 -96 -106q-2 1 -4.5 6t-1.5 6q62 27 62 67q0 35 -50 50q-1 1 -1.5 4.5t0.5 4.5q5 8 21 18.5t27 10.5z" />
    <glyph glyph-name="uni0137" unicode="&#x137;" horiz-adv-x="421" 
d="M227 366q-1 1 -0.5 8t1.5 8q105 0 167 9q2 -2 2.5 -8.5t-1.5 -8.5q-49 -10 -76 -37l-105 -107q-1 -1 -1 -2.5t1 -2.5q26 -40 79 -104.5t81 -86.5q17 -14 30.5 -17.5t37.5 -3.5q2 -1 1.5 -7.5t-2.5 -8.5q-10 -2 -92 -2q-33 1 -52 20q-14 12 -36 40.5t-49.5 65.5t-42.5 55
q-11 13 -33 14q0 -94 2 -128q1 -23 6.5 -31.5t21.5 -12.5q8 -2 34 -5q4 -8 -1 -16q-7 0 -40 1.5t-57 1.5q-23 0 -54.5 -1.5t-36.5 -1.5q-2 1 -2 8t2 8q27 4 35 7q19 8 20 35q2 30 2 157q0 366 -3 400q-2 23 -19 28q-10 3 -38 5q-2 2 -2 7.5t2 7.5q86 7 134 28q5 0 5 -6
q-8 -14 -9 -98q-2 -81 -2 -380q26 6 48 24q29 26 64.5 66.5t35.5 51.5q0 9 -15 13q-15 5 -43 7zM233 -29q14 0 28.5 -17t14.5 -44q0 -78 -96 -106q-2 1 -4.5 6t-1.5 6q62 27 62 67q0 35 -50 50q-1 1 -1.5 4.5t0.5 4.5q5 8 21 18.5t27 10.5z" />
    <glyph glyph-name="uni0138" unicode="&#x138;" horiz-adv-x="420" 
d="M17 13q13 1 33 6q14 4 18 13t5 30q0 3 0.5 46t0.5 86.5v83.5t-1 46q-2 19 -15 26q-9 4 -39 11q-1 1 -0.5 7t2.5 7q56 2 126 19q0 -2 -3 -54v-147q38 14 92.5 74.5t54.5 76.5q0 10 -10 13q-12 5 -40 8q-2 2 -2 8.5t2 7.5q59 -1 153 4q3 -2 2.5 -8t-2.5 -8
q-30 -5 -42.5 -11.5t-28.5 -22.5q-61 -68 -103 -111q-3 -3 -1 -6q32 -43 82.5 -103.5t73.5 -80.5q13 -12 26.5 -15.5t42.5 -5.5q1 -2 0.5 -8t-2.5 -8q-19 -4 -97 -4q-30 0 -44 18q-47 47 -131 160q-10 10 -26 7q0 -93 1 -119q1 -22 4.5 -29t19.5 -11q14 -3 37 -6
q1 -1 0.5 -8t-2.5 -8q-3 0 -34 1.5t-63 1.5q-25 0 -53.5 -1.5t-35.5 -1.5q-2 1 -2.5 7.5t1.5 8.5z" />
    <glyph glyph-name="uni0139" unicode="&#x139;" horiz-adv-x="509" 
d="M24 598q-1 1 -1 7.5t2 7.5q7 0 44 -1.5t72 -1.5q31 0 68.5 1.5t42.5 1.5q2 -1 2.5 -7.5t-2.5 -7.5q-7 -1 -20.5 -3.5t-20.5 -4.5q-17 -4 -21 -13t-5 -31q0 -13 -0.5 -49.5t-1 -89.5t-0.5 -86q-2 -167 2 -258q1 -24 17 -29q13 -6 76 -7.5t91 0.5q31 1 55 30q33 37 61 107
q2 2 8.5 0t7.5 -5q-6 -31 -21.5 -81.5t-25.5 -69.5q-9 -12 -40 -12q-29 0 -139.5 2t-134.5 2t-68 -1.5t-54 -1.5q-2 1 -2 7.5t2 8.5q46 6 52 7q17 4 24 13t9 32q3 40 3 275q0 164 -1 189q-2 34 -7 45t-27 16q-2 0 -47 8zM224 770q9 -1 27 -9t23 -14q1 -1 1 -4t-1 -4
q-8 -9 -74 -51t-72 -42q-2 0 -5.5 5t-2.5 7q10 13 52 59.5t52 52.5z" />
    <glyph glyph-name="uni013A" unicode="&#x13a;" horiz-adv-x="207" 
d="M10 -3q-1 3 -1.5 8.5t0.5 7.5q29 3 41 9q16 9 17 31q2 41 2 270q0 250 -4 279q-2 24 -14 28t-40 7q-2 2 -2 7t2 7q68 7 131 37q4 -2 4 -5q-9 -31 -9 -112v-239q0 -222 3 -264q2 -23 5.5 -32.5t14.5 -14.5q14 -6 40 -8q1 -2 0 -8.5t-2 -7.5q-3 0 -35.5 1.5t-57.5 1.5
q-23 0 -57.5 -1.5t-37.5 -1.5zM165 822q9 -1 27 -9t23 -14q1 -1 1 -4t-1 -4q-8 -9 -74 -51t-72 -42q-2 0 -5.5 5t-2.5 7q10 13 52 59.5t52 52.5z" />
    <glyph glyph-name="uni013B" unicode="&#x13b;" horiz-adv-x="509" 
d="M24 598q-1 1 -1 7.5t2 7.5q7 0 44 -1.5t72 -1.5q31 0 68.5 1.5t42.5 1.5q2 -1 2.5 -7.5t-2.5 -7.5q-7 -1 -20.5 -3.5t-20.5 -4.5q-17 -4 -21 -13t-5 -31q0 -13 -0.5 -49.5t-1 -89.5t-0.5 -86q-2 -167 2 -258q1 -24 17 -29q13 -6 76 -7.5t91 0.5q31 1 55 30q33 37 61 107
q2 2 8.5 0t7.5 -5q-6 -31 -21.5 -81.5t-25.5 -69.5q-9 -12 -40 -12q-29 0 -139.5 2t-134.5 2t-68 -1.5t-54 -1.5q-2 1 -2 7.5t2 8.5q46 6 52 7q17 4 24 13t9 32q3 40 3 275q0 164 -1 189q-2 34 -7 45t-27 16q-2 0 -47 8zM268 -36q14 0 28.5 -17t14.5 -44q0 -78 -96 -106
q-2 1 -4.5 6t-1.5 6q62 27 62 67q0 35 -50 50q-1 1 -1.5 4.5t0.5 4.5q5 8 21 18.5t27 10.5z" />
    <glyph glyph-name="uni013C" unicode="&#x13c;" horiz-adv-x="207" 
d="M10 -3q-1 3 -1.5 8.5t0.5 7.5q29 3 41 9q16 9 17 31q2 41 2 270q0 250 -4 279q-2 24 -14 28t-40 7q-2 2 -2 7t2 7q68 7 131 37q4 -2 4 -5q-9 -31 -9 -112v-239q0 -222 3 -264q2 -23 5.5 -32.5t14.5 -14.5q14 -6 40 -8q1 -2 0 -8.5t-2 -7.5q-3 0 -35.5 1.5t-57.5 1.5
q-23 0 -57.5 -1.5t-37.5 -1.5zM106 -30q14 0 28.5 -17t14.5 -44q0 -78 -96 -106q-2 1 -4.5 6t-1.5 6q62 27 62 67q0 35 -50 50q-1 1 -1.5 4.5t0.5 4.5q5 8 21 18.5t27 10.5z" />
    <glyph glyph-name="uni013D" unicode="&#x13d;" horiz-adv-x="509" 
d="M24 598q-1 1 -1 7.5t2 7.5q7 0 44 -1.5t72 -1.5q31 0 68.5 1.5t42.5 1.5q2 -1 2.5 -7.5t-2.5 -7.5q-7 -1 -20.5 -3.5t-20.5 -4.5q-17 -4 -21 -13t-5 -31q0 -13 -0.5 -49.5t-1 -89.5t-0.5 -86q-2 -167 2 -258q1 -24 17 -29q13 -6 76 -7.5t91 0.5q31 1 55 30q33 37 61 107
q2 2 8.5 0t7.5 -5q-6 -31 -21.5 -81.5t-25.5 -69.5q-9 -12 -40 -12q-29 0 -139.5 2t-134.5 2t-68 -1.5t-54 -1.5q-2 1 -2 7.5t2 8.5q46 6 52 7q17 4 24 13t9 32q3 40 3 275q0 164 -1 189q-2 34 -7 45t-27 16q-2 0 -47 8zM383 643q5 0 5 -13q0 -25 -5.5 -85.5t-10.5 -88.5
q-5 -17 -17 -25q-4 -2 -4 3q0 42 -11 163q0 5 2 8q7 10 21 24t20 14z" />
    <glyph glyph-name="uni013E" unicode="&#x13e;" horiz-adv-x="207" 
d="M10 -3q-1 3 -1.5 8.5t0.5 7.5q29 3 41 9q16 9 17 31q2 41 2 270q0 250 -4 279q-2 24 -14 28t-40 7q-2 2 -2 7t2 7q68 7 131 37q4 -2 4 -5q-9 -31 -9 -112v-239q0 -222 3 -264q2 -23 5.5 -32.5t14.5 -14.5q14 -6 40 -8q1 -2 0 -8.5t-2 -7.5q-3 0 -35.5 1.5t-57.5 1.5
q-23 0 -57.5 -1.5t-37.5 -1.5zM233 698q5 0 5 -13q0 -25 -5.5 -85.5t-10.5 -88.5q-5 -17 -17 -25q-4 -2 -4 3q0 42 -11 163q0 5 2 8q7 10 21 24t20 14z" />
    <glyph glyph-name="Ldot" unicode="&#x13f;" horiz-adv-x="509" 
d="M24 598q-1 1 -1 7.5t2 7.5q7 0 44 -1.5t72 -1.5q31 0 68.5 1.5t42.5 1.5q2 -1 2.5 -7.5t-2.5 -7.5q-7 -1 -20.5 -3.5t-20.5 -4.5q-17 -4 -21 -13t-5 -31q0 -13 -0.5 -49.5t-1 -89.5t-0.5 -86q-2 -167 2 -258q1 -24 17 -29q13 -6 76 -7.5t91 0.5q31 1 55 30q33 37 61 107
q2 2 8.5 0t7.5 -5q-6 -31 -21.5 -81.5t-25.5 -69.5q-9 -12 -40 -12q-29 0 -139.5 2t-134.5 2t-68 -1.5t-54 -1.5q-2 1 -2 7.5t2 8.5q46 6 52 7q17 4 24 13t9 32q3 40 3 275q0 164 -1 189q-2 34 -7 45t-27 16q-2 0 -47 8zM425 315q0 -30 -20 -39q-4 -2 -18 -3.5t-19 0.5
q-21 10 -21 35q-2 16 5 24q13 15 39 15q13 0 26 -9q8 -8 8 -23z" />
    <glyph glyph-name="ldot" unicode="&#x140;" horiz-adv-x="207" 
d="M245 365q0 -30 -20 -39q-4 -2 -17 -3.5t-18 0.5q-21 10 -21 35q-2 16 4 25q13 15 39 15q12 0 25 -9q8 -10 8 -24zM10 -3q-1 3 -1.5 8.5t0.5 7.5q29 3 41 9q16 9 17 31q2 41 2 270q0 250 -4 279q-2 24 -14 28t-40 7q-2 2 -2 7t2 7q68 7 131 37q4 -2 4 -5q-9 -31 -9 -112
v-239q0 -222 3 -264q2 -23 5.5 -32.5t14.5 -14.5q14 -6 40 -8q1 -2 0 -8.5t-2 -7.5q-3 0 -35.5 1.5t-57.5 1.5q-23 0 -57.5 -1.5t-37.5 -1.5z" />
    <glyph glyph-name="Lslash" unicode="&#x141;" horiz-adv-x="509" 
d="M18 13q46 6 52 7q17 4 24 13t9 32q2 41 3 189l-64 -27q-2 1 -4.5 10.5t-1.5 12.5q8 3 34 14t36 15v61q0 164 -1 189q-2 34 -7 45t-27 16q-2 0 -47 8q-1 1 -1 7.5t2 7.5q7 0 44 -1.5t72 -1.5q31 0 68.5 1.5t42.5 1.5q2 -1 2.5 -7.5t-2.5 -7.5q-7 -1 -20.5 -3.5t-20.5 -4.5
q-17 -4 -21 -13t-5 -31q0 -13 -0.5 -48.5t-1 -91.5t-0.5 -95q19 8 51.5 22.5t58.5 26t48 20.5q5 -3 5 -23l-164 -70q0 -159 3 -224q1 -24 17 -29q13 -6 77 -7.5t93 0.5q29 1 53 30q29 31 60 107q2 2 8.5 0t7.5 -5q-7 -33 -22 -82t-25 -69q-10 -12 -40 -12q-29 0 -139.5 2
t-134.5 2t-68 -1.5t-54 -1.5q-2 1 -2 7.5t2 8.5z" />
    <glyph glyph-name="lslash" unicode="&#x142;" horiz-adv-x="217" 
d="M213 403l-66 -36q0 -257 3 -299q2 -23 5.5 -32.5t14.5 -14.5q18 -7 41 -8q2 -2 1 -8.5t-3 -7.5q-11 0 -42 1.5t-53 1.5q-20 0 -54.5 -1.5t-40.5 -1.5q-2 1 -2.5 7.5t1.5 8.5q31 4 42 9q16 9 17 37q0 10 0.5 137.5t0.5 137.5q-17 -7 -56 -29q-2 1 -2 11.5t2 11.5l56 29
q0 223 -3 245q-2 24 -14 28t-41 7q-1 2 -1 7t1 7q70 7 132 37q4 -2 4 -6q-9 -24 -9 -111v-180q26 12 64 34q1 -2 2 -11.5t0 -10.5z" />
    <glyph glyph-name="uni0143" unicode="&#x143;" horiz-adv-x="688" 
d="M8 598q-1 1 0 7.5t2 7.5q8 0 45 -1.5t57 -1.5q36 0 45 1q7 -16 38 -53q257 -321 369 -453l3 2q0 383 -4 426q-2 24 -9 36.5t-27 18.5q-15 4 -60 10q-1 2 -1 7.5t2 7.5q10 0 50 -1.5t66 -1.5q17 0 53 1.5t40 1.5q1 -1 1 -7t-1 -8q-21 -4 -39 -8q-31 -10 -33 -54
q-3 -35 -4 -103t-1.5 -166.5t-1.5 -138.5q0 -69 2 -133q-27 2 -58 0q-21 32 -107.5 142t-187 235t-104.5 131q-1 1 -2.5 0.5t-1.5 -1.5q-1 -77 -1 -225t2 -190q1 -34 10.5 -47.5t28.5 -18.5q15 -4 53 -8q2 -2 1.5 -8.5t-2.5 -7.5q-6 0 -45 1.5t-67 1.5q-29 0 -62.5 -1.5
t-39.5 -1.5q-1 1 -1 8t1 8q31 3 44 7q18 5 27.5 18.5t11.5 47.5q6 88 9 437q0 28 -23 48q-10 9 -23 14.5t-22 7.5t-33 5zM408 766q9 -1 27 -9t23 -14q1 -1 1 -4t-1 -4q-8 -9 -74 -51t-72 -42q-2 0 -5.5 5t-2.5 7q10 13 52 59.5t52 52.5z" />
    <glyph glyph-name="uni0144" unicode="&#x144;" horiz-adv-x="468" 
d="M18 13q22 2 35 7q17 6 19 40q2 23 2 162q0 79 -2 93q-2 10 -10.5 16t-36.5 14q-1 2 0 7.5t3 6.5q70 9 117 38q3 0 3 -4q-1 -13 -4 -59q0 -2 1 -3.5t3 -0.5q82 66 138 66q57 0 89 -51q24 -37 24 -114q0 -144 1 -184q0 -19 13 -23q18 -8 43 -11q1 -3 0 -9t-3 -7
q-3 0 -30 1.5t-57 1.5q-35 0 -98 -3q-2 1 -2 8t2 8q30 3 38 6q19 6 21 31q2 31 1.5 109.5t-3.5 101.5q-8 45 -29 64q-22 22 -61 22q-45 0 -81 -33q-10 -10 -10 -36q0 -172 2 -216q1 -34 18 -40q12 -5 42 -9q1 -2 0.5 -8t-1.5 -8q-4 0 -35 1.5t-61 1.5q-34 0 -61 -1.5
t-30 -1.5q-2 1 -2 7.5t2 8.5zM276 580q8 3 31.5 5t28.5 0q1 -1 2 -3.5t0 -3.5q-19 -30 -113 -147q-8 0 -12 8q44 105 63 141z" />
    <glyph glyph-name="uni0145" unicode="&#x145;" horiz-adv-x="688" 
d="M8 598q-1 1 0 7.5t2 7.5q8 0 45 -1.5t57 -1.5q36 0 45 1q7 -16 38 -53q257 -321 369 -453l3 2q0 383 -4 426q-2 24 -9 36.5t-27 18.5q-15 4 -60 10q-1 2 -1 7.5t2 7.5q10 0 50 -1.5t66 -1.5q17 0 53 1.5t40 1.5q1 -1 1 -7t-1 -8q-21 -4 -39 -8q-31 -10 -33 -54
q-3 -35 -4 -103t-1.5 -166.5t-1.5 -138.5q0 -69 2 -133q-27 2 -58 0q-21 32 -107.5 142t-187 235t-104.5 131q-1 1 -2.5 0.5t-1.5 -1.5q-1 -77 -1 -225t2 -190q1 -34 10.5 -47.5t28.5 -18.5q15 -4 53 -8q2 -2 1.5 -8.5t-2.5 -7.5q-6 0 -45 1.5t-67 1.5q-29 0 -62.5 -1.5
t-39.5 -1.5q-1 1 -1 8t1 8q31 3 44 7q18 5 27.5 18.5t11.5 47.5q6 88 9 437q0 28 -23 48q-10 9 -23 14.5t-22 7.5t-33 5zM358 -24q14 0 28.5 -17t14.5 -44q0 -78 -96 -106q-2 1 -4.5 6t-1.5 6q62 27 62 67q0 35 -50 50q-1 1 -1.5 4.5t0.5 4.5q5 8 21 18.5t27 10.5z" />
    <glyph glyph-name="uni0146" unicode="&#x146;" horiz-adv-x="468" 
d="M18 13q22 2 35 7q17 6 19 40q2 23 2 162q0 79 -2 93q-2 10 -10.5 16t-36.5 14q-1 2 0 7.5t3 6.5q70 9 117 38q3 0 3 -4q-1 -13 -4 -59q0 -2 1 -3.5t3 -0.5q82 66 138 66q57 0 89 -51q24 -37 24 -114q0 -144 1 -184q0 -19 13 -23q18 -8 43 -11q1 -3 0 -9t-3 -7
q-3 0 -30 1.5t-57 1.5q-35 0 -98 -3q-2 1 -2 8t2 8q30 3 38 6q19 6 21 31q2 31 1.5 109.5t-3.5 101.5q-8 45 -29 64q-22 22 -61 22q-45 0 -81 -33q-10 -10 -10 -36q0 -172 2 -216q1 -34 18 -40q12 -5 42 -9q1 -2 0.5 -8t-1.5 -8q-4 0 -35 1.5t-61 1.5q-34 0 -61 -1.5
t-30 -1.5q-2 1 -2 7.5t2 8.5zM240 -32q14 0 28.5 -17t14.5 -44q0 -78 -96 -106q-2 1 -4.5 6t-1.5 6q62 27 62 67q0 35 -50 50q-1 1 -1.5 4.5t0.5 4.5q5 8 21 18.5t27 10.5z" />
    <glyph glyph-name="uni0147" unicode="&#x147;" horiz-adv-x="688" 
d="M8 598q-1 1 0 7.5t2 7.5q8 0 45 -1.5t57 -1.5q36 0 45 1q7 -16 38 -53q257 -321 369 -453l3 2q0 383 -4 426q-2 24 -9 36.5t-27 18.5q-15 4 -60 10q-1 2 -1 7.5t2 7.5q10 0 50 -1.5t66 -1.5q17 0 53 1.5t40 1.5q1 -1 1 -7t-1 -8q-21 -4 -39 -8q-31 -10 -33 -54
q-3 -35 -4 -103t-1.5 -166.5t-1.5 -138.5q0 -69 2 -133q-27 2 -58 0q-21 32 -107.5 142t-187 235t-104.5 131q-1 1 -2.5 0.5t-1.5 -1.5q-1 -77 -1 -225t2 -190q1 -34 10.5 -47.5t28.5 -18.5q15 -4 53 -8q2 -2 1.5 -8.5t-2.5 -7.5q-6 0 -45 1.5t-67 1.5q-29 0 -62.5 -1.5
t-39.5 -1.5q-1 1 -1 8t1 8q31 3 44 7q18 5 27.5 18.5t11.5 47.5q6 88 9 437q0 28 -23 48q-10 9 -23 14.5t-22 7.5t-33 5zM356 649q-2 -4 -11 -4q-9 10 -57 49t-66 51q0 3 3 8.5t5 5.5q4 0 54.5 -21.5t62.5 -28.5q7 -2 10 0q15 8 60 29t49 21q2 0 4.5 -5t1.5 -9
q-77 -57 -116 -96z" />
    <glyph glyph-name="uni0148" unicode="&#x148;" horiz-adv-x="468" 
d="M18 13q22 2 35 7q17 6 19 40q2 23 2 162q0 79 -2 93q-2 10 -10.5 16t-36.5 14q-1 2 0 7.5t3 6.5q70 9 117 38q3 0 3 -4q-1 -13 -4 -59q0 -2 1 -3.5t3 -0.5q82 66 138 66q57 0 89 -51q24 -37 24 -114q0 -144 1 -184q0 -19 13 -23q18 -8 43 -11q1 -3 0 -9t-3 -7
q-3 0 -30 1.5t-57 1.5q-35 0 -98 -3q-2 1 -2 8t2 8q30 3 38 6q19 6 21 31q2 31 1.5 109.5t-3.5 101.5q-8 45 -29 64q-22 22 -61 22q-45 0 -81 -33q-10 -10 -10 -36q0 -172 2 -216q1 -34 18 -40q12 -5 42 -9q1 -2 0.5 -8t-1.5 -8q-4 0 -35 1.5t-61 1.5q-34 0 -61 -1.5
t-30 -1.5q-2 1 -2 7.5t2 8.5zM236 497q12 22 32.5 52t28.5 37q11 9 23 9q3 0 3 -3q-69 -111 -84 -150q-1 -2 -7.5 -4.5t-10.5 -2.5q-11 30 -39.5 81.5t-40.5 69.5q5 8 30 8q5 -3 26.5 -38t34.5 -59q2 -2 4 0z" />
    <glyph glyph-name="uni0149" unicode="&#x149;" horiz-adv-x="468" 
d="M18 13q22 2 35 7q17 6 19 40q2 23 2 162q0 79 -2 93q-2 10 -10.5 16t-36.5 14q-1 2 0 7.5t3 6.5q70 9 117 38q3 0 3 -4q-1 -13 -4 -59q0 -2 1 -3.5t3 -0.5q82 66 138 66q57 0 89 -51q24 -37 24 -114q0 -144 1 -184q0 -19 13 -23q18 -8 43 -11q1 -3 0 -9t-3 -7
q-3 0 -30 1.5t-57 1.5q-35 0 -98 -3q-2 1 -2 8t2 8q30 3 38 6q19 6 21 31q2 31 1.5 109.5t-3.5 101.5q-8 45 -29 64q-22 22 -61 22q-45 0 -81 -33q-10 -10 -10 -36q0 -172 2 -216q1 -34 18 -40q12 -5 42 -9q1 -2 0.5 -8t-1.5 -8q-4 0 -35 1.5t-61 1.5q-34 0 -61 -1.5
t-30 -1.5q-2 1 -2 7.5t2 8.5zM102 592q17 0 32.5 -16.5t15.5 -45.5q0 -32 -25 -56t-65 -34q-7 4 -5 13q55 22 55 58q0 32 -55 42q-3 6 0 9q6 9 22 19.5t25 10.5z" />
    <glyph glyph-name="Eng" unicode="&#x14a;" horiz-adv-x="688" 
d="M17 13q36 6 44 8q19 5 28 18t11 47q6 88 9 437q0 28 -23 48q-10 9 -23 14.5t-22 7.5t-33 5q-1 1 0 7.5t2 7.5q8 0 46.5 -1.5t57.5 -1.5q35 0 44 1q3 -13 37 -53q74 -92 203.5 -249.5t166.5 -199.5l2 2q3 351 -5 423q-2 24 -9 36t-27 18q-18 5 -56 10q-2 2 -2 8t2 7
q11 0 49 -1.5t64 -1.5q17 0 53.5 1.5t40.5 1.5q1 -1 1 -7t-1 -8q-21 -4 -39 -8q-31 -10 -33 -53q-3 -36 -4 -102.5t-1.5 -164.5t-1.5 -138v-96q0 -128 -25 -193.5t-86 -65.5q-25 0 -35 13q-6 8 -9 26t-1 30q0 1 2.5 3.5t3.5 2.5q22 -13 59 -13q30 0 43 21t13 84q0 29 -20 54
q-29 43 -214 273.5t-186 232.5q-4 2 -4 -1q-1 -76 -1 -225.5t1 -190.5q1 -34 9.5 -46.5t27.5 -17.5q19 -6 55 -10q2 -2 1.5 -8.5t-2.5 -7.5q-6 0 -44 1.5t-67 1.5q-28 0 -62 -1.5t-40 -1.5q-1 1 -1 8t1 8z" />
    <glyph glyph-name="eng" unicode="&#x14b;" horiz-adv-x="464" 
d="M18 13q22 2 35 7q17 6 19 40q2 23 2 162q0 79 -2 93q-2 10 -10.5 16t-36.5 15q0 10 3 13q67 9 117 38l3 -4q-1 -13 -4 -59q0 -2 1 -3.5t3 -0.5q82 66 136 66q61 0 91 -48q24 -37 24 -112q0 -160 -1 -203q-4 -96 -18 -153.5t-44 -99.5q-49 -65 -99 -65q-30 0 -44 16
q-1 6 6 27.5t11 27.5q38 -23 63 -23q26 0 37.5 22.5t14.5 85.5q3 75 3 184q2 144 -4 205q-5 43 -28 64q-25 23 -61 23q-45 0 -80 -33q-11 -8 -11 -38q0 -170 2 -214q1 -34 18 -40q17 -8 42 -9q1 -2 1 -8t-2 -8q-9 0 -44 1.5t-52 1.5q-24 0 -55 -1.5t-36 -1.5q-2 1 -2 7t2 9z
" />
    <glyph glyph-name="uni014C" unicode="&#x14c;" horiz-adv-x="720" 
d="M354 -18q-65 0 -123 25.5t-97 67.5q-85 94 -85 235q0 104 55 186q42 60 115 96t150 36q143 0 222.5 -90.5t79.5 -221.5q0 -117 -59 -203q-42 -63 -111.5 -97t-146.5 -34zM391 13q68 0 111 38q85 73 85 233q0 82 -28.5 156t-86.5 116q-57 44 -134 44q-51 0 -96 -25
q-53 -32 -79 -96.5t-26 -145.5q0 -83 31 -160.5t94 -121.5q54 -38 129 -38zM264 723q20 -2 49 -2h156q0 -8 -5.5 -21.5t-8.5 -14.5q-21 -3 -170 -3l-35 2q0 4 3.5 13t6.5 17z" />
    <glyph glyph-name="uni014D" unicode="&#x14d;" horiz-adv-x="462" 
d="M245 396q85 0 133.5 -55t48.5 -140q0 -55 -23.5 -102.5t-67.5 -75.5q-51 -35 -109 -35q-67 0 -111.5 32t-62 77t-17.5 99q0 105 85 162q55 38 124 38zM213 369q-32 0 -50 -15q-50 -34 -50 -135q0 -89 38.5 -146t99.5 -57q38 0 61 22q38 39 38 132q0 87 -36.5 143
t-100.5 56zM146 537q8 -2 41 -2h142q0 -8 -5 -21.5t-7 -14.5q-12 -3 -156 -3q-19 0 -27 2q0 4 12 39z" />
    <glyph glyph-name="uni014E" unicode="&#x14e;" horiz-adv-x="720" 
d="M354 -18q-65 0 -123 25.5t-97 67.5q-85 94 -85 235q0 104 55 186q42 60 115 96t150 36q143 0 222.5 -90.5t79.5 -221.5q0 -117 -59 -203q-42 -63 -111.5 -97t-146.5 -34zM391 13q68 0 111 38q85 73 85 233q0 82 -28.5 156t-86.5 116q-57 44 -134 44q-51 0 -96 -25
q-53 -32 -79 -96.5t-26 -145.5q0 -83 31 -160.5t94 -121.5q54 -38 129 -38zM367 709q29 0 48.5 9.5t39.5 34.5q9 9 17 9q3 0 3 -3q-16 -38 -49.5 -63.5t-80.5 -25.5q-39 0 -66.5 18t-27.5 45q0 5 7 14.5t13 14.5h3.5h3.5l1 -1q18 -52 88 -52z" />
    <glyph glyph-name="uni014F" unicode="&#x14f;" horiz-adv-x="462" 
d="M245 396q85 0 133.5 -55t48.5 -140q0 -55 -23.5 -102.5t-67.5 -75.5q-51 -35 -109 -35q-67 0 -111.5 32t-62 77t-17.5 99q0 105 85 162q55 38 124 38zM213 369q-32 0 -50 -15q-50 -34 -50 -135q0 -89 38.5 -146t99.5 -57q38 0 61 22q38 39 38 132q0 87 -36.5 143
t-100.5 56zM241 501q50 0 77 50q2 2 8 7t8 5q3 0 3 -4q-11 -42 -42.5 -70.5t-74.5 -28.5q-33 0 -57.5 19t-24.5 50q0 16 27 33q6 0 6 -2q13 -59 70 -59z" />
    <glyph glyph-name="uni0150" unicode="&#x150;" horiz-adv-x="720" 
d="M354 -18q-65 0 -123 25.5t-97 67.5q-85 94 -85 235q0 104 55 186q42 60 115 96t150 36q143 0 222.5 -90.5t79.5 -221.5q0 -117 -59 -203q-42 -63 -111.5 -97t-146.5 -34zM391 13q68 0 111 38q85 73 85 233q0 82 -28.5 156t-86.5 116q-57 44 -134 44q-51 0 -96 -25
q-53 -32 -79 -96.5t-26 -145.5q0 -83 31 -160.5t94 -121.5q54 -38 129 -38zM320 761q5 3 26.5 7t30.5 4q3 -2 3 -8q-7 -15 -73 -105q-11 0 -13 6q15 64 26 96zM430 774q27 10 60 8q1 0 2 -3.5t0 -4.5q-8 -16 -76 -111q-2 -1 -7.5 1.5t-6.5 4.5q4 13 14.5 55t13.5 50z" />
    <glyph glyph-name="uni0151" unicode="&#x151;" horiz-adv-x="462" 
d="M245 396q85 0 133.5 -55t48.5 -140q0 -55 -23.5 -102.5t-67.5 -75.5q-51 -35 -109 -35q-67 0 -111.5 32t-62 77t-17.5 99q0 105 85 162q55 38 124 38zM213 369q-32 0 -50 -15q-50 -34 -50 -135q0 -89 38.5 -146t99.5 -57q38 0 61 22q38 39 38 132q0 87 -36.5 143
t-100.5 56zM205 589q6 2 23 3.5t22 0.5q4 -2 2 -6q-28 -57 -83 -147q-3 -1 -7.5 1.5t-5.5 4.5q7 20 18.5 53.5t19.5 58.5t11 31zM312 598q29 8 47 3q1 -1 1 -5q-7 -15 -37.5 -70.5t-46.5 -79.5q-2 -2 -7 0.5t-6 5.5q9 24 28.5 83.5t20.5 62.5z" />
    <glyph glyph-name="OE" unicode="&#x152;" horiz-adv-x="961" 
d="M393 13q65 0 107 36q86 72 86 236q0 84 -27 157t-84 115q-59 43 -134 43q-53 0 -95 -24q-54 -33 -81.5 -97t-27.5 -145q0 -82 32 -160.5t94 -122.5q54 -38 130 -38zM862 -5q-36 0 -198 2.5t-182 2.5q-7 0 -23 -4q-54 -14 -103 -14q-67 0 -125 25.5t-97 67.5
q-84 94 -84 235q0 106 55 188q41 59 113.5 94.5t151.5 35.5q36 0 85 -9q26 -7 59 -8h274q80 0 104 3q3 0 3 -3q-8 -33 -17 -138q-2 -2 -9 -2.5t-9 1.5q-4 43 -14 71q-5 13 -9.5 19.5t-15 12t-28.5 6.5q-19 2 -125 2t-124 -1q-2 0 -2 -2t1 -3q119 -82 127 -244q0 -5 3 -5
q88 0 116 1q20 1 28.5 8.5t14.5 26.5q6 17 10 41q2 1 9.5 1t9.5 -2q-6 -36 -6 -95q0 -31 1 -60t1 -31q-2 -1 -9.5 -1t-8.5 1q-1 13 -7 34q-5 20 -14.5 30t-28.5 11q-27 2 -114 2q-6 -2 -6 -6q-6 -156 -125 -248q-11 -9 2 -9q68 -5 245 -5q32 0 48.5 5.5t31.5 20.5
q32 38 54 97q2 1 8.5 -1.5t7.5 -5.5q-3 -17 -17.5 -68t-22.5 -67q-7 -13 -39 -13z" />
    <glyph glyph-name="oe" unicode="&#x153;" horiz-adv-x="705" 
d="M212 370q-30 0 -51 -16q-50 -34 -50 -134q0 -89 40.5 -147t101.5 -58q38 0 61 23q40 38 40 137q0 85 -39 140t-103 55zM389 57q-1 1 -2.5 1.5t-2.5 -0.5q-67 -70 -157 -70q-97 0 -144.5 61t-47.5 147q0 102 85 160q62 40 126 40q87 0 143 -67q6 -6 6 1q26 28 63.5 47.5
t74.5 18.5q32 0 56.5 -13t38.5 -33t21.5 -37.5t10.5 -33.5q0 -5 16 -7q-1 -2 -3 -8t-3 -8q-15 -5 -241 -29q-6 0 -6 -10q0 -79 38 -125q41 -51 107 -51q61 0 109 44q5 -15 5 -16q-34 -38 -79.5 -59t-84.5 -21q-76 0 -129 68zM504 371q-34 0 -56 -31.5t-25 -86.5q0 -4 4 -4
q118 7 159 17q5 2 5 10q-5 34 -27.5 64.5t-59.5 30.5z" />
    <glyph glyph-name="uni0154" unicode="&#x154;" horiz-adv-x="572" 
d="M26 598q-1 2 -1 8t2 7q11 0 50 -1.5t53 -1.5q33 0 83 1t72 1q82 0 126 -42t44 -108q0 -109 -116 -157q-3 -3 -1 -6q103 -169 168 -233q32 -32 51 -41t55 -12q3 -10 -3 -16q-34 -3 -79 1t-68 14q-25 12 -46 37q-22 25 -78 112.5t-65 100.5q-10 17 -24 17q-8 1 -34.5 0
t-28.5 -1q-4 0 -4 -6q0 -155 2 -196q1 -30 6.5 -40t20.5 -14q12 -3 51 -9q2 -2 1.5 -8t-2.5 -8q-4 0 -46.5 1.5t-71.5 1.5q-40 0 -78 -2l-38 -1q-3 1 -3 7.5t3 7.5q39 6 46 8q17 4 23 16t8 40q2 56 2 230q0 200 -2 240t-32 45q-22 5 -46 7zM220 589q-19 0 -30 -4
q-5 -2 -5 -12q-3 -29 -3 -259q0 -5 4 -5q86 -10 120 4q71 27 71 127q0 70 -40 109.5t-117 39.5zM317 773q9 -1 27 -9t23 -14q1 -1 1 -4t-1 -4q-8 -9 -74 -51t-72 -42q-2 0 -5.5 5t-2.5 7q10 13 52 59.5t52 52.5z" />
    <glyph glyph-name="uni0155" unicode="&#x155;" horiz-adv-x="299" 
d="M257 396q29 0 42 -21q1 -1 1 -6.5t-1 -8.5q-1 -8 -11.5 -26.5t-18.5 -27.5q-7 -3 -8 -3q-25 27 -58 27q-26 0 -51 -41q-9 -18 -9 -40q0 -164 3 -194q1 -27 19 -34q24 -6 52 -8q2 -2 1 -8.5t-3 -7.5q-4 0 -41.5 1.5t-59.5 1.5q-45 0 -96 -3q-2 1 -2 7.5t2 8.5q21 2 37 7
q15 7 16 28q4 23 4 178q0 71 -2 84q-3 27 -49 38q0 12 3 13q65 7 113 36q4 0 4 -3q-1 -18 -1 -83q0 -1 1.5 -1.5t2.5 0.5q31 42 59 65q26 21 51 21zM203 580q8 3 31.5 5t28.5 0q1 -1 2 -3.5t0 -3.5q-19 -30 -113 -147q-8 0 -12 8q44 105 63 141z" />
    <glyph glyph-name="uni0156" unicode="&#x156;" horiz-adv-x="572" 
d="M26 598q-1 2 -1 8t2 7q11 0 50 -1.5t53 -1.5q33 0 83 1t72 1q82 0 126 -42t44 -108q0 -109 -116 -157q-3 -3 -1 -6q103 -169 168 -233q32 -32 51 -41t55 -12q3 -10 -3 -16q-34 -3 -79 1t-68 14q-25 12 -46 37q-22 25 -78 112.5t-65 100.5q-10 17 -24 17q-8 1 -34.5 0
t-28.5 -1q-4 0 -4 -6q0 -155 2 -196q1 -30 6.5 -40t20.5 -14q12 -3 51 -9q2 -2 1.5 -8t-2.5 -8q-4 0 -46.5 1.5t-71.5 1.5q-40 0 -78 -2l-38 -1q-3 1 -3 7.5t3 7.5q39 6 46 8q17 4 23 16t8 40q2 56 2 230q0 200 -2 240t-32 45q-22 5 -46 7zM220 589q-19 0 -30 -4
q-5 -2 -5 -12q-3 -29 -3 -259q0 -5 4 -5q86 -10 120 4q71 27 71 127q0 70 -40 109.5t-117 39.5zM323 -28q14 0 28.5 -17t14.5 -44q0 -78 -96 -106q-2 1 -4.5 6t-1.5 6q62 27 62 67q0 35 -50 50q-1 1 -1.5 4.5t0.5 4.5q5 8 21 18.5t27 10.5z" />
    <glyph glyph-name="uni0157" unicode="&#x157;" horiz-adv-x="299" 
d="M257 396q29 0 42 -21q1 -1 1 -6.5t-1 -8.5q-1 -8 -11.5 -26.5t-18.5 -27.5q-7 -3 -8 -3q-25 27 -58 27q-26 0 -51 -41q-9 -18 -9 -40q0 -164 3 -194q1 -27 19 -34q24 -6 52 -8q2 -2 1 -8.5t-3 -7.5q-4 0 -41.5 1.5t-59.5 1.5q-45 0 -96 -3q-2 1 -2 7.5t2 8.5q21 2 37 7
q15 7 16 28q4 23 4 178q0 71 -2 84q-3 27 -49 38q0 12 3 13q65 7 113 36q4 0 4 -3q-1 -18 -1 -83q0 -1 1.5 -1.5t2.5 0.5q31 42 59 65q26 21 51 21zM112 -31q14 0 28.5 -17t14.5 -44q0 -78 -96 -106q-2 1 -4.5 6t-1.5 6q62 27 62 67q0 35 -50 50q-1 1 -1.5 4.5t0.5 4.5
q5 8 21 18.5t27 10.5z" />
    <glyph glyph-name="uni0158" unicode="&#x158;" horiz-adv-x="572" 
d="M26 598q-1 2 -1 8t2 7q11 0 50 -1.5t53 -1.5q33 0 83 1t72 1q82 0 126 -42t44 -108q0 -109 -116 -157q-3 -3 -1 -6q103 -169 168 -233q32 -32 51 -41t55 -12q3 -10 -3 -16q-34 -3 -79 1t-68 14q-25 12 -46 37q-22 25 -78 112.5t-65 100.5q-10 17 -24 17q-8 1 -34.5 0
t-28.5 -1q-4 0 -4 -6q0 -155 2 -196q1 -30 6.5 -40t20.5 -14q12 -3 51 -9q2 -2 1.5 -8t-2.5 -8q-4 0 -46.5 1.5t-71.5 1.5q-40 0 -78 -2l-38 -1q-3 1 -3 7.5t3 7.5q39 6 46 8q17 4 23 16t8 40q2 56 2 230q0 200 -2 240t-32 45q-22 5 -46 7zM220 589q-19 0 -30 -4
q-5 -2 -5 -12q-3 -29 -3 -259q0 -5 4 -5q86 -10 120 4q71 27 71 127q0 70 -40 109.5t-117 39.5zM246 653q-2 -4 -11 -4q-9 10 -57 49t-66 51q0 3 3 8.5t5 5.5q4 0 54.5 -21.5t62.5 -28.5q7 -2 10 0q15 8 60 29t49 21q2 0 4.5 -5t1.5 -9q-77 -57 -116 -96z" />
    <glyph glyph-name="uni0159" unicode="&#x159;" horiz-adv-x="299" 
d="M257 396q29 0 42 -21q1 -1 1 -6.5t-1 -8.5q-1 -8 -11.5 -26.5t-18.5 -27.5q-7 -3 -8 -3q-25 27 -58 27q-26 0 -51 -41q-9 -18 -9 -40q0 -164 3 -194q1 -27 19 -34q24 -6 52 -8q2 -2 1 -8.5t-3 -7.5q-4 0 -41.5 1.5t-59.5 1.5q-45 0 -96 -3q-2 1 -2 7.5t2 8.5q21 2 37 7
q15 7 16 28q4 23 4 178q0 71 -2 84q-3 27 -49 38q0 12 3 13q65 7 113 36q4 0 4 -3q-1 -18 -1 -83q0 -1 1.5 -1.5t2.5 0.5q31 42 59 65q26 21 51 21zM159 497q12 22 32.5 52t28.5 37q11 9 23 9q3 0 3 -3q-69 -111 -84 -150q-4 -7 -18 -7q-11 30 -39.5 81.5t-40.5 69.5
q5 8 30 8q5 -3 26.5 -38t34.5 -59q2 -2 4 0z" />
    <glyph glyph-name="uni015A" unicode="&#x15a;" horiz-adv-x="446" 
d="M51 154q25 -93 70 -123q35 -25 98 -25q47 0 78 29t31 82q0 48 -29 81t-100 77q-70 43 -105 85.5t-35 101.5q0 76 53.5 121t135.5 45q36 0 87 -7.5t52 -7.5q-12 -67 -17 -129q-1 -2 -8.5 -2.5t-8.5 1.5q-4 49 -13 71.5t-28 34.5q-30 18 -77 18q-50 0 -79 -30.5t-30 -76.5
q-1 -68 66 -118q22 -16 62.5 -40t49.5 -30q46 -31 72.5 -65.5t26.5 -84.5q0 -77 -57.5 -128.5t-154.5 -51.5q-40 0 -79 9.5t-55 20.5q-7 9 -14 58t-9 80q1 3 8 4.5t9 -0.5zM302 784q9 -1 27 -9t23 -14q1 -1 1 -4t-1 -4q-8 -9 -74 -51t-72 -42q-2 0 -5.5 5t-2.5 7
q10 13 52 59.5t52 52.5z" />
    <glyph glyph-name="uni015B" unicode="&#x15b;" horiz-adv-x="320" 
d="M274 387q-8 -35 -11 -97q-1 -2 -8 -2.5t-8 1.5q-7 65 -36 78q-20 10 -44 10q-26 0 -44 -16t-18 -45q0 -28 16 -47.5t68 -45.5q58 -30 78.5 -55.5t20.5 -61.5q0 -51 -41.5 -84.5t-103.5 -33.5q-54 0 -99 19q-12 44 -12 104q1 2 7 3.5t9 0.5q15 -73 61 -96q21 -11 45 -11
q30 0 49.5 17t19.5 44t-15.5 45.5t-56.5 41.5q-61 32 -83.5 60.5t-22.5 67.5q0 47 36 79.5t100 32.5q30 0 57 -5q26 -4 36 -4zM202 580q8 3 31.5 5t28.5 0q1 -1 2 -3.5t0 -3.5q-19 -30 -113 -147q-8 0 -12 8q44 105 63 141z" />
    <glyph glyph-name="uni015C" unicode="&#x15c;" horiz-adv-x="446" 
d="M51 154q25 -93 70 -123q35 -25 98 -25q47 0 78 29t31 82q0 48 -29 81t-100 77q-70 43 -105 85.5t-35 101.5q0 76 53.5 121t135.5 45q36 0 87 -7.5t52 -7.5q-12 -67 -17 -129q-1 -2 -8.5 -2.5t-8.5 1.5q-4 49 -13 71.5t-28 34.5q-30 18 -77 18q-50 0 -79 -30.5t-30 -76.5
q-1 -68 66 -118q22 -16 62.5 -40t49.5 -30q46 -31 72.5 -65.5t26.5 -84.5q0 -77 -57.5 -128.5t-154.5 -51.5q-40 0 -79 9.5t-55 20.5q-7 9 -14 58t-9 80q1 3 8 4.5t9 -0.5zM227 768q4 4 12 4q8 -10 56 -49t67 -51q0 -3 -3 -8.5t-5 -5.5q-4 0 -54 22t-64 29q-4 2 -9 0
q-97 -51 -109 -51q-2 0 -4.5 5t-1.5 9q73 54 115 96z" />
    <glyph glyph-name="uni015D" unicode="&#x15d;" horiz-adv-x="320" 
d="M274 387q-8 -35 -11 -97q-1 -2 -8 -2.5t-8 1.5q-7 65 -36 78q-20 10 -44 10q-26 0 -44 -16t-18 -45q0 -28 16 -47.5t68 -45.5q58 -30 78.5 -55.5t20.5 -61.5q0 -51 -41.5 -84.5t-103.5 -33.5q-54 0 -99 19q-12 44 -12 104q1 2 7 3.5t9 0.5q15 -73 61 -96q21 -11 45 -11
q30 0 49.5 17t19.5 44t-15.5 45.5t-56.5 41.5q-61 32 -83.5 60.5t-22.5 67.5q0 47 36 79.5t100 32.5q30 0 57 -5q26 -4 36 -4zM164 536q-12 -22 -32.5 -51.5t-27.5 -36.5q-9 -9 -23 -9q-3 0 -3 3q69 111 84 150q4 7 18 7q11 -30 39.5 -81.5t40.5 -69.5q-5 -8 -30 -8
q-5 3 -28 39t-34 57q-2 2 -4 0z" />
    <glyph glyph-name="uni015E" unicode="&#x15e;" horiz-adv-x="446" 
d="M51 154q25 -95 70 -123q35 -25 97 -25q48 0 79 29t31 82q0 48 -29 81t-100 77q-70 43 -105 85.5t-35 101.5q0 76 53.5 121t135.5 45q48 0 87 -7q28 -4 52 -6q-12 -67 -17 -129q-1 -2 -8.5 -2.5t-8.5 1.5q-6 84 -42 105q-27 17 -76 17q-50 0 -79 -30.5t-30 -76.5
q-1 -68 66 -118q22 -16 62.5 -40t49.5 -30q46 -31 72.5 -65.5t26.5 -84.5q0 -68 -45 -116.5t-125 -59.5l-19 -29q32 -15 44 -27q20 -17 20 -46q0 -36 -35.5 -61.5t-61.5 -25.5q-33 0 -47 27q-1 2 -0.5 8.5t1.5 7.5q29 -15 62 -15q38 0 38 30q0 15 -17 32t-54 29q0 5 2 8
q25 35 43 59q-37 -2 -80.5 5.5t-71.5 23.5q-13 18 -23 138q1 3 8 4.5t9 -0.5z" />
    <glyph glyph-name="uni015F" unicode="&#x15f;" horiz-adv-x="320" 
d="M274 387q-8 -35 -11 -96q-1 -2 -7.5 -2.5t-8.5 1.5q-7 62 -34 77q-20 10 -46 10t-44 -16t-18 -45q0 -28 16 -47.5t68 -45.5q58 -30 78.5 -55.5t20.5 -61.5q0 -48 -34 -78t-83 -38l-17 -24q25 -15 41 -29q20 -18 20 -42q0 -34 -33.5 -58.5t-59.5 -24.5q-29 0 -46 26
q-2 9 3 14q26 -15 57 -15q17 0 27.5 9t10.5 22q0 33 -65 59q-1 5 0 8q24 32 41 53q-60 -1 -106 19q-12 44 -12 103q1 2 7 3.5t9 0.5q15 -72 60 -95q20 -11 46 -11q30 0 49.5 17t19.5 44t-15.5 45.5t-56.5 41.5q-61 32 -83.5 60.5t-22.5 67.5q0 47 36 79.5t100 32.5
q31 0 59 -5q26 -4 34 -4z" />
    <glyph glyph-name="Scaron" unicode="&#x160;" horiz-adv-x="446" 
d="M51 154q25 -93 70 -123q35 -25 98 -25q47 0 78 29t31 82q0 48 -29 81t-100 77q-70 43 -105 85.5t-35 101.5q0 76 53.5 121t135.5 45q36 0 87 -7.5t52 -7.5q-12 -67 -17 -129q-1 -2 -8.5 -2.5t-8.5 1.5q-4 49 -13 71.5t-28 34.5q-30 18 -77 18q-50 0 -79 -30.5t-30 -76.5
q-1 -68 66 -118q22 -16 62.5 -40t49.5 -30q46 -31 72.5 -65.5t26.5 -84.5q0 -77 -57.5 -128.5t-154.5 -51.5q-40 0 -79 9.5t-55 20.5q-7 9 -14 58t-9 80q1 3 8 4.5t9 -0.5zM246 664q-2 -4 -11 -4q-9 10 -57 49t-66 51q0 3 3 8.5t5 5.5q4 0 54.5 -21.5t62.5 -28.5q7 -2 10 0
q15 8 60 29t49 21q2 0 4.5 -5t1.5 -9q-77 -57 -116 -96z" />
    <glyph glyph-name="scaron" unicode="&#x161;" horiz-adv-x="320" 
d="M274 387q-8 -35 -11 -97q-1 -2 -8 -2.5t-8 1.5q-7 65 -36 78q-20 10 -44 10q-26 0 -44 -16t-18 -45q0 -28 16 -47.5t68 -45.5q58 -30 78.5 -55.5t20.5 -61.5q0 -51 -41.5 -84.5t-103.5 -33.5q-54 0 -99 19q-12 44 -12 104q1 2 7 3.5t9 0.5q15 -73 61 -96q21 -11 45 -11
q30 0 49.5 17t19.5 44t-15.5 45.5t-56.5 41.5q-61 32 -83.5 60.5t-22.5 67.5q0 47 36 79.5t100 32.5q30 0 57 -5q26 -4 36 -4zM173 497q12 22 32.5 52t28.5 37q11 9 23 9q3 0 3 -3q-69 -111 -84 -150q-4 -7 -18 -7q-11 30 -39.5 81.5t-40.5 69.5q5 8 30 8q5 -3 26.5 -38
t34.5 -59q2 -2 4 0z" />
    <glyph glyph-name="uni0162" unicode="&#x162;" horiz-adv-x="601" 
d="M422 12q2 -1 1 -7.5t-3 -7.5q-14 0 -59 1.5t-65 1.5q-36 0 -84 -1.5t-58 -1.5q-2 3 -2 8t2 7q45 5 64 9q21 4 27 19t8 52q3 66 3 483q0 7 -6 7q-13 1 -68.5 0.5t-70.5 -1.5q-25 -1 -40 -26q-13 -21 -37 -87q-1 -2 -8.5 -0.5t-8.5 3.5q14 71 18 152l5 2q32 -15 78 -15h368
q51 0 88 12q4 0 4 -2q-12 -39 -20 -150q-1 -2 -9 -2t-9 2q-4 54 -15 81q-11 26 -39 29q-26 1 -79.5 1.5t-67.5 -0.5q-5 -2 -5 -9q0 -379 4 -483q2 -39 9.5 -51.5t25.5 -17.5q13 -4 49 -8zM297 -36q14 0 28.5 -17t14.5 -44q0 -78 -96 -106q-2 1 -4.5 6t-1.5 6q62 27 62 67
q0 35 -50 50q-1 1 -1.5 4.5t0.5 4.5q5 8 21 18.5t27 10.5z" />
    <glyph glyph-name="uni0163" unicode="&#x163;" horiz-adv-x="263" 
d="M243 344q-15 0 -50 0.5t-50 0.5q-5 0 -5 -6v-210q1 -48 7 -60q12 -35 53 -35q31 0 55 16q1 -1 0 -7.5t-2 -9.5q-33 -44 -92 -44q-58 0 -78 42q-13 26 -13 114q0 28 0.5 101t0.5 91q0 6 -4 7q-2 1 -50 4l8 24q40 7 43 8q3 2 3 6v79q14 6 35.5 23.5t27.5 26.5q3 1 12 -2
q-6 -28 -6 -125q0 -6 5 -6q84 0 108 4q-6 -24 -8 -42zM153 -38q14 0 28.5 -17t14.5 -44q0 -78 -96 -106q-2 1 -4.5 6t-1.5 6q62 27 62 67q0 35 -50 50q-1 1 -1.5 4.5t0.5 4.5q5 8 21 18.5t27 10.5z" />
    <glyph glyph-name="uni0164" unicode="&#x164;" horiz-adv-x="601" 
d="M422 12q2 -1 1 -7.5t-3 -7.5q-14 0 -59 1.5t-65 1.5q-36 0 -84 -1.5t-58 -1.5q-2 3 -2 8t2 7q45 5 64 9q21 4 27 19t8 52q3 66 3 483q0 7 -6 7q-13 1 -68.5 0.5t-70.5 -1.5q-25 -1 -40 -26q-13 -21 -37 -87q-1 -2 -8.5 -0.5t-8.5 3.5q14 71 18 152l5 2q32 -15 78 -15h368
q51 0 88 12q4 0 4 -2q-12 -39 -20 -150q-1 -2 -9 -2t-9 2q-4 54 -15 81q-11 26 -39 29q-26 1 -79.5 1.5t-67.5 -0.5q-5 -2 -5 -9q0 -379 4 -483q2 -39 9.5 -51.5t25.5 -17.5q13 -4 49 -8zM302 651q-2 -4 -11 -4q-9 10 -57 49t-66 51q0 3 3 8.5t5 5.5q4 0 54.5 -21.5
t62.5 -28.5q7 -2 10 0q15 8 60 29t49 21q2 0 4.5 -5t1.5 -9q-77 -57 -116 -96z" />
    <glyph glyph-name="uni0165" unicode="&#x165;" horiz-adv-x="263" 
d="M243 344q-15 0 -50 0.5t-50 0.5q-5 0 -5 -6v-210q1 -48 7 -60q12 -35 53 -35q31 0 55 16q1 -1 0 -7.5t-2 -9.5q-33 -44 -92 -44q-58 0 -78 42q-13 26 -13 114q0 28 0.5 101t0.5 91q0 6 -4 7q-2 1 -50 4l8 24q40 7 43 8q3 2 3 6v79q14 6 35.5 23.5t27.5 26.5q3 1 12 -2
q-6 -28 -6 -125q0 -6 5 -6q84 0 108 4q-6 -24 -8 -42zM248 669q5 0 5 -13q0 -25 -5.5 -85.5t-10.5 -88.5q-5 -17 -17 -25q-4 -2 -4 3q0 42 -11 163q0 5 2 8q29 38 41 38z" />
    <glyph glyph-name="Tbar" unicode="&#x166;" horiz-adv-x="601" 
d="M155 12q41 4 63 9q21 4 27 18.5t8 52.5q2 21 2 211q-18 0 -57.5 -0.5t-49.5 -0.5q3 22 7 25h100q0 48 0.5 130t0.5 117q0 8 -6 8q-13 1 -68 0.5t-70 -1.5q-27 -1 -41 -27q-16 -23 -37 -87q-2 -2 -9 0t-8 4q11 54 18 152l5 2q32 -15 78 -15h368q51 0 88 12q4 0 4 -4
q-12 -38 -20 -148q-1 -2 -9 -2t-9 2q-4 53 -15 81q-10 26 -39 29q-26 1 -79.5 1.5t-67.5 -0.5q-5 -2 -5 -9q0 -168 1 -245q26 0 53 0.5t43.5 0.5h17.5q0 -15 -4 -25q-56 0 -110 -1q2 -189 3 -213q2 -39 9.5 -51.5t25.5 -17.5q19 -5 49 -8q1 -1 0 -7.5t-2 -7.5
q-17 0 -60.5 1.5t-63.5 1.5q-28 0 -79 -1.5t-63 -1.5q-2 3 -1.5 8t2.5 7z" />
    <glyph glyph-name="tbar" unicode="&#x167;" horiz-adv-x="263" 
d="M243 344q-15 0 -50 0.5t-50 0.5q-5 0 -5 -6q0 -13 -0.5 -51t-0.5 -59q21 0 54 1h33q0 -14 -4 -26l-83 1q0 -59 1 -76q1 -48 7 -60q12 -35 53 -35q31 0 55 16q1 -1 0 -7.5t-2 -9.5q-33 -44 -92 -44q-58 0 -78 42q-13 26 -13 114v60q-11 0 -26.5 -0.5t-22.5 -0.5q2 21 6 25
h43q1 41 1 108q0 6 -4 7q-3 1 -50 4l8 24q40 7 43 8q3 2 3 6v79q14 6 35.5 23.5t27.5 26.5q3 1 12 -2q-6 -28 -6 -125q0 -6 5 -6q84 0 108 4q-6 -24 -8 -42z" />
    <glyph glyph-name="uni0168" unicode="&#x168;" horiz-adv-x="662" 
d="M20 598q-2 2 -2 7.5t2 7.5q3 0 44 -1.5t71 -1.5q29 0 65 1.5t43 1.5q1 -1 1 -7t-1 -8q-37 -8 -42 -9q-14 -4 -19.5 -15t-6.5 -40q-6 -152 0 -307q5 -91 33 -131q47 -73 159 -73q77 0 122.5 41t51.5 146q8 152 2 307q-1 41 -11 55t-33 19q-8 2 -21 3.5t-21 2.5
q-1 2 -1 7.5t2 7.5q3 0 37.5 -1t67.5 -1q24 0 54.5 1t36.5 1q2 -2 2 -8t-2 -7q-27 -4 -37 -7q-19 -6 -26 -21t-8 -57q-5 -282 -15 -340q-28 -190 -233 -190q-213 0 -235 180q-4 27 -5 100.5t-1 160.5t-1 113q0 45 -25 53q-10 4 -48 9zM417 710q34 0 65 29l3 -3q3 -8 2 -11
q-11 -19 -40.5 -37.5t-53.5 -18.5q-13 0 -60 12q-26 7 -37 7q-28 0 -58 -25q-1 -1 -3 2.5t-3 7t0 4.5q9 13 38 32.5t47 19.5q24 0 55 -10q34 -9 45 -9z" />
    <glyph glyph-name="uni0169" unicode="&#x169;" horiz-adv-x="455" 
d="M8 360q-1 2 0.5 8.5t2.5 7.5q79 0 131 16q-5 -27 -5 -187q0 -86 5 -106q15 -61 82 -61q42 0 78 29q10 7 12 28q1 16 1 101.5t-2 125.5q-2 24 -19 29q-11 3 -63 9q-2 1 -1 8t3 8q93 0 155 15q-4 -25 -4 -106l1 -198q0 -30 6 -39.5t22 -9.5q5 0 31 2q0 -16 -2 -17
q-68 -19 -122 -40q-6 0 -6 8v57q0 2 -2 3t-4 0q-72 -63 -129 -63q-113 0 -113 133q0 173 -1 196q-2 30 -14 35q-8 4 -43 8zM277 528q30 0 58 28q2 -2 2 -3q2 -7 -1 -14q-10 -16 -36 -34t-45 -18q-16 0 -58 12q-23 7 -35 7q-24 0 -53 -26q-1 -1 -4 2q0 12 3 15q7 13 32.5 31
t42.5 18q18 0 48 -8q34 -10 46 -10z" />
    <glyph glyph-name="uni016A" unicode="&#x16a;" horiz-adv-x="662" 
d="M20 598q-2 2 -2 7.5t2 7.5q3 0 44 -1.5t71 -1.5q29 0 65 1.5t43 1.5q1 -1 1 -7t-1 -8q-37 -8 -42 -9q-14 -4 -19.5 -15t-6.5 -40q-6 -152 0 -307q5 -91 33 -131q47 -73 159 -73q77 0 122.5 41t51.5 146q8 152 2 307q-1 41 -11 55t-33 19q-8 2 -21 3.5t-21 2.5
q-1 2 -1 7.5t2 7.5q3 0 37.5 -1t67.5 -1q24 0 54.5 1t36.5 1q2 -2 2 -8t-2 -7q-27 -4 -37 -7q-19 -6 -26 -21t-8 -57q-5 -282 -15 -340q-28 -190 -233 -190q-213 0 -235 180q-4 27 -5 100.5t-1 160.5t-1 113q0 45 -25 53q-10 4 -48 9zM261 711q20 -2 49 -2h156
q0 -8 -5.5 -21.5t-8.5 -14.5q-21 -3 -170 -3l-35 2q0 4 3.5 13t7.5 17z" />
    <glyph glyph-name="uni016B" unicode="&#x16b;" horiz-adv-x="455" 
d="M8 360q-1 2 0.5 8.5t2.5 7.5q79 0 131 16q-5 -27 -5 -187q0 -86 5 -106q15 -61 82 -61q42 0 78 29q10 7 12 28q1 16 1 101.5t-2 125.5q-2 24 -19 29q-11 3 -63 9q-2 1 -1 8t3 8q93 0 155 15q-4 -25 -4 -106l1 -198q0 -30 6 -39.5t22 -9.5q5 0 31 2q0 -16 -2 -17
q-68 -19 -122 -40q-6 0 -6 8v57q0 2 -2 3t-4 0q-72 -63 -129 -63q-113 0 -113 133q0 173 -1 196q-2 30 -14 35q-8 4 -43 8zM135 537q8 -2 41 -2h142q0 -8 -5 -21.5t-7 -14.5q-12 -3 -156 -3q-19 0 -27 2q1 4 12 39z" />
    <glyph glyph-name="uni016C" unicode="&#x16c;" horiz-adv-x="662" 
d="M20 598q-2 2 -2 7.5t2 7.5q3 0 44 -1.5t71 -1.5q29 0 65 1.5t43 1.5q1 -1 1 -7t-1 -8q-37 -8 -42 -9q-14 -4 -19.5 -15t-6.5 -40q-6 -152 0 -307q5 -91 33 -131q47 -73 159 -73q77 0 122.5 41t51.5 146q8 152 2 307q-1 41 -11 55t-33 19q-8 2 -21 3.5t-21 2.5
q-1 2 -1 7.5t2 7.5q3 0 37.5 -1t67.5 -1q24 0 54.5 1t36.5 1q2 -2 2 -8t-2 -7q-27 -4 -37 -7q-19 -6 -26 -21t-8 -57q-5 -282 -15 -340q-28 -190 -233 -190q-213 0 -235 180q-4 27 -5 100.5t-1 160.5t-1 113q0 45 -25 53q-10 4 -48 9zM360 689q29 0 48.5 9.5t39.5 34.5
q9 9 17 9q3 0 3 -3q-16 -38 -49.5 -63.5t-80.5 -25.5q-39 0 -66.5 18t-27.5 45q0 5 7 14.5t13 14.5h3.5h2.5l2 -1q18 -52 88 -52z" />
    <glyph glyph-name="uni016D" unicode="&#x16d;" horiz-adv-x="455" 
d="M8 360q-1 2 0.5 8.5t2.5 7.5q79 0 131 16q-5 -27 -5 -187q0 -86 5 -106q15 -61 82 -61q42 0 78 29q10 7 12 28q1 16 1 101.5t-2 125.5q-2 24 -19 29q-11 3 -63 9q-2 1 -1 8t3 8q93 0 155 15q-4 -25 -4 -106l1 -198q0 -30 6 -39.5t22 -9.5q5 0 31 2q0 -16 -2 -17
q-68 -19 -122 -40q-6 0 -6 8v57q0 2 -2 3t-4 0q-72 -63 -129 -63q-113 0 -113 133q0 173 -1 196q-2 30 -14 35q-8 4 -43 8zM227 501q50 0 77 50q2 2 8 7t8 5q3 0 3 -4q-11 -42 -42.5 -70.5t-74.5 -28.5q-33 0 -57.5 19t-24.5 50q0 16 27 33q6 0 6 -2q13 -59 70 -59z" />
    <glyph glyph-name="Uring" unicode="&#x16e;" horiz-adv-x="662" 
d="M20 598q-2 2 -2 7.5t2 7.5q3 0 44 -1.5t71 -1.5q29 0 65 1.5t43 1.5q1 -1 1 -7t-1 -8q-37 -8 -42 -9q-14 -4 -19.5 -15t-6.5 -40q-6 -152 0 -307q5 -91 33 -131q47 -73 159 -73q77 0 122.5 41t51.5 146q8 152 2 307q-1 41 -11 55t-33 19q-8 2 -21 3.5t-21 2.5
q-1 2 -1 7.5t2 7.5q3 0 37.5 -1t67.5 -1q24 0 54.5 1t36.5 1q2 -2 2 -8t-2 -7q-27 -4 -37 -7q-19 -6 -26 -21t-8 -57q-5 -282 -15 -340q-28 -190 -233 -190q-213 0 -235 180q-4 27 -5 100.5t-1 160.5t-1 113q0 45 -25 53q-10 4 -48 9zM356 772q30 0 47.5 -18t17.5 -44
q0 -30 -19 -47.5t-50 -17.5q-22 0 -43 15t-21 46q0 30 17.5 48t50.5 18zM352 743q-20 0 -32 -9.5t-12 -26.5q0 -16 14.5 -25t33.5 -9q18 0 31 9.5t13 23.5q0 37 -48 37z" />
    </font>
</defs>
</svg>
