<?xml version="1.0" standalone="no"?>
<!DOCTYPE svg PUBLIC "-//W3C//DTD SVG 1.1//EN" "http://www.w3.org/Graphics/SVG/1.1/DTD/svg11.dtd" >
<svg>
<metadata>
Created by FontForge 20110222 at Mon Apr 21 08:23:25 2014
 By Orthosie Webhosting
(c) 2007 Adobe Systems Incorporated. All Rights Reserved.
</metadata>
<defs>
<font id="ArnoProBoldSubhead" horiz-adv-x="523" >
  <font-face 
    font-family="ArnoProBoldSubhead"
    font-weight="700"
    font-stretch="normal"
    units-per-em="1000"
    panose-1="2 2 8 2 5 5 6 2 4 3"
    ascent="683"
    descent="-317"
    x-height="397"
    cap-height="605"
    bbox="-152 -376.182 1410 867"
    underline-thickness="50"
    underline-position="-50"
    unicode-range="U+0020-FB06"
  />
<missing-glyph horiz-adv-x="495" 
d="M0 0v693h495v-693h-495zM248 391l168 253h-337zM277 347l169 -253v505zM79 50h337l-168 252zM50 599v-505l168 253z" />
    <glyph glyph-name="f_f" unicode="ff" horiz-adv-x="549" 
d="M15 23q37 8 41 10q16 6 16 32q0 40 0.5 136t0.5 138q0 7 -6 7l-46 3q0 19 7 26q17 5 42 16q4 4 4 9q4 131 123 208q64 41 119 41q75 0 113 -40q26 24 65.5 42t70.5 18q59 0 84 -36q3 -10 0 -17q-4 -13 -22.5 -36.5t-26.5 -26.5q-2 -2 -7 -2t-7 2q-17 21 -27 31.5
t-27 21.5t-32 11q-23 0 -32 -28.5t-9 -116.5q0 -60 1 -71q0 -7 6 -7l92 3q-4 -17 -9 -51q-14 0 -42.5 0.5t-41.5 0.5q-5 0 -5 -6q1 -48 1.5 -111.5t1 -99t1.5 -54.5q3 -37 30 -44q9 -3 44 -8q1 -4 0 -15.5t-4 -11.5q-15 0 -63 1.5t-82 1.5q-23 0 -61.5 -1.5t-46.5 -1.5
q-3 4 -3 14t3 13q31 4 38 8q17 6 17 33v276q0 6 -5 6h-130q-5 0 -5 -6q1 -139 4 -267q1 -23 6 -32t19 -12l30 -6q1 -4 0 -14.5t-3 -12.5q-15 0 -48.5 1.5t-73.5 1.5q-24 0 -65.5 -1.5t-49.5 -1.5q-1 4 -1 13.5t1 12.5zM195 434l1 -33q0 -7 6 -7h130q4 2 4 8q4 69 29 126
q-45 75 -106 75q-23 0 -38 -18q-26 -30 -26 -151z" />
    <glyph glyph-name="f_f_i" unicode="ffi" horiz-adv-x="790" 
d="M15 23q37 8 41 10q16 6 16 33q0 40 0.5 135.5t0.5 137.5q0 7 -6 7l-46 3q0 19 7 26q10 3 42 16q4 4 4 9q1 58 31 114.5t93 94.5q64 40 122 40q71 0 112 -41q27 25 69.5 43t86.5 18q49 0 83 -19t45 -46q6 -14 0 -28q-14 -32 -51 -53q-19 -6 -30 2q-15 14 -39 48
q-40 51 -74 51t-47.5 -43t-13.5 -139l1 -41q0 -7 6 -7l142 1q72 0 114 13q-2 -46 -2 -171q0 -123 1 -166q1 -22 5.5 -29t16.5 -11q5 -3 33 -7q2 -3 0 -14t-5 -13q-10 0 -47.5 1.5t-67.5 1.5q-32 0 -69 -1.5t-41 -1.5q-2 3 -2 14t2 13q18 3 29 7q17 5 18 38q2 44 2 147
q0 100 -1 116q-3 14 -12 15h-117q-5 0 -5 -6q0 -195 2 -267q1 -22 7 -31.5t20 -13.5q3 -1 29 -5q2 -3 1.5 -13.5t-3.5 -13.5q-12 0 -49 1.5t-71 1.5q-16 0 -61 -1.5t-54 -1.5q-2 2 -2 13.5t2 13.5q25 4 37 9q16 6 16 31q0 40 0.5 137.5t0.5 139.5q0 6 -5 6h-131q-5 0 -5 -6
q1 -139 4 -267q1 -23 6 -32t19 -12l30 -6q1 -4 0 -14.5t-3 -12.5q-16 0 -49 1.5t-73 1.5q-24 0 -65.5 -1.5t-49.5 -1.5q-1 4 -1 13.5t1 12.5zM195 434v-33q2 -7 6 -7h132q5 2 5 8q4 73 29 128q-18 34 -48 53t-59 19q-23 0 -38 -17q-27 -29 -27 -151z" />
    <glyph glyph-name="f_f_l" unicode="ffl" horiz-adv-x="791" 
d="M14 23q36 8 40 9q16 7 16 33q1 81 1 274q0 7 -5 7l-47 3q0 17 7 26q22 6 42 16q3 3 5 9q4 134 124 210q63 39 122 39q70 0 111 -41q28 24 67.5 42.5t74.5 18.5q50 0 88 -18q8 -4 19 -1q22 8 41 18q9 -4 9 -12q-7 -26 -7 -93q-1 -22 -1 -56t-0.5 -84t-0.5 -85
q0 -240 2 -270q1 -30 20 -37q6 -2 19 -4t18 -3q2 -4 1 -13.5t-3 -13.5q-7 0 -51 1.5t-75 1.5q-21 0 -59.5 -1.5t-45.5 -1.5q-1 3 -1.5 13.5t0.5 13.5q16 2 31 7q10 5 13 12t4 30q2 27 2 258q0 171 -1 215q-3 30 -15 45q-24 33 -61 33q-35 0 -47.5 -37.5t-12.5 -117.5
q0 -53 1 -68q0 -7 6 -7q36 0 87 3q-4 -14 -10 -52q-14 0 -39 0.5t-39 0.5q-5 0 -5 -6q2 -209 3 -267q0 -22 5.5 -30.5t20.5 -13.5q7 -2 31 -5q1 -3 0 -14.5t-2 -12.5q-12 0 -50.5 1.5t-72.5 1.5q-16 0 -61.5 -1.5t-55.5 -1.5q-6 16 0 27q29 4 42 10q15 6 15 33q2 162 2 274
q0 6 -5 6h-130q-6 0 -6 -6q1 -61 2 -153t1 -114q1 -39 25 -44l31 -6q1 -4 0 -14.5t-3 -12.5q-15 0 -49 1.5t-73 1.5q-24 0 -65.5 -1.5t-49.5 -1.5q-2 4 -2 13.5t2 12.5zM194 434v-33q0 -7 6 -7h132q4 2 4 8q4 70 30 129q-50 71 -109 71q-20 0 -36 -16q-27 -32 -27 -152z" />
    <glyph glyph-name="longs_t" unicode="&#x17f;t" horiz-adv-x="572" 
d="M15 23q27 4 41 9q16 7 16 33q0 40 0.5 134t0.5 136q0 7 -6 7l-46 3q0 20 8 30q19 4 41 17q4 3 4 7q0 72 25 126t85 98q62 45 127 45q66 0 103 -37.5t40 -87.5q1 -19 1.5 -77.5t-0.5 -63.5q0 -8 5 -8q57 0 105 4q-5 -29 -7 -58q-17 0 -50.5 0.5t-49.5 0.5q-4 0 -4 -6
q0 -19 -0.5 -80.5t-0.5 -85.5q0 -57 4 -75q3 -16 17 -26.5t34 -10.5q33 0 54 13q2 -2 2 -11.5t-1 -15.5q-21 -28 -55.5 -41.5t-67.5 -13.5q-74 0 -99 48q-10 18 -12.5 40t-2.5 73q0 26 0.5 94t0.5 88q0 9 -6 11l-50 4q1 2 4 18t5 20q34 5 42 10q7 3 8 13q4 33 4 114
q0 57 -18 79q-22 28 -54 28q-37 0 -52 -52t-15 -166q0 -226 5 -338q1 -21 6 -29.5t20 -12.5q7 -2 21 -3.5t18 -2.5q1 -4 0 -14.5t-3 -12.5q-15 0 -53.5 1.5t-78.5 1.5q-24 0 -65.5 -1.5t-49.5 -1.5q-1 4 -1 13t1 13z" />
    <glyph glyph-name="R_A" unicode="RA" horiz-adv-x="1204" 
d="M27 578q-2 4 -1.5 15t3.5 12q11 0 63 -1.5t71 -1.5q30 0 89.5 1t97.5 1q90 0 137 -40.5t47 -108.5q0 -106 -117 -151q-3 -3 -1 -7q17 -32 72 -114t89 -120q28 -32 55 -30q14 -1 22 6.5t17 27.5q37 89 98 253t81 226q13 38 16 58q14 -2 49 -2q34 0 47 2q3 -17 15 -54
q148 -425 148 -426q23 -62 39 -77t68 -23q2 -2 0.5 -13.5t-3.5 -13.5q-7 0 -53 1.5t-87 1.5q-35 0 -149 -3q-4 19 0 27q43 9 49 13q14 6 9 20q-15 58 -51 151q-3 7 -9 7q-13 1 -70 1q-70 0 -84 -1q-7 0 -9 -9q-45 -126 -44 -140l1.5 -13.5t7 -11t18.5 -8.5q16 -4 49 -9
q1 -2 0 -13t-3 -14q-11 0 -48.5 1.5t-77.5 1.5q-14 0 -40.5 -0.5t-59 -2t-44.5 -1.5q-74 0 -116 53q-18 22 -39.5 57t-51 85t-34.5 59q-10 19 -29 19q-2 0 -11 0.5t-10 0.5q-4 0 -4 -7q0 -85 2 -181q2 -26 7.5 -36t21.5 -14l50 -8q3 -2 2.5 -13.5t-3.5 -13.5q-17 0 -65 1.5
t-81 1.5q-50 0 -96 -2l-46 -1q-3 3 -3 13t3 13q39 7 41 7q16 4 22 15t8 37q3 45 3 239q0 153 -2 201q-3 43 -29 48q-27 7 -47 8zM273 569q-13 0 -25 -4q-6 -5 -6 -15q-3 -26 -3 -236q0 -6 5 -6q82 -6 110 11q43 24 43 104q0 64 -33 105t-91 41zM861 463q-11 -30 -33.5 -99
t-30.5 -91q-2 -7 2 -7q11 -1 56 -1h70q3 0 3 5q-45 141 -63 193h-4z" />
    <glyph glyph-name="K_A" unicode="KA" horiz-adv-x="1207" 
d="M26 22q32 4 47 9q17 4 23 17t7 45q3 125 2 225q-1 39 -1 111v89q-2 43 -23 50q-19 6 -51 10q-8 14 0 27q10 0 56.5 -1.5t87.5 -1.5q28 0 74 1.5t62 1.5q2 -3 2 -13.5t-2 -13.5q-23 -3 -42 -8q-25 -8 -27 -53q-1 -26 -1.5 -105t-0.5 -109q0 -169 2 -223q1 -41 30 -48
q3 -1 49 -9q2 -3 0.5 -14t-4.5 -13q-11 0 -37 1.5t-52 2t-54 0.5q-37 -1 -87.5 -2.5t-59.5 -1.5q-2 3 -2 13t2 13zM387 578q-2 4 -2 14.5t2 12.5q13 0 50 -1.5t62 -1.5q65 1 129 3q3 -3 2.5 -13.5t-2.5 -13.5q-29 -5 -36.5 -6.5t-26 -8.5t-31.5 -19t-30 -32
q-130 -153 -137 -160q-2 -2 0 -4q32 -56 105.5 -146t121.5 -136q29 -25 52 -25q8 0 14.5 6.5t16.5 29.5q80 182 177 469q10 29 16 58q13 -2 48 -2t47 2q11 -41 15 -54q137 -394 149 -426q23 -62 39 -77t68 -23q2 -2 0.5 -13.5t-3.5 -13.5q-7 0 -53.5 1.5t-87.5 1.5
q-37 0 -148 -3q-2 4 -2 14t2 13q37 7 48 13q14 7 10 20q-18 64 -52 151q-4 7 -9 7q-13 1 -70 1q-69 0 -82 -1q-8 0 -10 -9q-44 -125 -45 -140q-2 -28 24 -34q30 -6 46 -8q1 -2 0 -13t-3 -14q-10 0 -47 1.5t-59 1.5q-4 0 -64.5 -1.5t-83.5 -1.5q-41 0 -68.5 11.5t-58.5 47.5
q-65 74 -160 212q-5 8 -15 16q0 14 4 15q74 42 171 173q41 57 41 76q0 14 -17 19q-18 7 -57 11zM865 463q-11 -30 -33.5 -99t-30.5 -91q-2 -7 2 -7q11 -1 56 -1h29h26.5h14.5q3 0 3 5q-45 141 -63 193h-4z" />
    <glyph glyph-name="T_T" unicode="TT" horiz-adv-x="1064" 
d="M142 23q35 5 61 10q18 3 25.5 16.5t9.5 50.5q4 81 4 449q0 9 -6 9q-13 2 -47.5 2t-51.5 -2q-32 -3 -50 -33q-20 -32 -37 -86q-2 -2 -15 0.5t-14 6.5q14 71 18 163q0 2 3.5 4.5t5.5 1.5q37 -13 89 -13h790q71 0 107 12q5 0 5 -6q-14 -51 -23 -169q-2 -2 -14.5 -2.5
t-14.5 1.5q-11 65 -22 90q-11 26 -40 29q-18 1 -58 1.5t-48 -0.5q-6 -2 -6 -10q0 -400 3 -467q2 -38 27 -48q10 -3 57 -10q3 -2 2.5 -13.5t-3.5 -13.5q-16 0 -66.5 1.5t-84.5 1.5q-54 0 -108.5 -1.5t-62.5 -1.5q-3 4 -3 14.5t3 12.5q35 5 61 10q18 3 25.5 16.5t9.5 50.5
q4 81 4 450q0 9 -6 9l-287 -1q-6 -2 -6 -10q0 -400 3 -467q2 -38 27 -48q10 -3 57 -10q3 -2 2.5 -13.5t-3.5 -13.5q-16 0 -66 1.5t-85 1.5q-54 0 -108.5 -1.5t-62.5 -1.5q-3 4 -3 14.5t3 12.5z" />
    <glyph glyph-name="T_h" unicode="Th" horiz-adv-x="1027" 
d="M158 24q22 2 56 9q18 3 25.5 17t9.5 51q4 81 4 448q0 1 -2 5t-4 4q-13 2 -52.5 2t-55.5 -2q-34 -3 -54 -36q-18 -37 -34 -81q-3 -3 -15.5 0t-14.5 8q14 71 19 166q8 0 17 -3q36 -10 80 -10h433q6 0 6 7v37q0 2 2.5 6t4.5 4q28 1 54 5.5t42.5 9t18.5 4.5q6 -3 6 -7v-18
t-0.5 -48.5t-0.5 -75.5q0 -16 -0.5 -86t-0.5 -81q0 -2 2 -3t3 0q70 52 126 52q61 0 94 -42t33 -121v-188q0 -9 6 -15q14 -13 50 -18q2 -3 0.5 -14t-3.5 -13q-8 0 -46 1.5t-73 1.5q-28 0 -106 -3q-2 4 -2 14t2 13q17 3 26 7q11 4 14 12t4 29q5 178 -4 210q-6 25 -26.5 40
t-47.5 15q-26 0 -45 -9q-6 -3 -6 -12q0 -207 2 -238q0 -13 0.5 -18t2.5 -12t6 -10.5t11 -6.5q14 -4 28 -7q2 -3 2 -13t-2 -14q-9 0 -46 1.5t-69 1.5q-28 0 -65 -1.5t-48 -1.5q-1 4 -1 14t1 13q15 2 33 8q11 4 14 14.5t4 37.5q3 58 3 176q0 256 -2 283q-2 14 -13 14
q-18 1 -89.5 1.5t-79.5 -0.5q-6 -3 -6 -10q0 -400 3 -466q2 -40 27 -48q12 -4 56 -10q2 -2 1 -13t-3 -14q-29 0 -74.5 1.5t-74.5 1.5t-83.5 -1.5t-82.5 -1.5q-2 3 -2 14t2 13z" />
    <glyph glyph-name="f_b" unicode="fb" horiz-adv-x="774" 
d="M15 24q28 4 41 10q16 6 16 34q0 40 0.5 132.5t0.5 134.5q0 7 -6 7l-46 3q0 21 9 30q23 6 39 16q4 2 4 7q2 78 32 135t98 100q57 36 109 36q45 0 84 -18q10 -4 20 -1q22 8 41 18q9 -4 9 -12q-7 -25 -8 -95v-191q0 -4 5 -2q82 40 124 40q65 0 108 -48q45 -49 45 -130
q0 -113 -86 -179q-29 -22 -87.5 -42.5t-92.5 -20.5q-85 0 -149 29q6 32 6 69q1 58 1 178q0 261 -1 279q-2 30 -15 47q-24 33 -60 33q-22 0 -33 -13q-28 -26 -28 -141q0 -53 1 -68q0 -7 6 -7q35 0 86 3q-5 -17 -9 -55q-14 0 -39.5 0.5t-38.5 0.5q-5 0 -5 -6q1 -69 2 -157.5
t1 -107.5q1 -22 6.5 -30.5t20.5 -12.5q4 -1 32 -5q1 -4 0 -15t-3 -12q-11 0 -50.5 1.5t-73.5 1.5q-15 0 -60.5 -1.5t-55.5 -1.5q-2 2 -2 12.5t2 14.5zM497 346q-19 0 -32 -5q-7 -2 -7 -14q-4 -169 3 -228q4 -32 16 -43q24 -23 61 -23q26 0 47 26q28 39 28 114q0 82 -33 128
q-32 45 -83 45z" />
    <glyph glyph-name="f_f_b" unicode="ffb" horiz-adv-x="1039" 
d="M15 23q36 8 40 9q17 7 17 33q0 40 0.5 136t0.5 138q0 7 -6 7l-46 3q0 17 7 26q17 5 42 16q4 4 4 9q5 135 125 210q63 39 121 39q71 0 112 -41q27 24 67 42.5t76 18.5q47 0 87 -18q8 -4 18 -1q22 8 41 18q9 -3 9 -12q-7 -26 -7 -93q-1 -50 -1 -195q2 -4 5 -2q86 42 123 42
q66 0 109 -48q45 -50 45 -130q0 -118 -81 -179q-28 -22 -80.5 -42.5t-84.5 -20.5q-49 0 -94 12q-29 7 -64 -3q-2 -1 -5 2t-3 5q4 31 5 275q0 224 -2 268q-3 33 -14 45q-25 31 -61 31q-35 0 -48 -37.5t-13 -116.5l1 -68q0 -7 6 -7q36 0 87 3q-3 -15 -9 -52q-14 0 -40 0.5
t-39 0.5q-5 0 -5 -6q1 -69 2 -158.5t1 -108.5q1 -22 6.5 -30.5t20.5 -13.5q7 -2 30 -5q1 -3 0 -14.5t-2 -12.5q-12 0 -50.5 1.5t-72.5 1.5q-15 0 -61 -1.5t-55 -1.5q-2 4 -2 13.5t2 13.5q30 5 41 10q16 6 16 33q0 40 0.5 135.5t0.5 138.5q0 6 -5 6h-130q-5 0 -5 -6l3 -267
q1 -23 6 -32t19 -12l30 -6q1 -4 0 -14.5t-3 -12.5q-15 0 -48.5 1.5t-73.5 1.5q-24 0 -65.5 -1.5t-49.5 -1.5q-1 4 -1 13.5t1 12.5zM763 345q-16 0 -34 -6q-6 -2 -6 -13q-3 -156 2 -227q2 -29 17 -41q27 -27 62 -27q24 0 45 26q28 38 28 116q0 87 -33 130q-30 42 -81 42z
M195 434v-33q2 -7 6 -7h132q5 2 5 8q4 73 29 129q-48 71 -108 71q-22 0 -36 -16q-28 -30 -28 -152z" />
    <glyph glyph-name="f_f_h" unicode="ffh" horiz-adv-x="1047" 
d="M15 23q36 8 40 9q17 7 17 33q0 40 0.5 136t0.5 138q0 7 -6 7l-46 3q0 17 7 26q17 5 42 16q4 4 4 9q5 135 124 210q63 39 122 39q71 0 112 -41q28 26 68.5 43.5t77.5 17.5q50 0 84 -18q8 -4 18 -1q22 8 41 18q9 -3 9 -12q-7 -26 -7 -93q-1 -50 -1 -204q0 -7 4 -3
q72 52 127 52q61 0 93.5 -42t32.5 -121q0 -167 1 -188q0 -9 6 -15q12 -12 49 -18q3 -3 2 -14t-4 -13q-8 0 -46.5 1.5t-73.5 1.5q-30 0 -105 -3q-3 3 -3 13.5t3 13.5q14 2 26 7q11 4 14 12t4 29q5 177 -4 211q-6 25 -26.5 40.5t-47.5 15.5q-26 0 -45 -10q-6 -3 -6 -11
q0 -209 2 -240q0 -13 0.5 -18t2.5 -12t6 -10.5t11 -6.5q9 -3 29 -7q3 -4 2 -13.5t-3 -13.5q-9 0 -44.5 1.5t-70.5 1.5t-70 -1.5t-42 -1.5q-3 4 -2.5 14t2.5 13q16 2 31 8q11 4 14.5 14.5t5.5 37.5q2 91 0 247q0 172 -2 216q-3 33 -14 45q-27 32 -61 32q-35 0 -48 -38
t-13 -117l1 -68q0 -7 6 -7q36 0 87 3q-3 -15 -9 -52q-14 0 -40 0.5t-39 0.5q-5 0 -5 -6q1 -69 2 -158.5t1 -108.5q1 -22 6.5 -30.5t20.5 -13.5q7 -2 30 -5q1 -3 0 -14.5t-2 -12.5q-12 0 -50.5 1.5t-72.5 1.5q-15 0 -61 -1.5t-55 -1.5q-2 4 -2 13.5t2 13.5q30 5 41 10
q16 6 16 33q0 40 0.5 135.5t0.5 138.5q0 6 -5 6h-130q-5 0 -5 -6l3 -267q1 -23 6 -32t19 -12l30 -6q1 -4 0 -14.5t-3 -12.5q-15 0 -48.5 1.5t-73.5 1.5q-24 0 -65.5 -1.5t-49.5 -1.5q-4 17 0 26zM195 434v-33q2 -7 6 -7h132q5 2 5 8q4 73 29 129q-17 31 -46.5 51t-60.5 20
q-23 0 -37 -17q-28 -28 -28 -151z" />
    <glyph glyph-name="f_f_j" unicode="ffj" horiz-adv-x="788" 
d="M14 23q36 8 41 10q15 5 15 33q1 81 1 273q0 7 -5 7l-47 3q0 15 7 26q17 5 42 16q3 2 5 9q1 57 30 113t92 95q64 41 124 41q75 0 111 -41q27 25 69.5 43t86.5 18q50 0 84 -19t45 -46q6 -15 -1 -28q-13 -32 -51 -53q-17 -6 -30 2q-8 8 -39 48q-14 18 -22 26.5t-22 16.5
t-29 8q-34 0 -47.5 -42.5t-13.5 -139.5l1 -41q0 -7 6 -7l141 1q61 0 116 11v-156t-1 -158q0 -84 -11 -134q-19 -80 -71 -138t-92 -74q-13 2 -28 14q-3 8 0 10q43 20 58.5 59.5t15.5 129.5v16q0 271 -5 357q-3 14 -11 15h-113l-6 -6q2 -221 3 -267q1 -22 6.5 -31t20.5 -14
q6 -2 17.5 -3.5t14.5 -1.5q2 -4 1 -14t-3 -13q-8 0 -46 1.5t-78 1.5q-20 0 -62.5 -1.5t-51.5 -1.5q-2 2 -2 13.5t2 13.5q26 4 36 9q17 6 17 31q0 40 0.5 137.5t0.5 139.5q0 6 -5 6h-131q-5 0 -5 -6q1 -60 2 -152.5t1 -114.5q1 -22 6 -31t19 -13q8 -2 17.5 -3.5t12.5 -2.5
q1 -4 0 -14.5t-3 -12.5q-15 0 -48.5 1.5t-72.5 1.5q-24 0 -65.5 -1.5t-49.5 -1.5q-2 4 -2 13.5t2 12.5zM194 434v-33q0 -7 6 -7h132q4 2 4 8q4 70 30 129q-49 72 -107 72q-23 0 -38 -18q-27 -29 -27 -151z" />
    <glyph glyph-name="f_f_k" unicode="ffk" horiz-adv-x="1017" 
d="M15 23q36 8 40 9q17 7 17 33q0 40 0.5 136t0.5 138q0 7 -6 7l-46 3q0 17 7 26q17 5 42 16q4 4 4 9q5 135 125 210q63 39 121 39q71 0 112 -41q27 24 67 42.5t76 18.5q47 0 87 -18q8 -4 18 -1q22 8 41 18q9 -3 9 -12q-7 -26 -7 -93q0 -19 -1 -157.5t-2 -194.5q20 3 44 24
q28 24 56.5 59t28.5 48t-16 17q-28 8 -47 8q-2 4 -0.5 14.5t3.5 12.5q104 -2 192 7q3 -2 3 -12.5t-3 -14.5q-50 -10 -75 -35q-47 -46 -83 -89v-4q14 -27 70 -101t85 -100q12 -10 23 -14t38 -7q2 -3 0.5 -14t-4.5 -13q-17 -2 -65.5 -3.5t-72.5 -0.5q-33 0 -54 24
q-35 38 -98 138q-17 28 -25 33l2 -113q1 -25 6.5 -33.5t21.5 -12.5l28 -5q2 -4 0.5 -14t-4.5 -13q-8 0 -46 1.5t-74 1.5q-26 0 -60 -1.5t-49 -1.5q-2 3 -2 14t2 13q24 4 32 7q14 7 17 40q2 27 2 232q0 221 -1 243q-3 32 -14 44q-27 33 -61 33q-35 0 -48 -37.5t-13 -116.5
q0 -53 1 -68q0 -7 6 -7q36 0 87 3q-3 -15 -9 -52q-14 0 -40 0.5t-39 0.5q-5 0 -5 -6q1 -69 2 -158.5t1 -108.5q1 -22 6.5 -30.5t20.5 -13.5q7 -2 30 -5q1 -3 0 -14.5t-2 -12.5q-12 0 -50.5 1.5t-72.5 1.5q-15 0 -61 -1.5t-55 -1.5q-2 4 -2 13.5t2 13.5q30 5 41 10
q16 6 16 33q0 40 0.5 135.5t0.5 138.5q0 6 -5 6h-130q-5 0 -5 -6l3 -267q1 -23 6 -32t19 -12l30 -6q1 -4 0 -14.5t-3 -12.5q-15 0 -48.5 1.5t-73.5 1.5q-24 0 -65.5 -1.5t-49.5 -1.5q-1 4 -1 13.5t1 12.5zM195 434v-33q2 -7 6 -7h132q5 2 5 8q5 75 29 129q-40 71 -107 71
q-23 0 -37 -16q-28 -30 -28 -152z" />
    <glyph glyph-name="f_f_t" unicode="fft" horiz-adv-x="839" 
d="M14 23q36 8 41 10q15 5 15 33q1 81 1 273q0 7 -5 7l-48 3q0 16 8 26q17 5 42 16q4 3 4 7q3 142 114 213q53 34 100 34q56 0 74 -27q2 -11 1 -16q-2 -11 -17.5 -34.5t-26.5 -30.5q-9 -2 -15 2q-46 60 -72 60q-12 0 -21 -11q-16 -22 -16 -121q0 -34 2 -66q0 -7 6 -7h134
q5 2 5 8q7 157 123 232q54 35 99 35q55 0 79 -32v-17q-12 -29 -46 -63h-12q-44 46 -66 55q-10 4 -20 4q-13 0 -20 -8q-10 -11 -13.5 -39t-3.5 -103q0 -17 3 -65q0 -7 5 -7l123 1q6 3 6 7v82q26 7 61.5 24.5t48.5 27.5q17 3 20 3q-4 -40 -4 -137q0 -8 5 -8q57 0 105 4
q-6 -31 -7 -53q-17 0 -50.5 0.5t-49.5 0.5q-4 0 -4 -6q0 -19 -0.5 -83.5t-0.5 -88.5q0 -56 4 -74q3 -16 17 -26.5t34 -10.5q33 0 54 13q2 -2 2 -11.5t-1 -15.5q-21 -28 -55.5 -41.5t-67.5 -13.5q-73 0 -98 48q-7 12 -10 30t-3.5 30.5t-0.5 52.5q0 24 0.5 94t0.5 92
q0 10 -6 12h-123q-5 0 -5 -6q0 -208 4 -265q1 -36 29 -44q10 -3 45 -8q1 -4 -0.5 -15.5t-4.5 -11.5q-15 0 -63 1.5t-82 1.5q-23 0 -61 -1.5t-47 -1.5q-3 4 -2.5 14t2.5 13q31 4 39 8q16 6 16 33q1 81 1 276q0 6 -5 6h-134q-5 0 -5 -6q1 -61 2 -153t1 -114q1 -39 25 -44
l31 -6q1 -4 0 -14.5t-3 -12.5q-15 0 -49 1.5t-73 1.5q-24 0 -65.5 -1.5t-49.5 -1.5q-2 4 -2 13.5t2 12.5z" />
    <glyph glyph-name="f_h" unicode="fh" horiz-adv-x="782" 
d="M15 24q28 4 41 10q16 6 16 34q0 40 0.5 132.5t0.5 134.5q0 7 -6 7l-46 3q0 18 9 29q19 3 39 16q4 3 4 7q2 78 32 135t98 101q57 36 107 36q46 0 86 -18q9 -5 21 -1q19 8 39 18q9 -3 9 -12q-7 -26 -7 -98v-199q0 -7 4 -3q70 52 126 52q62 0 94.5 -42t32.5 -121v-188
q0 -9 6 -15q14 -13 50 -18q2 -3 1 -14t-4 -13q-8 0 -45.5 1.5t-73.5 1.5q-28 0 -106 -3q-1 4 -1 14t1 13q15 2 27 7q17 6 18 41q5 177 -5 212q-6 25 -26 40t-47 15q-26 0 -46 -9q-6 -4 -6 -12q0 -209 2 -240q0 -2 0.5 -7t0.5 -7t0.5 -6t1 -6t1 -5t1.5 -4t2.5 -3.5t3.5 -3.5
t4 -2.5t5 -2.5q14 -4 28 -7q2 -3 2 -13t-2 -14q-9 0 -46 1.5t-68 1.5q-29 0 -65 -1.5t-47 -1.5q-2 4 -2 14t2 13q17 2 32 8q11 3 14 13.5t4 38.5q2 76 2 176q0 276 -1 285q0 29 -15 46q-26 32 -62 32q-21 0 -33 -14q-28 -26 -28 -150q0 -43 1 -58q0 -7 6 -7q35 0 86 3
q-2 -9 -9 -55q-14 0 -39.5 0.5t-38.5 0.5q-5 0 -5 -6q1 -69 2 -157.5t1 -107.5q1 -22 6.5 -30.5t20.5 -12.5q7 -2 30 -5q1 -3 0 -14.5t-2 -12.5q-12 0 -50.5 1.5t-72.5 1.5q-15 0 -60.5 -1.5t-55.5 -1.5q-2 4 -2 13.5t2 13.5z" />
    <glyph glyph-name="f_i" unicode="fi" horiz-adv-x="525" 
d="M17 24q27 4 38 9q17 7 17 31q1 43 1 275q0 7 -6 7l-46 3q0 19 7 26q20 5 41 16q5 4 5 7q1 151 129 233q59 38 119 38q51 0 84 -19t45 -45q6 -14 0 -29q-16 -34 -52 -53q-19 -6 -29 2q-3 2 -38 46q-38 51 -77 51q-18 0 -33 -16q-27 -32 -27 -165q0 -25 1 -40q0 -7 6 -7
l143 1q71 0 114 13q-2 -46 -2 -171q0 -123 1 -166q1 -21 5.5 -28.5t15.5 -11.5q7 -3 34 -7q2 -3 0 -14t-5 -13q-10 0 -47.5 1.5t-67.5 1.5q-32 0 -69 -1.5t-41 -1.5q-2 3 -2 14t2 13q18 3 29 7q17 5 18 38q2 44 2 147q0 100 -1 116q-3 14 -13 15h-116q-6 0 -6 -6l4 -267
q1 -22 6.5 -31t19.5 -14q2 0 29 -5q2 -4 1.5 -14t-3.5 -13q-6 0 -43 1.5t-77 1.5q-16 0 -61.5 -1.5t-54.5 -1.5q-2 2 -2 13.5t2 13.5z" />
    <glyph glyph-name="f_j" unicode="fj" 
d="M17 24q27 4 38 9q17 7 17 31q1 43 1 275q0 7 -6 7l-46 3q0 19 7 26q20 5 41 16q5 4 5 7q1 151 130 233q59 38 118 38q51 0 84 -19t45 -45q6 -14 0 -29q-16 -34 -52 -53q-19 -6 -29 2q-3 3 -39 47q-37 51 -75 51q-20 0 -36 -19q-25 -27 -25 -163l1 -40q0 -7 6 -7l141 1
q60 0 117 11v-156t-1 -158q-2 -91 -12 -134q-18 -80 -70 -138t-93 -74q-15 2 -27 14q-4 6 0 10q43 20 58 59t15 130v16q0 288 -4 357q-3 14 -12 15h-112q-6 0 -6 -6l4 -267q1 -22 6.5 -31t19.5 -14q2 0 29 -5q2 -4 1.5 -14t-3.5 -13q-6 0 -43 1.5t-77 1.5q-16 0 -61.5 -1.5
t-54.5 -1.5q-2 2 -2 13.5t2 13.5z" />
    <glyph glyph-name="f_k" unicode="fk" horiz-adv-x="753" 
d="M15 24q28 4 41 10q16 6 16 34q0 40 0.5 132.5t0.5 134.5q0 7 -6 7l-46 3q0 20 8 30q24 4 40 15q4 2 4 7q2 79 32 136t98 100q56 36 107 36q46 0 86 -18q10 -4 20 -1q22 8 41 18q9 -4 9 -12q-7 -25 -8 -97q-1 -58 -1 -349q21 3 45 24q34 33 56 64t22 44t-16 17
q-28 8 -48 8q-1 4 0.5 14.5t3.5 12.5q102 -2 192 7q2 -1 2 -12t-2 -15q-53 -10 -74 -33q-25 -28 -77 -88v-5q14 -28 72.5 -103.5t88.5 -100.5q18 -16 58 -20q1 -2 0 -13.5t-3 -13.5q-65 -8 -138 -4q-35 0 -54 21q-30 31 -101 141q-21 31 -27 32l2 -112q1 -25 6.5 -33.5
t21.5 -12.5l28 -5q2 -4 0.5 -14t-4.5 -13q-12 0 -51 1.5t-70 1.5q-18 0 -53 -1.5t-53 -1.5q-2 3 -2 14t2 13q24 4 31 7q16 7 17 40q2 27 2 176q0 287 -1 299q0 28 -15 45q-26 32 -62 32q-18 0 -34 -14q-27 -27 -27 -147q0 -46 1 -61q0 -7 6 -7q34 0 85 3q-2 -9 -9 -55
q-14 0 -39 0.5t-38 0.5q-5 0 -5 -6q1 -69 2 -157.5t1 -107.5q0 -22 6 -30.5t21 -12.5q7 -2 30 -5q1 -3 0 -14.5t-2 -12.5q-12 0 -50.5 1.5t-72.5 1.5q-15 0 -60.5 -1.5t-55.5 -1.5q-2 4 -2 13.5t2 13.5z" />
    <glyph glyph-name="f_l" unicode="fl" horiz-adv-x="530" 
d="M15 24q29 4 42 10q15 6 15 34q2 162 2 267q0 7 -6 7l-46 3q0 19 8 29q26 7 40 16q4 4 4 8q1 77 31 134.5t99 101.5q55 35 105 35t88 -18q9 -4 20 -1q21 8 40 18q9 -3 9 -12q-7 -35 -7 -93q-1 -50 -1 -225q0 -255 1 -270q1 -29 22 -36q3 -1 37 -8q5 -12 -3 -27
q-7 0 -51.5 1.5t-74.5 1.5q-21 0 -59 -1.5t-46 -1.5q-1 3 -1.5 13.5t0.5 13.5q20 2 32 7q9 4 12.5 11.5t4.5 30.5q1 20 1 258q0 166 -1 215q-2 31 -14 47q-26 30 -63 30q-19 0 -32 -13q-28 -26 -28 -141q0 -53 1 -68q0 -7 6 -7q36 0 87 3q-5 -17 -9 -55q-14 0 -40 0.5
t-39 0.5q-5 0 -5 -6q2 -205 3 -264q1 -22 7 -31t21 -13q5 -1 11 -2t11.5 -2t7.5 -1q2 -3 0.5 -14.5t-3.5 -12.5q-11 0 -49.5 1.5t-72.5 1.5q-16 0 -61.5 -1.5t-55.5 -1.5q-6 16 0 27z" />
    <glyph glyph-name="f_t" unicode="ft" horiz-adv-x="568" 
d="M17 24q29 4 39 9q16 6 16 34v270q0 7 -5 7l-46 3q0 19 9 28q30 8 40 15q4 3 4 7q2 81 30.5 137.5t94.5 98.5q22 15 52 25.5t48 10.5q64 0 86 -35v-15q-6 -16 -22 -38.5t-26 -31.5h-13q-59 68 -92 68q-16 0 -22 -11q-15 -21 -15 -125q0 -65 1 -80q0 -7 6 -7h118q5 2 5 7
q1 4 1 39.5v43.5q26 7 61.5 24.5t48.5 27.5q17 3 19 3q-3 -60 -3 -137q0 -8 5 -8q54 0 102 4q-7 -37 -8 -57q-17 0 -48 0.5t-48 0.5q-1 0 -3 -2.5t-2 -3.5q0 -19 -0.5 -81.5t-0.5 -86.5q0 -56 4 -75q9 -37 50 -37q29 0 51 14q6 -13 0 -28q-40 -54 -117 -54q-71 0 -98 48
q-10 18 -12.5 40t-2.5 73q0 26 0.5 95.5t0.5 89.5q0 10 -6 11h-117q-6 0 -6 -6q4 -230 5 -260q1 -39 25 -47q9 -3 49 -8q1 -3 -1 -14t-4 -13q-12 0 -57 1.5t-90 1.5q-22 0 -60 -1.5t-46 -1.5q-2 3 -2 13.5t2 13.5z" />
    <glyph glyph-name="longs_b" unicode="&#x17f;b" horiz-adv-x="771" 
d="M15 23q38 9 41 10q16 6 16 34q0 40 0.5 133t0.5 135q0 7 -6 7l-46 3q0 19 9 30q24 6 39 15q4 3 4 7q3 157 129 236q58 36 105 36q45 0 86 -18q8 -4 19 0q21 6 41 17q9 -3 9 -12q-7 -26 -7 -95q-1 -33 -1 -95v-96q2 -4 5 -2q82 40 124 40q65 0 109 -48q44 -49 44 -130
q0 -113 -86 -179q-29 -22 -87.5 -42.5t-92.5 -20.5q-85 0 -149 29q6 32 6 69q1 58 1 178q0 262 -1 281q-2 32 -15 47q-25 31 -57 31q-16 0 -28 -14q-32 -28 -32 -175l1 -95q2 -256 2 -266q1 -22 7 -30.5t21 -12.5q14 -3 36 -6q1 -3 -0.5 -14.5t-3.5 -12.5q-11 0 -52 1.5
t-75 1.5q-15 0 -60.5 -1.5t-55.5 -1.5q-2 4 -2 13.5t2 12.5zM493 346q-17 0 -32 -5q-6 -2 -6 -14q-4 -168 2 -228q4 -32 16 -43q24 -23 61 -23q26 0 47 26q28 39 28 114q0 85 -33 128q-32 45 -83 45z" />
    <glyph glyph-name="longs_h" unicode="&#x17f;h" horiz-adv-x="783" 
d="M15 24q30 5 40 9q17 7 17 34q0 40 0.5 133t0.5 135q0 7 -6 7l-46 3q0 20 8 30q22 6 40 15q4 3 4 7q3 157 130 237q55 35 102 35q43 0 88 -18q10 -4 20 -1q22 8 41 18q9 -4 9 -12q-7 -25 -8 -95v-202q0 -7 4 -3q72 52 127 52q61 0 93.5 -42t32.5 -121q0 -167 1 -188
q0 -9 6 -15q14 -12 49 -18q2 -3 1 -14t-3 -13q-8 0 -46 1.5t-73 1.5q-31 0 -106 -3q-2 4 -2.5 14t1.5 13q15 2 27 7q11 4 14 12t4 29q5 180 -4 211q-6 25 -26.5 40.5t-47.5 15.5q-26 0 -45 -10q-6 -3 -6 -11q0 -224 1 -240t2 -23t5.5 -14t13.5 -10q12 -4 29 -7q6 -9 -1 -27
q-10 0 -46.5 1.5t-68.5 1.5q-29 0 -65.5 -1.5t-47.5 -1.5q-2 4 -2 14t2 13q16 2 33 8q11 4 14 14.5t5 37.5q1 19 1 236q0 170 -3 226q-2 31 -15 46q-24 31 -57 32q-16 0 -29 -13q-32 -32 -32 -190l1 -83q1 -69 2 -157.5t1 -107.5q0 -22 6 -31t21 -13q11 -3 27 -5
q1 -3 -0.5 -14.5t-2.5 -12.5q-7 0 -43.5 1.5t-75.5 1.5q-15 0 -60.5 -1.5t-55.5 -1.5q-2 4 -2 13.5t2 13.5z" />
    <glyph glyph-name="longs_i" unicode="&#x17f;i" horiz-adv-x="524" 
d="M17 24q27 4 38 9q17 7 17 31q0 40 0.5 135.5t0.5 137.5q0 6 -6 6l-46 4q0 19 7 28q22 6 42 16q4 3 4 8q2 149 130 232q59 38 117 38q51 0 84.5 -19t45.5 -46q5 -14 0 -28q-13 -33 -52 -53q-19 -6 -29 2q-3 3 -39 47q-40 50 -77 50q-19 0 -33 -17q-26 -34 -26 -205
q2 -244 5 -326q1 -22 6 -31t19 -14q13 -3 28 -5q1 -4 0 -14t-3 -13q-12 0 -47.5 1.5t-69.5 1.5q-16 0 -61.5 -1.5t-54.5 -1.5q-2 2 -2 13.5t2 13.5zM512 24q1 -5 0 -14.5t-4 -12.5q-8 0 -46 1.5t-70 1.5q-31 0 -69 -1.5t-46 -1.5q-1 3 -1.5 14t0.5 13q24 4 35 7q17 6 18 41
q2 44 2 137q0 79 -2 95q0 14 -4 19q-7 14 -39 27q-1 3 -0.5 13t1.5 12q23 0 80 10t91 23q0 -14 -1 -75t-1 -92q0 -124 1 -168q1 -21 5 -29t14 -12q13 -4 36 -8z" />
    <glyph glyph-name="longs_k" unicode="&#x17f;k" horiz-adv-x="753" 
d="M15 24q29 4 40 10q17 6 17 33q0 40 0.5 133t0.5 135q0 7 -6 7l-46 3q0 20 8 30q12 2 40 15q4 3 4 7q3 157 130 237q55 35 101 35q44 0 89 -18q10 -4 20 -1q22 8 41 18q9 -4 9 -12q-7 -25 -8 -95q0 -33 0.5 -174t0.5 -177q20 3 44 24q34 32 56 63t22 45q0 13 -16 17
q-28 8 -49 8q-1 4 0.5 14.5t3.5 12.5q102 -2 192 7q1 -1 1 -12t-1 -15q-54 -11 -74 -33q0 -1 -75 -88q-2 -2 0 -5q13 -27 70.5 -103t86.5 -101q22 -18 59 -21q1 -3 0 -13.5t-4 -12.5q-64 -8 -137 -4q-32 0 -54 23q-21 22 -99 139q-18 30 -26 32q0 -78 1 -112
q1 -25 6.5 -33.5t21.5 -12.5l28 -5q3 -15 -3 -27q-12 0 -51 1.5t-70 1.5q-19 0 -55.5 -1.5t-54.5 -1.5q-1 3 -1 14t1 13q23 3 33 7q16 7 17 40q1 20 2 82t0 97q0 240 -3 296q-2 31 -15 46q-26 32 -57 32q-16 0 -29 -13q-32 -32 -32 -192l1 -81q1 -69 2 -157.5t1 -107.5
q0 -22 6 -30.5t22 -13.5q11 -3 27 -5q1 -4 0 -15t-3 -12q-6 0 -43.5 1.5t-76.5 1.5q-15 0 -60.5 -1.5t-55.5 -1.5q-2 4 -2 13.5t2 13.5z" />
    <glyph glyph-name="longs_l" unicode="&#x17f;l" horiz-adv-x="528" 
d="M14 24q24 4 41 10q16 7 16 33q0 40 0.5 133t0.5 135q0 7 -5 7l-47 3q0 19 9 30q24 6 39 15q4 3 4 7q3 155 132 237q55 35 103 35q49 0 88 -18q9 -3 20 0q19 6 40 17q9 -3 9 -12q-7 -35 -7 -95q-1 -67 -1 -222q0 -237 2 -267q2 -21 5.5 -28.5t16.5 -12.5q4 -1 9.5 -2
t13 -2.5l12.5 -2.5q5 -13 -4 -27q-10 0 -48.5 1.5t-76.5 1.5q-20 0 -56 -1.5t-51 -1.5q-1 3 -1.5 13.5t0.5 13.5q20 3 34 8q10 4 13.5 13.5t4.5 37.5q1 41 1 254q0 193 -1 212q-1 27 -14 45q-25 30 -60 30q-17 0 -30 -13q-30 -32 -30 -206v-74l2 -258q1 -23 6.5 -31
t19.5 -13q13 -3 27 -5q1 -3 0 -14.5t-2 -12.5q-7 0 -43 1.5t-76 1.5q-16 0 -61 -1.5t-55 -1.5q-2 4 -2 13.5t2 13.5z" />
    <glyph glyph-name="longs_longs" unicode="&#x17f;&#x17f;" horiz-adv-x="529" 
d="M15 23q35 7 39 9q18 8 18 33q0 40 0.5 134t0.5 136q0 7 -6 7l-46 3q0 21 7 30q13 2 43 16q3 3 3 9q8 134 128 211q59 38 113 38q11 0 21.5 -1t18.5 -2.5t16.5 -4t13 -4.5t12.5 -6t10 -5.5t9.5 -6t8.5 -5.5q3 -3 7 1q62 54 127 54q59 0 79 -32v-17q-12 -30 -45 -63h-13
q-2 2 -11.5 12.5t-14 14.5t-13.5 12.5t-16 12t-16 7t-17 3.5q-13 0 -20.5 -15t-12 -65.5t-4.5 -142.5q1 -51 1.5 -126t1 -125t1.5 -69q1 -21 8 -31t21 -14q6 -1 16 -3.5t17 -3.5q1 -3 0 -15t-4 -12q-15 0 -57 1.5t-76 1.5q-23 0 -59.5 -1.5t-44.5 -1.5q-3 4 -3 14t3 13
q26 4 34 8q17 6 17 33v82.5v103.5v84q0 7 -6 7l-47 3q0 20 8 30q18 5 43 17q3 3 3 10q3 66 28 129q-48 72 -100 72q-34 0 -49 -40.5t-15 -146.5q0 -207 3 -342q1 -23 6 -32t19 -12l30 -6q1 -3 0.5 -14t-3.5 -13q-15 0 -48 1.5t-73 1.5q-24 0 -65.5 -1.5t-49.5 -1.5
q-1 4 -1 13.5t1 12.5z" />
    <glyph glyph-name="longs_longs_i" unicode="&#x17f;&#x17f;i" horiz-adv-x="787" 
d="M15 23q36 8 41 10q16 6 16 32v270q0 7 -5 7l-47 3q0 19 9 30q24 7 41 16q4 3 4 9q5 66 33 117t90 91q63 41 124 41q10 0 19 -0.5t17.5 -2.5t14.5 -3t13 -4.5t10.5 -4.5t10 -5.5t8 -5.5t8 -6t7.5 -5q3 -4 7 0q74 57 149 57q51 0 84 -19t45 -46q6 -14 0 -28
q-14 -32 -52 -53q-6 -2 -15.5 -1.5t-13.5 3.5q-13 12 -39 47q-39 52 -74 52q-18 0 -31 -16q-16 -17 -23 -60t-6 -146q0 -269 4 -326q1 -23 4.5 -31.5t17.5 -12.5q19 -6 33 -8q1 -3 0 -15t-4 -12q-15 0 -53 1.5t-72 1.5q-23 0 -60 -1.5t-46 -1.5q-3 4 -2.5 14t2.5 13
q28 4 36 8q17 6 17 33v270q0 7 -6 7l-47 3q0 19 9 30q25 7 40 17q5 4 5 9q3 74 28 129q-18 35 -47 53.5t-56 18.5q-35 0 -51.5 -38t-17.5 -145q0 -120 5 -345q1 -23 5.5 -31.5t17.5 -12.5l33 -6q2 -2 1 -14t-4 -13q-3 0 -42 1.5t-80 1.5q-24 0 -65.5 -1.5t-49.5 -1.5
q-2 4 -2 13.5t2 12.5zM776 24q0 -22 -5 -27q-7 0 -45 1.5t-70 1.5q-31 0 -66.5 -1.5t-43.5 -1.5q-2 3 -2.5 14t1.5 13q11 2 29 7q18 6 19 41q2 44 2 137q0 83 -2 98q0 15 -4 20q-5 10 -39 25q-1 2 -0.5 11.5t1.5 11.5q22 0 79 10t91 23q-1 -34 -1 -167q0 -124 1 -168
q1 -21 5 -29t14 -12q13 -4 36 -8z" />
    <glyph glyph-name="longs_longs_l" unicode="&#x17f;&#x17f;l" horiz-adv-x="787" 
d="M14 23q40 9 41 9q16 7 16 33q0 40 0.5 134t0.5 136q0 7 -5 7l-47 3q0 20 8 30q21 4 40 15q4 3 4 8q5 71 34.5 121.5t92.5 90.5q60 39 122 39q26 0 49 -7t31.5 -12.5t26.5 -17.5q4 -4 7 0q74 57 149 57q42 0 76 -18q9 0 12 1q25 6 50 17q7 -7 7 -13q-8 -18 -9 -91v-56v-86
v-85q0 -251 1 -266q2 -21 5.5 -28.5t16.5 -11.5q5 -2 35 -8q2 -4 1 -13.5t-3 -13.5q-10 0 -49.5 1.5t-77.5 1.5q-20 0 -54 -1.5t-50 -1.5q-1 3 -1.5 13.5t0.5 13.5q17 3 34 9q14 6 15 50q2 82 2 248q0 202 -2 234q-2 18 -12 27q-24 32 -61 32q-20 0 -33 -16
q-16 -19 -22.5 -61t-5.5 -144q0 -198 3 -327q2 -23 6.5 -32t18.5 -13t32 -7q1 -4 -0.5 -15.5t-4.5 -11.5q-15 0 -52.5 1.5t-71.5 1.5q-23 0 -61 -1.5t-46 -1.5q-3 4 -2.5 14t2.5 13q16 2 36 9q17 8 17 32q1 81 1 270q0 7 -5 7l-47 3q0 20 9 31q25 7 39 16q3 2 5 7
q3 75 25 124q2 7 0 12q-14 28 -43.5 47.5t-60.5 19.5q-34 0 -49 -38.5t-15 -140.5q0 -217 3 -349q1 -22 6 -30.5t20 -12.5q16 -5 33 -7q2 -3 0.5 -14t-3.5 -13q-4 0 -43.5 1.5t-81.5 1.5q-24 0 -65.5 -1.5t-49.5 -1.5q-2 4 -2 13.5t2 12.5z" />
    <glyph glyph-name="t_t" unicode="tt" horiz-adv-x="588" 
d="M575 69q5 -11 1 -26q-43 -55 -117 -55q-75 0 -100 48q-7 12 -10 30t-3.5 30.5t-0.5 52.5q0 26 0.5 94.5t0.5 88.5q0 11 -6 11h-143q-1 0 -3 -2.5t-2 -3.5q0 -19 -0.5 -82t-0.5 -87q0 -56 4 -75q9 -37 48 -37q33 0 53 13q3 -14 0 -26q-43 -55 -117 -55t-100 48
q-7 12 -10 30t-3.5 30.5t-0.5 52.5q0 26 0.5 95t0.5 88q0 10 -6 12l-45 3q4 22 7 28q21 5 39 15q5 5 5 9v84q27 8 62.5 25t47.5 28q14 3 20 2q-4 -40 -4 -134q0 -8 5 -8h144q5 5 5 8v94q26 7 61.5 24.5t48.5 27.5q17 3 20 3q-4 -40 -4 -149q0 -8 5 -8q31 0 103 3
q-6 -30 -7 -57q-17 0 -48.5 0.5t-48.5 0.5q-4 0 -4 -6q0 -19 -0.5 -82t-0.5 -87q0 -56 4 -75q9 -37 48 -37q33 0 52 13z" />
    <glyph glyph-name="u0162_u0068" unicode="&#x162;h" horiz-adv-x="1027" 
d="M158 24q22 2 56 9q18 3 25.5 17t9.5 51q4 81 4 448q0 1 -2 5t-4 4q-13 2 -52.5 2t-55.5 -2q-34 -3 -54 -36q-18 -37 -34 -81q-3 -3 -15.5 0t-14.5 8q14 71 19 166q8 0 17 -3q36 -10 80 -10h433q6 0 6 7v37q0 2 2.5 6t4.5 4q28 1 54 5.5t42.5 9t18.5 4.5q6 -3 6 -7v-18
t-0.5 -48.5t-0.5 -75.5q0 -16 -0.5 -86t-0.5 -81q0 -2 2 -3t3 0q70 52 126 52q61 0 94 -42t33 -121v-188q0 -9 6 -15q14 -13 50 -18q2 -3 0.5 -14t-3.5 -13q-8 0 -46 1.5t-73 1.5q-28 0 -106 -3q-2 4 -2 14t2 13q17 3 26 7q11 4 14 12t4 29q5 178 -4 210q-6 25 -26.5 40
t-47.5 15q-26 0 -45 -9q-6 -3 -6 -12q0 -207 2 -238q0 -13 0.5 -18t2.5 -12t6 -10.5t11 -6.5q14 -4 28 -7q2 -3 2 -13t-2 -14q-9 0 -46 1.5t-69 1.5q-28 0 -65 -1.5t-48 -1.5q-1 4 -1 14t1 13q15 2 33 8q11 4 14 14.5t4 37.5q3 58 3 176q0 256 -2 283q-2 14 -13 14
q-18 1 -89.5 1.5t-79.5 -0.5q-6 -3 -6 -10q0 -400 3 -466q2 -40 27 -48q12 -4 56 -10q2 -2 1 -13t-3 -14q-29 0 -74.5 1.5t-74.5 1.5t-83.5 -1.5t-82.5 -1.5q-2 3 -2 14t2 13zM331 -35q17 0 34.5 -19.5t17.5 -52.5q0 -48 -35.5 -80t-91.5 -47q-3 1 -7 10.5t-3 12.5
q40 18 54 33.5t14 37.5q0 34 -57 53q-1 2 -1 8.5t1 8.5q10 10 33 22.5t41 12.5z" />
    <glyph glyph-name="Tcaron_h" unicode="&#x164;h" horiz-adv-x="1027" 
d="M158 24q22 2 56 9q18 3 25.5 17t9.5 51q4 81 4 448q0 1 -2 5t-4 4q-13 2 -52.5 2t-55.5 -2q-34 -3 -54 -36q-18 -37 -34 -81q-3 -3 -15.5 0t-14.5 8q14 71 19 166q8 0 17 -3q36 -10 80 -10h433q6 0 6 7v37q0 2 2.5 6t4.5 4q28 1 54 5.5t42.5 9t18.5 4.5q6 -3 6 -7v-18
t-0.5 -48.5t-0.5 -75.5q0 -16 -0.5 -86t-0.5 -81q0 -2 2 -3t3 0q70 52 126 52q61 0 94 -42t33 -121v-188q0 -9 6 -15q14 -13 50 -18q2 -3 0.5 -14t-3.5 -13q-8 0 -46 1.5t-73 1.5q-28 0 -106 -3q-2 4 -2 14t2 13q17 3 26 7q11 4 14 12t4 29q5 178 -4 210q-6 25 -26.5 40
t-47.5 15q-26 0 -45 -9q-6 -3 -6 -12q0 -207 2 -238q0 -13 0.5 -18t2.5 -12t6 -10.5t11 -6.5q14 -4 28 -7q2 -3 2 -13t-2 -14q-9 0 -46 1.5t-69 1.5q-28 0 -65 -1.5t-48 -1.5q-1 4 -1 14t1 13q15 2 33 8q11 4 14 14.5t4 37.5q3 58 3 176q0 256 -2 283q-2 14 -13 14
q-18 1 -89.5 1.5t-79.5 -0.5q-6 -3 -6 -10q0 -400 3 -466q2 -40 27 -48q12 -4 56 -10q2 -2 1 -13t-3 -14q-29 0 -74.5 1.5t-74.5 1.5t-83.5 -1.5t-82.5 -1.5q-2 3 -2 14t2 13zM333 644q-3 -5 -16 -5q-11 11 -64 55.5t-73 58.5q0 4 5.5 12.5t7.5 8.5q5 0 60.5 -23t69.5 -30
q1 -1 4 -1t4 1q16 9 66 31t54 22t8.5 -8.5t3.5 -11.5q-25 -19 -72.5 -59t-57.5 -51z" />
    <glyph glyph-name="gamma_gamma" unicode="&#x3b3;&#x3b3;" horiz-adv-x="857" 
d="M11 267q-2 3 -3 14.5t1 14.5q28 52 74 81.5t81 29.5q42 0 67 -22.5t38.5 -88.5t8.5 -180q0 -3 3 -3t4 3q40 154 100 227q56 64 119 64q46 0 73 -20.5t43.5 -85.5t13.5 -180l5 -2q1 0 2 2q20 89 46 152.5t44 87.5q36 47 71 47q15 0 37 -15t29 -31q0 -2 -0.5 -6.5t-1 -8
t-1.5 -6.5q-47 -2 -94 -56t-77 -123t-41 -132q-6 -28 -6 -45q0 -25 1 -84t1 -85.5t-1 -43.5q-5 -12 -20 -12q-24 0 -58.5 20t-34.5 39q0 15 46 163q10 29 8 54q-2 246 -119 246q-111 0 -173 -247q-6 -28 -6 -55q-1 -25 -2 -78t-2.5 -93.5t-5.5 -56.5q-1 -5 -8.5 -8.5
t-10.5 -3.5q-23 0 -59.5 23t-36.5 42q0 9 7.5 32t23.5 67t26 76q9 25 9 55q2 69 -10 123t-46 91.5t-87 37.5q-41 0 -78 -20z" />
    <glyph glyph-name="u03BB_u03BB" unicode="&#x3bb;&#x3bb;" horiz-adv-x="794" 
d="M334 -15q-53 0 -77 56q-12 26 -26 77.5t-28.5 111t-14.5 61.5h-5q-46 -94 -71 -227q-7 -31 -4 -79q0 -4 -7 -4q-26 0 -56.5 12t-30.5 22q1 31 37 102q14 31 57 120t57 119q4 11 2 22q-9 46 -18 71q-23 63 -47.5 84t-55.5 21q-35 0 -55 -10q-3 2 -5 10t0 11q20 31 58.5 52
t73.5 21q53 0 81.5 -45t71.5 -185q48 -169 76 -250q14 -39 25 -51t23 -12q15 0 30 28q22 39 54.5 117t47.5 128q4 11 2 23q-8 50 -20 80q-23 60 -53 82.5t-73 22.5q-39 0 -71 -18q-3 1 -5.5 9.5t-0.5 11.5q25 39 68.5 64t79.5 25q59 0 97 -49t76 -182q74 -252 84 -282
q28 -79 67 -79q19 0 34 10q2 -2 3 -12t-1 -13q-20 -29 -58 -51.5t-75 -22.5q-34 0 -56 45q-10 20 -22.5 60.5t-21 75t-17.5 73.5t-10 43h-4q-51 -129 -94 -204q-27 -47 -55 -71t-67 -24z" />
    <glyph glyph-name=".notdef" horiz-adv-x="495" 
d="M0 0v693h495v-693h-495zM248 391l168 253h-337zM277 347l169 -253v505zM79 50h337l-168 252zM50 599v-505l168 253z" />
    <glyph glyph-name=".null" horiz-adv-x="0" 
 />
    <glyph glyph-name="nonmarkingreturn" horiz-adv-x="333" 
 />
    <glyph glyph-name="space" unicode=" " horiz-adv-x="165" 
 />
    <glyph glyph-name="exclam" unicode="!" horiz-adv-x="300" 
d="M217 597q15 0 28 -11q0 -51 -63 -391q-4 -1 -17 1t-16 4q-1 6 -33 161.5t-35 185.5q-2 6 4.5 19t14.5 16q19 7 57.5 11.5t59.5 3.5zM171 134q28 0 48 -17q24 -23 24 -58q0 -29 -20 -51q-21 -21 -58 -21q-29 0 -48 19q-21 22 -21 55q0 27 24 54q22 19 51 19z" />
    <glyph glyph-name="quotedbl" unicode="&#x22;" horiz-adv-x="328" 
d="M139 615q0 -43 -8.5 -105t-14.5 -77q-9 -22 -34 -45q-10 -3 -13 0q-2 68 -8.5 141.5t-13.5 92.5q5 5 35 21t41 17l11 -3q5 -7 5 -42zM281 621q0 -48 -9 -105.5t-16 -74.5q-10 -26 -33 -45q-2 -1 -7 -1t-6 2q-4 180 -21 225q5 7 36.5 25t39.5 18q7 0 11 -2q5 -7 5 -42z
" />
    <glyph glyph-name="numbersign" unicode="#" horiz-adv-x="440" 
d="M285 461l27 126q8 7 35 13q4 -2 4 -3l-29 -132q0 -4 4 -4q60 0 94 4q2 -10 -7 -32q-28 -39 -101 -40q-6 0 -6 -5l-21 -92q0 -5 4 -5q59 0 93 6q1 -2 -1.5 -14.5t-4.5 -16.5q-37 -47 -102 -47q-4 0 -4 -5q-2 -9 -13.5 -64t-14.5 -71q-2 -3 -6 -3q-2 0 -14.5 8.5
t-13.5 10.5q24 104 28 124h-91q-4 0 -4 -4q-4 -16 -11 -47.5t-12.5 -55.5t-8.5 -34q-1 -3 -6 -3q-4 1 -15.5 9.5t-12.5 10.5q3 12 29 124q-77 0 -89 3q-2 5 7.5 38.5t14.5 34.5q22 -3 82 -3l23 101q-74 0 -87 3q-1 7 9 37t15 32q42 -2 76 -2l25 115q0 1 16 6.5t19 5.5t5 -4
l-26 -118q0 -4 3 -6zM271 393h-88q-4 0 -7 -6l-20 -89q0 -6 3 -6h89z" />
    <glyph glyph-name="dollar" unicode="$" horiz-adv-x="497" 
d="M171 473q0 -54 67 -92q3 -3 5 2l16 173q-1 3 -4 3q-84 -12 -84 -86zM257 212l-16 -175q0 -3 3 -3q33 1 59.5 21.5t26.5 60.5q0 34 -15 55t-54 44q-4 2 -4 -3zM197 -77l7 74q0 5 -4 5q-42 3 -129 28q-9 14 -16.5 57t-9.5 75q1 3 11 6t15 3q24 -73 55.5 -100.5t77.5 -35.5
q2 0 4 3l19 188q-2 6 -5 7q-42 24 -66 40.5t-47 39.5t-32.5 49t-9.5 60q0 76 52 120t139 46q4 0 5 3l6 69q4 2 17 4.5t18 1.5l-8 -74q0 -4 3 -4q43 -3 79 -9q32 -6 53 -6q-14 -74 -20 -125q-2 -2 -14 -3t-14 1q-3 59 -20.5 82.5t-67.5 29.5q-3 0 -4 -3l-17 -187q1 -4 5 -6
q90 -50 116 -73q54 -47 54 -114q0 -76 -54.5 -120.5t-152.5 -51.5q-2 0 -5 -3l-7 -71q-2 -2 -15.5 -4.5t-17.5 -1.5z" />
    <glyph glyph-name="percent" unicode="%" horiz-adv-x="696" 
d="M142 26q66 99 191.5 288t191.5 288q13 8 39 12q5 -2 5 -6q-19 -25 -197.5 -295t-210.5 -314q-1 -1 -3.5 -1.5t-3.5 0.5q-12 12 -12 28zM535 349q56 0 88.5 -43t32.5 -101q0 -99 -55 -143q-47 -38 -106 -38q-57 0 -90.5 42t-33.5 106q0 87 50 134q47 43 114 43zM514 319
q-25 0 -36 -36t-11 -82q0 -73 18.5 -108.5t42.5 -35.5q50 0 50 114q0 66 -16.5 107t-47.5 41zM204 588q59 0 90.5 -41.5t31.5 -101.5q0 -96 -58 -142q-48 -40 -105 -40q-56 0 -89.5 40t-33.5 109q0 85 50 132q48 44 114 44zM184 559q-47 0 -47 -120q0 -72 18 -107.5
t41 -35.5q51 0 51 114q0 149 -63 149z" />
    <glyph glyph-name="ampersand" unicode="&#x26;" horiz-adv-x="728" 
d="M278 575q-25 0 -41.5 -19.5t-16.5 -58.5q0 -66 78 -128q2 -4 6 0q41 47 41 113q0 39 -18.5 66t-48.5 27zM196 292q-2 2 -5 0q-26 -31 -26 -80q0 -53 47 -96.5t111 -43.5q56 0 89 30q4 2 0 4q-138 111 -216 186zM294 604q65 0 107.5 -36.5t42.5 -88.5q0 -38 -28.5 -65.5
t-91.5 -63.5q-2 -2 0 -4q66 -60 171 -133q3 -3 7 0q38 61 51 108q9 29 -17 39q-17 6 -43 10q-4 1 -3.5 13t3.5 14q5 0 37 -1.5t56 -1.5q29 0 52 1t36 1.5t17 0.5q2 -2 1.5 -14t-3.5 -13q-24 -6 -39 -11q-27 -8 -40 -30q-22 -33 -47.5 -77t-34.5 -56q-2 -2 1 -6
q127 -84 152 -114q0 -19 -27 -62.5t-42 -57.5q-9 -4 -18 0q-14 22 -35 35q-75 61 -115 90q-3 3 -6 0q-93 -96 -196 -96q-83 0 -140 49t-57 129q0 42 25 72t101 78q2 1 2.5 3t-1.5 3q-53 58 -53 129q0 65 50.5 110.5t124.5 45.5z" />
    <glyph glyph-name="quotesingle" unicode="'" horiz-adv-x="187" 
d="M140 615q0 -41 -9 -103t-16 -77q-10 -26 -36 -47q-9 -2 -12 0q0 66 -6.5 140t-13.5 94q5 5 36.5 20.5t41.5 16.5q8 0 10 -2q5 -7 5 -42z" />
    <glyph glyph-name="parenleft" unicode="(" horiz-adv-x="383" 
d="M73 271q0 162 70.5 288t180.5 199q3 0 9.5 -8t5.5 -11q-86 -80 -131 -185.5t-45 -266.5q0 -309 166 -468q1 -3 -6 -11t-12 -10q-22 10 -50.5 34.5t-62 67.5t-61 96t-46 125.5t-18.5 149.5z" />
    <glyph glyph-name="parenright" unicode=")" horiz-adv-x="382" 
d="M309 283q0 -162 -70 -287t-180 -198q-4 1 -10.5 10t-5.5 11q89 92 133 197t44 253q0 311 -167 470q-1 2 6.5 10.5t10.5 8.5q30 -14 68 -50.5t77.5 -94t66.5 -145.5t27 -185z" />
    <glyph glyph-name="asterisk" unicode="*" horiz-adv-x="351" 
d="M210 531q38 13 116 47q2 0 4 -4t1 -6q-13 -30 -24 -36q-39 -21 -86 -38q16 -16 50 -42.5t48 -32.5q3 -6 -3 -10t-24 -6t-26 1q-19 10 -44 28.5t-29 20.5q-21 -88 -22 -119h-6q-14 0 -24.5 17t-8.5 33q3 36 13 82q-64 -24 -119 -39q-6 0 -6 7q16 35 27 39q5 2 34 12t51 18
q-34 27 -77 73q-8 10 0 17q25 18 43 18q17 -23 65 -67q14 72 21 95q8 12 53 12q3 -3 3 -6q-4 -10 -10.5 -34.5t-12.5 -50.5t-7 -29z" />
    <glyph glyph-name="plus" unicode="+" horiz-adv-x="507" 
d="M467 249q-1 -10 -6 -27t-10 -18q-4 -1 -31.5 -1h-68t-66.5 -1q-6 0 -6 -8v-68.5t0.5 -69t-0.5 -35.5q-1 -3 -50 -19q-8 0 -8 2v37.5v72v88.5q-68 -1 -180 -1q-1 1 -1 9q3 28 11 52q6 -2 107 -2h63v60q0 93 -2 119q37 11 55 11q5 0 5 -32v-149q0 -9 5 -9h182q1 0 1 -11z
" />
    <glyph glyph-name="comma" unicode="," horiz-adv-x="226" 
d="M7 -154q-1 1 -2 3.5t0 3.5q44 42 62 74.5t17 72.5q0 28 -40 83q9 13 40 39t45 31q2 2 9.5 1.5t10.5 -2.5q10 -8 19 -31t10 -49q2 -70 -47.5 -140t-98.5 -95q-2 -2 -12 1.5t-13 7.5z" />
    <glyph glyph-name="hyphen" unicode="-" horiz-adv-x="289" 
d="M50 237q170 5 204 5v-12q-1 -11 -7.5 -34t-10.5 -24q-6 -2 -94 -4.5t-106 -1.5q-2 0 -2 10q2 16 7.5 38.5t8.5 22.5z" />
    <glyph glyph-name="period" unicode="." horiz-adv-x="226" 
d="M114 140q30 0 49 -19q24 -20 24 -59q0 -32 -20 -52q-22 -23 -58 -23q-27 0 -48 22q-22 19 -22 55q0 31 23 54q22 22 52 22z" />
    <glyph glyph-name="slash" unicode="/" horiz-adv-x="448" 
d="M400 682l3 -4q-7 -29 -141 -367.5t-171 -406.5q-2 -4 -19 -12.5t-23 -9.5q-8 0 -8 5q47 101 163.5 394.5t151.5 389.5q1 2 18.5 6.5t25.5 4.5z" />
    <glyph glyph-name="zero" unicode="0" horiz-adv-x="497" 
d="M259 595q95 0 145 -65q62 -73 62 -226q0 -211 -111 -284q-48 -32 -111 -32q-76 0 -120 33q-93 69 -93 276q0 75 22.5 144t70.5 108q56 46 135 46zM242 564q-16 0 -25 -9q-49 -43 -49 -240q0 -295 91 -295q18 0 32 12q40 40 40 255q0 132 -23 204.5t-66 72.5z" />
    <glyph glyph-name="one" unicode="1" horiz-adv-x="497" 
d="M406 24q2 -2 1 -13.5t-4 -14.5q-16 0 -72 2t-88 2q-41 0 -86.5 -2t-55.5 -2q-2 3 -2.5 14.5t2.5 13.5q32 4 51 7q20 5 26 20.5t7 44.5q1 25 3 195q0 156 -3 183q-2 33 -25 37q-16 4 -46 8q-2 4 -1 15t3 13q94 5 198 48q2 1 7 -1.5t5 -4.5q-4 -55 -4 -158q0 -249 3 -331
q2 -32 8 -48.5t24 -20.5q12 -2 29.5 -4.5t19.5 -2.5z" />
    <glyph glyph-name="two" unicode="2" horiz-adv-x="497" 
d="M170 497q-63 0 -116 -59q-4 -1 -12 8t-7 12q39 66 94 101.5t111 35.5q68 0 117 -49t49 -131q0 -51 -27 -99t-84 -105q-12 -12 -104 -95q-3 -7 2 -7q68 -8 188 -5q41 2 78 80q4 2 14.5 -2t11.5 -7q-8 -35 -28 -92.5t-35 -74.5q-7 -10 -50 -11q-41 -1 -134 1t-126 2
q-40 0 -70 -2q-2 7 -2 26q111 84 174 169q62 90 62 175q0 56 -27 92.5t-79 36.5z" />
    <glyph glyph-name="three" unicode="3" horiz-adv-x="497" 
d="M250 595q66 0 107.5 -39t41.5 -99q0 -62 -95 -120q-3 -2 -1 -4q145 -46 145 -160q0 -48 -27 -93t-72 -74q-72 -49 -166 -49q-53 0 -90 16q-25 13 -36 38q-12 34 -16 76q2 3 11 7.5t13 3.5q23 -59 77 -87q31 -18 81 -18q39 0 68.5 30t29.5 88q0 64 -38 104.5t-103 40.5
q-13 0 -32 -2q-1 5 8 25.5t13 23.5q64 15 91 38t27 62q0 42 -26 73.5t-75 31.5q-56 0 -112 -53q-4 -1 -9.5 8.5t-4.5 14.5q32 45 82 81t108 36z" />
    <glyph glyph-name="four" unicode="4" horiz-adv-x="497" 
d="M474 163q-56 2 -87 2q-4 0 -4 -5q0 -30 0.5 -89t0.5 -88q-65 0 -138 -13l2 190q0 6 -4 6l-126 1q-76 0 -103 -1q0 16 6 34q223 313 276 383q45 12 82 12l2 -363q0 -6 4 -6q78 2 100 4q-10 -37 -11 -67zM91 226q24 -2 91 -2h62q4 0 4 5l3 233q0 1 -3 1q-17 -20 -73.5 -103
t-84.5 -128q-1 -2 -0.5 -4t1.5 -2z" />
    <glyph glyph-name="five" unicode="5" horiz-adv-x="497" 
d="M388 599q3 0 8.5 -4t5.5 -7q0 -10 -15 -43t-33 -54q-20 -24 -49 -24q-39 0 -81 3.5t-43 3.5q-7 0 -9 -5q-13 -30 -19 -47q0 -8 6 -10q7 -3 48 -21t78.5 -35.5t56.5 -28.5q51 -28 77.5 -63.5t26.5 -91.5q0 -93 -81.5 -153.5t-178.5 -60.5q-84 0 -129 47q-16 16 -16 34
q0 24 29 64q3 3 12 6q71 -105 171 -105q37 0 59.5 24.5t22.5 61.5q0 75 -77 124q-31 21 -99 53.5t-73 35.5q-4 23 -1 33q15 49 47.5 128t51.5 106q14 18 27 18q3 0 45 -2.5t73 -2.5q39 0 59 16z" />
    <glyph glyph-name="six" unicode="6" horiz-adv-x="497" 
d="M452 615q-112 -51 -173.5 -121t-83.5 -140q0 -5 3 -5q71 37 117 37q61 0 106 -45.5t45 -128.5q0 -67 -34 -122t-95 -83q-41 -20 -97 -20q-104 0 -155.5 64.5t-51.5 159.5q0 144 116.5 264.5t292.5 165.5q2 -2 6.5 -13t3.5 -13zM223 324q-17 0 -32 -7q-8 -4 -11 -16
q-10 -33 -10 -84q0 -98 27.5 -147t71.5 -49q30 0 50 34.5t20 95.5q0 80 -32 126.5t-84 46.5z" />
    <glyph glyph-name="seven" unicode="7" horiz-adv-x="497" 
d="M470 585q2 -1 4 -7t1 -8q-23 -64 -149 -321t-135 -279q-3 -4 -7 -6q-17 2 -32 15q-4 5 0 17q11 22 69 135t101.5 199.5t60.5 125.5q0 7 -2 7q-157 5 -255 -2q-22 -2 -35.5 -15t-37.5 -56q-3 -2 -13.5 3t-12.5 9q39 126 47 187q33 -6 77 -6h215q83 0 104 2z" />
    <glyph glyph-name="eight" unicode="8" horiz-adv-x="497" 
d="M260 595q74 0 120.5 -40t46.5 -105q0 -60 -98 -119q-2 -3 0 -5q64 -41 93.5 -76.5t29.5 -86.5q0 -69 -60 -121.5t-155 -52.5q-97 0 -144.5 45.5t-47.5 105.5q0 33 26.5 63.5t94.5 68.5q1 1 0 4q-100 70 -100 152q0 37 16.5 70.5t44.5 53.5q54 43 133 43zM244 565
q-32 0 -52.5 -24t-20.5 -55q0 -39 26.5 -67.5t103.5 -74.5q3 0 5 1q33 41 33 98q0 51 -25.5 86.5t-69.5 35.5zM261 21q35 0 57 21t22 56q0 40 -31 74t-114 84q-1 3 -5 -1q-44 -47 -44 -102q0 -50 33.5 -91t81.5 -41z" />
    <glyph glyph-name="nine" unicode="9" horiz-adv-x="497" 
d="M78 -51q-4 1 -8.5 12.5t-2.5 15.5q185 83 245 264q1 3 0 4.5t-3 0.5q-32 -20 -70.5 -33.5t-57.5 -13.5q-68 0 -110.5 52.5t-42.5 125.5q0 128 117 191q51 27 112 27q99 0 153.5 -69t54.5 -171q0 -138 -105 -251t-282 -155zM228 563q-30 0 -53 -33t-23 -94
q0 -84 35.5 -126.5t85.5 -42.5q19 0 37 8q9 6 12 17q8 34 8 76q0 86 -25.5 140.5t-76.5 54.5z" />
    <glyph glyph-name="colon" unicode=":" horiz-adv-x="290" 
d="M145 133q30 0 48 -18q24 -21 24 -57q0 -30 -20 -49q-21 -21 -56 -21q-27 0 -47 20q-21 18 -21 52q0 29 22 53q23 20 50 20zM145 372q29 0 49 -18q23 -22 23 -57q0 -30 -20 -49q-21 -21 -55 -21q-28 0 -48 19q-21 20 -21 53q0 29 22 53q23 20 50 20z" />
    <glyph glyph-name="semicolon" unicode=";" horiz-adv-x="290" 
d="M148 371q29 0 48 -17q23 -20 23 -56q0 -30 -20 -49q-21 -21 -56 -21q-27 0 -46 19q-22 19 -22 53q0 30 23 51q20 20 50 20zM37 -154q-1 1 -2 3.5t0 3.5q44 43 62.5 75t17.5 72q0 28 -40 83q9 13 40 39t45 31q2 2 9.5 1.5t10.5 -2.5q10 -8 18.5 -31.5t9.5 -48.5
q3 -67 -46.5 -139t-98.5 -96q-3 -1 -12.5 2t-13.5 7z" />
    <glyph glyph-name="less" unicode="&#x3c;" horiz-adv-x="507" 
d="M429 380q-25 -22 -274 -146q-4 -3 -1 -6q4 -2 142.5 -71t151.5 -83q3 -2 -5 -22t-13 -28q-2 -3 -8 -3q-29 22 -165 91.5t-199 94.5q-1 4 5 22.5t8 20.5q70 33 208 105t159 89q4 0 6 -5q0 -11 -5.5 -33t-9.5 -26z" />
    <glyph glyph-name="equal" unicode="=" horiz-adv-x="507" 
d="M453 288l-409 -3q-3 1 -3 9q0 6 4.5 26.5t6.5 25.5q6 -2 107 -2h307q3 -3 3 -9q-9 -46 -16 -47zM453 119l-410 -2q-3 1 -3 9q3 20 12 52q6 -2 107 -2h307q2 -1 2 -9q0 -5 -5.5 -26t-9.5 -22z" />
    <glyph glyph-name="greater" unicode="&#x3e;" horiz-adv-x="507" 
d="M79 85q9 8 61 36t127.5 66.5t84.5 43.5q4 1 2 6q-8 4 -81 39.5t-138.5 69.5t-75.5 44q-2 3 5.5 23.5t12.5 27.5q1 3 8 3q29 -21 165 -91t199 -95q1 -4 -5 -22.5t-8 -20.5q-70 -33 -208 -105t-159 -89q-4 0 -6 4q0 11 5.5 33.5t10.5 26.5z" />
    <glyph glyph-name="question" unicode="?" horiz-adv-x="365" 
d="M196 304q0 -6 8.5 -23.5t20.5 -30.5q6 -6 -3 -17q-6 -6 -32 -19t-33 -15q-15 -3 -27 2q-21 10 -34 29t-13 35q0 28 13 35q8 5 52 28.5t56 30.5q24 15 24 37q0 58 -119 94q-6 2 -25 7q-14 3 -14 18q0 11 15 38.5t26 36.5q13 11 30 11q61 0 118 -42q67 -51 67 -112
q0 -42 -18 -58q-15 -16 -95 -63q-17 -9 -17 -22zM177 134q30 0 50 -18q22 -21 22 -57q0 -29 -20 -51q-21 -21 -57 -21q-29 0 -49 19q-20 23 -20 55q0 29 21 52q24 21 53 21z" />
    <glyph glyph-name="at" unicode="@" horiz-adv-x="797" 
d="M565 53q40 0 86 51t46 150q0 137 -78 208.5t-182 71.5q-39 0 -80 -11t-85 -40.5t-78.5 -73t-56.5 -116t-22 -162.5q0 -74 16 -132.5t41 -91.5t48.5 -51t44.5 -23q28 -8 56 -6q1 -1 1.5 -5.5t-0.5 -6.5q-16 -16 -61 -16q-13 0 -36.5 9.5t-55.5 33.5t-59.5 59t-46.5 93
t-19 128q0 175 122 312q61 69 142 106.5t166 37.5q125 0 202.5 -85t77.5 -194q0 -77 -29.5 -140t-74 -99.5t-92 -55.5t-89.5 -18q-54 0 -42 82q1 5 2.5 20t3.5 24q1 3 -2 3q-2 0 -3 -2q-35 -48 -84.5 -87t-83.5 -39q-54 0 -54 95q0 55 24 116t63 104q28 32 90.5 64t111.5 32
q59 0 101 -15q-12 -30 -19 -64q-35 -175 -38 -225q0 -41 26 -41zM348 85q43 0 87 88q15 30 27 85q11 42 18 80q-13 12 -47 12q-58 0 -89 -80q-23 -64 -23 -123q-1 -62 27 -62z" />
    <glyph glyph-name="A" unicode="A" horiz-adv-x="600" 
d="M-27 24q52 8 70.5 20.5t36.5 55.5q88 214 166 446q13 38 16 58q14 -2 48 -2q35 0 48 2q5 -26 14 -54q137 -394 149 -426q23 -62 39 -77t68 -23q2 -2 0.5 -13.5t-3.5 -13.5q-7 0 -53 1.5t-87 1.5q-38 0 -149 -3q-4 21 0 27q40 8 48 13q14 7 10 20q-13 46 -51 151
q-7 7 -10 7q-13 1 -70 1q-69 0 -82 -1q-8 0 -10 -9q-45 -126 -44 -140q2 -27 28 -33q42 -8 48 -9q1 -2 0 -13.5t-3 -13.5q-14 0 -53 1.5t-68 1.5q-19 0 -54 -1.5t-52 -1.5q-2 3 -2 13.5t2 13.5zM261 463h-4q-13 -35 -37.5 -111.5t-25.5 -79.5q-2 -6 1 -6q11 -1 56 -1h29
h26.5h14.5q3 0 3 5q-45 141 -63 193z" />
    <glyph glyph-name="B" unicode="B" horiz-adv-x="610" 
d="M27 578q-3 3 -2.5 14t2.5 13q9 0 54 -1.5t83 -1.5q45 0 106.5 1t68.5 1q188 0 188 -137q0 -42 -29 -76.5t-86 -49.5q-2 -1 -2 -2.5t2 -2.5q159 -28 159 -150q0 -113 -115 -164q-69 -30 -168 -30q-18 0 -126.5 2.5t-144.5 2.5q-2 4 -2 14.5t2 12.5q39 4 60 11t25 44
q3 37 3 223q0 184 -3 224q-1 33 -25 43q-21 7 -50 9zM269 568q-13 0 -19 -3q-7 -5 -7 -13q-3 -60 -3 -203q0 -6 5 -6q10 -1 50 -1q44 0 61 10q40 24 40 86q0 59 -32 94.5t-95 35.5zM320 24q48 0 75 37t27 105q0 66 -38 103.5t-106 37.5q-25 0 -33 -1q-5 0 -5 -5
q0 -167 2 -219q2 -19 14 -31q12 -14 32 -20.5t32 -6.5z" />
    <glyph glyph-name="C" unicode="C" horiz-adv-x="655" 
d="M565 440q-7 49 -18 76.5t-39 43.5q-46 27 -120 27q-83 0 -133 -67.5t-50 -201.5q0 -79 21.5 -142.5t73.5 -106t127 -42.5q67 0 105 34q38 35 72 98q18 -4 23 -15q-9 -33 -33.5 -79t-43.5 -60q-74 -23 -150 -23q-169 0 -260.5 83t-91.5 243q0 86 41 157.5t119 111.5
q83 43 205 43q39 0 110.5 -7.5t87.5 -8.5q-15 -74 -17 -162q-3 -4 -15.5 -5t-13.5 3z" />
    <glyph glyph-name="D" unicode="D" horiz-adv-x="711" 
d="M20 578q-2 3 -1 14t3 13q63 -3 145 -3q35 0 91.5 1.5t96.5 1.5q130 0 207 -61q49 -40 74.5 -101t25.5 -129q0 -147 -93 -232q-98 -89 -277 -89q-34 0 -117 2t-128 2h-33q-2 3 -2 14t2 13q34 3 59 9q24 7 29 45q3 33 3 248q0 156 -3 201q-2 18 -6.5 26t-19.5 14
q-13 6 -56 11zM246 88q0 -17 14 -31q29 -29 87 -29q65 0 107 56q59 80 59 216q0 73 -26.5 138.5t-75.5 98.5q-48 35 -126 35q-25 0 -35 -5q-5 -4 -7 -15q-1 -22 -1 -253q0 -171 4 -211z" />
    <glyph glyph-name="E" unicode="E" horiz-adv-x="560" 
d="M27 578q-2 4 -1.5 14t2.5 13q15 0 67.5 -1.5t78.5 -1.5h193q92 0 125 5q3 0 3 -3q-10 -41 -16 -148q-4 -3 -14.5 -4t-14.5 1q-7 54 -21 79q-11 21 -38 25q-16 2 -71 2.5t-66 -1.5q-3 -1 -6.5 -7t-3.5 -10v-205q0 -8 6 -8q118 0 133 1q28 1 39 40q4 14 7 32q3 2 15 1.5
t15 -2.5q0 -5 -2.5 -40t-2.5 -55q0 -10 3 -97q-3 -2 -15 -2.5t-15 1.5q-6 27 -10 39q-10 29 -36 31q-17 2 -131 2q-6 0 -6 -8v-190q0 -28 21 -33q38 -6 115 -6q40 0 55 5t30 22q27 28 55 96q4 1 15 -2.5t13 -6.5q-3 -21 -17 -72t-25 -73q-8 -16 -54 -16q-43 0 -135.5 2.5
t-139.5 2.5q-27 0 -86 -1.5t-86 -1.5q-1 5 -1 14.5t1 12.5q56 7 70 11q28 9 28 51q3 56 3 249q0 156 -3 192q-2 21 -7 29.5t-20 13.5q-13 4 -49 8z" />
    <glyph glyph-name="F" unicode="F" horiz-adv-x="535" 
d="M21 578q-1 3 -1 14t2 13q7 0 56.5 -1.5t90.5 -1.5h218q73 0 112 6q2 0 4 -2t1 -4q-12 -50 -16 -154q-5 -2 -15 -2.5t-13 2.5q-10 60 -25 86q-10 19 -40 23q-23 2 -74.5 2t-66.5 -2q-10 -2 -10 -16q-2 -49 -2 -218q0 -5 5 -5q101 0 132 2q36 1 46 27q12 39 13 47
q3 2 14.5 2t14.5 -2q-4 -50 -4 -102q0 -16 1 -50t1 -48q-6 -6 -29 -3q-3 25 -12 47q-10 26 -35 28q-36 3 -142 3q-5 0 -5 -6q0 -120 1 -174q0 -30 7.5 -41.5t25.5 -15.5q6 -1 56 -8q1 -4 0.5 -14.5t-3.5 -12.5q-27 0 -73.5 1.5t-74.5 1.5q-25 0 -74 -1.5t-79 -1.5
q-2 3 -2.5 13.5t1.5 12.5q6 1 21 3t24 4q18 4 23 14.5t7 34.5q3 69 3 228q0 176 -2 215q-1 26 -7.5 34.5t-23.5 12.5q-12 3 -51 9z" />
    <glyph glyph-name="G" unicode="G" horiz-adv-x="695" 
d="M637 41q0 -16 -4 -20q-123 -39 -232 -39q-169 0 -260.5 79.5t-91.5 242.5q0 98 47 171.5t131 109.5q84 35 200 35q38 0 78 -4.5t74.5 -11t48.5 -7.5q-19 -84 -17 -166q-2 -4 -15.5 -5t-16.5 2q-10 91 -43 117q-48 41 -138 41q-82 0 -137 -62t-55 -203q0 -138 58.5 -221.5
t154.5 -83.5q28 0 40 9q15 8 17 30q6 52 2 113q-2 29 -9 41.5t-27 17.5q-5 1 -58 8q-3 4 -2.5 14.5t2.5 13.5q15 0 72.5 -1.5t90.5 -1.5q41 0 78.5 1.5t41.5 1.5q1 -1 1 -13t-1 -14q-6 -1 -15.5 -4t-11.5 -3q-16 -5 -21 -16t-5 -51q0 -91 1 -99q3 -11 22 -22z" />
    <glyph glyph-name="H" unicode="H" horiz-adv-x="738" 
d="M28 578q-2 2 -2 13.5t2 13.5q5 0 53 -1.5t92 -1.5q42 0 87 1.5t54 1.5q2 -4 1.5 -14.5t-3.5 -12.5q-29 -4 -42 -8q-14 -5 -19.5 -16t-6.5 -37q-1 -51 -1 -172q3 -6 5 -7q18 -2 133 -2q94 0 109 1q6 3 6 7q0 138 -3 192q-2 28 -22 33q-16 6 -49 9q-3 2 -3 13t4 14
q13 0 59 -1.5t89 -1.5q46 0 88 1.5t47 1.5q2 -3 2 -13.5t-3 -13.5q-35 -6 -43 -9q-14 -4 -20 -12.5t-7 -30.5q-2 -69 -2 -253q0 -142 2 -185q2 -26 6 -37.5t15 -15.5q9 -3 61 -11q1 -3 -0.5 -14.5t-3.5 -12.5q-10 0 -58 1.5t-83 1.5q-33 0 -87.5 -1.5t-61.5 -1.5
q-3 2 -2.5 13t2.5 14q18 2 43 8q28 6 29 54q1 46 1 191q0 7 -6 7q-20 1 -113 1q-124 0 -130 -3q-4 -2 -4 -6q0 -137 1 -187q1 -26 6.5 -38.5t21.5 -16.5q11 -3 51 -10q2 -4 0.5 -14.5t-3.5 -12.5q-1 0 -50.5 1.5t-99.5 1.5q-43 0 -90.5 -1.5t-52.5 -1.5q-3 1 -3 12.5t2 14.5
q29 4 42 7q20 4 27 17.5t9 48.5q2 30 2 194q0 201 -2 230q-1 24 -6.5 34.5t-20.5 14.5q-23 5 -49 8z" />
    <glyph glyph-name="I" unicode="I" horiz-adv-x="347" 
d="M27 578q-3 3 -2.5 13.5t2.5 13.5q15 0 61 -1.5t84 -1.5q40 0 71.5 1t49.5 1.5t23 0.5q2 -2 2.5 -13t-2.5 -14q-35 -5 -49 -10q-10 -4 -15 -10.5t-6.5 -15t-2.5 -28.5q-1 -29 -1 -198q0 -195 2 -233q1 -9 1 -12t2 -11.5t4.5 -12t8.5 -8t15 -6.5q4 -1 50 -9q2 -3 0.5 -14
t-3.5 -13q-138 3 -143 3q-51 0 -95.5 -1.5t-56.5 -1.5q-3 2 -3.5 13t3.5 14q12 1 44 7q18 5 24.5 15.5t7.5 40.5q2 40 2 235q0 161 -2 206q-2 33 -26 41q-18 5 -50 9z" />
    <glyph glyph-name="J" unicode="J" horiz-adv-x="339" 
d="M29 578q-2 4 -2 14t2 13q9 0 57 -1.5t99 -1.5q38 0 81.5 1.5t54.5 1.5q1 -3 1 -13t-1 -14q-29 -4 -42 -9q-12 -6 -17.5 -16.5t-5.5 -36.5q0 -7 -1 -170.5t-5 -231.5q-5 -101 -46 -172q-42 -71 -100 -112t-113 -41q-51 0 -69 25v18q11 50 30 81q32 -23 66 -39t51 -16
q18 0 29 12q14 19 15 99q3 119 2 300.5t-4 249.5q-1 15 -2.5 22.5t-8 15.5t-17.5 12q-19 6 -54 9z" />
    <glyph glyph-name="K" unicode="K" horiz-adv-x="658" 
d="M239 303q0 -169 2 -223q1 -41 30 -48q3 -1 49 -9q2 -3 0.5 -14t-4.5 -13q-11 0 -37 1.5t-52 2t-54 0.5q-37 -1 -87.5 -2.5t-59.5 -1.5q-2 3 -2 13t2 13q32 4 47 9q17 4 23 17t7 45q2 78 2 225q-1 44 -1 113.5v86.5q-2 43 -23 50q-19 6 -51 10q-4 2 -3 13.5t4 13.5
q3 0 50 -1.5t93 -1.5q28 0 74 1.5t62 1.5q2 -3 2 -13.5t-2 -13.5q-23 -3 -42 -8q-25 -8 -27 -53q-1 -26 -1.5 -105t-0.5 -109zM387 578q-2 4 -2 14.5t2 12.5q13 0 50 -1.5t62 -1.5q65 1 129 3q3 -3 2.5 -13.5t-2.5 -13.5q-29 -5 -36.5 -6.5t-26 -8.5t-31.5 -19t-30 -32
q-130 -153 -137 -160v-4q33 -57 105 -147.5t120 -138.5q26 -24 44 -30q16 -5 48 -8q2 -3 0.5 -13.5t-3.5 -13.5q-36 -5 -110.5 -2.5t-93.5 10.5q-25 9 -59 46q-56 63 -158 217q-5 8 -15 16q0 14 4 15q74 42 171 173q41 55 41 76q0 14 -17 19q-18 7 -57 11z" />
    <glyph glyph-name="L" unicode="L" horiz-adv-x="546" 
d="M27 578q-2 4 -1.5 14.5t2.5 12.5q13 0 54 -1.5t88 -1.5t143 3q3 -2 3 -13t-3 -14q-37 -6 -44 -9q-15 -5 -19.5 -14t-6.5 -31q0 -1 -2 -190q-2 -192 3 -254q2 -28 19 -31q38 -7 124 -5q32 0 56 28q38 46 71 120q3 2 15 -1t13 -7q-3 -23 -23 -87.5t-35 -88.5
q-6 -12 -65 -12q-40 0 -126.5 2t-124.5 2q-36 0 -83 -1.5t-65 -1.5q-3 3 -3 14t3 13q42 5 54 9q23 6 27 42q4 46 4 247q0 180 -2 206q-1 11 -2.5 18t-8 14t-18.5 10q-6 2 -47 8z" />
    <glyph glyph-name="M" unicode="M" horiz-adv-x="812" 
d="M21 578q-1 4 0.5 14.5t3.5 12.5q225 -3 229 -3q1 -26 17 -62q115 -260 144 -316q3 -4 5 0q20 37 72.5 149t75.5 168q18 43 19 61q51 0 115.5 1.5t93.5 1.5q3 -2 2.5 -13.5t-2.5 -13.5q-32 -4 -56 -11q-18 -7 -23 -18t-6 -35q-1 -50 3 -210t8 -213q2 -25 9 -39t26 -18
q36 -8 52 -10q2 -3 1 -13t-4 -14q-7 0 -55.5 1.5t-107.5 1.5q-29 0 -74 -1.5t-61 -1.5q-2 3 -2 14t2 13q37 7 50 11q20 8 20 49q4 108 1 379q-4 0 -5 -1q-176 -399 -195 -458q-5 -1 -21.5 -1.5t-18.5 0.5q-6 20 -15 47t-18.5 51.5t-28 71t-31.5 78.5t-42 102t-47 114
q-3 0 -4 -2q-5 -49 -12.5 -183t-7.5 -186q0 -29 8 -41.5t29 -18.5q22 -7 60 -12q3 -2 2.5 -13t-3.5 -14q-17 0 -56.5 1.5t-69.5 1.5q-19 0 -58.5 -1.5t-58.5 -1.5q-2 3 -2 13.5t2 13.5q40 6 46 8q22 5 32 19t15 49q8 57 20.5 205t14.5 209q2 39 -25 49q-16 7 -68 15z" />
    <glyph glyph-name="N" unicode="N" horiz-adv-x="688" 
d="M12 578q-1 2 -1 13.5t2 13.5q16 0 65.5 -1.5t79.5 -1.5q44 0 66 2q5 -13 35 -53q205 -269 295 -377q1 0 1.5 0.5t1.5 0.5q2 276 -4 337q-3 26 -12.5 38t-32.5 19q-23 5 -58 9q-2 3 -1.5 14t2.5 13q10 0 54 -1.5t76 -1.5q27 0 65 1.5t43 1.5q3 -3 3 -14t-3 -13
q-28 -4 -39 -8q-22 -7 -30.5 -20t-10.5 -42q-8 -123 -8 -377q0 -23 0.5 -71.5t0.5 -64.5q-12 1 -45.5 0.5t-48.5 -1.5q-12 16 -351 469q-1 2 -2.5 1.5t-1.5 -2.5q-6 -223 1 -366q2 -31 12.5 -44.5t32.5 -18.5l56 -9q2 -2 2 -12.5t-3 -14.5q-13 0 -54.5 1.5t-65.5 1.5
q-33 0 -74 -1.5t-51 -1.5q-2 3 -2 14t2 13q36 5 56 11q29 10 34 56q10 83 10 406q0 21 -10.5 41t-27.5 26q-32 12 -59 14z" />
    <glyph glyph-name="O" unicode="O" horiz-adv-x="746" 
d="M371 -18q-151 0 -239 91q-84 88 -84 229q0 131 76 208q94 110 256 110q150 0 233.5 -88t83.5 -222q0 -123 -59 -202q-93 -126 -267 -126zM402 19q48 0 80 34q61 61 61 223q0 82 -22 156t-66 114q-42 38 -99 38q-47 0 -78 -25q-76 -58 -76 -225q0 -79 23.5 -156t72.5 -120
q46 -39 104 -39z" />
    <glyph glyph-name="P" unicode="P" horiz-adv-x="576" 
d="M288 240q-11 5 -15 23q-2 6 3 9q8 -2 27 -2q29 0 53 13q47 34 46 126q0 71 -33.5 115.5t-91.5 44.5q-16 0 -26 -5q-7 -4 -7 -14q-2 -54 -2 -228q0 -182 2 -238q3 -43 29 -50q22 -7 62 -10q2 -3 1 -13.5t-4 -13.5q-13 0 -68 1.5t-85 1.5q-26 0 -77 -1.5t-77 -1.5
q-2 4 -2 14.5t2 12.5q26 3 50 8q17 3 22 15t6 37q2 74 2 236q0 142 -3 196q-1 26 -6.5 38.5t-23.5 16.5t-46 7q-2 4 -1.5 14t2.5 13q7 0 55.5 -2t77.5 -1q36 0 95.5 1t91.5 1q84 0 130 -32q67 -48 67 -141q0 -109 -84 -160q-58 -35 -128 -35q-28 0 -44 4z" />
    <glyph glyph-name="Q" unicode="Q" horiz-adv-x="746" 
d="M908 -106q-43 -44 -103.5 -66.5t-117.5 -22.5q-56 0 -115 33q-32 17 -93.5 61t-84.5 59q-29 18 -65 24q-97 14 -155 55q-125 86 -125 263q0 113 54 189q96 131 283 131q147 0 229 -90.5t82 -217.5q0 -138 -76 -222q-43 -49 -125 -83q38 -12 129 -53q120 -52 175 -52
q56 0 100 21q3 -3 6 -14t2 -15zM354 584q-76 0 -114 -69t-38 -183q0 -132 52 -223.5t156 -91.5q67 0 100.5 75t33.5 186q0 55 -10.5 106.5t-31.5 97.5t-59.5 74t-88.5 28z" />
    <glyph glyph-name="R" unicode="R" horiz-adv-x="620" 
d="M27 578q-2 4 -1.5 15t3.5 12q11 0 63 -1.5t71 -1.5q30 0 89.5 1t97.5 1q89 0 136.5 -39.5t47.5 -109.5q0 -106 -117 -151q-3 -3 -1 -7q20 -37 74.5 -118t88.5 -113q27 -26 39.5 -32t48.5 -10q1 -2 -1 -13.5t-4 -13.5q-43 -5 -105.5 -1.5t-91.5 16.5q-31 14 -48 40
q-17 21 -39 55t-50.5 84t-34.5 59q-10 19 -29 19q-5 1 -21 1q-4 0 -4 -7q0 -85 2 -181q2 -26 7.5 -36t21.5 -14l50 -8q3 -2 2.5 -13.5t-3.5 -13.5q-6 0 -54 1.5t-92 1.5q-50 0 -96 -2l-46 -1q-3 3 -3 13t3 13q39 7 41 7q16 4 22 15t8 37q3 45 3 239q0 153 -2 201
q-3 43 -29 48q-27 7 -47 8zM273 569q-13 0 -25 -4q-6 -5 -6 -15q-3 -26 -3 -236q0 -6 6 -6q78 -5 110 11q42 23 42 104q0 64 -33 105t-91 41z" />
    <glyph glyph-name="S" unicode="S" horiz-adv-x="479" 
d="M59 175q29 -92 84 -134q38 -26 92 -26q38 0 61.5 22.5t23.5 60.5q0 39 -22.5 68t-86.5 69q-82 53 -118 95.5t-36 110.5q0 84 60 131.5t149 47.5q43 0 96 -7.5t63 -8.5q-12 -67 -17 -145q-3 -2 -13.5 -2.5t-13.5 1.5q-13 85 -46 109q-32 22 -77 22q-40 0 -64 -24.5
t-24 -62.5q0 -58 60 -100q25 -17 109 -70q56 -36 81 -73.5t25 -87.5q0 -83 -62.5 -136t-172.5 -53q-44 0 -87 10t-62 21q-7 10 -17 68t-12 87q2 4 13 6.5t14 0.5z" />
    <glyph glyph-name="T" unicode="T" horiz-adv-x="629" 
d="M465 23q3 -2 2.5 -13.5t-3.5 -13.5q-16 0 -66 1.5t-85 1.5q-54 0 -108.5 -1.5t-62.5 -1.5q-3 4 -3 14.5t3 12.5q45 4 62 9q18 5 25.5 17.5t9.5 46.5q3 74 3 455q0 7 -5 7q-14 2 -48.5 2t-51.5 -2q-32 -3 -50 -34q-21 -37 -37 -85q-2 -2 -15 0.5t-14 6.5q13 65 18 163
q0 2 3.5 4.5t4.5 1.5q38 -13 90 -13h355q65 0 107 12q3 0 6 -6q-16 -60 -23 -169q-2 -2 -14.5 -2.5t-14.5 1.5q-8 56 -21 87q-7 17 -16 23.5t-24 8.5q-19 1 -60.5 1.5t-48.5 -0.5q-5 -2 -5 -8q0 -402 3 -469q2 -38 27 -48q10 -3 57 -10z" />
    <glyph glyph-name="U" unicode="U" horiz-adv-x="686" 
d="M12 578q-2 3 -1.5 13.5t2.5 13.5q10 0 59.5 -1.5t87.5 -1.5q41 0 90.5 1.5t61.5 1.5q3 -3 3 -13t-3 -14q-10 -1 -42 -7q-34 -7 -35 -53q-1 -23 -1 -238q0 -78 9 -123q23 -114 160 -114q138 0 151 157q5 51 5 155t-3 149q-1 32 -10.5 46.5t-33.5 19.5q-36 7 -51 8
q-2 4 -2 13.5t2 13.5q14 0 52 -1.5t63 -1.5q38 0 72.5 1.5t41.5 1.5q2 -3 2.5 -13.5t-2.5 -13.5l-40 -8q-19 -5 -26.5 -19t-9.5 -50q-1 -16 -3.5 -115.5t-4.5 -132.5q-4 -144 -70 -207.5t-187 -63.5q-225 0 -249 180q-4 25 -5.5 68.5t-2 78.5t-0.5 105.5v104.5q0 41 -33 51
q-19 5 -47 8z" />
    <glyph glyph-name="V" unicode="V" horiz-adv-x="615" 
d="M-26 578q-2 5 -0.5 15t3.5 12q13 0 67 -1.5t82 -1.5q36 0 88.5 1.5t57.5 1.5q2 -2 2 -13.5t-2 -13.5q-42 -7 -52 -17q-9 -9 -3 -26q14 -39 73 -187.5t73 -179.5q0 -2 5 0q20 43 66.5 167t59.5 170q16 50 -18 61q-20 7 -61 12q-1 4 0.5 14.5t3.5 12.5q1 0 40 -1.5t77 -1.5
q35 0 69.5 1.5t40.5 1.5q2 -2 2.5 -12.5t-1.5 -14.5q-32 -4 -48 -12q-18 -9 -30 -26t-27 -52q-13 -32 -64 -158t-78 -193q-34 -89 -51 -144q-39 4 -77 0q-30 88 -49 134q-106 278 -132 338q-24 57 -37.5 77t-36.5 27q-16 5 -43 9z" />
    <glyph glyph-name="W" unicode="W" horiz-adv-x="862" 
d="M-33 578q-2 3 -1.5 14.5t3.5 12.5q15 0 59.5 -1.5t90.5 -1.5q47 0 91 1.5t56 1.5q2 -2 2 -13t-2 -14q-34 -5 -49 -13q-13 -8 -8 -26q36 -132 106 -340q2 -5 5 1q84 214 128 370q26 -4 57 1q18 -56 72.5 -195.5t77.5 -191.5q1 -1 2.5 -0.5t2.5 1.5q72 220 92 321
q6 18 1.5 34.5t-24.5 23.5q-15 6 -65 14q-3 3 -2.5 14t2.5 13q8 0 51 -1.5t72 -1.5q31 0 66.5 1.5t43.5 1.5q2 -2 2 -12.5t-2 -14.5q-40 -10 -41 -11q-17 -8 -27 -20.5t-20 -40.5q-29 -80 -170 -516q-9 1 -31 0.5t-31 -2.5q-23 65 -74.5 201.5t-71.5 180.5q-1 1 -2.5 0
t-2.5 -2q-89 -231 -138 -378q-8 1 -31.5 0.5t-31.5 -1.5q-24 99 -76.5 265.5t-83.5 249.5q-21 52 -45 61q-23 9 -53 13z" />
    <glyph glyph-name="X" unicode="X" horiz-adv-x="595" 
d="M621 24q2 -2 1.5 -13t-3.5 -14q-19 0 -79.5 1.5t-93.5 1.5q-48 0 -89.5 -1.5t-44.5 -1.5q-3 2 -3.5 13.5t1.5 13.5q46 9 54 14q3 1 3.5 6.5t-1.5 8.5q-41 83 -102 184q-1 1 -3.5 1.5t-3.5 -0.5q-14 -21 -35.5 -53t-31.5 -47.5t-22 -34.5t-17 -29t-5 -15q-3 -20 23 -27
q28 -6 47 -8q3 -12 -4 -26q-19 0 -59.5 1t-61.5 1q-31 0 -112 -3q-1 3 -1 14t1 13q47 8 50 9q19 5 35 17t43 46q68 84 130 179q1 1 1 4.5t-1 3.5q-39 74 -114 201q-30 50 -44.5 65t-37.5 21q-23 7 -42 8q-3 3 -2.5 14t2.5 13q16 0 61.5 -1.5t75.5 -1.5q94 0 151 3
q2 -2 2 -13.5t-2 -13.5q-14 -1 -37 -8q-15 -5 -8 -21q13 -28 90 -162q2 -3 5 0q95 136 95 161q0 13 -13 18q-17 5 -52 11q-2 4 -0.5 14.5t3.5 11.5q13 0 46.5 -0.5t58.5 -0.5q36 0 70 1.5t42 1.5q4 -17 0 -27q-23 -3 -46 -9q-22 -8 -39 -21.5t-41 -46.5q-19 -26 -58.5 -82.5
t-44.5 -63.5q-2 -5 -1 -8q69 -121 111 -188q47 -77 64 -97t42 -28q19 -6 47 -10z" />
    <glyph glyph-name="Y" unicode="Y" horiz-adv-x="561" 
d="M-23 579q-2 4 -1.5 14t2.5 12q15 0 61.5 -1.5t75.5 -1.5q94 0 145 3q3 -2 3 -13t-2 -14q-7 -1 -32 -7q-18 -5 -8 -28q13 -30 55.5 -112t55.5 -105q2 -2 6 0q25 43 59 110.5t45 97.5q5 15 0 23t-21 12q-19 5 -48 9q-3 21 3 27q6 0 46.5 -1.5t66.5 -1.5q25 0 59 1.5t45 1.5
q2 -2 2.5 -13t-2.5 -14q-31 -4 -40 -8q-22 -7 -37 -20t-36 -46q-84 -145 -117 -213q-11 -22 -11 -47q0 -52 2 -154q1 -25 7.5 -39t25.5 -18q7 -2 53 -10q2 -3 1 -13t-3 -13q-16 0 -72.5 1.5t-88.5 1.5q-46 0 -90.5 -1.5t-56.5 -1.5q-3 2 -2.5 13.5t2.5 12.5q47 7 56 10
q29 6 29 57q1 24 1 144q0 25 -12 50q-43 93 -113 212q-27 45 -41 58t-37 19q-23 5 -36 6z" />
    <glyph glyph-name="Z" unicode="Z" horiz-adv-x="578" 
d="M565 171q-4 -27 -20 -84t-28 -80q-7 -12 -67 -12q-62 0 -180 2.5t-139 2.5q-10 0 -30.5 -0.5t-37 -1t-26.5 -1.5q-6 9 -3 19q42 55 171.5 270t155.5 271q1 1 0 3t-3 2q-131 3 -205 -4q-34 -4 -54 -35q-14 -23 -43 -89q-2 -1 -14.5 2.5t-14.5 5.5q23 96 31 171
q2 0 10.5 -0.5t11.5 -1.5q27 -9 76 -9h203q109 0 168 3q3 -3 3 -18q-16 -26 -148 -257t-162 -282q-2 -2 -1 -4t3 -2q24 -6 184 -6q29 0 52 19q34 30 79 126q3 1 14.5 -3t13.5 -7z" />
    <glyph glyph-name="bracketleft" unicode="[" horiz-adv-x="361" 
d="M111 742h195q2 -44 -9 -44q-30 -2 -133 -2q-6 0 -6 -7q-6 -60 -6 -401q0 -322 5 -399q3 -17 10 -20q17 -5 147 -5q2 -6 -1 -25.5t-10 -19.5q-107 -2 -153 0q-33 3 -44 9v908q0 6 5 6z" />
    <glyph glyph-name="backslash" unicode="\" horiz-adv-x="431" 
d="M76 690q1 0 2.5 -0.5t2.5 -0.5q238 -648 307 -796q0 -5 -6 -5q-11 1 -28.5 7.5t-20.5 12.5q-17 32 -76 184.5t-128 334t-91 235.5q2 4 17 14.5t21 13.5z" />
    <glyph glyph-name="bracketright" unicode="]" horiz-adv-x="361" 
d="M250 -182q-36 0 -97.5 -1t-97.5 -1q-2 45 9 45q10 0 41 1t57.5 1.5t35.5 1.5q6 0 6 7q5 38 5 398q0 353 -4 402q-3 19 -10 20q-28 4 -148 4q-2 6 1 24.5t10 18.5q86 2 184 2q6 0 13 -7v-910q0 -6 -5 -6z" />
    <glyph glyph-name="asciicircum" unicode="^" horiz-adv-x="418" 
d="M96 281q-11 -14 -50 -14q-4 0 -7.5 2.5t-3.5 4.5q14 19 76.5 147t76.5 164q1 1 18.5 5.5t20.5 4.5q22 -52 80.5 -169t75.5 -140q-1 -5 -3 -6q-6 -4 -29 -10.5t-25 -4.5q-8 8 -33 56.5t-54.5 108.5t-31.5 64q-6 2 -7 0q-87 -193 -104 -213z" />
    <glyph glyph-name="underscore" unicode="_" horiz-adv-x="500" 
d="M557 -182v-51h-569v51h569z" />
    <glyph glyph-name="grave" unicode="`" horiz-adv-x="400" 
d="M186 598q3 -6 22 -67.5t25 -84.5q-1 -3 -11 -8t-13 -4q-17 17 -61.5 70.5t-57.5 74.5q-2 7 3 12q9 4 47 6.5t46 0.5z" />
    <glyph glyph-name="a" unicode="a" horiz-adv-x="428" 
d="M242 253q0 33 -14 53q-22 33 -69 33q-37 0 -52 -13q-7 -7 -32 -57q-2 -1 -9.5 2t-13 7.5t-5.5 6.5q0 5 8.5 30.5t11.5 28.5q37 26 82.5 45t68.5 19q79 0 117 -59q24 -39 24 -103q0 -24 -1 -76.5t-1 -72.5q0 -40 30 -40q16 0 30 4q1 -2 -1.5 -16.5t-3.5 -16.5
q-40 -40 -106 -40q-50 0 -61 31q-1 3 -4 17l-4 1q-32 -24 -62.5 -36.5t-44.5 -12.5q-34 0 -60 24q-38 35 -38 98q0 9 6 29t11 28q14 9 90.5 31.5t93.5 29.5q8 2 8 11q1 9 1 14zM241 195l-3 5q-75 -25 -81 -31q-9 -9 -9 -36q0 -35 19.5 -55t45.5 -20q15 0 20 4q7 7 7 20
q1 31 1 113z" />
    <glyph glyph-name="b" unicode="b" horiz-adv-x="506" 
d="M318 408q65 0 108 -48q45 -49 45 -130q0 -118 -81 -179q-28 -22 -80.5 -42.5t-84.5 -20.5q-49 0 -94 12q-38 9 -64 1q-1 -1 -4.5 2t-3.5 5q5 45 4 256q0 280 -4 310q-3 21 -23 27l-37 6q-2 2 -1 12.5t3 12.5q42 2 102.5 13t91.5 24q6 -12 5 -16q-10 -19 -10 -129v-79
t-1 -79q2 -4 5 -2q84 44 124 44zM227 342q-16 0 -31 -5q-6 -2 -6 -14q-3 -153 2 -223q3 -29 17 -41q29 -27 65 -27q23 0 42 25q28 36 28 116q0 86 -32 128q-29 41 -85 41z" />
    <glyph glyph-name="c" unicode="c" horiz-adv-x="415" 
d="M396 76q-68 -88 -173 -88q-93 0 -146 66q-43 52 -43 140q0 50 26 97.5t72 73.5q28 17 70 30t77 13q49 0 81 -13q26 -7 35 -28q4 -8 0 -18q-6 -15 -21.5 -34.5t-25.5 -23.5q-8 -4 -12 0q-2 2 -11.5 13t-15.5 17.5t-17 16.5t-20.5 16t-21.5 10.5t-24 4.5q-33 0 -52.5 -33
t-19.5 -92q0 -70 31 -115q38 -55 109 -55q60 0 102 38q3 -2 5 -5q4 -15 -5 -31z" />
    <glyph glyph-name="d" unicode="d" horiz-adv-x="514" 
d="M504 55q1 -3 -1.5 -13.5t-4.5 -12.5q-27 -14 -89 -30t-80 -16q-4 0 -7 9q-1 4 -1.5 23t-0.5 26q0 1 -1 2t-3 0q-81 -53 -132 -53q-63 0 -106 52q-44 55 -44 143q0 49 21 93t55 71q30 23 84 41t96 18h26q5 0 5 4q2 106 -3 153q-2 31 -20 38q-21 8 -51 11q-2 3 -0.5 13.5
t3.5 12.5q45 0 110 9t93 20q3 -2 6 -15q-10 -16 -11 -116q-1 -61 -1 -260q0 -133 2 -173q1 -47 17 -48q11 -2 38 -2zM237 371q-24 0 -45 -22q-29 -32 -29 -106q0 -81 33 -130.5t86 -49.5q18 0 31 8q7 5 8 16q4 126 -1 211q-1 31 -27 55q-24 18 -56 18z" />
    <glyph glyph-name="e" unicode="e" horiz-adv-x="434" 
d="M404 113q4 0 4 -5q2 -14 -3 -28q-34 -41 -83 -66.5t-97 -25.5q-84 0 -132 48q-59 56 -59 163q0 58 26 104t68 72q52 33 116 33q50 0 85 -25t49.5 -54.5t19.5 -62.5q1 -7 14 -12q1 -2 -1.5 -11t-4.5 -10q-28 -10 -243 -23q-4 0 -4 -10q2 -49 37 -87t97 -38q64 0 111 38z
M214 375q-25 0 -41 -33.5t-16 -87.5q0 -5 6 -5q19 -1 57.5 0t50.5 4q5 2 5 9q-2 50 -18.5 81.5t-43.5 31.5z" />
    <glyph glyph-name="f" unicode="f" horiz-adv-x="288" 
d="M19 24q26 4 37 9q16 6 16 34v268q0 7 -4 7l-47 3q0 21 8 29q28 8 41 17q4 3 4 7q3 153 123 234q54 37 103 37q62 0 86 -36q2 -7 0 -15q-4 -11 -22.5 -37.5t-26.5 -31.5q-1 -1 -6.5 -1.5t-7.5 0.5q-55 67 -91 67q-13 0 -22 -11q-15 -21 -15 -123q0 -50 2 -80q0 -7 6 -7
l92 3q-2 -9 -9 -55q-14 0 -42.5 0.5t-41.5 0.5q-5 0 -5 -6q1 -133 4 -258q1 -23 6.5 -33t19.5 -14q12 -4 45 -8q2 -3 0 -14t-5 -13q-12 0 -51 1.5t-84 1.5q-22 0 -63.5 -1.5t-49.5 -1.5q-3 3 -3 13.5t3 13.5z" />
    <glyph glyph-name="g" unicode="g" horiz-adv-x="458" 
d="M223 408q44 0 108 -20q32 -10 58 -10q27 0 39 3.5t24 15.5q1 2 6.5 -1t6.5 -6q0 -8 -8.5 -30t-16.5 -30q-10 -10 -36 -10h-21q-1 0 -1.5 -1t0.5 -2q7 -17 7 -47q0 -83 -59 -125q-44 -34 -118 -36q-26 0 -32 1q-4 0 -10 -6t-6 -11q0 -23 35 -28q154 -17 169 -22
q32 -9 56.5 -36t24.5 -71q0 -57 -37.5 -102.5t-97.5 -73.5q-54 -25 -118 -25q-72 0 -116 28q-61 37 -61 92q0 24 6 38q14 12 90 59v5q-68 28 -69 84l3 16q77 42 90 52q1 1 1 2.5t-1 1.5q-105 32 -105 141q0 76 62 118q54 36 127 36zM248 -215q56 0 83.5 22.5t27.5 55.5
q0 38 -38 58q-49 25 -152 25q-19 0 -30 -8q-29 -20 -29 -55q0 -32 28 -61q37 -37 110 -37zM206 378q-23 0 -37 -23t-14 -67q0 -75 19 -111.5t49 -36.5q18 0 30 15q20 22 20 88q0 59 -16.5 97t-50.5 38z" />
    <glyph glyph-name="h" unicode="h" horiz-adv-x="516" 
d="M7 608q-2 3 -2 13.5t2 12.5q53 3 109.5 14t80.5 21q8 -5 6 -16q-11 -20 -11 -95v-199q0 -7 4 -3q72 52 127 52q61 0 93.5 -42t32.5 -121v-188q0 -13 7 -18q14 -10 45 -15q2 -3 1 -14t-4 -13q-8 0 -43.5 1.5t-71.5 1.5q-28 0 -106 -3q-2 3 -2 13.5t2 13.5q15 2 27 7
q17 6 18 41q5 177 -5 211q-6 25 -26 40.5t-47 15.5q-26 0 -46 -10q-6 -4 -6 -11q0 -209 2 -240q0 -2 0.5 -7t0.5 -7t0.5 -6t1 -6t1 -5t1.5 -4t2.5 -3.5t3.5 -3.5t4 -2.5t5 -2.5q12 -4 29 -7q3 -4 3 -13.5t-3 -13.5q-9 0 -44.5 1.5t-70.5 1.5t-71 -1.5t-42 -1.5q-4 4 -3.5 14
t3.5 13q15 2 32 8q11 4 14.5 14.5t4.5 37.5q2 39 2 176q0 279 -4 316q-3 18 -18 24q-8 4 -39 8z" />
    <glyph glyph-name="i" unicode="i" horiz-adv-x="265" 
d="M196 538q0 -34 -26 -55q-7 -5 -33.5 -8t-37.5 1q-22 8 -30 44q-5 32 6 46q23 21 69 21q34 0 44 -13q8 -10 8 -36zM252 24q1 -4 -0.5 -14t-4.5 -13q-7 0 -44 1.5t-69 1.5q-31 0 -69 -1.5t-46 -1.5q-2 3 -2.5 14t1.5 13q22 3 35 7q17 6 18 41q1 22 1 137q0 79 -1 94
q-2 21 -8 27q-11 11 -35 20q-1 3 -1 13t2 12q21 0 79 11t91 25q0 -14 -0.5 -76.5t-0.5 -93.5q0 -124 1 -168q1 -21 5 -29t14 -12q13 -4 34 -8z" />
    <glyph glyph-name="j" unicode="j" horiz-adv-x="268" 
d="M198 545q0 -16 -7.5 -33.5t-18.5 -24.5q-6 -4 -33.5 -9t-34.5 -1q-29 14 -35 50q-1 9 0 21t6 17q9 11 31.5 19t43.5 8q30 0 40 -13q8 -9 8 -34zM205 410q0 -34 -0.5 -147.5t-1.5 -170.5q0 -84 -11 -134q-19 -80 -71 -138t-92 -74q-17 2 -27 14q-2 7 1 10q43 20 57.5 58.5
t14.5 128.5q0 306 -3 343q-2 30 -16 37q-12 8 -41 14q-3 5 -2.5 14.5t2.5 13.5q118 5 190 31z" />
    <glyph glyph-name="k" unicode="k" horiz-adv-x="487" 
d="M260 367q-2 4 -0.5 14.5t3.5 12.5q105 -2 194 7q2 -2 2.5 -12.5t-2.5 -14.5q-52 -10 -78 -35q-54 -54 -83 -88v-5q13 -27 69.5 -102t82.5 -99q13 -12 23.5 -15.5t36.5 -5.5q2 -3 0.5 -14t-3.5 -13q-65 -8 -138 -4q-34 0 -58 27q-23 27 -93 137q-16 26 -24 31
q1 -63 1 -113q1 -25 6.5 -33.5t22.5 -12.5l28 -5q2 -4 0.5 -14t-4.5 -13q-8 0 -46.5 1.5t-74.5 1.5q-25 0 -60.5 -1.5t-49.5 -1.5q-2 3 -2 14t2 13q23 3 33 7q15 6 18 40q2 27 2 176q-1 306 -3 327q-2 25 -19 30q-15 6 -33 8q-2 4 -2 13.5t2 11.5q48 2 103 12t81 20
q7 -5 7 -15q-9 -16 -11 -113q-1 -58 -1 -330q18 3 44 24q29 24 58 59.5t29 47.5q0 13 -16 17q-28 8 -47 8z" />
    <glyph glyph-name="l" unicode="l" horiz-adv-x="261" 
d="M15 -3q-2 3 -2 13t2 14q24 5 34 9q16 7 17 50q2 82 2 248q0 192 -4 241q-2 21 -13 25q-12 6 -39 9q-2 3 -1.5 12t2.5 12q40 3 99.5 15.5t84.5 23.5q8 -4 6 -12q-9 -17 -9 -95q-1 -49 -1 -224q0 -236 2 -266q1 -15 2.5 -22t5.5 -11t13 -7q15 -5 32 -8q5 -12 -3 -27
q-3 0 -20.5 0.5t-45.5 1.5t-57 1q-35 0 -69.5 -1.5t-37.5 -1.5z" />
    <glyph glyph-name="m" unicode="m" horiz-adv-x="773" 
d="M20 24q14 2 31 8q18 8 20 45q2 32 2 116t-3 106q0 13 -5 20q-7 13 -42 26q-1 3 0.5 13t3.5 12q114 13 170 42q4 -2 4 -7q-3 -18 -3 -58q1 -5 7 -2q79 63 133 63q68 0 101 -67q2 -2 5 0q86 67 141 67q56 0 88.5 -42t32.5 -114q0 -115 2 -193q0 -11 4 -16q3 -3 6 -5.5
t9 -4.5t9.5 -3t12.5 -3t13 -3q2 -4 0.5 -14t-3.5 -13q-7 0 -44.5 1.5t-70.5 1.5q-60 0 -111 -3q-2 3 -2 13.5t2 13.5q19 4 28 7q10 3 13 12t4 32q4 138 -3 193q-4 24 -21 42.5t-50 18.5q-30 0 -54 -17q-1 -1 -1 -8q5 -27 5 -72q0 -127 1 -168q0 -20 9 -25q16 -12 45 -15
q2 -3 0.5 -13.5t-3.5 -13.5q-120 3 -126 3q-23 0 -104 -3q-2 4 -2 14t2 13q5 1 13 2.5t13 2.5t9 2q12 5 15 35q3 178 -3 209q-12 57 -69 57q-25 0 -46 -14q-9 -5 -9 -18q0 -37 0.5 -117t0.5 -115q0 -19 5 -27t21 -12q3 -1 12.5 -2.5t12.5 -2.5q2 -3 0.5 -13t-3.5 -14
q-114 3 -122 3q-4 0 -106 -3q-2 4 -2 14.5t2 12.5z" />
    <glyph glyph-name="n" unicode="n" horiz-adv-x="522" 
d="M20 24q11 1 29 6q20 5 21 40q2 58 2 149q0 78 -2 88q-3 24 -44 39q-3 13 3 23q103 12 166 43q1 0 4 -7q-2 -26 -2 -56q0 -2 1.5 -2.5t3.5 0.5q77 61 127 61q66 0 101 -54q24 -38 24 -116q0 -166 1 -181q0 -11 7 -16q17 -13 46 -17q1 -4 -0.5 -14t-4.5 -13q-2 0 -35 1.5
t-73 1.5q-11 0 -113 -3q-2 3 -2 14t2 13q11 2 26 6q17 5 18 32q2 38 2 113t-5 102q-8 32 -30 46q-18 11 -42 11q-22 0 -45 -14q-8 -3 -8 -14q0 -190 2 -239q1 -20 6 -27.5t17 -10.5q17 -4 27 -5q2 -2 1 -13t-3 -14q-114 3 -117 3q-44 0 -110 -3q-2 4 -2.5 13.5t1.5 13.5z
" />
    <glyph glyph-name="o" unicode="o" horiz-adv-x="506" 
d="M259 408q99 0 155.5 -58t56.5 -148q0 -123 -91 -179q-56 -35 -130 -35q-105 0 -160.5 60t-55.5 153q0 111 89 168q59 39 136 39zM238 375q-16 0 -29 -10q-37 -29 -37 -136q0 -101 26.5 -155t68.5 -54q20 0 31 11q34 31 34 142q0 91 -24.5 146.5t-69.5 55.5z" />
    <glyph glyph-name="p" unicode="p" horiz-adv-x="511" 
d="M9 337q-1 3 0 13t3 13q36 6 90 24t85 33q2 1 5 -3t3 -6q-2 -18 -2 -57q0 -4 5 -2q84 56 131 56q62 0 101 -45q47 -53 47 -134q0 -109 -79 -176q-35 -30 -87 -48t-92 -18q-11 0 -23 2q-3 0 -3 -5q0 -113 2 -145q3 -32 28 -38q17 -4 53 -8q2 -4 1 -14.5t-5 -13.5h-22
q-128 1 -248 -12q-2 4 -3 14t1 14q35 8 45 12q19 6 21 47q2 42 2 249q0 160 -3 206q-2 24 -15 31q-15 5 -41 11zM242 334q-26 0 -40 -10q-10 -5 -10 -16q-1 -21 -1 -95.5t2 -105.5q2 -37 26 -57t56 -20q26 0 45 23q30 39 30 119q0 84 -33 126q-29 36 -75 36z" />
    <glyph glyph-name="q" unicode="q" horiz-adv-x="513" 
d="M523 -234q-69 0 -92 -1q-49 -1 -110 -6t-73 -5q-5 20 0 27q25 4 47 11q14 5 18 14.5t6 36.5q3 48 3 180q0 2 -1 3.5t-3 0.5q-24 -15 -62.5 -27t-60.5 -12q-68 0 -114.5 54.5t-46.5 144.5q0 51 23 94t61 70q36 25 90.5 41t104.5 16q67 0 147 -21q-7 -23 -10 -55
q-2 -22 -2 -164q-2 -188 3 -305q1 -34 6.5 -45.5t20.5 -15.5q8 -2 26 -4.5t22 -3.5q1 -4 0 -15t-3 -13zM240 367q-32 0 -53 -31t-21 -104q0 -90 38 -135t86 -45q21 0 29 5q3 1 3 8q0 230 -5 261q-3 16 -12 22q-26 19 -65 19z" />
    <glyph glyph-name="r" unicode="r" horiz-adv-x="366" 
d="M311 408q41 0 56 -29q1 -2 1 -10t-1 -11q-2 -13 -17 -44t-26 -44q-6 -6 -12 -3q-40 42 -78 42q-20 0 -31 -11q-6 -4 -6 -15q-1 -35 0 -116t2 -92q2 -21 6 -29.5t18 -12.5q17 -5 48 -9q2 -3 0.5 -13.5t-4.5 -13.5q-7 0 -53.5 1.5t-85.5 1.5q-23 0 -62.5 -1.5t-48.5 -1.5
q-2 4 -2 14t2 13q29 5 37 8q15 5 16 36q4 36 2 153q0 68 -2 84q-1 8 -3 13t-12.5 13t-30.5 16q-1 3 0.5 11.5t3.5 10.5q103 10 164 43q6 0 6 -4q-4 -56 -4 -79q0 -5 5 -2q25 29 55 56q27 25 57 25z" />
    <glyph glyph-name="s" unicode="s" horiz-adv-x="370" 
d="M321 397q-8 -36 -12 -116q-4 -2 -14 -2t-12 1q-12 68 -45 87q-20 11 -43 11t-37.5 -13t-14.5 -32q0 -23 17.5 -39.5t78.5 -45.5q58 -28 79.5 -55t21.5 -68q0 -62 -51.5 -99t-124.5 -37q-60 0 -122 20l-9 123q2 2 12 5t14 2q21 -80 64 -105q25 -15 53 -15q26 0 41 12
t15 33q0 20 -14 34.5t-50 32.5q-73 37 -99.5 68.5t-26.5 77.5q0 57 42 94t120 37q29 0 69 -6z" />
    <glyph glyph-name="t" unicode="t" horiz-adv-x="308" 
d="M291 341q-15 0 -46.5 0.5t-48.5 0.5q-4 0 -4 -6q0 -19 -0.5 -81t-0.5 -86q0 -56 4 -74q9 -37 48 -37q33 0 53 12q4 -12 0 -27q-43 -55 -117 -55t-100 47q-14 27 -14 114q0 26 0.5 94.5t0.5 87.5q0 9 -6 11q-6 1 -22.5 2t-22.5 2q0 16 8 35q32 5 39 8q4 4 4 9v84
q26 8 62.5 25.5t48.5 27.5q12 3 19 2q-4 -40 -4 -135q0 -8 5 -8q55 0 103 4q-6 -30 -9 -57z" />
    <glyph glyph-name="u" unicode="u" horiz-adv-x="506" 
d="M11 359q-3 18 4 27q140 6 181 16q-6 -37 -6 -171q0 -104 5 -121q10 -43 62 -43q27 0 47 15q7 7 7 17q4 31 0 220q0 25 -17 30q-18 6 -51 11q-4 16 3 26q118 0 195 15q-2 -30 -2 -108v-197q2 -34 18 -35q13 -1 39 -1q0 -22 -5 -28q-30 -12 -91 -28.5t-78 -16.5q-5 3 -6 8
q-4 13 -4 55q0 2 -2 2.5t-3 -0.5q-73 -63 -131 -63q-56 0 -83.5 33.5t-28.5 90.5q0 177 -1 201q-1 13 -2 19t-5 11t-12 8q-18 4 -33 7z" />
    <glyph glyph-name="v" unicode="v" horiz-adv-x="438" 
d="M-7 370q-1 4 0.5 15t3.5 12q62 -3 118 -3q37 0 106 3q2 -3 2.5 -13.5t-1.5 -13.5q-30 -8 -33 -9q-7 -5 -5 -12q20 -60 79 -206q1 -1 3 1q52 124 68 179q8 29 -11 37q-17 6 -44 11q-2 4 -0.5 14t3.5 12q4 0 37 -1.5t51 -1.5q20 0 86 3q2 -2 1.5 -12.5t-2.5 -14.5
q-21 -3 -32 -8q-23 -7 -42 -46q-51 -111 -96 -225q-12 -31 -34 -94q-39 5 -62 0q-7 23 -31 84q-13 36 -41 105t-33 81q-24 59 -34.5 74.5t-28.5 21.5q-13 5 -28 7z" />
    <glyph glyph-name="w" unicode="w" horiz-adv-x="641" 
d="M-16 370q-6 10 0 27q11 0 52 -1.5t76 -1.5q43 0 109 3q3 -2 4 -12.5t-1 -14.5q-24 -4 -33 -9q-12 -7 -7 -16q21 -91 59 -196q1 -1 4 0q57 136 81 227q8 -2 30.5 -2t29.5 2q8 -29 24 -69q14 -37 38.5 -97t27.5 -67q4 -2 5 0q41 103 59 181q3 10 0 19t-17 16q-16 7 -51 11
q-2 4 -0.5 14.5t4.5 12.5q2 0 37 -1.5t60 -1.5q19 0 88 3q2 -3 2 -13.5t-2 -13.5q-27 -5 -38 -10q-22 -10 -37 -46q-22 -52 -62.5 -161t-55.5 -156q-34 4 -65 -2q-16 46 -47 125t-41 97q-3 3 -4 0q-61 -143 -89 -220q-30 4 -64 -1q-60 203 -92 291q-13 36 -21.5 51.5
t-22.5 22.5q-11 5 -40 9z" />
    <glyph glyph-name="x" unicode="x" horiz-adv-x="421" 
d="M-19 24q39 6 53.5 14t39.5 36q38 42 80 100v1q2 4 0 6q-26 47 -76 129q-22 35 -34 44t-52 15q-2 3 -1.5 14.5t3.5 13.5q2 0 20 -0.5t47 -1.5t57 -1q32 0 70 1.5t40 1.5q2 -3 2.5 -14.5t-1.5 -13.5q-22 -4 -27 -7q-10 -3 -4 -17q21 -44 47 -82q2 -2 4 0q48 65 51 83
q0 10 -9 15q-13 7 -35 8q-3 24 3 28q7 0 36 -1.5t40 -1.5q45 0 87 3q3 -3 3.5 -13.5t-1.5 -14.5q-36 -6 -47.5 -11.5t-27.5 -21.5q-2 -2 -80 -103q-3 -3 0 -7q10 -17 32 -55.5t32 -55.5q38 -61 53 -73.5t56 -17.5q2 -3 0.5 -14t-4.5 -13q-10 0 -53 1.5t-70 1.5
q-41 0 -77.5 -1.5t-37.5 -1.5q-2 4 -2.5 14t0.5 13q31 7 33 14q3 5 -1 12q-12 24 -52 92q-2 4 -5 -1q-56 -80 -57 -91q0 -13 12 -18q8 -2 40 -8q3 -16 -3 -27q-11 0 -43 1.5t-47 1.5q-51 0 -93 -3q-2 4 -2.5 14t1.5 13z" />
    <glyph glyph-name="y" unicode="y" horiz-adv-x="442" 
d="M-9 370q-1 5 1 15t4 12q4 0 21 -0.5t44.5 -1.5t56.5 -1q27 0 111 3q2 -3 2.5 -13t-0.5 -14q-29 -7 -30 -8q-10 -5 -7 -19q20 -61 80 -200h3q21 44 41 104t22 79q4 26 -17 33q-16 7 -47 11q-1 5 0.5 15t3.5 12q9 0 39 -1.5t50 -1.5q18 0 93 3q2 -3 2 -12.5t-1 -14.5
q-28 -5 -40 -12q-21 -11 -39 -59q-83 -222 -225 -477q-7 -12 -20 -34.5t-15 -26.5l-10 -4q-14 2 -34 11t-26 20q-1 3 -1 8.5t2 7.5q107 126 144 199q-2 3 -6 12.5t-7 14.5q-13 30 -47.5 111.5t-51.5 121.5q-23 57 -34.5 74.5t-29.5 24.5q-11 5 -32 8z" />
    <glyph glyph-name="z" unicode="z" horiz-adv-x="404" 
d="M361 396q3 0 3 -16q-15 -36 -80 -158t-98 -178q-1 -1 0 -3t3 -2q29 -6 91 -6q41 0 85 100q7 4 29 4q3 -1 4 -2q-4 -22 -17 -63.5t-22 -59.5q-7 -16 -26 -16q-29 0 -155 2.5t-150 1.5q-4 14 -2 17q13 22 47.5 79t56.5 94.5t47.5 85t39.5 78.5q5 5 -3 5q-57 0 -74 -2
q-36 -2 -51 -17.5t-41 -76.5q-3 -1 -13.5 2t-13.5 6q16 70 24 133q29 -10 81 -10h143q48 0 92 2z" />
    <glyph glyph-name="braceleft" unicode="{" horiz-adv-x="421" 
d="M55 291q52 2 77 22.5t26.5 54.5t-3.5 80q-7 63 -7 91q0 99 57 149.5t157 58.5q1 -1 3 -12t1 -15q-76 -13 -105 -47.5t-29 -94.5q0 -23 6 -81t6 -84q0 -42 -25.5 -79.5t-92.5 -53.5v-4q126 -13 126 -133q0 -31 -6 -89t-6 -81q0 -64 35.5 -92t97.5 -36q2 -2 -0.5 -14
t-4.5 -14q-86 -2 -148.5 38t-63.5 119q0 25 7 99q4 54 5.5 93t-26 64.5t-93.5 34.5q-2 4 0 14.5t6 11.5z" />
    <glyph glyph-name="bar" unicode="|" horiz-adv-x="275" 
d="M101 710h73v-1020h-73v1020z" />
    <glyph glyph-name="braceright" unicode="}" horiz-adv-x="421" 
d="M365 261q-52 -1 -77 -21.5t-26.5 -54.5t3.5 -80q7 -63 7 -82q0 -99 -57 -149.5t-157 -58.5q-3 1 -4.5 12.5t0.5 14.5q77 15 105.5 47.5t28.5 94.5q0 23 -6 76.5t-6 79.5q0 104 120 135v5q-51 5 -81.5 29t-38.5 48.5t-8 52.5q0 31 6 93.5t6 85.5q0 64 -35.5 92t-97.5 36
q-1 4 1 15t4 13q85 2 148 -38.5t64 -118.5q0 -25 -7 -99q-4 -54 -5.5 -95t26.5 -68.5t94 -36.5q1 -4 -1.5 -14.5t-5.5 -13.5z" />
    <glyph glyph-name="asciitilde" unicode="~" horiz-adv-x="507" 
d="M187 292q31 0 91 -28q52 -24 74 -24q53 0 105 60q1 1 6 0t6 -3q0 -22 -7 -41q-16 -28 -55 -54.5t-81 -26.5q-29 0 -93 33q-40 20 -75 20q-23 0 -57 -21.5t-52 -40.5q-2 -2 -4.5 0t-2.5 5q0 8 4 25t6 19q19 26 62.5 51.5t72.5 25.5z" />
    <glyph glyph-name="uni00A0" unicode="&#xa0;" horiz-adv-x="165" 
 />
    <glyph glyph-name="exclamdown" unicode="&#xa1;" horiz-adv-x="276" 
d="M76 -201q-15 0 -28 11q1 20 24 162t39 229q4 2 17.5 0t15.5 -5q1 -6 33 -161.5t35 -185.5q2 -6 -4.5 -19t-14.5 -16q-19 -7 -57.5 -11.5t-59.5 -3.5zM122 262q-28 0 -48 17q-24 23 -24 58q0 29 20 52q20 20 58 20q29 0 48 -19q21 -22 21 -55q0 -27 -24 -53
q-22 -20 -51 -20z" />
    <glyph glyph-name="cent" unicode="&#xa2;" horiz-adv-x="497" 
d="M260 173l29 288q0 5 -5 5q-40 -5 -69 -43.5t-29 -102.5q0 -113 74 -147zM62 289q0 52 29 98.5t78 72.5q51 31 124 38l7 77q20 8 34 6l-9 -81q48 0 81 -13q31 -13 37 -26q2 -9 -2 -18t-15.5 -22.5t-17.5 -16.5q-6 -1 -11 0q-3 3 -12.5 13.5t-16.5 17.5t-18.5 15t-24.5 12
q-3 1 -5 -4l-26 -294q18 -2 28 -2q67 2 114 44q2 -2 4 -12.5t1 -13.5q-55 -72 -150 -92q-4 0 -6 -4l-7 -82q-13 -5 -35 -3l8 84q0 4 -3 4q-94 7 -142 64q-44 49 -44 138z" />
    <glyph glyph-name="sterling" unicode="&#xa3;" horiz-adv-x="497" 
d="M317 -25q-38 0 -106 21q-75 23 -110 23q-37 0 -70 -35q-8 0 -14 9q2 10 12.5 42t13.5 35q19 14 42 26q9 5 14.5 12.5t10.5 47.5t1 110q-50 0 -74 2v2q-2 4 -1 5q4 21 13 30q2 0 22.5 -0.5t38.5 -0.5q-2 132 50 198q39 48 92 70.5t82 22.5q31 0 53 -6.5t30 -13.5t8 -12
q-2 -33 -26 -70q-2 -2 -7.5 -2.5t-7.5 1.5q-56 64 -94 64q-17 0 -26 -19q-17 -30 -17 -228q0 -5 6 -5q72 0 113 3q1 -2 0.5 -7t-2.5 -8q-15 -18 -39 -23q-25 -4 -77 -4q-4 0 -4 -4q-23 -101 -101 -156q34 6 111 -5q71 -11 95 -11q45 0 65.5 14t42.5 68q1 1 3.5 1.5t3.5 -0.5
q12 -12 13 -20q-26 -86 -68 -131.5t-92 -45.5z" />
    <glyph glyph-name="currency" unicode="&#xa4;" horiz-adv-x="497" 
d="M270 462q41 0 82 -24q1 -1 3 -1t3 1q38 43 49 50q8 4 47 4q4 -8 3 -10q-19 -19 -68 -81q27 -43 27 -99q0 -60 -33 -106q-1 -6 0 -10q46 -55 70 -78q0 -10 -5 -13q-49 -12 -62 -4q-10 7 -29 25.5t-28 28.5q-39 -31 -93 -31q-52 0 -93 33q-29 -24 -68 -69q-1 -1 -5.5 0
t-5.5 2q-2 9 -3 25.5t2 23.5q10 14 26 30.5t21 22.5v6q-21 42 -21 88q0 59 30 103q-15 16 -51 58q-2 6 -2 13q0 4 9.5 24t16.5 27q1 1 6 1t7 -1q47 -58 58 -69q3 -3 9 0q40 30 98 30zM243 409q-44 0 -66.5 -31.5t-22.5 -79.5q0 -62 31.5 -94.5t77.5 -32.5q86 0 86 110
q0 53 -29.5 90.5t-76.5 37.5z" />
    <glyph glyph-name="yen" unicode="&#xa5;" horiz-adv-x="497" 
d="M314 172q-4 0 -4 -5q0 -15 0.5 -43t0.5 -36q1 -25 7 -38.5t26 -17.5q21 -4 48 -8q2 -2 0.5 -13.5t-3.5 -13.5q-23 0 -74.5 1.5t-82.5 1.5q-26 0 -66.5 -1.5t-67.5 -1.5q-2 1 -2 13t2 14q33 4 48 7q30 7 30 57q2 36 2 80q0 4 -3 4q-35 -1 -55 -1.5t-26 -0.5q3 29 7 33
q3 0 8.5 -0.5t21 -0.5h44.5q3 0 3 4v51q0 7 -6 7q-23 0 -48 -0.5t-28 -0.5q3 28 7 32l23 -1h46q4 0 2 7q-24 69 -87 193q-15 32 -27 44t-31 17q-21 4 -31 4q-2 4 -0.5 14.5t3.5 12.5q15 0 56 -1.5t69 -1.5q72 0 123 3q2 -2 2.5 -13.5t-1.5 -13.5q-11 -1 -27 -6
q-18 -5 -9 -28q31 -79 76 -176q2 -4 6 0q56 118 72 167q10 29 -18 35q-11 4 -41 8q-1 4 0 14.5t2 12.5q3 0 36 -2t58 -2q24 0 53.5 2t37.5 2q2 -2 2 -13.5t-2 -13.5q-27 -4 -33 -6q-21 -7 -35 -21t-31 -47q-65 -130 -87 -185q-1 -2 0.5 -4t3.5 -2q19 0 37 0.5t27 1t14 0.5
q0 -17 -5 -32q-3 0 -26.5 0.5t-47.5 0.5q-3 0 -3 -4v-54q0 -5 3 -5q22 0 48.5 0.5t29.5 0.5q2 -14 -4 -32q-3 0 -26.5 0.5t-46.5 0.5z" />
    <glyph glyph-name="brokenbar" unicode="&#xa6;" horiz-adv-x="276" 
d="M100 631h75v-348h-75v348zM100 127h75v-355h-75v355z" />
    <glyph glyph-name="section" unicode="&#xa7;" horiz-adv-x="453" 
d="M238 515q-17 0 -17 -25q0 -24 16 -56q14 -30 100 -162q60 -91 60 -163q0 -65 -37 -126q-29 -50 -80 -84.5t-88 -34.5q-72 0 -122 46q-14 14 -14 27q0 5 6.5 23.5t11.5 25.5q1 0 5 2q30 -35 68.5 -53t58.5 -18q15 0 15 21q0 26 -24 60q-17 28 -74 110q-83 125 -83 213
q0 101 69 179q23 27 61.5 48t69.5 21q70 0 111 -41q13 -12 13 -27q0 -20 -17 -43q-1 -1 -4 -1.5t-4 0.5q-17 15 -51.5 36.5t-49.5 21.5zM265 -75q72 36 72 125q0 36 -12.5 73.5t-25 60t-38.5 64.5q-4 6 -18.5 28.5t-21 33t-18 31.5t-17 35.5t-10.5 33t-6 35.5q-3 33 11 70
q-36 -5 -61 -44t-25 -85q0 -87 75 -207q2 -3 28.5 -42t37.5 -57t24 -48.5t13 -51.5q2 -33 -8 -55z" />
    <glyph glyph-name="dieresis" unicode="&#xa8;" horiz-adv-x="400" 
d="M165 535q0 -28 -22 -48q-5 -4 -27 -6t-29 1q-22 15 -27 37q-3 32 4 40t25.5 14t33.5 6q26 0 35 -12q7 -11 7 -32zM336 535q0 -29 -22 -48q-4 -4 -26 -6t-29 1q-21 13 -28 37q-3 31 5 40q7 8 25.5 14t33.5 6q23 0 35 -12q6 -10 6 -32z" />
    <glyph glyph-name="copyright" unicode="&#xa9;" horiz-adv-x="714" 
d="M358 623q131 0 219.5 -91.5t88.5 -223.5t-90 -224.5t-218 -92.5q-129 0 -219 91t-90 226q0 131 90.5 223t218.5 92zM358 594q-113 0 -193 -83.5t-80 -202.5t80.5 -202t194.5 -83q112 0 191 83.5t79 201.5q0 119 -80 202.5t-192 83.5zM388 470q-51 0 -77 -44.5t-26 -114.5
q0 -64 27.5 -112t88.5 -48q46 0 94 69q2 0 8.5 -4.5t7.5 -7.5q-5 -18 -22.5 -45t-24.5 -31q-35 -11 -81 -11q-98 0 -153 49t-55 136q1 80 55.5 134t155.5 54q29 0 69 -5t52 -5q-7 -44 -9 -100q-1 -2 -11 -3t-11 1q-7 54 -31 71q-22 17 -57 17z" />
    <glyph glyph-name="ordfeminine" unicode="&#xaa;" horiz-adv-x="294" 
d="M295 272q1 -3 -1 -14t-5 -13q-11 -14 -36 -22.5t-47 -8.5q-36 0 -43 26q-1 1 -4 12l-3 1q-49 -37 -70 -37q-23 0 -41 16q-25 23 -25 65q0 20 11 35q8 5 59.5 20t65.5 23q5 0 5 7q1 6 1 12q0 22 -9 36q-16 22 -48 22q-22 0 -32 -8q-9 -10 -21 -35q-2 -1 -11.5 4t-9.5 6
q0 3 6 20t8 20q25 18 56 30t47 12q25 0 48 -12t35 -30q18 -29 18 -69q0 -16 -1.5 -48.5t-1.5 -45.5q0 -28 24 -28q10 0 25 4zM161 351q0 3 -3 3q-35 -14 -46 -23q-8 -8 -8 -21q0 -40 38 -40q8 0 12 3q5 5 5 12q2 44 2 66z" />
    <glyph glyph-name="guillemotleft" unicode="&#xab;" horiz-adv-x="635" 
d="M397 188q32 -18 84.5 -61t73.5 -66q2 -3 2.5 -18t-0.5 -19l-4 -4q-25 23 -121.5 81.5t-144.5 75.5q3 14 8 21q69 29 152.5 80t118.5 78l3 -5q0 -28 -5 -33q-18 -19 -72 -59t-95 -65q-3 -3 0 -6zM175 188q32 -18 84.5 -61t73.5 -66q1 -3 2 -18t0 -19l-4 -4
q-25 23 -121.5 81.5t-143.5 75.5q0 9 6 21q71 28 154 79t118 79q3 -3 3 -5q0 -28 -5 -33q-18 -19 -72 -59t-95 -65q-3 -3 0 -6z" />
    <glyph glyph-name="logicalnot" unicode="&#xac;" horiz-adv-x="507" 
d="M80 267q-33 0 -33 6q10 44 16 55q10 -2 177 -2h74.5h56t36.5 0.5t23.5 0.5h9.5q5 0 5 -7q0 -5 -0.5 -73.5t-0.5 -102.5q0 -68 3 -84q-30 -10 -57 -10q-1 0 -3.5 2.5t-2.5 3.5q-1 51 -1 183q0 28 -15 28h-288z" />
    <glyph glyph-name="uni00AD" unicode="&#xad;" horiz-adv-x="289" 
d="M50 237q170 5 204 5v-12q-1 -11 -7.5 -34t-10.5 -24q-6 -2 -94 -4.5t-106 -1.5q-2 0 -2 10q2 16 7.5 38.5t8.5 22.5z" />
    <glyph glyph-name="registered" unicode="&#xae;" horiz-adv-x="288" 
d="M144 600q50 0 85 -35t35 -86q0 -50 -35 -85.5t-85 -35.5t-84.5 34.5t-34.5 86.5q0 50 35 85.5t84 35.5zM144 579q-42 0 -68.5 -29t-26.5 -71q0 -41 27.5 -70.5t67.5 -29.5q42 0 69.5 29t27.5 71q0 41 -28.5 70.5t-68.5 29.5zM83 426q-2 7 0 10q17 2 17 12v70q0 9 -16 11
q-1 1 -0.5 5.5t1.5 4.5h75q36 0 36 -29q0 -17 -24 -28q15 -26 24 -35q8 -10 21 -12q1 -1 0 -5t-2 -5q-29 0 -38 2q-11 4 -15 11l-19 31q-3 8 -7 8v-28q0 -6 3 -8t12 -4q2 -4 0 -11q-3 0 -15 1t-18 1q-5 0 -18.5 -1t-16.5 -1zM136 486q11 0 17 3q9 4 9 16q0 23 -21 23
q-5 0 -5 -6v-36z" />
    <glyph glyph-name="macron" unicode="&#xaf;" horiz-adv-x="400" 
d="M100 550q18 -2 49 -2q27 0 72 -0.5t68.5 -0.5t26.5 1q0 -11 -7 -35t-10 -25q-14 -3 -180 -3q-31 0 -35 2q1 8 7.5 34t8.5 29z" />
    <glyph glyph-name="degree" unicode="&#xb0;" horiz-adv-x="286" 
d="M133 598q51 0 79.5 -33t28.5 -84q0 -48 -33 -80.5t-78 -32.5q-48 0 -80 30.5t-32 80.5q0 57 33 88t82 31zM128 549q-27 0 -45.5 -18.5t-18.5 -44.5q0 -34 20 -51.5t48 -17.5t46.5 15.5t18.5 47.5q0 28 -18.5 48.5t-50.5 20.5z" />
    <glyph glyph-name="plusminus" unicode="&#xb1;" horiz-adv-x="507" 
d="M468 342q-1 -8 -7.5 -27t-10.5 -20q-4 0 -31 -0.5t-68.5 -1t-65.5 -0.5q-6 0 -6 -6q0 -23 -0.5 -62.5t-0.5 -66v-29.5q0 -9 -48 -19q-8 0 -8 4q0 88 -1 179h-178q-3 0 -3 8q4 30 11 52q6 -2 110 -2h60v59q0 75 -2 103q7 3 29 7.5t26 4.5q5 0 5 -33v-134q0 -7 5 -7h181
q3 -3 3 -9zM453 19l-412 -3q-1 0 -1 10q3 27 11 51q6 -2 107 -2h308l1 -9q-6 -46 -14 -47z" />
    <glyph glyph-name="two.k" unicode="&#xb2;" horiz-adv-x="344" 
d="M114 669q-37 0 -76 -40q-2 -1 -9 7t-7 10q29 47 67.5 72t75.5 25q48 0 80.5 -32t32.5 -81q0 -59 -73 -123q-18 -17 -59 -48q0 -4 2 -4q28 -3 106 -1q27 0 52 48q2 1 11 -3t10 -6q-25 -92 -37 -108q-8 -15 -37 -16t-93.5 0.5t-84.5 1.5q-6 0 -23 -0.5t-24 -0.5v23
q75 54 114 98q38 49 38 107q0 30 -17 50.5t-49 20.5z" />
    <glyph glyph-name="three.k" unicode="&#xb3;" horiz-adv-x="331" 
d="M168 742q44 0 71 -24t27 -61q0 -43 -59 -75q-1 -2 0 -3q92 -27 92 -97q0 -61 -69 -102q-51 -30 -109 -30q-37 0 -58 10q-15 7 -22 23q-11 24 -13 56q1 3 8.5 6.5t10.5 2.5q17 -39 50 -56q20 -12 50 -12q55 0 55 64q0 38 -24.5 61.5t-61.5 23.5q-10 0 -20 -1q-1 3 5.5 17
t9.5 16q42 9 57.5 21t15.5 34q0 25 -17.5 43.5t-44.5 18.5q-36 0 -73 -33q-1 0 -4 3t-5 8t-2 7q63 79 130 79z" />
    <glyph glyph-name="acute" unicode="&#xb4;" horiz-adv-x="400" 
d="M217 598q7 3 45.5 5.5t47.5 -0.5q6 -3 3 -12q-6 -12 -57.5 -73.5t-69.5 -80.5q-3 -2 -13 3.5t-11 9.5q29 80 55 148z" />
    <glyph glyph-name="mu" unicode="&#xb5;" horiz-adv-x="476" 
d="M55 373q6 6 49 17.5t60 12.5q13 0 19 -2q0 -12 -2.5 -63t-4 -104t-1.5 -84q0 -19 4 -30q11 -31 41 -31q51 0 69 60q5 13 5 35v192q6 6 46.5 16t58.5 11q14 0 20 -3q-10 -50 -12 -172q0 -10 -0.5 -44.5t-0.5 -39.5q0 -58 27 -58q13 0 39 12q1 -1 2 -11t0 -14
q-21 -41 -54 -63.5t-61 -22.5q-13 0 -22.5 3t-20 13t-16 33t-5.5 59q0 1 -1.5 1t-2.5 -1q-26 -57 -58 -82.5t-55 -25.5q-40 0 -54 27q-3 -51 -2 -92q1 -89 120 -111q1 -3 -1 -13t-4 -11q-11 -13 -47 -30t-59 -17q-52 0 -61 120q-5 88 -7 251q-2 45 -4.5 134.5t-3.5 127.5z
" />
    <glyph glyph-name="paragraph" unicode="&#xb6;" horiz-adv-x="568" 
d="M520 578q-3 -1 -22 -2.5t-28 -3.5q-19 -5 -25.5 -12.5t-12 -49t-4.5 -130.5v-149.5v-149.5q0 -81 -18 -141t-46.5 -91t-56.5 -45.5t-54 -14.5q-24 0 -44 10.5t-28 25.5q-12 26 -12 75q5 9 10 11q53 -45 116 -45q52 0 67.5 53.5t13.5 220.5q-51 -20 -86 -21
q-114 13 -178.5 80t-64.5 169q0 52 20.5 93.5t55.5 67.5t73.5 41t80.5 21q51 7 141.5 11.5t103.5 5.5q3 -4 2 -14.5t-4 -15.5zM266 364q0 -80 25.5 -134t83.5 -62q-5 113 -5 245q0 121 15 148q-59 -5 -89 -50.5t-30 -146.5z" />
    <glyph glyph-name="periodcentered" unicode="&#xb7;" horiz-adv-x="253" 
d="M127 270q31 0 51 -20q25 -22 25 -61q0 -33 -21 -54q-22 -23 -59 -23q-29 0 -51 21q-22 22 -22 58q0 32 24 56q21 23 53 23z" />
    <glyph glyph-name="cedilla" unicode="&#xb8;" horiz-adv-x="399" 
d="M212 4h29l-32 -41q23 -11 42 -27q23 -21 23 -48q0 -40 -39 -67.5t-68 -27.5q-40 0 -55 29q-1 4 0.5 12t3.5 10q34 -16 61 -16q37 0 37 30q0 34 -71 56q0 6 1 9q1 2 29.5 36.5t38.5 44.5z" />
    <glyph glyph-name="one.k" unicode="&#xb9;" horiz-adv-x="314" 
d="M270 392q1 -1 0.5 -11.5t-2.5 -11.5q-19 0 -57 1t-61 1q-24 0 -55.5 -1t-48.5 -1q-2 2 -2 11.5t2 11.5q4 1 15.5 2t18.5 3q14 2 18 10.5t6 30.5q2 50 2 114q1 69 -1 112q-2 21 -17 23q-5 1 -16.5 2.5t-16.5 2.5q-2 2 -1.5 11t2.5 11q86 6 153 31q8 0 8 -2q-3 -26 -3 -103
q0 -175 1 -200q3 -39 22 -43q8 -2 33 -5z" />
    <glyph glyph-name="ordmasculine" unicode="&#xba;" horiz-adv-x="359" 
d="M184 501q70 0 110 -40t40 -100q0 -84 -64 -122q-40 -24 -92 -24q-75 0 -113.5 39t-38.5 106q0 76 61 114q41 27 97 27zM173 474q-21 0 -33 -26t-12 -70q0 -68 16.5 -101.5t43.5 -33.5q44 0 44 98q0 133 -59 133z" />
    <glyph glyph-name="guillemotright" unicode="&#xbb;" horiz-adv-x="635" 
d="M237 187q-31 19 -84 62t-73 66q-2 3 -2.5 17.5t0.5 19.5l4 4q25 -23 122.5 -83t142.5 -75q-4 -18 -7 -21q-68 -29 -153 -80.5t-118 -76.5q-3 3 -3 4q0 29 5 34q18 19 71.5 58.5t94.5 66.5q2 2 0 4zM459 187q-32 19 -84 62t-73 66q-2 3 -2.5 17.5t0.5 19.5l4 4
q25 -23 122 -82.5t143 -75.5q0 -12 -7 -21q-70 -27 -153 -78.5t-118 -78.5l-4 4l6 34q18 19 71.5 58.5t94.5 66.5q2 2 0 4z" />
    <glyph glyph-name="onequarter" unicode="&#xbc;" horiz-adv-x="782" 
d="M724 91q-2 0 -21 0.5t-36 0.5q-3 0 -3 -3l1 -111q-52 0 -103 -8l1 119q0 3 -2 3h-67q-25 0 -50.5 -0.5t-29.5 -0.5q0 23 4 31l178 231q27 8 66 8q0 -140 1 -217q1 -3 3 -3q19 0 42 0.5t25 0.5q-8 -31 -9 -51zM284 244q1 -1 0.5 -11.5t-2.5 -11.5q-19 0 -57 1t-61 1
q-24 0 -55.5 -1t-48.5 -1q-2 2 -2 11.5t2 11.5q4 1 15.5 2t18.5 3q14 2 18 10.5t6 30.5q2 50 2 114q1 69 -1 112q-2 21 -17 23q-5 1 -16.5 2.5t-16.5 2.5q-2 2 -1.5 11t2.5 11q86 6 153 31q8 0 8 -2q-3 -26 -3 -103q0 -174 1 -200q3 -39 22 -43q8 -2 33 -5zM579 629
q1 1 14.5 0t17.5 -2q1 -3 1 -4q-7 -10 -194 -335.5t-201 -347.5q-2 -4 -7 -2q-15 18 -15 23q4 9 192 336.5t192 331.5zM468 140q2 0 30 -0.5t63 -0.5l2 3l2 131h-3q-32 -39 -94 -130v-3z" />
    <glyph glyph-name="onehalf" unicode="&#xbd;" horiz-adv-x="782" 
d="M273 244q1 -1 0.5 -11.5t-2.5 -11.5q-19 0 -57 1t-61 1q-24 0 -55.5 -1t-48.5 -1q-2 2 -2 11.5t2 11.5q4 1 15.5 2t18.5 3q14 2 18 10.5t6 30.5q2 50 2 114q1 69 -1 112q-2 21 -17 23q-5 1 -16.5 2.5t-16.5 2.5q-2 2 -1.5 11t2.5 11q86 6 153 31q8 0 8 -2q-3 -26 -3 -103
q0 -174 1 -200q3 -39 22 -43q8 -2 33 -5zM560 629q1 1 14.5 0t17.5 -2q1 -3 1 -4q-7 -10 -194 -335.5t-201 -347.5q-2 -4 -7 -2q-15 18 -15 23q4 9 192 336.5t192 331.5zM530 285q-37 0 -76 -40q-2 -1 -9 7t-7 10q29 47 67.5 72t75.5 25q48 0 80.5 -32t32.5 -81
q0 -59 -73 -123q-18 -17 -59 -48q0 -4 2 -4q28 -3 106 -1q27 0 52 48q2 1 11 -3t10 -6q-25 -92 -37 -108q-8 -15 -37 -16t-93.5 0.5t-84.5 1.5q-6 0 -23 -0.5t-24 -0.5v23q75 54 114 98q38 49 38 107q0 30 -17 50.5t-49 20.5z" />
    <glyph glyph-name="threequarters" unicode="&#xbe;" horiz-adv-x="782" 
d="M724 91q-2 0 -21 0.5t-36 0.5q-3 0 -3 -3l1 -111q-52 0 -103 -8l1 119q0 3 -2 3h-67q-25 0 -50.5 -0.5t-29.5 -0.5q0 23 4 31l178 231q27 8 66 8q0 -140 1 -217q1 -3 3 -3q19 0 42 0.5t25 0.5q-8 -31 -9 -51zM197 594q44 0 71 -24t27 -61q0 -43 -59 -75q-2 -2 0 -3
q92 -27 92 -97q0 -61 -69 -102q-51 -30 -109 -30q-37 0 -58 10q-15 7 -22 23q-11 24 -13 56q1 3 8.5 6.5t10.5 2.5q17 -39 50 -56q20 -12 50 -12q55 0 55 64q0 38 -24.5 61.5t-61.5 23.5q-10 0 -20 -1q-1 3 5.5 17t9.5 16q42 9 57.5 21t15.5 34q0 25 -17.5 43.5t-44.5 18.5
q-36 0 -73 -33q-1 0 -4 3t-5 8t-2 7q63 79 130 79zM584 629q1 1 14.5 0t17.5 -2q1 -3 1 -4q-7 -10 -194 -335.5t-201 -347.5q-2 -4 -7 -2q-15 18 -15 23q4 9 192 336.5t192 331.5zM468 140q2 0 30 -0.5t63 -0.5l2 3l2 131h-3q-32 -39 -94 -130v-3z" />
    <glyph glyph-name="questiondown" unicode="&#xbf;" horiz-adv-x="338" 
d="M165 93q0 6 -8.5 22t-20.5 30q-6 8 4 16q5 6 31.5 19.5t34.5 15.5q15 4 26 -1q22 -10 34.5 -29t12.5 -36q0 -23 -12 -31q-10 -6 -54.5 -30.5t-54.5 -30.5q-24 -15 -24 -38q0 -58 119 -94q14 -5 25 -8q15 -3 15 -17q0 -12 -15.5 -39.5t-26.5 -35.5q-11 -11 -30 -11
q-63 0 -118 42q-67 50 -67 111q0 41 18 59q7 8 20 17t21 14t28.5 16.5t24.5 14.5q17 11 17 24zM185 261q-28 0 -48 17q-24 23 -24 59q0 28 20 51q21 21 58 21q29 0 48 -20q21 -21 21 -54q0 -28 -24 -54q-22 -20 -51 -20z" />
    <glyph glyph-name="Agrave" unicode="&#xc0;" horiz-adv-x="600" 
d="M-27 24q52 8 70.5 20.5t36.5 55.5q88 214 166 446q13 38 16 58q14 -2 48 -2q35 0 48 2q5 -26 14 -54q137 -394 149 -426q23 -62 39 -77t68 -23q2 -2 0.5 -13.5t-3.5 -13.5q-7 0 -53 1.5t-87 1.5q-38 0 -149 -3q-4 21 0 27q40 8 48 13q14 7 10 20q-13 46 -51 151
q-7 7 -10 7q-13 1 -70 1q-69 0 -82 -1q-8 0 -10 -9q-45 -126 -44 -140q2 -27 28 -33q42 -8 48 -9q1 -2 0 -13.5t-3 -13.5q-14 0 -53 1.5t-68 1.5q-19 0 -54 -1.5t-52 -1.5q-2 3 -2 13.5t2 13.5zM261 463h-4q-13 -35 -37.5 -111.5t-25.5 -79.5q-2 -6 1 -6q11 -1 56 -1h29
h26.5h14.5q3 0 3 5q-45 141 -63 193zM242 782q8 -6 51.5 -58t59.5 -74q1 -2 -7.5 -12t-10.5 -10q-5 0 -77 38.5t-87 49.5v15q5 9 32.5 29.5t38.5 21.5z" />
    <glyph glyph-name="Aacute" unicode="&#xc1;" horiz-adv-x="600" 
d="M-27 24q52 8 70.5 20.5t36.5 55.5q88 214 166 446q13 38 16 58q14 -2 48 -2q35 0 48 2q5 -26 14 -54q137 -394 149 -426q23 -62 39 -77t68 -23q2 -2 0.5 -13.5t-3.5 -13.5q-7 0 -53 1.5t-87 1.5q-38 0 -149 -3q-4 21 0 27q40 8 48 13q14 7 10 20q-13 46 -51 151
q-7 7 -10 7q-13 1 -70 1q-69 0 -82 -1q-8 0 -10 -9q-45 -126 -44 -140q2 -27 28 -33q42 -8 48 -9q1 -2 0 -13.5t-3 -13.5q-14 0 -53 1.5t-68 1.5q-19 0 -54 -1.5t-52 -1.5q-2 3 -2 13.5t2 13.5zM261 463h-4q-13 -35 -37.5 -111.5t-25.5 -79.5q-2 -6 1 -6q11 -1 56 -1h29
h26.5h14.5q3 0 3 5q-45 141 -63 193zM385 775q9 0 35 -19t30 -27q1 -1 1 -5.5t-1 -5.5q-10 -10 -89 -51t-85 -41q-2 0 -9 8.5t-7 12.5q100 114 125 128z" />
    <glyph glyph-name="Acircumflex" unicode="&#xc2;" horiz-adv-x="600" 
d="M-27 24q52 8 70.5 20.5t36.5 55.5q88 214 166 446q13 38 16 58q14 -2 48 -2q35 0 48 2q5 -26 14 -54q137 -394 149 -426q23 -62 39 -77t68 -23q2 -2 0.5 -13.5t-3.5 -13.5q-7 0 -53 1.5t-87 1.5q-38 0 -149 -3q-4 21 0 27q40 8 48 13q14 7 10 20q-13 46 -51 151
q-7 7 -10 7q-13 1 -70 1q-69 0 -82 -1q-8 0 -10 -9q-45 -126 -44 -140q2 -27 28 -33q42 -8 48 -9q1 -2 0 -13.5t-3 -13.5q-14 0 -53 1.5t-68 1.5q-19 0 -54 -1.5t-52 -1.5q-2 3 -2 13.5t2 13.5zM261 463h-4q-13 -35 -37.5 -111.5t-25.5 -79.5q-2 -6 1 -6q11 -1 56 -1h29
h26.5h14.5q3 0 3 5q-45 141 -63 193zM297 750q6 4 17 4q9 -10 62.5 -54.5t73.5 -59.5q0 -3 -5.5 -12t-7.5 -9q-5 0 -60 23t-69 30q-4 2 -9 0q-16 -9 -65.5 -31t-53.5 -22t-9 9t-3 12q112 90 129 110z" />
    <glyph glyph-name="Atilde" unicode="&#xc3;" horiz-adv-x="600" 
d="M-27 24q52 8 70.5 20.5t36.5 55.5q88 214 166 446q13 38 16 58q14 -2 48 -2q35 0 48 2q5 -26 14 -54q137 -394 149 -426q23 -62 39 -77t68 -23q2 -2 0.5 -13.5t-3.5 -13.5q-7 0 -53 1.5t-87 1.5q-38 0 -149 -3q-4 21 0 27q40 8 48 13q14 7 10 20q-13 46 -51 151
q-7 7 -10 7q-13 1 -70 1q-69 0 -82 -1q-8 0 -10 -9q-45 -126 -44 -140q2 -27 28 -33q42 -8 48 -9q1 -2 0 -13.5t-3 -13.5q-14 0 -53 1.5t-68 1.5q-19 0 -54 -1.5t-52 -1.5q-2 3 -2 13.5t2 13.5zM261 463h-4q-13 -35 -37.5 -111.5t-25.5 -79.5q-2 -6 1 -6q11 -1 56 -1h29
h26.5h14.5q3 0 3 5q-45 141 -63 193zM383 703q36 0 72 35q2 2 5 -5q4 -12 3 -18q-12 -22 -46 -46.5t-64 -24.5q-22 0 -71 16q-27 10 -46 10q-28 0 -64 -31q-2 -1 -5 3.5t-4 10.5t0 8q12 18 44.5 43t54.5 25q19 0 66 -14q39 -12 55 -12z" />
    <glyph glyph-name="Adieresis" unicode="&#xc4;" horiz-adv-x="600" 
d="M-27 24q52 8 70.5 20.5t36.5 55.5q88 214 166 446q13 38 16 58q14 -2 48 -2q35 0 48 2q5 -26 14 -54q137 -394 149 -426q23 -62 39 -77t68 -23q2 -2 0.5 -13.5t-3.5 -13.5q-7 0 -53 1.5t-87 1.5q-38 0 -149 -3q-4 21 0 27q40 8 48 13q14 7 10 20q-13 46 -51 151
q-7 7 -10 7q-13 1 -70 1q-69 0 -82 -1q-8 0 -10 -9q-45 -126 -44 -140q2 -27 28 -33q42 -8 48 -9q1 -2 0 -13.5t-3 -13.5q-14 0 -53 1.5t-68 1.5q-19 0 -54 -1.5t-52 -1.5q-2 3 -2 13.5t2 13.5zM261 463h-4q-13 -35 -37.5 -111.5t-25.5 -79.5q-2 -6 1 -6q11 -1 56 -1h29
h26.5h14.5q3 0 3 5q-45 141 -63 193zM275 684q0 -31 -23 -49q-4 -4 -26.5 -6t-28.5 1q-22 12 -29 38q-3 29 4 40q20 20 61 20q27 0 35 -13q7 -14 7 -31zM448 684q0 -30 -22 -49q-5 -4 -27.5 -6t-28.5 1q-21 11 -28 38q-5 27 4 40q18 20 60 20q25 0 35 -13q7 -11 7 -31z" />
    <glyph glyph-name="Aring" unicode="&#xc5;" horiz-adv-x="600" 
d="M-27 24q52 8 70.5 20.5t36.5 55.5q88 214 166 446q13 38 16 58q14 -2 48 -2q35 0 48 2q5 -26 14 -54q137 -394 149 -426q23 -62 39 -77t68 -23q2 -2 0.5 -13.5t-3.5 -13.5q-7 0 -53 1.5t-87 1.5q-38 0 -149 -3q-4 21 0 27q40 8 48 13q14 7 10 20q-13 46 -51 151
q-7 7 -10 7q-13 1 -70 1q-69 0 -82 -1q-8 0 -10 -9q-45 -126 -44 -140q2 -27 28 -33q42 -8 48 -9q1 -2 0 -13.5t-3 -13.5q-14 0 -53 1.5t-68 1.5q-19 0 -54 -1.5t-52 -1.5q-2 3 -2 13.5t2 13.5zM261 463h-4q-13 -35 -37.5 -111.5t-25.5 -79.5q-2 -6 1 -6q11 -1 56 -1h29
h26.5h14.5q3 0 3 5q-45 141 -63 193zM312 767q35 0 55.5 -21t20.5 -52q0 -35 -22.5 -56t-57.5 -21q-28 0 -53.5 18t-25.5 55q0 35 21 56t62 21zM308 729q-22 0 -34.5 -10t-12.5 -27t15 -26.5t36 -9.5q18 0 32 10t14 24q0 39 -50 39z" />
    <glyph glyph-name="AE" unicode="&#xc6;" horiz-adv-x="835" 
d="M234 578q-3 5 -1.5 15t4.5 12q11 0 78 -1.5t114 -1.5h200q96 0 128 7l4 -3q-11 -46 -17 -151q-4 -3 -15.5 -3.5t-15.5 3.5q-5 47 -21 79q-12 22 -37 24q-17 2 -73 2.5t-69 -1.5q-9 -2 -9 -17l16 -221q2 -8 7 -8q93 0 126 2q15 1 24 8t16 29q2 6 5 18.5t4 16.5
q2 3 14.5 2.5t15.5 -3.5q-6 -72 -6 -95q0 -21 1 -54.5t1 -41.5q-4 -3 -15 -4t-15 3q-8 32 -12 44q-8 24 -35 27q-18 2 -119 2q-6 0 -6 -7q14 -169 14 -173q3 -41 23 -44q17 -3 96 -3q35 0 53.5 6t30.5 24q30 36 53 92q5 2 16 -2t13 -8q-2 -21 -16 -70t-24 -71
q-6 -15 -57 -15q-27 0 -102 2t-146 2q-26 0 -87 -1.5t-88 -1.5q-3 4 -3 14t2 13q57 8 68 11q28 10 27 51q-2 85 -9 172q-2 6 -5 6q-13 1 -84 1q-57 0 -70 -1q-8 0 -10 -7q-84 -168 -87 -188q-3 -27 26 -35q24 -6 52 -10q2 -3 1 -13.5t-4 -13.5q-18 0 -60 1.5t-69 1.5
q-19 0 -56.5 -1.5t-49.5 -1.5q-3 3 -3 13.5t3 13.5q50 9 71 21.5t44 53.5q118 209 233 454q2 7 -4 10q-27 6 -84 15zM370 554q-1 1 -7 1q-12 -27 -56 -116.5t-56 -117.5q0 -7 3 -7t19.5 -0.5t32.5 -0.5h75q4 0 4 5q-6 165 -15 236z" />
    <glyph glyph-name="Ccedilla" unicode="&#xc7;" horiz-adv-x="655" 
d="M570 441q-14 90 -63 119q-47 27 -118 27q-84 0 -134 -67.5t-50 -201.5q0 -79 21.5 -142.5t73.5 -106t127 -42.5q67 0 105 34q38 35 72 98q18 -4 23 -15q-9 -33 -33.5 -79t-43.5 -60q-76 -22 -141 -23l-16 -24q26 -14 44 -27q26 -19 26 -51q0 -42 -41 -71.5t-71 -29.5
q-37 0 -57 31q-2 10 4 21q33 -18 63 -18q40 0 40 33q0 38 -76 62q1 5 2 8q30 40 51 66q-160 6 -245 88t-85 238q0 86 41 157.5t119 111.5q83 43 205 43q41 0 115 -8q58 -6 77 -6q-8 -73 -6 -163q-2 -2 -15 -3.5t-14 1.5z" />
    <glyph glyph-name="Egrave" unicode="&#xc8;" horiz-adv-x="560" 
d="M27 578q-2 4 -1.5 14t2.5 13q15 0 67.5 -1.5t78.5 -1.5h193q92 0 125 5q3 0 3 -3q-10 -41 -16 -148q-4 -3 -14.5 -4t-14.5 1q-7 54 -21 79q-11 21 -38 25q-16 2 -71 2.5t-66 -1.5q-3 -1 -6.5 -7t-3.5 -10v-205q0 -8 6 -8q118 0 133 1q28 1 39 40q4 14 7 32q3 2 15 1.5
t15 -2.5q0 -5 -2.5 -40t-2.5 -55q0 -10 3 -97q-3 -2 -15 -2.5t-15 1.5q-6 27 -10 39q-10 29 -36 31q-17 2 -131 2q-6 0 -6 -8v-190q0 -28 21 -33q38 -6 115 -6q40 0 55 5t30 22q27 28 55 96q4 1 15 -2.5t13 -6.5q-3 -21 -17 -72t-25 -73q-8 -16 -54 -16q-43 0 -135.5 2.5
t-139.5 2.5q-27 0 -86 -1.5t-86 -1.5q-1 5 -1 14.5t1 12.5q56 7 70 11q28 9 28 51q3 56 3 249q0 156 -3 192q-2 21 -7 29.5t-20 13.5q-13 4 -49 8zM230 791q8 -6 51.5 -58t59.5 -74q1 -2 -7.5 -12t-10.5 -10q-5 0 -77 38.5t-87 49.5v15q5 9 32.5 29.5t38.5 21.5z" />
    <glyph glyph-name="Eacute" unicode="&#xc9;" horiz-adv-x="560" 
d="M27 578q-2 4 -1.5 14t2.5 13q15 0 67.5 -1.5t78.5 -1.5h193q92 0 125 5q3 0 3 -3q-10 -41 -16 -148q-4 -3 -14.5 -4t-14.5 1q-7 54 -21 79q-11 21 -38 25q-16 2 -71 2.5t-66 -1.5q-3 -1 -6.5 -7t-3.5 -10v-205q0 -8 6 -8q118 0 133 1q28 1 39 40q4 14 7 32q3 2 15 1.5
t15 -2.5q0 -5 -2.5 -40t-2.5 -55q0 -10 3 -97q-3 -2 -15 -2.5t-15 1.5q-6 27 -10 39q-10 29 -36 31q-17 2 -131 2q-6 0 -6 -8v-190q0 -28 21 -33q38 -6 115 -6q40 0 55 5t30 22q27 28 55 96q4 1 15 -2.5t13 -6.5q-3 -21 -17 -72t-25 -73q-8 -16 -54 -16q-43 0 -135.5 2.5
t-139.5 2.5q-27 0 -86 -1.5t-86 -1.5q-1 5 -1 14.5t1 12.5q56 7 70 11q28 9 28 51q3 56 3 249q0 156 -3 192q-2 21 -7 29.5t-20 13.5q-13 4 -49 8zM372 786q9 0 35 -19t30 -27q1 -2 1 -6t-1 -5q-10 -10 -89 -51t-85 -41q-2 0 -9 8.5t-7 12.5q100 114 125 128z" />
    <glyph glyph-name="Ecircumflex" unicode="&#xca;" horiz-adv-x="560" 
d="M27 578q-2 4 -1.5 14t2.5 13q15 0 67.5 -1.5t78.5 -1.5h193q92 0 125 5q3 0 3 -3q-10 -41 -16 -148q-4 -3 -14.5 -4t-14.5 1q-7 54 -21 79q-11 21 -38 25q-16 2 -71 2.5t-66 -1.5q-3 -1 -6.5 -7t-3.5 -10v-205q0 -8 6 -8q118 0 133 1q28 1 39 40q4 14 7 32q3 2 15 1.5
t15 -2.5q0 -5 -2.5 -40t-2.5 -55q0 -10 3 -97q-3 -2 -15 -2.5t-15 1.5q-6 27 -10 39q-10 29 -36 31q-17 2 -131 2q-6 0 -6 -8v-190q0 -28 21 -33q38 -6 115 -6q40 0 55 5t30 22q27 28 55 96q4 1 15 -2.5t13 -6.5q-3 -21 -17 -72t-25 -73q-8 -16 -54 -16q-43 0 -135.5 2.5
t-139.5 2.5q-27 0 -86 -1.5t-86 -1.5q-1 5 -1 14.5t1 12.5q56 7 70 11q28 9 28 51q3 56 3 249q0 156 -3 192q-2 21 -7 29.5t-20 13.5q-13 4 -49 8zM272 771q6 4 17 4q9 -10 62.5 -54.5t73.5 -59.5q0 -3 -5.5 -12t-7.5 -9q-5 0 -60 23t-69 30q-5 2 -9 0q-16 -9 -65.5 -31
t-53.5 -22t-9 9t-3 12q112 90 129 110z" />
    <glyph glyph-name="Edieresis" unicode="&#xcb;" horiz-adv-x="560" 
d="M27 578q-2 4 -1.5 14t2.5 13q15 0 67.5 -1.5t78.5 -1.5h193q92 0 125 5q3 0 3 -3q-10 -41 -16 -148q-4 -3 -14.5 -4t-14.5 1q-7 54 -21 79q-11 21 -38 25q-16 2 -71 2.5t-66 -1.5q-3 -1 -6.5 -7t-3.5 -10v-205q0 -8 6 -8q118 0 133 1q28 1 39 40q4 14 7 32q3 2 15 1.5
t15 -2.5q0 -5 -2.5 -40t-2.5 -55q0 -10 3 -97q-3 -2 -15 -2.5t-15 1.5q-6 27 -10 39q-10 29 -36 31q-17 2 -131 2q-6 0 -6 -8v-190q0 -28 21 -33q38 -6 115 -6q40 0 55 5t30 22q27 28 55 96q4 1 15 -2.5t13 -6.5q-3 -21 -17 -72t-25 -73q-8 -16 -54 -16q-43 0 -135.5 2.5
t-139.5 2.5q-27 0 -86 -1.5t-86 -1.5q-1 5 -1 14.5t1 12.5q56 7 70 11q28 9 28 51q3 56 3 249q0 156 -3 192q-2 21 -7 29.5t-20 13.5q-13 4 -49 8zM252 707q0 -31 -23 -49q-4 -4 -26.5 -6t-28.5 1q-22 12 -29 38q-3 29 4 40q20 20 61 20q27 0 35 -13q7 -14 7 -31zM425 707
q0 -30 -22 -49q-5 -4 -27.5 -6t-28.5 1q-21 11 -28 38q-5 27 4 40q18 20 60 20q25 0 35 -13q7 -11 7 -31z" />
    <glyph glyph-name="Igrave" unicode="&#xcc;" horiz-adv-x="347" 
d="M27 578q-3 3 -2.5 13.5t2.5 13.5q15 0 61 -1.5t84 -1.5q40 0 71.5 1t49.5 1.5t23 0.5q2 -2 2.5 -13t-2.5 -14q-35 -5 -49 -10q-10 -4 -15 -10.5t-6.5 -15t-2.5 -28.5q-1 -29 -1 -198q0 -195 2 -233q1 -9 1 -12t2 -11.5t4.5 -12t8.5 -8t15 -6.5q4 -1 50 -9q2 -3 0.5 -14
t-3.5 -13q-138 3 -143 3q-51 0 -95.5 -1.5t-56.5 -1.5q-3 2 -3.5 13t3.5 14q12 1 44 7q18 5 24.5 15.5t7.5 40.5q2 40 2 235q0 161 -2 206q-2 33 -26 41q-18 5 -50 9zM108 786q8 -6 51.5 -58t59.5 -74q1 -2 -7.5 -12t-10.5 -10q-5 0 -77 38.5t-87 49.5v15q5 9 32.5 29.5
t38.5 21.5z" />
    <glyph glyph-name="Iacute" unicode="&#xcd;" horiz-adv-x="347" 
d="M27 578q-3 3 -2.5 13.5t2.5 13.5q15 0 61 -1.5t84 -1.5q40 0 71.5 1t49.5 1.5t23 0.5q2 -2 2.5 -13t-2.5 -14q-35 -5 -49 -10q-10 -4 -15 -10.5t-6.5 -15t-2.5 -28.5q-1 -29 -1 -198q0 -195 2 -233q1 -9 1 -12t2 -11.5t4.5 -12t8.5 -8t15 -6.5q4 -1 50 -9q2 -3 0.5 -14
t-3.5 -13q-138 3 -143 3q-51 0 -95.5 -1.5t-56.5 -1.5q-3 2 -3.5 13t3.5 14q12 1 44 7q18 5 24.5 15.5t7.5 40.5q2 40 2 235q0 161 -2 206q-2 33 -26 41q-18 5 -50 9zM260 784q9 0 35 -19t30 -27q1 -2 1 -6t-1 -5q-10 -10 -89 -51t-85 -41q-2 0 -9 8.5t-7 12.5
q100 114 125 128z" />
    <glyph glyph-name="Icircumflex" unicode="&#xce;" horiz-adv-x="347" 
d="M27 578q-3 3 -2.5 13.5t2.5 13.5q15 0 61 -1.5t84 -1.5q40 0 71.5 1t49.5 1.5t23 0.5q2 -2 2.5 -13t-2.5 -14q-35 -5 -49 -10q-10 -4 -15 -10.5t-6.5 -15t-2.5 -28.5q-1 -29 -1 -198q0 -195 2 -233q1 -9 1 -12t2 -11.5t4.5 -12t8.5 -8t15 -6.5q4 -1 50 -9q2 -3 0.5 -14
t-3.5 -13q-138 3 -143 3q-51 0 -95.5 -1.5t-56.5 -1.5q-3 2 -3.5 13t3.5 14q12 1 44 7q18 5 24.5 15.5t7.5 40.5q2 40 2 235q0 161 -2 206q-2 33 -26 41q-18 5 -50 9zM161 767q6 4 17 4q9 -10 62.5 -54.5t73.5 -59.5q0 -3 -5.5 -12t-7.5 -9q-5 0 -60 23t-69 30q-4 2 -9 0
q-16 -9 -65.5 -31t-53.5 -22t-9 9t-3 12q112 90 129 110z" />
    <glyph glyph-name="Idieresis" unicode="&#xcf;" horiz-adv-x="347" 
d="M27 578q-3 3 -2.5 13.5t2.5 13.5q15 0 61 -1.5t84 -1.5q40 0 71.5 1t49.5 1.5t23 0.5q2 -2 2.5 -13t-2.5 -14q-35 -5 -49 -10q-10 -4 -15 -10.5t-6.5 -15t-2.5 -28.5q-1 -29 -1 -198q0 -195 2 -233q1 -9 1 -12t2 -11.5t4.5 -12t8.5 -8t15 -6.5q4 -1 50 -9q2 -3 0.5 -14
t-3.5 -13q-138 3 -143 3q-51 0 -95.5 -1.5t-56.5 -1.5q-3 2 -3.5 13t3.5 14q12 1 44 7q18 5 24.5 15.5t7.5 40.5q2 40 2 235q0 161 -2 206q-2 33 -26 41q-18 5 -50 9zM139 707q0 -31 -23 -49q-4 -4 -26.5 -6t-28.5 1q-22 12 -29 38q-3 29 4 40q20 20 61 20q27 0 35 -13
q7 -14 7 -31zM312 707q0 -30 -22 -49q-5 -4 -27.5 -6t-28.5 1q-21 11 -28 38q-5 27 4 40q18 20 60 20q25 0 35 -13q7 -11 7 -31z" />
    <glyph glyph-name="Eth" unicode="&#xd0;" horiz-adv-x="711" 
d="M20 578q-2 3 -1 14t3 13q63 -3 145 -3q35 0 91.5 1.5t96.5 1.5q130 0 207 -61q49 -40 74.5 -101t25.5 -129q0 -147 -93 -232q-98 -89 -277 -89q-34 0 -117 2t-128 2h-33q-2 3 -2 14t2 13q34 3 59 9q24 7 29 45q3 31 3 221q-68 -2 -77 -2q0 27 7 34h70q0 153 -3 196
q-2 18 -6.5 26t-19.5 14q-13 6 -56 11zM246 88q0 -17 14 -31q29 -29 87 -29q65 0 107 56q59 80 59 216q0 73 -26.5 138.5t-75.5 98.5q-48 35 -126 35q-25 0 -35 -5q-5 -4 -7 -15q-1 -20 -1 -222h61.5t54.5 0.5t26 0.5q2 -15 -4 -33q-24 0 -70 0.5t-68 0.5q0 -172 4 -211z
" />
    <glyph glyph-name="Ntilde" unicode="&#xd1;" horiz-adv-x="688" 
d="M12 578q-1 2 -1 13.5t2 13.5q16 0 65.5 -1.5t79.5 -1.5q44 0 66 2q5 -13 35 -53q205 -269 295 -377q1 0 1.5 0.5t1.5 0.5q2 276 -4 337q-3 26 -12.5 38t-32.5 19q-23 5 -58 9q-2 3 -1.5 14t2.5 13q10 0 54 -1.5t76 -1.5q27 0 65 1.5t43 1.5q3 -3 3 -14t-3 -13
q-28 -4 -39 -8q-22 -7 -30.5 -20t-10.5 -42q-8 -123 -8 -377q0 -23 0.5 -71.5t0.5 -64.5q-12 1 -45.5 0.5t-48.5 -1.5q-12 16 -351 469q-1 2 -2.5 1.5t-1.5 -2.5q-6 -223 1 -366q2 -31 12.5 -44.5t32.5 -18.5l56 -9q2 -2 2 -12.5t-3 -14.5q-13 0 -54.5 1.5t-65.5 1.5
q-33 0 -74 -1.5t-51 -1.5q-2 3 -2 14t2 13q36 5 56 11q29 10 34 56q10 83 10 406q0 21 -10.5 41t-27.5 26q-32 12 -59 14zM438 718q36 0 72 35q2 2 5 -5q4 -12 3 -18q-12 -22 -46 -46.5t-64 -24.5q-22 0 -71 16q-27 10 -46 10q-28 0 -64 -31q-2 -1 -5 3.5t-4 10.5t0 8
q12 18 44.5 43t54.5 25q19 0 66 -14q39 -12 55 -12z" />
    <glyph glyph-name="Ograve" unicode="&#xd2;" horiz-adv-x="746" 
d="M371 -18q-151 0 -239 91q-84 88 -84 229q0 131 76 208q94 110 256 110q150 0 233.5 -88t83.5 -222q0 -123 -59 -202q-93 -126 -267 -126zM402 19q48 0 80 34q61 61 61 223q0 82 -22 156t-66 114q-42 38 -99 38q-47 0 -78 -25q-76 -58 -76 -225q0 -79 23.5 -156t72.5 -120
q46 -39 104 -39zM308 804q8 -6 51.5 -58t59.5 -74q1 -2 -7.5 -12t-10.5 -10q-5 0 -77 38.5t-87 49.5v15q5 9 32.5 29.5t38.5 21.5z" />
    <glyph glyph-name="Oacute" unicode="&#xd3;" horiz-adv-x="746" 
d="M371 -18q-151 0 -239 91q-84 88 -84 229q0 131 76 208q94 110 256 110q150 0 233.5 -88t83.5 -222q0 -123 -59 -202q-93 -126 -267 -126zM402 19q48 0 80 34q61 61 61 223q0 82 -22 156t-66 114q-42 38 -99 38q-47 0 -78 -25q-76 -58 -76 -225q0 -79 23.5 -156t72.5 -120
q46 -39 104 -39zM437 801q9 0 35 -19t30 -27q1 -1 1 -5.5t-1 -5.5q-10 -10 -89 -51t-85 -41q-2 0 -9 8.5t-7 12.5q100 114 125 128z" />
    <glyph glyph-name="Ocircumflex" unicode="&#xd4;" horiz-adv-x="746" 
d="M371 -18q-151 0 -239 91q-84 88 -84 229q0 131 76 208q94 110 256 110q150 0 233.5 -88t83.5 -222q0 -123 -59 -202q-93 -126 -267 -126zM402 19q48 0 80 34q61 61 61 223q0 82 -22 156t-66 114q-42 38 -99 38q-47 0 -78 -25q-76 -58 -76 -225q0 -79 23.5 -156t72.5 -120
q46 -39 104 -39zM360 775q6 4 17 4q9 -10 62.5 -54.5t73.5 -59.5q0 -3 -5.5 -12t-7.5 -9q-5 0 -60 23t-69 30q-5 2 -9 0q-16 -9 -65.5 -31t-53.5 -22t-9 9t-3 12q112 90 129 110z" />
    <glyph glyph-name="Otilde" unicode="&#xd5;" horiz-adv-x="746" 
d="M371 -18q-151 0 -239 91q-84 88 -84 229q0 131 76 208q94 110 256 110q150 0 233.5 -88t83.5 -222q0 -123 -59 -202q-93 -126 -267 -126zM402 19q48 0 80 34q61 61 61 223q0 82 -22 156t-66 114q-42 38 -99 38q-47 0 -78 -25q-76 -58 -76 -225q0 -79 23.5 -156t72.5 -120
q46 -39 104 -39zM444 728q36 0 72 35q2 2 5 -5q4 -12 3 -18q-12 -22 -46 -46.5t-64 -24.5q-22 0 -71 16q-27 10 -46 10q-28 0 -64 -31q-2 -1 -5 3.5t-4 10.5t0 8q12 18 44.5 43t54.5 25q19 0 66 -14q39 -12 55 -12z" />
    <glyph glyph-name="Odieresis" unicode="&#xd6;" horiz-adv-x="746" 
d="M371 -18q-151 0 -239 91q-84 88 -84 229q0 131 76 208q94 110 256 110q150 0 233.5 -88t83.5 -222q0 -123 -59 -202q-93 -126 -267 -126zM402 19q48 0 80 34q61 61 61 223q0 82 -22 156t-66 114q-42 38 -99 38q-47 0 -78 -25q-76 -58 -76 -225q0 -79 23.5 -156t72.5 -120
q46 -39 104 -39zM338 717q0 -31 -23 -49q-4 -4 -26.5 -6t-28.5 1q-22 12 -29 38q-3 29 4 40q20 20 61 20q27 0 35 -13q7 -14 7 -31zM511 717q0 -30 -22 -49q-5 -4 -27.5 -6t-28.5 1q-21 11 -28 38q-5 27 4 40q18 20 60 20q25 0 35 -13q7 -11 7 -31z" />
    <glyph glyph-name="multiply" unicode="&#xd7;" horiz-adv-x="507" 
d="M398 422q5 8 62 12q2 -1 3.5 -5t0.5 -7q-52 -67 -173 -200v-7q117 -133 167 -176q0 -11 -3 -12q-8 -3 -39 1t-41 11q-15 12 -126 131q-4 4 -6 1q-109 -120 -126 -135q-16 -9 -67 -13q-7 3 -4 13q13 10 77.5 79.5t83.5 92.5q3 5 0 8q-99 108 -156 178q0 5 14 24.5t18 23.5
q7 4 11 0q5 -9 67 -82t92 -105q37 41 87 98.5t58 68.5z" />
    <glyph glyph-name="Oslash" unicode="&#xd8;" horiz-adv-x="746" 
d="M192 26l-45 -64q-4 -4 -30 9l-1 4l48 68q-53 40 -84.5 108.5t-31.5 150.5q0 131 76 208q94 110 256 110q92 0 166 -38l39 55q4 5 32 -4l1 -4l-45 -64q124 -87 124 -255q0 -123 -59 -202q-93 -126 -267 -126q-104 0 -179 44zM234 140l259 368q-49 76 -136 77
q-48 0 -79 -25q-80 -61 -80 -226q0 -111 36 -194zM509 475l-258 -367q52 -90 151 -90q48 0 82 34q32 33 48 94.5t16 129.5q0 125 -39 199z" />
    <glyph glyph-name="Ugrave" unicode="&#xd9;" horiz-adv-x="686" 
d="M12 578q-2 3 -1.5 13.5t2.5 13.5q10 0 59.5 -1.5t87.5 -1.5q41 0 90.5 1.5t61.5 1.5q3 -3 3 -13t-3 -14q-10 -1 -42 -7q-34 -7 -35 -53q-1 -23 -1 -238q0 -78 9 -123q23 -114 160 -114q138 0 151 157q5 51 5 155t-3 149q-1 32 -10.5 46.5t-33.5 19.5q-36 7 -51 8
q-2 4 -2 13.5t2 13.5q14 0 52 -1.5t63 -1.5q38 0 72.5 1.5t41.5 1.5q2 -3 2.5 -13.5t-2.5 -13.5l-40 -8q-19 -5 -26.5 -19t-9.5 -50q-1 -16 -3.5 -115.5t-4.5 -132.5q-4 -144 -70 -207.5t-187 -63.5q-225 0 -249 180q-4 25 -5.5 68.5t-2 78.5t-0.5 105.5v104.5q0 41 -33 51
q-19 5 -47 8zM309 788q8 -6 51.5 -58t59.5 -74q1 -2 -7.5 -12t-10.5 -10q-5 0 -77 38.5t-87 49.5v15q5 9 32.5 29.5t38.5 21.5z" />
    <glyph glyph-name="Uacute" unicode="&#xda;" horiz-adv-x="686" 
d="M12 578q-2 3 -1.5 13.5t2.5 13.5q10 0 59.5 -1.5t87.5 -1.5q41 0 90.5 1.5t61.5 1.5q3 -3 3 -13t-3 -14q-10 -1 -42 -7q-34 -7 -35 -53q-1 -23 -1 -238q0 -78 9 -123q23 -114 160 -114q138 0 151 157q5 51 5 155t-3 149q-1 32 -10.5 46.5t-33.5 19.5q-36 7 -51 8
q-2 4 -2 13.5t2 13.5q14 0 52 -1.5t63 -1.5q38 0 72.5 1.5t41.5 1.5q2 -3 2.5 -13.5t-2.5 -13.5l-40 -8q-19 -5 -26.5 -19t-9.5 -50q-1 -16 -3.5 -115.5t-4.5 -132.5q-4 -144 -70 -207.5t-187 -63.5q-225 0 -249 180q-4 25 -5.5 68.5t-2 78.5t-0.5 105.5v104.5q0 41 -33 51
q-19 5 -47 8zM460 788q9 0 35 -19t30 -27q1 -2 1 -6t-1 -5q-10 -10 -89 -51t-85 -41q-2 0 -9 8.5t-7 12.5q100 114 125 128z" />
    <glyph glyph-name="Ucircumflex" unicode="&#xdb;" horiz-adv-x="686" 
d="M12 578q-2 3 -1.5 13.5t2.5 13.5q10 0 59.5 -1.5t87.5 -1.5q41 0 90.5 1.5t61.5 1.5q3 -3 3 -13t-3 -14q-10 -1 -42 -7q-34 -7 -35 -53q-1 -23 -1 -238q0 -78 9 -123q23 -114 160 -114q138 0 151 157q5 51 5 155t-3 149q-1 32 -10.5 46.5t-33.5 19.5q-36 7 -51 8
q-2 4 -2 13.5t2 13.5q14 0 52 -1.5t63 -1.5q38 0 72.5 1.5t41.5 1.5q2 -3 2.5 -13.5t-2.5 -13.5l-40 -8q-19 -5 -26.5 -19t-9.5 -50q-1 -16 -3.5 -115.5t-4.5 -132.5q-4 -144 -70 -207.5t-187 -63.5q-225 0 -249 180q-4 25 -5.5 68.5t-2 78.5t-0.5 105.5v104.5q0 41 -33 51
q-19 5 -47 8zM370 772q6 4 17 4q9 -10 62.5 -54.5t73.5 -59.5q0 -3 -5.5 -12t-7.5 -9q-5 0 -60 23t-69 30q-5 2 -9 0q-16 -9 -65.5 -31t-53.5 -22t-9 9t-3 12q112 90 129 110z" />
    <glyph glyph-name="Udieresis" unicode="&#xdc;" horiz-adv-x="686" 
d="M12 578q-2 3 -1.5 13.5t2.5 13.5q10 0 59.5 -1.5t87.5 -1.5q41 0 90.5 1.5t61.5 1.5q3 -3 3 -13t-3 -14q-10 -1 -42 -7q-34 -7 -35 -53q-1 -23 -1 -238q0 -78 9 -123q23 -114 160 -114q138 0 151 157q5 51 5 155t-3 149q-1 32 -10.5 46.5t-33.5 19.5q-36 7 -51 8
q-2 4 -2 13.5t2 13.5q14 0 52 -1.5t63 -1.5q38 0 72.5 1.5t41.5 1.5q2 -3 2.5 -13.5t-2.5 -13.5l-40 -8q-19 -5 -26.5 -19t-9.5 -50q-1 -16 -3.5 -115.5t-4.5 -132.5q-4 -144 -70 -207.5t-187 -63.5q-225 0 -249 180q-4 25 -5.5 68.5t-2 78.5t-0.5 105.5v104.5q0 41 -33 51
q-19 5 -47 8zM349 709q0 -31 -23 -49q-4 -4 -26.5 -6t-28.5 1q-22 12 -29 38q-3 29 4 40q20 20 61 20q27 0 35 -13q7 -14 7 -31zM522 709q0 -30 -22 -49q-5 -4 -27.5 -6t-28.5 1q-21 11 -28 38q-5 27 4 40q18 20 60 20q25 0 35 -13q7 -11 7 -31z" />
    <glyph glyph-name="Yacute" unicode="&#xdd;" horiz-adv-x="561" 
d="M-23 579q-2 4 -1.5 14t2.5 12q15 0 61.5 -1.5t75.5 -1.5q94 0 145 3q3 -2 3 -13t-2 -14q-7 -1 -32 -7q-18 -5 -8 -28q13 -30 55.5 -112t55.5 -105q2 -2 6 0q25 43 59 110.5t45 97.5q5 15 0 23t-21 12q-19 5 -48 9q-3 21 3 27q6 0 46.5 -1.5t66.5 -1.5q25 0 59 1.5t45 1.5
q2 -2 2.5 -13t-2.5 -14q-31 -4 -40 -8q-22 -7 -37 -20t-36 -46q-84 -145 -117 -213q-11 -22 -11 -47q0 -52 2 -154q1 -25 7.5 -39t25.5 -18q7 -2 53 -10q2 -3 1 -13t-3 -13q-16 0 -72.5 1.5t-88.5 1.5q-46 0 -90.5 -1.5t-56.5 -1.5q-3 2 -2.5 13.5t2.5 12.5q47 7 56 10
q29 6 29 57q1 24 1 144q0 25 -12 50q-43 93 -113 212q-27 45 -41 58t-37 19q-23 5 -36 6zM408 785q9 0 35 -19t30 -27q1 -1 1 -5.5t-1 -5.5q-10 -10 -89 -51t-85 -41q-2 0 -9 8.5t-7 12.5q100 114 125 128z" />
    <glyph glyph-name="Thorn" unicode="&#xde;" horiz-adv-x="575" 
d="M25 24q41 5 51 8q16 5 21 17.5t6 34.5q2 76 2 236q0 162 -2 197q-1 17 -3 26t-8.5 17t-19.5 11q-24 6 -43 7q-3 4 -2 14t4 13q2 0 54 -2t86 -1q33 0 81.5 1.5t58.5 1.5q2 -2 2 -12.5t-2 -14.5q-36 -5 -47 -9q-9 -2 -13.5 -8.5t-6 -15t-2.5 -28.5v-39q0 -3 1.5 -4.5
t2.5 -1.5h2q60 2 93 2q92 0 138 -31q61 -43 61 -130q0 -101 -81 -149q-53 -32 -129 -32q-40 0 -55 5q-2 2 -5 17q0 6 2 12q9 -2 27 -2q32 0 52 12q47 27 47 120q0 70 -31.5 106.5t-88.5 36.5q-18 0 -27 -5q-8 -2 -8 -14q-1 -27 -1 -207q0 -73 3 -129q2 -45 30 -50
q13 -4 56 -10q2 -3 1.5 -13.5t-3.5 -13.5q-16 0 -65.5 1.5t-79.5 1.5q-29 0 -88 -1.5t-71 -1.5q-2 4 -2 14.5t2 12.5z" />
    <glyph glyph-name="germandbls" unicode="&#xdf;" horiz-adv-x="526" 
d="M72 342l-51 3q-1 6 2 17t5 13q28 6 45 18q0 149 101 227q65 49 131 49q69 0 110.5 -42t41.5 -102q0 -42 -16 -58q-11 -16 -69 -71q-17 -16 -17 -25q0 -6 15.5 -20.5t39.5 -34.5t34 -30q52 -50 52 -109q0 -109 -124 -174q-29 -15 -59 -15q-34 0 -51 15q-6 21 1 66
q0 2 2.5 5t4.5 2q50 -39 88 -39q43 0 43 52q0 46 -60 101q-12 11 -30.5 27t-32 28t-24.5 24q-4 6 -1 32.5t8 30.5q8 7 21 17.5t18 14.5q37 35 50.5 63.5t13.5 76.5q0 46 -28 87.5t-69 41.5q-42 0 -56.5 -61t-14.5 -205q0 -141 4 -299q1 -28 19 -36q12 -5 30 -8
q2 -3 1.5 -13.5t-2.5 -13.5q-14 0 -58.5 1.5t-65.5 1.5q-22 0 -57.5 -1.5t-51.5 -1.5q-1 4 -1 13.5t1 13.5q24 3 34 7q15 4 19 12t4 26v273z" />
    <glyph glyph-name="agrave" unicode="&#xe0;" horiz-adv-x="428" 
d="M242 253q0 33 -14 53q-22 33 -69 33q-37 0 -52 -13q-7 -7 -32 -57q-2 -1 -9.5 2t-13 7.5t-5.5 6.5q0 5 8.5 30.5t11.5 28.5q37 26 82.5 45t68.5 19q79 0 117 -59q24 -39 24 -103q0 -24 -1 -76.5t-1 -72.5q0 -40 30 -40q16 0 30 4q1 -2 -1.5 -16.5t-3.5 -16.5
q-40 -40 -106 -40q-50 0 -61 31q-1 3 -4 17l-4 1q-32 -24 -62.5 -36.5t-44.5 -12.5q-34 0 -60 24q-38 35 -38 98q0 9 6 29t11 28q14 9 90.5 31.5t93.5 29.5q8 2 8 11q1 9 1 14zM241 195l-3 5q-75 -25 -81 -31q-9 -9 -9 -36q0 -35 19.5 -55t45.5 -20q15 0 20 4q7 7 7 20
q1 31 1 113zM199 598q3 -6 22 -67.5t25 -84.5q-2 -3 -11.5 -8t-12.5 -4q-17 17 -61.5 70.5t-57.5 74.5q-2 7 3 12q9 4 47 6.5t46 0.5z" />
    <glyph glyph-name="aacute" unicode="&#xe1;" horiz-adv-x="428" 
d="M242 253q0 33 -14 53q-22 33 -69 33q-37 0 -52 -13q-7 -7 -32 -57q-2 -1 -9.5 2t-13 7.5t-5.5 6.5q0 5 8.5 30.5t11.5 28.5q37 26 82.5 45t68.5 19q79 0 117 -59q24 -39 24 -103q0 -24 -1 -76.5t-1 -72.5q0 -40 30 -40q16 0 30 4q1 -2 -1.5 -16.5t-3.5 -16.5
q-40 -40 -106 -40q-50 0 -61 31q-1 3 -4 17l-4 1q-32 -24 -62.5 -36.5t-44.5 -12.5q-34 0 -60 24q-38 35 -38 98q0 9 6 29t11 28q14 9 90.5 31.5t93.5 29.5q8 2 8 11q1 9 1 14zM241 195l-3 5q-75 -25 -81 -31q-9 -9 -9 -36q0 -35 19.5 -55t45.5 -20q15 0 20 4q7 7 7 20
q1 31 1 113zM223 600q7 3 45.5 5.5t47.5 -0.5q6 -3 3 -12q-6 -12 -57.5 -73.5t-69.5 -80.5q-3 -2 -13 3.5t-11 9.5q29 81 55 148z" />
    <glyph glyph-name="acircumflex" unicode="&#xe2;" horiz-adv-x="428" 
d="M242 253q0 33 -14 53q-22 33 -69 33q-37 0 -52 -13q-7 -7 -32 -57q-2 -1 -9.5 2t-13 7.5t-5.5 6.5q0 5 8.5 30.5t11.5 28.5q37 26 82.5 45t68.5 19q79 0 117 -59q24 -39 24 -103q0 -24 -1 -76.5t-1 -72.5q0 -40 30 -40q16 0 30 4q1 -2 -1.5 -16.5t-3.5 -16.5
q-40 -40 -106 -40q-50 0 -61 31q-1 3 -4 17l-4 1q-32 -24 -62.5 -36.5t-44.5 -12.5q-34 0 -60 24q-38 35 -38 98q0 9 6 29t11 28q14 9 90.5 31.5t93.5 29.5q8 2 8 11q1 9 1 14zM241 195l-3 5q-75 -25 -81 -31q-9 -9 -9 -36q0 -35 19.5 -55t45.5 -20q15 0 20 4q7 7 7 20
q1 31 1 113zM202 531q-39 -70 -57 -81q-16 -9 -40 -9q-1 0 -2.5 2.5t-0.5 3.5q67 103 92 159q1 3 14.5 7t17.5 4q19 -43 49.5 -93.5t43.5 -66.5q-2 -4 -21.5 -11t-27.5 -7q-7 3 -28.5 35.5t-33.5 56.5q-3 1 -6 0z" />
    <glyph glyph-name="atilde" unicode="&#xe3;" horiz-adv-x="428" 
d="M242 253q0 33 -14 53q-22 33 -69 33q-37 0 -52 -13q-7 -7 -32 -57q-2 -1 -9.5 2t-13 7.5t-5.5 6.5q0 5 8.5 30.5t11.5 28.5q37 26 82.5 45t68.5 19q79 0 117 -59q24 -39 24 -103q0 -24 -1 -76.5t-1 -72.5q0 -40 30 -40q16 0 30 4q1 -2 -1.5 -16.5t-3.5 -16.5
q-40 -40 -106 -40q-50 0 -61 31q-1 3 -4 17l-4 1q-32 -24 -62.5 -36.5t-44.5 -12.5q-34 0 -60 24q-38 35 -38 98q0 9 6 29t11 28q14 9 90.5 31.5t93.5 29.5q8 2 8 11q1 9 1 14zM241 195l-3 5q-75 -25 -81 -31q-9 -9 -9 -36q0 -35 19.5 -55t45.5 -20q15 0 20 4q7 7 7 20
q1 31 1 113zM272 536q37 0 67 31q3 3 5 -3q4 -11 -2 -23q-10 -22 -40 -45t-58 -23q-20 0 -65 15q-25 9 -43 9q-29 0 -61 -30q-3 -1 -6 5q-1 4 1 13.5t4 11.5q9 17 38 39.5t50 22.5q22 0 59 -12q37 -11 51 -11z" />
    <glyph glyph-name="adieresis" unicode="&#xe4;" horiz-adv-x="428" 
d="M242 253q0 33 -14 53q-22 33 -69 33q-37 0 -52 -13q-7 -7 -32 -57q-2 -1 -9.5 2t-13 7.5t-5.5 6.5q0 5 8.5 30.5t11.5 28.5q37 26 82.5 45t68.5 19q79 0 117 -59q24 -39 24 -103q0 -24 -1 -76.5t-1 -72.5q0 -40 30 -40q16 0 30 4q1 -2 -1.5 -16.5t-3.5 -16.5
q-40 -40 -106 -40q-50 0 -61 31q-1 3 -4 17l-4 1q-32 -24 -62.5 -36.5t-44.5 -12.5q-34 0 -60 24q-38 35 -38 98q0 9 6 29t11 28q14 9 90.5 31.5t93.5 29.5q8 2 8 11q1 9 1 14zM241 195l-3 5q-75 -25 -81 -31q-9 -9 -9 -36q0 -35 19.5 -55t45.5 -20q15 0 20 4q7 7 7 20
q1 31 1 113zM178 535q0 -28 -22 -48q-5 -4 -27 -6t-29 1q-22 15 -27 37q-3 32 4 40t25.5 14t33.5 6q26 0 35 -12q7 -11 7 -32zM349 535q0 -29 -22 -48q-4 -4 -26 -6t-29 1q-21 13 -28 37q-3 31 5 40q7 8 25.5 14t33.5 6q23 0 35 -12q6 -10 6 -32z" />
    <glyph glyph-name="aring" unicode="&#xe5;" horiz-adv-x="428" 
d="M242 253q0 33 -14 53q-22 33 -69 33q-37 0 -52 -13q-7 -7 -32 -57q-2 -1 -9.5 2t-13 7.5t-5.5 6.5q0 5 8.5 30.5t11.5 28.5q37 26 82.5 45t68.5 19q79 0 117 -59q24 -39 24 -103q0 -24 -1 -76.5t-1 -72.5q0 -40 30 -40q16 0 30 4q1 -2 -1.5 -16.5t-3.5 -16.5
q-40 -40 -106 -40q-50 0 -61 31q-1 3 -4 17l-4 1q-32 -24 -62.5 -36.5t-44.5 -12.5q-34 0 -60 24q-38 35 -38 98q0 9 6 29t11 28q14 9 90.5 31.5t93.5 29.5q8 2 8 11q1 9 1 14zM241 195l-3 5q-75 -25 -81 -31q-9 -9 -9 -36q0 -35 19.5 -55t45.5 -20q15 0 20 4q7 7 7 20
q1 31 1 113zM213 607q35 0 54 -22.5t19 -55.5q0 -37 -22 -59t-55 -22q-29 0 -52.5 19t-23.5 58q0 37 21.5 59.5t58.5 22.5zM209 566q-20 0 -31.5 -10.5t-11.5 -28.5q0 -17 13.5 -27.5t32.5 -10.5q17 0 29.5 10.5t12.5 25.5q0 41 -45 41z" />
    <glyph glyph-name="ae" unicode="&#xe6;" horiz-adv-x="634" 
d="M137 -12q-37 0 -66 27q-36 34 -36 93q0 33 14 52q11 7 48.5 18.5t82.5 23.5t56 16q6 2 6 11q1 8 1 20q0 33 -13 53q-25 40 -72 40q-30 0 -49 -14q-4 -4 -17.5 -30.5t-14.5 -27.5q-2 -2 -15.5 4.5t-12.5 10.5q0 5 8.5 31t11.5 29q36 27 80.5 45t67.5 18q69 0 106 -48h2
q70 48 126 48q35 0 62.5 -13t42 -33t22 -36t10.5 -30q5 -9 17 -14q0 -16 -6 -20q-44 -14 -234 -53q-5 0 -5 -10q3 -49 39 -90q37 -40 93 -40q61 0 114 44q2 -2 4 -12t1 -14q-31 -44 -81.5 -71.5t-103.5 -27.5q-95 0 -145 66q-2 2 -6 0q-81 -64 -138 -66zM409 370
q-27 0 -42.5 -33t-10.5 -92q0 -6 6 -6q21 3 112 24q5 2 5 9q-3 38 -23 68t-47 30zM242 184q0 5 -4 5q-11 -4 -30 -9t-32 -9t-17 -8q-9 -9 -9 -31q0 -34 19.5 -52t46.5 -18q25 0 46 14q5 4 3 7q-23 49 -23 101z" />
    <glyph glyph-name="ccedilla" unicode="&#xe7;" horiz-adv-x="415" 
d="M396 76q-54 -70 -137 -84l-21 -28q30 -16 44 -28q22 -22 22 -48q0 -40 -39 -67.5t-68 -27.5q-34 0 -54 29q-1 3 1 11.5t4 10.5q31 -17 60 -17q37 0 37 30q0 35 -71 57q-1 6 1 9q32 40 53 65h-6q-93 1 -145 66q-43 52 -43 140q0 50 26 97.5t72 73.5q28 17 70 30t77 13
q49 0 81 -13q26 -7 35 -28q4 -8 0 -18q-6 -15 -21.5 -34.5t-25.5 -23.5q-8 -4 -12 0q-2 2 -11.5 13t-15.5 17.5t-17 16.5t-20.5 16t-21.5 10.5t-24 4.5q-33 0 -52.5 -33t-19.5 -92q0 -70 31 -115q38 -55 109 -55q60 0 102 38q3 -2 5 -5q4 -15 -5 -31z" />
    <glyph glyph-name="egrave" unicode="&#xe8;" horiz-adv-x="434" 
d="M404 113q4 0 4 -5q2 -14 -3 -28q-34 -41 -83 -66.5t-97 -25.5q-84 0 -132 48q-59 56 -59 163q0 58 26 104t68 72q52 33 116 33q50 0 85 -25t49.5 -54.5t19.5 -62.5q1 -7 14 -12q1 -2 -1.5 -11t-4.5 -10q-28 -10 -243 -23q-4 0 -4 -10q2 -49 37 -87t97 -38q64 0 111 38z
M214 375q-25 0 -41 -33.5t-16 -87.5q0 -5 6 -5q19 -1 57.5 0t50.5 4q5 2 5 9q-2 50 -18.5 81.5t-43.5 31.5zM218 604q3 -6 22 -67.5t25 -84.5q-1 -3 -11 -8t-13 -4q-17 17 -61.5 70.5t-57.5 74.5q-2 7 3 12q9 4 47 6.5t46 0.5z" />
    <glyph glyph-name="eacute" unicode="&#xe9;" horiz-adv-x="434" 
d="M404 113q4 0 4 -5q2 -14 -3 -28q-34 -41 -83 -66.5t-97 -25.5q-84 0 -132 48q-59 56 -59 163q0 58 26 104t68 72q52 33 116 33q50 0 85 -25t49.5 -54.5t19.5 -62.5q1 -7 14 -12q1 -2 -1.5 -11t-4.5 -10q-28 -10 -243 -23q-4 0 -4 -10q2 -49 37 -87t97 -38q64 0 111 38z
M214 375q-25 0 -41 -33.5t-16 -87.5q0 -5 6 -5q19 -1 57.5 0t50.5 4q5 2 5 9q-2 50 -18.5 81.5t-43.5 31.5zM244 598q7 3 45.5 5.5t47.5 -0.5q6 -3 3 -12q-6 -12 -57.5 -73.5t-69.5 -80.5q-3 -2 -13 3.5t-11 9.5q29 80 55 148z" />
    <glyph glyph-name="ecircumflex" unicode="&#xea;" horiz-adv-x="434" 
d="M404 113q4 0 4 -5q2 -14 -3 -28q-34 -41 -83 -66.5t-97 -25.5q-84 0 -132 48q-59 56 -59 163q0 58 26 104t68 72q52 33 116 33q50 0 85 -25t49.5 -54.5t19.5 -62.5q1 -7 14 -12q1 -2 -1.5 -11t-4.5 -10q-28 -10 -243 -23q-4 0 -4 -10q2 -49 37 -87t97 -38q64 0 111 38z
M214 375q-25 0 -41 -33.5t-16 -87.5q0 -5 6 -5q19 -1 57.5 0t50.5 4q5 2 5 9q-2 50 -18.5 81.5t-43.5 31.5zM224 531q-39 -70 -57 -81q-16 -9 -40 -9q-1 0 -2.5 2.5t-0.5 3.5q67 103 92 159q1 3 14.5 7t17.5 4q19 -43 49.5 -93.5t43.5 -66.5q-2 -4 -21.5 -11t-27.5 -7
q-7 3 -28.5 35.5t-33.5 56.5q-3 1 -6 0z" />
    <glyph glyph-name="edieresis" unicode="&#xeb;" horiz-adv-x="434" 
d="M404 113q4 0 4 -5q2 -14 -3 -28q-34 -41 -83 -66.5t-97 -25.5q-84 0 -132 48q-59 56 -59 163q0 58 26 104t68 72q52 33 116 33q50 0 85 -25t49.5 -54.5t19.5 -62.5q1 -7 14 -12q1 -2 -1.5 -11t-4.5 -10q-28 -10 -243 -23q-4 0 -4 -10q2 -49 37 -87t97 -38q64 0 111 38z
M214 375q-25 0 -41 -33.5t-16 -87.5q0 -5 6 -5q19 -1 57.5 0t50.5 4q5 2 5 9q-2 50 -18.5 81.5t-43.5 31.5zM196 535q0 -28 -22 -48q-5 -4 -27 -6t-29 1q-22 15 -27 37q-3 32 4 40t25.5 14t33.5 6q26 0 35 -12q7 -11 7 -32zM367 535q0 -29 -22 -48q-4 -4 -26 -6t-29 1
q-21 13 -28 37q-3 31 5 40q7 8 25.5 14t33.5 6q23 0 35 -12q6 -10 6 -32z" />
    <glyph glyph-name="igrave" unicode="&#xec;" horiz-adv-x="265" 
d="M254 24q2 -3 0 -13.5t-5 -13.5q-7 0 -45 1.5t-70 1.5q-31 0 -69 -1.5t-46 -1.5q-2 3 -2.5 14t1.5 13q22 3 35 7q17 6 18 41q1 22 1 137q0 79 -1 94q-2 21 -8 27q-11 11 -35 20q-1 3 -1 13t2 12q21 0 79 11t91 25q0 -14 -0.5 -76.5t-0.5 -93.5q0 -124 1 -168q1 -21 5 -29
t14 -12q10 -3 36 -8zM119 598q3 -6 22 -67.5t25 -84.5q-2 -3 -11.5 -8t-12.5 -4q-17 17 -61.5 70.5t-57.5 74.5q-2 7 3 12q9 4 47 6.5t46 0.5z" />
    <glyph glyph-name="iacute" unicode="&#xed;" horiz-adv-x="265" 
d="M254 24q2 -3 0 -13.5t-5 -13.5q-7 0 -45 1.5t-70 1.5q-31 0 -69 -1.5t-46 -1.5q-2 3 -2.5 14t1.5 13q22 3 35 7q17 6 18 41q1 22 1 137q0 79 -1 94q-2 21 -8 27q-11 11 -35 20q-1 3 -1 13t2 12q21 0 79 11t91 25q0 -14 -0.5 -76.5t-0.5 -93.5q0 -124 1 -168q1 -21 5 -29
t14 -12q10 -3 36 -8zM150 598q7 3 45.5 5.5t47.5 -0.5q6 -3 3 -12q-6 -12 -57.5 -73.5t-69.5 -80.5q-3 -2 -13 3.5t-11 9.5q29 80 55 148z" />
    <glyph glyph-name="icircumflex" unicode="&#xee;" horiz-adv-x="265" 
d="M254 24q2 -3 0 -13.5t-5 -13.5q-7 0 -45 1.5t-70 1.5q-31 0 -69 -1.5t-46 -1.5q-2 3 -2.5 14t1.5 13q22 3 35 7q17 6 18 41q1 22 1 137q0 79 -1 94q-2 21 -8 27q-11 11 -35 20q-1 3 -1 13t2 12q21 0 79 11t91 25q0 -14 -0.5 -76.5t-0.5 -93.5q0 -124 1 -168q1 -21 5 -29
t14 -12q10 -3 36 -8zM125 531q-39 -70 -57 -81q-16 -9 -40 -9q-2 0 -3 2.5t0 3.5q67 103 92 159q1 3 14.5 7t17.5 4q19 -43 49.5 -93.5t43.5 -66.5q-2 -4 -21.5 -11t-27.5 -7q-7 3 -28.5 35.5t-33.5 56.5q-3 1 -6 0z" />
    <glyph glyph-name="idieresis" unicode="&#xef;" horiz-adv-x="265" 
d="M254 24q2 -3 0 -13.5t-5 -13.5q-7 0 -45 1.5t-70 1.5q-31 0 -69 -1.5t-46 -1.5q-2 3 -2.5 14t1.5 13q22 3 35 7q17 6 18 41q1 22 1 137q0 79 -1 94q-2 21 -8 27q-11 11 -35 20q-1 3 -1 13t2 12q21 0 79 11t91 25q0 -14 -0.5 -76.5t-0.5 -93.5q0 -124 1 -168q1 -21 5 -29
t14 -12q10 -3 36 -8zM98 535q0 -28 -22 -48q-5 -4 -27 -6t-29 1q-22 15 -27 37q-3 32 4 40t25.5 14t33.5 6q26 0 35 -12q7 -11 7 -32zM269 535q0 -29 -22 -48q-4 -4 -26 -6t-29 1q-21 13 -28 37q-3 31 5 40q7 8 25.5 14t33.5 6q23 0 35 -12q6 -10 6 -32z" />
    <glyph glyph-name="eth" unicode="&#xf0;" horiz-adv-x="499" 
d="M263 20q33 0 51 46t18 129q0 92 -17 126q-25 52 -75 52q-30 0 -49.5 -37.5t-19.5 -107.5q0 -96 25 -152t67 -56zM434 574l-83 -38q51 -54 80.5 -128t29.5 -154q0 -173 -113 -239q-46 -26 -112 -26q-101 0 -151.5 61t-50.5 144q0 115 87 172q22 16 59 27.5t74 11.5
q28 0 52 -6q-14 54 -46 101l-119 -50q-2 0 -3.5 7.5t-1.5 16t2 9.5l100 45q-68 82 -171 114q-1 4 4 14t7 12q48 -2 117 -30.5t127 -74.5l109 46q4 2 4 -23q1 -11 -1 -12z" />
    <glyph glyph-name="ntilde" unicode="&#xf1;" horiz-adv-x="522" 
d="M20 24q11 1 29 6q20 5 21 40q2 58 2 149q0 78 -2 88q-3 24 -44 39q-3 13 3 23q103 12 166 43q1 0 4 -7q-2 -26 -2 -56q0 -2 1.5 -2.5t3.5 0.5q77 61 127 61q66 0 101 -54q24 -38 24 -116q0 -166 1 -181q0 -11 7 -16q17 -13 46 -17q1 -4 -0.5 -14t-4.5 -13q-2 0 -35 1.5
t-73 1.5q-11 0 -113 -3q-2 3 -2 14t2 13q11 2 26 6q17 5 18 32q2 38 2 113t-5 102q-8 32 -30 46q-18 11 -42 11q-22 0 -45 -14q-8 -3 -8 -14q0 -190 2 -239q1 -20 6 -27.5t17 -10.5q17 -4 27 -5q2 -2 1 -13t-3 -14q-114 3 -117 3q-44 0 -110 -3q-2 4 -2.5 13.5t1.5 13.5z
M327 536q37 0 67 31q3 3 5 -3q4 -11 -2 -23q-10 -22 -40 -45t-58 -23q-20 0 -65 15q-25 9 -43 9q-29 0 -61 -30q-3 -1 -6 5q-1 4 1 13.5t4 11.5q9 17 38 39.5t50 22.5t59 -12q37 -11 51 -11z" />
    <glyph glyph-name="ograve" unicode="&#xf2;" horiz-adv-x="506" 
d="M259 408q99 0 155.5 -58t56.5 -148q0 -123 -91 -179q-56 -35 -130 -35q-105 0 -160.5 60t-55.5 153q0 111 89 168q59 39 136 39zM238 375q-16 0 -29 -10q-37 -29 -37 -136q0 -101 26.5 -155t68.5 -54q20 0 31 11q34 31 34 142q0 91 -24.5 146.5t-69.5 55.5zM239 600
q3 -6 22 -67.5t25 -84.5q-2 -3 -11.5 -8t-12.5 -4q-17 17 -61.5 70.5t-57.5 74.5q-2 7 3 12q9 4 47 6.5t46 0.5z" />
    <glyph glyph-name="oacute" unicode="&#xf3;" horiz-adv-x="506" 
d="M259 408q99 0 155.5 -58t56.5 -148q0 -123 -91 -179q-56 -35 -130 -35q-105 0 -160.5 60t-55.5 153q0 111 89 168q59 39 136 39zM238 375q-16 0 -29 -10q-37 -29 -37 -136q0 -101 26.5 -155t68.5 -54q20 0 31 11q34 31 34 142q0 91 -24.5 146.5t-69.5 55.5zM264 598
q7 3 45.5 5.5t47.5 -0.5q6 -3 3 -12q-6 -12 -57.5 -73.5t-69.5 -80.5q-3 -2 -13 3.5t-11 9.5q29 80 55 148z" />
    <glyph glyph-name="ocircumflex" unicode="&#xf4;" horiz-adv-x="506" 
d="M259 408q99 0 155.5 -58t56.5 -148q0 -123 -91 -179q-56 -35 -130 -35q-105 0 -160.5 60t-55.5 153q0 111 89 168q59 39 136 39zM238 375q-16 0 -29 -10q-37 -29 -37 -136q0 -101 26.5 -155t68.5 -54q20 0 31 11q34 31 34 142q0 91 -24.5 146.5t-69.5 55.5zM242 531
q-39 -70 -57 -81q-16 -9 -40 -9q-1 0 -2.5 2.5t-0.5 3.5q67 103 92 159q1 3 14.5 7t17.5 4q19 -43 49.5 -93.5t43.5 -66.5q-2 -4 -21.5 -11t-27.5 -7q-7 3 -28.5 35.5t-33.5 56.5q-3 1 -6 0z" />
    <glyph glyph-name="otilde" unicode="&#xf5;" horiz-adv-x="506" 
d="M259 408q99 0 155.5 -58t56.5 -148q0 -123 -91 -179q-56 -35 -130 -35q-105 0 -160.5 60t-55.5 153q0 111 89 168q59 39 136 39zM238 375q-16 0 -29 -10q-37 -29 -37 -136q0 -101 26.5 -155t68.5 -54q20 0 31 11q34 31 34 142q0 91 -24.5 146.5t-69.5 55.5zM319 536
q37 0 67 31q3 3 5 -3q4 -11 -2 -23q-10 -22 -40 -45t-58 -23q-20 0 -65 15q-25 9 -43 9q-29 0 -61 -30q-3 -1 -6 5q-1 4 1 13.5t4 11.5q9 17 38 39.5t50 22.5t59 -12q37 -11 51 -11z" />
    <glyph glyph-name="odieresis" unicode="&#xf6;" horiz-adv-x="506" 
d="M259 408q99 0 155.5 -58t56.5 -148q0 -123 -91 -179q-56 -35 -130 -35q-105 0 -160.5 60t-55.5 153q0 111 89 168q59 39 136 39zM238 375q-16 0 -29 -10q-37 -29 -37 -136q0 -101 26.5 -155t68.5 -54q20 0 31 11q34 31 34 142q0 91 -24.5 146.5t-69.5 55.5zM218 535
q0 -28 -22 -48q-5 -4 -27 -6t-29 1q-22 15 -27 37q-3 32 4 40t25.5 14t33.5 6q26 0 35 -12q7 -11 7 -32zM389 535q0 -29 -22 -48q-4 -4 -26 -6t-29 1q-21 13 -28 37q-3 31 5 40q7 8 25.5 14t33.5 6q23 0 35 -12q6 -10 6 -32z" />
    <glyph glyph-name="divide" unicode="&#xf7;" horiz-adv-x="507" 
d="M301 390q0 -31 -25 -56q-3 -3 -23.5 -5.5t-29.5 3.5q-21 16 -21 41q-1 4 2 17.5t5 15.5q22 16 52 16q28 0 33 -8q7 -12 7 -24zM452 204l-412 -3q-2 1 -2 9q2 27 13 52q6 -2 107 -2h308q3 -1 3 -9q0 -6 -6.5 -26t-10.5 -21zM301 107q0 -33 -18 -51q-3 -4 -24.5 -7t-31.5 2
q-25 19 -25 43q-1 3 2 16.5t5 15.5q18 16 52 16q27 0 33 -8q7 -12 7 -27z" />
    <glyph glyph-name="oslash" unicode="&#xf8;" horiz-adv-x="506" 
d="M259 408q50 0 96 -18l28 45q1 1 11.5 -7.5t11.5 -10.5l-25 -40q90 -56 90 -175q0 -123 -91 -179q-56 -35 -130 -35q-64 0 -110 23l-30 -44q-2 0 -12 7.5t-11 9.5l28 42q-81 57 -81 175q0 111 89 168q59 39 136 39zM267 19q71 0 71 154q0 65 -14 119l-135 -206
q26 -67 78 -67zM241 375q-38 0 -56.5 -40.5t-18.5 -105.5q0 -61 11 -108l133 205q-24 49 -69 49z" />
    <glyph glyph-name="ugrave" unicode="&#xf9;" horiz-adv-x="506" 
d="M11 359q-3 18 4 27q140 6 181 16q-6 -37 -6 -171q0 -104 5 -121q10 -43 62 -43q27 0 47 15q7 7 7 17q4 31 0 220q0 25 -17 30q-18 6 -51 11q-4 16 3 26q118 0 195 15q-2 -30 -2 -108v-197q2 -34 18 -35q13 -1 39 -1q0 -22 -5 -28q-30 -12 -91 -28.5t-78 -16.5q-5 3 -6 8
q-4 13 -4 55q0 2 -2 2.5t-3 -0.5q-73 -63 -131 -63q-56 0 -83.5 33.5t-28.5 90.5q0 177 -1 201q-1 13 -2 19t-5 11t-12 8q-18 4 -33 7zM240 598q3 -6 22 -67.5t25 -84.5q-1 -3 -11 -8t-13 -4q-17 17 -61.5 70.5t-57.5 74.5q-2 7 3 12q9 4 47 6.5t46 0.5z" />
    <glyph glyph-name="uacute" unicode="&#xfa;" horiz-adv-x="506" 
d="M11 359q-3 18 4 27q140 6 181 16q-6 -37 -6 -171q0 -104 5 -121q10 -43 62 -43q27 0 47 15q7 7 7 17q4 31 0 220q0 25 -17 30q-18 6 -51 11q-4 16 3 26q118 0 195 15q-2 -30 -2 -108v-197q2 -34 18 -35q13 -1 39 -1q0 -22 -5 -28q-30 -12 -91 -28.5t-78 -16.5q-5 3 -6 8
q-4 13 -4 55q0 2 -2 2.5t-3 -0.5q-73 -63 -131 -63q-56 0 -83.5 33.5t-28.5 90.5q0 177 -1 201q-1 13 -2 19t-5 11t-12 8q-18 4 -33 7zM271 598q7 3 45.5 5.5t47.5 -0.5q6 -3 3 -12q-6 -12 -57.5 -73.5t-69.5 -80.5q-3 -2 -13 3.5t-11 9.5q29 80 55 148z" />
    <glyph glyph-name="ucircumflex" unicode="&#xfb;" horiz-adv-x="506" 
d="M11 359q-3 18 4 27q140 6 181 16q-6 -37 -6 -171q0 -104 5 -121q10 -43 62 -43q27 0 47 15q7 7 7 17q4 31 0 220q0 25 -17 30q-18 6 -51 11q-4 16 3 26q118 0 195 15q-2 -30 -2 -108v-197q2 -34 18 -35q13 -1 39 -1q0 -22 -5 -28q-30 -12 -91 -28.5t-78 -16.5q-5 3 -6 8
q-4 13 -4 55q0 2 -2 2.5t-3 -0.5q-73 -63 -131 -63q-56 0 -83.5 33.5t-28.5 90.5q0 177 -1 201q-1 13 -2 19t-5 11t-12 8q-18 4 -33 7zM240 531q-39 -70 -57 -81q-16 -9 -40 -9q-1 0 -2.5 2.5t-0.5 3.5q67 103 92 159q1 3 14.5 7t17.5 4q19 -43 49.5 -93.5t43.5 -66.5
q-2 -4 -21.5 -11t-27.5 -7q-7 3 -28.5 35.5t-33.5 56.5q-3 1 -6 0z" />
    <glyph glyph-name="udieresis" unicode="&#xfc;" horiz-adv-x="506" 
d="M11 359q-3 18 4 27q140 6 181 16q-6 -37 -6 -171q0 -104 5 -121q10 -43 62 -43q27 0 47 15q7 7 7 17q4 31 0 220q0 25 -17 30q-18 6 -51 11q-4 16 3 26q118 0 195 15q-2 -30 -2 -108v-197q2 -34 18 -35q13 -1 39 -1q0 -22 -5 -28q-30 -12 -91 -28.5t-78 -16.5q-5 3 -6 8
q-4 13 -4 55q0 2 -2 2.5t-3 -0.5q-73 -63 -131 -63q-56 0 -83.5 33.5t-28.5 90.5q0 177 -1 201q-1 13 -2 19t-5 11t-12 8q-18 4 -33 7zM217 535q0 -28 -22 -48q-5 -4 -27 -6t-29 1q-22 15 -27 37q-3 32 4 40t25.5 14t33.5 6q26 0 35 -12q7 -11 7 -32zM388 535q0 -29 -22 -48
q-4 -4 -26 -6t-29 1q-21 13 -28 37q-3 31 5 40q7 8 25.5 14t33.5 6q23 0 35 -12q6 -10 6 -32z" />
    <glyph glyph-name="yacute" unicode="&#xfd;" horiz-adv-x="442" 
d="M-9 370q-1 5 1 15t4 12q4 0 21 -0.5t44.5 -1.5t56.5 -1q27 0 111 3q2 -3 2.5 -13t-0.5 -14q-29 -7 -30 -8q-10 -5 -7 -19q20 -61 80 -200h3q21 44 41 104t22 79q4 26 -17 33q-16 7 -47 11q-1 5 0.5 15t3.5 12q9 0 39 -1.5t50 -1.5q18 0 93 3q2 -3 2 -12.5t-1 -14.5
q-28 -5 -40 -12q-21 -11 -39 -59q-83 -222 -225 -477q-7 -12 -20 -34.5t-15 -26.5l-10 -4q-14 2 -34 11t-26 20q-1 3 -1 8.5t2 7.5q107 126 144 199q-2 3 -6 12.5t-7 14.5q-13 30 -47.5 111.5t-51.5 121.5q-23 57 -34.5 74.5t-29.5 24.5q-11 5 -32 8zM275 598q7 3 45.5 5.5
t47.5 -0.5q6 -3 3 -12q-6 -12 -57.5 -73.5t-69.5 -80.5q-3 -2 -13 3.5t-11 9.5q29 80 55 148z" />
    <glyph glyph-name="thorn" unicode="&#xfe;" horiz-adv-x="506" 
d="M-3 -218q21 4 43 11q19 8 22 48q2 41 2 428q-2 283 -5 304t-23 27q-5 2 -36 6q-2 9 2 26q42 2 102.5 13t91.5 24q5 -5 5 -14q-12 -18 -12 -129v-157q1 -4 5 -2q88 41 124 41q66 0 109 -48q44 -49 44 -130q0 -114 -86 -179q-27 -21 -79.5 -40.5t-90.5 -22.5
q-2 0 -12.5 -0.5t-13.5 -0.5q0 -86 2 -148q2 -30 27 -37q5 -1 54 -9q1 -3 -0.5 -14t-3.5 -14h-22q-128 1 -248 -12q-2 3 -2 14.5t1 14.5zM228 344q-17 0 -32 -5q-6 -2 -6 -14q-4 -176 2 -228q3 -29 17 -40q23 -23 60 -23q27 0 47 26q28 35 28 113q0 85 -33 128
q-31 43 -83 43z" />
    <glyph glyph-name="ydieresis" unicode="&#xff;" horiz-adv-x="442" 
d="M-9 370q-1 5 1 15t4 12q4 0 21 -0.5t44.5 -1.5t56.5 -1q27 0 111 3q2 -3 2.5 -13t-0.5 -14q-29 -7 -30 -8q-10 -5 -7 -19q20 -61 80 -200h3q21 44 41 104t22 79q4 26 -17 33q-16 7 -47 11q-1 5 0.5 15t3.5 12q9 0 39 -1.5t50 -1.5q18 0 93 3q2 -3 2 -12.5t-1 -14.5
q-28 -5 -40 -12q-21 -11 -39 -59q-83 -222 -225 -477q-7 -12 -20 -34.5t-15 -26.5l-10 -4q-14 2 -34 11t-26 20q-1 3 -1 8.5t2 7.5q107 126 144 199q-2 3 -6 12.5t-7 14.5q-13 30 -47.5 111.5t-51.5 121.5q-23 57 -34.5 74.5t-29.5 24.5q-11 5 -32 8zM210 535q0 -28 -22 -48
q-5 -4 -27 -6t-29 1q-22 15 -27 37q-3 32 4 40t25.5 14t33.5 6q26 0 35 -12q7 -11 7 -32zM381 535q0 -29 -22 -48q-4 -4 -26 -6t-29 1q-21 13 -28 37q-3 31 5 40q7 8 25.5 14t33.5 6q23 0 35 -12q6 -10 6 -32z" />
    <glyph glyph-name="uni0100" unicode="&#x100;" horiz-adv-x="600" 
d="M-27 24q52 8 70.5 20.5t36.5 55.5q88 214 166 446q13 38 16 58q14 -2 48 -2q35 0 48 2q5 -26 14 -54q137 -394 149 -426q23 -62 39 -77t68 -23q2 -2 0.5 -13.5t-3.5 -13.5q-7 0 -53 1.5t-87 1.5q-38 0 -149 -3q-4 21 0 27q40 8 48 13q14 7 10 20q-13 46 -51 151
q-7 7 -10 7q-13 1 -70 1q-69 0 -82 -1q-8 0 -10 -9q-45 -126 -44 -140q2 -27 28 -33q42 -8 48 -9q1 -2 0 -13.5t-3 -13.5q-14 0 -53 1.5t-68 1.5q-19 0 -54 -1.5t-52 -1.5q-2 3 -2 13.5t2 13.5zM201 717q20 -2 58 -2h179q0 -11 -8.5 -33.5t-11.5 -23.5q-21 -4 -197 -4l-39 2
q1 8 9 33t10 28zM261 463h-4q-13 -35 -37.5 -111.5t-25.5 -79.5q-2 -6 1 -6q11 -1 56 -1h29h26.5h14.5q3 0 3 5q-45 141 -63 193z" />
    <glyph glyph-name="uni0101" unicode="&#x101;" horiz-adv-x="428" 
d="M242 253q0 33 -14 53q-22 33 -69 33q-37 0 -52 -13q-7 -7 -32 -57q-2 -1 -9.5 2t-13 7.5t-5.5 6.5q0 5 8.5 30.5t11.5 28.5q37 26 82.5 45t68.5 19q79 0 117 -59q24 -39 24 -103q0 -24 -1 -76.5t-1 -72.5q0 -40 30 -40q16 0 30 4q1 -2 -1.5 -16.5t-3.5 -16.5
q-40 -40 -106 -40q-50 0 -61 31q-1 3 -4 17l-4 1q-32 -24 -62.5 -36.5t-44.5 -12.5q-34 0 -60 24q-38 35 -38 98q0 9 6 29t11 28q14 9 90.5 31.5t93.5 29.5q8 2 8 11q1 9 1 14zM241 195l-3 5q-75 -25 -81 -31q-9 -9 -9 -36q0 -35 19.5 -55t45.5 -20q15 0 20 4q7 7 7 20
q1 31 1 113zM113 550q18 -2 49 -2q27 0 72 -0.5t68.5 -0.5t26.5 1q0 -11 -7 -35t-10 -25q-14 -3 -180 -3q-31 0 -35 2q1 8 7.5 34t8.5 29z" />
    <glyph glyph-name="uni0102" unicode="&#x102;" horiz-adv-x="600" 
d="M-27 24q52 8 70.5 20.5t36.5 55.5q88 214 166 446q13 38 16 58q14 -2 48 -2q35 0 48 2q5 -26 14 -54q137 -394 149 -426q23 -62 39 -77t68 -23q2 -2 0.5 -13.5t-3.5 -13.5q-7 0 -53 1.5t-87 1.5q-38 0 -149 -3q-4 21 0 27q40 8 48 13q14 7 10 20q-13 46 -51 151
q-7 7 -10 7q-13 1 -70 1q-69 0 -82 -1q-8 0 -10 -9q-45 -126 -44 -140q2 -27 28 -33q42 -8 48 -9q1 -2 0 -13.5t-3 -13.5q-14 0 -53 1.5t-68 1.5q-19 0 -54 -1.5t-52 -1.5q-2 3 -2 13.5t2 13.5zM261 463h-4q-13 -35 -37.5 -111.5t-25.5 -79.5q-2 -6 1 -6q11 -1 56 -1h29
h26.5h14.5q3 0 3 5q-45 141 -63 193zM326 692q52 0 89 46q2 2 11.5 7.5t12.5 5.5q2 0 4.5 -1.5t1.5 -2.5q-15 -47 -55.5 -79t-92.5 -32q-49 0 -79 22t-30 54q0 7 10.5 20t19.5 19q2 1 6 0.5t5 -2.5q12 -29 33.5 -43t63.5 -14z" />
    <glyph glyph-name="uni0103" unicode="&#x103;" horiz-adv-x="428" 
d="M242 253q0 33 -14 53q-22 33 -69 33q-37 0 -52 -13q-7 -7 -32 -57q-2 -1 -9.5 2t-13 7.5t-5.5 6.5q0 5 8.5 30.5t11.5 28.5q37 26 82.5 45t68.5 19q79 0 117 -59q24 -39 24 -103q0 -24 -1 -76.5t-1 -72.5q0 -40 30 -40q16 0 30 4q1 -2 -1.5 -16.5t-3.5 -16.5
q-40 -40 -106 -40q-50 0 -61 31q-1 3 -4 17l-4 1q-32 -24 -62.5 -36.5t-44.5 -12.5q-34 0 -60 24q-38 35 -38 98q0 9 6 29t11 28q14 9 90.5 31.5t93.5 29.5q8 2 8 11q1 9 1 14zM241 195l-3 5q-75 -25 -81 -31q-9 -9 -9 -36q0 -35 19.5 -55t45.5 -20q15 0 20 4q7 7 7 20
q1 31 1 113zM229 518q52 0 85 52q2 3 10.5 9t11.5 6q6 0 6 -5q-11 -52 -48 -86.5t-91 -34.5q-44 0 -73.5 22.5t-29.5 59.5q0 8 13 22.5t25 21.5q2 1 6 0.5t4 -1.5q14 -66 81 -66z" />
    <glyph glyph-name="uni0104" unicode="&#x104;" horiz-adv-x="600" 
d="M439 -226q-31 0 -54 18t-23 58q0 66 111 150q-32 0 -137 -3q-4 21 0 27q36 6 48 13q14 7 10 20q-13 46 -51 151q-7 7 -10 7q-13 1 -70 1q-69 0 -82 -1q-8 0 -10 -9q-45 -126 -44 -140q2 -27 28 -33q41 -8 48 -9q1 -2 0 -13t-3 -14q-14 0 -53 1.5t-68 1.5q-19 0 -54 -1.5
t-52 -1.5q-2 3 -2 13.5t2 13.5q52 8 70.5 20.5t36.5 55.5q88 214 166 446q13 38 16 58q14 -2 48 -2q35 0 48 2q5 -26 14 -54q137 -394 149 -426q23 -62 39 -77t68 -23q2 -2 0.5 -13.5t-3.5 -13.5q-7 0 -45.5 1.5t-70.5 1.5q-61 -65 -61 -116q0 -20 12.5 -31.5t31.5 -11.5
q22 0 50 15q2 -5 1 -15.5t-3 -13.5q-18 -27 -47.5 -40t-53.5 -13zM261 463h-4q-13 -35 -36 -106t-27 -84q-2 -7 1 -7q11 -1 56 -1h29h26.5h14.5q3 0 3 5q-45 141 -63 193z" />
    <glyph glyph-name="uni0105" unicode="&#x105;" horiz-adv-x="428" 
d="M242 253q0 33 -14 53q-22 33 -69 33q-37 0 -52 -13q-7 -7 -32 -57q-2 -1 -9.5 2t-13 7.5t-5.5 6.5q0 5 8.5 30.5t11.5 28.5q37 26 82.5 45t68.5 19q79 0 117 -59q24 -39 24 -103q0 -24 -1 -76.5t-1 -72.5q0 -40 30 -40q16 0 30 4q1 -2 -1.5 -16.5t-3.5 -16.5
q-20 -20 -50 -30q-34 -27 -50.5 -56.5t-16.5 -51.5q0 -19 12 -30t30 -11q23 0 48 14q2 -5 1 -14.5t-3 -12.5q-18 -26 -46 -38.5t-51 -12.5q-29 0 -51 17t-22 55q0 31 30 67t70 65q-57 -4 -68 30q-1 3 -4 17l-4 1q-32 -24 -62.5 -36.5t-44.5 -12.5q-34 0 -60 24
q-38 35 -38 98q0 9 6 29t11 28q14 9 90.5 31.5t93.5 29.5q8 2 8 11q1 9 1 14zM241 195l-3 5q-75 -25 -81 -31q-9 -9 -9 -36q0 -35 19.5 -55t45.5 -20q15 0 20 4q7 7 7 20q1 31 1 113z" />
    <glyph glyph-name="uni0106" unicode="&#x106;" horiz-adv-x="655" 
d="M565 440q-7 49 -18 76.5t-39 43.5q-46 27 -120 27q-83 0 -133 -67.5t-50 -201.5q0 -79 21.5 -142.5t73.5 -106t127 -42.5q67 0 105 34q38 35 72 98q18 -4 23 -15q-9 -33 -33.5 -79t-43.5 -60q-74 -23 -150 -23q-169 0 -260.5 83t-91.5 243q0 86 41 157.5t119 111.5
q83 43 205 43q39 0 110.5 -7.5t87.5 -8.5q-15 -74 -17 -162q-3 -4 -15.5 -5t-13.5 3zM465 802q9 0 35 -19t30 -27q1 -2 1 -6t-1 -5q-10 -10 -89 -51t-85 -41q-2 0 -9 8.5t-7 12.5q100 114 125 128z" />
    <glyph glyph-name="uni0107" unicode="&#x107;" horiz-adv-x="415" 
d="M396 76q-68 -88 -173 -88q-93 0 -146 66q-43 52 -43 140q0 50 26 97.5t72 73.5q28 17 70 30t77 13q49 0 81 -13q26 -7 35 -28q4 -8 0 -18q-6 -15 -21.5 -34.5t-25.5 -23.5q-8 -4 -12 0q-2 2 -11.5 13t-15.5 17.5t-17 16.5t-20.5 16t-21.5 10.5t-24 4.5q-33 0 -52.5 -33
t-19.5 -92q0 -70 31 -115q38 -55 109 -55q60 0 102 38q3 -2 5 -5q4 -15 -5 -31zM261 598q7 3 45.5 5.5t47.5 -0.5q6 -3 3 -12q-6 -12 -57.5 -73.5t-69.5 -80.5q-3 -2 -13 3.5t-11 9.5q29 80 55 148z" />
    <glyph glyph-name="uni0108" unicode="&#x108;" horiz-adv-x="655" 
d="M565 440q-7 49 -18 76.5t-39 43.5q-46 27 -120 27q-83 0 -133 -67.5t-50 -201.5q0 -79 21.5 -142.5t73.5 -106t127 -42.5q67 0 105 34q38 35 72 98q18 -4 23 -15q-9 -33 -33.5 -79t-43.5 -60q-74 -23 -150 -23q-169 0 -260.5 83t-91.5 243q0 86 41 157.5t119 111.5
q83 43 205 43q39 0 110.5 -7.5t87.5 -8.5q-15 -74 -17 -162q-3 -4 -15.5 -5t-13.5 3zM377 781q6 4 17 4q9 -10 62.5 -54.5t73.5 -59.5q0 -3 -5.5 -12t-7.5 -9q-5 0 -60 23t-69 30q-4 2 -9 0q-16 -9 -65.5 -31t-53.5 -22t-9 9t-3 12q112 90 129 110z" />
    <glyph glyph-name="uni0109" unicode="&#x109;" horiz-adv-x="415" 
d="M396 76q-68 -88 -173 -88q-93 0 -146 66q-43 52 -43 140q0 50 26 97.5t72 73.5q28 17 70 30t77 13q49 0 81 -13q26 -7 35 -28q4 -8 0 -18q-6 -15 -21.5 -34.5t-25.5 -23.5q-8 -4 -12 0q-2 2 -11.5 13t-15.5 17.5t-17 16.5t-20.5 16t-21.5 10.5t-24 4.5q-33 0 -52.5 -33
t-19.5 -92q0 -70 31 -115q38 -55 109 -55q60 0 102 38q3 -2 5 -5q4 -15 -5 -31zM236 531q-39 -70 -57 -81q-16 -9 -40 -9q-1 0 -2.5 2.5t-0.5 3.5q67 103 92 159q1 3 14.5 7t17.5 4q19 -43 49.5 -93.5t43.5 -66.5q-2 -4 -21.5 -11t-27.5 -7q-7 3 -28.5 35.5t-33.5 56.5
q-3 1 -6 0z" />
    <glyph glyph-name="uni010A" unicode="&#x10a;" horiz-adv-x="655" 
d="M565 440q-7 49 -18 76.5t-39 43.5q-46 27 -120 27q-83 0 -133 -67.5t-50 -201.5q0 -79 21.5 -142.5t73.5 -106t127 -42.5q67 0 105 34q38 35 72 98q18 -4 23 -15q-9 -33 -33.5 -79t-43.5 -60q-74 -23 -150 -23q-169 0 -260.5 83t-91.5 243q0 86 41 157.5t119 111.5
q83 43 205 43q39 0 110.5 -7.5t87.5 -8.5q-15 -74 -17 -162q-3 -4 -15.5 -5t-13.5 3zM455 723q0 -32 -25 -52q-7 -5 -32.5 -7.5t-31.5 1.5q-26 14 -33 42q-6 31 6 45q20 20 67 20q24 0 41 -14q8 -12 8 -35z" />
    <glyph glyph-name="uni010B" unicode="&#x10b;" horiz-adv-x="415" 
d="M396 76q-68 -88 -173 -88q-93 0 -146 66q-43 52 -43 140q0 50 26 97.5t72 73.5q28 17 70 30t77 13q49 0 81 -13q26 -7 35 -28q4 -8 0 -18q-6 -15 -21.5 -34.5t-25.5 -23.5q-8 -4 -12 0q-2 2 -11.5 13t-15.5 17.5t-17 16.5t-20.5 16t-21.5 10.5t-24 4.5q-33 0 -52.5 -33
t-19.5 -92q0 -70 31 -115q38 -55 109 -55q60 0 102 38q3 -2 5 -5q4 -15 -5 -31zM312 536q0 -32 -27 -54q-7 -5 -33.5 -7.5t-33.5 1.5q-27 16 -34 44q-6 32 5 45q24 23 72 23q27 0 42 -15q9 -15 9 -37z" />
    <glyph glyph-name="uni010C" unicode="&#x10c;" horiz-adv-x="655" 
d="M565 440q-7 49 -18 76.5t-39 43.5q-46 27 -120 27q-83 0 -133 -67.5t-50 -201.5q0 -79 21.5 -142.5t73.5 -106t127 -42.5q67 0 105 34q38 35 72 98q18 -4 23 -15q-9 -33 -33.5 -79t-43.5 -60q-74 -23 -150 -23q-169 0 -260.5 83t-91.5 243q0 86 41 157.5t119 111.5
q83 43 205 43q39 0 110.5 -7.5t87.5 -8.5q-15 -74 -17 -162q-3 -4 -15.5 -5t-13.5 3zM399 656q-3 -5 -16 -5q-11 11 -64 55.5t-73 58.5q0 4 5.5 12.5t7.5 8.5q5 0 60.5 -23t69.5 -30q1 -1 4 -1t4 1q16 9 66 31t54 22t8.5 -8.5t3.5 -11.5q-25 -19 -72.5 -59t-57.5 -51z" />
    <glyph glyph-name="uni010D" unicode="&#x10d;" horiz-adv-x="415" 
d="M396 76q-68 -88 -173 -88q-93 0 -146 66q-43 52 -43 140q0 50 26 97.5t72 73.5q28 17 70 30t77 13q49 0 81 -13q26 -7 35 -28q4 -8 0 -18q-6 -15 -21.5 -34.5t-25.5 -23.5q-8 -4 -12 0q-2 2 -11.5 13t-15.5 17.5t-17 16.5t-20.5 16t-21.5 10.5t-24 4.5q-33 0 -52.5 -33
t-19.5 -92q0 -70 31 -115q38 -55 109 -55q60 0 102 38q3 -2 5 -5q4 -15 -5 -31zM252 523q41 71 57 81q18 12 40 9q1 0 2.5 -2.5t0.5 -3.5q-67 -103 -92 -159q-1 -3 -14.5 -7.5t-17.5 -4.5q-19 43 -49 93.5t-44 68.5q2 4 21.5 10.5t27.5 6.5q7 -2 28 -34.5t34 -57.5q3 -1 6 0
z" />
    <glyph glyph-name="uni010E" unicode="&#x10e;" horiz-adv-x="711" 
d="M20 578q-2 3 -1 14t3 13q63 -3 145 -3q35 0 91.5 1.5t96.5 1.5q130 0 207 -61q49 -40 74.5 -101t25.5 -129q0 -147 -93 -232q-98 -89 -277 -89q-34 0 -117 2t-128 2h-33q-2 3 -2 14t2 13q34 3 59 9q24 7 29 45q3 33 3 248q0 156 -3 201q-2 18 -6.5 26t-19.5 14
q-13 6 -56 11zM246 88q0 -17 14 -31q29 -29 87 -29q65 0 107 56q59 80 59 216q0 73 -26.5 138.5t-75.5 98.5q-48 35 -126 35q-25 0 -35 -5q-5 -4 -7 -15q-1 -22 -1 -253q0 -171 4 -211zM331 648q-3 -5 -16 -5q-11 11 -64 55.5t-73 58.5q0 4 5.5 12.5t7.5 8.5q5 0 60.5 -23
t69.5 -30q1 -1 4 -1t4 1q16 9 66 31t54 22t8.5 -8.5t3.5 -11.5q-25 -19 -72.5 -59t-57.5 -51z" />
    <glyph glyph-name="uni010F" unicode="&#x10f;" horiz-adv-x="514" 
d="M504 55q1 -3 -1.5 -13.5t-4.5 -12.5q-27 -14 -89 -30t-80 -16q-4 0 -7 9q-1 4 -1.5 23t-0.5 26q0 1 -1 2t-3 0q-81 -53 -132 -53q-63 0 -106 52q-44 55 -44 143q0 49 21 93t55 71q30 23 84 41t96 18h26q5 0 5 4q2 106 -3 153q-2 31 -20 38q-21 8 -51 11q-2 3 -0.5 13.5
t3.5 12.5q45 0 110 9t93 20q3 -2 6 -15q-10 -16 -11 -116q-1 -61 -1 -260q0 -133 2 -173q1 -47 17 -48q11 -2 38 -2zM237 371q-24 0 -45 -22q-29 -32 -29 -106q0 -81 33 -130.5t86 -49.5q18 0 31 8q7 5 8 16q4 126 -1 211q-1 31 -27 55q-24 18 -56 18zM575 671q8 0 8 -13
q1 -26 -6.5 -90t-14.5 -92q-3 -8 -14.5 -19.5t-18.5 -14.5q-2 -1 -4.5 1t-2.5 3q0 71 -14 178q0 5 3 8q6 7 31 23t33 16z" />
    <glyph glyph-name="uni0110" unicode="&#x110;" horiz-adv-x="711" 
d="M20 578q-2 3 -1 14t3 13q63 -3 145 -3q35 0 91.5 1.5t96.5 1.5q130 0 207 -61q49 -40 74.5 -101t25.5 -129q0 -147 -93 -232q-98 -89 -277 -89q-34 0 -117 2t-128 2h-33q-2 3 -2 14t2 13q34 3 59 9q24 7 29 45q3 31 3 221q-68 -2 -77 -2q0 27 7 34h70q0 153 -3 196
q-2 18 -6.5 26t-19.5 14q-13 6 -56 11zM246 88q0 -17 14 -31q29 -29 87 -29q65 0 107 56q59 80 59 216q0 73 -26.5 138.5t-75.5 98.5q-48 35 -126 35q-25 0 -35 -5q-5 -4 -7 -15q-1 -20 -1 -222h61.5t54.5 0.5t26 0.5q2 -15 -4 -33q-24 0 -70 0.5t-68 0.5q0 -172 4 -211z
" />
    <glyph glyph-name="uni0111" unicode="&#x111;" horiz-adv-x="526" 
d="M34 185q0 49 21 93t55 71q30 23 84 41t96 18h26q5 0 5 4v78q-63 -1 -106 -1q0 26 8 34h98q0 30 -1 45q-2 27 -23 35q-12 4 -50 12q-3 6 3 25q45 0 111 9t94 20q5 -5 5 -14q-7 -12 -9.5 -31.5t-3.5 -81.5v-20q13 0 29 0.5t24.5 1t13.5 0.5q3 -19 -5 -35q-4 0 -27 0.5
t-35 0.5v-212q0 -148 2 -188q1 -28 4.5 -36.5t12.5 -9.5q11 -2 46 -2q0 -22 -6 -26q-27 -11 -91 -22t-86 -11q-4 0 -7 9q-1 4 -1.5 23t-0.5 26q0 4 -4 2q-81 -53 -132 -53q-63 0 -106 52q-44 55 -44 143zM237 371q-24 0 -45 -22q-29 -32 -29 -106q0 -81 33 -130.5t86 -49.5
q19 0 31 7q7 5 8 16q4 127 -1 212q-1 31 -27 55q-24 18 -56 18z" />
    <glyph glyph-name="uni0112" unicode="&#x112;" horiz-adv-x="560" 
d="M27 578q-2 4 -1.5 14t2.5 13q15 0 67.5 -1.5t78.5 -1.5h193q92 0 125 5q3 0 3 -3q-10 -41 -16 -148q-4 -3 -14.5 -4t-14.5 1q-7 54 -21 79q-11 21 -38 25q-16 2 -71 2.5t-66 -1.5q-3 -1 -6.5 -7t-3.5 -10v-205q0 -8 6 -8q118 0 133 1q28 1 39 40q4 14 7 32q3 2 15 1.5
t15 -2.5q0 -5 -2.5 -40t-2.5 -55q0 -10 3 -97q-3 -2 -15 -2.5t-15 1.5q-6 27 -10 39q-10 29 -36 31q-17 2 -131 2q-6 0 -6 -8v-190q0 -28 21 -33q38 -6 115 -6q40 0 55 5t30 22q27 28 55 96q4 1 15 -2.5t13 -6.5q-3 -21 -17 -72t-25 -73q-8 -16 -54 -16q-43 0 -135.5 2.5
t-139.5 2.5q-27 0 -86 -1.5t-86 -1.5q-1 5 -1 14.5t1 12.5q56 7 70 11q28 9 28 51q3 56 3 249q0 156 -3 192q-2 21 -7 29.5t-20 13.5q-13 4 -49 8zM178 733q20 -2 58 -2h179q0 -11 -8.5 -33.5t-11.5 -23.5q-21 -4 -197 -4l-39 2q1 8 9 33t10 28z" />
    <glyph glyph-name="uni0113" unicode="&#x113;" horiz-adv-x="434" 
d="M404 113q4 0 4 -5q2 -14 -3 -28q-34 -41 -83 -66.5t-97 -25.5q-84 0 -132 48q-59 56 -59 163q0 58 26 104t68 72q52 33 116 33q50 0 85 -25t49.5 -54.5t19.5 -62.5q1 -7 14 -12q1 -2 -1.5 -11t-4.5 -10q-28 -10 -243 -23q-4 0 -4 -10q2 -49 37 -87t97 -38q64 0 111 38z
M214 375q-25 0 -41 -33.5t-16 -87.5q0 -5 6 -5q19 -1 57.5 0t50.5 4q5 2 5 9q-2 50 -18.5 81.5t-43.5 31.5zM135 550q18 -2 49 -2h167q0 -11 -7 -35t-10 -25q-14 -3 -180 -3q-31 0 -35 2q1 8 7.5 34t8.5 29z" />
    <glyph glyph-name="uni0114" unicode="&#x114;" horiz-adv-x="560" 
d="M27 578q-2 4 -1.5 14t2.5 13q15 0 67.5 -1.5t78.5 -1.5h193q92 0 125 5q3 0 3 -3q-10 -41 -16 -148q-4 -3 -14.5 -4t-14.5 1q-7 54 -21 79q-11 21 -38 25q-16 2 -71 2.5t-66 -1.5q-3 -1 -6.5 -7t-3.5 -10v-205q0 -8 6 -8q118 0 133 1q28 1 39 40q4 14 7 32q3 2 15 1.5
t15 -2.5q0 -5 -2.5 -40t-2.5 -55q0 -10 3 -97q-3 -2 -15 -2.5t-15 1.5q-6 27 -10 39q-10 29 -36 31q-17 2 -131 2q-6 0 -6 -8v-190q0 -28 21 -33q38 -6 115 -6q40 0 55 5t30 22q27 28 55 96q4 1 15 -2.5t13 -6.5q-3 -21 -17 -72t-25 -73q-8 -16 -54 -16q-43 0 -135.5 2.5
t-139.5 2.5q-27 0 -86 -1.5t-86 -1.5q-1 5 -1 14.5t1 12.5q56 7 70 11q28 9 28 51q3 56 3 249q0 156 -3 192q-2 21 -7 29.5t-20 13.5q-13 4 -49 8zM306 703q52 0 89 46q2 2 11.5 7.5t12.5 5.5q2 0 4.5 -1.5t1.5 -2.5q-15 -47 -55.5 -79t-92.5 -32q-49 0 -79 22t-30 54
q0 7 10.5 20t19.5 19q2 1 6 0.5t5 -2.5q12 -29 33.5 -43t63.5 -14z" />
    <glyph glyph-name="uni0115" unicode="&#x115;" horiz-adv-x="434" 
d="M404 113q4 0 4 -5q2 -14 -3 -28q-34 -41 -83 -66.5t-97 -25.5q-84 0 -132 48q-59 56 -59 163q0 58 26 104t68 72q52 33 116 33q50 0 85 -25t49.5 -54.5t19.5 -62.5q1 -7 14 -12q1 -2 -1.5 -11t-4.5 -10q-28 -10 -243 -23q-4 0 -4 -10q2 -49 37 -87t97 -38q64 0 111 38z
M214 375q-25 0 -41 -33.5t-16 -87.5q0 -5 6 -5q19 -1 57.5 0t50.5 4q5 2 5 9q-2 50 -18.5 81.5t-43.5 31.5zM249 518q52 0 85 52q2 3 10.5 9t11.5 6q6 0 6 -5q-11 -52 -48 -86.5t-91 -34.5q-44 0 -73.5 22.5t-29.5 59.5q0 8 13 22.5t25 21.5q2 1 6 0.5t4 -1.5q14 -66 81 -66
z" />
    <glyph glyph-name="uni0116" unicode="&#x116;" horiz-adv-x="560" 
d="M27 578q-2 4 -1.5 14t2.5 13q15 0 67.5 -1.5t78.5 -1.5h193q92 0 125 5q3 0 3 -3q-10 -41 -16 -148q-4 -3 -14.5 -4t-14.5 1q-7 54 -21 79q-11 21 -38 25q-16 2 -71 2.5t-66 -1.5q-3 -1 -6.5 -7t-3.5 -10v-205q0 -8 6 -8q118 0 133 1q28 1 39 40q4 14 7 32q3 2 15 1.5
t15 -2.5q0 -5 -2.5 -40t-2.5 -55q0 -10 3 -97q-3 -2 -15 -2.5t-15 1.5q-6 27 -10 39q-10 29 -36 31q-17 2 -131 2q-6 0 -6 -8v-190q0 -28 21 -33q38 -6 115 -6q40 0 55 5t30 22q27 28 55 96q4 1 15 -2.5t13 -6.5q-3 -21 -17 -72t-25 -73q-8 -16 -54 -16q-43 0 -135.5 2.5
t-139.5 2.5q-27 0 -86 -1.5t-86 -1.5q-1 5 -1 14.5t1 12.5q56 7 70 11q28 9 28 51q3 56 3 249q0 156 -3 192q-2 21 -7 29.5t-20 13.5q-13 4 -49 8zM347 708q0 -32 -25 -52q-7 -5 -32.5 -7.5t-31.5 1.5q-26 14 -33 42q-6 31 6 45q20 20 67 20q24 0 41 -14q8 -12 8 -35z" />
    <glyph glyph-name="uni0117" unicode="&#x117;" horiz-adv-x="434" 
d="M404 113q4 0 4 -5q2 -14 -3 -28q-34 -41 -83 -66.5t-97 -25.5q-84 0 -132 48q-59 56 -59 163q0 58 26 104t68 72q52 33 116 33q50 0 85 -25t49.5 -54.5t19.5 -62.5q1 -7 14 -12q1 -2 -1.5 -11t-4.5 -10q-28 -10 -243 -23q-4 0 -4 -10q2 -49 37 -87t97 -38q64 0 111 38z
M214 375q-25 0 -41 -33.5t-16 -87.5q0 -5 6 -5q19 -1 57.5 0t50.5 4q5 2 5 9q-2 50 -18.5 81.5t-43.5 31.5zM293 536q0 -32 -27 -54q-7 -5 -33.5 -7.5t-33.5 1.5q-27 16 -34 44q-6 32 5 45q24 23 72 23q27 0 42 -15q9 -15 9 -37z" />
    <glyph glyph-name="uni0118" unicode="&#x118;" horiz-adv-x="560" 
d="M5 24q56 7 70 11q28 9 28 51q3 56 3 249q0 156 -3 192q-2 21 -7 29.5t-20 13.5q-13 4 -49 8q-2 4 -1.5 14t2.5 13q15 0 67.5 -1.5t78.5 -1.5h193q92 0 125 5q3 0 3 -3q-10 -41 -16 -148q-4 -3 -14.5 -4t-14.5 1q-7 54 -21 79q-10 21 -37 25q-16 2 -71.5 2.5t-66.5 -1.5
q-3 -1 -6.5 -7t-3.5 -10q-1 -1 -0.5 -102t0.5 -103q0 -8 6 -8q116 0 132 1t25 9t15 31q2 6 7 32q3 2 15 1.5t15 -2.5q0 -7 -1.5 -25t-2.5 -36.5t-1 -33.5q0 -10 3 -97q-3 -2 -15 -2.5t-15 1.5q-3 15 -6.5 27.5t-3.5 14.5q-11 26 -37 28q-17 2 -130 2q-6 0 -6 -8v-190
q0 -28 21 -33q38 -6 115 -6q40 0 55 5t30 22q27 28 55 96q4 1 15 -2.5t13 -6.5q-3 -21 -17 -72t-25 -73q-7 -15 -48 -16q-57 -65 -57 -111q0 -20 12.5 -31.5t31.5 -11.5q23 0 51 15q2 -5 1 -15.5t-3 -13.5q-18 -27 -48 -40t-54 -13q-31 0 -54 18t-23 58q0 61 104 146
q-26 0 -111.5 2t-130.5 2q-27 0 -86 -1.5t-86 -1.5q-1 5 -1 14.5t1 12.5z" />
    <glyph glyph-name="uni0119" unicode="&#x119;" horiz-adv-x="434" 
d="M404 113q4 0 4 -5q2 -14 -3 -28q-44 -53 -100 -74q-31 -24 -45.5 -53t-14.5 -50q0 -20 12 -31t30 -11q23 0 48 14q2 -5 1 -15t-3 -13q-17 -26 -45 -38.5t-51 -12.5q-29 0 -51 17.5t-22 55.5q0 28 26 61t63 60q-20 -2 -28 -2q-84 0 -132 48q-59 56 -59 163q0 58 26 104
t68 72q52 33 116 33q50 0 85 -25t49.5 -54.5t19.5 -62.5q1 -7 14 -12q1 -2 -1.5 -11t-4.5 -10q-28 -10 -243 -23q-4 0 -4 -10q2 -49 37 -87t97 -38q64 0 111 38zM214 375q-25 0 -41 -33.5t-16 -87.5q0 -5 6 -5q19 -1 57.5 0t50.5 4q5 2 5 9q-2 50 -18.5 81.5t-43.5 31.5z
" />
    <glyph glyph-name="uni011A" unicode="&#x11a;" horiz-adv-x="560" 
d="M27 578q-2 4 -1.5 14t2.5 13q15 0 67.5 -1.5t78.5 -1.5h193q92 0 125 5q3 0 3 -3q-10 -41 -16 -148q-4 -3 -14.5 -4t-14.5 1q-7 54 -21 79q-11 21 -38 25q-16 2 -71 2.5t-66 -1.5q-3 -1 -6.5 -7t-3.5 -10v-205q0 -8 6 -8q118 0 133 1q28 1 39 40q4 14 7 32q3 2 15 1.5
t15 -2.5q0 -5 -2.5 -40t-2.5 -55q0 -10 3 -97q-3 -2 -15 -2.5t-15 1.5q-6 27 -10 39q-10 29 -36 31q-17 2 -131 2q-6 0 -6 -8v-190q0 -28 21 -33q38 -6 115 -6q40 0 55 5t30 22q27 28 55 96q4 1 15 -2.5t13 -6.5q-3 -21 -17 -72t-25 -73q-8 -16 -54 -16q-43 0 -135.5 2.5
t-139.5 2.5q-27 0 -86 -1.5t-86 -1.5q-1 5 -1 14.5t1 12.5q56 7 70 11q28 9 28 51q3 56 3 249q0 156 -3 192q-2 21 -7 29.5t-20 13.5q-13 4 -49 8zM293 641q-3 -5 -16 -5q-11 11 -64 55.5t-73 58.5q0 4 5.5 12.5t7.5 8.5q5 0 60.5 -23t69.5 -30q1 -1 4 -1t4 1q16 9 66 31
t54 22t8.5 -8.5t3.5 -11.5q-25 -19 -72.5 -59t-57.5 -51z" />
    <glyph glyph-name="uni011B" unicode="&#x11b;" horiz-adv-x="434" 
d="M404 113q4 0 4 -5q2 -14 -3 -28q-34 -41 -83 -66.5t-97 -25.5q-84 0 -132 48q-59 56 -59 163q0 58 26 104t68 72q52 33 116 33q50 0 85 -25t49.5 -54.5t19.5 -62.5q1 -7 14 -12q1 -2 -1.5 -11t-4.5 -10q-28 -10 -243 -23q-4 0 -4 -10q2 -49 37 -87t97 -38q64 0 111 38z
M214 375q-25 0 -41 -33.5t-16 -87.5q0 -5 6 -5q19 -1 57.5 0t50.5 4q5 2 5 9q-2 50 -18.5 81.5t-43.5 31.5zM239 523q41 71 57 81q18 12 40 9q2 0 3 -2.5t0 -3.5q-67 -103 -92 -159q-1 -3 -14.5 -7.5t-17.5 -4.5q-19 43 -49 93.5t-44 68.5q2 4 21.5 10.5t27.5 6.5
q7 -2 28 -34.5t34 -57.5q3 -1 6 0z" />
    <glyph glyph-name="uni011C" unicode="&#x11c;" horiz-adv-x="695" 
d="M637 41q0 -16 -4 -20q-123 -39 -232 -39q-169 0 -260.5 79.5t-91.5 242.5q0 98 47 171.5t131 109.5q84 35 200 35q38 0 78 -4.5t74.5 -11t48.5 -7.5q-19 -84 -17 -166q-2 -4 -15.5 -5t-16.5 2q-10 91 -43 117q-48 41 -138 41q-82 0 -137 -62t-55 -203q0 -138 58.5 -221.5
t154.5 -83.5q28 0 40 9q15 8 17 30q6 52 2 113q-2 29 -9 41.5t-27 17.5q-5 1 -58 8q-3 4 -2.5 14.5t2.5 13.5q15 0 72.5 -1.5t90.5 -1.5q41 0 78.5 1.5t41.5 1.5q1 -1 1 -13t-1 -14q-6 -1 -15.5 -4t-11.5 -3q-16 -5 -21 -16t-5 -51q0 -91 1 -99q3 -11 22 -22zM379 782
q6 4 17 4q9 -10 62.5 -54.5t73.5 -59.5q0 -3 -5.5 -12t-7.5 -9q-5 0 -60 23t-69 30q-4 2 -9 0q-16 -9 -65.5 -31t-53.5 -22t-9 9t-3 12q112 90 129 110z" />
    <glyph glyph-name="uni011D" unicode="&#x11d;" horiz-adv-x="458" 
d="M223 408q44 0 108 -20q32 -10 58 -10q27 0 39 3.5t24 15.5q1 2 6.5 -1t6.5 -6q0 -8 -8.5 -30t-16.5 -30q-10 -10 -36 -10h-21q-1 0 -1.5 -1t0.5 -2q7 -17 7 -47q0 -83 -59 -125q-44 -34 -118 -36q-26 0 -32 1q-4 0 -10 -6t-6 -11q0 -23 35 -28q154 -17 169 -22
q32 -9 56.5 -36t24.5 -71q0 -57 -37.5 -102.5t-97.5 -73.5q-54 -25 -118 -25q-72 0 -116 28q-61 37 -61 92q0 24 6 38q14 12 90 59v5q-68 28 -69 84l3 16q77 42 90 52q1 1 1 2.5t-1 1.5q-105 32 -105 141q0 76 62 118q54 36 127 36zM248 -215q56 0 83.5 22.5t27.5 55.5
q0 38 -38 58q-49 25 -152 25q-19 0 -30 -8q-29 -20 -29 -55q0 -32 28 -61q37 -37 110 -37zM206 378q-23 0 -37 -23t-14 -67q0 -75 19 -111.5t49 -36.5q18 0 30 15q20 22 20 88q0 59 -16.5 97t-50.5 38zM219 531q-39 -70 -57 -81q-16 -9 -40 -9q-2 0 -3 2.5t0 3.5
q67 103 92 159q1 3 14.5 7t17.5 4q19 -43 49.5 -93.5t43.5 -66.5q-2 -4 -21.5 -11t-27.5 -7q-7 3 -28.5 35.5t-33.5 56.5q-3 1 -6 0z" />
    <glyph glyph-name="uni011E" unicode="&#x11e;" horiz-adv-x="695" 
d="M637 41q0 -16 -4 -20q-123 -39 -232 -39q-169 0 -260.5 79.5t-91.5 242.5q0 98 47 171.5t131 109.5q84 35 200 35q38 0 78 -4.5t74.5 -11t48.5 -7.5q-19 -84 -17 -166q-2 -4 -15.5 -5t-16.5 2q-10 91 -43 117q-48 41 -138 41q-82 0 -137 -62t-55 -203q0 -138 58.5 -221.5
t154.5 -83.5q28 0 40 9q15 8 17 30q6 52 2 113q-2 29 -9 41.5t-27 17.5q-5 1 -58 8q-3 4 -2.5 14.5t2.5 13.5q15 0 72.5 -1.5t90.5 -1.5q41 0 78.5 1.5t41.5 1.5q1 -1 1 -13t-1 -14q-6 -1 -15.5 -4t-11.5 -3q-16 -5 -21 -16t-5 -51q0 -91 1 -99q3 -11 22 -22zM409 715
q52 0 89 46q2 2 11.5 7.5t12.5 5.5q2 0 4.5 -1.5t1.5 -2.5q-15 -47 -55.5 -79t-92.5 -32q-49 0 -79 22t-30 54q0 7 10.5 20t19.5 19q2 1 6 0.5t5 -2.5q12 -29 33.5 -43t63.5 -14z" />
    <glyph glyph-name="uni011F" unicode="&#x11f;" horiz-adv-x="458" 
d="M223 408q44 0 108 -20q32 -10 58 -10q27 0 39 3.5t24 15.5q1 2 6.5 -1t6.5 -6q0 -8 -8.5 -30t-16.5 -30q-10 -10 -36 -10h-21q-1 0 -1.5 -1t0.5 -2q7 -17 7 -47q0 -83 -59 -125q-44 -34 -118 -36q-26 0 -32 1q-4 0 -10 -6t-6 -11q0 -23 35 -28q154 -17 169 -22
q32 -9 56.5 -36t24.5 -71q0 -57 -37.5 -102.5t-97.5 -73.5q-54 -25 -118 -25q-72 0 -116 28q-61 37 -61 92q0 24 6 38q14 12 90 59v5q-68 28 -69 84l3 16q77 42 90 52q1 1 1 2.5t-1 1.5q-105 32 -105 141q0 76 62 118q54 36 127 36zM248 -215q56 0 83.5 22.5t27.5 55.5
q0 38 -38 58q-49 25 -152 25q-19 0 -30 -8q-29 -20 -29 -55q0 -32 28 -61q37 -37 110 -37zM206 378q-23 0 -37 -23t-14 -67q0 -75 19 -111.5t49 -36.5q18 0 30 15q20 22 20 88q0 59 -16.5 97t-50.5 38zM240 518q52 0 85 52q2 3 10.5 9t11.5 6q6 0 6 -5q-11 -52 -48 -86.5
t-91 -34.5q-44 0 -73.5 22.5t-29.5 59.5q0 8 13 22.5t25 21.5q2 1 6 0.5t4 -1.5q13 -66 81 -66z" />
    <glyph glyph-name="uni0120" unicode="&#x120;" horiz-adv-x="695" 
d="M637 41q0 -16 -4 -20q-123 -39 -232 -39q-169 0 -260.5 79.5t-91.5 242.5q0 98 47 171.5t131 109.5q84 35 200 35q38 0 78 -4.5t74.5 -11t48.5 -7.5q-19 -84 -17 -166q-2 -4 -15.5 -5t-16.5 2q-10 91 -43 117q-48 41 -138 41q-82 0 -137 -62t-55 -203q0 -138 58.5 -221.5
t154.5 -83.5q28 0 40 9q15 8 17 30q6 52 2 113q-2 29 -9 41.5t-27 17.5q-5 1 -58 8q-3 4 -2.5 14.5t2.5 13.5q15 0 72.5 -1.5t90.5 -1.5q41 0 78.5 1.5t41.5 1.5q1 -1 1 -13t-1 -14q-6 -1 -15.5 -4t-11.5 -3q-16 -5 -21 -16t-5 -51q0 -91 1 -99q3 -11 22 -22zM456 722
q0 -32 -25 -52q-7 -5 -32.5 -7.5t-31.5 1.5q-26 14 -33 42q-6 31 6 45q20 20 67 20q23 0 41 -14q8 -12 8 -35z" />
    <glyph glyph-name="uni0121" unicode="&#x121;" horiz-adv-x="458" 
d="M223 408q44 0 108 -20q32 -10 58 -10q27 0 39 3.5t24 15.5q1 2 6.5 -1t6.5 -6q0 -8 -8.5 -30t-16.5 -30q-10 -10 -36 -10h-21q-1 0 -1.5 -1t0.5 -2q7 -17 7 -47q0 -83 -59 -125q-44 -34 -118 -36q-26 0 -32 1q-4 0 -10 -6t-6 -11q0 -23 35 -28q154 -17 169 -22
q32 -9 56.5 -36t24.5 -71q0 -57 -37.5 -102.5t-97.5 -73.5q-54 -25 -118 -25q-72 0 -116 28q-61 37 -61 92q0 24 6 38q14 12 90 59v5q-68 28 -69 84l3 16q77 42 90 52q1 1 1 2.5t-1 1.5q-105 32 -105 141q0 76 62 118q54 36 127 36zM248 -215q56 0 83.5 22.5t27.5 55.5
q0 38 -38 58q-49 25 -152 25q-19 0 -30 -8q-29 -20 -29 -55q0 -32 28 -61q37 -37 110 -37zM206 378q-23 0 -37 -23t-14 -67q0 -75 19 -111.5t49 -36.5q18 0 30 15q20 22 20 88q0 59 -16.5 97t-50.5 38zM293 536q0 -32 -27 -54q-7 -5 -33.5 -7.5t-33.5 1.5q-27 16 -34 44
q-6 32 5 45q24 23 72 23q27 0 42 -15q9 -15 9 -37z" />
    <glyph glyph-name="uni0122" unicode="&#x122;" horiz-adv-x="695" 
d="M637 41q0 -16 -4 -20q-123 -39 -232 -39q-169 0 -260.5 79.5t-91.5 242.5q0 98 47 171.5t131 109.5q84 35 200 35q38 0 78 -4.5t74.5 -11t48.5 -7.5q-19 -84 -17 -166q-2 -4 -15.5 -5t-16.5 2q-10 91 -43 117q-48 41 -138 41q-82 0 -137 -62t-55 -203q0 -138 58.5 -221.5
t154.5 -83.5q28 0 40 9q15 8 17 30q6 52 2 113q-2 29 -9 41.5t-27 17.5q-5 1 -58 8q-3 4 -2.5 14.5t2.5 13.5q15 0 72.5 -1.5t90.5 -1.5q41 0 78.5 1.5t41.5 1.5q1 -1 1 -13t-1 -14q-6 -1 -15.5 -4t-11.5 -3q-16 -5 -21 -16t-5 -51q0 -91 1 -99q3 -11 22 -22zM397 -48
q17 0 34.5 -19.5t17.5 -52.5q0 -48 -35.5 -80t-91.5 -47q-3 1 -7 10.5t-3 12.5q40 18 54 33.5t14 37.5q0 34 -57 53q-1 2 -1 8.5t1 8.5q10 10 33 22.5t41 12.5z" />
    <glyph glyph-name="uni0123" unicode="&#x123;" horiz-adv-x="458" 
d="M216 451q-19 0 -36 22t-17 54q0 39 30.5 69.5t81.5 42.5q8 -10 8 -22q-38 -16 -51.5 -30.5t-13.5 -33.5q0 -31 62 -47q1 -1 1 -7.5t-1 -7.5q-9 -13 -29.5 -26.5t-34.5 -13.5zM223 408q44 0 108 -20q32 -10 58 -10q27 0 39 3.5t24 15.5q1 2 6.5 -1t6.5 -6q0 -8 -8.5 -30
t-16.5 -30q-10 -10 -36 -10h-21q-1 0 -1.5 -1t0.5 -2q7 -17 7 -47q0 -83 -59 -125q-44 -34 -118 -36q-26 0 -32 1q-4 0 -10 -6t-6 -11q0 -23 35 -28q154 -17 169 -22q32 -9 56.5 -36t24.5 -71q0 -57 -37.5 -102.5t-97.5 -73.5q-54 -25 -118 -25q-72 0 -116 28q-61 37 -61 92
q0 24 6 38q14 12 90 59v5q-68 28 -69 84l3 16q77 42 90 52q1 1 1 2.5t-1 1.5q-105 32 -105 141q0 76 62 118q54 36 127 36zM248 -215q56 0 83.5 22.5t27.5 55.5q0 38 -38 58q-49 25 -152 25q-19 0 -30 -8q-29 -20 -29 -55q0 -32 28 -61q37 -37 110 -37zM206 378
q-23 0 -37 -23t-14 -67q0 -75 19 -111.5t49 -36.5q18 0 30 15q20 22 20 88q0 59 -16.5 97t-50.5 38z" />
    <glyph glyph-name="uni0124" unicode="&#x124;" horiz-adv-x="738" 
d="M28 578q-2 2 -2 13.5t2 13.5q5 0 53 -1.5t92 -1.5q42 0 87 1.5t54 1.5q2 -4 1.5 -14.5t-3.5 -12.5q-29 -4 -42 -8q-14 -5 -19.5 -16t-6.5 -37q-1 -51 -1 -172q3 -6 5 -7q18 -2 133 -2q94 0 109 1q6 3 6 7q0 138 -3 192q-2 28 -22 33q-16 6 -49 9q-3 2 -3 13t4 14
q13 0 59 -1.5t89 -1.5q46 0 88 1.5t47 1.5q2 -3 2 -13.5t-3 -13.5q-35 -6 -43 -9q-14 -4 -20 -12.5t-7 -30.5q-2 -69 -2 -253q0 -142 2 -185q2 -26 6 -37.5t15 -15.5q9 -3 61 -11q1 -3 -0.5 -14.5t-3.5 -12.5q-10 0 -58 1.5t-83 1.5q-33 0 -87.5 -1.5t-61.5 -1.5
q-3 2 -2.5 13t2.5 14q18 2 43 8q28 6 29 54q1 46 1 191q0 7 -6 7q-20 1 -113 1q-124 0 -130 -3q-4 -2 -4 -6q0 -137 1 -187q1 -26 6.5 -38.5t21.5 -16.5q11 -3 51 -10q2 -4 0.5 -14.5t-3.5 -12.5q-1 0 -50.5 1.5t-99.5 1.5q-43 0 -90.5 -1.5t-52.5 -1.5q-3 1 -3 12.5t2 14.5
q29 4 42 7q20 4 27 17.5t9 48.5q2 30 2 194q0 201 -2 230q-1 24 -6.5 34.5t-20.5 14.5q-23 5 -49 8zM362 772q6 4 17 4q9 -10 62.5 -54.5t73.5 -59.5q0 -3 -5.5 -12t-7.5 -9q-5 0 -60 23t-69 30q-5 2 -9 0q-16 -9 -65.5 -31t-53.5 -22t-9 9t-3 12q112 90 129 110z" />
    <glyph glyph-name="uni0125" unicode="&#x125;" horiz-adv-x="516" 
d="M112 785q7 4 17 4q11 -10 65.5 -50t75.5 -53q0 -4 -4 -11.5t-7 -6.5q-5 0 -64 22.5t-71 28.5q-5 2 -10 0q-14 -8 -66.5 -29.5t-57.5 -21.5q-4 0 -8 6.5t-3 11.5q23 15 72.5 51t60.5 48zM7 608q-2 3 -2 13.5t2 12.5q53 3 109.5 14t80.5 21q8 -5 6 -16q-11 -20 -11 -95
v-199q0 -7 4 -3q72 52 127 52q61 0 93.5 -42t32.5 -121v-188q0 -13 7 -18q14 -10 45 -15q2 -3 1 -14t-4 -13q-8 0 -43.5 1.5t-71.5 1.5q-28 0 -106 -3q-2 3 -2 13.5t2 13.5q15 2 27 7q17 6 18 41q5 177 -5 211q-6 25 -26 40.5t-47 15.5q-26 0 -46 -10q-6 -4 -6 -11
q0 -209 2 -240q0 -2 0.5 -7t0.5 -7t0.5 -6t1 -6t1 -5t1.5 -4t2.5 -3.5t3.5 -3.5t4 -2.5t5 -2.5q12 -4 29 -7q3 -4 3 -13.5t-3 -13.5q-9 0 -44.5 1.5t-70.5 1.5t-71 -1.5t-42 -1.5q-4 4 -3.5 14t3.5 13q15 2 32 8q11 4 14.5 14.5t4.5 37.5q2 39 2 176q0 279 -4 316
q-3 18 -18 24q-8 4 -39 8z" />
    <glyph glyph-name="Hbar" unicode="&#x126;" horiz-adv-x="738" 
d="M26 24q29 4 42 7q20 4 27 17.5t9 48.5q2 30 2 194v117h-66q0 26 8 34h58q0 51 -2 79q-1 24 -6.5 34t-19.5 14q-15 4 -50 8q-3 3 -3 14t3 14q11 0 61 -1.5t84 -1.5t79.5 1.5t60.5 1.5q2 -3 1.5 -14t-2.5 -13q-34 -5 -42 -8q-14 -4 -19.5 -15t-6.5 -37t-1 -76h253
q0 72 -2 97t-23 31q-26 7 -49 8q-2 4 -2 14t2 13q13 0 60 -1.5t89 -1.5q35 0 82 1.5t54 1.5q2 -2 1 -13t-3 -14q-36 -5 -43 -8q-14 -5 -20.5 -13.5t-7.5 -29.5q-1 -27 -1 -84h71q2 -15 -4 -34h-67v-136q0 -142 2 -185q2 -26 6 -37.5t15 -15.5q7 -3 61 -11q2 -3 0.5 -14
t-5.5 -13q-16 0 -64.5 1.5t-75.5 1.5q-24 0 -79.5 -1.5t-68.5 -1.5q-4 3 -4 14t3 13q22 2 45 8q14 3 19.5 14t7.5 39q1 24 1 172q0 7 -6 7q-20 1 -113 1q-122 0 -130 -2q-4 0 -4 -6q0 -118 1 -168q1 -26 6 -38.5t21 -16.5q9 -3 52 -10q2 -3 1 -14t-4 -13q-10 0 -56 1.5
t-94 1.5q-43 0 -90.5 -1.5t-52.5 -1.5q-3 1 -3 13t2 14zM496 409h-253v-86q2 -4 5 -7q18 -2 133 -2q79 0 109 2q6 0 6 7v86z" />
    <glyph glyph-name="hbar" unicode="&#x127;" horiz-adv-x="516" 
d="M15 24q14 2 32 8q11 3 14 13.5t5 38.5q2 78 2 176l-1 230q-8 0 -28.5 -0.5t-29.5 -0.5q3 29 8 34h49q0 32 -1 47q-2 25 -21 32q-5 2 -37 7q-2 3 -2 12.5t2 12.5q43 1 101.5 12t88.5 23q2 -2 4.5 -7.5t1.5 -8.5q-7 -12 -9 -30.5t-2 -80.5v-20q68 2 116 2q2 -16 -4 -35
q-4 0 -52 0.5t-60 0.5v-131q0 -7 4 -3q72 52 127 52q61 0 93.5 -42t32.5 -121v-188q0 -12 5 -16q14 -12 47 -17q2 -4 1 -14t-4 -13q-8 0 -43.5 1.5t-71.5 1.5q-28 0 -106 -3q-2 5 -2 14t2 13q15 2 27 7q17 6 18 41q5 173 -5 212q-6 25 -26 40t-47 15q-26 0 -46 -10
q-6 -4 -6 -11q0 -209 2 -240q0 -2 0.5 -7t0.5 -7t0.5 -6t1 -6t1 -5t1.5 -4t2.5 -3.5t3.5 -3.5t4 -2.5t5 -2.5q15 -4 29 -7q6 -12 0 -27q-10 0 -47 1.5t-68 1.5q-29 0 -66 -1.5t-47 -1.5q-3 5 -3 14t3 13z" />
    <glyph glyph-name="uni0128" unicode="&#x128;" horiz-adv-x="347" 
d="M27 578q-3 3 -2.5 13.5t2.5 13.5q15 0 61 -1.5t84 -1.5q40 0 71.5 1t49.5 1.5t23 0.5q2 -2 2.5 -13t-2.5 -14q-35 -5 -49 -10q-10 -4 -15 -10.5t-6.5 -15t-2.5 -28.5q-1 -29 -1 -198q0 -195 2 -233q1 -9 1 -12t2 -11.5t4.5 -12t8.5 -8t15 -6.5q4 -1 50 -9q2 -3 0.5 -14
t-3.5 -13q-138 3 -143 3q-51 0 -95.5 -1.5t-56.5 -1.5q-3 2 -3.5 13t3.5 14q12 1 44 7q18 5 24.5 15.5t7.5 40.5q2 40 2 235q0 161 -2 206q-2 33 -26 41q-18 5 -50 9zM245 715q36 0 72 35q2 2 5 -5q4 -12 3 -18q-12 -22 -46 -46.5t-64 -24.5q-22 0 -71 16q-27 10 -46 10
q-28 0 -64 -31q-2 -1 -5 3.5t-4 10.5t0 8q12 18 44.5 43t54.5 25q19 0 66 -14q39 -12 55 -12z" />
    <glyph glyph-name="uni0129" unicode="&#x129;" horiz-adv-x="265" 
d="M254 24q2 -3 0 -13.5t-5 -13.5q-7 0 -45 1.5t-70 1.5q-31 0 -69 -1.5t-46 -1.5q-2 3 -2.5 14t1.5 13q22 3 35 7q17 6 18 41q1 22 1 137q0 79 -1 94q-2 21 -8 27q-11 11 -35 20q-1 3 -1 13t2 12q21 0 79 11t91 25q0 -14 -0.5 -76.5t-0.5 -93.5q0 -124 1 -168q1 -21 5 -29
t14 -12q10 -3 36 -8zM199 536q37 0 67 31q3 3 5 -3q4 -11 -2 -23q-10 -22 -40 -45t-58 -23q-20 0 -65 15q-25 9 -43 9q-29 0 -61 -30q-3 -1 -6 5q-1 4 1 13.5t4 11.5q9 17 38 39.5t50 22.5q22 0 59 -12q37 -11 51 -11z" />
    <glyph glyph-name="uni012A" unicode="&#x12a;" horiz-adv-x="347" 
d="M27 578q-3 3 -2.5 13.5t2.5 13.5q15 0 61 -1.5t84 -1.5q40 0 71.5 1t49.5 1.5t23 0.5q2 -2 2.5 -13t-2.5 -14q-35 -5 -49 -10q-10 -4 -15 -10.5t-6.5 -15t-2.5 -28.5q-1 -29 -1 -198q0 -195 2 -233q1 -9 1 -12t2 -11.5t4.5 -12t8.5 -8t15 -6.5q4 -1 50 -9q2 -3 0.5 -14
t-3.5 -13q-138 3 -143 3q-51 0 -95.5 -1.5t-56.5 -1.5q-3 2 -3.5 13t3.5 14q12 1 44 7q18 5 24.5 15.5t7.5 40.5q2 40 2 235q0 161 -2 206q-2 33 -26 41q-18 5 -50 9zM64 728q20 -2 58 -2h179q0 -11 -8.5 -33.5t-11.5 -23.5q-21 -4 -197 -4l-39 2q1 8 9 33t10 28z" />
    <glyph glyph-name="uni012B" unicode="&#x12b;" horiz-adv-x="265" 
d="M254 24q2 -3 0 -13.5t-5 -13.5q-7 0 -45 1.5t-70 1.5q-31 0 -69 -1.5t-46 -1.5q-2 3 -2.5 14t1.5 13q22 3 35 7q17 6 18 41q1 22 1 137q0 79 -1 94q-2 21 -8 27q-11 11 -35 20q-1 3 -1 13t2 12q21 0 79 11t91 25q0 -14 -0.5 -76.5t-0.5 -93.5q0 -124 1 -168q1 -21 5 -29
t14 -12q10 -3 36 -8zM31 550q18 -2 49 -2q27 0 72 -0.5t68.5 -0.5t26.5 1q0 -11 -7 -35t-10 -25q-14 -3 -180 -3q-31 0 -35 2q1 8 7.5 34t8.5 29z" />
    <glyph glyph-name="uni012C" unicode="&#x12c;" horiz-adv-x="347" 
d="M27 578q-3 3 -2.5 13.5t2.5 13.5q15 0 61 -1.5t84 -1.5q40 0 71.5 1t49.5 1.5t23 0.5q2 -2 2.5 -13t-2.5 -14q-35 -5 -49 -10q-10 -4 -15 -10.5t-6.5 -15t-2.5 -28.5q-1 -29 -1 -198q0 -195 2 -233q1 -9 1 -12t2 -11.5t4.5 -12t8.5 -8t15 -6.5q4 -1 50 -9q2 -3 0.5 -14
t-3.5 -13q-138 3 -143 3q-51 0 -95.5 -1.5t-56.5 -1.5q-3 2 -3.5 13t3.5 14q12 1 44 7q18 5 24.5 15.5t7.5 40.5q2 40 2 235q0 161 -2 206q-2 33 -26 41q-18 5 -50 9zM188 700q52 0 89 46q2 2 11.5 7.5t12.5 5.5q2 0 4.5 -1.5t1.5 -2.5q-15 -47 -55.5 -79t-92.5 -32
q-49 0 -79 22t-30 54q0 7 10.5 20t19.5 19q2 1 6 0.5t5 -2.5q12 -29 33.5 -43t63.5 -14z" />
    <glyph glyph-name="uni012D" unicode="&#x12d;" horiz-adv-x="265" 
d="M254 24q2 -3 0 -13.5t-5 -13.5q-7 0 -45 1.5t-70 1.5q-31 0 -69 -1.5t-46 -1.5q-2 3 -2.5 14t1.5 13q22 3 35 7q17 6 18 41q1 22 1 137q0 79 -1 94q-2 21 -8 27q-11 11 -35 20q-1 3 -1 13t2 12q21 0 79 11t91 25q0 -14 -0.5 -76.5t-0.5 -93.5q0 -124 1 -168q1 -21 5 -29
t14 -12q10 -3 36 -8zM144 518q52 0 85 52q2 3 10.5 9t11.5 6q6 0 6 -5q-11 -52 -48 -86.5t-91 -34.5q-44 0 -73.5 22.5t-29.5 59.5q0 8 13 22.5t25 21.5q2 1 6 0.5t4 -1.5q13 -66 81 -66z" />
    <glyph glyph-name="uni012E" unicode="&#x12e;" horiz-adv-x="347" 
d="M162 -226q-30 0 -53 18t-23 58q0 63 99 150q-55 0 -101 -1.5t-57 -1.5q-3 2 -3.5 13t3.5 14q12 1 44 7q17 5 24 15.5t8 40.5q2 40 2 235q0 161 -3 206q-2 33 -25 41q-12 4 -50 9q-3 4 -2.5 14t2.5 13q15 0 61 -1.5t84 -1.5q40 0 71.5 1t49.5 1.5t23 0.5q2 -2 2.5 -13
t-2.5 -14q-35 -5 -49 -10q-10 -4 -15 -10.5t-6.5 -15t-2.5 -28.5q-1 -29 -1 -198q0 -195 2 -233q1 -9 1 -12t2 -11.5t4.5 -12t8.5 -8t15 -6.5q4 -1 50 -9q2 -3 0.5 -14t-3.5 -13q-12 0 -32.5 1t-37.5 1.5t-34 0.5q-48 -62 -48 -113q0 -21 13.5 -33.5t32.5 -12.5q22 0 50 15
q2 -5 1 -15.5t-3 -13.5q-18 -27 -48 -40t-54 -13z" />
    <glyph glyph-name="uni012F" unicode="&#x12f;" horiz-adv-x="265" 
d="M122 -215q-29 0 -51 17t-22 55q0 33 29.5 73t67.5 70q-39 0 -79.5 -1.5t-47.5 -1.5q-2 3 -2.5 14t1.5 13q22 3 35 7q17 6 18 41q1 22 1 137q0 80 -1 94q-2 21 -8 27q-11 11 -35 20q-1 3 -1 13t2 12q21 0 79 11t91 25q0 -8 -0.5 -72.5t-0.5 -97.5q0 -124 1 -168
q1 -21 5 -29t14 -12q10 -3 36 -8q2 -3 0 -13.5t-5 -13.5q-8 0 -34 1.5t-41 1.5q-44 -59 -44 -108q0 -20 12 -31.5t30 -11.5q24 0 49 14q2 -5 1 -14.5t-3 -12.5q-17 -26 -45.5 -38.5t-51.5 -12.5zM196 538q0 -34 -26 -55q-7 -5 -33.5 -8t-37.5 1q-19 7 -30 44q-6 30 6 46
q23 21 69 21q34 0 44 -13q8 -10 8 -36z" />
    <glyph glyph-name="uni0130" unicode="&#x130;" horiz-adv-x="347" 
d="M27 578q-3 3 -2.5 13.5t2.5 13.5q15 0 61 -1.5t84 -1.5q40 0 71.5 1t49.5 1.5t23 0.5q2 -2 2.5 -13t-2.5 -14q-35 -5 -49 -10q-10 -4 -15 -10.5t-6.5 -15t-2.5 -28.5q-1 -29 -1 -198q0 -195 2 -233q1 -9 1 -12t2 -11.5t4.5 -12t8.5 -8t15 -6.5q4 -1 50 -9q2 -3 0.5 -14
t-3.5 -13q-138 3 -143 3q-51 0 -95.5 -1.5t-56.5 -1.5q-3 2 -3.5 13t3.5 14q12 1 44 7q18 5 24.5 15.5t7.5 40.5q2 40 2 235q0 161 -2 206q-2 33 -26 41q-18 5 -50 9zM236 710q0 -32 -25 -52q-7 -5 -32.5 -7.5t-31.5 1.5q-26 14 -33 42q-6 31 6 45q20 20 67 20q24 0 41 -14
q8 -12 8 -35z" />
    <glyph glyph-name="dotlessi" unicode="&#x131;" horiz-adv-x="265" 
d="M254 24q2 -3 0 -13.5t-5 -13.5q-7 0 -45 1.5t-70 1.5q-31 0 -69 -1.5t-46 -1.5q-2 3 -2.5 14t1.5 13q22 3 35 7q17 6 18 41q1 22 1 137q0 79 -1 94q-2 21 -8 27q-11 11 -35 20q-1 3 -1 13t2 12q21 0 79 11t91 25q0 -14 -0.5 -76.5t-0.5 -93.5q0 -124 1 -168q1 -21 5 -29
t14 -12q10 -3 36 -8z" />
    <glyph glyph-name="IJ" unicode="&#x132;" horiz-adv-x="687" 
d="M27 578q-3 3 -2.5 13.5t2.5 13.5q15 0 61 -1.5t84 -1.5q40 0 71.5 1t49.5 1.5t23 0.5q2 -2 2.5 -13t-2.5 -14q-35 -5 -49 -10q-10 -4 -15 -10.5t-6.5 -15t-2.5 -28.5q-1 -29 -1 -198q0 -195 2 -233q1 -9 1 -12t2 -11.5t4.5 -12t8.5 -8t15 -6.5q4 -1 50 -9q2 -3 0.5 -14
t-3.5 -13q-138 3 -143 3q-51 0 -95.5 -1.5t-56.5 -1.5q-3 2 -3.5 13t3.5 14q12 1 44 7q18 5 24.5 15.5t7.5 40.5q2 40 2 235q0 161 -2 206q-2 33 -26 41q-18 5 -50 9zM376 578q-2 4 -2 14t2 13q10 0 57 -1.5t99 -1.5q38 0 82 1.5t54 1.5q2 -3 2 -13t-2 -14q-29 -4 -42 -9
q-12 -6 -17.5 -16.5t-5.5 -36.5q0 -7 -1 -170.5t-5 -231.5q-5 -101 -46 -172q-42 -71 -100 -112t-113 -41q-51 0 -69 25v18q11 50 30 81q32 -23 66 -39t51 -16q18 0 29 12q14 19 15 99q3 119 2 300.5t-4 249.5q-1 15 -2.5 22.5t-8 15.5t-17.5 12q-19 6 -54 9z" />
    <glyph glyph-name="ij" unicode="&#x133;" horiz-adv-x="533" 
d="M196 538q0 -34 -26 -55q-7 -5 -33.5 -8t-37.5 1q-22 8 -30 44q-5 32 6 46q23 21 69 21q34 0 44 -13q8 -10 8 -36zM252 24q1 -4 -0.5 -14t-4.5 -13q-7 0 -44 1.5t-69 1.5q-31 0 -69 -1.5t-46 -1.5q-2 3 -2.5 14t1.5 13q22 3 35 7q17 6 18 41q1 22 1 137q0 79 -1 94
q-2 21 -8 27q-11 11 -35 20q-1 3 -1 13t2 12q21 0 79 11t91 25q0 -14 -0.5 -76.5t-0.5 -93.5q0 -124 1 -168q1 -21 5 -29t14 -12q13 -4 34 -8zM463 545q0 -16 -7.5 -33.5t-18.5 -24.5q-6 -4 -33.5 -9t-34.5 -1q-29 14 -35 50q-1 9 0 21t6 17q9 11 31.5 19t43.5 8
q30 0 40 -13q8 -9 8 -34zM470 410q0 -34 -0.5 -147.5t-1.5 -170.5q0 -84 -11 -134q-19 -80 -71 -138t-92 -74q-17 2 -27 14q-2 7 1 10q43 20 57.5 58.5t14.5 128.5q0 306 -3 343q-2 30 -16 37q-12 8 -41 14q-3 5 -2.5 14.5t2.5 13.5q118 5 190 31z" />
    <glyph glyph-name="uni0134" unicode="&#x134;" horiz-adv-x="339" 
d="M29 578q-2 4 -2 14t2 13q9 0 57 -1.5t99 -1.5q38 0 81.5 1.5t54.5 1.5q1 -3 1 -13t-1 -14q-29 -4 -42 -9q-12 -6 -17.5 -16.5t-5.5 -36.5q0 -7 -1 -170.5t-5 -231.5q-5 -101 -46 -172q-42 -71 -100 -112t-113 -41q-51 0 -69 25v18q11 50 30 81q32 -23 66 -39t51 -16
q18 0 29 12q14 19 15 99q3 119 2 300.5t-4 249.5q-1 15 -2.5 22.5t-8 15.5t-17.5 12q-19 6 -54 9zM165 774q6 4 17 4q9 -10 62.5 -54.5t73.5 -59.5q0 -3 -5.5 -12t-7.5 -9q-5 0 -60 23t-69 30q-4 2 -9 0q-16 -9 -65.5 -31t-53.5 -22t-9 9t-3 12q112 90 129 110z" />
    <glyph glyph-name="uni0135" unicode="&#x135;" horiz-adv-x="268" 
d="M205 410q0 -34 -0.5 -147.5t-1.5 -170.5q0 -84 -11 -134q-19 -80 -71 -138t-92 -74q-12 2 -27 14q-2 7 1 10q43 20 57.5 58.5t14.5 128.5q0 306 -3 343q-2 30 -16 37q-12 8 -41 14q-3 5 -2.5 14.5t2.5 13.5q118 5 190 31zM124 533q-39 -70 -57 -81q-16 -9 -40 -9
q-1 0 -2.5 2.5t-0.5 3.5q67 103 92 159q1 3 14.5 7t17.5 4q19 -43 49.5 -93.5t43.5 -66.5q-2 -4 -21.5 -11t-27.5 -7q-7 3 -28.5 35.5t-33.5 56.5q-3 1 -6 0z" />
    <glyph glyph-name="uni0136" unicode="&#x136;" horiz-adv-x="658" 
d="M239 303q0 -169 2 -223q1 -41 30 -48q3 -1 49 -9q2 -3 0.5 -14t-4.5 -13q-11 0 -37 1.5t-52 2t-54 0.5q-37 -1 -87.5 -2.5t-59.5 -1.5q-2 3 -2 13t2 13q32 4 47 9q17 4 23 17t7 45q2 78 2 225q-1 44 -1 113.5v86.5q-2 43 -23 50q-19 6 -51 10q-4 2 -3 13.5t4 13.5
q3 0 50 -1.5t93 -1.5q28 0 74 1.5t62 1.5q2 -3 2 -13.5t-2 -13.5q-23 -3 -42 -8q-25 -8 -27 -53q-1 -26 -1.5 -105t-0.5 -109zM387 578q-2 4 -2 14.5t2 12.5q13 0 50 -1.5t62 -1.5q65 1 129 3q3 -3 2.5 -13.5t-2.5 -13.5q-29 -5 -36.5 -6.5t-26 -8.5t-31.5 -19t-30 -32
q-130 -153 -137 -160v-4q33 -57 105 -147.5t120 -138.5q26 -24 44 -30q16 -5 48 -8q2 -3 0.5 -13.5t-3.5 -13.5q-36 -5 -110.5 -2.5t-93.5 10.5q-25 9 -59 46q-56 63 -158 217q-5 8 -15 16q0 14 4 15q74 42 171 173q41 55 41 76q0 14 -17 19q-18 7 -57 11zM375 -27
q17 0 34.5 -19.5t17.5 -52.5q0 -48 -35.5 -80t-91.5 -47q-3 1 -7 10.5t-3 12.5q40 18 54 33.5t14 37.5q0 34 -57 53q-1 2 -1 8.5t1 8.5q10 10 33 22.5t41 12.5z" />
    <glyph glyph-name="uni0137" unicode="&#x137;" horiz-adv-x="487" 
d="M260 367q-2 4 -0.5 14.5t3.5 12.5q105 -2 194 7q2 -2 2.5 -12.5t-2.5 -14.5q-52 -10 -78 -35q-54 -54 -83 -88v-5q13 -27 69.5 -102t82.5 -99q13 -12 23.5 -15.5t36.5 -5.5q2 -3 0.5 -14t-3.5 -13q-65 -8 -138 -4q-34 0 -58 27q-23 27 -93 137q-16 26 -24 31
q1 -63 1 -113q1 -25 6.5 -33.5t22.5 -12.5l28 -5q2 -4 0.5 -14t-4.5 -13q-8 0 -46.5 1.5t-74.5 1.5q-25 0 -60.5 -1.5t-49.5 -1.5q-2 3 -2 14t2 13q23 3 33 7q15 6 18 40q2 27 2 176q-1 306 -3 327q-2 25 -19 30q-15 6 -33 8q-2 4 -2 13.5t2 11.5q48 2 103 12t81 20
q7 -5 7 -15q-9 -16 -11 -113q-1 -58 -1 -330q18 3 44 24q29 24 58 59.5t29 47.5q0 13 -16 17q-28 8 -47 8zM279 -37q17 0 34.5 -19.5t17.5 -52.5q0 -48 -35.5 -80t-91.5 -47q-3 1 -7 10.5t-3 12.5q40 18 54 33.5t14 37.5q0 34 -57 53q-1 2 -1 8.5t1 8.5q10 10 33 22.5
t41 12.5z" />
    <glyph glyph-name="uni0138" unicode="&#x138;" horiz-adv-x="483" 
d="M17 24q28 4 31 5q22 6 22 42q2 227 0 251q-2 22 -17 28q-5 2 -10.5 3.5t-12.5 3.5t-12 3q-2 4 -0.5 13.5t3.5 10.5q108 3 179 21q-3 -19 -5 -76v-126q39 13 87.5 67.5t48.5 70.5q0 11 -12 14q-11 5 -43 8q-3 1 -3 13t3 14q70 -1 182 6q2 -4 2 -15t-2 -14q-53 -8 -81 -36
l-76 -84q-2 -2 0 -7l27 -40q27 -40 42.5 -61.5t38.5 -51.5t36 -41q17 -16 63 -22q2 -2 1 -13t-3 -14q-20 -4 -135 -4q-27 0 -38.5 5t-24.5 23q-15 20 -95 147q-7 8 -18 11q0 -18 3 -111q1 -19 5.5 -27t18.5 -12q17 -4 30 -5q3 -4 2.5 -13.5t-3.5 -13.5q-6 0 -42.5 1.5
t-71.5 1.5q-38 0 -74 -1.5t-46 -1.5q-3 3 -2.5 13.5t2.5 13.5z" />
    <glyph glyph-name="uni0139" unicode="&#x139;" horiz-adv-x="546" 
d="M27 578q-2 4 -1.5 14.5t2.5 12.5q13 0 54 -1.5t88 -1.5t143 3q3 -2 3 -13t-3 -14q-37 -6 -44 -9q-15 -5 -19.5 -14t-6.5 -31q0 -1 -2 -190q-2 -192 3 -254q2 -28 19 -31q38 -7 124 -5q32 0 56 28q38 46 71 120q3 2 15 -1t13 -7q-3 -23 -23 -87.5t-35 -88.5
q-6 -12 -65 -12q-40 0 -126.5 2t-124.5 2q-36 0 -83 -1.5t-65 -1.5q-3 3 -3 14t3 13q42 5 54 9q23 6 27 42q4 46 4 247q0 180 -2 206q-1 11 -2.5 18t-8 14t-18.5 10q-6 2 -47 8zM262 783q9 0 35 -19t30 -27q1 -1 1 -5.5t-1 -5.5q-10 -10 -89 -51t-85 -41q-2 0 -9 8.5
t-7 12.5q100 114 125 128z" />
    <glyph glyph-name="uni013A" unicode="&#x13a;" horiz-adv-x="261" 
d="M15 -3q-2 3 -2 13t2 14q24 5 34 9q16 7 17 50q2 82 2 248q0 192 -4 241q-2 21 -13 25q-12 6 -39 9q-2 3 -1.5 12t2.5 12q40 3 99.5 15.5t84.5 23.5q8 -4 6 -12q-9 -17 -9 -95q-1 -49 -1 -224q0 -236 2 -266q1 -15 2.5 -22t5.5 -11t13 -7q15 -5 32 -8q5 -12 -3 -27
q-3 0 -20.5 0.5t-45.5 1.5t-57 1q-35 0 -69.5 -1.5t-37.5 -1.5zM199 826q9 0 35 -19t30 -27q1 -2 1 -6t-1 -5q-10 -10 -89 -51t-85 -41q-2 0 -9 8.5t-7 12.5q100 114 125 128z" />
    <glyph glyph-name="uni013B" unicode="&#x13b;" horiz-adv-x="546" 
d="M27 578q-2 4 -1.5 14.5t2.5 12.5q13 0 54 -1.5t88 -1.5t143 3q3 -2 3 -13t-3 -14q-37 -6 -44 -9q-15 -5 -19.5 -14t-6.5 -31q0 -1 -2 -190q-2 -192 3 -254q2 -28 19 -31q38 -7 124 -5q32 0 56 28q38 46 71 120q3 2 15 -1t13 -7q-3 -23 -23 -87.5t-35 -88.5
q-6 -12 -65 -12q-40 0 -126.5 2t-124.5 2q-36 0 -83 -1.5t-65 -1.5q-3 3 -3 14t3 13q42 5 54 9q23 6 27 42q4 46 4 247q0 180 -2 206q-1 11 -2.5 18t-8 14t-18.5 10q-6 2 -47 8zM283 -33q17 0 34.5 -19.5t17.5 -52.5q0 -48 -35.5 -80t-91.5 -47q-3 1 -7 10.5t-3 12.5
q40 18 54 33.5t14 37.5q0 34 -57 53q-1 2 -1 8.5t1 8.5q10 10 33 22.5t41 12.5z" />
    <glyph glyph-name="uni013C" unicode="&#x13c;" horiz-adv-x="261" 
d="M15 -3q-2 3 -2 13t2 14q24 5 34 9q16 7 17 50q2 82 2 248q0 192 -4 241q-2 21 -13 25q-12 6 -39 9q-2 3 -1.5 12t2.5 12q40 3 99.5 15.5t84.5 23.5q8 -4 6 -12q-9 -17 -9 -95q-1 -49 -1 -224q0 -236 2 -266q1 -15 2.5 -22t5.5 -11t13 -7q15 -5 32 -8q5 -12 -3 -27
q-3 0 -20.5 0.5t-45.5 1.5t-57 1q-35 0 -69.5 -1.5t-37.5 -1.5zM137 -33q17 0 34.5 -19.5t17.5 -52.5q0 -48 -35.5 -80t-91.5 -47q-3 1 -7 10.5t-3 12.5q40 18 54 33.5t14 37.5q0 34 -57 53q-1 2 -1 8.5t1 8.5q10 10 33 22.5t41 12.5z" />
    <glyph glyph-name="uni013D" unicode="&#x13d;" horiz-adv-x="546" 
d="M27 578q-2 4 -1.5 14.5t2.5 12.5q13 0 54 -1.5t88 -1.5t143 3q3 -2 3 -13t-3 -14q-37 -6 -44 -9q-15 -5 -19.5 -14t-6.5 -31q0 -1 -2 -190q-2 -192 3 -254q2 -28 19 -31q38 -7 124 -5q32 0 56 28q38 46 71 120q3 2 15 -1t13 -7q-3 -23 -23 -87.5t-35 -88.5
q-6 -12 -65 -12q-40 0 -126.5 2t-124.5 2q-36 0 -83 -1.5t-65 -1.5q-3 3 -3 14t3 13q42 5 54 9q23 6 27 42q4 46 4 247q0 180 -2 206q-1 11 -2.5 18t-8 14t-18.5 10q-6 2 -47 8zM466 630q8 0 8 -13q1 -26 -6.5 -90t-14.5 -92q-3 -8 -14.5 -19.5t-18.5 -14.5q-2 -1 -4.5 1
t-2.5 3q0 71 -14 178q0 5 3 8q6 7 31 23t33 16z" />
    <glyph glyph-name="uni013E" unicode="&#x13e;" horiz-adv-x="261" 
d="M15 -3q-2 3 -2 13t2 14q24 5 34 9q16 7 17 50q2 82 2 248q0 192 -4 241q-2 21 -13 25q-12 6 -39 9q-2 3 -1.5 12t2.5 12q40 3 99.5 15.5t84.5 23.5q8 -4 6 -12q-9 -17 -9 -95q-1 -49 -1 -224q0 -236 2 -266q1 -15 2.5 -22t5.5 -11t13 -7q15 -5 32 -8q5 -12 -3 -27
q-3 0 -20.5 0.5t-45.5 1.5t-57 1q-35 0 -69.5 -1.5t-37.5 -1.5zM312 672q8 0 8 -13q1 -26 -6.5 -90t-14.5 -92q-3 -8 -14.5 -19.5t-18.5 -14.5q-2 -1 -4.5 1t-2.5 3q0 71 -14 178q0 5 3 8q6 7 31 23t33 16z" />
    <glyph glyph-name="Ldot" unicode="&#x13f;" horiz-adv-x="546" 
d="M27 578q-2 4 -1.5 14.5t2.5 12.5q13 0 54 -1.5t88 -1.5t143 3q3 -2 3 -13t-3 -14q-37 -6 -44 -9q-15 -5 -19.5 -14t-6.5 -31q0 -1 -2 -190q-2 -192 3 -254q2 -28 19 -31q38 -7 124 -5q32 0 56 28q38 46 71 120q3 2 15 -1t13 -7q-3 -23 -23 -87.5t-35 -88.5
q-6 -12 -65 -12q-40 0 -126.5 2t-124.5 2q-36 0 -83 -1.5t-65 -1.5q-3 3 -3 14t3 13q42 5 54 9q23 6 27 42q4 46 4 247q0 180 -2 206q-1 11 -2.5 18t-8 14t-18.5 10q-6 2 -47 8zM480 324q0 -32 -25 -52q-7 -5 -32.5 -7.5t-31.5 1.5q-26 14 -33 42q-6 31 6 45q20 20 67 20
q23 0 41 -14q8 -12 8 -35z" />
    <glyph glyph-name="ldot" unicode="&#x140;" horiz-adv-x="261" 
d="M316 350q0 -33 -23 -54q-6 -5 -27.5 -7.5t-27.5 1.5q-22 14 -29 44q-2 7 -1 23t5 22q22 23 60 23q24 0 36 -15q7 -18 7 -37zM15 -3q-2 3 -2 13t2 14q24 5 34 9q16 7 17 50q2 82 2 248q0 192 -4 241q-2 21 -13 25q-12 6 -39 9q-2 3 -1.5 12t2.5 12q40 3 99.5 15.5
t84.5 23.5q8 -4 6 -12q-9 -17 -9 -95q-1 -49 -1 -224q0 -236 2 -266q1 -15 2.5 -22t5.5 -11t13 -7q15 -5 32 -8q5 -12 -3 -27q-3 0 -20.5 0.5t-45.5 1.5t-57 1q-35 0 -69.5 -1.5t-37.5 -1.5z" />
    <glyph glyph-name="Lslash" unicode="&#x141;" horiz-adv-x="546" 
d="M20 24q42 5 54 9q23 6 27 42q3 47 4 176l-57 -25q-2 1 -4.5 16t-1.5 18q8 4 18.5 8.5t24 10t20.5 8.5v35q0 180 -2 206q-1 11 -2.5 18t-8 14t-18.5 10q-6 2 -47 8q-2 4 -1.5 14.5t2.5 12.5q13 0 54 -1.5t88 -1.5t143 3q3 -2 3 -13t-3 -14q-37 -6 -44 -9q-15 -5 -19.5 -14
t-6.5 -31q0 -1 -2 -182q48 19 131 56q2 -1 4 -16t1 -19l-136 -57q-2 -173 3 -226q2 -28 19 -31q38 -7 124 -5q32 0 56 28q43 51 71 120q3 2 15 -1.5t13 -7.5q-4 -30 -23.5 -90t-34.5 -84q-6 -13 -65 -13q-40 0 -126.5 2t-124.5 2q-36 0 -83 -1.5t-65 -1.5q-3 3 -3 14t3 13z
" />
    <glyph glyph-name="lslash" unicode="&#x142;" horiz-adv-x="271" 
d="M266 395l-63 -31q0 -262 2 -292q2 -21 5 -28t16 -12q8 -2 37 -8q4 -11 -4 -27q-10 0 -49.5 1.5t-77.5 1.5q-20 0 -57.5 -1.5t-53.5 -1.5q-1 4 -1 14t1 13q28 5 39 9q16 7 17 51q0 10 0.5 112t0.5 112l-55 -24q-3 3 -3 16t3 16q2 1 21.5 9.5t33.5 14.5q0 183 -4 232
q-2 21 -13 25q-11 5 -41 9q-2 3 -1.5 12t2.5 12q40 3 100.5 15.5t85.5 23.5q6 -6 6 -13q-9 -18 -9 -94l-1 -164l60 28q2 -3 3.5 -16t-0.5 -15z" />
    <glyph glyph-name="uni0143" unicode="&#x143;" horiz-adv-x="688" 
d="M12 578q-1 2 -1 13.5t2 13.5q16 0 65.5 -1.5t79.5 -1.5q44 0 66 2q5 -13 35 -53q205 -269 295 -377q1 0 1.5 0.5t1.5 0.5q2 276 -4 337q-3 26 -12.5 38t-32.5 19q-23 5 -58 9q-2 3 -1.5 14t2.5 13q10 0 54 -1.5t76 -1.5q27 0 65 1.5t43 1.5q3 -3 3 -14t-3 -13
q-28 -4 -39 -8q-22 -7 -30.5 -20t-10.5 -42q-8 -123 -8 -377q0 -23 0.5 -71.5t0.5 -64.5q-12 1 -45.5 0.5t-48.5 -1.5q-12 16 -351 469q-1 2 -2.5 1.5t-1.5 -2.5q-6 -223 1 -366q2 -31 12.5 -44.5t32.5 -18.5l56 -9q2 -2 2 -12.5t-3 -14.5q-13 0 -54.5 1.5t-65.5 1.5
q-33 0 -74 -1.5t-51 -1.5q-2 3 -2 14t2 13q36 5 56 11q29 10 34 56q10 83 10 406q0 21 -10.5 41t-27.5 26q-32 12 -59 14zM444 780q9 0 35 -19t30 -27q1 -2 1 -6t-1 -5q-10 -10 -89 -51t-85 -41q-2 0 -9 8.5t-7 12.5q100 114 125 128z" />
    <glyph glyph-name="uni0144" unicode="&#x144;" horiz-adv-x="522" 
d="M20 24q11 1 29 6q20 5 21 40q2 58 2 149q0 78 -2 88q-3 24 -44 39q-3 13 3 23q103 12 166 43q1 0 4 -7q-2 -26 -2 -56q0 -2 1.5 -2.5t3.5 0.5q77 61 127 61q66 0 101 -54q24 -38 24 -116q0 -166 1 -181q0 -11 7 -16q17 -13 46 -17q1 -4 -0.5 -14t-4.5 -13q-2 0 -35 1.5
t-73 1.5q-11 0 -113 -3q-2 3 -2 14t2 13q11 2 26 6q17 5 18 32q2 38 2 113t-5 102q-8 32 -30 46q-18 11 -42 11q-22 0 -45 -14q-8 -3 -8 -14q0 -190 2 -239q1 -20 6 -27.5t17 -10.5q17 -4 27 -5q2 -2 1 -13t-3 -14q-114 3 -117 3q-44 0 -110 -3q-2 4 -2.5 13.5t1.5 13.5z
M289 598q7 3 45.5 5.5t47.5 -0.5q6 -3 3 -12q-6 -12 -57.5 -73.5t-69.5 -80.5q-3 -2 -13 3.5t-11 9.5q29 80 55 148z" />
    <glyph glyph-name="uni0145" unicode="&#x145;" horiz-adv-x="688" 
d="M12 578q-1 2 -1 13.5t2 13.5q16 0 65.5 -1.5t79.5 -1.5q44 0 66 2q5 -13 35 -53q205 -269 295 -377q1 0 1.5 0.5t1.5 0.5q2 276 -4 337q-3 26 -12.5 38t-32.5 19q-23 5 -58 9q-2 3 -1.5 14t2.5 13q10 0 54 -1.5t76 -1.5q27 0 65 1.5t43 1.5q3 -3 3 -14t-3 -13
q-28 -4 -39 -8q-22 -7 -30.5 -20t-10.5 -42q-8 -123 -8 -377q0 -23 0.5 -71.5t0.5 -64.5q-12 1 -45.5 0.5t-48.5 -1.5q-12 16 -351 469q-1 2 -2.5 1.5t-1.5 -2.5q-6 -223 1 -366q2 -31 12.5 -44.5t32.5 -18.5l56 -9q2 -2 2 -12.5t-3 -14.5q-13 0 -54.5 1.5t-65.5 1.5
q-33 0 -74 -1.5t-51 -1.5q-2 3 -2 14t2 13q36 5 56 11q29 10 34 56q10 83 10 406q0 21 -10.5 41t-27.5 26q-32 12 -59 14zM361 -28q17 0 34.5 -19.5t17.5 -52.5q0 -48 -35.5 -80t-91.5 -47q-3 1 -7 10.5t-3 12.5q40 18 54 33.5t14 37.5q0 34 -57 53q-1 2 -1 8.5t1 8.5
q10 10 33 22.5t41 12.5z" />
    <glyph glyph-name="uni0146" unicode="&#x146;" horiz-adv-x="522" 
d="M20 24q11 1 29 6q20 5 21 40q2 58 2 149q0 78 -2 88q-3 24 -44 39q-3 13 3 23q103 12 166 43q1 0 4 -7q-2 -26 -2 -56q0 -2 1.5 -2.5t3.5 0.5q77 61 127 61q66 0 101 -54q24 -38 24 -116q0 -166 1 -181q0 -11 7 -16q17 -13 46 -17q1 -4 -0.5 -14t-4.5 -13q-2 0 -35 1.5
t-73 1.5q-11 0 -113 -3q-2 3 -2 14t2 13q11 2 26 6q17 5 18 32q2 38 2 113t-5 102q-8 32 -30 46q-18 11 -42 11q-22 0 -45 -14q-8 -3 -8 -14q0 -190 2 -239q1 -20 6 -27.5t17 -10.5q17 -4 27 -5q2 -2 1 -13t-3 -14q-114 3 -117 3q-44 0 -110 -3q-2 4 -2.5 13.5t1.5 13.5z
M274 -37q17 0 34.5 -19.5t17.5 -52.5q0 -48 -35.5 -80t-91.5 -47q-3 1 -7 10.5t-3 12.5q40 18 54 33.5t14 37.5q0 34 -57 53q-1 2 -1 8.5t1 8.5q10 10 33 22.5t41 12.5z" />
    <glyph glyph-name="uni0147" unicode="&#x147;" horiz-adv-x="688" 
d="M12 578q-1 2 -1 13.5t2 13.5q16 0 65.5 -1.5t79.5 -1.5q44 0 66 2q5 -13 35 -53q205 -269 295 -377q1 0 1.5 0.5t1.5 0.5q2 276 -4 337q-3 26 -12.5 38t-32.5 19q-23 5 -58 9q-2 3 -1.5 14t2.5 13q10 0 54 -1.5t76 -1.5q27 0 65 1.5t43 1.5q3 -3 3 -14t-3 -13
q-28 -4 -39 -8q-22 -7 -30.5 -20t-10.5 -42q-8 -123 -8 -377q0 -23 0.5 -71.5t0.5 -64.5q-12 1 -45.5 0.5t-48.5 -1.5q-12 16 -351 469q-1 2 -2.5 1.5t-1.5 -2.5q-6 -223 1 -366q2 -31 12.5 -44.5t32.5 -18.5l56 -9q2 -2 2 -12.5t-3 -14.5q-13 0 -54.5 1.5t-65.5 1.5
q-33 0 -74 -1.5t-51 -1.5q-2 3 -2 14t2 13q36 5 56 11q29 10 34 56q10 83 10 406q0 21 -10.5 41t-27.5 26q-32 12 -59 14zM365 631q-3 -5 -16 -5q-11 11 -64 55.5t-73 58.5q0 4 5.5 12.5t7.5 8.5q5 0 60.5 -23t69.5 -30q1 -1 4 -1t4 1q16 9 66 31t54 22t8.5 -8.5t3.5 -11.5
q-25 -19 -72.5 -59t-57.5 -51z" />
    <glyph glyph-name="uni0148" unicode="&#x148;" horiz-adv-x="522" 
d="M20 24q11 1 29 6q20 5 21 40q2 58 2 149q0 78 -2 88q-3 24 -44 39q-3 13 3 23q103 12 166 43q1 0 4 -7q-2 -26 -2 -56q0 -2 1.5 -2.5t3.5 0.5q77 61 127 61q66 0 101 -54q24 -38 24 -116q0 -166 1 -181q0 -11 7 -16q17 -13 46 -17q1 -4 -0.5 -14t-4.5 -13q-2 0 -35 1.5
t-73 1.5q-11 0 -113 -3q-2 3 -2 14t2 13q11 2 26 6q17 5 18 32q2 38 2 113t-5 102q-8 32 -30 46q-18 11 -42 11q-22 0 -45 -14q-8 -3 -8 -14q0 -190 2 -239q1 -20 6 -27.5t17 -10.5q17 -4 27 -5q2 -2 1 -13t-3 -14q-114 3 -117 3q-44 0 -110 -3q-2 4 -2.5 13.5t1.5 13.5z
M271 523q41 71 57 81q18 12 40 9q2 0 3 -2.5t0 -3.5q-67 -103 -92 -159q-1 -3 -14.5 -7.5t-17.5 -4.5q-19 43 -49 93.5t-44 68.5q2 4 21.5 10.5t27.5 6.5q7 -2 28 -34.5t34 -57.5q3 -1 6 0z" />
    <glyph glyph-name="uni0149" unicode="&#x149;" horiz-adv-x="522" 
d="M20 24q11 1 29 6q20 5 21 40q2 58 2 149q0 78 -2 88q-3 24 -44 39q-3 13 3 23q103 12 166 43q1 0 4 -7q-2 -26 -2 -56q0 -2 1.5 -2.5t3.5 0.5q77 61 127 61q66 0 101 -54q24 -38 24 -116q0 -166 1 -181q0 -11 7 -16q17 -13 46 -17q1 -4 -0.5 -14t-4.5 -13q-2 0 -35 1.5
t-73 1.5q-11 0 -113 -3q-2 3 -2 14t2 13q11 2 26 6q17 5 18 32q2 38 2 113t-5 102q-8 32 -30 46q-18 11 -42 11q-22 0 -45 -14q-8 -3 -8 -14q0 -190 2 -239q1 -20 6 -27.5t17 -10.5q17 -4 27 -5q2 -2 1 -13t-3 -14q-114 3 -117 3q-44 0 -110 -3q-2 4 -2.5 13.5t1.5 13.5z
M126 614q20 0 37 -20t17 -52q0 -37 -30 -65t-79 -40q-10 6 -7 21q34 15 45 28t11 31q0 30 -57 45q-6 9 -1 16q9 11 30 23.5t34 12.5z" />
    <glyph glyph-name="Eng" unicode="&#x14a;" horiz-adv-x="688" 
d="M9 24q34 4 55 11q30 10 35 56q10 83 10 407q0 21 -10.5 40.5t-27.5 25.5q-32 12 -59 14q-1 2 -1 13.5t2 13.5q18 0 72 -1.5t80 -1.5q48 0 59 2q5 -14 35 -55q86 -110 296 -363q1 0 1.5 0.5t1.5 0.5q0 279 -5 326q-3 26 -12 37.5t-32 18.5q-22 5 -59 9q-2 3 -2 14t2 13
q16 0 58 -1.5t68 -1.5q20 0 62 1.5t51 1.5q1 -2 1 -13.5t-1 -13.5q-28 -4 -39 -8q-22 -7 -30.5 -19.5t-10.5 -41.5q-8 -123 -8 -354q-1 -79 -1 -103q0 -276 -141 -276q-38 0 -53 21q-4 7 -5.5 33.5t2.5 41.5l7 4q29 -16 70 -16q32 0 49.5 20.5t17.5 53.5q0 20 -25 57
q-23 32 -181.5 235.5t-183.5 237.5q-5 3 -5 -1q-2 -81 -1 -209t3 -158q1 -31 11.5 -44.5t33.5 -18.5l55 -9q2 -3 2 -13t-2 -14q-13 0 -53 1.5t-65 1.5q-33 0 -75 -1.5t-52 -1.5q-2 3 -2 14t2 13z" />
    <glyph glyph-name="eng" unicode="&#x14b;" horiz-adv-x="514" 
d="M19 24q13 2 30 6q20 5 21 40q2 58 2 149q0 77 -1 88q-3 23 -45 39q-3 13 3 23q101 11 166 43l4 -7q-2 -26 -2 -56q0 -2 1.5 -2.5t3.5 0.5q74 61 125 61q66 0 101 -55q26 -39 26 -117q0 -138 -1 -181q-4 -90 -23 -141t-57 -98q-26 -33 -64 -57t-65 -24q-39 0 -52 15
q-2 9 1.5 37t9.5 43q68 -40 91 -40q10 0 16 5t9.5 19t5 31.5t2.5 49.5q1 25 1 151q3 158 -6 221q-6 40 -32 56q-18 11 -42 11q-18 0 -42 -12q-8 -4 -8 -19q0 -187 2 -236q2 -32 23 -38q20 -4 28 -5q1 -3 0.5 -13t-2.5 -14q-114 3 -118 3q-31 0 -112 -3q-6 16 0 27z" />
    <glyph glyph-name="uni014C" unicode="&#x14c;" horiz-adv-x="746" 
d="M371 -18q-151 0 -239 91q-84 88 -84 229q0 131 76 208q94 110 256 110q150 0 233.5 -88t83.5 -222q0 -123 -59 -202q-93 -126 -267 -126zM402 19q48 0 80 34q61 61 61 223q0 82 -22 156t-66 114q-42 38 -99 38q-47 0 -78 -25q-76 -58 -76 -225q0 -79 23.5 -156t72.5 -120
q46 -39 104 -39zM266 736q20 -2 58 -2h179q0 -11 -8.5 -33.5t-11.5 -23.5q-21 -4 -197 -4l-39 2q1 8 9 33t10 28z" />
    <glyph glyph-name="uni014D" unicode="&#x14d;" horiz-adv-x="506" 
d="M259 408q99 0 155.5 -58t56.5 -148q0 -123 -91 -179q-56 -35 -130 -35q-105 0 -160.5 60t-55.5 153q0 111 89 168q59 39 136 39zM238 375q-16 0 -29 -10q-37 -29 -37 -136q0 -101 26.5 -155t68.5 -54q20 0 31 11q34 31 34 142q0 91 -24.5 146.5t-69.5 55.5zM153 550
q18 -2 49 -2h167q0 -11 -7 -35t-10 -25q-14 -3 -180 -3q-31 0 -35 2q1 8 7.5 34t8.5 29z" />
    <glyph glyph-name="uni014E" unicode="&#x14e;" horiz-adv-x="746" 
d="M371 -18q-151 0 -239 91q-84 88 -84 229q0 131 76 208q94 110 256 110q150 0 233.5 -88t83.5 -222q0 -123 -59 -202q-93 -126 -267 -126zM402 19q48 0 80 34q61 61 61 223q0 82 -22 156t-66 114q-42 38 -99 38q-47 0 -78 -25q-76 -58 -76 -225q0 -79 23.5 -156t72.5 -120
q46 -39 104 -39zM381 716q52 0 89 46q2 2 11.5 7.5t12.5 5.5q2 0 4.5 -1.5t1.5 -2.5q-15 -47 -55.5 -79t-92.5 -32q-49 0 -79 22t-30 54q0 7 10.5 20t19.5 19q2 1 6 0.5t5 -2.5q12 -29 33.5 -43t63.5 -14z" />
    <glyph glyph-name="uni014F" unicode="&#x14f;" horiz-adv-x="506" 
d="M259 408q99 0 155.5 -58t56.5 -148q0 -123 -91 -179q-56 -35 -130 -35q-105 0 -160.5 60t-55.5 153q0 111 89 168q59 39 136 39zM238 375q-16 0 -29 -10q-37 -29 -37 -136q0 -101 26.5 -155t68.5 -54q20 0 31 11q34 31 34 142q0 91 -24.5 146.5t-69.5 55.5zM262 518
q52 0 85 52q2 3 10.5 9t11.5 6q6 0 6 -5q-11 -52 -48 -86.5t-91 -34.5q-44 0 -73.5 22.5t-29.5 59.5q0 8 13 22.5t25 21.5q2 1 6 0.5t4 -1.5q13 -66 81 -66z" />
    <glyph glyph-name="uni0150" unicode="&#x150;" horiz-adv-x="746" 
d="M371 -18q-151 0 -239 91q-84 88 -84 229q0 131 76 208q94 110 256 110q150 0 233.5 -88t83.5 -222q0 -123 -59 -202q-93 -126 -267 -126zM402 19q48 0 80 34q61 61 61 223q0 82 -22 156t-66 114q-42 38 -99 38q-47 0 -78 -25q-76 -58 -76 -225q0 -79 23.5 -156t72.5 -120
q46 -39 104 -39zM307 770q9 4 41 7t42 1q2 -1 3 -4.5t0 -5.5q-4 -9 -39 -55.5t-48 -61.5q-2 -1 -12.5 3t-11.5 6q12 79 25 110zM445 783q9 5 43 7.5t42 -0.5q6 -3 3 -9q-6 -13 -42.5 -62.5t-50.5 -63.5q-3 -1 -13 3t-12 7q18 87 30 118z" />
    <glyph glyph-name="uni0151" unicode="&#x151;" horiz-adv-x="506" 
d="M259 408q99 0 155.5 -58t56.5 -148q0 -123 -91 -179q-56 -35 -130 -35q-105 0 -160.5 60t-55.5 153q0 111 89 168q59 39 136 39zM238 375q-16 0 -29 -10q-37 -29 -37 -136q0 -101 26.5 -155t68.5 -54q20 0 31 11q34 31 34 142q0 91 -24.5 146.5t-69.5 55.5zM201 603
q7 2 35.5 4t37.5 0q1 -1 1.5 -5t-0.5 -6q-22 -42 -95 -152q-3 -1 -12 2t-10 6q31 111 43 151zM332 614q10 3 35.5 4t36.5 -2q3 -3 1 -10q-12 -23 -45 -77t-50 -79q-4 -1 -12.5 2t-9.5 6q7 23 23.5 84t20.5 72z" />
    <glyph glyph-name="OE" unicode="&#x152;" horiz-adv-x="984" 
d="M404 18q46 0 75 32q32 32 48 95t16 132q0 82 -22 156t-68 115q-43 37 -99 37q-45 0 -74 -24q-79 -61 -79 -226q0 -79 25 -157.5t74 -121.5q44 -38 104 -38zM880 -5q-335 5 -363 5q-21 0 -39 -6q-58 -13 -104 -13q-156 0 -240 91q-43 45 -64.5 107t-21.5 123q0 130 75 208
q94 110 259 110q46 0 86 -9q26 -6 67 -9h256q98 0 124 5q1 0 4 -3q-8 -30 -15 -148q-4 -2 -15 -3t-14 1q-8 52 -22 77q-13 24 -41 27q-17 2 -113 3t-111 -1l-4 -5q101 -72 109 -221q0 -6 5 -6q88 0 103 1t23.5 9.5t13.5 28.5q2 7 5 19.5t4 16.5q3 3 15.5 2t15.5 -4
q-5 -60 -5 -94q0 -23 4 -99q-4 -2 -16 -3t-16 2q-5 27 -9 41q-9 26 -36 30q-17 2 -105 2q-4 0 -4 -6q-3 -134 -103 -217q-2 -3 -1 -6.5t5 -4.5q61 -5 215 -5q38 0 55 6t31 23q34 45 53 95q4 1 15 -2.5t13 -6.5q-3 -18 -15 -65.5t-20 -67.5q-7 -19 -16.5 -23.5t-42.5 -4.5z
" />
    <glyph glyph-name="oe" unicode="&#x153;" horiz-adv-x="740" 
d="M238 375q-16 0 -29 -10q-39 -31 -39 -137q0 -100 28.5 -153t70.5 -53q20 0 32 10q36 29 36 139q0 92 -25.5 148t-73.5 56zM400 40q0 2 -2 0q-62 -51 -147 -51q-107 0 -162 59.5t-55 152.5q0 109 88 167q62 40 136 40q83 -3 143 -52q4 -4 8 0q69 52 137 52
q36 0 64.5 -13.5t44.5 -33.5t25 -37t11 -31q7 -12 16 -16q0 -11 -5 -21q-27 -6 -234 -28q-6 0 -6 -10q3 -65 41 -106t98 -41q63 0 112 41q2 -2 3.5 -13.5t0.5 -14.5q-32 -41 -84.5 -68t-101.5 -27q-78 0 -131 51zM517 375q-26 0 -42 -32t-14 -78q0 -6 5 -6q93 8 109 13
q3 1 6 9q-3 34 -20.5 64t-43.5 30z" />
    <glyph glyph-name="uni0154" unicode="&#x154;" horiz-adv-x="620" 
d="M27 578q-2 4 -1.5 15t3.5 12q11 0 63 -1.5t71 -1.5q30 0 89.5 1t97.5 1q89 0 136.5 -39.5t47.5 -109.5q0 -106 -117 -151q-3 -3 -1 -7q20 -37 74.5 -118t88.5 -113q27 -26 39.5 -32t48.5 -10q1 -2 -1 -13.5t-4 -13.5q-43 -5 -105.5 -1.5t-91.5 16.5q-31 14 -48 40
q-17 21 -39 55t-50.5 84t-34.5 59q-10 19 -29 19q-5 1 -21 1q-4 0 -4 -7q0 -85 2 -181q2 -26 7.5 -36t21.5 -14l50 -8q3 -2 2.5 -13.5t-3.5 -13.5q-6 0 -54 1.5t-92 1.5q-50 0 -96 -2l-46 -1q-3 3 -3 13t3 13q39 7 41 7q16 4 22 15t8 37q3 45 3 239q0 153 -2 201
q-3 43 -29 48q-27 7 -47 8zM273 569q-13 0 -25 -4q-6 -5 -6 -15q-3 -26 -3 -236q0 -6 6 -6q78 -5 110 11q42 23 42 104q0 64 -33 105t-91 41zM363 787q9 0 35 -19t30 -27q1 -1 1 -5.5t-1 -5.5q-10 -10 -89 -51t-85 -41q-2 0 -9 8.5t-7 12.5q100 114 125 128z" />
    <glyph glyph-name="uni0155" unicode="&#x155;" horiz-adv-x="366" 
d="M311 408q41 0 56 -29q1 -2 1 -10t-1 -11q-2 -13 -17 -44t-26 -44q-6 -6 -12 -3q-40 42 -78 42q-20 0 -31 -11q-6 -4 -6 -15q-1 -35 0 -116t2 -92q2 -21 6 -29.5t18 -12.5q17 -5 48 -9q2 -3 0.5 -13.5t-4.5 -13.5q-7 0 -53.5 1.5t-85.5 1.5q-23 0 -62.5 -1.5t-48.5 -1.5
q-2 4 -2 14t2 13q29 5 37 8q15 5 16 36q4 36 2 153q0 68 -2 84q-1 8 -3 13t-12.5 13t-30.5 16q-1 3 0.5 11.5t3.5 10.5q103 10 164 43q6 0 6 -4q-4 -56 -4 -79q0 -5 5 -2q25 29 55 56q27 25 57 25zM221 598q7 3 45.5 5.5t47.5 -0.5q6 -3 3 -12q-6 -12 -57.5 -73.5
t-69.5 -80.5q-3 -2 -13 3.5t-11 9.5q29 80 55 148z" />
    <glyph glyph-name="uni0156" unicode="&#x156;" horiz-adv-x="620" 
d="M27 578q-2 4 -1.5 15t3.5 12q11 0 63 -1.5t71 -1.5q30 0 89.5 1t97.5 1q89 0 136.5 -39.5t47.5 -109.5q0 -106 -117 -151q-3 -3 -1 -7q20 -37 74.5 -118t88.5 -113q27 -26 39.5 -32t48.5 -10q1 -2 -1 -13.5t-4 -13.5q-43 -5 -105.5 -1.5t-91.5 16.5q-31 14 -48 40
q-17 21 -39 55t-50.5 84t-34.5 59q-10 19 -29 19q-5 1 -21 1q-4 0 -4 -7q0 -85 2 -181q2 -26 7.5 -36t21.5 -14l50 -8q3 -2 2.5 -13.5t-3.5 -13.5q-6 0 -54 1.5t-92 1.5q-50 0 -96 -2l-46 -1q-3 3 -3 13t3 13q39 7 41 7q16 4 22 15t8 37q3 45 3 239q0 153 -2 201
q-3 43 -29 48q-27 7 -47 8zM273 569q-13 0 -25 -4q-6 -5 -6 -15q-3 -26 -3 -236q0 -6 6 -6q78 -5 110 11q42 23 42 104q0 64 -33 105t-91 41zM355 -30q17 0 34.5 -19.5t17.5 -52.5q0 -48 -35.5 -80t-91.5 -47q-3 1 -7 10.5t-3 12.5q40 18 54 33.5t14 37.5q0 34 -57 53
q-1 2 -1 8.5t1 8.5q10 10 33 22.5t41 12.5z" />
    <glyph glyph-name="uni0157" unicode="&#x157;" horiz-adv-x="366" 
d="M311 408q41 0 56 -29q1 -2 1 -10t-1 -11q-2 -13 -17 -44t-26 -44q-6 -6 -12 -3q-40 42 -78 42q-20 0 -31 -11q-6 -4 -6 -15q-1 -35 0 -116t2 -92q2 -21 6 -29.5t18 -12.5q17 -5 48 -9q2 -3 0.5 -13.5t-4.5 -13.5q-7 0 -53.5 1.5t-85.5 1.5q-23 0 -62.5 -1.5t-48.5 -1.5
q-2 4 -2 14t2 13q29 5 37 8q15 5 16 36q4 36 2 153q0 68 -2 84q-1 8 -3 13t-12.5 13t-30.5 16q-1 3 0.5 11.5t3.5 10.5q103 10 164 43q6 0 6 -4q-4 -56 -4 -79q0 -5 5 -2q25 29 55 56q27 25 57 25zM142 -31q17 0 34.5 -19.5t17.5 -52.5q0 -48 -35.5 -80t-91.5 -47
q-3 1 -7 10.5t-3 12.5q40 18 54 33.5t14 37.5q0 34 -57 53q-1 2 -1 8.5t1 8.5q10 10 33 22.5t41 12.5z" />
    <glyph glyph-name="uni0158" unicode="&#x158;" horiz-adv-x="620" 
d="M27 578q-2 4 -1.5 15t3.5 12q11 0 63 -1.5t71 -1.5q30 0 89.5 1t97.5 1q89 0 136.5 -39.5t47.5 -109.5q0 -106 -117 -151q-3 -3 -1 -7q20 -37 74.5 -118t88.5 -113q27 -26 39.5 -32t48.5 -10q1 -2 -1 -13.5t-4 -13.5q-43 -5 -105.5 -1.5t-91.5 16.5q-31 14 -48 40
q-17 21 -39 55t-50.5 84t-34.5 59q-10 19 -29 19q-5 1 -21 1q-4 0 -4 -7q0 -85 2 -181q2 -26 7.5 -36t21.5 -14l50 -8q3 -2 2.5 -13.5t-3.5 -13.5q-6 0 -54 1.5t-92 1.5q-50 0 -96 -2l-46 -1q-3 3 -3 13t3 13q39 7 41 7q16 4 22 15t8 37q3 45 3 239q0 153 -2 201
q-3 43 -29 48q-27 7 -47 8zM273 569q-13 0 -25 -4q-6 -5 -6 -15q-3 -26 -3 -236q0 -6 6 -6q78 -5 110 11q42 23 42 104q0 64 -33 105t-91 41zM290 642q-3 -5 -16 -5q-11 11 -64 55.5t-73 58.5q0 4 5.5 12.5t7.5 8.5q5 0 60.5 -23t69.5 -30q1 -1 3.5 -1t4.5 1q16 9 66 31
t54 22t8.5 -8.5t3.5 -11.5q-25 -19 -72.5 -59t-57.5 -51z" />
    <glyph glyph-name="uni0159" unicode="&#x159;" horiz-adv-x="366" 
d="M311 408q41 0 56 -29q1 -2 1 -10t-1 -11q-2 -13 -17 -44t-26 -44q-6 -6 -12 -3q-40 42 -78 42q-20 0 -31 -11q-6 -4 -6 -15q-1 -35 0 -116t2 -92q2 -21 6 -29.5t18 -12.5q17 -5 48 -9q2 -3 0.5 -13.5t-4.5 -13.5q-7 0 -53.5 1.5t-85.5 1.5q-23 0 -62.5 -1.5t-48.5 -1.5
q-2 4 -2 14t2 13q29 5 37 8q15 5 16 36q4 36 2 153q0 68 -2 84q-1 8 -3 13t-12.5 13t-30.5 16q-1 3 0.5 11.5t3.5 10.5q103 10 164 43q6 0 6 -4q-4 -56 -4 -79q0 -5 5 -2q25 29 55 56q27 25 57 25zM195 523q41 71 57 81q18 12 40 9q2 0 3 -2.5t0 -3.5q-67 -103 -92 -159
q-1 -3 -14.5 -7.5t-17.5 -4.5q-19 43 -49 93.5t-44 68.5q2 4 21.5 10.5t27.5 6.5q7 -2 28 -34.5t34 -57.5q3 -1 6 0z" />
    <glyph glyph-name="uni015A" unicode="&#x15a;" horiz-adv-x="479" 
d="M59 175q29 -92 84 -134q38 -26 92 -26q38 0 61.5 22.5t23.5 60.5q0 39 -22.5 68t-86.5 69q-82 53 -118 95.5t-36 110.5q0 84 60 131.5t149 47.5q43 0 96 -7.5t63 -8.5q-12 -67 -17 -145q-3 -2 -13.5 -2.5t-13.5 1.5q-13 85 -46 109q-32 22 -77 22q-40 0 -64 -24.5
t-24 -62.5q0 -58 60 -100q25 -17 109 -70q56 -36 81 -73.5t25 -87.5q0 -83 -62.5 -136t-172.5 -53q-44 0 -87 10t-62 21q-7 10 -17 68t-12 87q2 4 13 6.5t14 0.5zM331 798q9 0 35 -19t30 -27q1 -2 1 -6t-1 -5q-10 -10 -89 -51t-85 -41q-2 0 -9 8.5t-7 12.5q100 114 125 128z
" />
    <glyph glyph-name="uni015B" unicode="&#x15b;" horiz-adv-x="370" 
d="M321 397q-8 -36 -12 -116q-4 -2 -14 -2t-12 1q-12 68 -45 87q-20 11 -43 11t-37.5 -13t-14.5 -32q0 -23 17.5 -39.5t78.5 -45.5q58 -28 79.5 -55t21.5 -68q0 -62 -51.5 -99t-124.5 -37q-60 0 -122 20l-9 123q2 2 12 5t14 2q21 -80 64 -105q25 -15 53 -15q26 0 41 12
t15 33q0 20 -14 34.5t-50 32.5q-73 37 -99.5 68.5t-26.5 77.5q0 57 42 94t120 37q29 0 69 -6zM203 598q7 3 45.5 5.5t47.5 -0.5q6 -3 3 -12q-6 -12 -57.5 -73.5t-69.5 -80.5q-3 -2 -13 3.5t-11 9.5q29 80 55 148z" />
    <glyph glyph-name="uni015C" unicode="&#x15c;" horiz-adv-x="479" 
d="M59 175q29 -92 84 -134q38 -26 92 -26q38 0 61.5 22.5t23.5 60.5q0 39 -22.5 68t-86.5 69q-82 53 -118 95.5t-36 110.5q0 84 60 131.5t149 47.5q43 0 96 -7.5t63 -8.5q-12 -67 -17 -145q-3 -2 -13.5 -2.5t-13.5 1.5q-13 85 -46 109q-32 22 -77 22q-40 0 -64 -24.5
t-24 -62.5q0 -58 60 -100q25 -17 109 -70q56 -36 81 -73.5t25 -87.5q0 -83 -62.5 -136t-172.5 -53q-44 0 -87 10t-62 21q-7 10 -17 68t-12 87q2 4 13 6.5t14 0.5zM243 777q6 4 17 4q9 -10 62.5 -54.5t73.5 -59.5q0 -3 -5.5 -12t-7.5 -9q-5 0 -60 23t-69 30q-4 2 -9 0
q-16 -9 -65.5 -31t-53.5 -22t-9 9t-3 12q112 90 129 110z" />
    <glyph glyph-name="uni015D" unicode="&#x15d;" horiz-adv-x="370" 
d="M321 397q-8 -36 -12 -116q-4 -2 -14 -2t-12 1q-12 68 -45 87q-20 11 -43 11t-37.5 -13t-14.5 -32q0 -23 17.5 -39.5t78.5 -45.5q58 -28 79.5 -55t21.5 -68q0 -62 -51.5 -99t-124.5 -37q-60 0 -122 20l-9 123q2 2 12 5t14 2q21 -80 64 -105q25 -15 53 -15q26 0 41 12
t15 33q0 20 -14 34.5t-50 32.5q-73 37 -99.5 68.5t-26.5 77.5q0 57 42 94t120 37q29 0 69 -6zM182 531q-39 -70 -57 -81q-16 -9 -40 -9q-1 0 -2.5 2.5t-0.5 3.5q67 103 92 159q1 3 14.5 7t17.5 4q19 -43 49.5 -93.5t43.5 -66.5q-2 -4 -21.5 -11t-27.5 -7q-7 3 -28.5 35.5
t-33.5 56.5q-3 1 -6 0z" />
    <glyph glyph-name="uni015E" unicode="&#x15e;" horiz-adv-x="479" 
d="M59 175q29 -93 83 -134q39 -26 93 -26q38 0 61.5 22.5t23.5 60.5q0 39 -22.5 68t-86.5 69q-82 53 -118 95.5t-36 110.5q0 84 60 131.5t149 47.5q32 0 100 -8q27 -4 59 -6q-12 -68 -17 -144q-3 -3 -13.5 -3.5t-13.5 1.5q-15 84 -45 106q-30 23 -77 23q-40 0 -64.5 -25
t-24.5 -62q0 -58 60 -100q23 -17 61.5 -40.5t47.5 -29.5q56 -36 81 -73.5t25 -87.5q0 -76 -51 -126.5t-144 -60.5l-17 -26q26 -13 45 -27q26 -20 26 -51q0 -42 -41.5 -71.5t-71.5 -29.5q-37 0 -57 31q0 13 4 21q33 -18 64 -18q18 0 28.5 9t10.5 24q0 38 -75 62q0 5 1 8
q31 40 51 66q-39 -1 -85.5 8t-71.5 23q-7 10 -17 68t-12 87q2 4 13 6.5t14 0.5z" />
    <glyph glyph-name="uni015F" unicode="&#x15f;" horiz-adv-x="370" 
d="M321 397q-8 -36 -12 -114q-4 -2 -14 -3t-12 1q-12 68 -43 86q-20 11 -44 11q-23 0 -38 -13t-15 -32q0 -23 17.5 -39.5t78.5 -45.5q58 -28 79.5 -55t21.5 -68q0 -57 -41.5 -91t-98.5 -43l-21 -27q30 -16 44 -28q23 -21 23 -48q0 -40 -39.5 -67.5t-68.5 -27.5q-35 0 -53 29
q-3 12 4 22q31 -17 60 -17q37 0 37 30q0 35 -71 57q0 6 1 9q33 42 54 66q-65 -1 -128 20l-9 120q8 8 26 8q20 -77 61 -103q27 -15 56 -15q26 0 41 12t15 33q0 20 -14 34.5t-50 32.5q-73 37 -99.5 68.5t-26.5 77.5q0 57 42 94t120 37q29 0 69 -6z" />
    <glyph glyph-name="Scaron" unicode="&#x160;" horiz-adv-x="479" 
d="M59 175q29 -92 84 -134q38 -26 92 -26q38 0 61.5 22.5t23.5 60.5q0 39 -22.5 68t-86.5 69q-82 53 -118 95.5t-36 110.5q0 84 60 131.5t149 47.5q43 0 96 -7.5t63 -8.5q-12 -67 -17 -145q-3 -2 -13.5 -2.5t-13.5 1.5q-13 85 -46 109q-32 22 -77 22q-40 0 -64 -24.5
t-24 -62.5q0 -58 60 -100q25 -17 109 -70q56 -36 81 -73.5t25 -87.5q0 -83 -62.5 -136t-172.5 -53q-44 0 -87 10t-62 21q-7 10 -17 68t-12 87q2 4 13 6.5t14 0.5zM270 652q-3 -5 -16 -5q-11 11 -64 55.5t-73 58.5q0 4 5.5 12.5t7.5 8.5q5 0 60.5 -23t69.5 -30q1 -1 3.5 -1
t4.5 1q16 9 66 31t54 22t8.5 -8.5t3.5 -11.5q-25 -19 -72.5 -59t-57.5 -51z" />
    <glyph glyph-name="scaron" unicode="&#x161;" horiz-adv-x="370" 
d="M321 397q-8 -36 -12 -116q-4 -2 -14 -2t-12 1q-12 68 -45 87q-20 11 -43 11t-37.5 -13t-14.5 -32q0 -23 17.5 -39.5t78.5 -45.5q58 -28 79.5 -55t21.5 -68q0 -62 -51.5 -99t-124.5 -37q-60 0 -122 20l-9 123q2 2 12 5t14 2q21 -80 64 -105q25 -15 53 -15q26 0 41 12
t15 33q0 20 -14 34.5t-50 32.5q-73 37 -99.5 68.5t-26.5 77.5q0 57 42 94t120 37q29 0 69 -6zM201 523q41 71 57 81q18 12 40 9q2 0 3 -2.5t0 -3.5q-67 -103 -92 -159q-1 -3 -14.5 -7.5t-17.5 -4.5q-19 43 -49 93.5t-44 68.5q2 4 21.5 10.5t27.5 6.5q7 -2 28 -34.5t34 -57.5
q3 -1 6 0z" />
    <glyph glyph-name="uni0162" unicode="&#x162;" horiz-adv-x="629" 
d="M465 23q3 -2 2.5 -13.5t-3.5 -13.5q-16 0 -66 1.5t-85 1.5q-54 0 -108.5 -1.5t-62.5 -1.5q-3 4 -3 14.5t3 12.5q45 4 62 9q18 5 25.5 17.5t9.5 46.5q3 74 3 455q0 7 -5 7q-14 2 -48.5 2t-51.5 -2q-32 -3 -50 -34q-21 -37 -37 -85q-2 -2 -15 0.5t-14 6.5q13 65 18 163
q0 2 3.5 4.5t4.5 1.5q38 -13 90 -13h355q65 0 107 12q3 0 6 -6q-16 -60 -23 -169q-2 -2 -14.5 -2.5t-14.5 1.5q-8 56 -21 87q-7 17 -16 23.5t-24 8.5q-19 1 -60.5 1.5t-48.5 -0.5q-5 -2 -5 -8q0 -402 3 -469q2 -38 27 -48q10 -3 57 -10zM317 -34q17 0 34.5 -19.5t17.5 -52.5
q0 -48 -35.5 -80t-91.5 -47q-3 1 -7 10.5t-3 12.5q40 18 54 33.5t14 37.5q0 34 -57 53q-1 2 -1 8.5t1 8.5q10 10 33 22.5t41 12.5z" />
    <glyph glyph-name="uni0163" unicode="&#x163;" horiz-adv-x="308" 
d="M291 341q-15 0 -46.5 0.5t-48.5 0.5q-4 0 -4 -6q0 -19 -0.5 -81t-0.5 -86q0 -56 4 -74q9 -37 48 -37q33 0 53 12q4 -12 0 -27q-43 -55 -117 -55t-100 47q-14 27 -14 114q0 26 0.5 94.5t0.5 87.5q0 9 -6 11q-6 1 -22.5 2t-22.5 2q0 16 8 35q32 5 39 8q4 4 4 9v84
q26 8 62.5 25.5t48.5 27.5q12 3 19 2q-4 -40 -4 -135q0 -8 5 -8q55 0 103 4q-6 -30 -9 -57zM180 -39q17 0 34.5 -19.5t17.5 -52.5q0 -48 -35.5 -80t-91.5 -47q-3 1 -7 10.5t-3 12.5q40 18 54 33.5t14 37.5q0 34 -57 53q-1 2 -1 8.5t1 8.5q10 10 33 22.5t41 12.5z" />
    <glyph glyph-name="uni0164" unicode="&#x164;" horiz-adv-x="629" 
d="M465 23q3 -2 2.5 -13.5t-3.5 -13.5q-16 0 -66 1.5t-85 1.5q-54 0 -108.5 -1.5t-62.5 -1.5q-3 4 -3 14.5t3 12.5q45 4 62 9q18 5 25.5 17.5t9.5 46.5q3 74 3 455q0 7 -5 7q-14 2 -48.5 2t-51.5 -2q-32 -3 -50 -34q-21 -37 -37 -85q-2 -2 -15 0.5t-14 6.5q13 65 18 163
q0 2 3.5 4.5t4.5 1.5q38 -13 90 -13h355q65 0 107 12q3 0 6 -6q-16 -60 -23 -169q-2 -2 -14.5 -2.5t-14.5 1.5q-8 56 -21 87q-7 17 -16 23.5t-24 8.5q-19 1 -60.5 1.5t-48.5 -0.5q-5 -2 -5 -8q0 -402 3 -469q2 -38 27 -48q10 -3 57 -10zM322 641q-3 -5 -16 -5
q-11 11 -64 55.5t-73 58.5q0 4 5.5 12.5t7.5 8.5q5 0 60.5 -23t69.5 -30q1 -1 3.5 -1t4.5 1q16 9 66 31t54 22t8.5 -8.5t3.5 -11.5q-25 -19 -72.5 -59t-57.5 -51z" />
    <glyph glyph-name="uni0165" unicode="&#x165;" horiz-adv-x="308" 
d="M291 341q-15 0 -46.5 0.5t-48.5 0.5q-4 0 -4 -6q0 -19 -0.5 -81t-0.5 -86q0 -56 4 -74q9 -37 48 -37q33 0 53 12q4 -12 0 -27q-43 -55 -117 -55t-100 47q-14 27 -14 114q0 26 0.5 94.5t0.5 87.5q0 9 -6 11q-6 1 -22.5 2t-22.5 2q0 16 8 35q32 5 39 8q4 4 4 9v84
q26 8 62.5 25.5t48.5 27.5q12 3 19 2q-4 -40 -4 -135q0 -8 5 -8q55 0 103 4q-6 -30 -9 -57zM323 692q8 0 8 -13q1 -26 -6.5 -90t-14.5 -92q-3 -8 -14.5 -19.5t-18.5 -14.5q-2 -1 -4.5 1t-2.5 3q0 71 -14 178q0 5 3 8q6 7 31 23t33 16z" />
    <glyph glyph-name="Tbar" unicode="&#x166;" horiz-adv-x="629" 
d="M143 23q55 7 61 9q19 5 25.5 16.5t8.5 47.5q4 64 4 201q-20 0 -41.5 -0.5t-33 -1t-17.5 -0.5q0 27 7 34l29 -1h56v221q0 9 -6 9q-13 2 -47.5 2t-51.5 -2q-19 -1 -30.5 -9.5t-21.5 -27.5q-21 -41 -35 -83q-2 -2 -14.5 1t-14.5 6q13 67 18 164q0 2 3.5 4.5t5.5 1.5
q35 -13 89 -13h355q69 0 109 12q2 -1 4 -5q-16 -59 -23 -171q-3 -2 -15 -2.5t-14 1.5q-10 62 -21 90q-11 27 -37 30q-18 1 -60.5 1.5t-50.5 -0.5q-6 -2 -6 -10q0 -24 0.5 -102.5t0.5 -117.5h69l34 1q3 -20 -5 -33q-2 0 -33.5 0.5t-64.5 0.5q0 -182 2 -215q2 -39 27 -49
q18 -5 57 -10q3 -2 2.5 -13t-3.5 -14q-29 0 -75.5 2t-75.5 2t-85.5 -2t-84.5 -2q-4 4 -4 14.5t4 12.5z" />
    <glyph glyph-name="tbar" unicode="&#x167;" horiz-adv-x="308" 
d="M291 341q-15 0 -46.5 0.5t-48.5 0.5q-4 0 -4 -6q0 -10 -0.5 -43t-0.5 -52q18 0 49.5 0.5t36.5 0.5q0 -19 -5 -34l-81 1v-40q0 -56 4 -74q9 -37 48 -37q33 0 53 12q4 -12 0 -27q-43 -55 -117 -55t-100 47q-14 27 -14 114v59h-46q4 30 8 34q5 0 19 -0.5t19 -0.5q1 33 1 90
q0 9 -6 11q-8 1 -23 2t-22 2q0 16 8 35q32 5 39 8q4 4 4 9v84q26 8 62.5 25.5t48.5 27.5q12 3 19 2q-4 -40 -4 -135q0 -8 5 -8q55 0 103 4q-6 -30 -9 -57z" />
    </font>
</defs>
</svg>
