<?xml version="1.0" standalone="no"?>
<!DOCTYPE svg PUBLIC "-//W3C//DTD SVG 1.1//EN" "http://www.w3.org/Graphics/SVG/1.1/DTD/svg11.dtd" >
<svg>
<metadata>
Created by FontForge 20110222 at Wed Apr 23 01:05:33 2014
 By Orthosie Webhosting
(c) 2007 Adobe Systems Incorporated. All Rights Reserved.
</metadata>
<defs>
<font id="ArnoProSmText" horiz-adv-x="536" >
  <font-face 
    font-family="ArnoProSmText"
    font-weight="400"
    font-stretch="normal"
    units-per-em="1000"
    panose-1="2 2 5 2 4 5 6 2 4 3"
    ascent="675"
    descent="-325"
    x-height="402"
    cap-height="620"
    bbox="-144 -374.143 1576 879"
    underline-thickness="50"
    underline-position="-50"
    unicode-range="U+0020-FB06"
  />
<missing-glyph horiz-adv-x="495" 
d="M0 0v693h495v-693h-495zM248 391l168 253h-337zM277 347l169 -253v505zM79 50h337l-168 252zM50 599v-505l168 253z" />
    <glyph glyph-name="f_f" unicode="ff" horiz-adv-x="523" 
d="M17 29q6 1 15.5 2.5t17 3t11.5 2.5q22 7 22 34q1 29 1.5 129t0.5 143q0 6 -6 8l-58 3q0 14 10 31q30 3 50 11q4 2 4 9q2 137 113 213q51 35 104 37q69 0 108 -45q25 27 62 46.5t67 18.5q25 0 45.5 -9t27.5 -24q1 -2 1 -14q-2 -8 -14 -27t-18 -23q-1 -2 -5.5 -2t-6.5 2
q-40 42 -80 42q-26 0 -41.5 -16t-21.5 -48.5t-7.5 -55t-1.5 -62.5v-9v-22q0 -8 6 -8q51 0 108 3q-7 -30 -8 -52q-66 2 -100 2q-2 0 -4.5 -3.5t-2.5 -5.5q3 -265 3 -269q1 -17 7 -25t22 -12q27 -5 51 -8q2 -4 0.5 -18t-4.5 -14q-6 0 -49.5 1.5t-69.5 1.5q-24 0 -58 -1.5
t-43 -1.5q-2 3 -2 15.5t2 16.5q32 6 40 8q21 7 21 32q1 24 1 70t0.5 107t0.5 97q0 7 -7 9h-161q-2 0 -4.5 -3.5t-2.5 -5.5q3 -268 3 -270q0 -30 29 -37q24 -5 39 -7q2 -2 1 -16t-5 -16q-1 0 -35.5 1.5t-69.5 1.5t-71 -1.5t-37 -1.5q-2 3 -2.5 16t2.5 16zM164 418v-12
q0 -7 6 -7h163q5 0 5 8q0 77 27 141q-17 28 -45.5 43.5t-56.5 15.5q-39 0 -63 -31q-36 -42 -36 -158z" />
    <glyph glyph-name="f_f_i" unicode="ffi" horiz-adv-x="761" 
d="M16 29q40 7 45 9q22 7 22 34q1 30 1.5 128.5t0.5 141.5q0 8 -5 8l-59 4q0 10 9 31q25 2 51 11q4 2 4 9q2 139 111 212q55 38 108 38q70 2 112 -47q68 68 151 68q42 0 71.5 -18t38.5 -42q1 -3 0.5 -9.5t-1.5 -9.5q-6 -24 -33 -39q-3 -2 -10.5 -3t-12.5 2q-9 6 -26 25
q-38 43 -78 43q-52 0 -73 -51.5t-21 -153.5l1 -14q0 -7 6 -7h154q67 0 100 10q-2 -34 -2 -179q0 -115 1 -160q0 -25 21 -32q9 -3 48 -9q3 -3 1 -16.5t-6 -15.5q-3 0 -38.5 1.5t-70.5 1.5q-25 0 -60 -1.5t-40 -1.5q-4 3 -3.5 16t3.5 16q33 5 43 8q17 6 18 35q2 26 2 138
q0 117 -1 127q-1 4 -5.5 8.5t-8.5 5.5l-157 1q-2 0 -4 -3t-2 -5q0 -218 2 -271q1 -29 29 -37q16 -3 40 -7q2 -3 0.5 -16.5t-4.5 -15.5q-8 0 -41 1.5t-64 1.5q-28 0 -63.5 -1.5t-42.5 -1.5q-3 3 -3 16t2 16q26 4 43 9q20 6 21 31q1 29 1.5 130t0.5 144q0 7 -7 9h-166
q-2 0 -4.5 -3.5t-2.5 -5.5q0 -210 3 -270q0 -30 29 -37q16 -3 41 -7q2 -2 1 -16.5t-4 -15.5q-2 0 -38.5 1.5t-69.5 1.5q-30 0 -68 -1.5t-41 -1.5q-3 3 -3 16t3 16zM164 418v-12q0 -7 6 -7h169q5 0 5 8q0 74 25 135q-38 66 -108 66q-35 0 -60 -31q-37 -43 -37 -159z" />
    <glyph glyph-name="f_f_l" unicode="ffl" horiz-adv-x="763" 
d="M18 29q6 1 15.5 2.5t16.5 3t11 2.5q22 8 22 34q1 24 1 69t0.5 106t0.5 97q0 7 -6 7l-58 4q0 14 10 31q21 1 50 11q4 2 4 9q3 140 112 213q54 37 106 37q71 2 113 -46q25 27 64 47t74 20q40 0 72 -18q7 -4 18 0q3 1 34 20q2 -1 6 -5t4 -6q-6 -39 -6 -77q0 -23 -0.5 -57
t-1 -94t-0.5 -108q0 -199 2 -253q1 -19 5 -27.5t18 -12.5q12 -4 46 -9q3 -4 1.5 -16.5t-5.5 -15.5q-9 0 -45 1.5t-64 1.5q-32 0 -65 -1.5t-36 -1.5q-3 3 -3 16t3 16q29 4 43 9q16 7 18 26q2 28 2 266q0 214 -1 224q0 25 -15 40q-29 32 -71 32q-30 0 -50 -18.5t-28.5 -52
t-11 -63t-2.5 -69.5q0 -13 1 -17q0 -7 6 -7q53 0 113 3q-6 -23 -8 -54q-66 2 -106 2q-6 0 -6 -8q0 -232 2 -269q1 -32 30 -37l38 -7q2 -3 1 -16.5t-4 -15.5q-6 0 -38.5 1.5t-67.5 1.5q-24 0 -60.5 -1.5t-44.5 -1.5q-4 3 -4 16.5t4 15.5q24 4 42 9q21 7 21 31q2 54 2 276
q0 5 -5 7h-168q-1 0 -3.5 -3.5t-2.5 -5.5q3 -268 3 -270q1 -30 29 -37q23 -5 41 -7q3 -2 1.5 -15.5t-4.5 -16.5q-2 0 -38.5 1.5t-69.5 1.5q-30 0 -67 -1.5t-40 -1.5q-3 3 -3 16t3 16zM163 418l1 -12q0 -7 6 -7h168q5 0 5 8q2 80 27 138q-41 62 -109 62q-38 0 -60 -29
q-38 -44 -38 -160z" />
    <glyph glyph-name="longs_t" unicode="&#x17f;t" horiz-adv-x="552" 
d="M15 29l45 9q23 7 23 33q1 30 1.5 127.5t0.5 140.5q0 9 -6 9l-59 4q0 16 10 31q24 2 51 16q4 4 4 7q2 77 22.5 129t69.5 93q54 45 111 45q54 0 84.5 -33t32.5 -84q1 -18 1.5 -82t-0.5 -69q0 -6 5 -6q94 0 128 4q-9 -47 -10 -58q-10 0 -54.5 0.5t-65.5 0.5q-4 0 -4 -5
q-1 -44 -1 -176q0 -51 7 -75q13 -40 62 -40q36 0 65 17q1 -4 0 -18.5t-3 -17.5q-36 -43 -105 -43q-66 0 -90 49q-15 27 -15 115q0 31 0.5 99t0.5 86q0 9 -7 10l-57 4q0 9 11 36q25 3 48 11q5 0 6 7q4 70 4 130q-1 45 -20 67q-24 25 -60 25q-48 0 -68 -52t-20 -170
q0 -276 3 -332q1 -17 7.5 -25t22.5 -12q15 -3 45 -7q1 -4 0 -17t-3 -15q-2 0 -41 1.5t-72 1.5q-30 0 -68.5 -1.5t-41.5 -1.5q-2 4 -2.5 16t2.5 16z" />
    <glyph glyph-name="R_A" unicode="RA" horiz-adv-x="1238" 
d="M31 588q-3 4 -2 17t5 14q11 0 56.5 -1.5t61.5 -1.5q43 0 99.5 1t71.5 1q85 0 132.5 -45t47.5 -112q0 -111 -113 -159q-4 -4 -2 -8q28 -44 78 -109.5t85 -102.5q37 -41 86 -42q17 0 27 10t24 42q34 79 97 244t82 221q15 40 18 60l11 -1h23h17t13 0.5t6 0.5q8 -33 16 -55
q125 -349 167 -449q23 -52 39.5 -64t71.5 -20q3 -2 2 -15.5t-4 -16.5q-78 3 -125 3q-73 0 -136 -3q-2 3 -2.5 16.5t2.5 15.5q42 6 56 11q17 8 11 26q-18 62 -58 164q-2 7 -9 7q-16 1 -97 1q-71 0 -82 -1q-7 0 -11 -9q-50 -138 -51 -155q-1 -15 4.5 -22.5t27.5 -12.5
q9 -3 49 -9q3 -2 2 -15t-4 -17q-2 0 -37 1.5t-82 1.5q-15 0 -69 -1.5t-68 -1.5q-40 0 -64.5 12.5t-54.5 45.5q-17 20 -42 55.5t-54.5 79.5t-42.5 62q-8 14 -24 14q-6 1 -72 1q-5 0 -5 -5q0 -115 2 -177q2 -23 9 -32.5t25 -13.5q8 -2 58 -10q3 -2 2 -15.5t-5 -16.5
q-4 0 -50 1.5t-87 1.5q-39 0 -82.5 -1.5t-47.5 -1.5q-4 4 -4.5 16.5t3.5 15.5q42 6 52 8q18 5 26 16t9 39q3 66 3 211q0 201 -2 229q-1 22 -7.5 32t-25.5 14q-12 4 -56 10zM255 581q-24 0 -36 -6q-7 -3 -7 -14q-3 -35 -3 -245q0 -6 5 -6q107 -1 131 10q64 30 64 114
q0 147 -154 147zM893 506q-7 -20 -35.5 -99.5t-38.5 -110.5q0 -7 4 -8q10 -1 80 -1q56 0 66 1q2 0 3.5 3t0.5 6q-45 139 -75 210q-2 2 -5 -1z" />
    <glyph glyph-name="K_A" unicode="KA" horiz-adv-x="1251" 
d="M378 588q-2 4 -2 15.5t3 15.5q15 0 56.5 -1.5t60.5 -1.5l126 3q3 -2 3 -15t-4 -16q-46 -7 -70.5 -18.5t-53.5 -44.5q-23 -25 -180 -189v-5q35 -50 122 -141t134 -125q33 -24 68 -24q15 0 24 7t18 28q34 78 101.5 251.5t86.5 229.5q15 44 17 60q1 0 12.5 -0.5t22.5 -0.5
h17t12.5 0.5t5.5 0.5l17 -55q125 -349 167 -449q22 -51 39 -63.5t72 -20.5q3 -2 2 -15.5t-4 -16.5q-78 3 -125 3q-73 0 -136 -3q-3 3 -3 16t3 16q43 7 55 11q18 8 12 26q-18 62 -58 164q-2 7 -9 7q-16 1 -97 1q-71 0 -82 -1q-7 0 -11 -9q-49 -129 -53 -156q-3 -15 2 -23
t23 -12q6 -1 50 -8q3 -2 2 -15t-4 -17q-3 0 -47 1.5t-73 1.5q-8 0 -60 -1.5t-63 -1.5q-41 2 -65.5 11t-53.5 35q-34 29 -102.5 105.5t-113.5 132.5q-5 8 -20 17q-1 4 -0.5 10t2.5 8q32 12 94 75.5t114 127.5q18 24 18 40q0 12 -18 18q-17 4 -54 11zM31 29q33 5 57 10
q19 5 24.5 16.5t7.5 41.5q2 44 2 226q0 172 -2 211q-1 22 -6.5 31t-24.5 14t-53 8q-4 5 -4 16.5t4 15.5q8 0 50 -1.5t81 -1.5q31 0 72.5 1.5t52.5 1.5q2 -4 2 -15.5t-2 -15.5q-38 -6 -50 -10q-18 -5 -23.5 -15t-7.5 -36q-1 -44 -1 -203q0 -153 1 -223q2 -33 8 -44.5
t26 -16.5q16 -4 58 -11q3 -3 2 -15.5t-5 -16.5q-14 0 -64.5 1.5t-78.5 1.5t-75.5 -1.5t-50.5 -1.5q-3 5 -2.5 16.5t2.5 15.5zM897 507q-6 -19 -35 -99.5t-39 -111.5q0 -7 4 -8q10 -1 80 -1q55 0 66 1q2 0 3.5 3t0.5 6q-60 174 -75 211q-2 2 -5 -1z" />
    <glyph glyph-name="T_T" unicode="TT" horiz-adv-x="1108" 
d="M159 29q60 8 73 11q23 4 30 19.5t9 53.5q3 88 3 448q0 10 -8 10q-13 1 -59 1t-66 -1q-23 0 -40 -26q-15 -21 -41 -97q-4 -2 -19 1.5t-16 7.5q14 74 20 170q0 2 6 3.5t7 0.5q28 -15 82 -15h825q67 0 100 16q9 0 11 -7q-14 -53 -23 -173q-3 -4 -18.5 -4.5t-18.5 3.5
q-6 65 -16 92q-10 26 -36 27q-15 1 -139 1q-6 -1 -6 -10q0 -420 3 -471q4 -42 34 -49q13 -4 72 -12q3 -4 1.5 -17t-5.5 -15q-87 3 -156 3q-79 0 -154 -3q-3 4 -3 16.5t3 15.5q60 8 73 11q23 4 30 19.5t9 53.5q3 88 3 448q0 10 -8 10l-351 -1q-6 -2 -6 -9q0 -420 3 -471
q4 -42 34 -49q13 -4 72 -12q3 -4 1.5 -17t-5.5 -15q-87 3 -156 3q-79 0 -154 -3q-3 4 -3 16.5t3 15.5z" />
    <glyph glyph-name="T_h" unicode="Th" horiz-adv-x="1032" 
d="M175 29q31 4 66 11q23 5 30 20t9 53q3 88 3 447q0 9 -8 11q-23 3 -139 0q-23 0 -37 -22t-40 -94q-3 -2 -18.5 1.5t-16.5 7.5q16 84 21 164q0 1 5.5 2.5t7.5 0.5q28 -15 81 -15l460 1q4 0 4 6v34q0 8 6 8q31 1 72 15q6 -2 6 -6q0 -3 -0.5 -16.5t-1 -42t-0.5 -59.5
q-1 -67 -1 -202q0 -1 2 -1.5t3 0.5q78 60 138 60t94 -43t34 -118q0 -141 1 -186q0 -18 14 -25q10 -5 51 -12q2 -3 0.5 -16t-5.5 -16q-67 4 -108 3q-91 -3 -92 -3q-3 3 -3 16t2 16l40 8q12 3 15.5 12.5t4.5 38.5q3 156 -3 192q-6 29 -28 50.5t-66 21.5t-81 -27
q-12 -9 -12 -24q0 -190 2 -218q1 -25 5.5 -33.5t20.5 -13.5q2 0 15 -3t24 -4q3 -2 2 -15.5t-3 -16.5q-3 0 -43.5 1.5t-62.5 1.5q-17 0 -57 -1.5t-47 -1.5q-4 3 -4 16.5t3 15.5q25 4 42 9q13 4 17 12t5 29q2 48 2 165q0 243 -2 315q0 10 -8 12q-36 1 -118.5 0.5t-99.5 -1.5
q-5 -2 -5 -10q0 -420 3 -471q2 -23 8.5 -33t23.5 -15q16 -5 68 -12q2 -3 1 -16t-5 -16q-72 3 -150 3q-57 0 -147 -3q-4 4 -3.5 16.5t3.5 15.5z" />
    <glyph glyph-name="f_b" unicode="fb" horiz-adv-x="761" 
d="M19 29q27 4 42 9q21 6 21 31q0 9 3 268q0 7 -6 9l-59 4q0 19 10 31q20 1 50 15q5 2 5 8q2 83 28 139.5t85 96.5q49 34 100 34q36 0 62 -14q8 -4 18 0q8 3 33 18q3 -1 8 -5t4 -7q-8 -35 -8 -83q0 -21 0.5 -113.5t0.5 -102.5q0 -5 5 -3q89 49 136 49q71 0 115 -53
q45 -50 45 -130q0 -119 -93 -187q-27 -21 -77.5 -38t-82.5 -17q-70 0 -136 28q3 18 5 52q0 11 1 70t1 114q0 278 -1 301q0 28 -13 39q-29 30 -69 30q-32 0 -54 -26q-34 -38 -34 -173v-17q0 -7 6 -7q50 0 107 3q-5 -19 -7 -57q-33 1 -100 1q-7 0 -7 -8q3 -260 3 -265
q1 -32 30 -37q9 -2 27.5 -4.5t19.5 -2.5q2 -3 1.5 -16t-4.5 -16q-6 0 -45 1.5t-74 1.5q-24 0 -59 -1.5t-43 -1.5q-3 3 -3.5 16t3.5 16zM497 353q-41 0 -68 -17q-8 -6 -11 -18q-5 -59 -1 -191q0 -48 16 -64q28 -26 79 -26q53 0 84 38q36 41 36 112q0 72 -33 117
q-37 49 -102 49z" />
    <glyph glyph-name="f_f_b" unicode="ffb" horiz-adv-x="1026" 
d="M17 29q6 1 15.5 2.5t16.5 3t11 2.5q22 8 22 34q2 54 2 272q0 7 -5 7l-59 4q0 14 10 31q24 2 50 11q5 2 5 9q2 139 113 214q52 36 105 36q70 2 113 -46q24 27 62.5 47t73.5 20q40 0 73 -18q7 -4 18 0q8 3 34 20q3 -1 7 -5t4 -6q-6 -26 -6 -77q-2 -102 -2 -225q2 -5 6 -3
q90 51 136 51q69 0 115 -53q45 -50 45 -130q0 -120 -90 -186q-32 -25 -75.5 -40.5t-75.5 -15.5q-39 0 -90 15q-19 5 -47 -2q-4 0 -8 7q4 77 4 318q0 216 -1 230q-1 24 -15 38q-30 30 -71 30q-30 0 -50 -18t-28.5 -51.5t-11.5 -63t-3 -68.5l1 -17q0 -7 6 -7q56 0 113 3
q-7 -38 -7 -54q-66 2 -107 2q-6 0 -6 -8q3 -265 3 -269q0 -32 30 -37l37 -7q3 -3 2 -16.5t-5 -15.5q-6 0 -38 1.5t-67 1.5q-24 0 -61 -1.5t-45 -1.5q-3 3 -3.5 16.5t3.5 15.5q27 4 42 9q21 6 21 31q0 8 3 276q0 5 -6 7h-167q-6 0 -6 -9q0 -214 2 -270q1 -17 7.5 -25
t22.5 -12q21 -5 41 -7q2 -2 1 -15.5t-5 -16.5q-1 0 -37.5 1.5t-70.5 1.5q-30 0 -66.5 -1.5t-40.5 -1.5q-2 3 -2.5 16t2.5 16zM767 353q-46 0 -75 -21q-8 -6 -9 -17q-2 -17 -2 -93.5t2 -105.5q2 -35 17 -51q33 -28 83 -28q48 0 77 35q36 43 36 116q0 72 -32 117
q-37 48 -97 48zM163 418v-12q0 -7 7 -7h168q5 0 5 8q2 81 27 139q-42 62 -109 62q-36 0 -61 -31q-37 -43 -37 -159z" />
    <glyph glyph-name="f_f_h" unicode="ffh" horiz-adv-x="1027" 
d="M18 29q6 1 15.5 2.5t16.5 3t11 2.5q22 8 22 34q1 24 1 69t0.5 106t0.5 97q0 7 -5 7l-59 4q0 14 10 31q24 2 50 11q4 1 4 9q3 140 112 213q54 37 106 37q71 2 113 -46q25 27 63.5 47t73.5 20q41 0 72 -18q8 -4 19 0q3 1 34 20q2 -1 6 -5t4 -6q-6 -39 -6 -77
q-1 -51 -1 -236q0 -3 4 -1q78 60 135 60q61 0 94 -43.5t33 -118.5q0 -139 1 -184q0 -19 15 -26q6 -3 50 -12q3 -2 1.5 -16t-5.5 -16q-54 3 -104 3q-55 0 -97 -3q-4 3 -4 16t4 16q4 1 18.5 3.5t20.5 4.5q12 3 15.5 12.5t4.5 38.5q3 151 -3 193q-4 26 -27 48.5t-66 22.5
t-77 -26q-13 -10 -13 -24q0 -163 2 -219q2 -25 6 -33.5t20 -13.5q1 0 15 -3t25 -4q4 -3 2.5 -15.5t-4.5 -16.5q-1 0 -36 1.5t-70 1.5q-31 0 -63.5 -1.5t-35.5 -1.5q-4 4 -4 17t3 15q20 3 37 9q13 4 17 12t5 29q2 48 2 196q0 267 -1 282q-1 24 -14 37q-30 31 -73 31
q-30 0 -50 -18.5t-28.5 -51.5t-11.5 -63t-3 -69v-17q0 -7 6 -7q54 0 114 3q-6 -23 -8 -54q-66 2 -106 2q-6 0 -6 -8q0 -232 2 -269q1 -32 30 -37l38 -7q2 -3 1 -16.5t-4 -15.5q-6 0 -38.5 1.5t-67.5 1.5q-24 0 -60.5 -1.5t-44.5 -1.5q-4 3 -4 16.5t4 15.5q24 4 42 9
q21 7 21 31q0 8 3 276q0 5 -6 7h-167q-6 0 -6 -9q0 -233 2 -270q1 -30 29 -37q23 -5 41 -7q3 -2 1.5 -15.5t-4.5 -16.5q-2 0 -38.5 1.5t-69.5 1.5q-30 0 -67 -1.5t-40 -1.5q-3 3 -3 16t3 16zM164 418v-12q0 -7 6 -7h169q5 0 5 8q0 75 26 139q-38 62 -108 62q-37 0 -61 -31
q-37 -43 -37 -159z" />
    <glyph glyph-name="f_f_j" unicode="ffj" horiz-adv-x="751" 
d="M16 29q40 7 45 9q22 7 22 34q1 30 1.5 128.5t0.5 141.5q0 8 -6 8l-58 4q0 10 9 31q25 2 51 11q4 2 4 9q2 138 110 212q55 38 109 38q71 2 112 -47q68 68 151 68q42 0 71.5 -18.5t38.5 -41.5q2 -10 0 -19q-10 -24 -35 -40q-16 -8 -23 -2q-11 8 -26 26q-38 44 -77 44
q-52 0 -73 -51.5t-21 -153.5v-14q0 -2 3 -4.5t5 -2.5h146q65 0 104 11q-2 -160 -2 -316q-1 -84 -9 -127q-12 -67 -57 -130.5t-87 -88.5q-15 2 -31 14q-2 8 1 11q52 34 76.5 93.5t24.5 156.5v46q0 212 -4 268q0 4 -4 9t-9 6h-150q-1 0 -4 -3t-3 -5q0 -218 2 -271
q1 -29 29 -37q13 -3 41 -7q2 -3 0.5 -16.5t-4.5 -15.5q-7 0 -40 1.5t-66 1.5q-30 0 -64.5 -1.5t-41.5 -1.5q-3 3 -3 16t2 16q26 4 43 9q20 6 21 31q1 28 1 274q0 7 -6 9h-167q-1 0 -3.5 -3.5t-2.5 -5.5q0 -210 2 -270q1 -17 7.5 -25t22.5 -12q16 -3 41 -7q2 -2 1 -16.5
t-4 -15.5q-2 0 -38.5 1.5t-69.5 1.5q-30 0 -68 -1.5t-41 -1.5q-3 3 -3 16t3 16zM163 418l1 -12q0 -7 6 -7h169q5 0 5 8q0 73 26 137q-38 64 -108 64q-36 0 -61 -31q-38 -44 -38 -159z" />
    <glyph glyph-name="f_f_k" unicode="ffk" horiz-adv-x="978" 
d="M18 29q6 1 15.5 2.5t16.5 3t11 2.5q22 8 22 34q1 24 1 69t0.5 106t0.5 97q0 7 -5 7l-59 4q0 14 10 31q24 2 50 11q4 1 4 9q3 139 112 213q56 37 106 37q71 2 113 -46q25 27 63.5 47t73.5 20q40 0 72 -18q8 -4 19 0q5 2 9.5 5t11 7.5t12.5 7.5q2 -1 6 -5t4 -6
q-6 -39 -6 -77q0 -13 -3 -372q23 3 47 23q28 24 54.5 57t30.5 46q4 12 -11 16q-19 5 -49 7q-2 4 -1 16.5t5 15.5q125 0 195 8q3 -3 3 -16t-4 -17q-35 -6 -52 -12.5t-34 -24.5q-16 -17 -48.5 -52l-45.5 -49q-3 -3 -1 -5q21 -34 74 -95.5t83 -85.5q17 -13 31 -16.5t46 -4.5
q3 -2 1.5 -16t-5.5 -16q-14 -3 -106 -3q-20 0 -38 13q-15 12 -38.5 40.5t-55.5 69.5t-48 60q-11 18 -33 17q0 -81 2 -121q0 -17 5 -24.5t19 -11.5l44 -8q2 -3 0.5 -16t-5.5 -16q-5 0 -40 1.5t-62 1.5q-34 0 -66.5 -1.5t-35.5 -1.5q-4 2 -4 16t4 16q6 1 18.5 3t18.5 4
q13 4 17 10.5t6 22.5q2 31 2 213q0 255 -2 275q-1 25 -14 38q-31 31 -72 31q-30 0 -50 -18.5t-28.5 -52t-11 -63t-2.5 -69.5v-17q0 -7 6 -7q54 0 114 3q-6 -23 -8 -54q-66 2 -106 2q-6 0 -6 -8q0 -232 2 -269q1 -32 30 -37l38 -7q2 -3 1 -16.5t-4 -15.5q-6 0 -38.5 1.5
t-67.5 1.5q-24 0 -60.5 -1.5t-44.5 -1.5q-4 3 -4 16.5t4 15.5q24 4 42 9q21 7 21 31q0 8 3 276q0 5 -6 7h-167q-6 0 -6 -9q0 -233 2 -270q1 -30 29 -37q23 -5 41 -7q3 -2 1.5 -15.5t-4.5 -16.5q-2 0 -38.5 1.5t-69.5 1.5q-30 0 -67 -1.5t-40 -1.5q-3 3 -3 16t3 16zM164 418
v-12q0 -7 6 -7h169q5 0 5 8q0 79 26 139q-39 61 -108 61q-39 0 -61 -28q-37 -45 -37 -161z" />
    <glyph glyph-name="f_f_t" unicode="fft" horiz-adv-x="822" 
d="M15 29l45 8q23 8 23 34q1 29 1.5 129t0.5 143q0 7 -6 7l-58 4q0 14 10 31q13 1 50 11q4 3 4 7q3 149 104 219q49 33 91 33q49 0 67 -28q1 -2 1 -6.5t-1 -6.5q-2 -10 -12.5 -27t-17.5 -22q-1 -1 -5.5 -1.5t-6.5 0.5q-37 40 -74 40q-23 0 -41 -23q-27 -35 -27 -155
q0 -16 1 -20q0 -7 6 -7h171q5 0 5 8q3 159 105 233q51 36 95 36q53 0 73 -33q1 -2 1 -6.5t-1 -6.5q-2 -8 -13 -25.5t-18 -24.5q-2 -2 -6 -2t-6 2q-41 41 -78 41q-26 0 -44 -23q-29 -33 -29 -165v-27q0 -7 6 -7h160q5 0 5 6v87q47 25 67 45q3 2 9.5 2t8.5 -1q-5 -85 -5 -133
q0 -6 5 -6q94 0 128 4q-10 -49 -10 -52q-10 0 -54 0.5t-66 0.5q-4 0 -4 -6q-1 -44 -1 -181q1 -56 8 -76q12 -40 61 -40q34 0 65 17q2 -3 0.5 -16.5t-3.5 -16.5q-36 -45 -103 -45q-66 0 -92 49q-15 27 -15 115q0 30 0.5 101.5t0.5 90.5q0 7 -6 8h-159q-6 0 -6 -8
q0 -215 2 -270q2 -17 8 -25t21 -12q22 -4 49 -8q2 -4 0.5 -18t-5.5 -14t-46.5 1.5t-75.5 1.5q-27 0 -57.5 -1.5t-37.5 -1.5q-4 3 -4 16t3 16q33 6 41 9q21 6 21 31q1 24 1 70t0.5 107t0.5 97q0 6 -6 9h-171q-1 0 -3.5 -3.5t-2.5 -5.5q0 -30 0.5 -134t1.5 -136q1 -17 7.5 -25
t22.5 -12q18 -4 43 -7q2 -3 0.5 -16t-4.5 -16q-1 0 -38.5 1.5t-70.5 1.5q-30 0 -68.5 -1.5t-41.5 -1.5q-3 3 -3 16t3 16z" />
    <glyph glyph-name="f_h" unicode="fh" horiz-adv-x="766" 
d="M18 29q29 4 43 9q21 6 21 34q0 9 3 265q0 9 -6 9l-59 4q0 14 11 31q42 11 49 16q5 2 5 8q2 83 28 139t86 96q49 34 99 34q40 0 68 -14q8 -4 18 0q19 8 33 18q2 0 7 -4.5t5 -6.5q-8 -38 -9 -95v-218q0 -1 1.5 -1.5t2.5 0.5q80 60 136 60q61 0 93.5 -43.5t32.5 -118.5
q0 -94 2 -184q0 -19 14 -26q9 -4 51 -12q2 -2 0 -16.5t-5 -15.5q-60 3 -105 3q-56 0 -95 -3q-3 2 -3.5 16t2.5 16q37 7 39 8q12 3 16 12.5t5 38.5q3 145 -4 193q-4 26 -26.5 48.5t-65.5 22.5t-78 -26q-12 -9 -12 -24q0 -191 2 -219q1 -25 5.5 -33.5t20.5 -13.5q37 -7 39 -7
q3 -2 2.5 -15.5t-3.5 -16.5q-3 0 -43.5 1.5t-62.5 1.5q-17 0 -54 -1.5t-45 -1.5q-3 2 -3.5 16t2.5 16q19 3 37 9q13 4 17 12t5 29q2 48 2 165v170t-0.5 98t-0.5 38q-1 28 -13 41q-29 32 -75 32q-33 0 -55 -27q-34 -37 -34 -174v-16q0 -7 6 -7q80 0 109 3q-7 -26 -9 -57
q-33 1 -100 1q-7 0 -7 -8q3 -258 3 -264q1 -32 31 -38l40 -7q3 -3 2 -17t-5 -15q-5 0 -41.5 1.5t-71.5 1.5q-16 0 -55.5 -1.5t-47.5 -1.5q-3 3 -3 16t3 16z" />
    <glyph glyph-name="f_i" unicode="fi" horiz-adv-x="497" 
d="M18 29q24 4 42 9q22 7 22 31q2 104 2 272q0 9 -6 9l-58 4q0 14 10 31q18 1 50 11q5 2 5 8q1 81 27 137.5t86 97.5q52 36 107 36q42 0 71 -17.5t37 -40.5q3 -6 0 -18q-3 -10 -15.5 -24t-23.5 -20q-11 -7 -21 1l-25 27q-35 41 -77 41q-28 0 -53 -29q-35 -41 -35 -173v-16
q0 -7 6 -7h150q67 0 100 10q-2 -34 -2 -179q0 -115 1 -160q0 -25 21 -32q10 -3 47 -9q3 -3 1 -16.5t-6 -15.5q-3 0 -38 1.5t-70 1.5q-29 0 -61 -1.5t-36 -1.5q-3 3 -3 16.5t3 15.5q28 4 40 9q17 5 18 34q2 26 2 138q0 108 -1 127q-2 13 -14 15h-152q-6 0 -6 -9
q0 -217 2 -270q1 -17 6.5 -25t21.5 -12q16 -3 40 -7q3 -3 1.5 -16t-4.5 -16q-6 0 -39 1.5t-67 1.5q-28 0 -63 -1.5t-43 -1.5q-3 2 -3 16t3 16z" />
    <glyph glyph-name="f_j" unicode="fj" horiz-adv-x="491" 
d="M19 29q25 4 41 9q22 6 22 31q0 6 3 272q0 9 -6 9l-58 4q0 14 10 31q17 1 49 11q5 2 5 8q2 81 28 137.5t85 97.5q54 36 107 36q42 0 71.5 -17.5t37.5 -40.5q3 -6 0 -18q-3 -9 -15.5 -23.5t-23.5 -20.5q-12 -6 -21 1q-4 3 -12 13t-13 15q-36 40 -77 40q-30 0 -53 -30
q-36 -42 -36 -172l1 -16q0 -7 6 -7h146q65 0 104 11q-2 -160 -2 -316q-1 -84 -9 -127q-12 -67 -57 -130.5t-87 -88.5q-11 2 -31 14q-2 8 1 11q52 34 76.5 93.5t24.5 156.5v46q0 212 -4 268q0 13 -13 15h-150q-1 0 -3.5 -3.5t-2.5 -5.5q3 -263 3 -270q1 -17 6.5 -25t21.5 -12
q6 -1 13.5 -2t18 -2.5t18.5 -2.5q3 -3 1.5 -16t-5.5 -16q-6 0 -43.5 1.5t-71.5 1.5q-28 0 -63.5 -1.5t-42.5 -1.5q-3 2 -3.5 16t3.5 16z" />
    <glyph glyph-name="f_k" unicode="fk" horiz-adv-x="723" 
d="M16 29q28 4 45 8q21 7 21 35q0 10 3 265q0 7 -6 9l-59 4q0 14 10 31q25 5 50 15q5 3 5 8q2 84 28 140t86 96q49 34 98 34q40 0 69 -15q9 -3 18 0q20 10 35 19q10 -10 10 -11q-6 -25 -7 -82q-3 -240 -3 -363q28 4 46 21q29 24 55.5 56t31.5 46q2 11 -11 15q-16 4 -47 8
q-2 4 -1.5 16.5t4.5 15.5q127 0 194 9q3 -3 3.5 -16t-3.5 -17q-58 -12 -88 -43l-30.5 -30.5l-35.5 -35.5l-28 -28q-1 -2 -1 -6q23 -35 76 -97.5t83 -85.5q25 -20 81 -21q2 -3 -0.5 -16.5t-5.5 -15.5q-22 -5 -109 -3q-19 0 -37 13q-15 11 -39 39.5t-57.5 72t-47.5 60.5
q-10 16 -33 15l2 -121q0 -17 5 -24.5t19 -11.5l44 -8q2 -4 0 -16.5t-5 -15.5q-7 0 -43 1.5t-61 1.5q-28 0 -60.5 -1.5t-40.5 -1.5q-2 2 -2.5 16t1.5 16q33 5 39 7q21 6 22 33q3 46 3 204v280q0 23 -16 39q-28 31 -72 31q-33 0 -55 -25q-36 -40 -36 -176q0 -12 1 -16
q0 -7 6 -7q49 0 109 3q-8 -31 -10 -57q-33 1 -100 1q-2 0 -4 -3t-2 -5q0 -36 0.5 -95t0.5 -102.5t1 -67.5q1 -32 30 -37q32 -6 42 -7q3 -3 1.5 -16.5t-4.5 -15.5q-5 0 -41 1.5t-71 1.5q-23 0 -61.5 -1.5t-44.5 -1.5q-2 3 -2 15.5t2 16.5z" />
    <glyph glyph-name="f_l" unicode="fl" horiz-adv-x="498" 
d="M18 29q29 4 43 9q21 6 21 32q0 8 3 267q0 9 -6 9l-59 4q0 16 10 31q35 8 50 15q5 3 5 8q2 81 28 138t85 98q52 34 97 34q41 0 69 -14q7 -4 17 0q12 5 33 18q11 -6 11 -11q-6 -26 -6 -77q-2 -102 -2 -259q0 -226 2 -253q1 -13 2 -20t6 -12t14 -8q11 -3 46 -9
q2 -3 0.5 -15.5t-5.5 -16.5q-8 0 -42 1.5t-65 1.5q-33 0 -65.5 -1.5t-34.5 -1.5q-2 5 -2 16.5t2 15.5q31 5 43 9q15 6 17 27q2 27 2 265q0 206 -1 222q0 25 -13 38q-25 33 -71 33q-31 0 -53 -26q-36 -42 -36 -174q0 -13 1 -17q0 -7 6 -7q50 0 107 3q-5 -30 -7 -57
q-66 2 -101 2q-1 0 -3.5 -3.5t-2.5 -5.5q0 -30 0.5 -131.5t1.5 -133.5t31 -37l39 -7q1 -4 0 -17t-3 -15q-6 0 -39 1.5t-68 1.5q-12 0 -54.5 -1.5t-52.5 -1.5q-2 3 -2 15.5t2 16.5z" />
    <glyph glyph-name="f_t" unicode="ft" horiz-adv-x="558" 
d="M21 29l41 8q20 7 20 34q0 8 3 268q0 7 -6 9l-60 2q0 8 10 31q24 2 51 16q5 3 5 8q2 83 26 137t82 97q51 36 93 36q56 0 73 -28q1 -2 1 -6.5t-1 -6.5q-3 -9 -15.5 -29.5t-18.5 -25.5q-2 -1 -12 -1q-40 40 -76 40q-25 0 -42 -20q-31 -33 -31 -171v-21q0 -7 6 -7h160
q5 0 5 6v87q48 26 66 45q13 5 19 1q-5 -42 -5 -133q0 -6 5 -6q91 0 125 4q-9 -47 -10 -56q-13 0 -60.5 0.5t-56.5 0.5q-4 0 -4 -5q-1 -44 -1 -178q0 -50 7 -76q13 -39 60 -39q35 0 64 16q1 -4 0 -17t-3 -16q-36 -45 -102 -45q-65 0 -90 49q-15 27 -15 115q0 31 0.5 101
t0.5 88q0 7 -6 8h-159q-6 0 -6 -9q0 -210 3 -265q1 -29 29 -37q25 -5 56 -9q2 -3 1 -16t-5 -16q-8 0 -51 1.5t-73 1.5q-14 0 -53.5 -1.5t-49.5 -1.5q-3 3 -3.5 16.5t3.5 15.5z" />
    <glyph glyph-name="longs_b" unicode="&#x17f;b" horiz-adv-x="752" 
d="M20 29q22 3 41 9q21 7 21 32q0 8 3 270q0 8 -6 8l-59 4q0 16 10 31q23 3 51 16q4 3 4 7q2 82 27.5 137t84.5 97q48 34 91 34q32 0 61 -13q7 -4 17 0q6 2 11.5 5t13 7.5l12.5 7.5q1 0 5.5 -4t4.5 -6q-6 -26 -6 -84v-219q0 -2 2.5 -3t3.5 0q85 48 136 48q70 0 114 -53
q46 -50 46 -130q0 -118 -94 -187q-26 -21 -76.5 -38t-82.5 -17q-61 0 -136 25q4 24 4 53q3 105 3 186q0 258 -1 304q0 28 -11 39q-21 28 -63 28q-30 0 -52 -26q-37 -41 -37 -185v-74q0 -30 0.5 -131.5t1.5 -133.5q1 -31 31 -37q24 -5 46 -7q3 -2 1.5 -16t-4.5 -16
q-6 0 -42.5 1.5t-71.5 1.5q-12 0 -53.5 -1.5t-51.5 -1.5q-2 3 -2.5 15.5t2.5 16.5zM490 354q-39 0 -70 -18q-9 -6 -10 -18q-2 -15 -2.5 -82.5t0.5 -110.5q1 -45 16 -63q28 -25 79 -25q52 0 85 37q35 43 35 113q0 73 -32 117q-38 50 -101 50z" />
    <glyph glyph-name="longs_h" unicode="&#x17f;h" horiz-adv-x="755" 
d="M18 29q29 4 43 9q21 6 21 31q0 7 3 270q0 9 -6 9l-59 4q0 14 10 31q29 4 51 16q4 4 4 8q3 155 111 232q47 34 92 34q34 0 64 -12q9 -4 17 0q12 5 36 20q3 0 7 -4t4 -6q-6 -26 -6 -84q0 -12 -1 -92.5t-1 -140.5q0 -1 1.5 -1.5t2.5 0.5q79 60 136 60q61 0 94 -43.5
t33 -118.5q0 -139 1 -184q0 -19 14 -26q12 -5 51 -12q1 -2 -1.5 -16t-3.5 -16q-75 4 -108 3q-82 -2 -92 -3q-2 2 -2.5 16t1.5 16q36 7 39 8q12 3 16 12.5t5 38.5q3 145 -4 193q-4 26 -26.5 48.5t-65.5 22.5t-78 -26q-12 -9 -12 -24q0 -191 2 -219q1 -25 5.5 -33.5
t20.5 -13.5q38 -7 39 -7q3 -2 2 -16t-3 -16q-3 0 -43.5 1.5t-62.5 1.5q-17 0 -54.5 -1.5t-45.5 -1.5q-3 3 -3 16.5t3 15.5q32 5 37 7q13 5 17 13.5t5 29.5q2 48 2 173q0 260 -1 305q0 29 -12 39q-27 28 -64 28q-29 0 -52 -27q-38 -41 -38 -189v-71q0 -36 0.5 -94.5t0.5 -102
t1 -67.5q1 -32 30 -38q22 -4 38 -6q2 -4 1 -17t-4 -15q-4 0 -36 1.5t-69 1.5q-15 0 -56 -1.5t-51 -1.5q-3 3 -3 15.5t3 16.5z" />
    <glyph glyph-name="longs_i" unicode="&#x17f;i" horiz-adv-x="492" 
d="M21 29q29 5 39 8q22 6 22 31q0 8 3 272q0 7 -6 9l-59 3q0 16 10 31q19 3 50 15q5 3 5 9q3 155 115 231q51 37 106 37q41 0 69 -16t38 -38q3 -9 0 -21q-8 -24 -37 -42q-17 -6 -23 0q-3 2 -26 27q-35 37 -74 37q-31 0 -53 -28q-37 -45 -37 -200q0 -30 0.5 -103.5t1 -132.5
t1.5 -86q1 -30 28 -37q18 -4 39 -6q2 -4 0.5 -17t-4.5 -15q-8 0 -40.5 1.5t-63.5 1.5q-28 0 -62.5 -1.5t-41.5 -1.5q-2 4 -2.5 16t2.5 16zM479 29q1 -3 -0.5 -15.5t-3.5 -16.5q-5 0 -42 1.5t-70 1.5q-25 0 -56.5 -1.5t-36.5 -1.5q-3 4 -2.5 16.5t2.5 15.5q30 5 41 10
q10 4 13.5 10.5t5.5 22.5q2 52 2 143q0 22 -0.5 55t-0.5 42q0 13 -8 21q-9 10 -50 25q-1 4 1 14t4 12q19 1 63.5 10t71.5 20q0 -24 -0.5 -84.5t-0.5 -92.5q0 -122 1 -166q0 -26 21 -33q14 -4 45 -9z" />
    <glyph glyph-name="longs_k" unicode="&#x17f;k" horiz-adv-x="714" 
d="M20 29q32 6 41 9q21 6 21 31q0 7 3 270q0 9 -6 9l-59 4q0 16 10 31q17 1 50 15q5 2 5 8q2 81 27 136.5t84 96.5q47 34 92 34q34 0 64 -12q9 -4 17 0q12 5 36 20q3 0 7 -4t4 -6q-6 -26 -6 -84q0 -12 -0.5 -84.5t-1 -155t-0.5 -129.5q21 3 47 24q27 23 52.5 55.5t30.5 46.5
q2 12 -11 16q-15 4 -48 8q-3 4 -1.5 16t5.5 15q117 0 193 8q3 -2 3.5 -15.5t-3.5 -16.5q-53 -11 -71 -23q-7 -6 -15 -14q-16 -17 -47 -52t-44 -48q-3 -3 -1 -5q22 -35 74.5 -97t82.5 -85q26 -21 81 -22q0 -27 -6 -32q-23 -5 -108 -3q-22 0 -37 13q-15 11 -38.5 39t-57 72
t-47.5 60q-12 16 -34 15q0 -102 1 -120q1 -17 6 -24.5t19 -11.5l45 -8q1 -5 -0.5 -17t-5.5 -15q-7 0 -43 1.5t-60 1.5q-28 0 -60.5 -1.5t-40.5 -1.5q-3 3 -3 16.5t3 15.5l18 3t18 4q13 4 17 10.5t6 22.5q2 31 2 163q0 280 -1 325q0 27 -12 39q-25 28 -63 28q-32 0 -53 -27
q-38 -43 -38 -193v-67q0 -36 0.5 -94.5t0.5 -102t1 -67.5q1 -30 31 -37q12 -3 36 -7q2 -3 1.5 -16.5t-4.5 -15.5q-3 0 -35 1.5t-69 1.5q-25 0 -61 -1.5t-44 -1.5q-2 3 -2.5 16.5t2.5 15.5z" />
    <glyph glyph-name="longs_l" unicode="&#x17f;l" horiz-adv-x="495" 
d="M20 29q24 4 42 9q20 6 20 31q0 8 3 271q0 7 -6 9l-59 3q0 16 10 31q33 5 50 16q5 3 5 8q2 79 27.5 135t83.5 97q49 35 93 35q31 0 62 -13q9 -3 18 0q7 3 19 10t17 10q1 0 5.5 -4t4.5 -6q-5 -33 -5 -84q0 -12 -1 -104t-1 -150q0 -192 2 -250q1 -15 2.5 -22t6.5 -13t14 -9
q19 -5 49 -10q1 -4 -0.5 -16t-4.5 -16q-10 0 -51.5 1.5t-60.5 1.5q-20 0 -55.5 -1.5t-41.5 -1.5q-3 4 -2.5 16.5t2.5 15.5q33 7 41 10q15 5 17 28q4 37 4 263q0 183 -1 228q0 27 -12 39q-25 28 -64 28q-30 0 -52 -26q-38 -41 -38 -192v-90q0 -190 2 -244q1 -31 32 -38l33 -6
q3 -2 1.5 -16t-4.5 -16q-3 0 -34 1.5t-68 1.5q-12 0 -53 -1.5t-52 -1.5q-2 3 -2 15.5t2 16.5z" />
    <glyph glyph-name="longs_longs" unicode="&#x17f;&#x17f;" horiz-adv-x="495" 
d="M18 29q6 1 15.5 2.5t16.5 3t11 2.5q22 7 22 33q1 30 1.5 128.5t0.5 141.5q0 7 -6 9l-59 3q0 12 9 33q33 3 52 13q4 1 4 7q4 139 111 212q55 38 107 38q62 0 100 -40q4 -4 6 0q29 30 64 45t62 15q55 0 73 -33q1 -2 1 -7t-1 -6q-2 -9 -13.5 -27t-17.5 -23q-1 -1 -5.5 -1
t-6.5 1q-42 42 -81 42q-26 0 -41.5 -15.5t-22 -55t-7.5 -70.5t-1 -98v-16q0 -238 3 -293q1 -30 28 -36q37 -7 42 -8q2 -3 0 -17t-5 -15q-6 0 -44.5 1.5t-63.5 1.5q-15 0 -52.5 -1.5t-47.5 -1.5q-3 3 -3 16t3 16q8 2 16.5 3t13 2t8.5 2q22 8 22 33v126t1 146q0 6 -6 7l-62 4
q0 14 10 32q27 2 53 14q5 2 5 11q2 84 27 140q-37 58 -101 58q-40 0 -68 -45t-28 -150q0 -31 0.5 -169t1.5 -170q1 -30 30 -37q24 -5 39 -7q2 -4 0 -17t-4 -15q-1 0 -36.5 1.5t-68.5 1.5q-30 0 -66.5 -1.5t-40.5 -1.5q-2 4 -2 16t2 16z" />
    <glyph glyph-name="longs_longs_i" unicode="&#x17f;&#x17f;i" horiz-adv-x="760" 
d="M19 29l41 8q22 8 22 34q2 54 2 268q0 9 -6 9l-59 4q0 11 10 31q25 3 51 15q5 3 5 8q2 138 111 212q56 37 110 37q67 0 107 -44q3 -3 6 0q74 65 144 65q43 0 73 -17.5t40 -42.5q2 -3 2 -10t-2 -9q-9 -26 -33 -40q-15 -8 -25 -1q-11 9 -25 26q-39 43 -79 43q-34 0 -56 -28
q-35 -41 -37 -189q0 -279 3 -334q1 -17 6.5 -25t21.5 -12q33 -7 41 -8q1 -4 -0.5 -17.5t-3.5 -14.5q-6 0 -44 1.5t-64 1.5q-14 0 -53.5 -1.5t-49.5 -1.5q-2 3 -2 16t2 16q25 4 42 9q21 7 21 31q1 32 1.5 136t0.5 134q0 6 -8 9l-59 4q0 16 10 31q24 4 52 16q5 2 5 9
q1 81 26 137q-37 62 -105 62q-41 0 -71 -45t-31 -156q0 -277 3 -333q1 -30 29 -37q20 -4 44 -7q3 -3 2 -16.5t-5 -15.5l-39 1q-38 2 -72 2q-30 0 -66 -1.5t-39 -1.5q-3 4 -3.5 17t3.5 15zM751 29q2 -3 0 -16t-5 -16q-5 0 -43.5 1.5t-71.5 1.5q-25 0 -56.5 -1.5t-36.5 -1.5
q-2 4 -2.5 16.5t1.5 15.5q26 4 42 10q18 6 19 34q2 25 2 142v97q-3 16 -8 21q-10 11 -50 26q-1 5 4 25q19 1 63.5 10t71.5 20v-177q0 -121 1 -166q0 -26 20 -33q9 -3 49 -9z" />
    <glyph glyph-name="longs_longs_l" unicode="&#x17f;&#x17f;l" horiz-adv-x="760" 
d="M14 29q43 8 46 9q22 6 22 33q2 54 2 268q0 9 -6 9l-58 4q0 16 10 31q35 8 50 16q5 2 5 7q4 139 113 213q57 36 106 36q66 0 109 -43q3 -4 6 -1q65 65 143 65q36 0 66 -15q6 -4 12 -2q16 5 41 16q7 -3 7 -10q-8 -26 -8 -81q-1 -50 -1 -251q0 -197 2 -251q1 -15 2.5 -22
t6.5 -12.5t14 -8.5q17 -5 46 -10q2 -4 0 -16t-5 -16q-10 0 -50.5 1.5t-58.5 1.5q-20 0 -58 -1.5t-43 -1.5q-3 4 -2.5 16.5t2.5 15.5q40 8 46 10q14 8 16 28q4 36 4 263q0 190 -3 238q-2 20 -13 31q-28 27 -71 27q-33 0 -57 -30q-34 -41 -36 -188q0 -279 3 -334q1 -32 28 -37
l39 -8q1 -5 -0.5 -18.5t-4.5 -13.5q-6 0 -42.5 1.5t-62.5 1.5q-29 0 -61.5 -1.5t-39.5 -1.5q-3 4 -3 16.5t3 15.5q30 5 40 8q21 7 21 33q1 24 1 69t0.5 105.5t0.5 96.5q0 2 -2.5 4.5t-3.5 2.5l-60 4q0 12 10 32q30 5 50 14q6 3 6 8q2 82 25 136q2 6 -1 10q-40 56 -102 56
q-102 0 -102 -210q0 -288 2 -325q1 -29 29 -37q24 -5 39 -7q2 -3 1 -16t-4 -16q-1 0 -36.5 1.5t-69.5 1.5q-30 0 -68 -1.5t-42 -1.5q-3 3 -2.5 15.5t2.5 16.5z" />
    <glyph glyph-name="t_t" unicode="tt" horiz-adv-x="577" 
d="M563 66q1 -4 0 -17t-3 -16q-42 -45 -103 -45q-64 0 -90 49q-15 27 -15 115q0 30 0.5 98.5t0.5 87.5q0 8 -6 9h-185q-4 0 -4 -5q-2 -83 0 -177q0 -55 7 -76q12 -40 60 -40q36 0 63 17q1 -4 -0.5 -17t-3.5 -16q-36 -45 -102 -45q-64 0 -89 49q-15 27 -15 115q0 30 0.5 98.5
t0.5 87.5q0 8 -6 9l-56 4q0 9 9 32q34 5 48 15q5 2 5 7v84q45 21 66 44q3 2 10 2.5t9 -0.5q-5 -43 -5 -129q0 -7 5 -7h184q5 3 5 7v95q48 26 66 45q3 1 10 1.5t9 -0.5q-5 -43 -5 -141q0 -7 5 -7q85 0 125 5q-8 -40 -9 -58q-10 0 -53.5 0.5t-64.5 0.5q-4 0 -4 -5
q-2 -83 0 -177q0 -55 7 -76q12 -40 60 -40q35 0 64 17z" />
    <glyph glyph-name="u0162_u0068" unicode="&#x162;h" horiz-adv-x="1032" 
d="M175 29q31 4 66 11q23 5 30 20t9 53q3 88 3 447q0 9 -8 11q-23 3 -139 0q-23 0 -37 -22t-40 -94q-3 -2 -18.5 1.5t-16.5 7.5q16 84 21 164q0 1 5.5 2.5t7.5 0.5q28 -15 81 -15l460 1q4 0 4 6v34q0 8 6 8q31 1 72 15q6 -2 6 -6q0 -3 -0.5 -16.5t-1 -42t-0.5 -59.5
q-1 -67 -1 -202q0 -1 2 -1.5t3 0.5q78 60 138 60t94 -43t34 -118q0 -141 1 -186q0 -18 14 -25q10 -5 51 -12q2 -3 0.5 -16t-5.5 -16q-67 4 -108 3q-91 -3 -92 -3q-3 3 -3 16t2 16l40 8q12 3 15.5 12.5t4.5 38.5q3 156 -3 192q-6 29 -28 50.5t-66 21.5t-81 -27
q-12 -9 -12 -24q0 -190 2 -218q1 -25 5.5 -33.5t20.5 -13.5q2 0 15 -3t24 -4q3 -2 2 -15.5t-3 -16.5q-3 0 -43.5 1.5t-62.5 1.5q-17 0 -57 -1.5t-47 -1.5q-4 3 -4 16.5t3 15.5q25 4 42 9q13 4 17 12t5 29q2 48 2 165q0 243 -2 315q0 10 -8 12q-36 1 -118.5 0.5t-99.5 -1.5
q-5 -2 -5 -10q0 -420 3 -471q2 -23 8.5 -33t23.5 -15q16 -5 68 -12q2 -3 1 -16t-5 -16q-72 3 -150 3q-57 0 -147 -3q-4 4 -3.5 16.5t3.5 15.5zM339 -36q18 0 35 -20.5t17 -53.5q0 -46 -32 -80t-88 -47q-3 1 -8 11.5t-4 14.5q69 28 69 69q0 37 -57 54q-2 2 -2 9t2 9
q8 9 29.5 21.5t38.5 12.5z" />
    <glyph glyph-name="Tcaron_h" unicode="&#x164;h" horiz-adv-x="1032" 
d="M175 29q31 4 66 11q23 5 30 20t9 53q3 88 3 447q0 9 -8 11q-23 3 -139 0q-23 0 -37 -22t-40 -94q-3 -2 -18.5 1.5t-16.5 7.5q16 84 21 164q0 1 5.5 2.5t7.5 0.5q28 -15 81 -15l460 1q4 0 4 6v34q0 8 6 8q31 1 72 15q6 -2 6 -6q0 -3 -0.5 -16.5t-1 -42t-0.5 -59.5
q-1 -67 -1 -202q0 -1 2 -1.5t3 0.5q78 60 138 60t94 -43t34 -118q0 -141 1 -186q0 -18 14 -25q10 -5 51 -12q2 -3 0.5 -16t-5.5 -16q-67 4 -108 3q-91 -3 -92 -3q-3 3 -3 16t2 16l40 8q12 3 15.5 12.5t4.5 38.5q3 156 -3 192q-6 29 -28 50.5t-66 21.5t-81 -27
q-12 -9 -12 -24q0 -190 2 -218q1 -25 5.5 -33.5t20.5 -13.5q2 0 15 -3t24 -4q3 -2 2 -15.5t-3 -16.5q-3 0 -43.5 1.5t-62.5 1.5q-17 0 -57 -1.5t-47 -1.5q-4 3 -4 16.5t3 15.5q25 4 42 9q13 4 17 12t5 29q2 48 2 165q0 243 -2 315q0 10 -8 12q-36 1 -118.5 0.5t-99.5 -1.5
q-5 -2 -5 -10q0 -420 3 -471q2 -23 8.5 -33t23.5 -15q16 -5 68 -12q2 -3 1 -16t-5 -16q-72 3 -150 3q-57 0 -147 -3q-4 4 -3.5 16.5t3.5 15.5zM346 664q-6 -5 -23 -8q-27 29 -131 109q0 4 7 15t10 11q5 0 58 -24t64 -31q7 -2 10 0q18 10 63.5 32.5t49.5 22.5t11 -10.5
t5 -15.5q-7 -6 -37.5 -30t-54.5 -43.5t-32 -27.5z" />
    <glyph glyph-name="gamma_gamma" unicode="&#x3b3;&#x3b3;" horiz-adv-x="841" 
d="M7 292q-2 2 -3.5 16t0.5 18q30 42 69.5 64.5t68.5 22.5q68 0 98.5 -73.5t26.5 -227.5q0 -3 4 -3q1 0 2 3q37 154 107 244q51 56 109 56q69 0 99.5 -72.5t28.5 -229.5q0 -2 3 -3q3 0 4 3q46 183 106 255q36 47 69 47q17 0 36.5 -15t22.5 -22q0 -13 -6 -18
q-37 -2 -73 -34.5t-62.5 -80.5t-45.5 -96.5t-29 -90.5q-11 -44 -11 -57q-2 -39 -4 -93.5t-3.5 -83.5t-2.5 -32q-5 -10 -22 -10q-13 0 -39.5 20.5t-26.5 32.5q0 11 8 43t20 74.5t13 47.5q6 21 6 51q1 55 -5.5 103t-20.5 88t-39 63.5t-58 23.5q-30 0 -57.5 -26t-47.5 -70
t-34 -84.5t-25 -85.5q-12 -51 -12 -67q-15 -221 -19 -229q-3 -10 -21 -10q-15 0 -41 20t-26 31q0 16 20 89t28 94q8 30 8 63q0 49 -6.5 95t-21 88.5t-42.5 68t-65 25.5q-42 0 -88 -36z" />
    <glyph glyph-name="u03BB_u03BB" unicode="&#x3bb;&#x3bb;" horiz-adv-x="784" 
d="M350 -17q-43 0 -66 51q-10 23 -26.5 82t-32.5 120.5t-19 71.5l-5 -1q-23 -38 -52.5 -115.5t-42.5 -125.5q-9 -40 -7 -77q0 -8 -7 -8q-16 0 -34 6t-29 13t-10 12q0 27 39 105q15 33 63 129t61 124q4 10 2 21q-6 38 -22 77q-21 59 -46.5 83t-63.5 24q-33 0 -58 -14
q-3 1 -4.5 11.5t0.5 13.5q15 24 46 41.5t60 17.5q46 0 77 -44.5t71 -175.5q63 -213 83 -271q17 -50 30 -67t27 -17q17 0 37 38q25 45 59.5 125.5t52.5 136.5q4 11 2 23q-10 60 -29 101q-23 59 -52.5 83.5t-70.5 24.5q-38 0 -76 -24q-3 1 -5.5 10.5t-0.5 12.5q27 36 61.5 55
t65.5 19q51 0 87 -46t76 -175q12 -37 44.5 -146t46.5 -150q16 -44 30.5 -67t24.5 -27.5t24 -4.5q21 0 37 11q2 -2 1.5 -15.5t-2.5 -16.5q-45 -50 -104 -50q-28 0 -46 39q-15 31 -45 131t-39 137l-6 -1q-45 -124 -106 -234q-41 -77 -101 -77z" />
    <glyph glyph-name=".notdef" horiz-adv-x="495" 
d="M0 0v693h495v-693h-495zM248 391l168 253h-337zM277 347l169 -253v505zM79 50h337l-168 252zM50 599v-505l168 253z" />
    <glyph glyph-name=".null" horiz-adv-x="0" 
 />
    <glyph glyph-name="nonmarkingreturn" horiz-adv-x="333" 
 />
    <glyph glyph-name="space" unicode=" " horiz-adv-x="199" 
 />
    <glyph glyph-name="exclam" unicode="!" horiz-adv-x="310" 
d="M211 618q16 0 18 -9q0 -7 -38 -419q-3 -1 -18 2.5t-17 5.5q-7 75 -23.5 221t-17.5 159q-1 5 4 14t10 11q12 4 41 9.5t41 5.5zM177 103q24 0 38 -13q19 -18 19 -45q0 -22 -17 -41q-17 -17 -46 -17q-22 0 -38 15q-16 17 -16 42q0 26 17 44q16 15 43 15z" />
    <glyph glyph-name="quotedbl" unicode="&#x22;" horiz-adv-x="316" 
d="M127 618q0 -42 -7 -99t-13 -72q-8 -23 -30 -42l-3 -1h-6h-2q-5 186 -17 220q5 5 29.5 20t33.5 16l10 -1q5 -7 5 -41zM267 626q0 -45 -7 -101.5t-13 -70.5q-7 -20 -30 -43l-11 -1q-4 182 -17 217q5 6 31.5 23t33.5 17l9 -1q4 -7 4 -40z" />
    <glyph glyph-name="numbersign" unicode="#" horiz-adv-x="468" 
d="M298 445l29 135q5 5 38 13q3 0 6 -3l-32 -142q0 -3 4 -3q73 0 98 3q1 -3 -2 -16t-5 -17q-19 -19 -40.5 -24.5t-63.5 -5.5q-5 0 -5 -5l-22 -107q0 -4 3 -4q72 0 94 4q1 -3 -1 -15t-5 -16q-32 -36 -103 -37q-4 0 -4 -5q-26 -129 -30 -145q0 -2 -6 -2q-2 0 -16 8.5t-15 10.5
q25 114 29 133h-95q-5 0 -5 -4q-18 -86 -33 -146q-2 -3 -7 -3q-5 2 -17 10t-13 10l30 133q-75 0 -93 4q-2 4 8 33.5t14 31.5q38 -5 85 -5l25 116q-74 0 -90 3q-2 6 8 33t15 28q36 -3 79 -3l26 125q0 1 17.5 6.5t20.5 5.5q4 0 6 -4l-27 -128q0 -5 3 -5zM286 385h-92
q-4 0 -7 -6l-22 -104q0 -6 2 -6h94z" />
    <glyph glyph-name="dollar" unicode="$" horiz-adv-x="484" 
d="M146 472q1 -39 21.5 -62.5t61.5 -46.5q4 -2 5 4l21 198q0 5 -4 5q-52 -3 -78.5 -31.5t-26.5 -66.5zM258 244l-21 -204l1 -2q1 -3 2 -3q47 1 78 25.5t32 73.5q1 38 -21 63.5t-66 50.5q-5 2 -5 -4zM186 -93l8 86q0 5 -3 5q-66 4 -128 28q-14 19 -24 132q1 3 15 7.5t18 3.5
q22 -68 48 -94t76 -37q3 -1 5 3l21 217q0 6 -4 8q-75 39 -111.5 77.5t-36.5 99.5q0 73 52 115.5t132 42.5q3 0 5 4l7 73q4 3 19.5 5.5t19.5 0.5l-8 -79q0 -4 4 -4q33 -3 67 -9q24 -4 55 -6q-12 -58 -18 -125q-2 -4 -16.5 -4.5t-16.5 3.5q-3 56 -20 78t-56 28q-4 0 -4 -3
l-23 -212q1 -7 4 -8q33 -16 49.5 -24.5t42 -26t38 -33t22.5 -38.5t10 -50q0 -69 -51 -117t-147 -55q-3 0 -5 -4l-7 -83q-5 -4 -20 -5.5t-19 0.5z" />
    <glyph glyph-name="percent" unicode="%" horiz-adv-x="719" 
d="M133 5q63 92 132 193.5t151 223.5t131 194q13 8 43 12q7 -2 7 -10q-19 -24 -211 -310.5t-229 -336.5q-1 -1 -4 -1.5t-4 0.5q-4 3 -9.5 16t-6.5 19zM559 346q53 0 85 -45t32 -106q0 -102 -58 -150q-48 -43 -108 -43q-53 0 -85 43.5t-32 105.5q0 93 51 144t115 51zM530 305
q-36 0 -52.5 -35.5t-16.5 -83.5q0 -72 24 -106t56 -34q39 0 56.5 33t17.5 82q0 60 -21.5 102t-63.5 42zM211 604q55 0 85.5 -44.5t30.5 -103.5q0 -104 -59 -153q-50 -43 -107 -43q-53 0 -85.5 44t-32.5 108q0 89 51 142q52 50 117 50zM179 564q-36 0 -52 -36t-16 -84
q0 -70 24 -105t58 -35q73 0 73 113q0 61 -21.5 104t-65.5 43z" />
    <glyph glyph-name="ampersand" unicode="&#x26;" horiz-adv-x="716" 
d="M269 591q-30 0 -51 -24.5t-21 -66.5q0 -69 64 -125q4 -4 8 0q77 58 77 127q0 34 -20.5 61.5t-56.5 27.5zM211 304q-2 2 -7 0q-24 -22 -35.5 -35t-22.5 -36t-11 -50q0 -60 43 -97.5t106 -37.5q35 0 72.5 17t63.5 48q4 4 1 7q-146 119 -210 184zM288 627q56 0 92.5 -35.5
t36.5 -87.5q0 -39 -27 -71.5t-99 -79.5q-1 -1 -1.5 -2.5t0.5 -2.5q67 -69 185 -154q2 -4 7 1q33 49 54 116q11 29 -11 38q-16 6 -52 11q-4 1 -3 15.5t4 16.5q5 0 39 -1.5t58 -1.5q27 0 50.5 0.5t37.5 1.5t18 1q3 -3 2.5 -16.5t-4.5 -16.5q-5 -1 -20 -3.5t-21 -4.5
q-23 -7 -38 -31q-12 -22 -31 -56.5t-31 -54.5t-23 -34q-1 -1 -0.5 -3.5t1.5 -2.5q134 -100 151 -120q0 -14 -15.5 -45.5t-24.5 -41.5q-2 -2 -8.5 -2t-8.5 2q-5 10 -31 36q-83 68 -119 96q-3 2 -4 -1q-94 -110 -211 -110q-86 0 -138.5 50t-52.5 128q0 42 28.5 78t106.5 90
q1 1 1 2.5t-1 2.5q-56 64 -56 136q0 68 47.5 112.5t111.5 44.5z" />
    <glyph glyph-name="quotesingle" unicode="'" horiz-adv-x="177" 
d="M128 620q0 -44 -7 -101.5t-13 -71.5q-8 -24 -29 -42q-9 -5 -13 -1q-1 63 -6 132.5t-11 87.5q5 5 32 20t34 16q8 0 8 -1q5 -6 5 -39z" />
    <glyph glyph-name="parenleft" unicode="(" horiz-adv-x="415" 
d="M90 267q0 162 68.5 289t177.5 202q5 0 12.5 -11t6.5 -15q-91 -85 -141.5 -189.5t-50.5 -259.5q0 -145 47 -264.5t135 -199.5q1 -4 -8 -15t-13 -12q-28 12 -65 49.5t-76 96t-66 146.5t-27 183z" />
    <glyph glyph-name="parenright" unicode=")" horiz-adv-x="416" 
d="M326 283q0 -162 -68.5 -288t-177.5 -203q-5 1 -13 12t-7 15q92 86 141.5 189t49.5 260q0 299 -181 464q-1 4 8.5 14.5t12.5 11.5q29 -13 66 -50.5t76.5 -96t66 -146t26.5 -182.5z" />
    <glyph glyph-name="asterisk" unicode="*" horiz-adv-x="375" 
d="M216 550q116 46 122 49q1 0 4 -3.5t3 -5.5q-1 -1 -4 -11t-6 -17.5t-7 -9.5q-22 -11 -102 -41q14 -15 52 -43.5t55 -35.5q1 -2 -1.5 -7t-4.5 -6q-7 -3 -22 -4t-25 2q-22 12 -50.5 32.5t-32.5 22.5q-23 -106 -23 -129q-4 -4 -7 -2q-9 3 -20 15.5t-10 25.5q5 37 17 102
q-3 -1 -31.5 -11t-56.5 -19t-40 -13q-5 0 -5 8q15 33 28 38q34 14 91 35q-11 8 -42.5 38.5t-43.5 44.5q-3 2 -3 6.5t2 6.5q28 17 40 17q22 -27 77 -78q17 92 26 111q2 3 20.5 7.5t26.5 4.5q4 -4 4 -7q-17 -46 -31 -123z" />
    <glyph glyph-name="plus" unicode="+" horiz-adv-x="571" 
d="M525 262q-1 -9 -7 -26.5t-11 -18.5t-36.5 -1h-77.5t-75 -1q-3 0 -5.5 -3.5t-2.5 -5.5v-77.5t0.5 -79t-0.5 -40.5q-1 -4 -22 -12t-28 -8l-8 1v42.5v82.5v100q-77 -1 -204 -1q-2 0 -2 10q3 29 13 52q7 -2 120 -2h73v70q0 103 -2 133q7 3 28.5 8t26.5 5t5 -36v-170
q0 -10 7 -10h206q2 -2 2 -12z" />
    <glyph glyph-name="comma" unicode="," horiz-adv-x="218" 
d="M2 -166q-7 4 -4 7q87 78 87 158q-1 36 -32 81q3 8 29 32.5t35 28.5q15 4 21 0q10 -8 18.5 -31.5t9.5 -52.5q1 -66 -41.5 -132.5t-93.5 -99.5q-11 -2 -29 9z" />
    <glyph glyph-name="hyphen" unicode="-" horiz-adv-x="295" 
d="M52 238q63 0 203 5l1 -10q-1 -10 -7 -30t-9 -21q-6 -3 -94 -5.5t-106 -1.5l-1 9q1 14 5.5 34t7.5 20z" />
    <glyph glyph-name="period" unicode="." horiz-adv-x="218" 
d="M110 111q22 0 40 -16q18 -17 18 -48q0 -25 -16 -41q-17 -18 -46 -18q-22 0 -38 16q-18 17 -18 45q0 25 19 44q18 18 41 18z" />
    <glyph glyph-name="slash" unicode="/" horiz-adv-x="462" 
d="M408 685q5 -5 5 -8q-7 -28 -140.5 -365t-170.5 -403q-3 -7 -21.5 -15.5t-28.5 -10.5q-8 3 -8 8q49 104 163.5 393.5t149.5 384.5q1 4 22 10t29 6z" />
    <glyph glyph-name="zero" unicode="0" horiz-adv-x="484" 
d="M259 609q76 0 120 -50q72 -79 72 -242q0 -193 -92 -277q-53 -52 -124 -52t-116 39q-87 75 -87 264q0 166 77 251q61 67 150 67zM234 568q-36 0 -61 -29q-23 -28 -36.5 -85t-13.5 -124q0 -146 34.5 -221.5t96.5 -75.5q36 0 56 23q49 59 49 233q0 136 -33 207.5t-92 71.5z
" />
    <glyph glyph-name="one" unicode="1" horiz-adv-x="484" 
d="M397 29q2 -3 0.5 -16.5t-4.5 -15.5q-11 0 -57 1.5t-83 1.5q-38 0 -90 -1.5t-62 -1.5q-3 3 -3 16t3 16q51 6 66 9q23 4 30.5 16t7.5 37q3 68 3 213q0 139 -3 196q-2 28 -28 30q-36 3 -60 3q-3 4 -1.5 16t3.5 14q38 4 88 18t77 28q3 1 8 0t6 -3q-5 -41 -5 -235
q0 -239 3 -276q3 -50 35 -57q20 -4 66 -9z" />
    <glyph glyph-name="two" unicode="2" horiz-adv-x="484" 
d="M180 533q-66 0 -129 -76q-4 -1 -13.5 8.5t-9.5 13.5q27 50 79 90t114 40q70 0 116 -49.5t46 -128.5q0 -93 -110 -216q-22 -25 -119 -128q-2 -2 -1 -5t4 -4q62 -7 195 -5q17 0 34.5 18.5t43.5 72.5q5 1 16 -2.5t14 -8.5q-6 -28 -24 -79t-30 -70q-5 -7 -52 -8q-30 0 -126 2
t-141 2q-9 0 -27.5 -1t-23.5 -1q-6 11 -3 24q107 96 175 183q85 112 85 202q0 53 -28.5 89.5t-84.5 36.5z" />
    <glyph glyph-name="three" unicode="3" horiz-adv-x="484" 
d="M237 609q63 0 102.5 -40.5t39.5 -97.5q0 -72 -86 -133q-3 -3 0 -4q140 -47 140 -159q0 -108 -103 -172q-72 -45 -153 -45q-55 0 -87 16q-18 9 -32 34q-15 34 -20 77q1 3 12.5 9t14.5 6q30 -59 65 -78q32 -20 89 -20q51 0 87.5 32t36.5 95q1 63 -43 104t-114 41
q-21 0 -35 -2q-3 3 3.5 20.5t10.5 20.5q132 26 132 121q0 46 -27.5 75t-73.5 29q-60 0 -118 -56q-2 0 -6.5 5.5t-7.5 12t-3 9.5q83 100 176 100z" />
    <glyph glyph-name="four" unicode="4" horiz-adv-x="484" 
d="M466 171q-17 0 -50.5 0.5t-50.5 0.5q-3 0 -5 -6l2 -192q-39 -1 -90 -9l3 202q0 5 -5 5h-256q-1 2 0 16.5t3 17.5q38 56 160 220.5t128 173.5q6 2 28 5t26 2v-366q0 -7 5 -7q21 0 47 0.5t41 1t27 0.5q-13 -43 -13 -65zM94 234q22 -1 90 -1h86q5 0 5 5l4 262q-2 2 -4 0
q-22 -28 -96.5 -133.5t-86.5 -127.5q0 -5 2 -5z" />
    <glyph glyph-name="five" unicode="5" horiz-adv-x="484" 
d="M374 613q2 0 7.5 -5t5.5 -8q-13 -40 -45 -71q-17 -14 -34 -14q-6 0 -108 6q-8 0 -14 -9q-23 -44 -33 -79q-4 -12 3 -15q5 -3 52 -26.5t81 -42t56 -34.5q43 -31 62 -65t19 -80q0 -91 -75.5 -151.5t-161.5 -60.5q-89 0 -136 51q-13 15 -13 31q0 9 6.5 29t12.5 28q7 7 15 4
q22 -40 63.5 -67t94.5 -27q51 0 82 30t31 80q0 45 -17.5 75t-65.5 64q-33 23 -94.5 53.5t-71.5 37.5q-2 2 -3 15.5t1 17.5q13 45 45.5 117t49.5 94q13 13 23 11q11 0 51.5 -2.5t59.5 -2.5q28 0 51 16z" />
    <glyph glyph-name="six" unicode="6" horiz-adv-x="484" 
d="M438 620q-214 -105 -277 -256q-1 -3 3 -4q84 41 130 41q64 0 110.5 -53t46.5 -131q0 -130 -109 -197q-53 -33 -107 -33q-97 0 -148.5 65t-51.5 158q0 138 105.5 259t285.5 181q4 -2 9.5 -13.5t2.5 -16.5zM231 342q-40 0 -71 -21q-17 -10 -23 -30q-9 -27 -9 -66
q0 -92 38.5 -143t96.5 -51q46 0 74 37.5t28 102.5q0 83 -38 127t-96 44z" />
    <glyph glyph-name="seven" unicode="7" horiz-adv-x="484" 
d="M451 599q5 0 5 -12q-18 -65 -141.5 -329t-131.5 -286q-2 -4 -6 -4q-8 1 -22.5 7.5t-18.5 11.5q-1 2 -1 7t1 7q17 35 78 156t107.5 218.5t57.5 133.5q0 4 -3 4q-35 2 -122 2t-120 -3q-23 -2 -36 -15.5t-38 -64.5q-3 -2 -16.5 2.5t-14.5 8.5q27 85 39 163q27 -9 80 -9h195
q56 0 108 2z" />
    <glyph glyph-name="eight" unicode="8" horiz-adv-x="484" 
d="M257 609q67 0 112.5 -41.5t45.5 -104.5q0 -36 -22.5 -66.5t-81.5 -69.5q-1 -1 -1 -3.5t1 -3.5q70 -43 97.5 -78t27.5 -86q0 -67 -59.5 -117.5t-139.5 -50.5q-95 0 -142 46.5t-47 104.5q0 37 23 67t102 85q5 3 0 6q-100 68 -100 152q0 72 61 119q52 41 123 41zM237 573
q-40 0 -64 -25t-24 -66q0 -43 28 -72.5t96 -67.5q5 -3 9 0q60 51 60 113q0 53 -29 85.5t-76 32.5zM257 26q41 0 68.5 24t27.5 67q0 47 -30.5 79.5t-112.5 78.5q-1 1 -4 0.5t-4 -1.5q-41 -34 -58 -61.5t-17 -61.5q0 -51 36.5 -88t93.5 -37z" />
    <glyph glyph-name="nine" unicode="9" horiz-adv-x="484" 
d="M82 -52q-4 1 -10 13t-4 17q111 52 172.5 118.5t96.5 153.5q1 2 -0.5 3.5t-3.5 0.5q-78 -49 -143 -49q-64 0 -111 53.5t-47 132.5q0 52 25 100.5t71 78.5q59 39 124 39q91 0 143.5 -69t52.5 -171q0 -146 -103 -259t-263 -162zM224 568q-48 0 -77.5 -38.5t-29.5 -98.5
q0 -80 39.5 -121.5t97.5 -41.5q41 0 76 20q17 13 19 24q7 30 7 59q0 85 -37 141t-95 56z" />
    <glyph glyph-name="colon" unicode=":" horiz-adv-x="281" 
d="M141 110q23 0 39 -16q20 -17 20 -47q0 -24 -17 -41q-18 -18 -46 -18q-20 0 -38 16q-18 17 -18 45q0 25 19 44q20 17 41 17zM141 367q22 0 40 -16q19 -16 19 -47q0 -25 -17 -41q-17 -18 -45 -18q-23 0 -39 16q-18 19 -18 45q0 25 19 44q19 17 41 17z" />
    <glyph glyph-name="semicolon" unicode=";" horiz-adv-x="281" 
d="M141 367q23 0 40 -15q19 -18 19 -47q0 -26 -17 -42q-14 -17 -46 -17q-23 0 -38 16q-18 15 -18 44q0 25 19 44q20 17 41 17zM28 -166q-5 5 -3 7q90 79 89 161q-1 31 -32 78q3 8 29 32.5t35 28.5q17 4 22 -1q8 -7 17 -29.5t10 -53.5q1 -64 -42 -131.5t-95 -100.5
q-9 -1 -30 9z" />
    <glyph glyph-name="less" unicode="&#x3c;" horiz-adv-x="571" 
d="M484 415q-34 -26 -315 -166q-4 -3 0 -7q11 -6 92 -47t155.5 -80.5t85.5 -49.5q3 -3 -4.5 -21.5t-13.5 -28.5q-3 -3 -8 -3q-32 22 -185 100t-225 109q-2 4 3.5 21.5t9.5 19.5q76 36 231 117.5t179 99.5q6 0 6 -5q0 -12 -3.5 -34t-7.5 -25z" />
    <glyph glyph-name="equal" unicode="=" horiz-adv-x="571" 
d="M508 311l-460 -2q-1 0 -2.5 4t-0.5 6q3 25 14 51q7 -2 119 -2h346q2 -4 2 -11q-9 -44 -18 -46zM505 122l-456 -2q-3 0 -3 10q4 31 13 52q10 -3 119 -3h345q2 -4 2 -11q-1 -8 -8.5 -26.5t-11.5 -19.5z" />
    <glyph glyph-name="greater" unicode="&#x3e;" horiz-adv-x="571" 
d="M87 76q36 27 314 166l1 7q-11 6 -92 47t-155.5 80.5t-85.5 49.5q-3 3 4.5 22.5t13.5 27.5q3 3 8 3q32 -23 185 -101t224 -108q2 -4 -3.5 -21.5t-9.5 -19.5q-79 -38 -232.5 -118.5t-177.5 -98.5q-4 0 -6 5q0 11 4 33.5t8 25.5z" />
    <glyph glyph-name="question" unicode="?" horiz-adv-x="374" 
d="M182 286q0 -21 36 -55q2 -1 1 -6.5t-3 -6.5q-4 -5 -21.5 -13.5t-24.5 -10.5q-10 -4 -21 0q-21 10 -34 28.5t-13 37.5t11 32q9 9 58 46t60 48q22 19 22 45q0 35 -37 66t-92 38l-32 3q-10 2 -10 15q0 7 9 25t17 29q10 10 35 10q65 0 123 -46q56 -45 56 -109q0 -43 -22 -69
q-13 -13 -54 -43.5t-49 -37.5q-15 -10 -15 -26zM185 103q23 0 39 -14q18 -18 18 -45q0 -21 -17 -40q-17 -17 -46 -17q-22 0 -38 16t-16 41t17 43q19 16 43 16z" />
    <glyph glyph-name="at" unicode="@" horiz-adv-x="865" 
d="M591 50q61 0 108.5 56.5t47.5 163.5q0 138 -78.5 210t-201.5 71q-37 0 -78.5 -11.5t-88.5 -41.5t-84 -74t-61.5 -118t-24.5 -165q0 -131 53 -206.5t131 -100.5q41 -12 81 -9q1 -1 1.5 -8t-0.5 -10q-27 -21 -81 -21q-21 0 -51 11.5t-67 39t-68 66t-52 99.5t-21 132
q0 186 123 315q67 72 152.5 110.5t177.5 38.5q74 0 133.5 -27t95 -71t54 -95t18.5 -103q0 -76 -28 -138.5t-71.5 -99.5t-91.5 -57t-93 -20q-51 0 -45 68q3 32 11 75q0 1 -1.5 1.5t-2.5 -0.5q-51 -67 -104 -105.5t-86 -38.5q-20 0 -33.5 18t-17.5 39.5t-4 44.5q0 64 24 125
t66 105q34 36 91 65t115 29q47 0 87 -10q-18 -41 -25 -73q-13 -53 -25.5 -130.5t-14.5 -107.5q0 -42 30 -42zM356 69q50 0 128 113q19 27 30 72q3 10 8 32.5t9.5 39.5t8.5 25q-14 10 -58 10q-76 0 -122 -79q-37 -65 -37 -147q0 -66 33 -66z" />
    <glyph glyph-name="A" unicode="A" horiz-adv-x="628" 
d="M-19 29q55 8 74.5 23t44.5 72q33 78 89.5 226.5t76.5 206.5q16 43 18 60l12 -1h22h17t12.5 0.5t5.5 0.5q16 -52 17 -54q114 -325 167 -450q22 -51 39 -63.5t72 -20.5q3 -2 2 -15.5t-4 -16.5q-78 3 -125 3q-73 0 -136 -3q-2 3 -2.5 16.5t2.5 15.5q49 9 55 11q18 8 12 26
q-18 62 -58 164q-2 7 -9 7q-16 1 -97 1q-71 0 -82 -1q-6 0 -11 -9q-50 -131 -51 -155q-1 -15 4.5 -22.5t27.5 -12.5q10 -2 49 -9q3 -2 2 -15.5t-4 -16.5q-5 0 -51 1.5t-81 1.5t-70.5 -1.5t-39.5 -1.5q-3 3 -3 16t3 16zM297 508q-1 1 -2.5 0.5t-2.5 -1.5q-6 -18 -35 -99.5
t-39 -112.5q0 -6 4 -7q10 -1 80 -1q55 0 66 1q2 0 3.5 3t0.5 6q-60 174 -75 211z" />
    <glyph glyph-name="B" unicode="B" horiz-adv-x="586" 
d="M34 588q-3 3 -3 16t4 15q4 0 42 -1.5t74 -1.5q30 0 82.5 1t84.5 1q31 0 58.5 -6t56.5 -20t46 -43.5t17 -71.5t-26 -75.5t-70 -51.5q-4 -2 0 -4q63 -16 102 -54t39 -99q0 -119 -127 -173q-59 -27 -157 -27q-16 0 -106.5 2.5t-128.5 1.5q-5 2 -5 16t4 16q59 7 66 9
q17 5 24 14.5t8 35.5q3 47 3 225q0 187 -1 224q-1 35 -28 41q-6 2 -59 10zM255 580q-19 0 -35 -3q-8 -2 -8 -16q-3 -47 -3 -202q0 -6 5 -6q12 -1 66 -1q56 0 78 11q46 27 46 92q0 125 -149 125zM314 35q60 0 95 34t35 101q0 69 -47 106.5t-134 37.5q-45 0 -48 -1
q-6 -2 -6 -5q0 -178 3 -218q1 -11 8 -24t16 -17q23 -14 78 -14z" />
    <glyph glyph-name="C" unicode="C" horiz-adv-x="682" 
d="M570 455q-8 59 -20 81.5t-42 36.5q-44 22 -123 22q-107 0 -165.5 -73.5t-58.5 -200.5q0 -123 68.5 -207.5t195.5 -84.5q69 0 108 32q33 26 77 100q5 1 15.5 -5t12.5 -12q-8 -31 -34 -78t-43 -58q-69 -26 -156 -26q-167 0 -258 87t-91 243q0 86 40.5 159.5t119.5 116.5
q84 46 203 46q52 0 122.5 -9.5t78.5 -10.5q-14 -87 -16 -156q-2 -3 -10.5 -5t-16 -1.5t-7.5 3.5z" />
    <glyph glyph-name="D" unicode="D" horiz-adv-x="716" 
d="M28 588q-2 3 -1 15.5t4 15.5q8 0 57.5 -1.5t65.5 -1.5q24 0 83 2t112 2q134 0 215 -70q96 -84 96 -228q0 -171 -126 -260q-96 -68 -244 -68q-34 0 -117.5 1.5t-110.5 1.5h-44q-3 5 -3 17.5t3 14.5q45 4 68 11q16 4 24 14t9 34q3 62 3 229q0 177 -2 214q-2 24 -10.5 33.5
t-27.5 13.5q-18 5 -54 10zM214 99q0 -26 19 -41q29 -22 106 -22q87 0 144 52q78 73 78 217q0 161 -114 236q-62 40 -173 40q-37 0 -51 -5q-8 -4 -10 -17q-2 -21 -2 -241q0 -200 3 -219z" />
    <glyph glyph-name="E" unicode="E" horiz-adv-x="573" 
d="M39 588q-4 4 -3 16t5 16q9 0 58 -2t81 -2h198q82 0 113 4q4 -4 4 -6q-13 -51 -17 -139q-4 -4 -18.5 -4t-17.5 3q-2 22 -11 60q-6 19 -16 27.5t-33 9.5q-16 1 -79 1t-74 -1q-5 -1 -9 -8t-4 -12q-2 -138 -1 -206q0 -7 5 -7q99 -2 152 2q24 2 32 29q7 21 11 41q6 3 20 2
t17 -5q-7 -74 -7 -96q0 -19 1 -50t1 -43q-4 -4 -19 -4.5t-19 3.5q-7 38 -9 43q-7 25 -32 28q-21 2 -148 2q-5 0 -5 -8q-2 -80 1 -195q2 -31 24 -38q20 -6 155 -6q28 1 41.5 8t28.5 27q24 28 49 87q5 1 17.5 -3.5t15.5 -8.5q-4 -26 -18 -71.5t-25 -68.5q-4 -9 -15.5 -13
t-46.5 -4q-45 0 -132 2t-134 2q-36 0 -91.5 -1.5t-72.5 -1.5q-3 3 -3.5 16t2.5 16q67 8 79 11q18 4 25 15.5t9 38.5q1 18 1 238q0 178 -1 196q-2 27 -7 36.5t-23 13.5q-17 5 -55 10z" />
    <glyph glyph-name="F" unicode="F" horiz-adv-x="546" 
d="M35 588q-4 3 -3.5 15.5t3.5 15.5q7 0 52.5 -1.5t75.5 -1.5h240q73 0 98 5q5 0 5 -7q-10 -42 -14 -143q-3 -4 -18 -5t-19 3q-5 36 -14 67q-11 33 -45 34q-29 2 -89.5 2t-81.5 -1q-5 -1 -8.5 -7t-3.5 -11q-2 -126 -2 -222q0 -5 5 -5q131 0 164 2q27 2 37 33q6 19 12 43
q5 2 19.5 1.5t18.5 -3.5q-6 -75 -6 -103q0 -38 2 -100q-4 -3 -17 -3.5t-19 1.5q-5 23 -12 45q-10 32 -36 33q-36 2 -164 2q-4 0 -4 -5q0 -140 2 -182q1 -25 7.5 -35.5t28.5 -14.5q27 -6 70 -11q3 -3 2.5 -16t-4.5 -16q-10 0 -60 1.5t-95 1.5q-36 0 -77 -1.5t-55 -1.5
q-3 2 -3.5 15.5t3.5 16.5q37 5 55 9q21 6 27.5 16t7.5 36q2 36 2 226q0 182 -2 213q-2 25 -7 34.5t-21 14.5q-34 7 -57 10z" />
    <glyph glyph-name="G" unicode="G" horiz-adv-x="715" 
d="M641 44q1 -3 -0.5 -12t-3.5 -11q-124 -39 -220 -39q-176 0 -268.5 86t-92.5 243q0 100 47 174t131 111q82 38 196 38q49 0 120.5 -10.5t80.5 -11.5q-16 -81 -18 -163q-2 -4 -17.5 -5.5t-19.5 2.5q-6 56 -16.5 82t-32.5 39q-47 28 -136 28q-112 0 -170 -73.5t-58 -197.5
q0 -134 71 -218.5t202 -84.5q45 0 65 13q18 10 20 40q4 31 2 99q-1 25 -8 36t-28 17q-8 2 -18 3.5t-25.5 3.5t-27.5 4q-4 3 -3 17t4 16q10 0 58 -1.5t86 -1.5q54 0 114 3q2 -3 1.5 -17t-2.5 -17q-24 -4 -34 -7q-24 -7 -25 -46q-2 -70 0 -110q1 -12 5.5 -17t20.5 -12z" />
    <glyph glyph-name="H" unicode="H" horiz-adv-x="760" 
d="M30 588q-4 3 -3 15.5t4 15.5q7 0 52 -1.5t79 -1.5q40 0 80.5 1.5t48.5 1.5q3 -4 3 -16.5t-4 -14.5q-32 -5 -50 -10q-15 -5 -20.5 -14t-6.5 -32q-2 -36 -2 -181q2 -9 6 -10q8 -1 167 -1q149 0 158 1q7 0 7 7q0 159 -2 196q-2 25 -20 32q-12 5 -61 12q-4 3 -4 15.5t4 16.5
q8 0 53.5 -2t75.5 -2q29 0 76.5 1.5t50.5 1.5q4 -3 4 -15.5t-4 -15.5q-38 -5 -53 -11q-16 -5 -21 -15.5t-7 -38.5q-2 -35 -2 -207q0 -196 2 -230q4 -37 29 -45q25 -7 66 -12q3 -3 2 -16.5t-6 -15.5q-12 0 -61 1.5t-79 1.5q-51 0 -129 -3q-4 3 -4 15.5t3 16.5q40 5 59 11
q14 5 19.5 14t6.5 31q2 29 2 197q0 2 -2.5 4.5t-5.5 2.5q-19 1 -158 1q-150 0 -168 -2q-4 0 -4 -5q0 -147 2 -187q2 -28 8 -38.5t25 -15.5q22 -6 62 -13q3 -3 0.5 -16.5t-5.5 -15.5q-1 0 -47 1.5t-88 1.5q-38 0 -85.5 -1.5t-51.5 -1.5q-3 3 -3 16t3 16q47 8 55 10
q20 6 26.5 20.5t8.5 50.5q0 10 0.5 81.5t0.5 121.5q0 184 -2 218q-2 22 -7.5 32t-20.5 14q-20 5 -62 11z" />
    <glyph glyph-name="I" unicode="I" horiz-adv-x="332" 
d="M31 588q-3 3 -2.5 16t3.5 15q7 0 55 -1.5t77 -1.5q30 0 76 1.5t55 1.5q3 -3 3.5 -15t-3.5 -16q-44 -6 -53 -8q-17 -5 -22.5 -15.5t-6.5 -34.5q-3 -42 -3 -210q0 -175 3 -227q1 -24 8 -35.5t28 -17.5q24 -5 62 -11q3 -2 2 -16t-5 -16q-8 0 -57 1.5t-78 1.5q-33 0 -83 -1.5
t-60 -1.5q-4 2 -4 16t4 16q38 5 52 9q21 5 27.5 14.5t8.5 27.5q4 29 4 259q0 145 -2 192q-2 16 -3.5 23t-7 13.5t-15.5 8.5q-18 6 -63 12z" />
    <glyph glyph-name="J" unicode="J" horiz-adv-x="330" 
d="M32 588q-4 4 -3 16.5t4 14.5q8 0 54.5 -1.5t90.5 -1.5q32 0 72 1.5t52 1.5q3 -2 3 -15.5t-4 -15.5q-35 -6 -54 -12t-22 -39q0 -8 -1.5 -198.5t-3.5 -242.5q-5 -121 -38 -184q-37 -68 -91.5 -107t-105.5 -39q-26 0 -47.5 10t-29.5 24q0 1 -1 7.5t-1 7.5q8 43 21 68
q25 -17 58 -30t54 -13q37 0 59 25q19 24 26 58t8 101q3 419 -3 497q-1 15 -2.5 24.5t-9 18t-20.5 12.5q-11 3 -65 12z" />
    <glyph glyph-name="K" unicode="K" horiz-adv-x="657" 
d="M210 324q0 -153 1 -223q2 -33 8 -44.5t26 -16.5q16 -4 58 -11q3 -2 2 -16t-5 -16q-14 0 -64.5 1.5t-78.5 1.5t-75.5 -1.5t-50.5 -1.5q-3 3 -3 16t3 16q33 5 57 10q19 5 24.5 16.5t7.5 41.5q2 44 2 226q0 172 -2 211q-1 22 -6.5 31t-24.5 14t-53 8q-4 4 -4 16t4 16
q6 0 48.5 -1.5t82.5 -1.5q31 0 72.5 1.5t52.5 1.5q2 -4 2 -15.5t-2 -15.5q-41 -7 -52 -10q-17 -5 -22 -15t-7 -36q-1 -44 -1 -203zM378 588q-3 3 -3 15t4 16q13 0 51 -1.5t68 -1.5q40 0 124 3q3 -2 3 -15t-4 -16q-46 -7 -70.5 -18.5t-53.5 -44.5q-23 -25 -180 -189v-5
q35 -50 118.5 -140.5t133.5 -129.5q25 -18 41 -22q29 -8 67 -10q3 -3 1.5 -16.5t-5.5 -15.5q-24 -3 -86.5 -0.5t-81.5 8.5q-20 8 -38 24q-33 30 -107 113t-118 139q-5 8 -20 17q-1 4 -0.5 10t2.5 8q32 12 94 75.5t114 127.5q18 24 18 39q0 13 -19 19q-15 4 -53 11z" />
    <glyph glyph-name="L" unicode="L" horiz-adv-x="562" 
d="M32 588q-3 4 -2 16.5t5 14.5q10 0 51.5 -1.5t80.5 -1.5q42 0 83 1.5t45 1.5q4 -3 4 -15t-4 -16q-29 -4 -53 -10q-12 -3 -18 -9t-7.5 -12t-2.5 -18q-3 -56 -3 -213q0 -206 3 -248q1 -10 7.5 -18t12.5 -10q30 -10 165 -7q35 0 61 38q31 44 59 111q6 2 18 -3t15 -10
q-6 -34 -23.5 -92t-29.5 -79q-7 -13 -42 -13t-150.5 2.5t-139.5 2.5q-28 0 -85.5 -1.5t-63.5 -1.5q-4 2 -4 16t3 16q52 6 70 11q17 4 23 13t8 26q4 36 4 250q0 166 -1 192q-2 31 -7.5 42t-25.5 15q-9 3 -56 10z" />
    <glyph glyph-name="M" unicode="M" horiz-adv-x="866" 
d="M43 588q-4 2 -3 15.5t5 15.5q10 0 69 -1.5t119 -1.5q2 -21 18 -58q148 -327 189 -398q2 -2 4 1q18 36 91 187t101 216q13 30 17 52q57 0 112.5 1.5t70.5 1.5q3 -2 3.5 -15t-3.5 -16q-53 -8 -67 -12q-28 -7 -28 -40q-2 -48 3 -220t9 -221q2 -28 9.5 -39.5t29.5 -17.5
q7 -1 15 -2.5t20.5 -3.5t21.5 -3q3 -4 2.5 -16t-4.5 -16q-8 0 -53 1.5t-81 1.5q-57 0 -138 -3q-2 4 -2.5 16t2.5 16q37 6 56 12q25 8 27 42q1 56 -3 410q-3 3 -6 0q-8 -18 -59 -126.5t-99.5 -216t-63.5 -150.5q-3 -1 -16 -2t-17 0q-11 37 -52 135t-93 217t-62 142
q-4 4 -6 -2q-17 -256 -20 -387q0 -29 6 -42.5t28 -19.5q19 -6 65 -12q4 -3 2.5 -16.5t-5.5 -15.5q-5 0 -49 1.5t-74 1.5q-33 0 -76 -1.5t-47 -1.5q-4 4 -3.5 16.5t3.5 15.5q4 1 23.5 4.5t27.5 5.5q23 6 30.5 19t12.5 49q17 122 36 423q2 33 -27 43q-20 6 -71 15z" />
    <glyph glyph-name="N" unicode="N" horiz-adv-x="745" 
d="M17 587q-3 3 -2.5 16t4.5 16q9 0 55 -1.5t77 -1.5q38 0 45 1q6 -15 36 -54q167 -212 350 -428q1 -1 3 2q0 341 -3 385q-2 24 -9.5 35.5t-29.5 17.5q-26 7 -69 13q-4 3 -3.5 16t3.5 15q8 0 54 -1.5t84 -1.5q20 0 62.5 1.5t46.5 1.5q4 -3 4 -15.5t-4 -15.5q-33 -7 -45 -11
q-19 -6 -26 -18.5t-9 -35.5q-3 -46 -8 -390q0 -72 2 -138q-24 4 -72 0q-57 81 -384 490q-3 2 -5 0q-3 -315 2 -387q1 -27 10.5 -40t30.5 -18q8 -3 62 -11q3 -4 2 -16.5t-4 -15.5q-9 0 -52.5 1.5t-76.5 1.5q-37 0 -78 -1.5t-47 -1.5q-3 2 -3 16t3 16q36 5 55 11q18 6 27.5 18
t11.5 38q4 72 9 421q0 37 -29 50q-25 14 -80 20z" />
    <glyph glyph-name="O" unicode="O" horiz-adv-x="753" 
d="M371 -18q-143 0 -228 91q-87 94 -87 241q0 110 64 194q41 56 115.5 91t153.5 35q146 0 227 -91t81 -221q0 -124 -62 -209q-46 -64 -116.5 -97.5t-147.5 -33.5zM409 30q66 0 105 34q84 66 84 222q0 85 -29 156t-86 110q-56 39 -130 39q-49 0 -88 -22q-52 -30 -79 -91.5
t-27 -140.5q0 -85 32.5 -160t94.5 -115q51 -32 123 -32z" />
    <glyph glyph-name="P" unicode="P" horiz-adv-x="559" 
d="M262 248q-12 10 -12 26q-1 4 3 11q15 -3 38 -3q43 0 70 15q62 34 62 127q0 72 -39 114t-120 42q-35 0 -43 -5q-7 -4 -8 -14q-3 -69 -3 -237q0 -192 2 -237q2 -24 9 -33.5t28 -14.5q5 -1 62 -10q4 -3 3 -16t-4 -16q-14 0 -67.5 1.5t-74.5 1.5q-26 0 -75.5 -1.5t-57.5 -1.5
q-4 3 -4 16t3 16q36 3 54 8t23.5 16.5t7.5 40.5q3 53 3 222q0 180 -2 212q-2 27 -9 37.5t-29 14.5q-9 2 -49 8q-3 4 -1.5 16.5t4.5 14.5q3 0 47 -1.5t72 -1.5q32 0 84.5 1t82.5 1q88 0 135 -38q62 -49 63 -137q0 -64 -31.5 -108.5t-75.5 -66.5q-49 -25 -107 -25q-28 0 -44 5
z" />
    <glyph glyph-name="Q" unicode="Q" horiz-adv-x="753" 
d="M950 -132q-90 -72 -206 -72q-67 0 -148 46q-36 20 -85.5 52.5t-73.5 47.5q-56 34 -99 41q-95 13 -158 57q-124 87 -124 271q0 109 55 186q43 63 120 100t160 37q137 0 221.5 -89t84.5 -223q0 -145 -82 -235q-57 -61 -138 -88q20 -6 96 -42q161 -81 240 -82q80 0 134 29
q4 -3 4.5 -16t-1.5 -20zM354 591q-97 0 -146.5 -74t-49.5 -178q0 -139 70.5 -226t184.5 -87q85 0 134.5 73.5t49.5 189.5q0 128 -61 215t-182 87z" />
    <glyph glyph-name="R" unicode="R" horiz-adv-x="623" 
d="M31 588q-3 4 -2 17t5 14q11 0 56.5 -1.5t61.5 -1.5q43 0 99 1t70 1q85 0 133.5 -44.5t48.5 -110.5q0 -111 -113 -161q-4 -4 -2 -8q29 -46 77.5 -111t83.5 -100q29 -31 48 -39.5t69 -15.5q3 -3 0.5 -17t-6.5 -15q-115 -5 -165 19q-26 14 -49 42q-17 20 -41 54.5t-53 79
t-41 61.5q-10 14 -25 14q-7 1 -72 1q-5 0 -5 -5q0 -115 2 -177q2 -23 9 -32.5t25 -13.5q8 -2 58 -10q3 -2 2 -15.5t-5 -16.5q-4 0 -49.5 1.5t-87.5 1.5q-39 0 -82.5 -1.5t-47.5 -1.5q-4 4 -4.5 16.5t3.5 15.5q42 6 52 8q18 5 26 16t9 39q3 66 3 211q0 201 -2 229
q-1 22 -7.5 32t-25.5 14q-12 4 -56 10zM255 581q-24 0 -36 -6q-7 -3 -7 -14q-3 -35 -3 -245q0 -6 5 -6q108 -1 132 10q63 29 63 112q0 149 -154 149z" />
    <glyph glyph-name="S" unicode="S" horiz-adv-x="494" 
d="M78 177q30 -97 74 -127q37 -28 98 -28q42 0 74 26t32 78q0 45 -28.5 74.5t-103.5 71.5q-77 44 -114 86.5t-37 105.5q0 79 56.5 124.5t142.5 45.5q42 0 97 -8.5t59 -8.5q-9 -43 -17 -142q-2 -4 -16 -4t-16 3q-5 45 -13 68.5t-26 35.5q-31 21 -82 21q-48 0 -75.5 -31
t-27.5 -70t16.5 -63.5t51.5 -47.5q22 -15 68 -39t59 -32q95 -59 95 -148q0 -77 -61 -131.5t-164 -54.5q-78 0 -146 31q-6 9 -16.5 66t-13.5 87q1 6 15.5 10t18.5 1z" />
    <glyph glyph-name="T" unicode="T" horiz-adv-x="653" 
d="M473 29q3 -4 1.5 -17t-5.5 -15q-87 3 -156 3q-79 0 -154 -3q-3 4 -3 16.5t3 15.5q60 8 73 11q23 4 30 19.5t9 53.5q3 88 3 450q0 8 -6 8q-36 2 -126 0q-26 0 -42 -28q-15 -22 -40 -95q-4 -2 -19 1.5t-16 7.5q16 88 20 170q0 2 6 3.5t7 0.5q28 -15 82 -15h370q67 0 100 16
q8 0 11 -6q-11 -40 -23 -175q-2 -4 -18 -4t-18 4q-5 61 -16 91q-12 28 -39 29h-50h-55h-33q-5 -2 -5 -8q0 -422 3 -473q4 -42 34 -49q13 -4 72 -12z" />
    <glyph glyph-name="U" unicode="U" horiz-adv-x="716" 
d="M27 588q-4 2 -3.5 15.5t4.5 15.5q5 0 54 -1.5t76 -1.5q26 0 69 1.5t53 1.5q4 -2 4 -15t-3 -16q-43 -8 -50 -10q-18 -5 -24 -16t-6 -35q-3 -139 0 -280q4 -67 16 -93q12 -48 57.5 -79.5t118.5 -31.5q34 0 60 6.5t52 24.5t41.5 55.5t18.5 94.5q9 142 2 286q-1 36 -10 50
t-35 19q-14 3 -54 8q-3 4 -2.5 17t3.5 15q5 0 48 -1.5t77 -1.5q26 0 66.5 1.5t44.5 1.5q3 -2 3.5 -16t-3.5 -16q-33 -7 -44 -10q-21 -6 -28 -21.5t-8 -51.5q-1 -48 -3 -123.5t-3 -102t-4.5 -61.5t-10.5 -61q-22 -92 -89 -133t-156 -41q-221 0 -243 181q-4 38 -6 200.5
t-2 166.5q-2 39 -28 48q-7 2 -53 10z" />
    <glyph glyph-name="V" unicode="V" horiz-adv-x="633" 
d="M-15 587q-3 4 -1.5 17.5t5.5 14.5q10 0 54.5 -1.5t68.5 -1.5q36 0 84 1.5t49 1.5q5 -2 5 -15.5t-4 -15.5q-8 -2 -27 -6t-26 -6q-23 -5 -14 -32q21 -62 82.5 -228t76.5 -202q4 -2 6 1q24 56 80 200t76 204q9 29 3.5 41t-27.5 17q-50 10 -56 11q-3 3 -1.5 16t5.5 15
q4 0 21 -0.5t44.5 -1.5t56.5 -1q31 0 65 1.5t43 1.5q3 -1 3 -14.5t-4 -16.5q-42 -10 -45 -11q-15 -5 -25.5 -16.5t-16.5 -23t-21 -45.5q-9 -20 -145 -354q-41 -102 -55 -147q-33 4 -64 0q-22 76 -44 135q-78 215 -138 368q-18 44 -30 60t-35 23q-21 6 -49 10z" />
    <glyph glyph-name="W" unicode="W" horiz-adv-x="883" 
d="M-24 588q-3 3 -2 16.5t5 15.5q16 0 63.5 -2t74.5 -2q81 1 124 3q4 -2 4 -15.5t-4 -15.5q-40 -9 -52 -13q-22 -6 -16 -37q23 -106 105 -394q3 0 4 1q103 277 151 441q31 -4 57 0q19 -64 73.5 -221t81.5 -229q1 -1 2.5 -0.5t2.5 1.5q23 68 60 192.5t50 181.5q7 26 3 42.5
t-25 22.5q-20 6 -60 12q-4 3 -3.5 16t3.5 15q10 0 53 -1.5t66 -1.5q41 0 77.5 1.5t40.5 1.5q4 -3 3.5 -16t-3.5 -15q-7 -2 -16 -4t-15.5 -3.5t-11.5 -3.5q-19 -7 -30.5 -19.5t-22.5 -41.5q-60 -161 -170 -522q-44 0 -55 -1q-15 58 -70.5 219.5t-84.5 235.5q-3 0 -4 -1
q-133 -373 -158 -453q-7 1 -27 0.5t-28 -1.5q-24 99 -71.5 274.5t-70.5 245.5q-11 32 -20.5 45t-29.5 18q-13 4 -54 12z" />
    <glyph glyph-name="X" unicode="X" horiz-adv-x="624" 
d="M633 30q4 -3 2.5 -17t-5.5 -16l-50 2q-51 2 -92 1q-38 -1 -81 -2t-50 -1q-3 2 -3.5 16t3.5 16q47 9 49 10q19 6 9 27q-40 76 -114 193q-1 1 -3.5 1t-3.5 -1q-92 -135 -123 -191q-11 -22 12 -29q21 -5 54 -9q3 -3 1.5 -17t-5.5 -16q-8 0 -56.5 2t-69.5 1q-21 0 -59.5 -1.5
t-51.5 -1.5q-3 3 -3 16.5t3 15.5q39 6 64 13q33 12 71 60q27 36 140 198q3 5 1 7q-11 18 -38.5 65t-48.5 81.5t-38 59.5q-14 22 -20.5 30.5t-19 18.5t-30.5 15q-33 8 -58 11q-5 2 -4.5 15.5t4.5 15.5q17 0 60.5 -1.5t73.5 -1.5q94 0 120 4q4 -3 4 -16t-3 -16q-7 -1 -22.5 -4
t-20.5 -5q-12 -3 -8 -17q14 -29 107 -183q1 -1 3.5 -1t3.5 1q81 120 105 170q9 21 -10 27q-17 6 -55 11q-2 4 -1 17t5 15q10 0 49 -1.5t65 -1.5q31 0 68.5 1.5t42.5 1.5q3 -2 3 -15.5t-4 -15.5q-5 -1 -14.5 -3t-17.5 -3.5t-15 -3.5q-24 -6 -42.5 -22.5t-50.5 -60.5
q-53 -74 -106 -154q-3 -3 0 -8q95 -158 126 -204q32 -50 49 -66.5t42 -23.5q23 -5 57 -9z" />
    <glyph glyph-name="Y" unicode="Y" horiz-adv-x="571" 
d="M-19 588q-3 3 -2.5 15.5t4.5 15.5q10 0 55.5 -1.5t69.5 -1.5q77 0 116 3q4 -2 4.5 -15t-3.5 -16l-37 -8q-17 -5 -7 -26q20 -43 64.5 -128.5t59.5 -110.5q1 -1 3.5 -1t3.5 1q27 43 68.5 119.5t54.5 107.5q14 31 -19 37l-49 9q-3 4 -2 17t5 14q93 -3 113 -3q9 0 108 3
q4 -1 4.5 -15t-2.5 -16q-2 0 -18 -3.5t-25 -5.5q-22 -5 -36 -18t-36 -46q-78 -122 -139 -241q-9 -16 -9 -35q0 -33 2 -135q1 -35 7 -48.5t25 -17.5q11 -3 65 -9q2 -3 1.5 -16.5t-4.5 -15.5q-9 0 -58 1.5t-84 1.5q-44 0 -93 -1.5t-57 -1.5q-3 2 -3 16t3 16q52 6 71 10
q20 5 27 17.5t8 37.5q1 49 1 124q0 29 -8 48q-27 60 -121 230q-27 50 -41 63.5t-43 20.5q-9 3 -47 8z" />
    <glyph glyph-name="Z" unicode="Z" horiz-adv-x="603" 
d="M585 179q-4 -24 -23.5 -87t-31.5 -86q-8 -10 -49 -10q-80 1 -205.5 2.5t-128.5 1.5q-67 0 -104 -3q-4 4 -4 21q62 80 203.5 285.5t175.5 266.5q1 1 0 3t-3 2q-149 3 -243 -3q-41 -2 -61 -35q-14 -22 -42 -90q-3 -4 -17.5 0.5t-15.5 9.5q15 65 26 169q0 2 7.5 3.5t9.5 0.5
q16 -14 80 -14h238q84 0 138 2q3 -6 3 -17q-20 -36 -90 -141t-169.5 -252.5t-104.5 -154.5q-1 -1 0 -3.5t2 -2.5q36 -6 245 -6q35 0 57 25q33 35 73 126q4 2 18.5 -3.5t15.5 -9.5z" />
    <glyph glyph-name="bracketleft" unicode="[" horiz-adv-x="401" 
d="M123 739h210q0 -2 0.5 -12.5t-2 -22.5t-6.5 -12q-29 -2 -147 -2q-6 0 -6 -7q-5 -43 -5 -398q0 -340 6 -398q0 -16 10 -19q18 -5 157 -5q2 -5 -0.5 -26t-8.5 -21q-121 -3 -175 0q-29 2 -39 9l1 908q0 6 5 6z" />
    <glyph glyph-name="backslash" unicode="\" horiz-adv-x="446" 
d="M84 691q2 0 5 -0.5t4 -0.5q234 -637 309 -798q-2 -7 -10 -7q-12 2 -32 10t-23 14q-18 34 -77 184t-127.5 331t-89.5 233q11 16 41 34z" />
    <glyph glyph-name="bracketright" unicode="]" horiz-adv-x="403" 
d="M279 -185q-48 -2 -208 -2q-1 0 -1.5 4.5t-0.5 12t0.5 14.5t2 12t4.5 5q99 -3 149 4q1 0 3.5 3.5t2.5 5.5q4 30 4 393q0 341 -5 400q-3 19 -10 20q-11 1 -73.5 1.5t-85.5 1.5q-3 3 0 24.5t8 21.5q84 2 203 2q7 0 14 -9l-1 -907q0 -2 -2.5 -4.5t-3.5 -2.5z" />
    <glyph glyph-name="asciicircum" unicode="^" horiz-adv-x="492" 
d="M112 260q-11 -13 -56 -13q-6 0 -6 5q16 21 87.5 163t87.5 183q1 1 18 6t20 5q26 -59 93 -188.5t86 -155.5q0 -4 -3 -7q-6 -5 -29.5 -12.5t-25.5 -5.5q-10 10 -40.5 67t-63 121.5t-37.5 72.5q0 2 -5 1q-1 0 -2 -1q-111 -227 -124 -241z" />
    <glyph glyph-name="underscore" unicode="_" horiz-adv-x="555" 
d="M565 -182v-51h-569v51h569z" />
    <glyph glyph-name="grave" unicode="`" horiz-adv-x="400" 
d="M175 622q26 -52 59 -159q-1 -4 -12 -9.5t-14 -4.5q-18 20 -59.5 74.5t-54.5 74.5q-2 8 3 13q9 3 39.5 8t38.5 3z" />
    <glyph glyph-name="a" unicode="a" horiz-adv-x="415" 
d="M257 261q0 37 -15 59q-24 37 -75 37q-29 0 -42 -10q-14 -10 -42 -72q-3 -3 -18 5.5t-14 14.5q2 12 11 35.5t14 27.5q32 22 72.5 38.5t60.5 16.5q64 0 100 -54q24 -39 24 -100q0 -27 -2 -88.5t-2 -80.5q0 -40 38 -40q17 0 36 6q0 -29 -5 -34q-31 -34 -84 -34q-39 0 -52 27
q-5 7 -7 24q0 1 -2 1.5t-3 -0.5q-84 -52 -121 -52q-31 0 -55 26q-35 37 -35 88q0 15 7.5 34.5t12.5 25.5q17 9 93.5 32t96.5 33q6 3 6 9q2 9 2 25zM255 189q0 5 -5 5q-106 -37 -118 -45q-4 -1 -7.5 -12.5t-3.5 -20.5q0 -29 19 -48t51 -19q26 0 50 16q10 7 12 24q2 19 2 100z
" />
    <glyph glyph-name="b" unicode="b" horiz-adv-x="499" 
d="M295 413q72 0 115 -52q45 -52 45 -129q0 -123 -89 -188q-32 -25 -76 -40.5t-75 -15.5q-44 0 -91 14q-22 4 -47 -1q-4 -2 -8 6q5 76 4 245q0 271 -4 327q-1 22 -24 28q-11 3 -49 9q-3 4 -2.5 15t4.5 14q97 6 162 30q2 0 4.5 -6.5t1.5 -8.5q-5 -8 -7 -19t-4 -54.5
t-2 -126.5q0 -71 1 -95q0 -1 2 -2.5t4 -0.5q88 51 135 51zM241 353q-44 0 -74 -22q-8 -4 -11 -16q-2 -15 -1.5 -95t2.5 -108q1 -33 17 -49q31 -26 83 -26q46 0 77 35q36 43 36 116t-33 118q-36 47 -96 47z" />
    <glyph glyph-name="c" unicode="c" horiz-adv-x="413" 
d="M389 66q-33 -40 -77.5 -59t-83.5 -19q-94 0 -145 70q-40 55 -40 135q0 117 103 179q67 41 128 41q48 0 84 -16q25 -13 31 -27q0 -11 -3 -17q-4 -12 -15.5 -25.5t-18.5 -16.5q-7 -2 -11 -1q-58 55 -112 55q-53 0 -79.5 -39t-26.5 -95q0 -78 38 -122q41 -51 113 -51
q62 0 115 48q6 0 6 -7q0 -25 -6 -33z" />
    <glyph glyph-name="d" unicode="d" horiz-adv-x="507" 
d="M494 51q0 -23 -6 -31q-21 -10 -67.5 -23t-65.5 -14q-4 0 -8 13q-2 16 -2 49q0 7 -5 4q-87 -59 -140 -59q-69 0 -111 54q-46 57 -46 144q0 47 20 90t55 71q31 27 83 45.5t100 18.5q6 0 14 -0.5t17 -2t12 -1.5q4 0 4 5q0 138 -2 162q-1 25 -20 31q-27 8 -61 10
q-3 5 -1.5 17t5.5 15q94 0 167 26q2 -1 4.5 -7.5t1.5 -8.5q-11 -18 -12 -71q-3 -81 -3 -284q0 -200 1 -220q1 -30 18 -33q12 -2 48 0zM244 367q-45 0 -74 -28q-44 -42 -44 -122q0 -77 37 -119t97 -42q45 0 78 28q8 8 8 21q3 78 1 194q0 29 -21 45q-34 23 -82 23z" />
    <glyph glyph-name="e" unicode="e" horiz-adv-x="429" 
d="M387 99q4 -4 5 -6q2 -15 -6 -31q-29 -34 -76 -54t-84 -20q-77 0 -124 47q-59 60 -59 162q0 124 90 182q50 34 110 34q66 0 100 -44.5t42 -100.5q2 -7 16 -11q0 -4 -3.5 -14t-5.5 -12q-58 -15 -264 -22q-5 0 -5 -11q2 -60 42 -99q42 -42 108 -42q60 0 114 42zM211 372
q-36 0 -59.5 -31t-28.5 -83q0 -7 6 -7q28 -1 92 1t77 5q4 3 6 9q-5 42 -30 74t-63 32z" />
    <glyph glyph-name="f" unicode="f" horiz-adv-x="271" 
d="M21 29l41 8q20 7 20 34q0 9 3 266q0 9 -6 9l-59 4q0 20 11 31q34 6 50 17q4 2 4 7q2 80 25 136t80 97q51 37 98 37q54 0 73 -31q2 -7 0 -12q-2 -9 -15.5 -31.5t-19.5 -26.5q-1 -1 -5.5 -1.5t-6.5 0.5q-45 41 -81 41q-24 0 -41 -18q-18 -20 -23 -60t-5 -109v-21q0 -7 6 -7
q66 0 111 3q-9 -39 -10 -57q-33 1 -101 1q-6 0 -6 -9q0 -207 3 -262q1 -29 29 -37q23 -5 57 -9q2 -3 1 -16.5t-5 -15.5q-7 0 -48 1.5t-76 1.5q-28 0 -62.5 -1.5t-41.5 -1.5q-4 4 -4 17t4 15z" />
    <glyph glyph-name="g" unicode="g" horiz-adv-x="448" 
d="M226 413q41 -1 91 -20q23 -10 57 -10q40 0 61 23q2 1 7.5 -2.5t6.5 -5.5q0 -9 -8.5 -29.5t-16.5 -28.5q-11 -13 -36 -13h-24q-2 0 -2 -4q7 -21 7 -44q0 -86 -60 -130q-45 -35 -105 -41q-6 -2 -21 -2q-25 -6 -25 -25q0 -26 41 -30q144 -12 166 -20q31 -11 50.5 -36
t19.5 -63q0 -49 -33 -94t-91 -73q-55 -27 -116 -27q-75 0 -122 36q-48 39 -48 92q0 30 8 40q14 18 95 75v3q-28 10 -44 27t-19 34q0 4 5 19q54 32 66 42q1 1 0.5 2.5t-1.5 2.5q-93 32 -93 142q0 72 57 116q21 16 60 30t67 14zM236 -210q64 0 96 29t32 69q0 50 -50 69
q-42 16 -124 16q-21 0 -35 -9q-55 -35 -55 -76q0 -38 32 -66q39 -32 104 -32zM194 373q-33 0 -53 -26.5t-20 -70.5q0 -52 25 -90t73 -38q29 0 45 18q27 25 27 84q0 52 -23 87.5t-74 35.5z" />
    <glyph glyph-name="h" unicode="h" horiz-adv-x="505" 
d="M8 612q-4 3 -3.5 15.5t4.5 14.5q95 6 154 33q2 -1 5.5 -7.5t2.5 -8.5q-11 -21 -12 -95v-210q0 -3 4 -1q78 60 135 60q61 0 94 -43.5t33 -118.5q0 -139 1 -184q0 -19 15 -26q6 -3 48 -12q3 -2 1.5 -16t-5.5 -16q-54 3 -102 3q-55 0 -97 -3q-4 3 -4 16t4 16q36 7 39 8
q12 3 15.5 12.5t4.5 38.5q3 151 -3 193q-4 26 -27 48.5t-66 22.5t-77 -26q-12 -9 -12 -24q0 -191 1 -219q2 -25 6 -33.5t20 -13.5q1 0 15 -3t25 -4q4 -3 2.5 -15.5t-4.5 -16.5q-1 0 -36 1.5t-70 1.5q-31 0 -63.5 -1.5t-36.5 -1.5q-3 4 -3 17t3 15q20 3 37 9q13 4 17 12t5 29
q2 48 2 165q0 305 -3 333q-2 23 -18 28q-11 3 -51 7z" />
    <glyph glyph-name="i" unicode="i" horiz-adv-x="246" 
d="M231 29q2 -3 0.5 -16t-5.5 -16q-5 0 -38.5 1.5t-66.5 1.5q-25 0 -59.5 -1.5t-39.5 -1.5q-4 2 -4.5 16t3.5 16q27 4 44 10t18 34q2 25 2 142v97q0 13 -9 21q-9 11 -49 25q-3 4 -1 14t5 12q72 5 135 30v-177q0 -121 1 -166q0 -26 20 -33q14 -4 44 -9zM170 556
q0 -35 -21 -51q-4 -3 -23.5 -4.5t-24.5 1.5q-21 11 -27 43q-1 6 0.5 17t4.5 14q21 19 51 19q21 0 30 -9q10 -10 10 -30z" />
    <glyph glyph-name="j" unicode="j" horiz-adv-x="247" 
d="M172 560q0 -32 -19 -51q-4 -3 -26.5 -6t-26.5 0q-20 14 -25 42q-1 6 0 18t4 14q21 21 56 21q27 0 32 -11q5 -6 5 -27zM177 412q-3 -240 -3 -318q-2 -86 -10 -127q-11 -66 -56 -130t-87 -89q-15 2 -31 14q-2 7 0 11q52 34 76.5 93.5t24.5 156.5q0 266 -3 291q-2 22 -19 28
q-18 6 -54 11q-4 4 -3.5 16.5t4.5 15.5q106 6 161 27z" />
    <glyph glyph-name="k" unicode="k" horiz-adv-x="456" 
d="M231 367q-2 4 -1 16.5t5 15.5q121 0 197 8q2 -3 2 -16t-3 -17q-36 -6 -53 -12.5t-35 -25.5q-80 -82 -96 -98q-2 -4 0 -6q22 -34 74 -95.5t81 -85.5q16 -14 30.5 -17.5t44.5 -4.5q2 -2 0.5 -16t-5.5 -16q-9 -2 -100 -2q-22 0 -43 15q-15 12 -37 39t-54 69t-46 59
q-13 17 -35 17q0 -81 2 -121q0 -17 5 -24.5t19 -11.5l44 -8q2 -3 0 -16t-5 -16q-5 0 -40.5 1.5t-62.5 1.5q-34 0 -66.5 -1.5t-35.5 -1.5q-4 2 -4 16t4 16q6 1 19 3t19 4q21 6 22 33q3 47 3 204q0 288 -3 311q-2 21 -17 26q-16 5 -52 7q-2 4 -1.5 16t2.5 14q103 8 153 28
q6 -2 9 -12q-10 -18 -12 -88q-2 -79 -2 -357q23 5 46 23q26 21 54.5 55t33.5 48q2 12 -11 16q-19 5 -49 7z" />
    <glyph glyph-name="l" unicode="l" horiz-adv-x="239" 
d="M16 -3q-3 4 -3 15.5t3 16.5q38 8 44 10q14 8 16 28q4 30 4 263q0 207 -2 239q-3 28 -16 32q-12 4 -54 9q-4 2 -3.5 13.5t4.5 13.5q88 9 152 38q8 -3 8 -11q-9 -23 -9 -80q-1 -50 -1 -251q0 -223 2 -250q1 -21 5.5 -31t17.5 -14q21 -6 42 -9q2 -3 0.5 -15.5t-5.5 -16.5
q-5 0 -38.5 1.5t-66.5 1.5q-23 0 -60 -1.5t-40 -1.5z" />
    <glyph glyph-name="m" unicode="m" horiz-adv-x="764" 
d="M22 29q23 4 39 8q20 6 21 38q5 92 3 226q0 19 -8 27q-17 12 -50 22q-2 4 0 14.5t4 12.5q78 10 129 36q3 -3 3 -5v-57q0 -2 2.5 -2.5t3.5 0.5q81 64 136 64q66 0 104 -66q1 -5 6 0q86 66 141 66q59 0 93 -43t35 -121v-186q0 -15 11 -20q9 -5 53 -14q2 -3 0 -17t-5 -15
q-5 0 -36.5 1.5t-55.5 1.5q-65 0 -104 -3q-3 3 -3.5 16.5t3.5 15.5l36 9q18 6 19 45q3 159 -3 190q-5 30 -25.5 53.5t-62.5 23.5q-45 0 -88 -36q-2 -2 -2 -7q4 -19 4 -72q0 -151 1 -172q0 -16 17 -24q13 -4 43 -10q2 -3 1 -16.5t-5 -15.5q-58 2 -104 2q-15 0 -50 -1t-43 -1
q-4 2 -4 16t4 16q28 5 40 9q16 5 19 32q2 33 2 109.5t-4 98.5q-16 73 -84 73q-43 0 -84 -31q-10 -10 -10 -22q0 -210 1 -234q0 -22 21 -28q3 -1 8.5 -2t14.5 -2.5l15 -2.5q3 -2 2 -15t-4 -17q-9 0 -42.5 1.5t-56.5 1.5q-30 0 -60.5 -1.5t-40.5 -1.5q-4 3 -4 16.5t4 15.5z
" />
    <glyph glyph-name="n" unicode="n" horiz-adv-x="510" 
d="M25 29q23 3 36 8q20 4 22 33q2 30 2 164q0 20 -0.5 45.5t-0.5 32.5q-4 19 -54 40q-2 5 0 14t6 11q29 3 67 14.5t58 22.5q5 -5 5 -7q-2 -20 -2 -57q0 -1 2 -2t3 0q78 65 136 65q61 0 98 -53q27 -43 27 -119q0 -146 1 -180q0 -13 9 -17q16 -8 53 -15q3 -3 1.5 -15.5
t-5.5 -16.5q-2 0 -34.5 1.5t-63.5 1.5q-25 0 -57.5 -1.5t-41.5 -1.5q-3 4 -3.5 16.5t3.5 15.5q23 2 40 8q10 3 13.5 12t4.5 32q0 161 -3 189q-4 38 -28 58q-24 22 -62 22q-47 0 -83 -31q-10 -10 -10 -35q0 -168 2 -214q1 -28 20 -33q21 -6 41 -7q2 -4 1.5 -16.5t-4.5 -16.5
q-2 0 -34.5 1.5t-65.5 1.5q-27 0 -62 -1.5t-37 -1.5q-3 4 -3 16.5t3 15.5z" />
    <glyph glyph-name="o" unicode="o" horiz-adv-x="500" 
d="M264 413q88 0 140.5 -58t52.5 -145q0 -125 -93 -185q-58 -37 -118 -37q-103 0 -152.5 63.5t-49.5 152.5q0 108 87 168q62 41 133 41zM230 370q-28 0 -47 -13q-52 -34 -52 -128q0 -87 39.5 -142t99.5 -55q37 0 61 21q38 35 38 124q0 87 -38.5 140t-100.5 53z" />
    <glyph glyph-name="p" unicode="p" horiz-adv-x="500" 
d="M15 349q-3 4 -2 15t4 14q27 4 69 17.5t69 28.5q2 1 5.5 -2.5t3.5 -5.5q-3 -21 -3 -62q0 -4 5 -2q90 61 143 61q60 0 100 -47q48 -53 48 -133q0 -114 -88 -184q-35 -29 -81 -45t-84 -16q-12 0 -40 6q-5 2 -5 -4q0 -111 2 -145q1 -31 30 -37q15 -3 63 -8q2 -5 1 -17.5
t-5 -15.5h-38q-53 0 -207 -11q-3 4 -3.5 16t3.5 16q41 10 45 11q14 5 19.5 15t7.5 35q2 49 3 251q1 144 -2 201q-1 28 -16 35q-14 8 -47 13zM254 349q-45 0 -85 -32q-10 -7 -10 -21q-1 -20 -1 -90.5t1 -97.5q0 -28 19 -44q31 -25 79 -25q38 0 70 27q46 40 46 127
q0 73 -34 116q-33 40 -85 40z" />
    <glyph glyph-name="q" unicode="q" horiz-adv-x="500" 
d="M502 -233q-50 0 -73 -1q-36 -1 -70 -3.5t-61.5 -5t-35.5 -3.5q-3 4 -3.5 16.5t2.5 15.5q16 3 52 13q14 5 20 14t8 33q0 4 3 187q0 5 -4 3q-29 -19 -66.5 -33.5t-59.5 -14.5q-73 0 -122 57t-49 145q0 51 22 94.5t59 70.5q36 26 88 42t98 16q57 0 130 -20q-10 -25 -13 -50
q-2 -72 -2 -144q0 -318 2 -349q2 -23 7.5 -31.5t23.5 -12.5q35 -6 48 -7q2 -4 0.5 -16.5t-4.5 -15.5zM242 366q-51 0 -82.5 -37t-31.5 -104q0 -83 40.5 -129t104.5 -46q37 0 66 18q5 3 5 13q0 203 -3 236q-3 17 -11 25q-27 24 -88 24z" />
    <glyph glyph-name="r" unicode="r" horiz-adv-x="332" 
d="M283 413q34 0 48 -23q2 -7 0 -16q-2 -10 -13 -34t-19 -33q-5 -5 -8 -3q-38 32 -68 32q-27 0 -52 -41q-8 -16 -8 -32q0 -151 2 -191q2 -26 21 -32q16 -5 66 -11q2 -3 0.5 -16t-4.5 -16q-2 0 -50.5 1.5t-72.5 1.5q-47 0 -101 -3q-3 3 -3 16t3 16q27 5 40 8q17 8 18 29
q3 26 3 165q0 66 -1 77q-2 13 -13 22.5t-43 21.5q0 20 5 25q75 8 126 37q1 0 3 -2t2 -3q-2 -26 -2 -75q0 -4 5 -2q37 44 64 63q26 18 52 18z" />
    <glyph glyph-name="s" unicode="s" horiz-adv-x="352" 
d="M305 400q-7 -35 -12 -107q-2 -3 -14.5 -3.5t-15.5 1.5q-5 34 -12.5 50.5t-21.5 25.5q-19 13 -50 13q-26 0 -43.5 -16t-17.5 -41q0 -26 19.5 -44.5t75.5 -44.5q60 -27 83 -54.5t23 -67.5q0 -54 -46 -89t-116 -35q-65 0 -107 20q-12 37 -18 111q2 3 15 7t17 3
q20 -68 59 -92q24 -13 52 -13q30 0 48 15t18 39q0 27 -17.5 45t-66.5 41q-60 29 -85.5 58.5t-25.5 70.5q0 50 39.5 85t110.5 35q28 0 68 -7q19 -4 41 -6z" />
    <glyph glyph-name="t" unicode="t" horiz-adv-x="303" 
d="M279 345q-23 1 -117 1q-4 0 -4 -5q-2 -82 0 -176q0 -55 6 -76q12 -39 61 -39q35 0 63 16q2 -2 0 -16.5t-4 -17.5q-34 -44 -101 -44q-64 0 -90 49q-15 27 -15 115q0 31 0.5 99t0.5 86q0 7 -6 9l-56 4q-1 5 2.5 18.5t7.5 17.5q27 4 47 11q5 3 5 8v87q48 26 66 45
q3 1 10 1.5t9 -0.5q-5 -43 -5 -133q0 -6 5 -6q93 0 125 4q-7 -31 -10 -58z" />
    <glyph glyph-name="u" unicode="u" horiz-adv-x="496" 
d="M14 361q-2 6 0 17t6 14q87 0 143 15q-7 -49 -7 -196q0 -82 5 -102q14 -57 82 -57q45 0 81 32q9 7 11 22q3 18 0 215q0 24 -18 29q-13 4 -64 11q-2 5 0 16.5t5 14.5q112 0 162 13q-3 -25 -3 -82l-1 -233q0 -32 19 -33q10 -1 45 1q1 -6 -0.5 -18t-4.5 -15q-77 -31 -132 -40
q-4 0 -6 9q-2 20 -2 55q0 2 -2.5 3t-3.5 -1q-76 -63 -132 -63q-120 0 -120 135q0 21 0.5 101t-0.5 95q-2 27 -18 33q-7 3 -45 9z" />
    <glyph glyph-name="v" unicode="v" horiz-adv-x="432" 
d="M-7 369q-2 5 -0.5 17.5t4.5 15.5q5 0 39 -1.5t62 -1.5q41 0 98 3q4 -3 5 -16t-2 -17q-23 -3 -40 -8q-12 -4 -8 -15q7 -26 43.5 -124t43.5 -114q1 -1 3 -0.5t2 1.5q51 117 79 206q12 38 -9 45q-16 6 -44 9q-2 4 -1 17.5t5 15.5q33 -3 91 -3q49 0 85 3q3 -3 3 -16.5
t-3 -16.5q-32 -6 -36 -7q-14 -5 -22 -15t-18 -32q-33 -71 -95 -223q-16 -43 -34 -97q-8 1 -25.5 0.5t-25.5 -1.5q-12 43 -31 92q-41 110 -81 208q-15 39 -22.5 49.5t-24.5 16.5q-12 5 -41 9z" />
    <glyph glyph-name="w" unicode="w" horiz-adv-x="652" 
d="M-7 369q-3 4 -2.5 16.5t4.5 16.5q4 0 39 -1.5t62 -1.5q47 0 107 3q3 -3 3.5 -15.5t-2.5 -17.5q-26 -4 -41 -8q-12 -6 -10 -19q7 -30 31.5 -116t35.5 -117q2 -2 4 1q74 183 96 266q26 -4 53 1q6 -29 26 -83q46 -135 69 -189q3 0 4 1q60 164 73 223q2 14 -0.5 20t-15.5 11
q-15 5 -47 9q-2 6 -1 17.5t5 15.5q5 0 38.5 -1.5t50.5 -1.5q63 0 92 3q4 -5 3.5 -16.5t-3.5 -16.5q-20 -4 -30 -7q-13 -4 -21.5 -11.5t-12.5 -14t-11 -20.5q-56 -144 -117 -321q-29 4 -53 0q-13 44 -48.5 142t-46.5 120q-2 3 -5 0l-42 -108q-42 -108 -57 -154q-27 4 -53 0
q-46 183 -94 309q-11 30 -19 41.5t-24 16.5q-21 6 -40 7z" />
    <glyph glyph-name="x" unicode="x" horiz-adv-x="408" 
d="M-12 29q45 7 58 13.5t35 33.5q48 58 84 113q3 4 0 9q-40 72 -71 120q-19 30 -34.5 38t-58.5 13q-2 4 -1 17.5t4 15.5q9 0 44 -1.5t61 -1.5q50 0 89 3q3 -3 3.5 -16t-1.5 -17q-27 -5 -28 -6q-11 -2 -5 -13q21 -41 54 -95q2 -6 5 0q43 58 56 89q6 14 -8 19q-12 3 -34 6
q-2 5 -1.5 17t4.5 16q5 0 32.5 -1.5t45.5 -1.5q28 0 88 3q3 -4 3.5 -16.5t-1.5 -16.5q-43 -6 -57 -14.5t-39 -39.5q-14 -18 -39 -53.5t-28 -39.5q-2 -4 1 -9q19 -36 60 -102q35 -53 50.5 -64t68.5 -18q3 -4 1 -17t-6 -15q-9 0 -45.5 1.5t-56.5 1.5q-49 0 -103 -3
q-4 4 -4.5 16t1.5 16q30 7 31 8q12 5 5 17q-20 37 -58 99q-3 5 -7 0q-44 -62 -60 -96q-8 -15 8 -20l36 -8q2 -4 0.5 -16t-5.5 -16q-9 0 -41 1.5t-54 1.5q-36 0 -81 -3q-3 3 -3.5 15.5t2.5 16.5z" />
    <glyph glyph-name="y" unicode="y" horiz-adv-x="442" 
d="M-8 369q-2 5 -0.5 18t4.5 15q6 0 41 -1.5t58 -1.5q61 0 106 3q4 -3 4.5 -16t-1.5 -17q-36 -7 -38 -8q-12 -4 -8 -18q13 -42 47.5 -132t40.5 -102h4q70 150 81 224q4 21 -17 28q-16 5 -44 8q-2 5 -1 17.5t4 15.5q3 0 35 -1.5t54 -1.5q10 0 97 3q4 -4 4 -16t-3 -17
q-24 -3 -38 -8q-25 -8 -40 -47q-107 -281 -234 -498q-2 -3 -30 -56l-8 -4q-11 2 -29.5 11.5t-26.5 16.5q-1 2 -1 9t1 9q105 128 144 213l-9 18q-59 152 -94 238q-21 50 -34 68t-35 24q-10 3 -34 6z" />
    <glyph glyph-name="z" unicode="z" horiz-adv-x="397" 
d="M348 400q1 -1 2.5 -8t0.5 -10q-31 -62 -201 -331q-2 -7 2 -7q37 -9 130 -9q12 0 31 23.5t39 69.5q5 7 32 7l3 -3q-10 -62 -35 -116q-12 -22 -32 -22q-33 0 -145.5 3.5t-132.5 2.5q-2 2 -4 9.5t-1 10.5q168 252 212 336q2 5 -2 5q-105 0 -118 -2q-20 -3 -34 -19t-36 -71
q-4 -2 -16 1t-18 9q17 60 25 130q28 -10 71 -10h140q27 0 55.5 0.5t31.5 0.5z" />
    <glyph glyph-name="braceleft" unicode="{" horiz-adv-x="437" 
d="M62 294q53 1 78 20.5t26 52.5t-3 78q-7 63 -7 92q0 192 207 207q3 -1 5 -15.5t0 -17.5q-79 -12 -111.5 -45.5t-32.5 -93.5q0 -23 7 -79.5t7 -82.5q0 -21 -2.5 -36.5t-12 -36.5t-33 -36.5t-59.5 -24.5q-1 -1 -1 -2.5t1 -2.5q32 -3 54.5 -14t34 -23.5t18 -31.5t7.5 -31.5
t1 -30.5q0 -31 -7 -88t-7 -80q0 -106 144 -124q2 -3 -1 -17.5t-7 -16.5q-84 -4 -144 36t-60 119q0 12 7 103q5 54 6.5 91.5t-26.5 61t-98 32.5q-2 4 1.5 20t7.5 17z" />
    <glyph glyph-name="bar" unicode="|" horiz-adv-x="300" 
d="M116 710h68v-1020h-68v1020z" />
    <glyph glyph-name="braceright" unicode="}" horiz-adv-x="442" 
d="M378 255q-54 -1 -79 -20.5t-27 -52.5t3 -79q7 -63 7 -87q0 -101 -52 -151t-156 -58q-3 3 -5 16.5t0 17.5q79 13 111.5 45t32.5 93q0 23 -7 78t-7 81q0 104 106 134q2 1 2 3.5t-2 3.5q-38 4 -63 17.5t-35 35t-12.5 37.5t-2.5 39q0 31 6.5 90.5t6.5 82.5q0 33 -13 57
t-36.5 37t-45 19.5t-50.5 10.5q-1 4 2.5 17.5t5.5 15.5q84 4 144.5 -35.5t61.5 -117.5q0 -18 -8 -103q-4 -54 -4 -93.5t29.5 -64.5t95.5 -33q2 -6 -1.5 -19.5t-7.5 -16.5z" />
    <glyph glyph-name="asciitilde" unicode="~" horiz-adv-x="571" 
d="M209 310q31 0 103 -32q54 -27 82 -27q60 0 120 67h2q2 0 5 -1t4 -2q0 -15 -7 -39q-18 -32 -61.5 -61.5t-91.5 -29.5q-33 0 -104 38q-45 21 -84 21q-26 0 -65.5 -25t-57.5 -45q-1 -1 -4.5 1.5t-3.5 4.5q0 9 4.5 24.5t7.5 18.5q21 29 70 58t81 29z" />
    <glyph glyph-name="uni00A0" unicode="&#xa0;" horiz-adv-x="199" 
 />
    <glyph glyph-name="exclamdown" unicode="&#xa1;" horiz-adv-x="284" 
d="M96 -212q-16 0 -18 9q0 7 38 418q3 2 18 -1.5t16 -6.5q7 -70 23.5 -215t18.5 -165q1 -5 -4 -14t-10 -11q-11 -4 -40.5 -9t-41.5 -5zM130 302q-24 0 -38 13q-19 18 -19 46q0 23 17 40t46 17q23 0 38 -15q16 -17 16 -42q0 -26 -17 -43q-16 -16 -43 -16z" />
    <glyph glyph-name="cent" unicode="&#xa2;" horiz-adv-x="484" 
d="M239 148l30 301q0 5 -4 5q-56 -2 -89.5 -44.5t-33.5 -103.5q0 -57 24 -99t73 -59zM61 276q0 119 107 181q48 26 106 35l7 75q5 2 19.5 4.5t20.5 1.5l-8 -78q47 0 79 -12q29 -12 35 -26q1 -4 -2 -18q-15 -27 -32 -35q-2 -1 -7 -1q-45 39 -75 47q-5 0 -5 -4l-29 -305
q8 -1 23 -1q67 0 123 50q2 -2 3 -15t0 -17q-59 -70 -153 -83q-3 0 -5 -5l-7 -73q-3 -3 -18.5 -5t-19.5 0l8 79q-1 6 -4 6q-79 11 -124 67q-42 52 -42 132z" />
    <glyph glyph-name="sterling" unicode="&#xa3;" horiz-adv-x="484" 
d="M308 -26q-33 0 -111 25q-70 22 -94 22q-28 0 -66 -37q-8 -2 -15 8q0 5 6.5 26.5t9.5 24.5q14 13 40 26q43 24 34 197q-60 0 -74 2q-1 1 -1 7q4 23 14 33q2 0 23.5 -0.5t36.5 -0.5q-2 140 50 207q37 48 85.5 71.5t70.5 23.5q24 0 44.5 -6t30 -13t9.5 -13q-3 -31 -18 -60
q-5 -5 -11 -3q-46 44 -100 44q-30 0 -43 -25q-11 -21 -16.5 -57.5t-6.5 -68t-2 -95.5q0 -5 5 -5q104 0 145 3q3 -12 -5 -20q-13 -15 -37 -20q-22 -5 -104 -5q-5 0 -5 -6q-5 -39 -9.5 -61.5t-20.5 -56t-44 -61.5q24 4 103 -9q68 -13 86 -13q49 0 71 17.5t47 84.5q4 4 10 0
q10 -15 12 -28q-23 -77 -70 -117.5t-80 -40.5z" />
    <glyph glyph-name="currency" unicode="&#xa4;" horiz-adv-x="484" 
d="M260 471q47 0 87 -26q2 -2 6 0q41 47 49 53q10 5 49 5q5 -3 5 -9q-44 -47 -72 -87q28 -47 28 -103q0 -62 -37 -114q-3 -5 0 -10q44 -53 74 -81q1 -2 -1 -6.5t-3 -5.5q-12 -3 -32 -3.5t-28 2.5q-44 37 -59 57q-43 -35 -101 -35q-54 0 -98 35q-10 -8 -24.5 -23t-28.5 -30
t-17 -18q-6 -3 -12 3q-2 8 -2 26.5t3 24.5q8 12 16 21t17.5 18t14.5 15v7q-22 40 -22 90q0 68 33 111q-43 49 -53 61q-3 5 -3 13q0 4 9.5 23.5t14.5 25.5q1 1 5.5 1t5.5 -2q46 -56 62 -73q3 -1 8 0q45 34 106 34zM232 422q-48 0 -72.5 -34.5t-24.5 -86.5q0 -68 34.5 -103.5
t84.5 -35.5q94 0 94 120q0 59 -32.5 99.5t-83.5 40.5z" />
    <glyph glyph-name="yen" unicode="&#xa5;" horiz-adv-x="484" 
d="M287 172q-5 0 -5 -5q0 -16 0.5 -43t0.5 -35q1 -29 6 -38t24 -13l53 -9q2 -2 0.5 -15.5t-3.5 -16.5q-18 0 -58 1.5t-65 1.5q-26 0 -65.5 -1.5t-61.5 -1.5q-2 4 -2.5 17t1.5 15q45 7 55 9q19 4 25 13t6 33q2 38 2 82q0 6 -4 6q-19 0 -42 -0.5t-35.5 -1t-20.5 -0.5
q3 31 7 37q2 0 29 -0.5t63 -0.5q3 0 3 3v59q0 6 -5 6q-35 0 -61 -0.5t-28 -0.5q3 31 8 36h78q5 0 3 7q-56 116 -86 172q-17 32 -29 47t-19 19t-25 8q-3 1 -34 6q-2 4 -2 16t3 16q6 0 43 -1.5t62 -1.5q61 0 105 4q3 -4 4 -16.5t-2 -16.5q-26 -5 -33 -7q-15 -6 -6 -26
q78 -168 85 -181q1 -1 3 -1t3 1q54 104 83 174q10 25 -15 32q-6 2 -20.5 4t-23.5 4q-2 3 0 17t4 16q8 0 40 -2t52 -2q32 0 92 4q2 -4 2 -17t-2 -16q-27 -5 -29 -6q-22 -5 -36.5 -18t-31.5 -44q-65 -123 -95 -184q-1 -2 -0.5 -5t2.5 -3q22 0 45.5 0.5t36 1t16.5 0.5
q2 -12 -5 -36q-8 0 -41.5 0.5t-53.5 0.5q-5 0 -5 -6v-59q0 -4 4 -4q21 0 57.5 0.5t38.5 0.5q3 -16 -6 -36q-7 0 -39 0.5t-50 0.5z" />
    <glyph glyph-name="brokenbar" unicode="&#xa6;" horiz-adv-x="300" 
d="M115 631h70v-348h-70v348zM115 127h70v-355h-70v355z" />
    <glyph glyph-name="section" unicode="&#xa7;" horiz-adv-x="487" 
d="M253 550q-20 0 -22 -25q0 -24 15 -56q25 -54 106 -180q63 -96 63 -174q0 -72 -38 -136q-30 -53 -81 -88.5t-90 -35.5q-75 0 -129 49q-15 19 -15 29q0 18 17 52q6 3 9 3q31 -38 69 -56t59 -18q17 0 17 20q0 24 -24 64q-46 72 -78 120q-87 135 -87 225q0 109 67 188
q25 30 65.5 53t75.5 23q68 0 114 -43q15 -15 15 -30q0 -20 -16 -44q0 -1 -2.5 -1.5t-4.5 0.5q-18 16 -54 38.5t-51 22.5zM276 -78q35 16 56 54t21 83q0 40 -11 78t-23.5 61.5t-39.5 67.5q-4 7 -19.5 31t-22 35t-19 33.5t-18.5 38t-11 36t-6 38.5q-4 37 11 72
q-41 -11 -68 -52.5t-27 -96.5q0 -87 77 -212q5 -7 24 -36t29.5 -46.5t25 -44t21.5 -48t7 -39.5q2 -27 -7 -53z" />
    <glyph glyph-name="dieresis" unicode="&#xa8;" horiz-adv-x="400" 
d="M159 555q0 -33 -19 -47q-4 -3 -22 -4.5t-23 1.5q-20 11 -24 40q-1 5 0.5 16t4.5 14q19 17 44 17q24 0 30 -9q9 -11 9 -28zM329 555q0 -33 -19 -47q-4 -3 -22 -4t-23 2q-18 9 -24 39q-1 5 0.5 16t4.5 14q17 17 45 17q23 0 29 -9q9 -11 9 -28z" />
    <glyph glyph-name="copyright" unicode="&#xa9;" horiz-adv-x="747" 
d="M374 632q140 0 232 -93.5t92 -229.5q0 -137 -94.5 -231t-229.5 -94q-139 0 -231.5 92.5t-92.5 232.5q0 134 95 228.5t229 94.5zM374 598q-117 0 -199 -84t-82 -205q0 -119 82 -203.5t199 -84.5q126 0 203 82.5t77 205.5q0 120 -82 204.5t-198 84.5zM390 473
q-60 0 -90.5 -43.5t-30.5 -113.5q0 -64 35.5 -113.5t103.5 -49.5q48 0 104 69q3 0 9.5 -6t7.5 -9q-5 -19 -22 -44t-25 -31q-49 -14 -87 -14q-96 0 -151.5 52t-55.5 141q0 78 55.5 135t160.5 57q26 0 68 -5q38 -5 52 -4q-7 -43 -9 -104q-1 -3 -13 -4t-14 1q-7 52 -33 70
q-22 16 -65 16z" />
    <glyph glyph-name="ordfeminine" unicode="&#xaa;" horiz-adv-x="303" 
d="M295 267q1 -3 -0.5 -15t-2.5 -14q-26 -26 -64 -26q-30 0 -38 20q-5 9 -7 17q0 1 -1.5 1.5t-2.5 -0.5q-60 -38 -88 -38q-21 0 -40 19q-25 25 -25 63q0 11 5.5 26.5t8.5 18.5q12 6 69 23t71 24q2 1 5 7q1 6 1 17q0 22 -11 40q-17 25 -51 25q-23 0 -31 -8q-11 -8 -31 -48
q-1 -2 -15 4t-13 9q2 9 8.5 26t9.5 19q22 16 53.5 28.5t45.5 12.5q52 0 79 -40q18 -29 18 -71q0 -19 -2.5 -59.5t-2.5 -54.5q0 -31 25 -31q12 0 27 5zM185 355q0 4 -4 4q-9 -3 -28 -10t-33 -12.5t-20 -9.5q-9 -6 -9 -21q0 -20 13.5 -32t35.5 -12q19 0 33 11q9 5 9 18
q3 30 3 64z" />
    <glyph glyph-name="guillemotleft" unicode="&#xab;" horiz-adv-x="660" 
d="M175 192q38 -22 91.5 -62.5t69.5 -58.5q7 -12 4 -40q-2 -7 -7 -7q-23 22 -120 81.5t-138 73.5q4 23 8 27q62 28 145 79.5t113 77.5q3 -2 6 -7q0 -27 -8 -39q-14 -17 -67.5 -55t-96.5 -64q-4 -4 0 -6zM399 192q41 -23 99 -65.5t74 -60.5q8 -11 5 -43q-1 -3 -8 -6
q-23 23 -125 84.5t-144 77.5q3 20 8 27q65 29 150.5 82.5t119.5 81.5q4 0 6 -7q0 -28 -8 -40q-26 -31 -177 -125q-5 -3 0 -6z" />
    <glyph glyph-name="logicalnot" unicode="&#xac;" horiz-adv-x="571" 
d="M88 291q-37 0 -37 6q7 36 18 55q11 -2 198 -2h83h63t41.5 0.5t27 0.5h10.5q5 0 5 -7q0 -6 -0.5 -82.5t-0.5 -114.5q0 -75 3 -95q-35 -11 -55 -11q-2 0 -5 3t-3 5q0 39 -1 125.5t-1 92.5q0 24 -13 24h-333z" />
    <glyph glyph-name="uni00AD" unicode="&#xad;" horiz-adv-x="295" 
d="M52 238q63 0 203 5l1 -10q-1 -10 -7 -30t-9 -21q-6 -3 -94 -5.5t-106 -1.5l-1 9q1 14 5.5 34t7.5 20z" />
    <glyph glyph-name="registered" unicode="&#xae;" horiz-adv-x="322" 
d="M161 616q63 0 104 -41.5t41 -104.5t-42.5 -104.5t-103.5 -41.5q-62 0 -103 41t-41 105q0 60 42.5 103t102.5 43zM161 591q-49 0 -82.5 -34.5t-33.5 -86.5q0 -50 34 -85t82 -35q50 0 82.5 33.5t32.5 86.5q0 50 -33.5 85.5t-81.5 35.5zM88 402q-2 9 0 13q16 3 20 5.5
t4 10.5v85q0 7 -3.5 9t-19.5 4q-1 1 -0.5 8.5t1.5 7.5q4 0 16 -0.5t18 -0.5q10 0 29 0.5t21 0.5q21 0 33 -10.5t12 -27.5q0 -28 -31 -36q22 -33 32 -44q12 -10 25 -12q1 -2 0 -8t-3 -7q-17 -3 -38 3q-8 3 -16 12q-7 9 -26 40q-5 8 -17 8v-31q0 -8 3.5 -10.5t18.5 -4.5
q1 -1 1 -7t-1 -8q-1 0 -15.5 1t-22.5 1q-11 0 -25 -1t-16 -1zM145 478q21 0 29 3q12 6 12 21q0 27 -33 27q-8 0 -8 -8v-43z" />
    <glyph glyph-name="macron" unicode="&#xaf;" horiz-adv-x="400" 
d="M103 560q14 -2 47 -2h163q0 -10 -6.5 -31t-9.5 -22q-9 -2 -179 -2q-26 0 -32 2q1 7 8 29.5t9 25.5z" />
    <glyph glyph-name="degree" unicode="&#xb0;" horiz-adv-x="303" 
d="M154 606q55 0 85.5 -34t30.5 -87q0 -50 -35.5 -83.5t-83.5 -33.5q-51 0 -85.5 31.5t-34.5 82.5q0 59 35.5 91.5t87.5 32.5zM149 559q-30 0 -50.5 -20t-20.5 -49q0 -38 22 -56.5t53 -18.5t51 16.5t20 52.5q0 30 -20 52.5t-55 22.5z" />
    <glyph glyph-name="plusminus" unicode="&#xb1;" horiz-adv-x="571" 
d="M510 8l-461 -1q-3 0 -3 10q2 29 13 50q5 -1 119 -1l344 -1q6 0 3 -10q-8 -46 -15 -47zM525 364q-9 -44 -16 -45q-5 -1 -37.5 -1h-79.5t-76 -1q-6 0 -6 -7q-1 -35 -0.5 -73.5t0.5 -72t-1 -36.5q-1 -5 -19.5 -11.5t-29.5 -8.5q-8 0 -8 3v38.5v74v93.5q-76 -1 -203 -1
q-3 0 -3 10q4 32 13 51q7 -2 119 -2h74v72q0 85 -2 115q7 3 28.5 8t26.5 5t5 -37v-153q0 -10 6 -10h207q1 -1 2 -5t0 -6z" />
    <glyph glyph-name="two.k" unicode="&#xb2;" horiz-adv-x="342" 
d="M130 697q-45 0 -88 -48q-2 0 -5.5 4.5t-6.5 9.5t-3 7q19 34 55.5 60t77.5 26q47 0 79 -33t32 -83q0 -64 -69 -133q-21 -21 -45 -43t-32 -30q-3 -5 2 -7q35 -3 120 -3q22 2 50 62q2 1 13 -3.5t12 -7.5q-17 -77 -31 -97q-6 -12 -25 -12q-20 0 -94 1.5t-104 1.5
q-6 0 -19 -0.5t-17 -0.5q-1 1 -2 10t0 12q76 65 117 110q53 61 53 120q0 32 -18 54.5t-52 22.5z" />
    <glyph glyph-name="three.k" unicode="&#xb3;" horiz-adv-x="342" 
d="M168 757q42 0 69.5 -25.5t28.5 -61.5q0 -46 -54 -82v-3q37 -11 63 -36.5t26 -63.5q0 -66 -69 -107q-47 -29 -106 -29q-38 0 -57 10q-12 5 -22 22q-10 18 -16 58q1 4 10.5 8.5t12.5 3.5q18 -38 42 -51q25 -15 59 -15q33 0 54.5 17.5t21.5 54.5t-28 61.5t-72 24.5
q-13 0 -23 -2q-1 3 3 16t6 14q85 17 85 72q0 27 -17 44t-45 17q-39 0 -79 -37q-4 0 -9.5 9t-4.5 13q22 27 54.5 47.5t66.5 20.5z" />
    <glyph glyph-name="acute" unicode="&#xb4;" horiz-adv-x="400" 
d="M230 615q8 4 40.5 7t39.5 1q5 -3 5 -11q-10 -19 -56.5 -80.5t-67.5 -86.5q-4 -1 -14 6t-12 11q55 135 65 153z" />
    <glyph glyph-name="mu" unicode="&#xb5;" horiz-adv-x="468" 
d="M69 385q5 6 32 16t42 11q9 0 12 -2q0 -10 -2.5 -75.5t-4.5 -126.5t-2 -79q0 -19 5 -32q12 -33 50 -33q32 0 62.5 29t47.5 85q7 21 7 47q1 120 1 162q6 7 32 15.5t41 9.5q10 -3 11 -4q-14 -118 -14 -208q0 -10 -0.5 -25t-0.5 -20q0 -49 7 -67.5t24 -18.5q24 0 50 17
q1 -1 2 -11t0 -14q-11 -32 -40.5 -53t-55.5 -21t-40 27t-14 98q-2 2 -4 0q-33 -61 -73.5 -93t-64.5 -32q-33 0 -50 27q-5 -73 -2 -110q4 -48 25.5 -70t76.5 -39q1 -3 -1.5 -12t-5.5 -12q-11 -12 -37.5 -21t-46.5 -9q-54 0 -61 129q-2 40 -4 243q0 118 -4 272z" />
    <glyph glyph-name="paragraph" unicode="&#xb6;" horiz-adv-x="588" 
d="M540 588q-2 0 -25.5 -3t-33.5 -6q-18 -5 -25 -15.5t-11.5 -54.5t-3.5 -137q1 -46 0 -145.5t-1 -144.5q0 -75 -13 -133t-32.5 -90t-45 -52t-46.5 -26.5t-42 -6.5q-59 0 -79 39q-11 24 -11 68q2 8 9 15q59 -44 119 -44q55 0 71 56.5t14 224.5q-47 -22 -89 -23
q-116 15 -182.5 84.5t-66.5 177.5q0 102 67.5 160t158.5 71q39 6 92.5 10t107 6.5t67.5 3.5q3 -4 3 -17.5t-2 -17.5zM271 370q0 -178 111 -194q-4 116 -4 254q0 111 11 136q-60 -6 -89 -52t-29 -144z" />
    <glyph glyph-name="periodcentered" unicode="&#xb7;" horiz-adv-x="226" 
d="M114 252q22 0 40 -16q18 -17 18 -48q0 -25 -16 -42q-18 -18 -46 -18q-22 0 -39 17q-18 18 -18 45q0 23 19 44q20 18 42 18z" />
    <glyph glyph-name="cedilla" unicode="&#xb8;" horiz-adv-x="397" 
d="M212 5h34l-33 -45q25 -12 43 -29q24 -19 24 -49q0 -41 -41 -69.5t-71 -28.5q-37 0 -53 28q-1 5 0 14.5t3 11.5q28 -14 61 -14q18 0 29.5 8.5t11.5 23.5q0 35 -72 59q0 6 1 9q1 1 13.5 18t28 37t21.5 26z" />
    <glyph glyph-name="one.k" unicode="&#xb9;" horiz-adv-x="340" 
d="M274 395q1 -1 0.5 -14.5t-2.5 -14.5q-9 0 -45 1.5t-61 1.5t-59 -1.5t-43 -1.5q-2 2 -2 14t2 14q8 1 44 7q26 5 26 34q2 62 2 128q0 102 -2 114q-1 7 -1.5 10t-4.5 7t-11 5q-17 5 -41 5q-2 3 -0.5 14t3.5 13q79 7 119 26q9 0 9 -2q-3 -35 -3 -149q0 -143 2 -167
q1 -16 5 -24t16 -12q23 -5 47 -8z" />
    <glyph glyph-name="ordmasculine" unicode="&#xba;" horiz-adv-x="368" 
d="M194 519q64 0 103.5 -42t39.5 -104q0 -91 -67 -134q-38 -26 -89 -26q-74 0 -112 46t-38 109q0 78 63 121q46 30 100 30zM170 485q-29 0 -48.5 -24.5t-19.5 -75.5q0 -63 26.5 -100t69.5 -37q69 0 69 101q0 63 -26.5 99.5t-70.5 36.5z" />
    <glyph glyph-name="guillemotright" unicode="&#xbb;" horiz-adv-x="659" 
d="M484 196q-38 21 -91.5 61.5t-68.5 58.5q-5 9 -5 41q1 3 8 6q22 -22 119.5 -81t137.5 -74q-4 -23 -8 -26q-62 -28 -144.5 -79.5t-113.5 -78.5q-4 2 -6 7q3 31 8 39q14 17 68.5 55.5t95.5 63.5q6 4 0 7zM261 196q-41 23 -99.5 65.5t-74.5 60.5q-8 12 -5 42q2 4 8 6
q24 -23 126 -84.5t143 -76.5q0 -20 -8 -28q-65 -30 -151.5 -83.5t-117.5 -80.5q-7 2 -7 7q0 9 3.5 23.5t5.5 16.5q23 28 176 125q2 1 2.5 3.5t-1.5 3.5z" />
    <glyph glyph-name="onequarter" unicode="&#xbc;" horiz-adv-x="812" 
d="M751 106q-9 0 -31.5 0.5t-35.5 0.5q-1 0 -3 -5l1 -117q-56 -3 -69 -6l2 124q0 3 -3 3l-75 1h-91q-1 2 0.5 13.5t2.5 12.5q24 35 104.5 138.5t82.5 106.5q2 1 22 3.5t22 1.5v-227q0 -5 3 -5q36 0 76 2q-8 -36 -8 -47zM267 247q1 -1 0.5 -14.5t-2.5 -14.5q-9 0 -45 1.5
t-61 1.5t-59 -1.5t-43 -1.5q-1 2 -1 14t1 14q8 1 44 7q26 5 26 34q2 62 2 128q0 102 -2 114q-1 7 -1.5 10t-4.5 7t-11 5q-17 5 -41 5q-2 3 -0.5 14t3.5 13q79 7 119 26q9 0 9 -2q-3 -35 -3 -149q0 -143 2 -167q1 -16 5 -24t16 -12q23 -5 47 -8zM574 637q2 1 18 -0.5t20 -2.5
q1 -1 1 -6q-7 -10 -196 -338.5t-203 -350.5q-1 -2 -4 -2.5t-4 0.5q-18 14 -20 26q4 9 194 339.5t194 334.5zM502 151q14 0 52 -0.5t58 -0.5q3 0 3 4l3 156q-1 -1 -3 -1q-102 -132 -114 -155q0 -3 1 -3z" />
    <glyph glyph-name="onehalf" unicode="&#xbd;" horiz-adv-x="812" 
d="M264 247q1 -1 0.5 -14.5t-2.5 -14.5q-9 0 -45 1.5t-61 1.5t-59 -1.5t-43 -1.5q-2 2 -2 14t2 14q8 1 44 7q26 5 26 34q2 62 2 128q0 102 -2 114q-1 7 -1.5 10t-4.5 7t-11 5q-18 5 -41 5q-2 3 -0.5 14t3.5 13q79 7 119 26q9 0 9 -2q-3 -35 -3 -149q0 -143 2 -167
q1 -16 5 -24t16 -12q23 -5 47 -8zM566 637q2 1 18 -0.5t20 -2.5q1 -1 1 -6q-7 -10 -196 -338.5t-203 -350.5q-1 -2 -4 -2.5t-4 0.5q-18 14 -20 26q4 9 194 339.5t194 334.5zM583 324q-45 0 -88 -48q-2 0 -5.5 4.5t-6.5 9.5t-3 7q19 34 55.5 60t77.5 26q47 0 79 -33t32 -83
q0 -64 -69 -133q-21 -21 -45 -43t-32 -30q-3 -5 2 -7q34 -3 120 -3q22 2 50 62q2 1 13 -3.5t12 -7.5q-17 -77 -31 -97q-6 -12 -25 -12q-21 0 -95 1.5t-103 1.5q-6 0 -19 -0.5t-17 -0.5q-1 1 -2 10t0 12q76 65 117 110q53 61 53 120q0 32 -18 54.5t-52 22.5z" />
    <glyph glyph-name="threequarters" unicode="&#xbe;" horiz-adv-x="812" 
d="M760 106q-9 0 -31.5 0.5t-35.5 0.5q-1 0 -3 -5l1 -117q-56 -3 -69 -6l2 124q0 3 -3 3l-75 1h-91q-1 2 0.5 13.5t2.5 12.5q24 35 104.5 138.5t82.5 106.5q2 1 22 3.5t22 1.5v-227q0 -5 3 -5q36 0 76 2q-8 -36 -8 -47zM190 609q42 0 69.5 -25.5t28.5 -61.5q0 -46 -54 -82
v-3q37 -11 63 -36.5t26 -63.5q0 -66 -69 -107q-47 -29 -106 -29q-38 0 -57 10q-12 5 -22 22q-10 18 -16 58q1 4 10.5 8.5t12.5 3.5q18 -38 42 -51q25 -15 59 -15q33 0 54.5 17.5t21.5 54.5t-28 61.5t-72 24.5q-13 0 -23 -2q-1 3 3 16t6 14q85 17 85 72q0 27 -17 44t-45 17
q-39 0 -79 -37q-4 0 -9.5 9t-4.5 13q22 27 54.5 47.5t66.5 20.5zM592 637q2 1 18 -0.5t20 -2.5q1 -1 1 -6q-7 -10 -196 -338.5t-203 -350.5q-1 -2 -4 -2.5t-4 0.5q-18 14 -20 26q4 9 194 339.5t194 334.5zM511 151q15 0 52 -0.5t58 -0.5q3 0 3 4l3 156q-1 -1 -3 -1
q-102 -132 -114 -155q0 -3 1 -3z" />
    <glyph glyph-name="questiondown" unicode="&#xbf;" horiz-adv-x="348" 
d="M190 116q0 21 -36 54q-2 1 -1 6.5t3 7.5q13 15 46 25q12 2 20 -1q22 -10 35 -28t13 -37q0 -18 -12 -32q-9 -10 -59 -47.5t-60 -46.5q-22 -21 -22 -46q0 -35 38 -66t92 -38q22 -2 32 -2q11 -2 11 -15q0 -8 -9 -26t-18 -28q-7 -11 -35 -11q-67 0 -123 47q-56 45 -56 109
q0 45 23 68q12 14 53 43t50 37q15 12 15 27zM186 299q-23 0 -38 15q-18 16 -18 44q0 24 16 40q17 17 46 17q23 0 38 -15q16 -17 16 -42t-17 -43q-18 -16 -43 -16z" />
    <glyph glyph-name="Agrave" unicode="&#xc0;" horiz-adv-x="628" 
d="M-19 29q55 8 74.5 23t44.5 72q33 78 89.5 226.5t76.5 206.5q16 43 18 60l12 -1h22h17t12.5 0.5t5.5 0.5q16 -52 17 -54q114 -325 167 -450q22 -51 39 -63.5t72 -20.5q3 -2 2 -15.5t-4 -16.5q-78 3 -125 3q-73 0 -136 -3q-2 3 -2.5 16.5t2.5 15.5q49 9 55 11q18 8 12 26
q-18 62 -58 164q-2 7 -9 7q-16 1 -97 1q-71 0 -82 -1q-6 0 -11 -9q-50 -131 -51 -155q-1 -15 4.5 -22.5t27.5 -12.5q10 -2 49 -9q3 -2 2 -15.5t-4 -16.5q-5 0 -51 1.5t-81 1.5t-70.5 -1.5t-39.5 -1.5q-3 3 -3 16t3 16zM297 508q-1 1 -2.5 0.5t-2.5 -1.5q-6 -18 -35 -99.5
t-39 -112.5q0 -6 4 -7q10 -1 80 -1q55 0 66 1q2 0 3.5 3t0.5 6q-60 174 -75 211zM252 797q13 -9 60.5 -58.5t59.5 -65.5q2 -2 -8 -13.5t-13 -11.5q-6 0 -81 43.5t-88 54.5q-1 1 -0.5 7t1.5 8q6 7 32 21t37 15z" />
    <glyph glyph-name="Aacute" unicode="&#xc1;" horiz-adv-x="628" 
d="M-19 29q55 8 74.5 23t44.5 72q33 78 89.5 226.5t76.5 206.5q16 43 18 60l12 -1h22h17t12.5 0.5t5.5 0.5q16 -52 17 -54q114 -325 167 -450q22 -51 39 -63.5t72 -20.5q3 -2 2 -15.5t-4 -16.5q-78 3 -125 3q-73 0 -136 -3q-2 3 -2.5 16.5t2.5 15.5q49 9 55 11q18 8 12 26
q-18 62 -58 164q-2 7 -9 7q-16 1 -97 1q-71 0 -82 -1q-6 0 -11 -9q-50 -131 -51 -155q-1 -15 4.5 -22.5t27.5 -12.5q10 -2 49 -9q3 -2 2 -15.5t-4 -16.5q-5 0 -51 1.5t-81 1.5t-70.5 -1.5t-39.5 -1.5q-3 3 -3 16t3 16zM297 508q-1 1 -2.5 0.5t-2.5 -1.5q-6 -18 -35 -99.5
t-39 -112.5q0 -6 4 -7q10 -1 80 -1q55 0 66 1q2 0 3.5 3t0.5 6q-60 174 -75 211zM393 798q10 0 32.5 -14t30.5 -24q2 -2 2 -7t-2 -7q-11 -11 -87.5 -53.5t-83.5 -42.5q-2 0 -10 11t-7 13q11 14 62.5 66t62.5 58z" />
    <glyph glyph-name="Acircumflex" unicode="&#xc2;" horiz-adv-x="628" 
d="M-19 29q55 8 74.5 23t44.5 72q33 78 89.5 226.5t76.5 206.5q16 43 18 60l12 -1h22h17t12.5 0.5t5.5 0.5q16 -52 17 -54q114 -325 167 -450q22 -51 39 -63.5t72 -20.5q3 -2 2 -15.5t-4 -16.5q-78 3 -125 3q-73 0 -136 -3q-2 3 -2.5 16.5t2.5 15.5q49 9 55 11q18 8 12 26
q-18 62 -58 164q-2 7 -9 7q-16 1 -97 1q-71 0 -82 -1q-6 0 -11 -9q-50 -131 -51 -155q-1 -15 4.5 -22.5t27.5 -12.5q10 -2 49 -9q3 -2 2 -15.5t-4 -16.5q-5 0 -51 1.5t-81 1.5t-70.5 -1.5t-39.5 -1.5q-3 3 -3 16t3 16zM297 508q-1 1 -2.5 0.5t-2.5 -1.5q-6 -18 -35 -99.5
t-39 -112.5q0 -6 4 -7q10 -1 80 -1q55 0 66 1q2 0 3.5 3t0.5 6q-60 174 -75 211zM307 769q6 5 23 8q9 -10 60 -52t71 -57q0 -4 -7 -15t-10 -11q-5 0 -58 24t-64 31q-5 2 -10 0q-17 -10 -63.5 -32.5t-50.5 -22.5t-10.5 10.5t-5.5 15.5q112 88 125 101z" />
    <glyph glyph-name="Atilde" unicode="&#xc3;" horiz-adv-x="628" 
d="M-19 29q55 8 74.5 23t44.5 72q33 78 89.5 226.5t76.5 206.5q16 43 18 60l12 -1h22h17t12.5 0.5t5.5 0.5q16 -52 17 -54q114 -325 167 -450q22 -51 39 -63.5t72 -20.5q3 -2 2 -15.5t-4 -16.5q-78 3 -125 3q-73 0 -136 -3q-2 3 -2.5 16.5t2.5 15.5q49 9 55 11q18 8 12 26
q-18 62 -58 164q-2 7 -9 7q-16 1 -97 1q-71 0 -82 -1q-6 0 -11 -9q-50 -131 -51 -155q-1 -15 4.5 -22.5t27.5 -12.5q10 -2 49 -9q3 -2 2 -15.5t-4 -16.5q-5 0 -51 1.5t-81 1.5t-70.5 -1.5t-39.5 -1.5q-3 3 -3 16t3 16zM297 508q-1 1 -2.5 0.5t-2.5 -1.5q-6 -18 -35 -99.5
t-39 -112.5q0 -6 4 -7q10 -1 80 -1q55 0 66 1q2 0 3.5 3t0.5 6q-60 174 -75 211zM385 723q33 0 72 34q2 1 4 -5q6 -17 5 -24q-11 -20 -44.5 -41t-61.5 -21q-16 0 -69 17q-24 8 -39 8q-23 0 -63 -31q-1 -1 -5 4.5t-6 12.5t0 8q10 15 43 39t53 24q23 0 63 -14q35 -11 48 -11z
" />
    <glyph glyph-name="Adieresis" unicode="&#xc4;" horiz-adv-x="628" 
d="M-19 29q55 8 74.5 23t44.5 72q33 78 89.5 226.5t76.5 206.5q16 43 18 60l12 -1h22h17t12.5 0.5t5.5 0.5q16 -52 17 -54q114 -325 167 -450q22 -51 39 -63.5t72 -20.5q3 -2 2 -15.5t-4 -16.5q-78 3 -125 3q-73 0 -136 -3q-2 3 -2.5 16.5t2.5 15.5q49 9 55 11q18 8 12 26
q-18 62 -58 164q-2 7 -9 7q-16 1 -97 1q-71 0 -82 -1q-6 0 -11 -9q-50 -131 -51 -155q-1 -15 4.5 -22.5t27.5 -12.5q10 -2 49 -9q3 -2 2 -15.5t-4 -16.5q-5 0 -51 1.5t-81 1.5t-70.5 -1.5t-39.5 -1.5q-3 3 -3 16t3 16zM297 508q-1 1 -2.5 0.5t-2.5 -1.5q-6 -18 -35 -99.5
t-39 -112.5q0 -6 4 -7q10 -1 80 -1q55 0 66 1q2 0 3.5 3t0.5 6q-60 174 -75 211zM281 709q0 -35 -21 -50q-4 -3 -22 -4.5t-23 1.5q-20 12 -26 42q-1 3 0 14.5t5 15.5q18 18 49 18q23 0 28 -9q10 -10 10 -28zM454 709q0 -35 -20 -50q-4 -3 -22.5 -4.5t-23.5 1.5
q-19 10 -27 42q0 23 6 30q18 18 49 18q24 0 28 -9q10 -10 10 -28z" />
    <glyph glyph-name="Aring" unicode="&#xc5;" horiz-adv-x="628" 
d="M-19 29q55 8 74.5 23t44.5 72q33 78 89.5 226.5t76.5 206.5q16 43 18 60l12 -1h22h17t12.5 0.5t5.5 0.5q16 -52 17 -54q114 -325 167 -450q22 -51 39 -63.5t72 -20.5q3 -2 2 -15.5t-4 -16.5q-78 3 -125 3q-73 0 -136 -3q-2 3 -2.5 16.5t2.5 15.5q49 9 55 11q18 8 12 26
q-18 62 -58 164q-2 7 -9 7q-16 1 -97 1q-71 0 -82 -1q-6 0 -11 -9q-50 -131 -51 -155q-1 -15 4.5 -22.5t27.5 -12.5q10 -2 49 -9q3 -2 2 -15.5t-4 -16.5q-5 0 -51 1.5t-81 1.5t-70.5 -1.5t-39.5 -1.5q-3 3 -3 16t3 16zM297 508q-1 1 -2.5 0.5t-2.5 -1.5q-6 -18 -35 -99.5
t-39 -112.5q0 -6 4 -7q10 -1 80 -1q55 0 66 1q2 0 3.5 3t0.5 6q-60 174 -75 211zM324 787q36 0 57 -21t21 -52q0 -35 -23 -55.5t-59 -20.5q-27 0 -53 18t-26 54q0 35 21 56t62 21zM320 750q-22 0 -34 -10.5t-12 -27.5q0 -16 15 -26t35 -10q18 0 31.5 9.5t13.5 24.5
q0 40 -49 40z" />
    <glyph glyph-name="AE" unicode="&#xc6;" horiz-adv-x="852" 
d="M242 587q-4 4 -2.5 17t4.5 15q9 0 71.5 -1.5t96.5 -1.5h238q83 0 115 4l1 -1q1 -1 1 -2q-9 -34 -16 -146q-4 -4 -18 -4t-18 3q-5 39 -14 64q-6 20 -16 28t-32 9q-14 1 -80.5 1t-78.5 -1q-5 -1 -8 -7.5t-2 -10.5l17 -234q4 -8 7 -8q103 0 136 3q25 3 34 28q8 21 13 44
q6 2 20.5 1.5t17.5 -4.5q-6 -63 -6 -100q-1 -20 0.5 -52.5t1.5 -41.5q-26 -7 -38 0q-5 25 -10 42q-8 28 -34 29q-30 3 -131 3q-5 0 -5 -8q11 -139 14 -166q5 -37 28 -42q41 -6 143 -3q24 3 37.5 9t27.5 26q25 35 48 90q6 1 18.5 -3.5t15.5 -8.5q-16 -80 -38 -133
q-6 -17 -17.5 -22t-38.5 -5q-18 0 -92 1.5t-164 1.5q-37 0 -94.5 -2t-74.5 -2q-3 3 -3.5 16.5t1.5 16.5q62 8 80 13q18 4 24 16t6 39q0 11 -11 159q-3 5 -5 5q-16 1 -93 1q-65 0 -76 -1q-3 0 -7.5 -3.5t-4.5 -4.5q-79 -165 -81 -180t3 -22.5t26 -12.5q7 -2 24.5 -4.5
t26.5 -4.5q2 -2 1.5 -15.5t-3.5 -17.5q-7 0 -53 2t-79 2q-35 0 -74 -2t-42 -2q-6 11 0 33q58 9 79 24t50 71q106 193 229 439q5 9 -4 11q-87 12 -92 13zM394 560q-2 6 -8 3q-16 -33 -62 -126t-58 -117q0 -7 4 -8q11 -1 65 -1q56 0 70 1q7 0 7 7q-13 210 -18 241z" />
    <glyph glyph-name="Ccedilla" unicode="&#xc7;" horiz-adv-x="682" 
d="M572 457q-8 59 -20.5 81.5t-42.5 35.5q-46 21 -124 21q-107 0 -165.5 -73.5t-58.5 -200.5q0 -123 68.5 -207.5t195.5 -84.5q69 0 108 32q33 26 77 100q5 1 15.5 -5t12.5 -12q-8 -31 -34 -78t-43 -58q-53 -21 -135 -25l-18 -27q35 -19 45 -29q24 -20 24 -52
q0 -43 -43.5 -73.5t-74.5 -30.5q-40 0 -56 30q-2 12 4 27q27 -15 64 -15q40 0 40 33q0 40 -74 63q0 6 2 8q28 39 47 65q-159 5 -244.5 91.5t-85.5 238.5q0 86 40.5 159.5t119.5 116.5q84 46 203 46q37 0 125 -9q45 -6 74 -8q-12 -80 -12 -155q-3 -4 -18 -6.5t-16 1.5z" />
    <glyph glyph-name="Egrave" unicode="&#xc8;" horiz-adv-x="573" 
d="M39 588q-4 4 -3 16t5 16q9 0 58 -2t81 -2h198q82 0 113 4q4 -4 4 -6q-13 -51 -17 -139q-4 -4 -18.5 -4t-17.5 3q-2 22 -11 60q-6 19 -16 27.5t-33 9.5q-16 1 -79 1t-74 -1q-5 -1 -9 -8t-4 -12q-2 -138 -1 -206q0 -7 5 -7q99 -2 152 2q24 2 32 29q7 21 11 41q6 3 20 2
t17 -5q-7 -74 -7 -96q0 -19 1 -50t1 -43q-4 -4 -19 -4.5t-19 3.5q-7 38 -9 43q-7 25 -32 28q-21 2 -148 2q-5 0 -5 -8q-2 -80 1 -195q2 -31 24 -38q20 -6 155 -6q28 1 41.5 8t28.5 27q24 28 49 87q5 1 17.5 -3.5t15.5 -8.5q-4 -26 -18 -71.5t-25 -68.5q-4 -9 -15.5 -13
t-46.5 -4q-45 0 -132 2t-134 2q-36 0 -91.5 -1.5t-72.5 -1.5q-3 3 -3.5 16t2.5 16q67 8 79 11q18 4 25 15.5t9 38.5q1 18 1 238q0 178 -1 196q-2 27 -7 36.5t-23 13.5q-17 5 -55 10zM229 803q13 -9 60.5 -58.5t59.5 -65.5q2 -2 -8 -13.5t-13 -11.5q-6 0 -81 43.5t-88 54.5
q-1 1 -0.5 7t1.5 8q6 7 32 21t37 15z" />
    <glyph glyph-name="Eacute" unicode="&#xc9;" horiz-adv-x="573" 
d="M39 588q-4 4 -3 16t5 16q9 0 58 -2t81 -2h198q82 0 113 4q4 -4 4 -6q-13 -51 -17 -139q-4 -4 -18.5 -4t-17.5 3q-2 22 -11 60q-6 19 -16 27.5t-33 9.5q-16 1 -79 1t-74 -1q-5 -1 -9 -8t-4 -12q-2 -138 -1 -206q0 -7 5 -7q99 -2 152 2q24 2 32 29q7 21 11 41q6 3 20 2
t17 -5q-7 -74 -7 -96q0 -19 1 -50t1 -43q-4 -4 -19 -4.5t-19 3.5q-7 38 -9 43q-7 25 -32 28q-21 2 -148 2q-5 0 -5 -8q-2 -80 1 -195q2 -31 24 -38q20 -6 155 -6q28 1 41.5 8t28.5 27q24 28 49 87q5 1 17.5 -3.5t15.5 -8.5q-4 -26 -18 -71.5t-25 -68.5q-4 -9 -15.5 -13
t-46.5 -4q-45 0 -132 2t-134 2q-36 0 -91.5 -1.5t-72.5 -1.5q-3 3 -3.5 16t2.5 16q67 8 79 11q18 4 25 15.5t9 38.5q1 18 1 238q0 178 -1 196q-2 27 -7 36.5t-23 13.5q-17 5 -55 10zM371 803q10 0 32.5 -14t30.5 -24q2 -2 2 -7.5t-2 -6.5q-11 -11 -87.5 -53.5t-83.5 -42.5
q-2 0 -10 11t-7 13q11 14 62.5 66t62.5 58z" />
    <glyph glyph-name="Ecircumflex" unicode="&#xca;" horiz-adv-x="573" 
d="M39 588q-4 4 -3 16t5 16q9 0 58 -2t81 -2h198q82 0 113 4q4 -4 4 -6q-13 -51 -17 -139q-4 -4 -18.5 -4t-17.5 3q-2 22 -11 60q-6 19 -16 27.5t-33 9.5q-16 1 -79 1t-74 -1q-5 -1 -9 -8t-4 -12q-2 -138 -1 -206q0 -7 5 -7q99 -2 152 2q24 2 32 29q7 21 11 41q6 3 20 2
t17 -5q-7 -74 -7 -96q0 -19 1 -50t1 -43q-4 -4 -19 -4.5t-19 3.5q-7 38 -9 43q-7 25 -32 28q-21 2 -148 2q-5 0 -5 -8q-2 -80 1 -195q2 -31 24 -38q20 -6 155 -6q28 1 41.5 8t28.5 27q24 28 49 87q5 1 17.5 -3.5t15.5 -8.5q-4 -26 -18 -71.5t-25 -68.5q-4 -9 -15.5 -13
t-46.5 -4q-45 0 -132 2t-134 2q-36 0 -91.5 -1.5t-72.5 -1.5q-3 3 -3.5 16t2.5 16q67 8 79 11q18 4 25 15.5t9 38.5q1 18 1 238q0 178 -1 196q-2 27 -7 36.5t-23 13.5q-17 5 -55 10zM275 784q6 5 23 8q9 -10 60 -52t71 -57q0 -4 -7 -15t-10 -11q-5 0 -58 24t-64 31
q-5 2 -10 0q-17 -10 -63.5 -32.5t-50.5 -22.5t-10.5 10.5t-5.5 15.5q112 88 125 101z" />
    <glyph glyph-name="Edieresis" unicode="&#xcb;" horiz-adv-x="573" 
d="M39 588q-4 4 -3 16t5 16q9 0 58 -2t81 -2h198q82 0 113 4q4 -4 4 -6q-13 -51 -17 -139q-4 -4 -18.5 -4t-17.5 3q-2 22 -11 60q-6 19 -16 27.5t-33 9.5q-16 1 -79 1t-74 -1q-5 -1 -9 -8t-4 -12q-2 -138 -1 -206q0 -7 5 -7q99 -2 152 2q24 2 32 29q7 21 11 41q6 3 20 2
t17 -5q-7 -74 -7 -96q0 -19 1 -50t1 -43q-4 -4 -19 -4.5t-19 3.5q-7 38 -9 43q-7 25 -32 28q-21 2 -148 2q-5 0 -5 -8q-2 -80 1 -195q2 -31 24 -38q20 -6 155 -6q28 1 41.5 8t28.5 27q24 28 49 87q5 1 17.5 -3.5t15.5 -8.5q-4 -26 -18 -71.5t-25 -68.5q-4 -9 -15.5 -13
t-46.5 -4q-45 0 -132 2t-134 2q-36 0 -91.5 -1.5t-72.5 -1.5q-3 3 -3.5 16t2.5 16q67 8 79 11q18 4 25 15.5t9 38.5q1 18 1 238q0 178 -1 196q-2 27 -7 36.5t-23 13.5q-17 5 -55 10zM249 725q0 -35 -21 -50q-4 -3 -22 -4.5t-23 1.5q-20 12 -26 42q-1 3 0 14.5t5 15.5
q18 18 49 18q23 0 28 -9q10 -10 10 -28zM422 725q0 -35 -20 -50q-4 -3 -22.5 -4.5t-23.5 1.5q-19 10 -27 42q0 23 6 30q18 18 49 18q24 0 28 -9q10 -10 10 -28z" />
    <glyph glyph-name="Igrave" unicode="&#xcc;" horiz-adv-x="332" 
d="M31 588q-3 3 -2.5 16t3.5 15q7 0 55 -1.5t77 -1.5q30 0 76 1.5t55 1.5q3 -3 3.5 -15t-3.5 -16q-44 -6 -53 -8q-17 -5 -22.5 -15.5t-6.5 -34.5q-3 -42 -3 -210q0 -175 3 -227q1 -24 8 -35.5t28 -17.5q24 -5 62 -11q3 -2 2 -16t-5 -16q-8 0 -57 1.5t-78 1.5q-33 0 -83 -1.5
t-60 -1.5q-4 2 -4 16t4 16q38 5 52 9q21 5 27.5 14.5t8.5 27.5q4 29 4 259q0 145 -2 192q-2 16 -3.5 23t-7 13.5t-15.5 8.5q-18 6 -63 12zM103 801q13 -9 60.5 -58.5t59.5 -65.5q2 -2 -8 -13.5t-13 -11.5q-6 0 -81 43.5t-88 54.5q-1 1 -0.5 7t1.5 8q6 7 32 21t37 15z" />
    <glyph glyph-name="Iacute" unicode="&#xcd;" horiz-adv-x="332" 
d="M31 588q-3 3 -2.5 16t3.5 15q7 0 55 -1.5t77 -1.5q30 0 76 1.5t55 1.5q3 -3 3.5 -15t-3.5 -16q-44 -6 -53 -8q-17 -5 -22.5 -15.5t-6.5 -34.5q-3 -42 -3 -210q0 -175 3 -227q1 -24 8 -35.5t28 -17.5q24 -5 62 -11q3 -2 2 -16t-5 -16q-8 0 -57 1.5t-78 1.5q-33 0 -83 -1.5
t-60 -1.5q-4 2 -4 16t4 16q38 5 52 9q21 5 27.5 14.5t8.5 27.5q4 29 4 259q0 145 -2 192q-2 16 -3.5 23t-7 13.5t-15.5 8.5q-18 6 -63 12zM239 803q10 0 32.5 -14t30.5 -24q2 -2 2 -7.5t-2 -6.5q-11 -11 -87.5 -53.5t-83.5 -42.5q-2 0 -10 11t-7 13q11 14 62.5 66t62.5 58z
" />
    <glyph glyph-name="Icircumflex" unicode="&#xce;" horiz-adv-x="332" 
d="M31 588q-3 3 -2.5 16t3.5 15q7 0 55 -1.5t77 -1.5q30 0 76 1.5t55 1.5q3 -3 3.5 -15t-3.5 -16q-44 -6 -53 -8q-17 -5 -22.5 -15.5t-6.5 -34.5q-3 -42 -3 -210q0 -175 3 -227q1 -24 8 -35.5t28 -17.5q24 -5 62 -11q3 -2 2 -16t-5 -16q-8 0 -57 1.5t-78 1.5q-33 0 -83 -1.5
t-60 -1.5q-4 2 -4 16t4 16q38 5 52 9q21 5 27.5 14.5t8.5 27.5q4 29 4 259q0 145 -2 192q-2 16 -3.5 23t-7 13.5t-15.5 8.5q-18 6 -63 12zM154 790q6 5 23 8q9 -10 60 -52t71 -57q0 -4 -7 -15t-10 -11q-5 0 -58 24t-64 31q-5 2 -10 0q-17 -10 -63.5 -32.5t-50.5 -22.5
t-10.5 10.5t-5.5 15.5q112 88 125 101z" />
    <glyph glyph-name="Idieresis" unicode="&#xcf;" horiz-adv-x="332" 
d="M31 588q-3 3 -2.5 16t3.5 15q7 0 55 -1.5t77 -1.5q30 0 76 1.5t55 1.5q3 -3 3.5 -15t-3.5 -16q-44 -6 -53 -8q-17 -5 -22.5 -15.5t-6.5 -34.5q-3 -42 -3 -210q0 -175 3 -227q1 -24 8 -35.5t28 -17.5q24 -5 62 -11q3 -2 2 -16t-5 -16q-8 0 -57 1.5t-78 1.5q-33 0 -83 -1.5
t-60 -1.5q-4 2 -4 16t4 16q38 5 52 9q21 5 27.5 14.5t8.5 27.5q4 29 4 259q0 145 -2 192q-2 16 -3.5 23t-7 13.5t-15.5 8.5q-18 6 -63 12zM127 724q0 -35 -21 -50q-4 -3 -22 -4.5t-23 1.5q-20 12 -26 42q-1 3 0 14.5t5 15.5q18 18 49 18q23 0 28 -9q10 -10 10 -28zM300 724
q0 -35 -20 -50q-4 -3 -22.5 -4.5t-23.5 1.5q-19 10 -27 42q0 23 6 30q18 18 49 18q24 0 28 -9q10 -10 10 -28z" />
    <glyph glyph-name="Eth" unicode="&#xd0;" horiz-adv-x="716" 
d="M28 588q-2 3 -1 15.5t4 15.5q8 0 57.5 -1.5t65.5 -1.5q24 0 83 2t112 2q134 0 215 -70q96 -84 96 -228q0 -171 -126 -260q-96 -68 -244 -68q-34 0 -117.5 1.5t-110.5 1.5h-44q-3 5 -3 17.5t3 14.5q45 4 68 11q16 4 24 14t9 34q3 58 3 214q-26 0 -47 -0.5t-31 -1t-16 -0.5
q3 31 7 40q7 0 39.5 -0.5t47.5 -0.5q0 158 -2 192q-2 24 -10.5 33.5t-27.5 13.5q-18 5 -54 10zM214 99q0 -26 19 -41q29 -22 106 -22q87 0 144 52q78 73 78 217q0 161 -114 236q-62 40 -173 40q-37 0 -51 -5q-8 -4 -10 -17q-2 -19 -2 -220q158 2 178 2q3 -19 -6 -40
q-29 0 -86.5 0.5t-85.5 0.5q0 -185 3 -203z" />
    <glyph glyph-name="Ntilde" unicode="&#xd1;" horiz-adv-x="745" 
d="M17 587q-3 3 -2.5 16t4.5 16q9 0 55 -1.5t77 -1.5q38 0 45 1q6 -15 36 -54q167 -212 350 -428q1 -1 3 2q0 341 -3 385q-2 24 -9.5 35.5t-29.5 17.5q-26 7 -69 13q-4 3 -3.5 16t3.5 15q8 0 54 -1.5t84 -1.5q20 0 62.5 1.5t46.5 1.5q4 -3 4 -15.5t-4 -15.5q-33 -7 -45 -11
q-19 -6 -26 -18.5t-9 -35.5q-3 -46 -8 -390q0 -72 2 -138q-24 4 -72 0q-57 81 -384 490q-3 2 -5 0q-3 -315 2 -387q1 -27 10.5 -40t30.5 -18q8 -3 62 -11q3 -4 2 -16.5t-4 -15.5q-9 0 -52.5 1.5t-76.5 1.5q-37 0 -78 -1.5t-47 -1.5q-3 2 -3 16t3 16q36 5 55 11q18 6 27.5 18
t11.5 38q4 72 9 421q0 37 -29 50q-25 14 -80 20zM440 737q33 0 72 34q2 1 4 -5q6 -17 5 -24q-11 -20 -44.5 -41t-61.5 -21q-16 0 -69 17q-24 8 -39 8q-23 0 -63 -31q-1 -1 -5 4.5t-6 12.5t0 8q10 15 43 39t53 24q23 0 63 -14q35 -11 48 -11z" />
    <glyph glyph-name="Ograve" unicode="&#xd2;" horiz-adv-x="753" 
d="M371 -18q-143 0 -228 91q-87 94 -87 241q0 110 64 194q41 56 115.5 91t153.5 35q146 0 227 -91t81 -221q0 -124 -62 -209q-46 -64 -116.5 -97.5t-147.5 -33.5zM409 30q66 0 105 34q84 66 84 222q0 85 -29 156t-86 110q-56 39 -130 39q-49 0 -88 -22q-52 -30 -79 -91.5
t-27 -140.5q0 -85 32.5 -160t94.5 -115q51 -32 123 -32zM320 816q13 -9 60.5 -58.5t59.5 -65.5q2 -2 -8 -13.5t-13 -11.5q-6 0 -81 43.5t-88 54.5q-1 1 -0.5 7t1.5 8q6 7 32 21t37 15z" />
    <glyph glyph-name="Oacute" unicode="&#xd3;" horiz-adv-x="753" 
d="M371 -18q-143 0 -228 91q-87 94 -87 241q0 110 64 194q41 56 115.5 91t153.5 35q146 0 227 -91t81 -221q0 -124 -62 -209q-46 -64 -116.5 -97.5t-147.5 -33.5zM409 30q66 0 105 34q84 66 84 222q0 85 -29 156t-86 110q-56 39 -130 39q-49 0 -88 -22q-52 -30 -79 -91.5
t-27 -140.5q0 -85 32.5 -160t94.5 -115q51 -32 123 -32zM437 816q10 0 32.5 -14t30.5 -24q2 -2 2 -7t-2 -7q-11 -11 -87.5 -53.5t-83.5 -42.5q-2 0 -10 11t-7 13q11 14 62.5 66t62.5 58z" />
    <glyph glyph-name="Ocircumflex" unicode="&#xd4;" horiz-adv-x="753" 
d="M371 -18q-143 0 -228 91q-87 94 -87 241q0 110 64 194q41 56 115.5 91t153.5 35q146 0 227 -91t81 -221q0 -124 -62 -209q-46 -64 -116.5 -97.5t-147.5 -33.5zM409 30q66 0 105 34q84 66 84 222q0 85 -29 156t-86 110q-56 39 -130 39q-49 0 -88 -22q-52 -30 -79 -91.5
t-27 -140.5q0 -85 32.5 -160t94.5 -115q51 -32 123 -32zM363 793q6 5 23 8q9 -10 60 -52t71 -57q0 -4 -7 -15t-10 -11q-5 0 -58 24t-64 31q-5 2 -10 0q-17 -10 -63.5 -32.5t-50.5 -22.5t-10.5 10.5t-5.5 15.5q112 88 125 101z" />
    <glyph glyph-name="Otilde" unicode="&#xd5;" horiz-adv-x="753" 
d="M371 -18q-143 0 -228 91q-87 94 -87 241q0 110 64 194q41 56 115.5 91t153.5 35q146 0 227 -91t81 -221q0 -124 -62 -209q-46 -64 -116.5 -97.5t-147.5 -33.5zM409 30q66 0 105 34q84 66 84 222q0 85 -29 156t-86 110q-56 39 -130 39q-49 0 -88 -22q-52 -30 -79 -91.5
t-27 -140.5q0 -85 32.5 -160t94.5 -115q51 -32 123 -32zM439 743q33 0 72 34q2 1 4 -5q6 -17 5 -24q-11 -20 -44.5 -41t-61.5 -21q-16 0 -69 17q-24 8 -39 8q-23 0 -63 -31q-1 -1 -5 4.5t-6 12.5t0 8q10 15 43 39t53 24q23 0 63 -14q35 -11 48 -11z" />
    <glyph glyph-name="Odieresis" unicode="&#xd6;" horiz-adv-x="753" 
d="M371 -18q-143 0 -228 91q-87 94 -87 241q0 110 64 194q41 56 115.5 91t153.5 35q146 0 227 -91t81 -221q0 -124 -62 -209q-46 -64 -116.5 -97.5t-147.5 -33.5zM409 30q66 0 105 34q84 66 84 222q0 85 -29 156t-86 110q-56 39 -130 39q-49 0 -88 -22q-52 -30 -79 -91.5
t-27 -140.5q0 -85 32.5 -160t94.5 -115q51 -32 123 -32zM336 733q0 -35 -21 -50q-4 -3 -22 -4.5t-23 1.5q-20 12 -26 42q-1 3 0 14.5t5 15.5q18 18 49 18q24 0 28 -9q10 -10 10 -28zM509 733q0 -35 -20 -50q-4 -3 -22.5 -4.5t-23.5 1.5q-19 10 -27 42q0 23 6 30q18 18 49 18
q23 0 28 -9q10 -10 10 -28z" />
    <glyph glyph-name="multiply" unicode="&#xd7;" horiz-adv-x="571" 
d="M450 459q5 11 66 13q2 -1 3 -5.5t0 -6.5q-36 -48 -195 -226v-7q36 -41 100.5 -110t89.5 -91q1 -2 -0.5 -6t-3.5 -5q-8 -3 -40.5 1t-42.5 12q-38 32 -147 152q-4 4 -8 0q-126 -140 -144 -154q-17 -12 -71 -15q-2 1 -4 5t-1 6q14 12 87 91t97 106q4 6 0 10
q-142 155 -177 202q0 5 13.5 25t18.5 25q6 3 11 0q5 -10 76.5 -94t106.5 -119q146 162 165 191z" />
    <glyph glyph-name="Oslash" unicode="&#xd8;" horiz-adv-x="753" 
d="M194 30l-49 -65q-2 -2 -19 1.5t-21 7.5l-1 4l57 77q-51 45 -78 114.5t-27 144.5q0 110 64 194q41 56 115.5 91t153.5 35q90 0 171 -44l41 56q4 6 39 -4v-6l-50 -69q52 -42 79.5 -107.5t27.5 -137.5q0 -124 -62 -209q-46 -64 -116.5 -97.5t-147.5 -33.5q-102 0 -177 48z
M215 127l299 404q-62 60 -160 60q-49 0 -88 -22q-53 -30 -80.5 -92t-27.5 -140q0 -125 57 -210zM540 499l-299 -405q65 -65 167 -65q65 0 107 34q84 67 84 223q0 139 -59 213z" />
    <glyph glyph-name="Ugrave" unicode="&#xd9;" horiz-adv-x="716" 
d="M27 588q-4 2 -3.5 15.5t4.5 15.5q5 0 54 -1.5t76 -1.5q26 0 69 1.5t53 1.5q4 -2 4 -15t-3 -16q-43 -8 -50 -10q-18 -5 -24 -16t-6 -35q-3 -139 0 -280q4 -67 16 -93q12 -48 57.5 -79.5t118.5 -31.5q34 0 60 6.5t52 24.5t41.5 55.5t18.5 94.5q9 142 2 286q-1 36 -10 50
t-35 19q-14 3 -54 8q-3 4 -2.5 17t3.5 15q5 0 48 -1.5t77 -1.5q26 0 66.5 1.5t44.5 1.5q3 -2 3.5 -16t-3.5 -16q-33 -7 -44 -10q-21 -6 -28 -21.5t-8 -51.5q-1 -48 -3 -123.5t-3 -102t-4.5 -61.5t-10.5 -61q-22 -92 -89 -133t-156 -41q-221 0 -243 181q-4 38 -6 200.5
t-2 166.5q-2 39 -28 48q-7 2 -53 10zM303 804q13 -9 60.5 -58.5t59.5 -65.5q2 -2 -8 -13.5t-13 -11.5q-6 0 -81 43.5t-88 54.5q-1 1 -0.5 7t1.5 8q6 7 32 21t37 15z" />
    <glyph glyph-name="Uacute" unicode="&#xda;" horiz-adv-x="716" 
d="M27 588q-4 2 -3.5 15.5t4.5 15.5q5 0 54 -1.5t76 -1.5q26 0 69 1.5t53 1.5q4 -2 4 -15t-3 -16q-43 -8 -50 -10q-18 -5 -24 -16t-6 -35q-3 -139 0 -280q4 -67 16 -93q12 -48 57.5 -79.5t118.5 -31.5q34 0 60 6.5t52 24.5t41.5 55.5t18.5 94.5q9 142 2 286q-1 36 -10 50
t-35 19q-14 3 -54 8q-3 4 -2.5 17t3.5 15q5 0 48 -1.5t77 -1.5q26 0 66.5 1.5t44.5 1.5q3 -2 3.5 -16t-3.5 -16q-33 -7 -44 -10q-21 -6 -28 -21.5t-8 -51.5q-1 -48 -3 -123.5t-3 -102t-4.5 -61.5t-10.5 -61q-22 -92 -89 -133t-156 -41q-221 0 -243 181q-4 38 -6 200.5
t-2 166.5q-2 39 -28 48q-7 2 -53 10zM449 802q10 0 32.5 -14t30.5 -24q2 -2 2 -7t-2 -7q-11 -11 -87.5 -53.5t-83.5 -42.5q-2 0 -10 11t-7 13q11 14 62.5 66t62.5 58z" />
    <glyph glyph-name="Ucircumflex" unicode="&#xdb;" horiz-adv-x="716" 
d="M27 588q-4 2 -3.5 15.5t4.5 15.5q5 0 54 -1.5t76 -1.5q26 0 69 1.5t53 1.5q4 -2 4 -15t-3 -16q-43 -8 -50 -10q-18 -5 -24 -16t-6 -35q-3 -139 0 -280q4 -67 16 -93q12 -48 57.5 -79.5t118.5 -31.5q34 0 60 6.5t52 24.5t41.5 55.5t18.5 94.5q9 142 2 286q-1 36 -10 50
t-35 19q-14 3 -54 8q-3 4 -2.5 17t3.5 15q5 0 48 -1.5t77 -1.5q26 0 66.5 1.5t44.5 1.5q3 -2 3.5 -16t-3.5 -16q-33 -7 -44 -10q-21 -6 -28 -21.5t-8 -51.5q-1 -48 -3 -123.5t-3 -102t-4.5 -61.5t-10.5 -61q-22 -92 -89 -133t-156 -41q-221 0 -243 181q-4 38 -6 200.5
t-2 166.5q-2 39 -28 48q-7 2 -53 10zM363 790q6 5 23 8q9 -10 60 -52t71 -57q0 -4 -7 -15t-10 -11q-5 0 -58 24t-64 31q-5 2 -10 0q-17 -10 -63.5 -32.5t-50.5 -22.5t-10.5 10.5t-5.5 15.5q112 88 125 101z" />
    <glyph glyph-name="Udieresis" unicode="&#xdc;" horiz-adv-x="716" 
d="M27 588q-4 2 -3.5 15.5t4.5 15.5q5 0 54 -1.5t76 -1.5q26 0 69 1.5t53 1.5q4 -2 4 -15t-3 -16q-43 -8 -50 -10q-18 -5 -24 -16t-6 -35q-3 -139 0 -280q4 -67 16 -93q12 -48 57.5 -79.5t118.5 -31.5q34 0 60 6.5t52 24.5t41.5 55.5t18.5 94.5q9 142 2 286q-1 36 -10 50
t-35 19q-14 3 -54 8q-3 4 -2.5 17t3.5 15q5 0 48 -1.5t77 -1.5q26 0 66.5 1.5t44.5 1.5q3 -2 3.5 -16t-3.5 -16q-33 -7 -44 -10q-21 -6 -28 -21.5t-8 -51.5q-1 -48 -3 -123.5t-3 -102t-4.5 -61.5t-10.5 -61q-22 -92 -89 -133t-156 -41q-221 0 -243 181q-4 38 -6 200.5
t-2 166.5q-2 39 -28 48q-7 2 -53 10zM337 729q0 -35 -21 -50q-4 -3 -22 -4.5t-23 1.5q-20 12 -26 42q-1 3 0 14.5t5 15.5q18 18 49 18q23 0 28 -9q10 -10 10 -28zM510 729q0 -35 -20 -50q-4 -3 -22.5 -4.5t-23.5 1.5q-19 10 -27 42q0 23 6 30q18 18 49 18q24 0 28 -9
q10 -10 10 -28z" />
    <glyph glyph-name="Yacute" unicode="&#xdd;" horiz-adv-x="571" 
d="M-19 588q-3 3 -2.5 15.5t4.5 15.5q10 0 55.5 -1.5t69.5 -1.5q77 0 116 3q4 -2 4.5 -15t-3.5 -16l-37 -8q-17 -5 -7 -26q20 -43 64.5 -128.5t59.5 -110.5q1 -1 3.5 -1t3.5 1q27 43 68.5 119.5t54.5 107.5q14 31 -19 37l-49 9q-3 4 -2 17t5 14q93 -3 113 -3q9 0 108 3
q4 -1 4.5 -15t-2.5 -16q-2 0 -18 -3.5t-25 -5.5q-22 -5 -36 -18t-36 -46q-78 -122 -139 -241q-9 -16 -9 -35q0 -33 2 -135q1 -35 7 -48.5t25 -17.5q11 -3 65 -9q2 -3 1.5 -16.5t-4.5 -15.5q-9 0 -58 1.5t-84 1.5q-44 0 -93 -1.5t-57 -1.5q-3 2 -3 16t3 16q52 6 71 10
q20 5 27 17.5t8 37.5q1 49 1 124q0 29 -8 48q-27 60 -121 230q-27 50 -41 63.5t-43 20.5q-9 3 -47 8zM380 802q10 0 32.5 -14t30.5 -24q1 -2 1 -7t-1 -7q-11 -11 -87.5 -53.5t-83.5 -42.5q-2 0 -10 11t-7 13q11 14 62.5 66t62.5 58z" />
    <glyph glyph-name="Thorn" unicode="&#xde;" horiz-adv-x="554" 
d="M35 29q42 6 51 8q18 6 25 17.5t8 39.5q3 53 3 223q0 179 -2 209q-2 27 -9 38.5t-29 15.5q-22 6 -48 8q-2 4 -0.5 16.5t3.5 14.5q7 0 46 -1t79 -2q27 0 71 1.5t56 1.5q3 -4 3 -15.5t-3 -16.5q-36 -4 -51 -8q-17 -4 -21 -12.5t-6 -32.5v-41q0 -3 4 -3q76 2 103 2
q95 0 143 -38q57 -47 57 -132q0 -112 -100 -162q-51 -25 -114 -25q-32 0 -51 6q-2 1 -8 25q0 4 2 10q20 -2 40 -2q48 0 78 15q32 19 45 46.5t13 70.5q0 146 -163 146q-34 0 -42 -5t-8 -14v-199q0 -84 3 -150q1 -21 8 -30.5t26 -14.5l62 -10q3 -4 2.5 -15.5t-2.5 -16.5
q-14 0 -65.5 1.5t-72.5 1.5q-27 0 -78 -1.5t-58 -1.5q-2 4 -2.5 16.5t2.5 15.5z" />
    <glyph glyph-name="germandbls" unicode="&#xdf;" horiz-adv-x="498" 
d="M85 348l-65 4q0 21 10 31q41 7 55 18q1 92 27.5 145t75.5 90q51 39 110 39q58 0 96 -39.5t38 -103.5q0 -38 -18 -66q-1 -1 -66 -80q-17 -19 -17 -31q0 -5 4 -11t13 -15t17 -16t23.5 -20.5t25.5 -22.5q52 -47 52 -104q0 -60 -32 -101t-74 -62q-30 -15 -66 -15
q-16 0 -34 6.5t-24 15.5q-4 18 5 56q0 7 6 7q40 -32 81 -32q72 0 72 73q0 47 -59 103q-17 16 -38 33t-34 28t-18 16q-4 6 -1.5 24.5t9.5 25.5q51 51 58 59q48 51 48 110q0 45 -27.5 81.5t-75.5 36.5q-52 0 -76 -66t-23 -210q0 -203 1 -282q0 -28 22 -36q14 -5 35 -8
q2 -3 1 -16t-3 -16q-45 3 -100 3q-15 0 -99 -3q-2 5 -2 16t2 16q22 3 38 8q16 4 21 12t5 26z" />
    <glyph glyph-name="agrave" unicode="&#xe0;" horiz-adv-x="415" 
d="M257 261q0 37 -15 59q-24 37 -75 37q-29 0 -42 -10q-14 -10 -42 -72q-3 -3 -18 5.5t-14 14.5q2 12 11 35.5t14 27.5q32 22 72.5 38.5t60.5 16.5q64 0 100 -54q24 -39 24 -100q0 -27 -2 -88.5t-2 -80.5q0 -40 38 -40q17 0 36 6q0 -29 -5 -34q-31 -34 -84 -34q-39 0 -52 27
q-5 7 -7 24q0 1 -2 1.5t-3 -0.5q-84 -52 -121 -52q-31 0 -55 26q-35 37 -35 88q0 15 7.5 34.5t12.5 25.5q17 9 93.5 32t96.5 33q6 3 6 9q2 9 2 25zM255 189q0 5 -5 5q-106 -37 -118 -45q-4 -1 -7.5 -12.5t-3.5 -20.5q0 -29 19 -48t51 -19q26 0 50 16q10 7 12 24q2 19 2 100z
M182 624q26 -52 59 -159q-1 -4 -12 -9.5t-14 -4.5q-18 20 -59.5 74.5t-54.5 74.5q-3 8 3 13q9 3 39.5 8t38.5 3z" />
    <glyph glyph-name="aacute" unicode="&#xe1;" horiz-adv-x="415" 
d="M257 261q0 37 -15 59q-24 37 -75 37q-29 0 -42 -10q-14 -10 -42 -72q-3 -3 -18 5.5t-14 14.5q2 12 11 35.5t14 27.5q32 22 72.5 38.5t60.5 16.5q64 0 100 -54q24 -39 24 -100q0 -27 -2 -88.5t-2 -80.5q0 -40 38 -40q17 0 36 6q0 -29 -5 -34q-31 -34 -84 -34q-39 0 -52 27
q-5 7 -7 24q0 1 -2 1.5t-3 -0.5q-84 -52 -121 -52q-31 0 -55 26q-35 37 -35 88q0 15 7.5 34.5t12.5 25.5q17 9 93.5 32t96.5 33q6 3 6 9q2 9 2 25zM255 189q0 5 -5 5q-106 -37 -118 -45q-4 -1 -7.5 -12.5t-3.5 -20.5q0 -29 19 -48t51 -19q26 0 50 16q10 7 12 24q2 19 2 100z
M228 615q8 4 40.5 7t39.5 1q5 -3 5 -11q-10 -19 -56.5 -80.5t-67.5 -86.5q-4 -1 -14 6t-12 11q55 135 65 153z" />
    <glyph glyph-name="acircumflex" unicode="&#xe2;" horiz-adv-x="415" 
d="M257 261q0 37 -15 59q-24 37 -75 37q-29 0 -42 -10q-14 -10 -42 -72q-3 -3 -18 5.5t-14 14.5q2 12 11 35.5t14 27.5q32 22 72.5 38.5t60.5 16.5q64 0 100 -54q24 -39 24 -100q0 -27 -2 -88.5t-2 -80.5q0 -40 38 -40q17 0 36 6q0 -29 -5 -34q-31 -34 -84 -34q-39 0 -52 27
q-5 7 -7 24q0 1 -2 1.5t-3 -0.5q-84 -52 -121 -52q-31 0 -55 26q-35 37 -35 88q0 15 7.5 34.5t12.5 25.5q17 9 93.5 32t96.5 33q6 3 6 9q2 9 2 25zM255 189q0 5 -5 5q-106 -37 -118 -45q-4 -1 -7.5 -12.5t-3.5 -20.5q0 -29 19 -48t51 -19q26 0 50 16q10 7 12 24q2 19 2 100z
M193 544q-13 -25 -32 -53.5t-25 -32.5q-19 -12 -38 -8q-3 2 -3 5q68 110 90 160q1 3 14.5 7t17.5 4q11 -27 42.5 -85t44.5 -78q-2 -4 -17.5 -10t-23.5 -5q-12 3 -64 96q-2 2 -6 0z" />
    <glyph glyph-name="atilde" unicode="&#xe3;" horiz-adv-x="415" 
d="M257 261q0 37 -15 59q-24 37 -75 37q-29 0 -42 -10q-14 -10 -42 -72q-3 -3 -18 5.5t-14 14.5q2 12 11 35.5t14 27.5q32 22 72.5 38.5t60.5 16.5q64 0 100 -54q24 -39 24 -100q0 -27 -2 -88.5t-2 -80.5q0 -40 38 -40q17 0 36 6q0 -29 -5 -34q-31 -34 -84 -34q-39 0 -52 27
q-5 7 -7 24q0 1 -2 1.5t-3 -0.5q-84 -52 -121 -52q-31 0 -55 26q-35 37 -35 88q0 15 7.5 34.5t12.5 25.5q17 9 93.5 32t96.5 33q6 3 6 9q2 9 2 25zM255 189q0 5 -5 5q-106 -37 -118 -45q-4 -1 -7.5 -12.5t-3.5 -20.5q0 -29 19 -48t51 -19q26 0 50 16q10 7 12 24q2 19 2 100z
M259 544q35 0 69 33q1 1 3 -0.5t2 -3.5q1 -4 -1 -15.5t-4 -13.5q-11 -19 -39 -37.5t-53 -18.5q-20 0 -65 16q-22 8 -37 8q-26 0 -63 -32q-3 0 -6 5q-1 4 1 14.5t4 12.5q8 14 37 35t48 21q20 0 57 -13q33 -11 47 -11z" />
    <glyph glyph-name="adieresis" unicode="&#xe4;" horiz-adv-x="415" 
d="M257 261q0 37 -15 59q-24 37 -75 37q-29 0 -42 -10q-14 -10 -42 -72q-3 -3 -18 5.5t-14 14.5q2 12 11 35.5t14 27.5q32 22 72.5 38.5t60.5 16.5q64 0 100 -54q24 -39 24 -100q0 -27 -2 -88.5t-2 -80.5q0 -40 38 -40q17 0 36 6q0 -29 -5 -34q-31 -34 -84 -34q-39 0 -52 27
q-5 7 -7 24q0 1 -2 1.5t-3 -0.5q-84 -52 -121 -52q-31 0 -55 26q-35 37 -35 88q0 15 7.5 34.5t12.5 25.5q17 9 93.5 32t96.5 33q6 3 6 9q2 9 2 25zM255 189q0 5 -5 5q-106 -37 -118 -45q-4 -1 -7.5 -12.5t-3.5 -20.5q0 -29 19 -48t51 -19q26 0 50 16q10 7 12 24q2 19 2 100z
M160 555q0 -33 -19 -47q-4 -3 -22 -4.5t-23 1.5q-20 11 -24 40q-1 5 0.5 16t4.5 14q19 17 44 17q24 0 30 -9q9 -11 9 -28zM330 555q0 -33 -19 -47q-4 -3 -22 -4t-23 2q-18 9 -24 39q-1 5 0.5 16t4.5 14q17 17 45 17q23 0 29 -9q9 -11 9 -28z" />
    <glyph glyph-name="aring" unicode="&#xe5;" horiz-adv-x="415" 
d="M257 261q0 37 -15 59q-24 37 -75 37q-29 0 -42 -10q-14 -10 -42 -72q-3 -3 -18 5.5t-14 14.5q2 12 11 35.5t14 27.5q32 22 72.5 38.5t60.5 16.5q64 0 100 -54q24 -39 24 -100q0 -27 -2 -88.5t-2 -80.5q0 -40 38 -40q17 0 36 6q0 -29 -5 -34q-31 -34 -84 -34q-39 0 -52 27
q-5 7 -7 24q0 1 -2 1.5t-3 -0.5q-84 -52 -121 -52q-31 0 -55 26q-35 37 -35 88q0 15 7.5 34.5t12.5 25.5q17 9 93.5 32t96.5 33q6 3 6 9q2 9 2 25zM255 189q0 5 -5 5q-106 -37 -118 -45q-4 -1 -7.5 -12.5t-3.5 -20.5q0 -29 19 -48t51 -19q26 0 50 16q10 7 12 24q2 19 2 100z
M201 617q34 0 54 -22t20 -55q0 -36 -23 -58.5t-55 -22.5q-29 0 -52.5 19.5t-23.5 57.5q0 35 22.5 58t57.5 23zM197 577q-21 0 -32.5 -11t-11.5 -29q0 -17 14 -27.5t33 -10.5q18 0 31 10.5t13 26.5q0 41 -47 41z" />
    <glyph glyph-name="ae" unicode="&#xe6;" horiz-adv-x="629" 
d="M139 -12q-35 0 -65 28q-34 36 -34 88q0 30 19 58q20 11 102 32.5t90 24.5q6 3 6 9q1 5 1 29q0 39 -16 65q-26 38 -75 38q-31 0 -42 -11q-10 -7 -42 -72q-2 -2 -17.5 6t-14.5 12q2 12 10.5 35t13.5 27q32 22 72.5 39t60.5 17q63 0 101 -56q3 -3 7 0q30 27 66 41.5t62 14.5
q33 0 58.5 -13t40 -34t21.5 -37.5t11 -34.5q0 -1 2 -3t6 -5t9 -4q-3 -17 -8 -23q-20 -8 -248 -58q-5 -2 -5 -9q4 -59 40 -95q41 -43 103 -43q61 0 118 42q2 -4 1.5 -16.5t-2.5 -16.5q-30 -33 -76.5 -54.5t-82.5 -21.5q-86 0 -140 69q-2 2 -7 1q-94 -69 -146 -69zM255 181
q0 1 -1.5 3t-3.5 1q-109 -31 -119 -36q-3 -2 -6.5 -13t-3.5 -19q0 -29 18.5 -47.5t50.5 -18.5q41 0 82 33q3 5 1 10q-18 40 -18 87zM409 372q-36 0 -58.5 -36.5t-21.5 -92.5q0 -8 6 -7q106 20 157 36q5 5 5 11q-5 34 -28 61.5t-60 27.5z" />
    <glyph glyph-name="ccedilla" unicode="&#xe7;" horiz-adv-x="413" 
d="M389 66q-49 -57 -121 -73l-24 -33q27 -14 44 -29q23 -19 23 -49q0 -41 -40.5 -69.5t-71.5 -28.5q-35 0 -53 28q-3 18 3 26q29 -14 61 -14q18 0 30 8.5t12 23.5q0 35 -72 59q-1 6 0 9q29 40 49 64h-3q-93 1 -143 70q-40 55 -40 135q0 117 103 179q67 41 128 41
q48 0 84 -16q25 -13 31 -27q0 -11 -3 -17q-4 -12 -15.5 -25.5t-18.5 -16.5q-7 -2 -11 -1q-58 55 -112 55q-53 0 -79.5 -39t-26.5 -95q0 -78 38 -122q41 -51 113 -51q62 0 115 48q6 0 6 -7q0 -25 -6 -33z" />
    <glyph glyph-name="egrave" unicode="&#xe8;" horiz-adv-x="429" 
d="M387 99q4 -4 5 -6q2 -15 -6 -31q-29 -34 -76 -54t-84 -20q-77 0 -124 47q-59 60 -59 162q0 124 90 182q50 34 110 34q66 0 100 -44.5t42 -100.5q2 -7 16 -11q0 -4 -3.5 -14t-5.5 -12q-58 -15 -264 -22q-5 0 -5 -11q2 -60 42 -99q42 -42 108 -42q60 0 114 42zM211 372
q-36 0 -59.5 -31t-28.5 -83q0 -7 6 -7q28 -1 92 1t77 5q4 3 6 9q-5 42 -30 74t-63 32zM206 623q26 -52 59 -159q-1 -4 -12 -9.5t-14 -4.5q-18 20 -59.5 74.5t-54.5 74.5q-3 7 3 13q9 3 39.5 8t38.5 3z" />
    <glyph glyph-name="eacute" unicode="&#xe9;" horiz-adv-x="429" 
d="M387 99q4 -4 5 -6q2 -15 -6 -31q-29 -34 -76 -54t-84 -20q-77 0 -124 47q-59 60 -59 162q0 124 90 182q50 34 110 34q66 0 100 -44.5t42 -100.5q2 -7 16 -11q0 -4 -3.5 -14t-5.5 -12q-58 -15 -264 -22q-5 0 -5 -11q2 -60 42 -99q42 -42 108 -42q60 0 114 42zM211 372
q-36 0 -59.5 -31t-28.5 -83q0 -7 6 -7q28 -1 92 1t77 5q4 3 6 9q-5 42 -30 74t-63 32zM249 617q8 4 40.5 7t39.5 1q5 -3 5 -11q-10 -19 -56.5 -80.5t-67.5 -86.5q-4 -1 -14 6t-12 11q55 135 65 153z" />
    <glyph glyph-name="ecircumflex" unicode="&#xea;" horiz-adv-x="429" 
d="M387 99q4 -4 5 -6q2 -15 -6 -31q-29 -34 -76 -54t-84 -20q-77 0 -124 47q-59 60 -59 162q0 124 90 182q50 34 110 34q66 0 100 -44.5t42 -100.5q2 -7 16 -11q0 -4 -3.5 -14t-5.5 -12q-58 -15 -264 -22q-5 0 -5 -11q2 -60 42 -99q42 -42 108 -42q60 0 114 42zM211 372
q-36 0 -59.5 -31t-28.5 -83q0 -7 6 -7q28 -1 92 1t77 5q4 3 6 9q-5 42 -30 74t-63 32zM222 544q-13 -25 -32 -53.5t-25 -32.5q-19 -12 -38 -8q-3 2 -3 5q68 110 90 160q1 3 14.5 7t17.5 4q11 -27 42.5 -85t44.5 -78q-2 -4 -17.5 -10t-23.5 -5q-12 3 -64 96q-2 2 -6 0z" />
    <glyph glyph-name="edieresis" unicode="&#xeb;" horiz-adv-x="429" 
d="M387 99q4 -4 5 -6q2 -15 -6 -31q-29 -34 -76 -54t-84 -20q-77 0 -124 47q-59 60 -59 162q0 124 90 182q50 34 110 34q66 0 100 -44.5t42 -100.5q2 -7 16 -11q0 -4 -3.5 -14t-5.5 -12q-58 -15 -264 -22q-5 0 -5 -11q2 -60 42 -99q42 -42 108 -42q60 0 114 42zM211 372
q-36 0 -59.5 -31t-28.5 -83q0 -7 6 -7q28 -1 92 1t77 5q4 3 6 9q-5 42 -30 74t-63 32zM191 555q0 -33 -19 -47q-4 -3 -22 -4.5t-23 1.5q-20 11 -24 40q-1 5 0.5 16t4.5 14q19 17 44 17q24 0 30 -9q9 -11 9 -28zM361 555q0 -33 -19 -47q-4 -3 -22 -4t-23 2q-18 9 -24 39
q-1 5 0.5 16t4.5 14q17 17 45 17q23 0 29 -9q9 -11 9 -28z" />
    <glyph glyph-name="igrave" unicode="&#xec;" horiz-adv-x="246" 
d="M230 29q2 -3 0.5 -16t-5.5 -16q-5 0 -38 1.5t-66 1.5q-25 0 -59.5 -1.5t-39.5 -1.5q-3 4 -3 16t2 16q27 4 44 10t18 34q2 25 2 142v97q0 13 -9 21q-9 11 -49 25q-3 4 -1 14t5 12q72 5 135 30v-177q0 -121 1 -166q0 -26 20 -33q15 -4 43 -9zM98 622q26 -52 59 -159
q-1 -4 -12 -9.5t-14 -4.5q-18 20 -59.5 74.5t-54.5 74.5q-3 8 3 13q9 3 39.5 8t38.5 3z" />
    <glyph glyph-name="iacute" unicode="&#xed;" horiz-adv-x="246" 
d="M230 29q2 -3 0.5 -16t-5.5 -16q-5 0 -38 1.5t-66 1.5q-25 0 -59.5 -1.5t-39.5 -1.5q-3 4 -3 16t2 16q27 4 44 10t18 34q2 25 2 142v97q0 13 -9 21q-9 11 -49 25q-3 4 -1 14t5 12q72 5 135 30v-177q0 -121 1 -166q0 -26 20 -33q15 -4 43 -9zM147 615q8 4 40.5 7t39.5 1
q5 -3 5 -11q-10 -19 -56.5 -80.5t-67.5 -86.5q-4 -1 -14 6t-12 11q55 135 65 153z" />
    <glyph glyph-name="icircumflex" unicode="&#xee;" horiz-adv-x="246" 
d="M230 29q2 -3 0.5 -16t-5.5 -16q-5 0 -38 1.5t-66 1.5q-25 0 -59.5 -1.5t-39.5 -1.5q-3 4 -3 16t2 16q27 4 44 10t18 34q2 25 2 142v97q0 13 -9 21q-9 11 -49 25q-3 4 -1 14t5 12q72 5 135 30v-177q0 -121 1 -166q0 -26 20 -33q15 -4 43 -9zM109 544q-13 -25 -32 -53.5
t-25 -32.5q-19 -12 -38 -8q-3 2 -3 5q68 110 90 160q1 3 14.5 7t17.5 4q11 -27 42.5 -85t44.5 -78q-2 -4 -17.5 -10t-23.5 -5q-12 3 -64 96q-2 2 -6 0z" />
    <glyph glyph-name="idieresis" unicode="&#xef;" horiz-adv-x="246" 
d="M230 29q2 -3 0.5 -16t-5.5 -16q-5 0 -38 1.5t-66 1.5q-25 0 -59.5 -1.5t-39.5 -1.5q-3 4 -3 16t2 16q27 4 44 10t18 34q2 25 2 142v97q0 13 -9 21q-9 11 -49 25q-3 4 -1 14t5 12q72 5 135 30v-177q0 -121 1 -166q0 -26 20 -33q15 -4 43 -9zM82 555q0 -33 -19 -47
q-4 -3 -22 -4.5t-23 1.5q-20 11 -24 40q-1 5 0.5 16t4.5 14q19 17 44 17q24 0 30 -9q9 -11 9 -28zM252 555q0 -33 -19 -47q-4 -3 -22 -4t-23 2q-18 9 -24 39q-1 5 0.5 16t4.5 14q17 17 45 17q23 0 29 -9q9 -11 9 -28z" />
    <glyph glyph-name="eth" unicode="&#xf0;" horiz-adv-x="491" 
d="M257 27q45 0 74 44t29 138q0 83 -17 110q-33 53 -108 53q-41 0 -72 -36t-31 -110q0 -94 36 -146.5t89 -52.5zM420 584l-85 -41q110 -120 110 -284q0 -173 -109 -244q-46 -27 -99 -27q-93 0 -143.5 60.5t-50.5 145.5q0 114 87 174q59 44 129 44q40 0 76 -12
q-25 71 -64 115l-126 -55q-4 5 -4.5 20.5t3.5 18.5l100 44q-63 67 -171 102q0 19 12 29q48 -5 111 -34t111 -69l111 52q4 2 5 -18q1 -17 -3 -21z" />
    <glyph glyph-name="ntilde" unicode="&#xf1;" horiz-adv-x="510" 
d="M25 29q23 3 36 8q20 4 22 33q2 30 2 164q0 20 -0.5 45.5t-0.5 32.5q-4 19 -54 40q-2 5 0 14t6 11q29 3 67 14.5t58 22.5q5 -5 5 -7q-2 -20 -2 -57q0 -1 2 -2t3 0q78 65 136 65q61 0 98 -53q27 -43 27 -119q0 -146 1 -180q0 -13 9 -17q16 -8 53 -15q3 -3 1.5 -15.5
t-5.5 -16.5q-2 0 -34.5 1.5t-63.5 1.5q-25 0 -57.5 -1.5t-41.5 -1.5q-3 4 -3.5 16.5t3.5 15.5q23 2 40 8q10 3 13.5 12t4.5 32q0 161 -3 189q-4 38 -28 58q-24 22 -62 22q-47 0 -83 -31q-10 -10 -10 -35q0 -168 2 -214q1 -28 20 -33q21 -6 41 -7q2 -4 1.5 -16.5t-4.5 -16.5
q-2 0 -34.5 1.5t-65.5 1.5q-27 0 -62 -1.5t-37 -1.5q-3 4 -3 16.5t3 15.5zM316 544q35 0 69 33q1 1 3 -0.5t2 -3.5q1 -4 -1 -15.5t-4 -13.5q-11 -19 -39 -37.5t-53 -18.5q-20 0 -65 16q-22 8 -37 8q-26 0 -63 -32q-3 0 -6 5q-1 4 1 14.5t4 12.5q8 14 37 35t48 21
q20 0 57 -13q33 -11 47 -11z" />
    <glyph glyph-name="ograve" unicode="&#xf2;" horiz-adv-x="500" 
d="M264 413q88 0 140.5 -58t52.5 -145q0 -125 -93 -185q-58 -37 -118 -37q-103 0 -152.5 63.5t-49.5 152.5q0 108 87 168q62 41 133 41zM230 370q-28 0 -47 -13q-52 -34 -52 -128q0 -87 39.5 -142t99.5 -55q37 0 61 21q38 35 38 124q0 87 -38.5 140t-100.5 53zM226 623
q26 -52 59 -159q-1 -4 -12 -9.5t-14 -4.5q-18 20 -59.5 74.5t-54.5 74.5q-3 7 3 13q9 3 39.5 8t38.5 3z" />
    <glyph glyph-name="oacute" unicode="&#xf3;" horiz-adv-x="500" 
d="M264 413q88 0 140.5 -58t52.5 -145q0 -125 -93 -185q-58 -37 -118 -37q-103 0 -152.5 63.5t-49.5 152.5q0 108 87 168q62 41 133 41zM230 370q-28 0 -47 -13q-52 -34 -52 -128q0 -87 39.5 -142t99.5 -55q37 0 61 21q38 35 38 124q0 87 -38.5 140t-100.5 53zM271 615
q8 4 40.5 7t39.5 1q5 -3 5 -11q-10 -19 -56.5 -80.5t-67.5 -86.5q-4 -1 -14 6t-12 11q55 135 65 153z" />
    <glyph glyph-name="ocircumflex" unicode="&#xf4;" horiz-adv-x="500" 
d="M264 413q88 0 140.5 -58t52.5 -145q0 -125 -93 -185q-58 -37 -118 -37q-103 0 -152.5 63.5t-49.5 152.5q0 108 87 168q62 41 133 41zM230 370q-28 0 -47 -13q-52 -34 -52 -128q0 -87 39.5 -142t99.5 -55q37 0 61 21q38 35 38 124q0 87 -38.5 140t-100.5 53zM242 544
q-13 -25 -32 -53.5t-25 -32.5q-19 -12 -38 -8q-3 2 -3 5q68 110 90 160q1 3 14.5 7t17.5 4q11 -27 42.5 -85t44.5 -78q-2 -4 -17.5 -10t-23.5 -5q-12 3 -64 96q-2 2 -6 0z" />
    <glyph glyph-name="otilde" unicode="&#xf5;" horiz-adv-x="500" 
d="M264 413q88 0 140.5 -58t52.5 -145q0 -125 -93 -185q-58 -37 -118 -37q-103 0 -152.5 63.5t-49.5 152.5q0 108 87 168q62 41 133 41zM230 370q-28 0 -47 -13q-52 -34 -52 -128q0 -87 39.5 -142t99.5 -55q37 0 61 21q38 35 38 124q0 87 -38.5 140t-100.5 53zM312 544
q35 0 69 33q1 1 3 -0.5t2 -3.5q1 -4 -1 -15.5t-4 -13.5q-11 -19 -39 -37.5t-53 -18.5q-20 0 -65 16q-22 8 -37 8q-26 0 -63 -32q-3 0 -6 5q-1 4 1 14.5t4 12.5q8 14 37 35t48 21q20 0 57 -13q33 -11 47 -11z" />
    <glyph glyph-name="odieresis" unicode="&#xf6;" horiz-adv-x="500" 
d="M264 413q88 0 140.5 -58t52.5 -145q0 -125 -93 -185q-58 -37 -118 -37q-103 0 -152.5 63.5t-49.5 152.5q0 108 87 168q62 41 133 41zM230 370q-28 0 -47 -13q-52 -34 -52 -128q0 -87 39.5 -142t99.5 -55q37 0 61 21q38 35 38 124q0 87 -38.5 140t-100.5 53zM210 555
q0 -33 -19 -47q-4 -3 -22 -4.5t-23 1.5q-20 11 -24 40q-1 5 0.5 16t4.5 14q19 17 44 17q24 0 30 -9q9 -11 9 -28zM380 555q0 -33 -19 -47q-4 -3 -22 -4t-23 2q-18 9 -24 39q-1 5 0.5 16t4.5 14q17 17 45 17q23 0 29 -9q9 -11 9 -28z" />
    <glyph glyph-name="divide" unicode="&#xf7;" horiz-adv-x="566" 
d="M335 421q0 -31 -26 -57q-4 -4 -24.5 -6.5t-30.5 3.5q-19 16 -22 43q-1 3 2.5 17.5t5.5 16.5q20 16 53 16q28 0 34 -8q8 -13 8 -25zM509 217l-461 -3q-3 0 -3 10q3 25 14 52q7 -2 120 -2h344q1 -1 2 -6t0 -6q0 -6 -5.5 -25t-10.5 -20zM335 104q0 -33 -19 -53
q-5 -4 -26 -6.5t-32 2.5q-23 18 -26 43q-1 4 2.5 17.5t5.5 15.5q8 6 25 11.5t28 5.5q29 0 34 -9q8 -11 8 -27z" />
    <glyph glyph-name="oslash" unicode="&#xf8;" horiz-adv-x="500" 
d="M264 413q48 0 88 -19l29 43q3 1 14.5 -8.5t12.5 -12.5l-27 -40q76 -57 76 -166q0 -125 -93 -185q-58 -37 -118 -37q-59 0 -103 23l-31 -46q-3 0 -14.5 8.5t-12.5 12.5l29 45q-70 59 -70 173q0 108 87 168q62 41 133 41zM271 31q101 0 101 147q0 80 -33 133l-157 -238
q35 -42 89 -42zM231 371q-101 0 -101 -142q0 -79 32 -127l153 235q-34 34 -84 34z" />
    <glyph glyph-name="ugrave" unicode="&#xf9;" horiz-adv-x="496" 
d="M14 361q-2 6 0 17t6 14q87 0 143 15q-7 -49 -7 -196q0 -82 5 -102q14 -57 82 -57q45 0 81 32q9 7 11 22q3 18 0 215q0 24 -18 29q-13 4 -64 11q-2 5 0 16.5t5 14.5q112 0 162 13q-3 -25 -3 -82l-1 -233q0 -32 19 -33q10 -1 45 1q1 -6 -0.5 -18t-4.5 -15q-77 -31 -132 -40
q-4 0 -6 9q-2 20 -2 55q0 2 -2.5 3t-3.5 -1q-76 -63 -132 -63q-120 0 -120 135q0 21 0.5 101t-0.5 95q-2 27 -18 33q-7 3 -45 9zM215 622q26 -52 59 -159q-1 -4 -12 -9.5t-14 -4.5q-18 20 -59.5 74.5t-54.5 74.5q-2 8 3 13q9 3 39.5 8t38.5 3z" />
    <glyph glyph-name="uacute" unicode="&#xfa;" horiz-adv-x="496" 
d="M14 361q-2 6 0 17t6 14q87 0 143 15q-7 -49 -7 -196q0 -82 5 -102q14 -57 82 -57q45 0 81 32q9 7 11 22q3 18 0 215q0 24 -18 29q-13 4 -64 11q-2 5 0 16.5t5 14.5q112 0 162 13q-3 -25 -3 -82l-1 -233q0 -32 19 -33q10 -1 45 1q1 -6 -0.5 -18t-4.5 -15q-77 -31 -132 -40
q-4 0 -6 9q-2 20 -2 55q0 2 -2.5 3t-3.5 -1q-76 -63 -132 -63q-120 0 -120 135q0 21 0.5 101t-0.5 95q-2 27 -18 33q-7 3 -45 9zM270 615q8 4 40.5 7t39.5 1q5 -3 5 -11q-10 -19 -56.5 -80.5t-67.5 -86.5q-4 -1 -14 6t-12 11q55 135 65 153z" />
    <glyph glyph-name="ucircumflex" unicode="&#xfb;" horiz-adv-x="496" 
d="M14 361q-2 6 0 17t6 14q87 0 143 15q-7 -49 -7 -196q0 -82 5 -102q14 -57 82 -57q45 0 81 32q9 7 11 22q3 18 0 215q0 24 -18 29q-13 4 -64 11q-2 5 0 16.5t5 14.5q112 0 162 13q-3 -25 -3 -82l-1 -233q0 -32 19 -33q10 -1 45 1q1 -6 -0.5 -18t-4.5 -15q-77 -31 -132 -40
q-4 0 -6 9q-2 20 -2 55q0 2 -2.5 3t-3.5 -1q-76 -63 -132 -63q-120 0 -120 135q0 21 0.5 101t-0.5 95q-2 27 -18 33q-7 3 -45 9zM239 544q-13 -25 -32 -53.5t-25 -32.5q-19 -12 -38 -8q-3 2 -3 5q68 110 90 160q1 3 14.5 7t17.5 4q11 -27 42.5 -85t44.5 -78q-2 -4 -17.5 -10
t-23.5 -5q-12 3 -64 96q-2 2 -6 0z" />
    <glyph glyph-name="udieresis" unicode="&#xfc;" horiz-adv-x="496" 
d="M14 361q-2 6 0 17t6 14q87 0 143 15q-7 -49 -7 -196q0 -82 5 -102q14 -57 82 -57q45 0 81 32q9 7 11 22q3 18 0 215q0 24 -18 29q-13 4 -64 11q-2 5 0 16.5t5 14.5q112 0 162 13q-3 -25 -3 -82l-1 -233q0 -32 19 -33q10 -1 45 1q1 -6 -0.5 -18t-4.5 -15q-77 -31 -132 -40
q-4 0 -6 9q-2 20 -2 55q0 2 -2.5 3t-3.5 -1q-76 -63 -132 -63q-120 0 -120 135q0 21 0.5 101t-0.5 95q-2 27 -18 33q-7 3 -45 9zM203 555q0 -33 -19 -47q-4 -3 -22 -4.5t-23 1.5q-20 11 -24 40q-1 5 0.5 16t4.5 14q19 17 44 17q24 0 30 -9q9 -11 9 -28zM373 555
q0 -33 -19 -47q-4 -3 -22 -4t-23 2q-18 9 -24 39q-1 5 0.5 16t4.5 14q17 17 45 17q23 0 29 -9q9 -11 9 -28z" />
    <glyph glyph-name="yacute" unicode="&#xfd;" horiz-adv-x="442" 
d="M-8 369q-2 5 -0.5 18t4.5 15q6 0 41 -1.5t58 -1.5q61 0 106 3q4 -3 4.5 -16t-1.5 -17q-36 -7 -38 -8q-12 -4 -8 -18q13 -42 47.5 -132t40.5 -102h4q70 150 81 224q4 21 -17 28q-16 5 -44 8q-2 5 -1 17.5t4 15.5q3 0 35 -1.5t54 -1.5q10 0 97 3q4 -4 4 -16t-3 -17
q-24 -3 -38 -8q-25 -8 -40 -47q-107 -281 -234 -498q-2 -3 -30 -56l-8 -4q-11 2 -29.5 11.5t-26.5 16.5q-1 2 -1 9t1 9q105 128 144 213l-9 18q-59 152 -94 238q-21 50 -34 68t-35 24q-10 3 -34 6zM274 615q8 4 40.5 7t39.5 1q5 -3 5 -11q-10 -19 -56.5 -80.5t-67.5 -86.5
q-4 -1 -14 6t-12 11q55 135 65 153z" />
    <glyph glyph-name="thorn" unicode="&#xfe;" horiz-adv-x="497" 
d="M-3 -212l45 11q16 6 22 16.5t6 34.5q3 49 3 402q0 291 -4 324q-1 24 -24 30q-16 6 -49 9q-3 4 -2 15.5t4 14.5q97 6 162 30q2 -1 4.5 -6.5t1.5 -8.5q-13 -20 -13 -199q0 -22 0.5 -54t0.5 -42q0 -5 5 -3q87 51 134 51q71 0 115 -53q45 -50 45 -130q0 -119 -93 -187
q-26 -20 -70 -36.5t-79 -18.5q-33 0 -55 7q0 -132 1 -150q2 -16 7.5 -24t21.5 -12q24 -5 61 -9q3 -23 -5 -33h-37q-53 0 -207 -11q-2 6 -2.5 17.5t1.5 14.5zM235 353q-38 0 -69 -20q-8 -4 -10 -18q-4 -32 -1 -214q0 -21 15 -36q31 -28 79 -28q51 0 83 38q35 42 35 112
q0 73 -32 117q-37 49 -100 49z" />
    <glyph glyph-name="ydieresis" unicode="&#xff;" horiz-adv-x="442" 
d="M-8 369q-2 5 -0.5 18t4.5 15q6 0 41 -1.5t58 -1.5q61 0 106 3q4 -3 4.5 -16t-1.5 -17q-36 -7 -38 -8q-12 -4 -8 -18q13 -42 47.5 -132t40.5 -102h4q70 150 81 224q4 21 -17 28q-16 5 -44 8q-2 5 -1 17.5t4 15.5q3 0 35 -1.5t54 -1.5q10 0 97 3q4 -4 4 -16t-3 -17
q-24 -3 -38 -8q-25 -8 -40 -47q-107 -281 -234 -498q-2 -3 -30 -56l-8 -4q-11 2 -29.5 11.5t-26.5 16.5q-1 2 -1 9t1 9q105 128 144 213l-9 18q-59 152 -94 238q-21 50 -34 68t-35 24q-10 3 -34 6zM200 555q0 -33 -19 -47q-4 -3 -22 -4.5t-23 1.5q-20 11 -24 40q-1 5 0.5 16
t4.5 14q19 17 44 17q24 0 30 -9q9 -11 9 -28zM370 555q0 -33 -19 -47q-4 -3 -22 -4t-23 2q-18 9 -24 39q-1 5 0.5 16t4.5 14q17 17 45 17q23 0 29 -9q9 -11 9 -28z" />
    <glyph glyph-name="uni0100" unicode="&#x100;" horiz-adv-x="628" 
d="M-19 29q55 8 74.5 23t44.5 72q33 78 89.5 226.5t76.5 206.5q16 43 18 60l12 -1h22h17t12.5 0.5t5.5 0.5q16 -52 17 -54q114 -325 167 -450q22 -51 39 -63.5t72 -20.5q3 -2 2 -15.5t-4 -16.5q-78 3 -125 3q-73 0 -136 -3q-2 3 -2.5 16.5t2.5 15.5q49 9 55 11q18 8 12 26
q-18 62 -58 164q-2 7 -9 7q-16 1 -97 1q-71 0 -82 -1q-6 0 -11 -9q-50 -131 -51 -155q-1 -15 4.5 -22.5t27.5 -12.5q10 -2 49 -9q3 -2 2 -15.5t-4 -16.5q-5 0 -51 1.5t-81 1.5t-70.5 -1.5t-39.5 -1.5q-3 3 -3 16t3 16zM297 508q-1 1 -2.5 0.5t-2.5 -1.5q-6 -18 -35 -99.5
t-39 -112.5q0 -6 4 -7q10 -1 80 -1q55 0 66 1q2 0 3.5 3t0.5 6q-60 174 -75 211zM220 726q20 -2 55 -2h76.5h74h28.5q0 -10 -7 -30.5t-10 -21.5q-16 -3 -198 -3l-37 2q0 1 18 55z" />
    <glyph glyph-name="uni0101" unicode="&#x101;" horiz-adv-x="415" 
d="M257 261q0 37 -15 59q-24 37 -75 37q-29 0 -42 -10q-14 -10 -42 -72q-3 -3 -18 5.5t-14 14.5q2 12 11 35.5t14 27.5q32 22 72.5 38.5t60.5 16.5q64 0 100 -54q24 -39 24 -100q0 -27 -2 -88.5t-2 -80.5q0 -40 38 -40q17 0 36 6q0 -29 -5 -34q-31 -34 -84 -34q-39 0 -52 27
q-5 7 -7 24q0 1 -2 1.5t-3 -0.5q-84 -52 -121 -52q-31 0 -55 26q-35 37 -35 88q0 15 7.5 34.5t12.5 25.5q17 9 93.5 32t96.5 33q6 3 6 9q2 9 2 25zM255 189q0 5 -5 5q-106 -37 -118 -45q-4 -1 -7.5 -12.5t-3.5 -20.5q0 -29 19 -48t51 -19q26 0 50 16q10 7 12 24q2 19 2 100z
M103 560q14 -2 47 -2h163q0 -10 -6.5 -31t-9.5 -22q-9 -2 -179 -2q-26 0 -32 2q1 7 8 29.5t9 25.5z" />
    <glyph glyph-name="uni0102" unicode="&#x102;" horiz-adv-x="628" 
d="M-19 29q55 8 74.5 23t44.5 72q33 78 89.5 226.5t76.5 206.5q16 43 18 60l12 -1h22h17t12.5 0.5t5.5 0.5q16 -52 17 -54q114 -325 167 -450q22 -51 39 -63.5t72 -20.5q3 -2 2 -15.5t-4 -16.5q-78 3 -125 3q-73 0 -136 -3q-2 3 -2.5 16.5t2.5 15.5q49 9 55 11q18 8 12 26
q-18 62 -58 164q-2 7 -9 7q-16 1 -97 1q-71 0 -82 -1q-6 0 -11 -9q-50 -131 -51 -155q-1 -15 4.5 -22.5t27.5 -12.5q10 -2 49 -9q3 -2 2 -15.5t-4 -16.5q-5 0 -51 1.5t-81 1.5t-70.5 -1.5t-39.5 -1.5q-3 3 -3 16t3 16zM297 508q-1 1 -2.5 0.5t-2.5 -1.5q-6 -18 -35 -99.5
t-39 -112.5q0 -6 4 -7q10 -1 80 -1q55 0 66 1q2 0 3.5 3t0.5 6q-60 174 -75 211zM333 709q54 0 90 47q2 2 15 7.5t15 5.5t4.5 -2t1.5 -3q-15 -45 -55 -77.5t-94 -32.5q-48 0 -79.5 21t-31.5 53q0 7 8 21.5t16 20.5q2 1 7.5 1t6.5 -2q20 -60 96 -60z" />
    <glyph glyph-name="uni0103" unicode="&#x103;" horiz-adv-x="415" 
d="M257 261q0 37 -15 59q-24 37 -75 37q-29 0 -42 -10q-14 -10 -42 -72q-3 -3 -18 5.5t-14 14.5q2 12 11 35.5t14 27.5q32 22 72.5 38.5t60.5 16.5q64 0 100 -54q24 -39 24 -100q0 -27 -2 -88.5t-2 -80.5q0 -40 38 -40q17 0 36 6q0 -29 -5 -34q-31 -34 -84 -34q-39 0 -52 27
q-5 7 -7 24q0 1 -2 1.5t-3 -0.5q-84 -52 -121 -52q-31 0 -55 26q-35 37 -35 88q0 15 7.5 34.5t12.5 25.5q17 9 93.5 32t96.5 33q6 3 6 9q2 9 2 25zM255 189q0 5 -5 5q-106 -37 -118 -45q-4 -1 -7.5 -12.5t-3.5 -20.5q0 -29 19 -48t51 -19q26 0 50 16q10 7 12 24q2 19 2 100z
M208 523q49 0 81 53q2 2 13 9t13 7q7 0 7 -7q-10 -49 -47.5 -83.5t-88.5 -34.5q-41 0 -71 23t-30 59q0 9 9.5 22.5t20.5 20.5q2 1 6.5 1t5.5 -2q15 -68 81 -68z" />
    <glyph glyph-name="uni0104" unicode="&#x104;" horiz-adv-x="628" 
d="M481 -221q-32 0 -55.5 21t-23.5 58q0 24 22 55.5t38 46t46 40.5q-66 0 -123 -3q-2 3 -2.5 16.5t2.5 15.5q43 7 55 11q18 8 12 26q-18 62 -58 164q-2 7 -9 7q-16 1 -97 1q-71 0 -82 -1q-6 0 -11 -9q-50 -131 -51 -155q-1 -15 4.5 -22.5t27.5 -12.5q17 -4 49 -9
q2 -2 1.5 -15t-3.5 -17q-5 0 -51 1.5t-81 1.5t-70.5 -1.5t-39.5 -1.5q-3 3 -3 16.5t3 15.5q55 8 74.5 23t44.5 72q33 78 89.5 226.5t76.5 206.5q15 40 18 60l12 -1h22h17t12.5 0.5t5.5 0.5l17 -55q125 -349 167 -449q22 -51 39 -63.5t72 -20.5q3 -2 2 -15.5t-4 -16.5
q-63 3 -97 3q-69 -68 -69 -116q0 -20 13 -30.5t32 -10.5q27 0 53 17q2 -4 2.5 -17.5t-1.5 -15.5q-19 -25 -47 -36.5t-51 -11.5zM297 508q-2 2 -5 -1q-7 -22 -35.5 -101t-38.5 -110q0 -7 4 -8q10 -1 80 -1q55 0 66 1q2 0 3.5 3t0.5 6q-60 174 -75 211z" />
    <glyph glyph-name="uni0105" unicode="&#x105;" horiz-adv-x="415" 
d="M257 261q0 37 -15 59q-24 37 -75 37q-29 0 -42 -10q-14 -10 -42 -72q-3 -3 -18 5.5t-14 14.5q2 12 11 35.5t14 27.5q32 22 72.5 38.5t60.5 16.5q64 0 100 -54q24 -39 24 -100q0 -27 -2 -88.5t-2 -80.5q0 -40 38 -40q17 0 36 6q0 -29 -5 -34q-20 -21 -49 -28
q-64 -60 -64 -104q0 -39 43 -39q27 0 50 16q1 -4 1.5 -17t-0.5 -15q-18 -23 -45 -34t-48 -11q-31 0 -53.5 20t-22.5 55q0 51 93 125q-30 3 -41 25q-5 7 -7 24q0 1 -2 1.5t-3 -0.5q-84 -52 -121 -52q-31 0 -55 26q-35 37 -35 88q0 15 7.5 34.5t12.5 25.5q17 9 93.5 32
t96.5 33q6 3 6 9q2 9 2 25zM255 189q0 5 -5 5q-106 -37 -118 -45q-4 -1 -7.5 -12.5t-3.5 -20.5q0 -29 19 -48t51 -19q26 0 50 16q10 7 12 24q2 19 2 100z" />
    <glyph glyph-name="uni0106" unicode="&#x106;" horiz-adv-x="682" 
d="M570 455q-8 59 -20 81.5t-42 36.5q-44 22 -123 22q-107 0 -165.5 -73.5t-58.5 -200.5q0 -123 68.5 -207.5t195.5 -84.5q69 0 108 32q33 26 77 100q5 1 15.5 -5t12.5 -12q-8 -31 -34 -78t-43 -58q-69 -26 -156 -26q-167 0 -258 87t-91 243q0 86 40.5 159.5t119.5 116.5
q84 46 203 46q52 0 122.5 -9.5t78.5 -10.5q-14 -87 -16 -156q-2 -3 -10.5 -5t-16 -1.5t-7.5 3.5zM457 821q10 0 32.5 -14t30.5 -24q2 -2 2 -7.5t-2 -6.5q-11 -11 -87.5 -53.5t-83.5 -42.5q-2 0 -10 11t-7 13q11 14 62.5 66t62.5 58z" />
    <glyph glyph-name="uni0107" unicode="&#x107;" horiz-adv-x="413" 
d="M389 66q-33 -40 -77.5 -59t-83.5 -19q-94 0 -145 70q-40 55 -40 135q0 117 103 179q67 41 128 41q48 0 84 -16q25 -13 31 -27q0 -11 -3 -17q-4 -12 -15.5 -25.5t-18.5 -16.5q-7 -2 -11 -1q-58 55 -112 55q-53 0 -79.5 -39t-26.5 -95q0 -78 38 -122q41 -51 113 -51
q62 0 115 48q6 0 6 -7q0 -25 -6 -33zM271 615q8 4 40.5 7t39.5 1q5 -3 5 -11q-10 -19 -56.5 -80.5t-67.5 -86.5q-4 -1 -14 6t-12 11q55 135 65 153z" />
    <glyph glyph-name="uni0108" unicode="&#x108;" horiz-adv-x="682" 
d="M570 455q-8 59 -20 81.5t-42 36.5q-44 22 -123 22q-107 0 -165.5 -73.5t-58.5 -200.5q0 -123 68.5 -207.5t195.5 -84.5q69 0 108 32q33 26 77 100q5 1 15.5 -5t12.5 -12q-8 -31 -34 -78t-43 -58q-69 -26 -156 -26q-167 0 -258 87t-91 243q0 86 40.5 159.5t119.5 116.5
q84 46 203 46q52 0 122.5 -9.5t78.5 -10.5q-14 -87 -16 -156q-2 -3 -10.5 -5t-16 -1.5t-7.5 3.5zM379 801q6 5 23 8q9 -10 60 -52t71 -57q0 -4 -7 -15t-10 -11q-5 0 -58 24t-64 31q-5 2 -10 0q-17 -10 -63.5 -32.5t-50.5 -22.5t-10.5 10.5t-5.5 15.5q112 88 125 101z" />
    <glyph glyph-name="uni0109" unicode="&#x109;" horiz-adv-x="413" 
d="M389 66q-33 -40 -77.5 -59t-83.5 -19q-94 0 -145 70q-40 55 -40 135q0 117 103 179q67 41 128 41q48 0 84 -16q25 -13 31 -27q0 -11 -3 -17q-4 -12 -15.5 -25.5t-18.5 -16.5q-7 -2 -11 -1q-58 55 -112 55q-53 0 -79.5 -39t-26.5 -95q0 -78 38 -122q41 -51 113 -51
q62 0 115 48q6 0 6 -7q0 -25 -6 -33zM236 544q-13 -25 -32 -53.5t-25 -32.5q-19 -12 -38 -8q-3 2 -3 5q68 110 90 160q1 3 14.5 7t17.5 4q11 -27 42.5 -85t44.5 -78q-2 -4 -17.5 -10t-23.5 -5q-12 3 -64 96q-2 2 -6 0z" />
    <glyph glyph-name="uni010A" unicode="&#x10a;" horiz-adv-x="682" 
d="M570 455q-8 59 -20 81.5t-42 36.5q-44 22 -123 22q-107 0 -165.5 -73.5t-58.5 -200.5q0 -123 68.5 -207.5t195.5 -84.5q69 0 108 32q33 26 77 100q5 1 15.5 -5t12.5 -12q-8 -31 -34 -78t-43 -58q-69 -26 -156 -26q-167 0 -258 87t-91 243q0 86 40.5 159.5t119.5 116.5
q84 46 203 46q52 0 122.5 -9.5t78.5 -10.5q-14 -87 -16 -156q-2 -3 -10.5 -5t-16 -1.5t-7.5 3.5zM442 741q0 -35 -22 -51q-3 -3 -22.5 -4.5t-24.5 1.5q-21 13 -27 43q-1 5 0.5 16.5t4.5 14.5q21 19 51 19q21 0 30 -9q10 -12 10 -30z" />
    <glyph glyph-name="uni010B" unicode="&#x10b;" horiz-adv-x="413" 
d="M389 66q-33 -40 -77.5 -59t-83.5 -19q-94 0 -145 70q-40 55 -40 135q0 117 103 179q67 41 128 41q48 0 84 -16q25 -13 31 -27q0 -11 -3 -17q-4 -12 -15.5 -25.5t-18.5 -16.5q-7 -2 -11 -1q-58 55 -112 55q-53 0 -79.5 -39t-26.5 -95q0 -78 38 -122q41 -51 113 -51
q62 0 115 48q6 0 6 -7q0 -25 -6 -33zM294 555q0 -33 -22 -50q-4 -3 -23.5 -4.5t-24.5 1.5q-20 12 -26 43q-1 5 0.5 17t4.5 15q18 18 51 18q24 0 31 -10q9 -11 9 -30z" />
    <glyph glyph-name="uni010C" unicode="&#x10c;" horiz-adv-x="682" 
d="M570 455q-8 59 -20 81.5t-42 36.5q-44 22 -123 22q-107 0 -165.5 -73.5t-58.5 -200.5q0 -123 68.5 -207.5t195.5 -84.5q69 0 108 32q33 26 77 100q5 1 15.5 -5t12.5 -12q-8 -31 -34 -78t-43 -58q-69 -26 -156 -26q-167 0 -258 87t-91 243q0 86 40.5 159.5t119.5 116.5
q84 46 203 46q52 0 122.5 -9.5t78.5 -10.5q-14 -87 -16 -156q-2 -3 -10.5 -5t-16 -1.5t-7.5 3.5zM410 683q-6 -5 -23 -8q-27 29 -131 109q0 4 7 15t10 11q5 0 58 -24t64 -31q7 -2 10 0q18 10 63.5 32.5t49.5 22.5t11 -10.5t5 -15.5q-7 -6 -37.5 -30t-54.5 -43.5t-32 -27.5z
" />
    <glyph glyph-name="uni010D" unicode="&#x10d;" horiz-adv-x="413" 
d="M389 66q-33 -40 -77.5 -59t-83.5 -19q-94 0 -145 70q-40 55 -40 135q0 117 103 179q67 41 128 41q48 0 84 -16q25 -13 31 -27q0 -11 -3 -17q-4 -12 -15.5 -25.5t-18.5 -16.5q-7 -2 -11 -1q-58 55 -112 55q-53 0 -79.5 -39t-26.5 -95q0 -78 38 -122q41 -51 113 -51
q62 0 115 48q6 0 6 -7q0 -25 -6 -33zM248 528q14 25 33.5 54t25.5 33q21 11 38 7q3 -2 3 -5q-67 -108 -91 -160q-1 -2 -15 -6.5t-16 -3.5q-11 27 -43.5 85t-45.5 77q2 4 18 10t23 5q12 -2 65 -96q3 -2 5 0z" />
    <glyph glyph-name="uni010E" unicode="&#x10e;" horiz-adv-x="716" 
d="M28 588q-2 3 -1 15.5t4 15.5q8 0 57.5 -1.5t65.5 -1.5q24 0 83 2t112 2q134 0 215 -70q96 -84 96 -228q0 -171 -126 -260q-96 -68 -244 -68q-34 0 -117.5 1.5t-110.5 1.5h-44q-3 5 -3 17.5t3 14.5q45 4 68 11q16 4 24 14t9 34q3 62 3 229q0 177 -2 214q-2 24 -10.5 33.5
t-27.5 13.5q-18 5 -54 10zM214 99q0 -26 19 -41q29 -22 106 -22q87 0 144 52q78 73 78 217q0 161 -114 236q-62 40 -173 40q-37 0 -51 -5q-8 -4 -10 -17q-2 -21 -2 -241q0 -200 3 -219zM342 668q-6 -5 -23 -8q-27 29 -131 109q0 4 7 15t10 11q5 0 58 -24t64 -31q7 -2 10 0
q18 10 63.5 32.5t49.5 22.5t11 -10.5t5 -15.5q-7 -6 -37.5 -30t-54.5 -43.5t-32 -27.5z" />
    <glyph glyph-name="uni010F" unicode="&#x10f;" horiz-adv-x="507" 
d="M494 51q0 -23 -6 -31q-21 -10 -67.5 -23t-65.5 -14q-4 0 -8 13q-2 16 -2 49q0 7 -5 4q-87 -59 -140 -59q-69 0 -111 54q-46 57 -46 144q0 47 20 90t55 71q31 27 83 45.5t100 18.5q6 0 14 -0.5t17 -2t12 -1.5q4 0 4 5q0 138 -2 162q-1 25 -20 31q-27 8 -61 10
q-3 5 -1.5 17t5.5 15q94 0 167 26q2 -1 4.5 -7.5t1.5 -8.5q-11 -18 -12 -71q-3 -81 -3 -284q0 -200 1 -220q1 -30 18 -33q12 -2 48 0zM244 367q-45 0 -74 -28q-44 -42 -44 -122q0 -77 37 -119t97 -42q45 0 78 28q8 8 8 21q3 78 1 194q0 29 -21 45q-34 23 -82 23zM559 680
q6 0 6 -13q0 -28 -6.5 -87.5t-14.5 -85.5q-6 -21 -35 -39q-2 -1 -5 2t-3 4q0 91 -11 172q0 5 3 8q6 8 31.5 23.5t34.5 15.5z" />
    <glyph glyph-name="uni0110" unicode="&#x110;" horiz-adv-x="716" 
d="M28 588q-2 3 -1 15.5t4 15.5q8 0 57.5 -1.5t65.5 -1.5q24 0 83 2t112 2q134 0 215 -70q96 -84 96 -228q0 -171 -126 -260q-96 -68 -244 -68q-34 0 -117.5 1.5t-110.5 1.5h-44q-3 5 -3 17.5t3 14.5q45 4 68 11q16 4 24 14t9 34q3 58 3 214q-26 0 -47 -0.5t-31 -1t-16 -0.5
q3 31 7 40q7 0 39.5 -0.5t47.5 -0.5q0 158 -2 192q-2 24 -10.5 33.5t-27.5 13.5q-18 5 -54 10zM214 99q0 -26 19 -41q29 -22 106 -22q87 0 144 52q78 73 78 217q0 161 -114 236q-62 40 -173 40q-37 0 -51 -5q-8 -4 -10 -17q-2 -19 -2 -220q158 2 178 2q3 -19 -6 -40
q-29 0 -86.5 0.5t-85.5 0.5q0 -185 3 -203z" />
    <glyph glyph-name="uni0111" unicode="&#x111;" horiz-adv-x="516" 
d="M43 188q0 47 20 90t55 71q32 27 84 45.5t100 18.5q26 0 42 -3q4 0 4 5v77q-94 -2 -125 -2q2 30 8 37q2 0 41.5 -0.5t75.5 -0.5q1 18 -1 53q-1 22 -22 29q-29 7 -60 10q-5 20 4 31q94 0 167 26q2 -1 4.5 -6.5t1.5 -8.5q-13 -18 -14 -72v-62q13 0 40.5 1t30.5 1
q1 -4 -1 -18t-4 -19q-46 0 -67 1v-188q0 -207 1 -227q1 -19 5 -24.5t13 -7.5q24 -4 55 -1q1 -5 -1.5 -16.5t-4.5 -14.5q-19 -8 -68.5 -18t-71.5 -12q-4 0 -8 13q-2 16 -2 48q0 5 -5 5q-35 -25 -76 -42t-64 -17q-69 0 -112 54q-45 56 -45 144zM244 367q-43 0 -74 -29
q-44 -41 -44 -120q0 -77 37 -119.5t97 -42.5q47 0 77 27q9 9 9 21q3 81 1 196q0 31 -23 46q-32 21 -80 21z" />
    <glyph glyph-name="uni0112" unicode="&#x112;" horiz-adv-x="573" 
d="M39 588q-4 4 -3 16t5 16q9 0 58 -2t81 -2h198q82 0 113 4q4 -4 4 -6q-13 -51 -17 -139q-4 -4 -18.5 -4t-17.5 3q-2 22 -11 60q-6 19 -16 27.5t-33 9.5q-16 1 -79 1t-74 -1q-5 -1 -9 -8t-4 -12q-2 -138 -1 -206q0 -7 5 -7q99 -2 152 2q24 2 32 29q7 21 11 41q6 3 20 2
t17 -5q-7 -74 -7 -96q0 -19 1 -50t1 -43q-4 -4 -19 -4.5t-19 3.5q-7 38 -9 43q-7 25 -32 28q-21 2 -148 2q-5 0 -5 -8q-2 -80 1 -195q2 -31 24 -38q20 -6 155 -6q28 1 41.5 8t28.5 27q24 28 49 87q5 1 17.5 -3.5t15.5 -8.5q-4 -26 -18 -71.5t-25 -68.5q-4 -9 -15.5 -13
t-46.5 -4q-45 0 -132 2t-134 2q-36 0 -91.5 -1.5t-72.5 -1.5q-3 3 -3.5 16t2.5 16q67 8 79 11q18 4 25 15.5t9 38.5q1 18 1 238q0 178 -1 196q-2 27 -7 36.5t-23 13.5q-17 5 -55 10zM179 748q20 -2 55 -2h179q0 -10 -7 -30.5t-10 -21.5q-16 -3 -198 -3l-37 2q0 1 18 55z" />
    <glyph glyph-name="uni0113" unicode="&#x113;" horiz-adv-x="429" 
d="M387 99q4 -4 5 -6q2 -15 -6 -31q-29 -34 -76 -54t-84 -20q-77 0 -124 47q-59 60 -59 162q0 124 90 182q50 34 110 34q66 0 100 -44.5t42 -100.5q2 -7 16 -11q0 -4 -3.5 -14t-5.5 -12q-58 -15 -264 -22q-5 0 -5 -11q2 -60 42 -99q42 -42 108 -42q60 0 114 42zM211 372
q-36 0 -59.5 -31t-28.5 -83q0 -7 6 -7q28 -1 92 1t77 5q4 3 6 9q-5 42 -30 74t-63 32zM131 560q14 -2 47 -2h69h67.5h26.5q0 -10 -6.5 -31t-9.5 -22q-9 -2 -179 -2q-26 0 -32 2q1 7 8 29.5t9 25.5z" />
    <glyph glyph-name="uni0114" unicode="&#x114;" horiz-adv-x="573" 
d="M39 588q-4 4 -3 16t5 16q9 0 58 -2t81 -2h198q82 0 113 4q4 -4 4 -6q-13 -51 -17 -139q-4 -4 -18.5 -4t-17.5 3q-2 22 -11 60q-6 19 -16 27.5t-33 9.5q-16 1 -79 1t-74 -1q-5 -1 -9 -8t-4 -12q-2 -138 -1 -206q0 -7 5 -7q99 -2 152 2q24 2 32 29q7 21 11 41q6 3 20 2
t17 -5q-7 -74 -7 -96q0 -19 1 -50t1 -43q-4 -4 -19 -4.5t-19 3.5q-7 38 -9 43q-7 25 -32 28q-21 2 -148 2q-5 0 -5 -8q-2 -80 1 -195q2 -31 24 -38q20 -6 155 -6q28 1 41.5 8t28.5 27q24 28 49 87q5 1 17.5 -3.5t15.5 -8.5q-4 -26 -18 -71.5t-25 -68.5q-4 -9 -15.5 -13
t-46.5 -4q-45 0 -132 2t-134 2q-36 0 -91.5 -1.5t-72.5 -1.5q-3 3 -3.5 16t2.5 16q67 8 79 11q18 4 25 15.5t9 38.5q1 18 1 238q0 178 -1 196q-2 27 -7 36.5t-23 13.5q-17 5 -55 10zM302 719q54 0 90 47q2 2 15 7.5t15 5.5t4.5 -2t1.5 -3q-15 -45 -55 -77.5t-94 -32.5
q-48 0 -79.5 21t-31.5 53q0 7 8 21.5t16 20.5q2 1 7.5 1t6.5 -2q20 -60 96 -60z" />
    <glyph glyph-name="uni0115" unicode="&#x115;" horiz-adv-x="429" 
d="M387 99q4 -4 5 -6q2 -15 -6 -31q-29 -34 -76 -54t-84 -20q-77 0 -124 47q-59 60 -59 162q0 124 90 182q50 34 110 34q66 0 100 -44.5t42 -100.5q2 -7 16 -11q0 -4 -3.5 -14t-5.5 -12q-58 -15 -264 -22q-5 0 -5 -11q2 -60 42 -99q42 -42 108 -42q60 0 114 42zM211 372
q-36 0 -59.5 -31t-28.5 -83q0 -7 6 -7q28 -1 92 1t77 5q4 3 6 9q-5 42 -30 74t-63 32zM237 523q49 0 81 53q2 2 13 9t13 7q7 0 7 -7q-10 -49 -47.5 -83.5t-88.5 -34.5q-41 0 -71 23t-30 59q0 9 9.5 22.5t20.5 20.5q2 1 6.5 1t5.5 -2q15 -68 81 -68z" />
    <glyph glyph-name="uni0116" unicode="&#x116;" horiz-adv-x="573" 
d="M39 588q-4 4 -3 16t5 16q9 0 58 -2t81 -2h198q82 0 113 4q4 -4 4 -6q-13 -51 -17 -139q-4 -4 -18.5 -4t-17.5 3q-2 22 -11 60q-6 19 -16 27.5t-33 9.5q-16 1 -79 1t-74 -1q-5 -1 -9 -8t-4 -12q-2 -138 -1 -206q0 -7 5 -7q99 -2 152 2q24 2 32 29q7 21 11 41q6 3 20 2
t17 -5q-7 -74 -7 -96q0 -19 1 -50t1 -43q-4 -4 -19 -4.5t-19 3.5q-7 38 -9 43q-7 25 -32 28q-21 2 -148 2q-5 0 -5 -8q-2 -80 1 -195q2 -31 24 -38q20 -6 155 -6q28 1 41.5 8t28.5 27q24 28 49 87q5 1 17.5 -3.5t15.5 -8.5q-4 -26 -18 -71.5t-25 -68.5q-4 -9 -15.5 -13
t-46.5 -4q-45 0 -132 2t-134 2q-36 0 -91.5 -1.5t-72.5 -1.5q-3 3 -3.5 16t2.5 16q67 8 79 11q18 4 25 15.5t9 38.5q1 18 1 238q0 178 -1 196q-2 27 -7 36.5t-23 13.5q-17 5 -55 10zM339 728q0 -35 -22 -51q-3 -3 -22.5 -4.5t-24.5 1.5q-21 13 -27 43q-1 5 0.5 16.5
t4.5 14.5q21 19 51 19q21 0 30 -9q10 -12 10 -30z" />
    <glyph glyph-name="uni0117" unicode="&#x117;" horiz-adv-x="429" 
d="M387 99q4 -4 5 -6q2 -15 -6 -31q-29 -34 -76 -54t-84 -20q-77 0 -124 47q-59 60 -59 162q0 124 90 182q50 34 110 34q66 0 100 -44.5t42 -100.5q2 -7 16 -11q0 -4 -3.5 -14t-5.5 -12q-58 -15 -264 -22q-5 0 -5 -11q2 -60 42 -99q42 -42 108 -42q60 0 114 42zM211 372
q-36 0 -59.5 -31t-28.5 -83q0 -7 6 -7q28 -1 92 1t77 5q4 3 6 9q-5 42 -30 74t-63 32zM277 555q0 -33 -22 -50q-4 -3 -23.5 -4.5t-24.5 1.5q-20 12 -26 43q-1 5 0.5 17t4.5 15q18 18 51 18q23 0 31 -10q9 -11 9 -30z" />
    <glyph glyph-name="uni0118" unicode="&#x118;" horiz-adv-x="573" 
d="M11 29q67 8 79 11q18 4 25 15.5t9 38.5q1 18 1 238q0 178 -1 196q-2 27 -7 36.5t-23 13.5q-17 5 -55 10q-4 4 -3 16t5 16q9 0 58 -2t81 -2h198q82 0 113 4q4 -4 4 -6q-13 -51 -17 -139q-4 -4 -18.5 -4t-17.5 3q-2 22 -11 60q-6 19 -16 27.5t-33 9.5q-16 1 -79 1t-74 -1
q-5 -1 -9 -8t-4 -12q-2 -139 -1 -206q0 -7 6 -7q99 -2 151 2q24 2 32 29q7 21 11 41q6 3 20 2t17 -5q-7 -74 -7 -96q0 -19 1 -50t1 -43q-4 -4 -19 -4.5t-19 3.5q-5 34 -9 44q-7 25 -32 27q-21 2 -148 2q-5 0 -5 -8q-1 -78 1 -195q2 -31 24 -38q20 -6 155 -6q28 1 41.5 8
t28.5 27q24 28 49 87q5 1 17.5 -3.5t15.5 -8.5q-3 -23 -17 -69t-26 -71q-7 -15 -43 -16q-65 -66 -65 -113q0 -41 45 -41q25 0 53 17q2 -4 2 -17.5t-2 -15.5q-19 -25 -46.5 -36.5t-50.5 -11.5q-33 0 -56.5 20.5t-23.5 58.5q0 55 102 138q-31 0 -113 2t-130 2
q-36 0 -91.5 -1.5t-72.5 -1.5q-3 3 -3.5 16t2.5 16z" />
    <glyph glyph-name="uni0119" unicode="&#x119;" horiz-adv-x="429" 
d="M387 99q4 -4 5 -6q2 -15 -6 -31q-35 -41 -89 -59q-67 -58 -67 -106q0 -20 12.5 -29.5t30.5 -9.5q27 0 50 16q2 -3 2 -16t-1 -15q-18 -24 -44.5 -35t-48.5 -11q-31 0 -53.5 20t-22.5 55q0 49 85 117q-5 -1 -14 -1q-77 0 -124 47q-59 60 -59 162q0 124 90 182q52 34 110 34
q65 0 99.5 -45.5t42.5 -99.5q2 -7 16 -11q0 -4 -3.5 -14t-5.5 -12q-57 -14 -264 -22q-5 0 -5 -11q2 -60 42 -99q42 -42 108 -42q60 0 114 42zM211 372q-35 0 -59 -31.5t-29 -82.5q0 -7 6 -7q31 -1 93.5 1.5t76.5 5.5q5 3 5 8q-5 42 -30 74t-63 32z" />
    <glyph glyph-name="uni011A" unicode="&#x11a;" horiz-adv-x="573" 
d="M39 588q-4 4 -3 16t5 16q9 0 58 -2t81 -2h198q82 0 113 4q4 -4 4 -6q-13 -51 -17 -139q-4 -4 -18.5 -4t-17.5 3q-2 22 -11 60q-6 19 -16 27.5t-33 9.5q-16 1 -79 1t-74 -1q-5 -1 -9 -8t-4 -12q-2 -138 -1 -206q0 -7 5 -7q99 -2 152 2q24 2 32 29q7 21 11 41q6 3 20 2
t17 -5q-7 -74 -7 -96q0 -19 1 -50t1 -43q-4 -4 -19 -4.5t-19 3.5q-7 38 -9 43q-7 25 -32 28q-21 2 -148 2q-5 0 -5 -8q-2 -80 1 -195q2 -31 24 -38q20 -6 155 -6q28 1 41.5 8t28.5 27q24 28 49 87q5 1 17.5 -3.5t15.5 -8.5q-4 -26 -18 -71.5t-25 -68.5q-4 -9 -15.5 -13
t-46.5 -4q-45 0 -132 2t-134 2q-36 0 -91.5 -1.5t-72.5 -1.5q-3 3 -3.5 16t2.5 16q67 8 79 11q18 4 25 15.5t9 38.5q1 18 1 238q0 178 -1 196q-2 27 -7 36.5t-23 13.5q-17 5 -55 10zM305 665q-6 -5 -23 -8q-27 29 -131 109q0 4 7 15t10 11q5 0 58 -24t64 -31q7 -2 10 0
q18 10 63.5 32.5t49.5 22.5t11 -10.5t5 -15.5q-7 -6 -37.5 -30t-54.5 -43.5t-32 -27.5z" />
    <glyph glyph-name="uni011B" unicode="&#x11b;" horiz-adv-x="429" 
d="M387 99q4 -4 5 -6q2 -15 -6 -31q-29 -34 -76 -54t-84 -20q-77 0 -124 47q-59 60 -59 162q0 124 90 182q50 34 110 34q66 0 100 -44.5t42 -100.5q2 -7 16 -11q0 -4 -3.5 -14t-5.5 -12q-58 -15 -264 -22q-5 0 -5 -11q2 -60 42 -99q42 -42 108 -42q60 0 114 42zM211 372
q-36 0 -59.5 -31t-28.5 -83q0 -7 6 -7q28 -1 92 1t77 5q4 3 6 9q-5 42 -30 74t-63 32zM232 528q14 25 33.5 54t25.5 33q21 11 38 7q3 -2 3 -5q-67 -108 -91 -160q-1 -2 -15 -6.5t-16 -3.5q-11 27 -43.5 85t-45.5 77q2 4 18 10t23 5q12 -2 65 -96q3 -2 5 0z" />
    <glyph glyph-name="uni011C" unicode="&#x11c;" horiz-adv-x="715" 
d="M641 44q1 -3 -0.5 -12t-3.5 -11q-124 -39 -220 -39q-176 0 -268.5 86t-92.5 243q0 100 47 174t131 111q82 38 196 38q49 0 120.5 -10.5t80.5 -11.5q-16 -81 -18 -163q-2 -4 -17.5 -5.5t-19.5 2.5q-6 56 -16.5 82t-32.5 39q-47 28 -136 28q-112 0 -170 -73.5t-58 -197.5
q0 -134 71 -218.5t202 -84.5q45 0 65 13q18 10 20 40q4 31 2 99q-1 25 -8 36t-28 17q-8 2 -18 3.5t-25.5 3.5t-27.5 4q-4 3 -3 17t4 16q10 0 58 -1.5t86 -1.5q54 0 114 3q2 -3 1.5 -17t-2.5 -17q-24 -4 -34 -7q-24 -7 -25 -46q-2 -70 0 -110q1 -12 5.5 -17t20.5 -12z
M378 795q6 5 23 8q9 -10 60 -52t71 -57q0 -4 -7 -15t-10 -11q-5 0 -58 24t-64 31q-5 2 -10 0q-17 -10 -63.5 -32.5t-50.5 -22.5t-10.5 10.5t-5.5 15.5q112 88 125 101z" />
    <glyph glyph-name="uni011D" unicode="&#x11d;" horiz-adv-x="448" 
d="M226 413q41 -1 91 -20q23 -10 57 -10q40 0 61 23q2 1 7.5 -2.5t6.5 -5.5q0 -9 -8.5 -29.5t-16.5 -28.5q-11 -13 -36 -13h-24q-2 0 -2 -4q7 -21 7 -44q0 -86 -60 -130q-45 -35 -105 -41q-6 -2 -21 -2q-25 -6 -25 -25q0 -26 41 -30q144 -12 166 -20q31 -11 50.5 -36
t19.5 -63q0 -49 -33 -94t-91 -73q-55 -27 -116 -27q-75 0 -122 36q-48 39 -48 92q0 30 8 40q14 18 95 75v3q-28 10 -44 27t-19 34q0 4 5 19q54 32 66 42q1 1 0.5 2.5t-1.5 2.5q-93 32 -93 142q0 72 57 116q21 16 60 30t67 14zM236 -210q64 0 96 29t32 69q0 50 -50 69
q-42 16 -124 16q-21 0 -35 -9q-55 -35 -55 -76q0 -38 32 -66q39 -32 104 -32zM194 373q-33 0 -53 -26.5t-20 -70.5q0 -52 25 -90t73 -38q29 0 45 18q27 25 27 84q0 52 -23 87.5t-74 35.5zM210 544q-13 -25 -32 -53.5t-25 -32.5q-19 -12 -38 -8q-3 2 -3 5q68 110 90 160
q1 3 14.5 7t17.5 4q11 -27 42.5 -85t44.5 -78q-2 -4 -17.5 -10t-23.5 -5q-12 3 -64 96q-2 2 -6 0z" />
    <glyph glyph-name="uni011E" unicode="&#x11e;" horiz-adv-x="715" 
d="M641 44q1 -3 -0.5 -12t-3.5 -11q-124 -39 -220 -39q-176 0 -268.5 86t-92.5 243q0 100 47 174t131 111q82 38 196 38q49 0 120.5 -10.5t80.5 -11.5q-16 -81 -18 -163q-2 -4 -17.5 -5.5t-19.5 2.5q-6 56 -16.5 82t-32.5 39q-47 28 -136 28q-112 0 -170 -73.5t-58 -197.5
q0 -134 71 -218.5t202 -84.5q45 0 65 13q18 10 20 40q4 31 2 99q-1 25 -8 36t-28 17q-8 2 -18 3.5t-25.5 3.5t-27.5 4q-4 3 -3 17t4 16q10 0 58 -1.5t86 -1.5q54 0 114 3q2 -3 1.5 -17t-2.5 -17q-24 -4 -34 -7q-24 -7 -25 -46q-2 -70 0 -110q1 -12 5.5 -17t20.5 -12z
M406 733q54 0 90 47q2 2 15 7.5t15 5.5t4.5 -2t1.5 -3q-15 -45 -55 -77.5t-94 -32.5q-48 0 -79.5 21t-31.5 53q0 7 8 21.5t16 20.5q2 1 7.5 1t6.5 -2q20 -60 96 -60z" />
    <glyph glyph-name="uni011F" unicode="&#x11f;" horiz-adv-x="448" 
d="M226 413q41 -1 91 -20q23 -10 57 -10q40 0 61 23q2 1 7.5 -2.5t6.5 -5.5q0 -9 -8.5 -29.5t-16.5 -28.5q-11 -13 -36 -13h-24q-2 0 -2 -4q7 -21 7 -44q0 -86 -60 -130q-45 -35 -105 -41q-6 -2 -21 -2q-25 -6 -25 -25q0 -26 41 -30q144 -12 166 -20q31 -11 50.5 -36
t19.5 -63q0 -49 -33 -94t-91 -73q-55 -27 -116 -27q-75 0 -122 36q-48 39 -48 92q0 30 8 40q14 18 95 75v3q-28 10 -44 27t-19 34q0 4 5 19q54 32 66 42q1 1 0.5 2.5t-1.5 2.5q-93 32 -93 142q0 72 57 116q21 16 60 30t67 14zM236 -210q64 0 96 29t32 69q0 50 -50 69
q-42 16 -124 16q-21 0 -35 -9q-55 -35 -55 -76q0 -38 32 -66q39 -32 104 -32zM194 373q-33 0 -53 -26.5t-20 -70.5q0 -52 25 -90t73 -38q29 0 45 18q27 25 27 84q0 52 -23 87.5t-74 35.5zM227 523q49 0 81 53q2 2 13 9t13 7q7 0 7 -7q-10 -49 -47.5 -83.5t-88.5 -34.5
q-41 0 -71 23t-30 59q0 9 9.5 22.5t20.5 20.5q2 1 6.5 1t5.5 -2q15 -68 81 -68z" />
    <glyph glyph-name="uni0120" unicode="&#x120;" horiz-adv-x="715" 
d="M641 44q1 -3 -0.5 -12t-3.5 -11q-124 -39 -220 -39q-176 0 -268.5 86t-92.5 243q0 100 47 174t131 111q82 38 196 38q49 0 120.5 -10.5t80.5 -11.5q-16 -81 -18 -163q-2 -4 -17.5 -5.5t-19.5 2.5q-6 56 -16.5 82t-32.5 39q-47 28 -136 28q-112 0 -170 -73.5t-58 -197.5
q0 -134 71 -218.5t202 -84.5q45 0 65 13q18 10 20 40q4 31 2 99q-1 25 -8 36t-28 17q-8 2 -18 3.5t-25.5 3.5t-27.5 4q-4 3 -3 17t4 16q10 0 58 -1.5t86 -1.5q54 0 114 3q2 -3 1.5 -17t-2.5 -17q-24 -4 -34 -7q-24 -7 -25 -46q-2 -70 0 -110q1 -12 5.5 -17t20.5 -12z
M442 740q0 -35 -22 -51q-3 -3 -22.5 -4.5t-24.5 1.5q-21 13 -27 43q-1 5 0.5 16.5t4.5 14.5q21 19 51 19q21 0 30 -9q10 -12 10 -30z" />
    <glyph glyph-name="uni0121" unicode="&#x121;" horiz-adv-x="448" 
d="M226 413q41 -1 91 -20q23 -10 57 -10q40 0 61 23q2 1 7.5 -2.5t6.5 -5.5q0 -9 -8.5 -29.5t-16.5 -28.5q-11 -13 -36 -13h-24q-2 0 -2 -4q7 -21 7 -44q0 -86 -60 -130q-45 -35 -105 -41q-6 -2 -21 -2q-25 -6 -25 -25q0 -26 41 -30q144 -12 166 -20q31 -11 50.5 -36
t19.5 -63q0 -49 -33 -94t-91 -73q-55 -27 -116 -27q-75 0 -122 36q-48 39 -48 92q0 30 8 40q14 18 95 75v3q-28 10 -44 27t-19 34q0 4 5 19q54 32 66 42q1 1 0.5 2.5t-1.5 2.5q-93 32 -93 142q0 72 57 116q21 16 60 30t67 14zM236 -210q64 0 96 29t32 69q0 50 -50 69
q-42 16 -124 16q-21 0 -35 -9q-55 -35 -55 -76q0 -38 32 -66q39 -32 104 -32zM194 373q-33 0 -53 -26.5t-20 -70.5q0 -52 25 -90t73 -38q29 0 45 18q27 25 27 84q0 52 -23 87.5t-74 35.5zM267 555q0 -33 -22 -50q-4 -3 -23.5 -4.5t-24.5 1.5q-20 12 -26 43q-1 5 0.5 17
t4.5 15q18 18 51 18q23 0 31 -10q9 -11 9 -30z" />
    <glyph glyph-name="uni0122" unicode="&#x122;" horiz-adv-x="715" 
d="M641 44q1 -3 -0.5 -12t-3.5 -11q-124 -39 -220 -39q-176 0 -268.5 86t-92.5 243q0 100 47 174t131 111q82 38 196 38q49 0 120.5 -10.5t80.5 -11.5q-16 -81 -18 -163q-2 -4 -17.5 -5.5t-19.5 2.5q-6 56 -16.5 82t-32.5 39q-47 28 -136 28q-112 0 -170 -73.5t-58 -197.5
q0 -134 71 -218.5t202 -84.5q45 0 65 13q18 10 20 40q4 31 2 99q-1 25 -8 36t-28 17q-8 2 -18 3.5t-25.5 3.5t-27.5 4q-4 3 -3 17t4 16q10 0 58 -1.5t86 -1.5q54 0 114 3q2 -3 1.5 -17t-2.5 -17q-24 -4 -34 -7q-24 -7 -25 -46q-2 -70 0 -110q1 -12 5.5 -17t20.5 -12z
M408 -52q18 0 35 -20.5t17 -53.5q0 -46 -32 -80t-88 -47q-3 1 -8 11.5t-4 14.5q69 28 69 69q0 37 -57 54q-2 2 -2 9t2 9q8 9 29.5 21.5t38.5 12.5z" />
    <glyph glyph-name="uni0123" unicode="&#x123;" horiz-adv-x="448" 
d="M226 413q41 -1 91 -20q23 -10 57 -10q40 0 61 23q2 1 7.5 -2.5t6.5 -5.5q0 -9 -8.5 -29.5t-16.5 -28.5q-11 -13 -36 -13h-24q-2 0 -2 -4q7 -21 7 -44q0 -86 -60 -130q-45 -35 -105 -41q-6 -2 -21 -2q-25 -6 -25 -25q0 -26 41 -30q144 -12 166 -20q31 -11 50.5 -36
t19.5 -63q0 -49 -33 -94t-91 -73q-55 -27 -116 -27q-75 0 -122 36q-48 39 -48 92q0 30 8 40q14 18 95 75v3q-28 10 -44 27t-19 34q0 4 5 19q54 32 66 42q1 1 0.5 2.5t-1.5 2.5q-93 32 -93 142q0 72 57 116q21 16 60 30t67 14zM236 -210q64 0 96 29t32 69q0 50 -50 69
q-42 16 -124 16q-21 0 -35 -9q-55 -35 -55 -76q0 -38 32 -66q39 -32 104 -32zM194 373q-33 0 -53 -26.5t-20 -70.5q0 -52 25 -90t73 -38q29 0 45 18q27 25 27 84q0 52 -23 87.5t-74 35.5zM208 458q-18 0 -38.5 23t-20.5 53q0 39 29.5 68t79.5 38q3 -2 6.5 -11.5t3.5 -14.5
q-37 -13 -50.5 -27t-13.5 -31q0 -32 58 -46v-16q-7 -11 -25 -23.5t-29 -12.5z" />
    <glyph glyph-name="uni0124" unicode="&#x124;" horiz-adv-x="760" 
d="M30 588q-4 3 -3 15.5t4 15.5q7 0 52 -1.5t79 -1.5q40 0 80.5 1.5t48.5 1.5q3 -4 3 -16.5t-4 -14.5q-32 -5 -50 -10q-15 -5 -20.5 -14t-6.5 -32q-2 -36 -2 -181q2 -9 6 -10q8 -1 167 -1q149 0 158 1q7 0 7 7q0 159 -2 196q-2 25 -20 32q-12 5 -61 12q-4 3 -4 15.5t4 16.5
q8 0 53.5 -2t75.5 -2q29 0 76.5 1.5t50.5 1.5q4 -3 4 -15.5t-4 -15.5q-38 -5 -53 -11q-16 -5 -21 -15.5t-7 -38.5q-2 -35 -2 -207q0 -196 2 -230q4 -37 29 -45q25 -7 66 -12q3 -3 2 -16.5t-6 -15.5q-12 0 -61 1.5t-79 1.5q-51 0 -129 -3q-4 3 -4 15.5t3 16.5q40 5 59 11
q14 5 19.5 14t6.5 31q2 29 2 197q0 2 -2.5 4.5t-5.5 2.5q-19 1 -158 1q-150 0 -168 -2q-4 0 -4 -5q0 -147 2 -187q2 -28 8 -38.5t25 -15.5q22 -6 62 -13q3 -3 0.5 -16.5t-5.5 -15.5q-1 0 -47 1.5t-88 1.5q-38 0 -85.5 -1.5t-51.5 -1.5q-3 3 -3 16t3 16q47 8 55 10
q20 6 26.5 20.5t8.5 50.5q0 10 0.5 81.5t0.5 121.5q0 184 -2 218q-2 22 -7.5 32t-20.5 14q-20 5 -62 11zM367 792q6 5 23 8q9 -10 60 -52t71 -57q0 -4 -7 -15t-10 -11q-5 0 -58 24t-64 31q-5 2 -10 0q-17 -10 -63.5 -32.5t-50.5 -22.5t-10.5 10.5t-5.5 15.5q112 88 125 101z
" />
    <glyph glyph-name="uni0125" unicode="&#x125;" horiz-adv-x="505" 
d="M93 784q5 4 23 7q9 -9 56.5 -44.5t67.5 -48.5q0 -3 -6 -13t-9 -10q-5 0 -55 21t-61 27q-7 2 -10 0q-14 -8 -60 -28t-50 -20t-9 9.5t-4 13.5q20 12 63 43.5t54 42.5zM8 612q-4 3 -3.5 15.5t4.5 14.5q95 6 154 33q2 -1 5.5 -7.5t2.5 -8.5q-11 -21 -12 -95v-210q0 -3 4 -1
q78 60 135 60q61 0 94 -43.5t33 -118.5q0 -139 1 -184q0 -19 15 -26q6 -3 48 -12q3 -2 1.5 -16t-5.5 -16q-54 3 -102 3q-55 0 -97 -3q-4 3 -4 16t4 16q36 7 39 8q12 3 15.5 12.5t4.5 38.5q3 151 -3 193q-4 26 -27 48.5t-66 22.5t-77 -26q-12 -9 -12 -24q0 -191 1 -219
q2 -25 6 -33.5t20 -13.5q1 0 15 -3t25 -4q4 -3 2.5 -15.5t-4.5 -16.5q-1 0 -36 1.5t-70 1.5q-31 0 -63.5 -1.5t-36.5 -1.5q-3 4 -3 17t3 15q20 3 37 9q13 4 17 12t5 29q2 48 2 165q0 305 -3 333q-2 23 -18 28q-11 3 -51 7z" />
    <glyph glyph-name="Hbar" unicode="&#x126;" horiz-adv-x="760" 
d="M31 29q47 8 55 10q20 6 26.5 20.5t8.5 50.5q0 10 0.5 81.5t0.5 121.5v100h-69q3 33 8 40h60q1 20 0.5 33.5t-1 28.5t-0.5 16q-2 22 -7.5 32t-20.5 14q-24 6 -62 10q-4 4 -3.5 17t4.5 15q10 0 55.5 -1.5t75.5 -1.5q38 0 78 1.5t51 1.5q3 -3 3 -16.5t-4 -14.5
q-32 -5 -50 -10q-15 -5 -20.5 -14t-6.5 -32q-2 -38 -2 -79h337q2 39 -1 91q-1 26 -21 32q-11 5 -60 12q-3 4 -3 16t3 16q8 0 53.5 -2t75.5 -2q29 0 76.5 1.5t50.5 1.5q2 -4 2.5 -15.5t-2.5 -15.5q-42 -5 -53 -11q-16 -7 -21.5 -17.5t-7.5 -36.5q0 -6 -0.5 -16.5t-1 -25.5
t-0.5 -27h71q3 -19 -6 -40h-64v-98q0 -196 2 -230q4 -37 29 -45q25 -7 66 -12q2 -3 0.5 -16t-5.5 -16q-13 0 -63 1.5t-76 1.5q-42 0 -129 -3q-2 3 -2.5 16t1.5 16q39 5 60 11q13 5 18.5 14t6.5 31q2 29 2 176q0 7 -8 7q-19 1 -158 1q-161 0 -168 -2q-4 0 -4 -5
q0 -126 2 -166q2 -28 8 -38.5t25 -15.5q22 -6 62 -13q2 -3 0 -16.5t-5 -15.5q-8 0 -57.5 1.5t-77.5 1.5q-38 0 -85.5 -1.5t-51.5 -1.5q-3 4 -2.5 17t2.5 15zM549 414l-338 -1v-81q2 -9 6 -10q24 -3 167 -3q153 1 157 2q2 0 5 2.5t3 4.5v86z" />
    <glyph glyph-name="hbar" unicode="&#x127;" horiz-adv-x="505" 
d="M19 29q20 3 37 9q13 4 17 12t5 29q2 48 2 165v245q-9 0 -32 -0.5t-33 -0.5q3 32 8 39q7 0 28 -0.5t29 -0.5q0 32 -2 50q-1 24 -19 30q-12 3 -52 7q-7 15 1 29q40 2 86 12t68 21q4 -1 7 -7t2 -9q-10 -17 -11 -70l-1 -63q19 0 75 1t57 1q3 -20 -5 -40q-7 0 -62 0.5t-66 0.5
l1 -135q0 -3 4 -1q78 60 135 60q61 0 94 -43.5t33 -118.5q0 -139 1 -183q0 -20 15 -27q10 -5 49 -12q2 -3 1 -16t-5 -16q-60 3 -108 3q-50 0 -92 -3q-3 4 -3.5 16.5t3.5 15.5q35 7 39 8q12 3 15.5 12.5t4.5 38.5q3 151 -3 193q-5 26 -27.5 48.5t-65.5 22.5q-41 0 -78 -26
q-11 -8 -11 -25q0 -204 1 -218q2 -25 6 -33.5t20 -13.5q25 -5 40 -7q2 -3 1.5 -15.5t-3.5 -16.5q-3 0 -43 1.5t-63 1.5q-28 0 -61 -1.5t-39 -1.5q-3 3 -3.5 16t3.5 16z" />
    <glyph glyph-name="uni0128" unicode="&#x128;" horiz-adv-x="332" 
d="M31 588q-3 3 -2.5 16t3.5 15q7 0 55 -1.5t77 -1.5q30 0 76 1.5t55 1.5q3 -3 3.5 -15t-3.5 -16q-44 -6 -53 -8q-17 -5 -22.5 -15.5t-6.5 -34.5q-3 -42 -3 -210q0 -175 3 -227q1 -24 8 -35.5t28 -17.5q24 -5 62 -11q3 -2 2 -16t-5 -16q-8 0 -57 1.5t-78 1.5q-33 0 -83 -1.5
t-60 -1.5q-4 2 -4 16t4 16q38 5 52 9q21 5 27.5 14.5t8.5 27.5q4 29 4 259q0 145 -2 192q-2 16 -3.5 23t-7 13.5t-15.5 8.5q-18 6 -63 12zM230 733q33 0 72 34q2 1 4 -5q6 -17 5 -24q-11 -20 -44.5 -41t-61.5 -21q-16 0 -69 17q-24 8 -39 8q-23 0 -63 -31q-1 -1 -5 4.5
t-6 12.5t0 8q10 15 43 39t53 24q23 0 63 -14q35 -11 48 -11z" />
    <glyph glyph-name="uni0129" unicode="&#x129;" horiz-adv-x="246" 
d="M230 29q2 -3 0.5 -16t-5.5 -16q-5 0 -38 1.5t-66 1.5q-25 0 -59.5 -1.5t-39.5 -1.5q-3 4 -3 16t2 16q27 4 44 10t18 34q2 25 2 142v97q0 13 -9 21q-9 11 -49 25q-3 4 -1 14t5 12q72 5 135 30v-177q0 -121 1 -166q0 -26 20 -33q15 -4 43 -9zM178 544q35 0 69 33
q1 1 3 -0.5t2 -3.5q1 -4 -1 -15.5t-4 -13.5q-11 -19 -39 -37.5t-53 -18.5q-20 0 -65 16q-22 8 -37 8q-26 0 -63 -32q-3 0 -6 5q-1 4 1 14.5t4 12.5q8 14 37 35t48 21q20 0 57 -13q33 -11 47 -11z" />
    <glyph glyph-name="uni012A" unicode="&#x12a;" horiz-adv-x="332" 
d="M31 588q-3 3 -2.5 16t3.5 15q7 0 55 -1.5t77 -1.5q30 0 76 1.5t55 1.5q3 -3 3.5 -15t-3.5 -16q-44 -6 -53 -8q-17 -5 -22.5 -15.5t-6.5 -34.5q-3 -42 -3 -210q0 -175 3 -227q1 -24 8 -35.5t28 -17.5q24 -5 62 -11q3 -2 2 -16t-5 -16q-8 0 -57 1.5t-78 1.5q-33 0 -83 -1.5
t-60 -1.5q-4 2 -4 16t4 16q38 5 52 9q21 5 27.5 14.5t8.5 27.5q4 29 4 259q0 145 -2 192q-2 16 -3.5 23t-7 13.5t-15.5 8.5q-18 6 -63 12zM58 748q20 -2 55 -2h76.5h74h28.5q0 -10 -7 -30.5t-10 -21.5q-16 -3 -198 -3l-37 2q0 1 18 55z" />
    <glyph glyph-name="uni012B" unicode="&#x12b;" horiz-adv-x="246" 
d="M230 29q2 -3 0.5 -16t-5.5 -16q-5 0 -38 1.5t-66 1.5q-25 0 -59.5 -1.5t-39.5 -1.5q-3 4 -3 16t2 16q27 4 44 10t18 34q2 25 2 142v97q0 13 -9 21q-9 11 -49 25q-3 4 -1 14t5 12q72 5 135 30v-177q0 -121 1 -166q0 -26 20 -33q15 -4 43 -9zM22 560q14 -2 47 -2h69h67.5
h26.5q0 -10 -6.5 -31t-9.5 -22q-9 -2 -179 -2q-26 0 -32 2q1 7 8 29.5t9 25.5z" />
    <glyph glyph-name="uni012C" unicode="&#x12c;" horiz-adv-x="332" 
d="M31 588q-3 3 -2.5 16t3.5 15q7 0 55 -1.5t77 -1.5q30 0 76 1.5t55 1.5q3 -3 3.5 -15t-3.5 -16q-44 -6 -53 -8q-17 -5 -22.5 -15.5t-6.5 -34.5q-3 -42 -3 -210q0 -175 3 -227q1 -24 8 -35.5t28 -17.5q24 -5 62 -11q3 -2 2 -16t-5 -16q-8 0 -57 1.5t-78 1.5q-33 0 -83 -1.5
t-60 -1.5q-4 2 -4 16t4 16q38 5 52 9q21 5 27.5 14.5t8.5 27.5q4 29 4 259q0 145 -2 192q-2 16 -3.5 23t-7 13.5t-15.5 8.5q-18 6 -63 12zM178 723q54 0 90 47q2 2 15 7.5t15 5.5t4.5 -2t1.5 -3q-15 -45 -55 -77.5t-94 -32.5q-48 0 -79.5 21t-31.5 53q0 7 8 21.5t16 20.5
q2 1 7.5 1t6.5 -2q20 -60 96 -60z" />
    <glyph glyph-name="uni012D" unicode="&#x12d;" horiz-adv-x="246" 
d="M230 29q2 -3 0.5 -16t-5.5 -16q-5 0 -38 1.5t-66 1.5q-25 0 -59.5 -1.5t-39.5 -1.5q-3 4 -3 16t2 16q27 4 44 10t18 34q2 25 2 142v97q0 13 -9 21q-9 11 -49 25q-3 4 -1 14t5 12q72 5 135 30v-177q0 -121 1 -166q0 -26 20 -33q15 -4 43 -9zM128 523q49 0 81 53q2 2 13 9
t13 7q7 0 7 -7q-10 -49 -47.5 -83.5t-88.5 -34.5q-41 0 -71 23t-30 59q0 9 9.5 22.5t20.5 20.5q2 1 6.5 1t5.5 -2q15 -68 81 -68z" />
    <glyph glyph-name="uni012E" unicode="&#x12e;" horiz-adv-x="332" 
d="M160 -221q-32 0 -55.5 20.5t-23.5 57.5q0 62 92 143q-33 0 -83 -1.5t-60 -1.5q-3 5 -3 17t3 15q38 5 52 9q20 4 27 13.5t9 28.5q4 29 4 259q0 145 -2 192q-2 15 -3.5 22t-7 14t-15.5 9q-18 6 -63 12q-3 5 -2 16.5t3 14.5q7 0 55 -1.5t77 -1.5q30 0 76 1.5t55 1.5
q2 -4 2 -15t-2 -16q-44 -6 -53 -8q-17 -5 -22.5 -15.5t-6.5 -34.5q-3 -42 -3 -210q0 -175 3 -227q1 -24 8 -35.5t28 -17.5q24 -5 62 -11q3 -4 1.5 -16t-4.5 -16l-95 3q-54 -63 -54 -115q0 -20 13 -31t32 -11q27 0 53 17q2 -4 2.5 -17.5t-1.5 -15.5q-19 -25 -47 -36.5
t-51 -11.5z" />
    <glyph glyph-name="uni012F" unicode="&#x12f;" horiz-adv-x="246" 
d="M111 -210q-31 0 -53 20t-22 55q0 57 88 135q-27 0 -62.5 -1.5t-39.5 -1.5q-3 4 -3 16t2 16q27 4 44 10t18 34q2 25 2 142v97q0 13 -9 21q-9 11 -49 25q-3 4 -1 14t5 12q72 5 135 30v-177q0 -121 1 -166q0 -26 20 -33q8 -2 48 -9q2 -3 0.5 -16t-5.5 -16q-7 0 -29.5 1.5
t-38.5 1.5q-52 -60 -52 -110q0 -19 12 -29t30 -10q28 0 51 16q2 -4 2.5 -17t-1.5 -15q-18 -23 -44.5 -34t-48.5 -11zM170 556q0 -35 -21 -51q-4 -3 -23.5 -4.5t-24.5 1.5q-21 11 -27 43q-1 5 0.5 16.5t4.5 14.5q21 19 51 19q21 0 30 -9q10 -10 10 -30z" />
    <glyph glyph-name="uni0130" unicode="&#x130;" horiz-adv-x="332" 
d="M31 588q-3 3 -2.5 16t3.5 15q7 0 55 -1.5t77 -1.5q30 0 76 1.5t55 1.5q3 -3 3.5 -15t-3.5 -16q-44 -6 -53 -8q-17 -5 -22.5 -15.5t-6.5 -34.5q-3 -42 -3 -210q0 -175 3 -227q1 -24 8 -35.5t28 -17.5q24 -5 62 -11q3 -2 2 -16t-5 -16q-8 0 -57 1.5t-78 1.5q-33 0 -83 -1.5
t-60 -1.5q-4 2 -4 16t4 16q38 5 52 9q21 5 27.5 14.5t8.5 27.5q4 29 4 259q0 145 -2 192q-2 16 -3.5 23t-7 13.5t-15.5 8.5q-18 6 -63 12zM216 730q0 -35 -22 -51q-3 -3 -22.5 -4.5t-24.5 1.5q-21 13 -27 43q-1 5 0.5 16.5t4.5 14.5q21 19 51 19q21 0 30 -9q10 -12 10 -30z
" />
    <glyph glyph-name="dotlessi" unicode="&#x131;" horiz-adv-x="246" 
d="M230 29q2 -3 0.5 -16t-5.5 -16q-5 0 -38 1.5t-66 1.5q-25 0 -59.5 -1.5t-39.5 -1.5q-3 4 -3 16t2 16q27 4 44 10t18 34q2 25 2 142v97q0 13 -9 21q-9 11 -49 25q-3 4 -1 14t5 12q72 5 135 30v-177q0 -121 1 -166q0 -26 20 -33q15 -4 43 -9z" />
    <glyph glyph-name="IJ" unicode="&#x132;" horiz-adv-x="662" 
d="M31 588q-3 3 -2.5 16t3.5 15q7 0 55 -1.5t77 -1.5q30 0 76 1.5t55 1.5q3 -3 3.5 -15t-3.5 -16q-44 -6 -53 -8q-17 -5 -22.5 -15.5t-6.5 -34.5q-3 -42 -3 -210q0 -175 3 -227q1 -24 8 -35.5t28 -17.5q24 -5 62 -11q3 -2 2 -16t-5 -16q-8 0 -57 1.5t-78 1.5q-33 0 -83 -1.5
t-60 -1.5q-4 2 -4 16t4 16q38 5 52 9q21 5 27.5 14.5t8.5 27.5q4 29 4 259q0 145 -2 192q-2 16 -3.5 23t-7 13.5t-15.5 8.5q-18 6 -63 12zM364 588q-4 4 -3 16.5t4 14.5q9 0 55 -1.5t90 -1.5q32 0 72 1.5t52 1.5q3 -2 3 -15.5t-4 -15.5q-35 -6 -54 -12t-22 -39
q0 -8 -1.5 -198.5t-3.5 -242.5q-5 -121 -38 -184q-37 -68 -91.5 -107t-105.5 -39q-26 0 -47.5 10t-29.5 24q0 1 -1 7.5t-1 7.5q8 43 21 68q25 -17 58 -30t54 -13q37 0 59 25q19 24 26 58t8 101q3 419 -3 497q-1 15 -2.5 24.5t-9 18t-20.5 12.5q-11 3 -65 12z" />
    <glyph glyph-name="ij" unicode="&#x133;" horiz-adv-x="493" 
d="M231 29q2 -3 0.5 -16t-5.5 -16q-5 0 -38.5 1.5t-66.5 1.5q-25 0 -59.5 -1.5t-39.5 -1.5q-4 2 -4.5 16t3.5 16q27 4 44 10t18 34q2 25 2 142v97q0 13 -9 21q-9 11 -49 25q-3 4 -1 14t5 12q72 5 135 30v-177q0 -121 1 -166q0 -26 20 -33q14 -4 44 -9zM170 556
q0 -35 -21 -51q-4 -3 -23.5 -4.5t-24.5 1.5q-21 11 -27 43q-1 6 0.5 17t4.5 14q21 19 51 19q21 0 30 -9q10 -10 10 -30zM418 560q0 -32 -19 -51q-4 -3 -26.5 -6t-26.5 0q-20 14 -25 42q-1 6 0 18t4 14q21 21 56 21q27 0 32 -11q5 -6 5 -27zM423 412q-3 -240 -3 -318
q-2 -86 -10 -127q-11 -66 -56 -130t-87 -89q-15 2 -31 14q-2 7 0 11q52 34 76.5 93.5t24.5 156.5q0 266 -3 291q-2 22 -19 28q-18 6 -54 11q-4 4 -3.5 16.5t4.5 15.5q106 6 161 27z" />
    <glyph glyph-name="uni0134" unicode="&#x134;" horiz-adv-x="330" 
d="M32 588q-4 4 -3 16.5t4 14.5q8 0 54.5 -1.5t90.5 -1.5q32 0 72 1.5t52 1.5q3 -2 3 -15.5t-4 -15.5q-35 -6 -54 -12t-22 -39q0 -8 -1.5 -198.5t-3.5 -242.5q-5 -121 -38 -184q-37 -68 -91.5 -107t-105.5 -39q-26 0 -47.5 10t-29.5 24q0 1 -1 7.5t-1 7.5q8 43 21 68
q25 -17 58 -30t54 -13q37 0 59 25q19 24 26 58t8 101q3 419 -3 497q-1 15 -2.5 24.5t-9 18t-20.5 12.5q-11 3 -65 12zM154 788q6 5 23 8q9 -10 60 -52t71 -57q0 -4 -7 -15t-10 -11q-5 0 -58 24t-64 31q-5 2 -10 0q-17 -10 -63.5 -32.5t-50.5 -22.5t-10.5 10.5t-5.5 15.5
q112 88 125 101z" />
    <glyph glyph-name="uni0135" unicode="&#x135;" horiz-adv-x="247" 
d="M177 412q-3 -240 -3 -318q-2 -86 -10 -127q-11 -66 -56 -130t-87 -89q-15 2 -31 14q-2 7 0 11q52 34 76.5 93.5t24.5 156.5q0 266 -3 291q-2 22 -19 28q-18 6 -54 11q-4 4 -3.5 16.5t4.5 15.5q106 6 161 27zM115 542q-13 -25 -32 -53.5t-25 -32.5q-19 -12 -38 -8
q-3 2 -3 5q68 110 90 160q1 3 14.5 7t17.5 4q11 -27 42.5 -85t44.5 -78q-2 -4 -17.5 -10t-23.5 -5q-12 3 -64 96q-2 2 -6 0z" />
    <glyph glyph-name="uni0136" unicode="&#x136;" horiz-adv-x="657" 
d="M210 324q0 -153 1 -223q2 -33 8 -44.5t26 -16.5q16 -4 58 -11q3 -2 2 -16t-5 -16q-14 0 -64.5 1.5t-78.5 1.5t-75.5 -1.5t-50.5 -1.5q-3 3 -3 16t3 16q33 5 57 10q19 5 24.5 16.5t7.5 41.5q2 44 2 226q0 172 -2 211q-1 22 -6.5 31t-24.5 14t-53 8q-4 4 -4 16t4 16
q6 0 48.5 -1.5t82.5 -1.5q31 0 72.5 1.5t52.5 1.5q2 -4 2 -15.5t-2 -15.5q-41 -7 -52 -10q-17 -5 -22 -15t-7 -36q-1 -44 -1 -203zM378 588q-3 3 -3 15t4 16q13 0 51 -1.5t68 -1.5q40 0 124 3q3 -2 3 -15t-4 -16q-46 -7 -70.5 -18.5t-53.5 -44.5q-23 -25 -180 -189v-5
q35 -50 118.5 -140.5t133.5 -129.5q25 -18 41 -22q29 -8 67 -10q3 -3 1.5 -16.5t-5.5 -15.5q-24 -3 -86.5 -0.5t-81.5 8.5q-20 8 -38 24q-33 30 -107 113t-118 139q-5 8 -20 17q-1 4 -0.5 10t2.5 8q32 12 94 75.5t114 127.5q18 24 18 39q0 13 -19 19q-15 4 -53 11zM380 -35
q18 0 35 -20.5t17 -53.5q0 -46 -32 -80t-88 -47q-3 1 -8 11.5t-4 14.5q69 28 69 69q0 37 -57 54q-2 2 -2 9t2 9q8 9 29.5 21.5t38.5 12.5z" />
    <glyph glyph-name="uni0137" unicode="&#x137;" horiz-adv-x="456" 
d="M231 367q-2 4 -1 16.5t5 15.5q121 0 197 8q2 -3 2 -16t-3 -17q-36 -6 -53 -12.5t-35 -25.5q-80 -82 -96 -98q-2 -4 0 -6q22 -34 74 -95.5t81 -85.5q16 -14 30.5 -17.5t44.5 -4.5q2 -2 0.5 -16t-5.5 -16q-9 -2 -100 -2q-22 0 -43 15q-15 12 -37 39t-54 69t-46 59
q-13 17 -35 17q0 -81 2 -121q0 -17 5 -24.5t19 -11.5l44 -8q2 -3 0 -16t-5 -16q-5 0 -40.5 1.5t-62.5 1.5q-34 0 -66.5 -1.5t-35.5 -1.5q-4 2 -4 16t4 16q6 1 19 3t19 4q21 6 22 33q3 47 3 204q0 288 -3 311q-2 21 -17 26q-16 5 -52 7q-2 4 -1.5 16t2.5 14q103 8 153 28
q6 -2 9 -12q-10 -18 -12 -88q-2 -79 -2 -357q23 5 46 23q26 21 54.5 55t33.5 48q2 12 -11 16q-19 5 -49 7zM270 -35q18 0 35 -20.5t17 -53.5q0 -46 -32 -80t-88 -47q-3 1 -8 11.5t-4 14.5q69 28 69 69q0 37 -57 54q-2 2 -2 9t2 9q8 9 29.5 21.5t38.5 12.5z" />
    <glyph glyph-name="uni0138" unicode="&#x138;" horiz-adv-x="463" 
d="M24 29l36 7q24 7 24 41q0 1 0.5 40.5t0.5 83v83.5v39q0 19 -16 25q-5 2 -46 13q-1 4 1 15.5t4 12.5q64 5 140 23q-5 -35 -5 -66v-137q35 8 91 64.5t56 72.5q0 10 -13 14q-25 6 -39 7q-4 4 -4 16.5t4 15.5q71 -1 181 5q4 -3 4 -15.5t-4 -15.5q-49 -9 -76 -35
q-66 -69 -113 -113q-2 -4 -1 -6q30 -42 74 -93t69 -72q24 -20 95 -25q2 -4 0 -16.5t-6 -15.5q-25 -5 -97 -5q-45 0 -68 26q-37 39 -125 153q-11 11 -28 11q0 -18 0.5 -54.5t0.5 -51.5q0 -20 5 -28t22 -12q6 -2 38 -6q3 -4 1 -17t-5 -16q-2 0 -36.5 1.5t-69.5 1.5
q-33 0 -63 -1.5t-32 -1.5q-4 2 -3.5 16t3.5 16z" />
    <glyph glyph-name="uni0139" unicode="&#x139;" horiz-adv-x="562" 
d="M32 588q-3 4 -2 16.5t5 14.5q10 0 51.5 -1.5t80.5 -1.5q42 0 83 1.5t45 1.5q4 -3 4 -15t-4 -16q-29 -4 -53 -10q-12 -3 -18 -9t-7.5 -12t-2.5 -18q-3 -56 -3 -213q0 -206 3 -248q1 -10 7.5 -18t12.5 -10q30 -10 165 -7q35 0 61 38q31 44 59 111q6 2 18 -3t15 -10
q-6 -34 -23.5 -92t-29.5 -79q-7 -13 -42 -13t-150.5 2.5t-139.5 2.5q-28 0 -85.5 -1.5t-63.5 -1.5q-4 2 -4 16t3 16q52 6 70 11q17 4 23 13t8 26q4 36 4 250q0 166 -1 192q-2 31 -7.5 42t-25.5 15q-9 3 -56 10zM252 804q10 0 32.5 -14t30.5 -24q1 -2 1 -7t-1 -7
q-11 -11 -87.5 -53.5t-83.5 -42.5q-2 0 -10 11t-7 13q11 14 62.5 66t62.5 58z" />
    <glyph glyph-name="uni013A" unicode="&#x13a;" horiz-adv-x="239" 
d="M16 -3q-3 4 -3 15.5t3 16.5q38 8 44 10q14 8 16 28q4 30 4 263q0 207 -2 239q-3 28 -16 32q-12 4 -54 9q-4 2 -3.5 13.5t4.5 13.5q88 9 152 38q8 -3 8 -11q-9 -23 -9 -80q-1 -50 -1 -251q0 -223 2 -250q1 -21 5.5 -31t17.5 -14q21 -6 42 -9q2 -3 0.5 -15.5t-5.5 -16.5
q-5 0 -38.5 1.5t-66.5 1.5q-23 0 -60 -1.5t-40 -1.5zM186 839q10 0 32.5 -14t30.5 -24q1 -2 1 -7.5t-1 -6.5q-11 -11 -87.5 -53.5t-83.5 -42.5q-2 0 -10 11t-7 13q11 14 62.5 66t62.5 58z" />
    <glyph glyph-name="uni013B" unicode="&#x13b;" horiz-adv-x="562" 
d="M32 588q-3 4 -2 16.5t5 14.5q10 0 51.5 -1.5t80.5 -1.5q42 0 83 1.5t45 1.5q4 -3 4 -15t-4 -16q-29 -4 -53 -10q-12 -3 -18 -9t-7.5 -12t-2.5 -18q-3 -56 -3 -213q0 -206 3 -248q1 -10 7.5 -18t12.5 -10q30 -10 165 -7q35 0 61 38q31 44 59 111q6 2 18 -3t15 -10
q-6 -34 -23.5 -92t-29.5 -79q-7 -13 -42 -13t-150.5 2.5t-139.5 2.5q-28 0 -85.5 -1.5t-63.5 -1.5q-4 2 -4 16t3 16q52 6 70 11q17 4 23 13t8 26q4 36 4 250q0 166 -1 192q-2 31 -7.5 42t-25.5 15q-9 3 -56 10zM294 -38q18 0 35 -20.5t17 -53.5q0 -46 -32 -80t-88 -47
q-3 1 -8 11.5t-4 14.5q69 28 69 69q0 37 -57 54q-2 2 -2 9t2 9q8 9 29.5 21.5t38.5 12.5z" />
    <glyph glyph-name="uni013C" unicode="&#x13c;" horiz-adv-x="239" 
d="M16 -3q-3 4 -3 15.5t3 16.5q38 8 44 10q14 8 16 28q4 30 4 263q0 207 -2 239q-3 28 -16 32q-12 4 -54 9q-4 2 -3.5 13.5t4.5 13.5q88 9 152 38q8 -3 8 -11q-9 -23 -9 -80q-1 -50 -1 -251q0 -223 2 -250q1 -21 5.5 -31t17.5 -14q21 -6 42 -9q2 -3 0.5 -15.5t-5.5 -16.5
q-5 0 -38.5 1.5t-66.5 1.5q-23 0 -60 -1.5t-40 -1.5zM124 -33q18 0 35 -20.5t17 -53.5q0 -46 -32 -80t-88 -47q-3 1 -8 11.5t-4 14.5q69 28 69 69q0 37 -57 54q-2 2 -2 9t2 9q8 9 29.5 21.5t38.5 12.5z" />
    <glyph glyph-name="uni013D" unicode="&#x13d;" horiz-adv-x="562" 
d="M32 588q-3 4 -2 16.5t5 14.5q10 0 51.5 -1.5t80.5 -1.5q42 0 83 1.5t45 1.5q4 -3 4 -15t-4 -16q-29 -4 -53 -10q-12 -3 -18 -9t-7.5 -12t-2.5 -18q-3 -56 -3 -213q0 -206 3 -248q1 -10 7.5 -18t12.5 -10q30 -10 165 -7q35 0 61 38q31 44 59 111q6 2 18 -3t15 -10
q-6 -34 -23.5 -92t-29.5 -79q-7 -13 -42 -13t-150.5 2.5t-139.5 2.5q-28 0 -85.5 -1.5t-63.5 -1.5q-4 2 -4 16t3 16q52 6 70 11q17 4 23 13t8 26q4 36 4 250q0 166 -1 192q-2 31 -7.5 42t-25.5 15q-9 3 -56 10zM447 651q6 0 6 -13q0 -28 -6.5 -87.5t-14.5 -85.5
q-6 -21 -35 -39q-2 -1 -5 2t-3 4q0 91 -11 172q0 5 3 8q6 8 31.5 23.5t34.5 15.5z" />
    <glyph glyph-name="uni013E" unicode="&#x13e;" horiz-adv-x="239" 
d="M16 -3q-3 4 -3 15.5t3 16.5q38 8 44 10q14 8 16 28q4 30 4 263q0 207 -2 239q-3 28 -16 32q-12 4 -54 9q-4 2 -3.5 13.5t4.5 13.5q88 9 152 38q8 -3 8 -11q-9 -23 -9 -80q-1 -50 -1 -251q0 -223 2 -250q1 -21 5.5 -31t17.5 -14q21 -6 42 -9q2 -3 0.5 -15.5t-5.5 -16.5
q-5 0 -38.5 1.5t-66.5 1.5q-23 0 -60 -1.5t-40 -1.5zM279 682q6 0 6 -13q0 -28 -6.5 -87.5t-14.5 -85.5q-6 -21 -35 -39q-2 -1 -5 2t-3 4q0 91 -11 172q0 5 3 8q6 8 31.5 23.5t34.5 15.5z" />
    <glyph glyph-name="Ldot" unicode="&#x13f;" horiz-adv-x="562" 
d="M32 588q-3 4 -2 16.5t5 14.5q10 0 51.5 -1.5t80.5 -1.5q42 0 83 1.5t45 1.5q4 -3 4 -15t-4 -16q-29 -4 -53 -10q-12 -3 -18 -9t-7.5 -12t-2.5 -18q-3 -56 -3 -213q0 -206 3 -248q1 -10 7.5 -18t12.5 -10q30 -10 165 -7q35 0 61 38q31 44 59 111q6 2 18 -3t15 -10
q-6 -34 -23.5 -92t-29.5 -79q-7 -13 -42 -13t-150.5 2.5t-139.5 2.5q-28 0 -85.5 -1.5t-63.5 -1.5q-4 2 -4 16t3 16q52 6 70 11q17 4 23 13t8 26q4 36 4 250q0 166 -1 192q-2 31 -7.5 42t-25.5 15q-9 3 -56 10zM464 353q0 -35 -22 -51q-3 -3 -22.5 -4.5t-24.5 1.5
q-21 13 -27 43q-1 5 0.5 16.5t4.5 14.5q21 19 51 19q21 0 30 -9q10 -12 10 -30z" />
    <glyph glyph-name="ldot" unicode="&#x140;" horiz-adv-x="239" 
d="M286 364q0 -35 -21 -51q-4 -3 -22.5 -4t-23.5 2q-21 11 -25 42q-1 5 0.5 17.5t4.5 15.5q16 18 48 18q20 0 30 -10q9 -11 9 -30zM16 -3q-3 4 -3 15.5t3 16.5q38 8 44 10q14 8 16 28q4 30 4 263q0 207 -2 239q-3 28 -16 32q-12 4 -54 9q-4 2 -3.5 13.5t4.5 13.5
q88 9 152 38q8 -3 8 -11q-9 -23 -9 -80q-1 -50 -1 -251q0 -223 2 -250q1 -21 5.5 -31t17.5 -14q21 -6 42 -9q2 -3 0.5 -15.5t-5.5 -16.5q-5 0 -38.5 1.5t-66.5 1.5q-23 0 -60 -1.5t-40 -1.5z" />
    <glyph glyph-name="Lslash" unicode="&#x141;" horiz-adv-x="562" 
d="M17 29q52 6 70 11q17 4 23 13t8 26q2 23 4 176q-37 -15 -78 -34q-2 1 -4.5 20.5t-1.5 22.5l84 34v31q0 166 -1 192q-2 31 -7.5 42t-25.5 15q-9 3 -56 10q-3 4 -2 16.5t5 14.5q10 0 51.5 -1.5t80.5 -1.5q42 0 83 1.5t45 1.5q4 -3 4 -15t-4 -16q-29 -4 -53 -10
q-12 -3 -18 -9t-7.5 -12t-2.5 -18q-3 -52 -3 -203l155 66q2 -1 4 -20t1 -23l-160 -67q0 -175 3 -214q1 -10 7.5 -18t12.5 -10q29 -10 166 -7q34 0 60 37q27 39 59 112q6 2 18 -3t15 -10q-6 -34 -23 -91.5t-30 -79.5q-7 -13 -42 -13t-150.5 2.5t-139.5 2.5q-28 0 -85.5 -1.5
t-63.5 -1.5q-4 2 -4 16t3 16z" />
    <glyph glyph-name="lslash" unicode="&#x142;" horiz-adv-x="249" 
d="M246 400l-77 -40q0 -250 2 -277q1 -21 5 -30t18 -14q20 -6 50 -10q2 -4 0 -16t-6 -16q-7 0 -43 1.5t-70 1.5q-29 0 -64 -1.5t-39 -1.5q-2 4 -2 16.5t3 15.5q46 10 47 10q14 8 16 30q2 28 2 252l-65 -33q-2 3 -2.5 18.5t2.5 17.5q5 2 30.5 15.5t36.5 18.5q0 179 -3 211
q0 27 -16 32q-15 4 -53 9q-3 3 -2.5 13.5t2.5 13.5q88 9 153 38q7 -3 7 -10q-8 -25 -9 -81v-187l74 37q2 -2 3 -16.5t0 -17.5z" />
    <glyph glyph-name="uni0143" unicode="&#x143;" horiz-adv-x="745" 
d="M17 587q-3 3 -2.5 16t4.5 16q9 0 55 -1.5t77 -1.5q38 0 45 1q6 -15 36 -54q167 -212 350 -428q1 -1 3 2q0 341 -3 385q-2 24 -9.5 35.5t-29.5 17.5q-26 7 -69 13q-4 3 -3.5 16t3.5 15q8 0 54 -1.5t84 -1.5q20 0 62.5 1.5t46.5 1.5q4 -3 4 -15.5t-4 -15.5q-33 -7 -45 -11
q-19 -6 -26 -18.5t-9 -35.5q-3 -46 -8 -390q0 -72 2 -138q-24 4 -72 0q-57 81 -384 490q-3 2 -5 0q-3 -315 2 -387q1 -27 10.5 -40t30.5 -18q8 -3 62 -11q3 -4 2 -16.5t-4 -15.5q-9 0 -52.5 1.5t-76.5 1.5q-37 0 -78 -1.5t-47 -1.5q-3 2 -3 16t3 16q36 5 55 11q18 6 27.5 18
t11.5 38q4 72 9 421q0 37 -29 50q-25 14 -80 20zM449 798q10 0 32.5 -14t30.5 -24q2 -2 2 -7t-2 -7q-11 -11 -87.5 -53.5t-83.5 -42.5q-2 0 -10 11t-7 13q11 14 62.5 66t62.5 58z" />
    <glyph glyph-name="uni0144" unicode="&#x144;" horiz-adv-x="510" 
d="M25 29q23 3 36 8q20 4 22 33q2 30 2 164q0 20 -0.5 45.5t-0.5 32.5q-4 19 -54 40q-2 5 0 14t6 11q29 3 67 14.5t58 22.5q5 -5 5 -7q-2 -20 -2 -57q0 -1 2 -2t3 0q78 65 136 65q61 0 98 -53q27 -43 27 -119q0 -146 1 -180q0 -13 9 -17q16 -8 53 -15q3 -3 1.5 -15.5
t-5.5 -16.5q-2 0 -34.5 1.5t-63.5 1.5q-25 0 -57.5 -1.5t-41.5 -1.5q-3 4 -3.5 16.5t3.5 15.5q23 2 40 8q10 3 13.5 12t4.5 32q0 161 -3 189q-4 38 -28 58q-24 22 -62 22q-47 0 -83 -31q-10 -10 -10 -35q0 -168 2 -214q1 -28 20 -33q21 -6 41 -7q2 -4 1.5 -16.5t-4.5 -16.5
q-2 0 -34.5 1.5t-65.5 1.5q-27 0 -62 -1.5t-37 -1.5q-3 4 -3 16.5t3 15.5zM286 615q8 4 40.5 7t39.5 1q5 -3 5 -11q-10 -19 -56.5 -80.5t-67.5 -86.5q-4 -1 -14 6t-12 11q55 135 65 153z" />
    <glyph glyph-name="uni0145" unicode="&#x145;" horiz-adv-x="745" 
d="M17 587q-3 3 -2.5 16t4.5 16q9 0 55 -1.5t77 -1.5q38 0 45 1q6 -15 36 -54q167 -212 350 -428q1 -1 3 2q0 341 -3 385q-2 24 -9.5 35.5t-29.5 17.5q-26 7 -69 13q-4 3 -3.5 16t3.5 15q8 0 54 -1.5t84 -1.5q20 0 62.5 1.5t46.5 1.5q4 -3 4 -15.5t-4 -15.5q-33 -7 -45 -11
q-19 -6 -26 -18.5t-9 -35.5q-3 -46 -8 -390q0 -72 2 -138q-24 4 -72 0q-57 81 -384 490q-3 2 -5 0q-3 -315 2 -387q1 -27 10.5 -40t30.5 -18q8 -3 62 -11q3 -4 2 -16.5t-4 -15.5q-9 0 -52.5 1.5t-76.5 1.5q-37 0 -78 -1.5t-47 -1.5q-3 2 -3 16t3 16q36 5 55 11q18 6 27.5 18
t11.5 38q4 72 9 421q0 37 -29 50q-25 14 -80 20zM400 -33q18 0 35 -20.5t17 -53.5q0 -46 -32 -80t-88 -47q-3 1 -8 11.5t-4 14.5q69 28 69 69q0 37 -57 54q-2 2 -2 9t2 9q8 9 29.5 21.5t38.5 12.5z" />
    <glyph glyph-name="uni0146" unicode="&#x146;" horiz-adv-x="510" 
d="M25 29q23 3 36 8q20 4 22 33q2 30 2 164q0 20 -0.5 45.5t-0.5 32.5q-4 19 -54 40q-2 5 0 14t6 11q29 3 67 14.5t58 22.5q5 -5 5 -7q-2 -20 -2 -57q0 -1 2 -2t3 0q78 65 136 65q61 0 98 -53q27 -43 27 -119q0 -146 1 -180q0 -13 9 -17q16 -8 53 -15q3 -3 1.5 -15.5
t-5.5 -16.5q-2 0 -34.5 1.5t-63.5 1.5q-25 0 -57.5 -1.5t-41.5 -1.5q-3 4 -3.5 16.5t3.5 15.5q23 2 40 8q10 3 13.5 12t4.5 32q0 161 -3 189q-4 38 -28 58q-24 22 -62 22q-47 0 -83 -31q-10 -10 -10 -35q0 -168 2 -214q1 -28 20 -33q21 -6 41 -7q2 -4 1.5 -16.5t-4.5 -16.5
q-2 0 -34.5 1.5t-65.5 1.5q-27 0 -62 -1.5t-37 -1.5q-3 4 -3 16.5t3 15.5zM267 -36q18 0 35 -20.5t17 -53.5q0 -46 -32 -80t-88 -47q-3 1 -8 11.5t-4 14.5q69 28 69 69q0 37 -57 54q-2 2 -2 9t2 9q8 9 29.5 21.5t38.5 12.5z" />
    <glyph glyph-name="uni0147" unicode="&#x147;" horiz-adv-x="745" 
d="M17 587q-3 3 -2.5 16t4.5 16q9 0 55 -1.5t77 -1.5q38 0 45 1q6 -15 36 -54q167 -212 350 -428q1 -1 3 2q0 341 -3 385q-2 24 -9.5 35.5t-29.5 17.5q-26 7 -69 13q-4 3 -3.5 16t3.5 15q8 0 54 -1.5t84 -1.5q20 0 62.5 1.5t46.5 1.5q4 -3 4 -15.5t-4 -15.5q-33 -7 -45 -11
q-19 -6 -26 -18.5t-9 -35.5q-3 -46 -8 -390q0 -72 2 -138q-24 4 -72 0q-57 81 -384 490q-3 2 -5 0q-3 -315 2 -387q1 -27 10.5 -40t30.5 -18q8 -3 62 -11q3 -4 2 -16.5t-4 -15.5q-9 0 -52.5 1.5t-76.5 1.5q-37 0 -78 -1.5t-47 -1.5q-3 2 -3 16t3 16q36 5 55 11q18 6 27.5 18
t11.5 38q4 72 9 421q0 37 -29 50q-25 14 -80 20zM388 663q-6 -5 -23 -8q-27 29 -131 109q0 4 7 15t10 11q5 0 58 -24t64 -31q7 -2 10 0q18 10 63.5 32.5t49.5 22.5t11 -10.5t5 -15.5q-7 -6 -37.5 -30t-54.5 -43.5t-32 -27.5z" />
    <glyph glyph-name="uni0148" unicode="&#x148;" horiz-adv-x="510" 
d="M25 29q23 3 36 8q20 4 22 33q2 30 2 164q0 20 -0.5 45.5t-0.5 32.5q-4 19 -54 40q-2 5 0 14t6 11q29 3 67 14.5t58 22.5q5 -5 5 -7q-2 -20 -2 -57q0 -1 2 -2t3 0q78 65 136 65q61 0 98 -53q27 -43 27 -119q0 -146 1 -180q0 -13 9 -17q16 -8 53 -15q3 -3 1.5 -15.5
t-5.5 -16.5q-2 0 -34.5 1.5t-63.5 1.5q-25 0 -57.5 -1.5t-41.5 -1.5q-3 4 -3.5 16.5t3.5 15.5q23 2 40 8q10 3 13.5 12t4.5 32q0 161 -3 189q-4 38 -28 58q-24 22 -62 22q-47 0 -83 -31q-10 -10 -10 -35q0 -168 2 -214q1 -28 20 -33q21 -6 41 -7q2 -4 1.5 -16.5t-4.5 -16.5
q-2 0 -34.5 1.5t-65.5 1.5q-27 0 -62 -1.5t-37 -1.5q-3 4 -3 16.5t3 15.5zM264 528q14 25 33.5 54t25.5 33q21 11 38 7q3 -2 3 -5q-67 -108 -91 -160q-1 -2 -15 -6.5t-16 -3.5q-11 27 -43.5 85t-45.5 77q2 4 18 10t23 5q12 -2 65 -96q3 -2 5 0z" />
    <glyph glyph-name="uni0149" unicode="&#x149;" horiz-adv-x="510" 
d="M25 29q23 3 36 8q20 4 22 33q2 30 2 164q0 20 -0.5 45.5t-0.5 32.5q-4 19 -54 40q-2 5 0 14t6 11q29 3 67 14.5t58 22.5q5 -5 5 -7q-2 -20 -2 -57q0 -1 2 -2t3 0q78 65 136 65q61 0 98 -53q27 -43 27 -119q0 -146 1 -180q0 -13 9 -17q16 -8 53 -15q3 -3 1.5 -15.5
t-5.5 -16.5q-2 0 -34.5 1.5t-63.5 1.5q-25 0 -57.5 -1.5t-41.5 -1.5q-3 4 -3.5 16.5t3.5 15.5q23 2 40 8q10 3 13.5 12t4.5 32q0 161 -3 189q-4 38 -28 58q-24 22 -62 22q-47 0 -83 -31q-10 -10 -10 -35q0 -168 2 -214q1 -28 20 -33q21 -6 41 -7q2 -4 1.5 -16.5t-4.5 -16.5
q-2 0 -34.5 1.5t-65.5 1.5q-27 0 -62 -1.5t-37 -1.5q-3 4 -3 16.5t3 15.5zM115 626q22 0 42.5 -20.5t20.5 -56.5q0 -39 -29.5 -66.5t-79.5 -37.5q-3 1 -6.5 10.5t-3.5 14.5q36 14 49 27t13 31q0 33 -60 45q-6 6 0 16q7 12 24.5 24.5t29.5 12.5z" />
    <glyph glyph-name="Eng" unicode="&#x14a;" horiz-adv-x="745" 
d="M23 29q38 5 56 11q34 11 38 56q6 108 9 423q0 35 -29 48q-25 14 -80 20q-3 2 -2.5 16t4.5 16q11 0 58.5 -1.5t74.5 -1.5q37 0 45 1q4 -14 35 -54q210 -265 350 -427q2 0 3 1q0 342 -3 385q-2 25 -9.5 36t-29.5 17q-25 7 -68 13q-4 2 -4 15t4 16q10 0 57.5 -1.5t83.5 -1.5
q17 0 58.5 1.5t46.5 1.5q4 -3 4 -16t-4 -15q-33 -7 -45 -11q-19 -6 -26 -18.5t-9 -35.5q-6 -90 -8 -389q-2 -102 -2 -104q0 -120 -34 -195.5t-106 -75.5q-37 0 -47 18q-6 10 -8 35t2 38q3 6 9 6q27 -15 67 -15q33 0 47.5 24.5t14.5 81.5q0 30 -20 58q-26 37 -377 481
q-1 1 -3 0.5t-2 -1.5q-3 -318 2 -390q3 -46 40 -55q13 -3 62 -11q3 -2 3 -16t-4 -16q-17 0 -59 1.5t-70 1.5q-36 0 -75.5 -1.5t-49.5 -1.5q-4 2 -3.5 16t3.5 16z" />
    <glyph glyph-name="eng" unicode="&#x14b;" horiz-adv-x="503" 
d="M25 29q23 3 36 8q20 4 22 33q2 30 2 162q0 21 -0.5 47t-0.5 33q-4 20 -55 40q0 18 7 25q29 3 67 14.5t58 22.5l5 -7q-2 -20 -2 -57q0 -1 2 -2t3 0q78 65 136 65q61 0 97 -52q28 -42 28 -129q0 -132 -1 -175q-5 -166 -66 -252q-53 -68 -107 -68q-28 0 -43 17q-3 9 0 36
t6 35q38 -23 73 -23q25 0 38.5 19.5t16.5 74.5q3 75 3 159q2 130 -6 205q-3 46 -27 68t-60 22q-47 0 -83 -31q-10 -8 -10 -35q0 -175 2 -214q1 -28 20 -33q17 -4 43 -8q2 -3 1 -16.5t-5 -15.5q-3 0 -37 1.5t-64 1.5q-24 0 -59.5 -1.5t-39.5 -1.5q-3 3 -3 16.5t3 15.5z" />
    <glyph glyph-name="uni014C" unicode="&#x14c;" horiz-adv-x="753" 
d="M371 -18q-143 0 -228 91q-87 94 -87 241q0 110 64 194q41 56 115.5 91t153.5 35q146 0 227 -91t81 -221q0 -124 -62 -209q-46 -64 -116.5 -97.5t-147.5 -33.5zM409 30q66 0 105 34q84 66 84 222q0 85 -29 156t-86 110q-56 39 -130 39q-49 0 -88 -22q-52 -30 -79 -91.5
t-27 -140.5q0 -85 32.5 -160t94.5 -115q51 -32 123 -32zM269 751q20 -2 55 -2h76.5h74h28.5q0 -10 -7 -30.5t-10 -21.5q-16 -3 -198 -3l-37 2q0 1 18 55z" />
    <glyph glyph-name="uni014D" unicode="&#x14d;" horiz-adv-x="500" 
d="M264 413q88 0 140.5 -58t52.5 -145q0 -125 -93 -185q-58 -37 -118 -37q-103 0 -152.5 63.5t-49.5 152.5q0 108 87 168q62 41 133 41zM230 370q-28 0 -47 -13q-52 -34 -52 -128q0 -87 39.5 -142t99.5 -55q37 0 61 21q38 35 38 124q0 87 -38.5 140t-100.5 53zM154 560
q14 -2 47 -2h163q0 -10 -6.5 -31t-9.5 -22q-9 -2 -179 -2q-26 0 -32 2q1 7 8 29.5t9 25.5z" />
    <glyph glyph-name="uni014E" unicode="&#x14e;" horiz-adv-x="753" 
d="M371 -18q-143 0 -228 91q-87 94 -87 241q0 110 64 194q41 56 115.5 91t153.5 35q146 0 227 -91t81 -221q0 -124 -62 -209q-46 -64 -116.5 -97.5t-147.5 -33.5zM409 30q66 0 105 34q84 66 84 222q0 85 -29 156t-86 110q-56 39 -130 39q-49 0 -88 -22q-52 -30 -79 -91.5
t-27 -140.5q0 -85 32.5 -160t94.5 -115q51 -32 123 -32zM384 731q54 0 90 47q2 2 15 7.5t15 5.5t4.5 -2t1.5 -3q-15 -45 -55 -77.5t-94 -32.5q-48 0 -79.5 21t-31.5 53q0 7 8 21.5t16 20.5q2 1 7.5 1t6.5 -2q20 -60 96 -60z" />
    <glyph glyph-name="uni014F" unicode="&#x14f;" horiz-adv-x="500" 
d="M264 413q88 0 140.5 -58t52.5 -145q0 -125 -93 -185q-58 -37 -118 -37q-103 0 -152.5 63.5t-49.5 152.5q0 108 87 168q62 41 133 41zM230 370q-28 0 -47 -13q-52 -34 -52 -128q0 -87 39.5 -142t99.5 -55q37 0 61 21q38 35 38 124q0 87 -38.5 140t-100.5 53zM259 523
q49 0 81 53q2 2 13 9t13 7q7 0 7 -7q-10 -49 -47.5 -83.5t-88.5 -34.5q-41 0 -71 23t-30 59q0 9 9.5 22.5t20.5 20.5q2 1 6.5 1t5.5 -2q15 -68 81 -68z" />
    <glyph glyph-name="uni0150" unicode="&#x150;" horiz-adv-x="753" 
d="M371 -18q-143 0 -228 91q-87 94 -87 241q0 110 64 194q41 56 115.5 91t153.5 35q146 0 227 -91t81 -221q0 -124 -62 -209q-46 -64 -116.5 -97.5t-147.5 -33.5zM409 30q66 0 105 34q84 66 84 222q0 85 -29 156t-86 110q-56 39 -130 39q-49 0 -88 -22q-52 -30 -79 -91.5
t-27 -140.5q0 -85 32.5 -160t94.5 -115q51 -32 123 -32zM322 787q7 4 37.5 8t38.5 2q2 0 4 -5t1 -7q-5 -12 -38 -60t-45 -61q-3 -1 -16.5 3t-14.5 7q5 14 17.5 58.5t15.5 54.5zM456 800q9 4 39 7.5t40 1.5q2 -1 4 -5.5t1 -6.5q-4 -12 -40 -63t-50 -66q-4 -2 -16.5 2.5
t-14.5 7.5q30 102 37 122z" />
    <glyph glyph-name="uni0151" unicode="&#x151;" horiz-adv-x="500" 
d="M264 413q88 0 140.5 -58t52.5 -145q0 -125 -93 -185q-58 -37 -118 -37q-103 0 -152.5 63.5t-49.5 152.5q0 108 87 168q62 41 133 41zM230 370q-28 0 -47 -13q-52 -34 -52 -128q0 -87 39.5 -142t99.5 -55q37 0 61 21q38 35 38 124q0 87 -38.5 140t-100.5 53zM205 607
q8 3 32.5 5.5t33.5 0.5q6 -3 3 -11q-8 -19 -39 -73t-46 -77q-4 -1 -15 1.5t-12 5.5l14 49t17.5 61.5t11.5 37.5zM334 618q9 3 31.5 4t31.5 -2q3 -2 3 -10q-10 -21 -42 -77.5t-45 -74.5q-3 -2 -14 0.5t-12 5.5q5 15 15 50t19 63.5t13 40.5z" />
    <glyph glyph-name="OE" unicode="&#x152;" horiz-adv-x="1027" 
d="M903 -4q-260 4 -394 4l-35 -5q-51 -13 -103 -13q-142 0 -227 90q-88 92 -88 241q0 110 65 196q41 56 113.5 90.5t152.5 34.5q43 0 93 -10q38 -7 53 -7h297q91 0 113 3l4 -3q-13 -46 -17 -143q-4 -4 -17.5 -5t-18.5 2q-3 26 -12 63q-7 19 -18 27t-34 10q-14 1 -119.5 1.5
t-117.5 -0.5q-6 -3 -1 -6q96 -79 104 -223q0 -5 4 -5q91 0 128 2q23 1 33 30q9 27 12 42q5 3 20 2t17 -5q-6 -63 -6 -100q0 -41 2 -93q-6 -4 -19 -3.5t-19 3.5q-6 30 -10 42q-8 29 -34 30q-58 2 -124 2q-5 0 -5 -7q-3 -58 -32 -120.5t-78 -103.5q-7 -7 3 -9q83 -7 257 -7
q49 0 73 37q26 35 49 90q5 0 18.5 -4.5t16.5 -8.5q-11 -59 -38 -131q-7 -20 -18 -25t-43 -5zM409 30q64 0 105 33q85 67 85 225q0 85 -29 155t-86 109q-56 39 -130 39q-49 0 -88 -22q-52 -30 -79.5 -92t-27.5 -141q0 -85 32.5 -159.5t94.5 -114.5q51 -32 123 -32z" />
    <glyph glyph-name="oe" unicode="&#x153;" horiz-adv-x="753" 
d="M230 371q-29 0 -49 -14q-50 -31 -50 -128q0 -88 40 -143t99 -55q40 0 61 20q41 36 41 136q0 81 -40 132.5t-102 51.5zM413 54q-5 3 -10 0q-71 -66 -156 -66q-71 0 -118.5 33t-66.5 80t-19 103q0 107 88 168q64 41 134 41q90 -3 144 -64q4 -4 8 0q68 64 144 64
q62 0 95.5 -39.5t42.5 -80.5q0 -2 4.5 -6.5t11.5 -6.5q0 -16 -8 -24q-8 -4 -103.5 -18t-144.5 -19q-8 0 -8 -11q3 -73 41 -111q39 -40 108 -40q59 0 116 42q2 -4 2 -16t-2 -16q-33 -34 -80 -56.5t-87 -22.5q-80 0 -136 66zM533 375q-35 0 -58 -30t-25 -83q0 -7 6 -7
q111 8 158 21q5 5 5 12q-5 32 -28 59.5t-58 27.5z" />
    <glyph glyph-name="uni0154" unicode="&#x154;" horiz-adv-x="623" 
d="M31 588q-3 4 -2 17t5 14q11 0 56.5 -1.5t61.5 -1.5q43 0 99 1t70 1q85 0 133.5 -44.5t48.5 -110.5q0 -111 -113 -161q-4 -4 -2 -8q29 -46 77.5 -111t83.5 -100q29 -31 48 -39.5t69 -15.5q3 -3 0.5 -17t-6.5 -15q-115 -5 -165 19q-26 14 -49 42q-17 20 -41 54.5t-53 79
t-41 61.5q-10 14 -25 14q-7 1 -72 1q-5 0 -5 -5q0 -115 2 -177q2 -23 9 -32.5t25 -13.5q8 -2 58 -10q3 -2 2 -15.5t-5 -16.5q-4 0 -49.5 1.5t-87.5 1.5q-39 0 -82.5 -1.5t-47.5 -1.5q-4 4 -4.5 16.5t3.5 15.5q42 6 52 8q18 5 26 16t9 39q3 66 3 211q0 201 -2 229
q-1 22 -7.5 32t-25.5 14q-12 4 -56 10zM255 581q-24 0 -36 -6q-7 -3 -7 -14q-3 -35 -3 -245q0 -6 5 -6q108 -1 132 10q63 29 63 112q0 149 -154 149zM355 805q10 0 32.5 -14t30.5 -24q2 -2 2 -7.5t-2 -6.5q-11 -11 -87.5 -53.5t-83.5 -42.5q-2 0 -10 11t-7 13q11 14 62.5 66
t62.5 58z" />
    <glyph glyph-name="uni0155" unicode="&#x155;" horiz-adv-x="332" 
d="M283 413q34 0 48 -23q2 -7 0 -16q-2 -10 -13 -34t-19 -33q-5 -5 -8 -3q-38 32 -68 32q-27 0 -52 -41q-8 -16 -8 -32q0 -151 2 -191q2 -26 21 -32q16 -5 66 -11q2 -3 0.5 -16t-4.5 -16q-2 0 -50.5 1.5t-72.5 1.5q-47 0 -101 -3q-3 3 -3 16t3 16q27 5 40 8q17 8 18 29
q3 26 3 165q0 66 -1 77q-2 13 -13 22.5t-43 21.5q0 20 5 25q75 8 126 37q1 0 3 -2t2 -3q-2 -26 -2 -75q0 -4 5 -2q37 44 64 63q26 18 52 18zM209 615q8 4 40.5 7t39.5 1q5 -3 5 -11q-10 -19 -56.5 -80.5t-67.5 -86.5q-4 -1 -14 6t-12 11q55 135 65 153z" />
    <glyph glyph-name="uni0156" unicode="&#x156;" horiz-adv-x="623" 
d="M31 588q-3 4 -2 17t5 14q11 0 56.5 -1.5t61.5 -1.5q43 0 99 1t70 1q85 0 133.5 -44.5t48.5 -110.5q0 -111 -113 -161q-4 -4 -2 -8q29 -46 77.5 -111t83.5 -100q29 -31 48 -39.5t69 -15.5q3 -3 0.5 -17t-6.5 -15q-115 -5 -165 19q-26 14 -49 42q-17 20 -41 54.5t-53 79
t-41 61.5q-10 14 -25 14q-7 1 -72 1q-5 0 -5 -5q0 -115 2 -177q2 -23 9 -32.5t25 -13.5q8 -2 58 -10q3 -2 2 -15.5t-5 -16.5q-4 0 -49.5 1.5t-87.5 1.5q-39 0 -82.5 -1.5t-47.5 -1.5q-4 4 -4.5 16.5t3.5 15.5q42 6 52 8q18 5 26 16t9 39q3 66 3 211q0 201 -2 229
q-1 22 -7.5 32t-25.5 14q-12 4 -56 10zM255 581q-24 0 -36 -6q-7 -3 -7 -14q-3 -35 -3 -245q0 -6 5 -6q108 -1 132 10q63 29 63 112q0 149 -154 149zM360 -31q18 0 35 -20.5t17 -53.5q0 -46 -32 -80t-88 -47q-3 1 -8 11.5t-4 14.5q69 28 69 69q0 37 -57 54q-2 2 -2 9t2 9
q8 9 29.5 21.5t38.5 12.5z" />
    <glyph glyph-name="uni0157" unicode="&#x157;" horiz-adv-x="332" 
d="M283 413q34 0 48 -23q2 -7 0 -16q-2 -10 -13 -34t-19 -33q-5 -5 -8 -3q-38 32 -68 32q-27 0 -52 -41q-8 -16 -8 -32q0 -151 2 -191q2 -26 21 -32q16 -5 66 -11q2 -3 0.5 -16t-4.5 -16q-2 0 -50.5 1.5t-72.5 1.5q-47 0 -101 -3q-3 3 -3 16t3 16q27 5 40 8q17 8 18 29
q3 26 3 165q0 66 -1 77q-2 13 -13 22.5t-43 21.5q0 20 5 25q75 8 126 37q1 0 3 -2t2 -3q-2 -26 -2 -75q0 -4 5 -2q37 44 64 63q26 18 52 18zM132 -34q18 0 35 -20.5t17 -53.5q0 -46 -32 -80t-88 -47q-3 1 -8 11.5t-4 14.5q69 28 69 69q0 37 -57 54q-2 2 -2 9t2 9
q8 9 29.5 21.5t38.5 12.5z" />
    <glyph glyph-name="uni0158" unicode="&#x158;" horiz-adv-x="623" 
d="M31 588q-3 4 -2 17t5 14q11 0 56.5 -1.5t61.5 -1.5q43 0 99 1t70 1q85 0 133.5 -44.5t48.5 -110.5q0 -111 -113 -161q-4 -4 -2 -8q29 -46 77.5 -111t83.5 -100q29 -31 48 -39.5t69 -15.5q3 -3 0.5 -17t-6.5 -15q-115 -5 -165 19q-26 14 -49 42q-17 20 -41 54.5t-53 79
t-41 61.5q-10 14 -25 14q-7 1 -72 1q-5 0 -5 -5q0 -115 2 -177q2 -23 9 -32.5t25 -13.5q8 -2 58 -10q3 -2 2 -15.5t-5 -16.5q-4 0 -49.5 1.5t-87.5 1.5q-39 0 -82.5 -1.5t-47.5 -1.5q-4 4 -4.5 16.5t3.5 15.5q42 6 52 8q18 5 26 16t9 39q3 66 3 211q0 201 -2 229
q-1 22 -7.5 32t-25.5 14q-12 4 -56 10zM255 581q-24 0 -36 -6q-7 -3 -7 -14q-3 -35 -3 -245q0 -6 5 -6q108 -1 132 10q63 29 63 112q0 149 -154 149zM288 665q-6 -5 -23 -8q-27 29 -131 109q0 4 7 15t10 11q5 0 58 -24t64 -31q7 -2 10 0q18 10 63.5 32.5t49.5 22.5t11 -10.5
t5 -15.5q-7 -6 -37.5 -30t-54.5 -43.5t-32 -27.5z" />
    <glyph glyph-name="uni0159" unicode="&#x159;" horiz-adv-x="332" 
d="M283 413q34 0 48 -23q2 -7 0 -16q-2 -10 -13 -34t-19 -33q-5 -5 -8 -3q-38 32 -68 32q-27 0 -52 -41q-8 -16 -8 -32q0 -151 2 -191q2 -26 21 -32q16 -5 66 -11q2 -3 0.5 -16t-4.5 -16q-2 0 -50.5 1.5t-72.5 1.5q-47 0 -101 -3q-3 3 -3 16t3 16q27 5 40 8q17 8 18 29
q3 26 3 165q0 66 -1 77q-2 13 -13 22.5t-43 21.5q0 20 5 25q75 8 126 37q1 0 3 -2t2 -3q-2 -26 -2 -75q0 -4 5 -2q37 44 64 63q26 18 52 18zM177 528q14 25 33.5 54t25.5 33q21 11 38 7q3 -2 3 -5q-67 -108 -91 -160q-1 -2 -15 -6.5t-16 -3.5q-11 27 -43.5 85t-45.5 77
q2 4 18 10t23 5q12 -2 65 -96q2 -2 5 0z" />
    <glyph glyph-name="uni015A" unicode="&#x15a;" horiz-adv-x="494" 
d="M78 177q30 -97 74 -127q37 -28 98 -28q42 0 74 26t32 78q0 45 -28.5 74.5t-103.5 71.5q-77 44 -114 86.5t-37 105.5q0 79 56.5 124.5t142.5 45.5q42 0 97 -8.5t59 -8.5q-9 -43 -17 -142q-2 -4 -16 -4t-16 3q-5 45 -13 68.5t-26 35.5q-31 21 -82 21q-48 0 -75.5 -31
t-27.5 -70t16.5 -63.5t51.5 -47.5q22 -15 68 -39t59 -32q95 -59 95 -148q0 -77 -61 -131.5t-164 -54.5q-78 0 -146 31q-6 9 -16.5 66t-13.5 87q1 6 15.5 10t18.5 1zM340 815q10 0 32.5 -14t30.5 -24q1 -2 1 -7.5t-1 -6.5q-11 -11 -87.5 -53.5t-83.5 -42.5q-2 0 -10 11t-7 13
q11 14 62.5 66t62.5 58z" />
    <glyph glyph-name="uni015B" unicode="&#x15b;" horiz-adv-x="352" 
d="M305 400q-7 -35 -12 -107q-2 -3 -14.5 -3.5t-15.5 1.5q-5 34 -12.5 50.5t-21.5 25.5q-19 13 -50 13q-26 0 -43.5 -16t-17.5 -41q0 -26 19.5 -44.5t75.5 -44.5q60 -27 83 -54.5t23 -67.5q0 -54 -46 -89t-116 -35q-65 0 -107 20q-12 37 -18 111q2 3 15 7t17 3
q20 -68 59 -92q24 -13 52 -13q30 0 48 15t18 39q0 27 -17.5 45t-66.5 41q-60 29 -85.5 58.5t-25.5 70.5q0 50 39.5 85t110.5 35q28 0 68 -7q19 -4 41 -6zM209 615q8 4 40.5 7t39.5 1q5 -3 5 -11q-10 -19 -56.5 -80.5t-67.5 -86.5q-4 -1 -14 6t-12 11q55 135 65 153z" />
    <glyph glyph-name="uni015C" unicode="&#x15c;" horiz-adv-x="494" 
d="M78 177q30 -97 74 -127q37 -28 98 -28q42 0 74 26t32 78q0 45 -28.5 74.5t-103.5 71.5q-77 44 -114 86.5t-37 105.5q0 79 56.5 124.5t142.5 45.5q42 0 97 -8.5t59 -8.5q-9 -43 -17 -142q-2 -4 -16 -4t-16 3q-5 45 -13 68.5t-26 35.5q-31 21 -82 21q-48 0 -75.5 -31
t-27.5 -70t16.5 -63.5t51.5 -47.5q22 -15 68 -39t59 -32q95 -59 95 -148q0 -77 -61 -131.5t-164 -54.5q-78 0 -146 31q-6 9 -16.5 66t-13.5 87q1 6 15.5 10t18.5 1zM249 793q6 5 23 8q9 -10 60 -52t71 -57q0 -4 -7 -15t-10 -11q-5 0 -58 24t-64 31q-5 2 -10 0
q-17 -10 -63.5 -32.5t-50.5 -22.5t-10.5 10.5t-5.5 15.5q112 88 125 101z" />
    <glyph glyph-name="uni015D" unicode="&#x15d;" horiz-adv-x="352" 
d="M305 400q-7 -35 -12 -107q-2 -3 -14.5 -3.5t-15.5 1.5q-5 34 -12.5 50.5t-21.5 25.5q-19 13 -50 13q-26 0 -43.5 -16t-17.5 -41q0 -26 19.5 -44.5t75.5 -44.5q60 -27 83 -54.5t23 -67.5q0 -54 -46 -89t-116 -35q-65 0 -107 20q-12 37 -18 111q2 3 15 7t17 3
q20 -68 59 -92q24 -13 52 -13q30 0 48 15t18 39q0 27 -17.5 45t-66.5 41q-60 29 -85.5 58.5t-25.5 70.5q0 50 39.5 85t110.5 35q28 0 68 -7q19 -4 41 -6zM178 544q-13 -25 -32 -53.5t-25 -32.5q-19 -12 -38 -8q-3 2 -3 5q68 110 90 160q1 3 14.5 7t17.5 4q11 -27 42.5 -85
t44.5 -78q-2 -4 -17.5 -10t-23.5 -5q-12 3 -64 96q-2 2 -6 0z" />
    <glyph glyph-name="uni015E" unicode="&#x15e;" horiz-adv-x="494" 
d="M78 177q28 -96 74 -128q36 -27 96 -27q42 0 75 26t33 78q0 45 -28.5 74.5t-103.5 71.5q-77 44 -114 86.5t-37 105.5q0 79 56.5 124.5t142.5 45.5q51 0 96 -8q46 -8 60 -8q-9 -43 -17 -142q-4 -4 -16.5 -4.5t-15.5 3.5q-9 83 -39 103q-30 21 -82 21q-47 0 -75 -31t-28 -70
t16.5 -63.5t51.5 -47.5q23 -15 69.5 -40t57.5 -31q95 -59 95 -148q0 -69 -47.5 -120t-133.5 -63l-19 -29q32 -18 45 -29q23 -19 23 -52q0 -43 -43 -73.5t-74 -30.5q-40 0 -56 30q-2 14 3 27q28 -15 65 -15q40 0 40 33q0 40 -75 63q1 6 2 8q28 39 48 65q-77 0 -149 31
q-6 9 -17 65.5t-13 87.5q1 4 16 8t18 3z" />
    <glyph glyph-name="uni015F" unicode="&#x15f;" horiz-adv-x="352" 
d="M305 400q-7 -35 -12 -107q-2 -3 -14.5 -3.5t-15.5 1.5q-5 33 -12 49.5t-21 25.5q-20 14 -51 14q-26 0 -43.5 -16t-17.5 -41q0 -26 19.5 -44.5t75.5 -44.5q60 -27 83 -54.5t23 -67.5q0 -47 -35 -79.5t-90 -41.5l-22 -31q27 -14 44 -29q23 -19 23 -49q0 -41 -40.5 -69.5
t-71.5 -28.5q-35 0 -53 28q-2 16 3 26q29 -14 61 -14q18 0 30 8.5t12 23.5q0 35 -72 59q-1 6 0 9q29 40 49 64q-66 2 -107 20q-12 37 -18 111q2 3 15 7t17 3q20 -68 59 -92q24 -13 52 -13q30 0 48 15t18 39q0 27 -17.5 45t-66.5 41q-60 29 -85.5 58.5t-25.5 70.5
q0 50 39.5 85t110.5 35q29 0 69 -7q20 -4 40 -6z" />
    <glyph glyph-name="Scaron" unicode="&#x160;" horiz-adv-x="494" 
d="M78 177q30 -97 74 -127q37 -28 98 -28q42 0 74 26t32 78q0 45 -28.5 74.5t-103.5 71.5q-77 44 -114 86.5t-37 105.5q0 79 56.5 124.5t142.5 45.5q42 0 97 -8.5t59 -8.5q-9 -43 -17 -142q-2 -4 -16 -4t-16 3q-5 45 -13 68.5t-26 35.5q-31 21 -82 21q-48 0 -75.5 -31
t-27.5 -70t16.5 -63.5t51.5 -47.5q22 -15 68 -39t59 -32q95 -59 95 -148q0 -77 -61 -131.5t-164 -54.5q-78 0 -146 31q-6 9 -16.5 66t-13.5 87q1 6 15.5 10t18.5 1zM276 675q-6 -5 -23 -8q-27 29 -131 109q0 4 7 15t10 11q5 0 58 -24t64 -31q7 -2 10 0q18 10 63.5 32.5
t49.5 22.5t11 -10.5t5 -15.5q-7 -6 -37.5 -30t-54.5 -43.5t-32 -27.5z" />
    <glyph glyph-name="scaron" unicode="&#x161;" horiz-adv-x="352" 
d="M305 400q-7 -35 -12 -107q-2 -3 -14.5 -3.5t-15.5 1.5q-5 34 -12.5 50.5t-21.5 25.5q-19 13 -50 13q-26 0 -43.5 -16t-17.5 -41q0 -26 19.5 -44.5t75.5 -44.5q60 -27 83 -54.5t23 -67.5q0 -54 -46 -89t-116 -35q-65 0 -107 20q-12 37 -18 111q2 3 15 7t17 3
q20 -68 59 -92q24 -13 52 -13q30 0 48 15t18 39q0 27 -17.5 45t-66.5 41q-60 29 -85.5 58.5t-25.5 70.5q0 50 39.5 85t110.5 35q28 0 68 -7q19 -4 41 -6zM190 529q14 25 33.5 54t25.5 33q21 11 38 7q3 -1 3 -5q-67 -108 -91 -160q-1 -2 -15 -6.5t-16 -3.5q-11 27 -43.5 85
t-45.5 77q2 4 18 10t23 5q12 -2 65 -96q3 -3 5 0z" />
    <glyph glyph-name="uni0162" unicode="&#x162;" horiz-adv-x="653" 
d="M473 29q3 -4 1.5 -17t-5.5 -15q-87 3 -156 3q-79 0 -154 -3q-3 4 -3 16.5t3 15.5q60 8 73 11q23 4 30 19.5t9 53.5q3 88 3 450q0 8 -6 8q-36 2 -126 0q-26 0 -42 -28q-15 -22 -40 -95q-4 -2 -19 1.5t-16 7.5q16 88 20 170q0 2 6 3.5t7 0.5q28 -15 82 -15h370q67 0 100 16
q8 0 11 -6q-11 -40 -23 -175q-2 -4 -18 -4t-18 4q-5 61 -16 91q-12 28 -39 29h-50h-55h-33q-5 -2 -5 -8q0 -422 3 -473q4 -42 34 -49q13 -4 72 -12zM328 -38q18 0 35 -20.5t17 -53.5q0 -46 -32 -80t-88 -47q-3 1 -8 11.5t-4 14.5q69 28 69 69q0 37 -57 54q-2 2 -2 9t2 9
q8 9 29.5 21.5t38.5 12.5z" />
    <glyph glyph-name="uni0163" unicode="&#x163;" horiz-adv-x="303" 
d="M279 345q-23 1 -117 1q-4 0 -4 -5q-2 -82 0 -176q0 -55 6 -76q12 -39 61 -39q35 0 63 16q2 -2 0 -16.5t-4 -17.5q-34 -44 -101 -44q-64 0 -90 49q-15 27 -15 115q0 31 0.5 99t0.5 86q0 7 -6 9l-56 4q-1 5 2.5 18.5t7.5 17.5q27 4 47 11q5 3 5 8v87q48 26 66 45
q3 1 10 1.5t9 -0.5q-5 -43 -5 -133q0 -6 5 -6q93 0 125 4q-7 -31 -10 -58zM183 -40q18 0 35 -20.5t17 -53.5q0 -46 -32 -80t-88 -47q-3 1 -8 11.5t-4 14.5q69 28 69 69q0 37 -57 54q-2 2 -2 9t2 9q8 9 29.5 21.5t38.5 12.5z" />
    <glyph glyph-name="uni0164" unicode="&#x164;" horiz-adv-x="653" 
d="M473 29q3 -4 1.5 -17t-5.5 -15q-87 3 -156 3q-79 0 -154 -3q-3 4 -3 16.5t3 15.5q60 8 73 11q23 4 30 19.5t9 53.5q3 88 3 450q0 8 -6 8q-36 2 -126 0q-26 0 -42 -28q-15 -22 -40 -95q-4 -2 -19 1.5t-16 7.5q16 88 20 170q0 2 6 3.5t7 0.5q28 -15 82 -15h370q67 0 100 16
q8 0 11 -6q-11 -40 -23 -175q-2 -4 -18 -4t-18 4q-5 61 -16 91q-12 28 -39 29h-50h-55h-33q-5 -2 -5 -8q0 -422 3 -473q4 -42 34 -49q13 -4 72 -12zM333 662q-6 -5 -23 -8q-27 29 -131 109q0 4 7 15t10 11q5 0 58 -24t64 -31q7 -2 10 0q18 10 63.5 32.5t49.5 22.5t11 -10.5
t5 -15.5q-7 -6 -37.5 -30t-54.5 -43.5t-32 -27.5z" />
    <glyph glyph-name="uni0165" unicode="&#x165;" horiz-adv-x="303" 
d="M279 345q-23 1 -117 1q-4 0 -4 -5q-2 -82 0 -176q0 -55 6 -76q12 -39 61 -39q35 0 63 16q2 -2 0 -16.5t-4 -17.5q-34 -44 -101 -44q-64 0 -90 49q-15 27 -15 115q0 31 0.5 99t0.5 86q0 7 -6 9l-56 4q-1 5 2.5 18.5t7.5 17.5q27 4 47 11q5 3 5 8v87q48 26 66 45
q3 1 10 1.5t9 -0.5q-5 -43 -5 -133q0 -6 5 -6q93 0 125 4q-7 -31 -10 -58zM295 704q6 0 6 -13q0 -28 -6.5 -87.5t-14.5 -85.5q-6 -21 -35 -39q-2 -1 -5 2t-3 4q0 91 -11 172q0 5 3 8q6 8 31.5 23.5t34.5 15.5z" />
    <glyph glyph-name="Tbar" unicode="&#x166;" horiz-adv-x="653" 
d="M160 29q67 9 72 10q23 4 30 19.5t9 54.5q1 15 3 188q-24 0 -65 -0.5t-46 -0.5q3 32 8 39q3 0 42 -0.5t61 -0.5v223q0 10 -8 10q-36 2 -126 0q-24 0 -40 -27q-16 -26 -40 -96q-4 -2 -19 1.5t-16 7.5q14 73 20 170q0 2 6 3.5t7 0.5q28 -15 82 -15h370q67 0 100 16
q8 0 11 -6q-11 -40 -23 -175q-2 -4 -18 -4t-18 4q-8 72 -17 92q-10 27 -37 28h-138q-6 -1 -6 -10v-223h50.5t46 0.5t21.5 0.5q3 -10 -5 -39q-5 0 -41 0.5t-72 0.5q2 -191 3 -212q2 -23 8.5 -33.5t23.5 -14.5q11 -4 74 -12q3 -3 1.5 -16.5t-5.5 -15.5q-72 3 -156 3
q-64 0 -154 -3q-5 3 -4.5 16.5t5.5 15.5z" />
    <glyph glyph-name="tbar" unicode="&#x167;" horiz-adv-x="303" 
d="M279 345q-23 1 -117 1q-4 0 -4 -5q-1 -26 -1 -103q30 0 64 0.5t35 0.5q3 -18 -6 -39l-93 1q0 -28 1 -36q0 -55 6 -76q12 -39 61 -39q35 0 63 16q2 -2 0 -16.5t-4 -17.5q-34 -44 -101 -44q-64 0 -90 49q-15 27 -15 115v49q-37 0 -56 -1q3 33 8 38h48q1 38 1 99q0 7 -6 9
l-56 4q-1 5 2.5 18.5t7.5 17.5q27 4 47 11q5 3 5 8v87q48 26 66 45q3 1 10 1.5t9 -0.5q-5 -43 -5 -133q0 -6 5 -6q93 0 125 4q-7 -31 -10 -58z" />
    </font>
</defs>
</svg>
