<?xml version="1.0" standalone="no"?>
<!DOCTYPE svg PUBLIC "-//W3C//DTD SVG 1.1//EN" "http://www.w3.org/Graphics/SVG/1.1/DTD/svg11.dtd" >
<svg>
<metadata>
Created by FontForge 20110222 at Wed Apr 23 02:20:26 2014
 By Orthosie Webhosting
(c) 2007 Adobe Systems Incorporated. All Rights Reserved.
</metadata>
<defs>
<font id="ArnoProSemiboldSubhead" horiz-adv-x="515" >
  <font-face 
    font-family="ArnoProSemiboldSubhead"
    font-weight="600"
    font-stretch="normal"
    units-per-em="1000"
    panose-1="2 2 7 2 5 5 6 2 4 3"
    ascent="683"
    descent="-317"
    x-height="395"
    cap-height="609"
    bbox="-152 -376.182 1408 864"
    underline-thickness="50"
    underline-position="-50"
    unicode-range="U+0020-FB06"
  />
<missing-glyph horiz-adv-x="495" 
d="M0 0v693h495v-693h-495zM248 391l168 253h-337zM277 347l169 -253v505zM79 50h337l-168 252zM50 599v-505l168 253z" />
    <glyph glyph-name="f_f" unicode="ff" horiz-adv-x="528" 
d="M16 22q24 4 40 9q18 6 18 34q1 70 1 275q0 7 -5 7l-49 4q0 15 7 24q23 5 44 15q4 3 4 8q4 141 120 216q59 39 111 39q72 0 110 -41q24 25 62.5 43.5t69.5 18.5q58 0 80 -36q2 -7 0 -15q-3 -10 -19 -31.5t-24 -25.5q-2 -2 -6.5 -2t-6.5 2q-49 57 -83 57q-33 0 -43.5 -37.5
t-10.5 -128.5v-57q0 -8 6 -8l95 4q-4 -14 -8 -49q-27 1 -88 1q-5 0 -5 -7q1 -45 1.5 -107.5t1 -102t1.5 -59.5q1 -35 29 -42q28 -6 45 -7q1 -4 0 -15t-4 -11q-12 0 -57 1.5t-76 1.5q-21 0 -58 -1.5t-46 -1.5q-2 3 -2 13t2 13q31 4 38 7q19 6 19 34q0 186 1 278q0 6 -5 6
h-141q-5 0 -5 -7l3 -270q1 -37 26 -43q17 -4 34 -5q1 -4 0 -14t-3 -12q-11 0 -44.5 1.5t-70.5 1.5q-27 0 -65.5 -1.5t-43.5 -1.5q-2 3 -2 12.5t2 12.5zM180 424v-24q0 -8 6 -8h140q5 2 5 8q2 77 30 140q-42 69 -105 69q-27 0 -44 -20q-32 -34 -32 -165z" />
    <glyph glyph-name="f_f_i" unicode="ffi" horiz-adv-x="762" 
d="M15 22q25 4 41 9q18 6 18 34q1 71 1 275q0 7 -5 7l-49 4q0 17 7 24q20 4 44 15q4 3 4 8q2 144 120 217q58 37 114 39q71 0 109 -43q26 26 67.5 44.5t84.5 18.5q45 0 76 -18t41 -43q5 -13 0 -25q-12 -31 -44 -46q-5 -2 -13.5 -2t-12.5 3q-11 10 -34 39q-39 48 -74 48
q-41 0 -56.5 -48t-15.5 -150v-33q0 -7 6 -7l143 1q71 0 108 12q-3 -37 -3 -175q0 -118 1 -163q1 -19 5.5 -26t15.5 -11q7 -2 38 -7q2 -3 0.5 -13.5t-4.5 -12.5q-9 0 -45.5 1.5t-65.5 1.5t-65 -1.5t-40 -1.5q-2 2 -2 13t2 13q23 3 33 7q17 5 18 38q3 34 3 145q0 89 -2 121
q-2 12 -12 14h-129q-5 0 -5 -6q2 -254 3 -272q0 -35 27 -42q1 0 32 -5q2 -4 1 -13.5t-3 -12.5q-10 0 -46 1.5t-68 1.5q-17 0 -58 -1.5t-51 -1.5q-2 2 -2 12.5t2 13.5q23 3 38 8q16 6 18 32q0 33 0.5 131.5t0.5 147.5q0 6 -5 6h-142q-5 0 -5 -7l3 -270q1 -37 26 -43
q15 -3 34 -5q1 -4 0 -14t-3 -12q-11 0 -45 1.5t-70 1.5q-22 0 -62 -1.5t-48 -1.5q-1 3 -1 12.5t1 12.5zM180 424v-24q0 -8 6 -8h142q5 3 5 8q2 81 29 140q-18 33 -46.5 51t-59.5 18q-24 0 -43 -19q-33 -37 -33 -166z" />
    <glyph glyph-name="f_f_l" unicode="ffl" horiz-adv-x="764" 
d="M15 22q29 4 39 9q19 6 19 34q1 70 1 276q0 6 -5 6l-49 4q0 15 7 24q18 3 44 15q4 2 4 8q3 142 121 218q56 36 113 38q70 0 109 -42q25 25 64 43.5t74 18.5q47 0 80 -17q7 -4 17 0q17 5 38 17q8 -4 8 -11q-7 -26 -7 -92q-1 -50 -1 -237q0 -241 2 -266q1 -31 20 -38
q5 -2 11 -3t14.5 -2t14.5 -2q2 -4 1 -13t-4 -13q-8 0 -48.5 1.5t-67.5 1.5q-23 0 -60 -1.5t-43 -1.5q-2 4 -2 13t2 12q22 4 34 8q16 7 17 37q2 25 2 262q0 211 -1 230q-1 24 -13 39q-26 32 -64 32q-22 0 -37 -13.5t-22 -40t-9.5 -55t-2.5 -70.5q0 -40 1 -52q0 -7 6 -7l92 3
q-5 -18 -8 -49q-27 1 -85 1q-5 0 -5 -6q2 -220 3 -271q0 -20 6 -29t21 -13q22 -5 33 -5q1 -3 0 -14t-2 -12q-10 0 -46.5 1.5t-69.5 1.5q-16 0 -58.5 -1.5t-51.5 -1.5q-2 3 -2 13t2 13q30 4 41 8q17 7 17 34q2 142 2 277q0 6 -5 6h-141q-5 0 -5 -7q2 -252 3 -270
q0 -21 5.5 -30t20.5 -13t33 -5q2 -3 0.5 -13.5t-3.5 -12.5q-11 0 -45 1.5t-70 1.5q-22 0 -62 -1.5t-47 -1.5q-2 3 -2 12.5t2 12.5zM179 424v-24q0 -8 6 -8h142q4 3 4 8q4 82 31 142q-47 67 -107 67q-25 0 -43 -19q-33 -35 -33 -166z" />
    <glyph glyph-name="longs_t" unicode="&#x17f;t" horiz-adv-x="552" 
d="M15 22q31 4 41 9q18 6 18 34q1 70 1 272q0 7 -5 7l-49 3q0 18 8 28q21 4 43 16q4 3 4 7q0 75 23 129.5t78 97.5q57 46 120 46q60 0 94 -35t36 -84q1 -19 1.5 -83t-0.5 -69q0 -8 4 -8q61 0 111 5q-7 -37 -8 -55q-15 0 -51 0.5t-53 0.5q-5 0 -5 -6q0 -22 -0.5 -88t-0.5 -89
q2 -55 6 -71q5 -17 19.5 -27.5t34.5 -10.5q34 0 57 15q1 -2 0.5 -12.5t-1.5 -14.5q-39 -51 -115 -51q-69 0 -94 47q-10 18 -12 39.5t-2 73.5q0 27 0.5 96.5t0.5 88.5q0 9 -6 10q-1 0 -51 4q0 17 9 35q35 5 43 10q6 3 7 11q5 47 5 128q-1 53 -19 74q-21 27 -55 27
q-39 0 -56 -54t-16 -171q0 -266 3 -338q1 -35 27 -40q20 -4 40 -6q1 -3 0 -13.5t-2 -12.5q-12 0 -50 1.5t-73 1.5q-22 0 -62 -1.5t-48 -1.5q-2 3 -2 12t2 13z" />
    <glyph glyph-name="R_A" unicode="RA" horiz-adv-x="1192" 
d="M28 584q-3 3 -2 13t3 12q11 0 59.5 -1.5t66.5 -1.5q32 0 89.5 1t88.5 1q88 0 134 -42t46 -109q0 -107 -116 -153q-1 -1 -1.5 -3.5t0.5 -3.5q20 -37 75 -115.5t89 -115.5q31 -34 63 -34q14 0 22.5 8t18.5 31q36 86 97.5 250t83.5 229q11 32 16 57q4 0 18.5 -0.5t23.5 -0.5
q11 0 24.5 0.5t16.5 0.5l14 -52q3 -7 69 -198t85 -242q22 -57 38 -70.5t68 -21.5q1 -2 0.5 -13t-2.5 -13q-9 0 -54 1.5t-79 1.5q-44 0 -140 -3q-2 3 -2 13t2 13q35 6 50 11q15 8 10 23q-17 63 -55 162q-4 7 -9 7q-13 1 -78 1q-70 0 -83 -1q-7 0 -9 -9q-48 -134 -49 -151
q0 -9 1 -14.5t7.5 -11.5t19.5 -9q29 -6 48 -8q1 -3 0.5 -13.5t-2.5 -12.5q-9 0 -46 1.5t-75 1.5q-16 0 -67.5 -1.5t-68.5 -1.5q-68 -1 -113 53q-17 21 -40.5 57t-53.5 84.5t-38 60.5q-11 19 -28 19h-37q-4 0 -4 -6q0 -140 2 -184q1 -26 6.5 -35.5t22.5 -14.5q26 -5 51 -8
q4 -2 3 -13t-4 -13q-13 0 -59.5 1.5t-78.5 1.5q-47 0 -91 -1.5t-45 -1.5q-2 2 -2.5 12.5t2.5 12.5l44 7q16 4 22.5 15.5t8.5 37.5q2 58 2 233q0 170 -1 214q-3 40 -30 47q-21 5 -48 8zM259 575q-15 0 -28 -4q-6 -4 -6 -15q-2 -22 -2 -241q0 -7 5 -7q88 -4 115 10
q52 25 52 110q0 66 -35.5 106.5t-100.5 40.5zM859 481q-12 -33 -39.5 -113.5t-29.5 -86.5q0 -7 3 -7q10 -1 65 -1h27h27.5h14.5q3 0 3 6q-46 143 -67 202h-4z" />
    <glyph glyph-name="K_A" unicode="KA" horiz-adv-x="1197" 
d="M380 584q-2 3 -1.5 12.5t2.5 12.5q8 0 46.5 -1.5t63.5 -1.5q64 1 124 3q2 -3 2 -13t-2 -12q-46 -8 -68.5 -18.5t-53.5 -47.5l-153 -172v-4q29 -50 109.5 -144.5t127.5 -134.5q28 -25 56 -25q10 0 17 6.5t16 26.5q85 197 182 479q12 36 15 57q5 0 19.5 -0.5t23.5 -0.5
q11 0 24 0.5t17 0.5q6 -27 15 -52q123 -361 153 -440q22 -57 38 -70.5t68 -21.5q2 -2 0.5 -13t-3.5 -13q-8 0 -53 1.5t-79 1.5q-44 0 -140 -3q-2 3 -2 13t2 13q38 7 50 11q15 8 10 23q-17 63 -55 162q-3 7 -9 7q-13 1 -78 1q-70 0 -82 -1q-8 0 -10 -9q-49 -135 -50 -151
q-1 -9 0 -14.5t7 -12t19 -9.5q19 -4 45 -7q2 -3 1 -13t-3 -13q-8 0 -46.5 1.5t-61.5 1.5q-5 0 -60 -1.5t-74 -1.5q-39 0 -65.5 11t-56.5 43q-70 75 -181 223q-5 8 -15 16q0 12 3 14q71 36 184 184q35 48 35 67q0 13 -18 18q-24 7 -55 11zM26 21q34 4 49 9q18 4 24 17t7 44
q2 107 1 229q0 184 -1 205q-2 43 -26 49q-6 2 -49 10q-8 12 0 25q10 0 53.5 -1.5t82.5 -1.5q27 0 70.5 1.5t57.5 1.5q1 -3 1 -12.5t-1 -12.5q-34 -6 -43 -9q-16 -4 -21 -16t-6 -38q-1 -25 -1.5 -104t-0.5 -107q0 -166 2 -226q1 -26 7.5 -37.5t23.5 -15.5q6 -2 50 -9
q2 -3 0.5 -13t-3.5 -12q-15 0 -61.5 1.5t-77.5 1.5q-35 0 -84.5 -1.5t-53.5 -1.5q-2 2 -2 12t2 12zM862 482q-11 -32 -37 -109t-31 -92q-2 -7 2 -7q11 -1 65 -1h27h27h14q1 0 2.5 2.5t0.5 3.5q-32 107 -66 203h-4z" />
    <glyph glyph-name="T_T" unicode="TT" horiz-adv-x="1062" 
d="M147 22q39 4 63 9q20 4 27 18.5t9 51.5q4 87 4 455q0 9 -7 9q-13 1 -53.5 1t-57.5 -1q-29 -3 -46 -31q-16 -24 -38 -88q-2 -2 -14 0.5t-13 6.5q14 73 18 161q0 2 3.5 4t5.5 1q34 -13 85 -13h796q65 0 102 13q5 -3 5 -6q-15 -60 -22 -166q-2 -2 -14 -2.5t-14 2.5
q-10 65 -20 88q-10 26 -39 29q-20 1 -65 1.5t-54 -0.5q-6 -4 -6 -10q0 -409 3 -471q2 -25 8 -36t22 -16q15 -5 58 -10q2 -2 1.5 -13t-3.5 -12q-15 0 -65 1.5t-82 1.5q-49 0 -101.5 -1.5t-60.5 -1.5q-3 3 -2.5 13t2.5 12q39 4 63 9q20 4 27 18.5t9 51.5q4 87 4 455
q0 10 -7 10l-305 -1q-6 -4 -6 -10q0 -409 3 -471q2 -25 8 -36t22 -16q15 -5 58 -10q2 -2 1.5 -13t-3.5 -12q-15 0 -65 1.5t-82 1.5q-49 0 -101.5 -1.5t-60.5 -1.5q-3 3 -2.5 13t2.5 12z" />
    <glyph glyph-name="T_h" unicode="Th" horiz-adv-x="1014" 
d="M161 23q32 3 59 9q19 4 26.5 18t9.5 51q4 87 4 455q0 2 -2.5 5.5t-4.5 3.5q-12 1 -57 0.5t-62 -1.5q-31 -1 -48 -31q-18 -31 -37 -83q-3 -3 -15 0t-13 7q13 69 18 162q10 0 15 -2q34 -11 79 -11h439q6 0 6 6l-1 40q0 2 2.5 5.5t4.5 3.5q23 1 45 5t36.5 8t15.5 4q6 0 6 -6
q0 -2 -0.5 -16t-0.5 -44v-69q-1 -43 -1 -189q0 -2 1.5 -3t2.5 0q75 55 131 55q60 0 92 -41.5t32 -118.5q0 -147 1 -189q0 -11 8 -18q14 -11 50 -16q2 -3 1 -14t-4 -12q-4 0 -42 1.5t-71 1.5q-37 0 -100 -3q-2 3 -2 13t2 13q24 3 31 7q10 4 13.5 12.5t4.5 32.5q5 164 -4 205
q-6 27 -27 44.5t-54 17.5q-31 0 -57 -16q-8 -6 -8 -16q0 -205 2 -234q1 -16 2 -23.5t6 -13.5t14 -9q21 -6 31 -7q2 -3 2 -13t-2 -13q-7 0 -45 1.5t-66 1.5q-25 0 -61 -1.5t-45 -1.5q-2 4 -2 13.5t2 12.5q22 3 34 7q8 2 12 8.5t5.5 15t2.5 26.5q2 66 2 173q0 267 -1 298
q-2 11 -12 13q-26 1 -98.5 1t-86.5 -1q-5 -2 -5 -9q0 -409 3 -471q2 -25 8 -36t21 -16q10 -3 58 -9q2 -3 1 -13.5t-3 -12.5q-26 0 -73.5 1.5t-72.5 1.5q-28 0 -82 -1.5t-76 -1.5q-2 3 -2 13t2 13z" />
    <glyph glyph-name="f_b" unicode="fb" horiz-adv-x="756" 
d="M15 23q28 4 41 8q17 7 17 35q2 140 2 270q0 7 -5 7l-49 3q0 20 8 28q19 3 42 15q4 3 4 8q2 82 30 140t95 101q52 34 102 34q42 0 75 -16q7 -4 18 0q18 6 37 18q9 -3 9 -11q-7 -25 -8 -95v-66v-79.5v-57.5q2 -4 5 -2q86 43 128 43q67 0 109 -49q44 -48 44 -128
q0 -116 -88 -182q-28 -21 -83 -40t-88 -19q-77 0 -141 28q5 24 5 62q2 100 2 181q0 277 -1 297q-1 25 -13 40q-24 31 -62 31q-23 0 -38 -15q-32 -30 -32 -161v-52q0 -7 6 -7l91 3q-5 -15 -9 -52q-14 0 -42.5 0.5t-40.5 0.5q-5 0 -5 -7l3 -268q1 -20 6.5 -28.5t20.5 -12.5
q22 -5 36 -5q1 -4 0 -14.5t-3 -11.5q-10 0 -48 1.5t-70 1.5q-16 0 -58 -1.5t-52 -1.5q-2 2 -2 12t2 14zM487 347q-27 0 -45 -9q-6 -2 -8 -14q-4 -151 2 -216q1 -41 16 -54q23 -22 67 -22q36 0 60 29q30 38 30 116q0 82 -32 124q-33 46 -90 46z" />
    <glyph glyph-name="f_f_b" unicode="ffb" horiz-adv-x="1014" 
d="M16 22q29 4 39 9q19 7 19 34q1 70 1 276q0 6 -5 6l-49 4q0 15 7 24q20 4 43 15q5 2 5 8q3 142 121 218q56 36 113 38q70 0 109 -42q25 25 64 43.5t74 18.5q46 0 80 -17q7 -4 17 0q18 5 37 17q9 -3 9 -11q-7 -26 -7 -92q-1 -50 -1 -208q0 -1 2 -2t3 0q90 45 127 45
q66 0 110 -49t44 -128q0 -119 -84 -182q-29 -22 -78 -40.5t-80 -18.5q-44 0 -91 13q-23 6 -57 -3q-1 -1 -4.5 1.5t-3.5 4.5q5 52 5 288q0 248 -1 267q-2 26 -13 39q-27 31 -64 31q-22 0 -37 -13t-22 -39.5t-9.5 -55t-2.5 -70.5l1 -52q0 -7 6 -7l92 3q-5 -18 -8 -49
q-27 1 -85 1q-5 0 -5 -6q2 -251 3 -271q0 -20 6 -29t21 -13q22 -5 33 -5q1 -3 0 -14t-2 -12q-10 0 -46.5 1.5t-69.5 1.5q-16 0 -58.5 -1.5t-51.5 -1.5q-2 3 -2 13t2 13q30 4 41 8q17 7 17 34q2 142 2 277q0 6 -5 6h-141q-6 0 -6 -7l3 -270q1 -37 26 -43q17 -4 34 -5
q1 -4 0 -14t-3 -12q-11 0 -45 1.5t-70 1.5q-23 0 -62.5 -1.5t-46.5 -1.5q-2 3 -2 12.5t2 12.5zM749 347q-27 0 -49 -12q-7 -2 -7 -13q-4 -143 2 -216q1 -36 17 -48q29 -27 68 -27q34 0 57 29q31 36 31 117t-33 126q-31 44 -86 44zM179 424l1 -24q0 -8 5 -8h143q4 3 4 8
q4 82 31 142q-48 67 -107 67q-25 0 -43 -19q-34 -36 -34 -166z" />
    <glyph glyph-name="f_f_h" unicode="ffh" horiz-adv-x="1020" 
d="M16 22q29 4 39 9q19 6 19 34q1 70 1 276q0 6 -5 6l-49 4q0 15 7 24q18 3 44 15q4 2 4 8q3 142 120 218q58 36 114 38q70 0 109 -42q26 26 65.5 44t75.5 18q46 0 77 -17q7 -4 17 0q17 5 38 17q8 -4 8 -11q-7 -26 -7 -92q-1 -50 -1 -217q0 -5 4 -3q75 55 130 55
q60 0 92 -41.5t32 -119.5q0 -146 1 -188q0 -11 8 -18q13 -10 50 -16q2 -3 1.5 -13.5t-4.5 -12.5q-4 0 -41 1.5t-71 1.5q-38 0 -101 -3q-3 3 -3 13t3 13q24 3 31 7q10 4 13.5 12.5t4.5 32.5q5 165 -4 207q-6 26 -27 43.5t-53 17.5q-34 0 -57 -16q-9 -5 -9 -16q0 -192 3 -235
q1 -16 2 -23.5t5.5 -13.5t14.5 -9q17 -5 31 -7q3 -3 2.5 -12.5t-3.5 -13.5q-6 0 -40.5 1.5t-69.5 1.5q-32 0 -65.5 -1.5t-39.5 -1.5q-3 4 -2.5 13.5t2.5 12.5q20 3 33 7q8 2 12 8.5t5.5 15t2.5 26.5q2 79 1 241q0 200 -2 239q-2 26 -13 39q-26 31 -63 31q-22 0 -37 -13.5
t-22.5 -39.5t-10 -55.5t-2.5 -70.5l1 -52q0 -7 6 -7l92 3q-5 -18 -8 -49q-27 1 -85 1q-5 0 -5 -6q2 -220 3 -271q0 -20 6 -29t21 -13q22 -5 33 -5q1 -3 0 -14t-2 -12q-10 0 -46.5 1.5t-69.5 1.5q-16 0 -58.5 -1.5t-51.5 -1.5q-2 3 -2 13t2 13q30 4 41 8q17 7 17 34
q2 142 2 277q0 6 -5 6h-141q-5 0 -5 -7q2 -252 3 -270q0 -21 5.5 -30t20.5 -13t33 -5q2 -3 0.5 -13.5t-3.5 -12.5q-11 0 -45 1.5t-70 1.5q-22 0 -61.5 -1.5t-47.5 -1.5q-2 3 -2 12.5t2 12.5zM180 424v-25q0 -7 5 -7h143q5 3 5 8q2 81 30 142q-17 30 -46 48.5t-60 18.5
q-27 0 -43 -19q-34 -34 -34 -166z" />
    <glyph glyph-name="f_f_j" unicode="ffj" horiz-adv-x="758" 
d="M14 22q25 4 41 9q18 6 18 34q1 71 1 275q0 7 -5 7l-49 4q0 17 7 24q20 4 44 15q4 3 4 8q2 142 118 216q59 38 116 40q73 0 109 -43q26 26 67.5 44.5t84.5 18.5q44 0 76 -18t42 -43q2 -4 1.5 -12t-2.5 -13q-10 -27 -44 -47q-5 -2 -13.5 -1.5t-12.5 3.5q-11 10 -34 39
q-39 48 -74 48q-41 0 -56.5 -48t-15.5 -150l1 -33q0 -7 6 -7l140 1q62 0 110 12l-2 -322q0 -75 -9 -125q-16 -77 -65.5 -137t-90.5 -79q-14 1 -25 12q-4 4 0 9q45 26 63 71.5t18 139.5v18q0 270 -4 342q-3 14 -11 14h-125l-6 -6q2 -254 3 -272q0 -35 27 -42q7 -2 19 -3.5
t15 -1.5q2 -4 1 -14t-3 -12q-7 0 -43.5 1.5t-72.5 1.5q-20 0 -60 -1.5t-49 -1.5q-2 2 -2 12.5t2 13.5q23 3 38 8q16 6 18 32q0 33 0.5 131.5t0.5 147.5q0 6 -5 6h-142q-5 0 -5 -7l3 -270q1 -37 26 -43q15 -3 34 -5q1 -4 0 -14t-3 -12q-11 0 -45 1.5t-70 1.5q-22 0 -62 -1.5
t-48 -1.5q-2 3 -2 12.5t2 12.5zM179 424v-24q0 -8 6 -8h142q5 3 5 8q2 78 30 141q-46 68 -106 68q-26 0 -44 -19q-33 -37 -33 -166z" />
    <glyph glyph-name="f_f_k" unicode="ffk" horiz-adv-x="985" 
d="M16 22q29 4 39 9q19 6 19 34q1 70 1 276q0 6 -5 6l-49 4q0 15 7 24q18 3 44 15q4 2 4 8q3 142 121 218q56 36 113 38q70 0 109 -42q25 24 64.5 43t74.5 19q45 0 79 -17q7 -4 17 0q18 5 37 17q9 -3 9 -11q-7 -26 -7 -92q0 -19 -1 -160.5t-2 -199.5q19 1 46 24
q29 25 57.5 60.5t29.5 47.5q0 12 -16 16q-8 3 -46 8q-2 4 -1 14t4 11q99 -2 187 8q2 -2 2.5 -12.5t-2.5 -13.5q-53 -11 -77 -35q-40 -40 -88 -96q-1 -1 -1 -5q19 -31 74 -101t84 -94q22 -18 66 -20q2 -3 0.5 -13.5t-3.5 -12.5q-43 -7 -127 -4q-31 2 -48 20q-28 26 -114 150
q-14 23 -27 26l2 -117q1 -24 6 -32t21 -12l32 -5q1 -4 0 -13.5t-3 -12.5q-8 0 -44.5 1.5t-68.5 1.5q-26 0 -59.5 -1.5t-44.5 -1.5q-2 2 -2 13t2 13q18 1 33 7q18 5 19 38q2 27 2 219q0 253 -1 272q-2 26 -13 39q-27 31 -63 31q-43 0 -57.5 -45.5t-14.5 -132.5q0 -40 1 -52
q0 -7 6 -7l92 3q-5 -18 -8 -49q-27 1 -85 1q-5 0 -5 -6q2 -220 3 -271q0 -20 6 -29t21 -13q22 -5 33 -5q1 -3 0 -14t-2 -12q-10 0 -46.5 1.5t-69.5 1.5q-16 0 -58.5 -1.5t-51.5 -1.5q-2 3 -2 13t2 13q30 4 41 8q17 7 17 34q2 142 2 277q0 6 -5 6h-141q-5 0 -5 -7
q2 -252 3 -270q0 -21 5.5 -30t20.5 -13t33 -5q2 -3 0.5 -13.5t-3.5 -12.5q-11 0 -45 1.5t-70 1.5q-22 0 -61.5 -1.5t-47.5 -1.5q-2 3 -2 12.5t2 12.5zM180 424v-24q0 -8 6 -8h142q5 3 5 8q3 83 30 142q-39 67 -106 67q-26 0 -44 -19q-33 -35 -33 -166z" />
    <glyph glyph-name="f_f_t" unicode="fft" horiz-adv-x="816" 
d="M14 22q25 4 41 9q18 6 18 34q1 71 1 275q0 7 -5 7l-50 4q0 14 8 24q22 4 44 15q4 3 4 7q1 149 111 221q50 33 94 33q55 0 72 -28q1 -4 1 -14q-2 -10 -16 -30.5t-23 -26.5q-2 -1 -7 -0.5t-7 1.5q-43 53 -72 53q-16 0 -28 -14q-22 -28 -22 -141q0 -10 0.5 -28t0.5 -23
q0 -8 6 -8h145q5 2 5 8q5 164 118 239q51 35 95 35q57 0 77 -32v-15q-11 -30 -40 -56q-6 -2 -12 0l-7 7q-7 8 -8.5 9t-8 7.5t-9.5 8t-9 6.5t-10 6.5t-9.5 4t-11 3.5t-10.5 1q-17 0 -27 -13q-15 -14 -20 -48.5t-5 -107.5q0 -30 2 -56q0 -7 5 -7l135 1q4 4 4 6v39.5t1 42.5
q22 7 52.5 24t40.5 27q10 2 18 2q-4 -38 -4 -134q0 -8 5 -8q59 0 111 5q-6 -26 -8 -50q-16 0 -52 0.5t-53 0.5q-4 0 -4 -6q-1 -44 -1 -183q0 -51 5 -71q5 -17 19.5 -27t34.5 -10q34 0 57 15q2 -2 1.5 -12.5t-2.5 -14.5q-40 -51 -114 -51q-69 0 -94 47q-10 18 -12 39.5
t-2 73.5q0 26 0.5 97.5t0.5 92.5q0 8 -5 10h-134q-5 0 -5 -6q0 -201 3 -270q1 -20 7.5 -29t21.5 -13q27 -6 45 -7q2 -3 0.5 -14.5t-4.5 -11.5q-12 0 -57 1.5t-77 1.5q-21 0 -57.5 -1.5t-44.5 -1.5q-3 3 -3 13t3 13q30 4 38 7q18 7 18 34q1 71 1 278q0 6 -5 6h-145
q-5 0 -5 -7l3 -270q1 -37 26 -43q17 -4 34 -5q2 -3 1 -13.5t-4 -12.5q-11 0 -45 1.5t-70 1.5q-22 0 -62 -1.5t-48 -1.5q-2 3 -2 12.5t2 12.5z" />
    <glyph glyph-name="f_h" unicode="fh" horiz-adv-x="763" 
d="M15 23q28 4 41 8q17 7 17 35q2 142 2 270q0 7 -5 7l-49 3q0 15 8 28q22 4 42 15q4 3 4 7q2 84 30 141.5t95 100.5q52 34 101 34q44 0 77 -16q8 -4 19 0q12 4 37 18q8 -4 8 -11q-7 -35 -7 -96v-213q0 -5 4 -3q73 55 130 55q60 0 92 -42t32 -119q0 -146 1 -188q0 -11 7 -18
q14 -11 51 -16q2 -3 0.5 -14t-3.5 -12q-5 0 -42 1.5t-71 1.5q-37 0 -100 -3q-2 3 -2 13t2 13q24 3 31 7q10 4 13.5 12.5t4.5 32.5q5 166 -5 207q-6 26 -26.5 43.5t-53.5 17.5q-32 0 -57 -16q-8 -5 -8 -15q0 -207 2 -236q1 -17 2.5 -24t6 -13t14.5 -9q18 -5 30 -7q2 -3 2 -13
t-2 -13q-7 0 -44 1.5t-66 1.5q-25 0 -60 -1.5t-45 -1.5q-2 3 -2 13t2 13q22 3 33 7q12 4 15.5 14.5t4.5 35.5q2 66 2 173q0 280 -2 302q0 27 -13 40q-25 33 -64 33q-23 0 -39 -16q-32 -31 -32 -168v-45q0 -7 6 -7l91 3q-4 -14 -8 -52q-14 0 -43 0.5t-41 0.5q-5 0 -5 -7
l3 -268q1 -20 7 -28.5t21 -12.5q20 -5 33 -5q1 -4 0 -14.5t-3 -11.5q-10 0 -47 1.5t-69 1.5q-17 0 -59 -1.5t-51 -1.5q-2 3 -2 12.5t2 13.5z" />
    <glyph glyph-name="f_i" unicode="fi" horiz-adv-x="504" 
d="M17 23q25 3 38 8q18 6 18 32q2 44 2 277q0 7 -6 7l-48 4q0 15 7 24q20 4 43 15q5 3 5 7q1 159 124 239q54 38 112 38q46 0 77 -18t41 -42q5 -13 0 -24q-5 -13 -19 -27.5t-27 -21.5q-15 -6 -25 2q-6 6 -32 38q-38 47 -77 47q-22 0 -38 -19q-32 -32 -32 -178v-32q0 -7 6 -7
l142 1q72 0 108 12q-2 -25 -2 -175q0 -118 1 -163q0 -18 4.5 -25.5t16.5 -11.5q7 -3 37 -7q2 -3 0 -13.5t-5 -12.5q-9 0 -45 1.5t-64 1.5q-31 0 -66 -1.5t-38 -1.5q-2 2 -2 13t2 13q22 3 32 7q17 6 18 38q2 46 2 145q0 105 -2 121q0 4 -3.5 9t-7.5 5h-129q-5 0 -5 -7
q1 -65 2 -159t1 -112q1 -36 26 -42q3 -1 33 -5q2 -4 1 -14t-3 -12q-6 0 -41.5 1.5t-72.5 1.5q-17 0 -58.5 -1.5t-50.5 -1.5q-2 2 -2 12.5t2 13.5z" />
    <glyph glyph-name="f_j" unicode="fj" horiz-adv-x="501" 
d="M17 23q25 3 38 8q18 6 18 32q2 44 2 277q0 7 -6 7l-48 4q0 15 7 24q20 4 43 15q5 3 5 7q2 160 124 240q56 37 111 37q46 0 77.5 -17.5t41.5 -42.5q2 -4 2 -12t-2 -12q-14 -31 -46 -49q-13 -6 -25 2q-8 7 -19 21t-14 18q-37 47 -75 47q-22 0 -41 -21q-30 -32 -30 -177
l1 -32q0 -7 5 -7l140 1q62 0 110 12v-160.5t-1 -161.5q-2 -84 -10 -125q-15 -77 -64.5 -137t-90.5 -79q-13 1 -26 12q-2 4 0 9q46 26 64 71.5t18 139.5v18q0 270 -5 342q0 14 -10 14h-125q-6 0 -6 -7q1 -46 1.5 -109t1 -103.5t1.5 -58.5q0 -20 5.5 -29t19.5 -13l35 -5
q2 -4 1 -14t-3 -12q-6 0 -42.5 1.5t-72.5 1.5q-17 0 -59 -1.5t-51 -1.5q-2 2 -2 12.5t2 13.5z" />
    <glyph glyph-name="f_k" unicode="fk" horiz-adv-x="729" 
d="M15 22q25 4 41 9q17 6 17 35q2 142 2 270q0 7 -5 7l-49 3q0 18 8 28q27 5 42 15q4 3 4 7q2 84 30.5 141.5t94.5 101.5q53 33 101 33q42 0 77 -16q9 -3 18 0q19 6 38 18q9 -3 9 -11q-7 -26 -7 -97q-2 -66 -2 -355q22 2 46 23q33 31 57 63.5t25 45.5q0 12 -15 16
q-8 2 -47 8q-1 4 0 14t3 12q105 -2 187 7q2 -2 2.5 -12t-1.5 -14q-55 -11 -76 -35q-38 -39 -85 -94v-4q17 -31 74.5 -102.5t87.5 -96.5q14 -11 25 -14t40 -5q1 -3 0 -13.5t-4 -12.5q-41 -7 -128 -4q-30 2 -47 19q-20 17 -116 151q-17 24 -28 25l2 -116q0 -24 5.5 -32
t21.5 -12q26 -5 32 -6q2 -3 0.5 -12.5t-3.5 -12.5q-10 0 -48 1.5t-66 1.5q-20 0 -53 -1.5t-49 -1.5q-1 2 -1.5 12.5t0.5 12.5q22 4 34 8q16 5 19 38q2 27 2 175q0 285 -1 313q-2 26 -14 40q-26 32 -64 32q-24 0 -39 -17q-33 -29 -33 -165q0 -35 1 -47q0 -7 6 -7l91 3
q-4 -13 -9 -52q-14 0 -42.5 0.5t-40.5 0.5q-5 0 -5 -7l3 -268q0 -20 6 -29t21 -13q10 -2 34 -5q1 -3 0 -13.5t-3 -11.5q-10 0 -47 1.5t-69 1.5q-16 0 -58.5 -1.5t-51.5 -1.5q-2 3 -2 12.5t2 12.5z" />
    <glyph glyph-name="f_l" unicode="fl" horiz-adv-x="507" 
d="M16 23q30 4 40 8q18 7 18 35l2 270q0 7 -6 7l-49 3q0 15 8 28q28 5 42 15q5 3 5 8q1 82 29 140.5t95 101.5q50 33 100 33q48 0 79 -16q7 -4 18 0q10 4 37 18q9 -4 9 -11q-7 -26 -7 -92q-1 -22 -1 -58t-0.5 -89.5t-0.5 -89.5q0 -228 2 -266q1 -30 21 -38q10 -3 39 -7
q2 -4 1 -13t-4 -13q-7 0 -47 1.5t-69 1.5q-24 0 -60 -1.5t-42 -1.5q-1 4 -1 13t1 12q26 4 35 8q15 7 16 37q2 25 2 262q0 206 -1 227q-2 29 -13 40q-23 32 -64 32q-22 0 -38 -16q-33 -30 -33 -161q0 -40 1 -52q0 -7 6 -7l92 3q-4 -13 -9 -52q-14 0 -43 0.5t-41 0.5
q-5 0 -5 -7q2 -247 3 -267q1 -35 28 -42q22 -5 33 -5q1 -3 0 -14t-2 -12q-10 0 -47 1.5t-69 1.5q-14 0 -57 -1.5t-53 -1.5q-2 3 -2 12.5t2 13.5z" />
    <glyph glyph-name="f_t" unicode="ft" horiz-adv-x="550" 
d="M17 23q31 4 38 8q19 6 19 35q0 180 1 271q0 8 -5 8l-50 3q0 17 9 26q27 5 43 15q4 3 4 7q1 84 27.5 141t90.5 100q56 37 98 37q62 0 82 -34v-14q-5 -13 -19.5 -34t-23.5 -29h-11q-55 59 -90 59q-18 0 -28 -13q-22 -24 -22 -149v-61q0 -7 6 -7h129q5 2 5 7v82q21 7 52 24
t42 27q10 2 18 2q-4 -38 -4 -134q0 -8 4 -8q55 0 107 5q-7 -37 -8 -54q-16 0 -50.5 0.5t-49.5 0.5q-5 0 -5 -6q0 -21 -0.5 -88.5t-0.5 -90.5q0 -47 6 -71q8 -37 51 -37q32 0 54 14q2 -2 2 -11.5t-2 -14.5q-40 -51 -110 -51q-68 0 -93 47q-10 18 -12 39.5t-2 73.5
q0 27 0.5 98t0.5 90q0 8 -6 10h-129q-5 0 -5 -7q1 -46 1.5 -107t1 -99.5t1.5 -58.5q1 -36 27 -43q7 -2 49 -9q1 -2 -1 -12.5t-3 -12.5q-12 0 -55 1.5t-81 1.5q-19 0 -56.5 -1.5t-46.5 -1.5q-2 2 -2 12.5t2 13.5z" />
    <glyph glyph-name="longs_b" unicode="&#x17f;b" horiz-adv-x="750" 
d="M15 22q23 3 41 9q17 6 17 34q2 142 2 272q0 7 -5 7l-49 3q0 18 8 28q24 4 42 15q4 2 4 7q3 165 124 242q52 33 97 33q44 0 75 -15q7 -4 18 0q14 5 38 17q8 -4 8 -10q-7 -28 -7 -95v-204q0 -1 2 -2t3 0q86 43 128 43q67 0 109 -49q44 -49 44 -128q0 -114 -88 -182
q-28 -21 -83.5 -40t-88.5 -19q-76 0 -140 27q5 33 5 63q2 100 2 181q0 258 -2 297q0 27 -12 41q-25 31 -58 31q-20 0 -34 -16q-35 -32 -35 -185v-86q0 -46 0.5 -108.5t1 -102.5t0.5 -60q1 -35 29 -41q24 -6 37 -6q2 -3 0.5 -14t-3.5 -12q-10 0 -48.5 1.5t-71.5 1.5
q-14 0 -57 -1.5t-53 -1.5q-1 3 -1 12.5t1 12.5zM483 348q-26 0 -46 -10q-8 -2 -8 -14q-6 -120 1 -216q3 -41 17 -53q24 -23 66 -23q36 0 60 29q31 38 31 116q0 80 -33 125q-33 46 -88 46z" />
    <glyph glyph-name="longs_h" unicode="&#x17f;h" horiz-adv-x="759" 
d="M15 23q27 4 40 8q18 6 18 34q2 142 2 272q0 7 -5 7l-49 3q0 18 8 28q24 4 42 15q4 3 4 7q2 82 30 140.5t94 101.5q50 33 95 33q40 0 78 -15q7 -4 18 0q10 3 38 17q8 -4 8 -10q-7 -28 -7 -95q0 -149 -1 -215q0 -6 5 -3q73 55 130 55q60 0 92 -42t32 -119v-59v-76.5v-52.5
q0 -11 8 -18q14 -11 51 -16q1 -4 0 -14.5t-3 -11.5q-5 0 -42.5 1.5t-70.5 1.5q-35 0 -101 -3q-2 3 -2 13t2 13q22 3 31 7q11 4 14.5 12.5t4.5 32.5q3 175 -5 207q-6 26 -26.5 43.5t-53.5 17.5q-32 0 -57 -16q-8 -5 -8 -16q0 -221 1 -235q1 -16 2.5 -23.5t6.5 -13.5t14 -9
q20 -6 32 -7q2 -3 1.5 -13t-2.5 -13q-8 0 -45 1.5t-66 1.5q-25 0 -60 -1.5t-45 -1.5q-2 3 -2 13t2 13q20 3 33 7q12 4 15.5 14.5t4.5 35.5q2 33 2 218q0 200 -3 260q0 26 -13 41q-24 29 -57 29q-19 1 -34 -15q-37 -35 -37 -196l1 -77l3 -270q0 -21 6 -30t21 -12q22 -5 31 -5
q1 -4 0 -14.5t-3 -11.5q-6 0 -41.5 1.5t-71.5 1.5q-17 0 -59 -1.5t-51 -1.5q-2 3 -2 12.5t2 13.5z" />
    <glyph glyph-name="longs_i" unicode="&#x17f;i" horiz-adv-x="500" 
d="M17 22q26 4 38 9q18 6 18 32q2 140 2 275q0 5 -6 7l-49 3q0 14 8 27q20 3 43 15q5 4 5 8q2 158 124 239q56 37 111 37q45 0 76.5 -17.5t42.5 -42.5q2 -4 2 -12t-2 -13q-13 -31 -46 -47q-4 -2 -12.5 -2t-12.5 3q-6 5 -11.5 11.5t-11.5 15t-11 13.5q-38 45 -76 45
q-22 0 -38 -19q-32 -37 -31 -211q0 -246 4 -328q0 -20 5.5 -29t19.5 -13q10 -2 31 -6q2 -3 1 -13t-3 -12q-10 0 -44.5 1.5t-66.5 1.5q-17 0 -58.5 -1.5t-51.5 -1.5q-2 2 -2 12.5t2 12.5zM489 22q0 -20 -5 -25q-7 0 -44 1.5t-66 1.5q-28 0 -64 -1.5t-43 -1.5q-1 3 -1 13t1 12
q25 4 37 8q16 6 17 40q2 23 2 143q0 77 -1 94q-2 16 -5 19q-9 13 -41 26q-1 2 -0.5 11.5t1.5 11.5q22 0 72.5 9.5t81.5 22.5q1 -20 0 -84t-1 -85q0 -124 1 -169q1 -33 20 -38q15 -6 38 -9z" />
    <glyph glyph-name="longs_k" unicode="&#x17f;k" horiz-adv-x="727" 
d="M15 23q30 4 40 8q18 7 18 34q2 142 2 272q0 7 -5 7l-49 3q0 18 8 28q24 4 42 15q4 3 4 7q2 82 30 140.5t94 101.5q52 33 94 33q41 0 79 -15q7 -4 18 0q10 3 38 17q8 -4 8 -10q-7 -28 -7 -95v-359q23 3 46 24q33 31 56.5 63.5t24.5 45.5q0 12 -16 17q-28 7 -47 7
q-1 3 0 13t3 12q110 -2 187 8q2 -1 2.5 -11.5t-1.5 -14.5q-54 -11 -76 -33q-3 -4 -83 -96q-3 -1 0 -4q17 -32 73.5 -103t85.5 -96q24 -18 65 -20q2 -2 0.5 -12.5t-3.5 -12.5q-43 -7 -129 -4q-28 2 -46 20q-24 22 -114 150q-17 24 -28 25q0 -81 1 -116q1 -24 6.5 -32
t21.5 -12q22 -4 32 -5q3 -16 -4 -26q-10 0 -47 1.5t-66 1.5q-20 0 -54.5 -1.5t-50.5 -1.5q-2 3 -2 13.5t2 12.5q24 3 34 7q18 5 19 38q2 27 2 171q0 259 -3 319q0 26 -12 40q-26 30 -58 30q-20 0 -34 -15q-37 -35 -37 -199l1 -74l3 -270q0 -35 28 -42q22 -5 30 -5
q1 -3 0.5 -13.5t-2.5 -12.5q-7 0 -42.5 1.5t-71.5 1.5q-16 0 -58 -1.5t-52 -1.5q-1 3 -1 13t1 13z" />
    <glyph glyph-name="longs_l" unicode="&#x17f;l" horiz-adv-x="503" 
d="M15 23q25 3 40 9q18 6 18 33l2 272q0 6 -6 8l-49 2q0 17 9 28q23 4 41 15q5 2 5 7q2 162 125 242q50 33 96 33t77 -15q7 -4 18 0q14 5 38 17q8 -4 8 -10q-7 -37 -7 -95q0 -32 -0.5 -116t-0.5 -117q0 -222 2 -263q2 -21 5.5 -29.5t15.5 -13.5q3 -1 39 -7q5 -13 -3 -26
q-10 0 -47.5 1.5t-69.5 1.5q-20 0 -55.5 -1.5t-47.5 -1.5q-2 4 -2 13.5t2 12.5q24 3 36 8q16 5 18 44q1 37 1 258q0 207 -1 227q-2 27 -13 40q-24 29 -59 29q-20 0 -35 -15q-35 -34 -35 -208v-88q0 -44 0.5 -102.5t0.5 -92t1 -53.5q1 -21 7 -29.5t20 -12.5q22 -5 30 -5
q1 -3 0 -14t-3 -12q-6 0 -40.5 1.5t-70.5 1.5q-14 0 -57 -1.5t-53 -1.5q-2 3 -2 12.5t2 13.5z" />
    <glyph glyph-name="longs_longs" unicode="&#x17f;&#x17f;" horiz-adv-x="504" 
d="M16 22q28 4 38 8q20 8 20 34q1 71 1 273q0 7 -5 7l-49 3q0 19 7 28q25 5 44 15q4 3 4 8q5 141 123 219q55 36 107 36q58 0 104 -35q4 -4 7 0q60 56 125 56q57 0 76 -33q2 -6 0 -15q-10 -26 -40 -56q-6 -2 -12 0q-52 55 -85 55q-32 0 -42 -50.5t-10 -190.5q2 -288 4 -312
q1 -36 28 -42q23 -6 35 -7q1 -3 0 -14.5t-4 -11.5q-12 0 -52 1.5t-70 1.5q-19 0 -55.5 -1.5t-45.5 -1.5q-2 3 -2 13t2 13q25 3 36 7q18 6 18 33q1 71 1 274q0 7 -6 7l-50 3q0 17 9 28q17 3 43 16q5 3 5 10q2 79 28 143q-43 65 -97 65q-37 0 -56.5 -44t-19.5 -152
q0 -270 3 -342q1 -37 26 -43q16 -4 32 -5q2 -3 1 -13.5t-3 -12.5q-12 0 -45.5 1.5t-68.5 1.5q-22 0 -61.5 -1.5t-47.5 -1.5q-2 3 -2 12.5t2 12.5z" />
    <glyph glyph-name="longs_longs_i" unicode="&#x17f;&#x17f;i" horiz-adv-x="760" 
d="M16 22q25 4 39 9q18 6 18 34l2 272q0 7 -6 7l-49 3q0 17 9 28q22 4 42 15q5 4 5 8q7 143 119 217q59 39 117 39t104 -39q4 -3 7 0q70 59 144 59q46 0 77.5 -17.5t42.5 -43.5q1 -3 1 -11.5t-1 -13.5q-13 -30 -44 -47q-5 -2 -13.5 -1.5t-12.5 3.5q-9 8 -34 39
q-38 48 -75 48q-21 0 -38 -18q-18 -19 -26 -65.5t-7 -145.5q0 -260 3 -329q2 -21 6 -29.5t18 -12.5q29 -7 34 -7q1 -4 0.5 -14.5t-3.5 -11.5q-13 0 -50 1.5t-67 1.5q-19 0 -56 -1.5t-46 -1.5q-2 3 -2 13t2 13q27 4 37 7q18 8 18 34q1 71 1 272q0 8 -6 8l-50 3q0 17 9 28
q17 3 43 16q3 2 5 9q3 87 29 141q-18 34 -46.5 51t-56.5 17q-38 0 -59 -41.5t-21 -153.5q0 -247 4 -343q0 -21 5 -30t20 -12q21 -5 35 -6q2 -3 1 -13.5t-4 -12.5q-3 0 -40.5 1.5t-74.5 1.5q-23 0 -62.5 -1.5t-46.5 -1.5q-2 3 -2 12.5t2 12.5zM751 23q3 -18 -5 -26
q-7 0 -45 1.5t-67 1.5t-62.5 -1.5t-40.5 -1.5q-2 3 -2.5 13.5t1.5 12.5q18 3 33 7q18 6 19 40q2 46 2 143q0 63 -2 97q0 12 -4 19q-9 12 -42 24q-2 9 2 22q21 0 71.5 9.5t82.5 22.5q-2 -72 -2 -169q0 -124 1 -169q1 -32 20 -38q9 -3 40 -8z" />
    <glyph glyph-name="longs_longs_l" unicode="&#x17f;&#x17f;l" horiz-adv-x="760" 
d="M14 22q31 4 41 9q18 6 18 34q1 70 1 272q0 7 -5 7l-49 3q0 15 8 28q24 4 42 14q5 4 5 8q4 70 31 123.5t91 95.5q56 38 114 38q56 0 105 -38q4 -4 6 0q71 58 144 58q38 0 70 -17q6 -2 11 0q27 7 46 17q6 -6 6 -11q-8 -21 -8 -93q-1 -25 -1 -234q0 -238 2 -263
q1 -16 2.5 -23t5.5 -11.5t13 -7.5q13 -5 38 -8q2 -4 1 -13t-3 -13q-11 0 -48 1.5t-69 1.5q-20 0 -55 -1.5t-47 -1.5q-2 3 -2 12.5t1 13.5q23 3 37 9q15 6 16 42q2 38 2 255q0 216 -2 244q-2 19 -12 28q-25 29 -63 29q-23 0 -39 -19q-18 -20 -25.5 -65.5t-6.5 -143.5
q2 -311 3 -330q1 -36 25 -43q21 -5 34 -6q1 -4 0 -15t-4 -11q-13 0 -49.5 1.5t-66.5 1.5q-22 0 -58 -1.5t-44 -1.5q-3 3 -3 13t3 13q21 3 36 8q19 7 19 33q0 33 0.5 129t0.5 145q0 6 -5 6l-50 3q0 18 9 29q24 4 42 15q3 1 5 7q3 86 26 137q2 7 0 12q-15 27 -43.5 44.5
t-59.5 17.5q-38 0 -57.5 -43t-19.5 -152q0 -274 3 -343q1 -21 6.5 -29.5t20.5 -12.5q21 -5 35 -6q2 -3 0.5 -13.5t-3.5 -12.5q-3 0 -41.5 1.5t-75.5 1.5q-22 0 -62 -1.5t-48 -1.5q-2 3 -2 12.5t2 12.5z" />
    <glyph glyph-name="t_t" unicode="tt" horiz-adv-x="569" 
d="M557 64q1 -2 0.5 -11.5t-1.5 -13.5q-40 -51 -110 -51t-93 47q-10 18 -12 39.5t-2 73.5q0 27 0.5 97t0.5 89q0 10 -6 10l-154 1q-4 0 -4 -6q0 -22 -0.5 -89.5t-0.5 -90.5q0 -44 5 -71q10 -37 51 -37q33 0 55 13q1 -2 0.5 -11.5t-1.5 -13.5q-39 -51 -110 -51q-69 0 -93 47
q-10 18 -12 39.5t-2 73.5q0 27 0.5 97t0.5 89q0 10 -6 11l-48 3q2 12 7 27q27 4 42 15q5 2 5 7v83q22 7 52.5 24t40.5 27q14 3 18 2q-4 -38 -4 -132q0 -7 5 -7h154q5 2 5 7v93q21 6 52 23.5t42 27.5q10 2 17 1q-4 -36 -4 -145q0 -7 5 -7q67 0 107 4q-5 -26 -7 -54
q-16 0 -50 0.5t-51 0.5q-4 0 -4 -6q0 -22 -0.5 -89.5t-0.5 -90.5q0 -44 5 -71q10 -37 51 -37q33 0 55 13z" />
    <glyph glyph-name="u0162_u0068" unicode="&#x162;h" horiz-adv-x="1014" 
d="M161 23q32 3 59 9q19 4 26.5 18t9.5 51q4 87 4 455q0 2 -2.5 5.5t-4.5 3.5q-12 1 -57 0.5t-62 -1.5q-31 -1 -48 -31q-18 -31 -37 -83q-3 -3 -15 0t-13 7q13 69 18 162q10 0 15 -2q34 -11 79 -11h439q6 0 6 6l-1 40q0 2 2.5 5.5t4.5 3.5q23 1 45 5t36.5 8t15.5 4q6 0 6 -6
q0 -2 -0.5 -16t-0.5 -44v-69q-1 -43 -1 -189q0 -2 1.5 -3t2.5 0q75 55 131 55q60 0 92 -41.5t32 -118.5q0 -147 1 -189q0 -11 8 -18q14 -11 50 -16q2 -3 1 -14t-4 -12q-4 0 -42 1.5t-71 1.5q-37 0 -100 -3q-2 3 -2 13t2 13q24 3 31 7q10 4 13.5 12.5t4.5 32.5q5 164 -4 205
q-6 27 -27 44.5t-54 17.5q-31 0 -57 -16q-8 -6 -8 -16q0 -205 2 -234q1 -16 2 -23.5t6 -13.5t14 -9q21 -6 31 -7q2 -3 2 -13t-2 -13q-7 0 -45 1.5t-66 1.5q-25 0 -61 -1.5t-45 -1.5q-2 4 -2 13.5t2 12.5q22 3 34 7q8 2 12 8.5t5.5 15t2.5 26.5q2 66 2 173q0 267 -1 298
q-2 11 -12 13q-26 1 -98.5 1t-86.5 -1q-5 -2 -5 -9q0 -409 3 -471q2 -25 8 -36t21 -16q10 -3 58 -9q2 -3 1 -13.5t-3 -12.5q-26 0 -73.5 1.5t-72.5 1.5q-28 0 -82 -1.5t-76 -1.5q-2 3 -2 13t2 13zM328 -34q16 0 33 -19.5t17 -50.5q0 -46 -33.5 -77.5t-86.5 -45.5q-2 1 -6 10
t-3 12q38 17 52 32.5t14 36.5q0 36 -55 53q-4 4 0 16q10 10 30.5 21.5t37.5 11.5z" />
    <glyph glyph-name="Tcaron_h" unicode="&#x164;h" horiz-adv-x="1014" 
d="M161 23q32 3 59 9q19 4 26.5 18t9.5 51q4 87 4 455q0 2 -2.5 5.5t-4.5 3.5q-12 1 -57 0.5t-62 -1.5q-31 -1 -48 -31q-18 -31 -37 -83q-3 -3 -15 0t-13 7q13 69 18 162q10 0 15 -2q34 -11 79 -11h439q6 0 6 6l-1 40q0 2 2.5 5.5t4.5 3.5q23 1 45 5t36.5 8t15.5 4q6 0 6 -6
q0 -2 -0.5 -16t-0.5 -44v-69q-1 -43 -1 -189q0 -2 1.5 -3t2.5 0q75 55 131 55q60 0 92 -41.5t32 -118.5q0 -147 1 -189q0 -11 8 -18q14 -11 50 -16q2 -3 1 -14t-4 -12q-4 0 -42 1.5t-71 1.5q-37 0 -100 -3q-2 3 -2 13t2 13q24 3 31 7q10 4 13.5 12.5t4.5 32.5q5 164 -4 205
q-6 27 -27 44.5t-54 17.5q-31 0 -57 -16q-8 -6 -8 -16q0 -205 2 -234q1 -16 2 -23.5t6 -13.5t14 -9q21 -6 31 -7q2 -3 2 -13t-2 -13q-7 0 -45 1.5t-66 1.5q-25 0 -61 -1.5t-45 -1.5q-2 4 -2 13.5t2 12.5q22 3 34 7q8 2 12 8.5t5.5 15t2.5 26.5q2 66 2 173q0 267 -1 298
q-2 11 -12 13q-26 1 -98.5 1t-86.5 -1q-5 -2 -5 -9q0 -409 3 -471q2 -25 8 -36t21 -16q10 -3 58 -9q2 -3 1 -13.5t-3 -12.5q-26 0 -73.5 1.5t-72.5 1.5q-28 0 -82 -1.5t-76 -1.5q-2 3 -2 13t2 13zM330 649q-3 -5 -16 -5q-9 10 -61 53t-72 57q0 3 5.5 11.5t7.5 8.5
q4 0 58 -23t68 -30q4 -2 9 0q15 9 63.5 31t52.5 22q3 0 7.5 -8t3.5 -12q-110 -88 -126 -105z" />
    <glyph glyph-name="gamma_gamma" unicode="&#x3b3;&#x3b3;" horiz-adv-x="840" 
d="M9 276q-2 2 -3.5 13t0.5 14q28 48 71.5 75.5t76.5 27.5q63 0 92.5 -65.5t23.5 -226.5q0 -4 4 -3q1 0 2 3q40 152 102 230q54 62 115 62q68 0 100 -63.5t28 -226.5q0 -3 4 -3q2 0 2 3q21 89 48 154t47 90q34 46 68 46q16 0 36 -14.5t26 -27.5q0 -13 -3 -18
q-47 -2 -93.5 -57t-75.5 -122.5t-41 -128.5q-7 -35 -7 -48q-1 -48 -0.5 -94t0 -82t-1.5 -39q-5 -11 -19 -11q-19 0 -50.5 19t-31.5 35q0 17 44 170q8 30 7 53q0 71 -10 125.5t-37.5 92.5t-71.5 38q-109 0 -171 -251q-8 -30 -8 -61q-2 -28 -4.5 -85t-4.5 -96.5t-5 -51.5
q-3 -10 -19 -10q-20 0 -52 21t-32 36t56 183q8 22 8 59q1 67 -10.5 122.5t-44.5 96.5t-85 41q-39 0 -80 -25z" />
    <glyph glyph-name="u03BB_u03BB" unicode="&#x3bb;&#x3bb;" horiz-adv-x="780" 
d="M333 -15q-46 0 -70 52q-9 20 -21 60.5t-20.5 74t-19.5 78t-12 49.5h-5q-48 -94 -80 -236q-8 -34 -5 -78q0 -4 -6 -4q-26 0 -53 11.5t-26 21.5q0 30 37 104q15 34 59 124t57 118q4 10 2 21q-10 48 -21 77q-22 63 -47.5 85.5t-57.5 22.5q-34 0 -56 -11q-3 2 -5 9.5t0 10.5
q19 29 54 48.5t67 19.5q51 0 80 -44.5t71 -183.5q59 -202 79 -260q16 -43 27 -56.5t23 -13.5q16 0 33 32q23 42 55.5 120.5t48.5 130.5q4 11 2 23q-6 49 -23 90q-24 61 -54 85.5t-71 24.5q-39 0 -73 -21q-3 1 -5.5 9t-0.5 11q25 37 65 60t74 23q56 0 93 -49t76 -181
q74 -251 87 -288q18 -52 34.5 -69t36.5 -17q19 0 34 10q2 -2 2.5 -11.5t-1.5 -12.5q-19 -28 -53 -47.5t-68 -19.5q-32 0 -52 42q-10 20 -23 62t-22.5 78t-19.5 77.5t-11 44.5h-5q-50 -133 -99 -219q-49 -88 -111 -88z" />
    <glyph glyph-name=".notdef" horiz-adv-x="495" 
d="M0 0v693h495v-693h-495zM248 391l168 253h-337zM277 347l169 -253v505zM79 50h337l-168 252zM50 599v-505l168 253z" />
    <glyph glyph-name=".null" horiz-adv-x="0" 
 />
    <glyph glyph-name="nonmarkingreturn" horiz-adv-x="333" 
 />
    <glyph glyph-name="space" unicode=" " horiz-adv-x="169" 
 />
    <glyph glyph-name="exclam" unicode="!" horiz-adv-x="293" 
d="M206 603q17 0 25 -10q0 -12 -9 -80t-23 -170t-20 -152q-4 -2 -16.5 0.5t-14.5 5.5q-5 36 -30 186t-27 175q-2 6 3.5 17t12.5 14q17 6 50.5 10.5t48.5 3.5zM167 119q27 0 43 -16q22 -19 22 -52q0 -25 -18 -45q-19 -19 -52 -19q-25 0 -43 17q-18 19 -18 49q0 25 21 48
q20 18 45 18z" />
    <glyph glyph-name="quotedbl" unicode="&#x22;" horiz-adv-x="311" 
d="M129 617q0 -40 -8 -100.5t-14 -74.5q-8 -22 -30 -42q-2 -1 -6 -1.5t-5 0.5q-4 182 -19 224q5 5 31.5 20.5t35.5 16.5l10 -2q5 -8 5 -41zM265 624q0 -44 -8 -101t-15 -72q-8 -23 -29 -44q-1 -1 -6 -0.5t-6 1.5q-4 176 -18 216q5 6 33 23.5t35 17.5q1 0 5 -1h4q5 -8 5 -40z
" />
    <glyph glyph-name="numbersign" unicode="#" horiz-adv-x="435" 
d="M281 457l27 127q10 8 34 13q2 0 5 -3l-30 -133q0 -4 4 -4q69 0 93 4q1 -4 -2 -15.5t-5 -14.5q-28 -36 -99 -37q-2 0 -6 -4l-21 -95q0 -4 4 -4q64 0 91 5q1 -2 -1 -13.5t-4 -15.5q-35 -43 -100 -43q-4 0 -4 -5q-23 -111 -28 -136q-1 -2 -6 -2q-2 0 -13.5 8t-12.5 10
l27 125h-90q-4 0 -4 -4q-5 -20 -17 -73t-15 -65q-1 -2 -6 -2q-4 1 -15 9t-12 10q3 13 14 58.5t15 66.5q-76 0 -88 3q-2 5 7.5 36t13.5 32q29 -4 81 -4l23 103q-67 0 -85 4q-2 6 7.5 33.5t14.5 29.5q42 -2 76 -2l24 116q0 1 15.5 6.5t18.5 5.5q2 0 5 -3l-26 -120q0 -4 3 -6z
M268 394h-87q-4 0 -6 -4l-21 -93q0 -6 3 -6h88z" />
    <glyph glyph-name="dollar" unicode="$" horiz-adv-x="485" 
d="M159 473q0 -58 73 -100q3 -2 6 2l17 186q0 4 -3 4q-93 -11 -93 -92zM253 226l-19 -191l3 -3q38 1 66.5 23.5t29.5 65.5q1 36 -16.5 59.5t-59.5 48.5q-4 2 -4 -3zM191 -81l8 78q0 4 -4 4q-59 5 -129 29q-7 12 -14.5 55.5t-9.5 73.5q1 2 11.5 5.5t14.5 2.5q22 -72 52 -99
t79 -35q4 0 4 3l20 203q-1 6 -4 7q-80 47 -115.5 84.5t-35.5 99.5q0 75 51 118t135 44q5 0 5 3l7 70q3 2 15.5 4.5t17.5 1.5l-8 -75q0 -4 3 -4q12 -1 74 -9q42 -6 53 -6q-13 -70 -19 -122q-1 -3 -13 -3.5t-13 1.5q-3 58 -21 81t-65 29q-3 0 -3 -3l-20 -199q1 -5 5 -7
q89 -48 117 -74q48 -45 48 -107q0 -73 -52.5 -118.5t-149.5 -52.5q-4 0 -4 -3l-7 -74q-4 -2 -16 -4.5t-17 -1.5z" />
    <glyph glyph-name="percent" unicode="%" horiz-adv-x="685" 
d="M136 26q66 99 192 289t192 289q18 11 38 11q5 0 5 -6q-20 -25 -199.5 -296.5t-209.5 -314.5q-1 -1 -3.5 -1t-3.5 1q-11 15 -11 28zM528 349q53 0 84.5 -42.5t31.5 -100.5q0 -98 -54 -143q-47 -40 -104 -40q-54 0 -86.5 42.5t-32.5 103.5q0 87 49 136q48 44 112 44z
M504 318q-28 0 -40.5 -36t-12.5 -82q0 -73 20 -107.5t47 -34.5q57 0 57 113q0 65 -18 106t-53 41zM201 589q57 0 87 -41.5t30 -100.5q0 -96 -57 -143q-47 -40 -103 -40q-53 0 -85.5 40.5t-32.5 106.5q0 85 50 133q47 45 111 45zM178 559q-28 0 -40.5 -36t-12.5 -83
q0 -72 19.5 -107t46.5 -35q57 0 57 114q0 65 -18 106t-52 41z" />
    <glyph glyph-name="ampersand" unicode="&#x26;" horiz-adv-x="719" 
d="M274 579q-27 0 -45 -21.5t-18 -61.5q0 -68 74 -129h5l1 1q54 49 54 118q0 38 -19 65.5t-52 27.5zM201 296q-3 2 -5 0q-42 -44 -42 -95q0 -56 45.5 -97.5t109.5 -41.5q68 0 107 43q3 2 1 4q-139 111 -216 187zM291 608q61 0 101 -35.5t40 -87.5q0 -38 -28 -67t-94 -69
q-2 -3 0 -5q64 -61 177 -142q4 -2 7 1q37 57 53 112q9 29 -14 39q-15 5 -46 10q-4 1 -3 12t4 13q5 0 36.5 -1.5t55.5 -1.5q37 0 70 2l32 1q2 -2 1.5 -13t-3.5 -13q-16 -3 -38 -9q-24 -7 -41 -31q-19 -29 -45 -75.5t-37 -61.5q-2 -1 1 -5q130 -91 152 -117q0 -17 -23 -54.5
t-36 -50.5q-9 -4 -17 0q-6 11 -32 34q-62 51 -117 93q-2 2 -5 0q-92 -101 -200 -101q-84 0 -139 49t-55 128q0 41 26.5 72.5t103.5 81.5q4 4 0 6q-54 61 -54 132q0 65 48.5 109.5t118.5 44.5z" />
    <glyph glyph-name="quotesingle" unicode="'" horiz-adv-x="177" 
d="M130 619q0 -40 -8 -100.5t-14 -75.5q-10 -26 -32 -43q-9 -2 -12 -1q0 64 -5 134.5t-12 89.5q5 5 32.5 20.5t36.5 16.5q8 0 10 -3q4 -5 4 -38z" />
    <glyph glyph-name="parenleft" unicode="(" horiz-adv-x="384" 
d="M77 270q0 163 69 289t179 199q3 -1 9 -8.5t5 -10.5q-87 -79 -134 -186.5t-47 -266.5q0 -310 171 -469q1 -3 -6 -11t-11 -9q-28 13 -65 50t-76.5 95t-66.5 145.5t-27 182.5z" />
    <glyph glyph-name="parenright" unicode=")" horiz-adv-x="384" 
d="M308 283q0 -163 -69 -287.5t-179 -198.5q-4 1 -10.5 9.5t-5.5 10.5q90 88 136 194t46 258q0 311 -172 469q-1 3 6.5 11t10.5 9q30 -14 67.5 -51t77 -94.5t66 -145.5t26.5 -184z" />
    <glyph glyph-name="asterisk" unicode="*" horiz-adv-x="348" 
d="M206 535q54 19 117 47q2 -1 4 -4.5t1 -4.5q-12 -27 -23 -34q-24 -13 -89 -39q15 -15 50.5 -42.5t49.5 -33.5q0 -6 -4 -10q-6 -3 -22 -4.5t-25 1.5q-20 11 -45.5 30t-29.5 21q-22 -91 -23 -121q-1 -1 -6 -1q-11 1 -21 16t-9 30q8 53 16 89l-121 -41q-3 2 -6 7q5 9 14 22
t14 14q17 7 42 16t44 16q-28 20 -79 75q-7 9 -1 14q23 17 40 17q19 -24 69 -70q17 85 22 100q3 5 20 8.5t28 3.5q4 -4 3 -6q-4 -11 -10.5 -36t-12.5 -50.5t-7 -29.5z" />
    <glyph glyph-name="plus" unicode="+" horiz-adv-x="507" 
d="M467 248q-6 -41 -15 -43q-4 -1 -32.5 -1h-69.5t-66 -1q-7 0 -7 -7v-70t0.5 -69.5t-0.5 -35.5q-1 -5 -47 -19q-7 0 -7 2v37v73v89h-182q-1 0 -1 9q3 24 11 48q5 -1 108 -1h64v61q0 93 -2 119q33 11 52 11q4 0 4 -32v-35v-59.5v-55.5q0 -9 6 -9h183z" />
    <glyph glyph-name="comma" unicode="," horiz-adv-x="210" 
d="M3 -154q-4 4 -2 6q82 77 79 147q-1 33 -36 80q7 12 35 36.5t40 28.5q1 2 8.5 2t9.5 -2q9 -7 17.5 -29.5t9.5 -48.5q2 -67 -43.5 -134t-93.5 -94q-4 -1 -12.5 2t-11.5 6z" />
    <glyph glyph-name="hyphen" unicode="-" horiz-adv-x="283" 
d="M49 234q73 0 198 5q1 -1 1.5 -5t-0.5 -6q-1 -10 -7 -31t-10 -22q-16 -6 -195 -6q-2 0 -2 10q7 55 15 55z" />
    <glyph glyph-name="period" unicode="." horiz-adv-x="210" 
d="M106 125q25 0 44 -17q21 -20 21 -53q0 -29 -18 -47q-20 -20 -51 -20q-24 0 -43 19q-19 18 -19 50q0 28 20 48t46 20z" />
    <glyph glyph-name="slash" unicode="/" horiz-adv-x="447" 
d="M398 683q3 -1 4 -4q-7 -28 -141.5 -368t-170.5 -406q-3 -5 -18.5 -13t-23.5 -10q-6 0 -6 5q48 103 162.5 392.5t151.5 391.5q1 3 18 7.5t24 4.5z" />
    <glyph glyph-name="zero" unicode="0" horiz-adv-x="485" 
d="M255 599q89 0 134 -61q65 -76 65 -230q0 -208 -104 -283q-47 -37 -113 -37q-71 0 -116 35q-90 71 -90 271q0 171 87 251q57 54 137 54zM236 568q-23 0 -38 -17q-49 -49 -49 -232q0 -298 104 -298q24 0 40 16q44 48 44 250q0 134 -26.5 207.5t-74.5 73.5z" />
    <glyph glyph-name="one" unicode="1" horiz-adv-x="485" 
d="M393 23q2 -2 1 -13t-4 -13q-12 0 -63 1.5t-85 1.5q-40 0 -85 -1.5t-53 -1.5q-2 2 -2.5 12.5t2.5 12.5q12 2 27.5 4t23.5 3q20 5 26.5 19.5t7.5 43.5q1 22 3 203q0 154 -3 190q-2 31 -24 35q-21 3 -49 5q-2 4 -1.5 13.5t2.5 12.5q96 7 181 48q2 1 7 -1.5t5 -4.5
q-4 -48 -4 -189q0 -242 3 -308q2 -32 8 -47t24 -19q15 -3 52 -7z" />
    <glyph glyph-name="two" unicode="2" horiz-adv-x="485" 
d="M170 511q-64 0 -119 -63q-3 -1 -11 7t-7 12q35 58 88 95t109 37q67 0 114 -49t47 -129q0 -95 -110 -211q-26 -28 -110 -108q-3 -6 3 -7q80 -9 195 -4q39 2 75 81q4 1 14 -2.5t11 -6.5q-7 -33 -26.5 -87t-33.5 -70q-6 -8 -47 -9t-134.5 1t-125.5 2q-34 0 -62 -2
q-4 10 -2 23q106 88 170 173q71 97 71 188q0 55 -27.5 92t-81.5 37z" />
    <glyph glyph-name="three" unicode="3" horiz-adv-x="485" 
d="M243 599q62 0 102.5 -39.5t40.5 -97.5q0 -66 -93 -126q-2 -2 0 -4q143 -45 143 -159q0 -50 -26 -94t-71 -73q-71 -48 -161 -48q-57 0 -88 16q-24 13 -34 37q-14 38 -16 74q1 3 10 7t12 4q22 -56 70 -84q33 -20 85 -20q43 0 75.5 32t32.5 92q0 65 -38.5 105.5t-105.5 40.5
q-15 0 -33 -2q-1 4 6.5 23t11.5 21q64 16 92.5 42t28.5 68q0 44 -25.5 75.5t-74.5 31.5q-56 0 -113 -54q-4 -1 -9.5 8t-4.5 13q84 111 183 111z" />
    <glyph glyph-name="four" unicode="4" horiz-adv-x="485" 
d="M464 166q-15 0 -45.5 0.5t-46.5 0.5q-4 0 -4 -5q0 -31 0.5 -91.5t0.5 -90.5q-58 0 -118 -12l2 194q0 6 -4 6l-131 1q-74 0 -104 -1q0 17 5 32q39 56 157.5 220t120.5 167q30 10 68 10q1 -87 1 -366q0 -5 4 -5q63 0 105 3q-10 -35 -11 -63zM87 226q26 -2 86 -2h76q4 0 4 5
l4 246q-2 2 -4 0q-18 -23 -81.5 -115t-85.5 -129q-1 -1 -0.5 -3t1.5 -2z" />
    <glyph glyph-name="five" unicode="5" horiz-adv-x="485" 
d="M378 602q3 0 8.5 -3.5t4.5 -6.5q-2 -12 -15.5 -40t-30.5 -47q-18 -20 -43 -20q-35 0 -75 3.5t-42 3.5q-7 0 -11 -6q-14 -30 -24 -61q-3 -8 5 -11q11 -6 51 -24.5t76 -36.5t55 -31q49 -29 72.5 -64t23.5 -88q0 -92 -78.5 -152t-170.5 -60q-82 0 -128 46q-15 17 -15 34
q0 21 24 58q5 5 12 5q67 -100 165 -100q42 0 68 27.5t26 70.5q0 40 -17.5 71t-62.5 60q-31 21 -95.5 53t-71.5 37q-5 16 -1 31q13 45 45.5 122t49.5 102q14 17 25 17q3 0 45.5 -3t69.5 -2q36 0 55 15z" />
    <glyph glyph-name="six" unicode="6" horiz-adv-x="485" 
d="M445 619q-115 -53 -179.5 -124.5t-87.5 -143.5q-1 -3 0 -4.5t3 -0.5q78 40 123 40q60 0 105 -47.5t45 -128.5q0 -65 -31.5 -117.5t-88.5 -81.5q-45 -24 -99 -24q-101 0 -151 64t-50 158q0 143 113 264.5t288 170.5q3 -2 7 -12t3 -13zM223 327q-27 0 -46 -11
q-11 -6 -16 -21q-8 -31 -8 -76q0 -98 31 -148t80 -50q36 0 58 35.5t22 99.5q0 80 -34 125.5t-87 45.5z" />
    <glyph glyph-name="seven" unicode="7" horiz-adv-x="485" 
d="M457 588q2 -1 3.5 -6t0.5 -7q-21 -62 -145.5 -323t-132.5 -281q-1 -2 -6 -5q-15 2 -31 15q-2 2 -2 7.5t1 7.5q9 18 71 141t105.5 212t58.5 127q0 6 -2 6q-169 5 -254 -2q-22 -1 -35 -14.5t-37 -56.5q-2 -2 -12.5 2t-12.5 8q35 108 44 175q27 -7 77 -7h206q82 0 103 1z
" />
    <glyph glyph-name="eight" unicode="8" horiz-adv-x="485" 
d="M255 599q70 0 115.5 -40.5t45.5 -104.5q0 -32 -22 -61.5t-78 -64.5q-2 -2 0 -4q67 -44 95.5 -78.5t28.5 -85.5q0 -68 -59 -119.5t-148 -51.5q-94 0 -140.5 45.5t-46.5 104.5q0 34 26 65t96 74q3 3 1 5q-101 70 -101 152q0 35 16 67.5t43 52.5q54 44 128 44zM238 569
q-35 0 -57 -24.5t-22 -59.5q0 -41 27 -70t101 -74q3 -2 6 1q44 43 44 105q0 52 -27 87t-72 35zM256 20q38 0 61.5 22t23.5 61q0 44 -30.5 77.5t-112.5 83.5q-3 2 -8 -1q-54 -51 -54 -111q0 -52 34.5 -92t85.5 -40z" />
    <glyph glyph-name="nine" unicode="9" horiz-adv-x="485" 
d="M74 -53q-4 1 -8.5 11.5t-2.5 14.5q195 87 255 277q1 2 0 3.5t-3 0.5q-32 -21 -71.5 -35t-62.5 -14q-65 0 -108 52t-43 126q0 122 107 185q53 31 115 31q94 0 147 -68.5t53 -169.5q0 -141 -104 -255t-274 -159zM222 566q-36 0 -61 -35t-25 -95q0 -83 37.5 -125.5
t90.5 -42.5q27 0 50 14q11 4 14 18q7 31 7 70q0 85 -30 140.5t-83 55.5z" />
    <glyph glyph-name="colon" unicode=":" horiz-adv-x="276" 
d="M138 120q25 0 44 -17q20 -19 20 -51q0 -27 -17 -44q-19 -19 -50 -19q-25 0 -43 18q-18 17 -18 47q0 29 20 47q21 19 44 19zM138 363q26 0 44 -16q20 -19 20 -52q0 -27 -17 -43q-19 -20 -50 -20q-24 0 -42 18q-19 16 -19 47q0 28 20 48q19 18 44 18z" />
    <glyph glyph-name="semicolon" unicode=";" horiz-adv-x="276" 
d="M140 363q27 0 43 -16q21 -19 21 -51q0 -26 -18 -44q-18 -19 -50 -19q-24 0 -42 17q-19 18 -19 48q0 25 20 47q20 18 45 18zM33 -154q-4 4 -2 6q84 77 81 148q-1 29 -36 79q7 12 34.5 36.5t39.5 28.5q2 2 9 2t10 -2q24 -22 26 -78q3 -64 -43.5 -133t-94.5 -95q-3 -1 -12 2
t-12 6z" />
    <glyph glyph-name="less" unicode="&#x3c;" horiz-adv-x="507" 
d="M429 382q-22 -18 -276 -148q-2 0 -2 -6q10 -6 81.5 -41.5t138 -70t76.5 -44.5q2 -2 -5.5 -22t-12.5 -25q-3 -5 -7 -3q-29 21 -164.5 91t-199.5 96q-1 4 5 20.5t8 18.5q67 31 206 104.5t161 90.5q3 0 5 -4q0 -11 -5 -32t-9 -25z" />
    <glyph glyph-name="equal" unicode="=" horiz-adv-x="507" 
d="M453 289l-409 -2q-5 3 -3 9q0 6 4.5 25t6.5 23q9 -2 106 -2h308q1 -1 2 -4t0 -4q0 -6 -5.5 -25t-9.5 -20zM452 121l-409 -2q-3 1 -3 9q3 21 12 48q9 -2 106 -2h308q2 -1 2 -9q-9 -43 -16 -44z" />
    <glyph glyph-name="greater" unicode="&#x3e;" horiz-adv-x="507" 
d="M78 82q19 17 276 148q2 1 2 6q-10 5 -82 41.5t-138 70.5t-76 44q-2 3 5 22t12 26q3 3 8 3q29 -22 164.5 -92t199.5 -95q1 -4 -5 -21t-8 -19q-67 -31 -206 -104.5t-161 -90.5q-3 0 -5 5q0 10 5 31.5t9 24.5z" />
    <glyph glyph-name="question" unicode="?" horiz-adv-x="360" 
d="M184 293q0 -7 9.5 -24t23.5 -31q5 -5 -3 -15q-5 -5 -27 -17t-29 -13q-14 -4 -25 1q-21 9 -34 28t-13 36q0 25 12 34q8 6 53.5 34t57.5 37q24 17 24 42q0 33 -33.5 60.5t-86.5 41.5q-3 1 -8.5 2.5t-10 2.5t-8.5 1q-14 3 -14 16q0 11 12.5 34t22.5 32q10 10 29 10
q60 0 116 -41q66 -51 66 -114q0 -43 -19 -62q-16 -17 -100 -72q-15 -9 -15 -23zM175 119q24 0 44 -16q20 -19 20 -52q0 -25 -18 -45q-18 -19 -51 -19q-26 0 -44 17q-18 21 -18 49q0 25 20 47q21 19 47 19z" />
    <glyph glyph-name="at" unicode="@" horiz-adv-x="797" 
d="M557 50q45 0 92.5 52.5t47.5 153.5q0 137 -77 208.5t-184 71.5q-38 0 -78 -11t-84.5 -40t-79 -72.5t-57 -116t-22.5 -163.5q0 -71 15.5 -128t41 -90.5t51 -52.5t50.5 -26q31 -9 59 -7q2 -1 2 -6t-2 -7q-16 -15 -60 -15q-15 0 -40 9.5t-57.5 34.5t-60.5 60t-47.5 93
t-19.5 127q0 176 119 310q61 69 141.5 106t165.5 37q126 0 202 -85.5t76 -194.5q0 -76 -28.5 -138.5t-72 -98.5t-89.5 -55t-87 -19q-51 0 -41 79q2 29 8 55q0 2 -1.5 2.5t-3.5 -1.5q-39 -53 -89.5 -93.5t-83.5 -40.5q-28 0 -40 29t-12 66q0 57 24 118.5t64 104.5
q29 32 88 62.5t109 30.5q55 0 94 -12q-15 -34 -21 -65q-35 -163 -39 -233q0 -39 27 -39zM340 77q46 0 99 96q16 33 28 82q3 11 11 45.5t10 41.5q-15 12 -50 12q-63 0 -98 -80q-29 -64 -29 -134q0 -63 29 -63z" />
    <glyph glyph-name="A" unicode="A" horiz-adv-x="596" 
d="M-27 23q53 7 71 20t38 61q83 198 168 447q12 37 15 56q5 0 19 -0.5t23 -0.5q11 0 24.5 0.5t17.5 0.5q4 -16 14 -51q4 -11 69.5 -201t84.5 -240q23 -57 38.5 -71t67.5 -21q2 -2 0.5 -13t-3.5 -13q-8 0 -53 1.5t-79 1.5q-44 0 -140 -3q-2 3 -2 13t2 13q34 5 49 11
q16 7 11 23q-10 35 -55 162q-7 7 -9 7q-13 1 -78 1q-70 0 -82 -1q-8 0 -10 -9q-49 -136 -49 -151q0 -28 29 -35q28 -6 47 -8q2 -3 0.5 -13.5t-3.5 -12.5q-11 0 -51.5 1.5t-69.5 1.5q-23 0 -57 -1.5t-47 -1.5q-2 2 -2 12.5t2 13.5zM268 482h-5q-20 -58 -67 -202q-2 -6 2 -6
q10 -1 65 -1h68q1 0 2.5 2.5t0.5 3.5q-32 107 -66 203z" />
    <glyph glyph-name="B" unicode="B" horiz-adv-x="590" 
d="M27 584q-2 2 -1.5 12.5t2.5 12.5q10 0 52 -1.5t77 -1.5q39 0 94.5 1t72.5 1q33 0 61.5 -5.5t58 -19t46.5 -42.5t17 -70q0 -43 -28.5 -77.5t-81.5 -50.5q-4 -2 0 -4q153 -31 153 -152q0 -114 -118 -167q-64 -27 -162 -27q-14 0 -114 2.5t-138 1.5q-3 3 -2.5 13.5t2.5 12.5
q42 3 60 10q13 4 19 14t8 33q2 27 2 225q0 195 -2 227q-1 35 -25 42q-18 6 -53 10zM257 574q-15 0 -24 -3q-7 -5 -7 -14q-3 -53 -3 -206q0 -6 5 -6q10 -1 52 -1q50 0 70 11q42 26 42 89q0 61 -34 95.5t-101 34.5zM310 25q54 0 83 36t29 105q0 68 -41.5 106.5t-115.5 38.5
q-30 0 -37 -1l-5 -5q0 -177 3 -225q0 -17 15 -32q24 -23 69 -23z" />
    <glyph glyph-name="C" unicode="C" horiz-adv-x="656" 
d="M564 447q-7 52 -18.5 78t-38.5 41q-46 26 -122 26q-93 0 -146.5 -70t-53.5 -203q0 -127 61 -210.5t178 -83.5q69 0 107 34q37 34 72 97q4 0 12.5 -4.5t9.5 -9.5q-9 -33 -33.5 -78.5t-42.5 -58.5q-74 -23 -150 -23q-167 0 -258 84t-91 243q0 86 40 158.5t119 112.5
q83 44 204 44q41 0 111 -8t85 -9q-15 -77 -17 -158q-2 -4 -14.5 -5t-13.5 3z" />
    <glyph glyph-name="D" unicode="D" horiz-adv-x="706" 
d="M22 584q-1 3 -0.5 13t2.5 12q66 -3 136 -3q33 0 90 1.5t99 1.5q132 0 209 -64q98 -82 98 -228q0 -156 -106 -243q-96 -81 -262 -81q-32 0 -109 2t-121 2h-43q-2 3 -2 14t2 12q42 3 60 9q26 7 30 46q3 43 3 246q0 163 -3 205q-2 21 -7 30t-21 14q-20 7 -55 11zM228 87
q3 -23 17 -33q30 -26 96 -26q74 0 121 55q65 78 65 218q0 76 -26.5 139.5t-78.5 99.5q-53 37 -146 37q-31 0 -41 -5q-8 -6 -8 -16q-2 -38 -2 -251q0 -173 3 -218z" />
    <glyph glyph-name="E" unicode="E" horiz-adv-x="551" 
d="M29 584q-2 3 -1.5 12.5t2.5 12.5q13 0 61.5 -1.5t76.5 -1.5h194q90 0 119 5q3 -3 3 -4q-11 -39 -17 -143q-3 -3 -13.5 -3.5t-13.5 1.5q-5 47 -17 72q-12 27 -43 30q-18 2 -74 2t-69 -1q-3 -1 -6.5 -7t-3.5 -10q-2 -109 0 -211q0 -7 5 -7q20 -1 69.5 -0.5t71.5 1.5
q28 1 38 37q5 11 8 34q4 2 15.5 1.5t13.5 -2.5q-6 -69 -6 -94q0 -13 3 -94q-3 -2 -14.5 -2.5t-14.5 1.5q-5 27 -8 39q-10 29 -37 31q-14 2 -65.5 2.5t-72.5 -0.5q-6 0 -6 -8v-58.5v-78.5v-60q0 -29 22 -34q30 -6 123 -6q38 0 53.5 5.5t29.5 22.5q26 28 54 94q4 1 14 -2.5
t12 -7.5q-4 -23 -17.5 -71.5t-24.5 -68.5q-4 -9 -13.5 -12t-42.5 -3q-38 0 -125.5 2t-141.5 2q-30 0 -85.5 -1.5t-78.5 -1.5q-2 4 -2 13.5t2 12.5q51 5 70 10q16 5 23 16t8 37q2 43 2 248q0 166 -2 195q-2 24 -7.5 33t-21.5 13q-20 6 -49 9z" />
    <glyph glyph-name="F" unicode="F" horiz-adv-x="526" 
d="M25 584q-2 2 -2 12.5t2 12.5q7 0 53 -1.5t84 -1.5h222q74 0 104 6q2 0 4 -2t1 -4q-11 -45 -16 -148q-3 -2 -13.5 -3t-13.5 2q-8 56 -21 80q-11 24 -41 27q-25 2 -79.5 2t-71.5 -2q-10 -2 -10 -16q-2 -50 -2 -224q0 -5 5 -5q110 0 142 2q34 2 45 28q9 26 13 46q3 2 14 1.5
t14 -2.5q-5 -58 -5 -100q0 -17 1 -49.5t1 -45.5q-2 -3 -12.5 -3.5t-14.5 0.5q-3 18 -12 46q-9 27 -35 29q-42 3 -151 3q-5 0 -5 -6q0 -130 1 -181q1 -29 8 -40.5t26 -15.5q20 -5 58 -8q1 -4 0.5 -14t-2.5 -12q-22 0 -68 1.5t-77 1.5q-28 0 -73 -1.5t-70 -1.5q-2 3 -2.5 13
t1.5 12q8 1 23.5 3t23.5 4q18 4 23.5 15t7.5 36q2 54 2 229q0 181 -2 217q-1 25 -6.5 34.5t-21.5 14.5q-25 5 -52 9z" />
    <glyph glyph-name="G" unicode="G" horiz-adv-x="692" 
d="M631 39q1 -3 -0.5 -10.5t-3.5 -8.5q-128 -38 -225 -38q-170 0 -261 81.5t-91 243.5q0 97 47 171t130 110q85 36 198 36q49 0 120 -11t77 -11q-17 -74 -17 -162q-2 -4 -14 -5t-15 2q-11 94 -45 117q-50 37 -138 37q-94 0 -150.5 -66.5t-56.5 -204.5q0 -137 63 -221.5
t170 -84.5q33 0 51 10q17 9 19 35q6 53 2 112q-2 28 -9 39.5t-28 16.5q-6 2 -58 8q-3 4 -2.5 14t2.5 13q12 0 65.5 -1.5t87.5 -1.5q51 0 114 3q2 -2 1.5 -13t-2.5 -13q-6 -1 -16 -3.5t-13 -3.5q-15 -5 -19.5 -16t-5.5 -46q-2 -81 1 -103q2 -15 22 -25z" />
    <glyph glyph-name="H" unicode="H" horiz-adv-x="734" 
d="M27 583q-2 3 -1.5 13t2.5 13q7 0 53.5 -1.5t83.5 -1.5q40 0 82 1.5t51 1.5q2 -4 2 -14t-3 -12q-34 -5 -43 -8q-15 -5 -20.5 -15t-6.5 -35q-1 -24 -1 -180q0 -6 5 -8q16 -2 147 -2q112 0 126 2q5 0 5 6q0 166 -2 198q-2 28 -22 33q-17 6 -51 9q-3 3 -3 13t4 13
q11 0 55.5 -1.5t82.5 -1.5q40 0 82 1.5t47 1.5q2 -3 2 -13t-3 -13q-32 -4 -45 -9q-14 -5 -20 -14t-7 -33q-2 -57 -2 -242q0 -161 2 -201q2 -24 6.5 -35t16.5 -15q14 -5 60 -11q2 -3 0.5 -14t-3.5 -12q-11 0 -57 1.5t-79 1.5q-30 0 -80.5 -1.5t-58.5 -1.5q-3 2 -3 12.5
t3 13.5q28 3 46 8q15 3 21 14.5t7 37.5q1 40 1 197q0 7 -6 7q-19 1 -128 1q-133 0 -145 -2q-4 -2 -4 -6q0 -151 1 -191q1 -19 3 -28t8 -17t18 -11q17 -5 53 -10q1 -4 -0.5 -14t-3.5 -12q-3 0 -49.5 1.5t-90.5 1.5q-38 0 -85.5 -1.5t-52.5 -1.5q-2 2 -2.5 12.5t1.5 13.5
q25 2 46 7q20 5 26.5 18.5t8.5 50.5q1 22 1 200q0 203 -1 228q-1 24 -7 33.5t-20 14.5q-11 3 -53 8z" />
    <glyph glyph-name="I" unicode="I" horiz-adv-x="333" 
d="M27 584q-2 2 -1.5 12.5t2.5 12.5q12 0 57.5 -1.5t80.5 -1.5q46 0 88.5 1.5t45.5 1.5q2 -3 2 -12.5t-2 -12.5q-33 -5 -48 -9q-16 -6 -20 -16t-6 -38q-1 -33 -1 -205q0 -197 2 -233q1 -15 2 -22.5t8 -16.5t21 -12q17 -5 52 -9q2 -3 1 -13.5t-3 -12.5q-117 3 -135 3
q-44 0 -87.5 -1.5t-57.5 -1.5q-4 2 -4 12.5t4 13.5q29 3 45 7q18 4 24.5 14t8.5 37q2 36 2 247q0 157 -3 203q-2 36 -25 43q-21 6 -53 10z" />
    <glyph glyph-name="J" unicode="J" horiz-adv-x="327" 
d="M29 584q-2 3 -2 13t2 12q10 0 56 -1.5t92 -1.5q34 0 76 1.5t53 1.5q2 -3 2 -12.5t-2 -12.5q-33 -5 -46 -11q-21 -10 -22 -48q-4 -402 -5 -416q-5 -109 -42 -175q-40 -69 -95.5 -109.5t-107.5 -40.5q-53 0 -69 27v15q7 39 26 74q29 -21 61 -35.5t50 -14.5q24 0 38 16
q21 25 22 122q2 107 1 293t-3 240q-1 16 -2.5 23.5t-8 16.5t-18.5 13q-20 5 -56 10z" />
    <glyph glyph-name="K" unicode="K" horiz-adv-x="645" 
d="M223 310q0 -166 2 -226q1 -26 7.5 -37.5t23.5 -15.5q6 -2 50 -9q2 -3 0.5 -13t-3.5 -12q-15 0 -61.5 1.5t-77.5 1.5q-35 0 -84.5 -1.5t-53.5 -1.5q-2 2 -2 12t2 12q34 4 49 9q18 4 24 17t7 44q2 107 1 229q0 184 -1 205q-2 43 -26 49q-6 2 -49 10q-3 3 -3 12.5t3 12.5
q5 0 49.5 -1.5t86.5 -1.5q27 0 70.5 1.5t57.5 1.5q1 -3 1 -12.5t-1 -12.5q-36 -6 -44 -9q-15 -4 -20 -16t-6 -38q-2 -96 -2 -211zM380 584q-2 3 -1.5 13t2.5 12q8 0 46 -1.5t64 -1.5q34 0 124 3q3 -2 2.5 -12.5t-2.5 -12.5q-46 -8 -68.5 -18.5t-53.5 -47.5l-153 -172v-4
q29 -49 108 -144t128 -140q25 -21 41 -26q18 -7 56 -9q2 -3 1 -13.5t-4 -12.5q-33 -4 -101.5 -2t-87.5 9q-23 9 -54 40q-72 79 -181 230q-5 8 -15 16q0 12 3 14q34 17 83.5 66.5t100.5 117.5q35 46 35 66q0 14 -18 19q-24 7 -55 11z" />
    <glyph glyph-name="L" unicode="L" horiz-adv-x="541" 
d="M27 584q-2 3 -1.5 13.5t3.5 11.5q11 0 51.5 -1.5t83.5 -1.5q50 0 134 3q2 -2 2.5 -12.5t-2.5 -12.5q-31 -5 -45 -9q-16 -5 -20.5 -13.5t-6.5 -30.5q0 -10 -0.5 -37.5t-1 -77.5t-0.5 -86q0 -206 3 -254q2 -26 19 -30q33 -8 140 -6q30 0 56 31q36 43 67 116q3 2 14 -1.5
t12 -7.5q-3 -26 -22 -86.5t-33 -83.5q-6 -12 -56 -12q-37 0 -133 2t-129 2q-32 0 -80 -1.5t-63 -1.5q-2 3 -2 13t2 13q40 4 56 8q25 7 29 43q4 48 4 253q0 166 -2 200q-1 23 -6.5 33.5t-23.5 14.5q-5 2 -49 9z" />
    <glyph glyph-name="M" unicode="M" horiz-adv-x="819" 
d="M27 584q-2 3 -0.5 13.5t3.5 11.5q180 -3 210 -3q3 -28 18 -60q124 -279 160 -350q4 -2 5 1q18 33 78.5 161t86.5 189q17 41 18 59q52 0 111.5 1.5t83.5 1.5q3 -2 2.5 -12.5t-2.5 -13.5q-34 -4 -58 -11q-18 -6 -23.5 -16.5t-5.5 -31.5q-1 -49 3 -215.5t8 -219.5
q2 -26 9 -39.5t27 -17.5q20 -6 52 -9q2 -3 1.5 -12.5t-3.5 -13.5q-7 0 -53.5 1.5t-96.5 1.5q-30 0 -74.5 -1.5t-58.5 -1.5q-2 3 -2 13.5t2 12.5q35 4 51 10q22 7 22 48q3 92 -1 395q-2 2 -4 0q-184 -404 -207 -475q-5 -1 -19 -1t-16 1q-10 37 -38.5 108t-80 193.5
t-74.5 179.5q-2 0 -4 -2q-5 -56 -12.5 -193.5t-7.5 -189.5q0 -30 7.5 -43.5t27.5 -19.5q16 -5 60 -11q3 -2 2 -13t-4 -13q-13 0 -51.5 1.5t-68.5 1.5q-23 0 -63 -1.5t-53 -1.5q-2 3 -2 13t2 13q27 3 45 7q22 6 31.5 20t14.5 51q7 51 19.5 199.5t16.5 220.5q0 38 -26 48
q-14 5 -68 15z" />
    <glyph glyph-name="N" unicode="N" horiz-adv-x="697" 
d="M12 583q-1 2 -1 13t2 13q13 0 59.5 -1.5t74.5 -1.5q49 0 59 1q6 -15 36 -53q205 -264 319 -400h1q1 1 2 1q0 322 -4 363q-3 26 -11.5 37.5t-30.5 18.5q-29 6 -61 10q-2 3 -1.5 12.5t2.5 12.5q10 0 53 -1.5t75 -1.5q25 0 63.5 1.5t42.5 1.5q2 -2 2 -12.5t-2 -12.5
q-30 -6 -40 -9q-20 -7 -28.5 -20t-10.5 -39q-6 -84 -8 -385q0 -68 2 -136q-10 1 -40.5 0.5t-43.5 -1.5q-22 32 -98.5 133t-165.5 216.5t-101 131.5q-2 1 -3.5 0.5t-1.5 -1.5q-2 -80 -1 -213t3 -167q1 -30 11.5 -43.5t31.5 -18.5q12 -3 56 -9q2 -2 2 -12.5t-3 -13.5
q-11 0 -52 1.5t-68 1.5q-33 0 -72.5 -1.5t-47.5 -1.5q-2 2 -2 13t2 13q39 5 54 10q16 5 24 17.5t11 40.5q8 82 10 414q0 46 -34 61q-24 13 -66 17z" />
    <glyph glyph-name="O" unicode="O" horiz-adv-x="742" 
d="M368 -18q-148 0 -234 91q-84 91 -84 232q0 125 70 202q43 54 111 85.5t148 31.5q148 0 230.5 -89t82.5 -222q0 -123 -60 -203q-45 -63 -114.5 -95.5t-149.5 -32.5zM401 19q53 0 90 35q70 66 70 225q0 83 -24.5 156.5t-73.5 113.5q-48 40 -111 40q-46 0 -83 -25
q-87 -60 -87 -229q0 -81 26.5 -158t80.5 -120q47 -38 112 -38z" />
    <glyph glyph-name="P" unicode="P" horiz-adv-x="559" 
d="M272 245q-4 2 -8.5 9.5t-5.5 12.5q0 6 4 8q10 -2 31 -2q35 0 59 14q52 33 51 127q0 72 -35.5 116.5t-102.5 44.5q-20 0 -31 -4q-6 -6 -7 -14q-2 -52 -2 -232q0 -202 2 -241q1 -25 7.5 -36.5t23.5 -15.5q17 -5 60 -9q2 -3 1.5 -13.5t-3.5 -12.5q-13 0 -65.5 1.5t-79.5 1.5
t-76 -1.5t-69 -1.5q-2 3 -2 13t2 12q5 1 23.5 3.5t26.5 4.5q17 4 22.5 15.5t6.5 38.5q2 72 2 234q0 169 -2 203q-1 27 -7 39t-24 16q-28 6 -47 8q-2 3 -1.5 12.5t2.5 12.5q6 0 52 -2t75 -1q33 0 89 1t87 1q82 0 130 -34q65 -46 65 -138q0 -58 -25.5 -100t-65.5 -64
q-55 -32 -119 -32q-29 0 -44 5z" />
    <glyph glyph-name="Q" unicode="Q" horiz-adv-x="742" 
d="M914 -109q-42 -42 -99.5 -62.5t-113.5 -20.5q-59 0 -122 34q-33 18 -90 57t-80 53q-43 26 -79 31q-96 13 -156 56q-64 44 -94 114.5t-30 149.5q0 111 54 189q47 65 121 98.5t159 33.5q144 0 226 -90.5t82 -219.5q0 -140 -79 -227q-49 -52 -129 -84q25 -7 117 -48
q131 -61 196 -61t111 24q2 -2 4.5 -12.5t1.5 -14.5zM350 589q-83 0 -125.5 -72t-42.5 -184q0 -85 23.5 -155t76 -116t126.5 -46q70 0 111.5 75t41.5 190q0 78 -20 145t-69.5 115t-121.5 48z" />
    <glyph glyph-name="R" unicode="R" horiz-adv-x="610" 
d="M28 584q-3 3 -2 13t3 12q11 0 59.5 -1.5t66.5 -1.5q32 0 89.5 1t88.5 1q87 0 133.5 -41t46.5 -110q0 -107 -116 -153q-1 -1 -1.5 -3.5t0.5 -3.5q22 -41 75.5 -118.5t87.5 -110.5q28 -27 43.5 -34t53.5 -12q1 -3 -1 -13.5t-4 -11.5q-38 -5 -96.5 -1t-85.5 17
q-28 12 -48 39q-17 20 -40.5 56.5t-51 82.5t-37.5 61q-11 19 -28 19h-37q-4 0 -4 -6q0 -140 2 -184q1 -26 6.5 -35.5t22.5 -14.5q26 -5 51 -8q4 -2 3 -13t-4 -13q-5 0 -51.5 1.5t-86.5 1.5q-47 0 -91 -1.5t-45 -1.5q-2 2 -2.5 12.5t2.5 12.5l44 7q16 4 22.5 15.5t8.5 37.5
q2 58 2 233q0 170 -1 214q-3 40 -30 47q-21 5 -48 8zM259 575q-15 0 -28 -4q-6 -4 -6 -15q-2 -22 -2 -241q0 -7 5 -7q88 -4 115 10q52 25 52 110q0 66 -35.5 106.5t-100.5 40.5z" />
    <glyph glyph-name="S" unicode="S" horiz-adv-x="475" 
d="M61 171q28 -94 79 -130q36 -26 94 -26q41 0 67 24t26 67q0 42 -24.5 72t-91.5 71q-79 50 -115 92.5t-36 107.5q0 81 58 128t145 47q42 0 93.5 -7.5t61.5 -8.5q-13 -71 -17 -141q-3 -3 -13.5 -3t-12.5 2q-11 85 -44 107q-30 21 -77 21q-43 0 -69 -27t-27 -66
q0 -60 63 -106q24 -16 64.5 -40.5t48.5 -29.5q102 -65 102 -156q0 -81 -61 -134t-167 -53q-44 0 -86 10t-60 21q-7 10 -16 64t-12 87q2 4 13 6.5t14 0.5z" />
    <glyph glyph-name="T" unicode="T" horiz-adv-x="627" 
d="M458 22q2 -2 1.5 -13t-3.5 -12q-15 0 -65 1.5t-82 1.5q-49 0 -101.5 -1.5t-60.5 -1.5q-3 3 -2.5 13t2.5 12q45 4 64 9q20 4 27 18t9 49q3 86 3 460q0 7 -6 7q-13 1 -52.5 1t-58.5 -1q-30 -3 -47 -32q-19 -33 -38 -87q-2 -2 -14 0.5t-13 6.5q13 68 18 161q0 2 3.5 4t4.5 1
q35 -13 86 -13h361q64 0 102 13q4 -2 6 -6q-13 -45 -23 -166q-2 -2 -14 -2.5t-14 2.5q-7 58 -18 86q-12 28 -40 31q-22 1 -66.5 1.5t-54.5 -0.5q-5 -2 -5 -8q0 -411 3 -473q2 -25 8 -36t22 -16q15 -5 58 -10z" />
    <glyph glyph-name="U" unicode="U" horiz-adv-x="686" 
d="M16 584q-2 2 -1.5 12t2.5 13q8 0 55.5 -1.5t81.5 -1.5q36 0 82 1.5t57 1.5q2 -3 2 -13t-2 -12l-43 -8q-17 -4 -24 -16t-9 -37q-3 -110 0 -259q2 -79 15 -120q30 -105 162 -105q66 0 109 36t50 131q11 131 2 302q-1 34 -10.5 48t-33.5 19q-11 3 -50 9q-2 2 -1.5 11.5
t2.5 13.5q10 0 48 -1.5t66 -1.5q34 0 68 1.5t41 1.5q2 -3 2 -13t-2 -12q-34 -7 -40 -9q-19 -5 -26.5 -19.5t-9.5 -52.5q-8 -251 -11 -281q-17 -240 -250 -240q-222 0 -245 180q-3 24 -5 71.5t-2.5 88.5t-0.5 107.5v94.5q-2 42 -31 51q-22 6 -48 9z" />
    <glyph glyph-name="V" unicode="V" horiz-adv-x="612" 
d="M-24 583q-2 4 -1 14.5t4 11.5q11 0 61 -1.5t77 -1.5q36 0 84 1.5t53 1.5q2 -2 2.5 -12.5t-1.5 -12.5q-37 -7 -52 -15q-12 -7 -6 -28q16 -47 78 -205t75 -188h5q19 41 71 177t68 188q16 50 -20 59q-21 8 -57 12q-2 3 -0.5 13.5t3.5 11.5q3 0 41 -1.5t74 -1.5q33 0 67 1.5
t39 1.5q3 -2 3 -12t-2 -13q-27 -4 -46 -11q-19 -9 -30.5 -25.5t-28.5 -56.5q-68 -163 -146 -359q-34 -86 -50 -139q-34 4 -68 0q-27 83 -47 134q-122 318 -137 355q-21 50 -34.5 68.5t-35.5 24.5q-17 4 -43 8z" />
    <glyph glyph-name="W" unicode="W" horiz-adv-x="863" 
d="M-31 584q-2 2 -1 13t4 12q16 0 59.5 -1.5t82.5 -1.5t135 3q2 -2 2.5 -12.5t-2.5 -12.5q-38 -8 -48 -13q-15 -8 -10 -31q28 -104 109 -365q1 -1 2.5 -0.5t2.5 1.5q90 235 137 400q25 -4 53 1q16 -55 71 -200.5t82 -212.5q1 -1 2.5 -0.5t2.5 1.5q78 241 99 345
q11 50 -22 61q-14 5 -62 13q-3 2 -2.5 12.5t2.5 12.5q8 0 50 -1.5t69 -1.5q33 0 68 1.5t42 1.5q2 -2 2 -12t-2 -13q-35 -8 -43 -12q-17 -7 -27.5 -20t-20.5 -42q-58 -159 -168 -519q-8 1 -28.5 0.5t-28.5 -1.5q-18 59 -71 202.5t-79 208.5q-2 2 -5 -1q-109 -299 -145 -409
q-7 2 -28.5 1.5t-29.5 -2.5q-24 98 -75.5 270t-78.5 248q-20 54 -48 64q-21 7 -52 12z" />
    <glyph glyph-name="X" unicode="X" horiz-adv-x="597" 
d="M619 23q2 -2 2 -13t-4 -13q-14 0 -71 1.5t-92 1.5q-42 0 -83 -1.5t-43 -1.5q-2 2 -2.5 13t1.5 13q39 7 50 12t5 17q-35 74 -110 195q-1 1 -3 1t-3 -1q-111 -165 -118 -188q-4 -22 20 -28q20 -4 47 -8q2 -3 0.5 -13t-3.5 -13q-16 0 -57.5 1.5t-61.5 1.5q-26 0 -63 -1.5
t-47 -1.5q-1 2 -1 13t1 13q40 6 52 9q36 10 77 63q52 65 135 188q1 1 1 4t-1 4q-59 108 -117 204q-27 44 -40.5 59t-37.5 21q-27 7 -48 9q-3 2 -2.5 12.5t2.5 12.5q17 0 60.5 -1.5t74.5 -1.5q84 0 135 3q2 -2 2.5 -12.5t-1.5 -12.5q-22 -3 -38 -8q-13 -5 -7 -20
q9 -20 97 -174q3 -3 6 0q96 139 101 169q2 16 -13 21q-25 7 -52 11q-2 3 -0.5 13t3.5 12q12 0 45.5 -1t58.5 -1q35 0 70 1.5t41 1.5q1 -3 1 -12.5t-1 -12.5q-30 -5 -47 -10q-23 -7 -40 -21.5t-44 -51.5q-29 -42 -103 -151q-3 -3 -1 -7q93 -161 116 -196q43 -69 59.5 -88
t41.5 -27q27 -6 50 -9z" />
    <glyph glyph-name="Y" unicode="Y" horiz-adv-x="557" 
d="M-21 584q-2 4 -1.5 13.5t2.5 11.5q14 0 59 -1.5t73 -1.5q86 0 131 3q3 -2 3.5 -12.5t-2.5 -12.5q-12 -1 -32 -7q-20 -5 -9 -29q16 -34 60 -119t58 -109q3 -2 5 0q27 45 63.5 115t48.5 102q6 16 1.5 25t-22.5 13q-4 1 -47 9q-2 4 -1 14t4 11q66 -3 110 -3q14 0 104 3
q2 -2 2.5 -12.5t-2.5 -12.5q-5 -1 -20 -3.5t-21 -4.5q-21 -7 -36 -20.5t-34 -44.5q-72 -119 -126 -225q-10 -23 -10 -42l3 -152q1 -29 7.5 -43t25.5 -18q16 -4 54 -9q2 -2 0.5 -13t-3.5 -12q-13 0 -66 1.5t-84 1.5q-43 0 -87.5 -1.5t-55.5 -1.5q-3 2 -2.5 12.5t2.5 12.5
q35 4 58 9q13 3 20 11.5t8.5 18.5t2.5 27q1 47 1 141q0 26 -10 49q-48 102 -116 220q-27 47 -41.5 60t-37.5 20q-23 5 -40 6z" />
    <glyph glyph-name="Z" unicode="Z" horiz-adv-x="576" 
d="M563 170q-5 -27 -21 -84.5t-28 -79.5q-6 -11 -59 -11q-71 1 -187.5 3t-134.5 2q-10 0 -31 -0.5t-38 -1t-27 -1.5q-3 3 -3 17q50 66 181.5 278t161.5 271q3 6 -3 6q-176 0 -222 -4q-34 -5 -54 -34q-16 -24 -43 -89q-2 -2 -14 2t-14 6q22 94 30 166q10 3 18 0
q22 -10 79 -10h207q105 0 161 3q3 -3 3 -16q-223 -381 -328 -547q-1 -2 -0.5 -4t2.5 -2q39 -7 209 -5q30 0 52 20q32 28 77 124q3 1 13.5 -2.5t12.5 -6.5z" />
    <glyph glyph-name="bracketleft" unicode="[" horiz-adv-x="360" 
d="M112 741h193q1 -41 -8 -42q-30 -1 -135 -1q-6 0 -6 -7q-5 -68 -5 -404q0 -325 5 -402q0 -16 10 -19q21 -6 146 -6q2 -5 -0.5 -23t-9.5 -19q-91 -2 -154 0q-29 2 -42 9l1 908q0 6 5 6z" />
    <glyph glyph-name="backslash" unicode="\" horiz-adv-x="429" 
d="M74 690q1 0 2.5 -0.5t2.5 -0.5q236 -642 308 -797q-4 -4 -6 -5q-11 2 -27 8.5t-19 11.5q-18 32 -77 184.5t-129 336t-91 236.5q2 4 16 14t20 12z" />
    <glyph glyph-name="bracketright" unicode="]" horiz-adv-x="361" 
d="M249 -183q-33 0 -95 -1t-98 -1q0 2 -0.5 11.5t2 20.5t6.5 11q104 0 135 3q2 0 4 3t2 5q5 37 5 400q0 357 -4 405q-3 19 -10 20q-31 3 -148 3q-2 6 1 23.5t9 17.5q84 2 182 2q6 0 15 -7l-1 -910q0 -6 -5 -6z" />
    <glyph glyph-name="asciicircum" unicode="^" horiz-adv-x="422" 
d="M94 284q-9 -12 -47 -12q-10 0 -10 6q14 18 76 144t78 165q1 1 17 5.5t19 4.5q24 -54 82 -169t75 -139q0 -4 -2 -6q-6 -4 -27.5 -10.5t-23.5 -4.5q-8 8 -34.5 58t-56 109.5t-32.5 64.5q-5 2 -6 0q-98 -205 -108 -216z" />
    <glyph glyph-name="underscore" unicode="_" horiz-adv-x="519" 
d="M560 -182v-51h-569v51h569z" />
    <glyph glyph-name="grave" unicode="`" horiz-adv-x="400" 
d="M180 600q5 -9 24 -67.5t27 -85.5q-1 -3 -10 -7.5t-12 -3.5q-16 17 -58 70.5t-57 75.5q-3 5 3 11q9 3 42 6t41 1z" />
    <glyph glyph-name="a" unicode="a" horiz-adv-x="415" 
d="M243 256q0 32 -15 54q-22 35 -72 35q-32 0 -46 -12q-15 -12 -36 -62q-3 -2 -15 5t-12 12q1 7 9 30.5t12 26.5q34 25 77.5 43t65.5 18q72 0 109 -56q24 -37 24 -102q0 -25 -1.5 -80.5t-1.5 -74.5q0 -41 32 -41q16 0 32 5q1 -3 -1 -16t-4 -15q-36 -38 -97 -38q-44 0 -56 29
q-3 7 -5 20q0 1 -5 1q-69 -50 -109 -50q-32 0 -58 24q-36 34 -36 94q0 28 16 55q15 9 92 32.5t93 30.5q5 2 8 11v21zM242 193q0 1 -1 3t-2 1q-89 -30 -96 -36q-8 -8 -8 -34q0 -34 19.5 -54t47.5 -20q19 0 31 8q8 8 8 20q1 30 1 112z" />
    <glyph glyph-name="b" unicode="b" horiz-adv-x="495" 
d="M305 406q66 0 110 -49t44 -128q0 -117 -84 -182q-29 -22 -78 -40.5t-80 -18.5q-44 0 -91 13q-31 8 -57 0q-1 -1 -4.5 2t-3.5 5q5 52 4 251q0 284 -4 322q-1 9 -3 13.5t-6 8.5t-12 6q-12 3 -42 7q-2 2 -1 11.5t3 11.5q40 2 95 12.5t83 22.5q6 -3 6 -14q-7 -11 -9 -37.5
t-2 -112.5q-1 -12 -0.5 -79t0.5 -69q0 -4 5 -2q82 46 127 46zM227 345q-26 0 -46 -11q-7 -4 -7 -14q-6 -121 1 -213q3 -35 18 -49q28 -27 70 -27q32 0 55 28q31 40 31 118q0 80 -33 125q-31 43 -89 43z" />
    <glyph glyph-name="c" unicode="c" horiz-adv-x="407" 
d="M388 73q-68 -85 -167 -85q-93 0 -144 66q-41 53 -41 138q0 52 25.5 98.5t72.5 73.5q69 42 140 42q46 0 80 -13q27 -14 33 -27q2 -9 -1 -17q-5 -13 -19 -29.5t-22 -21.5q-6 -2 -12 0q-19 21 -27.5 30t-33.5 24t-48 15q-40 0 -62.5 -35.5t-22.5 -93.5q0 -71 33 -119
q40 -54 111 -54q60 0 105 41q3 0 5 -5q3 -17 -5 -28z" />
    <glyph glyph-name="d" unicode="d" horiz-adv-x="503" 
d="M493 51q0 -20 -6 -24q-24 -12 -80 -28t-73 -16q-7 0 -7 10q-2 8 -2 49q0 2 -2 3t-3 0q-80 -55 -134 -55q-63 0 -106 52q-44 53 -44 142q0 48 20 91.5t54 70.5q31 24 83.5 42t95.5 18q15 0 33 -2q4 0 4 5q2 119 -2 166q-4 30 -21 37q-23 7 -51 10q-2 3 -1 13t4 11
q45 0 102 8.5t84 19.5q5 -5 5 -14q-10 -15 -11 -104q-2 -116 -2 -270q0 -122 2 -190q1 -42 17 -44q12 -1 41 -1zM235 369q-32 0 -56 -25q-33 -35 -33 -112q0 -80 34.5 -127.5t89.5 -47.5q27 0 47 14q8 6 8 17q2 23 2 97t-1 112q-2 32 -26 52q-27 20 -65 20z" />
    <glyph glyph-name="e" unicode="e" horiz-adv-x="423" 
d="M392 105q4 0 4 -4q2 -16 -3 -26q-34 -40 -81 -63.5t-91 -23.5q-82 0 -128 48q-57 57 -57 161q0 59 25 104.5t66 71.5q50 33 112 33q48 0 82 -25t47.5 -54.5t18.5 -61.5q2 -8 14 -11q1 -2 -1.5 -10.5t-4.5 -9.5q-33 -11 -249 -23q-4 0 -4 -10q2 -54 37 -94q38 -41 102 -41
t111 39zM209 373q-29 0 -48 -32.5t-20 -87.5q0 -5 5 -5q18 -2 67.5 -0.5t62.5 4.5q6 4 6 9q-3 47 -22.5 79.5t-50.5 32.5z" />
    <glyph glyph-name="f" unicode="f" horiz-adv-x="274" 
d="M18 23q28 3 38 8q18 6 18 35q0 178 1 270q0 7 -5 7l-49 3q0 17 8 28q26 4 43 16q4 2 4 7q1 82 28.5 139.5t89.5 100.5q52 37 99 37q59 0 82 -35q2 -7 0 -14q-3 -10 -20 -34t-24 -29q-7 -3 -12 0q-53 58 -89 58q-16 0 -29 -13q-21 -25 -21 -147q0 -49 1 -61q0 -7 5 -7
q24 1 46.5 1.5t33 1t17.5 0.5q-7 -29 -10 -52q-14 0 -44.5 0.5t-42.5 0.5q-6 0 -6 -7l4 -263q1 -36 27 -43q19 -6 47 -9q2 -2 0 -12.5t-4 -12.5q-11 0 -49.5 1.5t-78.5 1.5q-21 0 -60 -1.5t-48 -1.5q-2 2 -2 12.5t2 13.5z" />
    <glyph glyph-name="g" unicode="g" horiz-adv-x="446" 
d="M220 406q45 0 100 -19q30 -10 58 -10q27 0 39 4t23 16q1 1 6 -2t6 -5q0 -8 -8.5 -29t-16.5 -29q-10 -10 -35 -10q-11 0 -22 1q-1 0 -1.5 -1.5t0.5 -2.5q8 -18 8 -51q0 -83 -59 -126q-47 -34 -114 -37q-4 -1 -27 -1q-5 0 -12.5 -6.5t-7.5 -13.5q0 -25 36 -29
q11 -1 51 -4.5t70 -7.5t46 -9q32 -10 55 -35.5t23 -68.5q0 -55 -35.5 -100t-94.5 -73q-53 -26 -115 -26q-71 0 -116 30q-57 39 -57 93q0 23 6 38q13 12 93 66q2 2 0 4q-29 11 -48 32t-20 45q3 13 4 16q4 2 22 12.5t35 20.5t24 15q2 1 2 3t-2 2q-100 32 -100 142q0 76 60 118
q24 18 59 28.5t65 9.5zM198 376q-27 0 -43 -25.5t-16 -70.5q0 -68 21.5 -106t58.5 -38q20 0 36 16q22 25 22 89q0 58 -19 96.5t-60 38.5zM240 -220q60 0 89 25t29 61q0 43 -43 64q-45 22 -142 22q-21 0 -31 -8q-39 -27 -39 -64q0 -36 30 -65q38 -35 107 -35z" />
    <glyph glyph-name="h" unicode="h" horiz-adv-x="504" 
d="M7 616q-2 2 -2 11.5t2 11.5q110 8 174 35q6 -6 6 -14q-11 -19 -11 -94q-1 -23 -1 -212q0 -6 5 -3q73 55 130 55q60 0 92 -42t32 -119q0 -167 1 -188q0 -14 7 -20q12 -8 47 -14q2 -3 1 -13.5t-4 -12.5q-3 0 -39 1.5t-70 1.5q-35 0 -101 -3q-2 3 -2 13t2 13q25 4 31 7
q11 4 14.5 12.5t4.5 32.5q3 175 -5 207q-6 26 -26.5 43.5t-53.5 17.5q-32 0 -57 -16q-8 -5 -8 -16q0 -206 2 -235q1 -17 2.5 -24t6 -13t13.5 -9q20 -6 32 -7q3 -3 2 -12.5t-3 -13.5q-6 0 -40.5 1.5t-69.5 1.5q-33 0 -67 -1.5t-39 -1.5q-3 4 -3 13.5t3 12.5q21 3 33 7
q11 4 15 14t6 36q1 33 1 173q0 300 -4 331q-3 19 -18 25q-4 1 -10.5 2t-15.5 2.5z" />
    <glyph glyph-name="i" unicode="i" horiz-adv-x="252" 
d="M182 541q0 -32 -24 -52q-7 -4 -29.5 -6.5t-31.5 1.5q-22 9 -28 42q-5 26 6 39q20 20 60 20q29 0 38 -12q9 -10 9 -32zM239 23q1 -4 -0.5 -14t-4.5 -12q-7 0 -42.5 1.5t-64.5 1.5t-65 -1.5t-43 -1.5q-2 2 -2.5 13t1.5 13q26 4 37 7q17 6 18 40q2 46 2 143q0 61 -2 93
q0 17 -7 25q-8 9 -38 21q-2 3 -1.5 11.5t2.5 11.5q22 0 72.5 10t81.5 24q0 -15 -0.5 -77.5t-0.5 -93.5q0 -124 1 -169q0 -32 19 -38q18 -6 37 -8z" />
    <glyph glyph-name="j" unicode="j" horiz-adv-x="253" 
d="M189 408l-2 -325q-2 -84 -10 -125q-15 -77 -64.5 -137t-90.5 -79q-18 1 -25 12q-2 4 0 9q46 26 63 70.5t17 139.5q0 310 -2 332q-2 25 -17 34q-14 7 -43 12q-3 4 -2.5 14t2.5 12q107 5 174 31zM183 548q0 -37 -23 -54q-4 -4 -28.5 -8t-30.5 -1q-26 13 -31 47
q-2 5 -0.5 17.5t5.5 16.5q8 9 27 16t38 7q28 0 36 -11q7 -8 7 -30z" />
    <glyph glyph-name="k" unicode="k" horiz-adv-x="469" 
d="M249 367q-2 4 -1 14t4 11q110 -2 188 8q3 -2 3 -12.5t-2 -13.5q-54 -11 -79 -36q-65 -65 -90 -93q-2 -2 0 -5q17 -31 72 -102t82 -94q14 -13 25 -16t39 -5q2 -3 0.5 -13.5t-3.5 -12.5q-37 -6 -123 -3q-32 0 -54 24q-17 16 -107 146q-14 21 -28 25l2 -117q1 -24 6 -32
t21 -12l32 -5q2 -4 1 -13.5t-4 -12.5q-8 0 -44.5 1.5t-68.5 1.5q-27 0 -61 -1.5t-44 -1.5q-2 2 -2 13t2 13q24 3 34 7q16 5 19 38q2 27 2 175q0 315 -2 340q-2 24 -19 30q-24 5 -38 7q-1 3 -1 12.5t1 10.5q108 7 170 31q6 -3 6 -13q-9 -16 -10 -106q-2 -132 -2 -344
q21 3 45 24q29 24 59.5 60t30.5 48q1 12 -15 16q-2 1 -46 8z" />
    <glyph glyph-name="l" unicode="l" horiz-adv-x="246" 
d="M14 -3q-2 3 -2 12.5t2 13.5q22 3 37 9q16 7 17 43q2 39 2 254q0 207 -3 249q-2 23 -14 26q-11 6 -42 9q-2 2 -1.5 11t2.5 12q39 3 91 14.5t77 23.5q8 -3 6 -10q-9 -21 -9 -97q-1 -49 -1 -231q0 -224 2 -263q2 -22 6 -30t16 -12q14 -5 35 -8q5 -13 -3 -26q-1 0 -39.5 1.5
t-74.5 1.5q-31 0 -66 -1.5t-38 -1.5z" />
    <glyph glyph-name="m" unicode="m" horiz-adv-x="760" 
d="M19 23q18 2 34 8q18 6 20 44q6 130 0 223q0 16 -6 23q-9 13 -43 24q-1 3 0 12t3 11q97 12 153 41q4 -2 4 -6q0 -2 -1 -26t-1 -33q0 -1 2 -2t4 0q80 64 133 64q67 0 102 -66q2 -4 6 -1q83 67 140 67t88.5 -41.5t32.5 -114.5q0 -28 0.5 -101t0.5 -91q0 -12 6 -18
q9 -8 51 -17q2 -3 0.5 -13.5t-3.5 -12.5q-7 0 -43 1.5t-65 1.5q-60 0 -105 -3q-2 2 -2 12.5t2 13.5q20 3 32 8q10 3 13 13t4 35q2 152 -4 190q-4 27 -22.5 47t-54.5 20q-35 0 -66 -24q-1 -1 -1 -8q5 -26 5 -71v-56v-69v-48q2 -18 12 -24q15 -10 44 -13q2 -3 1 -13.5
t-4 -12.5q-108 3 -116 3q-27 0 -99 -3q-2 3 -2 13t2 13q28 4 37 7q13 5 15 35q2 43 1 117.5t-4 93.5q-13 62 -75 62q-29 0 -56 -19q-11 -8 -11 -21q0 -170 1 -234q0 -16 4.5 -24t18.5 -12q4 -1 15 -2.5t15 -2.5q2 -3 1 -13t-3 -13q-99 3 -113 3q-12 0 -102 -3q-3 4 -3 14
t2 12z" />
    <glyph glyph-name="n" unicode="n" horiz-adv-x="509" 
d="M21 23q14 1 31 6q18 6 21 39q2 62 2 154q0 67 -2 87q-5 23 -47 37q0 18 4 22q91 10 149 42q4 -4 4 -7q-2 -28 -2 -57q0 -2 1.5 -3t3.5 1q78 62 130 62q64 0 98 -53q25 -39 25 -116q0 -165 1 -182q0 -12 8 -17q22 -13 47 -15q1 -4 0 -13.5t-4 -12.5q-2 0 -34 1.5t-69 1.5
q-17 0 -107 -3q-2 3 -2 13.5t2 12.5q18 3 30 6q18 5 19 34q2 26 2 105t-5 105q-8 36 -30 51q-18 15 -48 15q-31 0 -59 -20q-9 -7 -9 -22q0 -31 0.5 -118.5t1.5 -112.5q1 -20 6 -27t16 -10q10 -3 32 -6q1 -2 1 -12.5t-2 -13.5q-93 3 -111 3q-47 0 -104 -3q-2 3 -2 12.5
t2 13.5z" />
    <glyph glyph-name="o" unicode="o" horiz-adv-x="496" 
d="M257 406q94 0 148.5 -57t54.5 -146q0 -122 -92 -179q-54 -36 -123 -36q-103 0 -156 61t-53 151q0 109 88 167q58 39 133 39zM231 373q-21 0 -35 -11q-43 -32 -43 -135q0 -96 31 -151t80 -55q27 0 42 15q36 33 36 137q0 89 -29.5 144.5t-81.5 55.5z" />
    <glyph glyph-name="p" unicode="p" horiz-adv-x="498" 
d="M10 340q-1 3 0 12t3 12q32 5 80.5 22t77.5 32q2 1 5 -2.5t3 -5.5q-2 -20 -2 -60q0 -2 5 -2q83 58 134 58q62 0 100 -45q47 -53 47 -132q0 -110 -82 -177q-34 -29 -84 -46.5t-88 -17.5q-17 0 -29 3q-4 0 -4 -5q0 -104 3 -154q1 -17 6.5 -25.5t21.5 -12.5q6 -1 14.5 -2.5
t20.5 -3t19 -2.5q2 -3 1 -13t-4 -13h-30q-114 0 -225 -12q-2 3 -3 13.5t2 13.5q25 5 44 11q19 8 22 47q2 39 2 252q0 170 -2 212q-2 25 -15 31t-43 12zM241 339q-32 0 -55 -17q-10 -8 -10 -18q-4 -51 0 -198q2 -37 25 -55q26 -21 62 -21q31 0 55 25q36 39 36 123
q0 80 -34 123q-30 38 -79 38z" />
    <glyph glyph-name="q" unicode="q" horiz-adv-x="500" 
d="M508 -239q-64 0 -86 -1q-48 -1 -105 -6t-67 -5q-2 2 -2 12t2 13q33 7 47 12q14 4 18.5 14t6.5 36q4 59 4 190q0 1 -1.5 2.5t-2.5 0.5q-25 -16 -63.5 -28.5t-60.5 -12.5q-69 0 -116 55t-47 144q0 102 83 163q36 25 89 40.5t101 15.5q67 0 138 -20q-8 -20 -11 -52
q-2 -52 -2 -159q-2 -239 3 -325q1 -30 7 -40.5t21 -14.5q1 0 47 -8q1 -3 0 -13.5t-3 -12.5zM236 366q-38 0 -63 -34t-25 -105q0 -87 39.5 -133t93.5 -46q26 0 41 9q4 2 4 10q0 226 -5 256q-3 17 -11 23q-26 20 -74 20z" />
    <glyph glyph-name="r" unicode="r" horiz-adv-x="347" 
d="M296 406q38 0 51 -26q1 -2 1 -9t-1 -10q-2 -11 -15 -38.5t-23 -39.5q-1 -3 -11 -3q-35 37 -72 37q-22 0 -38 -21q-7 -9 -7 -23q-1 -41 0 -116t2 -86q1 -19 5.5 -27.5t17.5 -12.5q17 -4 51 -8q2 -3 0.5 -13t-4.5 -13q-5 0 -50 1.5t-78 1.5q-21 0 -60 -1.5t-47 -1.5
q-2 3 -2 13t2 13q24 2 38 7q15 7 16 34q3 27 3 160q0 68 -2 83q-1 7 -3.5 12.5t-13.5 13.5t-31 15q-1 3 0.5 11.5t3.5 9.5q31 2 76.5 14.5t70.5 26.5q6 0 6 -5q-4 -60 -4 -79q0 -2 2 -2.5t3 0.5q34 39 58 59q27 23 55 23z" />
    <glyph glyph-name="s" unicode="s" horiz-adv-x="357" 
d="M309 396q-8 -38 -12 -111q-3 -2 -12.5 -2.5t-12.5 1.5q-10 66 -41 83q-20 11 -44 11t-40 -14t-16 -36q0 -24 17.5 -41.5t76.5 -45.5q58 -28 79.5 -55t21.5 -67q0 -59 -48.5 -95t-118.5 -36q-59 0 -115 20q-8 46 -11 118q2 2 11.5 5t13.5 2q18 -76 62 -102q23 -13 52 -13
q27 0 43.5 13.5t16.5 35.5q0 23 -15 38.5t-54 35.5q-68 35 -94 65.5t-26 74.5q0 54 40.5 89.5t114.5 35.5q20 0 67 -5q33 -5 44 -5z" />
    <glyph glyph-name="t" unicode="t" horiz-adv-x="298" 
d="M280 342q-14 0 -48 0.5t-52 0.5q-4 0 -4 -6q0 -21 -0.5 -87t-0.5 -90q0 -52 5 -71q10 -37 51 -37q33 0 55 14q1 -2 0.5 -12.5t-1.5 -14.5q-39 -51 -110 -51q-68 0 -93 47q-10 18 -12 39.5t-2 73.5q0 27 0.5 96.5t0.5 88.5q0 9 -6 10t-48 4q0 19 9 33q31 5 41 9q4 4 4 7
v84q21 7 52 24t42 27q3 2 17 2q-4 -38 -4 -133q0 -8 5 -8q57 0 107 5q-7 -37 -8 -55z" />
    <glyph glyph-name="u" unicode="u" horiz-adv-x="494" 
d="M11 359q-3 19 4 26q114 3 164 16q-5 -40 -5 -179q0 -95 5 -114q12 -49 69 -49q34 0 59 20q7 9 9 20q1 8 0.5 80t-1.5 141q0 24 -17 30q-12 4 -56 10q-4 15 3 25q112 0 182 15q-3 -24 -3 -104v-203q1 -36 21 -37q17 -1 38 0q0 -20 -4 -27q-29 -11 -83.5 -26.5t-70.5 -16.5
q-4 1 -6 8q-3 16 -3 55q0 2 -2 3t-4 0q-72 -63 -130 -63q-113 0 -113 127q-1 25 -1 100v99q-1 30 -18 37q-7 3 -37 7z" />
    <glyph glyph-name="v" unicode="v" horiz-adv-x="426" 
d="M-8 370q-1 4 0.5 14t3.5 11q96 -3 109 -3q38 0 101 3q3 -2 3 -12t-2 -13q-30 -7 -35 -9q-8 -4 -5 -13q28 -90 83 -219q1 -1 3 0q57 137 72 191q10 31 -9 40q-20 7 -45 10q-2 4 -0.5 14t3.5 11q4 0 36.5 -1.5t51.5 -1.5q29 0 83 3q2 -3 2 -12.5t-2 -12.5q-22 -4 -33 -8
q-23 -8 -40 -44q-38 -79 -97 -229q-21 -55 -33 -93q-10 2 -27.5 1.5t-26.5 -2.5q-9 28 -30 85q-24 64 -76 194q-22 55 -31.5 69t-27.5 20q-7 2 -31 7z" />
    <glyph glyph-name="w" unicode="w" horiz-adv-x="633" 
d="M-14 370q-2 4 -1.5 13t2.5 12q8 0 45 -1.5t71 -1.5q21 0 105 4q3 -3 3.5 -12.5t-1.5 -13.5q-23 -5 -34 -9q-14 -6 -8 -17q16 -70 63 -211q3 -3 4 0q63 149 87 240q7 -1 27.5 -0.5t26.5 1.5q5 -21 24 -72q10 -26 68 -175q5 0 5 1q44 109 65 198q2 14 -0.5 21t-16.5 12
q-19 8 -49 11q-2 4 -0.5 13.5t3.5 11.5q3 0 37 -1.5t57 -1.5q22 0 85 3q2 -2 2.5 -12t-2.5 -13q-26 -6 -32 -9q-15 -6 -23.5 -15t-17.5 -30q-76 -187 -118 -320q-26 4 -56 -1q-15 45 -48 130.5t-44 106.5q-1 3 -5 1q0 -1 -40 -100.5t-53 -136.5q-9 2 -28 2t-27 -2
q-55 192 -94 296q-12 35 -20.5 49.5t-23.5 20.5q-12 4 -38 8z" />
    <glyph glyph-name="x" unicode="x" horiz-adv-x="408" 
d="M-18 23q41 6 56 14t38 37q18 21 80 103v1q1 2 1 4t-1 3q-36 64 -74 125q-21 36 -34.5 45t-53.5 14q-2 3 -1 14t3 12q1 0 41 -1.5t75 -1.5q29 0 64 1.5t37 1.5q2 -2 2.5 -13t-1.5 -13q-1 0 -13 -2.5t-15 -4.5q-10 -4 -4 -16q19 -40 50 -89q1 -3 4 0q46 60 54 87
q4 13 -9 17q-10 5 -35 8q-2 4 -1 14t3 12q6 0 35 -1.5t42 -1.5q40 0 85 3q3 -2 3 -12t-2 -14q-37 -6 -50 -12.5t-30 -28.5q-19 -23 -75 -100q-2 -2 -1 -7q11 -18 33.5 -57t31.5 -54q37 -58 52 -70t58 -17q1 -4 -0.5 -14t-3.5 -12q-9 0 -49.5 1.5t-65.5 1.5q-35 0 -70 -1.5
t-38 -1.5q-2 3 -3 12.5t1 13.5q27 5 33 11q5 5 1 14q-19 38 -56 98q-2 6 -5 0q-55 -78 -59 -95q-4 -15 10 -20q15 -4 40 -8q1 -4 0 -13.5t-3 -12.5q-9 0 -41.5 1.5t-48.5 1.5q-44 0 -89 -3q-2 3 -2.5 13t1.5 13z" />
    <glyph glyph-name="y" unicode="y" horiz-adv-x="432" 
d="M-9 370q-1 4 0.5 13.5t3.5 11.5q2 0 39 -1.5t73 -1.5q30 0 64 1.5t41 1.5q2 -3 3 -12t-1 -13q-29 -7 -32 -8q-10 -6 -7 -18q10 -31 42 -111.5t43 -105.5h3q22 47 44.5 111.5t26.5 89.5q2 25 -18 32q-18 6 -45 10q-3 20 4 25q6 0 36.5 -1.5t50.5 -1.5q12 0 90 3
q2 -2 2 -11.5t-1 -13.5q-28 -5 -38 -10q-22 -11 -39 -54q-90 -243 -229 -492q-4 -8 -12 -21t-13.5 -23t-8.5 -15l-9 -3q-12 2 -31 10.5t-24 17.5q-2 9 0 16q104 122 147 209l-12 24l-97 238q-23 55 -34 72t-30 23q-18 6 -32 8z" />
    <glyph glyph-name="z" unicode="z" horiz-adv-x="392" 
d="M350 395q3 -1 3 -16q-20 -42 -84.5 -159t-100.5 -177q-2 -4 2 -6q28 -6 106 -6q38 0 80 96q7 5 26 5l4 -2q-9 -48 -37 -118q-9 -17 -26 -17q-31 0 -150.5 3t-141.5 2q-6 9 -3 17q165 270 197 337q3 5 -2 5q-74 0 -92 -2q-30 -2 -45 -17.5t-39 -73.5q-3 -1 -13 2t-13 6
q16 67 24 128q27 -10 77 -10h141q57 0 87 3z" />
    <glyph glyph-name="braceleft" unicode="{" horiz-adv-x="415" 
d="M54 290q52 2 77 22.5t26 54.5t-3 80q-7 66 -7 92q0 190 207 207q2 -1 3.5 -11.5t0.5 -13.5q-76 -13 -106 -48t-30 -96q0 -23 6.5 -81t6.5 -84q0 -107 -114 -133v-4q122 -12 122 -133q0 -31 -6.5 -89t-6.5 -81q0 -114 136 -129q1 -2 -1 -13.5t-4 -13.5q-85 -1 -145 39
t-61 118q0 26 7 100q4 54 5.5 93t-26 64t-94.5 34q-1 4 1.5 14.5t5.5 11.5z" />
    <glyph glyph-name="bar" unicode="|" horiz-adv-x="274" 
d="M103 710h68v-1020h-68v1020z" />
    <glyph glyph-name="braceright" unicode="}" horiz-adv-x="415" 
d="M360 261q-52 -1 -77 -22t-26.5 -55t3.5 -80q6 -54 6 -82q0 -191 -206 -209q-3 2 -4.5 13t0.5 13q77 14 106 47.5t29 95.5q0 23 -6 77t-6 80q0 105 115 135v5q-123 12 -123 130q0 31 6 94t6 86q0 64 -36.5 92.5t-98.5 36.5q-1 3 1 13.5t4 12.5q84 1 144.5 -39t60.5 -118
q0 -35 -6 -99q-4 -54 -5.5 -95t27 -69t94.5 -36q1 -5 -1.5 -14.5t-6.5 -12.5z" />
    <glyph glyph-name="asciitilde" unicode="~" horiz-adv-x="507" 
d="M187 290q32 0 91 -28q48 -23 74 -23q55 0 106 59q1 1 5 0t5 -3q0 -22 -6 -38q-16 -28 -55 -54t-82 -26q-29 0 -92 33q-45 20 -75 20q-23 0 -57.5 -21.5t-52.5 -40.5q-1 -1 -3.5 0.5t-3.5 4.5q0 7 4.5 22.5t6.5 18.5q19 25 62.5 50.5t72.5 25.5z" />
    <glyph glyph-name="uni00A0" unicode="&#xa0;" horiz-adv-x="169" 
 />
    <glyph glyph-name="exclamdown" unicode="&#xa1;" horiz-adv-x="270" 
d="M82 -206q-16 0 -25 10q0 11 9 79.5t23.5 169.5t20.5 152q3 1 15.5 -1t14.5 -4q6 -41 31 -189t27 -172q1 -7 -4 -18t-13 -14q-16 -6 -49 -10t-50 -3zM121 278q-27 0 -43 15q-21 20 -21 52q0 25 18 45q18 19 51 19q26 0 43 -17q18 -19 18 -49q0 -26 -20 -48
q-20 -17 -46 -17z" />
    <glyph glyph-name="cent" unicode="&#xa2;" horiz-adv-x="485" 
d="M250 161l29 294q0 4 -4 4q-46 -4 -76.5 -43.5t-30.5 -102.5q0 -116 82 -152zM61 282q0 52 28 99t78 74q47 27 116 36l8 75q18 8 33 6l-9 -79q45 0 80 -12q30 -11 36 -27q2 -8 -2 -16q-4 -9 -14.5 -21t-16.5 -15q-4 -2 -9 0q-1 1 -13 12.5t-18 16.5t-18.5 13t-24.5 12
q-3 0 -5 -4l-28 -299q16 -2 27 -2q68 0 117 46q6 -13 4 -25q-56 -72 -151 -89q-4 0 -5 -4l-7 -78q-14 -7 -33 -4l8 82q0 4 -4 4q-87 8 -134 65q-43 49 -43 134z" />
    <glyph glyph-name="sterling" unicode="&#xa3;" horiz-adv-x="485" 
d="M309 -25q-38 0 -106 22q-70 23 -102 23q-34 0 -69 -36q-8 0 -13 8q13 60 22 67q11 9 41 26q37 20 29 182q-62 0 -73 2q-2 0 -2 6q1 4 6 15.5t8 13.5q2 0 22 -0.5t38 -0.5q0 140 50 203q38 48 88 70t76 22q28 0 49.5 -6.5t30 -13t8.5 -11.5q-2 -32 -24 -64q-1 -2 -6 -3
t-7 1q-52 57 -93 57q-23 0 -34 -22q-7 -13 -11.5 -34t-6 -60t-1.5 -58.5v-75.5q0 -5 5 -5q81 0 122 3q2 -7 -2 -14q-15 -17 -38 -22q-19 -4 -86 -4q-4 0 -4 -5q-21 -111 -91 -167q36 6 108 -6q84 -13 94 -13q45 0 65.5 15t42.5 72q5 3 7 1q10 -7 12 -21q-25 -81 -68 -124
t-87 -43z" />
    <glyph glyph-name="currency" unicode="&#xa4;" horiz-adv-x="485" 
d="M264 459q44 0 81 -25q4 -2 6 0q41 45 50 50q7 5 44 5q4 -2 4 -9q-40 -43 -68 -81q27 -44 27 -98q0 -59 -34 -108q-3 -5 0 -10q52 -60 70 -76q0 -9 -5 -12q-45 -11 -58 -2q-29 21 -56 53q-41 -31 -95 -31q-53 0 -93 33q-38 -32 -66 -68q-1 -1 -5 0t-5 2q-3 7 -3.5 24
t2.5 23q8 10 16 19t16.5 18.5t13.5 14.5v7q-21 40 -21 87q0 60 30 104q-42 48 -50 58q-2 4 -2 12q0 3 8.5 22t14.5 26q1 1 5.5 1t6.5 -1q47 -58 58 -69q3 -3 8 0q42 31 100 31zM237 411q-45 0 -68 -32.5t-23 -81.5q0 -63 32.5 -96t78.5 -33q41 0 64.5 24t23.5 88
q0 54 -30 92.5t-78 38.5z" />
    <glyph glyph-name="yen" unicode="&#xa5;" horiz-adv-x="485" 
d="M300 174q-4 0 -4 -5q0 -16 0.5 -45t0.5 -37q1 -19 2.5 -29t8.5 -17.5t21 -10.5q13 -3 48 -7q1 -2 0.5 -13t-2.5 -13q-20 0 -67.5 1.5t-76.5 1.5q-27 0 -65.5 -1.5t-61.5 -1.5q-3 2 -3 13t2 13q34 3 49 7q30 7 30 56q1 18 1 83q0 5 -3 5q-29 -1 -52 -1.5t-32 -0.5
q0 24 6 32h20q21 -1 58 -1q3 0 3 3v54q0 7 -5 7q-40 -1 -78 -1q0 23 6 31q1 0 26 -0.5t45 -0.5q1 0 2.5 2t0.5 4q-30 76 -87 190q-19 39 -30.5 50.5t-31.5 16.5q-10 3 -32 5q-2 4 -1 13.5t3 11.5q11 0 49.5 -1t66.5 -1q82 0 114 2q2 -2 2 -12.5t-1 -12.5q-9 -1 -29 -6
q-16 -5 -7 -30q49 -119 81 -183q2 -4 6 0q55 115 77 175q9 29 -18 37q-9 2 -40 7q-1 4 0 14t3 11q6 0 37 -1.5t53 -1.5q24 0 51.5 1.5t37.5 1.5q2 -2 2 -12.5t-2 -12.5q-27 -4 -32 -6q-21 -6 -34.5 -20t-29.5 -45q-65 -127 -91 -191q-2 -6 3 -6h38.5t29.5 0.5t14 0.5
q2 -14 -4 -30h-79q-4 0 -4 -4v-56q0 -4 4 -4q18 0 48.5 0.5t32.5 0.5q2 -13 -4 -31q-5 0 -31 0.5t-45 0.5z" />
    <glyph glyph-name="brokenbar" unicode="&#xa6;" horiz-adv-x="275" 
d="M102 631h70v-348h-70v348zM102 127h70v-355h-70v355z" />
    <glyph glyph-name="section" unicode="&#xa7;" horiz-adv-x="450" 
d="M235 518q-18 0 -18 -25q0 -23 17 -59q16 -36 98 -163q60 -91 60 -163q0 -64 -36 -125q-29 -50 -79 -84.5t-87 -34.5q-69 0 -119 46q-14 16 -14 27q0 17 17 48q1 0 3 0.5t3 0.5q30 -35 68 -53t57 -18q15 0 15 22q0 25 -23 61q-15 25 -73 111q-83 125 -83 212q0 101 68 178
q24 28 61.5 49t68.5 21q65 0 108 -41q13 -13 13 -27q0 -16 -18 -41q-6 -1 -7 -1q-15 14 -50 36.5t-50 22.5zM260 -78q35 17 55 51t20 77q0 37 -11.5 73.5t-24.5 60t-38 64.5q-1 2 -18 28.5t-21.5 34t-17.5 31t-18 37t-10 33t-6 36.5q-3 32 11 69q-36 -7 -61.5 -46.5
t-25.5 -87.5q0 -88 73 -205q4 -7 22.5 -33.5t28.5 -43t23.5 -41t20.5 -45t7 -37.5q2 -30 -9 -56z" />
    <glyph glyph-name="dieresis" unicode="&#xa8;" horiz-adv-x="400" 
d="M163 539q0 -30 -21 -46q-5 -4 -24 -5.5t-25 1.5q-21 11 -26 36q0 28 5 35q17 19 52 19q23 0 32 -12q7 -10 7 -28zM330 539q0 -29 -21 -46q-5 -4 -24.5 -5.5t-25.5 1.5q-20 11 -25 36q-3 25 4 35q19 19 53 19q23 0 32 -12q7 -10 7 -28z" />
    <glyph glyph-name="copyright" unicode="&#xa9;" horiz-adv-x="720" 
d="M361 624q132 0 221 -91.5t89 -223.5q0 -133 -90.5 -225t-219.5 -92q-131 0 -221 90.5t-90 226.5q0 131 90.5 223t220.5 92zM361 595q-115 0 -196 -83.5t-81 -202.5t81.5 -203t196.5 -84t194.5 83.5t79.5 203.5q0 119 -80.5 202.5t-194.5 83.5zM387 472q-55 0 -83 -44.5
t-28 -114.5q0 -40 11 -74.5t40 -61t73 -26.5q49 0 98 69q2 0 8 -4.5t7 -7.5q-5 -18 -23 -44t-25 -31q-33 -11 -79 -11q-97 0 -152 49.5t-55 136.5q0 78 54.5 132.5t155.5 54.5q27 0 69 -5q30 -4 50 -4q-6 -53 -8 -99q-1 -2 -10.5 -3t-10.5 1q-7 52 -32 70q-22 17 -60 17z
" />
    <glyph glyph-name="ordfeminine" unicode="&#xaa;" horiz-adv-x="285" 
d="M284 269q1 -2 -1 -12.5t-3 -12.5q-25 -28 -75 -28q-32 0 -40 23q-1 1 -4 14l-4 1q-51 -37 -72 -37q-22 0 -40 16q-24 26 -24 63q0 21 11 36q9 5 61 20.5t65 22.5q2 1 5 7v16q0 22 -9 36q-16 24 -49 24q-20 0 -30 -8q-3 -3 -24 -38h-2q-2 0 -5 1.5l-6 3t-5 3t-2 2.5
q0 4 6 20t8 18q24 17 53.5 29.5t44.5 12.5q24 0 45.5 -11.5t33.5 -28.5q17 -28 17 -69q0 -17 -2 -51.5t-2 -47.5q0 -28 25 -28q14 0 24 3zM162 352q0 3 -3 3q-52 -22 -56 -26q-8 -5 -8 -21q0 -20 11.5 -30.5t29.5 -10.5q10 0 18 6q6 4 6 13q2 21 2 66z" />
    <glyph glyph-name="guillemotleft" unicode="&#xab;" horiz-adv-x="624" 
d="M381 188q32 -18 87 -61t75 -65q2 -3 3 -16t0 -19l-5 -4q-23 23 -119 81t-142 74q3 14 7 20q69 30 152.5 80.5t114.5 75.5q3 -3 3 -5q0 -23 -6 -32q-18 -19 -74 -59t-96 -64q-3 -3 0 -6zM168 188q31 -17 84.5 -59.5t73.5 -64.5q1 -3 2 -16.5t0 -17.5q0 -4 -4 -4
q-24 22 -118 79t-139 74q0 10 6 19q69 28 151 78.5t112 75.5q2 -1 4 -5q0 -21 -7 -32q-16 -18 -70.5 -57.5t-94.5 -63.5q-3 -3 0 -6z" />
    <glyph glyph-name="logicalnot" unicode="&#xac;" horiz-adv-x="507" 
d="M80 270q-33 0 -33 6q9 39 16 52q10 -2 176 -2h74.5h56t37 0.5t24 0.5h9.5t3 -3t2 -4q0 -5 -0.5 -73.5t-0.5 -102.5q0 -62 2 -84q-28 -10 -52 -10q-2 0 -4.5 2.5t-2.5 3.5q0 32 -0.5 107.5t-0.5 80.5q0 26 -14 26h-292z" />
    <glyph glyph-name="uni00AD" unicode="&#xad;" horiz-adv-x="283" 
d="M49 234q73 0 198 5q1 -1 1.5 -5t-0.5 -6q-1 -10 -7 -31t-10 -22q-16 -6 -195 -6q-2 0 -2 10q7 55 15 55z" />
    <glyph glyph-name="registered" unicode="&#xae;" horiz-adv-x="285" 
d="M142 601q51 0 85.5 -34.5t34.5 -85.5t-35 -85.5t-85 -34.5t-84.5 34t-34.5 86q0 49 35 84.5t84 35.5zM142 582q-41 0 -68 -29t-27 -72q0 -41 28 -70.5t67 -29.5q42 0 69.5 28.5t27.5 71.5q0 42 -28 71.5t-69 29.5zM83 428q-2 5 0 9q11 2 14 4t3 8v72q0 9 -16 10
q-1 1 -1 6t2 5h71q36 0 36 -29q0 -20 -24 -29q15 -26 25 -36q8 -10 21 -12q1 -1 0 -5t-2 -5q-27 0 -36 3q-8 2 -14 10q-7 9 -20 32q-4 7 -10 7v-28q0 -10 17 -12q1 -1 1 -4.5t-1 -5.5q-3 0 -15.5 0.5t-17.5 0.5q-6 0 -18.5 -0.5t-14.5 -0.5zM132 488q14 0 20 3q9 5 9 16
q0 23 -23 23q-6 0 -6 -5v-37z" />
    <glyph glyph-name="macron" unicode="&#xaf;" horiz-adv-x="400" 
d="M104 549q14 -2 46 -2h69h66h26q0 -10 -6 -31.5t-9 -22.5q-13 -3 -175 -3q-27 0 -33 2q1 8 7.5 31t8.5 26z" />
    <glyph glyph-name="degree" unicode="&#xb0;" horiz-adv-x="283" 
d="M135 597q52 0 80.5 -32.5t28.5 -83.5q0 -48 -33 -79.5t-79 -31.5q-47 0 -79 30t-32 79q0 56 33 87t81 31zM130 551q-28 0 -47 -19.5t-19 -45.5q0 -35 21 -52.5t49 -17.5q67 0 67 64q0 28 -19 49.5t-52 21.5z" />
    <glyph glyph-name="plusminus" unicode="&#xb1;" horiz-adv-x="507" 
d="M453 20l-411 -3q-2 0 -2 9q3 28 11 48q5 -1 107 -1h308l1 -9q0 -7 -5 -25t-9 -19zM468 340q-9 -43 -17 -44h-32.5t-69.5 -0.5t-67 -0.5q-5 0 -5 -6q0 -24 -0.5 -64t-0.5 -67v-30q-1 -10 -45 -19q-8 0 -8 3v21.5v41.5v56v64q-64 -1 -180 -1q-3 0 -3 9q3 21 11 49
q9 -3 109 -3h63v62q0 77 -2 103q6 3 26.5 7.5t25.5 4.5q4 0 4 -33v-32v-52v-52q0 -8 5 -8h183q3 -3 3 -9z" />
    <glyph glyph-name="two.k" unicode="&#xb2;" horiz-adv-x="336" 
d="M115 680q-41 0 -79 -41q-2 -1 -8 7t-6 10q25 41 62.5 66t74.5 25q47 0 78 -31.5t31 -80.5q0 -60 -71 -127q-22 -21 -65 -57q-2 -4 2 -5q40 -3 113 -1q27 0 51 51q2 1 10.5 -2.5t9.5 -5.5q-18 -80 -35 -103q-6 -13 -34 -14t-91 0.5t-87 1.5q-32 0 -44 -1q-3 7 0 21
q74 57 112 101q44 54 44 112q0 31 -17.5 52.5t-50.5 21.5z" />
    <glyph glyph-name="three.k" unicode="&#xb3;" horiz-adv-x="327" 
d="M164 747q41 0 68 -24.5t27 -60.5q0 -46 -57 -78q-3 -1 -1 -3q92 -27 92 -97q0 -62 -67 -103q-47 -29 -107 -29q-37 0 -57 10q-15 7 -22 22q-9 23 -12 55q1 3 8 6t10 3q16 -37 45 -54q23 -14 54 -14q63 0 63 69q0 38 -24.5 62t-64.5 24q-10 0 -21 -1q-1 3 4 15t8 15
q43 9 59.5 23.5t16.5 38.5q0 26 -17 44t-45 18q-37 0 -74 -33q-2 0 -6.5 6.5t-4.5 10.5q60 75 125 75z" />
    <glyph glyph-name="acute" unicode="&#xb4;" horiz-adv-x="400" 
d="M224 597q7 3 41.5 5.5t42.5 0.5q1 -1 2.5 -5t0.5 -6q-7 -14 -56.5 -74.5t-67.5 -80.5q-3 -1 -11.5 4t-9.5 8q40 107 58 148z" />
    <glyph glyph-name="mu" unicode="&#xb5;" horiz-adv-x="466" 
d="M59 375q5 5 41.5 15.5t53.5 12.5q12 0 16 -3q0 -10 -2.5 -65.5t-4 -110.5t-1.5 -82q0 -22 4 -31q12 -33 45 -33q56 0 82 77q6 18 6 37v185q5 7 39.5 15.5t51.5 9.5q11 0 17 -2q-12 -82 -12 -183q0 -10 -0.5 -38.5t-0.5 -33.5q0 -67 28 -67q18 0 42 14q1 -1 2 -10t0 -13
q-18 -38 -49.5 -60t-58.5 -22q-26 0 -42 23t-16 92q0 1 -1.5 1t-2.5 -1q-29 -58 -63.5 -86.5t-57.5 -28.5q-38 0 -54 29q-3 -66 -2 -105q4 -89 115 -111q1 -2 -1 -11t-4 -11q-10 -12 -43.5 -26.5t-55.5 -14.5q-50 0 -58 122q-4 92 -6 253q-5 218 -7 263z" />
    <glyph glyph-name="paragraph" unicode="&#xb6;" horiz-adv-x="564" 
d="M517 581q-1 0 -22 -2.5t-31 -4.5q-18 -5 -25 -13t-12 -49t-4 -131q1 -44 0 -151t0 -151q0 -68 -12.5 -121t-31 -84.5t-43 -52t-45.5 -27.5t-40 -7q-24 0 -44 10.5t-28 25.5q-12 24 -12 69q4 8 9 11q52 -44 114 -44q53 0 69 56t14 225q-45 -21 -85 -22q-113 14 -177 82
t-64 169q0 52 20.5 94t55 68t72.5 41t80 21q52 7 145 12t98 5q3 -4 2 -14t-3 -15zM264 365q0 -80 25.5 -134.5t82.5 -62.5q-4 184 -4 257q0 112 13 138q-58 -6 -87.5 -51.5t-29.5 -146.5z" />
    <glyph glyph-name="periodcentered" unicode="&#xb7;" horiz-adv-x="233" 
d="M117 260q28 0 45 -17q22 -20 22 -55q0 -28 -18 -48q-20 -20 -52 -20q-26 0 -45 19q-20 19 -20 51q0 29 21 50q20 20 47 20z" />
    <glyph glyph-name="cedilla" unicode="&#xb8;" horiz-adv-x="398" 
d="M213 4h27l-31 -41q25 -13 42 -28q23 -20 23 -46q0 -39 -38.5 -66t-67.5 -27q-37 0 -52 28q-2 12 4 21q29 -16 60 -16q37 0 37 31q0 34 -69 57q0 6 1 9q1 2 28.5 35.5t35.5 42.5z" />
    <glyph glyph-name="one.k" unicode="&#xb9;" horiz-adv-x="315" 
d="M264 393q1 -1 0 -11t-3 -11q-16 0 -51.5 1t-58.5 1t-54 -1t-46 -1q-1 2 -1 11.5t1 10.5q11 1 36 5q13 2 17.5 10.5t6.5 28.5q2 56 2 120q0 98 -2 114q-2 20 -16 22q-4 1 -9 1.5t-12.5 1.5t-12.5 2q-2 2 -1.5 10.5t2.5 10.5q83 5 138 29q7 0 7 -2q-3 -38 -3 -121
q0 -144 2 -185q3 -37 21 -41l12 -2t13.5 -2t11.5 -2z" />
    <glyph glyph-name="ordmasculine" unicode="&#xba;" horiz-adv-x="350" 
d="M181 502q66 0 104.5 -39.5t38.5 -99.5q0 -83 -63 -122q-38 -24 -88 -24q-72 0 -109.5 40t-37.5 104q0 76 60 114q43 27 95 27zM166 475q-24 0 -38.5 -25t-14.5 -72q0 -65 20 -99.5t52 -34.5q52 0 52 99q0 60 -18.5 96t-52.5 36z" />
    <glyph glyph-name="guillemotright" unicode="&#xbb;" horiz-adv-x="624" 
d="M456 189q-31 17 -84.5 59.5t-73.5 65.5q-1 2 -2 15.5t0 18.5l4 4q23 -22 118 -80t139 -73q0 -11 -6 -20q-67 -27 -148.5 -77t-114.5 -76q-2 0 -4 4q5 29 7 32q17 18 71.5 58t93.5 64q3 2 0 5zM243 189q-32 19 -87 62t-75 65q-2 3 -3 16t0 18q1 2 5 4q23 -22 120 -81
t141 -74q-3 -15 -8 -20q-67 -29 -151.5 -80.5t-114.5 -75.5q-3 3 -3 5q0 23 6 32q17 18 72 58t97 66q1 1 1.5 2.5t-0.5 2.5z" />
    <glyph glyph-name="onequarter" unicode="&#xbc;" horiz-adv-x="770" 
d="M712 93q-4 0 -24 0.5t-36 0.5q-3 0 -3 -3l1 -113q-43 0 -88 -8l1 121q0 3 -2 3h-69q-68 0 -83 -1q0 19 4 29l180 234q6 2 28.5 4.5t26.5 1.5v-220q1 -3 3 -3q17 0 42 0.5t28 0.5q-7 -24 -9 -47zM271 245q1 -1 0 -11t-3 -11q-16 0 -51.5 1t-58.5 1t-54 -1t-46 -1
q-2 2 -2 11.5t2 10.5q11 1 36 5q13 2 17.5 10.5t6.5 28.5q2 56 2 120q0 98 -2 114q-2 20 -16 22q-4 1 -9 1.5t-12.5 1.5t-12.5 2q-2 2 -1.5 10.5t2.5 10.5q83 5 138 29q7 0 7 -2q-3 -38 -3 -121q0 -144 2 -185q3 -37 21 -41q8 -2 21.5 -4t15.5 -2zM567 630q2 1 14.5 1
t16.5 -2v-2q1 -2 1 -3q-7 -10 -195 -336t-202 -348q-3 -3 -6 -2q-15 15 -15 22q4 10 193.5 338.5t192.5 331.5zM461 138q4 0 36.5 -0.5t62.5 -0.5q3 0 3 4l2 140h-3q-12 -14 -49.5 -65.5t-51.5 -73.5v-4z" />
    <glyph glyph-name="onehalf" unicode="&#xbd;" horiz-adv-x="770" 
d="M263 245q1 -1 0 -11t-3 -11q-16 0 -51.5 1t-58.5 1t-54 -1t-46 -1q-2 2 -2 11.5t2 10.5q11 1 36 5q13 2 17.5 10.5t6.5 28.5q2 56 2 120q0 98 -2 114q-2 20 -16 22q-4 1 -9 1.5t-12.5 1.5t-12.5 2q-2 2 -1.5 10.5t2.5 10.5q83 5 138 29q7 0 7 -2q-3 -38 -3 -121
q0 -144 2 -185q3 -37 21 -41l12 -2t13.5 -2t11.5 -2zM552 630q2 1 14.5 1t16.5 -2l1 -2v-3q-7 -10 -195 -336t-202 -348q-3 -3 -6 -2q-15 15 -15 22q4 10 193.5 338.5t192.5 331.5zM529 295q-41 0 -79 -41q-2 -1 -8 7t-6 10q25 41 62.5 66t74.5 25q47 0 78 -31.5t31 -80.5
q0 -60 -71 -127q-22 -21 -65 -57q-2 -4 2 -5q40 -3 113 -1q27 0 51 51q2 1 10.5 -2.5t9.5 -5.5q-18 -80 -35 -103q-6 -13 -34 -14t-91 0.5t-87 1.5q-32 0 -44 -1q-3 7 0 21q74 57 112 101q44 54 44 112q0 31 -17.5 52.5t-50.5 21.5z" />
    <glyph glyph-name="threequarters" unicode="&#xbe;" horiz-adv-x="770" 
d="M715 93q-3 0 -23.5 0.5t-36.5 0.5q-3 0 -3 -3l1 -113q-43 0 -88 -8l1 121q0 3 -2 3h-69q-68 0 -83 -1q0 19 4 29l180 234q6 2 28.5 4.5t26.5 1.5v-220q1 -3 3 -3q17 0 42 0.5t28 0.5q-7 -24 -9 -47zM191 599q41 0 68 -24.5t27 -60.5q0 -46 -57 -78q-3 -1 -1 -3
q92 -27 92 -97q0 -62 -67 -103q-47 -29 -107 -29q-37 0 -57 10q-15 7 -22 22q-9 23 -12 55q1 3 8 6t10 3q16 -37 45 -54q23 -14 54 -14q63 0 63 69q0 38 -24.5 62t-64.5 24q-10 0 -21 -1q-1 3 4 15t8 15q43 9 59.5 23.5t16.5 38.5q0 26 -17 44t-45 18q-37 0 -74 -33
q-2 0 -6.5 6.5t-4.5 10.5q60 75 125 75zM578 630q2 1 14.5 1t16.5 -2l1 -2v-3q-7 -10 -195 -336t-202 -348q-3 -3 -6 -2q-15 15 -15 22q4 10 193.5 338.5t192.5 331.5zM464 138q4 0 36.5 -0.5t62.5 -0.5q3 0 3 4l2 140h-3q-12 -14 -49.5 -65.5t-51.5 -73.5v-4z" />
    <glyph glyph-name="questiondown" unicode="&#xbf;" horiz-adv-x="334" 
d="M172 102q0 7 -9 23.5t-23 30.5q-6 6 3 15q5 6 26.5 17t28.5 13q13 4 26 -1q21 -9 33.5 -28t12.5 -36q0 -24 -12 -31q-8 -6 -53.5 -35t-57.5 -38q-25 -17 -25 -43q0 -33 34 -60t87 -41q4 -1 9 -2.5t10.5 -2.5t8.5 -2q14 -3 14 -16q0 -10 -12.5 -33.5t-22.5 -31.5
q-11 -11 -30 -11q-61 0 -115 42q-66 49 -66 113q0 42 19 63q9 10 24 21.5t43 29.5t31 20q16 11 16 24zM182 276q-26 0 -43 15q-22 21 -22 52q0 25 18 46q19 18 52 18q26 0 43 -17q18 -19 18 -49q0 -25 -21 -48q-19 -17 -45 -17z" />
    <glyph glyph-name="Agrave" unicode="&#xc0;" horiz-adv-x="596" 
d="M-27 23q53 7 71 20t38 61q83 198 168 447q12 37 15 56q5 0 19 -0.5t23 -0.5q11 0 24.5 0.5t17.5 0.5q4 -16 14 -51q4 -11 69.5 -201t84.5 -240q23 -57 38.5 -71t67.5 -21q2 -2 0.5 -13t-3.5 -13q-8 0 -53 1.5t-79 1.5q-44 0 -140 -3q-2 3 -2 13t2 13q34 5 49 11
q16 7 11 23q-10 35 -55 162q-7 7 -9 7q-13 1 -78 1q-70 0 -82 -1q-8 0 -10 -9q-49 -136 -49 -151q0 -28 29 -35q28 -6 47 -8q2 -3 0.5 -13.5t-3.5 -12.5q-11 0 -51.5 1.5t-69.5 1.5q-23 0 -57 -1.5t-47 -1.5q-2 2 -2 12.5t2 13.5zM268 482h-5q-20 -58 -67 -202q-2 -6 2 -6
q10 -1 65 -1h68q1 0 2.5 2.5t0.5 3.5q-32 107 -66 203zM238 780q9 -5 52 -55t59 -72q1 -2 -7 -11t-10 -9q-5 0 -76.5 39.5t-84.5 49.5q-1 2 -1 7.5t1 6.5q6 8 31.5 25.5t35.5 18.5z" />
    <glyph glyph-name="Aacute" unicode="&#xc1;" horiz-adv-x="596" 
d="M-27 23q53 7 71 20t38 61q83 198 168 447q12 37 15 56q5 0 19 -0.5t23 -0.5q11 0 24.5 0.5t17.5 0.5q4 -16 14 -51q4 -11 69.5 -201t84.5 -240q23 -57 38.5 -71t67.5 -21q2 -2 0.5 -13t-3.5 -13q-8 0 -53 1.5t-79 1.5q-44 0 -140 -3q-2 3 -2 13t2 13q34 5 49 11
q16 7 11 23q-10 35 -55 162q-7 7 -9 7q-13 1 -78 1q-70 0 -82 -1q-8 0 -10 -9q-49 -136 -49 -151q0 -28 29 -35q28 -6 47 -8q2 -3 0.5 -13.5t-3.5 -12.5q-11 0 -51.5 1.5t-69.5 1.5q-23 0 -57 -1.5t-47 -1.5q-2 2 -2 12.5t2 13.5zM268 482h-5q-20 -58 -67 -202q-2 -6 2 -6
q10 -1 65 -1h68q1 0 2.5 2.5t0.5 3.5q-32 107 -66 203zM381 775q9 0 32.5 -15.5t29.5 -24.5q1 -1 1 -5t-1 -6q-11 -10 -86.5 -51t-81.5 -41q-2 0 -8.5 7.5t-6.5 11.5q18 21 64 69t57 55z" />
    <glyph glyph-name="Acircumflex" unicode="&#xc2;" horiz-adv-x="596" 
d="M-27 23q53 7 71 20t38 61q83 198 168 447q12 37 15 56q5 0 19 -0.5t23 -0.5q11 0 24.5 0.5t17.5 0.5q4 -16 14 -51q4 -11 69.5 -201t84.5 -240q23 -57 38.5 -71t67.5 -21q2 -2 0.5 -13t-3.5 -13q-8 0 -53 1.5t-79 1.5q-44 0 -140 -3q-2 3 -2 13t2 13q34 5 49 11
q16 7 11 23q-10 35 -55 162q-7 7 -9 7q-13 1 -78 1q-70 0 -82 -1q-8 0 -10 -9q-49 -136 -49 -151q0 -28 29 -35q28 -6 47 -8q2 -3 0.5 -13.5t-3.5 -12.5q-11 0 -51.5 1.5t-69.5 1.5q-23 0 -57 -1.5t-47 -1.5q-2 2 -2 12.5t2 13.5zM268 482h-5q-20 -58 -67 -202q-2 -6 2 -6
q10 -1 65 -1h68q1 0 2.5 2.5t0.5 3.5q-32 107 -66 203zM295 751q8 5 17 5q9 -10 61 -53t72 -57q0 -4 -5.5 -12t-7.5 -8q-5 0 -59.5 22.5t-66.5 29.5q-5 3 -9 0q-17 -9 -64.5 -30.5t-51.5 -21.5t-8.5 8t-3.5 12q23 17 69 55t57 50z" />
    <glyph glyph-name="Atilde" unicode="&#xc3;" horiz-adv-x="596" 
d="M-27 23q53 7 71 20t38 61q83 198 168 447q12 37 15 56q5 0 19 -0.5t23 -0.5q11 0 24.5 0.5t17.5 0.5q4 -16 14 -51q4 -11 69.5 -201t84.5 -240q23 -57 38.5 -71t67.5 -21q2 -2 0.5 -13t-3.5 -13q-8 0 -53 1.5t-79 1.5q-44 0 -140 -3q-2 3 -2 13t2 13q34 5 49 11
q16 7 11 23q-10 35 -55 162q-7 7 -9 7q-13 1 -78 1q-70 0 -82 -1q-8 0 -10 -9q-49 -136 -49 -151q0 -28 29 -35q28 -6 47 -8q2 -3 0.5 -13.5t-3.5 -12.5q-11 0 -51.5 1.5t-69.5 1.5q-23 0 -57 -1.5t-47 -1.5q-2 2 -2 12.5t2 13.5zM268 482h-5q-20 -58 -67 -202q-2 -6 2 -6
q10 -1 65 -1h68q1 0 2.5 2.5t0.5 3.5q-32 107 -66 203zM375 705q37 0 71 33q2 2 4 -4q6 -12 4 -18q-12 -22 -45 -44t-61 -22q-21 0 -69 15q-25 9 -43 9q-27 0 -62 -30q-1 -1 -4 3.5t-4.5 10.5t-0.5 7q11 16 43 40t53 24t63 -13q33 -11 51 -11z" />
    <glyph glyph-name="Adieresis" unicode="&#xc4;" horiz-adv-x="596" 
d="M-27 23q53 7 71 20t38 61q83 198 168 447q12 37 15 56q5 0 19 -0.5t23 -0.5q11 0 24.5 0.5t17.5 0.5q4 -16 14 -51q4 -11 69.5 -201t84.5 -240q23 -57 38.5 -71t67.5 -21q2 -2 0.5 -13t-3.5 -13q-8 0 -53 1.5t-79 1.5q-44 0 -140 -3q-2 3 -2 13t2 13q34 5 49 11
q16 7 11 23q-10 35 -55 162q-7 7 -9 7q-13 1 -78 1q-70 0 -82 -1q-8 0 -10 -9q-49 -136 -49 -151q0 -28 29 -35q28 -6 47 -8q2 -3 0.5 -13.5t-3.5 -12.5q-11 0 -51.5 1.5t-69.5 1.5q-23 0 -57 -1.5t-47 -1.5q-2 2 -2 12.5t2 13.5zM268 482h-5q-20 -58 -67 -202q-2 -6 2 -6
q10 -1 65 -1h68q1 0 2.5 2.5t0.5 3.5q-32 107 -66 203zM271 688q0 -30 -21 -47q-5 -4 -24.5 -5.5t-25.5 1.5q-21 11 -26 37q-3 25 4 35q17 19 54 19q24 0 32 -11q7 -14 7 -29zM440 688q0 -30 -22 -47q-5 -4 -24.5 -5.5t-25.5 1.5q-20 11 -25 37q-5 22 4 35q17 19 53 19
q24 0 32 -11q8 -13 8 -29z" />
    <glyph glyph-name="Aring" unicode="&#xc5;" horiz-adv-x="596" 
d="M-27 23q53 7 71 20t38 61q83 198 168 447q12 37 15 56q5 0 19 -0.5t23 -0.5q11 0 24.5 0.5t17.5 0.5q4 -16 14 -51q4 -11 69.5 -201t84.5 -240q23 -57 38.5 -71t67.5 -21q2 -2 0.5 -13t-3.5 -13q-8 0 -53 1.5t-79 1.5q-44 0 -140 -3q-2 3 -2 13t2 13q34 5 49 11
q16 7 11 23q-10 35 -55 162q-7 7 -9 7q-13 1 -78 1q-70 0 -82 -1q-8 0 -10 -9q-49 -136 -49 -151q0 -28 29 -35q28 -6 47 -8q2 -3 0.5 -13.5t-3.5 -12.5q-11 0 -51.5 1.5t-69.5 1.5q-23 0 -57 -1.5t-47 -1.5q-2 2 -2 12.5t2 13.5zM268 482h-5q-20 -58 -67 -202q-2 -6 2 -6
q10 -1 65 -1h68q1 0 2.5 2.5t0.5 3.5q-32 107 -66 203zM309 767q35 0 55 -20.5t20 -50.5q0 -34 -22 -54t-57 -20q-26 0 -50.5 17t-24.5 53q0 34 20 54.5t59 20.5zM305 731q-21 0 -33 -10t-12 -27t14.5 -26t34.5 -9q19 0 32.5 9t13.5 24q0 39 -50 39z" />
    <glyph glyph-name="AE" unicode="&#xc6;" horiz-adv-x="826" 
d="M236 584q-3 4 -1.5 13.5t4.5 11.5q10 0 72.5 -1.5t105.5 -1.5h206q91 0 122 6l4 -3q-9 -40 -18 -146q-3 -4 -14 -4t-14 3q-5 43 -19 74q-11 26 -42 29q-19 2 -74.5 2t-72.5 -2q-3 0 -6 -5.5t-3 -9.5q3 -36 9.5 -120.5l8.5 -110.5q2 -7 7 -7q114 0 130 1q17 2 25.5 9
t14.5 26q2 7 5.5 21.5t4.5 16.5q2 2 14 1.5t15 -3.5q-6 -63 -6 -95q0 -21 1 -53.5t1 -40.5q-4 -2 -14.5 -3t-14.5 2q-6 27 -11 43q-8 27 -36 29q-22 2 -126 2q-5 0 -5 -8q10 -127 15 -175q4 -39 26 -44q19 -3 109 -3q57 1 78 30q30 35 51 91q5 2 15 -1.5t12 -7.5
q-2 -20 -14.5 -68t-23.5 -70q-8 -16 -53 -16q-19 0 -58 1.5t-85.5 2t-106.5 0.5q-30 0 -86 -1.5t-80 -1.5q-3 3 -3.5 13t1.5 13q52 5 70 11q28 7 27 53q-2 71 -10 173q-3 5 -5 5q-13 1 -84 1q-62 0 -75 -1q-8 0 -10 -7q-85 -176 -87 -190q-5 -28 26 -36q19 -5 50 -9
q2 -3 1 -13t-3 -13q-14 0 -56.5 1.5t-70.5 1.5q-23 0 -59.5 -1.5t-45.5 -1.5q-2 3 -2 13t2 13q52 8 72.5 21t45.5 59q114 205 232 456q2 7 -4 10q-41 8 -84 15zM371 560q-1 1 -3.5 1.5t-3.5 -0.5q-9 -20 -55.5 -117t-59.5 -125q0 -5 3 -7q2 0 21.5 -0.5t38.5 -0.5q57 0 71 1
q5 0 5 5q-9 173 -17 243z" />
    <glyph glyph-name="Ccedilla" unicode="&#xc7;" horiz-adv-x="656" 
d="M569 448q-9 54 -23 79.5t-40 39.5q-45 25 -121 25q-92 0 -146 -70t-54 -203q0 -127 61 -210.5t178 -83.5q69 0 107 34q38 35 72 97q4 0 12.5 -4.5t9.5 -9.5q-9 -33 -33.5 -78.5t-42.5 -58.5q-69 -21 -139 -23l-17 -24q33 -19 45 -28q24 -20 24 -50q0 -41 -40.5 -69.5
t-69.5 -28.5q-37 0 -55 29q-2 12 4 21q31 -16 63 -16q39 0 39 32q0 38 -74 62q0 5 1 8q29 39 49 64q-159 5 -244 88.5t-85 238.5q0 86 40 158.5t119 112.5q83 44 204 44q40 0 116 -8q65 -7 75 -7q-10 -74 -8 -158q-2 -3 -14 -4.5t-13 1.5z" />
    <glyph glyph-name="Egrave" unicode="&#xc8;" horiz-adv-x="551" 
d="M29 584q-2 3 -1.5 12.5t2.5 12.5q13 0 61.5 -1.5t76.5 -1.5h194q90 0 119 5q3 -3 3 -4q-11 -39 -17 -143q-3 -3 -13.5 -3.5t-13.5 1.5q-5 47 -17 72q-12 27 -43 30q-18 2 -74 2t-69 -1q-3 -1 -6.5 -7t-3.5 -10q-2 -109 0 -211q0 -7 5 -7q20 -1 69.5 -0.5t71.5 1.5
q28 1 38 37q5 11 8 34q4 2 15.5 1.5t13.5 -2.5q-6 -69 -6 -94q0 -13 3 -94q-3 -2 -14.5 -2.5t-14.5 1.5q-5 27 -8 39q-10 29 -37 31q-14 2 -65.5 2.5t-72.5 -0.5q-6 0 -6 -8v-58.5v-78.5v-60q0 -29 22 -34q30 -6 123 -6q38 0 53.5 5.5t29.5 22.5q26 28 54 94q4 1 14 -2.5
t12 -7.5q-4 -23 -17.5 -71.5t-24.5 -68.5q-4 -9 -13.5 -12t-42.5 -3q-38 0 -125.5 2t-141.5 2q-30 0 -85.5 -1.5t-78.5 -1.5q-2 4 -2 13.5t2 12.5q51 5 70 10q16 5 23 16t8 37q2 43 2 248q0 166 -2 195q-2 24 -7.5 33t-21.5 13q-20 6 -49 9zM224 789q9 -5 52 -55t59 -72
q1 -2 -7 -11t-10 -9q-5 0 -76.5 39.5t-84.5 49.5q-1 1 -1 7t1 7q6 8 31.5 25.5t35.5 18.5z" />
    <glyph glyph-name="Eacute" unicode="&#xc9;" horiz-adv-x="551" 
d="M29 584q-2 3 -1.5 12.5t2.5 12.5q13 0 61.5 -1.5t76.5 -1.5h194q90 0 119 5q3 -3 3 -4q-11 -39 -17 -143q-3 -3 -13.5 -3.5t-13.5 1.5q-5 47 -17 72q-12 27 -43 30q-18 2 -74 2t-69 -1q-3 -1 -6.5 -7t-3.5 -10q-2 -109 0 -211q0 -7 5 -7q20 -1 69.5 -0.5t71.5 1.5
q28 1 38 37q5 11 8 34q4 2 15.5 1.5t13.5 -2.5q-6 -69 -6 -94q0 -13 3 -94q-3 -2 -14.5 -2.5t-14.5 1.5q-5 27 -8 39q-10 29 -37 31q-14 2 -65.5 2.5t-72.5 -0.5q-6 0 -6 -8v-58.5v-78.5v-60q0 -29 22 -34q30 -6 123 -6q38 0 53.5 5.5t29.5 22.5q26 28 54 94q4 1 14 -2.5
t12 -7.5q-4 -23 -17.5 -71.5t-24.5 -68.5q-4 -9 -13.5 -12t-42.5 -3q-38 0 -125.5 2t-141.5 2q-30 0 -85.5 -1.5t-78.5 -1.5q-2 4 -2 13.5t2 12.5q51 5 70 10q16 5 23 16t8 37q2 43 2 248q0 166 -2 195q-2 24 -7.5 33t-21.5 13q-20 6 -49 9zM362 785q9 0 32.5 -15.5
t29.5 -24.5q1 -1 1 -5t-1 -6q-11 -10 -86.5 -51t-81.5 -41q-2 0 -8.5 7.5t-6.5 11.5q18 21 64 69t57 55z" />
    <glyph glyph-name="Ecircumflex" unicode="&#xca;" horiz-adv-x="551" 
d="M29 584q-2 3 -1.5 12.5t2.5 12.5q13 0 61.5 -1.5t76.5 -1.5h194q90 0 119 5q3 -3 3 -4q-11 -39 -17 -143q-3 -3 -13.5 -3.5t-13.5 1.5q-5 47 -17 72q-12 27 -43 30q-18 2 -74 2t-69 -1q-3 -1 -6.5 -7t-3.5 -10q-2 -109 0 -211q0 -7 5 -7q20 -1 69.5 -0.5t71.5 1.5
q28 1 38 37q5 11 8 34q4 2 15.5 1.5t13.5 -2.5q-6 -69 -6 -94q0 -13 3 -94q-3 -2 -14.5 -2.5t-14.5 1.5q-5 27 -8 39q-10 29 -37 31q-14 2 -65.5 2.5t-72.5 -0.5q-6 0 -6 -8v-58.5v-78.5v-60q0 -29 22 -34q30 -6 123 -6q38 0 53.5 5.5t29.5 22.5q26 28 54 94q4 1 14 -2.5
t12 -7.5q-4 -23 -17.5 -71.5t-24.5 -68.5q-4 -9 -13.5 -12t-42.5 -3q-38 0 -125.5 2t-141.5 2q-30 0 -85.5 -1.5t-78.5 -1.5q-2 4 -2 13.5t2 12.5q51 5 70 10q16 5 23 16t8 37q2 43 2 248q0 166 -2 195q-2 24 -7.5 33t-21.5 13q-20 6 -49 9zM267 769q7 5 17 5q9 -10 61 -53
t72 -57q0 -4 -5.5 -12t-7.5 -8q-5 0 -59.5 22.5t-66.5 29.5q-5 3 -9 0q-17 -9 -64.5 -30.5t-51.5 -21.5t-8.5 8t-3.5 12q23 17 69 55t57 50z" />
    <glyph glyph-name="Edieresis" unicode="&#xcb;" horiz-adv-x="551" 
d="M29 584q-2 3 -1.5 12.5t2.5 12.5q13 0 61.5 -1.5t76.5 -1.5h194q90 0 119 5q3 -3 3 -4q-11 -39 -17 -143q-3 -3 -13.5 -3.5t-13.5 1.5q-5 47 -17 72q-12 27 -43 30q-18 2 -74 2t-69 -1q-3 -1 -6.5 -7t-3.5 -10q-2 -109 0 -211q0 -7 5 -7q20 -1 69.5 -0.5t71.5 1.5
q28 1 38 37q5 11 8 34q4 2 15.5 1.5t13.5 -2.5q-6 -69 -6 -94q0 -13 3 -94q-3 -2 -14.5 -2.5t-14.5 1.5q-5 27 -8 39q-10 29 -37 31q-14 2 -65.5 2.5t-72.5 -0.5q-6 0 -6 -8v-58.5v-78.5v-60q0 -29 22 -34q30 -6 123 -6q38 0 53.5 5.5t29.5 22.5q26 28 54 94q4 1 14 -2.5
t12 -7.5q-4 -23 -17.5 -71.5t-24.5 -68.5q-4 -9 -13.5 -12t-42.5 -3q-38 0 -125.5 2t-141.5 2q-30 0 -85.5 -1.5t-78.5 -1.5q-2 4 -2 13.5t2 12.5q51 5 70 10q16 5 23 16t8 37q2 43 2 248q0 166 -2 195q-2 24 -7.5 33t-21.5 13q-20 6 -49 9zM245 708q0 -30 -21 -47
q-5 -4 -24.5 -5.5t-25.5 1.5q-21 11 -26 37q-3 25 4 35q17 19 54 19q24 0 32 -11q7 -14 7 -29zM414 708q0 -30 -22 -47q-5 -4 -24.5 -5.5t-25.5 1.5q-20 11 -25 37q-5 22 4 35q17 19 53 19q24 0 32 -11q8 -13 8 -29z" />
    <glyph glyph-name="Igrave" unicode="&#xcc;" horiz-adv-x="333" 
d="M27 584q-2 2 -1.5 12.5t2.5 12.5q12 0 57.5 -1.5t80.5 -1.5q46 0 88.5 1.5t45.5 1.5q2 -3 2 -12.5t-2 -12.5q-33 -5 -48 -9q-16 -6 -20 -16t-6 -38q-1 -33 -1 -205q0 -197 2 -233q1 -15 2 -22.5t8 -16.5t21 -12q17 -5 52 -9q2 -3 1 -13.5t-3 -12.5q-117 3 -135 3
q-44 0 -87.5 -1.5t-57.5 -1.5q-4 2 -4 12.5t4 13.5q29 3 45 7q18 4 24.5 14t8.5 37q2 36 2 247q0 157 -3 203q-2 36 -25 43q-21 6 -53 10zM101 784q9 -5 52 -55t59 -72q1 -2 -7 -11t-10 -9q-5 0 -76.5 39.5t-84.5 49.5q-1 2 -1 7.5t1 6.5q6 8 31.5 25.5t35.5 18.5z" />
    <glyph glyph-name="Iacute" unicode="&#xcd;" horiz-adv-x="333" 
d="M27 584q-2 2 -1.5 12.5t2.5 12.5q12 0 57.5 -1.5t80.5 -1.5q46 0 88.5 1.5t45.5 1.5q2 -3 2 -12.5t-2 -12.5q-33 -5 -48 -9q-16 -6 -20 -16t-6 -38q-1 -33 -1 -205q0 -197 2 -233q1 -15 2 -22.5t8 -16.5t21 -12q17 -5 52 -9q2 -3 1 -13.5t-3 -12.5q-117 3 -135 3
q-44 0 -87.5 -1.5t-57.5 -1.5q-4 2 -4 12.5t4 13.5q29 3 45 7q18 4 24.5 14t8.5 37q2 36 2 247q0 157 -3 203q-2 36 -25 43q-21 6 -53 10zM247 783q9 0 32.5 -15.5t29.5 -24.5q1 -1 1 -5t-1 -6q-11 -10 -86.5 -51t-81.5 -41q-2 0 -8.5 7.5t-6.5 11.5q18 21 64 69t57 55z" />
    <glyph glyph-name="Icircumflex" unicode="&#xce;" horiz-adv-x="333" 
d="M27 584q-2 2 -1.5 12.5t2.5 12.5q12 0 57.5 -1.5t80.5 -1.5q46 0 88.5 1.5t45.5 1.5q2 -3 2 -12.5t-2 -12.5q-33 -5 -48 -9q-16 -6 -20 -16t-6 -38q-1 -33 -1 -205q0 -197 2 -233q1 -15 2 -22.5t8 -16.5t21 -12q17 -5 52 -9q2 -3 1 -13.5t-3 -12.5q-117 3 -135 3
q-44 0 -87.5 -1.5t-57.5 -1.5q-4 2 -4 12.5t4 13.5q29 3 45 7q18 4 24.5 14t8.5 37q2 36 2 247q0 157 -3 203q-2 36 -25 43q-21 6 -53 10zM155 768q7 5 17 5q9 -10 61 -53t72 -57q0 -4 -5.5 -12t-7.5 -8q-5 0 -59.5 22.5t-66.5 29.5q-5 3 -9 0q-17 -9 -64.5 -30.5
t-51.5 -21.5t-8.5 8t-3.5 12q23 17 69 55t57 50z" />
    <glyph glyph-name="Idieresis" unicode="&#xcf;" horiz-adv-x="333" 
d="M27 584q-2 2 -1.5 12.5t2.5 12.5q12 0 57.5 -1.5t80.5 -1.5q46 0 88.5 1.5t45.5 1.5q2 -3 2 -12.5t-2 -12.5q-33 -5 -48 -9q-16 -6 -20 -16t-6 -38q-1 -33 -1 -205q0 -197 2 -233q1 -15 2 -22.5t8 -16.5t21 -12q17 -5 52 -9q2 -3 1 -13.5t-3 -12.5q-117 3 -135 3
q-44 0 -87.5 -1.5t-57.5 -1.5q-4 2 -4 12.5t4 13.5q29 3 45 7q18 4 24.5 14t8.5 37q2 36 2 247q0 157 -3 203q-2 36 -25 43q-21 6 -53 10zM130 708q0 -30 -21 -47q-5 -4 -24.5 -5.5t-25.5 1.5q-21 11 -26 37q-3 25 4 35q17 19 54 19q24 0 32 -11q7 -14 7 -29zM299 708
q0 -30 -22 -47q-5 -4 -24.5 -5.5t-25.5 1.5q-20 11 -25 37q-5 22 4 35q17 19 53 19q24 0 32 -11q8 -13 8 -29z" />
    <glyph glyph-name="Eth" unicode="&#xd0;" horiz-adv-x="706" 
d="M22 584q-1 3 -0.5 13t2.5 12q66 -3 136 -3q33 0 90 1.5t99 1.5q132 0 209 -64q98 -82 98 -228q0 -156 -106 -243q-96 -81 -262 -81q-32 0 -109 2t-121 2h-43q-2 3 -2 14t2 12q42 3 60 9q26 7 30 46q3 41 3 222q-78 -2 -81 -2q0 27 7 34q9 0 34.5 -0.5t39.5 -0.5
q0 138 -3 198q-2 21 -7 30t-21 14q-20 7 -55 11zM228 87q3 -23 17 -33q30 -26 96 -26q74 0 121 55q65 78 65 218q0 76 -26.5 139.5t-78.5 99.5q-53 37 -146 37q-31 0 -41 -5q-8 -6 -8 -16q-2 -35 -2 -225q32 0 68 0.5t61 0.5h28q0 -18 -5 -33q-26 0 -77 0.5t-75 0.5
q0 -170 3 -213z" />
    <glyph glyph-name="Ntilde" unicode="&#xd1;" horiz-adv-x="697" 
d="M12 583q-1 2 -1 13t2 13q13 0 59.5 -1.5t74.5 -1.5q49 0 59 1q6 -15 36 -53q205 -264 319 -400h1q1 1 2 1q0 322 -4 363q-3 26 -11.5 37.5t-30.5 18.5q-29 6 -61 10q-2 3 -1.5 12.5t2.5 12.5q10 0 53 -1.5t75 -1.5q25 0 63.5 1.5t42.5 1.5q2 -2 2 -12.5t-2 -12.5
q-30 -6 -40 -9q-20 -7 -28.5 -20t-10.5 -39q-6 -84 -8 -385q0 -68 2 -136q-10 1 -40.5 0.5t-43.5 -1.5q-22 32 -98.5 133t-165.5 216.5t-101 131.5q-2 1 -3.5 0.5t-1.5 -1.5q-2 -80 -1 -213t3 -167q1 -30 11.5 -43.5t31.5 -18.5q12 -3 56 -9q2 -2 2 -12.5t-3 -13.5
q-11 0 -52 1.5t-68 1.5q-33 0 -72.5 -1.5t-47.5 -1.5q-2 2 -2 13t2 13q39 5 54 10q16 5 24 17.5t11 40.5q8 82 10 414q0 46 -34 61q-24 13 -66 17zM432 719q37 0 71 33q2 2 4 -4q6 -12 4 -18q-12 -22 -45 -44t-61 -22q-21 0 -69 15q-25 9 -43 9q-27 0 -62 -30q-1 -1 -4 3.5
t-4.5 10.5t-0.5 7q11 16 43 40t53 24t63 -13q33 -11 51 -11z" />
    <glyph glyph-name="Ograve" unicode="&#xd2;" horiz-adv-x="742" 
d="M368 -18q-148 0 -234 91q-84 91 -84 232q0 125 70 202q43 54 111 85.5t148 31.5q148 0 230.5 -89t82.5 -222q0 -123 -60 -203q-45 -63 -114.5 -95.5t-149.5 -32.5zM401 19q53 0 90 35q70 66 70 225q0 83 -24.5 156.5t-73.5 113.5q-48 40 -111 40q-46 0 -83 -25
q-87 -60 -87 -229q0 -81 26.5 -158t80.5 -120q47 -38 112 -38zM308 802q9 -5 52 -55t59 -72q1 -2 -7 -11t-10 -9q-5 0 -76.5 39.5t-84.5 49.5q-1 2 -1 7.5t1 6.5q6 8 31.5 25.5t35.5 18.5z" />
    <glyph glyph-name="Oacute" unicode="&#xd3;" horiz-adv-x="742" 
d="M368 -18q-148 0 -234 91q-84 91 -84 232q0 125 70 202q43 54 111 85.5t148 31.5q148 0 230.5 -89t82.5 -222q0 -123 -60 -203q-45 -63 -114.5 -95.5t-149.5 -32.5zM401 19q53 0 90 35q70 66 70 225q0 83 -24.5 156.5t-73.5 113.5q-48 40 -111 40q-46 0 -83 -25
q-87 -60 -87 -229q0 -81 26.5 -158t80.5 -120q47 -38 112 -38zM434 799q9 0 32.5 -15.5t29.5 -24.5q1 -1 1 -5t-1 -6q-11 -10 -86.5 -51t-81.5 -41q-2 0 -8.5 7.5t-6.5 11.5q18 21 64 69t57 55z" />
    <glyph glyph-name="Ocircumflex" unicode="&#xd4;" horiz-adv-x="742" 
d="M368 -18q-148 0 -234 91q-84 91 -84 232q0 125 70 202q43 54 111 85.5t148 31.5q148 0 230.5 -89t82.5 -222q0 -123 -60 -203q-45 -63 -114.5 -95.5t-149.5 -32.5zM401 19q53 0 90 35q70 66 70 225q0 83 -24.5 156.5t-73.5 113.5q-48 40 -111 40q-46 0 -83 -25
q-87 -60 -87 -229q0 -81 26.5 -158t80.5 -120q47 -38 112 -38zM359 775q8 5 17 5q9 -10 61 -53t72 -57q0 -4 -5.5 -12t-7.5 -8q-5 0 -59.5 22.5t-66.5 29.5q-5 3 -9 0q-17 -9 -64.5 -30.5t-51.5 -21.5t-8.5 8t-3.5 12q23 17 69 55t57 50z" />
    <glyph glyph-name="Otilde" unicode="&#xd5;" horiz-adv-x="742" 
d="M368 -18q-148 0 -234 91q-84 91 -84 232q0 125 70 202q43 54 111 85.5t148 31.5q148 0 230.5 -89t82.5 -222q0 -123 -60 -203q-45 -63 -114.5 -95.5t-149.5 -32.5zM401 19q53 0 90 35q70 66 70 225q0 83 -24.5 156.5t-73.5 113.5q-48 40 -111 40q-46 0 -83 -25
q-87 -60 -87 -229q0 -81 26.5 -158t80.5 -120q47 -38 112 -38zM437 729q37 0 71 33q2 2 4 -4q6 -12 4 -18q-12 -22 -45 -44t-61 -22q-21 0 -69 15q-25 9 -43 9q-27 0 -62 -30q-1 -1 -4 3.5t-4.5 10.5t-0.5 7q11 16 43 40t53 24t63 -13q33 -11 51 -11z" />
    <glyph glyph-name="Odieresis" unicode="&#xd6;" horiz-adv-x="742" 
d="M368 -18q-148 0 -234 91q-84 91 -84 232q0 125 70 202q43 54 111 85.5t148 31.5q148 0 230.5 -89t82.5 -222q0 -123 -60 -203q-45 -63 -114.5 -95.5t-149.5 -32.5zM401 19q53 0 90 35q70 66 70 225q0 83 -24.5 156.5t-73.5 113.5q-48 40 -111 40q-46 0 -83 -25
q-87 -60 -87 -229q0 -81 26.5 -158t80.5 -120q47 -38 112 -38zM334 718q0 -30 -21 -47q-5 -4 -24.5 -5.5t-25.5 1.5q-21 11 -26 37q-3 25 4 35q17 19 54 19q24 0 32 -11q7 -14 7 -29zM503 718q0 -30 -22 -47q-5 -4 -24.5 -5.5t-25.5 1.5q-20 11 -25 37q-5 22 4 35
q17 19 53 19q24 0 32 -11q8 -13 8 -29z" />
    <glyph glyph-name="multiply" unicode="&#xd7;" horiz-adv-x="507" 
d="M400 423q7 9 60 11q7 -4 3 -10q-52 -68 -174 -202v-7q114 -130 169 -177q0 -10 -3 -11q-8 -3 -37.5 0.5t-38.5 10.5q-17 13 -130 134q-4 4 -7 1q-109 -122 -128 -137q-16 -9 -64 -13q-2 1 -3.5 5t-0.5 6q12 10 77 80t85 94q4 4 0 9q-102 112 -157 179q0 5 13 23.5
t17 22.5q6 3 11 0q4 -9 66.5 -82t94.5 -107q126 140 147 170z" />
    <glyph glyph-name="Oslash" unicode="&#xd8;" horiz-adv-x="742" 
d="M189 29l-46 -64q-1 -1 -13.5 2.5t-16.5 5.5l-1 4l50 70q-53 43 -82.5 111t-29.5 147q0 125 70 202q43 54 111 85.5t148 31.5q93 0 170 -42l39 56q4 5 32 -4v-5l-46 -64q118 -87 118 -252q0 -123 -60 -203q-45 -63 -114.5 -95.5t-149.5 -32.5q-103 0 -179 47zM224 132
l276 384q-55 72 -147 73q-49 0 -83 -25q-45 -31 -68 -92t-23 -137q0 -115 45 -203zM517 485l-275 -383q56 -84 158 -84q55 0 92 35q72 68 72 226q0 129 -47 206z" />
    <glyph glyph-name="Ugrave" unicode="&#xd9;" horiz-adv-x="686" 
d="M16 584q-2 2 -1.5 12t2.5 13q8 0 55.5 -1.5t81.5 -1.5q36 0 82 1.5t57 1.5q2 -3 2 -13t-2 -12l-43 -8q-17 -4 -24 -16t-9 -37q-3 -110 0 -259q2 -79 15 -120q30 -105 162 -105q66 0 109 36t50 131q11 131 2 302q-1 34 -10.5 48t-33.5 19q-11 3 -50 9q-2 2 -1.5 11.5
t2.5 13.5q10 0 48 -1.5t66 -1.5q34 0 68 1.5t41 1.5q2 -3 2 -13t-2 -12q-34 -7 -40 -9q-19 -5 -26.5 -19.5t-9.5 -52.5q-8 -251 -11 -281q-17 -240 -250 -240q-222 0 -245 180q-3 24 -5 71.5t-2.5 88.5t-0.5 107.5v94.5q-2 42 -31 51q-22 6 -48 9zM303 786q9 -5 52 -55
t59 -72q1 -2 -7 -11t-10 -9q-5 0 -76.5 39.5t-84.5 49.5q-1 2 -1 7.5t1 6.5q6 8 31.5 25.5t35.5 18.5z" />
    <glyph glyph-name="Uacute" unicode="&#xda;" horiz-adv-x="686" 
d="M16 584q-2 2 -1.5 12t2.5 13q8 0 55.5 -1.5t81.5 -1.5q36 0 82 1.5t57 1.5q2 -3 2 -13t-2 -12l-43 -8q-17 -4 -24 -16t-9 -37q-3 -110 0 -259q2 -79 15 -120q30 -105 162 -105q66 0 109 36t50 131q11 131 2 302q-1 34 -10.5 48t-33.5 19q-11 3 -50 9q-2 2 -1.5 11.5
t2.5 13.5q10 0 48 -1.5t66 -1.5q34 0 68 1.5t41 1.5q2 -3 2 -13t-2 -12q-34 -7 -40 -9q-19 -5 -26.5 -19.5t-9.5 -52.5q-8 -251 -11 -281q-17 -240 -250 -240q-222 0 -245 180q-3 24 -5 71.5t-2.5 88.5t-0.5 107.5v94.5q-2 42 -31 51q-22 6 -48 9zM450 785q9 0 32.5 -15.5
t29.5 -24.5q1 -1 1 -5t-1 -6q-11 -10 -86.5 -51t-81.5 -41q-2 0 -8.5 7.5t-6.5 11.5q18 21 64 69t57 55z" />
    <glyph glyph-name="Ucircumflex" unicode="&#xdb;" horiz-adv-x="686" 
d="M16 584q-2 2 -1.5 12t2.5 13q8 0 55.5 -1.5t81.5 -1.5q36 0 82 1.5t57 1.5q2 -3 2 -13t-2 -12l-43 -8q-17 -4 -24 -16t-9 -37q-3 -110 0 -259q2 -79 15 -120q30 -105 162 -105q66 0 109 36t50 131q11 131 2 302q-1 34 -10.5 48t-33.5 19q-11 3 -50 9q-2 2 -1.5 11.5
t2.5 13.5q10 0 48 -1.5t66 -1.5q34 0 68 1.5t41 1.5q2 -3 2 -13t-2 -12q-34 -7 -40 -9q-19 -5 -26.5 -19.5t-9.5 -52.5q-8 -251 -11 -281q-17 -240 -250 -240q-222 0 -245 180q-3 24 -5 71.5t-2.5 88.5t-0.5 107.5v94.5q-2 42 -31 51q-22 6 -48 9zM363 771q7 5 17 5
q9 -10 61 -53t72 -57q0 -4 -5.5 -12t-7.5 -8q-5 0 -59.5 22.5t-66.5 29.5q-5 3 -9 0q-17 -9 -64.5 -30.5t-51.5 -21.5t-8.5 8t-3.5 12q23 17 69 55t57 50z" />
    <glyph glyph-name="Udieresis" unicode="&#xdc;" horiz-adv-x="686" 
d="M16 584q-2 2 -1.5 12t2.5 13q8 0 55.5 -1.5t81.5 -1.5q36 0 82 1.5t57 1.5q2 -3 2 -13t-2 -12l-43 -8q-17 -4 -24 -16t-9 -37q-3 -110 0 -259q2 -79 15 -120q30 -105 162 -105q66 0 109 36t50 131q11 131 2 302q-1 34 -10.5 48t-33.5 19q-11 3 -50 9q-2 2 -1.5 11.5
t2.5 13.5q10 0 48 -1.5t66 -1.5q34 0 68 1.5t41 1.5q2 -3 2 -13t-2 -12q-34 -7 -40 -9q-19 -5 -26.5 -19.5t-9.5 -52.5q-8 -251 -11 -281q-17 -240 -250 -240q-222 0 -245 180q-3 24 -5 71.5t-2.5 88.5t-0.5 107.5v94.5q-2 42 -31 51q-22 6 -48 9zM340 711q0 -29 -21 -47
q-5 -4 -24.5 -5.5t-25.5 1.5q-21 11 -26 37q-3 25 4 35q17 19 54 19q24 0 32 -11q7 -14 7 -29zM509 711q0 -30 -22 -47q-5 -4 -24.5 -5.5t-25.5 1.5q-20 11 -25 37q-5 22 4 35q17 19 53 19q24 0 32 -11q8 -13 8 -29z" />
    <glyph glyph-name="Yacute" unicode="&#xdd;" horiz-adv-x="557" 
d="M-21 584q-2 4 -1.5 13.5t2.5 11.5q14 0 59 -1.5t73 -1.5q86 0 131 3q3 -2 3.5 -12.5t-2.5 -12.5q-12 -1 -32 -7q-20 -5 -9 -29q16 -34 60 -119t58 -109q3 -2 5 0q27 45 63.5 115t48.5 102q6 16 1.5 25t-22.5 13q-4 1 -47 9q-2 4 -1 14t4 11q66 -3 110 -3q14 0 104 3
q2 -2 2.5 -12.5t-2.5 -12.5q-5 -1 -20 -3.5t-21 -4.5q-21 -7 -36 -20.5t-34 -44.5q-72 -119 -126 -225q-10 -23 -10 -42l3 -152q1 -29 7.5 -43t25.5 -18q16 -4 54 -9q2 -2 0.5 -13t-3.5 -12q-13 0 -66 1.5t-84 1.5q-43 0 -87.5 -1.5t-55.5 -1.5q-3 2 -2.5 12.5t2.5 12.5
q35 4 58 9q13 3 20 11.5t8.5 18.5t2.5 27q1 47 1 141q0 26 -10 49q-48 102 -116 220q-27 47 -41.5 60t-37.5 20q-23 5 -40 6zM395 783q9 0 32.5 -15.5t29.5 -24.5q1 -1 1 -5t-1 -6q-11 -10 -86.5 -51t-81.5 -41q-2 0 -8.5 7.5t-6.5 11.5q18 21 64 69t57 55z" />
    <glyph glyph-name="Thorn" unicode="&#xde;" horiz-adv-x="558" 
d="M27 22q35 5 49 8q17 5 22.5 17t7.5 38q1 36 1 235q0 169 -1 202q-2 26 -8 38t-24 16q-14 5 -44 8q-2 3 -1 13t3 12q4 0 51.5 -2t80.5 -1q30 0 75.5 1.5t55.5 1.5q2 -3 2 -12t-2 -13q-6 -1 -23 -4t-24 -5q-10 -3 -14.5 -9t-6 -13.5t-2.5 -27.5v-45l5 -5q62 2 96 2
q93 0 138 -33q59 -44 59 -129q0 -103 -86 -151q-51 -30 -123 -30q-41 0 -55 6q-5 5 -5 17q-1 5 1 10q10 -2 32 -2q38 0 63 13q50 31 50 121q0 145 -136 145q-22 0 -31 -5q-6 -2 -8 -14v-207q0 -79 2 -137q2 -43 33 -49q7 -2 55 -9q2 -3 1.5 -13t-2.5 -13q-15 0 -64 1.5
t-75 1.5q-28 0 -83.5 -1.5t-64.5 -1.5q-2 3 -2.5 13t2.5 12z" />
    <glyph glyph-name="germandbls" unicode="&#xdf;" horiz-adv-x="511" 
d="M74 344l-53 3q-1 5 2 15.5t5 12.5q28 4 47 17q0 156 101 235q60 47 122 47q65 0 104.5 -41t39.5 -102q0 -38 -17 -61q-16 -21 -68 -76q-18 -16 -18 -27q0 -6 13 -19t38.5 -35t37.5 -33q51 -48 51 -107q0 -34 -12 -64t-32.5 -50.5t-37.5 -33t-35 -21.5q-31 -16 -62 -16
q-37 0 -54 17q-4 20 3 62q2 7 6 7q51 -39 88 -39q54 0 54 63q0 49 -60 104q-15 14 -46 40t-42 38q-4 5 -1.5 28.5t7.5 27.5q35 31 46 42q33 31 46 59.5t13 73.5q0 46 -28 86t-70 40q-45 0 -63.5 -61.5t-18.5 -209.5q0 -185 3 -299q1 -30 20 -37q9 -4 31 -7q2 -3 1.5 -13.5
t-2.5 -12.5q-11 0 -52.5 1.5t-60.5 1.5t-54.5 -1.5t-49.5 -1.5q-2 3 -2 12t2 14q21 1 33 6q16 4 20.5 12.5t4.5 26.5v276z" />
    <glyph glyph-name="agrave" unicode="&#xe0;" horiz-adv-x="415" 
d="M243 256q0 32 -15 54q-22 35 -72 35q-32 0 -46 -12q-15 -12 -36 -62q-3 -2 -15 5t-12 12q1 7 9 30.5t12 26.5q34 25 77.5 43t65.5 18q72 0 109 -56q24 -37 24 -102q0 -25 -1.5 -80.5t-1.5 -74.5q0 -41 32 -41q16 0 32 5q1 -3 -1 -16t-4 -15q-36 -38 -97 -38q-44 0 -56 29
q-3 7 -5 20q0 1 -5 1q-69 -50 -109 -50q-32 0 -58 24q-36 34 -36 94q0 28 16 55q15 9 92 32.5t93 30.5q5 2 8 11v21zM242 193q0 1 -1 3t-2 1q-89 -30 -96 -36q-8 -8 -8 -34q0 -34 19.5 -54t47.5 -20q19 0 31 8q8 8 8 20q1 30 1 112zM187 602q5 -9 24 -67.5t27 -85.5
q-1 -3 -10 -7.5t-12 -3.5q-16 17 -58 70.5t-57 75.5q-3 5 3 11q9 3 42 6t41 1z" />
    <glyph glyph-name="aacute" unicode="&#xe1;" horiz-adv-x="415" 
d="M243 256q0 32 -15 54q-22 35 -72 35q-32 0 -46 -12q-15 -12 -36 -62q-3 -2 -15 5t-12 12q1 7 9 30.5t12 26.5q34 25 77.5 43t65.5 18q72 0 109 -56q24 -37 24 -102q0 -25 -1.5 -80.5t-1.5 -74.5q0 -41 32 -41q16 0 32 5q1 -3 -1 -16t-4 -15q-36 -38 -97 -38q-44 0 -56 29
q-3 7 -5 20q0 1 -5 1q-69 -50 -109 -50q-32 0 -58 24q-36 34 -36 94q0 28 16 55q15 9 92 32.5t93 30.5q5 2 8 11v21zM242 193q0 1 -1 3t-2 1q-89 -30 -96 -36q-8 -8 -8 -34q0 -34 19.5 -54t47.5 -20q19 0 31 8q8 8 8 20q1 30 1 112zM223 598q7 3 41.5 5.5t42.5 0.5
q1 -1 2.5 -5t0.5 -6q-7 -14 -56.5 -74.5t-67.5 -80.5q-3 -1 -11.5 4t-9.5 8q40 107 58 148z" />
    <glyph glyph-name="acircumflex" unicode="&#xe2;" horiz-adv-x="415" 
d="M243 256q0 32 -15 54q-22 35 -72 35q-32 0 -46 -12q-15 -12 -36 -62q-3 -2 -15 5t-12 12q1 7 9 30.5t12 26.5q34 25 77.5 43t65.5 18q72 0 109 -56q24 -37 24 -102q0 -25 -1.5 -80.5t-1.5 -74.5q0 -41 32 -41q16 0 32 5q1 -3 -1 -16t-4 -15q-36 -38 -97 -38q-44 0 -56 29
q-3 7 -5 20q0 1 -5 1q-69 -50 -109 -50q-32 0 -58 24q-36 34 -36 94q0 28 16 55q15 9 92 32.5t93 30.5q5 2 8 11v21zM242 193q0 1 -1 3t-2 1q-89 -30 -96 -36q-8 -8 -8 -34q0 -34 19.5 -54t47.5 -20q19 0 31 8q8 8 8 20q1 30 1 112zM196 534q-41 -71 -58 -83q-14 -9 -36 -9
q-2 0 -3 2t0 4q65 100 90 156q1 3 13 7t16 4q16 -38 45.5 -89t43.5 -70q-2 -4 -19 -9.5t-24 -5.5q-6 2 -28 35t-35 58q-3 2 -5 0z" />
    <glyph glyph-name="atilde" unicode="&#xe3;" horiz-adv-x="415" 
d="M243 256q0 32 -15 54q-22 35 -72 35q-32 0 -46 -12q-15 -12 -36 -62q-3 -2 -15 5t-12 12q1 7 9 30.5t12 26.5q34 25 77.5 43t65.5 18q72 0 109 -56q24 -37 24 -102q0 -25 -1.5 -80.5t-1.5 -74.5q0 -41 32 -41q16 0 32 5q1 -3 -1 -16t-4 -15q-36 -38 -97 -38q-44 0 -56 29
q-3 7 -5 20q0 1 -5 1q-69 -50 -109 -50q-32 0 -58 24q-36 34 -36 94q0 28 16 55q15 9 92 32.5t93 30.5q5 2 8 11v21zM242 193q0 1 -1 3t-2 1q-89 -30 -96 -36q-8 -8 -8 -34q0 -34 19.5 -54t47.5 -20q19 0 31 8q8 8 8 20q1 30 1 112zM262 535q35 0 66 31q3 3 5 -3
q3 -13 -3 -22q-10 -20 -39 -41.5t-55 -21.5q-19 0 -63 15q-29 8 -41 8q-27 0 -59 -29q-1 -1 -3 0.5t-3 3.5q-1 4 1 13t4 11q9 16 36.5 37t47.5 21q21 0 57 -11q40 -12 49 -12z" />
    <glyph glyph-name="adieresis" unicode="&#xe4;" horiz-adv-x="415" 
d="M243 256q0 32 -15 54q-22 35 -72 35q-32 0 -46 -12q-15 -12 -36 -62q-3 -2 -15 5t-12 12q1 7 9 30.5t12 26.5q34 25 77.5 43t65.5 18q72 0 109 -56q24 -37 24 -102q0 -25 -1.5 -80.5t-1.5 -74.5q0 -41 32 -41q16 0 32 5q1 -3 -1 -16t-4 -15q-36 -38 -97 -38q-44 0 -56 29
q-3 7 -5 20q0 1 -5 1q-69 -50 -109 -50q-32 0 -58 24q-36 34 -36 94q0 28 16 55q15 9 92 32.5t93 30.5q5 2 8 11v21zM242 193q0 1 -1 3t-2 1q-89 -30 -96 -36q-8 -8 -8 -34q0 -34 19.5 -54t47.5 -20q19 0 31 8q8 8 8 20q1 30 1 112zM169 539q0 -30 -21 -46q-5 -4 -24 -5.5
t-25 1.5q-21 11 -26 36q0 28 5 35q17 19 52 19q23 0 32 -12q7 -10 7 -28zM336 539q0 -29 -21 -46q-5 -4 -24.5 -5.5t-25.5 1.5q-20 11 -25 36q-3 25 4 35q19 19 53 19q23 0 32 -12q7 -10 7 -28z" />
    <glyph glyph-name="aring" unicode="&#xe5;" horiz-adv-x="415" 
d="M243 256q0 32 -15 54q-22 35 -72 35q-32 0 -46 -12q-15 -12 -36 -62q-3 -2 -15 5t-12 12q1 7 9 30.5t12 26.5q34 25 77.5 43t65.5 18q72 0 109 -56q24 -37 24 -102q0 -25 -1.5 -80.5t-1.5 -74.5q0 -41 32 -41q16 0 32 5q1 -3 -1 -16t-4 -15q-36 -38 -97 -38q-44 0 -56 29
q-3 7 -5 20q0 1 -5 1q-69 -50 -109 -50q-32 0 -58 24q-36 34 -36 94q0 28 16 55q15 9 92 32.5t93 30.5q5 2 8 11v21zM242 193q0 1 -1 3t-2 1q-89 -30 -96 -36q-8 -8 -8 -34q0 -34 19.5 -54t47.5 -20q19 0 31 8q8 8 8 20q1 30 1 112zM204 604q33 0 52.5 -22t19.5 -54
q0 -36 -21.5 -57t-54.5 -21q-27 0 -49.5 18.5t-22.5 56.5q0 35 20.5 57t55.5 22zM200 565q-19 0 -30.5 -11t-11.5 -28t13.5 -27t32.5 -10q17 0 29.5 10t12.5 25q0 41 -46 41z" />
    <glyph glyph-name="ae" unicode="&#xe6;" horiz-adv-x="622" 
d="M135 -12q-35 0 -64 27q-35 33 -35 90q0 32 14 52q12 7 49.5 18.5t81.5 23.5t56 16q6 4 6 10q1 10 1 27q0 35 -14 57q-26 38 -73 38q-32 0 -46 -12q-6 -5 -35 -62q-1 -1 -8 1.5t-13 7t-6 6.5q0 6 8 30t12 27q35 26 77 43.5t65 17.5q67 0 102 -51h4q66 51 126 51
q34 0 60 -12.5t40.5 -32.5t21.5 -36t10 -31q6 -10 17 -13q0 -12 -6 -18q-43 -16 -238 -57q-4 -2 -4 -9q2 -53 38 -94q39 -42 96 -42q64 0 115 44q2 -2 3.5 -12t0.5 -14q-31 -41 -79.5 -66t-95.5 -25q-90 0 -142 66q-2 3 -6 1q-83 -66 -139 -67zM243 183q0 2 -2 3.5t-3 0.5
q-10 -3 -33 -9.5t-38.5 -11.5t-21.5 -9q-2 -2 -5.5 -12.5t-3.5 -18.5q0 -33 19.5 -51.5t47.5 -18.5q32 0 58 20q5 5 3 8q-21 48 -21 99zM403 370q-30 0 -48.5 -34.5t-14.5 -94.5q0 -7 6 -6q67 12 129 30q5 3 5 9q-3 37 -24.5 66.5t-52.5 29.5z" />
    <glyph glyph-name="ccedilla" unicode="&#xe7;" horiz-adv-x="407" 
d="M388 73q-53 -67 -133 -82l-21 -27q30 -17 43 -29q23 -20 23 -46q0 -39 -38.5 -66t-66.5 -27q-35 0 -53 28q-2 12 4 21q31 -16 60 -16q38 0 38 30q0 35 -70 58q0 6 1 9q30 38 50 62h-5q-93 1 -143 66q-41 53 -41 138q0 52 25.5 98.5t72.5 73.5q69 42 140 42q46 0 80 -13
q27 -14 33 -27q2 -9 -1 -17q-5 -13 -19 -29.5t-22 -21.5q-6 -2 -12 0q-19 21 -27.5 30t-33.5 24t-48 15q-40 0 -62.5 -35.5t-22.5 -93.5q0 -71 33 -119q40 -54 111 -54q60 0 105 41q3 0 5 -5q3 -17 -5 -28z" />
    <glyph glyph-name="egrave" unicode="&#xe8;" horiz-adv-x="423" 
d="M392 105q4 0 4 -4q2 -16 -3 -26q-34 -40 -81 -63.5t-91 -23.5q-82 0 -128 48q-57 57 -57 161q0 59 25 104.5t66 71.5q50 33 112 33q48 0 82 -25t47.5 -54.5t18.5 -61.5q2 -8 14 -11q1 -2 -1.5 -10.5t-4.5 -9.5q-33 -11 -249 -23q-4 0 -4 -10q2 -54 37 -94q38 -41 102 -41
t111 39zM209 373q-29 0 -48 -32.5t-20 -87.5q0 -5 5 -5q18 -2 67.5 -0.5t62.5 4.5q6 4 6 9q-3 47 -22.5 79.5t-50.5 32.5zM209 604q5 -9 24 -67.5t27 -85.5q-1 -3 -10 -7.5t-12 -3.5q-16 17 -58 70.5t-57 75.5q-3 5 3 11q9 3 42 6t41 1z" />
    <glyph glyph-name="eacute" unicode="&#xe9;" horiz-adv-x="423" 
d="M392 105q4 0 4 -4q2 -16 -3 -26q-34 -40 -81 -63.5t-91 -23.5q-82 0 -128 48q-57 57 -57 161q0 59 25 104.5t66 71.5q50 33 112 33q48 0 82 -25t47.5 -54.5t18.5 -61.5q2 -8 14 -11q1 -2 -1.5 -10.5t-4.5 -9.5q-33 -11 -249 -23q-4 0 -4 -10q2 -54 37 -94q38 -41 102 -41
t111 39zM209 373q-29 0 -48 -32.5t-20 -87.5q0 -5 5 -5q18 -2 67.5 -0.5t62.5 4.5q6 4 6 9q-3 47 -22.5 79.5t-50.5 32.5zM244 599q7 3 41.5 5.5t42.5 0.5q1 -1 2.5 -5t0.5 -6q-7 -14 -56.5 -74.5t-67.5 -80.5q-3 -1 -11.5 4t-9.5 8q40 107 58 148z" />
    <glyph glyph-name="ecircumflex" unicode="&#xea;" horiz-adv-x="423" 
d="M392 105q4 0 4 -4q2 -16 -3 -26q-34 -40 -81 -63.5t-91 -23.5q-82 0 -128 48q-57 57 -57 161q0 59 25 104.5t66 71.5q50 33 112 33q48 0 82 -25t47.5 -54.5t18.5 -61.5q2 -8 14 -11q1 -2 -1.5 -10.5t-4.5 -9.5q-33 -11 -249 -23q-4 0 -4 -10q2 -54 37 -94q38 -41 102 -41
t111 39zM209 373q-29 0 -48 -32.5t-20 -87.5q0 -5 5 -5q18 -2 67.5 -0.5t62.5 4.5q6 4 6 9q-3 47 -22.5 79.5t-50.5 32.5zM221 534q-41 -71 -58 -83q-14 -9 -36 -9q-1 0 -2.5 2t-0.5 4q65 100 90 156q1 3 13 7t16 4q16 -38 45.5 -89t43.5 -70q-2 -4 -19 -9.5t-24 -5.5
q-6 2 -28 35t-35 58q-3 2 -5 0z" />
    <glyph glyph-name="edieresis" unicode="&#xeb;" horiz-adv-x="423" 
d="M392 105q4 0 4 -4q2 -16 -3 -26q-34 -40 -81 -63.5t-91 -23.5q-82 0 -128 48q-57 57 -57 161q0 59 25 104.5t66 71.5q50 33 112 33q48 0 82 -25t47.5 -54.5t18.5 -61.5q2 -8 14 -11q1 -2 -1.5 -10.5t-4.5 -9.5q-33 -11 -249 -23q-4 0 -4 -10q2 -54 37 -94q38 -41 102 -41
t111 39zM209 373q-29 0 -48 -32.5t-20 -87.5q0 -5 5 -5q18 -2 67.5 -0.5t62.5 4.5q6 4 6 9q-3 47 -22.5 79.5t-50.5 32.5zM191 539q0 -30 -21 -46q-5 -4 -24 -5.5t-25 1.5q-21 11 -26 36q0 28 5 35q17 19 52 19q23 0 32 -12q7 -10 7 -28zM358 539q0 -29 -21 -46
q-5 -4 -24.5 -5.5t-25.5 1.5q-20 11 -25 36q-3 25 4 35q19 19 53 19q23 0 32 -12q7 -10 7 -28z" />
    <glyph glyph-name="igrave" unicode="&#xec;" horiz-adv-x="252" 
d="M240 23q1 -4 -0.5 -14t-4.5 -12q-7 0 -43 1.5t-65 1.5t-65 -1.5t-43 -1.5q-2 2 -2.5 13t1.5 13q26 4 37 7q17 6 18 40q2 46 2 143q0 61 -2 93q0 17 -7 25q-8 9 -38 21q-2 3 -1.5 11.5t2.5 11.5q22 0 72.5 10t81.5 24q0 -15 -0.5 -77.5t-0.5 -93.5q0 -124 1 -169
q0 -32 19 -38q18 -6 38 -8zM106 600q5 -9 24 -67.5t27 -85.5q-1 -3 -10 -7.5t-12 -3.5q-16 17 -58 70.5t-57 75.5q-3 5 3 11q9 3 42 6t41 1z" />
    <glyph glyph-name="iacute" unicode="&#xed;" horiz-adv-x="252" 
d="M240 23q1 -4 -0.5 -14t-4.5 -12q-7 0 -43 1.5t-65 1.5t-65 -1.5t-43 -1.5q-2 2 -2.5 13t1.5 13q26 4 37 7q17 6 18 40q2 46 2 143q0 61 -2 93q0 17 -7 25q-8 9 -38 21q-2 3 -1.5 11.5t2.5 11.5q22 0 72.5 10t81.5 24q0 -15 -0.5 -77.5t-0.5 -93.5q0 -124 1 -169
q0 -32 19 -38q18 -6 38 -8zM149 597q7 3 41.5 5.5t42.5 0.5q1 -1 2.5 -5t0.5 -6q-7 -14 -56.5 -74.5t-67.5 -80.5q-3 -1 -11.5 4t-9.5 8q40 107 58 148z" />
    <glyph glyph-name="icircumflex" unicode="&#xee;" horiz-adv-x="252" 
d="M240 23q1 -4 -0.5 -14t-4.5 -12q-7 0 -43 1.5t-65 1.5t-65 -1.5t-43 -1.5q-2 2 -2.5 13t1.5 13q26 4 37 7q17 6 18 40q2 46 2 143q0 61 -2 93q0 17 -7 25q-8 9 -38 21q-2 3 -1.5 11.5t2.5 11.5q22 0 72.5 10t81.5 24q0 -15 -0.5 -77.5t-0.5 -93.5q0 -124 1 -169
q0 -32 19 -38q18 -6 38 -8zM117 534q-41 -71 -58 -83q-14 -9 -36 -9q-1 0 -2.5 2t-0.5 4q65 100 90 156q1 3 13 7t16 4q16 -38 45.5 -89t43.5 -70q-2 -4 -19 -9.5t-24 -5.5q-6 2 -28 35t-35 58q-3 2 -5 0z" />
    <glyph glyph-name="idieresis" unicode="&#xef;" horiz-adv-x="252" 
d="M240 23q1 -4 -0.5 -14t-4.5 -12q-7 0 -43 1.5t-65 1.5t-65 -1.5t-43 -1.5q-2 2 -2.5 13t1.5 13q26 4 37 7q17 6 18 40q2 46 2 143q0 61 -2 93q0 17 -7 25q-8 9 -38 21q-2 3 -1.5 11.5t2.5 11.5q22 0 72.5 10t81.5 24q0 -15 -0.5 -77.5t-0.5 -93.5q0 -124 1 -169
q0 -32 19 -38q18 -6 38 -8zM89 539q0 -30 -21 -46q-5 -4 -24 -5.5t-25 1.5q-21 11 -26 36q0 28 5 35q17 19 52 19q23 0 32 -12q7 -10 7 -28zM256 539q0 -29 -21 -46q-5 -4 -24.5 -5.5t-25.5 1.5q-20 11 -25 36q-3 25 4 35q19 19 53 19q23 0 32 -12q7 -10 7 -28z" />
    <glyph glyph-name="eth" unicode="&#xf0;" horiz-adv-x="488" 
d="M257 19q37 0 59.5 46.5t22.5 135.5q0 88 -17 119q-29 53 -87 53q-34 0 -58 -38t-24 -110q0 -96 29 -151t75 -55zM423 578l-82 -39q50 -54 79.5 -129t29.5 -154q0 -175 -111 -241q-44 -26 -106 -26q-96 0 -146.5 60t-50.5 145q0 112 86 171q57 39 130 39q36 0 63 -9
q-17 65 -52 112l-119 -52q-3 1 -4.5 16t2.5 17l99 45q-68 82 -175 115q0 4 4 14t6 11q46 -3 114 -32.5t124 -76.5l107 47q2 0 3 -7.5t1 -16t-2 -9.5z" />
    <glyph glyph-name="ntilde" unicode="&#xf1;" horiz-adv-x="509" 
d="M21 23q14 1 31 6q18 6 21 39q2 62 2 154q0 67 -2 87q-5 23 -47 37q0 18 4 22q91 10 149 42q4 -4 4 -7q-2 -28 -2 -57q0 -2 1.5 -3t3.5 1q78 62 130 62q64 0 98 -53q25 -39 25 -116q0 -165 1 -182q0 -12 8 -17q22 -13 47 -15q1 -4 0 -13.5t-4 -12.5q-2 0 -34 1.5t-69 1.5
q-17 0 -107 -3q-2 3 -2 13.5t2 12.5q18 3 30 6q18 5 19 34q2 26 2 105t-5 105q-8 36 -30 51q-18 15 -48 15q-31 0 -59 -20q-9 -7 -9 -22q0 -31 0.5 -118.5t1.5 -112.5q1 -20 6 -27t16 -10q10 -3 32 -6q1 -2 1 -12.5t-2 -13.5q-93 3 -111 3q-47 0 -104 -3q-2 3 -2 12.5
t2 13.5zM317 535q35 0 66 31q3 3 5 -3q3 -13 -3 -22q-10 -20 -39 -41.5t-55 -21.5q-19 0 -63 15q-29 8 -41 8q-27 0 -59 -29q-1 -1 -3 0.5t-3 3.5q-1 4 1 13t4 11q9 16 36.5 37t47.5 21q21 0 57 -11q40 -12 49 -12z" />
    <glyph glyph-name="ograve" unicode="&#xf2;" horiz-adv-x="496" 
d="M257 406q94 0 148.5 -57t54.5 -146q0 -122 -92 -179q-54 -36 -123 -36q-103 0 -156 61t-53 151q0 109 88 167q58 39 133 39zM231 373q-21 0 -35 -11q-43 -32 -43 -135q0 -96 31 -151t80 -55q27 0 42 15q36 33 36 137q0 89 -29.5 144.5t-81.5 55.5zM228 601q5 -9 24 -67.5
t27 -85.5q-1 -3 -10 -7.5t-12 -3.5q-16 17 -58 70.5t-57 75.5q-3 5 3 11q9 3 42 6t41 1z" />
    <glyph glyph-name="oacute" unicode="&#xf3;" horiz-adv-x="496" 
d="M257 406q94 0 148.5 -57t54.5 -146q0 -122 -92 -179q-54 -36 -123 -36q-103 0 -156 61t-53 151q0 109 88 167q58 39 133 39zM231 373q-21 0 -35 -11q-43 -32 -43 -135q0 -96 31 -151t80 -55q27 0 42 15q36 33 36 137q0 89 -29.5 144.5t-81.5 55.5zM265 597q7 3 41.5 5.5
t42.5 0.5q1 -1 2.5 -5t0.5 -6q-7 -14 -56.5 -74.5t-67.5 -80.5q-3 -1 -11.5 4t-9.5 8q40 107 58 148z" />
    <glyph glyph-name="ocircumflex" unicode="&#xf4;" horiz-adv-x="496" 
d="M257 406q94 0 148.5 -57t54.5 -146q0 -122 -92 -179q-54 -36 -123 -36q-103 0 -156 61t-53 151q0 109 88 167q58 39 133 39zM231 373q-21 0 -35 -11q-43 -32 -43 -135q0 -96 31 -151t80 -55q27 0 42 15q36 33 36 137q0 89 -29.5 144.5t-81.5 55.5zM238 534
q-41 -71 -58 -83q-14 -9 -36 -9q-2 0 -3 2t0 4q65 100 90 156q1 3 13 7t16 4q16 -38 45.5 -89t43.5 -70q-2 -4 -19 -9.5t-24 -5.5q-6 2 -28 35t-35 58q-3 2 -5 0z" />
    <glyph glyph-name="otilde" unicode="&#xf5;" horiz-adv-x="496" 
d="M257 406q94 0 148.5 -57t54.5 -146q0 -122 -92 -179q-54 -36 -123 -36q-103 0 -156 61t-53 151q0 109 88 167q58 39 133 39zM231 373q-21 0 -35 -11q-43 -32 -43 -135q0 -96 31 -151t80 -55q27 0 42 15q36 33 36 137q0 89 -29.5 144.5t-81.5 55.5zM311 535q35 0 66 31
q3 3 5 -3q3 -13 -3 -22q-10 -20 -39 -41.5t-55 -21.5q-19 0 -63 15q-29 8 -41 8q-27 0 -59 -29q-1 -1 -3 0.5t-3 3.5q-1 4 1 13t4 11q9 16 36.5 37t47.5 21q21 0 57 -11q40 -12 49 -12z" />
    <glyph glyph-name="odieresis" unicode="&#xf6;" horiz-adv-x="496" 
d="M257 406q94 0 148.5 -57t54.5 -146q0 -122 -92 -179q-54 -36 -123 -36q-103 0 -156 61t-53 151q0 109 88 167q58 39 133 39zM231 373q-21 0 -35 -11q-43 -32 -43 -135q0 -96 31 -151t80 -55q27 0 42 15q36 33 36 137q0 89 -29.5 144.5t-81.5 55.5zM211 539q0 -30 -21 -46
q-5 -4 -24 -5.5t-25 1.5q-21 11 -26 36q0 28 5 35q17 19 52 19q23 0 32 -12q7 -10 7 -28zM378 539q0 -29 -21 -46q-5 -4 -24.5 -5.5t-25.5 1.5q-20 11 -25 36q-3 25 4 35q19 19 53 19q23 0 32 -12q7 -10 7 -28z" />
    <glyph glyph-name="divide" unicode="&#xf7;" horiz-adv-x="507" 
d="M299 390q0 -28 -24 -54q-3 -3 -22.5 -5t-27.5 3q-20 15 -20 39q-1 3 2 16t5 15q20 16 49 16q25 0 31 -8q7 -9 7 -22zM453 205l-412 -2q-2 1 -2 9q2 23 13 48q4 -1 106 -1h308q3 -1 3 -10q0 -6 -6 -24.5t-10 -19.5zM299 106q0 -31 -17 -48q-5 -4 -24 -6.5t-29 2.5
q-24 18 -24 40q-1 3 2 15.5t5 14.5q17 15 49 15q26 0 31 -8q7 -9 7 -25z" />
    <glyph glyph-name="oslash" unicode="&#xf8;" horiz-adv-x="496" 
d="M257 406q49 0 93 -18l28 43q1 1 11 -7t11 -10l-25 -40q85 -56 85 -171q0 -122 -92 -179q-54 -36 -123 -36q-62 0 -108 24l-29 -45q-2 0 -12 7.5t-11 9.5l28 43q-77 58 -77 173q0 109 88 167q58 39 133 39zM264 20q82 0 82 153q0 74 -21 126l-144 -220q29 -59 83 -59z
M234 373q-42 0 -63.5 -39.5t-21.5 -107.5q0 -72 19 -115l142 218q-28 44 -76 44z" />
    <glyph glyph-name="ugrave" unicode="&#xf9;" horiz-adv-x="494" 
d="M11 359q-3 19 4 26q114 3 164 16q-5 -40 -5 -179q0 -95 5 -114q12 -49 69 -49q34 0 59 20q7 9 9 20q1 8 0.5 80t-1.5 141q0 24 -17 30q-12 4 -56 10q-4 15 3 25q112 0 182 15q-3 -24 -3 -104v-203q1 -36 21 -37q17 -1 38 0q0 -20 -4 -27q-29 -11 -83.5 -26.5t-70.5 -16.5
q-4 1 -6 8q-3 16 -3 55q0 2 -2 3t-4 0q-72 -63 -130 -63q-113 0 -113 127q-1 25 -1 100v99q-1 30 -18 37q-7 3 -37 7zM225 600q5 -9 24 -67.5t27 -85.5q-1 -3 -10 -7.5t-12 -3.5q-16 17 -58 70.5t-57 75.5q-3 5 3 11q9 3 42 6t41 1z" />
    <glyph glyph-name="uacute" unicode="&#xfa;" horiz-adv-x="494" 
d="M11 359q-3 19 4 26q114 3 164 16q-5 -40 -5 -179q0 -95 5 -114q12 -49 69 -49q34 0 59 20q7 9 9 20q1 8 0.5 80t-1.5 141q0 24 -17 30q-12 4 -56 10q-4 15 3 25q112 0 182 15q-3 -24 -3 -104v-203q1 -36 21 -37q17 -1 38 0q0 -20 -4 -27q-29 -11 -83.5 -26.5t-70.5 -16.5
q-4 1 -6 8q-3 16 -3 55q0 2 -2 3t-4 0q-72 -63 -130 -63q-113 0 -113 127q-1 25 -1 100v99q-1 30 -18 37q-7 3 -37 7zM269 597q7 3 41.5 5.5t42.5 0.5q1 -1 2.5 -5t0.5 -6q-7 -14 -56.5 -74.5t-67.5 -80.5q-3 -1 -11.5 4t-9.5 8q40 107 58 148z" />
    <glyph glyph-name="ucircumflex" unicode="&#xfb;" horiz-adv-x="494" 
d="M11 359q-3 19 4 26q114 3 164 16q-5 -40 -5 -179q0 -95 5 -114q12 -49 69 -49q34 0 59 20q7 9 9 20q1 8 0.5 80t-1.5 141q0 24 -17 30q-12 4 -56 10q-4 15 3 25q112 0 182 15q-3 -24 -3 -104v-203q1 -36 21 -37q17 -1 38 0q0 -20 -4 -27q-29 -11 -83.5 -26.5t-70.5 -16.5
q-4 1 -6 8q-3 16 -3 55q0 2 -2 3t-4 0q-72 -63 -130 -63q-113 0 -113 127q-1 25 -1 100v99q-1 30 -18 37q-7 3 -37 7zM236 534q-41 -71 -58 -83q-14 -9 -36 -9q-2 0 -3 2t0 4q65 100 90 156q1 3 13 7t16 4q16 -38 45.5 -89t43.5 -70q-2 -4 -19 -9.5t-24 -5.5q-6 2 -28 35
t-35 58q-3 2 -5 0z" />
    <glyph glyph-name="udieresis" unicode="&#xfc;" horiz-adv-x="494" 
d="M11 359q-3 19 4 26q114 3 164 16q-5 -40 -5 -179q0 -95 5 -114q12 -49 69 -49q34 0 59 20q7 9 9 20q1 8 0.5 80t-1.5 141q0 24 -17 30q-12 4 -56 10q-4 15 3 25q112 0 182 15q-3 -24 -3 -104v-203q1 -36 21 -37q17 -1 38 0q0 -20 -4 -27q-29 -11 -83.5 -26.5t-70.5 -16.5
q-4 1 -6 8q-3 16 -3 55q0 2 -2 3t-4 0q-72 -63 -130 -63q-113 0 -113 127q-1 25 -1 100v99q-1 30 -18 37q-7 3 -37 7zM207 539q0 -30 -21 -46q-5 -4 -24 -5.5t-25 1.5q-21 11 -26 36q0 28 5 35q17 19 52 19q23 0 32 -12q7 -10 7 -28zM374 539q0 -29 -21 -46
q-5 -4 -24.5 -5.5t-25.5 1.5q-20 11 -25 36q-3 25 4 35q19 19 53 19q23 0 32 -12q7 -10 7 -28z" />
    <glyph glyph-name="yacute" unicode="&#xfd;" horiz-adv-x="432" 
d="M-9 370q-1 4 0.5 13.5t3.5 11.5q2 0 39 -1.5t73 -1.5q30 0 64 1.5t41 1.5q2 -3 3 -12t-1 -13q-29 -7 -32 -8q-10 -6 -7 -18q10 -31 42 -111.5t43 -105.5h3q22 47 44.5 111.5t26.5 89.5q2 25 -18 32q-18 6 -45 10q-3 20 4 25q6 0 36.5 -1.5t50.5 -1.5q12 0 90 3
q2 -2 2 -11.5t-1 -13.5q-28 -5 -38 -10q-22 -11 -39 -54q-90 -243 -229 -492q-4 -8 -12 -21t-13.5 -23t-8.5 -15l-9 -3q-12 2 -31 10.5t-24 17.5q-2 9 0 16q104 122 147 209l-12 24l-97 238q-23 55 -34 72t-30 23q-18 6 -32 8zM272 597q7 3 41.5 5.5t42.5 0.5q1 -1 2.5 -5
t0.5 -6q-7 -14 -56.5 -74.5t-67.5 -80.5q-3 -1 -11.5 4t-9.5 8q40 107 58 148z" />
    <glyph glyph-name="thorn" unicode="&#xfe;" horiz-adv-x="495" 
d="M-2 -225q35 9 43 12q20 7 22 47q3 60 3 428q-2 297 -5 317q-1 9 -3 14t-6 9t-12 6q-13 3 -41 7q-1 3 -0.5 12.5t2.5 11.5q40 2 95 12.5t83 22.5q5 -2 5 -13q-12 -18 -12 -150q0 -36 0.5 -83.5t0.5 -64.5q0 -1 1.5 -2t3.5 0q84 45 127 45q66 0 110 -49q43 -48 43 -128
q0 -116 -88 -182q-27 -20 -76 -38t-86 -21q-26 0 -35 2q0 -125 2 -157q1 -32 28 -38q17 -4 54 -8q1 -3 -0.5 -13.5t-3.5 -13.5h-29q-115 0 -225 -12q-2 4 -2.5 14.5t1.5 12.5zM227 347q-26 0 -46 -12q-7 -2 -7 -14q-2 -28 -1.5 -110.5t2.5 -115.5q1 -26 15 -39
q26 -23 68 -23q36 0 60 29q30 38 30 115q0 82 -32 124q-33 46 -89 46z" />
    <glyph glyph-name="ydieresis" unicode="&#xff;" horiz-adv-x="432" 
d="M-9 370q-1 4 0.5 13.5t3.5 11.5q2 0 39 -1.5t73 -1.5q30 0 64 1.5t41 1.5q2 -3 3 -12t-1 -13q-29 -7 -32 -8q-10 -6 -7 -18q10 -31 42 -111.5t43 -105.5h3q22 47 44.5 111.5t26.5 89.5q2 25 -18 32q-18 6 -45 10q-3 20 4 25q6 0 36.5 -1.5t50.5 -1.5q12 0 90 3
q2 -2 2 -11.5t-1 -13.5q-28 -5 -38 -10q-22 -11 -39 -54q-90 -243 -229 -492q-4 -8 -12 -21t-13.5 -23t-8.5 -15l-9 -3q-12 2 -31 10.5t-24 17.5q-2 9 0 16q104 122 147 209l-12 24l-97 238q-23 55 -34 72t-30 23q-18 6 -32 8zM202 539q0 -30 -21 -46q-5 -4 -24 -5.5
t-25 1.5q-21 11 -26 36q0 28 5 35q17 19 52 19q23 0 32 -12q7 -10 7 -28zM369 539q0 -29 -21 -46q-5 -4 -24.5 -5.5t-25.5 1.5q-20 11 -25 36q-3 25 4 35q19 19 53 19q23 0 32 -12q7 -10 7 -28z" />
    <glyph glyph-name="uni0100" unicode="&#x100;" horiz-adv-x="596" 
d="M-27 23q53 7 71 20t38 61q83 198 168 447q12 37 15 56q5 0 19 -0.5t23 -0.5q11 0 24.5 0.5t17.5 0.5q4 -16 14 -51q4 -11 69.5 -201t84.5 -240q23 -57 38.5 -71t67.5 -21q2 -2 0.5 -13t-3.5 -13q-8 0 -53 1.5t-79 1.5q-44 0 -140 -3q-2 3 -2 13t2 13q34 5 49 11
q16 7 11 23q-10 35 -55 162q-7 7 -9 7q-13 1 -78 1q-70 0 -82 -1q-8 0 -10 -9q-49 -136 -49 -151q0 -28 29 -35q28 -6 47 -8q2 -3 0.5 -13.5t-3.5 -12.5q-11 0 -51.5 1.5t-69.5 1.5q-23 0 -57 -1.5t-47 -1.5q-2 2 -2 12.5t2 13.5zM268 482h-5q-20 -58 -67 -202q-2 -6 2 -6
q10 -1 65 -1h68q1 0 2.5 2.5t0.5 3.5q-32 107 -66 203zM203 715q20 -2 56 -2h174q0 -10 -7.5 -30.5t-10.5 -21.5q-16 -3 -192 -3l-37 1q1 8 8 30.5t9 25.5z" />
    <glyph glyph-name="uni0101" unicode="&#x101;" horiz-adv-x="415" 
d="M243 256q0 32 -15 54q-22 35 -72 35q-32 0 -46 -12q-15 -12 -36 -62q-3 -2 -15 5t-12 12q1 7 9 30.5t12 26.5q34 25 77.5 43t65.5 18q72 0 109 -56q24 -37 24 -102q0 -25 -1.5 -80.5t-1.5 -74.5q0 -41 32 -41q16 0 32 5q1 -3 -1 -16t-4 -15q-36 -38 -97 -38q-44 0 -56 29
q-3 7 -5 20q0 1 -5 1q-69 -50 -109 -50q-32 0 -58 24q-36 34 -36 94q0 28 16 55q15 9 92 32.5t93 30.5q5 2 8 11v21zM242 193q0 1 -1 3t-2 1q-89 -30 -96 -36q-8 -8 -8 -34q0 -34 19.5 -54t47.5 -20q19 0 31 8q8 8 8 20q1 30 1 112zM110 549q14 -2 46 -2h69h66h26
q0 -10 -6 -31.5t-9 -22.5q-13 -3 -175 -3q-27 0 -33 2q1 8 7.5 31t8.5 26z" />
    <glyph glyph-name="uni0102" unicode="&#x102;" horiz-adv-x="596" 
d="M-27 23q53 7 71 20t38 61q83 198 168 447q12 37 15 56q5 0 19 -0.5t23 -0.5q11 0 24.5 0.5t17.5 0.5q4 -16 14 -51q4 -11 69.5 -201t84.5 -240q23 -57 38.5 -71t67.5 -21q2 -2 0.5 -13t-3.5 -13q-8 0 -53 1.5t-79 1.5q-44 0 -140 -3q-2 3 -2 13t2 13q34 5 49 11
q16 7 11 23q-10 35 -55 162q-7 7 -9 7q-13 1 -78 1q-70 0 -82 -1q-8 0 -10 -9q-49 -136 -49 -151q0 -28 29 -35q28 -6 47 -8q2 -3 0.5 -13.5t-3.5 -12.5q-11 0 -51.5 1.5t-69.5 1.5q-23 0 -57 -1.5t-47 -1.5q-2 2 -2 12.5t2 13.5zM268 482h-5q-20 -58 -67 -202q-2 -6 2 -6
q10 -1 65 -1h68q1 0 2.5 2.5t0.5 3.5q-32 107 -66 203zM322 693q52 0 89 46q1 2 11 7t12 5q6 0 6 -4q-15 -45 -54 -76t-91 -31q-46 0 -76 21.5t-30 52.5q0 6 9.5 18.5t17.5 18.5q6 4 11 -1q11 -29 33 -43t62 -14z" />
    <glyph glyph-name="uni0103" unicode="&#x103;" horiz-adv-x="415" 
d="M243 256q0 32 -15 54q-22 35 -72 35q-32 0 -46 -12q-15 -12 -36 -62q-3 -2 -15 5t-12 12q1 7 9 30.5t12 26.5q34 25 77.5 43t65.5 18q72 0 109 -56q24 -37 24 -102q0 -25 -1.5 -80.5t-1.5 -74.5q0 -41 32 -41q16 0 32 5q1 -3 -1 -16t-4 -15q-36 -38 -97 -38q-44 0 -56 29
q-3 7 -5 20q0 1 -5 1q-69 -50 -109 -50q-32 0 -58 24q-36 34 -36 94q0 28 16 55q15 9 92 32.5t93 30.5q5 2 8 11v21zM242 193q0 1 -1 3t-2 1q-89 -30 -96 -36q-8 -8 -8 -34q0 -34 19.5 -54t47.5 -20q19 0 31 8q8 8 8 20q1 30 1 112zM218 516q51 0 83 51q2 3 10.5 8.5
t10.5 5.5q6 0 6 -5q-11 -49 -47 -82.5t-87 -33.5q-41 0 -70 22t-29 57q0 8 11.5 21t23.5 21q2 1 5.5 0.5t4.5 -1.5q12 -64 78 -64z" />
    <glyph glyph-name="uni0104" unicode="&#x104;" horiz-adv-x="596" 
d="M446 -218q-30 0 -52 18t-22 56q0 58 107 144q-41 0 -131 -3q-2 3 -2 13t2 13q37 6 49 11q16 7 11 23q-10 35 -55 162q-7 7 -9 7q-13 1 -78 1q-70 0 -82 -1q-8 0 -10 -9q-49 -136 -49 -151q0 -28 29 -35q29 -6 47 -8q2 -3 0.5 -13.5t-3.5 -12.5q-11 0 -51.5 1.5t-69.5 1.5
q-23 0 -57 -1.5t-47 -1.5q-2 2 -2 12.5t2 13.5q53 7 71 20t38 61q37 87 92 236t75 210q12 32 16 57q5 0 19 -0.5t23 -0.5q11 0 24.5 0.5t17.5 0.5l14 -52q3 -7 69 -198t85 -242q23 -57 38.5 -71t67.5 -21q2 -2 0.5 -13t-3.5 -13q-7 0 -44 1.5t-64 1.5q-61 -64 -61 -113
q0 -20 13 -31t31 -11q23 0 50 16q5 -10 -1 -28q-18 -27 -46 -39t-52 -12zM268 482h-5q-11 -33 -36.5 -109t-30.5 -92q-2 -7 2 -7q10 -1 65 -1h68q1 0 2.5 2.5t0.5 3.5q-32 107 -66 203z" />
    <glyph glyph-name="uni0105" unicode="&#x105;" horiz-adv-x="415" 
d="M243 256q0 32 -15 54q-22 35 -72 35q-32 0 -46 -12q-15 -12 -36 -62q-3 -2 -15 5t-12 12q1 7 9 30.5t12 26.5q34 25 77.5 43t65.5 18q72 0 109 -56q24 -37 24 -102q0 -25 -1.5 -80.5t-1.5 -74.5q0 -41 32 -41q16 0 32 5q1 -3 -1 -16t-4 -15q-19 -21 -47 -29
q-65 -54 -65 -105q0 -39 42 -39q25 0 48 15q1 -5 0.5 -15t-2.5 -12q-17 -26 -43.5 -37.5t-48.5 -11.5q-28 0 -49.5 17.5t-21.5 53.5q0 29 28.5 63.5t66.5 62.5q-49 -3 -61 28q-3 7 -5 20q0 1 -5 1q-69 -50 -109 -50q-32 0 -58 24q-36 34 -36 94q0 28 16 55q15 9 92 32.5
t93 30.5q5 2 8 11v21zM242 193q0 1 -1 3t-2 1q-89 -30 -96 -36q-8 -8 -8 -34q0 -34 19.5 -54t47.5 -20q19 0 31 8q8 8 8 20q1 30 1 112z" />
    <glyph glyph-name="uni0106" unicode="&#x106;" horiz-adv-x="656" 
d="M564 447q-7 52 -18.5 78t-38.5 41q-46 26 -122 26q-93 0 -146.5 -70t-53.5 -203q0 -127 61 -210.5t178 -83.5q69 0 107 34q37 34 72 97q4 0 12.5 -4.5t9.5 -9.5q-9 -33 -33.5 -78.5t-42.5 -58.5q-74 -23 -150 -23q-167 0 -258 84t-91 243q0 86 40 158.5t119 112.5
q83 44 204 44q41 0 111 -8t85 -9q-15 -77 -17 -158q-2 -4 -14.5 -5t-13.5 3zM459 801q9 0 32.5 -15.5t29.5 -24.5q1 -1 1 -5t-1 -6q-11 -10 -86.5 -51t-81.5 -41q-2 0 -8.5 7.5t-6.5 11.5q18 21 64 69t57 55z" />
    <glyph glyph-name="uni0107" unicode="&#x107;" horiz-adv-x="407" 
d="M388 73q-68 -85 -167 -85q-93 0 -144 66q-41 53 -41 138q0 52 25.5 98.5t72.5 73.5q69 42 140 42q46 0 80 -13q27 -14 33 -27q2 -9 -1 -17q-5 -13 -19 -29.5t-22 -21.5q-6 -2 -12 0q-19 21 -27.5 30t-33.5 24t-48 15q-40 0 -62.5 -35.5t-22.5 -93.5q0 -71 33 -119
q40 -54 111 -54q60 0 105 41q3 0 5 -5q3 -17 -5 -28zM262 597q7 3 41.5 5.5t42.5 0.5q1 -1 2.5 -5t0.5 -6q-7 -14 -56.5 -74.5t-67.5 -80.5q-3 -1 -11.5 4t-9.5 8q40 107 58 148z" />
    <glyph glyph-name="uni0108" unicode="&#x108;" horiz-adv-x="656" 
d="M564 447q-7 52 -18.5 78t-38.5 41q-46 26 -122 26q-93 0 -146.5 -70t-53.5 -203q0 -127 61 -210.5t178 -83.5q69 0 107 34q37 34 72 97q4 0 12.5 -4.5t9.5 -9.5q-9 -33 -33.5 -78.5t-42.5 -58.5q-74 -23 -150 -23q-167 0 -258 84t-91 243q0 86 40 158.5t119 112.5
q83 44 204 44q41 0 111 -8t85 -9q-15 -77 -17 -158q-2 -4 -14.5 -5t-13.5 3zM375 782q7 5 17 5q9 -10 61 -53t72 -57q0 -4 -5.5 -12t-7.5 -8q-5 0 -59.5 22.5t-66.5 29.5q-5 3 -9 0q-17 -9 -64.5 -30.5t-51.5 -21.5t-8.5 8t-3.5 12q23 17 69 55t57 50z" />
    <glyph glyph-name="uni0109" unicode="&#x109;" horiz-adv-x="407" 
d="M388 73q-68 -85 -167 -85q-93 0 -144 66q-41 53 -41 138q0 52 25.5 98.5t72.5 73.5q69 42 140 42q46 0 80 -13q27 -14 33 -27q2 -9 -1 -17q-5 -13 -19 -29.5t-22 -21.5q-6 -2 -12 0q-19 21 -27.5 30t-33.5 24t-48 15q-40 0 -62.5 -35.5t-22.5 -93.5q0 -71 33 -119
q40 -54 111 -54q60 0 105 41q3 0 5 -5q3 -17 -5 -28zM232 534q-41 -71 -58 -83q-14 -9 -36 -9q-2 0 -3 2t0 4q65 100 90 156q1 3 13 7t16 4q16 -38 45.5 -89t43.5 -70q-2 -4 -19 -9.5t-24 -5.5q-6 2 -28 35t-35 58q-3 2 -5 0z" />
    <glyph glyph-name="uni010A" unicode="&#x10a;" horiz-adv-x="656" 
d="M564 447q-7 52 -18.5 78t-38.5 41q-46 26 -122 26q-93 0 -146.5 -70t-53.5 -203q0 -127 61 -210.5t178 -83.5q69 0 107 34q37 34 72 97q4 0 12.5 -4.5t9.5 -9.5q-9 -33 -33.5 -78.5t-42.5 -58.5q-74 -23 -150 -23q-167 0 -258 84t-91 243q0 86 40 158.5t119 112.5
q83 44 204 44q41 0 111 -8t85 -9q-15 -77 -17 -158q-2 -4 -14.5 -5t-13.5 3zM446 725q0 -31 -23 -49q-6 -5 -28.5 -7t-27.5 2q-25 13 -30 41q-3 27 6 38q19 19 59 19q20 0 36 -12q8 -12 8 -32z" />
    <glyph glyph-name="uni010B" unicode="&#x10b;" horiz-adv-x="407" 
d="M388 73q-68 -85 -167 -85q-93 0 -144 66q-41 53 -41 138q0 52 25.5 98.5t72.5 73.5q69 42 140 42q46 0 80 -13q27 -14 33 -27q2 -9 -1 -17q-5 -13 -19 -29.5t-22 -21.5q-6 -2 -12 0q-19 21 -27.5 30t-33.5 24t-48 15q-40 0 -62.5 -35.5t-22.5 -93.5q0 -71 33 -119
q40 -54 111 -54q60 0 105 41q3 0 5 -5q3 -17 -5 -28zM299 539q0 -32 -24 -50q-6 -4 -29 -6t-29 1q-24 12 -31 42q-3 30 6 39q20 20 61 20q25 0 38 -13q8 -11 8 -33z" />
    <glyph glyph-name="uni010C" unicode="&#x10c;" horiz-adv-x="656" 
d="M564 447q-7 52 -18.5 78t-38.5 41q-46 26 -122 26q-93 0 -146.5 -70t-53.5 -203q0 -127 61 -210.5t178 -83.5q69 0 107 34q37 34 72 97q4 0 12.5 -4.5t9.5 -9.5q-9 -33 -33.5 -78.5t-42.5 -58.5q-74 -23 -150 -23q-167 0 -258 84t-91 243q0 86 40 158.5t119 112.5
q83 44 204 44q41 0 111 -8t85 -9q-15 -77 -17 -158q-2 -4 -14.5 -5t-13.5 3zM398 662q-3 -5 -16 -5q-9 10 -61 53t-72 57q0 3 5.5 11.5t7.5 8.5q4 0 58 -23t68 -30q4 -2 9 0q15 9 63.5 31t52.5 22q3 0 7.5 -8t3.5 -12q-110 -88 -126 -105z" />
    <glyph glyph-name="uni010D" unicode="&#x10d;" horiz-adv-x="407" 
d="M388 73q-68 -85 -167 -85q-93 0 -144 66q-41 53 -41 138q0 52 25.5 98.5t72.5 73.5q69 42 140 42q46 0 80 -13q27 -14 33 -27q2 -9 -1 -17q-5 -13 -19 -29.5t-22 -21.5q-6 -2 -12 0q-19 21 -27.5 30t-33.5 24t-48 15q-40 0 -62.5 -35.5t-22.5 -93.5q0 -71 33 -119
q40 -54 111 -54q60 0 105 41q3 0 5 -5q3 -17 -5 -28zM246 518q42 73 58 84q6 4 19 7t18 2q3 0 3 -6q-16 -24 -48 -78.5t-42 -78.5q-1 -2 -13.5 -6t-15.5 -4q-17 38 -46.5 89t-43.5 70q2 4 19 9.5t24 5.5q6 -2 28 -35t35 -59q3 -2 5 0z" />
    <glyph glyph-name="uni010E" unicode="&#x10e;" horiz-adv-x="706" 
d="M22 584q-1 3 -0.5 13t2.5 12q66 -3 136 -3q33 0 90 1.5t99 1.5q132 0 209 -64q98 -82 98 -228q0 -156 -106 -243q-96 -81 -262 -81q-32 0 -109 2t-121 2h-43q-2 3 -2 14t2 12q42 3 60 9q26 7 30 46q3 43 3 246q0 163 -3 205q-2 21 -7 30t-21 14q-20 7 -55 11zM228 87
q3 -23 17 -33q30 -26 96 -26q74 0 121 55q65 78 65 218q0 76 -26.5 139.5t-78.5 99.5q-53 37 -146 37q-31 0 -41 -5q-8 -6 -8 -16q-2 -38 -2 -251q0 -173 3 -218zM329 653q-3 -5 -16 -5q-9 10 -61 53t-72 57q0 3 5.5 11.5t7.5 8.5q4 0 58 -23t68 -30q4 -2 9 0q15 9 63.5 31
t52.5 22q3 0 7.5 -8t3.5 -12q-110 -88 -126 -105z" />
    <glyph glyph-name="uni010F" unicode="&#x10f;" horiz-adv-x="503" 
d="M493 51q0 -20 -6 -24q-24 -12 -80 -28t-73 -16q-7 0 -7 10q-2 8 -2 49q0 2 -2 3t-3 0q-80 -55 -134 -55q-63 0 -106 52q-44 53 -44 142q0 48 20 91.5t54 70.5q31 24 83.5 42t95.5 18q15 0 33 -2q4 0 4 5q2 119 -2 166q-4 30 -21 37q-23 7 -51 10q-2 3 -1 13t4 11
q45 0 102 8.5t84 19.5q5 -5 5 -14q-10 -15 -11 -104q-2 -116 -2 -270q0 -122 2 -190q1 -42 17 -44q12 -1 41 -1zM235 369q-32 0 -56 -25q-33 -35 -33 -112q0 -80 34.5 -127.5t89.5 -47.5q27 0 47 14q8 6 8 17q2 23 2 97t-1 112q-2 32 -26 52q-27 20 -65 20zM558 677
q7 0 7 -13q1 -26 -6 -89t-14 -90q-2 -8 -12.5 -19t-17.5 -14q-2 -1 -4 1t-2 3q0 74 -13 174q0 5 2 8q7 8 29.5 23.5t30.5 15.5z" />
    <glyph glyph-name="uni0110" unicode="&#x110;" horiz-adv-x="706" 
d="M22 584q-1 3 -0.5 13t2.5 12q66 -3 136 -3q33 0 90 1.5t99 1.5q132 0 209 -64q98 -82 98 -228q0 -156 -106 -243q-96 -81 -262 -81q-32 0 -109 2t-121 2h-43q-2 3 -2 14t2 12q42 3 60 9q26 7 30 46q3 41 3 222q-78 -2 -81 -2q0 27 7 34q9 0 34.5 -0.5t39.5 -0.5
q0 138 -3 198q-2 21 -7 30t-21 14q-20 7 -55 11zM228 87q3 -23 17 -33q30 -26 96 -26q74 0 121 55q65 78 65 218q0 76 -26.5 139.5t-78.5 99.5q-53 37 -146 37q-31 0 -41 -5q-8 -6 -8 -16q-2 -35 -2 -225q32 0 68 0.5t61 0.5h28q0 -18 -5 -33q-26 0 -77 0.5t-75 0.5
q0 -170 3 -213z" />
    <glyph glyph-name="uni0111" unicode="&#x111;" horiz-adv-x="514" 
d="M36 183q0 49 20 93t54 70q31 24 83.5 42t96.5 18q23 0 32 -1q4 0 4 4v85q-21 0 -47 -0.5t-40 -1t-23 -0.5q3 28 8 33h102q0 37 -1 54q-2 25 -22 33q-15 5 -51 11q-1 3 0 11.5t3 11.5q44 0 101.5 9t85.5 19q6 -6 4 -13q-11 -20 -12 -101v-36q18 0 40.5 1t24.5 1
q2 -15 -4 -33q-42 0 -62 1v-208q0 -169 2 -203q1 -26 5 -33.5t12 -9.5q11 -1 49 -1q1 -3 -1 -12.5t-4 -11.5q-24 -10 -83 -21t-79 -11q-7 0 -7 10q-2 8 -2 49q0 4 -5 2q-33 -22 -72 -38t-63 -16q-64 0 -105 52q-44 53 -44 141zM235 369q-32 0 -56 -25q-33 -35 -33 -111
q0 -80 34.5 -128t88.5 -48q29 0 48 13q8 8 8 18q2 23 2 97t-1 112q-3 36 -27 53q-25 19 -64 19z" />
    <glyph glyph-name="uni0112" unicode="&#x112;" horiz-adv-x="551" 
d="M29 584q-2 3 -1.5 12.5t2.5 12.5q13 0 61.5 -1.5t76.5 -1.5h194q90 0 119 5q3 -3 3 -4q-11 -39 -17 -143q-3 -3 -13.5 -3.5t-13.5 1.5q-5 47 -17 72q-12 27 -43 30q-18 2 -74 2t-69 -1q-3 -1 -6.5 -7t-3.5 -10q-2 -109 0 -211q0 -7 5 -7q20 -1 69.5 -0.5t71.5 1.5
q28 1 38 37q5 11 8 34q4 2 15.5 1.5t13.5 -2.5q-6 -69 -6 -94q0 -13 3 -94q-3 -2 -14.5 -2.5t-14.5 1.5q-5 27 -8 39q-10 29 -37 31q-14 2 -65.5 2.5t-72.5 -0.5q-6 0 -6 -8v-58.5v-78.5v-60q0 -29 22 -34q30 -6 123 -6q38 0 53.5 5.5t29.5 22.5q26 28 54 94q4 1 14 -2.5
t12 -7.5q-4 -23 -17.5 -71.5t-24.5 -68.5q-4 -9 -13.5 -12t-42.5 -3q-38 0 -125.5 2t-141.5 2q-30 0 -85.5 -1.5t-78.5 -1.5q-2 4 -2 13.5t2 12.5q51 5 70 10q16 5 23 16t8 37q2 43 2 248q0 166 -2 195q-2 24 -7.5 33t-21.5 13q-20 6 -49 9zM174 731q20 -2 56 -2h174
q0 -10 -7.5 -30.5t-10.5 -21.5q-16 -3 -192 -3l-37 1q1 8 8 30.5t9 25.5z" />
    <glyph glyph-name="uni0113" unicode="&#x113;" horiz-adv-x="423" 
d="M392 105q4 0 4 -4q2 -16 -3 -26q-34 -40 -81 -63.5t-91 -23.5q-82 0 -128 48q-57 57 -57 161q0 59 25 104.5t66 71.5q50 33 112 33q48 0 82 -25t47.5 -54.5t18.5 -61.5q2 -8 14 -11q1 -2 -1.5 -10.5t-4.5 -9.5q-33 -11 -249 -23q-4 0 -4 -10q2 -54 37 -94q38 -41 102 -41
t111 39zM209 373q-29 0 -48 -32.5t-20 -87.5q0 -5 5 -5q18 -2 67.5 -0.5t62.5 4.5q6 4 6 9q-3 47 -22.5 79.5t-50.5 32.5zM133 549q14 -2 46 -2h161q0 -10 -6 -31.5t-9 -22.5q-13 -3 -175 -3q-27 0 -33 2q1 8 7.5 31t8.5 26z" />
    <glyph glyph-name="uni0114" unicode="&#x114;" horiz-adv-x="551" 
d="M29 584q-2 3 -1.5 12.5t2.5 12.5q13 0 61.5 -1.5t76.5 -1.5h194q90 0 119 5q3 -3 3 -4q-11 -39 -17 -143q-3 -3 -13.5 -3.5t-13.5 1.5q-5 47 -17 72q-12 27 -43 30q-18 2 -74 2t-69 -1q-3 -1 -6.5 -7t-3.5 -10q-2 -109 0 -211q0 -7 5 -7q20 -1 69.5 -0.5t71.5 1.5
q28 1 38 37q5 11 8 34q4 2 15.5 1.5t13.5 -2.5q-6 -69 -6 -94q0 -13 3 -94q-3 -2 -14.5 -2.5t-14.5 1.5q-5 27 -8 39q-10 29 -37 31q-14 2 -65.5 2.5t-72.5 -0.5q-6 0 -6 -8v-58.5v-78.5v-60q0 -29 22 -34q30 -6 123 -6q38 0 53.5 5.5t29.5 22.5q26 28 54 94q4 1 14 -2.5
t12 -7.5q-4 -23 -17.5 -71.5t-24.5 -68.5q-4 -9 -13.5 -12t-42.5 -3q-38 0 -125.5 2t-141.5 2q-30 0 -85.5 -1.5t-78.5 -1.5q-2 4 -2 13.5t2 12.5q51 5 70 10q16 5 23 16t8 37q2 43 2 248q0 166 -2 195q-2 24 -7.5 33t-21.5 13q-20 6 -49 9zM298 703q52 0 89 46q1 2 11 7
t12 5q6 0 6 -4q-15 -45 -54 -76t-91 -31q-46 0 -76 21.5t-30 52.5q0 6 9.5 18.5t17.5 18.5q6 4 11 -1q11 -29 33 -43t62 -14z" />
    <glyph glyph-name="uni0115" unicode="&#x115;" horiz-adv-x="423" 
d="M392 105q4 0 4 -4q2 -16 -3 -26q-34 -40 -81 -63.5t-91 -23.5q-82 0 -128 48q-57 57 -57 161q0 59 25 104.5t66 71.5q50 33 112 33q48 0 82 -25t47.5 -54.5t18.5 -61.5q2 -8 14 -11q1 -2 -1.5 -10.5t-4.5 -9.5q-33 -11 -249 -23q-4 0 -4 -10q2 -54 37 -94q38 -41 102 -41
t111 39zM209 373q-29 0 -48 -32.5t-20 -87.5q0 -5 5 -5q18 -2 67.5 -0.5t62.5 4.5q6 4 6 9q-3 47 -22.5 79.5t-50.5 32.5zM240 516q51 0 83 51q2 3 10.5 8.5t10.5 5.5q6 0 6 -5q-11 -49 -47 -82.5t-87 -33.5q-41 0 -70 22t-29 57q0 8 11.5 21t23.5 21q2 1 5.5 0.5t4.5 -1.5
q12 -64 78 -64z" />
    <glyph glyph-name="uni0116" unicode="&#x116;" horiz-adv-x="551" 
d="M29 584q-2 3 -1.5 12.5t2.5 12.5q13 0 61.5 -1.5t76.5 -1.5h194q90 0 119 5q3 -3 3 -4q-11 -39 -17 -143q-3 -3 -13.5 -3.5t-13.5 1.5q-5 47 -17 72q-12 27 -43 30q-18 2 -74 2t-69 -1q-3 -1 -6.5 -7t-3.5 -10q-2 -109 0 -211q0 -7 5 -7q20 -1 69.5 -0.5t71.5 1.5
q28 1 38 37q5 11 8 34q4 2 15.5 1.5t13.5 -2.5q-6 -69 -6 -94q0 -13 3 -94q-3 -2 -14.5 -2.5t-14.5 1.5q-5 27 -8 39q-10 29 -37 31q-14 2 -65.5 2.5t-72.5 -0.5q-6 0 -6 -8v-58.5v-78.5v-60q0 -29 22 -34q30 -6 123 -6q38 0 53.5 5.5t29.5 22.5q26 28 54 94q4 1 14 -2.5
t12 -7.5q-4 -23 -17.5 -71.5t-24.5 -68.5q-4 -9 -13.5 -12t-42.5 -3q-38 0 -125.5 2t-141.5 2q-30 0 -85.5 -1.5t-78.5 -1.5q-2 4 -2 13.5t2 12.5q51 5 70 10q16 5 23 16t8 37q2 43 2 248q0 166 -2 195q-2 24 -7.5 33t-21.5 13q-20 6 -49 9zM336 710q0 -31 -23 -49
q-6 -5 -28.5 -7t-27.5 2q-25 13 -30 41q-3 27 6 38q19 19 59 19q20 0 36 -12q8 -12 8 -32z" />
    <glyph glyph-name="uni0117" unicode="&#x117;" horiz-adv-x="423" 
d="M392 105q4 0 4 -4q2 -16 -3 -26q-34 -40 -81 -63.5t-91 -23.5q-82 0 -128 48q-57 57 -57 161q0 59 25 104.5t66 71.5q50 33 112 33q48 0 82 -25t47.5 -54.5t18.5 -61.5q2 -8 14 -11q1 -2 -1.5 -10.5t-4.5 -9.5q-33 -11 -249 -23q-4 0 -4 -10q2 -54 37 -94q38 -41 102 -41
t111 39zM209 373q-29 0 -48 -32.5t-20 -87.5q0 -5 5 -5q18 -2 67.5 -0.5t62.5 4.5q6 4 6 9q-3 47 -22.5 79.5t-50.5 32.5zM281 539q0 -32 -24 -50q-6 -4 -29 -6t-29 1q-24 12 -31 42q-3 30 6 39q20 20 61 20q25 0 38 -13q8 -11 8 -33z" />
    <glyph glyph-name="uni0118" unicode="&#x118;" horiz-adv-x="551" 
d="M6 23q51 5 70 10q16 5 23 16t8 37q2 43 2 248q0 166 -2 195q-2 24 -7.5 33t-21.5 13q-20 6 -49 9q-2 3 -1.5 12.5t2.5 12.5q13 0 61.5 -1.5t76.5 -1.5h194q90 0 119 5q3 -3 3 -4q-11 -39 -17 -143q-3 -3 -13.5 -3.5t-13.5 1.5q-5 47 -17 72q-12 27 -43 30q-17 2 -74 2
t-69 -1q-3 -1 -6.5 -7t-3.5 -10q-2 -109 0 -211q0 -7 5 -7q20 -1 69 -0.5t71 1.5q30 1 39 37q3 8 8 34q4 2 15.5 1.5t13.5 -2.5q-6 -60 -6 -94q0 -13 3 -94q-3 -2 -14.5 -2.5t-14.5 1.5q-1 8 -9 41q-9 27 -37 29q-14 2 -65 2.5t-72 -0.5q-6 0 -6 -8v-58v-76.5v-62.5
q0 -29 22 -34q30 -6 123 -6q38 0 53.5 5.5t29.5 22.5q26 28 54 94q4 1 14 -2.5t12 -7.5q-3 -20 -17 -69.5t-25 -70.5q-7 -14 -44 -15q-57 -65 -57 -109q0 -20 13 -31t31 -11q23 0 50 16q5 -10 -1 -28q-18 -27 -46 -39t-52 -12q-30 0 -52 18t-22 56q0 57 100 140
q-22 0 -106 2t-137 2q-30 0 -85.5 -1.5t-78.5 -1.5q-2 4 -2 13.5t2 12.5z" />
    <glyph glyph-name="uni0119" unicode="&#x119;" horiz-adv-x="423" 
d="M392 105q4 0 4 -4q2 -16 -3 -26q-42 -50 -97 -71q-60 -48 -60 -101q0 -20 12 -30t30 -10q24 0 48 14q1 -4 0.5 -14t-2.5 -12q-17 -26 -43.5 -37.5t-48.5 -11.5q-28 0 -49.5 17.5t-21.5 53.5q0 52 86 117q-18 -2 -26 -2q-82 0 -128 48q-57 57 -57 161q0 59 25 105t66 72
q53 32 112 32q69 0 104.5 -44t43.5 -97q2 -8 14 -11q1 -2 -1.5 -10.5t-4.5 -9.5q-42 -14 -249 -23q-4 0 -4 -10q2 -54 37 -94q38 -41 102 -41t111 39zM209 373q-29 0 -48 -33t-20 -87q0 -6 5 -6q102 0 131 6q5 2 5 8q-3 47 -22.5 79.5t-50.5 32.5z" />
    <glyph glyph-name="uni011A" unicode="&#x11a;" horiz-adv-x="551" 
d="M29 584q-2 3 -1.5 12.5t2.5 12.5q13 0 61.5 -1.5t76.5 -1.5h194q90 0 119 5q3 -3 3 -4q-11 -39 -17 -143q-3 -3 -13.5 -3.5t-13.5 1.5q-5 47 -17 72q-12 27 -43 30q-18 2 -74 2t-69 -1q-3 -1 -6.5 -7t-3.5 -10q-2 -109 0 -211q0 -7 5 -7q20 -1 69.5 -0.5t71.5 1.5
q28 1 38 37q5 11 8 34q4 2 15.5 1.5t13.5 -2.5q-6 -69 -6 -94q0 -13 3 -94q-3 -2 -14.5 -2.5t-14.5 1.5q-5 27 -8 39q-10 29 -37 31q-14 2 -65.5 2.5t-72.5 -0.5q-6 0 -6 -8v-58.5v-78.5v-60q0 -29 22 -34q30 -6 123 -6q38 0 53.5 5.5t29.5 22.5q26 28 54 94q4 1 14 -2.5
t12 -7.5q-4 -23 -17.5 -71.5t-24.5 -68.5q-4 -9 -13.5 -12t-42.5 -3q-38 0 -125.5 2t-141.5 2q-30 0 -85.5 -1.5t-78.5 -1.5q-2 4 -2 13.5t2 12.5q51 5 70 10q16 5 23 16t8 37q2 43 2 248q0 166 -2 195q-2 24 -7.5 33t-21.5 13q-20 6 -49 9zM289 647q-3 -5 -16 -5
q-9 10 -61 53t-72 57q0 3 5.5 11.5t7.5 8.5q4 0 58 -23t68 -30q4 -2 9 0q15 9 63.5 31t52.5 22q3 0 7.5 -8t3.5 -12q-110 -88 -126 -105z" />
    <glyph glyph-name="uni011B" unicode="&#x11b;" horiz-adv-x="423" 
d="M392 105q4 0 4 -4q2 -16 -3 -26q-34 -40 -81 -63.5t-91 -23.5q-82 0 -128 48q-57 57 -57 161q0 59 25 104.5t66 71.5q50 33 112 33q48 0 82 -25t47.5 -54.5t18.5 -61.5q2 -8 14 -11q1 -2 -1.5 -10.5t-4.5 -9.5q-33 -11 -249 -23q-4 0 -4 -10q2 -54 37 -94q38 -41 102 -41
t111 39zM209 373q-29 0 -48 -32.5t-20 -87.5q0 -5 5 -5q18 -2 67.5 -0.5t62.5 4.5q6 4 6 9q-3 47 -22.5 79.5t-50.5 32.5zM232 518q42 73 58 84q6 4 19 7t18 2q3 0 3 -6q-16 -24 -48 -78.5t-42 -78.5q-1 -2 -13.5 -6t-15.5 -4q-17 38 -46.5 89t-43.5 70q2 4 19 9.5t24 5.5
q6 -2 28 -35t35 -59q3 -2 5 0z" />
    <glyph glyph-name="uni011C" unicode="&#x11c;" horiz-adv-x="692" 
d="M631 39q1 -3 -0.5 -10.5t-3.5 -8.5q-128 -38 -225 -38q-170 0 -261 81.5t-91 243.5q0 97 47 171t130 110q85 36 198 36q49 0 120 -11t77 -11q-17 -74 -17 -162q-2 -4 -14 -5t-15 2q-11 94 -45 117q-50 37 -138 37q-94 0 -150.5 -66.5t-56.5 -204.5q0 -137 63 -221.5
t170 -84.5q33 0 51 10q17 9 19 35q6 53 2 112q-2 28 -9 39.5t-28 16.5q-6 2 -58 8q-3 4 -2.5 14t2.5 13q12 0 65.5 -1.5t87.5 -1.5q51 0 114 3q2 -2 1.5 -13t-2.5 -13q-6 -1 -16 -3.5t-13 -3.5q-15 -5 -19.5 -16t-5.5 -46q-2 -81 1 -103q2 -15 22 -25zM376 781q8 5 17 5
q9 -10 61 -53t72 -57q0 -4 -5.5 -12t-7.5 -8q-5 0 -59.5 22.5t-66.5 29.5q-5 3 -9 0q-17 -9 -64.5 -30.5t-51.5 -21.5t-8.5 8t-3.5 12q23 17 69 55t57 50z" />
    <glyph glyph-name="uni011D" unicode="&#x11d;" horiz-adv-x="446" 
d="M220 406q45 0 100 -19q30 -10 58 -10q27 0 39 4t23 16q1 1 6 -2t6 -5q0 -8 -8.5 -29t-16.5 -29q-10 -10 -35 -10q-11 0 -22 1q-1 0 -1.5 -1.5t0.5 -2.5q8 -18 8 -51q0 -83 -59 -126q-47 -34 -114 -37q-4 -1 -27 -1q-5 0 -12.5 -6.5t-7.5 -13.5q0 -25 36 -29
q11 -1 51 -4.5t70 -7.5t46 -9q32 -10 55 -35.5t23 -68.5q0 -55 -35.5 -100t-94.5 -73q-53 -26 -115 -26q-71 0 -116 30q-57 39 -57 93q0 23 6 38q13 12 93 66q2 2 0 4q-29 11 -48 32t-20 45q3 13 4 16q4 2 22 12.5t35 20.5t24 15q2 1 2 3t-2 2q-100 32 -100 142q0 76 60 118
q24 18 59 28.5t65 9.5zM198 376q-27 0 -43 -25.5t-16 -70.5q0 -68 21.5 -106t58.5 -38q20 0 36 16q22 25 22 89q0 58 -19 96.5t-60 38.5zM240 -220q60 0 89 25t29 61q0 43 -43 64q-45 22 -142 22q-21 0 -31 -8q-39 -27 -39 -64q0 -36 30 -65q38 -35 107 -35zM213 534
q-41 -71 -58 -83q-14 -9 -36 -9q-1 0 -2.5 2t-0.5 4q65 100 90 156q1 3 13 7t16 4q16 -38 45.5 -89t43.5 -70q-2 -4 -19 -9.5t-24 -5.5q-6 2 -28 35t-35 58q-3 2 -5 0z" />
    <glyph glyph-name="uni011E" unicode="&#x11e;" horiz-adv-x="692" 
d="M631 39q1 -3 -0.5 -10.5t-3.5 -8.5q-128 -38 -225 -38q-170 0 -261 81.5t-91 243.5q0 97 47 171t130 110q85 36 198 36q49 0 120 -11t77 -11q-17 -74 -17 -162q-2 -4 -14 -5t-15 2q-11 94 -45 117q-50 37 -138 37q-94 0 -150.5 -66.5t-56.5 -204.5q0 -137 63 -221.5
t170 -84.5q33 0 51 10q17 9 19 35q6 53 2 112q-2 28 -9 39.5t-28 16.5q-6 2 -58 8q-3 4 -2.5 14t2.5 13q12 0 65.5 -1.5t87.5 -1.5q51 0 114 3q2 -2 1.5 -13t-2.5 -13q-6 -1 -16 -3.5t-13 -3.5q-15 -5 -19.5 -16t-5.5 -46q-2 -81 1 -103q2 -15 22 -25zM404 717q52 0 89 46
q1 2 11 7t12 5q6 0 6 -4q-15 -45 -54 -76t-91 -31q-46 0 -76 21.5t-30 52.5q0 6 9.5 18.5t17.5 18.5q6 4 11 -1q11 -29 33 -43t62 -14z" />
    <glyph glyph-name="uni011F" unicode="&#x11f;" horiz-adv-x="446" 
d="M220 406q45 0 100 -19q30 -10 58 -10q27 0 39 4t23 16q1 1 6 -2t6 -5q0 -8 -8.5 -29t-16.5 -29q-10 -10 -35 -10q-11 0 -22 1q-1 0 -1.5 -1.5t0.5 -2.5q8 -18 8 -51q0 -83 -59 -126q-47 -34 -114 -37q-4 -1 -27 -1q-5 0 -12.5 -6.5t-7.5 -13.5q0 -25 36 -29
q11 -1 51 -4.5t70 -7.5t46 -9q32 -10 55 -35.5t23 -68.5q0 -55 -35.5 -100t-94.5 -73q-53 -26 -115 -26q-71 0 -116 30q-57 39 -57 93q0 23 6 38q13 12 93 66q2 2 0 4q-29 11 -48 32t-20 45q3 13 4 16q4 2 22 12.5t35 20.5t24 15q2 1 2 3t-2 2q-100 32 -100 142q0 76 60 118
q24 18 59 28.5t65 9.5zM198 376q-27 0 -43 -25.5t-16 -70.5q0 -68 21.5 -106t58.5 -38q20 0 36 16q22 25 22 89q0 58 -19 96.5t-60 38.5zM240 -220q60 0 89 25t29 61q0 43 -43 64q-45 22 -142 22q-21 0 -31 -8q-39 -27 -39 -64q0 -36 30 -65q38 -35 107 -35zM233 516
q51 0 83 51q2 3 10.5 8.5t10.5 5.5q6 0 6 -5q-11 -49 -47 -82.5t-87 -33.5q-41 0 -70 22t-29 57q0 8 11.5 21t23.5 21q2 1 5.5 0.5t4.5 -1.5q12 -64 78 -64z" />
    <glyph glyph-name="uni0120" unicode="&#x120;" horiz-adv-x="692" 
d="M631 39q1 -3 -0.5 -10.5t-3.5 -8.5q-128 -38 -225 -38q-170 0 -261 81.5t-91 243.5q0 97 47 171t130 110q85 36 198 36q49 0 120 -11t77 -11q-17 -74 -17 -162q-2 -4 -14 -5t-15 2q-11 94 -45 117q-50 37 -138 37q-94 0 -150.5 -66.5t-56.5 -204.5q0 -137 63 -221.5
t170 -84.5q33 0 51 10q17 9 19 35q6 53 2 112q-2 28 -9 39.5t-28 16.5q-6 2 -58 8q-3 4 -2.5 14t2.5 13q12 0 65.5 -1.5t87.5 -1.5q51 0 114 3q2 -2 1.5 -13t-2.5 -13q-6 -1 -16 -3.5t-13 -3.5q-15 -5 -19.5 -16t-5.5 -46q-2 -81 1 -103q2 -15 22 -25zM445 724
q0 -31 -23 -49q-6 -5 -28.5 -7t-27.5 2q-25 13 -30 41q-3 27 6 38q19 19 59 19q20 0 36 -12q8 -12 8 -32z" />
    <glyph glyph-name="uni0121" unicode="&#x121;" horiz-adv-x="446" 
d="M220 406q45 0 100 -19q30 -10 58 -10q27 0 39 4t23 16q1 1 6 -2t6 -5q0 -8 -8.5 -29t-16.5 -29q-10 -10 -35 -10q-11 0 -22 1q-1 0 -1.5 -1.5t0.5 -2.5q8 -18 8 -51q0 -83 -59 -126q-47 -34 -114 -37q-4 -1 -27 -1q-5 0 -12.5 -6.5t-7.5 -13.5q0 -25 36 -29
q11 -1 51 -4.5t70 -7.5t46 -9q32 -10 55 -35.5t23 -68.5q0 -55 -35.5 -100t-94.5 -73q-53 -26 -115 -26q-71 0 -116 30q-57 39 -57 93q0 23 6 38q13 12 93 66q2 2 0 4q-29 11 -48 32t-20 45q3 13 4 16q4 2 22 12.5t35 20.5t24 15q2 1 2 3t-2 2q-100 32 -100 142q0 76 60 118
q24 18 59 28.5t65 9.5zM198 376q-27 0 -43 -25.5t-16 -70.5q0 -68 21.5 -106t58.5 -38q20 0 36 16q22 25 22 89q0 58 -19 96.5t-60 38.5zM240 -220q60 0 89 25t29 61q0 43 -43 64q-45 22 -142 22q-21 0 -31 -8q-39 -27 -39 -64q0 -36 30 -65q38 -35 107 -35zM279 539
q0 -32 -24 -50q-6 -4 -29 -6t-29 1q-24 12 -31 42q-3 30 6 39q20 20 61 20q25 0 38 -13q8 -11 8 -33z" />
    <glyph glyph-name="uni0122" unicode="&#x122;" horiz-adv-x="692" 
d="M631 39q1 -3 -0.5 -10.5t-3.5 -8.5q-128 -38 -225 -38q-170 0 -261 81.5t-91 243.5q0 97 47 171t130 110q85 36 198 36q49 0 120 -11t77 -11q-17 -74 -17 -162q-2 -4 -14 -5t-15 2q-11 94 -45 117q-50 37 -138 37q-94 0 -150.5 -66.5t-56.5 -204.5q0 -137 63 -221.5
t170 -84.5q33 0 51 10q17 9 19 35q6 53 2 112q-2 28 -9 39.5t-28 16.5q-6 2 -58 8q-3 4 -2.5 14t2.5 13q12 0 65.5 -1.5t87.5 -1.5q51 0 114 3q2 -2 1.5 -13t-2.5 -13q-6 -1 -16 -3.5t-13 -3.5q-15 -5 -19.5 -16t-5.5 -46q-2 -81 1 -103q2 -15 22 -25zM395 -48
q16 0 33 -19.5t17 -50.5q0 -46 -33.5 -77.5t-86.5 -45.5q-2 1 -6 10t-3 12q38 17 52 32.5t14 36.5q0 36 -55 53q-4 4 0 16q10 10 30.5 21.5t37.5 11.5z" />
    <glyph glyph-name="uni0123" unicode="&#x123;" horiz-adv-x="446" 
d="M210 452q-18 0 -35 21t-17 53q0 37 29.5 66.5t77.5 40.5q8 -8 8 -22q-36 -14 -50 -29t-14 -33q0 -30 60 -46q1 0 1 -6t-1 -7q-8 -12 -27 -25t-32 -13zM220 406q45 0 100 -19q30 -10 58 -10q27 0 39 4t23 16q1 1 6 -2t6 -5q0 -8 -8.5 -29t-16.5 -29q-10 -10 -35 -10
q-11 0 -22 1q-1 0 -1.5 -1.5t0.5 -2.5q8 -18 8 -51q0 -83 -59 -126q-47 -34 -114 -37q-4 -1 -27 -1q-5 0 -12.5 -6.5t-7.5 -13.5q0 -25 36 -29q11 -1 51 -4.5t70 -7.5t46 -9q32 -10 55 -35.5t23 -68.5q0 -55 -35.5 -100t-94.5 -73q-53 -26 -115 -26q-71 0 -116 30
q-57 39 -57 93q0 23 6 38q13 12 93 66q2 2 0 4q-29 11 -48 32t-20 45q3 13 4 16q4 2 22 12.5t35 20.5t24 15q2 1 2 3t-2 2q-100 32 -100 142q0 76 60 118q24 18 59 28.5t65 9.5zM198 376q-27 0 -43 -25.5t-16 -70.5q0 -68 21.5 -106t58.5 -38q20 0 36 16q22 25 22 89
q0 58 -19 96.5t-60 38.5zM240 -220q60 0 89 25t29 61q0 43 -43 64q-45 22 -142 22q-21 0 -31 -8q-39 -27 -39 -64q0 -36 30 -65q38 -35 107 -35z" />
    <glyph glyph-name="uni0124" unicode="&#x124;" horiz-adv-x="734" 
d="M27 583q-2 3 -1.5 13t2.5 13q7 0 53.5 -1.5t83.5 -1.5q40 0 82 1.5t51 1.5q2 -4 2 -14t-3 -12q-34 -5 -43 -8q-15 -5 -20.5 -15t-6.5 -35q-1 -24 -1 -180q0 -6 5 -8q16 -2 147 -2q112 0 126 2q5 0 5 6q0 166 -2 198q-2 28 -22 33q-17 6 -51 9q-3 3 -3 13t4 13
q11 0 55.5 -1.5t82.5 -1.5q40 0 82 1.5t47 1.5q2 -3 2 -13t-3 -13q-32 -4 -45 -9q-14 -5 -20 -14t-7 -33q-2 -57 -2 -242q0 -161 2 -201q2 -24 6.5 -35t16.5 -15q14 -5 60 -11q2 -3 0.5 -14t-3.5 -12q-11 0 -57 1.5t-79 1.5q-30 0 -80.5 -1.5t-58.5 -1.5q-3 2 -3 12.5
t3 13.5q28 3 46 8q15 3 21 14.5t7 37.5q1 40 1 197q0 7 -6 7q-19 1 -128 1q-133 0 -145 -2q-4 -2 -4 -6q0 -151 1 -191q1 -19 3 -28t8 -17t18 -11q17 -5 53 -10q1 -4 -0.5 -14t-3.5 -12q-3 0 -49.5 1.5t-90.5 1.5q-38 0 -85.5 -1.5t-52.5 -1.5q-2 2 -2.5 12.5t1.5 13.5
q25 2 46 7q20 5 26.5 18.5t8.5 50.5q1 22 1 200q0 203 -1 228q-1 24 -7 33.5t-20 14.5q-11 3 -53 8zM360 773q8 5 17 5q9 -10 61 -53t72 -57q0 -4 -5.5 -12t-7.5 -8q-5 0 -59.5 22.5t-66.5 29.5q-5 3 -9 0q-17 -9 -64.5 -30.5t-51.5 -21.5t-8.5 8t-3.5 12q23 17 69 55t57 50
z" />
    <glyph glyph-name="uni0125" unicode="&#x125;" horiz-adv-x="504" 
d="M105 784q3 2 16 5q11 -10 62.5 -48.5t71.5 -50.5q0 -3 -4 -10.5t-7 -6.5q-5 0 -60.5 22t-67.5 28q-5 2 -10 0q-13 -8 -63 -29t-55 -21q-3 0 -7 6.5t-3 10.5q23 15 69.5 49t57.5 45zM7 616q-2 2 -2 11.5t2 11.5q110 8 174 35q6 -6 6 -14q-11 -19 -11 -94q-1 -23 -1 -212
q0 -6 5 -3q73 55 130 55q60 0 92 -42t32 -119q0 -167 1 -188q0 -14 7 -20q12 -8 47 -14q2 -3 1 -13.5t-4 -12.5q-3 0 -39 1.5t-70 1.5q-35 0 -101 -3q-2 3 -2 13t2 13q25 4 31 7q11 4 14.5 12.5t4.5 32.5q3 175 -5 207q-6 26 -26.5 43.5t-53.5 17.5q-32 0 -57 -16
q-8 -5 -8 -16q0 -206 2 -235q1 -17 2.5 -24t6 -13t13.5 -9q20 -6 32 -7q3 -3 2 -12.5t-3 -13.5q-6 0 -40.5 1.5t-69.5 1.5q-33 0 -67 -1.5t-39 -1.5q-3 4 -3 13.5t3 12.5q21 3 33 7q11 4 15 14t6 36q1 33 1 173q0 300 -4 331q-3 19 -18 25q-4 1 -10.5 2t-15.5 2.5z" />
    <glyph glyph-name="Hbar" unicode="&#x126;" horiz-adv-x="734" 
d="M26 23q25 2 46 7q20 5 26.5 18.5t8.5 50.5q1 22 1 200v112h-66q3 28 8 33h58v34t-0.5 30t-0.5 19q-1 24 -7 33.5t-20 13.5q-20 5 -53 9q-3 2 -2 13t3 13q11 0 58.5 -1.5t78.5 -1.5q35 0 77 1.5t56 1.5q2 -3 1.5 -13.5t-3.5 -11.5q-29 -4 -42 -8q-15 -5 -20.5 -15
t-6.5 -35t-1 -82h283q0 77 -2 99q-2 25 -22 32q-27 7 -51 9q-2 3 -2 12.5t2 12.5q11 0 56 -1.5t83 -1.5q32 0 77.5 1.5t51.5 1.5q2 -3 2 -12.5t-3 -12.5q-34 -5 -45 -9q-15 -5 -21 -14.5t-7 -32.5l-2 -83h70q2 -15 -4 -33h-65v-127q0 -161 2 -201q2 -24 6.5 -35t16.5 -15
q15 -5 61 -11q2 -4 0.5 -14t-5.5 -12q-16 0 -62 1.5t-73 1.5q-25 0 -76 -1.5t-63 -1.5q-3 3 -3 13t3 13q31 3 47 8q14 3 20 13.5t7 37.5q3 58 1 177q0 8 -6 8q-19 1 -128 1q-143 -1 -145 -2q-4 -2 -4 -6q0 -131 1 -171q2 -28 7 -40t21 -16q17 -5 54 -10q2 -3 0.5 -14
t-4.5 -12q-11 0 -55.5 1.5t-84.5 1.5q-38 0 -85.5 -1.5t-52.5 -1.5q-3 1 -3 12.5t2 13.5zM509 412h-283v-89q1 -3 5 -7q16 -2 147 -2q110 0 125 2q6 0 6 7v89z" />
    <glyph glyph-name="hbar" unicode="&#x127;" horiz-adv-x="504" 
d="M15 23q20 3 33 7q12 4 15.5 14.5t4.5 35.5q2 33 2 173v240q-8 0 -28.5 -0.5t-30.5 -0.5q0 24 7 33h51q0 19 -2 53q-2 24 -20 32q-13 4 -40 6q-2 4 -2 12.5t2 10.5q41 2 93 13t81 22q2 -2 4.5 -7t1.5 -7q-10 -16 -11 -99v-37q19 0 67.5 1t50.5 1q0 -19 -5 -34
q-4 0 -53.5 0.5t-60.5 0.5v-139q0 -6 5 -3q73 55 130 55q60 0 92 -42t32 -119q0 -167 1 -188q0 -14 6 -19q16 -10 48 -15q2 -4 1 -14t-4 -12q-5 0 -40.5 1.5t-68.5 1.5q-35 0 -101 -3q-2 5 -2 13.5t2 12.5q24 3 31 7q11 4 14.5 12.5t4.5 32.5q3 172 -5 207q-6 26 -26.5 43.5
t-53.5 17.5q-31 0 -57 -16q-8 -6 -8 -16q0 -206 2 -235q1 -16 2 -23.5t6 -13.5t14 -9q17 -5 32 -7q6 -13 -1 -26q-8 0 -44.5 1.5t-65.5 1.5q-27 0 -62 -1.5t-44 -1.5q-3 5 -3 13.5t3 12.5z" />
    <glyph glyph-name="uni0128" unicode="&#x128;" horiz-adv-x="333" 
d="M27 584q-2 2 -1.5 12.5t2.5 12.5q12 0 57.5 -1.5t80.5 -1.5q46 0 88.5 1.5t45.5 1.5q2 -3 2 -12.5t-2 -12.5q-33 -5 -48 -9q-16 -6 -20 -16t-6 -38q-1 -33 -1 -205q0 -197 2 -233q1 -15 2 -22.5t8 -16.5t21 -12q17 -5 52 -9q2 -3 1 -13.5t-3 -12.5q-117 3 -135 3
q-44 0 -87.5 -1.5t-57.5 -1.5q-4 2 -4 12.5t4 13.5q29 3 45 7q18 4 24.5 14t8.5 37q2 36 2 247q0 157 -3 203q-2 36 -25 43q-21 6 -53 10zM233 716q37 0 71 33q2 2 4 -4q6 -12 4 -18q-12 -22 -45 -44t-61 -22q-21 0 -69 15q-25 9 -43 9q-27 0 -62 -30q-1 -1 -4 3.5
t-4.5 10.5t-0.5 7q11 16 43 40t53 24t63 -13q33 -11 51 -11z" />
    <glyph glyph-name="uni0129" unicode="&#x129;" horiz-adv-x="252" 
d="M240 23q1 -4 -0.5 -14t-4.5 -12q-7 0 -43 1.5t-65 1.5t-65 -1.5t-43 -1.5q-2 2 -2.5 13t1.5 13q26 4 37 7q17 6 18 40q2 46 2 143q0 61 -2 93q0 17 -7 25q-8 9 -38 21q-2 3 -1.5 11.5t2.5 11.5q22 0 72.5 10t81.5 24q0 -15 -0.5 -77.5t-0.5 -93.5q0 -124 1 -169
q0 -32 19 -38q18 -6 38 -8zM188 535q35 0 66 31q3 3 5 -3q3 -13 -3 -22q-10 -20 -39 -41.5t-55 -21.5q-19 0 -63 15q-29 8 -41 8q-27 0 -59 -29q-1 -1 -3 0.5t-3 3.5q-1 4 1 13t4 11q9 16 36.5 37t47.5 21q21 0 57 -11q40 -12 49 -12z" />
    <glyph glyph-name="uni012A" unicode="&#x12a;" horiz-adv-x="333" 
d="M27 584q-2 2 -1.5 12.5t2.5 12.5q12 0 57.5 -1.5t80.5 -1.5q46 0 88.5 1.5t45.5 1.5q2 -3 2 -12.5t-2 -12.5q-33 -5 -48 -9q-16 -6 -20 -16t-6 -38q-1 -33 -1 -205q0 -197 2 -233q1 -15 2 -22.5t8 -16.5t21 -12q17 -5 52 -9q2 -3 1 -13.5t-3 -12.5q-117 3 -135 3
q-44 0 -87.5 -1.5t-57.5 -1.5q-4 2 -4 12.5t4 13.5q29 3 45 7q18 4 24.5 14t8.5 37q2 36 2 247q0 157 -3 203q-2 36 -25 43q-21 6 -53 10zM60 728q20 -2 56 -2h174q0 -10 -7.5 -30.5t-10.5 -21.5q-16 -3 -192 -3l-37 1q1 8 8 30.5t9 25.5z" />
    <glyph glyph-name="uni012B" unicode="&#x12b;" horiz-adv-x="252" 
d="M240 23q1 -4 -0.5 -14t-4.5 -12q-7 0 -43 1.5t-65 1.5t-65 -1.5t-43 -1.5q-2 2 -2.5 13t1.5 13q26 4 37 7q17 6 18 40q2 46 2 143q0 61 -2 93q0 17 -7 25q-8 9 -38 21q-2 3 -1.5 11.5t2.5 11.5q22 0 72.5 10t81.5 24q0 -15 -0.5 -77.5t-0.5 -93.5q0 -124 1 -169
q0 -32 19 -38q18 -6 38 -8zM28 549q14 -2 46 -2h161q0 -10 -6 -31.5t-9 -22.5q-13 -3 -175 -3q-27 0 -33 2q1 8 7.5 31t8.5 26z" />
    <glyph glyph-name="uni012C" unicode="&#x12c;" horiz-adv-x="333" 
d="M27 584q-2 2 -1.5 12.5t2.5 12.5q12 0 57.5 -1.5t80.5 -1.5q46 0 88.5 1.5t45.5 1.5q2 -3 2 -12.5t-2 -12.5q-33 -5 -48 -9q-16 -6 -20 -16t-6 -38q-1 -33 -1 -205q0 -197 2 -233q1 -15 2 -22.5t8 -16.5t21 -12q17 -5 52 -9q2 -3 1 -13.5t-3 -12.5q-117 3 -135 3
q-44 0 -87.5 -1.5t-57.5 -1.5q-4 2 -4 12.5t4 13.5q29 3 45 7q18 4 24.5 14t8.5 37q2 36 2 247q0 157 -3 203q-2 36 -25 43q-21 6 -53 10zM180 702q52 0 89 46q1 2 11 7t12 5q6 0 6 -4q-15 -45 -54 -76t-91 -31q-46 0 -76 21.5t-30 52.5q0 6 9.5 18.5t17.5 18.5q6 4 11 -1
q11 -29 33 -43t62 -14z" />
    <glyph glyph-name="uni012D" unicode="&#x12d;" horiz-adv-x="252" 
d="M240 23q1 -4 -0.5 -14t-4.5 -12q-7 0 -43 1.5t-65 1.5t-65 -1.5t-43 -1.5q-2 2 -2.5 13t1.5 13q26 4 37 7q17 6 18 40q2 46 2 143q0 61 -2 93q0 17 -7 25q-8 9 -38 21q-2 3 -1.5 11.5t2.5 11.5q22 0 72.5 10t81.5 24q0 -15 -0.5 -77.5t-0.5 -93.5q0 -124 1 -169
q0 -32 19 -38q18 -6 38 -8zM135 516q51 0 83 51q2 3 10.5 8.5t10.5 5.5q6 0 6 -5q-11 -49 -47 -82.5t-87 -33.5q-41 0 -70 22t-29 57q0 8 11.5 21t23.5 21q2 1 5.5 0.5t4.5 -1.5q12 -64 78 -64z" />
    <glyph glyph-name="uni012E" unicode="&#x12e;" horiz-adv-x="333" 
d="M156 -218q-30 0 -52 18t-22 56q0 59 95 144q-47 0 -91 -1.5t-58 -1.5q-3 2 -3 12.5t3 13.5q29 3 45 7q17 4 24 14t9 37q2 36 2 247q0 157 -3 203q-2 36 -25 43q-15 5 -53 10q-2 3 -1.5 12.5t2.5 12.5q12 0 57.5 -1.5t80.5 -1.5q46 0 88.5 1.5t45.5 1.5q2 -3 2 -12.5
t-2 -12.5q-33 -5 -48 -9q-16 -6 -20 -16t-6 -38q-1 -33 -1 -205q0 -197 2 -233q1 -15 2 -22.5t8 -16.5t21 -12q17 -5 52 -9q2 -3 1 -13.5t-3 -12.5q-93 3 -99 3q-49 -61 -49 -111q0 -21 13.5 -32.5t31.5 -11.5q25 0 50 16q2 -5 1.5 -15t-2.5 -13q-18 -27 -46 -39t-52 -12z
" />
    <glyph glyph-name="uni012F" unicode="&#x12f;" horiz-adv-x="252" 
d="M114 -208q-28 0 -49 17.5t-21 53.5q0 31 28.5 70t63.5 67q-35 0 -73 -1.5t-44 -1.5q-2 2 -2.5 13t1.5 13q26 4 37 7q17 6 18 40q2 46 2 143q0 63 -2 93q0 17 -7 25q-8 9 -38 21q-2 3 -1.5 11.5t2.5 11.5q22 0 72.5 10t81.5 24q0 -9 -0.5 -73t-0.5 -98q0 -124 1 -169
q0 -32 19 -38q16 -5 40 -8q2 -3 0.5 -13.5t-4.5 -12.5q-9 0 -35 1.5t-40 1.5q-45 -59 -45 -106q0 -19 12.5 -30.5t29.5 -11.5q25 0 48 16q2 -5 1.5 -14.5t-2.5 -12.5q-17 -26 -43.5 -37.5t-49.5 -11.5zM182 541q0 -32 -24 -52q-7 -4 -29.5 -6.5t-31.5 1.5q-20 8 -28 42
q-3 29 6 39q20 20 60 20q29 0 38 -12q9 -10 9 -32z" />
    <glyph glyph-name="uni0130" unicode="&#x130;" horiz-adv-x="333" 
d="M27 584q-2 2 -1.5 12.5t2.5 12.5q12 0 57.5 -1.5t80.5 -1.5q46 0 88.5 1.5t45.5 1.5q2 -3 2 -12.5t-2 -12.5q-33 -5 -48 -9q-16 -6 -20 -16t-6 -38q-1 -33 -1 -205q0 -197 2 -233q1 -15 2 -22.5t8 -16.5t21 -12q17 -5 52 -9q2 -3 1 -13.5t-3 -12.5q-117 3 -135 3
q-44 0 -87.5 -1.5t-57.5 -1.5q-4 2 -4 12.5t4 13.5q29 3 45 7q18 4 24.5 14t8.5 37q2 36 2 247q0 157 -3 203q-2 36 -25 43q-21 6 -53 10zM222 713q0 -31 -23 -49q-6 -5 -28.5 -7t-27.5 2q-25 13 -30 41q-3 27 6 38q19 19 59 19q20 0 36 -12q8 -12 8 -32z" />
    <glyph glyph-name="dotlessi" unicode="&#x131;" horiz-adv-x="252" 
d="M240 23q1 -4 -0.5 -14t-4.5 -12q-7 0 -43 1.5t-65 1.5t-65 -1.5t-43 -1.5q-2 2 -2.5 13t1.5 13q26 4 37 7q17 6 18 40q2 46 2 143q0 61 -2 93q0 17 -7 25q-8 9 -38 21q-2 3 -1.5 11.5t2.5 11.5q22 0 72.5 10t81.5 24q0 -15 -0.5 -77.5t-0.5 -93.5q0 -124 1 -169
q0 -32 19 -38q18 -6 38 -8z" />
    <glyph glyph-name="IJ" unicode="&#x132;" horiz-adv-x="659" 
d="M27 584q-2 2 -1.5 12.5t2.5 12.5q12 0 57.5 -1.5t80.5 -1.5q46 0 88.5 1.5t45.5 1.5q2 -3 2 -12.5t-2 -12.5q-33 -5 -48 -9q-16 -6 -20 -16t-6 -38q-1 -33 -1 -205q0 -197 2 -233q1 -15 2 -22.5t8 -16.5t21 -12q17 -5 52 -9q2 -3 1 -13.5t-3 -12.5q-117 3 -135 3
q-44 0 -87.5 -1.5t-57.5 -1.5q-4 2 -4 12.5t4 13.5q29 3 45 7q18 4 24.5 14t8.5 37q2 36 2 247q0 157 -3 203q-2 36 -25 43q-21 6 -53 10zM362 584q-2 3 -2 13t2 12q10 0 56 -1.5t92 -1.5q34 0 76 1.5t53 1.5q2 -3 2 -12.5t-2 -12.5q-33 -5 -46 -11q-21 -10 -22 -48
q-4 -402 -5 -416q-5 -109 -42 -175q-40 -69 -95.5 -109.5t-107.5 -40.5q-53 0 -69 27v15q7 39 26 74q29 -21 61 -35.5t50 -14.5q24 0 38 16q21 25 22 122q2 107 1 293t-3 240q-1 16 -2.5 23.5t-8 16.5t-18.5 13q-20 5 -56 10z" />
    <glyph glyph-name="ij" unicode="&#x133;" horiz-adv-x="505" 
d="M182 541q0 -32 -24 -52q-7 -4 -29.5 -6.5t-31.5 1.5q-22 9 -28 42q-5 26 6 39q20 20 60 20q29 0 38 -12q9 -10 9 -32zM239 23q1 -4 -0.5 -14t-4.5 -12q-7 0 -42.5 1.5t-64.5 1.5t-65 -1.5t-43 -1.5q-2 2 -2.5 13t1.5 13q26 4 37 7q17 6 18 40q2 46 2 143q0 61 -2 93
q0 17 -7 25q-8 9 -38 21q-2 3 -1.5 11.5t2.5 11.5q22 0 72.5 10t81.5 24q0 -15 -0.5 -77.5t-0.5 -93.5q0 -124 1 -169q0 -32 19 -38q18 -6 37 -8zM441 408l-2 -325q-2 -84 -10 -125q-15 -77 -64.5 -137t-90.5 -79q-18 1 -25 12q-2 4 0 9q46 26 63 70.5t17 139.5
q0 310 -2 332q-2 25 -17 34q-14 7 -43 12q-3 4 -2.5 14t2.5 12q107 5 174 31zM435 548q0 -37 -23 -54q-4 -4 -28.5 -8t-30.5 -1q-26 13 -31 47q-2 5 -0.5 17.5t5.5 16.5q8 9 27 16t38 7q28 0 36 -11q7 -8 7 -30z" />
    <glyph glyph-name="uni0134" unicode="&#x134;" horiz-adv-x="327" 
d="M29 584q-2 3 -2 13t2 12q10 0 56 -1.5t92 -1.5q34 0 76 1.5t53 1.5q2 -3 2 -12.5t-2 -12.5q-33 -5 -46 -11q-21 -10 -22 -48q-4 -402 -5 -416q-5 -109 -42 -175q-40 -69 -95.5 -109.5t-107.5 -40.5q-53 0 -69 27v15q7 39 26 74q29 -21 61 -35.5t50 -14.5q24 0 38 16
q21 25 22 122q2 107 1 293t-3 240q-1 16 -2.5 23.5t-8 16.5t-18.5 13q-20 5 -56 10zM158 773q7 5 17 5q9 -10 61 -53t72 -57q0 -4 -5.5 -12t-7.5 -8q-5 0 -59.5 22.5t-66.5 29.5q-5 3 -9 0q-17 -9 -64.5 -30.5t-51.5 -21.5t-8.5 8t-3.5 12q23 17 69 55t57 50z" />
    <glyph glyph-name="uni0135" unicode="&#x135;" horiz-adv-x="253" 
d="M189 408l-2 -325q-2 -84 -10 -125q-15 -77 -64.5 -137t-90.5 -79q-14 1 -25 12q-2 4 0 9q46 26 63 70.5t17 139.5q0 310 -2 332q-2 25 -17 34q-14 7 -43 12q-3 4 -2.5 14t2.5 12q107 5 174 31zM118 535q-41 -71 -58 -83q-14 -9 -36 -9q-2 0 -3 2.5t0 3.5q65 100 90 156
q1 3 13 7t16 4q16 -38 45.5 -89t43.5 -70q-2 -4 -19 -9.5t-24 -5.5q-6 2 -28 35t-35 58q-3 2 -5 0z" />
    <glyph glyph-name="uni0136" unicode="&#x136;" horiz-adv-x="645" 
d="M223 310q0 -166 2 -226q1 -26 7.5 -37.5t23.5 -15.5q6 -2 50 -9q2 -3 0.5 -13t-3.5 -12q-15 0 -61.5 1.5t-77.5 1.5q-35 0 -84.5 -1.5t-53.5 -1.5q-2 2 -2 12t2 12q34 4 49 9q18 4 24 17t7 44q2 107 1 229q0 184 -1 205q-2 43 -26 49q-6 2 -49 10q-3 3 -3 12.5t3 12.5
q5 0 49.5 -1.5t86.5 -1.5q27 0 70.5 1.5t57.5 1.5q1 -3 1 -12.5t-1 -12.5q-36 -6 -44 -9q-15 -4 -20 -16t-6 -38q-2 -96 -2 -211zM380 584q-2 3 -1.5 13t2.5 12q8 0 46 -1.5t64 -1.5q34 0 124 3q3 -2 2.5 -12.5t-2.5 -12.5q-46 -8 -68.5 -18.5t-53.5 -47.5l-153 -172v-4
q29 -49 108 -144t128 -140q25 -21 41 -26q18 -7 56 -9q2 -3 1 -13.5t-4 -12.5q-33 -4 -101.5 -2t-87.5 9q-23 9 -54 40q-72 79 -181 230q-5 8 -15 16q0 12 3 14q34 17 83.5 66.5t100.5 117.5q35 46 35 66q0 14 -18 19q-24 7 -55 11zM369 -28q16 0 33 -19.5t17 -50.5
q0 -46 -33.5 -77.5t-86.5 -45.5q-2 1 -6 10t-3 12q38 17 52 32.5t14 36.5q0 36 -55 53q-4 4 0 16q10 10 30.5 21.5t37.5 11.5z" />
    <glyph glyph-name="uni0137" unicode="&#x137;" horiz-adv-x="469" 
d="M249 367q-2 4 -1 14t4 11q110 -2 188 8q3 -2 3 -12.5t-2 -13.5q-54 -11 -79 -36q-65 -65 -90 -93q-2 -2 0 -5q17 -31 72 -102t82 -94q14 -13 25 -16t39 -5q2 -3 0.5 -13.5t-3.5 -12.5q-37 -6 -123 -3q-32 0 -54 24q-17 16 -107 146q-14 21 -28 25l2 -117q1 -24 6 -32
t21 -12l32 -5q2 -4 1 -13.5t-4 -12.5q-8 0 -44.5 1.5t-68.5 1.5q-27 0 -61 -1.5t-44 -1.5q-2 2 -2 13t2 13q24 3 34 7q16 5 19 38q2 27 2 175q0 315 -2 340q-2 24 -19 30q-24 5 -38 7q-1 3 -1 12.5t1 10.5q108 7 170 31q6 -3 6 -13q-9 -16 -10 -106q-2 -132 -2 -344
q21 3 45 24q29 24 59.5 60t30.5 48q1 12 -15 16q-2 1 -46 8zM269 -35q16 0 33 -19.5t17 -50.5q0 -46 -33.5 -77.5t-86.5 -45.5q-2 1 -6 10t-3 12q38 17 52 32.5t14 36.5q0 36 -55 53q-4 4 0 16q10 10 30.5 21.5t37.5 11.5z" />
    <glyph glyph-name="uni0138" unicode="&#x138;" horiz-adv-x="467" 
d="M18 23q17 1 32 5q23 7 23 42v19q0 19 0.5 44.5t0.5 57v59t-0.5 48t-0.5 25.5q-2 20 -17 27q-3 1 -37 11q-1 3 0 12t3 10q96 5 162 21q-1 -8 -4 -70v-132q38 13 88.5 69t50.5 71q0 11 -11 14q-11 5 -42 8q-3 2 -3 13t3 13q50 -1 176 5q2 -3 2 -13.5t-2 -13.5
q-51 -8 -78 -35l-87 -94q-2 -4 -1 -6q110 -156 146 -188q19 -17 70 -23q2 -1 0.5 -12t-3.5 -13q-20 -4 -121 -4q-25 0 -37 5t-23 20q-39 48 -107 151q-9 9 -21 10q0 -53 2 -111q0 -20 4.5 -28t19.5 -12q20 -4 33 -5q3 -3 2 -13t-4 -13q-4 0 -39 1.5t-70 1.5q-34 0 -68 -1.5
t-41 -1.5q-3 2 -3 13t2 13z" />
    <glyph glyph-name="uni0139" unicode="&#x139;" horiz-adv-x="541" 
d="M27 584q-2 3 -1.5 13.5t3.5 11.5q11 0 51.5 -1.5t83.5 -1.5q50 0 134 3q2 -2 2.5 -12.5t-2.5 -12.5q-31 -5 -45 -9q-16 -5 -20.5 -13.5t-6.5 -30.5q0 -10 -0.5 -37.5t-1 -77.5t-0.5 -86q0 -206 3 -254q2 -26 19 -30q33 -8 140 -6q30 0 56 31q36 43 67 116q3 2 14 -1.5
t12 -7.5q-3 -26 -22 -86.5t-33 -83.5q-6 -12 -56 -12q-37 0 -133 2t-129 2q-32 0 -80 -1.5t-63 -1.5q-2 3 -2 13t2 13q40 4 56 8q25 7 29 43q4 48 4 253q0 166 -2 200q-1 23 -6.5 33.5t-23.5 14.5q-5 2 -49 9zM253 783q9 0 32.5 -15.5t29.5 -24.5q1 -1 1 -5t-1 -6
q-11 -10 -86.5 -51t-81.5 -41q-2 0 -8.5 7.5t-6.5 11.5q18 21 64 69t57 55z" />
    <glyph glyph-name="uni013A" unicode="&#x13a;" horiz-adv-x="246" 
d="M14 -3q-2 3 -2 12.5t2 13.5q22 3 37 9q16 7 17 43q2 39 2 254q0 207 -3 249q-2 23 -14 26q-11 6 -42 9q-2 2 -1.5 11t2.5 12q39 3 91 14.5t77 23.5q8 -3 6 -10q-9 -21 -9 -97q-1 -49 -1 -231q0 -224 2 -263q2 -22 6 -30t16 -12q14 -5 35 -8q5 -13 -3 -26q-1 0 -39.5 1.5
t-74.5 1.5q-31 0 -66 -1.5t-38 -1.5zM190 827q9 0 32.5 -15.5t29.5 -24.5q1 -1 1 -5t-1 -6q-11 -10 -86.5 -51t-81.5 -41q-2 0 -8.5 7.5t-6.5 11.5q18 21 64 69t57 55z" />
    <glyph glyph-name="uni013B" unicode="&#x13b;" horiz-adv-x="541" 
d="M27 584q-2 3 -1.5 13.5t3.5 11.5q11 0 51.5 -1.5t83.5 -1.5q50 0 134 3q2 -2 2.5 -12.5t-2.5 -12.5q-31 -5 -45 -9q-16 -5 -20.5 -13.5t-6.5 -30.5q0 -10 -0.5 -37.5t-1 -77.5t-0.5 -86q0 -206 3 -254q2 -26 19 -30q33 -8 140 -6q30 0 56 31q36 43 67 116q3 2 14 -1.5
t12 -7.5q-3 -26 -22 -86.5t-33 -83.5q-6 -12 -56 -12q-37 0 -133 2t-129 2q-32 0 -80 -1.5t-63 -1.5q-2 3 -2 13t2 13q40 4 56 8q25 7 29 43q4 48 4 253q0 166 -2 200q-1 23 -6.5 33.5t-23.5 14.5q-5 2 -49 9zM282 -34q16 0 33 -19.5t17 -50.5q0 -46 -33.5 -77.5
t-86.5 -45.5q-2 1 -6 10t-3 12q38 17 52 32.5t14 36.5q0 36 -55 53q-4 4 0 16q10 10 30.5 21.5t37.5 11.5z" />
    <glyph glyph-name="uni013C" unicode="&#x13c;" horiz-adv-x="246" 
d="M14 -3q-2 3 -2 12.5t2 13.5q22 3 37 9q16 7 17 43q2 39 2 254q0 207 -3 249q-2 23 -14 26q-11 6 -42 9q-2 2 -1.5 11t2.5 12q39 3 91 14.5t77 23.5q8 -3 6 -10q-9 -21 -9 -97q-1 -49 -1 -231q0 -224 2 -263q2 -22 6 -30t16 -12q14 -5 35 -8q5 -13 -3 -26q-1 0 -39.5 1.5
t-74.5 1.5q-31 0 -66 -1.5t-38 -1.5zM129 -32q16 0 33 -19.5t17 -50.5q0 -46 -33.5 -77.5t-86.5 -45.5q-2 1 -6 10t-3 12q38 17 52 32.5t14 36.5q0 36 -55 53q-4 4 0 16q10 10 30.5 21.5t37.5 11.5z" />
    <glyph glyph-name="uni013D" unicode="&#x13d;" horiz-adv-x="541" 
d="M27 584q-2 3 -1.5 13.5t3.5 11.5q11 0 51.5 -1.5t83.5 -1.5q50 0 134 3q2 -2 2.5 -12.5t-2.5 -12.5q-31 -5 -45 -9q-16 -5 -20.5 -13.5t-6.5 -30.5q0 -10 -0.5 -37.5t-1 -77.5t-0.5 -86q0 -206 3 -254q2 -26 19 -30q33 -8 140 -6q30 0 56 31q36 43 67 116q3 2 14 -1.5
t12 -7.5q-3 -26 -22 -86.5t-33 -83.5q-6 -12 -56 -12q-37 0 -133 2t-129 2q-32 0 -80 -1.5t-63 -1.5q-2 3 -2 13t2 13q40 4 56 8q25 7 29 43q4 48 4 253q0 166 -2 200q-1 23 -6.5 33.5t-23.5 14.5q-5 2 -49 9zM446 636q7 0 7 -13q1 -26 -6 -89t-14 -90q-2 -8 -12.5 -19
t-17.5 -14q-2 -1 -4 1t-2 3q0 74 -13 174q0 5 2 8q7 8 29.5 23.5t30.5 15.5z" />
    <glyph glyph-name="uni013E" unicode="&#x13e;" horiz-adv-x="246" 
d="M14 -3q-2 3 -2 12.5t2 13.5q22 3 37 9q16 7 17 43q2 39 2 254q0 207 -3 249q-2 23 -14 26q-11 6 -42 9q-2 2 -1.5 11t2.5 12q39 3 91 14.5t77 23.5q8 -3 6 -10q-9 -21 -9 -97q-1 -49 -1 -231q0 -224 2 -263q2 -22 6 -30t16 -12q14 -5 35 -8q5 -13 -3 -26q-1 0 -39.5 1.5
t-74.5 1.5q-31 0 -66 -1.5t-38 -1.5zM290 679q7 0 7 -13q1 -26 -6 -89t-14 -90q-2 -8 -12.5 -19t-17.5 -14q-2 -1 -4 1t-2 3q0 74 -13 174q0 5 2 8q7 8 29.5 23.5t30.5 15.5z" />
    <glyph glyph-name="Ldot" unicode="&#x13f;" horiz-adv-x="541" 
d="M27 584q-2 3 -1.5 13.5t3.5 11.5q11 0 51.5 -1.5t83.5 -1.5q50 0 134 3q2 -2 2.5 -12.5t-2.5 -12.5q-31 -5 -45 -9q-16 -5 -20.5 -13.5t-6.5 -30.5q0 -10 -0.5 -37.5t-1 -77.5t-0.5 -86q0 -206 3 -254q2 -26 19 -30q33 -8 140 -6q30 0 56 31q36 43 67 116q3 2 14 -1.5
t12 -7.5q-3 -26 -22 -86.5t-33 -83.5q-6 -12 -56 -12q-37 0 -133 2t-129 2q-32 0 -80 -1.5t-63 -1.5q-2 3 -2 13t2 13q40 4 56 8q25 7 29 43q4 48 4 253q0 166 -2 200q-1 23 -6.5 33.5t-23.5 14.5q-5 2 -49 9zM466 327q0 -31 -23 -49q-6 -5 -28.5 -7t-27.5 2q-25 13 -30 41
q-3 27 6 38q19 19 59 19q20 0 36 -12q8 -12 8 -32z" />
    <glyph glyph-name="ldot" unicode="&#x140;" horiz-adv-x="246" 
d="M296 355q0 -33 -21 -50q-5 -4 -25 -6t-25 1q-20 12 -27 42q-3 28 5 39q18 20 54 20q19 0 32 -13q7 -11 7 -33zM14 -3q-2 3 -2 12.5t2 13.5q22 3 37 9q16 7 17 43q2 39 2 254q0 207 -3 249q-2 23 -14 26q-11 6 -42 9q-2 2 -1.5 11t2.5 12q39 3 91 14.5t77 23.5q8 -3 6 -10
q-9 -21 -9 -97q-1 -49 -1 -231q0 -224 2 -263q2 -22 6 -30t16 -12q14 -5 35 -8q5 -13 -3 -26q-1 0 -39.5 1.5t-74.5 1.5q-31 0 -66 -1.5t-38 -1.5z" />
    <glyph glyph-name="Lslash" unicode="&#x141;" horiz-adv-x="541" 
d="M19 23q40 4 56 8q25 7 29 43q3 52 4 178l-62 -27q-2 1 -4.5 16t-1.5 18l68 28v40q0 166 -2 200q-1 23 -6.5 33.5t-23.5 14.5q-5 2 -49 9q-2 3 -1.5 13.5t3.5 11.5q11 0 51.5 -1.5t83.5 -1.5q50 0 134 3q2 -2 2.5 -12.5t-2.5 -12.5q-31 -5 -45 -9q-16 -5 -20.5 -13.5
t-6.5 -30.5q0 -9 -0.5 -35.5t-1 -76t-0.5 -85.5q30 12 78 33.5t63 27.5q2 -1 4 -15.5t1 -18.5q-9 -3 -146 -61q0 -181 3 -224q1 -24 19 -30q31 -9 140 -6q31 0 56 30q37 45 67 117q3 2 14 -2t12 -8q-5 -31 -23 -88.5t-32 -79.5q-6 -13 -56 -13q-37 0 -133 2t-129 2
q-32 0 -80 -1.5t-63 -1.5q-2 3 -2 13t2 13z" />
    <glyph glyph-name="lslash" unicode="&#x142;" horiz-adv-x="256" 
d="M252 398l-66 -34q0 -252 2 -291q2 -21 5.5 -29t16.5 -13t39 -8q5 -13 -3 -26q-10 0 -47 1.5t-72 1.5q-21 0 -57.5 -1.5t-48.5 -1.5q-1 3 -1.5 12.5t0.5 13.5q28 3 41 9q16 7 17 45q1 21 1 238q-10 -4 -32.5 -14.5t-23.5 -11.5q-3 3 -3 15.5t3 15.5l57 26q0 190 -4 232
q0 22 -13 26q-13 6 -43 9q-2 3 -2 11.5t2 11.5q39 3 92 14.5t78 23.5q6 -3 6 -11q-9 -19 -9 -96l-1 -171l63 31q2 -3 3 -15t0 -14z" />
    <glyph glyph-name="uni0143" unicode="&#x143;" horiz-adv-x="697" 
d="M12 583q-1 2 -1 13t2 13q13 0 59.5 -1.5t74.5 -1.5q49 0 59 1q6 -15 36 -53q205 -264 319 -400h1q1 1 2 1q0 322 -4 363q-3 26 -11.5 37.5t-30.5 18.5q-29 6 -61 10q-2 3 -1.5 12.5t2.5 12.5q10 0 53 -1.5t75 -1.5q25 0 63.5 1.5t42.5 1.5q2 -2 2 -12.5t-2 -12.5
q-30 -6 -40 -9q-20 -7 -28.5 -20t-10.5 -39q-6 -84 -8 -385q0 -68 2 -136q-10 1 -40.5 0.5t-43.5 -1.5q-22 32 -98.5 133t-165.5 216.5t-101 131.5q-2 1 -3.5 0.5t-1.5 -1.5q-2 -80 -1 -213t3 -167q1 -30 11.5 -43.5t31.5 -18.5q12 -3 56 -9q2 -2 2 -12.5t-3 -13.5
q-11 0 -52 1.5t-68 1.5q-33 0 -72.5 -1.5t-47.5 -1.5q-2 2 -2 13t2 13q39 5 54 10q16 5 24 17.5t11 40.5q8 82 10 414q0 46 -34 61q-24 13 -66 17zM438 780q9 0 32.5 -15.5t29.5 -24.5q1 -1 1 -5.5t-1 -5.5q-11 -10 -86.5 -51t-81.5 -41q-2 0 -8.5 7.5t-6.5 11.5
q18 21 64 69t57 55z" />
    <glyph glyph-name="uni0144" unicode="&#x144;" horiz-adv-x="509" 
d="M21 23q14 1 31 6q18 6 21 39q2 62 2 154q0 67 -2 87q-5 23 -47 37q0 18 4 22q91 10 149 42q4 -4 4 -7q-2 -28 -2 -57q0 -2 1.5 -3t3.5 1q78 62 130 62q64 0 98 -53q25 -39 25 -116q0 -165 1 -182q0 -12 8 -17q22 -13 47 -15q1 -4 0 -13.5t-4 -12.5q-2 0 -34 1.5t-69 1.5
q-17 0 -107 -3q-2 3 -2 13.5t2 12.5q18 3 30 6q18 5 19 34q2 26 2 105t-5 105q-8 36 -30 51q-18 15 -48 15q-31 0 -59 -20q-9 -7 -9 -22q0 -31 0.5 -118.5t1.5 -112.5q1 -20 6 -27t16 -10q10 -3 32 -6q1 -2 1 -12.5t-2 -13.5q-93 3 -111 3q-47 0 -104 -3q-2 3 -2 12.5
t2 13.5zM286 597q7 3 41.5 5.5t42.5 0.5q1 -1 2.5 -5t0.5 -6q-7 -14 -56.5 -74.5t-67.5 -80.5q-3 -1 -11.5 4t-9.5 8q40 107 58 148z" />
    <glyph glyph-name="uni0145" unicode="&#x145;" horiz-adv-x="697" 
d="M12 583q-1 2 -1 13t2 13q13 0 59.5 -1.5t74.5 -1.5q49 0 59 1q6 -15 36 -53q205 -264 319 -400h1q1 1 2 1q0 322 -4 363q-3 26 -11.5 37.5t-30.5 18.5q-29 6 -61 10q-2 3 -1.5 12.5t2.5 12.5q10 0 53 -1.5t75 -1.5q25 0 63.5 1.5t42.5 1.5q2 -2 2 -12.5t-2 -12.5
q-30 -6 -40 -9q-20 -7 -28.5 -20t-10.5 -39q-6 -84 -8 -385q0 -68 2 -136q-10 1 -40.5 0.5t-43.5 -1.5q-22 32 -98.5 133t-165.5 216.5t-101 131.5q-2 1 -3.5 0.5t-1.5 -1.5q-2 -80 -1 -213t3 -167q1 -30 11.5 -43.5t31.5 -18.5q12 -3 56 -9q2 -2 2 -12.5t-3 -13.5
q-11 0 -52 1.5t-68 1.5q-33 0 -72.5 -1.5t-47.5 -1.5q-2 2 -2 13t2 13q39 5 54 10q16 5 24 17.5t11 40.5q8 82 10 414q0 46 -34 61q-24 13 -66 17zM367 -27q16 0 33 -19.5t17 -50.5q0 -46 -33.5 -77.5t-86.5 -45.5q-2 1 -6 10t-3 12q38 17 52 32.5t14 36.5q0 36 -55 53
q-4 4 0 16q10 10 30.5 21.5t37.5 11.5z" />
    <glyph glyph-name="uni0146" unicode="&#x146;" horiz-adv-x="509" 
d="M21 23q14 1 31 6q18 6 21 39q2 62 2 154q0 67 -2 87q-5 23 -47 37q0 18 4 22q91 10 149 42q4 -4 4 -7q-2 -28 -2 -57q0 -2 1.5 -3t3.5 1q78 62 130 62q64 0 98 -53q25 -39 25 -116q0 -165 1 -182q0 -12 8 -17q22 -13 47 -15q1 -4 0 -13.5t-4 -12.5q-2 0 -34 1.5t-69 1.5
q-17 0 -107 -3q-2 3 -2 13.5t2 12.5q18 3 30 6q18 5 19 34q2 26 2 105t-5 105q-8 36 -30 51q-18 15 -48 15q-31 0 -59 -20q-9 -7 -9 -22q0 -31 0.5 -118.5t1.5 -112.5q1 -20 6 -27t16 -10q10 -3 32 -6q1 -2 1 -12.5t-2 -13.5q-93 3 -111 3q-47 0 -104 -3q-2 3 -2 12.5
t2 13.5zM266 -36q16 0 33 -19.5t17 -50.5q0 -46 -33.5 -77.5t-86.5 -45.5q-2 1 -6 10t-3 12q38 17 52 32.5t14 36.5q0 36 -55 53q-4 4 0 16q10 10 30.5 21.5t37.5 11.5z" />
    <glyph glyph-name="uni0147" unicode="&#x147;" horiz-adv-x="697" 
d="M12 583q-1 2 -1 13t2 13q13 0 59.5 -1.5t74.5 -1.5q49 0 59 1q6 -15 36 -53q205 -264 319 -400h1q1 1 2 1q0 322 -4 363q-3 26 -11.5 37.5t-30.5 18.5q-29 6 -61 10q-2 3 -1.5 12.5t2.5 12.5q10 0 53 -1.5t75 -1.5q25 0 63.5 1.5t42.5 1.5q2 -2 2 -12.5t-2 -12.5
q-30 -6 -40 -9q-20 -7 -28.5 -20t-10.5 -39q-6 -84 -8 -385q0 -68 2 -136q-10 1 -40.5 0.5t-43.5 -1.5q-22 32 -98.5 133t-165.5 216.5t-101 131.5q-2 1 -3.5 0.5t-1.5 -1.5q-2 -80 -1 -213t3 -167q1 -30 11.5 -43.5t31.5 -18.5q12 -3 56 -9q2 -2 2 -12.5t-3 -13.5
q-11 0 -52 1.5t-68 1.5q-33 0 -72.5 -1.5t-47.5 -1.5q-2 2 -2 13t2 13q39 5 54 10q16 5 24 17.5t11 40.5q8 82 10 414q0 46 -34 61q-24 13 -66 17zM366 640q-3 -5 -16 -5q-9 10 -61 53t-72 57q0 3 5.5 11.5t7.5 8.5q4 0 58 -23t68 -30q4 -2 9 0q15 9 63.5 31t52.5 22
q3 0 7.5 -8t3.5 -12q-110 -88 -126 -105z" />
    <glyph glyph-name="uni0148" unicode="&#x148;" horiz-adv-x="509" 
d="M21 23q14 1 31 6q18 6 21 39q2 62 2 154q0 67 -2 87q-5 23 -47 37q0 18 4 22q91 10 149 42q4 -4 4 -7q-2 -28 -2 -57q0 -2 1.5 -3t3.5 1q78 62 130 62q64 0 98 -53q25 -39 25 -116q0 -165 1 -182q0 -12 8 -17q22 -13 47 -15q1 -4 0 -13.5t-4 -12.5q-2 0 -34 1.5t-69 1.5
q-17 0 -107 -3q-2 3 -2 13.5t2 12.5q18 3 30 6q18 5 19 34q2 26 2 105t-5 105q-8 36 -30 51q-18 15 -48 15q-31 0 -59 -20q-9 -7 -9 -22q0 -31 0.5 -118.5t1.5 -112.5q1 -20 6 -27t16 -10q10 -3 32 -6q1 -2 1 -12.5t-2 -13.5q-93 3 -111 3q-47 0 -104 -3q-2 3 -2 12.5
t2 13.5zM263 518q42 73 58 84q6 4 19 7t18 2q3 0 3 -6q-16 -24 -48 -78.5t-42 -78.5q-1 -2 -13.5 -6t-15.5 -4q-17 38 -46.5 89t-43.5 70q2 4 19 9.5t24 5.5q6 -2 28 -35t35 -59q2 -2 5 0z" />
    <glyph glyph-name="uni0149" unicode="&#x149;" horiz-adv-x="509" 
d="M21 23q14 1 31 6q18 6 21 39q2 62 2 154q0 67 -2 87q-5 23 -47 37q0 18 4 22q91 10 149 42q4 -4 4 -7q-2 -28 -2 -57q0 -2 1.5 -3t3.5 1q78 62 130 62q64 0 98 -53q25 -39 25 -116q0 -165 1 -182q0 -12 8 -17q22 -13 47 -15q1 -4 0 -13.5t-4 -12.5q-2 0 -34 1.5t-69 1.5
q-17 0 -107 -3q-2 3 -2 13.5t2 12.5q18 3 30 6q18 5 19 34q2 26 2 105t-5 105q-8 36 -30 51q-18 15 -48 15q-31 0 -59 -20q-9 -7 -9 -22q0 -31 0.5 -118.5t1.5 -112.5q1 -20 6 -27t16 -10q10 -3 32 -6q1 -2 1 -12.5t-2 -13.5q-93 3 -111 3q-47 0 -104 -3q-2 3 -2 12.5
t2 13.5zM119 611q20 0 37 -19t17 -51q0 -37 -29 -64t-76 -38q-9 6 -7 20q33 14 45 27t12 31q0 32 -58 45q-4 8 0 14q8 11 27.5 23t31.5 12z" />
    <glyph glyph-name="Eng" unicode="&#x14a;" horiz-adv-x="697" 
d="M13 23q40 6 53 10q31 9 36 58q8 82 10 416q0 44 -34 59q-24 13 -66 17q-1 2 -1 13t2 13q15 0 64.5 -1.5t74.5 -1.5q44 0 54 1q7 -17 36 -54q104 -134 319 -391h2l1 1q2 291 -5 356q-2 25 -10.5 36.5t-30.5 18.5q-29 6 -60 10q-2 2 -2 12.5t2 12.5q14 0 56.5 -1.5
t69.5 -1.5q19 0 60 1.5t48 1.5q2 -2 2 -12.5t-2 -12.5q-30 -6 -40 -9q-20 -7 -28.5 -19.5t-10.5 -38.5q-6 -84 -8 -370v-101q0 -272 -135 -272q-36 0 -48 19q-5 7 -7 31.5t2 38.5q0 1 3 3t4 2q28 -15 67 -15q64 0 64 85q0 24 -23 56q-20 29 -100 131.5t-169.5 215.5
t-105.5 134q-1 2 -2.5 1.5t-1.5 -2.5q-2 -78 -1.5 -212.5t2.5 -167.5q2 -30 12 -43.5t31 -18.5q18 -4 56 -9q2 -2 1.5 -12.5t-2.5 -13.5q-12 0 -51.5 1.5t-65.5 1.5q-32 0 -72.5 -1.5t-49.5 -1.5q-2 2 -2 13t2 13z" />
    <glyph glyph-name="eng" unicode="&#x14b;" horiz-adv-x="502" 
d="M20 23q16 2 32 6q18 6 21 39q2 62 2 154q0 67 -2 87q-5 23 -47 38q0 15 4 21q95 12 149 42l4 -7q-2 -28 -2 -57q0 -2 1.5 -3t3.5 1q76 62 129 62q64 0 98 -52q26 -41 26 -119q0 -142 -1 -185q-4 -91 -21.5 -144t-52.5 -99q-25 -33 -59.5 -54.5t-60.5 -21.5q-35 0 -49 16
q-2 9 2.5 35t9.5 38q59 -33 82 -33q21 0 29.5 22t10.5 81q2 50 2 160q3 150 -5 215q-7 42 -31 59q-19 15 -48 15q-30 0 -56 -19q-10 -7 -10 -25q0 -23 0.5 -73.5t1 -92t1.5 -63.5q1 -20 5.5 -27t15.5 -10t33 -6q2 -3 1 -13t-3 -13q-93 3 -111 3q-36 0 -105 -3q-2 3 -2 12.5
t2 13.5z" />
    <glyph glyph-name="uni014C" unicode="&#x14c;" horiz-adv-x="742" 
d="M368 -18q-148 0 -234 91q-84 91 -84 232q0 125 70 202q43 54 111 85.5t148 31.5q148 0 230.5 -89t82.5 -222q0 -123 -60 -203q-45 -63 -114.5 -95.5t-149.5 -32.5zM401 19q53 0 90 35q70 66 70 225q0 83 -24.5 156.5t-73.5 113.5q-48 40 -111 40q-46 0 -83 -25
q-87 -60 -87 -229q0 -81 26.5 -158t80.5 -120q47 -38 112 -38zM266 736q20 -2 56 -2h174q0 -10 -7.5 -30.5t-10.5 -21.5q-16 -3 -192 -3l-37 1q1 8 8 30.5t9 25.5z" />
    <glyph glyph-name="uni014D" unicode="&#x14d;" horiz-adv-x="496" 
d="M257 406q94 0 148.5 -57t54.5 -146q0 -122 -92 -179q-54 -36 -123 -36q-103 0 -156 61t-53 151q0 109 88 167q58 39 133 39zM231 373q-21 0 -35 -11q-43 -32 -43 -135q0 -96 31 -151t80 -55q27 0 42 15q36 33 36 137q0 89 -29.5 144.5t-81.5 55.5zM152 549q14 -2 46 -2
h69h66h26q0 -10 -6 -31.5t-9 -22.5q-13 -3 -175 -3q-27 0 -33 2q1 8 7.5 31t8.5 26z" />
    <glyph glyph-name="uni014E" unicode="&#x14e;" horiz-adv-x="742" 
d="M368 -18q-148 0 -234 91q-84 91 -84 232q0 125 70 202q43 54 111 85.5t148 31.5q148 0 230.5 -89t82.5 -222q0 -123 -60 -203q-45 -63 -114.5 -95.5t-149.5 -32.5zM401 19q53 0 90 35q70 66 70 225q0 83 -24.5 156.5t-73.5 113.5q-48 40 -111 40q-46 0 -83 -25
q-87 -60 -87 -229q0 -81 26.5 -158t80.5 -120q47 -38 112 -38zM379 717q52 0 89 46q1 2 11 7t12 5q6 0 6 -4q-15 -45 -54 -76t-91 -31q-46 0 -76 21.5t-30 52.5q0 6 9.5 18.5t17.5 18.5q6 4 11 -1q11 -29 33 -43t62 -14z" />
    <glyph glyph-name="uni014F" unicode="&#x14f;" horiz-adv-x="496" 
d="M257 406q94 0 148.5 -57t54.5 -146q0 -122 -92 -179q-54 -36 -123 -36q-103 0 -156 61t-53 151q0 109 88 167q58 39 133 39zM231 373q-21 0 -35 -11q-43 -32 -43 -135q0 -96 31 -151t80 -55q27 0 42 15q36 33 36 137q0 89 -29.5 144.5t-81.5 55.5zM257 516q51 0 83 51
q2 3 10.5 8.5t10.5 5.5q6 0 6 -5q-11 -49 -47 -82.5t-87 -33.5q-41 0 -70 22t-29 57q0 8 11.5 21t23.5 21q2 1 5.5 0.5t4.5 -1.5q12 -64 78 -64z" />
    <glyph glyph-name="uni0150" unicode="&#x150;" horiz-adv-x="742" 
d="M368 -18q-148 0 -234 91q-84 91 -84 232q0 125 70 202q43 54 111 85.5t148 31.5q148 0 230.5 -89t82.5 -222q0 -123 -60 -203q-45 -63 -114.5 -95.5t-149.5 -32.5zM401 19q53 0 90 35q70 66 70 225q0 83 -24.5 156.5t-73.5 113.5q-48 40 -111 40q-46 0 -83 -25
q-87 -60 -87 -229q0 -81 26.5 -158t80.5 -120q47 -38 112 -38zM312 770q8 4 37.5 7.5t39.5 2.5q6 -3 3 -10q-4 -10 -36.5 -54t-47.5 -62q-2 0 -11.5 3.5t-10.5 5.5q14 74 26 107zM444 783q9 4 39 7t40 1q5 -3 3 -10q-6 -13 -41 -61t-48 -62q-3 -1 -12.5 3t-11.5 6
q22 92 31 116z" />
    <glyph glyph-name="uni0151" unicode="&#x151;" horiz-adv-x="496" 
d="M257 406q94 0 148.5 -57t54.5 -146q0 -122 -92 -179q-54 -36 -123 -36q-103 0 -156 61t-53 151q0 109 88 167q58 39 133 39zM231 373q-21 0 -35 -11q-43 -32 -43 -135q0 -96 31 -151t80 -55q27 0 42 15q36 33 36 137q0 89 -29.5 144.5t-81.5 55.5zM202 601q7 2 32.5 4
t33.5 0q1 -1 2 -5t0 -5q-27 -52 -91 -151q-3 -1 -11.5 2t-9.5 6q18 62 44 149zM328 611q10 3 33 4t33 -2q1 -1 1 -8q-54 -101 -92 -155q-3 -1 -11.5 2t-9.5 6q8 23 25 82.5t21 70.5z" />
    <glyph glyph-name="OE" unicode="&#x152;" horiz-adv-x="986" 
d="M880 -5q-335 5 -372 5q-9 0 -34 -5q-52 -13 -104 -13q-149 0 -235 91q-85 91 -85 232q0 123 69 203q44 54 112.5 85t148.5 31q40 0 87 -9q26 -6 64 -9h266q94 0 118 5q3 -3 3 -4q-8 -29 -15 -145q-3 -2 -14 -3t-14 1q-6 44 -19 74q-8 16 -17 22.5t-28 8.5q-18 2 -116.5 2
t-114.5 -1q-2 0 -3 -2t0 -3q104 -76 112 -226q0 -6 5 -6q78 0 109 2q28 1 38 36q6 19 9 38q3 2 15 1.5t14 -3.5q0 -1 -2.5 -38.5t-2.5 -56.5q0 -42 3 -96q-4 -3 -15 -3.5t-14 2.5l-9 39q-9 29 -38 33q-60 3 -109 1q-5 0 -5 -5q-5 -139 -108 -225q-3 -3 -2 -6t5 -4
q77 -6 228 -6q34 0 51 6t31 24q31 39 53 95q4 1 14.5 -2.5t12.5 -7.5q-16 -82 -37 -132q-6 -17 -15.5 -21.5t-39.5 -4.5zM402 19q52 0 87 33q36 33 54 95t18 133q0 84 -24 157t-75 113q-46 39 -111 39q-47 0 -80 -24q-90 -62 -90 -230q0 -80 27.5 -158t81.5 -121
q48 -37 112 -37z" />
    <glyph glyph-name="oe" unicode="&#x153;" horiz-adv-x="735" 
d="M231 373q-23 0 -36 -12q-43 -31 -43 -134q0 -96 32.5 -150.5t81.5 -54.5q26 0 43 14q37 34 37 138q0 89 -30.5 144t-84.5 55zM400 46q-2 2 -4 0q-66 -58 -151 -58q-103 0 -156 60.5t-53 151.5q0 109 87 166q62 40 134 40q85 -1 143 -57q3 -4 8 1q67 57 138 56
q45 0 78 -23.5t45.5 -47.5t16.5 -45q4 -11 16 -14q-4 -18 -6 -20q-13 -4 -237 -30q-6 0 -6 -10q2 -70 40 -110q38 -43 101 -43t112 42q2 -2 3.5 -12.5t0.5 -14.5q-33 -40 -83 -64.5t-96 -24.5q-79 0 -131 57zM517 374q-28 0 -46.5 -31.5t-19.5 -80.5q0 -6 5 -6
q118 13 128 15q5 3 5 10q-3 34 -22.5 63.5t-49.5 29.5z" />
    <glyph glyph-name="uni0154" unicode="&#x154;" horiz-adv-x="610" 
d="M28 584q-3 3 -2 13t3 12q11 0 59.5 -1.5t66.5 -1.5q32 0 89.5 1t88.5 1q87 0 133.5 -41t46.5 -110q0 -107 -116 -153q-1 -1 -1.5 -3.5t0.5 -3.5q22 -41 75.5 -118.5t87.5 -110.5q28 -27 43.5 -34t53.5 -12q1 -3 -1 -13.5t-4 -11.5q-38 -5 -96.5 -1t-85.5 17
q-28 12 -48 39q-17 20 -40.5 56.5t-51 82.5t-37.5 61q-11 19 -28 19h-37q-4 0 -4 -6q0 -140 2 -184q1 -26 6.5 -35.5t22.5 -14.5q26 -5 51 -8q4 -2 3 -13t-4 -13q-5 0 -51.5 1.5t-86.5 1.5q-47 0 -91 -1.5t-45 -1.5q-2 2 -2.5 12.5t2.5 12.5l44 7q16 4 22.5 15.5t8.5 37.5
q2 58 2 233q0 170 -1 214q-3 40 -30 47q-21 5 -48 8zM259 575q-15 0 -28 -4q-6 -4 -6 -15q-2 -22 -2 -241q0 -7 5 -7q88 -4 115 10q52 25 52 110q0 66 -35.5 106.5t-100.5 40.5zM352 787q9 0 32.5 -15.5t29.5 -24.5q1 -1 1 -5t-1 -6q-11 -10 -86.5 -51t-81.5 -41
q-2 0 -8.5 7.5t-6.5 11.5q18 21 64 69t57 55z" />
    <glyph glyph-name="uni0155" unicode="&#x155;" horiz-adv-x="347" 
d="M296 406q38 0 51 -26q1 -2 1 -9t-1 -10q-2 -11 -15 -38.5t-23 -39.5q-1 -3 -11 -3q-35 37 -72 37q-22 0 -38 -21q-7 -9 -7 -23q-1 -41 0 -116t2 -86q1 -19 5.5 -27.5t17.5 -12.5q17 -4 51 -8q2 -3 0.5 -13t-4.5 -13q-5 0 -50 1.5t-78 1.5q-21 0 -60 -1.5t-47 -1.5
q-2 3 -2 13t2 13q24 2 38 7q15 7 16 34q3 27 3 160q0 68 -2 83q-1 7 -3.5 12.5t-13.5 13.5t-31 15q-1 3 0.5 11.5t3.5 9.5q31 2 76.5 14.5t70.5 26.5q6 0 6 -5q-4 -60 -4 -79q0 -2 2 -2.5t3 0.5q34 39 58 59q27 23 55 23zM216 597q7 3 41.5 5.5t42.5 0.5q1 -1 2.5 -5t0.5 -6
q-7 -14 -56.5 -74.5t-67.5 -80.5q-3 -1 -11.5 4t-9.5 8q40 107 58 148z" />
    <glyph glyph-name="uni0156" unicode="&#x156;" horiz-adv-x="610" 
d="M28 584q-3 3 -2 13t3 12q11 0 59.5 -1.5t66.5 -1.5q32 0 89.5 1t88.5 1q87 0 133.5 -41t46.5 -110q0 -107 -116 -153q-1 -1 -1.5 -3.5t0.5 -3.5q22 -41 75.5 -118.5t87.5 -110.5q28 -27 43.5 -34t53.5 -12q1 -3 -1 -13.5t-4 -11.5q-38 -5 -96.5 -1t-85.5 17
q-28 12 -48 39q-17 20 -40.5 56.5t-51 82.5t-37.5 61q-11 19 -28 19h-37q-4 0 -4 -6q0 -140 2 -184q1 -26 6.5 -35.5t22.5 -14.5q26 -5 51 -8q4 -2 3 -13t-4 -13q-5 0 -51.5 1.5t-86.5 1.5q-47 0 -91 -1.5t-45 -1.5q-2 2 -2.5 12.5t2.5 12.5l44 7q16 4 22.5 15.5t8.5 37.5
q2 58 2 233q0 170 -1 214q-3 40 -30 47q-21 5 -48 8zM259 575q-15 0 -28 -4q-6 -4 -6 -15q-2 -22 -2 -241q0 -7 5 -7q88 -4 115 10q52 25 52 110q0 66 -35.5 106.5t-100.5 40.5zM349 -30q16 0 33 -19.5t17 -50.5q0 -46 -33.5 -77.5t-86.5 -45.5q-2 1 -6 10t-3 12
q38 17 52 32.5t14 36.5q0 36 -55 53q-4 4 0 16q10 10 30.5 21.5t37.5 11.5z" />
    <glyph glyph-name="uni0157" unicode="&#x157;" horiz-adv-x="347" 
d="M296 406q38 0 51 -26q1 -2 1 -9t-1 -10q-2 -11 -15 -38.5t-23 -39.5q-1 -3 -11 -3q-35 37 -72 37q-22 0 -38 -21q-7 -9 -7 -23q-1 -41 0 -116t2 -86q1 -19 5.5 -27.5t17.5 -12.5q17 -4 51 -8q2 -3 0.5 -13t-4.5 -13q-5 0 -50 1.5t-78 1.5q-21 0 -60 -1.5t-47 -1.5
q-2 3 -2 13t2 13q24 2 38 7q15 7 16 34q3 27 3 160q0 68 -2 83q-1 7 -3.5 12.5t-13.5 13.5t-31 15q-1 3 0.5 11.5t3.5 9.5q31 2 76.5 14.5t70.5 26.5q6 0 6 -5q-4 -60 -4 -79q0 -2 2 -2.5t3 0.5q34 39 58 59q27 23 55 23zM135 -31q16 0 33 -19.5t17 -50.5q0 -46 -33.5 -77.5
t-86.5 -45.5q-2 1 -6 10t-3 12q38 17 52 32.5t14 36.5q0 36 -55 53q-4 4 0 16q10 10 30.5 21.5t37.5 11.5z" />
    <glyph glyph-name="uni0158" unicode="&#x158;" horiz-adv-x="610" 
d="M28 584q-3 3 -2 13t3 12q11 0 59.5 -1.5t66.5 -1.5q32 0 89.5 1t88.5 1q87 0 133.5 -41t46.5 -110q0 -107 -116 -153q-1 -1 -1.5 -3.5t0.5 -3.5q22 -41 75.5 -118.5t87.5 -110.5q28 -27 43.5 -34t53.5 -12q1 -3 -1 -13.5t-4 -11.5q-38 -5 -96.5 -1t-85.5 17
q-28 12 -48 39q-17 20 -40.5 56.5t-51 82.5t-37.5 61q-11 19 -28 19h-37q-4 0 -4 -6q0 -140 2 -184q1 -26 6.5 -35.5t22.5 -14.5q26 -5 51 -8q4 -2 3 -13t-4 -13q-5 0 -51.5 1.5t-86.5 1.5q-47 0 -91 -1.5t-45 -1.5q-2 2 -2.5 12.5t2.5 12.5l44 7q16 4 22.5 15.5t8.5 37.5
q2 58 2 233q0 170 -1 214q-3 40 -30 47q-21 5 -48 8zM259 575q-15 0 -28 -4q-6 -4 -6 -15q-2 -22 -2 -241q0 -7 5 -7q88 -4 115 10q52 25 52 110q0 66 -35.5 106.5t-100.5 40.5zM281 648q-3 -5 -16 -5q-9 10 -61 53t-72 57q0 3 5.5 11.5t7.5 8.5q4 0 58 -23t68 -30q4 -2 9 0
q15 9 63.5 31t52.5 22q3 0 7.5 -8t3.5 -12q-110 -88 -126 -105z" />
    <glyph glyph-name="uni0159" unicode="&#x159;" horiz-adv-x="347" 
d="M296 406q38 0 51 -26q1 -2 1 -9t-1 -10q-2 -11 -15 -38.5t-23 -39.5q-1 -3 -11 -3q-35 37 -72 37q-22 0 -38 -21q-7 -9 -7 -23q-1 -41 0 -116t2 -86q1 -19 5.5 -27.5t17.5 -12.5q17 -4 51 -8q2 -3 0.5 -13t-4.5 -13q-5 0 -50 1.5t-78 1.5q-21 0 -60 -1.5t-47 -1.5
q-2 3 -2 13t2 13q24 2 38 7q15 7 16 34q3 27 3 160q0 68 -2 83q-1 7 -3.5 12.5t-13.5 13.5t-31 15q-1 3 0.5 11.5t3.5 9.5q31 2 76.5 14.5t70.5 26.5q6 0 6 -5q-4 -60 -4 -79q0 -2 2 -2.5t3 0.5q34 39 58 59q27 23 55 23zM185 518q42 73 58 84q6 4 19 7t18 2q3 0 3 -6
q-16 -24 -48 -78.5t-42 -78.5q-1 -2 -13.5 -6t-15.5 -4q-17 38 -46.5 89t-43.5 70q2 4 19 9.5t24 5.5q6 -2 28 -35t35 -59q2 -2 5 0z" />
    <glyph glyph-name="uni015A" unicode="&#x15a;" horiz-adv-x="475" 
d="M61 171q28 -94 79 -130q36 -26 94 -26q41 0 67 24t26 67q0 42 -24.5 72t-91.5 71q-79 50 -115 92.5t-36 107.5q0 81 58 128t145 47q42 0 93.5 -7.5t61.5 -8.5q-13 -71 -17 -141q-3 -3 -13.5 -3t-12.5 2q-11 85 -44 107q-30 21 -77 21q-43 0 -69 -27t-27 -66
q0 -60 63 -106q24 -16 64.5 -40.5t48.5 -29.5q102 -65 102 -156q0 -81 -61 -134t-167 -53q-44 0 -86 10t-60 21q-7 10 -16 64t-12 87q2 4 13 6.5t14 0.5zM327 798q9 0 32.5 -15.5t29.5 -24.5q1 -1 1 -5.5t-1 -5.5q-11 -10 -86.5 -51t-81.5 -41q-2 0 -8.5 7.5t-6.5 11.5
q18 21 64 69t57 55z" />
    <glyph glyph-name="uni015B" unicode="&#x15b;" horiz-adv-x="357" 
d="M309 396q-8 -38 -12 -111q-3 -2 -12.5 -2.5t-12.5 1.5q-10 66 -41 83q-20 11 -44 11t-40 -14t-16 -36q0 -24 17.5 -41.5t76.5 -45.5q58 -28 79.5 -55t21.5 -67q0 -59 -48.5 -95t-118.5 -36q-59 0 -115 20q-8 46 -11 118q2 2 11.5 5t13.5 2q18 -76 62 -102q23 -13 52 -13
q27 0 43.5 13.5t16.5 35.5q0 23 -15 38.5t-54 35.5q-68 35 -94 65.5t-26 74.5q0 54 40.5 89.5t114.5 35.5q20 0 67 -5q33 -5 44 -5zM204 597q7 3 41.5 5.5t42.5 0.5q1 -1 2.5 -5t0.5 -6q-7 -14 -56.5 -74.5t-67.5 -80.5q-3 -1 -11.5 4t-9.5 8q40 107 58 148z" />
    <glyph glyph-name="uni015C" unicode="&#x15c;" horiz-adv-x="475" 
d="M61 171q28 -94 79 -130q36 -26 94 -26q41 0 67 24t26 67q0 42 -24.5 72t-91.5 71q-79 50 -115 92.5t-36 107.5q0 81 58 128t145 47q42 0 93.5 -7.5t61.5 -8.5q-13 -71 -17 -141q-3 -3 -13.5 -3t-12.5 2q-11 85 -44 107q-30 21 -77 21q-43 0 -69 -27t-27 -66
q0 -60 63 -106q24 -16 64.5 -40.5t48.5 -29.5q102 -65 102 -156q0 -81 -61 -134t-167 -53q-44 0 -86 10t-60 21q-7 10 -16 64t-12 87q2 4 13 6.5t14 0.5zM241 777q8 5 17 5q9 -10 61 -53t72 -57q0 -4 -5.5 -12t-7.5 -8q-5 0 -59.5 22.5t-66.5 29.5q-5 3 -9 0
q-17 -9 -64.5 -30.5t-51.5 -21.5t-8.5 8t-3.5 12q23 17 69 55t57 50z" />
    <glyph glyph-name="uni015D" unicode="&#x15d;" horiz-adv-x="357" 
d="M309 396q-8 -38 -12 -111q-3 -2 -12.5 -2.5t-12.5 1.5q-10 66 -41 83q-20 11 -44 11t-40 -14t-16 -36q0 -24 17.5 -41.5t76.5 -45.5q58 -28 79.5 -55t21.5 -67q0 -59 -48.5 -95t-118.5 -36q-59 0 -115 20q-8 46 -11 118q2 2 11.5 5t13.5 2q18 -76 62 -102q23 -13 52 -13
q27 0 43.5 13.5t16.5 35.5q0 23 -15 38.5t-54 35.5q-68 35 -94 65.5t-26 74.5q0 54 40.5 89.5t114.5 35.5q20 0 67 -5q33 -5 44 -5zM178 534q-41 -71 -58 -83q-14 -9 -36 -9q-2 0 -3 2t0 4q65 100 90 156q1 3 13 7t16 4q16 -38 45.5 -89t43.5 -70q-2 -4 -19 -9.5t-24 -5.5
q-6 2 -28 35t-35 58q-3 2 -5 0z" />
    <glyph glyph-name="uni015E" unicode="&#x15e;" horiz-adv-x="475" 
d="M61 171q28 -95 78 -130q36 -26 94 -26q41 0 67.5 24t26.5 67q0 42 -24.5 72t-91.5 71q-79 50 -115 92.5t-36 107.5q0 81 58 128t145 47q49 0 97 -8q37 -6 58 -6q-13 -71 -17 -141q-3 -3 -13.5 -3.5t-12.5 1.5q-12 83 -43 106q-30 21 -78 21q-43 0 -69 -27t-27 -66
q0 -60 63 -106q23 -16 62 -39.5t51 -30.5q102 -65 102 -156q0 -73 -49 -123.5t-138 -61.5l-18 -26q40 -24 45 -28q24 -20 24 -50q0 -41 -40.5 -69.5t-69.5 -28.5q-37 0 -55 29q-1 8 3 21q32 -16 64 -16q39 0 39 32q0 38 -74 62q0 5 1 8q29 39 49 64q-39 -1 -84.5 8t-70.5 23
q-7 10 -16 64t-12 87q2 4 13 6.5t14 0.5z" />
    <glyph glyph-name="uni015F" unicode="&#x15f;" horiz-adv-x="357" 
d="M309 396q-8 -39 -12 -110q-3 -2 -12.5 -2.5t-12.5 1.5q-10 64 -39 82q-20 11 -45 11q-24 0 -40.5 -14t-16.5 -36q0 -24 17.5 -41.5t76.5 -45.5q58 -28 79.5 -55t21.5 -67q0 -54 -39 -87t-94 -41l-20 -27q30 -17 43 -29q22 -19 22 -46q0 -39 -38 -66t-67 -27q-35 0 -52 28
q-3 13 4 20q30 -15 60 -15q38 0 38 30q0 34 -70 58q-1 6 1 9q30 39 50 62q-64 0 -120 20q-8 47 -11 116q2 2 11.5 5t13.5 2q18 -74 60 -99q24 -14 54 -14q27 0 43.5 13.5t16.5 35.5q0 23 -15 38.5t-54 35.5q-68 35 -94 65.5t-26 74.5q0 54 40.5 89.5t114.5 35.5q20 0 67 -5
q33 -5 44 -5z" />
    <glyph glyph-name="Scaron" unicode="&#x160;" horiz-adv-x="475" 
d="M61 171q28 -94 79 -130q36 -26 94 -26q41 0 67 24t26 67q0 42 -24.5 72t-91.5 71q-79 50 -115 92.5t-36 107.5q0 81 58 128t145 47q42 0 93.5 -7.5t61.5 -8.5q-13 -71 -17 -141q-3 -3 -13.5 -3t-12.5 2q-11 85 -44 107q-30 21 -77 21q-43 0 -69 -27t-27 -66
q0 -60 63 -106q24 -16 64.5 -40.5t48.5 -29.5q102 -65 102 -156q0 -81 -61 -134t-167 -53q-44 0 -86 10t-60 21q-7 10 -16 64t-12 87q2 4 13 6.5t14 0.5zM266 659q-3 -5 -16 -5q-9 10 -61 53t-72 57q0 3 5.5 11.5t7.5 8.5q4 0 58 -23t68 -30q4 -2 9 0q15 9 63.5 31t52.5 22
q3 0 7.5 -8t3.5 -12q-110 -88 -126 -105z" />
    <glyph glyph-name="scaron" unicode="&#x161;" horiz-adv-x="357" 
d="M309 396q-8 -38 -12 -111q-3 -2 -12.5 -2.5t-12.5 1.5q-10 66 -41 83q-20 11 -44 11t-40 -14t-16 -36q0 -24 17.5 -41.5t76.5 -45.5q58 -28 79.5 -55t21.5 -67q0 -59 -48.5 -95t-118.5 -36q-59 0 -115 20q-8 46 -11 118q2 2 11.5 5t13.5 2q18 -76 62 -102q23 -13 52 -13
q27 0 43.5 13.5t16.5 35.5q0 23 -15 38.5t-54 35.5q-68 35 -94 65.5t-26 74.5q0 54 40.5 89.5t114.5 35.5q20 0 67 -5q33 -5 44 -5zM194 518q42 73 58 84q6 4 19 7t18 2q3 0 3 -6q-16 -24 -48 -78.5t-42 -78.5q-1 -2 -13.5 -6t-15.5 -4q-17 38 -46.5 89t-43.5 70q2 4 19 9.5
t24 5.5q6 -2 28 -35t35 -59q3 -2 5 0z" />
    <glyph glyph-name="uni0162" unicode="&#x162;" horiz-adv-x="627" 
d="M458 22q2 -2 1.5 -13t-3.5 -12q-15 0 -65 1.5t-82 1.5q-49 0 -101.5 -1.5t-60.5 -1.5q-3 3 -2.5 13t2.5 12q45 4 64 9q20 4 27 18t9 49q3 86 3 460q0 7 -6 7q-13 1 -52.5 1t-58.5 -1q-30 -3 -47 -32q-19 -33 -38 -87q-2 -2 -14 0.5t-13 6.5q13 68 18 161q0 2 3.5 4t4.5 1
q35 -13 86 -13h361q64 0 102 13q4 -2 6 -6q-13 -45 -23 -166q-2 -2 -14 -2.5t-14 2.5q-7 58 -18 86q-12 28 -40 31q-22 1 -66.5 1.5t-54.5 -0.5q-5 -2 -5 -8q0 -411 3 -473q2 -25 8 -36t22 -16q15 -5 58 -10zM315 -35q16 0 33 -19.5t17 -50.5q0 -46 -33.5 -77.5t-86.5 -45.5
q-2 1 -6 10t-3 12q38 17 52 32.5t14 36.5q0 36 -55 53q-4 4 0 16q10 10 30.5 21.5t37.5 11.5z" />
    <glyph glyph-name="uni0163" unicode="&#x163;" horiz-adv-x="298" 
d="M280 342q-14 0 -48 0.5t-52 0.5q-4 0 -4 -6q0 -21 -0.5 -87t-0.5 -90q0 -52 5 -71q10 -37 51 -37q33 0 55 14q1 -2 0.5 -12.5t-1.5 -14.5q-39 -51 -110 -51q-68 0 -93 47q-10 18 -12 39.5t-2 73.5q0 27 0.5 96.5t0.5 88.5q0 9 -6 10t-48 4q0 19 9 33q31 5 41 9q4 4 4 7
v84q21 7 52 24t42 27q3 2 17 2q-4 -38 -4 -133q0 -8 5 -8q57 0 107 5q-7 -37 -8 -55zM175 -39q16 0 33 -19.5t17 -50.5q0 -46 -33.5 -77.5t-86.5 -45.5q-2 1 -6 10t-3 12q38 17 52 32.5t14 36.5q0 36 -55 53q-4 4 0 16q10 10 30.5 21.5t37.5 11.5z" />
    <glyph glyph-name="uni0164" unicode="&#x164;" horiz-adv-x="627" 
d="M458 22q2 -2 1.5 -13t-3.5 -12q-15 0 -65 1.5t-82 1.5q-49 0 -101.5 -1.5t-60.5 -1.5q-3 3 -2.5 13t2.5 12q45 4 64 9q20 4 27 18t9 49q3 86 3 460q0 7 -6 7q-13 1 -52.5 1t-58.5 -1q-30 -3 -47 -32q-19 -33 -38 -87q-2 -2 -14 0.5t-13 6.5q13 68 18 161q0 2 3.5 4t4.5 1
q35 -13 86 -13h361q64 0 102 13q4 -2 6 -6q-13 -45 -23 -166q-2 -2 -14 -2.5t-14 2.5q-7 58 -18 86q-12 28 -40 31q-22 1 -66.5 1.5t-54.5 -0.5q-5 -2 -5 -8q0 -411 3 -473q2 -25 8 -36t22 -16q15 -5 58 -10zM319 646q-3 -5 -16 -5q-9 10 -61 53t-72 57q0 3 5.5 11.5
t7.5 8.5q4 0 58 -23t68 -30q4 -2 9 0q15 9 63.5 31t52.5 22q3 0 7.5 -8t3.5 -12q-110 -88 -126 -105z" />
    <glyph glyph-name="uni0165" unicode="&#x165;" horiz-adv-x="298" 
d="M280 342q-14 0 -48 0.5t-52 0.5q-4 0 -4 -6q0 -21 -0.5 -87t-0.5 -90q0 -52 5 -71q10 -37 51 -37q33 0 55 14q1 -2 0.5 -12.5t-1.5 -14.5q-39 -51 -110 -51q-68 0 -93 47q-10 18 -12 39.5t-2 73.5q0 27 0.5 96.5t0.5 88.5q0 9 -6 10t-48 4q0 19 9 33q31 5 41 9q4 4 4 7
v84q21 7 52 24t42 27q3 2 17 2q-4 -38 -4 -133q0 -8 5 -8q57 0 107 5q-7 -37 -8 -55zM303 689q7 0 7 -13q1 -26 -6 -89t-14 -90q-2 -8 -12.5 -19t-17.5 -14q-2 -1 -4 1t-2 3q0 74 -13 174q0 5 2 8q7 8 29.5 23.5t30.5 15.5z" />
    <glyph glyph-name="Tbar" unicode="&#x166;" horiz-adv-x="627" 
d="M148 22q48 5 63 9q20 5 27 18t8 49q2 24 4 200q-26 0 -59.5 -0.5t-38.5 -0.5q0 26 7 33q1 0 33 -0.5t58 -0.5v227q0 2 -2.5 5.5t-4.5 3.5q-13 1 -52.5 1t-58.5 -1q-31 -3 -47 -34q-18 -29 -37 -86q-2 -2 -14 1t-13 6q13 68 18 162q0 2 4 4t5 1q36 -13 85 -13h361
q66 0 103 13q3 -2 5 -5q-13 -47 -23 -167q-2 -2 -14 -2.5t-14 1.5q-8 60 -19 89q-11 27 -37 29q-22 1 -67 1.5t-55 -0.5q-6 -4 -6 -10q0 -152 1 -226q25 0 49.5 0.5t39.5 0.5h18q2 -13 -4 -32h-103q0 -154 2 -214q2 -25 8 -36t21 -16q18 -5 59 -10q2 -2 1 -12.5t-3 -12.5
q-26 0 -73.5 1.5t-73.5 1.5q-24 0 -80 -2t-81 -1q-4 3 -4 13t4 12z" />
    <glyph glyph-name="tbar" unicode="&#x167;" horiz-adv-x="298" 
d="M280 342q-14 0 -48 0.5t-52 0.5q-4 0 -4 -6q0 -10 -0.5 -44.5t-0.5 -54.5q20 0 52.5 0.5t35.5 0.5q0 -18 -5 -33l-83 1v-47q0 -52 5 -71q10 -37 51 -37q33 0 55 14q1 -2 0.5 -12.5t-1.5 -14.5q-39 -51 -110 -51q-68 0 -93 47q-10 18 -12 39.5t-2 73.5v58h-48q0 27 7 32
h41q1 36 1 95q0 9 -6 10q-9 1 -48 4q0 19 9 33q31 5 41 9q4 4 4 7v84q21 7 52 24t42 27q3 2 17 2q-4 -38 -4 -133q0 -8 5 -8q57 0 107 5q-7 -37 -8 -55z" />
    <glyph glyph-name="uni0168" unicode="&#x168;" horiz-adv-x="686" 
d="M16 584q-2 2 -1.5 12t2.5 13q8 0 55.5 -1.5t81.5 -1.5q36 0 82 1.5t57 1.5q2 -3 2 -13t-2 -12l-43 -8q-17 -4 -24 -16t-9 -37q-3 -110 0 -259q2 -79 15 -120q30 -105 162 -105q66 0 109 36t50 131q11 131 2 302q-1 34 -10.5 48t-33.5 19q-11 3 -50 9q-2 2 -1.5 11.5
t2.5 13.5q10 0 48 -1.5t66 -1.5q34 0 68 1.5t41 1.5q2 -3 2 -13t-2 -12q-34 -7 -40 -9q-19 -5 -26.5 -19.5t-9.5 -52.5q-8 -251 -11 -281q-17 -240 -250 -240q-222 0 -245 180q-3 24 -5 71.5t-2.5 88.5t-0.5 107.5v94.5q-2 42 -31 51q-22 6 -48 9zM448 720q37 0 71 33
q2 2 4 -4q6 -12 4 -18q-12 -22 -45 -44t-61 -22q-21 0 -69 15q-25 9 -43 9q-27 0 -62 -30q-1 -1 -4 3.5t-4.5 10.5t-0.5 7q11 16 43 40t53 24t63 -13q33 -11 51 -11z" />
    </font>
</defs>
</svg>
