<?xml version="1.0" standalone="no"?>
<!DOCTYPE svg PUBLIC "-//W3C//DTD SVG 1.1//EN" "http://www.w3.org/Graphics/SVG/1.1/DTD/svg11.dtd" >
<svg>
<metadata>
Created by FontForge 20110222 at Fri Apr 25 07:45:48 2014
 By Orthosie Webhosting
(c) 2007 Adobe Systems Incorporated. All Rights Reserved.
</metadata>
<defs>
<font id="ArnoProBoldSmText" horiz-adv-x="560" >
  <font-face 
    font-family="ArnoProBoldSmText"
    font-weight="700"
    font-stretch="normal"
    units-per-em="1000"
    panose-1="2 2 8 2 5 5 6 2 4 3"
    ascent="675"
    descent="-325"
    x-height="407"
    cap-height="607"
    bbox="-145 -382.444 1578 888"
    underline-thickness="50"
    underline-position="-50"
    unicode-range="U+0020-FB06"
  />
<missing-glyph horiz-adv-x="495" 
d="M0 0v693h495v-693h-495zM248 391l168 253h-337zM277 347l169 -253v505zM79 50h337l-168 252zM50 599v-505l168 253z" />
    <glyph glyph-name="f_f" unicode="ff" horiz-adv-x="575" 
d="M17 35q23 3 43 9q17 5 17 33v260q0 7 -5 7l-51 3q0 17 10 37q24 5 43 16q4 2 6 10q9 119 114 188q65 43 127 43q77 0 118 -39q28 26 68.5 43t72.5 16q63 0 84 -31q4 -11 2 -22q-4 -14 -22 -38t-27 -29q-7 -2 -17 0q-46 62 -77 62q-23 0 -34 -28t-11 -102q0 -50 1 -62
q0 -2 2.5 -4.5t4.5 -2.5q59 1 98 3q-5 -17 -10 -64l-89 2q-6 0 -6 -7q1 -43 1 -133t2 -119q1 -34 27 -41q31 -7 52 -9q1 -6 -1 -23t-6 -17q-9 0 -62 2t-84 2q-32 0 -68 -2t-43 -2q-3 5 -3 20.5t3 19.5q29 6 35 8q17 6 17 33q1 79 1 261q0 6 -6 6l-131 1q-6 0 -6 -7
q0 -46 1 -137.5t1 -116.5q0 -36 25 -42q23 -5 34 -6q1 -5 -0.5 -21t-3.5 -19q-9 0 -46.5 2t-81.5 2q-36 0 -74.5 -2t-44.5 -2q-2 5 -2.5 19.5t2.5 19.5zM207 438v-27q2 -7 7 -7h132q4 1 4 7q3 54 24 102q-37 76 -102 76q-24 0 -39 -18q-26 -28 -26 -133z" />
    <glyph glyph-name="f_f_i" unicode="ffi" horiz-adv-x="826" 
d="M17 35q23 3 43 9q17 5 17 33v259q0 7 -5 7l-51 4q0 17 10 37q18 4 43 16q4 2 6 10q2 53 30.5 104t84.5 85q68 42 130 42q72 0 119 -42q28 26 72 44t89 18q52 0 87.5 -19.5t46.5 -47.5q6 -15 -1 -31q-17 -37 -55 -56q-20 -6 -34 2q-9 9 -34 43q-40 56 -73 56
q-34 0 -47.5 -40t-13.5 -121l1 -36q0 -7 7 -7h151q68 0 116 14q-2 -24 -2 -179q0 -107 1 -153q0 -36 21 -43q15 -4 36 -7q3 -5 1 -20t-6 -19q-11 0 -53.5 1.5t-69.5 1.5q-32 0 -67.5 -1.5t-42.5 -1.5q-2 4 -2 19.5t2 19.5q9 2 31 7q16 7 17 37q1 23 1 131q0 95 -1 112
q0 6 -4.5 13.5t-10.5 7.5h-120q-6 0 -6 -7q2 -219 3 -255q0 -35 26 -40l32 -6q2 -4 1.5 -18.5t-3.5 -21.5q-19 0 -59.5 2t-69.5 2q-16 0 -59.5 -2t-53.5 -2q-3 5 -3 20.5t3 19.5q22 5 35 9q18 6 18 31q0 39 0.5 129t0.5 133q0 6 -6 6l-133 1q-6 0 -6 -7q0 -46 1 -137.5
t1 -116.5q0 -36 25 -42q24 -5 32 -6q1 -5 -0.5 -21t-3.5 -19q-9 0 -45.5 2t-80.5 2q-36 0 -74.5 -2t-44.5 -2q-2 5 -2.5 19.5t2.5 19.5zM206 438l1 -27q0 -7 7 -7h135q4 1 4 7q3 55 24 103q-40 74 -106 74q-22 0 -37 -17q-28 -30 -28 -133z" />
    <glyph glyph-name="f_f_l" unicode="ffl" horiz-adv-x="824" 
d="M17 35q31 4 41 9q18 5 18 33q1 39 1 260q0 6 -6 6l-50 4q0 22 10 37q15 3 43 16q3 2 5 10q9 122 118 190q64 41 126 41q76 0 121 -42q28 26 70 44.5t80 17.5q53 0 92 -19q7 -4 20 0q8 2 44 18q2 -1 7 -7.5t5 -9.5q-6 -23 -8 -79q-1 -51 -1 -257q0 -211 1 -226
q1 -13 2.5 -19t6.5 -11t15 -8l35 -7q3 -5 1.5 -19t-5.5 -20q-7 0 -54.5 1.5t-74.5 1.5q-20 0 -56.5 -1.5t-50.5 -1.5q-2 5 -3 19.5t1 19.5q25 5 33 8q15 6 17 35q2 68 2 241q0 162 -2 200q-1 32 -14 51q-27 36 -65 36q-19 0 -32 -11t-19.5 -32.5t-9 -45.5t-2.5 -57
q0 -36 1 -50q0 -7 7 -7q53 0 91 2q-1 -4 -10 -64l-83 2q-6 0 -6 -7l3 -252q1 -22 6 -30.5t20 -12.5q16 -4 32 -6q1 -5 0 -21t-3 -19q-18 0 -58.5 2t-69.5 2q-15 0 -61 -2t-55 -2q-3 5 -3.5 20.5t3.5 19.5q34 7 39 9q18 6 18 34q1 79 1 259q0 6 -6 6h-133q-5 0 -5 -7
q-1 -50 0 -146.5t1 -106.5q1 -19 6 -28.5t19 -13.5q23 -5 34 -6q1 -5 -0.5 -21t-3.5 -19q-9 0 -46.5 2t-81.5 2q-36 0 -74 -2t-44 -2q-3 4 -3 19t3 20zM205 438l1 -27q2 -7 7 -7h135q5 2 5 7q3 57 24 103q-45 74 -106 74q-23 0 -37 -16q-29 -29 -29 -134z" />
    <glyph glyph-name="longs_t" unicode="&#x17f;t" horiz-adv-x="603" 
d="M17 34q36 7 43 10q17 5 17 33v256q0 7 -5 7l-49 3q0 24 10 39q7 2 42 18q5 3 5 7q0 128 107 207q26 19 64.5 33t72.5 14q69 0 109.5 -39.5t42.5 -92.5q1 -27 1 -118q0 -7 4 -7q54 0 112 4q-10 -44 -11 -71q-18 0 -52 0.5t-51 0.5q-1 0 -3 -2.5t-2 -3.5q0 -18 -0.5 -71
t-0.5 -78q0 -54 4 -75q3 -17 18 -28.5t37 -11.5q32 0 56 15q2 -5 1.5 -18.5t-2.5 -20.5q-41 -55 -124 -55q-80 0 -106 50q-8 13 -11 30t-3.5 29t-0.5 49q0 27 0.5 93.5t0.5 86.5q0 9 -6 11q-8 1 -27 2.5t-27 2.5q2 21 13 50q5 1 14 2.5t16 3t11 3.5q6 6 7 13q4 31 4 93
q0 58 -18 77q-25 25 -56 25q-36 0 -52.5 -44.5t-16.5 -143.5q0 -247 5 -340q1 -33 27 -38q31 -7 44 -8q1 -5 -0.5 -20t-3.5 -19q-9 0 -53 1.5t-88 1.5q-36 0 -74.5 -2t-44.5 -2q-2 5 -2.5 19.5t2.5 18.5z" />
    <glyph glyph-name="R_A" unicode="RA" horiz-adv-x="1273" 
d="M31 568q-4 5 -3 21t5 18q11 0 67 -1.5t77 -1.5q47 0 109.5 1.5t83.5 1.5q91 0 141.5 -43.5t50.5 -112.5q0 -104 -116 -151q-1 0 -1.5 -3t0.5 -5q15 -30 69 -104.5t88 -109.5q12 -12 31 -22t37 -9q25 -1 41 35q64 152 171 447q17 44 22 77q16 -2 53 -2q38 0 53 2
q1 -2 7.5 -26.5t10.5 -35.5q7 -18 67 -184.5t81 -219.5q26 -65 42.5 -80.5t73.5 -23.5q2 -4 0.5 -20t-5.5 -19q-5 0 -53 1.5t-96 1.5q-46 0 -94 -1.5t-62 -1.5q-2 5 -2.5 19.5t2.5 19.5q38 6 50 13q13 9 10 20q-13 55 -43 127q-5 7 -11 7h-21h-31.5h-27.5h-78q-7 0 -11 -10
q-35 -101 -34 -114q0 -27 27 -34q6 -1 15 -3t17.5 -3.5t18.5 -2.5q2 -4 0.5 -19t-3.5 -20q-4 0 -41 1.5t-96 1.5q-15 0 -79.5 -1.5t-84.5 -1.5q-79 -1 -126 60q-19 23 -39 54t-45.5 73t-33.5 54q-10 17 -29 17q-2 0 -13 0.5t-12 0.5q-5 0 -5 -7q0 -79 2 -157q1 -38 28 -46
q18 -5 55 -10q4 -1 3 -19.5t-5 -19.5q-7 0 -58.5 1.5t-93.5 1.5q-48 0 -98 -1.5t-55 -1.5q-3 3 -4 19.5t3 19.5q27 3 48 8q28 7 29 48q3 48 3 221q0 161 -2 203q-1 36 -28 42q-19 5 -52 10zM294 560q-19 0 -29 -5q-7 -7 -7 -15q-2 -25 -2 -224q0 -8 6 -8q85 -2 108 11
q47 24 47 103q0 62 -33.5 100t-89.5 38zM908 456q-11 -32 -35 -103t-26 -77q-2 -7 3 -9q11 -1 58 -1q55 0 64 1q3 0 3 5q-25 85 -63 184h-4z" />
    <glyph glyph-name="K_A" unicode="KA" horiz-adv-x="1279" 
d="M397 568q-2 7 -2 21t3 18q12 0 52 -1.5t73 -1.5q70 1 135 3q4 -4 3.5 -19.5t-4.5 -19.5q-48 -7 -72.5 -18t-52.5 -45q-19 -22 -67 -78.5t-66 -76.5v-6q31 -53 100 -133t119 -127q38 -32 63 -32q10 0 17.5 7t17.5 28q88 202 171 442q19 50 22 77q16 -2 54 -2q37 0 52 2
l19 -62q12 -33 69.5 -193t77.5 -211q26 -65 43 -80.5t73 -23.5q2 -4 0.5 -20t-4.5 -19q-6 0 -54 1.5t-95 1.5q-46 0 -94 -1.5t-62 -1.5q-2 5 -2.5 20t1.5 19q43 9 51 13q12 8 9 20q-11 57 -43 127q-2 7 -10 7h-80h-78q-7 0 -11 -10q-35 -101 -37 -114q-4 -29 24 -35
q21 -5 48 -8q2 -4 0.5 -19t-3.5 -20q-3 0 -41 2t-69 1q-7 0 -72.5 -2t-85.5 -2q-51 0 -81.5 11.5t-65.5 50.5q-71 80 -161 206q-7 10 -17 17q0 19 4 20q36 18 73 54.5t95 114.5q36 48 36 70q0 12 -17 18q-19 6 -58 10zM28 35l55 11q18 5 23 17t6 44q2 93 1 211
q-1 39 -1 108.5v85.5q-2 39 -23 44q-8 3 -57 12q-9 19 0 39q17 0 63 -1.5t89 -1.5q28 0 76 1.5t70 1.5q2 -5 2.5 -19t-2.5 -20q-30 -4 -45 -9q-25 -8 -26 -47q-1 -26 -1.5 -103t-0.5 -107q0 -166 2 -210q1 -35 29 -44q6 -2 58 -13q2 -4 -0.5 -19.5t-5.5 -18.5q-138 3 -157 3
q-51 0 -99 -1.5t-56 -1.5q-3 5 -3 19.5t3 18.5zM913 456q-11 -31 -32.5 -97.5t-27.5 -82.5q-2 -7 3 -9q11 -1 57 -1q56 0 64 1q3 0 3 5q-25 85 -63 184h-4z" />
    <glyph glyph-name="T_T" unicode="TT" horiz-adv-x="1105" 
d="M142 36q48 5 66 9q20 4 27.5 16.5t9.5 45.5q4 82 4 429q0 11 -8 11q-41 2 -91 0q-29 -1 -49 -36q-16 -30 -35 -86q-3 -3 -21.5 1t-21.5 10q17 90 22 174q0 2 4 5t6 2q38 -13 93 -13h808q78 0 118 12q6 -2 6 -9q-19 -80 -25 -178q-4 -3 -22 -4t-21 2q-8 56 -21 93
q-8 26 -37 28q-20 1 -53.5 1.5t-44.5 -0.5q-7 -3 -7 -11q0 -424 1 -444q2 -36 25 -45q11 -4 71 -13q4 -4 3 -19t-5 -20q-16 0 -72.5 1.5t-95.5 1.5q-52 0 -111 -1.5t-68 -1.5q-5 4 -5 19.5t5 19.5q48 5 66 9q20 4 27.5 16.5t9.5 45.5q4 82 4 431q0 11 -8 11h-295
q-7 -3 -7 -11q0 -424 1 -444q2 -36 25 -45q11 -4 71 -13q4 -4 3 -19t-5 -20q-16 0 -72.5 1.5t-95.5 1.5q-52 0 -111 -1.5t-68 -1.5q-4 4 -4 19.5t4 19.5z" />
    <glyph glyph-name="T_h" unicode="Th" horiz-adv-x="1064" 
d="M164 36q28 4 55 10q20 4 27.5 16t9.5 45q4 82 4 429q0 2 -3 6.5t-5 4.5q-14 1 -50 1t-53 -1q-32 -2 -50 -38q-20 -46 -32 -83q-4 -4 -22.5 0.5t-21.5 10.5q16 84 22 179q5 2 12 0q37 -12 92 -12h437q8 0 8 8v32q0 2 3.5 6t5.5 4q55 2 119 18q6 -3 6 -9v-20.5t-0.5 -50
t-0.5 -66.5v-158q0 -5 4 -3q78 53 128 53q63 0 98 -43t35 -124q0 -163 1 -182q0 -12 7 -16q17 -12 51 -17q2 -4 0 -20.5t-4 -18.5q-1 0 -41 1.5t-82 1.5q-69 0 -108 -3q-2 5 -2 20t2 19l26 6q10 4 13.5 12.5t4.5 30.5q5 151 -4 195q-5 27 -25.5 43t-50.5 16q-27 0 -46 -11
q-6 -2 -6 -11q0 -209 1 -225q0 -4 0.5 -10t0.5 -8.5t0.5 -7t1.5 -6.5t2 -5t3 -5t4.5 -3.5t6.5 -2.5q19 -6 31 -8q1 -4 1 -19t-1 -20q-14 0 -55 1.5t-68 1.5q-22 0 -60 -1.5t-54 -1.5q-2 5 -2 21t2 18q24 4 34 8q12 4 15 15t5 42q1 40 1 161q0 240 -2 269q-2 15 -17 17
q-19 1 -87.5 1.5t-78.5 -0.5q-7 -3 -7 -11q0 -424 1 -444q2 -35 25 -45q16 -6 62 -13q3 -4 2 -19t-4 -20q-29 0 -79 1.5t-80 1.5q-28 0 -83.5 -1.5t-84.5 -1.5q-4 5 -4 20t4 19z" />
    <glyph glyph-name="f_b" unicode="fb" horiz-adv-x="808" 
d="M19 36q30 6 40 9q17 6 17 34q2 79 2 253q0 7 -6 7l-49 3q0 24 10 39q28 8 41 18q5 5 5 7q6 140 119 214q27 19 62 30t60 11q47 0 90 -19q9 -4 22 0q8 2 44 18q2 -1 7 -7.5t5 -9.5q-7 -24 -8 -84v-177q2 -4 5 -3q86 39 126 39q67 0 112 -49q48 -52 48 -134
q0 -116 -90 -184q-28 -22 -87 -42.5t-96 -20.5q-95 0 -158 29q7 35 7 73q0 30 0.5 87t0.5 87q0 225 -1 253q0 38 -14 55q-29 35 -64 35q-27 0 -39 -18q-24 -27 -24 -127q0 -37 1 -51q0 -7 7 -7q51 0 89 2q-5 -15 -10 -68l-80 2q-6 0 -6 -7q0 -150 2 -248q1 -22 6 -30.5
t20 -13.5q9 -2 36 -5q1 -5 -0.5 -20.5t-2.5 -19.5q-19 0 -61 2t-71 2q-16 0 -61.5 -2t-55.5 -2q-2 5 -2.5 20.5t2.5 19.5zM522 345q-27 0 -36 -6q-6 -2 -6 -14q-3 -157 2 -212q2 -36 16 -47q23 -23 59 -23q31 0 52 28q28 35 28 110q0 74 -31 119t-84 45z" />
    <glyph glyph-name="f_f_b" unicode="ffb" horiz-adv-x="1082" 
d="M17 35q31 4 42 9q18 5 18 33v260q0 6 -5 6l-51 4q0 22 10 37q15 3 43 16q4 1 6 10q9 122 117 190q64 41 127 41q75 0 120 -42q29 26 71 44.5t80 17.5q48 0 91 -19q9 -3 20 0q10 3 45 18q2 -1 7 -7.5t5 -9.5q-6 -23 -8 -79q-1 -25 -1 -186q1 -4 5 -2q93 42 125 42
q68 0 113 -50q48 -51 48 -133q0 -118 -84 -183q-30 -23 -84.5 -43.5t-87.5 -20.5q-47 0 -99 14q-25 6 -63 -7q-2 -1 -6.5 3t-4.5 6q5 45 7 293q0 187 -1 225q-2 35 -15 51q-28 35 -64 35t-49.5 -39t-13.5 -108l1 -50q0 -7 7 -7q53 0 91 2q-5 -17 -10 -64l-83 2q-6 0 -6 -7
q2 -234 3 -252q0 -21 5.5 -30t19.5 -13q18 -4 33 -6q1 -5 0 -21t-3 -19q-19 0 -59 2t-69 2q-16 0 -61.5 -2t-55.5 -2q-2 5 -2.5 20.5t2.5 19.5q30 6 40 9q17 6 17 34q2 79 2 259q0 6 -6 6h-133q-6 0 -6 -7q0 -45 1 -136.5t1 -116.5q0 -36 25 -42q23 -5 34 -6q1 -5 -0.5 -21
t-3.5 -19q-9 0 -46.5 2t-81.5 2q-36 0 -74.5 -2t-44.5 -2q-2 5 -2.5 19.5t2.5 19.5zM798 344q-26 0 -38 -8q-6 -2 -6 -14q-2 -130 2 -212q0 -30 16 -42q26 -25 61 -25q28 0 50 27q28 37 28 111q0 76 -31 121q-29 42 -82 42zM206 438l1 -27q0 -7 7 -7h135q4 1 4 7
q3 52 24 103q-45 74 -105 74q-22 0 -38 -16q-28 -28 -28 -134z" />
    <glyph glyph-name="f_f_h" unicode="ffh" horiz-adv-x="1091" 
d="M17 35q31 4 42 9q18 5 18 33v260q0 6 -5 6l-51 4q0 22 10 37q15 3 43 16q4 1 6 10q10 123 116 191q64 40 128 40q75 0 120 -42q30 27 72.5 45t80.5 17q51 0 89 -19q9 -3 20 0q10 3 45 18q2 -1 7 -7.5t5 -9.5q-6 -23 -8 -79q-1 -25 -1 -196q0 -2 2 -3t3 0q76 53 127 53
q63 0 98.5 -43.5t35.5 -123.5v-182q0 -12 7 -16q17 -12 52 -17q3 -3 1.5 -19.5t-6.5 -19.5l-40 1q-41 2 -83 2q-67 0 -108 -3q-4 5 -4 20t4 19l26 6q10 4 13.5 12.5t4.5 30.5q5 151 -4 196q-5 26 -25.5 42t-49.5 16q-27 0 -47 -10q-6 -3 -6 -12q0 -209 1 -225q0 -4 0.5 -10
t0.5 -8.5t0.5 -7t1.5 -6.5t2 -5t3 -5t4.5 -3.5t6.5 -2.5q18 -6 33 -8q5 -4 4 -19t-6 -20q-12 0 -49.5 1.5t-72.5 1.5q-37 0 -73 -1.5t-41 -1.5q-5 5 -5 20.5t5 18.5q25 5 33 8q12 4 15.5 16t4.5 41q2 84 1 219q0 126 -2 202q-2 35 -15 51q-27 35 -63 35q-64 0 -64 -147
l1 -50q0 -7 7 -7q53 0 91 2q-5 -17 -10 -64l-83 2q-6 0 -6 -7q2 -234 3 -252q0 -21 5.5 -30t19.5 -13q18 -4 33 -6q1 -5 0 -21t-3 -19q-19 0 -59 2t-69 2q-16 0 -61.5 -2t-55.5 -2q-2 5 -2.5 20.5t2.5 19.5q30 6 40 9q17 6 17 34q2 79 2 259q0 6 -6 6h-133q-6 0 -6 -7
q0 -45 1 -136.5t1 -116.5q0 -36 25 -42q23 -5 34 -6q1 -5 -0.5 -21t-3.5 -19q-9 0 -46.5 2t-81.5 2q-36 0 -74.5 -2t-44.5 -2q-2 4 -2 19t2 20zM206 438q0 -23 1 -28q0 -6 6 -6h136q4 1 4 7q3 52 24 103q-16 33 -43.5 53.5t-61.5 20.5q-23 0 -38 -17q-28 -28 -28 -133z" />
    <glyph glyph-name="f_f_j" unicode="ffj" horiz-adv-x="825" 
d="M17 35q26 4 42 9q17 5 17 33q1 39 1 259q0 7 -6 7l-50 4q0 22 10 37q15 3 43 16q3 2 5 10q2 52 29.5 101t82.5 85q66 45 133 45q80 0 120 -42q29 26 72 44t88 18q52 0 87.5 -19.5t46.5 -47.5q6 -14 0 -31q-16 -36 -55 -56q-22 -6 -34 2q-8 7 -34 43q-21 29 -37.5 42.5
t-36.5 13.5q-61 0 -61 -161l1 -36q0 -7 7 -7h148q54 0 121 10q-1 -103 -1 -302q-2 -92 -11 -133q-20 -85 -70 -143t-90 -76q-26 1 -41 19q-4 8 1 16q46 23 61 61.5t15 126.5v40q0 221 -4 300q0 6 -4.5 13.5t-10.5 7.5h-115q-6 0 -6 -7q0 -175 2 -255q0 -33 26 -40
q6 -2 18 -3t22 -3q1 -5 0 -21t-3 -19q-8 0 -51 2t-85 2q-27 0 -66 -2t-47 -2q-2 5 -2.5 20.5t2.5 19.5q20 4 35 9q18 6 18 31q1 39 1 262q0 6 -6 6l-133 1q-6 0 -6 -7q0 -46 1 -137.5t1 -116.5q1 -19 6 -28.5t19 -13.5q24 -5 33 -6q1 -5 -0.5 -21t-3.5 -19q-9 0 -46 2t-81 2
q-36 0 -74 -2t-44 -2q-3 4 -3 19t3 20zM205 438l1 -27q2 -7 7 -7h135q5 2 5 7q3 57 24 103q-44 75 -105 75q-23 0 -39 -18q-28 -28 -28 -133z" />
    <glyph glyph-name="f_f_k" unicode="ffk" horiz-adv-x="1059" 
d="M17 35q31 4 42 9q18 5 18 33v260q0 6 -5 6l-51 4q0 22 10 37q15 3 43 16q4 1 6 10q9 122 117 190q64 41 127 41q75 0 120 -42q29 26 71.5 44.5t80.5 17.5q47 0 90 -19q9 -3 20 0q10 3 45 18q2 -1 7 -7.5t5 -9.5q-6 -23 -8 -79q-1 -22 -1 -84t-0.5 -141.5t-0.5 -118.5
q18 3 44 22q27 22 52.5 54t25.5 43q0 13 -16 18q-6 1 -17 3t-19.5 3.5t-9.5 1.5q-2 5 -0.5 20.5t5.5 18.5q129 -2 207 7q3 -3 3.5 -19t-3.5 -21q-53 -10 -79 -36q-66 -66 -81 -83v-6q14 -27 68.5 -97t80.5 -92q12 -11 23 -15t41 -6q4 -5 1.5 -20t-6.5 -19q-30 -5 -128 -5
q-39 1 -62 22q-30 30 -102 143q-19 28 -28 31v-103q1 -22 6.5 -30t19.5 -12q16 -4 34 -7q3 -5 0.5 -20.5t-6.5 -18.5q-8 0 -46.5 1.5t-74.5 1.5q-35 0 -71 -1.5t-45 -1.5q-4 4 -4 19.5t4 19.5q15 2 31 7t19 38q2 27 2 174v266q-2 36 -15 51q-27 35 -63 35q-64 0 -64 -146
q0 -36 1 -50q0 -7 7 -7q53 0 91 2q-5 -17 -10 -64l-83 2q-6 0 -6 -7q2 -234 3 -252q0 -21 5.5 -30t19.5 -13q18 -4 33 -6q1 -5 0 -21t-3 -19q-19 0 -59 2t-69 2q-16 0 -61.5 -2t-55.5 -2q-2 5 -2.5 20.5t2.5 19.5q30 6 40 9q17 6 17 34q2 79 2 259q0 6 -6 6h-133q-6 0 -6 -7
q0 -45 1 -136.5t1 -116.5q0 -36 25 -42q23 -5 34 -6q1 -5 -0.5 -21t-3.5 -19q-9 0 -46.5 2t-81.5 2q-36 0 -74.5 -2t-44.5 -2q-2 5 -2.5 19.5t2.5 19.5zM206 438l1 -27q0 -7 7 -7h135q4 1 4 7q4 55 24 103q-40 74 -105 74q-22 0 -38 -16q-28 -28 -28 -134z" />
    <glyph glyph-name="f_f_t" unicode="fft" horiz-adv-x="886" 
d="M17 35q26 4 42 9q17 5 17 33q1 39 1 259q0 7 -6 7l-51 4q0 21 11 37q15 3 43 16q4 3 4 7q6 129 109 197q53 36 108 36q57 0 78 -27q4 -12 2 -21q-3 -15 -19 -37.5t-28 -29.5q-9 -5 -19 1q-44 60 -69 60q-13 0 -21 -12q-15 -20 -15 -108q0 -27 2 -55q0 -2 2.5 -4.5
t4.5 -2.5h142q4 1 4 7q8 142 114 211q57 39 108 39q58 0 80 -30v-21q-14 -36 -45 -67h-17q-48 59 -77 59q-16 0 -21 -11q-16 -18 -16 -116q0 -36 2 -64q0 -7 7 -7h127q6 0 6 8v17.5t0.5 34t0.5 29.5q22 7 60.5 25t50.5 28q24 3 26 3q-4 -33 -4 -138q0 -7 4 -7q54 0 112 4
q-10 -45 -11 -67q-18 0 -52 0.5t-51 0.5q-1 0 -3 -2.5t-2 -3.5q0 -18 -0.5 -73t-0.5 -80q0 -54 4 -75q3 -17 18 -28.5t37 -11.5q32 0 56 15q2 -5 1.5 -18.5t-2.5 -20.5q-41 -55 -124 -55q-79 0 -105 50q-11 19 -13.5 39.5t-2.5 68.5q0 21 0.5 90.5t0.5 95.5q0 9 -6 11h-128
q-6 0 -6 -7q0 -173 3 -251q3 -35 28 -41q31 -7 51 -9q1 -7 -0.5 -23.5t-5.5 -16.5q-9 0 -62 2t-84 2q-33 0 -71 -2t-45 -2q-3 5 -3 20.5t3 19.5q38 8 39 8q18 6 18 33v79v99v83q0 6 -6 6h-140q-6 0 -6 -7q0 -45 1 -136.5t1 -116.5q1 -19 6 -28.5t19 -13.5q23 -5 34 -6
q1 -5 -0.5 -21t-3.5 -19q-9 0 -46.5 2t-81.5 2q-36 0 -74 -2t-44 -2q-3 4 -3 19t3 20z" />
    <glyph glyph-name="f_h" unicode="fh" horiz-adv-x="816" 
d="M19 36q30 6 40 9q17 6 17 34q2 79 2 253q0 7 -6 7l-49 3q0 24 10 39q22 7 41 18q5 3 5 7q3 74 31.5 125t88.5 90q59 40 115 40q53 0 96 -19q9 -4 22 0q4 1 43 18q2 -1 7 -7.5t5 -9.5q-7 -24 -8 -98l-1 -41v-84v-52q0 -2 2 -3t3 0q76 53 127 53q63 0 98.5 -43.5
t35.5 -123.5q0 -163 1 -182q0 -11 6 -16q19 -13 52 -17q2 -4 0 -20.5t-5 -18.5l-40 1q-41 2 -82 2q-69 0 -108 -3q-2 5 -2 20t2 19l25 6q11 4 14.5 12.5t4.5 30.5q5 152 -4 196q-5 26 -26 42.5t-50 16.5q-28 0 -46 -11q-6 -2 -6 -11q0 -210 1 -226q1 -35 8 -42q4 -4 11 -6
q20 -7 30 -8q2 -4 2 -19t-2 -20q-13 0 -54 1.5t-68 1.5q-22 0 -58.5 -1.5t-52.5 -1.5q-2 5 -2 20.5t2 18.5q21 4 34 8q11 4 13.5 14.5t3.5 42.5q1 39 1 161q0 254 -2 256q2 36 -14 55q-27 34 -64 34q-26 0 -40 -19q-23 -26 -23 -131q0 -32 1 -46q0 -7 7 -7q52 0 90 2
q-5 -15 -10 -68l-81 2q-6 0 -6 -7q0 -150 2 -248q1 -22 6 -30.5t20 -13.5q12 -3 32 -5q1 -5 0 -21t-3 -19q-18 0 -58.5 2t-69.5 2q-16 0 -61.5 -2t-55.5 -2q-2 5 -2.5 20.5t2.5 19.5z" />
    <glyph glyph-name="f_i" unicode="fi" horiz-adv-x="551" 
d="M20 36q28 6 38 9q18 6 18 32q1 31 1 259q0 7 -6 7l-50 4q0 17 10 37q22 4 43 16q4 1 4 7q5 136 121 212q62 42 130 42q55 0 89 -19t46 -46q7 -17 0 -31q-17 -38 -58 -59q-19 -6 -32 2q-8 8 -32 43q-38 56 -76 56q-17 0 -32 -16q-29 -29 -29 -144q0 -22 1 -36q0 -7 8 -7
h151q68 0 116 14q-2 -24 -2 -179q0 -107 1 -153q0 -36 21 -43q15 -4 36 -7q3 -5 1.5 -20t-5.5 -19q-11 0 -54 1.5t-70 1.5q-32 0 -67.5 -1.5t-42.5 -1.5q-2 4 -2.5 19.5t2.5 19.5q15 3 31 7q16 6 17 37q2 46 2 131q0 78 -2 112q0 6 -4.5 13.5t-10.5 7.5h-120q-6 0 -6 -7
l4 -255q0 -34 24 -40q6 -2 15 -3t19 -3q2 -4 1 -20t-4 -20q-4 0 -44.5 2t-84.5 2q-15 0 -60.5 -2t-55.5 -2q-2 5 -2.5 20.5t2.5 19.5z" />
    <glyph glyph-name="f_j" unicode="fj" horiz-adv-x="551" 
d="M20 36q28 6 38 9q18 6 18 32q1 31 1 259q0 7 -6 7l-50 4q0 17 10 37q22 4 43 16q4 1 4 7q5 134 121 213q61 41 130 41q55 0 89 -19t46 -46q7 -17 0 -31q-17 -38 -58 -59q-19 -6 -32 2q-9 9 -33 44q-38 55 -75 55q-17 0 -33 -17q-28 -28 -28 -143l1 -36q0 -7 8 -7h147
q54 0 121 10v-149.5t-1 -152.5q0 -85 -10 -133q-20 -85 -70 -143t-90 -76q-24 1 -42 19q-1 3 -0.5 8.5t1.5 7.5q46 23 61.5 62t15.5 126v40q0 201 -5 300q0 6 -4 13.5t-10 7.5h-116q-6 0 -6 -7l4 -255q0 -34 24 -40q6 -2 15 -3t19 -3q2 -4 1 -20t-4 -20q-4 0 -44.5 2
t-84.5 2q-15 0 -60.5 -2t-55.5 -2q-2 5 -2.5 20.5t2.5 19.5z" />
    <glyph glyph-name="f_k" unicode="fk" horiz-adv-x="785" 
d="M19 36q30 6 40 9q17 6 17 34q2 79 2 253q0 7 -6 7l-49 3q0 24 10 39q27 8 41 17q5 5 5 8q3 76 32 126.5t89 89.5q58 39 117 39q50 0 93 -19q9 -4 22 0q8 2 44 18q2 -1 7 -7.5t5 -9.5q-7 -23 -8 -83q-2 -136 -1 -340q23 3 44 22q30 25 52.5 54t22.5 43q0 13 -16 18
q-6 1 -17 3t-19.5 3.5t-9.5 1.5q-1 4 0.5 20t3.5 19q130 -2 207 7q3 -3 3 -18.5t-3 -21.5q-56 -11 -77 -34q-23 -23 -78 -83v-5q14 -26 72.5 -99t85.5 -94q19 -15 37 -17q9 -2 24 -3q2 -3 0 -19.5t-6 -19.5q-29 -5 -124 -5q-46 1 -61 16q-26 22 -113 149q-17 27 -28 31v-103
q1 -22 6.5 -30t19.5 -12q25 -6 35 -7q2 -5 -0.5 -20.5t-6.5 -18.5q-17 0 -57 1.5t-64 1.5q-18 0 -57.5 -1.5t-58.5 -1.5q-1 5 -1 19.5t1 19.5q30 7 31 7q18 6 19 38q2 27 2 146q1 266 1 291q0 37 -15 55q-27 34 -66 34q-12 0 -23.5 -7t-16.5 -13q-23 -26 -23 -128
q0 -34 1 -48q0 -7 7 -7q50 0 88 2q-5 -15 -10 -68l-79 2q-6 0 -6 -7q2 -228 3 -248q0 -22 5 -30.5t20 -13.5q11 -3 33 -5q1 -5 0 -21t-3 -19q-18 0 -58.5 2t-69.5 2q-16 0 -61.5 -2t-55.5 -2q-2 5 -2.5 20.5t2.5 19.5z" />
    <glyph glyph-name="f_l" unicode="fl" horiz-adv-x="553" 
d="M20 36q34 7 39 9q18 6 18 34q1 79 1 253q0 7 -6 7l-49 3q0 22 10 40q22 4 41 17q5 3 5 7q3 72 31.5 124t88.5 91q60 40 117 40q58 0 95 -19q8 -4 21 0q11 3 45 18q2 -1 6.5 -7.5t4.5 -9.5q-7 -25 -7 -79q-1 -22 -1 -63.5t-0.5 -99.5t-0.5 -94q0 -197 2 -226q1 -31 24 -38
q4 -1 36 -7q2 -5 1 -19t-5 -20q-7 0 -55 1.5t-76 1.5q-20 0 -56 -1.5t-50 -1.5q-3 4 -4 19.5t1 19.5q15 2 33 7q9 5 12.5 11.5t4.5 24.5q2 34 2 241q0 150 -1 199q0 37 -15 54q-27 34 -67 34q-19 0 -36 -17q-25 -30 -25 -128q0 -37 1 -51q0 -7 7 -7q53 0 91 2
q-5 -15 -10 -68l-82 2q-6 0 -6 -7q2 -228 3 -248q1 -21 6 -29.5t20 -13.5q16 -4 32 -6q2 -5 0.5 -20.5t-3.5 -19.5q-18 0 -58.5 2t-69.5 2q-16 0 -61 -2t-55 -2q-3 5 -3 20.5t3 19.5z" />
    <glyph glyph-name="f_t" unicode="ft" horiz-adv-x="603" 
d="M20 36q38 8 39 8q18 6 18 33q1 80 1 258q0 7 -6 7l-49 3q0 19 10 36q23 7 42 18q4 3 4 7q3 75 30.5 126.5t84.5 89.5q61 41 115 39q63 0 87 -32v-18q-8 -17 -24 -40.5t-26 -31.5h-16q-59 63 -87 63q-16 0 -23 -11q-14 -19 -14 -109q0 -43 2 -71q0 -7 7 -7h123q5 5 5 8v17
t0.5 34.5t0.5 29.5q22 7 60.5 25t50.5 28q24 3 26 3q-4 -33 -4 -138q0 -7 4 -7q53 0 111 4q-10 -44 -11 -69q-17 0 -51 0.5t-51 0.5q-4 0 -4 -6q0 -18 -0.5 -72t-0.5 -79q0 -55 4 -76q2 -16 17 -27.5t37 -11.5q30 0 55 14q1 -4 1 -17.5t-2 -21.5q-42 -54 -123 -54
q-76 0 -105 50q-16 29 -16 108q0 27 0.5 96t0.5 89q0 10 -6 11h-124q-5 0 -5 -7q2 -228 3 -249q1 -34 25 -41q7 -2 15 -3.5t20 -3.5t21 -4q3 -17 -5 -38q-3 0 -50 1.5t-104 1.5q-32 0 -69 -1.5t-44 -1.5q-2 4 -2.5 19.5t2.5 19.5z" />
    <glyph glyph-name="longs_b" unicode="&#x17f;b" horiz-adv-x="806" 
d="M19 36q18 2 40 9q17 6 17 34q2 79 2 254q0 7 -6 7l-49 3q0 23 10 40q19 4 41 17q5 5 5 7q5 140 119 213q61 41 119 41q49 0 91 -17q10 -4 22 -1q22 7 44 17q2 -1 7 -7.5t5 -9.5q-7 -24 -8 -84v-177q1 -5 5 -3q86 39 126 39q67 0 111 -49q49 -52 49 -134q0 -114 -90 -184
q-28 -22 -87.5 -42.5t-95.5 -20.5q-95 0 -158 29q7 35 7 73q0 30 0.5 87t0.5 87q0 226 -1 254q0 40 -15 56q-26 33 -62 33q-23 0 -34 -20q-29 -33 -29 -172l1 -79q0 -41 0.5 -97t1 -94.5t0.5 -59.5q1 -21 6.5 -29t21.5 -13q16 -4 42 -7q1 -5 -0.5 -20.5t-2.5 -19.5
q-19 0 -64.5 2t-74.5 2q-16 0 -61.5 -2t-55.5 -2q-2 5 -2.5 20t2.5 20zM520 345q-27 0 -36 -6q-6 -2 -6 -14q-3 -157 2 -212q2 -36 15 -47q24 -23 60 -23q30 0 52 28q28 37 28 110q0 74 -31 119t-84 45z" />
    <glyph glyph-name="longs_h" unicode="&#x17f;h" horiz-adv-x="816" 
d="M19 36q30 6 39 9q18 6 18 34q2 79 2 254q0 7 -6 7l-49 3q0 23 10 40q19 4 41 17q5 4 5 7q4 138 120 214q58 40 116 40q45 0 92 -19q9 -4 22 0q8 2 44 18q3 -1 7.5 -7.5t4.5 -9.5q-7 -24 -8 -84q0 -26 0.5 -93.5t0.5 -97.5q0 -2 2 -3t3 0q76 53 127 53q63 0 98.5 -43.5
t35.5 -123.5v-182q0 -12 7 -16q17 -12 51 -17q2 -4 0.5 -20.5t-4.5 -18.5l-40 1q-41 2 -83 2q-67 0 -108 -3q-2 5 -2 20t2 19l26 6q10 4 13.5 12.5t4.5 30.5q5 151 -4 196q-5 26 -25.5 42t-49.5 16q-27 0 -47 -10q-6 -3 -6 -12q0 -209 1 -225q0 -4 0.5 -10t0.5 -8.5t0.5 -7
t1.5 -6.5t2 -5t3 -5t4.5 -3.5t6.5 -2.5q19 -6 32 -8q1 -4 1 -19t-2 -20q-13 0 -54.5 1.5t-67.5 1.5q-23 0 -61 -1.5t-54 -1.5q-2 5 -2 20.5t2 18.5q24 4 34 8q12 4 15.5 16t4.5 41q1 40 1 192q0 113 -4 225q0 38 -16 56q-26 33 -58 33q-18 1 -34 -18q-30 -36 -30 -193v-67
q2 -223 3 -244q0 -21 5.5 -30t19.5 -14q13 -3 30 -5q1 -5 0 -21t-3 -19q-7 0 -45.5 2t-79.5 2q-16 0 -61.5 -2t-55.5 -2q-2 5 -2.5 20.5t2.5 19.5z" />
    <glyph glyph-name="longs_i" unicode="&#x17f;i" horiz-adv-x="551" 
d="M20 36q28 6 38 9q18 6 18 32q1 39 1 258q0 7 -6 7l-50 4q0 22 11 38q23 5 42 17q5 4 5 7q6 137 121 212q28 19 64 30t62 11q55 0 91 -19t47 -48q7 -14 0 -29q-16 -36 -58 -59q-18 -5 -31 3q-7 7 -34 43q-41 55 -77 55q-18 0 -31 -16q-14 -15 -21 -56.5t-7 -144.5l5 -308
q0 -34 23 -40q9 -2 32 -6q2 -4 1 -20t-3 -20q-19 0 -58.5 2t-68.5 2q-15 0 -60.5 -2t-55.5 -2q-2 5 -2.5 20.5t2.5 19.5zM538 36q2 -5 0 -20t-5 -19q-2 0 -43 1.5t-81 1.5q-32 0 -71 -1.5t-47 -1.5q-3 3 -3 19t2 20q26 4 39 9q9 3 12 10.5t4 27.5q1 23 1 128v90q-2 18 -5 22
q-14 14 -45 27q-1 3 0 17t3 17q22 0 83.5 10.5t95.5 23.5v-169q0 -115 1 -162q1 -37 19 -42q12 -5 40 -9z" />
    <glyph glyph-name="longs_k" unicode="&#x17f;k" horiz-adv-x="783" 
d="M19 36q30 6 40 9q17 6 17 34q2 79 2 254q0 7 -6 7l-49 3q0 24 10 39q13 4 41 18q5 5 5 7q4 138 120 214q58 40 113 40q48 0 95 -19q9 -4 22 0q8 2 44 18q3 -1 7.5 -7.5t4.5 -9.5q-7 -24 -8 -84q0 -219 2 -339q23 3 45 22q29 25 50.5 54t21.5 43q0 13 -17 18q-6 1 -17 3
t-19.5 3.5t-9.5 1.5q-1 4 0.5 20t3.5 19q130 -2 207 7q3 -3 3 -18.5t-3 -21.5q-55 -11 -76 -32q-13 -14 -39 -44t-37 -41q-2 -2 0 -5q16 -29 70.5 -100.5t80.5 -92.5q1 -1 5 -4t5 -3.5t4.5 -2.5t5 -2.5t5 -2t6.5 -2t7.5 -1.5t10 -1.5t12.5 -1.5q2 -1 0 -18t-5 -20
q-30 -5 -125 -5q-42 1 -61 19q-21 20 -105 146q-19 28 -29 31q1 -47 1 -103q1 -22 6.5 -30t19.5 -12q26 -6 33 -7q1 -5 -1.5 -20t-4.5 -19q-17 0 -56.5 1.5t-63.5 1.5q-18 0 -60.5 -1.5t-61.5 -1.5q-1 5 -1 19.5t1 19.5q23 2 36 7q16 6 19 38q2 27 2 153q0 172 -4 284
q0 38 -14 55q-27 34 -60 34q-20 0 -34 -18q-30 -36 -30 -194v-66q2 -223 3 -244q0 -36 28 -43q20 -5 30 -6q1 -5 -0.5 -20.5t-2.5 -19.5q-7 0 -47 2t-81 2q-16 0 -61.5 -2t-55.5 -2q-2 5 -2.5 20.5t2.5 19.5z" />
    <glyph glyph-name="longs_l" unicode="&#x17f;l" horiz-adv-x="553" 
d="M19 36q32 7 40 10q17 5 17 33q2 158 2 254q0 2 -2.5 4.5t-4.5 2.5l-49 3q0 21 11 40q12 2 41 17q4 4 4 7q6 139 121 214q58 40 115 40q53 0 95 -17q11 -4 22 -1q22 7 44 17q2 -1 6.5 -7.5t4.5 -9.5q-7 -25 -7 -84q-1 -53 -1 -252q0 -195 2 -225q1 -14 2.5 -20t6.5 -11
t14 -7q11 -3 36 -8q2 -5 0 -19t-6 -20q-3 0 -43.5 1.5t-86.5 1.5q-19 0 -55 -1.5t-54 -1.5q-2 4 -2.5 19.5t1.5 19.5q24 4 35 8q10 3 14 13t5 39q1 33 1 226q0 173 -1 201q0 36 -15 54q-26 32 -62 32q-20 0 -35 -19q-29 -35 -29 -200v-64q0 -39 0.5 -94t0.5 -90t1 -57
q2 -22 6.5 -30.5t19.5 -12.5q17 -5 30 -6q1 -5 -0.5 -21t-3.5 -19q-6 0 -45 2t-79 2q-16 0 -61.5 -2t-55.5 -2q-2 5 -2.5 20.5t2.5 19.5z" />
    <glyph glyph-name="longs_longs" unicode="&#x17f;&#x17f;" horiz-adv-x="558" 
d="M17 35q29 4 42 9q18 5 18 33v256q0 7 -5 7l-51 3q0 24 10 39q14 4 44 18q5 3 5 8q7 119 116 191q62 42 126 42q16 0 31 -2t24 -4t20 -7t14.5 -7t13.5 -8.5t11 -6.5q4 -4 7 0q63 55 139 55q61 0 80 -30q1 -3 1 -10.5t-1 -10.5q-14 -34 -46 -67q-10 -3 -16 0q-49 60 -86 60
q-24 0 -31 -47t-6 -193q0 -225 3 -277q2 -35 27 -41q27 -8 40 -9q1 -6 -1 -23t-6 -17q-9 0 -56 2t-78 2q-32 0 -67.5 -2t-42.5 -2q-3 5 -3 20.5t3 19.5q22 4 34 8q17 6 17 33q1 79 1 256q0 7 -8 7l-49 3q0 24 9 40q20 4 44 18q5 3 5 11q0 43 22 105q-43 73 -98 73
q-35 0 -51 -40.5t-16 -137.5q0 -157 3 -328q0 -36 25 -42q21 -5 33 -6q2 -4 0.5 -20.5t-4.5 -19.5q-9 0 -46 2t-81 2q-36 0 -74.5 -2t-44.5 -2q-2 5 -2.5 19.5t2.5 19.5z" />
    <glyph glyph-name="longs_longs_i" unicode="&#x17f;&#x17f;i" horiz-adv-x="823" 
d="M17 35q25 3 41 9q18 5 18 33q1 39 1 256q0 7 -6 7l-49 3q0 23 10 40q25 5 42 17q5 2 5 8q10 120 115 189q64 44 131 44q17 0 32 -2t25 -4.5t20.5 -8t15 -8t13.5 -9t11 -7.5q3 -3 7 1q73 58 154 58q108 0 134 -67q8 -12 0 -31q-14 -35 -55 -56q-21 -6 -34 2q-14 14 -34 43
q-38 55 -73 55q-16 0 -30 -13q-32 -29 -32 -181q-1 -192 4 -327q1 -15 2 -20t5.5 -11.5t13.5 -9.5q26 -8 39 -9q1 -4 0 -22t-5 -18q-9 0 -53 2t-75 2q-32 0 -68.5 -2t-43.5 -2q-3 5 -3 20.5t3 19.5q28 6 36 8q17 6 17 33q1 40 1 256q0 2 -2.5 4.5t-4.5 2.5l-50 3q0 23 10 40
q18 4 42 18q5 2 6 11q4 57 23 102q-17 35 -46 54.5t-57 19.5q-35 0 -51.5 -37.5t-17.5 -131.5q0 -47 2 -178.5t2 -156.5q0 -36 24 -41l35 -7q3 -3 1 -20t-5 -20q-4 0 -43.5 2t-84.5 2q-36 0 -74.5 -2t-43.5 -2q-3 4 -3 19t3 20zM813 36q1 -6 -0.5 -20.5t-4.5 -18.5
q-3 0 -44 1.5t-81 1.5q-32 0 -66.5 -1.5t-43.5 -1.5q-2 4 -2 19.5t2 19.5q10 2 30 9q17 5 18 38q1 23 1 128v92q-3 18 -5 21q-11 13 -45 26q-1 4 0 17.5t3 16.5q22 0 83 10.5t95 23.5v-169q0 -115 1 -162q0 -36 20 -42q14 -5 39 -9z" />
    <glyph glyph-name="longs_longs_l" unicode="&#x17f;&#x17f;l" horiz-adv-x="825" 
d="M16 35q31 4 43 9q17 5 17 33q1 79 1 256q0 7 -6 7l-49 3q0 23 11 39q18 5 41 17q4 3 4 8q8 64 35.5 109.5t82.5 82.5q61 42 130 42q66 0 115 -39q3 -3 7 1q73 58 157 58q42 0 82 -17q7 -2 14 0q27 6 52 17q3 -1 7 -7t3 -10q-10 -27 -10 -83q-1 -27 -1 -109.5v-144.5
q0 -195 2 -225q1 -14 2.5 -20t6.5 -11t14 -8q7 -2 35 -7q2 -5 2 -19t-4 -20q-3 0 -45 1.5t-88 1.5q-19 0 -53 -1.5t-52 -1.5q-2 4 -2.5 19.5t0.5 19.5q15 2 37 10q12 6 14 50q1 33 1 224q0 180 -3 230q0 16 -10 26q-26 31 -66 31q-19 0 -32 -14q-32 -35 -32 -180
q0 -249 3 -327q1 -19 5.5 -28.5t17.5 -13.5q22 -7 37 -8q1 -7 -0.5 -23.5t-5.5 -16.5q-9 0 -52 2t-74 2q-32 0 -69.5 -2t-43.5 -2q-3 5 -3.5 20.5t3.5 19.5q30 7 36 9q18 5 18 32q1 79 1 256q0 7 -6 7l-50 3q0 27 10 42q32 10 41 15q2 2 6 9q4 57 21 98q3 5 0 11
q-37 70 -102 70q-35 0 -51 -38t-16 -129q0 -257 3 -337q1 -19 5.5 -28t18.5 -13q25 -6 35 -7q2 -3 0 -19.5t-4 -20.5q-4 0 -43.5 2t-84.5 2q-36 0 -74.5 -2t-44.5 -2q-2 5 -2.5 19.5t2.5 19.5z" />
    <glyph glyph-name="t_t" unicode="tt" horiz-adv-x="625" 
d="M609 82q2 -4 1.5 -17.5t-2.5 -21.5q-40 -54 -122 -54q-80 0 -105 50q-11 19 -13.5 39.5t-2.5 68.5q0 27 0.5 94t0.5 87q0 9 -6 11l-155 1q-4 0 -4 -6q0 -18 -0.5 -72t-0.5 -79q0 -55 4 -76q2 -16 16.5 -27.5t36.5 -11.5q31 0 55 14q2 -4 1.5 -17.5t-2.5 -21.5
q-42 -54 -122 -54t-105 50q-11 19 -13.5 39.5t-2.5 68.5q0 26 0.5 93.5t0.5 88.5q0 8 -6 10q-8 1 -25 2t-25 2l9 38q28 6 41 18q6 6 6 8v18.5t0.5 36t0.5 30.5q20 6 57.5 24t51.5 28q20 6 26 4q-4 -33 -4 -137q0 -7 4 -7h155q6 3 6 9v21t0.5 40.5t0.5 32.5q22 7 59.5 25
t49.5 28q24 3 26 3q-4 -33 -4 -152q0 -7 4 -7q90 2 113 4q-10 -44 -11 -69q-18 0 -51 0.5t-51 0.5q-4 0 -4 -6q0 -18 -0.5 -72t-0.5 -79q0 -55 4 -76q2 -16 16.5 -27.5t36.5 -11.5q31 0 55 14z" />
    <glyph glyph-name="u0162_u0068" unicode="&#x162;h" horiz-adv-x="1064" 
d="M164 36q28 4 55 10q20 4 27.5 16t9.5 45q4 82 4 429q0 2 -3 6.5t-5 4.5q-14 1 -50 1t-53 -1q-32 -2 -50 -38q-20 -46 -32 -83q-4 -4 -22.5 0.5t-21.5 10.5q16 84 22 179q5 2 12 0q37 -12 92 -12h437q8 0 8 8v32q0 2 3.5 6t5.5 4q55 2 119 18q6 -3 6 -9v-20.5t-0.5 -50
t-0.5 -66.5v-158q0 -5 4 -3q78 53 128 53q63 0 98 -43t35 -124q0 -163 1 -182q0 -12 7 -16q17 -12 51 -17q2 -4 0 -20.5t-4 -18.5q-1 0 -41 1.5t-82 1.5q-69 0 -108 -3q-2 5 -2 20t2 19l26 6q10 4 13.5 12.5t4.5 30.5q5 151 -4 195q-5 27 -25.5 43t-50.5 16q-27 0 -46 -11
q-6 -2 -6 -11q0 -209 1 -225q0 -4 0.5 -10t0.5 -8.5t0.5 -7t1.5 -6.5t2 -5t3 -5t4.5 -3.5t6.5 -2.5q19 -6 31 -8q1 -4 1 -19t-1 -20q-14 0 -55 1.5t-68 1.5q-22 0 -60 -1.5t-54 -1.5q-2 5 -2 21t2 18q24 4 34 8q12 4 15 15t5 42q1 40 1 161q0 240 -2 269q-2 15 -17 17
q-19 1 -87.5 1.5t-78.5 -0.5q-7 -3 -7 -11q0 -424 1 -444q2 -35 25 -45q16 -6 62 -13q3 -4 2 -19t-4 -20q-29 0 -79 1.5t-80 1.5q-28 0 -83.5 -1.5t-84.5 -1.5q-4 5 -4 20t4 19zM342 -35q19 0 39 -22t20 -57q0 -53 -39 -87.5t-98 -44.5q-5 2 -11 15t-3 18q41 17 54.5 31
t13.5 35q0 34 -57 52q-3 2 -2.5 11t2.5 12q12 12 35 24.5t46 12.5z" />
    <glyph glyph-name="Tcaron_h" unicode="&#x164;h" horiz-adv-x="1064" 
d="M164 36q28 4 55 10q20 4 27.5 16t9.5 45q4 82 4 429q0 2 -3 6.5t-5 4.5q-14 1 -50 1t-53 -1q-32 -2 -50 -38q-20 -46 -32 -83q-4 -4 -22.5 0.5t-21.5 10.5q16 84 22 179q5 2 12 0q37 -12 92 -12h437q8 0 8 8v32q0 2 3.5 6t5.5 4q55 2 119 18q6 -3 6 -9v-20.5t-0.5 -50
t-0.5 -66.5v-158q0 -5 4 -3q78 53 128 53q63 0 98 -43t35 -124q0 -163 1 -182q0 -12 7 -16q17 -12 51 -17q2 -4 0 -20.5t-4 -18.5q-1 0 -41 1.5t-82 1.5q-69 0 -108 -3q-2 5 -2 20t2 19l26 6q10 4 13.5 12.5t4.5 30.5q5 151 -4 195q-5 27 -25.5 43t-50.5 16q-27 0 -46 -11
q-6 -2 -6 -11q0 -209 1 -225q0 -4 0.5 -10t0.5 -8.5t0.5 -7t1.5 -6.5t2 -5t3 -5t4.5 -3.5t6.5 -2.5q19 -6 31 -8q1 -4 1 -19t-1 -20q-14 0 -55 1.5t-68 1.5q-22 0 -60 -1.5t-54 -1.5q-2 5 -2 21t2 18q24 4 34 8q12 4 15 15t5 42q1 40 1 161q0 240 -2 269q-2 15 -17 17
q-19 1 -87.5 1.5t-78.5 -0.5q-7 -3 -7 -11q0 -424 1 -444q2 -35 25 -45q16 -6 62 -13q3 -4 2 -19t-4 -20q-29 0 -79 1.5t-80 1.5q-28 0 -83.5 -1.5t-84.5 -1.5q-4 5 -4 20t4 19zM349 649q-4 -3 -24 -7q-9 10 -62 53t-77 61q0 4 8 17.5t11 13.5q5 0 60 -22.5t69 -29.5
q4 -2 9 0q109 52 121 52q4 0 11.5 -12.5t5.5 -17.5q-24 -17 -73 -56.5t-59 -51.5z" />
    <glyph glyph-name="gamma_gamma" unicode="&#x3b3;&#x3b3;" horiz-adv-x="883" 
d="M17 267q-2 4 -3.5 19t0.5 20q32 54 77 82.5t83 28.5q28 0 48.5 -10.5t38.5 -38.5t26 -84.5t5 -139.5q0 -3 4 -2q2 0 2 2q36 135 94 206q25 31 59 48.5t65 17.5q32 0 54 -10t41.5 -38t28.5 -84t8 -142q0 -4 4 -2q2 0 2 2q37 156 87 225q38 51 80 51q18 0 40 -16t31 -36
q3 -18 -3 -27q-42 -2 -81.5 -35t-67.5 -81.5t-47 -100t-25 -94.5q-3 -24 -3 -26q0 -10 1.5 -61.5t2.5 -88t-1 -50.5q-3 -6 -11.5 -11t-12.5 -5q-31 0 -67 19.5t-36 39.5q0 24 45 153q8 24 8 49q4 234 -116 235q-34 0 -63.5 -23.5t-49 -63.5t-33 -81.5t-21.5 -86.5
q-4 -16 -4 -38q0 -6 -0.5 -101.5t-4.5 -107.5q-3 -7 -11.5 -11.5t-12.5 -4.5q-30 0 -68.5 22.5t-38.5 40.5q0 13 54 165q12 31 12 52q3 108 -29 177t-108 69q-38 0 -83 -23z" />
    <glyph glyph-name="u03BB_u03BB" unicode="&#x3bb;&#x3bb;" horiz-adv-x="835" 
d="M353 -17q-59 0 -86 64q-14 35 -65 238h-5q-39 -71 -74 -218q-7 -31 -4 -79q0 -2 -4.5 -4.5t-7.5 -2.5q-27 0 -59.5 12.5t-31.5 23.5q1 33 34 98q15 31 63 127t61 126q4 11 2 22q-6 30 -14 55q-21 56 -46 75t-59 19q-35 0 -59 -11q-3 1 -5.5 12.5t-0.5 14.5q24 34 64 55
t74 21q54 0 84 -44.5t72 -180.5q44 -154 74 -241q14 -39 25 -50.5t25 -11.5q17 0 36 34q24 41 57.5 115t48.5 119q5 16 4 26q-5 38 -15 63q-24 58 -54 81t-72 23q-38 0 -71 -20q-3 1 -6 13.5t-1 15.5q28 40 71.5 64t76.5 24q60 0 99 -47t78 -178q14 -46 31.5 -106.5
t29 -98.5t22.5 -70q28 -80 69 -80q18 0 35 9q1 -2 2 -16t-1 -18q-20 -28 -60 -48.5t-79 -20.5q-33 0 -56 46q-31 66 -69 242l-6 -1q-35 -91 -92 -192q-56 -99 -135 -99z" />
    <glyph glyph-name=".notdef" horiz-adv-x="495" 
d="M0 0v693h495v-693h-495zM248 391l168 253h-337zM277 347l169 -253v505zM79 50h337l-168 252zM50 599v-505l168 253z" />
    <glyph glyph-name=".null" horiz-adv-x="0" 
 />
    <glyph glyph-name="nonmarkingreturn" horiz-adv-x="333" 
 />
    <glyph glyph-name="space" unicode=" " horiz-adv-x="185" 
 />
    <glyph glyph-name="exclam" unicode="!" horiz-adv-x="334" 
d="M239 601q21 0 35 -11q-1 -24 -26.5 -177t-37.5 -208q-7 -1 -26.5 2t-22.5 7q-63 302 -66 335q-2 6 4.5 18.5t14.5 15.5q19 8 61.5 13.5t63.5 4.5zM192 144q30 0 52 -17q26 -25 26 -63q0 -30 -23 -56q-21 -21 -62 -21q-32 0 -54 21q-21 22 -21 58q0 33 27 57q23 21 55 21z
" />
    <glyph glyph-name="quotedbl" unicode="&#x22;" horiz-adv-x="363" 
d="M159 611q0 -47 -9 -109.5t-17 -77.5q-3 -7 -7 -12.5t-9.5 -10.5t-9 -8t-10 -7.5t-7.5 -5.5l-13 -1q-9 201 -25 239q6 5 40 21t48 18l12 -3q7 -8 7 -43zM311 617q0 -49 -9.5 -108t-17.5 -75q-9 -20 -42 -45q-1 -1 -7 -1t-7 1q-6 186 -24 229q7 6 43.5 24.5t45.5 18.5
l11 -2q7 -8 7 -42z" />
    <glyph glyph-name="numbersign" unicode="#" horiz-adv-x="490" 
d="M310 458l29 132q3 3 21.5 8t23.5 5q3 0 6 -3l-31 -138q0 -4 3 -4q78 0 102 5q2 -18 -9 -40q-34 -41 -108 -44q-3 0 -6 -5l-22 -96q0 -5 4 -5q65 0 99 6q1 -3 -2 -19.5t-6 -20.5q-40 -48 -109 -49q-4 0 -4 -5q-4 -23 -15.5 -76.5t-13.5 -64.5q-1 -3 -8 -3q-2 0 -18.5 9
t-17.5 11q24 106 28 129h-93q-5 0 -5 -4q-29 -128 -33 -143q-1 -3 -8 -3q-5 2 -21 10.5t-17 10.5q2 7 14 55.5t17 73.5q-78 0 -95 5q-2 7 8.5 43t16.5 40q32 -4 88 -4l23 105q-71 0 -91 4q-2 10 8 43t18 36q72 -3 81 -3l25 121q0 1 21 7.5t24 6.5t6 -5l-27 -125q0 -5 4 -5z
M295 379h-92q-3 0 -6 -6l-21 -93q0 -6 3 -6h92z" />
    <glyph glyph-name="dollar" unicode="$" horiz-adv-x="514" 
d="M200 -79l8 76q-1 5 -5 5q-61 6 -133 26q-21 32 -30 141q1 3 18 8t22 5q27 -72 56 -97.5t73 -35.5q4 -2 5 2l17 170q-1 6 -4 7q-44 24 -67.5 39t-48.5 38.5t-35.5 51t-10.5 63.5q0 76 54.5 121.5t142.5 47.5q5 0 6 2l7 69q5 4 21 6.5t23 0.5l-8 -74q0 -4 5 -4
q20 -2 81 -11q24 -3 55 -6q-12 -52 -21 -136q-2 -2 -20 -3t-20 1q-6 58 -22.5 82t-59.5 32q-3 0 -4 -3l-17 -174q1 -5 5 -7q91 -45 120 -69q56 -47 56 -116q0 -78 -56.5 -123.5t-155.5 -52.5q-3 0 -6 -4l-7 -72q-4 -3 -21.5 -5.5t-22.5 -0.5zM271 206l-15 -155l4 -5
q32 1 56 20.5t24 56.5q0 30 -14.5 48t-49.5 38q-1 1 -3 -0.5t-2 -2.5zM181 467q0 -48 61 -82q3 -3 5 2l16 159q-1 3 -4 3q-78 -11 -78 -82z" />
    <glyph glyph-name="percent" unicode="%" horiz-adv-x="742" 
d="M146 8q54 80 192 283.5t216 318.5q23 13 50 16q7 -4 7 -10q-23 -27 -217 -314t-220 -323q-5 -5 -10 -3q-3 3 -10.5 16t-7.5 16zM572 346q60 0 94.5 -46t34.5 -105q0 -102 -60 -148q-52 -41 -114 -41q-59 0 -95.5 44t-36.5 110q0 91 54 140q48 46 123 46zM548 305
q-49 0 -49 -117q0 -71 19 -104t44 -33q54 0 54 106q0 65 -17 106.5t-51 41.5zM217 595q62 0 96 -45t34 -105q0 -98 -61 -147q-51 -42 -115 -42q-58 0 -94 42.5t-36 111.5q0 90 54 139q48 46 122 46zM194 556q-50 0 -50 -119q0 -71 19.5 -104.5t44.5 -33.5q54 0 54 108
q0 66 -16.5 107.5t-51.5 41.5z" />
    <glyph glyph-name="ampersand" unicode="&#x26;" horiz-adv-x="736" 
d="M280 575q-24 0 -40 -20t-16 -53q0 -63 73 -122q1 -1 3.5 -0.5t3.5 1.5q43 43 43 109q0 35 -18 60t-49 25zM199 291q-3 3 -6 0q-25 -34 -25 -75q0 -53 43.5 -94.5t108.5 -41.5q55 0 88 28q1 1 0 4q-126 98 -209 179zM295 616q69 0 114 -36.5t45 -92.5q0 -41 -28.5 -69
t-93.5 -63q-2 -3 0 -5q73 -61 165 -127q1 -1 3.5 -0.5t3.5 1.5q32 47 44 91q10 28 -14 38q-15 6 -45 10q-4 1 -2.5 20.5t4.5 21.5q5 0 43 -1.5t61 -1.5q29 0 53.5 1t38.5 1.5t18 0.5q3 -4 1.5 -22t-5.5 -21q-7 -1 -14.5 -2.5t-14.5 -3.5t-10 -3q-28 -8 -43 -32
q-22 -32 -46 -70.5t-33 -50.5q-2 -2 2 -6q132 -96 144 -112q0 -19 -30 -67t-44 -59q-9 -4 -18 0q-9 13 -35 36q-84 68 -110 87q-3 3 -5 0q-96 -95 -202 -95q-89 0 -146.5 49.5t-57.5 131.5q0 43 25 75t102 80q1 1 1.5 2.5t-0.5 2.5q-54 59 -54 131q0 66 53.5 113t129.5 47z
" />
    <glyph glyph-name="quotesingle" unicode="'" horiz-adv-x="212" 
d="M160 611q0 -46 -9.5 -108.5t-17.5 -77.5q-3 -7 -7 -12.5t-9.5 -11t-9 -8l-10.5 -7.5t-8 -6q-5 -1 -14 -1q-2 70 -8.5 145t-14.5 94q5 5 42 21t47 17q9 0 12 -3q7 -10 7 -42z" />
    <glyph glyph-name="parenleft" unicode="(" horiz-adv-x="409" 
d="M77 271q0 161 72 286t183 199q5 0 15 -12t9 -17q-84 -79 -131 -184t-47 -258q0 -151 41 -261t126 -197q1 -4 -9.5 -16t-17.5 -15q-29 14 -67 51.5t-78.5 95.5t-68 145.5t-27.5 182.5z" />
    <glyph glyph-name="parenright" unicode=")" horiz-adv-x="410" 
d="M333 280q0 -161 -72 -285.5t-184 -198.5q-6 2 -16 14t-8 17q86 88 132.5 189.5t46.5 250.5q0 155 -41.5 263.5t-127.5 196.5q-1 2 12 15.5t15 13.5q33 -16 71.5 -53.5t78.5 -95.5t66.5 -144.5t26.5 -182.5z" />
    <glyph glyph-name="asterisk" unicode="*" horiz-adv-x="397" 
d="M238 537q86 32 122 50q2 0 4.5 -3.5t4 -6.5t0.5 -4q-10 -32 -31 -47q-36 -20 -84 -38q69 -60 102 -74q1 -1 0.5 -5.5t-2.5 -7.5q-9 -7 -31 -9t-31 2q-12 6 -25 14t-27.5 18t-22.5 15q-18 -84 -20 -121q-2 0 -8 -2q-17 0 -30.5 18.5t-11.5 37.5q2 23 12 78
q-80 -28 -122 -41q-6 4 -9 12q21 48 27 50q9 3 38.5 13.5t48.5 17.5q-50 43 -79 74q-12 14 -1 23q9 7 26.5 14.5t24.5 7.5q30 -38 68 -71q12 69 23 95q8 17 65 15q3 -6 3 -7q-4 -7 -10.5 -27.5t-14.5 -54t-9 -36.5z" />
    <glyph glyph-name="plus" unicode="+" horiz-adv-x="571" 
d="M525 269q-1 -11 -8 -34.5t-12 -24.5t-34 -1h-73t-73 -1q-3 0 -5.5 -3.5t-2.5 -5.5v-76t0.5 -75.5t-0.5 -38.5q-1 -4 -28 -12t-36 -8q-8 0 -8 3v40v78.5v97.5q-77 -1 -197 -1q-4 2 -4 11q1 9 7 34t8 30q5 -1 119 -1h67v63q0 103 -2 133q7 3 35 8t34 5q5 0 5 -36v-163
q0 -10 7 -10h198q3 -3 3 -12z" />
    <glyph glyph-name="comma" unicode="," horiz-adv-x="255" 
d="M13 -158q-6 6 -4 9q87 80 85 152q-1 29 -40 84q8 12 40.5 40t46.5 34q17 7 25 0q12 -9 22.5 -35.5t11.5 -55.5q3 -71 -46.5 -141.5t-100.5 -97.5q-5 -2 -19.5 2t-20.5 9z" />
    <glyph glyph-name="hyphen" unicode="-" horiz-adv-x="312" 
d="M54 247q29 0 119 2.5t100 2.5q1 0 1 -12q-2 -14 -9 -41.5t-10 -28.5q-5 -2 -97 -4.5t-118 -2.5q-2 0 -2 11q1 16 7 44.5t9 28.5z" />
    <glyph glyph-name="period" unicode="." horiz-adv-x="255" 
d="M128 154q32 0 54 -20q26 -24 26 -66q0 -36 -22 -57q-23 -24 -63 -24q-30 0 -53 22q-23 23 -23 61q0 35 25 60q26 24 56 24z" />
    <glyph glyph-name="slash" unicode="/" horiz-adv-x="468" 
d="M415 679q4 -2 6 -9q-7 -28 -139.5 -360.5t-169.5 -400.5q-4 -7 -26 -15.5t-34 -11.5q-9 2 -9 8q47 101 162.5 391t149.5 382q1 3 26.5 9.5t33.5 6.5z" />
    <glyph glyph-name="zero" unicode="0" horiz-adv-x="514" 
d="M270 597q99 0 149 -67q65 -75 65 -222q0 -209 -115 -286q-49 -34 -117 -34q-78 0 -125 34q-97 73 -97 274q0 175 96 253q60 48 144 48zM252 553q-16 0 -28 -12q-46 -46 -46 -225q0 -143 24 -212.5t66 -69.5q21 0 31 12q42 40 42 243q0 130 -23.5 197t-65.5 67z" />
    <glyph glyph-name="one" unicode="1" horiz-adv-x="514" 
d="M432 37q2 -3 0 -20t-5 -20q-24 0 -83.5 1.5t-90.5 1.5q-35 0 -85.5 -1.5t-70.5 -1.5q-4 4 -4 19.5t4 18.5q14 3 31.5 4.5t26.5 3.5q21 5 28.5 20t8.5 43q2 80 2 184q0 147 -3 175q-2 27 -25 32t-55 7q-3 5 -1.5 21t4.5 18q97 7 212 54q4 1 11 -2.5t7 -6.5q-6 -43 -6 -157
q0 -260 3 -321q2 -31 8.5 -46t23.5 -19q28 -6 59 -8z" />
    <glyph glyph-name="two" unicode="2" horiz-adv-x="514" 
d="M180 488q-63 0 -121 -61q-6 -1 -17 11t-11 18q42 67 98.5 104t115.5 37q73 0 124 -52t51 -132q0 -50 -25 -94.5t-82 -101.5q-34 -35 -106 -93q0 -1 -0.5 -3t0.5 -3.5t4 -2.5q33 -5 170 -5q17 1 38.5 23.5t41.5 63.5q4 2 19.5 -3.5t17.5 -10.5q-9 -38 -29 -96t-37 -79
q-7 -10 -50 -11q-42 -2 -144 0.5t-130 2.5q-30 0 -66 -2q-2 14 -4 34q103 73 176 168q67 92 67 170q0 52 -26.5 85t-74.5 33z" />
    <glyph glyph-name="three" unicode="3" horiz-adv-x="514" 
d="M260 597q71 0 114 -41.5t43 -102.5q0 -35 -24 -61.5t-70 -56.5q-2 -2 0 -4q144 -45 144 -156q0 -50 -27.5 -94t-75.5 -74q-77 -49 -171 -49q-58 0 -98 19q-20 8 -34 36q-17 37 -20 75q1 5 14 11.5t18 7.5q26 -53 80 -82q36 -18 83 -18q38 0 66.5 28.5t28.5 81.5
q0 59 -41 97t-109 38q-13 0 -32 -2q-1 6 9 32t15 29q65 12 93 33.5t28 59.5q0 40 -25.5 68.5t-72.5 28.5q-56 0 -114 -52q-5 -1 -12.5 13t-6.5 20q30 40 84 77.5t113 37.5z" />
    <glyph glyph-name="four" unicode="4" horiz-adv-x="514" 
d="M492 156q-14 0 -44.5 0.5t-45.5 0.5q-4 0 -4 -5q0 -29 0.5 -86t0.5 -85q-78 0 -148 -12l2 184q0 5 -5 5l-130 1q-82 0 -105 -1q-1 5 1.5 22.5t4.5 21.5q219 302 283 385q56 7 92 10q0 -237 1 -362q2 -4 5 -4q67 0 105 3q-11 -42 -13 -78zM108 232q32 -2 82 -2h59q4 0 4 5
l4 218h-4q-17 -20 -68 -95t-79 -120q0 -6 2 -6z" />
    <glyph glyph-name="five" unicode="5" horiz-adv-x="514" 
d="M406 599q2 0 9 -5.5t7 -8.5q-1 -10 -16.5 -43.5t-33.5 -55.5q-21 -26 -53 -26q-34 0 -77.5 4t-44.5 4q-9 0 -11 -6q-9 -15 -16 -38q-1 -2 1 -6t4 -5q11 -5 50 -21.5t77 -34t61 -30.5q51 -30 76 -66t25 -90q0 -63 -42 -113t-101.5 -75t-119.5 -25q-93 0 -145 54
q-13 15 -13 34q0 11 10.5 34.5t20.5 36.5q7 7 14 7q77 -108 179 -108q34 0 55.5 22.5t21.5 55.5q0 68 -78 118q-29 19 -98 51t-76 36q-2 4 -3 19.5t1 21.5q12 43 45 121.5t58 113.5q16 15 30 15q1 0 44 -2.5t81 -2.5q32 0 58 14z" />
    <glyph glyph-name="six" unicode="6" horiz-adv-x="514" 
d="M456 595q-190 -92 -246 -229q0 -3 2 -4q75 34 115 34q62 0 109 -48.5t47 -131.5q0 -69 -34.5 -122.5t-99.5 -84.5q-46 -23 -101 -23q-107 0 -161.5 66t-54.5 161q0 143 116.5 259t293.5 160q5 -2 10.5 -18t3.5 -19zM230 324q-16 0 -29 -6q-9 -2 -14 -20q-9 -28 -9 -77
q0 -91 29.5 -139.5t73.5 -48.5q29 0 50 31t21 89q0 80 -34 125.5t-88 45.5z" />
    <glyph glyph-name="seven" unicode="7" horiz-adv-x="514" 
d="M484 587q3 -1 5.5 -8.5t1.5 -10.5q-21 -64 -143.5 -312.5t-136.5 -285.5q-5 -5 -8 -6q-28 2 -47 19q-8 7 -1 21q13 25 111 211t119 237q0 7 -3 7q-150 3 -236 -2q-24 -2 -38 -17t-43 -62q-4 -3 -19 3.5t-19 11.5q40 133 49 198q26 -6 84 -6h210q87 0 114 2z" />
    <glyph glyph-name="eight" unicode="8" horiz-adv-x="514" 
d="M270 597q76 0 125.5 -41t49.5 -106q0 -59 -98 -119q-2 -2 0 -4q65 -42 94.5 -77t29.5 -85q0 -70 -64.5 -123t-161.5 -53q-102 0 -151.5 46t-49.5 107q0 33 26 62t94 68q4 4 0 6q-97 70 -97 150q0 79 63 124q56 45 140 45zM251 552q-31 0 -50.5 -21t-19.5 -50
q0 -36 27 -62.5t100 -68.5q2 -2 5 1q32 37 32 90q0 47 -25.5 79t-68.5 32zM269 33q36 0 57 20.5t21 53.5q0 37 -30 66.5t-112 78.5q-1 1 -3.5 0.5t-3.5 -1.5q-41 -43 -41 -97q0 -47 32.5 -84t79.5 -37z" />
    <glyph glyph-name="nine" unicode="9" horiz-adv-x="514" 
d="M90 -49q-5 2 -12 17t-4 21q100 47 156.5 106t86.5 136q2 4 -1 6q-2 1 -3 0q-36 -22 -72 -34.5t-55 -12.5q-72 0 -115 54.5t-43 127.5q0 131 120 196q56 29 117 29q104 0 161 -71.5t57 -172.5q0 -138 -106.5 -249t-286.5 -153zM234 551q-31 0 -53.5 -31.5t-22.5 -87.5
q0 -80 34.5 -121t85.5 -41q21 0 43 11q6 3 11 16q7 38 7 63q0 83 -25.5 137t-79.5 54z" />
    <glyph glyph-name="colon" unicode=":" horiz-adv-x="323" 
d="M162 148q32 0 53 -21q26 -21 26 -61q0 -34 -21 -55q-23 -23 -62 -23q-29 0 -54 22q-22 21 -22 58q0 34 25 57t55 23zM162 392q34 0 54 -20q25 -21 25 -63q0 -33 -21 -53q-23 -24 -61 -24q-30 0 -53 20q-24 21 -24 60q0 36 24 58q23 22 56 22z" />
    <glyph glyph-name="semicolon" unicode=";" horiz-adv-x="323" 
d="M163 391q35 0 53 -18q25 -24 25 -62q0 -33 -21 -53q-23 -24 -63 -24q-29 0 -53 21q-23 22 -23 58q0 31 25 56q23 22 57 22zM43 -158q-6 6 -4 9q89 80 85 152q-1 29 -40 84q8 12 40.5 40t46.5 34q17 7 25 0q12 -9 22.5 -35.5t11.5 -55.5q3 -69 -46.5 -141t-100.5 -98
q-4 -2 -18.5 2t-21.5 9z" />
    <glyph glyph-name="less" unicode="&#x3c;" horiz-adv-x="571" 
d="M481 407q-10 -9 -65.5 -38t-145.5 -74.5t-91 -46.5q-5 -3 -1 -7q9 -5 90 -44t153 -76t83 -49q2 -3 -7.5 -28.5t-14.5 -34.5q-2 -4 -8 -4q-33 25 -185.5 103t-222.5 106q-1 5 5.5 29t8.5 26q82 39 235 119t177 99q5 0 7 -6q0 -12 -6.5 -40.5t-11.5 -33.5z" />
    <glyph glyph-name="equal" unicode="=" horiz-adv-x="571" 
d="M507 304l-457 -2q-4 2 -4 10q4 46 13 65q7 -2 119 -2h346q3 -5 1 -11q0 -6 -6.5 -32.5t-11.5 -27.5zM507 116l-458 -3q-3 3 -3 10q5 44 14 65q7 -2 118 -2h346q3 -4 1 -11l-1 -7q-2 -8 -4 -15.5t-4 -16t-4.5 -14.5t-4.5 -6z" />
    <glyph glyph-name="greater" unicode="&#x3e;" horiz-adv-x="571" 
d="M89 85q18 14 303 159q4 3 0 7q-4 2 -157 78t-168 91q-3 3 6.5 28.5t15.5 34.5q2 4 8 4q33 -25 185 -103t223 -106q1 -4 -5.5 -28.5t-8.5 -26.5q-79 -37 -233.5 -118t-178.5 -100q-5 0 -7 6q0 13 6 41.5t11 32.5z" />
    <glyph glyph-name="question" unicode="?" horiz-adv-x="400" 
d="M220 302q0 -23 27 -50q6 -6 -3 -17q-6 -6 -35 -19t-37 -13q-15 -2 -25 2q-25 10 -40 30t-15 39q0 27 12 35q10 7 57 29t58 28q25 13 25 36q0 54 -122 87l-26 6q-14 3 -14 21q0 11 14.5 41t27.5 38q13 10 32 10q72 0 134 -46q67 -50 67 -111q0 -44 -19 -63
q-7 -7 -20 -15.5t-24.5 -14t-30.5 -15.5t-27 -14q-16 -9 -16 -24zM195 144q31 0 52 -18q26 -25 26 -62q0 -30 -23 -56q-21 -21 -63 -21q-32 0 -53 21q-21 22 -21 58q0 32 25 57q26 21 57 21z" />
    <glyph glyph-name="at" unicode="@" horiz-adv-x="861" 
d="M615 63q43 0 87 51.5t44 140.5q0 74 -24 131t-64.5 89.5t-88.5 49t-101 16.5q-41 0 -84 -12.5t-88.5 -43t-80 -75.5t-57 -116t-22.5 -158q0 -132 50.5 -208.5t112.5 -90.5q47 -12 79 -9q1 -1 1.5 -7.5t-0.5 -9.5q-25 -25 -86 -25q-17 0 -44.5 10t-62.5 36t-65 62.5
t-50.5 98t-20.5 134.5q0 184 129 323q138 147 332 147q71 0 130 -26.5t96 -69.5t57 -94t20 -103q0 -80 -29.5 -144t-76 -101t-97.5 -56t-100 -19q-30 0 -41.5 21.5t-7.5 52.5q3 36 6 51q0 2 -2 3t-4 -1q-36 -48 -89 -86.5t-87 -38.5q-59 0 -59 103q0 58 26 121.5t65 103.5
q29 32 94.5 65.5t114.5 33.5q59 0 115 -16q-12 -33 -20 -70q-36 -183 -37 -215q0 -49 30 -49zM381 97q43 0 89 87q14 26 31 98q1 2 16 59q-19 13 -54 13q-55 0 -86 -70q-25 -61 -26 -123q-1 -64 30 -64z" />
    <glyph glyph-name="A" unicode="A" horiz-adv-x="644" 
d="M-16 36q53 8 72.5 22t38.5 60q59 136 158 411q17 44 22 77q16 -2 53 -2q38 0 53 2q16 -54 19 -62q130 -360 147 -404q26 -65 43 -80.5t73 -23.5q2 -4 0.5 -20t-4.5 -19q-6 0 -54 1.5t-96 1.5q-46 0 -94 -1.5t-61 -1.5q-2 5 -2.5 20t1.5 19q41 7 51 13q12 9 9 20
q-9 47 -43 127q-2 7 -11 7h-79h-78q-7 0 -11 -10q-35 -101 -35 -114q0 -27 28 -33q24 -6 50 -10q2 -4 1 -19.5t-4 -19.5q-9 0 -51.5 1.5t-77.5 1.5q-19 0 -59.5 -1.5t-58.5 -1.5q-3 5 -3 19.5t3 19.5zM283 456h-4q-9 -25 -30.5 -90.5t-30.5 -90.5q-2 -6 3 -8q11 -1 58 -1
q56 0 64 1q3 0 3 5q-25 85 -63 184z" />
    <glyph glyph-name="B" unicode="B" horiz-adv-x="640" 
d="M30 568q-4 5 -3.5 21t4.5 18q3 0 50 -1.5t96 -1.5q45 0 107 1.5t70 1.5q199 0 199 -136q0 -42 -28.5 -76t-78.5 -50q-2 -1 -2 -2.5t2 -2.5q151 -35 151 -149q0 -116 -123 -170q-67 -29 -173 -29q-19 0 -131.5 2.5t-150.5 2.5q-3 6 -3.5 21t3.5 18q52 7 68 13q20 7 24 46
q2 26 2 211q0 154 -2 209q-2 20 -7 29.5t-20 13.5q-21 8 -54 10zM289 561q-7 0 -23 -4q-5 -2 -7 -13q-2 -22 -2 -188q0 -5 5 -5q9 -1 45 -1q59 0 72 9q36 21 36 79q0 56 -31 89.5t-95 33.5zM339 36q46 0 74 34.5t28 97.5q0 64 -38 99.5t-110 35.5q-22 0 -31 -1q-5 0 -5 -5
q0 -176 2 -205q0 -17 15 -32q23 -24 65 -24z" />
    <glyph glyph-name="C" unicode="C" horiz-adv-x="677" 
d="M569 432q-6 31 -9 42.5t-9.5 30t-16 28.5t-24.5 19q-46 26 -114 26q-82 0 -129.5 -65t-47.5 -195q0 -51 12 -98t37 -88t69.5 -66t102.5 -25q57 0 92 30q40 34 79 101q8 -2 19 -9.5t15 -14.5q-11 -35 -38 -81.5t-47 -59.5q-73 -25 -148 -25q-172 0 -266 82.5t-94 243.5
q0 88 42 161t123 112q85 41 202 41q49 0 123.5 -8.5t82.5 -8.5q-15 -80 -15 -169q-3 -5 -21.5 -6.5t-19.5 2.5z" />
    <glyph glyph-name="D" unicode="D" horiz-adv-x="736" 
d="M26 568q-3 5 -1.5 20t4.5 19q9 0 73 -1.5t80 -1.5q28 0 85 1.5t102 1.5q134 0 212 -62q49 -39 76 -99t27 -128q0 -153 -103 -241q-102 -84 -282 -84q-31 0 -114 2t-126 2h-41q-4 6 -4 22t4 17q35 4 59 10q31 7 34 46q3 36 3 218q0 156 -2 203q-2 21 -7.5 29.5t-22.5 14.5
q-20 7 -56 11zM262 99q2 -18 16 -32q26 -26 82 -26q65 0 111 57q57 77 57 204q0 69 -26 130t-74 95q-48 36 -127 36q-26 0 -33 -5q-7 -2 -7 -12q-1 -19 -1 -246q0 -181 2 -201z" />
    <glyph glyph-name="E" unicode="E" horiz-adv-x="601" 
d="M32 568q-3 5 -2 20.5t4 18.5q20 0 74.5 -1.5t79.5 -1.5h207q90 0 132 7q3 -1 4 -5q-8 -36 -14 -153q-4 -4 -21.5 -4.5t-21.5 1.5q-8 48 -19 70q-10 26 -41 28q-21 2 -75 2t-66 -2q-3 -1 -6.5 -7.5t-3.5 -10.5v-188q0 -8 7 -8q108 0 125 1q26 1 34 33q2 6 4.5 19.5
t3.5 18.5q4 2 23 1.5t24 -4.5q-6 -69 -6 -98q0 -49 2 -103q-5 -3 -22.5 -3.5t-22.5 2.5l-10 42q-9 23 -33 27q-18 2 -121 2q-3 0 -5.5 -3.5t-2.5 -5.5v-168q0 -26 22 -33q33 -7 129 -7q32 0 46.5 5.5t30.5 25.5q30 36 53 90q5 1 21.5 -5.5t20.5 -10.5q-20 -95 -47 -148
q-8 -16 -53 -16q-36 0 -133.5 2t-158.5 2q-26 0 -91.5 -1.5t-92.5 -1.5q-2 7 -2 21t2 18q49 5 76 13q28 7 29 47q2 39 2 235q0 150 -2 187q-1 20 -7.5 28t-21.5 13q-17 5 -54 9z" />
    <glyph glyph-name="F" unicode="F" horiz-adv-x="573" 
d="M23 568q-3 5 -2 20.5t4 18.5q17 0 71.5 -1.5t85.5 -1.5h226q78 0 126 6q6 0 6 -8q-13 -55 -18 -160q-8 -3 -21.5 -4t-18.5 2q-15 69 -22 83q-11 20 -40 24q-25 3 -80.5 2.5t-69.5 -2.5q-10 -2 -10 -17q-1 -52 -1 -202q0 -7 6 -7q107 0 138 1q17 1 24 7t13 22q6 14 12 45
q5 2 22 1t23 -4q-5 -65 -5 -103q0 -43 2 -105q-5 -4 -20.5 -5t-23.5 1q-2 15 -12 49q-9 24 -31 26q-36 3 -143 3q-5 0 -5 -7q0 -117 1 -159q2 -39 28 -46q22 -6 72 -11q3 -27 -5 -39q-28 0 -81.5 1.5t-82.5 1.5q-26 0 -77.5 -1.5t-82.5 -1.5q-4 5 -4 19t4 19q41 5 48 7
q18 4 24 14t7 33q3 34 3 216q0 170 -2 209q-1 23 -7 31t-21 13q-16 4 -60 10z" />
    <glyph glyph-name="G" unicode="G" horiz-adv-x="724" 
d="M656 45q1 -4 -1.5 -13t-5.5 -12q-120 -38 -234 -38q-174 0 -268.5 81t-94.5 242q0 98 48 171.5t133 108.5q87 37 204 37q55 0 128 -11t83 -12q-18 -74 -18 -181q-4 -5 -22.5 -6.5t-22.5 2.5q-11 96 -47 123q-49 40 -132 40q-82 0 -134 -59t-52 -197q0 -128 58.5 -210.5
t154.5 -82.5q27 0 41 13q9 8 12 30q4 35 2 95q-1 18 -3 27t-9.5 18t-21.5 13q-8 2 -18.5 3.5t-25 3.5t-25.5 4q-3 6 -2.5 21.5t3.5 19.5q8 0 69.5 -1.5t104.5 -1.5q64 0 130 3q3 -4 3 -20.5t-3 -20.5q-26 -5 -33 -7q-14 -5 -19 -14.5t-5 -36.5q-1 -19 -1 -59t1 -47
q4 -12 23 -26z" />
    <glyph glyph-name="H" unicode="H" horiz-adv-x="765" 
d="M32 568q-3 3 -2 20t4 19q4 0 51 -1.5t98 -1.5q47 0 96 1.5t55 1.5q3 -4 3 -20t-4 -19q-36 -4 -48 -9q-24 -8 -24 -49q-1 -23 -1 -159q1 -6 5 -7q9 -2 126 -2q96 0 109 1q6 3 6 7q0 116 -1 172q-2 29 -20 35q-14 6 -58 11q-4 4 -3.5 20t4.5 19q18 0 64 -1.5t90 -1.5
q49 0 93 1.5t53 1.5q4 -4 4 -19t-4 -20q-36 -4 -50 -10q-24 -9 -25 -49q-1 -33 -1 -220q0 -146 2 -191q2 -40 22 -49q17 -6 65 -13q2 -4 0.5 -20t-5.5 -19q-6 0 -56.5 1.5t-96.5 1.5q-42 0 -95.5 -1.5t-58.5 -1.5q-4 4 -4 19t4 20q37 5 51 9q24 7 25 47q1 24 1 177q0 7 -5 7
q-20 1 -114 1q-121 -1 -125 -3q-2 -2 -2 -6q0 -125 1 -167q0 -23 5 -35t22 -18q22 -7 57 -12q4 -5 2 -20.5t-6 -18.5q-5 0 -26 0.5t-57.5 1.5t-79.5 1q-47 0 -96.5 -1.5t-51.5 -1.5q-3 3 -3 18.5t3 20.5q13 2 47 9q20 5 27 18t9 44q1 15 1 197q0 175 -1 205q-2 25 -7 35
t-19 14q-26 7 -55 10z" />
    <glyph glyph-name="I" unicode="I" horiz-adv-x="373" 
d="M29 568q-3 4 -2.5 19.5t4.5 19.5q13 0 62.5 -1.5t88.5 -1.5q60 0 107.5 1.5t49.5 1.5q2 -4 2.5 -19t-2.5 -20q-40 -6 -55 -10q-15 -5 -19 -16t-5 -33q-1 -16 -1 -182q0 -213 1 -232q2 -40 30 -48q13 -4 60 -11q3 -4 0.5 -20t-6.5 -19q-111 3 -154 3q-52 0 -100.5 -1.5
t-60.5 -1.5q-4 3 -4 19.5t4 19.5q37 5 47 8q20 5 27 14.5t9 38.5q2 31 2 228q0 150 -3 192q-2 33 -25 40q-20 6 -57 11z" />
    <glyph glyph-name="J" unicode="J" horiz-adv-x="373" 
d="M33 568q-3 5 -2 20t4 19q8 0 56.5 -1.5t107.5 -1.5q51 0 98 1.5t54 1.5q3 -5 3.5 -19.5t-3.5 -19.5q-33 -4 -49 -11q-13 -5 -18.5 -14t-5.5 -31q0 -27 -1 -179.5t-4 -220.5q-7 -108 -45 -172q-42 -69 -106.5 -113.5t-119.5 -44.5q-64 0 -82 29v17q4 18 15.5 50.5
t18.5 44.5q83 -58 123 -58q21 0 34 14q9 11 11.5 27.5t4.5 60.5q6 317 -2 541q-3 42 -30 49t-62 11z" />
    <glyph glyph-name="K" unicode="K" horiz-adv-x="684" 
d="M257 302q0 -166 2 -210q1 -35 29 -44q6 -2 58 -13q2 -4 -0.5 -19.5t-5.5 -18.5q-138 3 -157 3q-51 0 -99 -1.5t-56 -1.5q-3 5 -3 19.5t3 18.5l55 11q18 5 23 17t6 44q2 93 1 211q0 161 -1 194q-2 39 -23 44q-8 3 -57 12q-4 4 -3 19.5t4 19.5q2 0 50 -1.5t101 -1.5
q28 0 76 1.5t70 1.5q2 -5 2.5 -19t-2.5 -20q-30 -4 -45 -9q-25 -8 -26 -47q-1 -26 -1.5 -103t-0.5 -107zM397 568q-2 7 -2 21t3 18q12 0 52 -1.5t73 -1.5q70 1 135 3q4 -4 3.5 -19.5t-4.5 -19.5q-48 -7 -72.5 -18t-52.5 -45q-19 -22 -67 -78.5t-66 -76.5v-6q33 -56 101 -140
t113 -127q21 -23 43 -31q21 -8 56 -10q3 -5 1.5 -20t-5.5 -19q-33 -4 -115 -2.5t-101 9.5q-26 11 -53 45q-67 78 -158 215q-7 10 -17 17q0 19 4 20q36 18 73.5 55t95.5 114q35 48 35 70q0 12 -17 18q-19 6 -58 10z" />
    <glyph glyph-name="L" unicode="L" horiz-adv-x="579" 
d="M27 568q-3 5 -1.5 21t4.5 18q18 0 64 -1.5t92 -1.5q31 0 151 3q3 -4 2.5 -19t-2.5 -20q-40 -6 -50 -9q-16 -5 -21 -13.5t-6 -28.5q-2 -32 -2 -177q0 -210 3 -248q1 -24 20 -31q22 -6 128 -6q31 0 57 35q32 48 65 120q5 2 22.5 -3.5t19.5 -11.5q-3 -23 -24.5 -90.5
t-38.5 -95.5q-4 -14 -56 -14q-42 0 -139.5 2.5t-137.5 2.5q-48 0 -96.5 -1.5t-58.5 -1.5q-3 5 -3 20t3 19q38 5 60 9q25 9 28 40q4 46 4 224q0 170 -2 209q-2 34 -29 41q-3 1 -56 9z" />
    <glyph glyph-name="M" unicode="M" horiz-adv-x="856" 
d="M26 568q-2 5 -0.5 20.5t3.5 18.5q37 0 119.5 -1.5t127.5 -1.5q5 -34 20 -66q97 -217 139 -299q4 -3 7 0q22 40 71.5 145.5t70.5 157.5q18 46 19 62q71 0 139 1.5t88 1.5q4 -2 4 -18.5t-4 -20.5q-53 -10 -62 -13q-27 -9 -27 -49q-1 -54 3 -202.5t9 -200.5q2 -47 34 -55
q17 -5 60 -12q4 -4 2.5 -19.5t-5.5 -19.5q-9 0 -63 1.5t-112 1.5q-28 0 -75 -1.5t-70 -1.5q-3 4 -2.5 19.5t2.5 19.5q44 7 55 11q20 7 21 51t1 165.5v183.5h-5q-13 -30 -59 -134t-82 -187t-49 -119q-4 -2 -24.5 -2t-22.5 2q-19 64 -177 438q-2 2 -6 -2q-15 -215 -15 -337
q0 -27 6.5 -39t28.5 -18q22 -7 66 -13q4 -3 2.5 -19t-5.5 -20q-10 0 -56.5 1.5t-87.5 1.5q-20 0 -61 -1.5t-60 -1.5q-3 5 -3.5 20t3.5 19q47 7 52 9q22 6 31.5 19.5t13.5 44.5q7 55 19.5 195.5t15.5 199.5q2 36 -25 48q-23 7 -75 16z" />
    <glyph glyph-name="N" unicode="N" horiz-adv-x="731" 
d="M20 567q-3 3 -2.5 20.5t2.5 19.5q13 0 61.5 -1.5t86.5 -1.5q49 0 81 2q7 -19 38 -57q210 -268 285 -355q1 0 2.5 0.5t2.5 0.5q-2 261 -6 305q-2 26 -12 39t-33 19q-20 5 -62 10q-3 3 -2.5 20t2.5 19q7 0 52.5 -1.5t84.5 -1.5q37 0 78 1.5t46 1.5q2 -3 2 -19.5t-2 -19.5
q-24 -3 -40 -8q-23 -7 -32 -19t-12 -44q-9 -109 -9 -364q0 -66 2 -140q-37 6 -104 -1q-234 313 -348 458q-6 4 -6 -1q-2 -262 3 -337q1 -31 12 -45.5t33 -19.5t60 -11q3 -3 3 -18.5t-4 -20.5q-19 0 -63.5 1.5t-67.5 1.5q-26 0 -72.5 -1.5t-62.5 -1.5q-3 4 -3 20t3 19
q45 8 60 13q28 10 33 58q10 87 10 381q0 20 -9.5 39t-26.5 25q-36 12 -64 15z" />
    <glyph glyph-name="O" unicode="O" horiz-adv-x="763" 
d="M381 -18q-157 0 -245 91q-84 87 -84 229q0 153 101 234q94 86 239 86q150 0 234.5 -89t84.5 -221q0 -125 -61 -203q-48 -63 -118.5 -95t-150.5 -32zM411 32q45 0 75 30q61 60 61 215q0 81 -22 152t-66 110q-41 35 -94 35q-46 0 -74 -22q-75 -54 -75 -218q0 -76 23 -149.5
t72 -115.5q45 -37 100 -37z" />
    <glyph glyph-name="P" unicode="P" horiz-adv-x="608" 
d="M310 235q-15 10 -19 35q0 6 5 11l10 -1h18q29 0 48 12q49 30 48 116q0 69 -33 110t-92 41q-18 0 -28 -5q-6 -6 -6 -14q-2 -32 -2 -217q0 -189 2 -226q2 -43 31 -51q18 -4 68 -10q3 -5 2 -19.5t-5 -19.5q-22 0 -80.5 1.5t-87.5 1.5q-27 0 -80.5 -1.5t-79.5 -1.5
q-3 6 -3 20.5t3 18.5q46 7 54 9q16 4 21.5 17t6.5 37q2 78 2 220q0 158 -1 185q-2 28 -8 39.5t-25 15.5q-21 6 -52 9q-2 7 -1.5 21t3.5 18q11 0 60 -1.5t79 -1.5q38 0 99.5 1t103.5 1q83 0 132 -35q69 -50 69 -141q0 -110 -90 -164q-56 -35 -126 -35q-24 0 -46 4z" />
    <glyph glyph-name="Q" unicode="Q" horiz-adv-x="763" 
d="M925 -118q-46 -44 -108.5 -65t-116.5 -21q-61 0 -119 32q-35 19 -97.5 65t-80.5 58q-36 24 -72 30q-100 18 -154 57q-125 85 -125 262q0 113 55 190q50 67 126.5 99.5t161.5 32.5q77 0 139 -26t100 -69.5t57.5 -98t19.5 -115.5q0 -135 -72 -214q-42 -50 -128 -87
q27 -8 129 -56q110 -53 171 -53q64 0 106 20q4 -6 7 -20.5t1 -20.5zM361 574q-73 0 -109 -65.5t-36 -175.5q0 -84 20 -150t68 -109.5t120 -43.5q58 0 90.5 70t32.5 177q0 54 -9 103t-29.5 94.5t-58.5 72.5t-89 27z" />
    <glyph glyph-name="R" unicode="R" horiz-adv-x="652" 
d="M31 568q-4 5 -3 21t5 18q11 0 67 -1.5t77 -1.5q47 0 109.5 1.5t83.5 1.5q91 0 141.5 -43.5t50.5 -112.5q0 -104 -116 -151q-1 0 -1.5 -3t0.5 -5q16 -31 69.5 -105t87.5 -107q26 -25 40.5 -32t53.5 -11q1 -3 -2.5 -21t-6.5 -20q-47 -4 -111.5 1.5t-92.5 18.5
q-36 18 -51 43q-18 22 -38 52.5t-45.5 72.5t-33.5 54q-10 17 -29 17q-7 1 -25 1q-5 0 -5 -7q0 -79 2 -157q1 -38 28 -46q18 -5 55 -10q4 -1 3 -19.5t-5 -19.5q-3 0 -54 1.5t-98 1.5q-48 0 -98 -1.5t-55 -1.5q-3 3 -4 19.5t3 19.5q27 3 48 8q28 7 29 48q3 48 3 221
q0 161 -2 203q-1 36 -28 42q-19 5 -52 10zM294 560q-19 0 -29 -5q-7 -7 -7 -15q-2 -25 -2 -224q0 -8 7 -8q83 -2 107 12q47 23 47 102q0 62 -33.5 100t-89.5 38z" />
    <glyph glyph-name="S" unicode="S" horiz-adv-x="512" 
d="M77 192q35 -97 86 -137q38 -27 91 -27q36 0 60 19.5t24 54.5q0 36 -22 63.5t-92 69.5q-41 25 -60.5 38.5t-47 39t-39.5 56.5t-12 70q0 86 62 134.5t154 48.5q47 0 108 -9t64 -9q-13 -60 -17 -151q-4 -4 -20 -4t-20 3q-13 81 -46 106q-28 23 -75 23q-38 0 -61.5 -24
t-23.5 -59q0 -30 15.5 -51.5t48.5 -42.5q7 -4 113 -68q57 -35 82 -71.5t25 -89.5q0 -83 -64.5 -138t-178.5 -55q-97 0 -158 33q-9 11 -21.5 73t-13.5 91q3 5 18.5 10t20.5 3z" />
    <glyph glyph-name="T" unicode="T" horiz-adv-x="650" 
d="M491 36q4 -4 3 -19t-5 -20q-16 0 -72.5 1.5t-95.5 1.5q-52 0 -111 -1.5t-68 -1.5q-4 4 -4 19.5t4 19.5q51 6 66 10q20 5 27.5 16.5t9.5 42.5q4 82 4 434q0 8 -6 8q-42 2 -93 0q-31 -2 -49 -37q-21 -43 -35 -85q-3 -3 -21.5 1t-21.5 10q17 87 22 174q0 2 4 5t6 2
q38 -13 93 -13h353q79 0 118 12q6 -2 6 -9q-19 -80 -25 -178q-4 -3 -22 -4t-21 2q-7 56 -19 90q-10 28 -38 31q-41 5 -102 1q-4 -2 -4 -9q0 -426 1 -446q2 -36 25 -45q11 -4 71 -13z" />
    <glyph glyph-name="U" unicode="U" horiz-adv-x="722" 
d="M16 568q-2 6 -2 20.5t3 18.5q19 0 73 -1.5t85 -1.5q33 0 87 1.5t74 1.5q3 -5 3 -19.5t-3 -19.5q-8 -1 -17 -2.5t-18.5 -3.5t-12.5 -3q-32 -6 -34 -55v-200q0 -77 7 -129q17 -116 157 -116q28 0 50.5 5.5t45.5 21t37 49t18 83.5q4 55 4 148.5t-3 127.5q-2 30 -10.5 44
t-31.5 19q-14 5 -64 11q-2 5 -1.5 19t3.5 20q19 0 62 -1.5t67 -1.5q49 0 86 1.5t40 1.5q4 -5 4 -20t-4 -19q-42 -8 -44 -9q-18 -5 -26 -19.5t-10 -51.5q-1 -18 -4.5 -110t-4.5 -123q-5 -148 -74 -210.5t-194 -62.5q-233 0 -254 188q-4 43 -7 337q-2 40 -33 50q-26 8 -54 11z
" />
    <glyph glyph-name="V" unicode="V" horiz-adv-x="653" 
d="M-19 567q-3 5 -1.5 21.5t5.5 18.5q14 0 69.5 -1.5t84.5 -1.5q39 0 95.5 1.5t61.5 1.5q4 -3 5 -19t-3 -20q-41 -8 -53 -15q-10 -8 -4 -28q14 -41 65.5 -171t74.5 -182q5 -1 6 0q22 45 66.5 161t57.5 163q18 50 -19 60q-31 8 -64 12q-3 5 -1.5 21t5.5 18q2 0 42 -1.5
t86 -1.5q40 0 79 1.5t45 1.5q3 -3 4 -18t-3 -21q-39 -7 -54 -15q-18 -11 -30 -28t-29 -55q-42 -92 -142 -335q-36 -88 -52 -144q-43 4 -93 0q-22 70 -53 144q-101 256 -127 316t-41 80t-40 27q-6 2 -12 3t-15 3t-16 3z" />
    <glyph glyph-name="W" unicode="W" horiz-adv-x="899" 
d="M-28 568q-2 4 -1.5 20.5t4.5 18.5q19 0 64.5 -1.5t91.5 -1.5q48 0 92 1.5t61 1.5q3 -3 3.5 -18.5t-3.5 -20.5q-28 -5 -49 -13q-16 -7 -11 -26q42 -150 99 -318q3 -3 7 1q26 63 63 177.5t55 183.5q34 -6 79 0q16 -53 70.5 -193t77.5 -192q1 -1 3 -0.5t3 2.5q75 222 89 306
q11 47 -25 59q-16 6 -65 13q-3 3 -2.5 20t3.5 19q7 0 49.5 -1.5t78.5 -1.5q45 0 83 1.5t42 1.5q1 -3 1.5 -18.5t-1.5 -20.5q-35 -8 -42 -11q-32 -11 -52 -61q-50 -127 -173 -506q-59 3 -81 -2q-19 58 -69.5 194t-70.5 182q-4 2 -6 -2q-91 -230 -133 -372q-13 2 -39 2t-40 -2
q-19 87 -71.5 252.5t-85.5 251.5q-21 52 -45 61q-19 8 -54 13z" />
    <glyph glyph-name="X" unicode="X" horiz-adv-x="636" 
d="M654 36q2 -3 1 -19.5t-5 -19.5q-18 0 -82 1.5t-98 1.5q-42 0 -74.5 -1t-49.5 -1.5t-21 -0.5q-4 2 -4.5 18.5t1.5 20.5q47 10 54 14q3 1 4.5 7.5t-0.5 8.5q-32 66 -93 163q-1 2 -3.5 2t-3.5 -2q-96 -142 -98 -153q-8 -26 23 -31q30 -6 46 -9q2 -3 0 -19.5t-5 -19.5
q-16 0 -63 2t-70 1l-119 -4q-3 4 -2.5 21t2.5 19q26 4 60 14q34 9 71 54q61 72 130 173q1 1 1 4.5t-1 3.5q-57 104 -114 194q-26 43 -40.5 58t-39.5 21q-19 6 -47 10q-4 4 -4 21t5 19q16 0 62.5 -2t76.5 -2q115 0 163 5q3 -4 2.5 -20.5t-2.5 -20.5q-16 -2 -35 -8
q-16 -7 -8 -23q24 -50 82 -146q4 -4 6 0q90 125 90 149q0 14 -18 18q-12 4 -48 10q-2 4 0 20t4 19q17 0 54 -1.5t59 -1.5q36 0 73 1.5t50 1.5q2 -3 2 -19t-2 -20q-38 -5 -57 -13q-37 -13 -80 -70q-64 -84 -98 -136q-3 -3 -1 -8q63 -110 107 -178t60.5 -88t40.5 -28
q35 -9 56 -11z" />
    <glyph glyph-name="Y" unicode="Y" horiz-adv-x="588" 
d="M-23 569q-3 6 -2 20t4 18q16 0 63 -1.5t76 -1.5q101 0 158 3q3 -4 3.5 -19.5t-2.5 -19.5q-11 -1 -30 -6t-7 -30q12 -29 51 -106t51 -96q2 -2 7 0q27 44 60 109t39 88q3 14 -1 21t-20 11q-17 4 -54 9q-2 7 -0.5 22t4.5 17q12 0 53 -1.5t73 -1.5q31 0 67.5 1.5t50.5 1.5
q3 -3 3 -19t-3 -20q-8 -2 -25.5 -4.5t-23.5 -4.5q-23 -8 -37 -20.5t-35 -46.5q-74 -117 -119 -211q-12 -23 -12 -48q0 -27 2 -129q1 -18 2.5 -27.5t9 -19t21.5 -12.5l58 -10q3 -4 1 -20t-5 -19q-13 0 -75 2t-95 2q-44 0 -90.5 -2t-65.5 -2q-3 3 -3 20t3 19q29 3 64 10
q29 8 29 56q1 23 1 122q0 20 -13 51q-38 82 -113 213q-22 40 -37 54t-36 20q-23 7 -50 8z" />
    <glyph glyph-name="Z" unicode="Z" horiz-adv-x="610" 
d="M598 183q-5 -28 -22 -88t-31 -86q-7 -15 -61 -15l-347 6q-10 0 -30 -0.5t-36 -1t-26 -1.5q-2 2 -3.5 13t-0.5 14q50 67 175.5 266t154.5 256q2 6 -3 6q-36 1 -102.5 -0.5t-94.5 -5.5q-31 -4 -50 -36q-12 -22 -43 -95q-4 -2 -22.5 4t-20.5 9q25 114 32 185q17 6 21 4
q22 -13 90 -13h196q56 0 176 3q1 -1 2.5 -11t0.5 -14q-28 -50 -140.5 -238t-169.5 -278q-1 -1 -0.5 -4t2.5 -4q36 -8 185 -8q25 0 51 23q27 27 73 124q5 2 22 -3.5t22 -10.5z" />
    <glyph glyph-name="bracketleft" unicode="[" horiz-adv-x="403" 
d="M119 740h221q2 -58 -9 -59q-66 -2 -146 -2q-6 0 -6 -7q-5 -50 -5 -386q0 -310 5 -385q3 -17 10 -20q17 -5 159 -5q2 -6 -1 -32t-10 -26q-107 -5 -175 0q-37 1 -48 8v908q0 6 5 6z" />
    <glyph glyph-name="backslash" unicode="\" horiz-adv-x="450" 
d="M92 688q5 2 8 -1q240 -653 306 -795q-3 -5 -10 -7q-12 1 -37.5 10.5t-28.5 16.5q-18 33 -75.5 181t-124 325.5t-88.5 231.5q3 5 22.5 20t27.5 18z" />
    <glyph glyph-name="bracketright" unicode="]" horiz-adv-x="403" 
d="M284 -184q-38 0 -110 -1t-111 -1q-2 60 9 60q116 0 147 3q6 0 6 7q4 40 4 384q0 351 -3 388q-3 19 -10 20q-32 3 -161 3q-2 6 1 32t10 26q86 2 207 2q5 0 7.5 -1.5t4.5 -4t4 -3.5v-908q0 -6 -5 -6z" />
    <glyph glyph-name="asciicircum" unicode="^" horiz-adv-x="480" 
d="M119 255q-11 -14 -64 -14q-3 0 -7 2.5t-4 4.5q16 21 85 164t84 183q1 1 23.5 6.5t25.5 5.5q29 -65 93 -193.5t82 -153.5q0 -5 -4 -6q-8 -4 -37 -11.5t-31 -5.5q-7 6 -26 42t-37.5 73.5t-39.5 81t-24 50.5q-1 2 -4 2t-4 -2q-21 -50 -61 -133.5t-50 -95.5z" />
    <glyph glyph-name="underscore" unicode="_" horiz-adv-x="500" 
d="M557 -182v-51h-569v51h569z" />
    <glyph glyph-name="grave" unicode="`" horiz-adv-x="400" 
d="M189 614q5 -11 24.5 -72t25.5 -84q-1 -4 -16 -11.5t-19 -6.5q-17 16 -62.5 71t-60.5 78q-2 10 5 15q9 4 52 8t51 2z" />
    <glyph glyph-name="a" unicode="a" horiz-adv-x="450" 
d="M255 261q0 31 -15 51q-23 31 -69 31q-34 0 -47 -15q-6 -6 -33 -61q-4 -3 -22.5 5t-18.5 13q1 10 9 37t13 32q37 26 85.5 45t74.5 19q77 0 120 -62q26 -37 26 -101q0 -24 -1.5 -79t-1.5 -75q0 -37 27 -37q18 0 35 5q2 -2 -0.5 -21.5t-5.5 -22.5q-19 -16 -52.5 -27
t-58.5 -11q-51 0 -61 30q-3 7 -5 18q0 1 -2 1.5t-3 -0.5q-32 -22 -65.5 -35t-47.5 -13q-34 0 -61 24q-41 36 -41 100q0 10 5.5 31.5t11.5 30.5q18 10 99.5 33.5t95.5 29.5q6 3 8 11q1 5 1 13zM254 195q0 5 -4 5q-7 -3 -28 -10t-36.5 -13t-20.5 -10q-8 -8 -8 -32
q0 -35 20 -52.5t46 -17.5q16 0 23 6q6 4 6 17q2 32 2 107z" />
    <glyph glyph-name="b" unicode="b" horiz-adv-x="528" 
d="M329 418q68 0 113 -50q47 -51 47 -133q0 -119 -83 -183q-30 -23 -84.5 -43.5t-87.5 -20.5q-47 0 -99 14q-30 7 -63 -2q-2 -1 -6.5 3t-4.5 6q6 48 6 255q-3 278 -5 290q-3 23 -22 27q-7 2 -41 7q-2 3 -1.5 18.5t3.5 18.5q44 2 107 13t95 23q2 -1 5 -9t2 -12q-7 -13 -9 -34
t-2 -89v-139q1 -5 5 -3q90 43 125 43zM241 343q-24 0 -36 -8q-6 -2 -6 -14q-2 -128 2 -210q0 -30 16 -42q25 -25 63 -25q27 0 48 26q28 37 28 111q0 75 -31 120q-29 42 -84 42z" />
    <glyph glyph-name="c" unicode="c" horiz-adv-x="437" 
d="M412 74q-35 -44 -83.5 -65t-94.5 -21q-98 0 -154 70q-42 55 -42 141q0 51 27.5 100t74.5 75q28 18 71 31t79 13q50 0 88 -14q28 -12 37 -29q3 -9 -1 -21q-5 -15 -21.5 -35.5t-26.5 -25.5q-13 -4 -16 1q-1 1 -11.5 13t-15.5 17t-16.5 15.5t-20 15.5t-21 9.5t-23.5 4.5
q-34 0 -55.5 -33t-21.5 -88q0 -70 32 -114q38 -52 106 -52q59 0 111 41q6 -3 7 -8q3 -27 -9 -41z" />
    <glyph glyph-name="d" unicode="d" horiz-adv-x="539" 
d="M530 65q1 -3 -2.5 -19.5t-5.5 -18.5q-28 -14 -93.5 -28.5t-85.5 -14.5q-2 0 -5 3.5t-3 5.5q-2 10 -2 49q0 4 -6 2q-81 -54 -133 -54q-66 0 -110 54q-46 57 -46 145q0 52 21.5 96.5t56.5 70.5q32 25 87 43.5t100 18.5q19 0 27 -1q5 0 5 5q0 95 -3 123q-2 30 -22 39
q-16 6 -55 11q-2 4 -1 19.5t5 16.5q43 0 113.5 10t100.5 20q2 -1 4.5 -9t1.5 -12q-10 -14 -11 -83v-19q-2 -122 -2 -276q0 -17 0.5 -76t0.5 -80q1 -35 17 -38q11 -3 46 -3zM250 371q-26 0 -46 -21q-31 -33 -31 -105q0 -80 32.5 -126.5t84.5 -46.5q19 0 35 10q8 5 8 19
q1 21 1.5 88t-0.5 108q0 34 -26 54q-27 20 -58 20z" />
    <glyph glyph-name="e" unicode="e" horiz-adv-x="457" 
d="M420 122q5 -5 5 -7q2 -18 -6 -37q-32 -41 -84 -65.5t-102 -24.5q-85 0 -135 48q-60 56 -60 165q0 60 25.5 108t68.5 74q58 35 121 35q41 0 72.5 -14.5t49.5 -39t27.5 -47.5t12.5 -47q2 -9 17 -14q1 -3 -2.5 -16t-5.5 -15q-38 -13 -249 -22q-5 -2 -5 -10q5 -47 39 -78
q33 -32 94 -32q63 0 117 39zM224 374q-26 0 -41.5 -32.5t-15.5 -80.5q0 -7 7 -7q18 -1 56 -0.5t50 2.5q5 1 8 9q-3 50 -19.5 79.5t-44.5 29.5z" />
    <glyph glyph-name="f" unicode="f" horiz-adv-x="306" 
d="M21 36q35 7 38 8q18 6 18 33q1 80 1 255q0 5 -6 7l-49 3q0 22 10 39q19 6 41 18q5 3 5 7q6 141 116 216q58 39 114 39q62 0 87 -32q1 -2 1.5 -9.5t-0.5 -10.5q-5 -15 -23 -41t-28 -32q-2 -2 -8 -2t-9 2q-55 62 -85 62q-15 0 -24 -12q-14 -19 -14 -108q0 -39 2 -67
q0 -7 7 -7q87 1 98 2q-6 -32 -10 -68l-89 2q-6 0 -6 -7q1 -41 2 -129t2 -117q1 -34 25 -41q12 -4 54 -11q3 -4 0.5 -20t-6.5 -18q-2 0 -46.5 1.5t-101.5 1.5q-32 0 -70.5 -1.5t-45.5 -1.5q-4 4 -4 20t4 19z" />
    <glyph glyph-name="g" unicode="g" horiz-adv-x="483" 
d="M231 418q47 0 112 -20q35 -11 63 -11q26 0 37 3.5t24 16.5q2 2 9.5 -2.5t7.5 -6.5q1 -9 -8.5 -33.5t-18.5 -33.5q-12 -12 -36 -12q-14 0 -20 1q-1 0 -1.5 -1.5t0.5 -2.5q5 -15 5 -36q0 -77 -57 -123q-47 -32 -118 -38q-3 0 -20.5 -0.5t-19.5 -0.5q-3 1 -8 -4.5t-5 -10.5
q0 -22 33 -25q146 -13 175 -21q33 -9 57.5 -35.5t24.5 -69.5q0 -57 -37 -102t-98 -74q-58 -27 -126 -27q-74 0 -124 29q-63 37 -63 92q0 26 6 39q16 15 90 56q1 0 1 1.5t-1 1.5q-62 29 -65 84q2 12 4 17q46 21 83 48q1 1 1 3.5t-1 2.5q-101 35 -101 139q0 75 61 117
q58 39 134 39zM216 378q-24 0 -39.5 -23.5t-15.5 -64.5q0 -130 70 -130q20 0 33 15q20 25 20 78q0 55 -17 90t-51 35zM254 -193q57 0 84.5 21t27.5 51q0 34 -35 52q-47 23 -156 23q-17 0 -26 -7q-27 -20 -27 -47q0 -33 24 -56q37 -37 108 -37z" />
    <glyph glyph-name="h" unicode="h" horiz-adv-x="541" 
d="M8 588q-4 3 -4 19t4 18q112 6 200 36q3 -1 6.5 -8.5t2.5 -11.5q-13 -23 -13 -96v-41q0 -40 -0.5 -84t-0.5 -52q0 -2 2 -3t3 0q76 53 127 53q63 0 98.5 -43.5t35.5 -123.5q0 -163 1 -182q0 -13 6 -17q18 -12 50 -16q4 -3 2 -19.5t-7 -19.5l-39 1q-40 2 -81 2
q-69 0 -108 -3q-5 5 -5 20t5 19l25 6q10 4 13.5 12.5t4.5 30.5q5 155 -3 196q-5 26 -26 42t-50 16q-27 0 -46 -10q-6 -2 -6 -12q0 -209 1 -225v-9.5t0.5 -9t1 -7.5t1 -6.5t1.5 -5t3 -5t4.5 -3t6.5 -2.5q22 -6 33 -8q5 -4 4 -19t-6 -20q-12 0 -49.5 1.5t-72.5 1.5
q-36 0 -72.5 -1.5t-42.5 -1.5q-4 5 -4 20.5t4 18.5q25 5 35 8q12 4 15 16t4 41q2 40 2 161q0 251 -4 290q-2 20 -18 28q-2 1 -44 8z" />
    <glyph glyph-name="i" unicode="i" horiz-adv-x="281" 
d="M268 36q3 -4 1 -19.5t-6 -19.5q-3 0 -43.5 1.5t-80.5 1.5q-32 0 -70.5 -1.5t-47.5 -1.5q-3 4 -3 19.5t3 19.5q28 5 39 9q6 2 9.5 6.5t4 11t1.5 20.5q2 46 2 128q0 72 -1 90q0 17 -7 25q-11 11 -43 24q-3 5 -1.5 18t4.5 16q23 0 84.5 10.5t95.5 24.5v-170q0 -115 1 -162
q0 -36 18 -42q13 -5 40 -9zM205 543q0 -37 -29 -61q-7 -7 -36.5 -9.5t-39.5 2.5q-24 10 -35 45q-3 8 -1.5 25.5t7.5 25.5q26 24 78 24q32 0 48 -13q8 -15 8 -39z" />
    <glyph glyph-name="j" unicode="j" horiz-adv-x="283" 
d="M210 544q0 -42 -28 -61q-8 -5 -37.5 -9.5t-38.5 -0.5q-28 15 -36 54q-7 32 7 46q25 25 77 25q16 0 29.5 -5.5t17.5 -11.5q9 -10 9 -37zM217 416q-1 -102 -1 -304q-2 -92 -11 -133q-20 -85 -70 -143t-90 -76q-28 1 -41 19q-1 3 -0.5 8.5t1.5 7.5q46 23 61 61.5t15 126.5
q0 264 -3 315q-2 30 -18 37q-7 5 -45 16q-3 6 -2.5 19.5t2.5 17.5q124 5 202 28z" />
    <glyph glyph-name="k" unicode="k" horiz-adv-x="509" 
d="M265 365q-2 5 -0.5 20.5t5.5 18.5q132 -2 211 7q4 -3 4 -19t-4 -21q-59 -11 -82 -36q-69 -66 -83 -83v-5q15 -27 69.5 -98.5t78.5 -91.5q14 -12 24 -15.5t41 -5.5q3 -4 0.5 -19.5t-6.5 -19.5q-29 -5 -128 -5q-42 1 -62 24q-27 26 -101 142q-19 27 -28 30q0 -66 1 -103
q1 -22 6 -30t19 -12q12 -3 34 -7q3 -5 0.5 -20.5t-6.5 -18.5q-8 0 -46 1.5t-74 1.5q-35 0 -73.5 -1.5t-48.5 -1.5q-4 4 -4 19.5t4 19.5q21 2 36 7q17 6 18 38q3 41 3 146q0 310 -2 326q-2 25 -17 31q-11 4 -41 10q-2 4 -2 18t2 17q44 1 107.5 12t90.5 20q2 -1 5 -9t2 -10
q-11 -18 -12 -103q-3 -174 -2 -319q20 3 44 22q27 22 53.5 54t26.5 43q0 13 -17 18q-6 1 -17 3t-19.5 3.5t-9.5 1.5z" />
    <glyph glyph-name="l" unicode="l" horiz-adv-x="277" 
d="M17 -3q-3 5 -3.5 19t2.5 20q18 3 39 10q15 6 17 50q1 33 1 224q0 187 -3 236q-2 18 -14 23q-9 5 -46 9q-3 4 -2.5 17.5t4.5 17.5q46 4 109.5 16t87.5 22q3 -1 6 -6.5t2 -9.5q-9 -22 -11 -84q-1 -27 -1 -109.5v-144.5q0 -210 1 -225q2 -19 6 -26.5t18 -11.5q11 -3 36 -8
q3 -6 1 -19.5t-6 -19.5q-4 0 -21 0.5t-46.5 1.5t-63.5 1q-35 0 -72 -1.5t-41 -1.5z" />
    <glyph glyph-name="m" unicode="m" horiz-adv-x="803" 
d="M21 36q15 2 35 9q12 4 15 13t4 29q2 28 2.5 105.5t-1.5 102.5q-2 15 -6 21q-10 11 -43 28q-2 5 -0.5 18.5t4.5 15.5q44 6 97.5 19.5t78.5 24.5q5 -2 5 -8q0 -1 -1 -23.5t-1 -33.5q0 -4 4 -3q1 0 2 1q83 63 133 63q33 0 60.5 -18t43.5 -49q2 -3 7 0q84 67 141 67
q60 0 95 -44.5t35 -121.5q0 -28 0.5 -95t0.5 -86q0 -8 4 -14q8 -9 56 -21q2 -5 1 -20t-5 -19q-11 0 -52.5 1.5t-65.5 1.5q-100 -2 -115 -3q-2 4 -2.5 19t2.5 20q18 4 23 6q12 4 15.5 12t4.5 30q2 138 -4 187q-3 24 -20 42t-49 18q-29 0 -56 -20q-2 -2 -2 -6q6 -27 6 -73
v-157q0 -21 12 -26q13 -8 38 -13q3 -4 1.5 -20t-5.5 -19q-120 3 -125 3q-20 0 -101 -3q-2 6 -2.5 20t2.5 19q28 6 32 8q12 4 14 30q5 161 -3 203q-5 23 -21 40t-47 17q-26 0 -49 -16q-9 -6 -9 -19q0 -37 0.5 -110t0.5 -110q0 -18 5 -25.5t17 -11.5q3 -1 28 -6
q2 -5 0.5 -19.5t-4.5 -19.5q-120 3 -121 3q-30 0 -114 -3q-3 5 -3.5 20t2.5 19z" />
    <glyph glyph-name="n" unicode="n" horiz-adv-x="545" 
d="M22 36q24 4 32 6q18 5 21 40q2 60 2 155q0 50 -2 72q-5 21 -49 36q0 21 5 33q98 12 170 44q5 -2 5 -7q0 -3 0.5 -24t0.5 -31q0 -6 5 -3q78 61 128 61q67 0 105 -55q28 -41 28 -119v-175q0 -11 8 -17q18 -11 50 -16q2 -4 0.5 -19.5t-5.5 -19.5q-1 0 -39.5 1.5t-80.5 1.5
q-8 0 -110 -3q-2 6 -2.5 20.5t2.5 18.5q3 1 13 3t14 4q14 5 16 25q2 21 1.5 101.5t-5.5 107.5q-5 30 -30 46q-15 11 -43 11q-24 0 -46 -13q-8 -5 -8 -17l2 -228q1 -18 5.5 -25t15.5 -9q7 -2 29 -6q2 -4 1 -19.5t-4 -19.5q-117 3 -119 3q-50 0 -116 -3q-2 6 -2.5 20.5
t2.5 18.5z" />
    <glyph glyph-name="o" unicode="o" horiz-adv-x="529" 
d="M272 418q104 0 162 -60t58 -151q0 -123 -92 -179q-25 -17 -65 -28.5t-75 -11.5q-111 0 -166.5 60t-55.5 157q0 113 89 172q65 41 145 41zM248 373q-10 0 -26 -8q-40 -26 -40 -129q0 -99 27 -151.5t70 -52.5q19 0 31 10q35 32 35 137q0 90 -25.5 142t-71.5 52z" />
    <glyph glyph-name="p" unicode="p" horiz-adv-x="533" 
d="M10 335q-2 5 -1 19t3 18q35 5 92 22.5t91 33.5q1 1 5.5 -3t4.5 -6q-2 -18 -2 -52q0 -2 2.5 -3t4.5 0q86 54 130 54q64 0 106 -47q49 -53 49 -136q0 -113 -82 -182q-37 -32 -89.5 -49t-96.5 -17h-20q-3 0 -3 -5q-1 -11 0 -58.5t1 -52.5q2 -21 7.5 -30t22.5 -13
q7 -2 28 -4.5t32 -4.5q1 -6 -1 -19.5t-5 -18.5h-27q-134 0 -259 -13q-3 5 -4.5 19.5t1.5 20.5q37 6 51 12q19 8 19 48q2 20 2 211q0 179 -2 210q-2 26 -18 33q-14 7 -42 13zM256 334q-25 0 -44 -11q-10 -5 -10 -16q0 -149 2 -192q2 -36 26 -55q25 -19 56 -19q29 0 48 24
q29 35 29 110q0 81 -32 122q-29 37 -75 37z" />
    <glyph glyph-name="q" unicode="q" horiz-adv-x="535" 
d="M542 -219h-81q-56 -1 -126 -7t-79 -6q-2 5 -2.5 20t1.5 19q33 5 53 13q21 7 22 48q4 64 4 155q0 2 -2.5 3.5t-3.5 0.5q-25 -16 -63 -28t-58 -12q-71 0 -120.5 55.5t-49.5 148.5q0 105 87 168q37 27 92 43t105 16q77 0 157 -23q-6 -21 -9 -57q-3 -69 -3 -141
q-2 -227 3 -312q1 -30 7 -41.5t20 -15.5q17 -3 51 -7q2 -4 0 -20.5t-5 -19.5zM252 366q-33 0 -55 -29.5t-22 -98.5q0 -88 38 -131.5t87 -43.5q17 0 29 5q5 2 5 9q0 207 -5 245q0 4 -4.5 12.5t-8.5 11.5q-29 20 -64 20z" />
    <glyph glyph-name="r" unicode="r" horiz-adv-x="382" 
d="M324 418q43 0 58 -31q3 -6 0 -22q-2 -13 -17.5 -46t-27.5 -47q-2 -3 -7.5 -4t-7.5 0q-38 43 -80 43q-16 0 -28 -9q-6 -9 -6 -15q-1 -40 -0.5 -113t1.5 -83q2 -25 6.5 -33.5t21.5 -12.5q15 -4 53 -9q2 -3 0.5 -19t-5.5 -20q-3 0 -52 1.5t-96 1.5q-29 0 -67.5 -1.5
t-50.5 -1.5q-2 5 -2.5 20.5t2.5 18.5q27 4 40 8q14 7 15 30q3 32 3 153q0 64 -2 79q-2 24 -53 41q-1 6 1 18t5 14q29 2 86.5 15.5t84.5 27.5q6 0 8 -6q-4 -44 -4 -74q1 -4 6 -2q46 46 59 56q26 22 56 22z" />
    <glyph glyph-name="s" unicode="s" horiz-adv-x="388" 
d="M337 405q-6 -30 -12 -122q-4 -2 -19 -3.5t-19 0.5q-12 66 -43 85q-17 11 -42 11q-21 0 -34 -12t-13 -29q0 -21 17.5 -36.5t79.5 -43.5q58 -26 81.5 -54.5t23.5 -70.5q0 -65 -53 -103t-127 -38q-65 0 -129 20q-12 53 -17 126q4 3 19.5 8t20.5 4q24 -75 64 -101
q22 -14 55 -14q23 0 36.5 11t13.5 28q0 19 -14 33t-49 30q-77 36 -106 69t-29 80q0 57 45 95t127 38q41 0 73 -5q39 -6 50 -6z" />
    <glyph glyph-name="t" unicode="t" horiz-adv-x="328" 
d="M307 338q-30 1 -102 1q-4 0 -4 -6q0 -18 -0.5 -71.5t-0.5 -78.5q0 -54 4 -75q2 -17 16.5 -28.5t36.5 -11.5q31 0 55 15q2 -5 1.5 -18.5t-2.5 -21.5q-42 -54 -122 -54q-77 0 -105 50q-11 19 -13.5 39.5t-2.5 68.5q0 27 0.5 94.5t0.5 87.5q0 8 -5 10l-51 3q0 18 10 46
q30 7 41 11q4 4 5 9q1 6 1 84q22 7 60 25.5t50 28.5q6 3 25 3q-4 -35 -4 -138q0 -7 4 -7q55 0 113 4q-9 -42 -11 -70z" />
    <glyph glyph-name="u" unicode="u" horiz-adv-x="531" 
d="M13 355q-2 8 0 22t5 18q147 6 189 17q-6 -68 -6 -187q0 -88 5 -108q11 -40 62 -40q32 0 49 17q4 4 7 13q4 29 0 207q0 25 -17 32q-3 1 -53 11q-2 8 -1 21t4 18q128 0 203 15v-17t-0.5 -40t-0.5 -45l-1 -204q2 -29 18 -32q18 -3 43 -1q0 -31 -6 -40q-27 -14 -93 -29.5
t-83 -15.5l-7 7q-6 22 -6 54q0 6 -5 3q-73 -61 -134 -61q-57 0 -85 34t-30 92q-1 25 -1 194q-1 12 -2 18.5t-5 11.5t-12 7q-10 4 -37 8z" />
    <glyph glyph-name="v" unicode="v" horiz-adv-x="466" 
d="M-7 368q-2 6 0 21t5 18q48 -3 127 -3q41 0 113 3q3 -5 4 -19.5t-3 -19.5q-34 -8 -35 -9q-9 -2 -5 -12q22 -65 76 -202q1 -1 2 0t1 2q52 123 68 175q10 31 -10 36q-23 7 -44 10q-3 6 -1.5 21t4.5 18q6 0 38 -1.5t55 -1.5q58 0 92 3q3 -4 3 -19t-3 -20q-31 -6 -37 -9
q-19 -8 -40 -51q-44 -91 -95 -217q-19 -48 -35 -93q-14 2 -40 1.5t-40 -2.5q-1 4 -31 88q-45 114 -76 184q-25 56 -34 70.5t-26 20.5q-9 3 -33 8z" />
    <glyph glyph-name="w" unicode="w" horiz-adv-x="669" 
d="M-16 368q-2 7 -1 21t4 18q10 0 53 -1.5t73 -1.5q58 0 124 3q4 -3 4.5 -19t-1.5 -20q-35 -8 -39 -11q-10 -7 -6 -18q17 -84 51 -183q3 -3 4 0q58 134 82 226q10 -1 36.5 -0.5t35.5 1.5q5 -19 23 -71q26 -66 67 -164q4 0 4 1q37 96 53 176q4 22 -15 30q-13 7 -54 13
q-3 5 -1 20.5t5 18.5q1 0 35.5 -1.5t66.5 -1.5q31 0 100 3q3 -4 3 -19.5t-3 -19.5q-26 -5 -39 -11q-26 -11 -41 -46q-49 -123 -114 -314q-35 4 -78 -1q-34 102 -86 219q-2 3 -5 0q-76 -187 -87 -219q-11 2 -39 2t-39 -2q-58 206 -90 292q-19 52 -30 62q-5 4 -11 7
q-11 5 -45 11z" />
    <glyph glyph-name="x" unicode="x" horiz-adv-x="443" 
d="M-15 36q40 6 55 14t40 36q48 51 78 96q5 3 1 9q-41 74 -76 125q-19 28 -32.5 36.5t-55.5 14.5q-2 5 -1 21t5 19q2 0 22 -0.5t49 -1.5t53 -1q86 0 119 3q3 -4 3.5 -20.5t-1.5 -19.5q-22 -4 -25 -6q-11 -5 -3 -16q21 -47 41 -74q1 -3 4 0q33 39 46 70q4 14 -6 18
q-13 7 -31 8q-3 34 4 40q5 0 34 -1.5t45 -1.5q44 0 89 3q3 -4 4 -18.5t-2 -21.5q-36 -6 -48.5 -12.5t-30.5 -25.5q-27 -30 -77 -98q-3 -3 -1 -6q8 -13 21 -35.5t23.5 -40t19.5 -30.5q5 -7 15 -22t12.5 -18.5t9.5 -13t10.5 -11t10 -6.5t13.5 -6t16 -2.5t22 -3.5
q2 -5 -0.5 -20.5t-5.5 -18.5q-11 0 -56.5 1.5t-67.5 1.5q-87 -1 -117 -3q-2 4 -3.5 19.5t0.5 19.5q23 5 27 11q5 5 1 14q-26 45 -48 80q-1 4 -5 0q-50 -73 -51 -80q0 -13 12 -17q8 -4 33 -8q2 -5 0 -19.5t-5 -19.5q-7 0 -38.5 1.5t-47.5 1.5q-57 0 -102 -3q-2 5 -2.5 20
t1.5 19z" />
    <glyph glyph-name="y" unicode="y" horiz-adv-x="462" 
d="M-15 368q-2 23 6 39q4 0 24.5 -0.5t50.5 -1.5t59 -1q31 0 118 3q6 -11 3 -39q-20 -5 -30 -10q-11 -5 -8 -18q10 -32 37 -100.5t36 -86.5h4q21 46 39.5 98.5t21.5 72.5q4 27 -16 33q-16 7 -44 11q-2 29 6 39q8 0 39 -1.5t52 -1.5q1 0 100 3q4 -26 1 -39q-20 -4 -35 -10
q-28 -11 -46 -59q-72 -190 -216 -458q-26 -46 -36 -66l-13 -4q-14 1 -40.5 11t-33.5 21q-4 13 1 23q109 128 136 183l-13 26q-11 24 -44 104t-53 126q-24 54 -35.5 70.5t-32.5 23.5q-2 1 -38 9z" />
    <glyph glyph-name="z" unicode="z" horiz-adv-x="426" 
d="M377 406q7 -7 5 -22q-11 -27 -75 -144.5t-104 -185.5q-1 -1 -0.5 -3t1.5 -2q30 -6 87 -6q40 0 84 97q6 6 38 6l5 -3q-8 -52 -45 -135q-7 -13 -38 -13t-154 3t-147 2q-5 8 -5 22q13 22 47.5 78t57 93t49 83.5t40.5 76.5q0 5 -3 5q-53 0 -66 -1q-35 -3 -50 -18.5t-42 -75.5
q-6 -2 -19.5 2t-17.5 9q12 52 26 141q30 -11 81 -11h154q47 0 91 2z" />
    <glyph glyph-name="braceleft" unicode="{" horiz-adv-x="445" 
d="M59 296q74 2 91.5 37t7.5 113q-6 54 -6 91q0 99 60 150t165 58q2 -1 4 -17.5t0 -21.5q-76 -16 -104.5 -46.5t-28.5 -89.5q0 -23 7 -78t7 -81q0 -103 -115 -132v-7q122 -13 122 -131q0 -31 -6 -85.5t-6 -77.5q0 -33 11.5 -56.5t32.5 -36.5t41 -19t47 -10q2 -4 -1.5 -21
t-6.5 -20q-55 -2 -103 12t-83 51t-35 92q0 37 6 101q5 54 6.5 92t-26.5 62t-96 33q-1 5 2.5 20t6.5 18z" />
    <glyph glyph-name="bar" unicode="|" horiz-adv-x="311" 
d="M113 710h85v-1020h-85v1020z" />
    <glyph glyph-name="braceright" unicode="}" horiz-adv-x="445" 
d="M386 255q-52 -1 -76.5 -20t-26.5 -52t3 -78q6 -54 6 -85q0 -99 -60 -150t-165 -59q-3 4 -5 20t1 19q76 18 104.5 47.5t28.5 89.5q0 23 -7 75t-7 78q0 104 116 135v6q-123 13 -123 129q0 32 6 89t6 80q0 33 -11.5 56.5t-32.5 36.5t-41 19t-47 10q-1 5 2 21.5t6 18.5
q87 3 154 -35.5t67 -119.5q0 -36 -6 -100q-4 -54 -5.5 -93t27 -64.5t96.5 -34.5q1 -5 -2.5 -19.5t-7.5 -19.5z" />
    <glyph glyph-name="asciitilde" unicode="~" horiz-adv-x="571" 
d="M209 317q35 0 103 -32q54 -27 82 -27q59 0 119 68h3q2 0 5.5 -1.5t3.5 -2.5q0 -30 -7 -54q-18 -32 -61.5 -61t-91.5 -29q-33 0 -104 38q-48 21 -83 21q-27 0 -65.5 -24.5t-57.5 -45.5q-2 -2 -5 0.5t-4 5.5q0 10 5 32.5t7 25.5q21 28 70 57t81 29z" />
    <glyph glyph-name="uni00A0" unicode="&#xa0;" horiz-adv-x="185" 
 />
    <glyph glyph-name="exclamdown" unicode="&#xa1;" horiz-adv-x="312" 
d="M92 -192q-21 0 -35 11q0 24 26 175.5t38 208.5q7 2 26 -1.5t23 -7.5q2 -12 19 -93t30.5 -150.5t15.5 -91.5q2 -6 -4.5 -18t-13.5 -15q-19 -8 -61.5 -13.5t-63.5 -4.5zM139 265q-32 0 -52 17q-26 25 -26 63q0 30 23 55q22 22 62 22q32 0 54 -21q20 -24 20 -58t-26 -58
q-25 -20 -55 -20z" />
    <glyph glyph-name="cent" unicode="&#xa2;" horiz-adv-x="514" 
d="M60 282q0 53 30 100t81 75q50 29 125 39l8 79q16 6 46 6l-9 -83q47 0 82 -13q33 -14 40 -28q0 -14 -2 -19q-4 -10 -17.5 -26t-20.5 -21h-15q-1 1 -15.5 17.5t-26.5 25.5t-27 14q-3 0 -5 -4l-25 -284q16 -2 26 -2q60 0 119 46q6 -10 3 -38q-59 -73 -154 -92q-4 0 -4 -4
l-8 -81q-22 -5 -46 -5l8 84q0 5 -3 5q-97 10 -145 68q-45 52 -45 141zM264 171l27 278q0 4 -5 4q-40 -5 -67.5 -40t-27.5 -98q0 -114 73 -144z" />
    <glyph glyph-name="sterling" unicode="&#xa3;" horiz-adv-x="514" 
d="M325 -26q-36 0 -106 22q-83 25 -112 25q-36 0 -71 -37q-3 0 -9 3.5t-6 5.5q0 7 11 43.5t15 39.5q20 15 38 25q1 0 2 1q6 2 8.5 4.5t8 12t7 26t4 46t-1.5 71.5q-64 0 -74 2l-1 6q0 6 4.5 20t7.5 19q2 0 24 -0.5t38 -0.5q-2 130 49 194q39 49 94 71t86 22q30 0 52 -6
t30.5 -12.5t8.5 -11.5q0 -17 -8.5 -41t-17.5 -36q-1 -3 -7 -3t-9 2l-16 17q-17 16 -24.5 22t-23 14t-29.5 8q-18 0 -27 -18q-15 -30 -15 -217q0 -5 5 -5q76 0 118 3q1 -3 0 -10t-2 -9q-18 -22 -39 -26q-24 -5 -81 -5q-5 0 -5 -5q-21 -91 -97 -145q31 5 106 -5q72 -11 90 -11
q44 0 66.5 15.5t45.5 73.5q2 2 5 2t5 -2q15 -11 18 -26q-26 -87 -70.5 -135.5t-94.5 -48.5z" />
    <glyph glyph-name="currency" unicode="&#xa4;" horiz-adv-x="514" 
d="M274 473q44 0 81 -24q4 -2 6 0q38 43 50 51q2 1 26.5 3t31.5 1q4 -2 4 -12q-39 -41 -72 -88q26 -38 26 -100t-32 -109q-3 -5 0 -10q52 -62 74 -82q0 -11 -5 -14q-13 -5 -39.5 -9t-31.5 0q-44 38 -60 56q-39 -29 -95 -29q-55 0 -94 33q-14 -12 -41.5 -40t-31.5 -32
q-1 -1 -6.5 0t-6.5 2q-4 10 -7 31.5t1 26.5q11 15 28 31.5t23 23.5v7q-21 44 -21 90q0 58 29 102q-5 6 -17 20t-21.5 25t-13.5 17q-3 4 -3 13q0 5 12 27.5t21 31.5q1 1 7 1t7 -2q41 -53 61 -72q3 -3 8 0q40 30 102 30zM246 411q-44 0 -67 -31.5t-23 -79.5q0 -62 31.5 -94.5
t77.5 -32.5q87 0 87 110q0 53 -30 90.5t-76 37.5z" />
    <glyph glyph-name="yen" unicode="&#xa5;" horiz-adv-x="514" 
d="M326 155q-4 0 -4 -6v-48q1 -17 2.5 -26.5t8.5 -17.5t21 -11q7 -2 15.5 -3.5t20 -3.5t19.5 -3q3 -4 1 -19.5t-4 -19.5q-16 0 -75 1.5t-90 1.5q-26 0 -72.5 -1.5t-73.5 -1.5q-4 3 -4 20.5t3 18.5q44 5 58 9q30 7 30 53q1 17 1 52q0 5 -4 5q-30 -1 -52.5 -1.5t-31.5 -0.5
q0 35 7 42q1 0 20 -0.5t57 -0.5q4 0 4 4v48q0 7 -6 7q-43 -1 -77 -1q0 34 7 41q2 0 24.5 -0.5t43.5 -0.5q2 0 3 2.5t0 5.5q-42 102 -85 180q-17 35 -30 47t-32 17q-14 3 -31 5q-3 6 -2 20t4 18q15 0 59 -1t72 -1q91 0 129 2q3 -4 3 -20t-2 -18q-11 -1 -28 -6t-8 -30
q32 -88 68 -157q1 -2 6 0q50 100 68 156q5 21 -15 28q-16 5 -45 9q-1 7 0 21.5t4 16.5q4 0 35.5 -1.5t60.5 -1.5q30 0 61.5 1.5t36.5 1.5q3 -3 3 -19t-3 -19q-24 -4 -34 -8q-22 -7 -35 -19.5t-31 -46.5q-58 -109 -85 -176q-2 -7 3 -7q22 0 41 0.5t28.5 1t13.5 0.5
q4 -14 -4 -41q-6 0 -30 0.5t-48 0.5q-5 0 -5 -5v-49q0 -6 5 -6q11 0 44 0.5t37 0.5q3 -22 -5 -41q-5 0 -28.5 0.5t-47.5 0.5z" />
    <glyph glyph-name="brokenbar" unicode="&#xa6;" horiz-adv-x="312" 
d="M112 631h87v-348h-87v348zM112 127h87v-355h-87v355z" />
    <glyph glyph-name="section" unicode="&#xa7;" horiz-adv-x="491" 
d="M257 541q-18 0 -20 -20q0 -14 15 -53q17 -38 109 -178q66 -97 66 -173q0 -81 -42 -143q-32 -52 -85 -85.5t-93 -33.5q-81 0 -133 50q-16 18 -16 30q0 5 6.5 26.5t12.5 31.5q4 2 7 2q33 -37 73 -55t61 -18q17 0 17 20q0 23 -24 56q-4 7 -80 116q-91 133 -91 229
q0 113 73 191q26 29 67.5 51t75.5 22q70 0 120 -43q16 -16 16 -30q0 -21 -19 -52l-7 -2q-17 15 -55 38t-54 23zM291 -68q65 37 65 124q0 37 -13.5 76.5t-24.5 59t-41 69.5q-3 5 -17.5 26t-19.5 30t-17 28.5t-17.5 32t-13 30t-10.5 33.5t-4 32q-3 31 10 66
q-38 -6 -61.5 -45.5t-23.5 -83.5q0 -88 83 -216q4 -6 31 -45.5t39.5 -60t27 -52.5t14.5 -54q2 -26 -7 -50z" />
    <glyph glyph-name="dieresis" unicode="&#xa8;" horiz-adv-x="400" 
d="M166 541q0 -31 -25 -54q-5 -6 -30 -8t-32 2q-20 9 -31 40q-5 30 4 44q25 23 67 23q28 0 41 -13q6 -11 6 -34zM350 541q0 -31 -25 -54q-5 -6 -30 -8t-32 2q-19 10 -30 40q-5 32 3 44q25 23 67 23q28 0 41 -13q6 -11 6 -34z" />
    <glyph glyph-name="copyright" unicode="&#xa9;" horiz-adv-x="738" 
d="M370 628q134 0 227 -94t93 -229q0 -136 -93.5 -230.5t-226.5 -94.5q-134 0 -227.5 94.5t-93.5 230.5q0 134 94 228.5t227 94.5zM370 588q-114 0 -194.5 -82.5t-80.5 -200.5t81 -200.5t195 -82.5q112 0 192.5 83.5t80.5 199.5q0 118 -80.5 200.5t-193.5 82.5zM400 463
q-47 0 -74 -42t-27 -109q0 -37 8.5 -69.5t36 -59.5t69.5 -27q45 0 94 71q4 0 14 -6.5t10 -10.5q-5 -19 -23 -48.5t-25 -33.5q-42 -11 -87 -11q-98 0 -155 50.5t-57 138.5q0 80 56 134t160 54q31 0 71 -5q33 -4 55 -3q-6 -50 -8 -107q-2 -2 -15.5 -3.5t-16.5 0.5
q-6 49 -34 70q-23 17 -52 17z" />
    <glyph glyph-name="ordfeminine" unicode="&#xaa;" horiz-adv-x="329" 
d="M331 275q1 -4 -2 -19.5t-6 -18.5q-12 -13 -40.5 -22t-50.5 -9q-40 0 -49 26l-3 12l-5 1q-56 -38 -81 -38q-26 0 -45 18q-26 24 -26 68q0 28 12 43q12 7 70 23.5t70 22.5q4 3 6 8v10q0 27 -8 38q-18 23 -49 23q-22 0 -30 -10q-4 -4 -13.5 -22t-10.5 -19q-2 -2 -19 3.5
t-16 9.5q0 5 6.5 25t9.5 23q27 20 61.5 33t53.5 13q27 0 53.5 -13.5t39.5 -32.5q20 -31 20 -74q0 -17 -1.5 -50t-1.5 -48q0 -27 26 -27q16 0 29 3zM181 351q0 2 -1.5 3.5t-2.5 0.5q-41 -17 -51 -27q-6 -3 -6 -18q0 -41 39 -41q10 0 14 4q5 2 5 11q3 34 3 67z" />
    <glyph glyph-name="guillemotleft" unicode="&#xab;" horiz-adv-x="692" 
d="M196 192q43 -26 94.5 -67t66.5 -61q4 -4 5 -25.5t0 -27.5q-1 -3 -8 -6q-25 25 -130 89.5t-150 80.5q4 27 10 35q66 28 154 83.5t126 86.5q4 -1 7 -7q0 -9 -3.5 -29.5t-5.5 -22.5q-15 -19 -68 -57.5t-97 -65.5q-3 -3 -1 -6zM444 192q43 -26 94.5 -67t66.5 -61
q4 -4 5.5 -24t0.5 -29q-3 -6 -8 -6q-26 25 -131.5 89.5t-150.5 80.5q4 25 11 35q66 29 155 84.5t125 85.5q4 0 6 -7q0 -10 -3 -30t-5 -22q-15 -18 -67.5 -56.5t-96.5 -66.5q-4 -3 -2 -6z" />
    <glyph glyph-name="logicalnot" unicode="&#xac;" horiz-adv-x="571" 
d="M88 277q-36 0 -36 7q12 59 17 68q12 -2 198 -2h83h63t41.5 0.5t27 0.5h10.5q6 0 6 -7q0 -6 -0.5 -82.5t-0.5 -114.5q0 -69 2 -95q-35 -11 -69 -11q-2 0 -5 3t-3 5q-1 39 -1 198q0 30 -17 30h-316z" />
    <glyph glyph-name="uni00AD" unicode="&#xad;" horiz-adv-x="312" 
d="M54 247q29 0 119 2.5t100 2.5q1 0 1 -12q-2 -14 -9 -41.5t-10 -28.5q-5 -2 -97 -4.5t-118 -2.5q-2 0 -2 11q1 16 7 44.5t9 28.5z" />
    <glyph glyph-name="registered" unicode="&#xae;" horiz-adv-x="348" 
d="M174 615q63 0 106 -42.5t43 -107.5q0 -63 -43.5 -106.5t-105.5 -43.5t-105.5 42.5t-43.5 107.5q0 63 43.5 106.5t105.5 43.5zM174 585q-50 0 -82.5 -34.5t-32.5 -85.5q0 -49 33.5 -84.5t81.5 -35.5q49 0 82 35.5t33 84.5q0 50 -33.5 85t-81.5 35zM97 400q-2 9 0 15
q23 4 23 14v79q0 11 -20 13q-1 1 -1 9t2 9q3 0 17 -1t20 -1q10 0 33.5 0.5t25.5 0.5q20 0 31.5 -10t11.5 -26q0 -26 -30 -35q23 -35 28 -40q13 -11 25 -12q1 -2 -0.5 -8.5t-3.5 -7.5q-3 -1 -21.5 0t-25.5 2q-8 3 -16 13q-5 6 -11.5 18t-11.5 19q-3 9 -9 9v-30q0 -10 19 -14
q1 -1 1 -7.5t-1 -8.5q-3 0 -18 1t-22 1t-25 -1t-21 -1zM164 474q12 0 22 3q11 8 11 18q0 25 -25 25q-8 0 -8 -6v-40z" />
    <glyph glyph-name="macron" unicode="&#xaf;" horiz-adv-x="400" 
d="M96 560q18 -2 47 -2q27 0 75.5 -0.5t75 -0.5t29.5 1q0 -11 -7.5 -40t-10.5 -30q-14 -3 -192 -3q-31 0 -35 2q1 8 8.5 39.5t9.5 33.5z" />
    <glyph glyph-name="degree" unicode="&#xb0;" horiz-adv-x="306" 
d="M151 608q55 0 85.5 -34.5t30.5 -88.5q0 -51 -35.5 -85t-83.5 -34q-51 0 -85.5 32t-34.5 84q0 59 35.5 92.5t87.5 33.5zM146 554q-28 0 -46.5 -19t-18.5 -45q0 -35 20.5 -52t48.5 -17q65 0 65 63q0 28 -18.5 49t-50.5 21z" />
    <glyph glyph-name="plusminus" unicode="&#xb1;" horiz-adv-x="571" 
d="M509 3l-461 -3q-2 0 -2 10q3 44 13 65q7 -2 119 -2h344l3 -9q-1 -14 -6 -37t-10 -24zM525 371q-12 -58 -17 -59t-35 -1h-75t-74 -1q-2 0 -4.5 -3t-2.5 -5q-1 -35 -0.5 -71.5t0.5 -67.5t-1 -34q-1 -4 -25 -11t-37 -9q-2 -1 -5 1t-3 3v32t-0.5 74.5t-0.5 90.5
q-74 -1 -196 -1q-3 0 -3 10q5 48 13 66q10 -3 120 -3h66v64q0 84 -2 114q7 3 35 8t34 5q5 0 5 -36v-34v-54v-57q0 -10 7 -10h197q4 0 4 -11z" />
    <glyph glyph-name="two.k" unicode="&#xb2;" horiz-adv-x="365" 
d="M128 662q-38 0 -81 -40q-3 -1 -11.5 10.5t-8.5 15.5q29 45 68.5 70.5t79.5 25.5q51 0 86 -34t35 -83q0 -33 -14.5 -58.5t-52.5 -60.5q-17 -16 -69 -53v-3q0 -2 3 -3q17 -3 99 -3q27 2 55 56q2 2 15.5 -3t15.5 -8q-25 -91 -40 -114q-8 -15 -42 -17q-28 -1 -94 1t-92 2
q-32 0 -46 -1q-1 8 -1 31q73 48 120 103q39 49 39 98q0 29 -16.5 48.5t-47.5 19.5z" />
    <glyph glyph-name="three.k" unicode="&#xb3;" horiz-adv-x="360" 
d="M180 744q48 0 77.5 -26t29.5 -65q0 -41 -59 -75q-3 0 -1 -2q94 -28 94 -100q0 -63 -72 -106q-52 -31 -112 -31q-47 0 -68 12q-12 7 -21 23q-11 29 -15 57q1 4 11 10t15 5q18 -36 50 -55q23 -13 53 -13q25 0 40.5 15t15.5 45q0 36 -27.5 59t-67.5 23q-12 0 -20 -1
q-1 3 6 23t10 22q78 13 78 53q0 24 -17.5 40t-43.5 16q-39 0 -77 -34q-2 0 -6 5.5t-7 13t-3 9.5q66 77 137 77z" />
    <glyph glyph-name="acute" unicode="&#xb4;" horiz-adv-x="400" 
d="M215 616q9 4 52 6t52 -1q2 -1 3.5 -7t0.5 -9q-9 -17 -62 -81t-71 -81q-4 -1 -18 7t-16 12q57 150 59 154z" />
    <glyph glyph-name="mu" unicode="&#xb5;" horiz-adv-x="501" 
d="M59 381q8 9 49.5 21t63.5 14q15 0 21 -3q0 -14 -4 -120.5t-4 -137.5q0 -24 3 -31q10 -30 41 -30q27 0 47 20.5t29 53.5q5 30 5 43v173q6 7 47.5 18.5t63.5 12.5q11 0 21 -2q-16 -76 -16 -198v-65q0 -34 7 -45.5t21 -11.5q16 0 44 13q1 -1 2 -14.5t0 -18.5
q-18 -38 -54.5 -62t-65.5 -24q-33 0 -50.5 20.5t-18.5 83.5q0 1 -2.5 1t-3.5 -1q-27 -56 -59 -80t-56 -24q-33 0 -48 22q-2 -36 -1 -79q3 -47 32 -72.5t83 -38.5q1 -3 -2 -16t-6 -16q-12 -12 -46.5 -23.5t-59.5 -11.5q-28 0 -45.5 25.5t-22.5 95.5q-3 38 -7 236
q-1 43 -8 272z" />
    <glyph glyph-name="paragraph" unicode="&#xb6;" horiz-adv-x="600" 
d="M543 568q-34 -4 -50 -8q-19 -5 -26 -12.5t-12.5 -49.5t-4.5 -131q1 -45 0.5 -137.5t-0.5 -136.5q0 -84 -18 -146.5t-47.5 -95.5t-60 -48.5t-61.5 -15.5q-25 0 -48.5 11.5t-31.5 26.5q-15 32 -13 82q2 9 13 15q23 -17 58.5 -30t68.5 -13q49 0 63.5 55.5t10.5 200.5
q-45 -20 -91 -22q-116 14 -181 81t-65 172q0 52 20.5 94t54.5 68.5t72.5 42t80.5 21.5q53 8 159.5 12.5t108.5 4.5q3 -3 2.5 -19.5t-2.5 -21.5zM272 365q0 -78 26.5 -130t84.5 -58q0 22 -2 111t-2 127q0 108 13 133q-61 -5 -90.5 -47t-29.5 -136z" />
    <glyph glyph-name="periodcentered" unicode="&#xb7;" horiz-adv-x="264" 
d="M133 279q33 0 54 -21q27 -25 27 -67q0 -36 -22 -58q-25 -25 -64 -25q-29 0 -54 23q-24 24 -24 62q0 37 24 61q27 25 59 25z" />
    <glyph glyph-name="cedilla" unicode="&#xb8;" horiz-adv-x="399" 
d="M207 5l39 -1l-31 -40q3 -2 12.5 -7t18 -10.5t14.5 -11.5q25 -22 25 -53q0 -43 -43 -72.5t-75 -29.5q-43 0 -61 30q-2 17 4 30q32 -17 63 -17q38 0 38 29q0 35 -72 57q-1 6 1 11z" />
    <glyph glyph-name="one.k" unicode="&#xb9;" horiz-adv-x="352" 
d="M300 396q1 -3 0 -18t-4 -18q-18 0 -58.5 1.5t-69.5 1.5q-31 0 -64.5 -1.5t-48.5 -1.5q-2 4 -2 18t2 16l40 6q14 3 19 12t6 28q2 52 2 109q0 87 -2 106q-2 18 -16 21q-4 1 -20 2t-21 2q-2 2 -1.5 17t2.5 17q103 8 165 33q11 0 11 -4q-4 -23 -4 -103q0 -171 1 -197
q3 -36 22 -41q17 -4 41 -6z" />
    <glyph glyph-name="ordmasculine" unicode="&#xba;" horiz-adv-x="397" 
d="M204 517q78 0 121.5 -43.5t43.5 -109.5q0 -91 -68 -131q-43 -26 -105 -26q-82 0 -125 42.5t-43 113.5q0 83 66 123q52 31 110 31zM191 477q-22 0 -35 -25t-13 -70q0 -70 18 -103.5t47 -33.5q47 0 47 99q0 65 -17 99t-47 34z" />
    <glyph glyph-name="guillemotright" unicode="&#xbb;" horiz-adv-x="692" 
d="M247 193q-42 26 -93.5 67t-66.5 61q-4 4 -5.5 24t-0.5 29l8 6q26 -25 132 -90t150 -80q-4 -25 -11 -35q-66 -30 -155.5 -85.5t-124.5 -84.5q-4 2 -6 7q0 10 3 30t5 22q15 18 67.5 56.5t96.5 66.5q5 3 1 6zM496 193q-43 26 -94.5 67t-66.5 61q-4 4 -5 25.5t0 27.5
q0 1 3 3.5t5 2.5q24 -24 130 -89t150 -81q-4 -27 -10 -35q-66 -29 -154.5 -84t-125.5 -86q-6 3 -7 7q4 44 9 52q15 18 67.5 56.5t96.5 66.5q4 3 2 6z" />
    <glyph glyph-name="onequarter" unicode="&#xbc;" horiz-adv-x="838" 
d="M777 89q-7 0 -25.5 0.5t-31.5 0.5q-4 0 -4 -4l1 -109q-45 0 -111 -7l1 116q0 4 -3 4l-69 1q-21 0 -47.5 -0.5t-34.5 -0.5q-2 2 0 16t4 18q16 21 59.5 78.5t78 103.5t44.5 58q30 7 75 7q0 -142 1 -221q0 -4 3 -4q40 0 70 2q-7 -32 -11 -59zM310 248q1 -3 0 -18t-4 -18
q-18 0 -58.5 1.5t-69.5 1.5q-31 0 -64.5 -1.5t-48.5 -1.5q-2 4 -2 18t2 16l40 6q14 3 19 12t6 28q2 52 2 109q0 87 -2 106q-2 18 -16 21q-4 1 -20 2t-21 2q-2 2 -1.5 17t2.5 17q103 8 165 33q11 0 11 -4q-4 -23 -4 -103q0 -171 1 -197q3 -36 22 -41q17 -4 41 -6zM603 630
q1 1 19 0.5t22 -2.5v-2q1 -3 1 -5q-7 -10 -195 -335t-202 -347q-6 -5 -9 -2q-18 16 -22 28q4 10 193.5 336t192.5 329zM520 146q21 -1 85 -1q2 0 2 4l2 124h-3q-41 -50 -86 -123v-4z" />
    <glyph glyph-name="onehalf" unicode="&#xbd;" horiz-adv-x="838" 
d="M586 287q-38 0 -81 -40q-3 -1 -11.5 10.5t-8.5 15.5q29 45 68.5 70.5t79.5 25.5q51 0 86 -34t35 -83q0 -33 -14.5 -58.5t-52.5 -60.5q-17 -16 -69 -53v-2q0 -3 3 -4q17 -3 99 -3q27 2 55 56q2 2 15.5 -3t15.5 -8q-25 -91 -40 -114q-8 -15 -42 -17q-28 -1 -94 1t-92 2
q-32 0 -46 -1q-1 8 -1 31q73 48 120 103q39 49 39 98q0 29 -16.5 48.5t-47.5 19.5zM296 248q1 -3 0 -18t-4 -18q-18 0 -58.5 1.5t-69.5 1.5q-31 0 -64.5 -1.5t-48.5 -1.5q-2 4 -2 18t2 16l40 6q14 3 19 12t6 28q2 52 2 109q0 87 -2 106q-2 18 -16 21q-4 1 -20 2t-21 2
q-2 2 -1.5 17t2.5 17q103 8 165 33q11 0 11 -4q-4 -23 -4 -103q0 -171 1 -197q3 -36 22 -41q17 -4 41 -6zM585 630q1 1 19 0.5t22 -2.5v-2q1 -3 1 -5q-7 -10 -195 -335t-202 -347q-6 -5 -9 -2q-18 16 -22 28q4 10 193.5 336t192.5 329z" />
    <glyph glyph-name="threequarters" unicode="&#xbe;" horiz-adv-x="838" 
d="M778 89q-7 0 -25.5 0.5t-31.5 0.5q-4 0 -4 -4l1 -109q-44 0 -111 -7l1 116q0 4 -3 4l-69 1q-21 0 -47.5 -0.5t-34.5 -0.5q-2 2 0 16t4 18q16 21 59.5 78.5t78 103.5t44.5 58q30 7 75 7q0 -142 1 -221q0 -4 3 -4q40 0 70 2q-7 -32 -11 -59zM204 596q48 0 77.5 -26
t29.5 -65q0 -41 -59 -75q-3 0 -1 -2q94 -28 94 -100q0 -63 -72 -106q-52 -31 -112 -31q-47 0 -68 12q-12 7 -21 23q-11 29 -15 57q1 4 11 10t15 5q18 -36 50 -55q23 -13 53 -13q25 0 40.5 15t15.5 45q0 36 -27.5 59t-67.5 23q-12 0 -20 -1q-1 3 6 23t10 22q78 13 78 53
q0 24 -17.5 40t-43.5 16q-39 0 -77 -34q-2 0 -6 5.5t-7 13t-3 9.5q66 77 137 77zM610 630q1 1 19 0.5t22 -2.5l1 -2v-5q-7 -10 -195 -335t-202 -347q-5 -5 -9 -2q-18 16 -22 28q4 10 193.5 336t192.5 329zM521 146q21 -1 85 -1q2 0 2 4l2 124h-3q-41 -50 -86 -123v-4z" />
    <glyph glyph-name="questiondown" unicode="&#xbf;" horiz-adv-x="378" 
d="M181 105q0 22 -27 50q-6 7 3 16q6 6 35.5 19.5t36.5 14.5q14 2 25 -3q25 -10 40 -30t15 -38q0 -28 -12 -35q-10 -6 -56.5 -28.5t-57.5 -28.5q-25 -13 -25 -37q0 -54 121 -87l27 -6q13 -3 13 -21q0 -11 -14.5 -40.5t-26.5 -38.5q-15 -10 -32 -10q-70 0 -134 46
q-67 50 -67 112q0 47 19 62q9 9 25 18.5t41 23t34 18.5q17 8 17 23zM207 263q-30 0 -52 17q-26 26 -26 63q0 30 23 56q21 21 62 21q32 0 54 -21q20 -23 20 -58q0 -33 -26 -57q-24 -21 -55 -21z" />
    <glyph glyph-name="Agrave" unicode="&#xc0;" horiz-adv-x="644" 
d="M-16 36q53 8 72.5 22t38.5 60q59 136 158 411q17 44 22 77q16 -2 53 -2q38 0 53 2q16 -54 19 -62q130 -360 147 -404q26 -65 43 -80.5t73 -23.5q2 -4 0.5 -20t-4.5 -19q-6 0 -54 1.5t-96 1.5q-46 0 -94 -1.5t-61 -1.5q-2 5 -2.5 20t1.5 19q41 7 51 13q12 9 9 20
q-9 47 -43 127q-2 7 -11 7h-79h-78q-7 0 -11 -10q-35 -101 -35 -114q0 -27 28 -33q24 -6 50 -10q2 -4 1 -19.5t-4 -19.5q-9 0 -51.5 1.5t-77.5 1.5q-19 0 -59.5 -1.5t-58.5 -1.5q-3 5 -3 19.5t3 19.5zM283 456h-4q-9 -25 -30.5 -90.5t-30.5 -90.5q-2 -6 3 -8q11 -1 58 -1
q56 0 64 1q3 0 3 5q-25 85 -63 184zM255 805q15 -10 60 -62t61 -76q2 -3 -9.5 -16.5t-15.5 -13.5q-7 0 -82 41t-91 54q-1 0 -1 7t1 8q6 10 36.5 34t40.5 24z" />
    <glyph glyph-name="Aacute" unicode="&#xc1;" horiz-adv-x="644" 
d="M-16 36q53 8 72.5 22t38.5 60q59 136 158 411q17 44 22 77q16 -2 53 -2q38 0 53 2q16 -54 19 -62q130 -360 147 -404q26 -65 43 -80.5t73 -23.5q2 -4 0.5 -20t-4.5 -19q-6 0 -54 1.5t-96 1.5q-46 0 -94 -1.5t-61 -1.5q-2 5 -2.5 20t1.5 19q41 7 51 13q12 9 9 20
q-9 47 -43 127q-2 7 -11 7h-79h-78q-7 0 -11 -10q-35 -101 -35 -114q0 -27 28 -33q24 -6 50 -10q2 -4 1 -19.5t-4 -19.5q-9 0 -51.5 1.5t-77.5 1.5q-19 0 -59.5 -1.5t-58.5 -1.5q-3 5 -3 19.5t3 19.5zM283 456h-4q-9 -25 -30.5 -90.5t-30.5 -90.5q-2 -6 3 -8q11 -1 58 -1
q56 0 64 1q3 0 3 5q-25 85 -63 184zM409 792q10 0 37 -23.5t33 -34.5q1 -1 1 -5.5t-1 -6.5q-15 -13 -96 -52.5t-89 -39.5q-4 0 -14.5 13t-9.5 18q26 27 75 74t64 57z" />
    <glyph glyph-name="Acircumflex" unicode="&#xc2;" horiz-adv-x="644" 
d="M-16 36q53 8 72.5 22t38.5 60q59 136 158 411q17 44 22 77q16 -2 53 -2q38 0 53 2q16 -54 19 -62q130 -360 147 -404q26 -65 43 -80.5t73 -23.5q2 -4 0.5 -20t-4.5 -19q-6 0 -54 1.5t-96 1.5q-46 0 -94 -1.5t-61 -1.5q-2 5 -2.5 20t1.5 19q41 7 51 13q12 9 9 20
q-9 47 -43 127q-2 7 -11 7h-79h-78q-7 0 -11 -10q-35 -101 -35 -114q0 -27 28 -33q24 -6 50 -10q2 -4 1 -19.5t-4 -19.5q-9 0 -51.5 1.5t-77.5 1.5q-19 0 -59.5 -1.5t-58.5 -1.5q-3 5 -3 19.5t3 19.5zM283 456h-4q-9 -25 -30.5 -90.5t-30.5 -90.5q-2 -6 3 -8q11 -1 58 -1
q56 0 64 1q3 0 3 5q-25 85 -63 184zM312 767q9 7 24 7q19 -19 140 -114q0 -4 -8 -17.5t-12 -13.5q-5 0 -61 23t-68 30q-5 2 -9 0q-18 -10 -67.5 -31.5t-53.5 -21.5t-11 12.5t-6 17.5q24 17 73 56.5t59 51.5z" />
    <glyph glyph-name="Atilde" unicode="&#xc3;" horiz-adv-x="644" 
d="M-16 36q53 8 72.5 22t38.5 60q59 136 158 411q17 44 22 77q16 -2 53 -2q38 0 53 2q16 -54 19 -62q130 -360 147 -404q26 -65 43 -80.5t73 -23.5q2 -4 0.5 -20t-4.5 -19q-6 0 -54 1.5t-96 1.5q-46 0 -94 -1.5t-61 -1.5q-2 5 -2.5 20t1.5 19q41 7 51 13q12 9 9 20
q-9 47 -43 127q-2 7 -11 7h-79h-78q-7 0 -11 -10q-35 -101 -35 -114q0 -27 28 -33q24 -6 50 -10q2 -4 1 -19.5t-4 -19.5q-9 0 -51.5 1.5t-77.5 1.5q-19 0 -59.5 -1.5t-58.5 -1.5q-3 5 -3 19.5t3 19.5zM283 456h-4q-9 -25 -30.5 -90.5t-30.5 -90.5q-2 -6 3 -8q11 -1 58 -1
q56 0 64 1q3 0 3 5q-25 85 -63 184zM401 721q39 0 75 35q3 3 7 -10q4 -16 3 -23q-12 -24 -47 -48t-68 -24q-23 0 -75 19q-30 10 -45 10q-27 0 -67 -35q-1 -1 -3 2t-4 7t-3 8.5t-1.5 8t0.5 4.5q10 18 45.5 46t58.5 28q21 0 68 -15q37 -13 56 -13z" />
    <glyph glyph-name="Adieresis" unicode="&#xc4;" horiz-adv-x="644" 
d="M-16 36q53 8 72.5 22t38.5 60q59 136 158 411q17 44 22 77q16 -2 53 -2q38 0 53 2q16 -54 19 -62q130 -360 147 -404q26 -65 43 -80.5t73 -23.5q2 -4 0.5 -20t-4.5 -19q-6 0 -54 1.5t-96 1.5q-46 0 -94 -1.5t-61 -1.5q-2 5 -2.5 20t1.5 19q41 7 51 13q12 9 9 20
q-9 47 -43 127q-2 7 -11 7h-79h-78q-7 0 -11 -10q-35 -101 -35 -114q0 -27 28 -33q24 -6 50 -10q2 -4 1 -19.5t-4 -19.5q-9 0 -51.5 1.5t-77.5 1.5q-19 0 -59.5 -1.5t-58.5 -1.5q-3 5 -3 19.5t3 19.5zM283 456h-4q-9 -25 -30.5 -90.5t-30.5 -90.5q-2 -6 3 -8q11 -1 58 -1
q56 0 64 1q3 0 3 5q-25 85 -63 184zM293 700q0 -33 -26 -56q-5 -6 -31 -8t-33 2q-22 12 -32 41q-5 35 4 46q23 23 70 23q30 0 42 -12q6 -15 6 -36zM482 700q0 -33 -27 -56q-5 -6 -31 -8t-33 2q-21 11 -31 41q-5 35 4 46q23 23 69 23q30 0 42 -12q7 -14 7 -36z" />
    <glyph glyph-name="Aring" unicode="&#xc5;" horiz-adv-x="644" 
d="M-16 36q53 8 72.5 22t38.5 60q59 136 158 411q17 44 22 77q16 -2 53 -2q38 0 53 2q16 -54 19 -62q130 -360 147 -404q26 -65 43 -80.5t73 -23.5q2 -4 0.5 -20t-4.5 -19q-6 0 -54 1.5t-96 1.5q-46 0 -94 -1.5t-61 -1.5q-2 5 -2.5 20t1.5 19q41 7 51 13q12 9 9 20
q-9 47 -43 127q-2 7 -11 7h-79h-78q-7 0 -11 -10q-35 -101 -35 -114q0 -27 28 -33q24 -6 50 -10q2 -4 1 -19.5t-4 -19.5q-9 0 -51.5 1.5t-77.5 1.5q-19 0 -59.5 -1.5t-58.5 -1.5q-3 5 -3 19.5t3 19.5zM283 456h-4q-9 -25 -30.5 -90.5t-30.5 -90.5q-2 -6 3 -8q11 -1 58 -1
q56 0 64 1q3 0 3 5q-25 85 -63 184zM329 781q39 0 61 -22t22 -55q0 -37 -24.5 -59t-62.5 -22q-29 0 -56.5 19t-27.5 58q0 37 22.5 59t65.5 22zM325 739q-45 0 -45 -37q0 -17 14 -26.5t35 -9.5q18 0 32 10t14 24q0 39 -50 39z" />
    <glyph glyph-name="AE" unicode="&#xc6;" horiz-adv-x="887" 
d="M230 568q-3 5 -1.5 21t3.5 18q19 0 103 -1.5t118 -1.5h212q91 0 134 7l4 -4q-6 -28 -15 -155q-4 -4 -21.5 -4.5t-21.5 2.5q-8 47 -19 71q-11 25 -41 27q-20 2 -74 2.5t-70 -1.5q-3 0 -6 -6.5t-3 -11.5q2 -24 8 -95t10 -109q2 -8 8 -8q87 0 120 2q15 1 22 7.5t13 24.5
q1 4 2.5 10.5t3.5 15.5t3 13q4 2 23 1.5t23 -4.5q0 -1 -2.5 -40t-2.5 -59q0 -53 2 -99q-9 -3 -24.5 -3.5t-22.5 2.5q-6 28 -11 45q-9 21 -33 24q-17 2 -110 2q-6 0 -6 -8q9 -104 14 -153q5 -40 22 -43q19 -3 107 -3q31 0 47 6t31 26q38 58 52 89q6 1 22.5 -5t19.5 -10
q-2 -22 -16.5 -72t-25.5 -73q-6 -13 -19 -16t-42 -3q-5 0 -92.5 2t-163.5 2q-26 0 -94.5 -2t-95.5 -2q-3 6 -3.5 21t1.5 19q57 7 77 13q28 7 26 47q-2 48 -11 154q-2 7 -5 7q-9 1 -99 1q-22 0 -41 -0.5t-24 -0.5q-7 0 -11 -9q-75 -147 -76 -168q-2 -27 26 -34l51 -10
q2 -4 1 -19t-3 -21q-21 0 -66 2t-70 2q-20 0 -60 -2t-55 -2q-3 4 -3 19.5t4 20.5q52 8 72 21.5t45 57.5q67 116 225 428q0 7 -5 10zM389 548q-1 2 -4 2t-4 -1q-8 -18 -51.5 -105t-56.5 -116q-3 -7 3 -9q12 -1 44 -1q66 0 81 1q6 0 6 4q-10 164 -18 225z" />
    <glyph glyph-name="Ccedilla" unicode="&#xc7;" horiz-adv-x="677" 
d="M576 435q-11 53 -24.5 77.5t-40.5 39.5q-48 26 -115 26q-82 0 -129.5 -65.5t-47.5 -194.5q0 -51 12 -98t37 -88t69.5 -66t102.5 -25q57 0 92 30q37 31 79 101q8 -2 19 -9.5t15 -14.5q-11 -35 -38 -81.5t-47 -59.5q-69 -23 -136 -25l-15 -24q24 -13 46 -29q28 -22 28 -56
q0 -45 -45 -76.5t-79 -31.5q-44 0 -64 32q0 5 2 16t2 12q30 -17 66 -17q40 0 40 32q0 39 -78 63q1 6 3 10q31 42 52 70q-158 7 -244 89t-86 236q0 88 42 161t123 112q85 41 202 41q42 0 118 -8q56 -6 81 -6q-3 -134 -1 -167q-3 -5 -21 -7.5t-20 1.5z" />
    <glyph glyph-name="Egrave" unicode="&#xc8;" horiz-adv-x="601" 
d="M32 568q-3 5 -2 20.5t4 18.5q20 0 74.5 -1.5t79.5 -1.5h207q90 0 132 7q3 -1 4 -5q-8 -36 -14 -153q-4 -4 -21.5 -4.5t-21.5 1.5q-8 48 -19 70q-10 26 -41 28q-21 2 -75 2t-66 -2q-3 -1 -6.5 -7.5t-3.5 -10.5v-188q0 -8 7 -8q108 0 125 1q26 1 34 33q2 6 4.5 19.5
t3.5 18.5q4 2 23 1.5t24 -4.5q-6 -69 -6 -98q0 -49 2 -103q-5 -3 -22.5 -3.5t-22.5 2.5l-10 42q-9 23 -33 27q-18 2 -121 2q-3 0 -5.5 -3.5t-2.5 -5.5v-168q0 -26 22 -33q33 -7 129 -7q32 0 46.5 5.5t30.5 25.5q30 36 53 90q5 1 21.5 -5.5t20.5 -10.5q-20 -95 -47 -148
q-8 -16 -53 -16q-36 0 -133.5 2t-158.5 2q-26 0 -91.5 -1.5t-92.5 -1.5q-2 7 -2 21t2 18q49 5 76 13q28 7 29 47q2 39 2 235q0 150 -2 187q-1 20 -7.5 28t-21.5 13q-17 5 -54 9zM243 813q15 -10 60 -62t61 -76q2 -3 -9.5 -16.5t-15.5 -13.5q-7 0 -82 41t-91 54q-1 0 -1 7
t1 8q6 10 36.5 34t40.5 24z" />
    <glyph glyph-name="Eacute" unicode="&#xc9;" horiz-adv-x="601" 
d="M32 568q-3 5 -2 20.5t4 18.5q20 0 74.5 -1.5t79.5 -1.5h207q90 0 132 7q3 -1 4 -5q-8 -36 -14 -153q-4 -4 -21.5 -4.5t-21.5 1.5q-8 48 -19 70q-10 26 -41 28q-21 2 -75 2t-66 -2q-3 -1 -6.5 -7.5t-3.5 -10.5v-188q0 -8 7 -8q108 0 125 1q26 1 34 33q2 6 4.5 19.5
t3.5 18.5q4 2 23 1.5t24 -4.5q-6 -69 -6 -98q0 -49 2 -103q-5 -3 -22.5 -3.5t-22.5 2.5l-10 42q-9 23 -33 27q-18 2 -121 2q-3 0 -5.5 -3.5t-2.5 -5.5v-168q0 -26 22 -33q33 -7 129 -7q32 0 46.5 5.5t30.5 25.5q30 36 53 90q5 1 21.5 -5.5t20.5 -10.5q-20 -95 -47 -148
q-8 -16 -53 -16q-36 0 -133.5 2t-158.5 2q-26 0 -91.5 -1.5t-92.5 -1.5q-2 7 -2 21t2 18q49 5 76 13q28 7 29 47q2 39 2 235q0 150 -2 187q-1 20 -7.5 28t-21.5 13q-17 5 -54 9zM400 803q10 0 37 -23.5t33 -34.5q1 -1 1 -6t-1 -6q-15 -13 -96 -52.5t-89 -39.5q-4 0 -14.5 13
t-9.5 18q26 27 75 74t64 57z" />
    <glyph glyph-name="Ecircumflex" unicode="&#xca;" horiz-adv-x="601" 
d="M32 568q-3 5 -2 20.5t4 18.5q20 0 74.5 -1.5t79.5 -1.5h207q90 0 132 7q3 -1 4 -5q-8 -36 -14 -153q-4 -4 -21.5 -4.5t-21.5 1.5q-8 48 -19 70q-10 26 -41 28q-21 2 -75 2t-66 -2q-3 -1 -6.5 -7.5t-3.5 -10.5v-188q0 -8 7 -8q108 0 125 1q26 1 34 33q2 6 4.5 19.5
t3.5 18.5q4 2 23 1.5t24 -4.5q-6 -69 -6 -98q0 -49 2 -103q-5 -3 -22.5 -3.5t-22.5 2.5l-10 42q-9 23 -33 27q-18 2 -121 2q-3 0 -5.5 -3.5t-2.5 -5.5v-168q0 -26 22 -33q33 -7 129 -7q32 0 46.5 5.5t30.5 25.5q30 36 53 90q5 1 21.5 -5.5t20.5 -10.5q-20 -95 -47 -148
q-8 -16 -53 -16q-36 0 -133.5 2t-158.5 2q-26 0 -91.5 -1.5t-92.5 -1.5q-2 7 -2 21t2 18q49 5 76 13q28 7 29 47q2 39 2 235q0 150 -2 187q-1 20 -7.5 28t-21.5 13q-17 5 -54 9zM288 782q9 7 24 7q19 -19 140 -114q0 -4 -8 -17.5t-12 -13.5q-5 0 -61 23t-68 30q-5 2 -9 0
q-18 -10 -67.5 -31.5t-53.5 -21.5t-11 12.5t-6 17.5q24 17 73 56.5t59 51.5z" />
    <glyph glyph-name="Edieresis" unicode="&#xcb;" horiz-adv-x="601" 
d="M32 568q-3 5 -2 20.5t4 18.5q20 0 74.5 -1.5t79.5 -1.5h207q90 0 132 7q3 -1 4 -5q-8 -36 -14 -153q-4 -4 -21.5 -4.5t-21.5 1.5q-8 48 -19 70q-10 26 -41 28q-21 2 -75 2t-66 -2q-3 -1 -6.5 -7.5t-3.5 -10.5v-188q0 -8 7 -8q108 0 125 1q26 1 34 33q2 6 4.5 19.5
t3.5 18.5q4 2 23 1.5t24 -4.5q-6 -69 -6 -98q0 -49 2 -103q-5 -3 -22.5 -3.5t-22.5 2.5l-10 42q-9 23 -33 27q-18 2 -121 2q-3 0 -5.5 -3.5t-2.5 -5.5v-168q0 -26 22 -33q33 -7 129 -7q32 0 46.5 5.5t30.5 25.5q30 36 53 90q5 1 21.5 -5.5t20.5 -10.5q-20 -95 -47 -148
q-8 -16 -53 -16q-36 0 -133.5 2t-158.5 2q-26 0 -91.5 -1.5t-92.5 -1.5q-2 7 -2 21t2 18q49 5 76 13q28 7 29 47q2 39 2 235q0 150 -2 187q-1 20 -7.5 28t-21.5 13q-17 5 -54 9zM269 722q0 -33 -26 -56q-5 -6 -31 -8t-33 2q-22 12 -32 41q-5 35 4 46q23 23 70 23
q30 0 42 -12q6 -15 6 -36zM458 722q0 -33 -27 -56q-5 -6 -31 -8t-33 2q-21 11 -31 41q-5 35 4 46q23 23 69 23q30 0 42 -12q7 -14 7 -36z" />
    <glyph glyph-name="Igrave" unicode="&#xcc;" horiz-adv-x="373" 
d="M29 568q-3 4 -2.5 19.5t4.5 19.5q13 0 62.5 -1.5t88.5 -1.5q60 0 107.5 1.5t49.5 1.5q2 -4 2.5 -19t-2.5 -20q-40 -6 -55 -10q-15 -5 -19 -16t-5 -33q-1 -16 -1 -182q0 -213 1 -232q2 -40 30 -48q13 -4 60 -11q3 -4 0.5 -20t-6.5 -19q-111 3 -154 3q-52 0 -100.5 -1.5
t-60.5 -1.5q-4 3 -4 19.5t4 19.5q37 5 47 8q20 5 27 14.5t9 38.5q2 31 2 228q0 150 -3 192q-2 33 -25 40q-20 6 -57 11zM110 806q15 -10 60 -62t61 -76q2 -3 -9.5 -16.5t-15.5 -13.5q-7 0 -82 41t-91 54q-1 0 -1 7t1 8q6 10 36.5 34t40.5 24z" />
    <glyph glyph-name="Iacute" unicode="&#xcd;" horiz-adv-x="373" 
d="M29 568q-3 4 -2.5 19.5t4.5 19.5q13 0 62.5 -1.5t88.5 -1.5q60 0 107.5 1.5t49.5 1.5q2 -4 2.5 -19t-2.5 -20q-40 -6 -55 -10q-15 -5 -19 -16t-5 -33q-1 -16 -1 -182q0 -213 1 -232q2 -40 30 -48q13 -4 60 -11q3 -4 0.5 -20t-6.5 -19q-111 3 -154 3q-52 0 -100.5 -1.5
t-60.5 -1.5q-4 3 -4 19.5t4 19.5q37 5 47 8q20 5 27 14.5t9 38.5q2 31 2 228q0 150 -3 192q-2 33 -25 40q-20 6 -57 11zM278 805q10 0 37 -23.5t33 -34.5q1 -1 1 -6t-1 -6q-15 -13 -96 -52.5t-89 -39.5q-4 0 -14.5 13t-9.5 18q26 27 75 74t64 57z" />
    <glyph glyph-name="Icircumflex" unicode="&#xce;" horiz-adv-x="373" 
d="M29 568q-3 4 -2.5 19.5t4.5 19.5q13 0 62.5 -1.5t88.5 -1.5q60 0 107.5 1.5t49.5 1.5q2 -4 2.5 -19t-2.5 -20q-40 -6 -55 -10q-15 -5 -19 -16t-5 -33q-1 -16 -1 -182q0 -213 1 -232q2 -40 30 -48q13 -4 60 -11q3 -4 0.5 -20t-6.5 -19q-111 3 -154 3q-52 0 -100.5 -1.5
t-60.5 -1.5q-4 3 -4 19.5t4 19.5q37 5 47 8q20 5 27 14.5t9 38.5q2 31 2 228q0 150 -3 192q-2 33 -25 40q-20 6 -57 11zM171 780q9 7 24 7q19 -19 140 -114q0 -4 -8 -17.5t-12 -13.5q-5 0 -61 23t-68 30q-4 2 -9 0q-18 -10 -67.5 -31.5t-53.5 -21.5t-11 12.5t-6 17.5
q24 17 73 56.5t59 51.5z" />
    <glyph glyph-name="Idieresis" unicode="&#xcf;" horiz-adv-x="373" 
d="M29 568q-3 4 -2.5 19.5t4.5 19.5q13 0 62.5 -1.5t88.5 -1.5q60 0 107.5 1.5t49.5 1.5q2 -4 2.5 -19t-2.5 -20q-40 -6 -55 -10q-15 -5 -19 -16t-5 -33q-1 -16 -1 -182q0 -213 1 -232q2 -40 30 -48q13 -4 60 -11q3 -4 0.5 -20t-6.5 -19q-111 3 -154 3q-52 0 -100.5 -1.5
t-60.5 -1.5q-4 3 -4 19.5t4 19.5q37 5 47 8q20 5 27 14.5t9 38.5q2 31 2 228q0 150 -3 192q-2 33 -25 40q-20 6 -57 11zM152 722q0 -33 -26 -56q-5 -6 -31 -8t-33 2q-22 12 -32 41q-5 35 4 46q23 23 70 23q30 0 42 -12q6 -15 6 -36zM341 722q0 -33 -27 -56q-5 -6 -31 -8
t-33 2q-21 11 -31 41q-5 35 4 46q23 23 69 23q30 0 42 -12q7 -14 7 -36z" />
    <glyph glyph-name="Eth" unicode="&#xd0;" horiz-adv-x="736" 
d="M26 568q-3 5 -1.5 20t4.5 19q9 0 73 -1.5t80 -1.5q28 0 85 1.5t102 1.5q134 0 212 -62q49 -39 76 -99t27 -128q0 -153 -103 -241q-102 -84 -282 -84q-31 0 -114 2t-126 2h-41q-4 6 -4 22t4 17q35 4 59 10q31 7 34 46q3 34 3 202q-66 -2 -79 -2q-1 8 2 24.5t6 19.5
q5 0 30 -0.5t41 -0.5q0 94 -2 178q-2 21 -7.5 29.5t-22.5 14.5q-20 7 -56 11zM262 99q2 -18 16 -32q26 -26 82 -26q65 0 111 57q57 77 57 204q0 69 -26 130t-74 95q-48 36 -127 36q-26 0 -33 -5q-7 -2 -7 -12q-1 -17 -1 -211q146 2 149 2q1 -5 -1.5 -22t-4.5 -22
q-25 0 -73 0.5t-70 0.5q0 -176 2 -195z" />
    <glyph glyph-name="Ntilde" unicode="&#xd1;" horiz-adv-x="731" 
d="M20 567q-3 3 -2.5 20.5t2.5 19.5q13 0 61.5 -1.5t86.5 -1.5q49 0 81 2q7 -19 38 -57q210 -268 285 -355q1 0 2.5 0.5t2.5 0.5q-2 261 -6 305q-2 26 -12 39t-33 19q-20 5 -62 10q-3 3 -2.5 20t2.5 19q7 0 52.5 -1.5t84.5 -1.5q37 0 78 1.5t46 1.5q2 -3 2 -19.5t-2 -19.5
q-24 -3 -40 -8q-23 -7 -32 -19t-12 -44q-9 -109 -9 -364q0 -66 2 -140q-37 6 -104 -1q-234 313 -348 458q-6 4 -6 -1q-2 -262 3 -337q1 -31 12 -45.5t33 -19.5t60 -11q3 -3 3 -18.5t-4 -20.5q-19 0 -63.5 1.5t-67.5 1.5q-26 0 -72.5 -1.5t-62.5 -1.5q-3 4 -3 20t3 19
q45 8 60 13q28 10 33 58q10 87 10 381q0 20 -9.5 39t-26.5 25q-36 12 -64 15zM452 738q39 0 75 35q3 3 7 -10q4 -16 3 -23q-12 -24 -47 -48t-68 -24q-23 0 -75 19q-30 10 -45 10q-27 0 -67 -35q-1 -1 -3 2t-4 7t-3 8.5t-1.5 8t0.5 4.5q10 18 45.5 46t58.5 28q21 0 68 -15
q37 -13 56 -13z" />
    <glyph glyph-name="Ograve" unicode="&#xd2;" horiz-adv-x="763" 
d="M381 -18q-157 0 -245 91q-84 87 -84 229q0 153 101 234q94 86 239 86q150 0 234.5 -89t84.5 -221q0 -125 -61 -203q-48 -63 -118.5 -95t-150.5 -32zM411 32q45 0 75 30q61 60 61 215q0 81 -22 152t-66 110q-41 35 -94 35q-46 0 -74 -22q-75 -54 -75 -218q0 -76 23 -149.5
t72 -115.5q45 -37 100 -37zM312 820q15 -10 60 -62t61 -76q2 -3 -9.5 -16.5t-15.5 -13.5q-7 0 -82 41t-91 54q-1 0 -1 7t1 8q6 10 36.5 34t40.5 24z" />
    <glyph glyph-name="Oacute" unicode="&#xd3;" horiz-adv-x="763" 
d="M381 -18q-157 0 -245 91q-84 87 -84 229q0 153 101 234q94 86 239 86q150 0 234.5 -89t84.5 -221q0 -125 -61 -203q-48 -63 -118.5 -95t-150.5 -32zM411 32q45 0 75 30q61 60 61 215q0 81 -22 152t-66 110q-41 35 -94 35q-46 0 -74 -22q-75 -54 -75 -218q0 -76 23 -149.5
t72 -115.5q45 -37 100 -37zM453 819q10 0 37 -23.5t33 -34.5q1 -1 1 -6t-1 -6q-15 -13 -96 -52.5t-89 -39.5q-4 0 -14.5 13t-9.5 18q26 27 75 74t64 57z" />
    <glyph glyph-name="Ocircumflex" unicode="&#xd4;" horiz-adv-x="763" 
d="M381 -18q-157 0 -245 91q-84 87 -84 229q0 153 101 234q94 86 239 86q150 0 234.5 -89t84.5 -221q0 -125 -61 -203q-48 -63 -118.5 -95t-150.5 -32zM411 32q45 0 75 30q61 60 61 215q0 81 -22 152t-66 110q-41 35 -94 35q-46 0 -74 -22q-75 -54 -75 -218q0 -76 23 -149.5
t72 -115.5q45 -37 100 -37zM366 786q9 7 24 7q19 -19 140 -114q0 -4 -8 -17.5t-12 -13.5q-5 0 -61 23t-68 30q-5 2 -9 0q-18 -10 -67.5 -31.5t-53.5 -21.5t-11 12.5t-6 17.5q24 17 73 56.5t59 51.5z" />
    <glyph glyph-name="Otilde" unicode="&#xd5;" horiz-adv-x="763" 
d="M381 -18q-157 0 -245 91q-84 87 -84 229q0 153 101 234q94 86 239 86q150 0 234.5 -89t84.5 -221q0 -125 -61 -203q-48 -63 -118.5 -95t-150.5 -32zM411 32q45 0 75 30q61 60 61 215q0 81 -22 152t-66 110q-41 35 -94 35q-46 0 -74 -22q-75 -54 -75 -218q0 -76 23 -149.5
t72 -115.5q45 -37 100 -37zM452 742q39 0 75 35q3 3 7 -10q4 -16 3 -23q-12 -24 -47 -48t-68 -24q-23 0 -75 19q-30 10 -45 10q-27 0 -67 -35q-1 -1 -3 2t-4 7t-3 8.5t-1.5 8t0.5 4.5q10 18 45.5 46t58.5 28q21 0 68 -15q37 -13 56 -13z" />
    <glyph glyph-name="Odieresis" unicode="&#xd6;" horiz-adv-x="763" 
d="M381 -18q-157 0 -245 91q-84 87 -84 229q0 153 101 234q94 86 239 86q150 0 234.5 -89t84.5 -221q0 -125 -61 -203q-48 -63 -118.5 -95t-150.5 -32zM411 32q45 0 75 30q61 60 61 215q0 81 -22 152t-66 110q-41 35 -94 35q-46 0 -74 -22q-75 -54 -75 -218q0 -76 23 -149.5
t72 -115.5q45 -37 100 -37zM347 731q0 -33 -26 -56q-5 -6 -31 -8t-33 2q-22 12 -32 41q-5 35 4 46q23 23 70 23q30 0 42 -12q6 -15 6 -36zM536 731q0 -33 -27 -56q-5 -6 -31 -8t-33 2q-21 11 -31 41q-5 35 4 46q23 23 69 23q30 0 42 -12q7 -14 7 -36z" />
    <glyph glyph-name="multiply" unicode="&#xd7;" horiz-adv-x="571" 
d="M446 459q5 9 71 13q2 -1 4 -7t0 -9q-43 -56 -190 -221v-7q126 -145 184 -194q3 -12 -4 -19q-10 -2 -46.5 1.5t-47.5 12.5q-27 21 -138 144q-5 5 -8 1q-122 -135 -138 -148q-11 -7 -75 -15q-2 1 -4.5 8t-1.5 10q14 12 85.5 88t91.5 100q4 5 0 9q-123 136 -170 196
q0 6 14.5 28.5t21.5 30.5q2 1 8.5 1t8.5 -1q5 -10 72.5 -90t101.5 -116q136 152 160 184z" />
    <glyph glyph-name="Oslash" unicode="&#xd8;" horiz-adv-x="763" 
d="M207 20l-41 -59q-1 -1 -19 3t-23 6l-1 4l47 69q-118 90 -118 259q0 153 101 234q94 86 239 86q87 0 157 -33l36 54q1 2 18 -0.5t24 -5.5l1 -6l-43 -63q63 -41 94.5 -110t31.5 -146q0 -125 -61 -203q-48 -63 -118.5 -95t-150.5 -32q-98 0 -174 38zM246 150l247 359
q-47 66 -128 66q-45 0 -74 -23q-82 -59 -82 -218q0 -107 37 -184zM515 467l-247 -359q50 -76 143 -76q49 0 80 30q62 59 62 215q0 120 -38 190z" />
    <glyph glyph-name="Ugrave" unicode="&#xd9;" horiz-adv-x="722" 
d="M16 568q-2 6 -2 20.5t3 18.5q19 0 73 -1.5t85 -1.5q33 0 87 1.5t74 1.5q3 -5 3 -19.5t-3 -19.5q-8 -1 -17 -2.5t-18.5 -3.5t-12.5 -3q-32 -6 -34 -55v-200q0 -77 7 -129q17 -116 157 -116q28 0 50.5 5.5t45.5 21t37 49t18 83.5q4 55 4 148.5t-3 127.5q-2 30 -10.5 44
t-31.5 19q-14 5 -64 11q-2 5 -1.5 19t3.5 20q19 0 62 -1.5t67 -1.5q49 0 86 1.5t40 1.5q4 -5 4 -20t-4 -19q-42 -8 -44 -9q-18 -5 -26 -19.5t-10 -51.5q-1 -18 -4.5 -110t-4.5 -123q-5 -148 -74 -210.5t-194 -62.5q-233 0 -254 188q-4 43 -7 337q-2 40 -33 50q-26 8 -54 11z
M320 807q15 -10 60 -62t61 -76q2 -3 -9.5 -16.5t-15.5 -13.5q-7 0 -82 41t-91 54q-1 0 -1 7t1 8q6 10 36.5 34t40.5 24z" />
    <glyph glyph-name="Uacute" unicode="&#xda;" horiz-adv-x="722" 
d="M16 568q-2 6 -2 20.5t3 18.5q19 0 73 -1.5t85 -1.5q33 0 87 1.5t74 1.5q3 -5 3 -19.5t-3 -19.5q-8 -1 -17 -2.5t-18.5 -3.5t-12.5 -3q-32 -6 -34 -55v-200q0 -77 7 -129q17 -116 157 -116q28 0 50.5 5.5t45.5 21t37 49t18 83.5q4 55 4 148.5t-3 127.5q-2 30 -10.5 44
t-31.5 19q-14 5 -64 11q-2 5 -1.5 19t3.5 20q19 0 62 -1.5t67 -1.5q49 0 86 1.5t40 1.5q4 -5 4 -20t-4 -19q-42 -8 -44 -9q-18 -5 -26 -19.5t-10 -51.5q-1 -18 -4.5 -110t-4.5 -123q-5 -148 -74 -210.5t-194 -62.5q-233 0 -254 188q-4 43 -7 337q-2 40 -33 50q-26 8 -54 11z
M478 806q10 0 37 -23.5t33 -34.5q1 -1 1 -5.5t-1 -6.5q-15 -13 -96 -52.5t-89 -39.5q-4 0 -14.5 13t-9.5 18q26 27 75 74t64 57z" />
    <glyph glyph-name="Ucircumflex" unicode="&#xdb;" horiz-adv-x="722" 
d="M16 568q-2 6 -2 20.5t3 18.5q19 0 73 -1.5t85 -1.5q33 0 87 1.5t74 1.5q3 -5 3 -19.5t-3 -19.5q-8 -1 -17 -2.5t-18.5 -3.5t-12.5 -3q-32 -6 -34 -55v-200q0 -77 7 -129q17 -116 157 -116q28 0 50.5 5.5t45.5 21t37 49t18 83.5q4 55 4 148.5t-3 127.5q-2 30 -10.5 44
t-31.5 19q-14 5 -64 11q-2 5 -1.5 19t3.5 20q19 0 62 -1.5t67 -1.5q49 0 86 1.5t40 1.5q4 -5 4 -20t-4 -19q-42 -8 -44 -9q-18 -5 -26 -19.5t-10 -51.5q-1 -18 -4.5 -110t-4.5 -123q-5 -148 -74 -210.5t-194 -62.5q-233 0 -254 188q-4 43 -7 337q-2 40 -33 50q-26 8 -54 11z
M379 782q9 7 24 7q19 -19 140 -114q0 -4 -8 -17.5t-12 -13.5q-5 0 -61 23t-68 30q-4 2 -9 0q-18 -10 -67.5 -31.5t-53.5 -21.5t-11 12.5t-6 17.5q24 17 73 56.5t59 51.5z" />
    <glyph glyph-name="Udieresis" unicode="&#xdc;" horiz-adv-x="722" 
d="M16 568q-2 6 -2 20.5t3 18.5q19 0 73 -1.5t85 -1.5q33 0 87 1.5t74 1.5q3 -5 3 -19.5t-3 -19.5q-8 -1 -17 -2.5t-18.5 -3.5t-12.5 -3q-32 -6 -34 -55v-200q0 -77 7 -129q17 -116 157 -116q28 0 50.5 5.5t45.5 21t37 49t18 83.5q4 55 4 148.5t-3 127.5q-2 30 -10.5 44
t-31.5 19q-14 5 -64 11q-2 5 -1.5 19t3.5 20q19 0 62 -1.5t67 -1.5q49 0 86 1.5t40 1.5q4 -5 4 -20t-4 -19q-42 -8 -44 -9q-18 -5 -26 -19.5t-10 -51.5q-1 -18 -4.5 -110t-4.5 -123q-5 -148 -74 -210.5t-194 -62.5q-233 0 -254 188q-4 43 -7 337q-2 40 -33 50q-26 8 -54 11z
M366 722q0 -33 -26 -56q-5 -6 -31 -8t-33 2q-22 12 -32 41q-5 35 4 46q23 23 70 23q30 0 42 -12q6 -15 6 -36zM555 722q0 -33 -27 -56q-5 -6 -31 -8t-33 2q-21 11 -31 41q-5 35 4 46q23 23 69 23q30 0 42 -12q7 -14 7 -36z" />
    <glyph glyph-name="Yacute" unicode="&#xdd;" horiz-adv-x="588" 
d="M-23 569q-3 6 -2 20t4 18q16 0 63 -1.5t76 -1.5q101 0 158 3q3 -4 3.5 -19.5t-2.5 -19.5q-11 -1 -30 -6t-7 -30q12 -29 51 -106t51 -96q2 -2 7 0q27 44 60 109t39 88q3 14 -1 21t-20 11q-17 4 -54 9q-2 7 -0.5 22t4.5 17q12 0 53 -1.5t73 -1.5q31 0 67.5 1.5t50.5 1.5
q3 -3 3 -19t-3 -20q-8 -2 -25.5 -4.5t-23.5 -4.5q-23 -8 -37 -20.5t-35 -46.5q-74 -117 -119 -211q-12 -23 -12 -48q0 -27 2 -129q1 -18 2.5 -27.5t9 -19t21.5 -12.5l58 -10q3 -4 1 -20t-5 -19q-13 0 -75 2t-95 2q-44 0 -90.5 -2t-65.5 -2q-3 3 -3 20t3 19q29 3 64 10
q29 8 29 56q1 23 1 122q0 20 -13 51q-38 82 -113 213q-22 40 -37 54t-36 20q-23 7 -50 8zM420 802q10 0 37 -23.5t33 -34.5q1 -1 1 -5.5t-1 -6.5q-15 -13 -96 -52.5t-89 -39.5q-4 0 -14.5 13t-9.5 18q26 27 75 74t64 57z" />
    <glyph glyph-name="Thorn" unicode="&#xde;" horiz-adv-x="608" 
d="M29 36q42 6 54 9q26 8 28 55q2 38 2 219q0 161 -2 188q-2 25 -8 36.5t-24 16.5q-15 5 -51 8q-2 8 -0.5 21t3.5 18q8 0 59.5 -1.5t93.5 -1.5q37 0 87 1.5t68 1.5q1 -4 1 -18.5t-1 -20.5q-11 -2 -29 -5t-26 -5q-15 -5 -19.5 -14.5t-4.5 -29.5v-33q1 -5 5 -5q36 1 107 1
q92 0 140 -34q60 -45 60 -129q0 -106 -86 -154q-58 -32 -136 -32q-34 0 -49 5q-7 2 -7 24q-1 10 0 17q2 0 9 -0.5t16 -0.5q33 0 52 11q46 28 46 112q0 66 -31.5 100t-87.5 34q-23 0 -31 -4q-7 -7 -7 -14q-1 -33 -1 -180q0 -81 2 -136q2 -43 32 -50q11 -3 30.5 -5.5
t30.5 -4.5q3 -7 2.5 -20t-3.5 -19q-24 0 -73.5 1.5t-78.5 1.5t-91 -1.5t-81 -1.5q-3 6 -3 20.5t3 18.5z" />
    <glyph glyph-name="germandbls" unicode="&#xdf;" horiz-adv-x="547" 
d="M78 340l-55 3q-1 8 2.5 22.5t6.5 17.5q26 4 47 19q0 71 28.5 125.5t73.5 86.5q64 47 132 47q76 0 119.5 -43.5t43.5 -104.5q0 -27 -15 -57q-10 -13 -21.5 -24.5t-26.5 -25.5t-22 -21q-11 -9 -11 -21q0 -5 13.5 -17.5t36 -31t32.5 -28.5q53 -50 53 -109q0 -110 -120 -175
q-32 -15 -63 -15q-35 0 -52 15q-7 23 -1 71q1 2 5 5.5t5 2.5q52 -37 83 -37q42 0 42 48q0 42 -58 94q-11 10 -31 26.5t-32.5 28t-22.5 23.5q-4 5 -0.5 31.5t9.5 33.5l23 20q45 41 60.5 71t15.5 73t-27 82.5t-67 39.5q-44 0 -60 -60.5t-16 -200.5q0 -201 3 -279q1 -23 22 -31
q13 -5 31 -9q3 -6 2 -20.5t-4 -18.5q-12 0 -52.5 1.5t-71.5 1.5q-30 0 -66 -1.5t-52 -1.5q-8 16 0 39q12 2 33 7q16 5 20.5 11.5t4.5 23.5v262z" />
    <glyph glyph-name="agrave" unicode="&#xe0;" horiz-adv-x="450" 
d="M255 261q0 31 -15 51q-23 31 -69 31q-34 0 -47 -15q-6 -6 -33 -61q-4 -3 -22.5 5t-18.5 13q1 10 9 37t13 32q37 26 85.5 45t74.5 19q77 0 120 -62q26 -37 26 -101q0 -24 -1.5 -79t-1.5 -75q0 -37 27 -37q18 0 35 5q2 -2 -0.5 -21.5t-5.5 -22.5q-19 -16 -52.5 -27
t-58.5 -11q-51 0 -61 30q-3 7 -5 18q0 1 -2 1.5t-3 -0.5q-32 -22 -65.5 -35t-47.5 -13q-34 0 -61 24q-41 36 -41 100q0 10 5.5 31.5t11.5 30.5q18 10 99.5 33.5t95.5 29.5q6 3 8 11q1 5 1 13zM254 195q0 5 -4 5q-7 -3 -28 -10t-36.5 -13t-20.5 -10q-8 -8 -8 -32
q0 -35 20 -52.5t46 -17.5q16 0 23 6q6 4 6 17q2 32 2 107zM214 614q5 -11 24.5 -72t25.5 -84q-1 -4 -16 -11.5t-19 -6.5q-17 16 -62.5 71t-60.5 78q-2 10 5 15q9 4 52 8t51 2z" />
    <glyph glyph-name="aacute" unicode="&#xe1;" horiz-adv-x="450" 
d="M255 261q0 31 -15 51q-23 31 -69 31q-34 0 -47 -15q-6 -6 -33 -61q-4 -3 -22.5 5t-18.5 13q1 10 9 37t13 32q37 26 85.5 45t74.5 19q77 0 120 -62q26 -37 26 -101q0 -24 -1.5 -79t-1.5 -75q0 -37 27 -37q18 0 35 5q2 -2 -0.5 -21.5t-5.5 -22.5q-19 -16 -52.5 -27
t-58.5 -11q-51 0 -61 30q-3 7 -5 18q0 1 -2 1.5t-3 -0.5q-32 -22 -65.5 -35t-47.5 -13q-34 0 -61 24q-41 36 -41 100q0 10 5.5 31.5t11.5 30.5q18 10 99.5 33.5t95.5 29.5q6 3 8 11q1 5 1 13zM254 195q0 5 -4 5q-7 -3 -28 -10t-36.5 -13t-20.5 -10q-8 -8 -8 -32
q0 -35 20 -52.5t46 -17.5q16 0 23 6q6 4 6 17q2 32 2 107zM237 620q9 4 52 6t52 -1q2 -1 3.5 -7t0.5 -9q-9 -17 -62 -81t-71 -81q-4 -1 -18 7t-16 12q57 150 59 154z" />
    <glyph glyph-name="acircumflex" unicode="&#xe2;" horiz-adv-x="450" 
d="M255 261q0 31 -15 51q-23 31 -69 31q-34 0 -47 -15q-6 -6 -33 -61q-4 -3 -22.5 5t-18.5 13q1 10 9 37t13 32q37 26 85.5 45t74.5 19q77 0 120 -62q26 -37 26 -101q0 -24 -1.5 -79t-1.5 -75q0 -37 27 -37q18 0 35 5q2 -2 -0.5 -21.5t-5.5 -22.5q-19 -16 -52.5 -27
t-58.5 -11q-51 0 -61 30q-3 7 -5 18q0 1 -2 1.5t-3 -0.5q-32 -22 -65.5 -35t-47.5 -13q-34 0 -61 24q-41 36 -41 100q0 10 5.5 31.5t11.5 30.5q18 10 99.5 33.5t95.5 29.5q6 3 8 11q1 5 1 13zM254 195q0 5 -4 5q-7 -3 -28 -10t-36.5 -13t-20.5 -10q-8 -8 -8 -32
q0 -35 20 -52.5t46 -17.5q16 0 23 6q6 4 6 17q2 32 2 107zM216 538q-43 -72 -55 -79q-8 -4 -25 -7.5t-26 -2.5q-7 2 -4 8q17 23 50.5 79t44.5 82q1 3 20.5 9t23.5 6q13 -31 47 -87t50 -80q-2 -4 -24 -12.5t-32 -8.5q-13 3 -64 93q-2 2 -6 0z" />
    <glyph glyph-name="atilde" unicode="&#xe3;" horiz-adv-x="450" 
d="M255 261q0 31 -15 51q-23 31 -69 31q-34 0 -47 -15q-6 -6 -33 -61q-4 -3 -22.5 5t-18.5 13q1 10 9 37t13 32q37 26 85.5 45t74.5 19q77 0 120 -62q26 -37 26 -101q0 -24 -1.5 -79t-1.5 -75q0 -37 27 -37q18 0 35 5q2 -2 -0.5 -21.5t-5.5 -22.5q-19 -16 -52.5 -27
t-58.5 -11q-51 0 -61 30q-3 7 -5 18q0 1 -2 1.5t-3 -0.5q-32 -22 -65.5 -35t-47.5 -13q-34 0 -61 24q-41 36 -41 100q0 10 5.5 31.5t11.5 30.5q18 10 99.5 33.5t95.5 29.5q6 3 8 11q1 5 1 13zM254 195q0 5 -4 5q-7 -3 -28 -10t-36.5 -13t-20.5 -10q-8 -8 -8 -32
q0 -35 20 -52.5t46 -17.5q16 0 23 6q6 4 6 17q2 32 2 107zM289 544q37 0 72 34q1 1 2 0.5t3 -2t2 -3.5q4 -19 -4 -31q-11 -24 -41.5 -46t-61.5 -22q-20 0 -70 18q-22 8 -41 8q-29 0 -65 -34q-1 -1 -2.5 0t-3.5 2.5t-2 3.5q-1 6 1 19t4 15q10 18 40.5 41t51.5 23q26 0 64 -13
q32 -13 51 -13z" />
    <glyph glyph-name="adieresis" unicode="&#xe4;" horiz-adv-x="450" 
d="M255 261q0 31 -15 51q-23 31 -69 31q-34 0 -47 -15q-6 -6 -33 -61q-4 -3 -22.5 5t-18.5 13q1 10 9 37t13 32q37 26 85.5 45t74.5 19q77 0 120 -62q26 -37 26 -101q0 -24 -1.5 -79t-1.5 -75q0 -37 27 -37q18 0 35 5q2 -2 -0.5 -21.5t-5.5 -22.5q-19 -16 -52.5 -27
t-58.5 -11q-51 0 -61 30q-3 7 -5 18q0 1 -2 1.5t-3 -0.5q-32 -22 -65.5 -35t-47.5 -13q-34 0 -61 24q-41 36 -41 100q0 10 5.5 31.5t11.5 30.5q18 10 99.5 33.5t95.5 29.5q6 3 8 11q1 5 1 13zM254 195q0 5 -4 5q-7 -3 -28 -10t-36.5 -13t-20.5 -10q-8 -8 -8 -32
q0 -35 20 -52.5t46 -17.5q16 0 23 6q6 4 6 17q2 32 2 107zM191 541q0 -31 -25 -54q-5 -6 -30 -8t-32 2q-20 9 -31 40q-5 30 4 44q25 23 67 23q28 0 41 -13q6 -11 6 -34zM375 541q0 -31 -25 -54q-5 -6 -30 -8t-32 2q-19 10 -30 40q-5 32 3 44q25 23 67 23q28 0 41 -13
q6 -11 6 -34z" />
    <glyph glyph-name="aring" unicode="&#xe5;" horiz-adv-x="450" 
d="M255 261q0 31 -15 51q-23 31 -69 31q-34 0 -47 -15q-6 -6 -33 -61q-4 -3 -22.5 5t-18.5 13q1 10 9 37t13 32q37 26 85.5 45t74.5 19q77 0 120 -62q26 -37 26 -101q0 -24 -1.5 -79t-1.5 -75q0 -37 27 -37q18 0 35 5q2 -2 -0.5 -21.5t-5.5 -22.5q-19 -16 -52.5 -27
t-58.5 -11q-51 0 -61 30q-3 7 -5 18q0 1 -2 1.5t-3 -0.5q-32 -22 -65.5 -35t-47.5 -13q-34 0 -61 24q-41 36 -41 100q0 10 5.5 31.5t11.5 30.5q18 10 99.5 33.5t95.5 29.5q6 3 8 11q1 5 1 13zM254 195q0 5 -4 5q-7 -3 -28 -10t-36.5 -13t-20.5 -10q-8 -8 -8 -32
q0 -35 20 -52.5t46 -17.5q16 0 23 6q6 4 6 17q2 32 2 107zM227 624q38 0 59.5 -24.5t21.5 -60.5q0 -40 -24 -64t-61 -24q-30 0 -56.5 20.5t-26.5 63.5q0 39 23.5 64t63.5 25zM223 576q-21 0 -32 -10.5t-11 -28.5q0 -17 14 -27.5t33 -10.5q17 0 30 10.5t13 25.5q0 41 -47 41z
" />
    <glyph glyph-name="ae" unicode="&#xe6;" horiz-adv-x="666" 
d="M146 -11q-42 0 -70 26q-38 36 -38 95q0 34 15 57q18 11 104.5 34t90.5 24q5 2 7 10q1 6 1 20q0 34 -17 59q-26 33 -67 33q-33 0 -47 -14q-11 -12 -32 -63q-3 -3 -23 3.5t-19 12.5q1 10 9 36.5t13 31.5q37 27 83 45.5t72 18.5q64 0 107 -48h7q75 48 130 48
q37 0 65.5 -13.5t43.5 -35t22.5 -38.5t10.5 -33q7 -14 19 -18q0 -11 -8 -24q-18 -6 -239 -51q-5 -2 -5 -11q4 -48 40 -82q35 -33 88 -33q64 0 123 46q3 -3 4 -18.5t-1 -19.5q-32 -43 -84.5 -71t-104.5 -28q-100 0 -150 66q-3 3 -7 0q-29 -21 -46 -31.5t-45 -22t-52 -11.5z
M256 180q0 2 -2 4t-3 1q-9 -2 -30.5 -7.5t-35 -9t-18.5 -7.5q-8 -8 -8 -24q0 -32 18.5 -50t44.5 -18t49 16q7 4 5 11q-20 45 -20 84zM430 370q-27 0 -43 -32t-12 -86q0 -2 2 -5t5 -2q81 14 111 22q6 2 8 9q-3 36 -23 65t-48 29z" />
    <glyph glyph-name="ccedilla" unicode="&#xe7;" horiz-adv-x="437" 
d="M412 74q-52 -66 -135 -82l-21 -28q33 -18 45 -29q25 -22 25 -53q0 -43 -42.5 -72.5t-74.5 -29.5q-43 0 -61 29q-1 5 0.5 16.5t3.5 13.5q34 -16 63 -16q38 0 38 29q0 35 -73 57q-1 6 1 11q33 43 54 68h-4q-96 1 -151 70q-42 55 -42 141q0 51 27.5 100t74.5 75q28 18 71 31
t79 13q50 0 88 -14q28 -12 37 -29q3 -9 -1 -21q-5 -15 -21.5 -35.5t-26.5 -25.5q-13 -4 -16 1q-1 1 -11.5 13t-15.5 17t-16.5 15.5t-20 15.5t-21 9.5t-23.5 4.5q-34 0 -55.5 -33t-21.5 -88q0 -70 32 -114q38 -52 106 -52q59 0 111 41q6 -3 7 -8q3 -27 -9 -41z" />
    <glyph glyph-name="egrave" unicode="&#xe8;" horiz-adv-x="457" 
d="M420 122q5 -5 5 -7q2 -18 -6 -37q-32 -41 -84 -65.5t-102 -24.5q-85 0 -135 48q-60 56 -60 165q0 60 25.5 108t68.5 74q58 35 121 35q41 0 72.5 -14.5t49.5 -39t27.5 -47.5t12.5 -47q2 -9 17 -14q1 -3 -2.5 -16t-5.5 -15q-38 -13 -249 -22q-5 -2 -5 -10q5 -47 39 -78
q33 -32 94 -32q63 0 117 39zM224 374q-26 0 -41.5 -32.5t-15.5 -80.5q0 -7 7 -7q18 -1 56 -0.5t50 2.5q5 1 8 9q-3 50 -19.5 79.5t-44.5 29.5zM234 622q5 -11 24.5 -72t25.5 -84q-1 -4 -16 -11.5t-19 -6.5q-17 16 -62.5 71t-60.5 78q-2 10 5 15q9 4 52 8t51 2z" />
    <glyph glyph-name="eacute" unicode="&#xe9;" horiz-adv-x="457" 
d="M420 122q5 -5 5 -7q2 -18 -6 -37q-32 -41 -84 -65.5t-102 -24.5q-85 0 -135 48q-60 56 -60 165q0 60 25.5 108t68.5 74q58 35 121 35q41 0 72.5 -14.5t49.5 -39t27.5 -47.5t12.5 -47q2 -9 17 -14q1 -3 -2.5 -16t-5.5 -15q-38 -13 -249 -22q-5 -2 -5 -10q5 -47 39 -78
q33 -32 94 -32q63 0 117 39zM224 374q-26 0 -41.5 -32.5t-15.5 -80.5q0 -7 7 -7q18 -1 56 -0.5t50 2.5q5 1 8 9q-3 50 -19.5 79.5t-44.5 29.5zM250 616q9 4 52 6t52 -1q2 -1 3.5 -7t0.5 -9q-9 -17 -62 -81t-71 -81q-4 -1 -18 7t-16 12q57 150 59 154z" />
    <glyph glyph-name="ecircumflex" unicode="&#xea;" horiz-adv-x="457" 
d="M420 122q5 -5 5 -7q2 -18 -6 -37q-32 -41 -84 -65.5t-102 -24.5q-85 0 -135 48q-60 56 -60 165q0 60 25.5 108t68.5 74q58 35 121 35q41 0 72.5 -14.5t49.5 -39t27.5 -47.5t12.5 -47q2 -9 17 -14q1 -3 -2.5 -16t-5.5 -15q-38 -13 -249 -22q-5 -2 -5 -10q5 -47 39 -78
q33 -32 94 -32q63 0 117 39zM224 374q-26 0 -41.5 -32.5t-15.5 -80.5q0 -7 7 -7q18 -1 56 -0.5t50 2.5q5 1 8 9q-3 50 -19.5 79.5t-44.5 29.5zM232 538q-43 -72 -55 -79q-8 -4 -25 -7.5t-26 -2.5q-7 2 -4 8q17 23 50.5 79t44.5 82q1 3 20.5 9t23.5 6q13 -31 47 -87t50 -80
q-2 -4 -24 -12.5t-32 -8.5q-13 3 -64 93q-2 2 -6 0z" />
    <glyph glyph-name="edieresis" unicode="&#xeb;" horiz-adv-x="457" 
d="M420 122q5 -5 5 -7q2 -18 -6 -37q-32 -41 -84 -65.5t-102 -24.5q-85 0 -135 48q-60 56 -60 165q0 60 25.5 108t68.5 74q58 35 121 35q41 0 72.5 -14.5t49.5 -39t27.5 -47.5t12.5 -47q2 -9 17 -14q1 -3 -2.5 -16t-5.5 -15q-38 -13 -249 -22q-5 -2 -5 -10q5 -47 39 -78
q33 -32 94 -32q63 0 117 39zM224 374q-26 0 -41.5 -32.5t-15.5 -80.5q0 -7 7 -7q18 -1 56 -0.5t50 2.5q5 1 8 9q-3 50 -19.5 79.5t-44.5 29.5zM213 541q0 -31 -25 -54q-5 -6 -30 -8t-32 2q-20 9 -31 40q-5 30 4 44q25 23 67 23q28 0 41 -13q6 -11 6 -34zM397 541
q0 -31 -25 -54q-5 -6 -30 -8t-32 2q-19 10 -30 40q-5 32 3 44q25 23 67 23q28 0 41 -13q6 -11 6 -34z" />
    <glyph glyph-name="igrave" unicode="&#xec;" horiz-adv-x="281" 
d="M269 36q3 -3 1 -19.5t-7 -19.5q-2 0 -43 1.5t-81 1.5q-32 0 -70.5 -1.5t-47.5 -1.5q-3 4 -3 19.5t3 19.5q28 5 39 9q6 2 9.5 6.5t4 11t1.5 20.5q2 46 2 128q0 72 -1 90q0 17 -7 25q-11 11 -43 24q-3 5 -1.5 18t4.5 16q23 0 84.5 10.5t95.5 24.5v-170q0 -115 1 -162
q0 -36 18 -42q13 -5 41 -9zM129 614q5 -11 24.5 -72t25.5 -84q-1 -4 -16 -11.5t-19 -6.5q-17 16 -62.5 71t-60.5 78q-2 10 5 15q9 4 52 8t51 2z" />
    <glyph glyph-name="iacute" unicode="&#xed;" horiz-adv-x="281" 
d="M269 36q3 -3 1 -19.5t-7 -19.5q-2 0 -43 1.5t-81 1.5q-32 0 -70.5 -1.5t-47.5 -1.5q-3 4 -3 19.5t3 19.5q28 5 39 9q6 2 9.5 6.5t4 11t1.5 20.5q2 46 2 128q0 72 -1 90q0 17 -7 25q-11 11 -43 24q-3 5 -1.5 18t4.5 16q23 0 84.5 10.5t95.5 24.5v-170q0 -115 1 -162
q0 -36 18 -42q13 -5 41 -9zM155 616q9 4 52 6t52 -1q2 -1 3.5 -7t0.5 -9q-9 -17 -62 -81t-71 -81q-4 -1 -18 7t-16 12q57 150 59 154z" />
    <glyph glyph-name="icircumflex" unicode="&#xee;" horiz-adv-x="281" 
d="M269 36q3 -3 1 -19.5t-7 -19.5q-2 0 -43 1.5t-81 1.5q-32 0 -70.5 -1.5t-47.5 -1.5q-3 4 -3 19.5t3 19.5q28 5 39 9q6 2 9.5 6.5t4 11t1.5 20.5q2 46 2 128q0 72 -1 90q0 17 -7 25q-11 11 -43 24q-3 5 -1.5 18t4.5 16q23 0 84.5 10.5t95.5 24.5v-170q0 -115 1 -162
q0 -36 18 -42q13 -5 41 -9zM131 538q-43 -72 -55 -79q-8 -4 -25 -7.5t-26 -2.5q-7 2 -4 8q17 23 50.5 79t44.5 82q1 3 20.5 9t23.5 6q13 -31 47 -87t50 -80q-2 -4 -24 -12.5t-32 -8.5q-13 3 -64 93q-2 2 -6 0z" />
    <glyph glyph-name="idieresis" unicode="&#xef;" horiz-adv-x="281" 
d="M269 36q3 -3 1 -19.5t-7 -19.5q-2 0 -43 1.5t-81 1.5q-32 0 -70.5 -1.5t-47.5 -1.5q-3 4 -3 19.5t3 19.5q28 5 39 9q6 2 9.5 6.5t4 11t1.5 20.5q2 46 2 128q0 72 -1 90q0 17 -7 25q-11 11 -43 24q-3 5 -1.5 18t4.5 16q23 0 84.5 10.5t95.5 24.5v-170q0 -115 1 -162
q0 -36 18 -42q13 -5 41 -9zM106 541q0 -31 -25 -54q-5 -6 -30 -8t-32 2q-20 9 -31 40q-5 30 4 44q25 23 67 23q28 0 41 -13q6 -11 6 -34zM290 541q0 -31 -25 -54q-5 -6 -30 -8t-32 2q-19 10 -30 40q-5 32 3 44q25 23 67 23q28 0 41 -13q6 -11 6 -34z" />
    <glyph glyph-name="eth" unicode="&#xf0;" horiz-adv-x="526" 
d="M274 32q70 0 70 161q0 95 -17 126q-29 47 -76 47q-67 0 -67 -138q0 -88 23.5 -142t66.5 -54zM454 568l-83 -36q53 -50 83 -123.5t30 -151.5q0 -177 -120 -241q-52 -28 -114 -28q-55 0 -97.5 18.5t-66.5 49.5t-36 66t-12 72q0 120 90 177q22 15 61 27t73 12q35 0 53 -6
q-16 51 -46 87l-134 -53q-3 0 -5.5 9.5t-2.5 21t4 14.5l102 45q-72 67 -161 93q0 6 6.5 21t9.5 17q44 -1 110.5 -25t129.5 -67l121 49q3 1 4.5 -10.5t1.5 -24t-1 -13.5z" />
    <glyph glyph-name="ntilde" unicode="&#xf1;" horiz-adv-x="545" 
d="M22 36q24 4 32 6q18 5 21 40q2 60 2 155q0 50 -2 72q-5 21 -49 36q0 21 5 33q98 12 170 44q5 -2 5 -7q0 -3 0.5 -24t0.5 -31q0 -6 5 -3q78 61 128 61q67 0 105 -55q28 -41 28 -119v-175q0 -11 8 -17q18 -11 50 -16q2 -4 0.5 -19.5t-5.5 -19.5q-1 0 -39.5 1.5t-80.5 1.5
q-8 0 -110 -3q-2 6 -2.5 20.5t2.5 18.5q3 1 13 3t14 4q14 5 16 25q2 21 1.5 101.5t-5.5 107.5q-5 30 -30 46q-15 11 -43 11q-24 0 -46 -13q-8 -5 -8 -17l2 -228q1 -18 5.5 -25t15.5 -9q7 -2 29 -6q2 -4 1 -19.5t-4 -19.5q-117 3 -119 3q-50 0 -116 -3q-2 6 -2.5 20.5
t2.5 18.5zM339 544q37 0 72 34q1 1 2 0.5t3 -2t2 -3.5q4 -19 -4 -31q-11 -24 -41.5 -46t-61.5 -22q-20 0 -70 18q-22 8 -41 8q-29 0 -65 -34q-1 -1 -2.5 0t-3.5 2.5t-2 3.5q-1 6 1 19t4 15q10 18 40.5 41t51.5 23q26 0 64 -13q32 -13 51 -13z" />
    <glyph glyph-name="ograve" unicode="&#xf2;" horiz-adv-x="529" 
d="M272 418q104 0 162 -60t58 -151q0 -123 -92 -179q-25 -17 -65 -28.5t-75 -11.5q-111 0 -166.5 60t-55.5 157q0 113 89 172q65 41 145 41zM248 373q-10 0 -26 -8q-40 -26 -40 -129q0 -99 27 -151.5t70 -52.5q19 0 31 10q35 32 35 137q0 90 -25.5 142t-71.5 52zM253 618
q5 -11 24.5 -72t25.5 -84q-1 -4 -16 -11.5t-19 -6.5q-17 16 -62.5 71t-60.5 78q-3 10 5 15q9 4 52 8t51 2z" />
    <glyph glyph-name="oacute" unicode="&#xf3;" horiz-adv-x="529" 
d="M272 418q104 0 162 -60t58 -151q0 -123 -92 -179q-25 -17 -65 -28.5t-75 -11.5q-111 0 -166.5 60t-55.5 157q0 113 89 172q65 41 145 41zM248 373q-10 0 -26 -8q-40 -26 -40 -129q0 -99 27 -151.5t70 -52.5q19 0 31 10q35 32 35 137q0 90 -25.5 142t-71.5 52zM272 616
q9 4 52 6t52 -1q2 -1 3.5 -7t0.5 -9q-9 -17 -62 -81t-71 -81q-4 -1 -18 7t-16 12q57 150 59 154z" />
    <glyph glyph-name="ocircumflex" unicode="&#xf4;" horiz-adv-x="529" 
d="M272 418q104 0 162 -60t58 -151q0 -123 -92 -179q-25 -17 -65 -28.5t-75 -11.5q-111 0 -166.5 60t-55.5 157q0 113 89 172q65 41 145 41zM248 373q-10 0 -26 -8q-40 -26 -40 -129q0 -99 27 -151.5t70 -52.5q19 0 31 10q35 32 35 137q0 90 -25.5 142t-71.5 52zM255 538
q-43 -72 -55 -79q-8 -4 -25 -7.5t-26 -2.5q-7 2 -4 8q17 23 50.5 79t44.5 82q1 3 20.5 9t23.5 6q13 -31 47 -87t50 -80q-2 -4 -24 -12.5t-32 -8.5q-13 3 -64 93q-2 2 -6 0z" />
    <glyph glyph-name="otilde" unicode="&#xf5;" horiz-adv-x="529" 
d="M272 418q104 0 162 -60t58 -151q0 -123 -92 -179q-25 -17 -65 -28.5t-75 -11.5q-111 0 -166.5 60t-55.5 157q0 113 89 172q65 41 145 41zM248 373q-10 0 -26 -8q-40 -26 -40 -129q0 -99 27 -151.5t70 -52.5q19 0 31 10q35 32 35 137q0 90 -25.5 142t-71.5 52zM331 544
q37 0 72 34q1 1 2 0.5t3 -2t2 -3.5q4 -19 -4 -31q-11 -24 -41.5 -46t-61.5 -22q-20 0 -70 18q-22 8 -41 8q-29 0 -65 -34q-1 -1 -2.5 0t-3.5 2.5t-2 3.5q-1 6 1 19t4 15q10 18 40.5 41t51.5 23q26 0 64 -13q32 -13 51 -13z" />
    <glyph glyph-name="odieresis" unicode="&#xf6;" horiz-adv-x="529" 
d="M272 418q104 0 162 -60t58 -151q0 -123 -92 -179q-25 -17 -65 -28.5t-75 -11.5q-111 0 -166.5 60t-55.5 157q0 113 89 172q65 41 145 41zM248 373q-10 0 -26 -8q-40 -26 -40 -129q0 -99 27 -151.5t70 -52.5q19 0 31 10q35 32 35 137q0 90 -25.5 142t-71.5 52zM230 541
q0 -31 -25 -54q-5 -6 -30 -8t-32 2q-20 9 -31 40q-5 30 4 44q25 23 67 23q28 0 41 -13q6 -11 6 -34zM414 541q0 -31 -25 -54q-5 -6 -30 -8t-32 2q-19 10 -30 40q-5 32 3 44q25 23 67 23q28 0 41 -13q6 -11 6 -34z" />
    <glyph glyph-name="divide" unicode="&#xf7;" horiz-adv-x="571" 
d="M343 424q0 -35 -30 -67q-5 -4 -29 -6.5t-35 3.5q-23 18 -26 50q-1 4 3 20.5t7 19.5q8 7 28 13t33 6q32 0 40 -10q9 -13 9 -29zM506 210l-460 -3q-4 2 -4 11q5 35 17 64q5 -1 119 -1h345q3 -1 3 -12q0 -7 -7.5 -32.5t-12.5 -26.5zM343 106q0 -39 -22 -61q-6 -4 -30.5 -8
t-36.5 3q-28 23 -31 50q-1 5 3 21t7 18q8 7 27.5 13t33.5 6q33 0 40 -10q9 -11 9 -32z" />
    <glyph glyph-name="oslash" unicode="&#xf8;" horiz-adv-x="529" 
d="M272 418q47 0 95 -17l30 45q1 1 14.5 -9t14.5 -12l-26 -41q92 -58 92 -177q0 -123 -92 -179q-25 -17 -65 -28.5t-75 -11.5q-59 0 -109 20l-29 -45q-2 0 -15.5 9.5t-14.5 11.5l27 42q-81 56 -81 179q0 113 89 172q65 41 145 41zM279 31q73 0 73 148q0 61 -14 112
l-134 -204q29 -56 75 -56zM249 373q-74 0 -74 -137q0 -70 12 -107l133 201q-25 43 -71 43z" />
    <glyph glyph-name="ugrave" unicode="&#xf9;" horiz-adv-x="531" 
d="M13 355q-2 8 0 22t5 18q147 6 189 17q-6 -68 -6 -187q0 -88 5 -108q11 -40 62 -40q32 0 49 17q4 4 7 13q4 29 0 207q0 25 -17 32q-3 1 -53 11q-2 8 -1 21t4 18q128 0 203 15v-17t-0.5 -40t-0.5 -45l-1 -204q2 -29 18 -32q18 -3 43 -1q0 -31 -6 -40q-27 -14 -93 -29.5
t-83 -15.5l-7 7q-6 22 -6 54q0 6 -5 3q-73 -61 -134 -61q-57 0 -85 34t-30 92q-1 25 -1 194q-1 12 -2 18.5t-5 11.5t-12 7q-10 4 -37 8zM254 614q5 -11 24.5 -72t25.5 -84q-1 -4 -16 -11.5t-19 -6.5q-17 16 -62.5 71t-60.5 78q-2 10 5 15q9 4 52 8t51 2z" />
    <glyph glyph-name="uacute" unicode="&#xfa;" horiz-adv-x="531" 
d="M13 355q-2 8 0 22t5 18q147 6 189 17q-6 -68 -6 -187q0 -88 5 -108q11 -40 62 -40q32 0 49 17q4 4 7 13q4 29 0 207q0 25 -17 32q-3 1 -53 11q-2 8 -1 21t4 18q128 0 203 15v-17t-0.5 -40t-0.5 -45l-1 -204q2 -29 18 -32q18 -3 43 -1q0 -31 -6 -40q-27 -14 -93 -29.5
t-83 -15.5l-7 7q-6 22 -6 54q0 6 -5 3q-73 -61 -134 -61q-57 0 -85 34t-30 92q-1 25 -1 194q-1 12 -2 18.5t-5 11.5t-12 7q-10 4 -37 8zM280 616q9 4 52 6t52 -1q2 -1 3.5 -7t0.5 -9q-9 -17 -62 -81t-71 -81q-4 -1 -18 7t-16 12q57 150 59 154z" />
    <glyph glyph-name="ucircumflex" unicode="&#xfb;" horiz-adv-x="531" 
d="M13 355q-2 8 0 22t5 18q147 6 189 17q-6 -68 -6 -187q0 -88 5 -108q11 -40 62 -40q32 0 49 17q4 4 7 13q4 29 0 207q0 25 -17 32q-3 1 -53 11q-2 8 -1 21t4 18q128 0 203 15v-17t-0.5 -40t-0.5 -45l-1 -204q2 -29 18 -32q18 -3 43 -1q0 -31 -6 -40q-27 -14 -93 -29.5
t-83 -15.5l-7 7q-6 22 -6 54q0 6 -5 3q-73 -61 -134 -61q-57 0 -85 34t-30 92q-1 25 -1 194q-1 12 -2 18.5t-5 11.5t-12 7q-10 4 -37 8zM251 538q-43 -72 -55 -79q-8 -4 -25 -7.5t-26 -2.5q-7 2 -4 8q17 23 50.5 79t44.5 82q1 3 20.5 9t23.5 6q13 -31 47 -87t50 -80
q-2 -4 -24 -12.5t-32 -8.5q-13 3 -64 93q-2 2 -6 0z" />
    <glyph glyph-name="udieresis" unicode="&#xfc;" horiz-adv-x="531" 
d="M13 355q-2 8 0 22t5 18q147 6 189 17q-6 -68 -6 -187q0 -88 5 -108q11 -40 62 -40q32 0 49 17q4 4 7 13q4 29 0 207q0 25 -17 32q-3 1 -53 11q-2 8 -1 21t4 18q128 0 203 15v-17t-0.5 -40t-0.5 -45l-1 -204q2 -29 18 -32q18 -3 43 -1q0 -31 -6 -40q-27 -14 -93 -29.5
t-83 -15.5l-7 7q-6 22 -6 54q0 6 -5 3q-73 -61 -134 -61q-57 0 -85 34t-30 92q-1 25 -1 194q-1 12 -2 18.5t-5 11.5t-12 7q-10 4 -37 8zM226 541q0 -31 -25 -54q-5 -6 -30 -8t-32 2q-20 9 -31 40q-5 30 4 44q25 23 67 23q28 0 41 -13q6 -11 6 -34zM410 541q0 -31 -25 -54
q-5 -6 -30 -8t-32 2q-19 10 -30 40q-5 32 3 44q25 23 67 23q28 0 41 -13q6 -11 6 -34z" />
    <glyph glyph-name="yacute" unicode="&#xfd;" horiz-adv-x="462" 
d="M-15 368q-2 23 6 39q4 0 24.5 -0.5t50.5 -1.5t59 -1q31 0 118 3q6 -11 3 -39q-20 -5 -30 -10q-11 -5 -8 -18q10 -32 37 -100.5t36 -86.5h4q21 46 39.5 98.5t21.5 72.5q4 27 -16 33q-16 7 -44 11q-2 29 6 39q8 0 39 -1.5t52 -1.5q1 0 100 3q4 -26 1 -39q-20 -4 -35 -10
q-28 -11 -46 -59q-72 -190 -216 -458q-26 -46 -36 -66l-13 -4q-14 1 -40.5 11t-33.5 21q-4 13 1 23q109 128 136 183l-13 26q-11 24 -44 104t-53 126q-24 54 -35.5 70.5t-32.5 23.5q-2 1 -38 9zM284 616q9 4 52 6t52 -1q2 -1 3.5 -7t0.5 -9q-9 -17 -62 -81t-71 -81
q-4 -1 -18 7t-16 12q57 150 59 154z" />
    <glyph glyph-name="thorn" unicode="&#xfe;" horiz-adv-x="527" 
d="M-7 -192q29 5 49 13q22 8 22 47q2 26 3 398q-3 280 -4 287q-3 23 -23 28l-40 7q-2 3 -1 18.5t3 18.5q44 2 107.5 13t95.5 23q2 -1 5 -7.5t2 -10.5q-13 -22 -13 -123v-47v-50v-42q2 -5 5 -3q84 40 126 40q66 0 111 -49q48 -51 48 -134q0 -115 -89 -184q-27 -21 -81 -40.5
t-93 -22.5h-28q0 -94 1 -117q3 -37 30 -42q7 -2 29 -5t31 -5q1 -6 -1.5 -20t-5.5 -18h-26q-136 0 -259 -13q-3 5 -4.5 20t0.5 20zM241 345q-25 0 -36 -7q-6 -2 -6 -13q-3 -167 1 -218q2 -28 16 -41q23 -22 60 -22q30 0 52 27q28 38 28 110q0 74 -31 119q-32 45 -84 45z" />
    <glyph glyph-name="ydieresis" unicode="&#xff;" horiz-adv-x="462" 
d="M-15 368q-2 23 6 39q4 0 24.5 -0.5t50.5 -1.5t59 -1q31 0 118 3q6 -11 3 -39q-20 -5 -30 -10q-11 -5 -8 -18q10 -32 37 -100.5t36 -86.5h4q21 46 39.5 98.5t21.5 72.5q4 27 -16 33q-16 7 -44 11q-2 29 6 39q8 0 39 -1.5t52 -1.5q1 0 100 3q4 -26 1 -39q-20 -4 -35 -10
q-28 -11 -46 -59q-72 -190 -216 -458q-26 -46 -36 -66l-13 -4q-14 1 -40.5 11t-33.5 21q-4 13 1 23q109 128 136 183l-13 26q-11 24 -44 104t-53 126q-24 54 -35.5 70.5t-32.5 23.5q-2 1 -38 9zM221 541q0 -31 -25 -54q-5 -6 -30 -8t-32 2q-20 9 -31 40q-5 30 4 44
q25 23 67 23q28 0 41 -13q6 -11 6 -34zM405 541q0 -31 -25 -54q-5 -6 -30 -8t-32 2q-19 10 -30 40q-5 32 3 44q25 23 67 23q28 0 41 -13q6 -11 6 -34z" />
    <glyph glyph-name="uni0100" unicode="&#x100;" horiz-adv-x="644" 
d="M-16 36q53 8 72.5 22t38.5 60q59 136 158 411q17 44 22 77q16 -2 53 -2q38 0 53 2q16 -54 19 -62q130 -360 147 -404q26 -65 43 -80.5t73 -23.5q2 -4 0.5 -20t-4.5 -19q-6 0 -54 1.5t-96 1.5q-46 0 -94 -1.5t-61 -1.5q-2 5 -2.5 20t1.5 19q41 7 51 13q12 9 9 20
q-9 47 -43 127q-2 7 -11 7h-79h-78q-7 0 -11 -10q-35 -101 -35 -114q0 -27 28 -33q24 -6 50 -10q2 -4 1 -19.5t-4 -19.5q-9 0 -51.5 1.5t-77.5 1.5q-19 0 -59.5 -1.5t-58.5 -1.5q-3 5 -3 19.5t3 19.5zM283 456h-4q-9 -25 -30.5 -90.5t-30.5 -90.5q-2 -6 3 -8q11 -1 58 -1
q56 0 64 1q3 0 3 5q-25 85 -63 184zM214 732q20 -2 62 -2q30 0 81.5 -0.5t79 -0.5t30.5 1q0 -11 -9 -39.5t-12 -29.5q-16 -3 -214 -3l-38 2q1 8 9.5 38.5t10.5 33.5z" />
    <glyph glyph-name="uni0101" unicode="&#x101;" horiz-adv-x="450" 
d="M255 261q0 31 -15 51q-23 31 -69 31q-34 0 -47 -15q-6 -6 -33 -61q-4 -3 -22.5 5t-18.5 13q1 10 9 37t13 32q37 26 85.5 45t74.5 19q77 0 120 -62q26 -37 26 -101q0 -24 -1.5 -79t-1.5 -75q0 -37 27 -37q18 0 35 5q2 -2 -0.5 -21.5t-5.5 -22.5q-19 -16 -52.5 -27
t-58.5 -11q-51 0 -61 30q-3 7 -5 18q0 1 -2 1.5t-3 -0.5q-32 -22 -65.5 -35t-47.5 -13q-34 0 -61 24q-41 36 -41 100q0 10 5.5 31.5t11.5 30.5q18 10 99.5 33.5t95.5 29.5q6 3 8 11q1 5 1 13zM254 195q0 5 -4 5q-7 -3 -28 -10t-36.5 -13t-20.5 -10q-8 -8 -8 -32
q0 -35 20 -52.5t46 -17.5q16 0 23 6q6 4 6 17q2 32 2 107zM121 560q18 -2 47 -2h180q0 -11 -7.5 -40t-10.5 -30q-14 -3 -192 -3q-31 0 -35 2q1 8 8.5 39.5t9.5 33.5z" />
    <glyph glyph-name="uni0102" unicode="&#x102;" horiz-adv-x="644" 
d="M-16 36q53 8 72.5 22t38.5 60q59 136 158 411q17 44 22 77q16 -2 53 -2q38 0 53 2q16 -54 19 -62q130 -360 147 -404q26 -65 43 -80.5t73 -23.5q2 -4 0.5 -20t-4.5 -19q-6 0 -54 1.5t-96 1.5q-46 0 -94 -1.5t-61 -1.5q-2 5 -2.5 20t1.5 19q41 7 51 13q12 9 9 20
q-9 47 -43 127q-2 7 -11 7h-79h-78q-7 0 -11 -10q-35 -101 -35 -114q0 -27 28 -33q24 -6 50 -10q2 -4 1 -19.5t-4 -19.5q-9 0 -51.5 1.5t-77.5 1.5q-19 0 -59.5 -1.5t-58.5 -1.5q-3 5 -3 19.5t3 19.5zM283 456h-4q-9 -25 -30.5 -90.5t-30.5 -90.5q-2 -6 3 -8q11 -1 58 -1
q56 0 64 1q3 0 3 5q-25 85 -63 184zM342 706q52 0 91 46q2 2 15 9.5t16 7.5q10 0 10 -7q-15 -49 -59 -85.5t-101 -36.5q-53 0 -85.5 23t-32.5 57q0 9 11.5 25.5t21.5 22.5q3 2 8.5 1t6.5 -3q19 -60 98 -60z" />
    <glyph glyph-name="uni0103" unicode="&#x103;" horiz-adv-x="450" 
d="M255 261q0 31 -15 51q-23 31 -69 31q-34 0 -47 -15q-6 -6 -33 -61q-4 -3 -22.5 5t-18.5 13q1 10 9 37t13 32q37 26 85.5 45t74.5 19q77 0 120 -62q26 -37 26 -101q0 -24 -1.5 -79t-1.5 -75q0 -37 27 -37q18 0 35 5q2 -2 -0.5 -21.5t-5.5 -22.5q-19 -16 -52.5 -27
t-58.5 -11q-51 0 -61 30q-3 7 -5 18q0 1 -2 1.5t-3 -0.5q-32 -22 -65.5 -35t-47.5 -13q-34 0 -61 24q-41 36 -41 100q0 10 5.5 31.5t11.5 30.5q18 10 99.5 33.5t95.5 29.5q6 3 8 11q1 5 1 13zM254 195q0 5 -4 5q-7 -3 -28 -10t-36.5 -13t-20.5 -10q-8 -8 -8 -32
q0 -35 20 -52.5t46 -17.5q16 0 23 6q6 4 6 17q2 32 2 107zM238 530q53 0 87 50q2 3 14.5 10.5t15.5 7.5q2 0 5 -2.5t3 -5.5q-10 -56 -50.5 -93.5t-100.5 -37.5q-48 0 -80.5 25.5t-32.5 64.5q0 11 13.5 25.5t28.5 24.5q2 1 7.5 0.5t6.5 -3.5q12 -66 83 -66z" />
    <glyph glyph-name="uni0104" unicode="&#x104;" horiz-adv-x="644" 
d="M471 -231q-32 0 -58.5 19.5t-26.5 62.5q0 66 111 149q-41 0 -85.5 -1.5t-57.5 -1.5q-2 5 -2.5 20t1.5 19q42 8 51 13q12 9 9 20q-9 47 -43 127q-2 7 -11 7h-79h-78q-7 0 -11 -10q-35 -101 -35 -114q0 -27 28 -33q20 -5 50 -10q2 -4 0.5 -19t-3.5 -20q-9 0 -51.5 1.5
t-77.5 1.5q-19 0 -59.5 -1.5t-58.5 -1.5q-3 5 -3 19.5t3 19.5q53 8 72.5 22t38.5 60q59 136 158 411q17 44 22 77q16 -2 53 -2q38 0 53 2q16 -54 19 -62q130 -360 147 -404q26 -65 43 -80.5t73 -23.5q2 -4 0.5 -20t-4.5 -19q-10 0 -45.5 1t-64.5 2q-67 -68 -67 -114
q0 -21 12.5 -32t31.5 -11q24 0 50 14q2 -5 1 -19.5t-3 -17.5q-17 -25 -47.5 -38t-55.5 -13zM283 456h-4q-8 -22 -29 -86t-32 -94q-2 -6 3 -9q12 -1 58 -1q56 0 64 1q3 0 3 5q-25 85 -63 184z" />
    <glyph glyph-name="uni0105" unicode="&#x105;" horiz-adv-x="450" 
d="M255 261q0 31 -15 51q-23 31 -69 31q-34 0 -47 -15q-6 -6 -33 -61q-4 -3 -22.5 5t-18.5 13q1 10 9 37t13 32q37 26 85.5 45t74.5 19q77 0 120 -62q26 -37 26 -101q0 -24 -1.5 -79t-1.5 -75q0 -37 27 -37q18 0 35 5q2 -2 -0.5 -21.5t-5.5 -22.5q-21 -18 -54 -28
q-66 -60 -66 -105q0 -20 12 -30.5t30 -10.5q25 0 48 13q2 -5 1 -19t-3 -17q-16 -24 -45 -36t-53 -12q-31 0 -56 18.5t-25 59.5q0 59 96 130q-48 0 -57 29q-3 7 -5 18q0 1 -2 1.5t-3 -0.5q-32 -22 -65.5 -35t-47.5 -13q-34 0 -61 24q-41 36 -41 100q0 10 5.5 31.5t11.5 30.5
q18 10 99.5 33.5t95.5 29.5q6 3 8 11q1 5 1 13zM254 195q0 5 -4 5q-7 -3 -28 -10t-36.5 -13t-20.5 -10q-8 -8 -8 -32q0 -35 20 -52.5t46 -17.5q16 0 23 6q6 4 6 17q2 32 2 107z" />
    <glyph glyph-name="uni0106" unicode="&#x106;" horiz-adv-x="677" 
d="M569 432q-6 31 -9 42.5t-9.5 30t-16 28.5t-24.5 19q-46 26 -114 26q-82 0 -129.5 -65t-47.5 -195q0 -51 12 -98t37 -88t69.5 -66t102.5 -25q57 0 92 30q40 34 79 101q8 -2 19 -9.5t15 -14.5q-11 -35 -38 -81.5t-47 -59.5q-73 -25 -148 -25q-172 0 -266 82.5t-94 243.5
q0 88 42 161t123 112q85 41 202 41q49 0 123.5 -8.5t82.5 -8.5q-15 -80 -15 -169q-3 -5 -21.5 -6.5t-19.5 2.5zM477 821q10 0 37 -23.5t33 -34.5q1 -1 1 -6t-1 -6q-15 -13 -96 -52.5t-89 -39.5q-4 0 -14.5 13t-9.5 18q26 27 75 74t64 57z" />
    <glyph glyph-name="uni0107" unicode="&#x107;" horiz-adv-x="437" 
d="M412 74q-35 -44 -83.5 -65t-94.5 -21q-98 0 -154 70q-42 55 -42 141q0 51 27.5 100t74.5 75q28 18 71 31t79 13q50 0 88 -14q28 -12 37 -29q3 -9 -1 -21q-5 -15 -21.5 -35.5t-26.5 -25.5q-13 -4 -16 1q-1 1 -11.5 13t-15.5 17t-16.5 15.5t-20 15.5t-21 9.5t-23.5 4.5
q-34 0 -55.5 -33t-21.5 -88q0 -70 32 -114q38 -52 106 -52q59 0 111 41q6 -3 7 -8q3 -27 -9 -41zM265 616q9 4 52 6t52 -1q2 -1 3.5 -7t0.5 -9q-9 -17 -62 -81t-71 -81q-4 -1 -18 7t-16 12q57 150 59 154z" />
    <glyph glyph-name="uni0108" unicode="&#x108;" horiz-adv-x="677" 
d="M569 432q-6 31 -9 42.5t-9.5 30t-16 28.5t-24.5 19q-46 26 -114 26q-82 0 -129.5 -65t-47.5 -195q0 -51 12 -98t37 -88t69.5 -66t102.5 -25q57 0 92 30q40 34 79 101q8 -2 19 -9.5t15 -14.5q-11 -35 -38 -81.5t-47 -59.5q-73 -25 -148 -25q-172 0 -266 82.5t-94 243.5
q0 88 42 161t123 112q85 41 202 41q49 0 123.5 -8.5t82.5 -8.5q-15 -80 -15 -169q-3 -5 -21.5 -6.5t-19.5 2.5zM382 794q9 7 24 7q19 -19 140 -114q0 -4 -8 -17.5t-12 -13.5q-5 0 -61 23t-68 30q-5 2 -9 0q-18 -10 -67.5 -31.5t-53.5 -21.5t-11 12.5t-6 17.5q24 17 73 56.5
t59 51.5z" />
    <glyph glyph-name="uni0109" unicode="&#x109;" horiz-adv-x="437" 
d="M412 74q-35 -44 -83.5 -65t-94.5 -21q-98 0 -154 70q-42 55 -42 141q0 51 27.5 100t74.5 75q28 18 71 31t79 13q50 0 88 -14q28 -12 37 -29q3 -9 -1 -21q-5 -15 -21.5 -35.5t-26.5 -25.5q-13 -4 -16 1q-1 1 -11.5 13t-15.5 17t-16.5 15.5t-20 15.5t-21 9.5t-23.5 4.5
q-34 0 -55.5 -33t-21.5 -88q0 -70 32 -114q38 -52 106 -52q59 0 111 41q6 -3 7 -8q3 -27 -9 -41zM248 538q-43 -72 -55 -79q-8 -4 -25 -7.5t-26 -2.5q-7 2 -4 8q17 23 50.5 79t44.5 82q1 3 20.5 9t23.5 6q13 -31 47 -87t50 -80q-2 -4 -24 -12.5t-32 -8.5q-13 3 -64 93
q-2 2 -6 0z" />
    <glyph glyph-name="uni010A" unicode="&#x10a;" horiz-adv-x="677" 
d="M569 432q-6 31 -9 42.5t-9.5 30t-16 28.5t-24.5 19q-46 26 -114 26q-82 0 -129.5 -65t-47.5 -195q0 -51 12 -98t37 -88t69.5 -66t102.5 -25q57 0 92 30q40 34 79 101q8 -2 19 -9.5t15 -14.5q-11 -35 -38 -81.5t-47 -59.5q-73 -25 -148 -25q-172 0 -266 82.5t-94 243.5
q0 88 42 161t123 112q85 41 202 41q49 0 123.5 -8.5t82.5 -8.5q-15 -80 -15 -169q-3 -5 -21.5 -6.5t-19.5 2.5zM468 737q0 -34 -29 -59q-7 -7 -36 -9.5t-37 2.5q-24 11 -36 45q-2 3 -0.5 23t6.5 26q25 25 77 25q33 0 47 -14q8 -13 8 -39z" />
    <glyph glyph-name="uni010B" unicode="&#x10b;" horiz-adv-x="437" 
d="M412 74q-35 -44 -83.5 -65t-94.5 -21q-98 0 -154 70q-42 55 -42 141q0 51 27.5 100t74.5 75q28 18 71 31t79 13q50 0 88 -14q28 -12 37 -29q3 -9 -1 -21q-5 -15 -21.5 -35.5t-26.5 -25.5q-13 -4 -16 1q-1 1 -11.5 13t-15.5 17t-16.5 15.5t-20 15.5t-21 9.5t-23.5 4.5
q-34 0 -55.5 -33t-21.5 -88q0 -70 32 -114q38 -52 106 -52q59 0 111 41q6 -3 7 -8q3 -27 -9 -41zM328 542q0 -35 -29 -60q-7 -7 -37 -9.5t-37 2.5q-25 11 -37 45q-5 37 5 50q26 25 80 25q30 0 47 -14q8 -11 8 -39z" />
    <glyph glyph-name="uni010C" unicode="&#x10c;" horiz-adv-x="677" 
d="M569 432q-6 31 -9 42.5t-9.5 30t-16 28.5t-24.5 19q-46 26 -114 26q-82 0 -129.5 -65t-47.5 -195q0 -51 12 -98t37 -88t69.5 -66t102.5 -25q57 0 92 30q40 34 79 101q8 -2 19 -9.5t15 -14.5q-11 -35 -38 -81.5t-47 -59.5q-73 -25 -148 -25q-172 0 -266 82.5t-94 243.5
q0 88 42 161t123 112q85 41 202 41q49 0 123.5 -8.5t82.5 -8.5q-15 -80 -15 -169q-3 -5 -21.5 -6.5t-19.5 2.5zM415 664q-4 -3 -24 -7q-9 10 -62 53t-77 61q0 4 8 17.5t11 13.5q5 0 60 -22.5t69 -29.5q4 -2 9 0q109 52 121 52q4 0 11.5 -12.5t5.5 -17.5q-24 -17 -73 -56.5
t-59 -51.5z" />
    <glyph glyph-name="uni010D" unicode="&#x10d;" horiz-adv-x="437" 
d="M412 74q-35 -44 -83.5 -65t-94.5 -21q-98 0 -154 70q-42 55 -42 141q0 51 27.5 100t74.5 75q28 18 71 31t79 13q50 0 88 -14q28 -12 37 -29q3 -9 -1 -21q-5 -15 -21.5 -35.5t-26.5 -25.5q-13 -4 -16 1q-1 1 -11.5 13t-15.5 17t-16.5 15.5t-20 15.5t-21 9.5t-23.5 4.5
q-34 0 -55.5 -33t-21.5 -88q0 -70 32 -114q38 -52 106 -52q59 0 111 41q6 -3 7 -8q3 -27 -9 -41zM264 538q47 74 56 80q7 4 25 7t26 2q1 0 2.5 -3t0.5 -5q-17 -24 -50.5 -80t-43.5 -81q-1 -3 -20 -8.5t-24 -5.5q-14 30 -48 88t-49 78q2 5 24.5 13.5t31.5 7.5q13 -3 64 -93
q3 -2 5 0z" />
    <glyph glyph-name="uni010E" unicode="&#x10e;" horiz-adv-x="736" 
d="M26 568q-3 5 -1.5 20t4.5 19q9 0 73 -1.5t80 -1.5q28 0 85 1.5t102 1.5q134 0 212 -62q49 -39 76 -99t27 -128q0 -153 -103 -241q-102 -84 -282 -84q-31 0 -114 2t-126 2h-41q-4 6 -4 22t4 17q35 4 59 10q31 7 34 46q3 36 3 218q0 156 -2 203q-2 21 -7.5 29.5t-22.5 14.5
q-20 7 -56 11zM262 99q2 -18 16 -32q26 -26 82 -26q65 0 111 57q57 77 57 204q0 69 -26 130t-74 95q-48 36 -127 36q-26 0 -33 -5q-7 -2 -7 -12q-1 -19 -1 -246q0 -181 2 -201zM352 652q-4 -3 -24 -7q-9 10 -62 53t-77 61q0 4 8 17.5t11 13.5q5 0 60 -22.5t69 -29.5
q5 -2 9 0q109 52 121 52q4 0 11.5 -12.5t5.5 -17.5q-24 -17 -73 -56.5t-59 -51.5z" />
    <glyph glyph-name="uni010F" unicode="&#x10f;" horiz-adv-x="539" 
d="M530 65q1 -3 -2.5 -19.5t-5.5 -18.5q-28 -14 -93.5 -28.5t-85.5 -14.5q-2 0 -5 3.5t-3 5.5q-2 10 -2 49q0 4 -6 2q-81 -54 -133 -54q-66 0 -110 54q-46 57 -46 145q0 52 21.5 96.5t56.5 70.5q32 25 87 43.5t100 18.5q19 0 27 -1q5 0 5 5q0 95 -3 123q-2 30 -22 39
q-16 6 -55 11q-2 4 -1 19.5t5 16.5q43 0 113.5 10t100.5 20q2 -1 4.5 -9t1.5 -12q-10 -14 -11 -83v-19q-2 -122 -2 -276q0 -17 0.5 -76t0.5 -80q1 -35 17 -38q11 -3 46 -3zM250 371q-26 0 -46 -21q-31 -33 -31 -105q0 -80 32.5 -126.5t84.5 -46.5q19 0 35 10q8 5 8 19
q1 21 1.5 88t-0.5 108q0 34 -26 54q-27 20 -58 20zM612 664q7 0 7 -15q1 -27 -7 -92.5t-17 -94.5q-4 -11 -19 -25t-25 -19q-3 -1 -6 2t-3 4q0 28 -6.5 99t-9.5 91q0 5 3 9q7 7 39.5 24t43.5 17z" />
    <glyph glyph-name="uni0110" unicode="&#x110;" horiz-adv-x="736" 
d="M26 568q-3 5 -1.5 20t4.5 19q9 0 73 -1.5t80 -1.5q28 0 85 1.5t102 1.5q134 0 212 -62q49 -39 76 -99t27 -128q0 -153 -103 -241q-102 -84 -282 -84q-31 0 -114 2t-126 2h-41q-4 6 -4 22t4 17q35 4 59 10q31 7 34 46q3 34 3 202q-66 -2 -79 -2q-1 8 2 24.5t6 19.5
q5 0 30 -0.5t41 -0.5q0 94 -2 178q-2 21 -7.5 29.5t-22.5 14.5q-20 7 -56 11zM262 99q2 -18 16 -32q26 -26 82 -26q65 0 111 57q57 77 57 204q0 69 -26 130t-74 95q-48 36 -127 36q-26 0 -33 -5q-7 -2 -7 -12q-1 -17 -1 -211q146 2 149 2q1 -5 -1.5 -22t-4.5 -22
q-25 0 -73 0.5t-70 0.5q0 -176 2 -195z" />
    <glyph glyph-name="uni0111" unicode="&#x111;" horiz-adv-x="549" 
d="M38 189q0 52 21.5 96.5t56.5 70.5q32 25 87 43.5t100 18.5q19 0 27 -1q5 0 5 5v58q-60 -1 -113 -1q4 40 8 44q2 0 34 -0.5t70 -0.5v31q-2 23 -24 32q-14 4 -55 11q-2 3 0 18t4 17q43 0 114.5 10t100.5 20q2 -2 5 -9.5t2 -10.5q-8 -12 -10 -29.5t-3 -71.5v-18
q17 0 41.5 0.5t27.5 0.5q3 -20 -6 -44q-5 0 -29 0.5t-35 0.5l-1 -218q0 -17 0.5 -81.5t0.5 -85.5q1 -35 18 -38t48 -3q1 -3 -2.5 -19.5t-5.5 -19.5q-28 -10 -94 -20.5t-88 -10.5q-2 0 -5 3.5t-3 5.5q-2 10 -2 48q0 1 -2 2t-4 0q-79 -53 -133 -53q-66 0 -110 54
q-46 57 -46 145zM250 371q-26 0 -46 -21q-31 -33 -31 -105q0 -80 32.5 -127t84.5 -47q19 0 35 10q8 5 8 19q1 21 1.5 88.5t-0.5 108.5q0 34 -26 54q-27 20 -58 20z" />
    <glyph glyph-name="uni0112" unicode="&#x112;" horiz-adv-x="601" 
d="M32 568q-3 5 -2 20.5t4 18.5q20 0 74.5 -1.5t79.5 -1.5h207q90 0 132 7q3 -1 4 -5q-8 -36 -14 -153q-4 -4 -21.5 -4.5t-21.5 1.5q-8 48 -19 70q-10 26 -41 28q-21 2 -75 2t-66 -2q-3 -1 -6.5 -7.5t-3.5 -10.5v-188q0 -8 7 -8q108 0 125 1q26 1 34 33q2 6 4.5 19.5
t3.5 18.5q4 2 23 1.5t24 -4.5q-6 -69 -6 -98q0 -49 2 -103q-5 -3 -22.5 -3.5t-22.5 2.5l-10 42q-9 23 -33 27q-18 2 -121 2q-3 0 -5.5 -3.5t-2.5 -5.5v-168q0 -26 22 -33q33 -7 129 -7q32 0 46.5 5.5t30.5 25.5q30 36 53 90q5 1 21.5 -5.5t20.5 -10.5q-20 -95 -47 -148
q-8 -16 -53 -16q-36 0 -133.5 2t-158.5 2q-26 0 -91.5 -1.5t-92.5 -1.5q-2 7 -2 21t2 18q49 5 76 13q28 7 29 47q2 39 2 235q0 150 -2 187q-1 20 -7.5 28t-21.5 13q-17 5 -54 9zM189 748q20 -2 62 -2q30 0 81.5 -0.5t79 -0.5t30.5 1q0 -11 -9 -39.5t-12 -29.5
q-16 -3 -214 -3l-38 2q1 8 9.5 38.5t10.5 33.5z" />
    <glyph glyph-name="uni0113" unicode="&#x113;" horiz-adv-x="457" 
d="M420 122q5 -5 5 -7q2 -18 -6 -37q-32 -41 -84 -65.5t-102 -24.5q-85 0 -135 48q-60 56 -60 165q0 60 25.5 108t68.5 74q58 35 121 35q41 0 72.5 -14.5t49.5 -39t27.5 -47.5t12.5 -47q2 -9 17 -14q1 -3 -2.5 -16t-5.5 -15q-38 -13 -249 -22q-5 -2 -5 -10q5 -47 39 -78
q33 -32 94 -32q63 0 117 39zM224 374q-26 0 -41.5 -32.5t-15.5 -80.5q0 -7 7 -7q18 -1 56 -0.5t50 2.5q5 1 8 9q-3 50 -19.5 79.5t-44.5 29.5zM139 560q18 -2 47 -2h180q0 -11 -7.5 -40t-10.5 -30q-14 -3 -192 -3q-31 0 -35 2q1 8 8.5 39.5t9.5 33.5z" />
    <glyph glyph-name="uni0114" unicode="&#x114;" horiz-adv-x="601" 
d="M32 568q-3 5 -2 20.5t4 18.5q20 0 74.5 -1.5t79.5 -1.5h207q90 0 132 7q3 -1 4 -5q-8 -36 -14 -153q-4 -4 -21.5 -4.5t-21.5 1.5q-8 48 -19 70q-10 26 -41 28q-21 2 -75 2t-66 -2q-3 -1 -6.5 -7.5t-3.5 -10.5v-188q0 -8 7 -8q108 0 125 1q26 1 34 33q2 6 4.5 19.5
t3.5 18.5q4 2 23 1.5t24 -4.5q-6 -69 -6 -98q0 -49 2 -103q-5 -3 -22.5 -3.5t-22.5 2.5l-10 42q-9 23 -33 27q-18 2 -121 2q-3 0 -5.5 -3.5t-2.5 -5.5v-168q0 -26 22 -33q33 -7 129 -7q32 0 46.5 5.5t30.5 25.5q30 36 53 90q5 1 21.5 -5.5t20.5 -10.5q-20 -95 -47 -148
q-8 -16 -53 -16q-36 0 -133.5 2t-158.5 2q-26 0 -91.5 -1.5t-92.5 -1.5q-2 7 -2 21t2 18q49 5 76 13q28 7 29 47q2 39 2 235q0 150 -2 187q-1 20 -7.5 28t-21.5 13q-17 5 -54 9zM324 716q52 0 91 46q2 2 15 9.5t16 7.5q10 0 10 -7q-15 -49 -59 -85.5t-101 -36.5
q-53 0 -85.5 23t-32.5 57q0 9 11.5 25.5t21.5 22.5q3 2 8.5 1t6.5 -3q19 -60 98 -60z" />
    <glyph glyph-name="uni0115" unicode="&#x115;" horiz-adv-x="457" 
d="M420 122q5 -5 5 -7q2 -18 -6 -37q-32 -41 -84 -65.5t-102 -24.5q-85 0 -135 48q-60 56 -60 165q0 60 25.5 108t68.5 74q58 35 121 35q41 0 72.5 -14.5t49.5 -39t27.5 -47.5t12.5 -47q2 -9 17 -14q1 -3 -2.5 -16t-5.5 -15q-38 -13 -249 -22q-5 -2 -5 -10q5 -47 39 -78
q33 -32 94 -32q63 0 117 39zM224 374q-26 0 -41.5 -32.5t-15.5 -80.5q0 -7 7 -7q18 -1 56 -0.5t50 2.5q5 1 8 9q-3 50 -19.5 79.5t-44.5 29.5zM257 530q53 0 87 50q2 3 14.5 10.5t15.5 7.5q2 0 5 -2.5t3 -5.5q-10 -56 -50.5 -93.5t-100.5 -37.5q-48 0 -80.5 25.5t-32.5 64.5
q0 11 13.5 25.5t28.5 24.5q2 1 7.5 0.5t6.5 -3.5q12 -66 83 -66z" />
    <glyph glyph-name="uni0116" unicode="&#x116;" horiz-adv-x="601" 
d="M32 568q-3 5 -2 20.5t4 18.5q20 0 74.5 -1.5t79.5 -1.5h207q90 0 132 7q3 -1 4 -5q-8 -36 -14 -153q-4 -4 -21.5 -4.5t-21.5 1.5q-8 48 -19 70q-10 26 -41 28q-21 2 -75 2t-66 -2q-3 -1 -6.5 -7.5t-3.5 -10.5v-188q0 -8 7 -8q108 0 125 1q26 1 34 33q2 6 4.5 19.5
t3.5 18.5q4 2 23 1.5t24 -4.5q-6 -69 -6 -98q0 -49 2 -103q-5 -3 -22.5 -3.5t-22.5 2.5l-10 42q-9 23 -33 27q-18 2 -121 2q-3 0 -5.5 -3.5t-2.5 -5.5v-168q0 -26 22 -33q33 -7 129 -7q32 0 46.5 5.5t30.5 25.5q30 36 53 90q5 1 21.5 -5.5t20.5 -10.5q-20 -95 -47 -148
q-8 -16 -53 -16q-36 0 -133.5 2t-158.5 2q-26 0 -91.5 -1.5t-92.5 -1.5q-2 7 -2 21t2 18q49 5 76 13q28 7 29 47q2 39 2 235q0 150 -2 187q-1 20 -7.5 28t-21.5 13q-17 5 -54 9zM378 723q0 -34 -29 -59q-7 -7 -36 -9.5t-37 2.5q-24 11 -36 45q-2 3 -0.5 23t6.5 26
q25 25 77 25q33 0 47 -14q8 -13 8 -39z" />
    <glyph glyph-name="uni0117" unicode="&#x117;" horiz-adv-x="457" 
d="M420 122q5 -5 5 -7q2 -18 -6 -37q-32 -41 -84 -65.5t-102 -24.5q-85 0 -135 48q-60 56 -60 165q0 60 25.5 108t68.5 74q58 35 121 35q41 0 72.5 -14.5t49.5 -39t27.5 -47.5t12.5 -47q2 -9 17 -14q1 -3 -2.5 -16t-5.5 -15q-38 -13 -249 -22q-5 -2 -5 -10q5 -47 39 -78
q33 -32 94 -32q63 0 117 39zM224 374q-26 0 -41.5 -32.5t-15.5 -80.5q0 -7 7 -7q18 -1 56 -0.5t50 2.5q5 1 8 9q-3 50 -19.5 79.5t-44.5 29.5zM311 542q0 -35 -29 -60q-7 -7 -37 -9.5t-37 2.5q-25 11 -37 45q-5 37 5 50q26 25 80 25q30 0 47 -14q8 -11 8 -39z" />
    <glyph glyph-name="uni0118" unicode="&#x118;" horiz-adv-x="601" 
d="M10 36q49 5 76 13q28 7 29 47q2 39 2 235q0 150 -2 187q-1 20 -7.5 28t-21.5 13q-17 5 -54 9q-3 5 -2 20.5t4 18.5q20 0 74.5 -1.5t79.5 -1.5h207q90 0 132 7q3 -1 4 -5q-8 -36 -14 -153q-4 -4 -21.5 -4.5t-21.5 1.5q-8 48 -19 70q-10 26 -41 28q-21 2 -75 2t-66 -2
q-3 -1 -6.5 -7.5t-3.5 -10.5q-1 -2 -0.5 -92t0.5 -96q0 -8 7 -8q108 0 125 1q25 1 34 33q4 12 8 38q4 2 23 1.5t24 -4.5q-6 -66 -6 -98q0 -49 2 -103q-5 -3 -22.5 -3.5t-22.5 2.5l-11 43q-8 22 -32 26q-18 2 -121 2q-3 0 -5.5 -3.5t-2.5 -5.5v-168q0 -26 22 -33
q33 -7 129 -7q32 0 46.5 5.5t30.5 25.5q30 36 53 90q5 1 21.5 -5.5t20.5 -10.5q-20 -95 -47 -148q-9 -15 -52 -16q-64 -67 -64 -110q0 -21 13 -32t32 -11q24 0 50 14q2 -5 1 -19.5t-3 -17.5q-18 -25 -48 -38t-55 -13q-32 0 -58.5 19.5t-26.5 62.5q0 66 104 145
q-14 0 -100.5 2t-137.5 2q-26 0 -91.5 -1.5t-92.5 -1.5q-2 7 -2 21t2 18z" />
    <glyph glyph-name="uni0119" unicode="&#x119;" horiz-adv-x="457" 
d="M420 122q5 -5 5 -7q2 -18 -6 -37q-33 -42 -89 -68q-34 -25 -52.5 -55.5t-18.5 -51.5t12 -31.5t31 -10.5q24 0 47 13q2 -5 1 -18.5t-3 -16.5q-16 -24 -45 -36t-53 -12q-31 0 -56 18t-25 59q0 52 89 122q-8 -2 -24 -2q-85 0 -135 48q-60 56 -60 165q0 60 25.5 108t68.5 74
q58 35 121 35q41 0 72.5 -14.5t49.5 -39t27.5 -47.5t12.5 -47q2 -9 17 -14q1 -3 -2.5 -16t-5.5 -15q-38 -13 -249 -22q-5 -2 -5 -10q5 -47 39 -78q33 -32 94 -32q63 0 117 39zM224 374q-26 0 -41.5 -32.5t-15.5 -80.5q0 -7 7 -7q18 -1 56 -0.5t50 2.5q5 1 8 9
q-3 50 -19.5 79.5t-44.5 29.5z" />
    <glyph glyph-name="uni011A" unicode="&#x11a;" horiz-adv-x="601" 
d="M32 568q-3 5 -2 20.5t4 18.5q20 0 74.5 -1.5t79.5 -1.5h207q90 0 132 7q3 -1 4 -5q-8 -36 -14 -153q-4 -4 -21.5 -4.5t-21.5 1.5q-8 48 -19 70q-10 26 -41 28q-21 2 -75 2t-66 -2q-3 -1 -6.5 -7.5t-3.5 -10.5v-188q0 -8 7 -8q108 0 125 1q26 1 34 33q2 6 4.5 19.5
t3.5 18.5q4 2 23 1.5t24 -4.5q-6 -69 -6 -98q0 -49 2 -103q-5 -3 -22.5 -3.5t-22.5 2.5l-10 42q-9 23 -33 27q-18 2 -121 2q-3 0 -5.5 -3.5t-2.5 -5.5v-168q0 -26 22 -33q33 -7 129 -7q32 0 46.5 5.5t30.5 25.5q30 36 53 90q5 1 21.5 -5.5t20.5 -10.5q-20 -95 -47 -148
q-8 -16 -53 -16q-36 0 -133.5 2t-158.5 2q-26 0 -91.5 -1.5t-92.5 -1.5q-2 7 -2 21t2 18q49 5 76 13q28 7 29 47q2 39 2 235q0 150 -2 187q-1 20 -7.5 28t-21.5 13q-17 5 -54 9zM317 647q-4 -3 -24 -7q-9 10 -62 53t-77 61q0 4 8 17.5t11 13.5q5 0 60 -22.5t69 -29.5
q4 -2 9 0q109 52 121 52q4 0 11.5 -12.5t5.5 -17.5q-24 -17 -73 -56.5t-59 -51.5z" />
    <glyph glyph-name="uni011B" unicode="&#x11b;" horiz-adv-x="457" 
d="M420 122q5 -5 5 -7q2 -18 -6 -37q-32 -41 -84 -65.5t-102 -24.5q-85 0 -135 48q-60 56 -60 165q0 60 25.5 108t68.5 74q58 35 121 35q41 0 72.5 -14.5t49.5 -39t27.5 -47.5t12.5 -47q2 -9 17 -14q1 -3 -2.5 -16t-5.5 -15q-38 -13 -249 -22q-5 -2 -5 -10q5 -47 39 -78
q33 -32 94 -32q63 0 117 39zM224 374q-26 0 -41.5 -32.5t-15.5 -80.5q0 -7 7 -7q18 -1 56 -0.5t50 2.5q5 1 8 9q-3 50 -19.5 79.5t-44.5 29.5zM248 538q47 74 56 80q7 4 25 7t26 2q1 0 2.5 -3t0.5 -5q-17 -24 -50.5 -80t-43.5 -81q-1 -3 -20 -8.5t-24 -5.5q-14 30 -48 88
t-49 78q2 5 24.5 13.5t31.5 7.5q13 -3 64 -93q3 -2 5 0z" />
    <glyph glyph-name="uni011C" unicode="&#x11c;" horiz-adv-x="724" 
d="M656 45q1 -4 -1.5 -13t-5.5 -12q-120 -38 -234 -38q-174 0 -268.5 81t-94.5 242q0 98 48 171.5t133 108.5q87 37 204 37q55 0 128 -11t83 -12q-18 -74 -18 -181q-4 -5 -22.5 -6.5t-22.5 2.5q-11 96 -47 123q-49 40 -132 40q-82 0 -134 -59t-52 -197q0 -128 58.5 -210.5
t154.5 -82.5q27 0 41 13q9 8 12 30q4 35 2 95q-1 18 -3 27t-9.5 18t-21.5 13q-8 2 -18.5 3.5t-25 3.5t-25.5 4q-3 6 -2.5 21.5t3.5 19.5q8 0 69.5 -1.5t104.5 -1.5q64 0 130 3q3 -4 3 -20.5t-3 -20.5q-26 -5 -33 -7q-14 -5 -19 -14.5t-5 -36.5q-1 -19 -1 -59t1 -47
q4 -12 23 -26zM384 793q9 7 24 7q19 -19 140 -114q0 -4 -8 -17.5t-12 -13.5q-5 0 -61 23t-68 30q-5 2 -9 0q-18 -10 -67.5 -31.5t-53.5 -21.5t-11 12.5t-6 17.5q24 17 73 56.5t59 51.5z" />
    <glyph glyph-name="uni011D" unicode="&#x11d;" horiz-adv-x="483" 
d="M231 418q47 0 112 -20q35 -11 63 -11q26 0 37 3.5t24 16.5q2 2 9.5 -2.5t7.5 -6.5q1 -9 -8.5 -33.5t-18.5 -33.5q-12 -12 -36 -12q-14 0 -20 1q-1 0 -1.5 -1.5t0.5 -2.5q5 -15 5 -36q0 -77 -57 -123q-47 -32 -118 -38q-3 0 -20.5 -0.5t-19.5 -0.5q-3 1 -8 -4.5t-5 -10.5
q0 -22 33 -25q146 -13 175 -21q33 -9 57.5 -35.5t24.5 -69.5q0 -57 -37 -102t-98 -74q-58 -27 -126 -27q-74 0 -124 29q-63 37 -63 92q0 26 6 39q16 15 90 56q1 0 1 1.5t-1 1.5q-62 29 -65 84q2 12 4 17q46 21 83 48q1 1 1 3.5t-1 2.5q-101 35 -101 139q0 75 61 117
q58 39 134 39zM216 378q-24 0 -39.5 -23.5t-15.5 -64.5q0 -130 70 -130q20 0 33 15q20 25 20 78q0 55 -17 90t-51 35zM254 -193q57 0 84.5 21t27.5 51q0 34 -35 52q-47 23 -156 23q-17 0 -26 -7q-27 -20 -27 -47q0 -33 24 -56q37 -37 108 -37zM229 538q-43 -72 -55 -79
q-8 -4 -25 -7.5t-26 -2.5q-7 2 -4 8q17 23 50.5 79t44.5 82q1 3 20.5 9t23.5 6q13 -31 47 -87t50 -80q-2 -4 -24 -12.5t-32 -8.5q-13 3 -64 93q-2 2 -6 0z" />
    <glyph glyph-name="uni011E" unicode="&#x11e;" horiz-adv-x="724" 
d="M656 45q1 -4 -1.5 -13t-5.5 -12q-120 -38 -234 -38q-174 0 -268.5 81t-94.5 242q0 98 48 171.5t133 108.5q87 37 204 37q55 0 128 -11t83 -12q-18 -74 -18 -181q-4 -5 -22.5 -6.5t-22.5 2.5q-11 96 -47 123q-49 40 -132 40q-82 0 -134 -59t-52 -197q0 -128 58.5 -210.5
t154.5 -82.5q27 0 41 13q9 8 12 30q4 35 2 95q-1 18 -3 27t-9.5 18t-21.5 13q-8 2 -18.5 3.5t-25 3.5t-25.5 4q-3 6 -2.5 21.5t3.5 19.5q8 0 69.5 -1.5t104.5 -1.5q64 0 130 3q3 -4 3 -20.5t-3 -20.5q-26 -5 -33 -7q-14 -5 -19 -14.5t-5 -36.5q-1 -19 -1 -59t1 -47
q4 -12 23 -26zM420 729q52 0 91 46q2 2 15 9.5t16 7.5q10 0 10 -7q-15 -49 -59 -85.5t-101 -36.5q-53 0 -85.5 23t-32.5 57q0 9 11.5 25.5t21.5 22.5q3 2 8.5 1t6.5 -3q19 -60 98 -60z" />
    <glyph glyph-name="uni011F" unicode="&#x11f;" horiz-adv-x="483" 
d="M231 418q47 0 112 -20q35 -11 63 -11q26 0 37 3.5t24 16.5q2 2 9.5 -2.5t7.5 -6.5q1 -9 -8.5 -33.5t-18.5 -33.5q-12 -12 -36 -12q-14 0 -20 1q-1 0 -1.5 -1.5t0.5 -2.5q5 -15 5 -36q0 -77 -57 -123q-47 -32 -118 -38q-3 0 -20.5 -0.5t-19.5 -0.5q-3 1 -8 -4.5t-5 -10.5
q0 -22 33 -25q146 -13 175 -21q33 -9 57.5 -35.5t24.5 -69.5q0 -57 -37 -102t-98 -74q-58 -27 -126 -27q-74 0 -124 29q-63 37 -63 92q0 26 6 39q16 15 90 56q1 0 1 1.5t-1 1.5q-62 29 -65 84q2 12 4 17q46 21 83 48q1 1 1 3.5t-1 2.5q-101 35 -101 139q0 75 61 117
q58 39 134 39zM216 378q-24 0 -39.5 -23.5t-15.5 -64.5q0 -130 70 -130q20 0 33 15q20 25 20 78q0 55 -17 90t-51 35zM254 -193q57 0 84.5 21t27.5 51q0 34 -35 52q-47 23 -156 23q-17 0 -26 -7q-27 -20 -27 -47q0 -33 24 -56q37 -37 108 -37zM247 530q53 0 87 50
q2 3 14.5 10.5t15.5 7.5q2 0 5 -2.5t3 -5.5q-10 -56 -50.5 -93.5t-100.5 -37.5q-48 0 -80.5 25.5t-32.5 64.5q0 11 13.5 25.5t28.5 24.5q2 1 7.5 0.5t6.5 -3.5q12 -66 83 -66z" />
    <glyph glyph-name="uni0120" unicode="&#x120;" horiz-adv-x="724" 
d="M656 45q1 -4 -1.5 -13t-5.5 -12q-120 -38 -234 -38q-174 0 -268.5 81t-94.5 242q0 98 48 171.5t133 108.5q87 37 204 37q55 0 128 -11t83 -12q-18 -74 -18 -181q-4 -5 -22.5 -6.5t-22.5 2.5q-11 96 -47 123q-49 40 -132 40q-82 0 -134 -59t-52 -197q0 -128 58.5 -210.5
t154.5 -82.5q27 0 41 13q9 8 12 30q4 35 2 95q-1 18 -3 27t-9.5 18t-21.5 13q-8 2 -18.5 3.5t-25 3.5t-25.5 4q-3 6 -2.5 21.5t3.5 19.5q8 0 69.5 -1.5t104.5 -1.5q64 0 130 3q3 -4 3 -20.5t-3 -20.5q-26 -5 -33 -7q-14 -5 -19 -14.5t-5 -36.5q-1 -19 -1 -59t1 -47
q4 -12 23 -26zM475 736q0 -34 -29 -59q-7 -7 -36 -9.5t-37 2.5q-24 11 -36 45q-2 3 -0.5 23t6.5 26q25 25 77 25q33 0 47 -14q8 -13 8 -39z" />
    <glyph glyph-name="uni0121" unicode="&#x121;" horiz-adv-x="483" 
d="M231 418q47 0 112 -20q35 -11 63 -11q26 0 37 3.5t24 16.5q2 2 9.5 -2.5t7.5 -6.5q1 -9 -8.5 -33.5t-18.5 -33.5q-12 -12 -36 -12q-14 0 -20 1q-1 0 -1.5 -1.5t0.5 -2.5q5 -15 5 -36q0 -77 -57 -123q-47 -32 -118 -38q-3 0 -20.5 -0.5t-19.5 -0.5q-3 1 -8 -4.5t-5 -10.5
q0 -22 33 -25q146 -13 175 -21q33 -9 57.5 -35.5t24.5 -69.5q0 -57 -37 -102t-98 -74q-58 -27 -126 -27q-74 0 -124 29q-63 37 -63 92q0 26 6 39q16 15 90 56q1 0 1 1.5t-1 1.5q-62 29 -65 84q2 12 4 17q46 21 83 48q1 1 1 3.5t-1 2.5q-101 35 -101 139q0 75 61 117
q58 39 134 39zM216 378q-24 0 -39.5 -23.5t-15.5 -64.5q0 -130 70 -130q20 0 33 15q20 25 20 78q0 55 -17 90t-51 35zM254 -193q57 0 84.5 21t27.5 51q0 34 -35 52q-47 23 -156 23q-17 0 -26 -7q-27 -20 -27 -47q0 -33 24 -56q37 -37 108 -37zM306 542q0 -35 -29 -60
q-7 -7 -37 -9.5t-37 2.5q-25 11 -37 45q-5 37 5 50q26 25 80 25q30 0 47 -14q8 -11 8 -39z" />
    <glyph glyph-name="uni0122" unicode="&#x122;" horiz-adv-x="724" 
d="M656 45q1 -4 -1.5 -13t-5.5 -12q-120 -38 -234 -38q-174 0 -268.5 81t-94.5 242q0 98 48 171.5t133 108.5q87 37 204 37q55 0 128 -11t83 -12q-18 -74 -18 -181q-4 -5 -22.5 -6.5t-22.5 2.5q-11 96 -47 123q-49 40 -132 40q-82 0 -134 -59t-52 -197q0 -128 58.5 -210.5
t154.5 -82.5q27 0 41 13q9 8 12 30q4 35 2 95q-1 18 -3 27t-9.5 18t-21.5 13q-8 2 -18.5 3.5t-25 3.5t-25.5 4q-3 6 -2.5 21.5t3.5 19.5q8 0 69.5 -1.5t104.5 -1.5q64 0 130 3q3 -4 3 -20.5t-3 -20.5q-26 -5 -33 -7q-14 -5 -19 -14.5t-5 -36.5q-1 -19 -1 -59t1 -47
q4 -12 23 -26zM407 -48q19 0 39 -22t20 -57q0 -53 -39 -87.5t-98 -44.5q-5 2 -11 15t-3 18q41 17 54.5 31t13.5 35q0 34 -57 52q-3 2 -2.5 11t2.5 12q12 12 35 24.5t46 12.5z" />
    <glyph glyph-name="uni0123" unicode="&#x123;" horiz-adv-x="483" 
d="M226 455q-20 0 -39.5 23t-19.5 55q0 42 33 73t86 42q9 -20 11 -31q-38 -15 -50 -27.5t-12 -30.5q0 -28 60 -45q1 0 1 -10t-1 -10q-8 -12 -30.5 -25.5t-38.5 -13.5zM231 418q47 0 112 -20q35 -11 63 -11q26 0 37 3.5t24 16.5q2 2 9.5 -2.5t7.5 -6.5q1 -9 -8.5 -33.5
t-18.5 -33.5q-12 -12 -36 -12q-14 0 -20 1q-1 0 -1.5 -1.5t0.5 -2.5q5 -15 5 -36q0 -77 -57 -123q-47 -32 -118 -38q-3 0 -20.5 -0.5t-19.5 -0.5q-3 1 -8 -4.5t-5 -10.5q0 -22 33 -25q146 -13 175 -21q33 -9 57.5 -35.5t24.5 -69.5q0 -57 -37 -102t-98 -74q-58 -27 -126 -27
q-74 0 -124 29q-63 37 -63 92q0 26 6 39q16 15 90 56q1 0 1 1.5t-1 1.5q-62 29 -65 84q2 12 4 17q46 21 83 48q1 1 1 3.5t-1 2.5q-101 35 -101 139q0 75 61 117q58 39 134 39zM216 378q-24 0 -39.5 -23.5t-15.5 -64.5q0 -130 70 -130q20 0 33 15q20 25 20 78q0 55 -17 90
t-51 35zM254 -193q57 0 84.5 21t27.5 51q0 34 -35 52q-47 23 -156 23q-17 0 -26 -7q-27 -20 -27 -47q0 -33 24 -56q37 -37 108 -37z" />
    <glyph glyph-name="uni0124" unicode="&#x124;" horiz-adv-x="765" 
d="M32 568q-3 3 -2 20t4 19q4 0 51 -1.5t98 -1.5q47 0 96 1.5t55 1.5q3 -4 3 -20t-4 -19q-36 -4 -48 -9q-24 -8 -24 -49q-1 -23 -1 -159q1 -6 5 -7q9 -2 126 -2q96 0 109 1q6 3 6 7q0 116 -1 172q-2 29 -20 35q-14 6 -58 11q-4 4 -3.5 20t4.5 19q18 0 64 -1.5t90 -1.5
q49 0 93 1.5t53 1.5q4 -4 4 -19t-4 -20q-36 -4 -50 -10q-24 -9 -25 -49q-1 -33 -1 -220q0 -146 2 -191q2 -40 22 -49q17 -6 65 -13q2 -4 0.5 -20t-5.5 -19q-6 0 -56.5 1.5t-96.5 1.5q-42 0 -95.5 -1.5t-58.5 -1.5q-4 4 -4 19t4 20q37 5 51 9q24 7 25 47q1 24 1 177q0 7 -5 7
q-20 1 -114 1q-121 -1 -125 -3q-2 -2 -2 -6q0 -125 1 -167q0 -23 5 -35t22 -18q22 -7 57 -12q4 -5 2 -20.5t-6 -18.5q-5 0 -26 0.5t-57.5 1.5t-79.5 1q-47 0 -96.5 -1.5t-51.5 -1.5q-3 3 -3 18.5t3 20.5q13 2 47 9q20 5 27 18t9 44q1 15 1 197q0 175 -1 205q-2 25 -7 35
t-19 14q-26 7 -55 10zM370 783q9 7 24 7q19 -19 140 -114q0 -4 -8 -17.5t-12 -13.5q-5 0 -61 23t-68 30q-5 2 -9 0q-18 -10 -67.5 -31.5t-53.5 -21.5t-11 12.5t-6 17.5q24 17 73 56.5t59 51.5z" />
    <glyph glyph-name="uni0125" unicode="&#x125;" horiz-adv-x="541" 
d="M116 783q7 4 23 7q10 -9 64.5 -49.5t75.5 -54.5q0 -4 -7 -15t-10 -11q-5 1 -62.5 23t-68.5 28q-7 2 -10 0q-15 -9 -66.5 -30t-56.5 -21q-4 0 -10.5 9.5t-4.5 14.5q25 16 73.5 51.5t59.5 47.5zM8 588q-4 3 -4 19t4 18q112 6 200 36q3 -1 6.5 -8.5t2.5 -11.5
q-13 -23 -13 -96v-41q0 -40 -0.5 -84t-0.5 -52q0 -2 2 -3t3 0q76 53 127 53q63 0 98.5 -43.5t35.5 -123.5q0 -163 1 -182q0 -13 6 -17q18 -12 50 -16q4 -3 2 -19.5t-7 -19.5l-39 1q-40 2 -81 2q-69 0 -108 -3q-5 5 -5 20t5 19l25 6q10 4 13.5 12.5t4.5 30.5q5 155 -3 196
q-5 26 -26 42t-50 16q-27 0 -46 -10q-6 -2 -6 -12q0 -209 1 -225v-9.5t0.5 -9t1 -7.5t1 -6.5t1.5 -5t3 -5t4.5 -3t6.5 -2.5q22 -6 33 -8q5 -4 4 -19t-6 -20q-12 0 -49.5 1.5t-72.5 1.5q-36 0 -72.5 -1.5t-42.5 -1.5q-4 5 -4 20.5t4 18.5q25 5 35 8q12 4 15 16t4 41
q2 40 2 161q0 251 -4 290q-2 20 -18 28q-2 1 -44 8z" />
    <glyph glyph-name="Hbar" unicode="&#x126;" horiz-adv-x="765" 
d="M30 36q13 2 47 9q20 5 27 18t9 44q1 15 1 197v105h-68q0 35 8 43h59v57q-2 25 -6.5 35t-19.5 14q-29 8 -55 10q-3 3 -2 20t3 19q19 0 70 -1.5t80 -1.5t79 1.5t71 1.5q2 -4 1 -20t-3 -19q-26 -3 -46 -9q-14 -6 -19 -16.5t-5 -32.5q-1 -24 -1 -58h246v71q-1 28 -23 35
q-18 6 -56 10q-2 5 -2 20.5t2 18.5q18 0 64.5 -1.5t90.5 -1.5t90.5 1.5t56.5 1.5q1 -3 1 -18.5t-2 -20.5q-38 -5 -50 -9q-25 -10 -26 -49v-57h77q1 -5 -1.5 -21.5t-4.5 -21.5h-71v-121q0 -146 2 -191q2 -40 22 -49q17 -6 66 -13q2 -5 -0.5 -20.5t-6.5 -18.5q-22 0 -73.5 1.5
t-78.5 1.5q-23 0 -79 -1.5t-74 -1.5q-3 4 -3.5 19.5t2.5 19.5q39 6 52 9q23 7 24 47q1 23 1 157q0 7 -5 7q-20 1 -114 1q-120 -1 -125 -3q-2 -2 -2 -6q0 -105 1 -147q0 -45 26 -53q21 -6 58 -12q2 -5 0.5 -20t-4.5 -19q-3 0 -54 1.5t-109 1.5q-47 0 -96.5 -1.5t-51.5 -1.5
q-3 2 -2.5 19t2.5 20zM506 410h-246v-79q2 -5 5 -8q9 -2 126 -2q96 0 109 2q6 3 6 6v81z" />
    <glyph glyph-name="hbar" unicode="&#x127;" horiz-adv-x="541" 
d="M18 36q22 4 35 8q12 4 15 16t4 41q2 80 2 161l-1 218q-9 0 -32.5 -0.5t-33.5 -0.5q4 40 8 44q8 0 30.5 -0.5t26.5 -0.5v31q-1 21 -22 29q-16 4 -44 8q-2 5 -1 19t3 16q42 1 105 13t95 23q4 -1 7 -9t2 -12q-8 -12 -10 -29.5t-3 -70.5v-18q17 0 66 0.5t52 0.5
q1 -5 -1 -21.5t-4 -22.5q-6 0 -54.5 0.5t-59.5 0.5v-112q0 -2 2 -3t3 0q76 53 127 53q63 0 98.5 -43.5t35.5 -123.5q0 -163 1 -182q0 -12 6 -17q18 -12 50 -16q3 -6 1.5 -20.5t-6.5 -18.5l-39 1q-40 2 -81 2q-69 0 -108 -3q-9 22 0 39l25 6q10 4 13.5 12.5t4.5 30.5
q5 150 -3 196q-6 26 -26.5 42t-49.5 16q-27 0 -46 -10q-6 -2 -6 -12q0 -209 1 -225v-9.5t0.5 -9t1 -7.5t1 -6.5t1.5 -5t3 -5t4.5 -3t6.5 -2.5q20 -6 33 -8q8 -16 -2 -39q-13 0 -54.5 1.5t-67.5 1.5q-22 0 -60.5 -1.5t-54.5 -1.5q-11 26 0 39z" />
    <glyph glyph-name="uni0128" unicode="&#x128;" horiz-adv-x="373" 
d="M29 568q-3 4 -2.5 19.5t4.5 19.5q13 0 62.5 -1.5t88.5 -1.5q60 0 107.5 1.5t49.5 1.5q2 -4 2.5 -19t-2.5 -20q-40 -6 -55 -10q-15 -5 -19 -16t-5 -33q-1 -16 -1 -182q0 -213 1 -232q2 -40 30 -48q13 -4 60 -11q3 -4 0.5 -20t-6.5 -19q-111 3 -154 3q-52 0 -100.5 -1.5
t-60.5 -1.5q-4 3 -4 19.5t4 19.5q37 5 47 8q20 5 27 14.5t9 38.5q2 31 2 228q0 150 -3 192q-2 33 -25 40q-20 6 -57 11zM257 733q39 0 75 35q3 3 7 -10q4 -16 3 -23q-12 -24 -47 -48t-68 -24q-23 0 -75 19q-30 10 -45 10q-27 0 -67 -35q-1 -1 -3 2t-4 7t-3 8.5t-1.5 8
t0.5 4.5q10 18 45.5 46t58.5 28q21 0 68 -15q37 -13 56 -13z" />
    <glyph glyph-name="uni0129" unicode="&#x129;" horiz-adv-x="281" 
d="M269 36q3 -3 1 -19.5t-7 -19.5q-2 0 -43 1.5t-81 1.5q-32 0 -70.5 -1.5t-47.5 -1.5q-3 4 -3 19.5t3 19.5q28 5 39 9q6 2 9.5 6.5t4 11t1.5 20.5q2 46 2 128q0 72 -1 90q0 17 -7 25q-11 11 -43 24q-3 5 -1.5 18t4.5 16q23 0 84.5 10.5t95.5 24.5v-170q0 -115 1 -162
q0 -36 18 -42q13 -5 41 -9zM207 544q37 0 72 34q1 1 2 0.5t3 -2t2 -3.5q4 -19 -4 -31q-11 -24 -41.5 -46t-61.5 -22q-20 0 -70 18q-22 8 -41 8q-29 0 -65 -34q-1 -1 -2.5 0t-3.5 2.5t-2 3.5q-1 6 1 19t4 15q10 18 40.5 41t51.5 23q26 0 64 -13q32 -13 51 -13z" />
    <glyph glyph-name="uni012A" unicode="&#x12a;" horiz-adv-x="373" 
d="M29 568q-3 4 -2.5 19.5t4.5 19.5q13 0 62.5 -1.5t88.5 -1.5q60 0 107.5 1.5t49.5 1.5q2 -4 2.5 -19t-2.5 -20q-40 -6 -55 -10q-15 -5 -19 -16t-5 -33q-1 -16 -1 -182q0 -213 1 -232q2 -40 30 -48q13 -4 60 -11q3 -4 0.5 -20t-6.5 -19q-111 3 -154 3q-52 0 -100.5 -1.5
t-60.5 -1.5q-4 3 -4 19.5t4 19.5q37 5 47 8q20 5 27 14.5t9 38.5q2 31 2 228q0 150 -3 192q-2 33 -25 40q-20 6 -57 11zM69 745q20 -2 62 -2h191q0 -11 -9 -39.5t-12 -29.5q-16 -3 -214 -3l-38 2q1 8 9.5 38.5t10.5 33.5z" />
    <glyph glyph-name="uni012B" unicode="&#x12b;" horiz-adv-x="281" 
d="M269 36q3 -3 1 -19.5t-7 -19.5q-2 0 -43 1.5t-81 1.5q-32 0 -70.5 -1.5t-47.5 -1.5q-3 4 -3 19.5t3 19.5q28 5 39 9q6 2 9.5 6.5t4 11t1.5 20.5q2 46 2 128q0 72 -1 90q0 17 -7 25q-11 11 -43 24q-3 5 -1.5 18t4.5 16q23 0 84.5 10.5t95.5 24.5v-170q0 -115 1 -162
q0 -36 18 -42q13 -5 41 -9zM33 560q18 -2 47 -2q27 0 75.5 -0.5t75 -0.5t29.5 1q0 -11 -7.5 -40t-10.5 -30q-14 -3 -192 -3q-31 0 -35 2q1 8 8.5 39.5t9.5 33.5z" />
    <glyph glyph-name="uni012C" unicode="&#x12c;" horiz-adv-x="373" 
d="M29 568q-3 4 -2.5 19.5t4.5 19.5q13 0 62.5 -1.5t88.5 -1.5q60 0 107.5 1.5t49.5 1.5q2 -4 2.5 -19t-2.5 -20q-40 -6 -55 -10q-15 -5 -19 -16t-5 -33q-1 -16 -1 -182q0 -213 1 -232q2 -40 30 -48q13 -4 60 -11q3 -4 0.5 -20t-6.5 -19q-111 3 -154 3q-52 0 -100.5 -1.5
t-60.5 -1.5q-4 3 -4 19.5t4 19.5q37 5 47 8q20 5 27 14.5t9 38.5q2 31 2 228q0 150 -3 192q-2 33 -25 40q-20 6 -57 11zM200 715q52 0 91 46q2 2 15 9.5t16 7.5q10 0 10 -7q-15 -49 -59 -85.5t-101 -36.5q-53 0 -85.5 23t-32.5 57q0 9 11.5 25.5t21.5 22.5q3 2 8.5 1t6.5 -3
q19 -60 98 -60z" />
    <glyph glyph-name="uni012D" unicode="&#x12d;" horiz-adv-x="281" 
d="M269 36q3 -3 1 -19.5t-7 -19.5q-2 0 -43 1.5t-81 1.5q-32 0 -70.5 -1.5t-47.5 -1.5q-3 4 -3 19.5t3 19.5q28 5 39 9q6 2 9.5 6.5t4 11t1.5 20.5q2 46 2 128q0 72 -1 90q0 17 -7 25q-11 11 -43 24q-3 5 -1.5 18t4.5 16q23 0 84.5 10.5t95.5 24.5v-170q0 -115 1 -162
q0 -36 18 -42q13 -5 41 -9zM150 530q53 0 87 50q2 3 14.5 10.5t15.5 7.5q2 0 5 -2.5t3 -5.5q-10 -56 -50.5 -93.5t-100.5 -37.5q-48 0 -80.5 25.5t-32.5 64.5q0 11 13.5 25.5t28.5 24.5q2 1 7.5 0.5t6.5 -3.5q12 -66 83 -66z" />
    <glyph glyph-name="uni012E" unicode="&#x12e;" horiz-adv-x="373" 
d="M182 -231q-33 0 -59.5 19.5t-26.5 62.5q0 68 102 149q-57 0 -107.5 -1.5t-61.5 -1.5q-4 3 -4 19.5t4 19.5q37 5 47 8q18 3 25.5 12.5t10.5 40.5q2 31 2 228q0 128 -3 191q-2 36 -25 41q-15 5 -57 11q-3 7 -2.5 21t4.5 18q13 0 62.5 -1.5t88.5 -1.5q60 0 107.5 1.5
t49.5 1.5q2 -4 2.5 -19t-2.5 -20q-40 -6 -55 -10q-15 -5 -19 -16t-5 -33q-1 -16 -1 -182q0 -213 1 -232q2 -40 30 -48q13 -4 60 -11q3 -4 0.5 -20t-6.5 -19l-100 3q-53 -60 -53 -113q0 -21 13 -32.5t32 -11.5q25 0 51 14q2 -5 1 -19.5t-3 -17.5q-18 -25 -48 -38t-55 -13z
" />
    <glyph glyph-name="uni012F" unicode="&#x12f;" horiz-adv-x="281" 
d="M131 -220q-31 0 -56 18.5t-25 59.5q0 35 28.5 73t68.5 69q-37 0 -77.5 -1.5t-48.5 -1.5q-3 4 -3 19.5t3 19.5q28 5 39 9q6 2 9.5 6.5t4 11t1.5 20.5q2 46 2 128q0 74 -1 90q0 17 -7 25q-11 11 -43 24q-3 5 -1.5 18t4.5 16q23 0 84.5 10.5t95.5 24.5v-170q0 -115 1 -162
q0 -36 18 -42q13 -5 41 -9q3 -3 1 -19.5t-7 -19.5q-5 0 -29 1t-44 2q-49 -60 -49 -108q0 -20 12.5 -30.5t30.5 -10.5q24 0 47 13q2 -5 1 -19t-3 -17q-16 -24 -45 -36t-53 -12zM205 543q0 -37 -29 -61q-7 -7 -36.5 -9.5t-39.5 2.5q-23 9 -35 45q-5 37 6 51q26 24 78 24
q32 0 48 -13q8 -15 8 -39z" />
    <glyph glyph-name="uni0130" unicode="&#x130;" horiz-adv-x="373" 
d="M29 568q-3 4 -2.5 19.5t4.5 19.5q13 0 62.5 -1.5t88.5 -1.5q60 0 107.5 1.5t49.5 1.5q2 -4 2.5 -19t-2.5 -20q-40 -6 -55 -10q-15 -5 -19 -16t-5 -33q-1 -16 -1 -182q0 -213 1 -232q2 -40 30 -48q13 -4 60 -11q3 -4 0.5 -20t-6.5 -19q-111 3 -154 3q-52 0 -100.5 -1.5
t-60.5 -1.5q-4 3 -4 19.5t4 19.5q37 5 47 8q20 5 27 14.5t9 38.5q2 31 2 228q0 150 -3 192q-2 33 -25 40q-20 6 -57 11zM256 725q0 -34 -29 -59q-7 -7 -36 -9.5t-37 2.5q-24 11 -36 45q-2 3 -0.5 23t6.5 26q25 25 77 25q33 0 47 -14q8 -13 8 -39z" />
    <glyph glyph-name="dotlessi" unicode="&#x131;" horiz-adv-x="281" 
d="M269 36q3 -3 1 -19.5t-7 -19.5q-2 0 -43 1.5t-81 1.5q-32 0 -70.5 -1.5t-47.5 -1.5q-3 4 -3 19.5t3 19.5q28 5 39 9q6 2 9.5 6.5t4 11t1.5 20.5q2 46 2 128q0 72 -1 90q0 17 -7 25q-11 11 -43 24q-3 5 -1.5 18t4.5 16q23 0 84.5 10.5t95.5 24.5v-170q0 -115 1 -162
q0 -36 18 -42q13 -5 41 -9z" />
    <glyph glyph-name="IJ" unicode="&#x132;" horiz-adv-x="746" 
d="M29 568q-3 4 -2.5 19.5t4.5 19.5q13 0 62.5 -1.5t88.5 -1.5q60 0 107.5 1.5t49.5 1.5q2 -4 2.5 -19t-2.5 -20q-40 -6 -55 -10q-15 -5 -19 -16t-5 -33q-1 -16 -1 -182q0 -213 1 -232q2 -40 30 -48q13 -4 60 -11q3 -4 0.5 -20t-6.5 -19q-111 3 -154 3q-52 0 -100.5 -1.5
t-60.5 -1.5q-4 3 -4 19.5t4 19.5q37 5 47 8q20 5 27 14.5t9 38.5q2 31 2 228q0 150 -3 192q-2 33 -25 40q-20 6 -57 11zM406 568q-3 5 -2 20t4 19q8 0 56.5 -1.5t107.5 -1.5q52 0 99 1.5t53 1.5q3 -5 3.5 -19.5t-3.5 -19.5q-33 -4 -49 -11q-13 -5 -18.5 -14t-5.5 -31
q0 -27 -1 -179.5t-4 -220.5q-7 -108 -45 -172q-42 -69 -106.5 -113.5t-119.5 -44.5q-64 0 -82 29v17q4 18 15.5 50.5t18.5 44.5q83 -58 123 -58q21 0 34 14q9 11 11.5 27.5t4.5 60.5q6 317 -2 541q-3 42 -30 49t-62 11z" />
    <glyph glyph-name="ij" unicode="&#x133;" horiz-adv-x="564" 
d="M268 36q3 -4 1 -19.5t-6 -19.5q-3 0 -43.5 1.5t-80.5 1.5q-32 0 -70.5 -1.5t-47.5 -1.5q-3 4 -3 19.5t3 19.5q28 5 39 9q6 2 9.5 6.5t4 11t1.5 20.5q2 46 2 128q0 72 -1 90q0 17 -7 25q-11 11 -43 24q-3 5 -1.5 18t4.5 16q23 0 84.5 10.5t95.5 24.5v-170q0 -115 1 -162
q0 -36 18 -42q13 -5 40 -9zM205 543q0 -37 -29 -61q-7 -7 -36.5 -9.5t-39.5 2.5q-24 10 -35 45q-3 8 -1.5 25.5t7.5 25.5q26 24 78 24q32 0 48 -13q8 -15 8 -39zM491 544q0 -42 -28 -61q-8 -5 -37.5 -9.5t-38.5 -0.5q-28 15 -36 54q-7 32 7 46q25 25 77 25q16 0 29.5 -5.5
t17.5 -11.5q9 -10 9 -37zM498 416q-1 -102 -1 -304q-2 -92 -11 -133q-20 -85 -70 -143t-90 -76q-28 1 -41 19q-1 3 -0.5 8.5t1.5 7.5q46 23 61 61.5t15 126.5q0 264 -3 315q-2 30 -18 37q-7 5 -45 16q-3 6 -2.5 19.5t2.5 17.5q124 5 202 28z" />
    <glyph glyph-name="uni0134" unicode="&#x134;" horiz-adv-x="373" 
d="M33 568q-3 5 -2 20t4 19q8 0 56.5 -1.5t107.5 -1.5q51 0 98 1.5t54 1.5q3 -5 3.5 -19.5t-3.5 -19.5q-33 -4 -49 -11q-13 -5 -18.5 -14t-5.5 -31q0 -27 -1 -179.5t-4 -220.5q-7 -108 -45 -172q-42 -69 -106.5 -113.5t-119.5 -44.5q-64 0 -82 29v17q4 18 15.5 50.5
t18.5 44.5q83 -58 123 -58q21 0 34 14q9 11 11.5 27.5t4.5 60.5q6 317 -2 541q-3 42 -30 49t-62 11zM182 783q9 7 24 7q19 -19 140 -114q0 -4 -8 -17.5t-12 -13.5q-5 0 -61 23t-68 30q-5 2 -9 0q-18 -10 -67.5 -31.5t-53.5 -21.5t-11 12.5t-6 17.5q24 17 73 56.5t59 51.5z
" />
    <glyph glyph-name="uni0135" unicode="&#x135;" horiz-adv-x="283" 
d="M217 416q-1 -102 -1 -304q-2 -92 -11 -133q-20 -85 -70 -143t-90 -76q-23 1 -41 19q-1 3 -0.5 8.5t1.5 7.5q46 23 61 61.5t15 126.5q0 264 -3 315q-2 30 -18 37q-7 5 -45 16q-3 6 -2.5 19.5t2.5 17.5q124 5 202 28zM134 539q-43 -72 -55 -79q-8 -4 -25 -7.5t-26 -2.5
q-7 2 -4 8q17 23 50.5 79t44.5 82q1 3 20.5 9t23.5 6q13 -31 47 -87t50 -80q-2 -5 -24 -13t-32 -8q-13 3 -64 93q-2 2 -6 0z" />
    <glyph glyph-name="uni0136" unicode="&#x136;" horiz-adv-x="684" 
d="M257 302q0 -166 2 -210q1 -35 29 -44q6 -2 58 -13q2 -4 -0.5 -19.5t-5.5 -18.5q-138 3 -157 3q-51 0 -99 -1.5t-56 -1.5q-3 5 -3 19.5t3 18.5l55 11q18 5 23 17t6 44q2 93 1 211q0 161 -1 194q-2 39 -23 44q-8 3 -57 12q-4 4 -3 19.5t4 19.5q2 0 50 -1.5t101 -1.5
q28 0 76 1.5t70 1.5q2 -5 2.5 -19t-2.5 -20q-30 -4 -45 -9q-25 -8 -26 -47q-1 -26 -1.5 -103t-0.5 -107zM397 568q-2 7 -2 21t3 18q12 0 52 -1.5t73 -1.5q70 1 135 3q4 -4 3.5 -19.5t-4.5 -19.5q-48 -7 -72.5 -18t-52.5 -45q-19 -22 -67 -78.5t-66 -76.5v-6q33 -56 101 -140
t113 -127q21 -23 43 -31q21 -8 56 -10q3 -5 1.5 -20t-5.5 -19q-33 -4 -115 -2.5t-101 9.5q-26 11 -53 45q-67 78 -158 215q-7 10 -17 17q0 19 4 20q36 18 73.5 55t95.5 114q35 48 35 70q0 12 -17 18q-19 6 -58 10zM395 -32q19 0 39 -22t20 -57q0 -53 -39 -87.5t-98 -44.5
q-5 2 -11 15t-3 18q41 17 54.5 31t13.5 35q0 34 -57 52q-3 2 -2.5 11t2.5 12q12 12 35 24.5t46 12.5z" />
    <glyph glyph-name="uni0137" unicode="&#x137;" horiz-adv-x="509" 
d="M265 365q-2 5 -0.5 20.5t5.5 18.5q132 -2 211 7q4 -3 4 -19t-4 -21q-59 -11 -82 -36q-69 -66 -83 -83v-5q15 -27 69.5 -98.5t78.5 -91.5q14 -12 24 -15.5t41 -5.5q3 -4 0.5 -19.5t-6.5 -19.5q-29 -5 -128 -5q-42 1 -62 24q-27 26 -101 142q-19 27 -28 30q0 -66 1 -103
q1 -22 6 -30t19 -12q12 -3 34 -7q3 -5 0.5 -20.5t-6.5 -18.5q-8 0 -46 1.5t-74 1.5q-35 0 -73.5 -1.5t-48.5 -1.5q-4 4 -4 19.5t4 19.5q21 2 36 7q17 6 18 38q3 41 3 146q0 310 -2 326q-2 25 -17 31q-11 4 -41 10q-2 4 -2 18t2 17q44 1 107.5 12t90.5 20q2 -1 5 -9t2 -10
q-11 -18 -12 -103q-3 -174 -2 -319q20 3 44 22q27 22 53.5 54t26.5 43q0 13 -17 18q-6 1 -17 3t-19.5 3.5t-9.5 1.5zM299 -37q19 0 39 -22t20 -57q0 -53 -39 -87.5t-98 -44.5q-5 2 -11 15t-3 18q41 17 54.5 31t13.5 35q0 34 -57 52q-3 2 -2.5 11t2.5 12q12 12 35 24.5
t46 12.5z" />
    <glyph glyph-name="uni0138" unicode="&#x138;" horiz-adv-x="506" 
d="M19 36q13 2 32 6q24 6 24 40l1 237q-3 23 -17 29q-6 3 -19.5 6t-21.5 6q-1 5 1 19t4 17q121 6 189 22q-4 -22 -7 -75v-128q38 11 85.5 61t47.5 66q0 9 -13 14q-15 3 -43 6q-3 5 -3 21t3 20q17 0 198 5q4 -4 4 -20.5t-4 -20.5q-51 -8 -80 -36l-79 -85q-3 -4 -1 -6
q104 -150 139 -181q13 -11 24.5 -15.5t46.5 -8.5q3 -2 1.5 -18.5t-5.5 -19.5q-23 -5 -126 -5q-31 0 -45 5.5t-29 23.5q-12 14 -29 38.5t-39 59t-34 51.5q-8 8 -19 11q0 -15 1 -51t1 -52q0 -30 22 -36q6 -2 18.5 -4t17.5 -3q2 -4 1 -19t-5 -19q-5 0 -41.5 1.5t-75.5 1.5
q-41 0 -80 -1.5t-45 -1.5q-3 4 -3 20.5t3 18.5z" />
    <glyph glyph-name="uni0139" unicode="&#x139;" horiz-adv-x="579" 
d="M27 568q-3 5 -1.5 21t4.5 18q18 0 64 -1.5t92 -1.5q31 0 151 3q3 -4 2.5 -19t-2.5 -20q-40 -6 -50 -9q-16 -5 -21 -13.5t-6 -28.5q-2 -32 -2 -177q0 -210 3 -248q1 -24 20 -31q22 -6 128 -6q31 0 57 35q32 48 65 120q5 2 22.5 -3.5t19.5 -11.5q-3 -23 -24.5 -90.5
t-38.5 -95.5q-4 -14 -56 -14q-42 0 -139.5 2.5t-137.5 2.5q-48 0 -96.5 -1.5t-58.5 -1.5q-3 5 -3 20t3 19q38 5 60 9q25 9 28 40q4 46 4 224q0 170 -2 209q-2 34 -29 41q-3 1 -56 9zM284 802q10 0 37 -23.5t33 -34.5q1 -1 1 -5.5t-1 -6.5q-15 -13 -96 -52.5t-89 -39.5
q-4 0 -14.5 13t-9.5 18q26 27 75 74t64 57z" />
    <glyph glyph-name="uni013A" unicode="&#x13a;" horiz-adv-x="277" 
d="M17 -3q-3 5 -3.5 19t2.5 20q18 3 39 10q15 6 17 50q1 33 1 224q0 187 -3 236q-2 18 -14 23q-9 5 -46 9q-3 4 -2.5 17.5t4.5 17.5q46 4 109.5 16t87.5 22q3 -1 6 -6.5t2 -9.5q-9 -22 -11 -84q-1 -27 -1 -109.5v-144.5q0 -210 1 -225q2 -19 6 -26.5t18 -11.5q11 -3 36 -8
q3 -6 1 -19.5t-6 -19.5q-4 0 -21 0.5t-46.5 1.5t-63.5 1q-35 0 -72 -1.5t-41 -1.5zM212 831q10 0 37 -23.5t33 -34.5q1 -1 1 -6t-1 -6q-15 -13 -96 -52.5t-89 -39.5q-4 0 -14.5 13t-9.5 18q26 27 75 74t64 57z" />
    <glyph glyph-name="uni013B" unicode="&#x13b;" horiz-adv-x="579" 
d="M27 568q-3 5 -1.5 21t4.5 18q18 0 64 -1.5t92 -1.5q31 0 151 3q3 -4 2.5 -19t-2.5 -20q-40 -6 -50 -9q-16 -5 -21 -13.5t-6 -28.5q-2 -32 -2 -177q0 -210 3 -248q1 -24 20 -31q22 -6 128 -6q31 0 57 35q32 48 65 120q5 2 22.5 -3.5t19.5 -11.5q-3 -23 -24.5 -90.5
t-38.5 -95.5q-4 -14 -56 -14q-42 0 -139.5 2.5t-137.5 2.5q-48 0 -96.5 -1.5t-58.5 -1.5q-3 5 -3 20t3 19q38 5 60 9q25 9 28 40q4 46 4 224q0 170 -2 209q-2 34 -29 41q-3 1 -56 9zM294 -35q19 0 39 -22t20 -57q0 -53 -39 -87.5t-98 -44.5q-5 2 -11 15t-3 18q41 17 54.5 31
t13.5 35q0 34 -57 52q-3 2 -2.5 11t2.5 12q12 12 35 24.5t46 12.5z" />
    <glyph glyph-name="uni013C" unicode="&#x13c;" horiz-adv-x="277" 
d="M17 -3q-3 5 -3.5 19t2.5 20q18 3 39 10q15 6 17 50q1 33 1 224q0 187 -3 236q-2 18 -14 23q-9 5 -46 9q-3 4 -2.5 17.5t4.5 17.5q46 4 109.5 16t87.5 22q3 -1 6 -6.5t2 -9.5q-9 -22 -11 -84q-1 -27 -1 -109.5v-144.5q0 -210 1 -225q2 -19 6 -26.5t18 -11.5q11 -3 36 -8
q3 -6 1 -19.5t-6 -19.5q-4 0 -21 0.5t-46.5 1.5t-63.5 1q-35 0 -72 -1.5t-41 -1.5zM145 -34q19 0 39 -22t20 -57q0 -53 -39 -87.5t-98 -44.5q-5 2 -11 15t-3 18q41 17 54.5 31t13.5 35q0 34 -57 52q-3 2 -2.5 11t2.5 12q12 12 35 24.5t46 12.5z" />
    <glyph glyph-name="uni013D" unicode="&#x13d;" horiz-adv-x="579" 
d="M27 568q-3 5 -1.5 21t4.5 18q18 0 64 -1.5t92 -1.5q31 0 151 3q3 -4 2.5 -19t-2.5 -20q-40 -6 -50 -9q-16 -5 -21 -13.5t-6 -28.5q-2 -32 -2 -177q0 -210 3 -248q1 -24 20 -31q22 -6 128 -6q31 0 57 35q32 48 65 120q5 2 22.5 -3.5t19.5 -11.5q-3 -23 -24.5 -90.5
t-38.5 -95.5q-4 -14 -56 -14q-42 0 -139.5 2.5t-137.5 2.5q-48 0 -96.5 -1.5t-58.5 -1.5q-3 5 -3 20t3 19q38 5 60 9q25 9 28 40q4 46 4 224q0 170 -2 209q-2 34 -29 41q-3 1 -56 9zM510 635q7 0 7 -15q1 -27 -7 -92.5t-17 -94.5q-4 -11 -19 -25t-25 -19q-3 -1 -6 2t-3 4
q0 28 -6.5 99t-9.5 91q0 5 3 9q7 7 39.5 24t43.5 17z" />
    <glyph glyph-name="uni013E" unicode="&#x13e;" horiz-adv-x="277" 
d="M17 -3q-3 5 -3.5 19t2.5 20q18 3 39 10q15 6 17 50q1 33 1 224q0 187 -3 236q-2 18 -14 23q-9 5 -46 9q-3 4 -2.5 17.5t4.5 17.5q46 4 109.5 16t87.5 22q3 -1 6 -6.5t2 -9.5q-9 -22 -11 -84q-1 -27 -1 -109.5v-144.5q0 -210 1 -225q2 -19 6 -26.5t18 -11.5q11 -3 36 -8
q3 -6 1 -19.5t-6 -19.5q-4 0 -21 0.5t-46.5 1.5t-63.5 1q-35 0 -72 -1.5t-41 -1.5zM346 664q7 0 7 -15q1 -27 -7 -92.5t-17 -94.5q-4 -11 -19 -25t-25 -19q-3 -1 -6 2t-3 4q0 28 -6.5 99t-9.5 91q0 5 3 9q7 7 39.5 24t43.5 17z" />
    <glyph glyph-name="Ldot" unicode="&#x13f;" horiz-adv-x="579" 
d="M27 568q-3 5 -1.5 21t4.5 18q18 0 64 -1.5t92 -1.5q31 0 151 3q3 -4 2.5 -19t-2.5 -20q-40 -6 -50 -9q-16 -5 -21 -13.5t-6 -28.5q-2 -32 -2 -177q0 -210 3 -248q1 -24 20 -31q22 -6 128 -6q31 0 57 35q32 48 65 120q5 2 22.5 -3.5t19.5 -11.5q-3 -23 -24.5 -90.5
t-38.5 -95.5q-4 -14 -56 -14q-42 0 -139.5 2.5t-137.5 2.5q-48 0 -96.5 -1.5t-58.5 -1.5q-3 5 -3 20t3 19q38 5 60 9q25 9 28 40q4 46 4 224q0 170 -2 209q-2 34 -29 41q-3 1 -56 9zM513 348q0 -34 -29 -59q-7 -7 -36 -9.5t-37 2.5q-24 11 -36 45q-2 3 -0.5 23t6.5 26
q25 25 77 25q33 0 47 -14q8 -13 8 -39z" />
    <glyph glyph-name="ldot" unicode="&#x140;" horiz-adv-x="277" 
d="M336 348q0 -36 -24 -60q-5 -7 -29 -9.5t-31 2.5q-20 12 -29 45q-2 4 -1.5 23.5t5.5 26.5q21 25 64 25q27 0 38 -14q7 -12 7 -39zM17 -3q-3 5 -3.5 19t2.5 20q18 3 39 10q15 6 17 50q1 33 1 224q0 187 -3 236q-2 18 -14 23q-9 5 -46 9q-3 4 -2.5 17.5t4.5 17.5
q46 4 109.5 16t87.5 22q3 -1 6 -6.5t2 -9.5q-9 -22 -11 -84q-1 -27 -1 -109.5v-144.5q0 -210 1 -225q2 -19 6 -26.5t18 -11.5q11 -3 36 -8q3 -6 1 -19.5t-6 -19.5q-4 0 -21 0.5t-46.5 1.5t-63.5 1q-35 0 -72 -1.5t-41 -1.5z" />
    <glyph glyph-name="Lslash" unicode="&#x141;" horiz-adv-x="579" 
d="M22 36q38 5 60 9q25 9 28 40q2 41 4 158l-65 -26q-2 1 -4.5 21.5t-1.5 23.5q22 10 71 28v19q0 170 -2 209q-2 34 -29 41q-3 1 -56 9q-3 5 -1.5 21t4.5 18q18 0 64 -1.5t92 -1.5q31 0 151 3q3 -4 2.5 -19t-2.5 -20q-40 -6 -50 -9q-16 -5 -21 -13.5t-6 -28.5
q-2 -32 -2 -171l140 56q2 -1 4 -21t1 -24q-33 -12 -145 -57q0 -175 3 -208q1 -24 20 -31q22 -6 128 -6q33 0 57 35q41 64 65 120q5 2 22.5 -4t19.5 -11q-4 -26 -25 -91.5t-38 -94.5q-4 -14 -56 -14q-42 0 -139.5 2.5t-137.5 2.5q-48 0 -96.5 -1.5t-58.5 -1.5q-3 5 -3 20
t3 19z" />
    <glyph glyph-name="lslash" unicode="&#x142;" horiz-adv-x="287" 
d="M281 391l-66 -33q0 -261 1 -276q2 -19 6 -26t18 -11q11 -4 38 -9q2 -5 0.5 -19t-5.5 -20q-3 0 -45 1.5t-88 1.5q-19 0 -57.5 -1.5t-56.5 -1.5q-2 4 -2.5 19.5t0.5 19.5q22 2 42 10q14 7 16 50v205l-59 -26q-3 3 -3.5 21t3.5 20q3 1 23 10t37 16q0 165 -3 214
q-2 18 -14 23q-9 4 -46 9q-3 4 -2.5 17.5t3.5 17.5q46 4 110.5 16t87.5 22q1 -1 4.5 -8t3.5 -9q-9 -19 -11 -83v-159l61 29q2 -3 4 -20.5t0 -19.5z" />
    <glyph glyph-name="uni0143" unicode="&#x143;" horiz-adv-x="731" 
d="M20 567q-3 3 -2.5 20.5t2.5 19.5q13 0 61.5 -1.5t86.5 -1.5q49 0 81 2q7 -19 38 -57q210 -268 285 -355q1 0 2.5 0.5t2.5 0.5q-2 261 -6 305q-2 26 -12 39t-33 19q-20 5 -62 10q-3 3 -2.5 20t2.5 19q7 0 52.5 -1.5t84.5 -1.5q37 0 78 1.5t46 1.5q2 -3 2 -19.5t-2 -19.5
q-24 -3 -40 -8q-23 -7 -32 -19t-12 -44q-9 -109 -9 -364q0 -66 2 -140q-37 6 -104 -1q-234 313 -348 458q-6 4 -6 -1q-2 -262 3 -337q1 -31 12 -45.5t33 -19.5t60 -11q3 -3 3 -18.5t-4 -20.5q-19 0 -63.5 1.5t-67.5 1.5q-26 0 -72.5 -1.5t-62.5 -1.5q-3 4 -3 20t3 19
q45 8 60 13q28 10 33 58q10 87 10 381q0 20 -9.5 39t-26.5 25q-36 12 -64 15zM469 797q10 0 37 -23.5t33 -34.5q1 -1 1 -6t-1 -6q-15 -13 -96 -52.5t-89 -39.5q-4 0 -14.5 13t-9.5 18q26 27 75 74t64 57z" />
    <glyph glyph-name="uni0144" unicode="&#x144;" horiz-adv-x="545" 
d="M22 36q24 4 32 6q18 5 21 40q2 60 2 155q0 50 -2 72q-5 21 -49 36q0 21 5 33q98 12 170 44q5 -2 5 -7q0 -3 0.5 -24t0.5 -31q0 -6 5 -3q78 61 128 61q67 0 105 -55q28 -41 28 -119v-175q0 -11 8 -17q18 -11 50 -16q2 -4 0.5 -19.5t-5.5 -19.5q-1 0 -39.5 1.5t-80.5 1.5
q-8 0 -110 -3q-2 6 -2.5 20.5t2.5 18.5q3 1 13 3t14 4q14 5 16 25q2 21 1.5 101.5t-5.5 107.5q-5 30 -30 46q-15 11 -43 11q-24 0 -46 -13q-8 -5 -8 -17l2 -228q1 -18 5.5 -25t15.5 -9q7 -2 29 -6q2 -4 1 -19.5t-4 -19.5q-117 3 -119 3q-50 0 -116 -3q-2 6 -2.5 20.5
t2.5 18.5zM298 616q9 4 52 6t52 -1q2 -1 3.5 -7t0.5 -9q-9 -17 -62 -81t-71 -81q-4 -1 -18 7t-16 12q57 150 59 154z" />
    <glyph glyph-name="uni0145" unicode="&#x145;" horiz-adv-x="731" 
d="M20 567q-3 3 -2.5 20.5t2.5 19.5q13 0 61.5 -1.5t86.5 -1.5q49 0 81 2q7 -19 38 -57q210 -268 285 -355q1 0 2.5 0.5t2.5 0.5q-2 261 -6 305q-2 26 -12 39t-33 19q-20 5 -62 10q-3 3 -2.5 20t2.5 19q7 0 52.5 -1.5t84.5 -1.5q37 0 78 1.5t46 1.5q2 -3 2 -19.5t-2 -19.5
q-24 -3 -40 -8q-23 -7 -32 -19t-12 -44q-9 -109 -9 -364q0 -66 2 -140q-37 6 -104 -1q-234 313 -348 458q-6 4 -6 -1q-2 -262 3 -337q1 -31 12 -45.5t33 -19.5t60 -11q3 -3 3 -18.5t-4 -20.5q-19 0 -63.5 1.5t-67.5 1.5q-26 0 -72.5 -1.5t-62.5 -1.5q-3 4 -3 20t3 19
q45 8 60 13q28 10 33 58q10 87 10 381q0 20 -9.5 39t-26.5 25q-36 12 -64 15zM385 -28q19 0 39 -22t20 -57q0 -53 -39 -87.5t-98 -44.5q-5 2 -11 15t-3 18q41 17 54.5 31t13.5 35q0 34 -57 52q-3 2 -2.5 11t2.5 12q12 12 35 24.5t46 12.5z" />
    <glyph glyph-name="uni0146" unicode="&#x146;" horiz-adv-x="545" 
d="M22 36q24 4 32 6q18 5 21 40q2 60 2 155q0 50 -2 72q-5 21 -49 36q0 21 5 33q98 12 170 44q5 -2 5 -7q0 -3 0.5 -24t0.5 -31q0 -6 5 -3q78 61 128 61q67 0 105 -55q28 -41 28 -119v-175q0 -11 8 -17q18 -11 50 -16q2 -4 0.5 -19.5t-5.5 -19.5q-1 0 -39.5 1.5t-80.5 1.5
q-8 0 -110 -3q-2 6 -2.5 20.5t2.5 18.5q3 1 13 3t14 4q14 5 16 25q2 21 1.5 101.5t-5.5 107.5q-5 30 -30 46q-15 11 -43 11q-24 0 -46 -13q-8 -5 -8 -17l2 -228q1 -18 5.5 -25t15.5 -9q7 -2 29 -6q2 -4 1 -19.5t-4 -19.5q-117 3 -119 3q-50 0 -116 -3q-2 6 -2.5 20.5
t2.5 18.5zM284 -37q19 0 39 -22t20 -57q0 -53 -39 -87.5t-98 -44.5q-5 2 -11 15t-3 18q41 17 54.5 31t13.5 35q0 34 -57 52q-3 2 -2.5 11t2.5 12q12 12 35 24.5t46 12.5z" />
    <glyph glyph-name="uni0147" unicode="&#x147;" horiz-adv-x="731" 
d="M20 567q-3 3 -2.5 20.5t2.5 19.5q13 0 61.5 -1.5t86.5 -1.5q49 0 81 2q7 -19 38 -57q210 -268 285 -355q1 0 2.5 0.5t2.5 0.5q-2 261 -6 305q-2 26 -12 39t-33 19q-20 5 -62 10q-3 3 -2.5 20t2.5 19q7 0 52.5 -1.5t84.5 -1.5q37 0 78 1.5t46 1.5q2 -3 2 -19.5t-2 -19.5
q-24 -3 -40 -8q-23 -7 -32 -19t-12 -44q-9 -109 -9 -364q0 -66 2 -140q-37 6 -104 -1q-234 313 -348 458q-6 4 -6 -1q-2 -262 3 -337q1 -31 12 -45.5t33 -19.5t60 -11q3 -3 3 -18.5t-4 -20.5q-19 0 -63.5 1.5t-67.5 1.5q-26 0 -72.5 -1.5t-62.5 -1.5q-3 4 -3 20t3 19
q45 8 60 13q28 10 33 58q10 87 10 381q0 20 -9.5 39t-26.5 25q-36 12 -64 15zM385 639q-4 -3 -24 -7q-9 10 -62 53t-77 61q0 4 8 17.5t11 13.5q5 0 60 -22.5t69 -29.5q4 -2 9 0q109 52 121 52q4 0 11.5 -12.5t5.5 -17.5q-24 -17 -73 -56.5t-59 -51.5z" />
    <glyph glyph-name="uni0148" unicode="&#x148;" horiz-adv-x="545" 
d="M22 36q24 4 32 6q18 5 21 40q2 60 2 155q0 50 -2 72q-5 21 -49 36q0 21 5 33q98 12 170 44q5 -2 5 -7q0 -3 0.5 -24t0.5 -31q0 -6 5 -3q78 61 128 61q67 0 105 -55q28 -41 28 -119v-175q0 -11 8 -17q18 -11 50 -16q2 -4 0.5 -19.5t-5.5 -19.5q-1 0 -39.5 1.5t-80.5 1.5
q-8 0 -110 -3q-2 6 -2.5 20.5t2.5 18.5q3 1 13 3t14 4q14 5 16 25q2 21 1.5 101.5t-5.5 107.5q-5 30 -30 46q-15 11 -43 11q-24 0 -46 -13q-8 -5 -8 -17l2 -228q1 -18 5.5 -25t15.5 -9q7 -2 29 -6q2 -4 1 -19.5t-4 -19.5q-117 3 -119 3q-50 0 -116 -3q-2 6 -2.5 20.5
t2.5 18.5zM281 538q47 74 56 80q7 4 25 7t26 2q1 0 2.5 -3t0.5 -5q-17 -24 -50.5 -80t-43.5 -81q-1 -3 -20 -8.5t-24 -5.5q-14 30 -48 88t-49 78q2 5 24.5 13.5t31.5 7.5q13 -3 64 -93q2 -2 5 0z" />
    <glyph glyph-name="uni0149" unicode="&#x149;" horiz-adv-x="545" 
d="M22 36q24 4 32 6q18 5 21 40q2 60 2 155q0 50 -2 72q-5 21 -49 36q0 21 5 33q98 12 170 44q5 -2 5 -7q0 -3 0.5 -24t0.5 -31q0 -6 5 -3q78 61 128 61q67 0 105 -55q28 -41 28 -119v-175q0 -11 8 -17q18 -11 50 -16q2 -4 0.5 -19.5t-5.5 -19.5q-1 0 -39.5 1.5t-80.5 1.5
q-8 0 -110 -3q-2 6 -2.5 20.5t2.5 18.5q3 1 13 3t14 4q14 5 16 25q2 21 1.5 101.5t-5.5 107.5q-5 30 -30 46q-15 11 -43 11q-24 0 -46 -13q-8 -5 -8 -17l2 -228q1 -18 5.5 -25t15.5 -9q7 -2 29 -6q2 -4 1 -19.5t-4 -19.5q-117 3 -119 3q-50 0 -116 -3q-2 6 -2.5 20.5
t2.5 18.5zM129 633q24 0 43.5 -21.5t19.5 -55.5q0 -43 -33 -72.5t-87 -38.5q-12 10 -10 30q36 15 47.5 26t11.5 28q0 33 -60 44q-2 3 -2 10.5t2 11.5q8 12 30.5 25t37.5 13z" />
    <glyph glyph-name="Eng" unicode="&#x14a;" horiz-adv-x="731" 
d="M17 36q43 8 59 13q29 11 34 58q10 87 10 381q0 21 -9 39.5t-27 24.5q-36 12 -64 15q-3 3 -2.5 20.5t2.5 19.5q20 0 71.5 -1.5t79.5 -1.5q46 0 78 2q8 -21 38 -57q198 -250 285 -351q1 0 2.5 0.5t2.5 0.5q-2 256 -6 302q-2 27 -11 39t-33 17q-28 7 -63 11q-3 3 -2.5 20
t2.5 19q21 0 66 -1.5t70 -1.5q19 0 64.5 1.5t60.5 1.5q2 -3 2 -19.5t-2 -19.5q-24 -3 -40 -8q-23 -7 -32 -18.5t-12 -43.5q-8 -97 -8 -353q-1 -77 -1 -87q0 -136 -42.5 -216t-121.5 -80q-37 0 -52 21q-6 9 -7 41t4 46l7 4q29 -16 80 -16q29 0 45 20.5t16 51.5q0 29 -25 62
q-72 99 -355 458q-5 7 -5 -1q-4 -213 2 -337q2 -31 13 -45.5t33 -19.5q5 -1 60 -11q3 -3 2.5 -18.5t-4.5 -20.5q-19 0 -62.5 1.5t-66.5 1.5q-26 0 -73 -1.5t-63 -1.5q-3 4 -3 20t3 19z" />
    <glyph glyph-name="eng" unicode="&#x14b;" horiz-adv-x="538" 
d="M21 36q23 4 33 6q18 5 21 40q2 60 2 155q0 50 -2 70q-2 22 -49 38q0 21 5 33q98 12 170 44l5 -7q0 -3 0.5 -24t0.5 -31q0 -6 5 -3q76 61 128 61q65 0 104 -55q30 -45 30 -127q0 -127 -1 -170q-4 -88 -25.5 -138.5t-61.5 -97.5q-27 -33 -65.5 -57t-65.5 -24q-38 0 -53 18
q-2 10 3 40t11 45q54 -32 91 -32q17 0 23.5 17.5t8.5 58.5q2 50 2 158q2 149 -8 217q-6 37 -30 52q-17 12 -43 12q-18 0 -44 -12q-8 -5 -8 -19l2 -228q1 -30 22 -34q7 -2 28 -6q2 -4 0.5 -18.5t-3.5 -20.5q-117 3 -119 3q-15 0 -117 -3q-2 5 -2 20t2 19z" />
    <glyph glyph-name="uni014C" unicode="&#x14c;" horiz-adv-x="763" 
d="M381 -18q-157 0 -245 91q-84 87 -84 229q0 153 101 234q94 86 239 86q150 0 234.5 -89t84.5 -221q0 -125 -61 -203q-48 -63 -118.5 -95t-150.5 -32zM411 32q45 0 75 30q61 60 61 215q0 81 -22 152t-66 110q-41 35 -94 35q-46 0 -74 -22q-75 -54 -75 -218q0 -76 23 -149.5
t72 -115.5q45 -37 100 -37zM271 751q20 -2 62 -2q30 0 81.5 -0.5t79 -0.5t30.5 1q0 -11 -9 -39.5t-12 -29.5q-16 -3 -214 -3l-38 2q1 8 9.5 38.5t10.5 33.5z" />
    <glyph glyph-name="uni014D" unicode="&#x14d;" horiz-adv-x="529" 
d="M272 418q104 0 162 -60t58 -151q0 -123 -92 -179q-25 -17 -65 -28.5t-75 -11.5q-111 0 -166.5 60t-55.5 157q0 113 89 172q65 41 145 41zM248 373q-10 0 -26 -8q-40 -26 -40 -129q0 -99 27 -151.5t70 -52.5q19 0 31 10q35 32 35 137q0 90 -25.5 142t-71.5 52zM160 560
q18 -2 47 -2h180q0 -11 -7.5 -40t-10.5 -30q-14 -3 -192 -3q-31 0 -35 2q1 8 8.5 39.5t9.5 33.5z" />
    <glyph glyph-name="uni014E" unicode="&#x14e;" horiz-adv-x="763" 
d="M381 -18q-157 0 -245 91q-84 87 -84 229q0 153 101 234q94 86 239 86q150 0 234.5 -89t84.5 -221q0 -125 -61 -203q-48 -63 -118.5 -95t-150.5 -32zM411 32q45 0 75 30q61 60 61 215q0 81 -22 152t-66 110q-41 35 -94 35q-46 0 -74 -22q-75 -54 -75 -218q0 -76 23 -149.5
t72 -115.5q45 -37 100 -37zM391 728q52 0 91 46q2 2 15 9.5t16 7.5q10 0 10 -7q-15 -49 -59 -85.5t-101 -36.5q-53 0 -85.5 23t-32.5 57q0 9 11.5 25.5t21.5 22.5q3 2 8.5 1t6.5 -3q19 -60 98 -60z" />
    <glyph glyph-name="uni014F" unicode="&#x14f;" horiz-adv-x="529" 
d="M272 418q104 0 162 -60t58 -151q0 -123 -92 -179q-25 -17 -65 -28.5t-75 -11.5q-111 0 -166.5 60t-55.5 157q0 113 89 172q65 41 145 41zM248 373q-10 0 -26 -8q-40 -26 -40 -129q0 -99 27 -151.5t70 -52.5q19 0 31 10q35 32 35 137q0 90 -25.5 142t-71.5 52zM274 530
q53 0 87 50q2 3 14.5 10.5t15.5 7.5q2 0 5 -2.5t3 -5.5q-10 -56 -50.5 -93.5t-100.5 -37.5q-48 0 -80.5 25.5t-32.5 64.5q0 11 13.5 25.5t28.5 24.5q2 1 7.5 0.5t6.5 -3.5q12 -66 83 -66z" />
    <glyph glyph-name="uni0150" unicode="&#x150;" horiz-adv-x="763" 
d="M381 -18q-157 0 -245 91q-84 87 -84 229q0 153 101 234q94 86 239 86q150 0 234.5 -89t84.5 -221q0 -125 -61 -203q-48 -63 -118.5 -95t-150.5 -32zM411 32q45 0 75 30q61 60 61 215q0 81 -22 152t-66 110q-41 35 -94 35q-46 0 -74 -22q-75 -54 -75 -218q0 -76 23 -149.5
t72 -115.5q45 -37 100 -37zM307 781q9 5 47.5 8.5t49.5 1.5q2 -1 3.5 -5.5t0.5 -6.5q-5 -11 -41 -59.5t-51 -64.5q-2 -1 -18.5 4t-17.5 7q11 74 27 115zM459 794q11 5 50.5 8t49.5 1q2 -1 3.5 -5.5t0.5 -6.5q-5 -13 -44 -65t-55 -67q-3 -1 -19 4.5t-18 7.5q24 102 32 123z
" />
    <glyph glyph-name="uni0151" unicode="&#x151;" horiz-adv-x="529" 
d="M272 418q104 0 162 -60t58 -151q0 -123 -92 -179q-25 -17 -65 -28.5t-75 -11.5q-111 0 -166.5 60t-55.5 157q0 113 89 172q65 41 145 41zM248 373q-10 0 -26 -8q-40 -26 -40 -129q0 -99 27 -151.5t70 -52.5q19 0 31 10q35 32 35 137q0 90 -25.5 142t-71.5 52zM201 613
q9 3 43 5t43 -1q2 -2 2.5 -7.5t-0.5 -7.5q-32 -61 -95 -151q-5 -1 -18 2.5t-14 7.5q19 88 39 152zM345 625q10 3 41.5 4t42.5 -2q4 -4 2 -14q-12 -23 -47 -80t-50 -77q-4 -1 -17.5 2.5t-14.5 7.5q36 140 43 159z" />
    <glyph glyph-name="OE" unicode="&#x152;" horiz-adv-x="1028" 
d="M916 -4q-32 0 -125 1t-174 2t-84 1q-17 0 -41 -4q-50 -14 -110 -14q-156 0 -244 90q-86 90 -86 230q0 150 101 234q94 86 241 86q48 0 88 -9q10 -2 65 -9h274q93 0 132 7l4 -5q-7 -30 -13 -154q-5 -4 -22.5 -4t-21.5 2q-8 47 -18 69q-12 25 -43 29q-19 2 -107.5 3
t-111.5 0q-7 -3 -4 -6q84 -77 91 -204q0 -7 5 -7q96 0 111 1q26 1 33 32q2 7 5.5 22.5t3.5 17.5q4 3 23 1.5t24 -5.5q-5 -58 -5 -98q0 -59 2 -103q-8 -3 -23.5 -3.5t-22.5 2.5q-3 12 -4.5 20.5t-2.5 12.5t-3 10q-9 23 -33 26q-11 1 -57 2t-54 0q-4 0 -4 -6q-8 -123 -91 -195
q-2 -2 -1 -6t5 -5q76 -6 223 -6q32 0 48 6t30 27q35 50 51 89q7 1 23.5 -5.5t19.5 -10.5q-13 -65 -34 -128q-3 -8 -5 -13.5t-3.5 -9.5t-5.5 -6.5t-5 -4t-8 -2t-9 -0.5h-12.5h-14.5zM412 31q42 0 73 29q62 59 62 218q0 183 -88 260q-45 37 -98 37q-39 0 -70 -23
q-76 -54 -76 -218q0 -75 24.5 -149.5t72.5 -116.5q45 -37 100 -37z" />
    <glyph glyph-name="oe" unicode="&#x153;" horiz-adv-x="777" 
d="M251 373q-14 0 -28 -9q-41 -27 -41 -127q0 -101 29 -151.5t72 -50.5q22 0 34 10q35 28 35 134q0 90 -27 142t-74 52zM419 44q-3 0 -4 -1q-68 -55 -154 -55q-112 0 -167.5 60t-55.5 157q0 113 89 171q65 42 143 42q87 -1 147 -54q5 -5 12 1q70 53 145 53q37 0 66.5 -14
t46 -35t25 -40t10.5 -34q7 -14 19 -18q-3 -17 -8 -26q-17 -5 -239 -31q-6 -2 -6 -11q5 -59 42 -93q38 -35 95 -35q64 0 119 43q3 -3 3.5 -19.5t-1.5 -20.5q-33 -42 -87.5 -69t-104.5 -27q-81 0 -135 56zM540 375q-25 0 -41.5 -33.5t-14.5 -74.5q0 -2 2 -5t5 -2q89 9 109 13
q5 1 7 9q-3 35 -21.5 64t-45.5 29z" />
    <glyph glyph-name="uni0154" unicode="&#x154;" horiz-adv-x="652" 
d="M31 568q-4 5 -3 21t5 18q11 0 67 -1.5t77 -1.5q47 0 109.5 1.5t83.5 1.5q91 0 141.5 -43.5t50.5 -112.5q0 -104 -116 -151q-1 0 -1.5 -3t0.5 -5q16 -31 69.5 -105t87.5 -107q26 -25 40.5 -32t53.5 -11q1 -3 -2.5 -21t-6.5 -20q-47 -4 -111.5 1.5t-92.5 18.5
q-36 18 -51 43q-18 22 -38 52.5t-45.5 72.5t-33.5 54q-10 17 -29 17q-7 1 -25 1q-5 0 -5 -7q0 -79 2 -157q1 -38 28 -46q18 -5 55 -10q4 -1 3 -19.5t-5 -19.5q-3 0 -54 1.5t-98 1.5q-48 0 -98 -1.5t-55 -1.5q-3 3 -4 19.5t3 19.5q27 3 48 8q28 7 29 48q3 48 3 221
q0 161 -2 203q-1 36 -28 42q-19 5 -52 10zM294 560q-19 0 -29 -5q-7 -7 -7 -15q-2 -25 -2 -224q0 -8 7 -8q83 -2 107 12q47 23 47 102q0 62 -33.5 100t-89.5 38zM387 803q10 0 37 -23.5t33 -34.5q1 -1 1 -6t-1 -6q-15 -13 -96 -52.5t-89 -39.5q-4 0 -14.5 13t-9.5 18
q26 27 75 74t64 57z" />
    <glyph glyph-name="uni0155" unicode="&#x155;" horiz-adv-x="382" 
d="M324 418q43 0 58 -31q3 -6 0 -22q-2 -13 -17.5 -46t-27.5 -47q-2 -3 -7.5 -4t-7.5 0q-38 43 -80 43q-16 0 -28 -9q-6 -9 -6 -15q-1 -40 -0.5 -113t1.5 -83q2 -25 6.5 -33.5t21.5 -12.5q15 -4 53 -9q2 -3 0.5 -19t-5.5 -20q-3 0 -52 1.5t-96 1.5q-29 0 -67.5 -1.5
t-50.5 -1.5q-2 5 -2.5 20.5t2.5 18.5q27 4 40 8q14 7 15 30q3 32 3 153q0 64 -2 79q-2 24 -53 41q-1 6 1 18t5 14q29 2 86.5 15.5t84.5 27.5q6 0 8 -6q-4 -44 -4 -74q1 -4 6 -2q46 46 59 56q26 22 56 22zM226 616q9 4 52 6t52 -1q2 -1 3.5 -7t0.5 -9q-9 -17 -62 -81t-71 -81
q-4 -1 -18 7t-16 12q57 150 59 154z" />
    <glyph glyph-name="uni0156" unicode="&#x156;" horiz-adv-x="652" 
d="M31 568q-4 5 -3 21t5 18q11 0 67 -1.5t77 -1.5q47 0 109.5 1.5t83.5 1.5q91 0 141.5 -43.5t50.5 -112.5q0 -104 -116 -151q-1 0 -1.5 -3t0.5 -5q16 -31 69.5 -105t87.5 -107q26 -25 40.5 -32t53.5 -11q1 -3 -2.5 -21t-6.5 -20q-47 -4 -111.5 1.5t-92.5 18.5
q-36 18 -51 43q-18 22 -38 52.5t-45.5 72.5t-33.5 54q-10 17 -29 17q-7 1 -25 1q-5 0 -5 -7q0 -79 2 -157q1 -38 28 -46q18 -5 55 -10q4 -1 3 -19.5t-5 -19.5q-3 0 -54 1.5t-98 1.5q-48 0 -98 -1.5t-55 -1.5q-3 3 -4 19.5t3 19.5q27 3 48 8q28 7 29 48q3 48 3 221
q0 161 -2 203q-1 36 -28 42q-19 5 -52 10zM294 560q-19 0 -29 -5q-7 -7 -7 -15q-2 -25 -2 -224q0 -8 7 -8q83 -2 107 12q47 23 47 102q0 62 -33.5 100t-89.5 38zM370 -30q19 0 39 -22t20 -57q0 -53 -39 -87.5t-98 -44.5q-5 2 -11 15t-3 18q41 17 54.5 31t13.5 35
q0 34 -57 52q-3 2 -2.5 11t2.5 12q12 12 35 24.5t46 12.5z" />
    <glyph glyph-name="uni0157" unicode="&#x157;" horiz-adv-x="382" 
d="M324 418q43 0 58 -31q3 -6 0 -22q-2 -13 -17.5 -46t-27.5 -47q-2 -3 -7.5 -4t-7.5 0q-38 43 -80 43q-16 0 -28 -9q-6 -9 -6 -15q-1 -40 -0.5 -113t1.5 -83q2 -25 6.5 -33.5t21.5 -12.5q15 -4 53 -9q2 -3 0.5 -19t-5.5 -20q-3 0 -52 1.5t-96 1.5q-29 0 -67.5 -1.5
t-50.5 -1.5q-2 5 -2.5 20.5t2.5 18.5q27 4 40 8q14 7 15 30q3 32 3 153q0 64 -2 79q-2 24 -53 41q-1 6 1 18t5 14q29 2 86.5 15.5t84.5 27.5q6 0 8 -6q-4 -44 -4 -74q1 -4 6 -2q46 46 59 56q26 22 56 22zM151 -34q19 0 39 -22t20 -57q0 -53 -39 -87.5t-98 -44.5q-5 2 -11 15
t-3 18q41 17 54.5 31t13.5 35q0 34 -57 52q-3 2 -2.5 11t2.5 12q12 12 35 24.5t46 12.5z" />
    <glyph glyph-name="uni0158" unicode="&#x158;" horiz-adv-x="652" 
d="M31 568q-4 5 -3 21t5 18q11 0 67 -1.5t77 -1.5q47 0 109.5 1.5t83.5 1.5q91 0 141.5 -43.5t50.5 -112.5q0 -104 -116 -151q-1 0 -1.5 -3t0.5 -5q16 -31 69.5 -105t87.5 -107q26 -25 40.5 -32t53.5 -11q1 -3 -2.5 -21t-6.5 -20q-47 -4 -111.5 1.5t-92.5 18.5
q-36 18 -51 43q-18 22 -38 52.5t-45.5 72.5t-33.5 54q-10 17 -29 17q-7 1 -25 1q-5 0 -5 -7q0 -79 2 -157q1 -38 28 -46q18 -5 55 -10q4 -1 3 -19.5t-5 -19.5q-3 0 -54 1.5t-98 1.5q-48 0 -98 -1.5t-55 -1.5q-3 3 -4 19.5t3 19.5q27 3 48 8q28 7 29 48q3 48 3 221
q0 161 -2 203q-1 36 -28 42q-19 5 -52 10zM294 560q-19 0 -29 -5q-7 -7 -7 -15q-2 -25 -2 -224q0 -8 7 -8q83 -2 107 12q47 23 47 102q0 62 -33.5 100t-89.5 38zM312 648q-4 -3 -24 -7q-9 10 -62 53t-77 61q0 4 8 17.5t11 13.5q5 0 60 -22.5t69 -29.5q5 -2 9 0
q109 52 121 52q4 0 11.5 -12.5t5.5 -17.5q-24 -17 -73 -56.5t-59 -51.5z" />
    <glyph glyph-name="uni0159" unicode="&#x159;" horiz-adv-x="382" 
d="M324 418q43 0 58 -31q3 -6 0 -22q-2 -13 -17.5 -46t-27.5 -47q-2 -3 -7.5 -4t-7.5 0q-38 43 -80 43q-16 0 -28 -9q-6 -9 -6 -15q-1 -40 -0.5 -113t1.5 -83q2 -25 6.5 -33.5t21.5 -12.5q15 -4 53 -9q2 -3 0.5 -19t-5.5 -20q-3 0 -52 1.5t-96 1.5q-29 0 -67.5 -1.5
t-50.5 -1.5q-2 5 -2.5 20.5t2.5 18.5q27 4 40 8q14 7 15 30q3 32 3 153q0 64 -2 79q-2 24 -53 41q-1 6 1 18t5 14q29 2 86.5 15.5t84.5 27.5q6 0 8 -6q-4 -44 -4 -74q1 -4 6 -2q46 46 59 56q26 22 56 22zM206 538q47 74 56 80q7 4 25 7t26 2q1 0 2.5 -3t0.5 -5
q-17 -24 -50.5 -80t-43.5 -81q-1 -3 -20 -8.5t-24 -5.5q-14 30 -48 88t-49 78q2 5 24.5 13.5t31.5 7.5q13 -3 64 -93q3 -2 5 0z" />
    <glyph glyph-name="uni015A" unicode="&#x15a;" horiz-adv-x="512" 
d="M77 192q35 -97 86 -137q38 -27 91 -27q36 0 60 19.5t24 54.5q0 36 -22 63.5t-92 69.5q-41 25 -60.5 38.5t-47 39t-39.5 56.5t-12 70q0 86 62 134.5t154 48.5q47 0 108 -9t64 -9q-13 -60 -17 -151q-4 -4 -20 -4t-20 3q-13 81 -46 106q-28 23 -75 23q-38 0 -61.5 -24
t-23.5 -59q0 -30 15.5 -51.5t48.5 -42.5q7 -4 113 -68q57 -35 82 -71.5t25 -89.5q0 -83 -64.5 -138t-178.5 -55q-97 0 -158 33q-9 11 -21.5 73t-13.5 91q3 5 18.5 10t20.5 3zM356 814q10 0 37 -23.5t33 -34.5q1 -1 1 -5.5t-1 -6.5q-15 -13 -96 -52.5t-89 -39.5
q-4 0 -14.5 13t-9.5 18q26 27 75 74t64 57z" />
    <glyph glyph-name="uni015B" unicode="&#x15b;" horiz-adv-x="388" 
d="M337 405q-6 -30 -12 -122q-4 -2 -19 -3.5t-19 0.5q-12 66 -43 85q-17 11 -42 11q-21 0 -34 -12t-13 -29q0 -21 17.5 -36.5t79.5 -43.5q58 -26 81.5 -54.5t23.5 -70.5q0 -65 -53 -103t-127 -38q-65 0 -129 20q-12 53 -17 126q4 3 19.5 8t20.5 4q24 -75 64 -101
q22 -14 55 -14q23 0 36.5 11t13.5 28q0 19 -14 33t-49 30q-77 36 -106 69t-29 80q0 57 45 95t127 38q41 0 73 -5q39 -6 50 -6zM211 616q9 4 52 6t52 -1q2 -1 3.5 -7t0.5 -9q-9 -17 -62 -81t-71 -81q-4 -1 -18 7t-16 12q57 150 59 154z" />
    <glyph glyph-name="uni015C" unicode="&#x15c;" horiz-adv-x="512" 
d="M77 192q35 -97 86 -137q38 -27 91 -27q36 0 60 19.5t24 54.5q0 36 -22 63.5t-92 69.5q-41 25 -60.5 38.5t-47 39t-39.5 56.5t-12 70q0 86 62 134.5t154 48.5q47 0 108 -9t64 -9q-13 -60 -17 -151q-4 -4 -20 -4t-20 3q-13 81 -46 106q-28 23 -75 23q-38 0 -61.5 -24
t-23.5 -59q0 -30 15.5 -51.5t48.5 -42.5q7 -4 113 -68q57 -35 82 -71.5t25 -89.5q0 -83 -64.5 -138t-178.5 -55q-97 0 -158 33q-9 11 -21.5 73t-13.5 91q3 5 18.5 10t20.5 3zM259 785q9 7 24 7q19 -19 140 -114q0 -4 -8 -17.5t-12 -13.5q-5 0 -61 23t-68 30q-4 2 -9 0
q-18 -10 -67.5 -31.5t-53.5 -21.5t-11 12.5t-6 17.5q24 17 73 56.5t59 51.5z" />
    <glyph glyph-name="uni015D" unicode="&#x15d;" horiz-adv-x="388" 
d="M337 405q-6 -30 -12 -122q-4 -2 -19 -3.5t-19 0.5q-12 66 -43 85q-17 11 -42 11q-21 0 -34 -12t-13 -29q0 -21 17.5 -36.5t79.5 -43.5q58 -26 81.5 -54.5t23.5 -70.5q0 -65 -53 -103t-127 -38q-65 0 -129 20q-12 53 -17 126q4 3 19.5 8t20.5 4q24 -75 64 -101
q22 -14 55 -14q23 0 36.5 11t13.5 28q0 19 -14 33t-49 30q-77 36 -106 69t-29 80q0 57 45 95t127 38q41 0 73 -5q39 -6 50 -6zM188 538q-43 -72 -55 -79q-8 -4 -25 -7.5t-26 -2.5q-7 2 -4 8q17 23 50.5 79t44.5 82q1 3 20.5 9t23.5 6q13 -31 47 -87t50 -80q-2 -4 -24 -12.5
t-32 -8.5q-13 3 -64 93q-2 2 -6 0z" />
    <glyph glyph-name="uni015E" unicode="&#x15e;" horiz-adv-x="512" 
d="M77 192q35 -97 86 -137q37 -27 91 -27q36 0 60 19.5t24 54.5q0 36 -22 63.5t-92 69.5q-41 25 -60.5 38.5t-47 39t-39.5 56.5t-12 70q0 86 62 134.5t154 48.5q38 0 106 -8q60 -9 66 -9q-13 -60 -17 -151q-4 -4 -20 -4t-20 3q-14 80 -46 105q-29 23 -75 23q-36 0 -60.5 -24
t-24.5 -59q0 -30 15.5 -51.5t48.5 -42.5q5 -3 113 -68q57 -35 82 -71.5t25 -89.5q0 -75 -53.5 -128t-149.5 -63l-16 -26q24 -13 46 -29q27 -22 27 -56q0 -45 -45 -76.5t-78 -31.5q-44 0 -64 32q0 5 2 16t2 12q30 -17 65 -17q41 0 41 32q0 39 -78 63q1 6 3 10q30 41 52 69
q-96 2 -155 33q-9 11 -21.5 73t-13.5 91q3 5 18.5 10t20.5 3z" />
    <glyph glyph-name="uni015F" unicode="&#x15f;" horiz-adv-x="388" 
d="M337 405q-6 -30 -12 -122q-4 -2 -19 -2.5t-19 0.5q-12 66 -42 84q-19 11 -43 11q-21 0 -34 -12t-13 -29q0 -21 17.5 -36.5t79.5 -43.5q58 -26 81.5 -54.5t23.5 -70.5q0 -56 -39.5 -91.5t-98.5 -45.5l-22 -29q32 -16 46 -29q25 -22 25 -53q0 -43 -43 -72.5t-74 -29.5
q-42 0 -62 29q-1 5 1 16.5t4 13.5q34 -16 63 -16q38 0 38 29q0 34 -73 57q-1 6 1 11q34 44 54 69q-69 1 -129 20q-12 54 -17 125q4 3 19.5 7.5t20.5 3.5q24 -74 63 -98q24 -15 56 -15q23 0 36.5 11t13.5 28q0 19 -14 33t-49 30q-77 36 -106 69t-29 80q0 57 45 95t127 38
q41 0 73 -5q39 -6 50 -6z" />
    <glyph glyph-name="Scaron" unicode="&#x160;" horiz-adv-x="512" 
d="M77 192q35 -97 86 -137q38 -27 91 -27q36 0 60 19.5t24 54.5q0 36 -22 63.5t-92 69.5q-41 25 -60.5 38.5t-47 39t-39.5 56.5t-12 70q0 86 62 134.5t154 48.5q47 0 108 -9t64 -9q-13 -60 -17 -151q-4 -4 -20 -4t-20 3q-13 81 -46 106q-28 23 -75 23q-38 0 -61.5 -24
t-23.5 -59q0 -30 15.5 -51.5t48.5 -42.5q7 -4 113 -68q57 -35 82 -71.5t25 -89.5q0 -83 -64.5 -138t-178.5 -55q-97 0 -158 33q-9 11 -21.5 73t-13.5 91q3 5 18.5 10t20.5 3zM292 660q-4 -3 -24 -7q-9 10 -62 53t-77 61q0 4 8 17.5t11 13.5q5 0 60 -22.5t69 -29.5q5 -2 9 0
q109 52 121 52q4 0 11.5 -12.5t5.5 -17.5q-24 -17 -73 -56.5t-59 -51.5z" />
    <glyph glyph-name="scaron" unicode="&#x161;" horiz-adv-x="388" 
d="M337 405q-6 -30 -12 -122q-4 -2 -19 -3.5t-19 0.5q-12 66 -43 85q-17 11 -42 11q-21 0 -34 -12t-13 -29q0 -21 17.5 -36.5t79.5 -43.5q58 -26 81.5 -54.5t23.5 -70.5q0 -65 -53 -103t-127 -38q-65 0 -129 20q-12 53 -17 126q4 3 19.5 8t20.5 4q24 -75 64 -101
q22 -14 55 -14q23 0 36.5 11t13.5 28q0 19 -14 33t-49 30q-77 36 -106 69t-29 80q0 57 45 95t127 38q41 0 73 -5q39 -6 50 -6zM209 538q47 74 56 80q7 4 25 7t26 2q1 0 2.5 -3t0.5 -5q-17 -24 -50.5 -80t-43.5 -81q-1 -3 -20 -8.5t-24 -5.5q-14 30 -48 88t-49 78
q2 5 24.5 13.5t31.5 7.5q13 -3 64 -93q2 -2 5 0z" />
    <glyph glyph-name="uni0162" unicode="&#x162;" horiz-adv-x="650" 
d="M491 36q4 -4 3 -19t-5 -20q-16 0 -72.5 1.5t-95.5 1.5q-52 0 -111 -1.5t-68 -1.5q-4 4 -4 19.5t4 19.5q51 6 66 10q20 5 27.5 16.5t9.5 42.5q4 82 4 434q0 8 -6 8q-42 2 -93 0q-31 -2 -49 -37q-21 -43 -35 -85q-3 -3 -21.5 1t-21.5 10q17 87 22 174q0 2 4 5t6 2
q38 -13 93 -13h353q79 0 118 12q6 -2 6 -9q-19 -80 -25 -178q-4 -3 -22 -4t-21 2q-7 56 -19 90q-10 28 -38 31q-41 5 -102 1q-4 -2 -4 -9q0 -426 1 -446q2 -36 25 -45q11 -4 71 -13zM327 -36q19 0 39 -22t20 -57q0 -53 -39 -87.5t-98 -44.5q-5 2 -11 15t-3 18q41 17 54.5 31
t13.5 35q0 34 -57 52q-3 2 -2.5 11t2.5 12q12 12 35 24.5t46 12.5z" />
    <glyph glyph-name="uni0163" unicode="&#x163;" horiz-adv-x="328" 
d="M307 338q-30 1 -102 1q-4 0 -4 -6q0 -18 -0.5 -71.5t-0.5 -78.5q0 -54 4 -75q2 -17 16.5 -28.5t36.5 -11.5q31 0 55 15q2 -5 1.5 -18.5t-2.5 -21.5q-42 -54 -122 -54q-77 0 -105 50q-11 19 -13.5 39.5t-2.5 68.5q0 27 0.5 94.5t0.5 87.5q0 8 -5 10l-51 3q0 18 10 46
q30 7 41 11q4 4 5 9q1 6 1 84q22 7 60 25.5t50 28.5q6 3 25 3q-4 -35 -4 -138q0 -7 4 -7q55 0 113 4q-9 -42 -11 -70zM193 -38q19 0 39 -22t20 -57q0 -53 -39 -87.5t-98 -44.5q-5 2 -11 15t-3 18q41 17 54.5 31t13.5 35q0 34 -57 52q-3 2 -2.5 11t2.5 12q12 12 35 24.5
t46 12.5z" />
    <glyph glyph-name="uni0164" unicode="&#x164;" horiz-adv-x="650" 
d="M491 36q4 -4 3 -19t-5 -20q-16 0 -72.5 1.5t-95.5 1.5q-52 0 -111 -1.5t-68 -1.5q-4 4 -4 19.5t4 19.5q51 6 66 10q20 5 27.5 16.5t9.5 42.5q4 82 4 434q0 8 -6 8q-42 2 -93 0q-31 -2 -49 -37q-21 -43 -35 -85q-3 -3 -21.5 1t-21.5 10q17 87 22 174q0 2 4 5t6 2
q38 -13 93 -13h353q79 0 118 12q6 -2 6 -9q-19 -80 -25 -178q-4 -3 -22 -4t-21 2q-7 56 -19 90q-10 28 -38 31q-41 5 -102 1q-4 -2 -4 -9q0 -426 1 -446q2 -36 25 -45q11 -4 71 -13zM339 645q-4 -3 -24 -7q-9 10 -62 53t-77 61q0 4 8 17.5t11 13.5q5 0 60 -22.5t69 -29.5
q4 -2 9 0q109 52 121 52q4 0 11.5 -12.5t5.5 -17.5q-24 -17 -73 -56.5t-59 -51.5z" />
    <glyph glyph-name="uni0165" unicode="&#x165;" horiz-adv-x="328" 
d="M307 338q-30 1 -102 1q-4 0 -4 -6q0 -18 -0.5 -71.5t-0.5 -78.5q0 -54 4 -75q2 -17 16.5 -28.5t36.5 -11.5q31 0 55 15q2 -5 1.5 -18.5t-2.5 -21.5q-42 -54 -122 -54q-77 0 -105 50q-11 19 -13.5 39.5t-2.5 68.5q0 27 0.5 94.5t0.5 87.5q0 8 -5 10l-51 3q0 18 10 46
q30 7 41 11q4 4 5 9q1 6 1 84q22 7 60 25.5t50 28.5q6 3 25 3q-4 -35 -4 -138q0 -7 4 -7q55 0 113 4q-9 -42 -11 -70zM347 713q7 0 7 -15q1 -27 -7 -92.5t-17 -94.5q-4 -11 -19 -25t-25 -19q-3 -1 -6 2t-3 4q0 28 -6.5 99t-9.5 91q0 5 3 9q7 7 39.5 24t43.5 17z" />
    </font>
</defs>
</svg>
