<?xml version="1.0" standalone="no"?>
<!DOCTYPE svg PUBLIC "-//W3C//DTD SVG 1.1//EN" "http://www.w3.org/Graphics/SVG/1.1/DTD/svg11.dtd" >
<svg>
<metadata>
Created by FontForge 20110222 at Mon Apr 21 08:58:24 2014
 By Orthosie Webhosting
(c) 2007 Adobe Systems Incorporated. All Rights Reserved.
</metadata>
<defs>
<font id="ArnoProSemiboldDisplay" horiz-adv-x="486" >
  <font-face 
    font-family="ArnoProSemiboldDisplay"
    font-weight="600"
    font-stretch="normal"
    units-per-em="1000"
    panose-1="2 2 7 2 5 5 6 2 4 3"
    ascent="688"
    descent="-312"
    x-height="388"
    cap-height="607"
    bbox="-158.286 -374.286 1388.29 848"
    underline-thickness="50"
    underline-position="-50"
    unicode-range="U+0020-FB06"
  />
<missing-glyph horiz-adv-x="495" 
d="M0 0v693h495v-693h-495zM248 391l168 253h-337zM277 347l169 -253v505zM79 50h337l-168 252zM50 599v-505l168 253z" />
    <glyph glyph-name="f_f" unicode="ff" horiz-adv-x="505" 
d="M14 14q29 4 38 9q18 6 18 34q0 32 0.5 132.5t0.5 151.5q0 7 -5 7l-46 3q0 11 6 17q20 4 42 15q4 4 4 7q0 150 124 231q56 37 105 37q69 2 106 -40q24 24 61.5 43t67.5 18q27 0 48.5 -11t30.5 -26v-12q-3 -10 -19 -30.5t-24 -23.5q-2 -2 -5.5 -2t-5.5 2t-9.5 10t-11 11.5
t-11 10.5t-13 10.5t-13 8t-15 6.5t-15.5 2q-34 0 -44 -39.5t-10 -139.5q0 -56 1 -64q0 -7 4 -7q22 1 43.5 1.5t31.5 1t16 0.5q-5 -12 -8 -40q-55 2 -83 1q-5 0 -5 -7q1 -49 1.5 -115.5t1 -105t1.5 -56.5q1 -22 8 -31t22 -13q19 -4 41 -7q1 -2 0.5 -9.5t-2.5 -7.5
q-16 0 -58 1.5t-73 1.5q-14 0 -52 -1.5t-48 -1.5q-3 2 -2.5 8.5t2.5 8.5q33 5 39 8q18 6 18 34q0 32 0.5 134t0.5 153q0 6 -4 6h-140q-4 0 -4 -6q2 -235 4 -280q1 -22 6 -31t19 -13q8 -2 18.5 -3t13.5 -2q1 -2 0.5 -9t-2.5 -8q-15 0 -46 1.5t-65 1.5q-19 0 -58 -1.5
t-47 -1.5q-4 9 0 17zM170 418v-26q0 -7 5 -7h140q4 3 4 8q2 89 34 158q-44 68 -106 68q-25 0 -42 -17t-26 -55.5t-9 -128.5z" />
    <glyph glyph-name="f_f_i" unicode="ffi" horiz-adv-x="730" 
d="M14 14q29 4 38 9q18 6 18 35q0 32 0.5 132t0.5 151q0 7 -5 7l-46 3q0 12 5 17q24 4 43 15q4 4 4 7q0 156 123 233q57 36 109 36q67 2 103 -41q24 25 64.5 43.5t82.5 18.5t71.5 -17t39.5 -41q6 -11 0 -24q-10 -27 -41 -43q-4 -2 -11.5 -1.5t-10.5 2.5q-8 7 -36 42
q-39 45 -73 45q-43 0 -58 -50.5t-15 -165.5v-36q0 -6 5 -6l136 1q71 0 105 11q-2 -46 -2 -171t1 -169q1 -19 5.5 -25.5t15.5 -10.5q9 -4 36 -7q1 -2 0 -9t-4 -8q-10 0 -44 1.5t-61 1.5q-29 0 -64.5 -1.5t-38.5 -1.5q-2 1 -2 8.5t2 8.5q18 2 32 7q17 6 18 40q3 69 3 154
q0 109 -2 124q-3 10 -10 10h-126q-5 0 -5 -5q2 -260 3 -281q1 -37 27 -44q10 -3 30 -5q1 -2 1 -8.5t-2 -8.5q-7 0 -41 1.5t-67 1.5q-14 0 -56 -1.5t-52 -1.5q-1 1 -1 8t1 9q27 4 37 8q17 7 17 33q0 32 1 134.5t1 153.5q0 6 -4 6h-140q-4 0 -4 -6q2 -234 4 -280q1 -22 6 -31
t19 -13q7 -2 17.5 -3t14.5 -2q1 -2 0.5 -9t-2.5 -8q-15 0 -47 1.5t-64 1.5q-14 0 -54.5 -1.5t-50.5 -1.5q-4 9 0 17zM170 418v-26q0 -7 5 -7h140q4 3 4 8q2 91 34 160q-19 32 -47.5 49.5t-57.5 17.5q-26 0 -42 -18q-18 -17 -27 -55t-9 -129z" />
    <glyph glyph-name="f_f_l" unicode="ffl" horiz-adv-x="733" 
d="M13 14q24 4 37 8q19 8 19 35q0 189 1 285q0 6 -5 6l-46 3q0 12 5 17q19 3 42 15q4 1 4 7q2 153 125 233q57 36 108 36q67 2 103 -40q24 24 61 42.5t70 18.5q46 0 76 -16q6 -4 16 0q17 5 34 16q7 -2 7 -7q-7 -26 -7 -104q-1 -49 -1 -222q0 -263 2 -289q1 -29 19 -37
q5 -2 11 -3t14.5 -2t14.5 -2q1 -2 0.5 -8.5t-2.5 -8.5q-8 0 -47 1.5t-65 1.5q-22 0 -60 -1.5t-41 -1.5q-1 3 -0.5 9t1.5 8q27 4 33 7q15 6 17 40q2 29 2 272q0 220 -2 247q-1 20 -11 33q-26 29 -61 29q-30 0 -46 -26t-20.5 -63.5t-3.5 -100.5v-61q0 -6 5 -6q46 0 88 3
q-6 -21 -7 -40q-12 0 -41 0.5t-40 0.5q-5 0 -5 -6l4 -282q0 -20 6.5 -29t20.5 -13q15 -3 32 -5q1 -1 0 -8.5t-2 -8.5q-7 0 -42.5 1.5t-69.5 1.5q-14 0 -56 -1.5t-52 -1.5q-2 3 -2 9t2 8q33 5 41 9q17 6 17 34q1 37 1.5 139t0.5 147q0 6 -4 6h-139q-5 0 -5 -6q1 -50 1.5 -117
t1 -106t1.5 -57q1 -22 6 -31t19 -13q8 -2 18.5 -3t13.5 -2q1 -2 0.5 -9t-2.5 -8q-16 0 -47.5 1.5t-63.5 1.5q-14 0 -54.5 -1.5t-50.5 -1.5q-1 3 -1 9t1 8zM169 418v-26q0 -7 5 -7h139q5 3 5 8q2 93 34 162q-47 65 -107 65q-23 0 -40 -18q-18 -17 -27 -55t-9 -129z" />
    <glyph glyph-name="longs_t" unicode="&#x17f;t" horiz-adv-x="527" 
d="M14 13q24 4 38 9q18 7 18 35q0 32 0.5 131t0.5 150q0 7 -5 7l-46 3q0 14 7 21q22 2 41 15q4 3 4 7q0 82 22.5 139t77.5 100q56 45 114 45q57 0 88 -33.5t34 -79.5q1 -23 1 -91t-1 -78q0 -8 5 -8q70 0 106 4q-4 -20 -6 -46q-16 0 -51 0.5t-50 0.5q-5 0 -5 -6
q0 -23 -0.5 -96t-0.5 -95q2 -55 6 -68q5 -16 19 -26t33 -10q35 0 55 14q1 -1 1 -7.5t-1 -10.5q-20 -26 -52.5 -38.5t-60.5 -12.5q-65 0 -89 44q-13 25 -13 116q0 27 0.5 97t0.5 89q0 10 -5 11l-49 3q0 20 7 27q33 5 43 10q5 3 7 11q5 48 5 144q-1 53 -18 75q-22 29 -54 29
q-39 0 -54.5 -58.5t-15.5 -184.5q0 -277 3 -339q1 -22 6.5 -30.5t19.5 -12.5q7 -2 20 -3t17 -2q1 -2 0.5 -9t-2.5 -8q-15 0 -49.5 1.5t-66.5 1.5q-14 0 -54.5 -1.5t-50.5 -1.5q-2 3 -2 8.5t2 7.5z" />
    <glyph glyph-name="R_A" unicode="RA" horiz-adv-x="1141" 
d="M25 590q-1 2 -1 9t2 8q11 0 56 -1.5t62 -1.5q23 0 78 1t94 1q87 0 130.5 -40t43.5 -107q0 -56 -32.5 -94.5t-83.5 -58.5q-1 -1 -1.5 -3t0.5 -3q22 -39 78 -122t90 -121q32 -35 55 -35q14 0 21 7.5t17 30.5q37 87 101.5 261.5t85.5 237.5q9 29 12 47q18 -2 38 -2
q21 0 37 2q1 -5 3 -13t5 -18t4 -16q133 -398 154 -457q21 -55 36 -68t64 -20q1 -1 0 -8.5t-2 -8.5q-9 0 -53 1.5t-73 1.5q-37 0 -133 -3q-4 11 0 17q46 10 48 11q15 7 10 24q-19 63 -61 179q0 2 -2.5 4.5t-4.5 2.5q-10 1 -72 1q-74 0 -86 -1q-7 0 -9 -8q-4 -10 -12 -33.5
t-14.5 -41.5t-13 -38t-10.5 -34.5t-4 -21.5q0 -10 0.5 -14t7 -11.5t19.5 -10.5q16 -4 46 -8q1 -2 0.5 -9t-2.5 -8q-13 0 -49.5 1.5t-63.5 1.5q-17 0 -61.5 -1.5t-60.5 -1.5q-65 0 -104 49q-17 21 -42 59t-57 90t-40 64q-11 21 -28 21q-3 0 -16.5 -0.5t-17.5 -0.5t-4 -6
q0 -100 2 -198q1 -30 7 -39.5t23 -13.5q3 -1 47 -8q2 -2 1.5 -8t-2.5 -9q-17 0 -62 1.5t-70 1.5q-35 0 -63.5 -1t-44 -1.5t-19.5 -0.5q-2 1 -2 8t2 8q34 5 41 7q16 4 22 15.5t7 39.5q3 44 3 244q0 167 -2 215q-1 43 -30 50q-31 5 -44 6zM243 581q-15 0 -25 -4q-6 -3 -6 -14
q-3 -27 -3 -250q0 -5 5 -5q82 -8 114 8q52 25 52 114q0 67 -35.5 109t-101.5 42zM825 487q-11 -31 -37.5 -111t-32.5 -97q-1 -3 2 -6q9 -1 65 -1q61 0 71 1q3 0 3 5q-35 116 -67 209h-4z" />
    <glyph glyph-name="K_A" unicode="KA" horiz-adv-x="1142" 
d="M372 590q-2 2 -2 9t2 8q20 0 51.5 -1.5t50.5 -1.5l118 3q4 -4 0 -17q-33 -6 -45 -9t-31.5 -16.5t-43.5 -41.5q-108 -124 -156 -176v-3q25 -47 109.5 -148.5t132.5 -144.5q24 -21 49 -21q8 0 14.5 6t14.5 26q38 85 99.5 253.5t86.5 243.5q9 29 12 47q18 -2 39 -2t37 2
q3 -18 12 -47q144 -433 153 -457q21 -55 36 -68t64 -20q1 -1 0 -8.5t-2 -8.5q-9 0 -52.5 1.5t-72.5 1.5q-38 0 -134 -3q-4 11 0 17q43 9 48 11q16 7 11 24q-19 63 -61 179q-4 7 -8 7q-10 1 -72 1q-73 0 -85 -1q-6 0 -8 -8q-55 -150 -56 -169v-3q-1 -27 27 -33q13 -3 43 -8
q1 -2 0.5 -9t-2.5 -8q-10 0 -48 1.5t-56 1.5q-3 0 -54 -1.5t-71 -1.5q-34 0 -58.5 11t-51.5 41q-81 86 -182 229q-6 9 -14 14q0 10 3 10q34 18 85.5 69.5t100.5 117.5q39 53 39 72q0 13 -18 18q-20 7 -54 11zM24 12q31 4 44 7q17 4 23.5 18t8.5 45q2 116 1 238q-1 38 -1 113
v96q-3 46 -27 53q-18 6 -44 8q-2 2 -2 9t2 8q7 0 50 -1.5t79 -1.5q26 0 67.5 1.5t51.5 1.5q1 -1 1 -8t-1 -9q-30 -4 -40 -7q-15 -4 -20 -17.5t-6 -41.5q-1 -24 -1.5 -106.5t-0.5 -107.5q0 -168 2 -234q1 -29 7.5 -40.5t24.5 -15.5q4 -1 44 -7q2 -2 0.5 -9t-3.5 -8
q-116 4 -129 4q-25 -1 -75 -2.5t-56 -1.5q-2 2 -2 8t2 8zM827 488q-11 -31 -37.5 -111.5t-32.5 -97.5q-1 -3 2 -6q10 -1 64 -1q62 0 72 1q1 0 2 2t0 3q-47 155 -66 210h-4z" />
    <glyph glyph-name="T_T" unicode="TT" horiz-adv-x="1028" 
d="M146 13q30 3 60 9q18 3 25.5 18t9.5 54q3 58 3 470q0 9 -5 9q-12 1 -57.5 0.5t-60.5 -1.5q-29 -2 -46 -29q-19 -27 -39 -87q-1 -2 -9 -0.5t-9 4.5q13 65 17 154q0 1 2.5 2.5t3.5 0.5q35 -13 83 -13h782q55 0 94 13q4 0 4 -5q-11 -34 -21 -157q-1 -1 -9 -1t-9 1
q-10 65 -20 86q-12 26 -41 29q-21 1 -69 1.5t-56 -0.5q-5 -3 -5 -9q0 -356 4 -484q1 -30 8 -41t23 -16q16 -4 48 -8q2 -1 1 -8.5t-3 -8.5q-15 0 -60 1.5t-72 1.5q-49 0 -99 -1.5t-58 -1.5q-2 3 -2 9.5t2 7.5q30 3 60 9q18 3 25.5 18t9.5 54q3 58 3 470q0 9 -5 9l-300 -2
q-5 -3 -5 -9q0 -356 4 -484q1 -30 8 -41t23 -16q16 -4 48 -8q2 -1 1 -8.5t-3 -8.5q-15 0 -60 1.5t-72 1.5q-49 0 -99 -1.5t-58 -1.5q-2 3 -2 9.5t2 7.5z" />
    <glyph glyph-name="T_h" unicode="Th" horiz-adv-x="984" 
d="M156 14q32 3 59 9q18 3 25.5 18t9.5 54q3 59 3 469q0 8 -5 8q-12 1 -60 0.5t-63 -1.5q-30 -1 -50 -30q-21 -33 -37 -81q-3 -2 -10.5 -0.5t-8.5 5.5q14 80 16 153l17 -3q33 -11 72 -11h434q5 0 5 6l-1 46q0 2 2.5 5t4.5 3q24 1 45.5 5.5t33 8t12.5 3.5q6 0 6 -5
q0 -2 -0.5 -13.5t-1 -41.5t-0.5 -73v-202q0 -6 4 -2q75 55 131 55q58 0 88 -40.5t30 -116.5q0 -150 1 -194q0 -10 6 -16q12 -12 51 -18q1 -2 0 -9t-2 -8q-9 0 -45 1.5t-65 1.5q-35 0 -98 -3q-1 2 -1 8.5t1 8.5q26 5 32 8q10 5 13 13t4 32q5 177 -5 213q-6 26 -27 43t-52 17
q-33 0 -57 -15q-9 -6 -9 -16q0 -199 3 -243q1 -22 5.5 -31.5t17.5 -13.5q16 -4 29 -7q6 -6 0 -17q-5 0 -40 1.5t-66 1.5q-28 0 -61.5 -1.5t-40.5 -1.5q-5 7 0 17q20 3 32 7q18 6 19 48q3 50 3 182q0 293 -1 308q-2 11 -10 11q-20 1 -98.5 1.5t-86.5 -0.5q-5 -2 -5 -9
q0 -398 4 -483q1 -29 7.5 -40.5t23.5 -16.5q14 -4 52 -8q0 -15 -1 -17q-25 0 -69 1.5t-69 1.5q-30 0 -83 -1.5t-73 -1.5q-2 2 -2 8.5t2 8.5z" />
    <glyph glyph-name="f_b" unicode="fb" horiz-adv-x="727" 
d="M12 14q32 5 40 9q17 6 17 35q2 140 2 279q0 7 -5 7l-46 3q0 15 7 22q22 4 40 13q4 4 4 8q0 87 29 149t101 108q50 31 94 31q38 0 68 -15q7 -4 17 0q12 3 35 17q6 -3 6 -7q-7 -35 -7 -104v-72.5v-80.5v-60q0 -4 5 -2q86 45 127 45q66 0 106 -49q42 -49 42 -124
q0 -114 -87 -179q-27 -21 -81.5 -40t-86.5 -19q-73 0 -133 27q5 28 5 60q1 49 1 182q0 297 -1 318t-12 33q-22 31 -58 31q-21 0 -35 -12q-36 -31 -36 -175q0 -48 1 -61q0 -6 5 -6q46 0 88 3q-6 -16 -9 -44q-12 0 -40.5 0.5t-39.5 0.5q-4 0 -4 -6q2 -226 3 -278q0 -36 27 -42
q15 -3 32 -5q1 -1 0.5 -8.5t-1.5 -8.5q-7 0 -43 1.5t-69 1.5q-14 0 -56 -1.5t-52 -1.5q-2 1 -2 8t2 9zM467 347q-14 0 -44 -9q-8 -4 -8 -14q-2 -23 -1.5 -105t3.5 -117q1 -41 16 -56q24 -21 68 -21q34 0 58 29q31 36 31 118q0 84 -34 129q-33 46 -89 46z" />
    <glyph glyph-name="f_f_b" unicode="ffb" horiz-adv-x="977" 
d="M15 14q26 4 36 8q19 8 19 35q0 32 0.5 133t0.5 152q0 6 -5 6l-46 3q0 11 6 17q15 3 42 15q4 2 4 7q0 151 124 233q57 36 108 36q67 2 103 -40q24 24 61.5 42.5t70.5 18.5q45 0 75 -16q7 -4 16 0q15 4 35 16q6 -3 6 -7q-7 -35 -7 -104q-1 -49 -1 -214q0 -1 1.5 -2t3.5 0
q86 46 126 46q67 0 107 -49q42 -49 42 -124q0 -118 -83 -180q-28 -21 -75 -39.5t-77 -18.5q-45 0 -87 12q-26 7 -57 -2q-1 -1 -3.5 1t-2.5 4q4 33 5 278q0 256 -2 298q-3 22 -12 33q-26 29 -62 29q-42 0 -55.5 -46.5t-13.5 -142.5l1 -61q0 -6 5 -6q46 0 88 3q-6 -20 -8 -40
q-12 0 -41 0.5t-40 0.5q-4 0 -4 -6q2 -231 3 -282q1 -35 28 -42q15 -3 32 -5q1 -1 0 -8.5t-2 -8.5q-7 0 -43 1.5t-69 1.5q-14 0 -56 -1.5t-52 -1.5q-6 8 0 17q33 5 41 9q17 6 17 34q0 32 0.5 133t0.5 153q0 6 -4 6h-139q-5 0 -5 -6q1 -50 1.5 -117t1 -106t1.5 -57
q1 -22 6.5 -31t19.5 -13q6 -1 10.5 -2t10.5 -1.5t10 -1.5q1 -2 0.5 -9t-2.5 -8q-15 0 -47 1.5t-64 1.5q-14 0 -54.5 -1.5t-50.5 -1.5q-4 9 1 17zM170 418v-26q0 -7 5 -7h140q4 3 4 8q2 90 34 162q-47 65 -107 65q-24 0 -40 -18q-18 -18 -27 -55.5t-9 -128.5zM719 347
q-23 0 -48 -11q-7 -4 -7 -13q-4 -154 2 -220q2 -38 18 -52q30 -28 69 -28q33 0 55 28q31 38 31 121q0 86 -33 131q-33 44 -87 44z" />
    <glyph glyph-name="f_f_h" unicode="ffh" horiz-adv-x="982" 
d="M15 14q26 4 36 8q19 8 19 35q0 32 0.5 133t0.5 152q0 6 -5 6l-46 3q0 11 6 17q15 3 42 15q4 2 4 7q0 152 124 233q57 36 108 36q67 2 103 -40q26 26 64 43.5t72 17.5q46 0 71 -16q7 -4 16 0q15 4 35 16q6 -3 6 -7q-7 -35 -7 -104q-1 -49 -1 -223q0 -6 4 -2q75 55 130 55
q59 0 89 -41t30 -117q0 -149 1 -193q0 -10 6 -16q13 -12 50 -18q2 -2 1.5 -9t-2.5 -8q-9 0 -45 1.5t-65 1.5q-38 0 -98 -3q-2 2 -2 8.5t2 8.5q26 5 31 8q11 5 14 13t4 32q5 180 -5 216q-6 25 -27 42t-52 17q-34 0 -57 -16q-9 -6 -9 -16q0 -200 3 -244q1 -22 5.5 -31.5
t17.5 -13.5q18 -5 29 -7q2 -2 2 -8t-2 -9q-4 0 -38 1.5t-68 1.5q-30 0 -62 -1.5t-39 -1.5q-1 2 -1 8.5t1 8.5q19 3 31 7q11 4 14.5 13.5t5.5 34.5q2 53 0 264q0 227 -1 247q-3 23 -12 33q-26 29 -61 29q-42 0 -56 -47t-14 -143l1 -61q0 -6 5 -6q46 0 88 3q-6 -20 -8 -40
q-12 0 -41 0.5t-40 0.5q-4 0 -4 -6q2 -231 3 -282q1 -35 28 -42q15 -3 32 -5q1 -1 0 -8.5t-2 -8.5q-7 0 -43 1.5t-69 1.5q-14 0 -56 -1.5t-52 -1.5q-6 8 0 17q33 5 41 9q17 6 17 34q0 32 0.5 133t0.5 153q0 6 -4 6h-139q-5 0 -5 -6q1 -50 1.5 -117t1 -106t1.5 -57
q1 -22 6.5 -31t19.5 -13q6 -1 10.5 -2t10.5 -1.5t10 -1.5q1 -2 0.5 -9t-2.5 -8q-15 0 -47 1.5t-64 1.5q-14 0 -54.5 -1.5t-50.5 -1.5q-1 2 -0.5 8.5t1.5 8.5zM170 418v-26q0 -7 5 -7h140q4 3 4 8q2 90 34 162q-18 30 -47 47.5t-59 17.5q-23 0 -41 -18q-18 -17 -27 -55
t-9 -129z" />
    <glyph glyph-name="f_f_j" unicode="ffj" horiz-adv-x="726" 
d="M13 14q30 5 38 9q17 6 17 35q1 37 1.5 137.5t0.5 145.5q0 7 -5 7l-46 3q0 12 5 17q25 5 42 15q4 3 4 7q0 155 124 233q57 36 109 36q66 2 102 -41q25 25 65 43.5t82 18.5t72.5 -17.5t40.5 -41.5q4 -12 -1 -22q-11 -27 -41 -44q-12 -6 -23 1q-8 8 -21 23.5t-15 18.5
q-39 45 -73 45q-42 0 -57.5 -51t-15.5 -165l2 -36q0 -6 4 -6l135 1q67 0 106 13q-1 -44 -1 -166.5v-166.5q-2 -76 -10 -120q-14 -76 -64 -136t-92 -79q-6 1 -16 8q-3 3 0 6q44 25 61.5 70t17.5 142v1q0 304 -5 381q-2 10 -8 10h-124l-5 -5q0 -50 0.5 -117.5t1 -106.5
t0.5 -57q1 -22 7 -31t21 -13q10 -3 30 -5q2 -2 1 -9t-3 -8q-7 0 -41 1.5t-67 1.5q-14 0 -55.5 -1.5t-51.5 -1.5q-2 1 -2 8t2 9q27 4 37 8q17 7 17 33q0 98 2 288q0 6 -4 6h-140q-5 0 -5 -6q1 -46 1.5 -110t1 -107t1.5 -63q1 -22 6.5 -31t19.5 -13q7 -2 17.5 -3t14.5 -2
q1 -2 0.5 -9t-2.5 -8q-16 0 -47.5 1.5t-63.5 1.5q-14 0 -54.5 -1.5t-50.5 -1.5q-4 9 0 17zM169 418v-26q0 -7 5 -7h139q5 3 5 8q2 92 34 161q-48 66 -106 66q-24 0 -42 -18q-17 -17 -26 -55t-9 -129z" />
    <glyph glyph-name="f_f_k" unicode="ffk" horiz-adv-x="950" 
d="M15 14q26 4 36 8q19 8 19 35q0 32 0.5 133t0.5 152q0 6 -5 6l-46 3q0 11 6 17q15 3 42 15q4 2 4 7q0 152 124 233q57 36 108 36q67 2 103 -40q24 24 62 42.5t71 18.5q44 0 74 -16q7 -4 16 0q15 4 35 16q6 -3 6 -7q-7 -35 -7 -104q0 -18 -1 -163.5t-2 -201.5q19 1 46 25
q31 29 61.5 66.5t30.5 49.5q0 11 -16 15q-9 3 -46 8q-1 2 0 9t2 8q101 -2 175 8q2 -1 2.5 -8t-1.5 -10q-48 -10 -74 -34q-51 -53 -91 -101q-2 -1 0 -4q17 -31 74 -103t88 -99q14 -11 25 -14.5t39 -5.5q1 -1 0.5 -8.5t-2.5 -8.5q-12 -2 -63 -3.5t-69 -0.5q-26 2 -43 21
q-30 30 -113 148q-15 23 -25 26l2 -122q1 -26 6.5 -34.5t23.5 -12.5q16 -3 27 -5q4 -9 -1 -17q-8 0 -44.5 1.5t-67.5 1.5q-20 0 -52 -1.5t-45 -1.5q-2 2 -2 8.5t2 8.5q22 3 32 7q17 7 19 39q2 28 2 243q0 234 -2 276q-3 23 -12 32q-27 30 -61 30q-42 0 -56 -46.5t-14 -142.5
q0 -48 1 -61q0 -6 5 -6q46 0 88 3q-6 -20 -8 -40q-12 0 -41 0.5t-40 0.5q-4 0 -4 -6q2 -231 3 -282q1 -35 28 -42q15 -3 32 -5q1 -1 0 -8.5t-2 -8.5q-7 0 -43 1.5t-69 1.5q-14 0 -56 -1.5t-52 -1.5q-6 8 0 17q33 5 41 9q17 6 17 34q0 32 0.5 133t0.5 153q0 6 -4 6h-139
q-5 0 -5 -6q1 -50 1.5 -117t1 -106t1.5 -57q1 -22 6.5 -31t19.5 -13q6 -1 10.5 -2t10.5 -1.5t10 -1.5q1 -2 0.5 -9t-2.5 -8q-15 0 -47 1.5t-64 1.5q-14 0 -54.5 -1.5t-50.5 -1.5q-4 9 1 17zM170 418v-26q0 -7 5 -7h140q4 3 4 8q6 98 34 162q-39 65 -106 65q-23 0 -41 -18
q-18 -17 -27 -55t-9 -129z" />
    <glyph glyph-name="f_f_t" unicode="fft" horiz-adv-x="778" 
d="M13 14q30 5 38 9q17 6 17 35q1 37 1.5 138t0.5 146q0 6 -5 6l-47 3q0 11 6 17q23 4 42 15q4 3 4 7q1 160 114 234q49 31 89 31q55 0 70 -28v-11q-2 -8 -15.5 -28t-21.5 -25q-7 -2 -11 0q-44 53 -74 53q-16 0 -28 -13q-24 -27 -24 -153v-58q0 -7 5 -7h141q5 3 5 8
q6 178 124 255q49 32 88 32q57 0 76 -33v-12q-8 -24 -39 -52q-5 -2 -10 0q-3 2 -11 10t-12.5 12t-13.5 11t-16 10t-16 6t-18 3q-16 0 -26 -10q-17 -14 -22.5 -51.5t-5.5 -122.5q0 -9 0.5 -31t0.5 -29q0 -6 5 -6l131 1q5 2 5 6v80q24 8 53 24.5t38 27.5q6 1 14 0
q-4 -30 -4 -131q0 -8 5 -8q70 0 106 4q-5 -22 -6 -41q-16 0 -51 0.5t-50 0.5q-5 0 -5 -6q0 -23 -0.5 -99t-0.5 -98q2 -53 6 -68q10 -35 51 -35q36 0 56 14q4 -8 0 -18q-20 -26 -51.5 -38.5t-59.5 -12.5q-66 0 -89 44q-7 12 -9.5 30t-3 31t-0.5 55q0 27 0.5 99.5t0.5 91.5
q0 9 -6 10h-130q-5 0 -5 -5q0 -197 4 -279q1 -22 8 -31t22 -13q19 -4 41 -7q1 -2 0.5 -9t-3.5 -8q-16 0 -57 1.5t-73 1.5q-14 0 -51 -1.5t-47 -1.5q-3 2 -2.5 8.5t2.5 8.5q30 5 37 8q18 6 18 34q0 32 0.5 134t0.5 153q0 6 -4 6h-141q-5 0 -5 -6l4 -280q1 -22 6.5 -31
t19.5 -13q1 0 32 -5q1 -2 0.5 -9t-2.5 -8q-16 0 -47.5 1.5t-63.5 1.5q-14 0 -54.5 -1.5t-50.5 -1.5q-4 9 0 17z" />
    <glyph glyph-name="f_h" unicode="fh" horiz-adv-x="735" 
d="M12 14q32 5 40 9q17 6 17 35q2 140 2 279q0 7 -5 7l-46 3q0 12 7 21q25 5 40 14q4 3 4 7q0 88 28.5 149.5t100.5 107.5q49 32 95 32q38 0 70 -15q7 -4 17 0q10 3 35 17q6 -3 6 -7q-7 -35 -7 -96v-231q0 -6 4 -2q75 55 130 55q59 0 89 -41t30 -117q0 -149 1 -193
q0 -10 6 -16q13 -12 50 -18q2 -2 1 -9t-3 -8q-10 0 -45 1.5t-64 1.5q-38 0 -98 -3q-1 2 -1 8.5t1 8.5q27 5 31 8q11 5 14.5 13t4.5 32q3 182 -6 216q-6 26 -27.5 43t-52.5 17q-30 0 -56 -16q-9 -6 -9 -16q0 -201 3 -245q1 -22 5.5 -31.5t17.5 -13.5q18 -5 29 -7q1 -2 1 -8
t-1 -9q-5 0 -40 1.5t-66 1.5q-28 0 -62 -1.5t-40 -1.5q-6 6 0 17q20 3 32 7q19 6 20 48q2 64 2 182q0 294 -1 323q-1 21 -13 34q-23 31 -62 31q-21 0 -34 -12q-37 -31 -37 -184q0 -39 1 -52q0 -6 5 -6q46 0 88 3q-6 -24 -9 -44q-12 0 -40.5 0.5t-39.5 0.5q-4 0 -4 -6
q2 -226 3 -278q0 -36 27 -42q15 -3 32 -5q1 -2 1 -9t-2 -8q-7 0 -43 1.5t-69 1.5q-19 0 -59.5 -1.5t-48.5 -1.5q-2 3 -2 9t2 8z" />
    <glyph glyph-name="f_i" unicode="fi" horiz-adv-x="481" 
d="M14 14q27 4 38 8q17 7 17 33q2 64 2 286q0 7 -5 7l-46 3q0 13 6 17q22 4 41 15q5 4 5 8q0 170 128 253q53 35 104 35q43 0 73 -16.5t40 -40.5q1 -2 1 -10t-1 -12q-6 -12 -18.5 -25.5t-24.5 -19.5q-4 -2 -11 -1.5t-10 2.5q-6 6 -34 40q-40 44 -77 44q-20 0 -38 -18
q-33 -35 -33 -196q0 -22 1 -35q0 -6 4 -6l136 1q70 0 106 11q-3 -35 -3 -171q0 -125 1 -169q1 -19 5.5 -25.5t15.5 -10.5q9 -4 34 -7q2 -1 0.5 -8.5t-3.5 -8.5q-10 0 -43.5 1.5t-60.5 1.5q-29 0 -64 -1.5t-38 -1.5q-1 2 -1 9t1 8q19 2 31 7q17 6 18 40q3 35 3 154
q0 109 -2 124q-2 10 -9 10h-127q-5 0 -5 -7q1 -49 1.5 -116t1 -106t1.5 -57q1 -22 6.5 -31t19.5 -13q13 -3 31 -5q2 -2 1 -9t-3 -8q-6 0 -40 1.5t-68 1.5q-14 0 -55.5 -1.5t-51.5 -1.5q-2 2 -2 8.5t1 8.5z" />
    <glyph glyph-name="f_j" unicode="fj" horiz-adv-x="478" 
d="M14 14q27 4 38 8q17 7 17 33q2 64 2 286q0 7 -5 7l-46 3q0 13 6 17q22 4 41 15q5 4 5 8q0 171 128 254q53 34 104 34q43 0 73 -16.5t40 -40.5q6 -9 0 -22q-6 -11 -18.5 -25t-23.5 -20q-13 -4 -22 2q-7 6 -12.5 12t-12 14.5t-10.5 13.5q-38 44 -75 44q-23 0 -41 -21
q-31 -29 -31 -194l1 -35q0 -6 4 -6l135 1q67 0 106 13q-1 -43 -1 -166v-167q-2 -76 -10 -120q-14 -76 -64 -136t-92 -79q-6 1 -16 8q-3 3 0 6q44 25 61.5 70t17.5 142v1q0 304 -5 381q-2 10 -8 10h-124q-5 0 -5 -7q1 -49 1.5 -116t1 -106t1.5 -57q1 -22 6.5 -31t19.5 -13
q13 -3 31 -5q2 -2 1 -9t-3 -8q-6 0 -40 1.5t-68 1.5q-14 0 -55.5 -1.5t-51.5 -1.5q-2 2 -2 8.5t1 8.5z" />
    <glyph glyph-name="f_k" unicode="fk" horiz-adv-x="702" 
d="M12 13q29 4 40 10q17 6 17 35q2 140 2 279q0 7 -5 7l-46 3q0 14 6 22q24 2 41 13q4 3 4 7q0 88 28.5 149.5t100.5 107.5q49 32 93 32q40 0 72 -15q7 -3 16 0q13 4 36 17q6 -3 6 -7q-7 -35 -7 -108q-1 -66 -1 -362q25 4 47 26q36 34 60 68.5t24 47.5q0 11 -15 15
q-8 2 -47 8q-1 2 0 9t2 8q96 -2 176 8q2 -1 2 -8t-2 -10q-52 -11 -72 -33q-25 -27 -85 -99q-1 -1 -1 -4q19 -33 76.5 -106.5t88.5 -99.5q13 -11 23.5 -14t39.5 -5q1 -1 0 -8.5t-2 -8.5q-13 -2 -66 -3.5t-69 -0.5q-23 2 -42 22q-27 26 -112 147q-15 24 -26 25l2 -121
q1 -26 6.5 -34.5t22.5 -12.5q19 -4 28 -5q1 -3 0 -9t-2 -8q-8 0 -44 1.5t-67 1.5q-19 0 -50 -1.5t-47 -1.5q-1 2 -1 8.5t1 7.5q19 3 33 8q17 7 18 39q2 28 2 183q0 300 -1 332q-3 21 -13 33q-23 31 -62 31q-21 0 -35 -12q-36 -30 -36 -182q0 -41 1 -54q0 -6 5 -6q46 0 88 3
q-7 -25 -9 -44q-12 0 -40.5 0.5t-39.5 0.5q-4 0 -4 -6q2 -226 3 -278q0 -21 6.5 -30t20.5 -13q5 -1 32 -5q1 -2 1 -8.5t-2 -7.5q-7 0 -43 1.5t-69 1.5q-14 0 -56 -1.5t-52 -1.5q-2 2 -2 8t2 8z" />
    <glyph glyph-name="f_l" unicode="fl" 
d="M13 14q32 5 40 9q17 6 17 35q0 89 2 279q0 7 -5 7l-46 3q0 13 6 21q26 5 40 14q5 2 5 8q0 88 28.5 149.5t100.5 107.5q50 31 92 31q39 0 73 -15q7 -3 16 0q15 4 35 17q7 -2 7 -7q-7 -35 -7 -104q-1 -49 -1 -222q0 -269 1 -289q1 -27 20 -36q1 0 39 -8q1 -2 0 -8.5
t-2 -8.5q-8 0 -44.5 1.5t-66.5 1.5q-24 0 -61 -1.5t-39 -1.5q-2 10 0 17q19 2 34 7t16 40q3 32 3 272q0 215 -2 243q-2 22 -11 33q-24 30 -62 30q-21 0 -35 -11q-36 -30 -36 -176q0 -48 1 -61q0 -6 5 -6q49 0 88 3q-5 -18 -8 -44q-12 0 -41 0.5t-40 0.5q-4 0 -4 -6
q2 -257 3 -278q1 -36 28 -42q15 -3 32 -5q1 -1 0 -8.5t-2 -8.5q-6 0 -42 1.5t-70 1.5q-14 0 -55.5 -1.5t-51.5 -1.5q-1 2 -1 8.5t1 8.5z" />
    <glyph glyph-name="f_t" unicode="ft" horiz-adv-x="520" 
d="M14 14q27 4 37 8q18 7 18 37q1 71 1 279q0 8 -4 8l-46 2q0 15 6 21q29 5 41 12q5 4 5 7q0 90 27 150.5t95 105.5q21 14 48.5 25t42.5 10q29 0 51.5 -10.5t30.5 -25.5v-11q-4 -13 -18.5 -33t-23.5 -28h-9q-51 62 -94 62q-17 0 -28 -12q-24 -27 -24 -163q0 -54 1 -67
q0 -6 5 -6h124q4 2 4 6v81q24 8 53.5 25t38.5 27q6 1 13 0q-3 -45 -3 -131q0 -8 4 -8q65 0 101 4q-4 -20 -6 -45q-16 0 -48 0.5t-48 0.5q-4 0 -4 -6q-3 -121 -1 -193q0 -52 5 -68q12 -35 49 -35q32 0 51 13q1 -2 1 -8.5t-1 -9.5q-37 -50 -106 -50q-64 0 -87 44
q-13 25 -13 116q0 27 0.5 98.5t0.5 90.5q0 8 -5 10h-124q-4 0 -4 -7q2 -227 4 -273q1 -23 6.5 -32.5t20.5 -13.5q10 -2 43 -7q1 -2 -0.5 -9t-2.5 -8q-16 0 -57.5 1.5t-72.5 1.5q-14 0 -51 -1.5t-47 -1.5q-2 1 -2 8t2 9z" />
    <glyph glyph-name="longs_b" unicode="&#x17f;b" horiz-adv-x="721" 
d="M12 13q27 4 40 9q17 7 17 35q2 142 2 281q0 7 -5 7l-46 3q0 14 7 21q18 3 40 13q4 3 4 8q0 178 129 258q48 29 88 29q39 0 69 -14q7 -3 16 0q17 6 35 17q7 -2 7 -7q-7 -35 -7 -104v-72.5v-80.5v-60q0 -4 5 -2q83 45 126 45q67 0 107 -49q41 -47 41 -124q0 -114 -86 -179
q-27 -21 -81.5 -40t-86.5 -19q-73 0 -133 27q2 13 5 60q1 49 1 182q0 297 -1 318q-1 22 -12 34q-25 30 -55 30q-17 0 -30 -10q-37 -32 -37 -194v-91q0 -50 0.5 -117.5t1 -107.5t0.5 -58q1 -35 28 -42q22 -5 33 -5q1 -2 0.5 -9t-2.5 -8q-7 0 -43 1.5t-69 1.5q-14 0 -56 -1.5
t-52 -1.5q-2 2 -2 8t2 8zM462 347q-15 0 -45 -9q-7 -4 -9 -14q-4 -148 3 -223q1 -39 17 -53q24 -23 67 -23q34 0 57 28q32 39 32 119q0 83 -34 130q-33 45 -88 45z" />
    <glyph glyph-name="longs_h" unicode="&#x17f;h" horiz-adv-x="732" 
d="M12 14q30 5 39 8q18 8 18 35q2 142 2 281q0 7 -5 7l-46 3q0 12 7 21q18 3 40 13q4 4 4 7q0 88 29 150.5t100 108.5q47 29 85 29q41 0 73 -14q7 -3 17 0q15 5 35 17q6 -2 6 -7q-7 -35 -7 -104q0 -162 -1 -223q0 -6 4 -2q73 55 131 55t88 -41t30 -117q0 -149 1 -193
q0 -11 6 -16q14 -13 50 -18q2 -2 1 -9t-3 -8q-10 0 -45 1.5t-64 1.5q-38 0 -98 -3q-2 2 -2.5 8.5t1.5 8.5q24 4 32 8q11 4 14 12t4 33q5 180 -5 216q-6 25 -27 42t-52 17q-34 0 -57 -16q-9 -6 -9 -16q0 -215 2 -244q1 -15 3 -23t7 -14t14 -8l30 -7q3 -3 -1 -17q-5 0 -40 1.5
t-66 1.5q-28 0 -61.5 -1.5t-40.5 -1.5q-6 8 0 17q20 3 32 7q11 4 14.5 13.5t5.5 34.5q2 66 2 242q0 223 -3 266q-2 24 -12 34q-23 29 -55 29q-18 0 -30 -11q-39 -33 -39 -201l1 -83q2 -235 3 -284q0 -36 27 -42q22 -5 29 -5q1 -2 1 -9t-2 -8q-7 0 -41.5 1.5t-67.5 1.5
q-19 0 -59 -1.5t-49 -1.5q-2 2 -2 8.5t2 8.5z" />
    <glyph glyph-name="longs_i" unicode="&#x17f;i" horiz-adv-x="476" 
d="M14 13q28 4 38 9q17 6 17 32q2 140 2 284q0 7 -5 7l-46 3q0 14 7 21q18 2 40 14q5 3 5 8q0 170 128 254q53 34 104 34q42 0 72.5 -16.5t39.5 -40.5q4 -9 0 -24q-10 -27 -41 -43q-4 -2 -11.5 -1.5t-11.5 2.5q-14 14 -35 42q-37 42 -76 42q-22 0 -37 -18q-17 -19 -25.5 -66
t-7.5 -153q3 -319 4 -340q1 -23 6.5 -32t19.5 -12l28 -6q1 -2 1 -8t-2 -8q-6 0 -39 1.5t-67 1.5q-14 0 -55.5 -1.5t-51.5 -1.5q-2 2 -2 8t1 8zM466 14q0 -14 -4 -17q-11 0 -46 1.5t-56 1.5q-29 0 -64 -1.5t-42 -1.5q-1 1 -1 8t1 9q22 2 34 7q18 6 19 42q2 46 2 151
q0 80 -2 95q0 12 -3 18q-9 14 -38 24q-1 1 -1 8t1 9q24 1 70 9.5t76 21.5q0 -8 -1 -70.5t-1 -95.5q0 -130 1 -174q1 -31 20 -38q16 -5 35 -7z" />
    <glyph glyph-name="longs_k" unicode="&#x17f;k" horiz-adv-x="702" 
d="M12 14q32 5 40 9q17 6 17 34q2 142 2 281q0 7 -5 7l-46 3q0 13 6 21q18 2 41 13q4 3 4 7q0 88 29 150.5t100 108.5q47 29 85 29q41 0 73 -14q7 -3 17 0q15 5 35 17q6 -2 6 -7q-7 -35 -7 -104q0 -40 -0.5 -188.5t-0.5 -177.5q25 4 47 26q36 34 60.5 69t24.5 48
q0 11 -16 15q-30 7 -47 7q-1 2 0 9t2 8q96 -2 176 8q1 -2 1 -8.5t-1 -9.5q-53 -11 -73 -33q-15 -16 -84 -99q-2 -3 -1 -4q18 -33 75.5 -106t88.5 -100q24 -18 64 -20q1 -2 0 -8.5t-2 -7.5q-13 -2 -66 -3.5t-69 -0.5q-23 2 -42 22q-27 26 -112 147q-15 24 -26 25l2 -121
q1 -26 6.5 -34.5t22.5 -12.5q18 -4 29 -5q0 -14 -3 -17q-8 0 -44 1.5t-67 1.5q-20 0 -51 -1.5t-47 -1.5q-1 2 -1 8.5t1 8.5q24 4 33 7q16 7 18 39q2 28 2 183q0 291 -3 334q-2 24 -12 34q-23 29 -55 29q-18 0 -30 -11q-39 -33 -39 -203l1 -81q2 -235 3 -284q0 -20 6.5 -29
t20.5 -13q17 -4 29 -5q1 -1 0.5 -8.5t-1.5 -8.5q-7 0 -41.5 1.5t-67.5 1.5q-14 0 -56 -1.5t-52 -1.5q-2 2 -2 8.5t2 8.5z" />
    <glyph glyph-name="longs_l" unicode="&#x17f;l" horiz-adv-x="480" 
d="M11 14q29 4 41 10q17 6 17 33q0 33 0.5 132t0.5 149q0 7 -4 7l-46 3q0 13 6 21q25 4 40 13q4 4 4 7q1 86 30.5 150t100.5 109q47 29 88 29t71 -14q6 -4 16 0q17 6 35 17q7 -2 7 -7q-7 -26 -7 -104q-1 -77 -1 -218q0 -257 2 -285q2 -24 5 -32t14 -12q5 -2 38 -8
q1 -2 0.5 -8.5t-2.5 -8.5q-13 0 -48 1.5t-63 1.5q-20 0 -55 -1.5t-46 -1.5q-2 10 0 17q26 4 35 8q17 7 18 44q1 42 1 273q0 211 -2 240q0 20 -12 32q-23 29 -56 29q-18 0 -31 -11q-37 -31 -37 -216v-99q2 -252 2 -253q1 -21 7 -29.5t20 -12.5q18 -4 28 -5q1 -1 0.5 -8.5
t-1.5 -8.5q-7 0 -41 1.5t-67 1.5q-14 0 -56 -1.5t-52 -1.5q-1 2 -1 8.5t1 8.5z" />
    <glyph glyph-name="longs_longs" unicode="&#x17f;&#x17f;" horiz-adv-x="478" 
d="M14 14q25 4 36 8q20 8 20 34q0 32 0.5 131.5t0.5 150.5q0 7 -5 7l-46 3q0 13 6 21q18 2 43 14q3 3 3 9q6 153 129 233q52 33 98 33q56 0 99 -33q3 -3 8 0q58 54 117 54q58 0 75 -33q2 -7 0 -12q-8 -24 -39 -52q-4 -2 -10 0q-2 2 -16 15.5t-21.5 19.5t-21.5 13t-27 7
q-31 0 -42.5 -50.5t-10.5 -187.5q2 -313 4 -335q1 -37 28 -44q18 -4 31 -6q1 -1 0.5 -8.5t-3.5 -8.5q-16 0 -51.5 1.5t-67.5 1.5q-14 0 -50 -1.5t-46 -1.5q-3 2 -2.5 8.5t2.5 8.5q28 4 35 7q18 7 18 34q1 71 1 283q0 7 -4 7l-47 3q0 14 7 21q24 4 41 15q4 4 4 9q3 96 33 162
q-45 64 -97 64q-37 0 -56.5 -46t-18.5 -159q0 -290 3 -351q1 -22 6.5 -31t19.5 -13q6 -1 10.5 -2t10 -1.5t9.5 -1.5q1 -2 0.5 -9t-2.5 -8q-15 0 -46 1.5t-63 1.5q-14 0 -54.5 -1.5t-50.5 -1.5q-2 3 -2 9t2 8z" />
    <glyph glyph-name="longs_longs_i" unicode="&#x17f;&#x17f;i" horiz-adv-x="727" 
d="M14 14q29 4 38 9q18 6 18 34q0 32 0.5 131t0.5 150q0 7 -5 7l-47 3q0 13 8 21q29 6 41 15q4 3 4 7q4 73 30 130.5t93 101.5q57 36 111 36q56 0 98 -36q5 -3 8 0q69 57 138 57q42 0 73 -16.5t40 -41.5q6 -12 0 -23q-11 -28 -41 -44q-4 -2 -11.5 -1.5t-10.5 2.5
q-8 7 -36 42q-38 44 -74 44q-22 0 -38 -17q-19 -21 -26.5 -71t-6.5 -162q2 -311 3 -327q2 -24 6.5 -32.5t17.5 -12.5q23 -5 31 -6q0 -16 -3 -17q-16 0 -48.5 1.5t-64.5 1.5q-14 0 -50.5 -1.5t-46.5 -1.5q-2 2 -2 8.5t2 8.5q28 4 36 8q18 6 18 34q0 32 0.5 131t0.5 150
q0 8 -5 8l-47 3q0 13 8 21q22 4 41 15q4 3 4 8q2 97 32 162q-19 34 -47 50t-54 16q-40 0 -60.5 -42.5t-20.5 -164.5q0 -268 4 -350q1 -22 5.5 -30.5t18.5 -12.5q21 -5 34 -6q1 -2 0.5 -9t-2.5 -8q-3 0 -39.5 1.5t-71.5 1.5q-14 0 -54.5 -1.5t-50.5 -1.5q-4 9 0 17zM719 14
q0 -15 -4 -17q-10 0 -46.5 1.5t-58.5 1.5q-28 0 -62 -1.5t-41 -1.5q-1 1 -1 8.5t1 8.5q20 2 32 7q18 6 19 42q2 46 2 151q0 84 -2 99q0 2 -0.5 6t-1 7t-1.5 5q-7 10 -38 22q-1 1 -1 7t1 8q24 1 70 9.5t76 21.5q-2 -26 -2 -166q0 -129 1 -173q1 -20 5 -27.5t15 -11.5
q15 -4 37 -7z" />
    <glyph glyph-name="longs_longs_l" unicode="&#x17f;&#x17f;l" horiz-adv-x="727" 
d="M14 14q30 5 38 8q17 7 17 35q0 32 0.5 131t0.5 150q0 7 -4 7l-47 3q0 14 7 21q24 2 40 13q4 3 4 8q3 74 30.5 131.5t96.5 102.5q53 35 108 35q53 0 99 -36q2 -4 6 0q69 57 137 57q38 0 65 -17q4 -1 10 1q24 6 43 15q4 -4 4 -7q-8 -18 -8 -102v-220q0 -259 2 -284
q1 -23 5 -31t15 -13q11 -4 37 -8q2 -2 1 -8.5t-3 -8.5q-14 0 -48 1.5t-63 1.5q-20 0 -54.5 -1.5t-45.5 -1.5q-1 2 -1 8.5t1 8.5q25 4 35 9q16 7 17 42q2 84 2 268q0 226 -2 253q-2 19 -13 28q-24 28 -59 28q-22 0 -37 -18q-19 -21 -26.5 -70t-6.5 -160q1 -55 1.5 -134
t1 -128t1.5 -67q1 -23 6.5 -32t19.5 -13l30 -6q1 -2 0.5 -9.5t-3.5 -7.5q-16 0 -48.5 1.5t-64.5 1.5q-14 0 -50.5 -1.5t-46.5 -1.5q-3 2 -2.5 8.5t2.5 8.5q25 4 35 9q18 6 18 34q2 140 2 282q0 6 -5 6l-46 3q0 12 7 21q27 7 41 15q4 2 4 7q2 96 28 156q4 7 1 12
q-13 25 -41.5 43t-60.5 18q-39 0 -58 -44t-19 -162q0 -228 3 -351q1 -22 7 -30.5t20 -12.5q21 -5 34 -6q1 -2 0.5 -9t-2.5 -8q-3 0 -41 1.5t-72 1.5q-14 0 -54.5 -1.5t-50.5 -1.5q-5 7 0 17z" />
    <glyph glyph-name="t_t" unicode="tt" horiz-adv-x="539" 
d="M528 55q4 -8 0 -17q-38 -50 -104 -50t-89 44q-13 25 -13 116q0 27 0.5 98t0.5 90q0 10 -5 10h-146q-4 0 -4 -6q-1 -46 -1 -194q0 -46 5 -68q12 -36 47 -36q34 0 52 13q4 -8 0 -17q-38 -50 -105 -50q-65 0 -88 44q-13 25 -13 116q0 27 0.5 98t0.5 90q0 9 -5 11l-45 3
q0 12 5 20q17 3 41 13q4 2 4 7v82q24 8 53.5 25t38.5 27q6 1 14 0q-4 -30 -4 -129q0 -8 4 -8h147q4 2 4 7v91q24 8 53.5 24.5t38.5 26.5q4 1 14 1q-4 -30 -4 -142q0 -8 4 -8q67 0 101 4q-4 -20 -6 -46q-15 0 -47 0.5t-48 0.5q-4 0 -4 -6q-1 -46 -1 -194q0 -48 6 -68
q10 -36 47 -36q33 0 51 13z" />
    <glyph glyph-name="u0162_u0068" unicode="&#x162;h" horiz-adv-x="984" 
d="M156 14q32 3 59 9q18 3 25.5 18t9.5 54q3 59 3 469q0 8 -5 8q-12 1 -60 0.5t-63 -1.5q-30 -1 -50 -30q-21 -33 -37 -81q-3 -2 -10.5 -0.5t-8.5 5.5q14 80 16 153l17 -3q33 -11 72 -11h434q5 0 5 6l-1 46q0 2 2.5 5t4.5 3q24 1 45.5 5.5t33 8t12.5 3.5q6 0 6 -5
q0 -2 -0.5 -13.5t-1 -41.5t-0.5 -73v-202q0 -6 4 -2q75 55 131 55q58 0 88 -40.5t30 -116.5q0 -150 1 -194q0 -10 6 -16q12 -12 51 -18q1 -2 0 -9t-2 -8q-9 0 -45 1.5t-65 1.5q-35 0 -98 -3q-1 2 -1 8.5t1 8.5q26 5 32 8q10 5 13 13t4 32q5 177 -5 213q-6 26 -27 43t-52 17
q-33 0 -57 -15q-9 -6 -9 -16q0 -199 3 -243q1 -22 5.5 -31.5t17.5 -13.5q16 -4 29 -7q6 -6 0 -17q-5 0 -40 1.5t-66 1.5q-28 0 -61.5 -1.5t-40.5 -1.5q-5 7 0 17q20 3 32 7q18 6 19 48q3 50 3 182q0 293 -1 308q-2 11 -10 11q-20 1 -98.5 1.5t-86.5 -0.5q-5 -2 -5 -9
q0 -398 4 -483q1 -29 7.5 -40.5t23.5 -16.5q14 -4 52 -8q0 -15 -1 -17q-25 0 -69 1.5t-69 1.5q-30 0 -83 -1.5t-73 -1.5q-2 2 -2 8.5t2 8.5zM317 -34q15 0 30 -17.5t15 -46.5q0 -81 -111 -117q-1 0 -3.5 6t-2.5 8q37 17 51 33.5t14 38.5q0 35 -53 53q-1 1 -1 5t1 5
q6 9 26.5 20.5t33.5 11.5z" />
    <glyph glyph-name="Tcaron_h" unicode="&#x164;h" horiz-adv-x="984" 
d="M156 14q32 3 59 9q18 3 25.5 18t9.5 54q3 59 3 469q0 8 -5 8q-12 1 -60 0.5t-63 -1.5q-30 -1 -50 -30q-21 -33 -37 -81q-3 -2 -10.5 -0.5t-8.5 5.5q14 80 16 153l17 -3q33 -11 72 -11h434q5 0 5 6l-1 46q0 2 2.5 5t4.5 3q24 1 45.5 5.5t33 8t12.5 3.5q6 0 6 -5
q0 -2 -0.5 -13.5t-1 -41.5t-0.5 -73v-202q0 -6 4 -2q75 55 131 55q58 0 88 -40.5t30 -116.5q0 -150 1 -194q0 -10 6 -16q12 -12 51 -18q1 -2 0 -9t-2 -8q-9 0 -45 1.5t-65 1.5q-35 0 -98 -3q-1 2 -1 8.5t1 8.5q26 5 32 8q10 5 13 13t4 32q5 177 -5 213q-6 26 -27 43t-52 17
q-33 0 -57 -15q-9 -6 -9 -16q0 -199 3 -243q1 -22 5.5 -31.5t17.5 -13.5q16 -4 29 -7q6 -6 0 -17q-5 0 -40 1.5t-66 1.5q-28 0 -61.5 -1.5t-40.5 -1.5q-5 7 0 17q20 3 32 7q18 6 19 48q3 50 3 182q0 293 -1 308q-2 11 -10 11q-20 1 -98.5 1.5t-86.5 -0.5q-5 -2 -5 -9
q0 -398 4 -483q1 -29 7.5 -40.5t23.5 -16.5q14 -4 52 -8q0 -15 -1 -17q-25 0 -69 1.5t-69 1.5q-30 0 -83 -1.5t-73 -1.5q-2 2 -2 8.5t2 8.5zM318 644q-2 -3 -11 -3q-11 11 -61.5 53.5t-68.5 54.5q0 3 3 8.5t5 5.5q5 0 58 -22.5t67 -29.5q5 -3 9 0q13 8 62 30t53 22
q2 0 5 -5.5t2 -8.5q-111 -92 -123 -105z" />
    <glyph glyph-name="gamma_gamma" unicode="&#x3b3;&#x3b3;" horiz-adv-x="818" 
d="M5 276q-2 1 -3 9t1 11q26 47 69.5 74.5t74.5 27.5q63 0 91 -67.5t22 -231.5l4 -3q1 0 2 3q41 160 104 239q54 60 112 60q68 0 99 -64.5t26 -228.5q0 -2 3 -3t4 3q20 89 48 157t48 93q34 44 63 44q13 0 33 -14t24 -24q0 -2 -0.5 -7t-1.5 -7q-43 -2 -87.5 -56t-74.5 -122.5
t-43 -130.5q-7 -30 -7 -56q-2 -220 -4 -225q-1 -7 -15 -7q-15 0 -45.5 18t-30.5 34q0 15 45 179q7 24 7 55q-4 262 -119 262q-108 0 -175 -246q-10 -34 -10 -71q-11 -213 -17 -245q-1 -8 -15 -8q-16 0 -46 20t-30 35q0 12 10 45.5t26 81.5t21 66q7 21 7 61q1 48 -6 91.5
t-22 83t-45 63.5t-70 24q-42 0 -77 -23z" />
    <glyph glyph-name="u03BB_u03BB" unicode="&#x3bb;&#x3bb;" horiz-adv-x="751" 
d="M319 -13q-41 0 -63 45q-12 25 -27 79t-31 117.5t-19 74.5l-4 1q-51 -112 -79 -244q-9 -37 -6 -77q-2 -2 -3 -2q-25 0 -49.5 11t-24.5 21q1 32 39 107q16 34 56.5 120.5t52.5 112.5q4 11 2 22q-8 44 -24 88q-23 67 -48 91t-56 24q-32 0 -54 -11q-3 2 -5 7t0 8
q18 27 51.5 47t65.5 20q51 0 79 -45.5t71 -186.5q55 -196 80 -267q16 -43 26 -56.5t22 -14.5q15 0 30 31q54 100 102 256q3 9 1 22q-6 45 -27 99q-24 64 -53.5 89t-70.5 25t-72 -20q-10 5 -6 14q24 36 63.5 60t73.5 24q54 0 91 -51t75 -184q74 -257 87 -293q19 -52 35 -69
t36 -17q17 0 33 10q2 -1 3 -7t-1 -9q-19 -29 -51.5 -50t-65.5 -21q-31 0 -51 42q-13 26 -29.5 83t-32.5 121t-16 65l-3 1q-56 -147 -102 -229q-48 -84 -101 -84z" />
    <glyph glyph-name=".notdef" horiz-adv-x="495" 
d="M0 0v693h495v-693h-495zM248 391l168 253h-337zM277 347l169 -253v505zM79 50h337l-168 252zM50 599v-505l168 253z" />
    <glyph glyph-name=".null" horiz-adv-x="0" 
 />
    <glyph glyph-name="nonmarkingreturn" horiz-adv-x="333" 
 />
    <glyph glyph-name="space" unicode=" " horiz-adv-x="153" 
 />
    <glyph glyph-name="exclam" unicode="!" horiz-adv-x="268" 
d="M189 600q14 0 21 -10q0 -10 -8 -72t-21 -163.5t-21 -170.5q-2 -1 -10.5 0t-10.5 3q-6 53 -30.5 202t-26.5 168q-1 6 4 17t12 14q39 15 91 12zM153 110q24 0 39 -15q20 -19 20 -48q0 -25 -16 -42q-18 -18 -47 -18q-23 0 -39 16q-18 18 -18 46q0 22 19 44q19 17 42 17z" />
    <glyph glyph-name="quotedbl" unicode="&#x22;" horiz-adv-x="284" 
d="M114 620q0 -35 -7 -95t-12 -75q-9 -25 -25 -41q-6 -5 -10 -1q-2 175 -17 218q4 4 27.5 19t31.5 17q8 0 8 -3q4 -6 4 -39zM241 626q0 -42 -8 -97.5t-14 -70.5q-10 -30 -22 -42q-2 -2 -6 -2t-5 2q-2 165 -16 210q6 7 29.5 24t29.5 17q1 0 5 -1h3q4 -6 4 -40z" />
    <glyph glyph-name="numbersign" unicode="#" horiz-adv-x="400" 
d="M263 460l25 123q13 8 28 11q3 -2 3 -3l-28 -127q0 -4 3 -4q66 0 89 4q3 -8 -6 -25q-25 -35 -95 -35q-4 0 -4 -4l-21 -91q0 -4 4 -4q61 0 86 5q3 -10 -3 -22q-33 -43 -96 -43q-2 0 -4 -5l-26 -130q-2 -3 -6 -3q-2 0 -10 8t-9 10q1 5 12 54.5t14 65.5h-87q-4 0 -4 -4
l-30 -133q-1 -2 -6 -2q-4 1 -11.5 9t-8.5 10q3 17 14.5 63.5t13.5 56.5q-74 0 -84 3q-2 3 6.5 31.5t12.5 29.5q27 -4 78 -4l21 99q-69 0 -81 3q-2 3 7 29t13 27q40 -2 73 -2l24 113q0 1 12 6t15 5l3 -3l-25 -116q0 -5 3 -5zM251 404h-84q-4 0 -6 -4l-20 -90q0 -5 2 -5h86z
" />
    <glyph glyph-name="dollar" unicode="$" horiz-adv-x="471" 
d="M188 -79l7 76q0 5 -3 5q-45 2 -127 29q-7 11 -13.5 53.5t-7.5 68.5q1 3 7 5t10 1q20 -73 51.5 -101t82.5 -34q3 0 4 3l20 216q-1 6 -4 7q-77 47 -112 85t-35 96q0 75 49.5 117t132.5 43q5 0 5 4l6 68q2 2 12.5 4.5t13.5 1.5l-8 -74q0 -4 2 -4q29 -2 72 -8l53 -7
q-14 -63 -19 -113q-1 -3 -9 -3.5t-9 1.5q-2 58 -20 81t-70 28q-3 0 -3 -3l-20 -209q1 -4 5 -6t12 -7q39 -23 58.5 -35.5t44.5 -34.5t35.5 -47.5t10.5 -56.5q0 -73 -51.5 -117.5t-147.5 -50.5q-3 0 -3 -4l-7 -73zM243 231l-20 -205q0 -3 2 -3q38 1 68.5 25t31.5 69
q1 38 -16 64.5t-63 52.5q-1 1 -2 0t-1 -3zM152 477q0 -36 19 -60t57 -48q4 -2 5 2l19 197q0 3 -3 3q-97 -11 -97 -94z" />
    <glyph glyph-name="percent" unicode="%" horiz-adv-x="647" 
d="M131 40q74 113 210.5 322.5t153.5 235.5q9 6 32 9q3 -1 3 -5q-20 -25 -190 -287.5t-196 -299.5q-1 -1 -3 -1t-3 1q-8 14 -7 25zM499 352q50 0 79.5 -41t29.5 -98q0 -94 -51 -138q-43 -38 -97 -38q-52 0 -82.5 40.5t-30.5 100.5q0 83 46 131q47 43 106 43zM475 328
q-26 0 -38 -36t-12 -82q0 -75 19 -110.5t46 -35.5q54 0 54 117q0 65 -18 106t-51 41zM191 583q53 0 81.5 -40t28.5 -97q0 -94 -54 -138q-44 -39 -96 -39q-50 0 -81 39t-31 103q0 81 47 128q46 44 105 44zM169 560q-27 0 -39 -36.5t-12 -82.5q0 -74 19.5 -109.5t44.5 -35.5
q54 0 54 117q0 65 -17.5 106t-49.5 41z" />
    <glyph glyph-name="ampersand" unicode="&#x26;" horiz-adv-x="711" 
d="M272 578q-27 0 -45.5 -21t-18.5 -64q0 -71 76 -135q4 0 5 1q55 49 55 122q0 41 -19.5 69t-52.5 28zM200 297q-3 2 -5 0q-44 -46 -44 -100q0 -56 47.5 -98.5t110.5 -42.5q70 0 111 45q2 3 0 5q-145 116 -220 191zM289 599q58 0 96.5 -35t38.5 -84q0 -37 -27.5 -66
t-92.5 -69q-1 -1 -1.5 -2.5t0.5 -2.5q72 -68 183 -146q2 -2 5 0q39 61 58 122q9 30 -16 39q-14 6 -44 10q-3 1 -3 7t3 9q5 0 33 -1.5t52 -1.5q27 0 48.5 1t33 1.5t15.5 0.5q1 -2 1 -8t-2 -8q-7 -1 -36 -10q-25 -8 -40 -31q-15 -25 -43.5 -75t-40.5 -66q-2 -3 1 -6
q130 -88 156 -118q0 -17 -21.5 -51t-35.5 -48q-10 -2 -15 0q-6 14 -32 33q-83 66 -119 94h-6q-90 -102 -195 -102q-81 0 -135.5 49t-54.5 126q0 40 26 71t103 81q2 1 2.5 2.5t-1.5 2.5q-55 60 -55 131q0 63 46.5 107t114.5 44z" />
    <glyph glyph-name="quotesingle" unicode="'" horiz-adv-x="159" 
d="M116 622q0 -35 -7.5 -95.5t-13.5 -74.5q-10 -28 -27 -43q-2 -1 -5.5 -1.5t-4.5 0.5q1 59 -4 128t-11 90q5 5 29 19.5t33 15.5q1 1 4 0t4 -2q3 -6 3 -37z" />
    <glyph glyph-name="parenleft" unicode="(" horiz-adv-x="364" 
d="M73 269q0 164 68 290t177 199q2 -1 6 -6t3 -6q-89 -77 -134.5 -187t-45.5 -272q0 -325 170 -475q1 -2 -3.5 -7.5t-7.5 -6.5q-28 12 -65 49t-76 95t-65.5 145t-26.5 182z" />
    <glyph glyph-name="parenright" unicode=")" horiz-adv-x="363" 
d="M290 285q0 -164 -66.5 -288.5t-176.5 -198.5q-3 1 -7.5 6.5t-3.5 7.5q93 90 137.5 198t44.5 259q0 325 -172 476q-1 2 3.5 7.5t6.5 5.5q22 -10 50 -33.5t61 -66.5t60 -95.5t45 -126t18 -151.5z" />
    <glyph glyph-name="asterisk" unicode="*" horiz-adv-x="316" 
d="M187 530q53 17 114 45l2 -7q-16 -24 -20 -26q-30 -16 -88 -38q13 -14 47.5 -42.5t49.5 -34.5q0 -5 -5 -8q-21 -7 -39 0q-21 11 -46.5 30t-27.5 20q-23 -99 -23 -119h-5q-8 1 -16.5 15t-7.5 27q3 31 17 91l-118 -39q-4 0 -4 4q3 6 13 17t15 12q12 5 84 31q-9 7 -38 34.5
t-40 39.5q-6 6 0 10q21 15 34 15q15 -21 67 -68q18 85 22 98q2 4 17.5 7.5t20.5 3.5q6 0 4 -5q-5 -15 -16.5 -62.5t-12.5 -50.5z" />
    <glyph glyph-name="plus" unicode="+" horiz-adv-x="460" 
d="M424 234q-8 -33 -13 -34q-4 -1 -30 -1h-64.5t-61.5 -1q-6 0 -6 -7q-1 -29 -0.5 -63.5t0.5 -64.5t-1 -33q-1 -5 -37 -17l-7 1v35v67.5v81.5h-168v8q6 28 10 39q4 -1 98 -1h60v58q0 84 -2 108q30 10 43 10q4 0 4 -29v-139q0 -8 5 -8h170v-10z" />
    <glyph glyph-name="comma" unicode="," horiz-adv-x="186" 
d="M-2 -149l-1 2q-1 2 0 3q43 40 59.5 71.5t15.5 69.5q-1 28 -35 79q9 12 34 34.5t36 26.5q1 1 7.5 0.5t7.5 -1.5q20 -16 23 -69q2 -66 -42.5 -131.5t-90.5 -91.5q-2 -1 -7.5 2t-6.5 5z" />
    <glyph glyph-name="hyphen" unicode="-" horiz-adv-x="265" 
d="M45 226q110 5 187 5q1 -1 1.5 -4.5t-0.5 -5.5q-1 -9 -7 -26.5t-9 -18.5q-6 -1 -87 -3.5t-97 -1.5q-2 0 -2 8q6 47 14 47z" />
    <glyph glyph-name="period" unicode="." horiz-adv-x="186" 
d="M94 114q22 0 40 -16q19 -17 19 -48q0 -26 -17 -42q-18 -19 -46 -19q-22 0 -39 18q-18 15 -18 44q0 27 19 44q19 19 42 19z" />
    <glyph glyph-name="slash" unicode="/" horiz-adv-x="432" 
d="M388 685l2 -2q-9 -33 -144 -375t-171 -407q-2 -3 -12.5 -10.5t-16.5 -8.5q-6 0 -6 3q49 103 164 395t153 396q1 2 12.5 5.5t18.5 3.5z" />
    <glyph glyph-name="zero" unicode="0" horiz-adv-x="471" 
d="M247 597q85 0 130 -60q62 -77 62 -231q0 -211 -102 -283q-43 -35 -107 -35q-70 0 -112 35q-87 69 -87 270q0 170 85 251q54 53 131 53zM229 575q-23 0 -38 -17q-24 -23 -37 -88.5t-13 -151.5q0 -307 105 -307q23 0 40 17q43 49 43 257q0 136 -26 213t-74 77z" />
    <glyph glyph-name="one" unicode="1" horiz-adv-x="471" 
d="M372 14q2 -2 1 -9t-3 -9q-7 0 -55 2t-82 2q-43 0 -83 -2t-41 -2q-2 2 -2 9t2 9q8 1 21 2.5t22 3.5q19 5 24.5 19.5t7.5 45.5q1 26 3 210q0 160 -3 196q-2 34 -24 37q-17 4 -42 6q-1 3 -1 9.5t2 8.5q90 5 168 45q2 1 5.5 -0.5t3.5 -3.5q-2 -76 -2 -196q0 -242 3 -308
q1 -17 2 -26t4 -19.5t9 -15.5t15 -7q13 -3 45 -7z" />
    <glyph glyph-name="two" unicode="2" horiz-adv-x="471" 
d="M163 518q-65 0 -115 -62q-2 -1 -8 5t-5 8q33 56 84.5 92t104.5 36q64 0 109.5 -47.5t45.5 -128.5q0 -97 -113 -215q-13 -14 -109 -112q-1 -1 -0.5 -2.5t2.5 -1.5q31 -3 104 -5t104 0q12 1 21 5t23.5 22t28.5 50q2 1 9 -1.5t7 -4.5q-8 -35 -27 -86t-31 -64q-8 -8 -45 -9
q-39 -1 -126 1t-124 2q-16 0 -37.5 -1t-25.5 -1q-2 2 -2.5 8.5t0.5 8.5q60 52 94.5 87t72.5 86q69 95 69 193q0 59 -27.5 98t-83.5 39z" />
    <glyph glyph-name="three" unicode="3" horiz-adv-x="471" 
d="M235 597q59 0 98 -37.5t39 -96.5q0 -67 -94 -127q-2 -2 0 -5q143 -43 143 -160q0 -48 -25 -92.5t-67 -72.5q-68 -49 -158 -49q-53 0 -84 16q-25 13 -34 38q-13 35 -13 72q1 2 7.5 4.5t8.5 1.5q21 -59 65 -86q30 -20 87 -20q43 0 76 33.5t33 96.5q0 67 -36 109.5
t-101 42.5q-16 0 -34 -3q-1 4 6 19t11 18q63 17 91 44.5t28 70.5q0 45 -26 78.5t-76 33.5q-57 0 -111 -54q-3 -1 -7.5 5t-3.5 9q82 111 177 111z" />
    <glyph glyph-name="four" unicode="4" horiz-adv-x="471" 
d="M449 169q-56 2 -91 2q-3 0 -3 -5q0 -31 0.5 -93t0.5 -92q-58 0 -110 -13l2 198q0 5 -4 5l-128 1q-70 0 -101 -1q0 11 5 26q36 52 148.5 211.5t124.5 176.5q4 2 29.5 6.5t29.5 3.5q1 -87 1 -368q0 -5 4 -5q72 0 101 2q-6 -24 -9 -55zM75 221q18 -2 86 -2h83q4 0 4 5l3 255
q0 1 -1 1.5t-2 -0.5q-17 -22 -84 -119.5t-90 -134.5q-2 -5 1 -5z" />
    <glyph glyph-name="five" unicode="5" horiz-adv-x="471" 
d="M366 601q3 0 7 -2.5t4 -5.5q-3 -13 -16 -40t-28 -44q-18 -18 -42 -18q-37 0 -75.5 3t-40.5 3q-7 0 -9 -6q-12 -25 -27 -68q0 -7 5 -10q151 -73 178 -91q49 -29 73.5 -63.5t24.5 -88.5q0 -91 -77 -152t-169 -61q-73 0 -117 42q-17 17 -17 34q0 16 22 52q4 4 10 4
q64 -96 160 -96q44 0 71 29.5t27 74.5q0 82 -81 136q-31 22 -94 54.5t-69 36.5q-3 18 -1 25q14 47 46 124t46 99q13 18 23 18q93 -5 111 -5q24 0 34 2.5t21 13.5z" />
    <glyph glyph-name="six" unicode="6" horiz-adv-x="471" 
d="M440 631q-117 -53 -184.5 -132.5t-89.5 -159.5q0 -5 3 -5q78 43 126 43q59 0 102 -45.5t43 -125.5q0 -64 -30.5 -116.5t-85.5 -80.5q-40 -22 -95 -22q-99 0 -147 62.5t-48 156.5q0 144 113 268.5t286 172.5q2 0 5.5 -7t1.5 -9zM217 325q-28 0 -48 -12q-13 -7 -14 -20
q-9 -28 -9 -77q0 -103 30.5 -153.5t79.5 -50.5q36 0 58 38t22 104q0 79 -34 125t-85 46z" />
    <glyph glyph-name="seven" unicode="7" horiz-adv-x="471" 
d="M445 586q1 -1 2 -5.5t0 -5.5q-22 -60 -149 -330.5t-128 -273.5q-3 -4 -6 -4q-12 3 -21 12q-1 2 -1.5 6.5t0.5 5.5q181 355 235 488q0 7 -1 7q-167 6 -266 -2q-21 -2 -33 -13.5t-33 -51.5q-2 -2 -9 1t-8 6q33 100 42 166q27 -7 73 -7h206q81 0 97 1z" />
    <glyph glyph-name="eight" unicode="8" horiz-adv-x="471" 
d="M247 597q68 0 111.5 -39.5t43.5 -103.5t-100 -127q-2 -2 0 -4q66 -45 94.5 -79.5t28.5 -84.5q0 -68 -55.5 -119t-143.5 -51q-91 0 -135.5 45t-44.5 103q0 34 27 66.5t96 74.5q3 3 0 4q-101 71 -101 153q0 76 56 118q51 44 123 44zM231 576q-36 0 -58 -26t-22 -63
q0 -43 27 -73.5t103 -76.5q2 -2 5 1q45 44 45 110q0 54 -27.5 91t-72.5 37zM249 11q37 0 61.5 23t24.5 64q0 46 -31 82.5t-113 86.5q-5 2 -7 0q-57 -55 -57 -116q0 -54 35 -97t87 -43z" />
    <glyph glyph-name="nine" unicode="9" horiz-adv-x="471" 
d="M63 -55q-2 0 -5 8t-2 10q200 89 258 296q1 2 -0.5 3.5t-2.5 -0.5q-29 -20 -70 -35t-66 -15q-61 0 -103 50.5t-42 124.5q0 120 104 180q50 30 111 30q91 0 142 -66.5t51 -167.5q0 -141 -103.5 -256.5t-271.5 -161.5zM216 573q-36 0 -61 -35.5t-25 -99.5q0 -85 38 -128
t91 -43q29 0 48 13q10 5 13 18q7 33 7 76q0 87 -29.5 143t-81.5 56z" />
    <glyph glyph-name="colon" unicode=":" horiz-adv-x="251" 
d="M126 108q22 0 39 -15q18 -16 18 -46q0 -24 -16 -40q-17 -18 -45 -18q-21 0 -37 17q-17 16 -17 43q0 24 18 42q19 17 40 17zM126 348q22 0 39 -15q18 -17 18 -47q0 -24 -16 -39q-15 -18 -45 -18q-23 0 -37 17q-17 14 -17 42q0 23 18 43q19 17 40 17z" />
    <glyph glyph-name="semicolon" unicode=";" horiz-adv-x="251" 
d="M129 348q23 0 38 -15q19 -17 19 -47q0 -24 -16 -39q-15 -18 -45 -18q-21 0 -37 16q-17 16 -17 43q0 23 18 43q17 17 40 17zM28 -149v5q43 41 60.5 72t16.5 69q-1 28 -35 79q9 12 34 34.5t36 26.5q1 1 7.5 0.5t7.5 -1.5q20 -18 23 -69q2 -63 -43.5 -130.5t-91.5 -92.5
q-2 -1 -7.5 2t-7.5 5z" />
    <glyph glyph-name="less" unicode="&#x3c;" horiz-adv-x="460" 
d="M389 361q-20 -18 -254 -138q-2 -1 -2 -5q7 -4 74.5 -37.5t128 -65.5t69.5 -41q2 -2 -5 -18t-11 -21q-1 -3 -6 -3q-26 20 -149.5 84t-181.5 87q0 3 5 16.5t7 14.5q62 29 188.5 95.5t145.5 82.5q1 0 4 -3q0 -9 -4.5 -26.5t-8.5 -21.5z" />
    <glyph glyph-name="equal" unicode="=" horiz-adv-x="460" 
d="M412 276l-372 -2q-6 3 -3 8q0 5 4 20.5t6 19.5q5 -2 97 -2h279q3 -2 3 -7q-6 -35 -14 -37zM411 123l-372 -2q-3 1 -3 8q2 14 11 40q5 -2 97 -2h279q2 -1 2 -7q-7 -36 -14 -37z" />
    <glyph glyph-name="greater" unicode="&#x3e;" horiz-adv-x="460" 
d="M70 82q22 21 254 139q2 1 2 5q-7 4 -74.5 37.5t-128 65.5t-69.5 41q-2 2 5 18t11 21q2 3 6 3q27 -21 150 -85t181 -87q0 -3 -5 -16t-7 -14q-62 -29 -188.5 -95.5t-145.5 -82.5q-3 0 -4 3q0 9 4.5 26.5t8.5 20.5z" />
    <glyph glyph-name="question" unicode="?" horiz-adv-x="336" 
d="M167 290q0 -8 9.5 -26t24.5 -32q4 -4 -3 -14q-4 -5 -23 -16.5t-27 -13.5q-15 -5 -26 1q-19 9 -30.5 27t-11.5 34q0 26 11 33q6 4 50 33.5t57 39.5q25 19 25 44q0 33 -31.5 63t-85.5 46q-3 1 -27 7q-15 3 -15 14q0 10 12.5 31.5t21.5 29.5q10 12 26 12q53 0 105 -39
q68 -50 68 -116q0 -41 -18 -61q-14 -16 -98 -75q-14 -10 -14 -22zM162 110q25 0 41 -16q19 -18 19 -47q0 -25 -16 -42q-18 -18 -48 -18q-22 0 -39 16q-17 18 -17 46q0 25 17 43q20 18 43 18z" />
    <glyph glyph-name="at" unicode="@" horiz-adv-x="748" 
d="M519 42q17 0 38.5 11t45.5 33.5t40 66.5t16 101q0 91 -38 155.5t-92.5 92.5t-117.5 28q-36 0 -74 -10t-81.5 -38t-77 -71t-55.5 -115.5t-22 -165.5q0 -73 15.5 -130t40.5 -90t48 -50.5t44 -23.5q20 -6 44 -6q5 -3 1 -9q-14 -9 -42 -9q-13 0 -35.5 9t-53 32.5t-57 57
t-45 89t-18.5 122.5q0 169 113 302q57 67 133.5 103t154.5 36q117 0 189 -81.5t72 -188.5q0 -74 -28 -135t-70.5 -96.5t-85.5 -54.5t-79 -19q-48 0 -36 84l8 52q1 2 -1 2.5t-3 -1.5q-37 -53 -86 -94.5t-81 -41.5q-47 0 -47 90q0 55 22.5 115.5t63.5 104.5q26 30 83 60
t105 30q50 0 85 -12q-11 -24 -20 -60q-38 -166 -40 -240q-2 -35 24 -35zM315 69q46 0 97 97q15 30 26 76q3 11 12 51.5t11 47.5q-14 11 -46 11q-65 0 -99 -85q-29 -68 -29 -136q0 -62 28 -62z" />
    <glyph glyph-name="A" unicode="A" horiz-adv-x="564" 
d="M-34 14q51 7 68.5 19.5t36.5 58.5q36 87 94 245.5t79 222.5q9 30 12 46q18 -2 38 -2q21 0 37 2q1 -7 5.5 -23.5t6.5 -23.5q7 -21 42.5 -128t67 -199.5t44.5 -129.5q21 -55 36 -68t64 -20q1 -1 0 -8.5t-2 -8.5q-9 0 -53 1.5t-73 1.5q-37 0 -133 -3q-4 11 0 17q46 10 48 11
q15 7 10 24q-19 63 -61 179q0 2 -2.5 4.5t-4.5 2.5q-10 1 -72 1q-73 0 -85 -1q-7 0 -9 -8q-55 -150 -55 -169q0 -7 0.5 -10.5t2.5 -9.5t8.5 -9.5t16.5 -5.5q39 -8 45 -9q1 -2 0.5 -9t-2.5 -8q-13 0 -51.5 1.5t-62.5 1.5q-21 0 -52 -1.5t-44 -1.5q-2 1 -2 8t2 9zM252 488h-4
q-11 -31 -37 -111t-32 -98q-1 -3 1 -5v-1q10 -1 65 -1q61 0 71 1q3 0 3 5q-38 126 -67 210z" />
    <glyph glyph-name="B" unicode="B" horiz-adv-x="565" 
d="M24 590q-1 2 -1 8.5t2 8.5q15 0 55 -1.5t68 -1.5q37 0 90.5 1t71.5 1q29 0 55.5 -5t55.5 -18.5t46.5 -42.5t17.5 -71q0 -43 -28.5 -78t-85.5 -51q-4 -2 0 -4q74 -12 115.5 -50.5t41.5 -101.5q0 -113 -113 -164q-61 -27 -156 -27q-14 0 -109.5 2.5t-133.5 1.5q-1 2 -1 9
t2 8q45 6 55 9q22 6 26 47q3 41 3 232q0 205 -2 237q-2 34 -24 42q-19 7 -51 9zM242 580q-16 0 -22 -4q-7 -4 -7 -15q-3 -60 -3 -215q0 -5 4 -5q18 -2 52 -2q47 0 67 12q44 26 44 93q0 63 -34 99.5t-101 36.5zM294 16q112 0 112 148q0 70 -41 110t-114 40q-31 0 -36 -1
q-5 0 -5 -4q0 -187 3 -238q0 -16 13 -29t34 -19.5t34 -6.5z" />
    <glyph glyph-name="C" unicode="C" horiz-adv-x="639" 
d="M560 452q-6 50 -17 77.5t-38 42.5q-46 26 -125 26q-95 0 -151 -71.5t-56 -207.5q0 -135 62.5 -219.5t179.5 -84.5q75 0 115 38q37 36 66 95q3 0 9 -3t7 -6q-9 -34 -32 -78.5t-40 -56.5q-70 -22 -149 -22q-165 0 -254.5 83.5t-89.5 242.5q0 85 39.5 157t116.5 113
q83 44 206 44q37 0 111.5 -8.5t78.5 -8.5q-17 -66 -19 -152q-1 -2 -6 -3t-9.5 0t-4.5 2z" />
    <glyph glyph-name="D" unicode="D" horiz-adv-x="688" 
d="M19 590q-1 2 -0.5 9t2.5 8q63 -3 129 -3q32 0 90.5 2t98.5 2q129 0 206 -64q96 -81 96 -229q0 -152 -103 -241q-95 -81 -256 -81q-33 0 -106 2t-118 2h-45q-1 1 -1 8.5t1 8.5q42 4 58 9q23 7 27 46q4 48 4 263q0 149 -4 205q-2 21 -6.5 29t-18.5 14q-17 6 -54 10zM215 79
q0 -19 15 -33q31 -26 101 -26q76 0 121 55q67 81 67 225q0 77 -27 143.5t-79 102.5q-55 37 -149 37q-31 0 -43 -6q-6 -3 -8 -17q-2 -41 -2 -257q0 -183 4 -224z" />
    <glyph glyph-name="E" unicode="E" horiz-adv-x="520" 
d="M25 591q-1 2 -1 8t2 8q10 0 55.5 -1.5t73.5 -1.5h186q87 0 114 4q2 0 2 -3q-11 -44 -17 -139q-2 -2 -8.5 -2t-8.5 1q-5 49 -19 76q-12 27 -42 30q-17 2 -71.5 2t-68.5 -2q-10 -2 -10 -15q-1 -57 -1 -223q0 -8 4 -8q131 0 146 1q19 1 28 11t15 30q1 2 8 31q2 2 9 2t8 -2
q0 -3 -2.5 -36.5t-2.5 -54.5q0 -15 1 -46t1 -44q-2 -2 -8.5 -2t-8.5 1q-5 25 -8 36q-11 33 -40 35q-15 1 -69.5 2t-75.5 0q-5 0 -5 -8q0 -153 1 -212q0 -29 21 -33q30 -6 112 -6q30 0 48 3t25 7t17 14q25 25 56 98q2 1 8 -1.5t7 -4.5q-2 -17 -15.5 -67t-22.5 -70
q-5 -8 -14.5 -10.5t-42.5 -2.5q-37 0 -119.5 2t-135.5 2q-30 0 -80 -1.5t-73 -1.5q-1 2 -1 8.5t1 8.5q52 6 65 9q16 5 22.5 17t7.5 39q3 43 3 256q0 171 -3 200q-2 25 -6.5 33.5t-21.5 14.5q-22 5 -45 8z" />
    <glyph glyph-name="F" unicode="F" horiz-adv-x="496" 
d="M23 591q-1 1 -1 8t1 8q1 0 44 -1.5t85 -1.5h215q72 0 95 7q6 0 4 -6q-11 -41 -15 -143q-1 -2 -9 -2t-9 2q-6 54 -22 83q-12 23 -41 25q-23 2 -77 2t-69 -2q-11 -2 -11 -15q-2 -45 -2 -234q0 -4 5 -4q107 0 138 2q40 1 51 26q11 31 14 48q2 1 9 1t8 -1q-5 -55 -5 -98
q0 -13 1 -45t1 -44q-1 -2 -8 -2.5t-9 0.5q-3 25 -11 45q-10 27 -36 29q-20 1 -77.5 2t-75.5 0q-5 0 -5 -5q0 -79 2 -191q0 -35 7.5 -47t27.5 -16q22 -5 49 -7q1 -1 0.5 -8.5t-2.5 -8.5q-21 0 -62.5 1.5t-69.5 1.5q-26 0 -69.5 -1.5t-67.5 -1.5q-1 1 -1.5 8.5t0.5 8.5
q8 1 21.5 2.5t21.5 3.5q18 4 23.5 15.5t6.5 37.5q3 41 3 237q0 185 -2 220q-1 28 -6.5 37.5t-22.5 14.5z" />
    <glyph glyph-name="G" unicode="G" horiz-adv-x="670" 
d="M615 35q1 -1 0 -7.5t-2 -7.5q-124 -38 -221 -38q-344 0 -344 324q0 97 46 170.5t128 109.5q85 36 195 36q47 0 116.5 -11t74.5 -11q-17 -64 -17 -152q-1 -3 -10 -3.5t-11 1.5q-8 90 -43 114q-50 37 -140 37q-95 0 -154 -68.5t-59 -209.5q0 -142 63.5 -227.5t170.5 -85.5
q36 0 52 7q20 9 23 37q7 66 2 122q-2 32 -9.5 42.5t-29.5 14.5q-19 4 -49 6q-2 2 -2 9.5t2 8.5q17 1 67.5 -1t76.5 -2q45 0 105 3q2 -1 1.5 -8.5t-2.5 -8.5q-14 -3 -25 -7q-16 -5 -21 -16.5t-5 -53.5q-2 -78 1 -100q1 -11 4.5 -15t15.5 -9z" />
    <glyph glyph-name="H" unicode="H" horiz-adv-x="712" 
d="M24 590q-1 3 -1 9t1 8q9 0 55.5 -1.5t77.5 -1.5q36 0 75 1.5t50 1.5q2 -3 1 -9.5t-3 -7.5q-33 -6 -38 -7q-16 -5 -21.5 -15t-6.5 -37q-1 -25 -1 -191q0 -5 4 -7q14 -2 153 -2q111 0 126 1q1 0 3 2.5t2 3.5q0 165 -3 211q-2 27 -23 33q-17 4 -45 8q-2 2 -2 8.5t2 8.5
q8 0 52 -1.5t81 -1.5q38 0 77.5 1.5t42.5 1.5q2 -2 2 -8.5t-2 -8.5q-33 -6 -41 -8q-15 -4 -21 -13t-7 -32q-3 -57 -3 -261q0 -161 2 -200q2 -27 6 -37.5t17 -14.5q10 -4 55 -10q1 -2 0.5 -8.5t-2.5 -8.5q-15 0 -57 1.5t-69 1.5q-25 0 -75 -1.5t-59 -1.5q-2 2 -2 8.5t2 8.5
q17 2 41 7q16 3 22.5 15t7.5 42q1 39 1 207q0 7 -6 7q-19 1 -129 1q-143 0 -149 -2q-4 -2 -4 -6q0 -159 1 -203q2 -30 6.5 -42.5t21.5 -16.5q24 -6 48 -9q2 -2 0.5 -9t-3.5 -8q-6 0 -49.5 1.5t-80.5 1.5q-34 0 -79.5 -1.5t-53.5 -1.5q-2 1 -2 8t2 9q23 2 42 7q20 4 26.5 18
t8.5 54q1 21 1 201q0 217 -2 242q-1 23 -7 32.5t-20 13.5q-8 2 -49 8z" />
    <glyph glyph-name="I" unicode="I" horiz-adv-x="313" 
d="M26 590q-2 2 -2 8.5t2 8.5q13 0 56 -1.5t76 -1.5q43 0 82 1.5t41 1.5q2 -2 2 -8.5t-1 -8.5q-30 -3 -44 -8q-15 -6 -19 -16t-6 -41q-2 -32 -2 -215q0 -200 2 -235q1 -15 2 -23t8.5 -17.5t20.5 -12.5q14 -4 46 -8q2 -2 1.5 -9t-2.5 -8q-5 0 -50 1.5t-74 1.5
q-43 0 -82.5 -1.5t-56.5 -1.5q-2 1 -2 8t2 9q29 3 43 7q17 4 22.5 14.5t7.5 38.5q3 60 3 253q0 164 -3 210q-3 37 -25 44q-14 5 -48 9z" />
    <glyph glyph-name="J" unicode="J" horiz-adv-x="302" 
d="M26 590q-2 2 -2 8.5t2 8.5q11 0 55 -1.5t84 -1.5q27 0 67 1.5t53 1.5q4 -11 0 -17q-31 -3 -43 -10q-20 -10 -20 -52q0 -20 -1.5 -188.5t-4.5 -228.5q-3 -103 -41 -174q-39 -70 -90.5 -109t-103.5 -39q-46 0 -59 24v15q4 31 22 65q65 -48 105 -48q22 0 36 15q21 25 22 128
q2 105 1 295.5t-3 243.5q0 2 -0.5 7t-0.5 7t-0.5 6.5t-1.5 6.5t-2 5.5t-2 5.5t-3 5t-4.5 4.5t-6 3.5t-7.5 3q-16 6 -51 9z" />
    <glyph glyph-name="K" unicode="K" horiz-adv-x="622" 
d="M209 310q0 -168 2 -234q1 -29 7.5 -40.5t24.5 -15.5q4 -1 44 -7q2 -2 0.5 -9t-3.5 -8q-116 4 -129 4q-25 -1 -75 -2.5t-56 -1.5q-2 2 -2 8t2 8q31 4 44 7q17 4 23.5 18t8.5 45q2 116 1 238q-1 38 -1 113v96q-3 46 -27 53q-18 6 -44 8q-2 2 -2 9t2 8q7 0 50 -1.5t79 -1.5
q26 0 67.5 1.5t51.5 1.5q1 -1 1 -8t-1 -9q-30 -4 -40 -7q-15 -4 -20 -17.5t-6 -41.5q-1 -24 -1.5 -106.5t-0.5 -107.5zM372 590q-2 2 -2 9t2 8q20 0 51.5 -1.5t50.5 -1.5l118 3q2 -1 2 -8t-2 -9q-33 -6 -45 -9t-31.5 -16.5t-43.5 -41.5q-108 -124 -156 -176v-3
q25 -46 109 -147.5t133 -147.5q20 -18 41 -26q18 -7 53 -9q2 -1 1 -8.5t-3 -8.5q-35 -5 -98 -2.5t-82 9.5q-25 9 -58 42q-73 78 -182 232q-6 9 -14 14q0 10 3 10q34 18 85.5 69.5t101.5 117.5q38 54 38 72q0 13 -18 18q-20 7 -54 11z" />
    <glyph glyph-name="L" unicode="L" horiz-adv-x="516" 
d="M25 590q-1 2 -1 9t2 8q8 0 45.5 -1.5t80.5 -1.5q52 0 127 3q2 -2 2 -8.5t-2 -8.5q-30 -4 -41 -8q-15 -5 -19.5 -14.5t-5.5 -31.5q0 -9 -0.5 -40t-1 -83t-0.5 -87q-2 -191 2 -258q2 -27 18 -30q41 -11 139 -6q30 0 55 26q39 39 70 115q2 2 9 0.5t8 -4.5q-5 -28 -22 -85
t-29 -76q-7 -12 -61 -12q-34 0 -124.5 2t-122.5 2q-26 0 -70.5 -1.5t-64.5 -1.5q-2 1 -2 8t2 9q46 7 51 8q14 4 20.5 13.5t7.5 31.5q5 60 5 268q0 165 -2 198q-1 16 -2.5 24t-8 15t-20.5 11q-12 3 -44 7z" />
    <glyph glyph-name="M" unicode="M" horiz-adv-x="788" 
d="M24 590q-1 3 -0.5 9t2.5 8q171 -3 197 -3q3 -30 17 -58q134 -303 164 -362q2 -2 5 0q17 33 79.5 167t88.5 194q19 44 19 59q41 0 97.5 1.5t84.5 1.5q6 -4 0 -17q-34 -4 -54 -10q-19 -6 -24.5 -17t-6.5 -33q-1 -48 3 -222.5t8 -227.5q2 -27 8.5 -40.5t26.5 -17.5
q28 -6 48 -8q2 -1 1 -7.5t-3 -9.5q-5 0 -48.5 1.5t-92.5 1.5q-30 0 -72.5 -1.5t-52.5 -1.5q-2 2 -2 9t2 8q32 4 47 10q22 7 22 48q1 59 0.5 206t-2.5 209q-3 0 -4 -1q-5 -10 -44 -97t-67 -149t-59.5 -136t-41.5 -105q-4 -1 -15 -1.5t-13 0.5q-10 37 -37 106.5t-82 201
t-79 191.5l-3 -2q-5 -47 -13 -200.5t-8 -203.5q0 -33 7.5 -47t27.5 -20q19 -5 55 -10q2 -2 1.5 -8.5t-2.5 -8.5q-16 0 -49.5 1.5t-57.5 1.5q-22 0 -60.5 -1.5t-52.5 -1.5q-1 2 -1 8.5t1 8.5q4 1 18.5 3t22.5 4q22 5 31.5 19t15.5 55q7 51 20 207.5t16 225.5q2 38 -26 49
q-14 5 -63 13z" />
    <glyph glyph-name="N" unicode="N" horiz-adv-x="668" 
d="M7 590q-1 1 0 8.5t2 8.5q16 1 61.5 -1t64.5 -2q36 0 52 2q5 -14 35 -52q197 -253 328 -415q1 0 1 1h1q3 333 -4 385q-3 26 -11.5 37.5t-29.5 18.5q-27 7 -57 9q-1 2 -1 8.5t2 8.5q12 0 53.5 -1.5t67.5 -1.5q20 0 56 1.5t40 1.5q2 -2 2 -8.5t-2 -8.5q-35 -7 -39 -8
q-20 -6 -27 -19.5t-9 -38.5q-6 -84 -8 -395q0 -23 0.5 -71t0.5 -62q-10 1 -36 0.5t-40 -1.5q-19 28 -100.5 136t-169.5 223t-100 130q-1 1 -2.5 1t-1.5 -2q-1 -80 -1 -221.5t2 -177.5q2 -31 12 -44t31 -18q7 -2 53 -8q2 -1 1.5 -8.5t-2.5 -8.5q-7 0 -46 1.5t-66 1.5
q-34 0 -70 -1.5t-41 -1.5q-1 2 -1 8.5t1 8.5q43 6 49 8q17 5 25 17.5t11 42.5q8 79 10 429q0 18 -9 36t-24 26q-26 14 -64 17z" />
    <glyph glyph-name="O" unicode="O" horiz-adv-x="728" 
d="M360 -18q-145 0 -229 92q-84 91 -84 231q0 109 56 188q43 60 113 94.5t154 34.5q147 0 229 -88.5t82 -221.5q0 -121 -59 -202q-43 -63 -112 -95.5t-150 -32.5zM394 10q56 0 94 38q71 68 71 231q0 81 -25 156.5t-74 117.5q-48 42 -115 42q-51 0 -86 -27q-88 -63 -88 -234
q0 -83 26.5 -161.5t80.5 -122.5q50 -40 116 -40z" />
    <glyph glyph-name="P" unicode="P" horiz-adv-x="534" 
d="M255 248q-5 2 -11 15q-2 5 3 7q9 -3 31 -3q36 0 62 15q51 35 50 133q-1 74 -36.5 120t-103.5 46q-22 0 -30 -4q-6 -3 -6 -13q-3 -36 -3 -237q0 -207 2 -249q2 -29 8 -40.5t23 -15.5q25 -5 54 -8q2 -1 1.5 -8.5t-2.5 -8.5q-8 0 -58 1.5t-77 1.5q-26 0 -73 -1.5t-66 -1.5
q-2 1 -2 8t2 9l46 7q17 4 22.5 14.5t6.5 38.5q3 52 3 245q0 172 -2 209q-1 18 -3 27.5t-8.5 17.5t-17.5 10q-19 4 -45 7q-1 2 -0.5 9t1.5 8q5 0 50 -2t73 -1q122 2 164 2q82 0 127 -32q64 -45 65 -136q0 -57 -25 -98.5t-63 -63.5q-54 -32 -119 -32q-27 0 -43 4z" />
    <glyph glyph-name="Q" unicode="Q" horiz-adv-x="728" 
d="M899 -99q-40 -42 -96 -63t-113 -21q-55 0 -117 32q-31 17 -87.5 54.5t-80.5 51.5q-39 23 -78 29q-93 11 -157 55q-64 45 -93 116t-29 148q0 113 53 188q93 131 276 131q141 0 222.5 -90t81.5 -219q0 -144 -82 -231q-48 -51 -127 -82q32 -9 117 -46q135 -59 197 -59
q66 0 107 24q2 -1 4.5 -8t1.5 -10zM344 595q-86 0 -129.5 -74t-43.5 -189q0 -84 23 -155.5t76.5 -120.5t129.5 -49q72 0 115.5 77.5t43.5 196.5q0 80 -21.5 148.5t-71.5 117t-122 48.5z" />
    <glyph glyph-name="R" unicode="R" horiz-adv-x="586" 
d="M25 590q-1 2 -1 9t2 8q11 0 56 -1.5t62 -1.5q23 0 78 1t94 1q85 0 129.5 -39t44.5 -108q0 -56 -32.5 -94.5t-83.5 -58.5q-1 -1 -1.5 -3t0.5 -3q29 -51 81 -129.5t86 -111.5q30 -28 44 -35t49 -10q3 -8 -3 -17q-38 -5 -92.5 -1.5t-81.5 14.5q-28 13 -46 38q-17 19 -42 58
t-54 88t-39 65q-11 21 -27 21q-4 0 -18 -0.5t-17 -0.5q-4 0 -4 -6q0 -100 2 -198q1 -30 7 -39.5t23 -13.5q3 -1 47 -8q2 -2 1.5 -8t-2.5 -9q-6 0 -50.5 1.5t-81.5 1.5q-35 0 -63.5 -1t-44 -1.5t-19.5 -0.5q-2 1 -2 8t2 8q34 5 41 7q16 4 22 15.5t7 39.5q3 44 3 244
q0 167 -2 215q-1 43 -30 50q-31 5 -44 6zM243 581q-15 0 -25 -4q-6 -3 -6 -14q-3 -27 -3 -250q0 -1 2 -3t3 -2q80 -8 115 9q51 24 51 113q0 67 -35.5 109t-101.5 42z" />
    <glyph glyph-name="S" unicode="S" horiz-adv-x="451" 
d="M48 159q25 -92 77 -128q36 -25 95 -25q42 0 68 26t26 71q0 44 -25 75.5t-88 72.5q-79 51 -113.5 94t-34.5 105q0 80 57 126t142 46q38 0 86 -7t59 -8q-13 -83 -17 -135q-1 -2 -8.5 -3t-8.5 1q-5 48 -14.5 72t-29.5 37q-30 21 -77 21q-45 0 -72 -28t-27 -70q0 -62 62 -109
q17 -13 34.5 -24.5t39 -24.5t34.5 -22q50 -34 76 -70.5t26 -85.5q0 -82 -59.5 -133t-162.5 -51q-41 0 -82.5 9.5t-56.5 19.5q-11 18 -24 144q2 3 9 4.5t9 -0.5z" />
    <glyph glyph-name="T" unicode="T" horiz-adv-x="608" 
d="M437 13q2 -1 1 -8.5t-3 -8.5q-15 0 -60 1.5t-72 1.5q-49 0 -99 -1.5t-58 -1.5q-2 3 -2 9.5t2 7.5q47 4 62 9q18 4 25 17.5t8 50.5q3 58 3 476q0 7 -5 7q-12 1 -57.5 0.5t-60.5 -1.5q-29 -3 -47 -30q-20 -34 -38 -86q-1 -2 -9 -0.5t-9 4.5q15 73 17 154q0 1 2.5 2.5
t3.5 0.5q35 -13 83 -13h362q55 0 95 13q4 0 4 -5q-11 -34 -21 -157q-1 -1 -9 -1t-9 1q-8 58 -19 84q-7 16 -16 22.5t-26 8.5q-20 1 -69 1.5t-57 -0.5q-5 -2 -5 -8q0 -357 4 -485q1 -30 8 -41t23 -16q16 -4 48 -8z" />
    <glyph glyph-name="U" unicode="U" horiz-adv-x="661" 
d="M14 590q-1 2 -1 8.5t2 8.5q3 0 46.5 -1.5t81.5 -1.5q40 0 82.5 1.5t48.5 1.5q2 -1 2 -8t-2 -9q-10 -1 -39 -6q-29 -7 -32 -53q-4 -89 0 -283q1 -79 19 -122q33 -98 160 -98q146 0 160 167q12 123 3 318q-1 37 -11 51t-34 19q-29 6 -42 7q-2 2 -2 8.5t2 8.5q8 0 42 -1.5
t62 -1.5t59.5 1.5t39.5 1.5q2 -2 2 -8.5t-2 -8.5q-34 -7 -36 -8q-20 -5 -27 -19t-8 -52q-7 -256 -10 -290q-16 -239 -243 -239q-217 0 -241 176q-5 30 -6.5 94.5t-1 133t-0.5 145.5q-2 44 -31 52z" />
    <glyph glyph-name="V" unicode="V" horiz-adv-x="586" 
d="M-29 590q-1 4 -0.5 10t2.5 7q11 0 60 -1.5t75 -1.5q34 0 78 1.5t49 1.5q2 -1 1.5 -8.5t-2.5 -8.5q-38 -7 -49 -15q-13 -8 -5 -26q25 -75 157 -405h4q16 35 70.5 179t71.5 196q9 28 5 41.5t-23 19.5q-17 5 -54 10q-1 2 0 9.5t2 8.5q4 0 40.5 -2t65.5 -2q30 0 61.5 1.5
t36.5 1.5q2 -1 2.5 -8t-1.5 -9q-24 -1 -41 -9q-20 -7 -32.5 -24t-27.5 -56q-14 -37 -70 -176.5t-78 -195.5q-30 -78 -47 -135q-30 4 -57 0q-23 76 -45 130q-131 343 -142 370q-20 46 -32 64t-33 24q-16 5 -42 8z" />
    <glyph glyph-name="W" unicode="W" horiz-adv-x="839" 
d="M-34 590q-2 2 -1 9t3 8q15 0 56.5 -1.5t79.5 -1.5q42 0 81.5 1.5t47.5 1.5q2 -1 2 -8t-2 -9q-39 -7 -45 -11q-15 -8 -8 -33q34 -127 114 -382l4 2q110 295 142 409q19 -2 40 1q16 -54 72 -203t83 -215q2 -2 4 1q79 250 103 358q6 17 2.5 35t-24.5 25q-13 5 -61 13
q-2 2 -2 8.5t2 8.5q9 0 50.5 -1.5t64.5 -1.5q25 0 58 1.5t42 1.5q1 -2 1 -8t-1 -9q-34 -6 -43 -11q-17 -8 -26 -20.5t-19 -42.5q-34 -99 -166 -526q-30 4 -44 -1q-48 148 -154 420q-2 0 -4 -2q-119 -323 -150 -416q-4 1 -23 0.5t-24 -1.5q-27 108 -78.5 280.5t-77.5 242.5
q-11 30 -21 45t-28 21q-16 5 -50 11z" />
    <glyph glyph-name="X" unicode="X" horiz-adv-x="571" 
d="M599 15q2 -1 1.5 -9t-2.5 -9q-11 0 -68 2t-93 1q-33 0 -71 -1.5t-43 -1.5q-2 1 -2.5 8.5t1.5 8.5q42 8 49 12q9 4 4 16q-42 86 -117 211q-2 2 -5 0q-122 -181 -127 -206q-3 -19 20 -25q30 -6 46 -8q2 -5 -2 -16q-16 0 -53 1t-57 1q-33 0 -105 -3q-1 2 -1 8.5t1 8.5
q6 1 20.5 3t24.5 4q21 5 37 18t45 50q62 80 135 193q1 2 1 4.5t-1 3.5q-67 124 -117 208q-30 50 -42.5 64t-36.5 20q-19 6 -45 8q-6 4 0 17q16 0 58 -1.5t73 -1.5q78 0 126 3q2 -2 2 -8.5t-1 -8.5q-27 -3 -38 -7q-12 -5 -6 -20q5 -12 102 -185q2 -2 5 0q102 154 106 180
q2 15 -11 19q-15 6 -53 12q-1 3 0 9t2 7q9 0 40 -0.5t57 -0.5q35 0 69 1.5t37 1.5q1 -2 1 -8.5t-1 -8.5q-28 -4 -42 -7q-23 -7 -40 -20.5t-44 -53.5q-19 -26 -105 -156q-3 -3 -1 -8q72 -129 117 -202q44 -74 61 -93t43 -27q12 -3 46 -8z" />
    <glyph glyph-name="Y" unicode="Y" horiz-adv-x="538" 
d="M-20 590q-2 2 -2 8.5t2 8.5q14 0 58 -1.5t72 -1.5q77 0 122 3q2 -1 2.5 -8t-1.5 -9q-9 -1 -33 -7q-20 -6 -10 -29q16 -34 62 -122.5t61 -114.5q1 -1 2.5 -1t2.5 1q74 123 115 224q7 18 2 27t-23 14q-11 3 -43 8q-2 3 -1 9.5t3 7.5q6 0 44.5 -1.5t58.5 -1.5q12 0 96 3
q2 -1 2 -8t-2 -9q-32 -5 -38 -7q-21 -6 -36 -20t-33 -44q-99 -172 -125 -228q-9 -19 -9 -41q0 -68 2 -168q1 -28 7.5 -42t26.5 -19q21 -5 49 -8q1 -1 0 -8t-2 -8q-14 0 -64 1.5t-79 1.5q-41 0 -83 -1.5t-51 -1.5q-2 1 -2 8t2 8q38 5 52 8q19 4 24.5 18.5t5.5 40.5
q2 47 2 155q0 27 -9 48q-50 106 -117 220q-30 51 -43.5 63.5t-36.5 19.5q-19 4 -33 4z" />
    <glyph glyph-name="Z" unicode="Z" horiz-adv-x="552" 
d="M541 161q-5 -27 -20.5 -82.5t-25.5 -73.5q-6 -10 -61 -10q-56 0 -115.5 1t-114.5 2.5t-77 1.5q-10 0 -30.5 -0.5t-37.5 -1t-27 -1.5q-1 1 -2 5.5t0 5.5q48 63 180 283t160 279q2 5 -2 5q-138 3 -230 -3q-34 -4 -55 -32q-17 -24 -43 -87q-2 -1 -10 2t-8 4q23 100 28 156
q9 0 18 -3q28 -8 73 -8h205q102 0 158 3q3 -1 3 -11q-17 -28 -159 -273t-168 -288q-1 -1 -0.5 -3.5t2.5 -2.5q28 -4 212 -4q29 0 51 18q35 26 79 123q6 2 17 -5z" />
    <glyph glyph-name="bracketleft" unicode="[" horiz-adv-x="328" 
d="M105 742h175q0 -1 0.5 -8t-1.5 -15.5t-6 -8.5q-29 -1 -126 -1q-6 0 -6 -7q-6 -52 -6 -414q0 -334 5 -411q0 -16 10 -19q21 -6 137 -6q2 -4 -0.5 -18t-8.5 -15q-82 -2 -139 0q-26 2 -40 9l1 908q0 6 5 6z" />
    <glyph glyph-name="backslash" unicode="\" horiz-adv-x="414" 
d="M62 691l1 -1h1q229 -621 310 -797q-2 -4 -4 -4q-26 2 -34 14q-16 31 -76.5 187t-131.5 341.5t-93 240.5q2 3 12.5 10t14.5 9z" />
    <glyph glyph-name="bracketright" unicode="]" horiz-adv-x="329" 
d="M224 -182q-34 0 -87.5 -1t-87.5 -1q0 1 -0.5 8.5t2.5 16t7 8.5q83 0 125 4q6 0 6 7q5 37 5 410q0 368 -4 415q-3 19 -10 20q-31 3 -139 3q-2 6 1 18.5t9 12.5q41 2 165 2q9 0 14 -5l-1 -912q0 -6 -5 -6z" />
    <glyph glyph-name="asciicircum" unicode="^" horiz-adv-x="374" 
d="M78 305q-9 -12 -38 -12q-10 0 -10 6q12 17 69.5 133t71.5 149q1 1 13.5 5t15.5 4q21 -47 75 -153t69 -127q-1 -4 -3 -6q-4 -4 -21.5 -9.5t-19.5 -3.5q-8 8 -33.5 56t-51.5 101t-30 59q-5 2 -6 0q-95 -196 -101 -202z" />
    <glyph glyph-name="underscore" unicode="_" horiz-adv-x="519" 
d="M560 -182v-51h-569v51h569z" />
    <glyph glyph-name="grave" unicode="`" horiz-adv-x="400" 
d="M177 587q9 -14 49 -149q-1 -2 -6.5 -5t-8.5 -2q-15 16 -55.5 69t-55.5 75q0 4 3 7q7 4 36.5 5.5t37.5 -0.5z" />
    <glyph glyph-name="a" unicode="a" horiz-adv-x="398" 
d="M234 252q0 33 -15 55q-24 37 -73 37q-33 0 -47 -12q-6 -4 -18 -26t-17 -35q-3 -1 -11 5.5t-8 10.5q0 5 8 26.5t11 24.5q34 25 75.5 43t61.5 18q71 0 106 -55q22 -36 22 -102q0 -25 -1 -79.5t-1 -72.5q0 -44 33 -44q14 0 30 5q0 -18 -5 -23q-36 -40 -93 -40q-43 0 -55 30
q-2 6 -5 19l-4 1q-66 -50 -105 -50q-31 0 -56 23q-35 33 -35 92q0 25 15 52q12 8 87 31t93 31q7 3 7 11v24zM233 193q0 4 -3 4q-89 -31 -95 -37q-8 -8 -8 -36q0 -34 19.5 -55.5t46.5 -21.5q20 0 31 8q8 6 8 21q1 31 1 117z" />
    <glyph glyph-name="b" unicode="b" horiz-adv-x="477" 
d="M295 399q65 0 107 -49t42 -124q0 -118 -83 -180q-28 -22 -75 -40t-78 -18q-44 0 -86 12q-36 9 -57 2q-1 -1 -3.5 1t-2.5 4q4 54 4 250q0 296 -5 338q-2 13 -5.5 18.5t-13.5 9.5q-8 3 -41 7q-2 1 -1 7.5t3 7.5q37 2 89.5 12t80.5 22q4 0 4 -9q-10 -17 -10 -152v-165
q0 -1 2 -2t3 0q79 48 126 48zM217 345q-18 0 -45 -12q-7 -2 -7 -12q-4 -152 2 -218q2 -38 18 -52q30 -27 70 -27q32 0 54 27q31 38 31 121q0 84 -33 129q-33 44 -90 44z" />
    <glyph glyph-name="c" unicode="c" horiz-adv-x="391" 
d="M376 74q-68 -86 -164 -86q-87 0 -137 63q-42 52 -42 137q0 51 24.5 97t70.5 72q27 17 66.5 29.5t70.5 12.5q45 0 75 -12q25 -10 33 -26q0 -11 -2 -15q-4 -12 -17 -27.5t-22 -20.5q-4 -2 -9 0q-17 19 -27 29t-34.5 24.5t-47.5 14.5q-39 0 -61.5 -36t-22.5 -95
q0 -75 33 -121q39 -56 112 -56q60 0 100 40q3 0 4 -3q0 -12 -3 -21z" />
    <glyph glyph-name="d" unicode="d" horiz-adv-x="484" 
d="M474 44q0 -12 -4 -16q-22 -11 -77 -28t-69 -18q-4 0 -7 10q-1 7 -1 50q0 4 -4 2q-84 -55 -134 -55q-62 0 -102 51q-43 51 -43 140q0 46 19.5 89.5t52.5 69.5q31 24 81.5 42t91.5 18q18 0 34 -2q5 0 5 4q0 150 -3 189q-4 30 -21 37q-22 7 -46 10q-1 2 -0.5 8t2.5 8
q43 0 96.5 8t80.5 18q3 -1 3 -8q-8 -15 -10 -114q-1 -57 -1 -264q0 -131 2 -199q1 -31 5.5 -40t12.5 -10h36zM226 369q-34 0 -57 -26q-32 -37 -32 -113q0 -82 35 -131t89 -49q29 0 46 13q9 5 9 15q5 146 0 218q-2 33 -27 53q-27 20 -63 20z" />
    <glyph glyph-name="e" unicode="e" horiz-adv-x="405" 
d="M379 98q4 0 4 -3q2 -11 -2 -19q-76 -88 -168 -88q-78 0 -125 47q-55 58 -55 159q0 58 24.5 103t65.5 70q48 32 109 32q35 0 62 -13.5t42.5 -35.5t24.5 -44t12 -45q2 -6 13 -8q1 -2 -0.5 -8t-3.5 -7q-35 -11 -246 -23q-4 0 -4 -9q0 -57 36 -101q37 -46 104 -46
q64 0 107 39zM201 373q-29 0 -48 -33.5t-20 -91.5q0 -5 3 -5q18 -1 69 1t64 5q5 3 5 9q-3 48 -22 81.5t-51 33.5z" />
    <glyph glyph-name="f" unicode="f" horiz-adv-x="257" 
d="M16 14q24 3 36 8q17 7 17 37q1 71 1 278q0 7 -4 7l-46 3q0 16 7 21q31 7 41 15q4 2 4 6q0 88 28 149t94 106q50 35 92 35q61 0 81 -37q2 -5 0 -10q-2 -8 -18.5 -31t-23.5 -28q-1 -1 -4.5 -1.5t-4.5 0.5q-53 61 -93 61q-17 0 -29 -12q-24 -28 -24 -161q0 -56 1 -69
q0 -6 5 -6q22 1 43.5 1.5t31.5 1t16 0.5q-5 -18 -8 -44q-12 0 -42.5 0.5t-41.5 0.5q-4 0 -4 -7q2 -224 4 -271q1 -23 6.5 -32.5t20.5 -13.5q15 -3 40 -7q1 -2 -0.5 -9t-2.5 -8q-17 0 -52 1.5t-66 1.5q-14 0 -54.5 -1.5t-50.5 -1.5q-2 1 -2 8t2 9z" />
    <glyph glyph-name="g" unicode="g" horiz-adv-x="426" 
d="M213 399q39 0 96 -19q27 -10 56 -10q28 0 40 4t23 15q1 1 2.5 0.5t3.5 -2.5t2 -3q0 -7 -8 -26.5t-15 -26.5q-11 -9 -34 -9q-9 0 -23 1q-1 0 -1.5 -1.5t0.5 -2.5q10 -20 10 -59q0 -85 -60 -127q-46 -36 -114 -37h-21q-7 0 -15 -6.5t-8 -14.5q0 -25 35 -31q9 -1 49.5 -5
t70.5 -8t45 -9q77 -24 77 -104q0 -54 -35.5 -99t-93.5 -74q-51 -25 -110 -25q-67 0 -110 30q-56 36 -56 92q0 23 7 37q11 11 93 70v4q-31 12 -50.5 33.5t-19.5 45.5q0 6 2 14q2 1 39.5 21.5t45.5 27.5q2 5 0 5q-102 30 -102 144q0 74 60 118q52 37 119 37zM235 -237
q60 0 88.5 26t28.5 66q0 45 -45 68q-47 23 -139 23q-22 0 -33 -9q-41 -26 -41 -69q0 -39 33 -69q37 -36 108 -36zM190 375q-27 0 -42 -26t-15 -73q0 -73 21.5 -113.5t57.5 -40.5q21 0 36 15q22 25 22 96q0 60 -19 101t-61 41z" />
    <glyph glyph-name="h" unicode="h" horiz-adv-x="484" 
d="M7 630q-1 3 -1 8.5t1 7.5q99 6 164 33q6 -3 4 -10q-9 -17 -9 -92v-59.5v-108.5v-63q0 -6 4 -2q73 55 130 55q58 0 88.5 -41t30.5 -117v-193q0 -14 6 -19q13 -10 46 -15q2 -2 1 -9t-3 -8q-8 0 -41.5 1.5t-63.5 1.5q-35 0 -98 -3q-2 2 -2 8.5t2 8.5q26 5 32 8q10 4 13 12
t4 33q5 180 -5 216q-6 25 -27 42t-52 17q-34 0 -57 -16q-8 -5 -8 -16q0 -215 2 -244q1 -16 2.5 -23.5t6.5 -13.5t14 -8q17 -4 29 -7q6 -6 0 -17q-4 0 -37.5 1.5t-68.5 1.5q-30 0 -62.5 -1.5t-39.5 -1.5q-2 2 -2 8.5t2 8.5q20 3 32 7q11 4 14.5 13.5t5.5 34.5q2 33 2 182
q0 312 -5 351q-3 16 -18 22q-5 2 -36 6z" />
    <glyph glyph-name="i" unicode="i" horiz-adv-x="238" 
d="M173 536q0 -30 -23 -47q-7 -4 -26.5 -6t-29.5 1q-22 8 -24 39q-4 24 6 37q7 6 23.5 11.5t29.5 5.5q21 0 36 -11q8 -11 8 -30zM226 14q0 -15 -4 -17q-10 0 -44.5 1.5t-55.5 1.5q-29 0 -64 -1.5t-42 -1.5q-2 1 -2 8.5t2 8.5q22 2 34 7q18 6 19 42q2 46 2 150q0 80 -2 95
q0 17 -7 26q-9 9 -34 17q-1 1 -1 8t1 9q25 1 71 10.5t75 23.5q0 -8 -1 -72t-1 -97q0 -129 1 -173q1 -32 20 -39q19 -5 33 -7z" />
    <glyph glyph-name="j" unicode="j" horiz-adv-x="239" 
d="M172 546q0 -35 -21 -51q-3 -3 -25.5 -7.5t-27.5 -1.5q-27 14 -30 45q0 23 4 28q7 9 26 16t36 7q26 0 31 -8q7 -8 7 -28zM178 402q0 -20 -1 -154t-2 -182q0 -72 -9 -120q-14 -76 -64 -136t-92 -79q-10 1 -15 8q-3 3 0 6q44 25 60.5 69t16.5 141q0 329 -2 351q-2 25 -16 33
q-16 9 -40 12q-2 3 -2 10t2 9q98 5 164 32z" />
    <glyph glyph-name="k" unicode="k" horiz-adv-x="451" 
d="M245 368q-1 2 -0.5 9t2.5 8q95 -2 175 8q2 -2 2 -8.5t-2 -9.5q-50 -10 -74 -36q-54 -52 -93 -97v-4q19 -33 74.5 -106t83.5 -97q14 -12 25.5 -15.5t35.5 -5.5q1 -1 0 -8.5t-2 -8.5q-13 -2 -61 -3.5t-64 0.5q-32 2 -53 26q-12 12 -29.5 36.5t-41 60t-32.5 47.5
q-13 21 -26 24l2 -122q1 -26 6.5 -34.5t22.5 -12.5q19 -4 28 -5q4 -9 -1 -17q-8 0 -44.5 1.5t-67.5 1.5q-20 0 -52.5 -1.5t-45.5 -1.5q-1 2 -1 8.5t1 8.5q24 4 33 7q16 7 18 39q2 28 2 183q-1 330 -3 355q-2 24 -20 30q-16 4 -32 5q-1 2 -1 8.5t1 8.5q102 6 159 29q2 0 4 -3
t2 -5q-8 -16 -9 -112q-2 -66 -2 -355q19 3 46 25q30 26 62.5 65t32.5 51q0 11 -15 15q-2 1 -46 8z" />
    <glyph glyph-name="l" unicode="l" horiz-adv-x="232" 
d="M12 -3q-2 2 -2 8.5t2 8.5q25 4 35 9q16 7 17 43q2 88 2 267q0 217 -4 258q-2 23 -13 27q-12 6 -36 9q-2 2 -2 7.5t2 7.5q90 6 157 37q5 -3 5 -6q-8 -18 -8 -107q-1 -50 -1 -216q0 -245 2 -284q1 -23 5 -31t15 -13q9 -4 33 -8q1 -2 0 -8.5t-2 -8.5q-1 0 -38.5 1.5
t-68.5 1.5t-64 -1.5t-36 -1.5z" />
    <glyph glyph-name="m" unicode="m" horiz-adv-x="737" 
d="M18 14q16 2 32 8q17 6 19 46q6 135 0 230q0 15 -6 25q-12 16 -42 21q0 11 3 17q94 10 148 41q3 -2 3 -5q-2 -16 -2 -61q0 -1 2 -2t3 0q80 65 133 65q67 0 100 -67q1 -2 5 0q86 67 141 67q54 0 83.5 -40.5t29.5 -109.5l3 -199q0 -14 5 -19q9 -10 48 -17q0 -12 -3 -17
q-5 0 -38.5 1.5t-67.5 1.5q-58 0 -100 -3q-1 2 -1.5 9t0.5 8q26 4 36 9q9 4 12 15.5t4 38.5q2 149 -4 190q-5 27 -24 47.5t-56 20.5q-35 0 -64 -24q-1 -1 -1 -9q4 -22 4 -69q0 -141 1 -181q0 -17 10 -24q17 -11 47 -14q2 -2 1 -8.5t-3 -8.5q-105 3 -114 3q-31 0 -100 -3
q-1 2 -1 8.5t1 8.5q29 3 38 7q12 5 16 39q3 181 -3 214q-13 63 -76 63q-28 0 -54 -18q-13 -9 -13 -22q0 -37 0.5 -123t0.5 -117t25 -38q4 -1 15 -2.5t15 -2.5q1 -2 0.5 -8.5t-2.5 -8.5q-99 3 -112 3q-1 0 -97 -3q-2 2 -2 9t2 8z" />
    <glyph glyph-name="n" unicode="n" horiz-adv-x="490" 
d="M19 14q13 2 30 6q19 6 20 41q2 31 2 151q0 79 -2 97q-1 7 -3 11.5t-12.5 12t-28.5 13.5q0 12 3 15q92 10 145 41q3 -3 3 -6q-1 -11 -4 -58q0 -2 1.5 -3t2.5 1q80 63 131 63q63 0 94 -53q23 -37 23 -114q0 -169 1 -185q0 -12 9 -18q20 -12 43 -15q0 -13 -4 -17
q-2 0 -30.5 1.5t-63.5 1.5q-22 0 -109 -3q-1 2 -1 9t1 8q17 2 30 6q11 3 15 10.5t6 24.5q2 25 1.5 107.5t-5.5 108.5q-8 37 -29 53q-18 14 -48 14q-33 0 -59 -20q-9 -7 -9 -22q0 -193 2 -235q1 -22 6 -30t16 -10q14 -5 33 -7q1 -2 0.5 -8.5t-1.5 -8.5q-90 3 -109 3
q-40 0 -100 -3q-1 2 -1 8t1 9z" />
    <glyph glyph-name="o" unicode="o" horiz-adv-x="478" 
d="M248 399q91 0 144 -56t53 -144q0 -121 -92 -178q-49 -33 -116 -33q-100 0 -152 60.5t-52 148.5q0 107 87 165q56 37 128 37zM223 374q-22 0 -37 -13q-42 -33 -42 -140q0 -97 31 -152.5t81 -55.5q27 0 42 15q35 35 35 141q0 90 -28.5 147.5t-81.5 57.5z" />
    <glyph glyph-name="p" unicode="p" horiz-adv-x="481" 
d="M10 340q-2 1 -1 8t3 9q33 5 79 22t72 32q2 1 4.5 -2t2.5 -5q-3 -15 -3 -63q0 -1 1.5 -1.5t2.5 0.5q86 59 135 59q58 0 97 -44q44 -50 44 -130q0 -107 -79 -173q-33 -28 -82.5 -46t-85.5 -18q-12 0 -30 4q-4 0 -4 -5q0 -121 3 -177q3 -31 28 -37q6 -1 49 -6q2 -2 1 -9.5
t-3 -8.5h-29q-94 -1 -213 -12q-6 12 0 18q26 5 40 11q20 8 22 46q2 46 2 271q0 190 -2 217q-2 23 -13 29q-18 8 -41 11zM231 339q-32 0 -54 -17q-10 -6 -11 -18q-1 -22 -1 -98t1 -106q2 -38 26 -57q22 -20 61 -20q33 0 55 25q36 38 36 128q0 84 -34 125q-32 38 -79 38z" />
    <glyph glyph-name="q" unicode="q" horiz-adv-x="482" 
d="M492 -250q-70 0 -91 -1q-43 -2 -93.5 -6.5t-62.5 -4.5q-5 11 -1 17q20 4 44 10q15 5 19.5 15t5.5 37q4 60 4 209q0 2 -1 3t-2 0q-25 -15 -63.5 -28t-61.5 -13q-66 0 -111.5 54.5t-45.5 141.5q0 100 82 160q80 55 187 55q62 0 129 -20q-7 -18 -10 -50q-2 -23 -2 -170
q-2 -225 4 -326q1 -33 6.5 -43.5t20.5 -14.5q13 -3 45 -7q0 -16 -2 -18zM227 366q-38 0 -63 -35t-25 -109q0 -89 40.5 -135.5t94.5 -46.5q26 0 39 9q4 1 4 9q0 238 -5 267q-4 17 -11 22q-23 19 -74 19z" />
    <glyph glyph-name="r" unicode="r" horiz-adv-x="333" 
d="M285 399q35 0 48 -25q1 -2 1 -9t-1 -10q-1 -11 -13.5 -35.5t-22.5 -36.5q0 -3 -9 -3q-32 36 -70 36q-22 0 -40 -23q-7 -12 -7 -24q0 -185 3 -208q1 -33 21 -39q11 -4 47 -8q1 -3 0 -9t-3 -8q-8 0 -50 1.5t-71 1.5q-17 0 -55.5 -1.5t-45.5 -1.5q-1 2 -1 8.5t1 8.5
q28 5 35 7q15 7 16 37q3 25 3 162q0 71 -2 87q-1 8 -2.5 12.5t-12 12.5t-29.5 15q0 13 3 15q86 8 140 40q6 0 6 -4q-4 -34 -4 -82q0 -1 1.5 -1.5t2.5 0.5q29 36 55 59q29 25 56 25z" />
    <glyph glyph-name="s" unicode="s" horiz-adv-x="343" 
d="M295 390q-8 -34 -12 -106q-2 -2 -8 -2t-8 2q-9 66 -42 84q-22 11 -44 11q-25 0 -41.5 -14.5t-16.5 -38.5q0 -26 17 -44t74 -47q58 -29 78 -55t20 -65q0 -57 -47 -92t-115 -35q-59 0 -110 20q-2 22 -6 115q2 4 16 4q15 -78 61 -105q25 -13 50 -13q28 0 46 14t18 39
q0 24 -15 40t-53 37q-66 36 -90.5 66t-24.5 72q0 53 39 87.5t110 34.5q30 0 62 -5q25 -4 42 -4z" />
    <glyph glyph-name="t" unicode="t" horiz-adv-x="282" 
d="M266 343q-16 0 -47 0.5t-47 0.5q-4 0 -4 -6q-1 -46 -1 -191q0 -52 5 -68q10 -35 47 -35q34 0 52 13q4 -8 0 -19q-38 -50 -105 -50q-65 0 -88 44q-13 25 -13 116q0 27 0.5 97t0.5 89q0 9 -5 11l-45 3q0 12 7 26q36 6 39 7q4 2 4 7v83q23 8 52.5 24.5t39.5 26.5q3 1 14 1
q-4 -30 -4 -130q0 -8 4 -8q65 0 101 4q-6 -27 -7 -46z" />
    <glyph glyph-name="u" unicode="u" horiz-adv-x="475" 
d="M9 361q-3 11 3 17q108 3 158 16q-6 -26 -6 -170q0 -102 5 -121q12 -51 70 -51q35 0 58 19q8 6 10 22q1 12 0.5 98t-1.5 131q0 24 -18 30q-10 3 -55 9q-1 3 0 9t2 8q98 0 176 14q-2 -40 -2 -110v-194q1 -41 23 -41q15 -1 33 0q0 -15 -3 -18q-113 -40 -148 -44q-5 5 -6 8
q-2 22 -2 57q0 2 -2 2.5t-3 -0.5q-72 -63 -127 -63q-112 0 -112 126q0 177 -1 201q-1 19 -3.5 26.5t-13.5 11.5q-7 3 -35 7z" />
    <glyph glyph-name="v" unicode="v" horiz-adv-x="404" 
d="M-8 371q-1 2 -0.5 9t2.5 8q13 0 32 -1t36 -1.5t35 -0.5q33 0 96 3q1 -2 1 -9t-1 -8q-28 -6 -33 -9q-8 -4 -5 -13q20 -68 85 -224q1 -1 2 -1t1 1q52 123 72 194q10 35 -9 41q-14 7 -44 12q-1 2 0 8.5t2 7.5q4 0 36 -1.5t48 -1.5q27 0 78 3q2 -2 2 -8.5t-2 -8.5
q-30 -7 -31 -7q-25 -9 -40 -41q-45 -99 -98 -236q-21 -56 -31 -91q-28 2 -42 -1q-4 13 -14 40t-15 41q-13 36 -43.5 114t-31.5 80q-22 58 -32 73t-29 22q-15 4 -27 6z" />
    <glyph glyph-name="w" unicode="w" horiz-adv-x="610" 
d="M-16 371q-1 2 -0.5 8.5t1.5 8.5q8 0 43 -1.5t72 -1.5q29 0 95 3q1 -2 1.5 -8.5t-0.5 -8.5q-24 -5 -30 -8q-11 -5 -9 -16q23 -88 69 -220q3 -3 4 0q71 175 87 241q15 -4 46 0q5 -20 24 -70q49 -129 69 -176h4q44 109 69 203q3 15 0 22.5t-18 13.5q-19 7 -46 10
q-1 2 -0.5 8.5t2.5 8.5q3 0 36 -1.5t55 -1.5q10 0 76 3q2 -2 2 -8.5t-2 -8.5q-21 -4 -29 -8q-16 -6 -24 -14.5t-17 -30.5q-80 -196 -120 -322q-18 3 -46 -2q-16 49 -49 134.5t-44 105.5q-2 4 -5 1q-60 -142 -95 -239q-21 4 -44 -1q-46 162 -96 296q-13 37 -22 52t-24 21
q-7 3 -35 7z" />
    <glyph glyph-name="x" unicode="x" horiz-adv-x="390" 
d="M-20 14q38 6 53 14.5t40 38.5q10 12 79 105q1 3 0 6l-73 128q-24 40 -36.5 49.5t-51.5 14.5q-1 2 -0.5 9.5t2.5 8.5l37 -2q38 -1 76 -1q29 0 61.5 1.5t34.5 1.5q1 -1 1.5 -9t-0.5 -9q-3 -1 -15 -3.5t-15 -3.5q-9 -4 -5 -17q14 -31 54 -95q2 -4 4 0q51 67 57 94
q3 11 -10 17q-14 5 -38 8q-1 3 -0.5 10t2.5 8q7 0 36.5 -1.5t37.5 -1.5q41 0 83 3q2 -1 2.5 -8.5t-1.5 -9.5q-36 -6 -48.5 -12t-28.5 -27q-11 -14 -77 -103q-2 -2 0 -7q10 -17 32.5 -58t32.5 -57q37 -62 54 -75t54 -17q1 -2 1 -8.5t-2 -8.5q-7 0 -46.5 1.5t-68.5 1.5
q-36 0 -69.5 -1.5t-34.5 -1.5q-5 11 -1 17q32 7 36 13q5 5 1 13q-6 12 -60 107q-2 6 -5 0q-60 -87 -63 -103q-4 -15 10 -21q19 -6 45 -9q1 -2 0.5 -8.5t-1.5 -8.5q-11 0 -44 1.5t-48 1.5q-42 0 -84 -3q-2 2 -2 8.5t2 8.5z" />
    <glyph glyph-name="y" unicode="y" horiz-adv-x="415" 
d="M-6 371q-1 2 0.5 9t2.5 8q1 0 33.5 -1.5t70.5 -1.5q36 0 99 3q1 -2 1.5 -8.5t-0.5 -8.5q-28 -6 -31 -8q-10 -4 -7 -17q8 -28 42 -112t48 -116h2q22 48 46 116.5t27 93.5q0 7 0.5 13t-4.5 11.5t-15 8.5q-18 6 -45 10q-1 3 0 9.5t2 7.5q7 0 36.5 -1.5t48.5 -1.5q21 0 84 3
q1 -2 1 -8t-1 -9q-30 -5 -39 -11q-20 -11 -34 -52q-98 -265 -236 -508q-6 -11 -19 -31t-15 -25l-6 -3q-37 8 -46 27q-3 8 0 11q106 126 153 221q-3 4 -12 25l-98 242q-24 57 -34 74t-26 23q-14 5 -29 7z" />
    <glyph glyph-name="z" unicode="z" horiz-adv-x="374" 
d="M337 387q2 0 2 -11q-107 -212 -185 -341q-2 -4 3 -6q29 -5 109 -5q40 0 81 97q5 3 19 3l3 -1q-7 -43 -33 -110q-2 -6 -8.5 -11.5t-10.5 -5.5q-29 0 -148 2.5t-142 1.5q-1 2 -2 7t0 6q161 269 195 341q3 5 -2 5q-79 0 -98 -2q-31 -2 -45.5 -17t-37.5 -73q-2 -1 -10 1.5
t-9 4.5q16 71 23 121q21 -9 76 -9h134q46 0 86 2z" />
    <glyph glyph-name="braceleft" unicode="{" horiz-adv-x="394" 
d="M49 287q53 2 77.5 23.5t26 56.5t-2.5 81q-7 66 -7 93q0 188 197 206q6 -3 3 -17q-76 -11 -105.5 -49t-29.5 -99q0 -23 6 -83t6 -86q0 -109 -115 -134v-3q123 -12 123 -133q0 -31 -6 -91.5t-6 -83.5q0 -65 35 -95.5t100 -37.5q2 -2 0.5 -9t-3.5 -9q-84 1 -140.5 41
t-56.5 116q0 37 6 99q4 54 5.5 94t-25.5 66.5t-93 35.5q-1 3 0.5 10t4.5 8z" />
    <glyph glyph-name="bar" unicode="|" horiz-adv-x="249" 
d="M95 710h59v-1020h-59v1020z" />
    <glyph glyph-name="braceright" unicode="}" horiz-adv-x="393" 
d="M343 265q-53 -1 -78.5 -23t-26 -57t3.5 -81q7 -63 7 -80q0 -190 -197 -208q-2 1 -3.5 8.5t0.5 8.5q76 14 105.5 49.5t29.5 98.5q0 23 -6 77.5t-6 80.5q0 106 117 136v3q-125 12 -125 131q0 32 6 98.5t6 88.5q0 65 -35 95.5t-100 37.5q-3 11 3 17q84 -1 140.5 -41
t56.5 -116q0 -35 -6 -99q-9 -93 -3 -122q13 -62 93 -80q11 -2 24 -4q0 -16 -6 -19z" />
    <glyph glyph-name="asciitilde" unicode="~" horiz-adv-x="460" 
d="M170 272q28 0 83 -26q44 -21 67 -21q50 0 97 54h2q2 0 4.5 -1t2.5 -2q0 -14 -6 -29q-14 -25 -49.5 -49t-74.5 -24q-26 0 -84 30q-39 18 -68 18q-21 0 -52.5 -19.5t-47.5 -36.5q-1 -1 -3.5 0.5t-2.5 3.5q0 18 9 32q18 23 57.5 46.5t65.5 23.5z" />
    <glyph glyph-name="uni00A0" unicode="&#xa0;" horiz-adv-x="153" 
 />
    <glyph glyph-name="exclamdown" unicode="&#xa1;" horiz-adv-x="245" 
d="M74 -212q-14 0 -22 10q0 10 8.5 72.5t21.5 162t21 171.5q1 1 9.5 0t10.5 -3q6 -48 30.5 -198t26.5 -172q2 -6 -3 -17t-12 -14q-40 -15 -91 -12zM110 278q-23 0 -40 15q-20 20 -20 48q0 25 16 42q18 18 47 18q23 0 40 -16q17 -18 17 -46q0 -23 -19 -44q-17 -17 -41 -17z
" />
    <glyph glyph-name="cent" unicode="&#xa2;" horiz-adv-x="471" 
d="M61 283q0 52 27.5 97t76.5 72q44 26 114 36l7 74q18 5 25 5l-9 -78q51 0 80 -12q28 -11 34 -25q2 -7 -2 -15q-10 -21 -28 -31h-7q-1 1 -9.5 10t-13.5 13.5t-14 11.5t-18.5 11.5t-19.5 7.5q-3 1 -5 -4l-29 -304q12 -3 29 -3q69 2 113 46q7 -14 5 -17q-53 -70 -149 -88
q-4 0 -5 -4l-7 -79q-1 -2 -12 -3t-14 1l9 80q0 5 -4 5q-84 5 -131 61q-43 49 -43 132zM246 158l30 301q0 4 -4 4q-47 -4 -78.5 -45t-31.5 -105q0 -116 84 -155z" />
    <glyph glyph-name="sterling" unicode="&#xa3;" horiz-adv-x="471" 
d="M302 -25q-38 0 -105 22q-69 22 -99 22q-35 0 -69 -35q-8 3 -11 7q2 9 10 34.5t11 28.5q17 13 43 27q36 20 28 188q-62 0 -73 2q-3 2 -1 6q1 3 6 12.5t8 11.5q1 0 20 -0.5t39 -0.5q0 143 49 205q38 49 86 70.5t73 21.5q29 0 50.5 -6.5t29 -13.5t7.5 -12q-3 -26 -24 -58
q-2 -2 -6 -2.5t-6 1.5q-49 56 -92 56q-23 0 -35 -23q-18 -34 -20 -210v-25q0 -4 5 -4q78 0 119 3q1 -1 0.5 -5.5t-1.5 -5.5q-15 -17 -38 -20q-24 -4 -84 -4q-3 0 -3 -4q-23 -119 -93 -174q34 6 112 -7q65 -13 96 -13q44 0 64 13.5t41 68.5q3 2 5 0q5 -2 9 -15
q-25 -80 -66.5 -121t-84.5 -41z" />
    <glyph glyph-name="currency" unicode="&#xa4;" horiz-adv-x="471" 
d="M260 448q38 0 80 -24q5 -2 6 0q39 43 49 49q6 4 37 4q3 -3 3 -6q-41 -44 -65 -77q27 -45 27 -96q0 -57 -34 -105q-1 -6 0 -10q58 -64 67 -72q0 -7 -4 -11q-41 -7 -53 1q-25 17 -53 51q-39 -32 -92 -32q-50 0 -92 33q-38 -34 -63 -65q-1 -1 -3.5 -0.5t-3.5 1.5q-6 34 1 41
q9 11 24 28.5t19 22.5v6q-21 42 -21 85q0 62 30 102l-15 17.5t-19 22.5t-14 16q-2 4 -2 11q0 4 7.5 20.5t11.5 22.5q1 1 5 1t6 -1q44 -55 56 -67q3 -2 8 0q41 31 97 31zM233 408q-44 0 -66.5 -32t-22.5 -81q0 -63 32 -96t78 -33q87 0 87 111q0 54 -30 92.5t-78 38.5z" />
    <glyph glyph-name="yen" unicode="&#xa5;" horiz-adv-x="471" 
d="M289 183q-3 0 -3 -4q0 -17 0.5 -54.5t0.5 -45.5q1 -28 7 -41t26 -17q21 -4 44 -7q1 -1 0 -8.5t-2 -8.5q-22 0 -66 1.5t-73 1.5q-26 0 -60 -1.5t-58 -1.5q-2 1 -2 8t2 9q34 4 43 6q18 4 23.5 18.5t6.5 41.5q1 18 1 99q0 4 -3 4q-29 -1 -50 -1.5t-30 -0.5q0 20 6 26
q3 0 9 -0.5t22 -0.5h44q2 0 2 3v56q0 6 -4 6q-19 0 -46 -0.5t-31 -0.5q0 19 6 25l25 -1h45q3 0 3 5q-24 65 -89 199q-18 39 -29 51t-30 17q-13 3 -31 5q-6 6 1 17q11 0 47 -1.5t65 -1.5q63 0 108 3q2 -2 2 -8.5t-1 -8.5q-7 -1 -28 -6q-16 -6 -7 -31q57 -139 87 -197
q1 -1 2.5 -1t2.5 1q60 128 81 186q12 33 -21 41q-7 2 -17.5 3.5t-18.5 3.5q-1 1 -0.5 8.5t1.5 8.5q64 -4 87 -4q22 0 49 2t35 2q1 -2 1 -8.5t-1 -8.5q-25 -4 -31 -6q-20 -5 -34 -19.5t-28 -45.5q-86 -181 -94 -201q-2 -5 4 -5h51l27 1q0 -14 -4 -24q-2 0 -28 0.5t-47 0.5
q-4 0 -4 -4v-58q0 -4 3 -4q21 0 48.5 0.5t29.5 0.5q0 -13 -4 -25q-3 0 -29.5 0.5t-43.5 0.5z" />
    <glyph glyph-name="brokenbar" unicode="&#xa6;" horiz-adv-x="250" 
d="M94 631h61v-348h-61v348zM94 127h61v-355h-61v355z" />
    <glyph glyph-name="section" unicode="&#xa7;" horiz-adv-x="420" 
d="M219 498q-7 0 -10.5 -3t-4.5 -8t-1 -12v-4q0 -24 18 -62q20 -42 91 -153q56 -83 56 -154q0 -56 -31 -114q-28 -48 -76 -82.5t-83 -34.5q-65 0 -110 43q-12 14 -12 25q0 15 16 41q1 1 5 1q28 -33 64.5 -51t54.5 -18q13 0 13 24q0 29 -23 62q-23 40 -68 107
q-77 120 -77 200q0 96 66 169q21 26 56.5 46.5t64.5 20.5q61 0 99 -40q11 -11 11 -25q0 -15 -17 -34q-1 -1 -3.5 -1.5t-3.5 0.5q-17 15 -49.5 36t-45.5 21zM240 -83q37 16 58 51t21 76q0 51 -17.5 94t-53.5 100q-2 3 -20.5 32t-24.5 40.5t-18 35.5t-17 43.5t-6 38.5
q-4 36 12 70q-34 -6 -60.5 -46t-26.5 -88q0 -85 69 -196q3 -6 26 -41t33.5 -54t22.5 -47.5t12 -48.5q3 -36 -10 -60z" />
    <glyph glyph-name="dieresis" unicode="&#xa8;" horiz-adv-x="400" 
d="M163 533q0 -27 -20 -40q-4 -3 -21 -4.5t-22 0.5q-22 12 -24 34t4 31q17 17 47 17q23 0 29 -12q7 -8 7 -26zM319 533q0 -27 -19 -40q-4 -3 -21.5 -4.5t-22.5 0.5q-21 13 -23 34q-2 22 4 31q17 17 47 17q20 0 29 -12q6 -9 6 -26z" />
    <glyph glyph-name="copyright" unicode="&#xa9;" horiz-adv-x="704" 
d="M353 619q129 0 215 -89.5t86 -219.5t-88 -220.5t-213 -90.5q-128 0 -215.5 88.5t-87.5 222.5q0 129 88 219t215 90zM353 598q-115 0 -195.5 -83.5t-80.5 -204.5q0 -120 81.5 -204t196.5 -84q113 0 192.5 84t79.5 204t-80.5 204t-193.5 84zM379 477q-57 0 -85 -46.5
t-28 -117.5q0 -41 11 -76.5t41 -62t74 -26.5q51 0 98 68q1 0 5 -3.5t5 -4.5q-5 -18 -22.5 -43t-24.5 -30q-38 -10 -74 -10q-97 0 -151 49t-54 135q0 77 53.5 131t152.5 54q26 0 68 -5q38 -5 48 -5q-8 -67 -9 -95q-1 -1 -7.5 -1t-6.5 1q-7 54 -30 70q-26 18 -64 18z" />
    <glyph glyph-name="ordfeminine" unicode="&#xaa;" horiz-adv-x="258" 
d="M258 267q0 -12 -3 -18q-20 -26 -69 -26q-29 0 -37 22q-1 2 -3 7l-1 6q0 1 -3 1q-47 -36 -64 -36q-19 0 -36 15q-23 23 -23 59q0 17 10 31q7 5 54 19.5t60 21.5q5 0 5 7q1 7 1 18q0 18 -9 35q-16 23 -49 23q-20 0 -29 -7q-9 -9 -23 -34q-1 -1 -6 3t-5 5q0 3 5.5 16t7.5 15
q22 17 48.5 28.5t40.5 11.5q48 0 71 -37q15 -26 15 -65q0 -16 -2 -50t-2 -47q0 -27 24 -27q13 0 22 3zM147 351q0 3 -2 3q-46 -18 -54 -25q-7 -7 -7 -21q0 -41 39 -41q9 0 17 6q5 3 5 13q2 20 2 65z" />
    <glyph glyph-name="guillemotleft" unicode="&#xab;" horiz-adv-x="581" 
d="M151 186q24 -13 78.5 -56.5t77.5 -67.5q1 -2 1.5 -11t-0.5 -13l-1 -1l-1 -1q-23 21 -110.5 74t-134.5 70q0 3 4 11q71 28 149 75t106 69q2 -2 2 -4q0 -14 -5 -19q-18 -19 -72.5 -58.5t-93.5 -63.5v-4zM344 186q25 -14 80.5 -58t80.5 -69q1 -1 1 -10t-1 -13l-1 -1v-1
q-23 21 -112.5 75t-136.5 71q0 1 5 11q71 30 149.5 77t108.5 69q2 -2 2 -4q0 -14 -5 -19q-20 -20 -76 -60.5t-95 -63.5v-4z" />
    <glyph glyph-name="logicalnot" unicode="&#xac;" horiz-adv-x="460" 
d="M74 261q-30 0 -30 5q9 34 15 44q14 -3 160 -3h67.5t51 0.5t33.5 0.5h21.5h8.5t3 -2.5t2 -3.5q0 -5 -0.5 -67t-0.5 -93q0 -55 2 -77q-29 -9 -44 -9q-1 0 -3.5 2.5t-2.5 3.5v176q0 23 -13 23h-270z" />
    <glyph glyph-name="uni00AD" unicode="&#xad;" horiz-adv-x="265" 
d="M45 226q110 5 187 5q1 -1 1.5 -4.5t-0.5 -5.5q-1 -9 -7 -26.5t-9 -18.5q-6 -1 -87 -3.5t-97 -1.5q-2 0 -2 8q6 47 14 47z" />
    <glyph glyph-name="registered" unicode="&#xae;" horiz-adv-x="244" 
d="M122 591q41 0 69.5 -29t28.5 -70t-28.5 -70t-69.5 -29t-69 28.5t-28 70.5q0 41 28.5 70t68.5 29zM122 578q-35 0 -58 -25t-23 -61q0 -35 24 -60.5t57 -25.5q36 0 59 24.5t23 61.5q0 35 -24 60.5t-58 25.5zM74 448q-1 4 0 6q14 2 14 10v64q0 8 -14 9q-1 1 -0.5 3.5
t1.5 2.5h57q29 0 29 -23q0 -17 -20 -24q15 -25 22 -33q9 -9 19 -10q1 -1 0 -3t-2 -3q-3 -1 -13 0t-16 2q-9 2 -13 9q-10 15 -16 27q-4 6 -9 6v-26q0 -6 2.5 -7.5t11.5 -3.5q2 -2 0 -6q-2 0 -12.5 0.5t-14.5 0.5q-5 0 -15 -0.5t-11 -0.5zM113 497q12 0 16 3q8 4 8 15
q0 21 -20 21q-4 0 -4 -5v-34z" />
    <glyph glyph-name="macron" unicode="&#xaf;" horiz-adv-x="400" 
d="M108 540q14 -2 46 -2h65.5h61.5h24q0 -10 -5.5 -28t-8.5 -19q-13 -2 -165 -2q-29 0 -32 1q1 8 6.5 27.5t7.5 22.5z" />
    <glyph glyph-name="degree" unicode="&#xb0;" horiz-adv-x="266" 
d="M123 589q49 0 75.5 -31t26.5 -80q0 -46 -31 -76t-74 -30q-45 0 -75 28.5t-30 75.5q0 53 31.5 83t76.5 30zM118 547q-28 0 -46.5 -18.5t-18.5 -45.5q0 -35 20.5 -52.5t48.5 -17.5q66 0 66 64q0 28 -18.5 49t-51.5 21z" />
    <glyph glyph-name="plusminus" unicode="&#xb1;" horiz-adv-x="460" 
d="M425 319q-1 -7 -7 -21t-10 -15q-4 0 -29.5 -0.5t-64.5 -1t-61 -0.5q-5 0 -5 -4v-151q0 -9 -36 -17q-7 0 -7 3q0 91 -1 169h-166q-2 0 -2 8q3 18 10 39q5 -2 100 -2h58v59q0 69 -2 93q25 11 43 11q4 0 4 -30q0 -77 -1 -127q0 -6 5 -6h169q3 -3 3 -7zM411 31l-374 -3
q-1 0 -1 8q6 30 10 40q4 -1 97 -1l281 -1v-8q-9 -34 -13 -35z" />
    <glyph glyph-name="two.k" unicode="&#xb2;" horiz-adv-x="320" 
d="M105 686q-39 0 -76 -41q-1 -1 -6 3.5t-5 6.5q25 41 61 65.5t71 24.5q45 0 74 -30t29 -78q0 -62 -73 -129q-15 -14 -34 -31.5t-26 -23.5q0 -2 1 -3q20 -2 59.5 -2.5t59.5 1.5q28 2 48 46q2 1 8 -1.5t6 -4.5q-17 -75 -33 -99q-7 -12 -32 -13q-25 0 -82.5 1.5t-87.5 1.5
q-6 0 -22.5 -0.5t-22.5 -0.5q-1 1 -0.5 7t1.5 8q73 57 108 98q43 51 43 117q0 32 -18 54.5t-51 22.5z" />
    <glyph glyph-name="three.k" unicode="&#xb3;" horiz-adv-x="307" 
d="M155 745q38 0 63.5 -23t25.5 -58q0 -47 -58 -78q-2 -2 0 -3q91 -27 91 -96q0 -59 -64 -99q-46 -29 -104 -29q-33 0 -52 9q-17 8 -23 22q-9 22 -9 52q1 3 5.5 4.5t6.5 0.5q15 -37 43 -53q25 -14 53 -14q65 0 65 73q0 39 -22.5 63.5t-61.5 24.5q-8 0 -21 -2q-1 3 3.5 11.5
t7.5 11.5q42 10 57.5 24t15.5 41q0 26 -17 45.5t-46 19.5q-35 0 -71 -33q-2 0 -5 4t-2 6q55 76 119 76z" />
    <glyph glyph-name="acute" unicode="&#xb4;" horiz-adv-x="400" 
d="M227 582q5 3 36 5.5t38 0.5q1 -1 2 -4t0 -4q-3 -6 -118 -148q-3 -1 -8.5 2t-5.5 6q34 95 56 142z" />
    <glyph glyph-name="mu" unicode="&#xb5;" horiz-adv-x="447" 
d="M57 369q4 4 39.5 13.5t50.5 11.5q12 0 15 -2q-8 -248 -8 -254q0 -18 5 -30q13 -34 45 -34q53 0 79 69q6 15 6 32v196q5 6 38 14t47 9q2 0 4.5 -0.5t5 -0.5t4.5 -0.5t3 -1.5q-10 -77 -10 -169q0 -10 -0.5 -44t-0.5 -39q0 -67 26 -67q18 0 40 14q4 -2 2 -17
q-19 -40 -49 -60.5t-55 -20.5q-15 0 -25.5 6t-19.5 33.5t-9 78.5h-3q-29 -59 -63.5 -88.5t-56.5 -29.5q-18 0 -35 9t-23 23q-5 -51 -3 -118q3 -95 118 -111q3 -10 -3 -16q-10 -12 -44 -29t-54 -17q-13 0 -22 7t-18 35.5t-12 78.5q-6 96 -8 262q-6 248 -6 257z" />
    <glyph glyph-name="paragraph" unicode="&#xb6;" horiz-adv-x="540" 
d="M498 586q-4 -1 -24.5 -2.5t-29.5 -3.5q-18 -5 -24.5 -12.5t-11 -48t-3.5 -129.5q1 -44 0 -159.5t0 -158.5q0 -81 -18 -140.5t-45.5 -88t-52.5 -41t-47 -12.5q-49 0 -67 36q-10 21 -10 62q4 6 7 8q47 -45 106 -45q38 0 56.5 24t25 84t5.5 185q-48 -20 -82 -21
q-111 13 -173.5 80.5t-62.5 165.5q0 68 37 118t86 73t106 30q49 6 129 10.5t94 6.5q6 -7 -1 -21zM258 363q0 -80 25 -136.5t81 -64.5q-4 82 -4 267q0 116 14 141q-57 -6 -86.5 -53.5t-29.5 -153.5z" />
    <glyph glyph-name="periodcentered" unicode="&#xb7;" horiz-adv-x="219" 
d="M110 253q25 0 41 -16q21 -19 21 -50q0 -27 -17 -44q-18 -19 -48 -19q-25 0 -42 18q-18 17 -18 46q0 26 20 46q19 19 43 19z" />
    <glyph glyph-name="cedilla" unicode="&#xb8;" horiz-adv-x="398" 
d="M215 4h21l-30 -40q25 -14 40 -28q21 -19 21 -42q0 -36 -35.5 -62t-62.5 -26q-32 0 -48 28q-2 9 4 15q32 -16 58 -16q17 0 27 8.5t10 22.5q0 34 -67 58q-1 5 0 7q2 4 62 75z" />
    <glyph glyph-name="one.k" unicode="&#xb9;" horiz-adv-x="290" 
d="M243 392q1 -1 0.5 -7.5t-2.5 -7.5q-16 0 -49 1t-53 1t-48.5 -1t-44.5 -1q-1 2 -1 7.5t1 7.5q20 2 31 4q13 2 17.5 10t6.5 30q2 56 2 124q0 102 -2 117q-2 20 -15 23l-30 5q-2 1 -2 6.5t2 6.5q76 5 129 29q6 0 6 -2q-3 -39 -3 -122q0 -104 2 -184q1 -14 2.5 -21t6 -13
t13.5 -8q9 -3 31 -5z" />
    <glyph glyph-name="ordmasculine" unicode="&#xba;" horiz-adv-x="322" 
d="M167 490q60 0 95.5 -37t35.5 -93q0 -78 -60 -114q-31 -23 -79 -23q-66 0 -100.5 37.5t-34.5 98.5q0 70 55 106q39 25 88 25zM152 472q-23 0 -37 -26t-14 -71q0 -63 19 -97.5t50 -34.5q51 0 51 97q0 59 -17.5 95.5t-51.5 36.5z" />
    <glyph glyph-name="guillemotright" unicode="&#xbb;" horiz-adv-x="581" 
d="M429 185q-24 13 -78 56.5t-77 67.5q-1 1 -1.5 10.5t0.5 13.5l2 2q20 -20 109.5 -74t134.5 -70q0 -5 -4 -11q-70 -27 -147.5 -74t-106.5 -70q-2 2 -2 3t2 10t3 10q19 19 73.5 59t91.5 63q2 2 0 4zM236 185q-24 13 -80 57.5t-80 68.5q-1 1 -1 10.5t1 13.5q0 1 0.5 1t0.5 1
q24 -22 114 -76.5t135 -69.5q0 -3 -5 -11q-68 -30 -148.5 -77.5t-110.5 -68.5v1q-1 1 -1 2q0 15 5 20q21 19 76.5 60t93.5 64q2 2 0 4z" />
    <glyph glyph-name="onequarter" unicode="&#xbc;" horiz-adv-x="725" 
d="M670 92q-1 0 -22 0.5t-39 0.5q-2 -2 -2 -3l1 -113q-33 0 -81 -9l1 121q0 3 -2 3h-68h-54l-26 -1q0 18 4 26q23 28 95 122t82 107q3 1 23 4t24 3v-218q0 -3 3 -3h30t26 0.5t12 0.5q-5 -17 -7 -41zM253 244q1 -1 0.5 -7.5t-2.5 -7.5q-16 0 -49 1t-53 1t-48.5 -1t-44.5 -1
q-1 2 -1 7.5t1 7.5q20 2 31 4q13 2 17.5 10t6.5 30q2 56 2 124q0 102 -2 117q-2 20 -15 23l-30 5q-2 1 -2 6.5t2 6.5q76 5 129 29q6 0 6 -2q-3 -39 -3 -122q0 -104 2 -184q1 -14 2.5 -21t6 -13t13.5 -8q9 -3 31 -5zM549 629q0 1 10 0.5t13 -1.5q1 -2 1 -3
q-7 -10 -194.5 -336.5t-201.5 -348.5q-1 -1 -5 -1q-12 14 -10 18q4 9 193.5 338.5t193.5 333.5zM421 131q3 0 16.5 -0.5t37 -0.5h50.5l3 3l1 144q0 1 -2 1q-33 -39 -106 -144v-3z" />
    <glyph glyph-name="onehalf" unicode="&#xbd;" horiz-adv-x="725" 
d="M487 293q-39 0 -76 -41q-1 -1 -6 3.5t-5 6.5q25 41 61 65.5t71 24.5q45 0 74 -30t29 -78q0 -62 -73 -129q-15 -14 -34 -31.5t-26 -23.5q0 -2 1 -3q20 -2 59.5 -2.5t59.5 1.5q28 2 48 46q2 1 8 -1.5t6 -4.5q-17 -75 -33 -99q-7 -12 -32 -13q-25 0 -82.5 1.5t-87.5 1.5
q-6 0 -22.5 -0.5t-22.5 -0.5q-1 1 -0.5 7t1.5 8q73 57 108 98q43 51 43 117q0 32 -18 54.5t-51 22.5zM245 244q1 -1 0.5 -7.5t-2.5 -7.5q-16 0 -49 1t-53 1t-48.5 -1t-44.5 -1q-1 2 -1 7.5t1 7.5q20 2 31 4q13 2 17.5 10t6.5 30q2 56 2 124q0 102 -2 117q-2 20 -15 23l-30 5
q-2 1 -2 6.5t2 6.5q76 5 129 29q6 0 6 -2q-3 -39 -3 -122q0 -104 2 -184q1 -14 2.5 -21t6 -13t13.5 -8q9 -3 31 -5zM532 629q0 1 10 0.5t13 -1.5q1 -2 1 -3q-7 -10 -194.5 -336.5t-201.5 -348.5q-1 -1 -5 -1q-12 14 -10 18q4 9 193.5 338.5t193.5 333.5z" />
    <glyph glyph-name="threequarters" unicode="&#xbe;" horiz-adv-x="725" 
d="M673 92q-1 0 -22 0.5t-39 0.5q-2 -2 -2 -3l1 -113q-33 0 -81 -9l1 121q0 3 -2 3h-68h-55l-25 -1q0 18 4 26q23 28 95 122t82 107q3 1 23 4t24 3v-218q0 -3 3 -3h30t26 0.5t12 0.5q-5 -17 -7 -41zM184 597q38 0 63.5 -23t25.5 -58q0 -47 -58 -78q-1 -2 0 -3q91 -27 91 -96
q0 -59 -64 -99q-46 -29 -104 -29q-33 0 -52 9q-17 8 -23 22q-9 22 -9 52q1 3 5.5 4.5t6.5 0.5q15 -37 43 -53q24 -14 53 -14q65 0 65 73q0 39 -22.5 63.5t-61.5 24.5q-8 0 -21 -2q-1 3 3.5 11.5t7.5 11.5q42 10 57.5 24t15.5 41q0 26 -17 45.5t-46 19.5q-35 0 -71 -33
q-2 0 -5 4t-2 6q55 76 119 76zM559 629q0 1 10 0.5t13 -1.5q1 -2 1 -3q-7 -10 -194.5 -336.5t-201.5 -348.5q-1 -1 -5 -1q-12 14 -10 18q4 9 193.5 338.5t193.5 333.5zM424 131q3 0 16.5 -0.5t37 -0.5h50.5l3 3l1 144q0 1 -2 1q-32 -39 -106 -144v-3z" />
    <glyph glyph-name="questiondown" unicode="&#xbf;" horiz-adv-x="309" 
d="M162 97q0 7 -9.5 24.5t-23.5 31.5q-4 5 3 15q5 6 23.5 16.5t26.5 13.5q15 5 27 -1q18 -9 30 -27t12 -34q0 -22 -12 -30q-2 -2 -48.5 -33t-59.5 -41q-25 -19 -25 -46q0 -33 32 -62.5t86 -46.5q3 -1 27 -7q16 -3 16 -14t-12.5 -32t-22.5 -29q-8 -12 -26 -12q-53 0 -105 39
q-68 50 -68 116q0 41 18 61q10 11 26 23.5t38.5 28.5t31.5 23q15 11 15 23zM168 276q-24 0 -39 15q-20 19 -20 48q0 25 16 42q18 18 47 18q23 0 39 -16q18 -18 18 -46q0 -22 -19 -44q-19 -17 -42 -17z" />
    <glyph glyph-name="Agrave" unicode="&#xc0;" horiz-adv-x="564" 
d="M-34 14q51 7 68.5 19.5t36.5 58.5q36 87 94 245.5t79 222.5q9 30 12 46q18 -2 38 -2q21 0 37 2q1 -7 5.5 -23.5t6.5 -23.5q7 -21 42.5 -128t67 -199.5t44.5 -129.5q21 -55 36 -68t64 -20q1 -1 0 -8.5t-2 -8.5q-9 0 -53 1.5t-73 1.5q-37 0 -133 -3q-4 11 0 17q46 10 48 11
q15 7 10 24q-19 63 -61 179q0 2 -2.5 4.5t-4.5 2.5q-10 1 -72 1q-73 0 -85 -1q-7 0 -9 -8q-55 -150 -55 -169q0 -7 0.5 -10.5t2.5 -9.5t8.5 -9.5t16.5 -5.5q39 -8 45 -9q1 -2 0.5 -9t-2.5 -8q-13 0 -51.5 1.5t-62.5 1.5q-21 0 -52 -1.5t-44 -1.5q-2 1 -2 8t2 9zM252 488h-4
q-11 -31 -37 -111t-32 -98q-1 -3 1 -5v-1q10 -1 65 -1q61 0 71 1q3 0 3 5q-38 126 -67 210zM225 763q6 -3 48.5 -53t55.5 -69q1 -1 -4 -7.5t-7 -6.5q-4 0 -73 38.5t-80 46.5q-1 2 -1 7t1 6q5 7 28 22t32 16z" />
    <glyph glyph-name="Aacute" unicode="&#xc1;" horiz-adv-x="564" 
d="M-34 14q51 7 68.5 19.5t36.5 58.5q36 87 94 245.5t79 222.5q9 30 12 46q18 -2 38 -2q21 0 37 2q1 -7 5.5 -23.5t6.5 -23.5q7 -21 42.5 -128t67 -199.5t44.5 -129.5q21 -55 36 -68t64 -20q1 -1 0 -8.5t-2 -8.5q-9 0 -53 1.5t-73 1.5q-37 0 -133 -3q-4 11 0 17q46 10 48 11
q15 7 10 24q-19 63 -61 179q0 2 -2.5 4.5t-4.5 2.5q-10 1 -72 1q-73 0 -85 -1q-7 0 -9 -8q-55 -150 -55 -169q0 -7 0.5 -10.5t2.5 -9.5t8.5 -9.5t16.5 -5.5q39 -8 45 -9q1 -2 0.5 -9t-2.5 -8q-13 0 -51.5 1.5t-62.5 1.5q-21 0 -52 -1.5t-44 -1.5q-2 1 -2 8t2 9zM252 488h-4
q-11 -31 -37 -111t-32 -98q-1 -3 1 -5v-1q10 -1 65 -1q61 0 71 1q3 0 3 5q-38 126 -67 210zM364 761q9 -1 31.5 -12.5t26.5 -18.5q1 -2 1 -5.5t-1 -4.5q-8 -9 -80.5 -50.5t-77.5 -41.5q-2 0 -6 4.5t-3 8.5q11 16 55.5 65.5t53.5 54.5z" />
    <glyph glyph-name="Acircumflex" unicode="&#xc2;" horiz-adv-x="564" 
d="M-34 14q51 7 68.5 19.5t36.5 58.5q36 87 94 245.5t79 222.5q9 30 12 46q18 -2 38 -2q21 0 37 2q1 -7 5.5 -23.5t6.5 -23.5q7 -21 42.5 -128t67 -199.5t44.5 -129.5q21 -55 36 -68t64 -20q1 -1 0 -8.5t-2 -8.5q-9 0 -53 1.5t-73 1.5q-37 0 -133 -3q-4 11 0 17q46 10 48 11
q15 7 10 24q-19 63 -61 179q0 2 -2.5 4.5t-4.5 2.5q-10 1 -72 1q-73 0 -85 -1q-7 0 -9 -8q-55 -150 -55 -169q0 -7 0.5 -10.5t2.5 -9.5t8.5 -9.5t16.5 -5.5q39 -8 45 -9q1 -2 0.5 -9t-2.5 -8q-13 0 -51.5 1.5t-62.5 1.5q-21 0 -52 -1.5t-44 -1.5q-2 1 -2 8t2 9zM252 488h-4
q-11 -31 -37 -111t-32 -98q-1 -3 1 -5v-1q10 -1 65 -1q61 0 71 1q3 0 3 5q-38 126 -67 210zM284 738q2 3 11 3q9 -10 59.5 -52.5t70.5 -56.5q0 -3 -3 -8t-5 -5q-4 0 -58 22.5t-67 29.5q-5 3 -9 0q-13 -8 -62 -30t-53 -22q-2 0 -5 5.5t-2 7.5q111 92 123 106z" />
    <glyph glyph-name="Atilde" unicode="&#xc3;" horiz-adv-x="564" 
d="M-34 14q51 7 68.5 19.5t36.5 58.5q36 87 94 245.5t79 222.5q9 30 12 46q18 -2 38 -2q21 0 37 2q1 -7 5.5 -23.5t6.5 -23.5q7 -21 42.5 -128t67 -199.5t44.5 -129.5q21 -55 36 -68t64 -20q1 -1 0 -8.5t-2 -8.5q-9 0 -53 1.5t-73 1.5q-37 0 -133 -3q-4 11 0 17q46 10 48 11
q15 7 10 24q-19 63 -61 179q0 2 -2.5 4.5t-4.5 2.5q-10 1 -72 1q-73 0 -85 -1q-7 0 -9 -8q-55 -150 -55 -169q0 -7 0.5 -10.5t2.5 -9.5t8.5 -9.5t16.5 -5.5q39 -8 45 -9q1 -2 0.5 -9t-2.5 -8q-13 0 -51.5 1.5t-62.5 1.5q-21 0 -52 -1.5t-44 -1.5q-2 1 -2 8t2 9zM252 488h-4
q-11 -31 -37 -111t-32 -98q-1 -3 1 -5v-1q10 -1 65 -1q61 0 71 1q3 0 3 5q-38 126 -67 210zM361 691q35 0 68 33q2 2 4 -4q3 -8 2 -12q-11 -20 -43 -42t-58 -22q-17 0 -65 14q-33 9 -43 9q-27 0 -60 -28q-2 -1 -4.5 2.5t-3 7t0.5 5.5q11 16 40.5 38t50.5 22q19 0 60 -12
q36 -11 51 -11z" />
    <glyph glyph-name="Adieresis" unicode="&#xc4;" horiz-adv-x="564" 
d="M-34 14q51 7 68.5 19.5t36.5 58.5q36 87 94 245.5t79 222.5q9 30 12 46q18 -2 38 -2q21 0 37 2q1 -7 5.5 -23.5t6.5 -23.5q7 -21 42.5 -128t67 -199.5t44.5 -129.5q21 -55 36 -68t64 -20q1 -1 0 -8.5t-2 -8.5q-9 0 -53 1.5t-73 1.5q-37 0 -133 -3q-4 11 0 17q46 10 48 11
q15 7 10 24q-19 63 -61 179q0 2 -2.5 4.5t-4.5 2.5q-10 1 -72 1q-73 0 -85 -1q-7 0 -9 -8q-55 -150 -55 -169q0 -7 0.5 -10.5t2.5 -9.5t8.5 -9.5t16.5 -5.5q39 -8 45 -9q1 -2 0.5 -9t-2.5 -8q-13 0 -51.5 1.5t-62.5 1.5q-21 0 -52 -1.5t-44 -1.5q-2 1 -2 8t2 9zM252 488h-4
q-11 -31 -37 -111t-32 -98q-1 -3 1 -5v-1q10 -1 65 -1q61 0 71 1q3 0 3 5q-38 126 -67 210zM257 675q0 -27 -19 -41q-5 -2 -21.5 -3.5t-21.5 0.5q-22 12 -24 34q-2 21 4 30q16 16 47 16q21 0 28 -10q7 -12 7 -26zM415 675q0 -27 -19 -41q-6 -2 -22 -3.5t-22 0.5
q-21 11 -23 34q-2 22 5 30q12 16 46 16q18 0 28 -10q7 -12 7 -26z" />
    <glyph glyph-name="Aring" unicode="&#xc5;" horiz-adv-x="564" 
d="M-34 14q51 7 68.5 19.5t36.5 58.5q36 87 94 245.5t79 222.5q9 30 12 46q18 -2 38 -2q21 0 37 2q1 -7 5.5 -23.5t6.5 -23.5q7 -21 42.5 -128t67 -199.5t44.5 -129.5q21 -55 36 -68t64 -20q1 -1 0 -8.5t-2 -8.5q-9 0 -53 1.5t-73 1.5q-37 0 -133 -3q-4 11 0 17q46 10 48 11
q15 7 10 24q-19 63 -61 179q0 2 -2.5 4.5t-4.5 2.5q-10 1 -72 1q-73 0 -85 -1q-7 0 -9 -8q-55 -150 -55 -169q0 -7 0.5 -10.5t2.5 -9.5t8.5 -9.5t16.5 -5.5q39 -8 45 -9q1 -2 0.5 -9t-2.5 -8q-13 0 -51.5 1.5t-62.5 1.5q-21 0 -52 -1.5t-44 -1.5q-2 1 -2 8t2 9zM252 488h-4
q-11 -31 -37 -111t-32 -98q-1 -3 1 -5v-1q10 -1 65 -1q61 0 71 1q3 0 3 5q-38 126 -67 210zM296 753q32 0 50.5 -19t18.5 -47q0 -33 -20 -51.5t-53 -18.5q-24 0 -47 16.5t-23 49.5q0 32 19 51t55 19zM292 722q-21 0 -33.5 -10t-12.5 -26q0 -18 14.5 -27t35.5 -9q18 0 32 9.5
t14 23.5q0 39 -50 39z" />
    <glyph glyph-name="AE" unicode="&#xc6;" horiz-adv-x="789" 
d="M237 590q-1 3 0 9.5t3 8.5q6 0 58.5 -2t102.5 -2h194q92 0 118 6q3 0 3 -3q-12 -47 -18 -141q-2 -2 -9.5 -2.5t-9.5 2.5q-6 50 -20 78q-12 25 -41 28q-16 2 -74 2t-72 -2q-9 -2 -9 -14q3 -30 6.5 -77.5t7 -98.5t4.5 -67q2 -7 7 -7q118 0 133 1q18 1 27.5 8.5t17.5 29.5
q2 5 9 36q1 2 9 1.5t9 -2.5q-6 -63 -6 -92q0 -23 1.5 -54.5t1.5 -37.5q-2 -2 -9 -2.5t-10 1.5q-6 32 -10 42q-9 30 -39 32q-22 2 -132 2q-5 0 -5 -7q12 -153 16 -190q2 -26 8.5 -34t18.5 -10q19 -3 102 -3q59 0 82 26q30 34 51 94q2 2 9 0.5t8 -5.5q-1 -19 -13.5 -67
t-23.5 -70q-5 -11 -48 -11q-21 0 -94.5 2t-150.5 2q-29 0 -79.5 -1.5t-73.5 -1.5q-3 1 -3 8.5t2 8.5q42 5 62 10q16 5 22.5 17t5.5 39q0 53 -10 185q-2 5 -5 5q-10 1 -74 1h-79q-6 0 -10 -7q-3 -7 -31 -65t-44 -92.5t-18 -45.5q-7 -30 24 -38q16 -4 50 -9q2 -2 1 -9t-4 -8
q-13 0 -52.5 1.5t-66.5 1.5q-22 0 -56.5 -1.5t-42.5 -1.5q-2 1 -2 8t2 9q50 8 70.5 20.5t44.5 57.5q58 105 134.5 260.5t101.5 212.5q5 7 -3 11q-48 11 -79 14zM357 566q-1 1 -6 1q-9 -20 -36.5 -77t-50.5 -105.5t-32 -70.5q0 -5 4 -5q9 -1 66 -1h66q5 0 5 5q-6 138 -16 253
z" />
    <glyph glyph-name="Ccedilla" unicode="&#xc7;" horiz-adv-x="639" 
d="M564 453q-13 92 -61 119q-47 26 -123 26q-94 0 -150.5 -71.5t-56.5 -207.5q0 -135 62.5 -219.5t179.5 -84.5q75 0 115 38q34 33 66 95q3 0 9 -3t7 -6q-9 -34 -32 -78.5t-40 -56.5q-72 -21 -142 -22l-16 -24q35 -20 43 -26q23 -19 23 -47q0 -38 -37 -65t-65 -27
q-32 0 -49 28q-3 13 3 16q29 -16 62 -16q37 0 37 31q0 38 -72 61q0 5 2 8q27 37 47 61q-159 5 -244 88t-85 238q0 85 39.5 157t116.5 113q83 44 206 44q45 0 112 -7q58 -8 72 -7q-11 -80 -10 -155q-2 -2 -10.5 -2t-8.5 2z" />
    <glyph glyph-name="Egrave" unicode="&#xc8;" horiz-adv-x="520" 
d="M25 591q-1 2 -1 8t2 8q10 0 55.5 -1.5t73.5 -1.5h186q87 0 114 4q2 0 2 -3q-11 -44 -17 -139q-2 -2 -8.5 -2t-8.5 1q-5 49 -19 76q-12 27 -42 30q-17 2 -71.5 2t-68.5 -2q-10 -2 -10 -15q-1 -57 -1 -223q0 -8 4 -8q131 0 146 1q19 1 28 11t15 30q1 2 8 31q2 2 9 2t8 -2
q0 -3 -2.5 -36.5t-2.5 -54.5q0 -15 1 -46t1 -44q-2 -2 -8.5 -2t-8.5 1q-5 25 -8 36q-11 33 -40 35q-15 1 -69.5 2t-75.5 0q-5 0 -5 -8q0 -153 1 -212q0 -29 21 -33q30 -6 112 -6q30 0 48 3t25 7t17 14q25 25 56 98q2 1 8 -1.5t7 -4.5q-2 -17 -15.5 -67t-22.5 -70
q-5 -8 -14.5 -10.5t-42.5 -2.5q-37 0 -119.5 2t-135.5 2q-30 0 -80 -1.5t-73 -1.5q-1 2 -1 8.5t1 8.5q52 6 65 9q16 5 22.5 17t7.5 39q3 43 3 256q0 171 -3 200q-2 25 -6.5 33.5t-21.5 14.5q-22 5 -45 8zM212 772q6 -3 48.5 -53t55.5 -69q1 -1 -4 -7.5t-7 -6.5
q-4 0 -73 38.5t-80 46.5q-1 1 -1 6t1 7q5 7 28 22t32 16z" />
    <glyph glyph-name="Eacute" unicode="&#xc9;" horiz-adv-x="520" 
d="M25 591q-1 2 -1 8t2 8q10 0 55.5 -1.5t73.5 -1.5h186q87 0 114 4q2 0 2 -3q-11 -44 -17 -139q-2 -2 -8.5 -2t-8.5 1q-5 49 -19 76q-12 27 -42 30q-17 2 -71.5 2t-68.5 -2q-10 -2 -10 -15q-1 -57 -1 -223q0 -8 4 -8q131 0 146 1q19 1 28 11t15 30q1 2 8 31q2 2 9 2t8 -2
q0 -3 -2.5 -36.5t-2.5 -54.5q0 -15 1 -46t1 -44q-2 -2 -8.5 -2t-8.5 1q-5 25 -8 36q-11 33 -40 35q-15 1 -69.5 2t-75.5 0q-5 0 -5 -8q0 -153 1 -212q0 -29 21 -33q30 -6 112 -6q30 0 48 3t25 7t17 14q25 25 56 98q2 1 8 -1.5t7 -4.5q-2 -17 -15.5 -67t-22.5 -70
q-5 -8 -14.5 -10.5t-42.5 -2.5q-37 0 -119.5 2t-135.5 2q-30 0 -80 -1.5t-73 -1.5q-1 2 -1 8.5t1 8.5q52 6 65 9q16 5 22.5 17t7.5 39q3 43 3 256q0 171 -3 200q-2 25 -6.5 33.5t-21.5 14.5q-22 5 -45 8zM339 772q9 -1 31.5 -12.5t26.5 -18.5q1 -1 1 -5t-1 -5
q-8 -9 -80.5 -50.5t-77.5 -41.5q-2 0 -6 4.5t-3 8.5q11 16 55.5 65.5t53.5 54.5z" />
    <glyph glyph-name="Ecircumflex" unicode="&#xca;" horiz-adv-x="520" 
d="M25 591q-1 2 -1 8t2 8q10 0 55.5 -1.5t73.5 -1.5h186q87 0 114 4q2 0 2 -3q-11 -44 -17 -139q-2 -2 -8.5 -2t-8.5 1q-5 49 -19 76q-12 27 -42 30q-17 2 -71.5 2t-68.5 -2q-10 -2 -10 -15q-1 -57 -1 -223q0 -8 4 -8q131 0 146 1q19 1 28 11t15 30q1 2 8 31q2 2 9 2t8 -2
q0 -3 -2.5 -36.5t-2.5 -54.5q0 -15 1 -46t1 -44q-2 -2 -8.5 -2t-8.5 1q-5 25 -8 36q-11 33 -40 35q-15 1 -69.5 2t-75.5 0q-5 0 -5 -8q0 -153 1 -212q0 -29 21 -33q30 -6 112 -6q30 0 48 3t25 7t17 14q25 25 56 98q2 1 8 -1.5t7 -4.5q-2 -17 -15.5 -67t-22.5 -70
q-5 -8 -14.5 -10.5t-42.5 -2.5q-37 0 -119.5 2t-135.5 2q-30 0 -80 -1.5t-73 -1.5q-1 2 -1 8.5t1 8.5q52 6 65 9q16 5 22.5 17t7.5 39q3 43 3 256q0 171 -3 200q-2 25 -6.5 33.5t-21.5 14.5q-22 5 -45 8zM256 759q2 3 11 3q9 -10 59.5 -52.5t70.5 -56.5q0 -3 -3 -8t-5 -5
q-4 0 -58 22.5t-67 29.5q-5 3 -9 0q-13 -8 -62 -30t-53 -22q-2 0 -5 5.5t-2 7.5q111 92 123 106z" />
    <glyph glyph-name="Edieresis" unicode="&#xcb;" horiz-adv-x="520" 
d="M25 591q-1 2 -1 8t2 8q10 0 55.5 -1.5t73.5 -1.5h186q87 0 114 4q2 0 2 -3q-11 -44 -17 -139q-2 -2 -8.5 -2t-8.5 1q-5 49 -19 76q-12 27 -42 30q-17 2 -71.5 2t-68.5 -2q-10 -2 -10 -15q-1 -57 -1 -223q0 -8 4 -8q131 0 146 1q19 1 28 11t15 30q1 2 8 31q2 2 9 2t8 -2
q0 -3 -2.5 -36.5t-2.5 -54.5q0 -15 1 -46t1 -44q-2 -2 -8.5 -2t-8.5 1q-5 25 -8 36q-11 33 -40 35q-15 1 -69.5 2t-75.5 0q-5 0 -5 -8q0 -153 1 -212q0 -29 21 -33q30 -6 112 -6q30 0 48 3t25 7t17 14q25 25 56 98q2 1 8 -1.5t7 -4.5q-2 -17 -15.5 -67t-22.5 -70
q-5 -8 -14.5 -10.5t-42.5 -2.5q-37 0 -119.5 2t-135.5 2q-30 0 -80 -1.5t-73 -1.5q-1 2 -1 8.5t1 8.5q52 6 65 9q16 5 22.5 17t7.5 39q3 43 3 256q0 171 -3 200q-2 25 -6.5 33.5t-21.5 14.5q-22 5 -45 8zM231 695q0 -27 -19 -41q-5 -2 -21.5 -3.5t-21.5 0.5q-22 12 -24 34
q-2 21 4 30q16 16 47 16q21 0 28 -10q7 -12 7 -26zM389 695q0 -27 -19 -41q-6 -2 -22 -3.5t-22 0.5q-21 11 -23 34q-2 22 5 30q12 16 46 16q18 0 28 -10q7 -12 7 -26z" />
    <glyph glyph-name="Igrave" unicode="&#xcc;" horiz-adv-x="313" 
d="M26 590q-2 2 -2 8.5t2 8.5q13 0 56 -1.5t76 -1.5q43 0 82 1.5t41 1.5q2 -2 2 -8.5t-1 -8.5q-30 -3 -44 -8q-15 -6 -19 -16t-6 -41q-2 -32 -2 -215q0 -200 2 -235q1 -15 2 -23t8.5 -17.5t20.5 -12.5q14 -4 46 -8q2 -2 1.5 -9t-2.5 -8q-5 0 -50 1.5t-74 1.5
q-43 0 -82.5 -1.5t-56.5 -1.5q-2 1 -2 8t2 9q29 3 43 7q17 4 22.5 14.5t7.5 38.5q3 60 3 253q0 164 -3 210q-3 37 -25 44q-14 5 -48 9zM94 768q6 -3 48.5 -53t55.5 -69q1 -1 -4 -7.5t-7 -6.5q-4 0 -73 38.5t-80 46.5q-1 1 -1 6t1 7q5 7 28 22t32 16z" />
    <glyph glyph-name="Iacute" unicode="&#xcd;" horiz-adv-x="313" 
d="M26 590q-2 2 -2 8.5t2 8.5q13 0 56 -1.5t76 -1.5q43 0 82 1.5t41 1.5q2 -2 2 -8.5t-1 -8.5q-30 -3 -44 -8q-15 -6 -19 -16t-6 -41q-2 -32 -2 -215q0 -200 2 -235q1 -15 2 -23t8.5 -17.5t20.5 -12.5q14 -4 46 -8q2 -2 1.5 -9t-2.5 -8q-5 0 -50 1.5t-74 1.5
q-43 0 -82.5 -1.5t-56.5 -1.5q-2 1 -2 8t2 9q29 3 43 7q17 4 22.5 14.5t7.5 38.5q3 60 3 253q0 164 -3 210q-3 37 -25 44q-14 5 -48 9zM233 768q9 -1 31.5 -12.5t26.5 -18.5q1 -1 1 -5t-1 -5q-8 -9 -80.5 -50.5t-77.5 -41.5q-2 0 -6 4.5t-3 8.5q11 16 55.5 65.5t53.5 54.5z
" />
    <glyph glyph-name="Icircumflex" unicode="&#xce;" horiz-adv-x="313" 
d="M26 590q-2 2 -2 8.5t2 8.5q13 0 56 -1.5t76 -1.5q43 0 82 1.5t41 1.5q2 -2 2 -8.5t-1 -8.5q-30 -3 -44 -8q-15 -6 -19 -16t-6 -41q-2 -32 -2 -215q0 -200 2 -235q1 -15 2 -23t8.5 -17.5t20.5 -12.5q14 -4 46 -8q2 -2 1.5 -9t-2.5 -8q-5 0 -50 1.5t-74 1.5
q-43 0 -82.5 -1.5t-56.5 -1.5q-2 1 -2 8t2 9q29 3 43 7q17 4 22.5 14.5t7.5 38.5q3 60 3 253q0 164 -3 210q-3 37 -25 44q-14 5 -48 9zM146 757q2 3 11 3q9 -10 59.5 -52.5t70.5 -56.5q0 -3 -3 -8t-5 -5q-4 0 -58 22.5t-67 29.5q-5 3 -9 0q-13 -8 -62 -30t-53 -22
q-2 0 -5 5.5t-2 7.5q111 92 123 106z" />
    <glyph glyph-name="Idieresis" unicode="&#xcf;" horiz-adv-x="313" 
d="M26 590q-2 2 -2 8.5t2 8.5q13 0 56 -1.5t76 -1.5q43 0 82 1.5t41 1.5q2 -2 2 -8.5t-1 -8.5q-30 -3 -44 -8q-15 -6 -19 -16t-6 -41q-2 -32 -2 -215q0 -200 2 -235q1 -15 2 -23t8.5 -17.5t20.5 -12.5q14 -4 46 -8q2 -2 1.5 -9t-2.5 -8q-5 0 -50 1.5t-74 1.5
q-43 0 -82.5 -1.5t-56.5 -1.5q-2 1 -2 8t2 9q29 3 43 7q17 4 22.5 14.5t7.5 38.5q3 60 3 253q0 164 -3 210q-3 37 -25 44q-14 5 -48 9zM118 695q0 -27 -19 -41q-5 -2 -21.5 -3.5t-21.5 0.5q-22 12 -24 34q-2 21 4 30q16 16 47 16q21 0 28 -10q7 -12 7 -26zM276 695
q0 -27 -19 -41q-6 -2 -22 -3.5t-22 0.5q-21 11 -23 34q-2 22 5 30q12 16 46 16q18 0 28 -10q7 -12 7 -26z" />
    <glyph glyph-name="Eth" unicode="&#xd0;" horiz-adv-x="688" 
d="M19 590q-1 2 -0.5 9t2.5 8q63 -3 129 -3q32 0 90.5 2t98.5 2q129 0 206 -64q96 -81 96 -229q0 -152 -103 -241q-95 -81 -256 -81q-33 0 -106 2t-118 2h-45q-1 1 -1 8.5t1 8.5q42 4 58 9q23 7 27 46q4 45 4 234q-72 -2 -80 -2q0 20 6 26h74q0 155 -4 210q-2 21 -6.5 29
t-18.5 14q-17 6 -54 10zM215 79q0 -19 15 -33q31 -26 101 -26q76 0 121 55q67 81 67 225q0 77 -27 143.5t-79 102.5q-55 37 -149 37q-31 0 -43 -6q-6 -3 -8 -17q-2 -39 -2 -233q31 0 67 0.5t61 0.5h28q0 -16 -4 -26q-26 0 -76.5 0.5t-75.5 0.5q0 -184 4 -224z" />
    <glyph glyph-name="Ntilde" unicode="&#xd1;" horiz-adv-x="668" 
d="M7 590q-1 1 0 8.5t2 8.5q16 1 61.5 -1t64.5 -2q36 0 52 2q5 -14 35 -52q197 -253 328 -415q1 0 1 1h1q3 333 -4 385q-3 26 -11.5 37.5t-29.5 18.5q-27 7 -57 9q-1 2 -1 8.5t2 8.5q12 0 53.5 -1.5t67.5 -1.5q20 0 56 1.5t40 1.5q2 -2 2 -8.5t-2 -8.5q-35 -7 -39 -8
q-20 -6 -27 -19.5t-9 -38.5q-6 -84 -8 -395q0 -23 0.5 -71t0.5 -62q-10 1 -36 0.5t-40 -1.5q-19 28 -100.5 136t-169.5 223t-100 130q-1 1 -2.5 1t-1.5 -2q-1 -80 -1 -221.5t2 -177.5q2 -31 12 -44t31 -18q7 -2 53 -8q2 -1 1.5 -8.5t-2.5 -8.5q-7 0 -46 1.5t-66 1.5
q-34 0 -70 -1.5t-41 -1.5q-1 2 -1 8.5t1 8.5q43 6 49 8q17 5 25 17.5t11 42.5q8 79 10 429q0 18 -9 36t-24 26q-26 14 -64 17zM422 705q35 0 68 33q2 2 4 -4q3 -8 2 -12q-11 -20 -43 -42t-58 -22q-17 0 -65 14q-33 9 -43 9q-27 0 -60 -28q-2 -1 -4.5 2.5t-3 7t0.5 5.5
q11 16 40.5 38t50.5 22q19 0 60 -12q36 -11 51 -11z" />
    <glyph glyph-name="Ograve" unicode="&#xd2;" horiz-adv-x="728" 
d="M360 -18q-145 0 -229 92q-84 91 -84 231q0 109 56 188q43 60 113 94.5t154 34.5q147 0 229 -88.5t82 -221.5q0 -121 -59 -202q-43 -63 -112 -95.5t-150 -32.5zM394 10q56 0 94 38q71 68 71 231q0 81 -25 156.5t-74 117.5q-48 42 -115 42q-51 0 -86 -27q-88 -63 -88 -234
q0 -83 26.5 -161.5t80.5 -122.5q50 -40 116 -40zM301 789q6 -3 48.5 -53t55.5 -69q1 -1 -4 -7.5t-7 -6.5q-4 0 -73 38.5t-80 46.5q-1 2 -1 7t1 6q5 7 28 22t32 16z" />
    <glyph glyph-name="Oacute" unicode="&#xd3;" horiz-adv-x="728" 
d="M360 -18q-145 0 -229 92q-84 91 -84 231q0 109 56 188q43 60 113 94.5t154 34.5q147 0 229 -88.5t82 -221.5q0 -121 -59 -202q-43 -63 -112 -95.5t-150 -32.5zM394 10q56 0 94 38q71 68 71 231q0 81 -25 156.5t-74 117.5q-48 42 -115 42q-51 0 -86 -27q-88 -63 -88 -234
q0 -83 26.5 -161.5t80.5 -122.5q50 -40 116 -40zM423 785q9 -1 31.5 -12.5t26.5 -18.5q1 -2 1 -5.5t-1 -4.5q-8 -9 -80.5 -50.5t-77.5 -41.5q-2 0 -6 4.5t-3 8.5q11 16 55.5 65.5t53.5 54.5z" />
    <glyph glyph-name="Ocircumflex" unicode="&#xd4;" horiz-adv-x="728" 
d="M360 -18q-145 0 -229 92q-84 91 -84 231q0 109 56 188q43 60 113 94.5t154 34.5q147 0 229 -88.5t82 -221.5q0 -121 -59 -202q-43 -63 -112 -95.5t-150 -32.5zM394 10q56 0 94 38q71 68 71 231q0 81 -25 156.5t-74 117.5q-48 42 -115 42q-51 0 -86 -27q-88 -63 -88 -234
q0 -83 26.5 -161.5t80.5 -122.5q50 -40 116 -40zM354 765q2 3 11 3q9 -10 59.5 -52.5t70.5 -56.5q0 -3 -3 -8t-5 -5q-4 0 -58 22.5t-67 29.5q-5 3 -9 0q-13 -8 -62 -30t-53 -22q-2 0 -5 5.5t-2 7.5q111 92 123 106z" />
    <glyph glyph-name="Otilde" unicode="&#xd5;" horiz-adv-x="728" 
d="M360 -18q-145 0 -229 92q-84 91 -84 231q0 109 56 188q43 60 113 94.5t154 34.5q147 0 229 -88.5t82 -221.5q0 -121 -59 -202q-43 -63 -112 -95.5t-150 -32.5zM394 10q56 0 94 38q71 68 71 231q0 81 -25 156.5t-74 117.5q-48 42 -115 42q-51 0 -86 -27q-88 -63 -88 -234
q0 -83 26.5 -161.5t80.5 -122.5q50 -40 116 -40zM429 718q35 0 68 33q2 2 4 -4q3 -8 2 -12q-11 -20 -43 -42t-58 -22q-17 0 -65 14q-33 9 -43 9q-27 0 -60 -28q-2 -1 -4.5 2.5t-3 7t0.5 5.5q11 16 40.5 38t50.5 22q19 0 60 -12q36 -11 51 -11z" />
    <glyph glyph-name="Odieresis" unicode="&#xd6;" horiz-adv-x="728" 
d="M360 -18q-145 0 -229 92q-84 91 -84 231q0 109 56 188q43 60 113 94.5t154 34.5q147 0 229 -88.5t82 -221.5q0 -121 -59 -202q-43 -63 -112 -95.5t-150 -32.5zM394 10q56 0 94 38q71 68 71 231q0 81 -25 156.5t-74 117.5q-48 42 -115 42q-51 0 -86 -27q-88 -63 -88 -234
q0 -83 26.5 -161.5t80.5 -122.5q50 -40 116 -40zM326 708q0 -27 -19 -41q-5 -2 -21.5 -3.5t-21.5 0.5q-22 12 -24 34q-2 21 4 30q16 16 47 16q21 0 28 -10q7 -12 7 -26zM484 708q0 -27 -19 -41q-6 -2 -22 -3.5t-22 0.5q-21 11 -23 34q-2 22 5 30q12 16 46 16q18 0 28 -10
q7 -12 7 -26z" />
    <glyph glyph-name="multiply" unicode="&#xd7;" horiz-adv-x="460" 
d="M365 396q6 8 53 10q4 -4 2 -8q-45 -59 -160 -186v-6q116 -131 155 -163q0 -6 -2 -8q-8 -2 -33 1t-33 9q-16 12 -121 125q-4 4 -6 1q-94 -108 -119 -127q-19 -12 -57 -12q-6 3 -3 8q11 9 71.5 74.5t78.5 86.5q3 5 0 8q-102 111 -145 165q0 5 10.5 20t14.5 19q4 2 8 0
q4 -8 63 -76.5t87 -97.5q96 104 136 157z" />
    <glyph glyph-name="Oslash" unicode="&#xd8;" horiz-adv-x="728" 
d="M179 33l-48 -66q-4 -4 -22 8v4l50 68q-53 43 -82.5 112t-29.5 146q0 109 56 188q43 60 113 94.5t154 34.5q97 0 175 -45l41 56q2 2 11.5 0.5t13.5 -3.5v-3l-46 -64q116 -89 116 -251q0 -121 -59 -202q-43 -63 -112 -95.5t-150 -32.5q-103 0 -181 51zM216 124l284 392
q-28 36 -62.5 57.5t-90.5 22.5q-50 0 -87 -27q-91 -65 -91 -235q0 -119 47 -210zM512 491l-283 -391q58 -91 164 -91q55 0 94 37q36 36 55 99.5t19 133.5q0 130 -49 212z" />
    <glyph glyph-name="Ugrave" unicode="&#xd9;" horiz-adv-x="661" 
d="M14 590q-1 2 -1 8.5t2 8.5q3 0 46.5 -1.5t81.5 -1.5q40 0 82.5 1.5t48.5 1.5q2 -1 2 -8t-2 -9q-10 -1 -39 -6q-29 -7 -32 -53q-4 -89 0 -283q1 -79 19 -122q33 -98 160 -98q146 0 160 167q12 123 3 318q-1 37 -11 51t-34 19q-29 6 -42 7q-2 2 -2 8.5t2 8.5q8 0 42 -1.5
t62 -1.5t59.5 1.5t39.5 1.5q2 -2 2 -8.5t-2 -8.5q-34 -7 -36 -8q-20 -5 -27 -19t-8 -52q-7 -256 -10 -290q-16 -239 -243 -239q-217 0 -241 176q-5 30 -6.5 94.5t-1 133t-0.5 145.5q-2 44 -31 52zM292 771q6 -3 48.5 -53t55.5 -69q1 -1 -4 -7.5t-7 -6.5q-4 0 -73 38.5
t-80 46.5q-1 2 -1 7t1 6q5 7 28 22t32 16z" />
    <glyph glyph-name="Uacute" unicode="&#xda;" horiz-adv-x="661" 
d="M14 590q-1 2 -1 8.5t2 8.5q3 0 46.5 -1.5t81.5 -1.5q40 0 82.5 1.5t48.5 1.5q2 -1 2 -8t-2 -9q-10 -1 -39 -6q-29 -7 -32 -53q-4 -89 0 -283q1 -79 19 -122q33 -98 160 -98q146 0 160 167q12 123 3 318q-1 37 -11 51t-34 19q-29 6 -42 7q-2 2 -2 8.5t2 8.5q8 0 42 -1.5
t62 -1.5t59.5 1.5t39.5 1.5q2 -2 2 -8.5t-2 -8.5q-34 -7 -36 -8q-20 -5 -27 -19t-8 -52q-7 -256 -10 -290q-16 -239 -243 -239q-217 0 -241 176q-5 30 -6.5 94.5t-1 133t-0.5 145.5q-2 44 -31 52zM436 771q9 -1 31.5 -12.5t26.5 -18.5q1 -2 1 -5.5t-1 -4.5
q-8 -9 -80.5 -50.5t-77.5 -41.5q-2 0 -6 4.5t-3 8.5q11 16 55.5 65.5t53.5 54.5z" />
    <glyph glyph-name="Ucircumflex" unicode="&#xdb;" horiz-adv-x="661" 
d="M14 590q-1 2 -1 8.5t2 8.5q3 0 46.5 -1.5t81.5 -1.5q40 0 82.5 1.5t48.5 1.5q2 -1 2 -8t-2 -9q-10 -1 -39 -6q-29 -7 -32 -53q-4 -89 0 -283q1 -79 19 -122q33 -98 160 -98q146 0 160 167q12 123 3 318q-1 37 -11 51t-34 19q-29 6 -42 7q-2 2 -2 8.5t2 8.5q8 0 42 -1.5
t62 -1.5t59.5 1.5t39.5 1.5q2 -2 2 -8.5t-2 -8.5q-34 -7 -36 -8q-20 -5 -27 -19t-8 -52q-7 -256 -10 -290q-16 -239 -243 -239q-217 0 -241 176q-5 30 -6.5 94.5t-1 133t-0.5 145.5q-2 44 -31 52zM355 762q1 3 11 3q9 -10 59.5 -52.5t70.5 -56.5q0 -3 -3 -8t-5 -5
q-4 0 -58 22.5t-67 29.5q-5 3 -9 0q-13 -8 -62 -30t-53 -22q-2 0 -5 5.5t-2 7.5q111 92 123 106z" />
    <glyph glyph-name="Udieresis" unicode="&#xdc;" horiz-adv-x="661" 
d="M14 590q-1 2 -1 8.5t2 8.5q3 0 46.5 -1.5t81.5 -1.5q40 0 82.5 1.5t48.5 1.5q2 -1 2 -8t-2 -9q-10 -1 -39 -6q-29 -7 -32 -53q-4 -89 0 -283q1 -79 19 -122q33 -98 160 -98q146 0 160 167q12 123 3 318q-1 37 -11 51t-34 19q-29 6 -42 7q-2 2 -2 8.5t2 8.5q8 0 42 -1.5
t62 -1.5t59.5 1.5t39.5 1.5q2 -2 2 -8.5t-2 -8.5q-34 -7 -36 -8q-20 -5 -27 -19t-8 -52q-7 -256 -10 -290q-16 -239 -243 -239q-217 0 -241 176q-5 30 -6.5 94.5t-1 133t-0.5 145.5q-2 44 -31 52zM327 700q0 -27 -19 -41q-5 -2 -21.5 -3.5t-21.5 0.5q-22 12 -24 34
q-2 21 4 30q16 16 47 16q21 0 28 -10q7 -12 7 -26zM485 700q0 -27 -19 -41q-6 -2 -22 -3.5t-22 0.5q-21 11 -23 34q-2 22 5 30q12 16 46 16q18 0 28 -10q7 -12 7 -26z" />
    <glyph glyph-name="Yacute" unicode="&#xdd;" horiz-adv-x="538" 
d="M-20 590q-2 2 -2 8.5t2 8.5q14 0 58 -1.5t72 -1.5q77 0 122 3q2 -1 2.5 -8t-1.5 -9q-9 -1 -33 -7q-20 -6 -10 -29q16 -34 62 -122.5t61 -114.5q1 -1 2.5 -1t2.5 1q74 123 115 224q7 18 2 27t-23 14q-11 3 -43 8q-2 3 -1 9.5t3 7.5q6 0 44.5 -1.5t58.5 -1.5q12 0 96 3
q2 -1 2 -8t-2 -9q-32 -5 -38 -7q-21 -6 -36 -20t-33 -44q-99 -172 -125 -228q-9 -19 -9 -41q0 -68 2 -168q1 -28 7.5 -42t26.5 -19q21 -5 49 -8q1 -1 0 -8t-2 -8q-14 0 -64 1.5t-79 1.5q-41 0 -83 -1.5t-51 -1.5q-2 1 -2 8t2 8q38 5 52 8q19 4 24.5 18.5t5.5 40.5
q2 47 2 155q0 27 -9 48q-50 106 -117 220q-30 51 -43.5 63.5t-36.5 19.5q-19 4 -33 4zM385 769q9 -1 31.5 -12.5t26.5 -18.5q1 -2 1 -5.5t-1 -4.5q-8 -9 -80.5 -50.5t-77.5 -41.5q-2 0 -6 4.5t-3 8.5q11 16 55.5 65.5t53.5 54.5z" />
    <glyph glyph-name="Thorn" unicode="&#xde;" horiz-adv-x="533" 
d="M24 14q43 6 45 7q17 5 23 16.5t7 38.5q2 35 2 245q0 171 -2 207q-1 25 -7 38t-23 17q-22 6 -40 7q-1 2 -0.5 9t2.5 9q6 0 51.5 -2.5t71.5 -1.5q28 0 71 2t49 2q2 -2 2 -9t-2 -9q-24 -3 -42 -7q-13 -4 -16 -14t-5 -41v-51q1 -7 6 -7q75 3 88 3q91 0 136 -31
q59 -43 59 -127q0 -100 -83 -149q-52 -30 -119 -30q-42 0 -59 7q-3 3 -3 12q0 4 2 6q17 -3 33 -3q39 0 64 15q51 31 51 126q0 149 -137 149q-23 0 -30 -4q-7 -5 -7 -14q-1 -23 -1 -223q0 -71 3 -134q2 -45 33 -51q12 -3 49 -8q2 -2 1.5 -9t-2.5 -8q-11 0 -58 1.5t-74 1.5
q-29 0 -82 -1.5t-57 -1.5q-2 2 -2.5 8.5t2.5 8.5z" />
    <glyph glyph-name="germandbls" unicode="&#xdf;" horiz-adv-x="496" 
d="M70 345l-49 3q-1 4 1 12t4 9q25 4 45 16q0 97 26 152.5t73 93.5q59 48 121 48q61 0 99 -39.5t38 -99.5q0 -31 -19 -63q-17 -25 -68 -76q-21 -21 -21 -29q0 -7 13 -20.5t41 -37t40 -34.5q50 -48 50 -107q0 -104 -117 -169q-31 -16 -62 -16q-36 0 -53 17q-2 22 4 59
q0 2 4 6q50 -41 91 -41q56 0 56 67q0 54 -61 110q-14 13 -45.5 40t-42.5 39q-3 6 -1 28t5 25q36 28 54 47q29 29 41.5 57.5t12.5 75.5q0 49 -28.5 89.5t-70.5 40.5q-45 0 -63 -60.5t-18 -213.5q-1 -122 4 -313q1 -33 17 -40q11 -4 31 -7q2 -2 1.5 -8.5t-2.5 -8.5
q-12 0 -54 1.5t-56 1.5q-15 0 -49.5 -1.5t-48.5 -1.5q-2 2 -2 8.5t2 8.5q20 2 32 6q15 4 19.5 13t4.5 28z" />
    <glyph glyph-name="agrave" unicode="&#xe0;" horiz-adv-x="398" 
d="M234 252q0 33 -15 55q-24 37 -73 37q-33 0 -47 -12q-6 -4 -18 -26t-17 -35q-3 -1 -11 5.5t-8 10.5q0 5 8 26.5t11 24.5q34 25 75.5 43t61.5 18q71 0 106 -55q22 -36 22 -102q0 -25 -1 -79.5t-1 -72.5q0 -44 33 -44q14 0 30 5q0 -18 -5 -23q-36 -40 -93 -40q-43 0 -55 30
q-2 6 -5 19l-4 1q-66 -50 -105 -50q-31 0 -56 23q-35 33 -35 92q0 25 15 52q12 8 87 31t93 31q7 3 7 11v24zM233 193q0 4 -3 4q-89 -31 -95 -37q-8 -8 -8 -36q0 -34 19.5 -55.5t46.5 -21.5q20 0 31 8q8 6 8 21q1 31 1 117zM176 589q9 -14 49 -149q-1 -2 -6.5 -5t-8.5 -2
q-15 16 -55.5 69t-55.5 75q0 4 3 7q7 4 36.5 5.5t37.5 -0.5z" />
    <glyph glyph-name="aacute" unicode="&#xe1;" horiz-adv-x="398" 
d="M234 252q0 33 -15 55q-24 37 -73 37q-33 0 -47 -12q-6 -4 -18 -26t-17 -35q-3 -1 -11 5.5t-8 10.5q0 5 8 26.5t11 24.5q34 25 75.5 43t61.5 18q71 0 106 -55q22 -36 22 -102q0 -25 -1 -79.5t-1 -72.5q0 -44 33 -44q14 0 30 5q0 -18 -5 -23q-36 -40 -93 -40q-43 0 -55 30
q-2 6 -5 19l-4 1q-66 -50 -105 -50q-31 0 -56 23q-35 33 -35 92q0 25 15 52q12 8 87 31t93 31q7 3 7 11v24zM233 193q0 4 -3 4q-89 -31 -95 -37q-8 -8 -8 -36q0 -34 19.5 -55.5t46.5 -21.5q20 0 31 8q8 6 8 21q1 31 1 117zM216 582q5 3 36 5.5t38 0.5q1 -1 2 -4t0 -4
q-3 -6 -118 -148q-3 -1 -8.5 2t-5.5 6q34 95 56 142z" />
    <glyph glyph-name="acircumflex" unicode="&#xe2;" horiz-adv-x="398" 
d="M234 252q0 33 -15 55q-24 37 -73 37q-33 0 -47 -12q-6 -4 -18 -26t-17 -35q-3 -1 -11 5.5t-8 10.5q0 5 8 26.5t11 24.5q34 25 75.5 43t61.5 18q71 0 106 -55q22 -36 22 -102q0 -25 -1 -79.5t-1 -72.5q0 -44 33 -44q14 0 30 5q0 -18 -5 -23q-36 -40 -93 -40q-43 0 -55 30
q-2 6 -5 19l-4 1q-66 -50 -105 -50q-31 0 -56 23q-35 33 -35 92q0 25 15 52q12 8 87 31t93 31q7 3 7 11v24zM233 193q0 4 -3 4q-89 -31 -95 -37q-8 -8 -8 -36q0 -34 19.5 -55.5t46.5 -21.5q20 0 31 8q8 6 8 21q1 31 1 117zM188 529q-40 -69 -59 -84q-13 -9 -29 -9q-2 0 -3 2
t0 3q64 97 87 154q1 2 9.5 5t11.5 3q41 -91 87 -154q-2 -3 -17 -7.5t-21 -4.5q-6 3 -29 37.5t-33 54.5q-2 2 -4 0z" />
    <glyph glyph-name="atilde" unicode="&#xe3;" horiz-adv-x="398" 
d="M234 252q0 33 -15 55q-24 37 -73 37q-33 0 -47 -12q-6 -4 -18 -26t-17 -35q-3 -1 -11 5.5t-8 10.5q0 5 8 26.5t11 24.5q34 25 75.5 43t61.5 18q71 0 106 -55q22 -36 22 -102q0 -25 -1 -79.5t-1 -72.5q0 -44 33 -44q14 0 30 5q0 -18 -5 -23q-36 -40 -93 -40q-43 0 -55 30
q-2 6 -5 19l-4 1q-66 -50 -105 -50q-31 0 -56 23q-35 33 -35 92q0 25 15 52q12 8 87 31t93 31q7 3 7 11v24zM233 193q0 4 -3 4q-89 -31 -95 -37q-8 -8 -8 -36q0 -34 19.5 -55.5t46.5 -21.5q20 0 31 8q8 6 8 21q1 31 1 117zM251 529q34 0 62 29q2 0 3 -2q2 -6 -1 -16
q-10 -20 -38 -41t-52 -21q-20 0 -60 12q-27 8 -41 8q-28 0 -55 -26q-2 -2 -5 3q0 14 4 18q9 16 35 35.5t46 19.5t53 -9q42 -10 49 -10z" />
    <glyph glyph-name="adieresis" unicode="&#xe4;" horiz-adv-x="398" 
d="M234 252q0 33 -15 55q-24 37 -73 37q-33 0 -47 -12q-6 -4 -18 -26t-17 -35q-3 -1 -11 5.5t-8 10.5q0 5 8 26.5t11 24.5q34 25 75.5 43t61.5 18q71 0 106 -55q22 -36 22 -102q0 -25 -1 -79.5t-1 -72.5q0 -44 33 -44q14 0 30 5q0 -18 -5 -23q-36 -40 -93 -40q-43 0 -55 30
q-2 6 -5 19l-4 1q-66 -50 -105 -50q-31 0 -56 23q-35 33 -35 92q0 25 15 52q12 8 87 31t93 31q7 3 7 11v24zM233 193q0 4 -3 4q-89 -31 -95 -37q-8 -8 -8 -36q0 -34 19.5 -55.5t46.5 -21.5q20 0 31 8q8 6 8 21q1 31 1 117zM162 533q0 -27 -20 -40q-4 -3 -21 -4.5t-22 0.5
q-22 12 -24 34t4 31q17 17 47 17q23 0 29 -12q7 -8 7 -26zM318 533q0 -27 -19 -40q-4 -3 -21.5 -4.5t-22.5 0.5q-21 13 -23 34q-2 22 4 31q17 17 47 17q20 0 29 -12q6 -9 6 -26z" />
    <glyph glyph-name="aring" unicode="&#xe5;" horiz-adv-x="398" 
d="M234 252q0 33 -15 55q-24 37 -73 37q-33 0 -47 -12q-6 -4 -18 -26t-17 -35q-3 -1 -11 5.5t-8 10.5q0 5 8 26.5t11 24.5q34 25 75.5 43t61.5 18q71 0 106 -55q22 -36 22 -102q0 -25 -1 -79.5t-1 -72.5q0 -44 33 -44q14 0 30 5q0 -18 -5 -23q-36 -40 -93 -40q-43 0 -55 30
q-2 6 -5 19l-4 1q-66 -50 -105 -50q-31 0 -56 23q-35 33 -35 92q0 25 15 52q12 8 87 31t93 31q7 3 7 11v24zM233 193q0 4 -3 4q-89 -31 -95 -37q-8 -8 -8 -36q0 -34 19.5 -55.5t46.5 -21.5q20 0 31 8q8 6 8 21q1 31 1 117zM195 590q30 0 47.5 -20t17.5 -51q0 -33 -19.5 -53
t-49.5 -20q-26 0 -46.5 17t-20.5 53q0 33 19.5 53.5t51.5 20.5zM191 557q-19 0 -30.5 -11t-11.5 -28t13 -27t32 -10q17 0 29.5 10t12.5 25q0 41 -45 41z" />
    <glyph glyph-name="ae" unicode="&#xe6;" horiz-adv-x="598" 
d="M129 -12q-32 0 -62 26q-33 33 -33 89q0 27 12 47q13 9 92.5 32.5t89.5 27.5q5 2 5 9q1 12 1 30q0 33 -12 54q-27 42 -75 42q-28 0 -45 -12q-13 -8 -36 -60q-2 -1 -10.5 5.5t-8.5 8.5q0 4 7.5 26.5t10.5 24.5q34 26 75 43.5t63 17.5q30 0 57.5 -14t42.5 -38h2
q24 21 59 36.5t64 15.5q33 0 58 -12t39 -31.5t20.5 -34t10.5 -29.5q3 -7 16 -11q0 -11 -5 -14q-59 -19 -234 -60q-5 0 -5 -8q2 -56 37 -98q39 -47 98 -47q62 0 111 43q2 -2 4 -8.5t1 -8.5q-31 -43 -77.5 -67.5t-94.5 -24.5q-87 0 -138 66q-3 2 -5 0q-80 -64 -135 -66z
M388 368q-31 0 -49 -34.5t-14 -98.5q0 -2 1.5 -4t3.5 -1q82 17 131 32q5 2 5 9q-4 38 -25.5 67.5t-52.5 29.5zM233 185q0 5 -4 3q-11 -4 -33.5 -10.5t-38 -11.5t-20.5 -9q-9 -9 -9 -35q0 -33 20.5 -52.5t48.5 -19.5q33 0 57 20q3 2 2 5q-23 51 -23 110z" />
    <glyph glyph-name="ccedilla" unicode="&#xe7;" horiz-adv-x="391" 
d="M376 74q-57 -72 -135 -83l-20 -26q25 -13 42 -29q20 -18 20 -42q0 -36 -35 -62t-62 -26q-30 0 -47 28q-3 9 3 15q32 -16 59 -16q36 0 36 31q0 34 -67 58q-1 5 0 7q29 36 48 59h-6q-87 0 -137 63q-42 52 -42 137q0 51 24.5 97t70.5 72q27 17 66.5 29.5t70.5 12.5
q45 0 75 -12q25 -10 33 -26q0 -11 -2 -15q-4 -12 -17 -27.5t-22 -20.5q-4 -2 -9 0q-17 19 -27 29t-34.5 24.5t-47.5 14.5q-39 0 -61.5 -36t-22.5 -95q0 -75 33 -121q39 -56 112 -56q60 0 100 40q3 0 4 -3q0 -12 -3 -21z" />
    <glyph glyph-name="egrave" unicode="&#xe8;" horiz-adv-x="405" 
d="M379 98q4 0 4 -3q2 -11 -2 -19q-76 -88 -168 -88q-78 0 -125 47q-55 58 -55 159q0 58 24.5 103t65.5 70q48 32 109 32q35 0 62 -13.5t42.5 -35.5t24.5 -44t12 -45q2 -6 13 -8q1 -2 -0.5 -8t-3.5 -7q-35 -11 -246 -23q-4 0 -4 -9q0 -57 36 -101q37 -46 104 -46
q64 0 107 39zM201 373q-29 0 -48 -33.5t-20 -91.5q0 -5 3 -5q18 -1 69 1t64 5q5 3 5 9q-3 48 -22 81.5t-51 33.5zM197 590q9 -14 49 -149q-1 -2 -6.5 -5t-8.5 -2q-15 16 -55.5 69t-55.5 75q0 4 3 7q7 4 36.5 5.5t37.5 -0.5z" />
    <glyph glyph-name="eacute" unicode="&#xe9;" horiz-adv-x="405" 
d="M379 98q4 0 4 -3q2 -11 -2 -19q-76 -88 -168 -88q-78 0 -125 47q-55 58 -55 159q0 58 24.5 103t65.5 70q48 32 109 32q35 0 62 -13.5t42.5 -35.5t24.5 -44t12 -45q2 -6 13 -8q1 -2 -0.5 -8t-3.5 -7q-35 -11 -246 -23q-4 0 -4 -9q0 -57 36 -101q37 -46 104 -46
q64 0 107 39zM201 373q-29 0 -48 -33.5t-20 -91.5q0 -5 3 -5q18 -1 69 1t64 5q5 3 5 9q-3 48 -22 81.5t-51 33.5zM239 584q5 3 36 5.5t38 0.5q1 -1 2 -4t0 -4q-3 -6 -118 -148q-3 -1 -8.5 2t-5.5 6q34 95 56 142z" />
    <glyph glyph-name="ecircumflex" unicode="&#xea;" horiz-adv-x="405" 
d="M379 98q4 0 4 -3q2 -11 -2 -19q-76 -88 -168 -88q-78 0 -125 47q-55 58 -55 159q0 58 24.5 103t65.5 70q48 32 109 32q35 0 62 -13.5t42.5 -35.5t24.5 -44t12 -45q2 -6 13 -8q1 -2 -0.5 -8t-3.5 -7q-35 -11 -246 -23q-4 0 -4 -9q0 -57 36 -101q37 -46 104 -46
q64 0 107 39zM201 373q-29 0 -48 -33.5t-20 -91.5q0 -5 3 -5q18 -1 69 1t64 5q5 3 5 9q-3 48 -22 81.5t-51 33.5zM214 529q-40 -69 -59 -84q-13 -9 -29 -9q-2 0 -3 2t0 3q64 97 87 154q1 2 9.5 5t11.5 3q41 -91 87 -154q-2 -3 -17 -7.5t-21 -4.5q-6 3 -29 37.5t-33 54.5
q-2 2 -4 0z" />
    <glyph glyph-name="edieresis" unicode="&#xeb;" horiz-adv-x="405" 
d="M379 98q4 0 4 -3q2 -11 -2 -19q-76 -88 -168 -88q-78 0 -125 47q-55 58 -55 159q0 58 24.5 103t65.5 70q48 32 109 32q35 0 62 -13.5t42.5 -35.5t24.5 -44t12 -45q2 -6 13 -8q1 -2 -0.5 -8t-3.5 -7q-35 -11 -246 -23q-4 0 -4 -9q0 -57 36 -101q37 -46 104 -46
q64 0 107 39zM201 373q-29 0 -48 -33.5t-20 -91.5q0 -5 3 -5q18 -1 69 1t64 5q5 3 5 9q-3 48 -22 81.5t-51 33.5zM181 533q0 -27 -20 -40q-4 -3 -21 -4.5t-22 0.5q-22 12 -24 34t4 31q17 17 47 17q23 0 29 -12q7 -8 7 -26zM337 533q0 -27 -19 -40q-4 -3 -21.5 -4.5
t-22.5 0.5q-21 13 -23 34q-2 22 4 31q17 17 47 17q20 0 29 -12q6 -9 6 -26z" />
    <glyph glyph-name="igrave" unicode="&#xec;" horiz-adv-x="238" 
d="M227 14q0 -15 -3 -17q-11 0 -46 1.5t-56 1.5q-29 0 -64 -1.5t-42 -1.5q-2 1 -2 8.5t2 8.5q22 2 34 7q18 6 19 42q2 46 2 150q0 80 -2 95q0 17 -7 26q-9 9 -34 17q-1 1 -1 8t1 9q25 1 71 10.5t75 23.5q0 -8 -1 -72t-1 -97q0 -129 1 -173q1 -32 20 -39q17 -5 34 -7zM96 587
q9 -14 49 -149q-1 -2 -6.5 -5t-8.5 -2q-15 16 -55.5 69t-55.5 75q0 4 3 7q7 4 36.5 5.5t37.5 -0.5z" />
    <glyph glyph-name="iacute" unicode="&#xed;" horiz-adv-x="238" 
d="M227 14q0 -15 -3 -17q-11 0 -46 1.5t-56 1.5q-29 0 -64 -1.5t-42 -1.5q-2 1 -2 8.5t2 8.5q22 2 34 7q18 6 19 42q2 46 2 150q0 80 -2 95q0 17 -7 26q-9 9 -34 17q-1 1 -1 8t1 9q25 1 71 10.5t75 23.5q0 -8 -1 -72t-1 -97q0 -129 1 -173q1 -32 20 -39q17 -5 34 -7z
M146 582q5 3 36 5.5t38 0.5q1 -1 2 -4t0 -4q-3 -6 -118 -148q-3 -1 -8.5 2t-5.5 6q34 95 56 142z" />
    <glyph glyph-name="icircumflex" unicode="&#xee;" horiz-adv-x="238" 
d="M227 14q0 -15 -3 -17q-11 0 -46 1.5t-56 1.5q-29 0 -64 -1.5t-42 -1.5q-2 1 -2 8.5t2 8.5q22 2 34 7q18 6 19 42q2 46 2 150q0 80 -2 95q0 17 -7 26q-9 9 -34 17q-1 1 -1 8t1 9q25 1 71 10.5t75 23.5q0 -8 -1 -72t-1 -97q0 -129 1 -173q1 -32 20 -39q17 -5 34 -7z
M112 529q-40 -69 -59 -84q-13 -9 -29 -9q-2 0 -3 2t0 3q64 97 87 154q1 2 9.5 5t11.5 3q41 -91 87 -154q-2 -3 -17 -7.5t-21 -4.5q-6 3 -29 37.5t-33 54.5q-2 2 -4 0z" />
    <glyph glyph-name="idieresis" unicode="&#xef;" horiz-adv-x="238" 
d="M227 14q0 -15 -3 -17q-11 0 -46 1.5t-56 1.5q-29 0 -64 -1.5t-42 -1.5q-2 1 -2 8.5t2 8.5q22 2 34 7q18 6 19 42q2 46 2 150q0 80 -2 95q0 17 -7 26q-9 9 -34 17q-1 1 -1 8t1 9q25 1 71 10.5t75 23.5q0 -8 -1 -72t-1 -97q0 -129 1 -173q1 -32 20 -39q17 -5 34 -7zM82 533
q0 -27 -20 -40q-4 -3 -21 -4.5t-22 0.5q-22 12 -24 34t4 31q17 17 47 17q23 0 29 -12q7 -8 7 -26zM238 533q0 -27 -19 -40q-4 -3 -21.5 -4.5t-22.5 0.5q-21 13 -23 34q-2 22 4 31q17 17 47 17q20 0 29 -12q6 -9 6 -26z" />
    <glyph glyph-name="eth" unicode="&#xf0;" horiz-adv-x="468" 
d="M248 10q37 0 60 49.5t23 144.5q0 82 -16 117q-29 56 -89 56q-33 0 -58 -39.5t-25 -114.5q0 -100 30 -156.5t75 -56.5zM409 581l-82 -39q49 -57 78 -132.5t29 -155.5q0 -173 -107 -240q-41 -25 -103 -25q-93 0 -142 59t-49 146q0 108 84 166q55 39 128 39q31 0 65 -9
q-14 68 -53 122l-109 -49q-2 0 -3 11.5t1 12.5l98 46q-66 91 -182 130q-1 1 1.5 8t4.5 8q44 -3 115 -35t126 -83l99 44q1 0 2 -5.5t0.5 -11.5t-1.5 -7z" />
    <glyph glyph-name="ntilde" unicode="&#xf1;" horiz-adv-x="490" 
d="M19 14q13 2 30 6q19 6 20 41q2 31 2 151q0 79 -2 97q-1 7 -3 11.5t-12.5 12t-28.5 13.5q0 12 3 15q92 10 145 41q3 -3 3 -6q-1 -11 -4 -58q0 -2 1.5 -3t2.5 1q80 63 131 63q63 0 94 -53q23 -37 23 -114q0 -169 1 -185q0 -12 9 -18q20 -12 43 -15q0 -13 -4 -17
q-2 0 -30.5 1.5t-63.5 1.5q-22 0 -109 -3q-1 2 -1 9t1 8q17 2 30 6q11 3 15 10.5t6 24.5q2 25 1.5 107.5t-5.5 108.5q-8 37 -29 53q-18 14 -48 14q-33 0 -59 -20q-9 -7 -9 -22q0 -193 2 -235q1 -22 6 -30t16 -10q14 -5 33 -7q1 -2 0.5 -8.5t-1.5 -8.5q-90 3 -109 3
q-40 0 -100 -3q-1 2 -1 8t1 9zM307 529q34 0 62 29q2 0 3 -2q2 -6 -1 -16q-10 -20 -38 -41t-52 -21q-20 0 -60 12q-27 8 -41 8q-28 0 -55 -26q-2 -2 -5 3q0 14 4 18q9 16 35 35.5t46 19.5t53 -9q42 -10 49 -10z" />
    <glyph glyph-name="ograve" unicode="&#xf2;" horiz-adv-x="478" 
d="M248 399q91 0 144 -56t53 -144q0 -121 -92 -178q-49 -33 -116 -33q-100 0 -152 60.5t-52 148.5q0 107 87 165q56 37 128 37zM223 374q-22 0 -37 -13q-42 -33 -42 -140q0 -97 31 -152.5t81 -55.5q27 0 42 15q35 35 35 141q0 90 -28.5 147.5t-81.5 57.5zM216 587
q9 -14 49 -149q-1 -2 -6.5 -5t-8.5 -2q-15 16 -55.5 69t-55.5 75q0 4 3 7q7 4 36.5 5.5t37.5 -0.5z" />
    <glyph glyph-name="oacute" unicode="&#xf3;" horiz-adv-x="478" 
d="M248 399q91 0 144 -56t53 -144q0 -121 -92 -178q-49 -33 -116 -33q-100 0 -152 60.5t-52 148.5q0 107 87 165q56 37 128 37zM223 374q-22 0 -37 -13q-42 -33 -42 -140q0 -97 31 -152.5t81 -55.5q27 0 42 15q35 35 35 141q0 90 -28.5 147.5t-81.5 57.5zM260 582
q5 3 36 5.5t38 0.5q1 -1 2 -4t0 -4q-3 -6 -118 -148q-3 -1 -8.5 2t-5.5 6q34 95 56 142z" />
    <glyph glyph-name="ocircumflex" unicode="&#xf4;" horiz-adv-x="478" 
d="M248 399q91 0 144 -56t53 -144q0 -121 -92 -178q-49 -33 -116 -33q-100 0 -152 60.5t-52 148.5q0 107 87 165q56 37 128 37zM223 374q-22 0 -37 -13q-42 -33 -42 -140q0 -97 31 -152.5t81 -55.5q27 0 42 15q35 35 35 141q0 90 -28.5 147.5t-81.5 57.5zM228 529
q-40 -69 -59 -84q-13 -9 -29 -9q-2 0 -3 2t0 3q64 97 87 154q1 2 9.5 5t11.5 3q41 -91 87 -154q-2 -3 -17 -7.5t-21 -4.5q-6 3 -29 37.5t-33 54.5q-2 2 -4 0z" />
    <glyph glyph-name="otilde" unicode="&#xf5;" horiz-adv-x="478" 
d="M248 399q91 0 144 -56t53 -144q0 -121 -92 -178q-49 -33 -116 -33q-100 0 -152 60.5t-52 148.5q0 107 87 165q56 37 128 37zM223 374q-22 0 -37 -13q-42 -33 -42 -140q0 -97 31 -152.5t81 -55.5q27 0 42 15q35 35 35 141q0 90 -28.5 147.5t-81.5 57.5zM301 529
q34 0 62 29q2 0 3 -2q2 -6 -1 -16q-10 -20 -38 -41t-52 -21q-20 0 -60 12q-27 8 -41 8q-28 0 -55 -26q-2 -2 -5 3q0 14 4 18q9 16 35 35.5t46 19.5t53 -9q42 -10 49 -10z" />
    <glyph glyph-name="odieresis" unicode="&#xf6;" horiz-adv-x="478" 
d="M248 399q91 0 144 -56t53 -144q0 -121 -92 -178q-49 -33 -116 -33q-100 0 -152 60.5t-52 148.5q0 107 87 165q56 37 128 37zM223 374q-22 0 -37 -13q-42 -33 -42 -140q0 -97 31 -152.5t81 -55.5q27 0 42 15q35 35 35 141q0 90 -28.5 147.5t-81.5 57.5zM202 533
q0 -27 -20 -40q-4 -3 -21 -4.5t-22 0.5q-22 12 -24 34t4 31q17 17 47 17q23 0 29 -12q7 -8 7 -26zM358 533q0 -27 -19 -40q-4 -3 -21.5 -4.5t-22.5 0.5q-21 13 -23 34q-2 22 4 31q17 17 47 17q20 0 29 -12q6 -9 6 -26z" />
    <glyph glyph-name="divide" unicode="&#xf7;" horiz-adv-x="460" 
d="M268 364q0 -23 -20 -45q-3 -3 -19 -5t-23 3q-17 12 -17 33q-1 3 1.5 13.5t4.5 12.5q16 14 41 14q21 0 26 -7q6 -8 6 -19zM412 200l-375 -2q-2 1 -2 8q2 16 12 39q4 -1 97 -1h280q3 -2 3 -8q-6 -34 -15 -36zM268 106q0 -25 -14 -40q-3 -3 -20 -5.5t-25 1.5q-20 15 -20 34
q-1 3 1.5 13t4.5 12q12 14 41 14q21 0 26 -7q6 -8 6 -22z" />
    <glyph glyph-name="oslash" unicode="&#xf8;" horiz-adv-x="478" 
d="M248 399q50 0 93 -19l26 42q1 1 9 -5.5t9 -8.5l-25 -39q85 -54 85 -170q0 -121 -92 -178q-49 -33 -116 -33q-64 0 -109 25l-28 -43q-2 0 -9.5 6t-8.5 8l27 42q-76 58 -76 171q0 107 87 165q56 37 128 37zM255 12q82 0 82 157q0 81 -22 131l-145 -223q26 -65 85 -65z
M228 374q-43 0 -65.5 -42t-22.5 -111q0 -74 20 -117l143 222q-26 48 -75 48z" />
    <glyph glyph-name="ugrave" unicode="&#xf9;" horiz-adv-x="475" 
d="M9 361q-3 11 3 17q108 3 158 16q-6 -26 -6 -170q0 -102 5 -121q12 -51 70 -51q35 0 58 19q8 6 10 22q1 12 0.5 98t-1.5 131q0 24 -18 30q-10 3 -55 9q-1 3 0 9t2 8q98 0 176 14q-2 -40 -2 -110v-194q1 -41 23 -41q15 -1 33 0q0 -15 -3 -18q-113 -40 -148 -44q-5 5 -6 8
q-2 22 -2 57q0 2 -2 2.5t-3 -0.5q-72 -63 -127 -63q-112 0 -112 126q0 177 -1 201q-1 19 -3.5 26.5t-13.5 11.5q-7 3 -35 7zM212 587q9 -14 49 -149q-1 -2 -6.5 -5t-8.5 -2q-15 16 -55.5 69t-55.5 75q0 4 3 7q7 4 36.5 5.5t37.5 -0.5z" />
    <glyph glyph-name="uacute" unicode="&#xfa;" horiz-adv-x="475" 
d="M9 361q-3 11 3 17q108 3 158 16q-6 -26 -6 -170q0 -102 5 -121q12 -51 70 -51q35 0 58 19q8 6 10 22q1 12 0.5 98t-1.5 131q0 24 -18 30q-10 3 -55 9q-1 3 0 9t2 8q98 0 176 14q-2 -40 -2 -110v-194q1 -41 23 -41q15 -1 33 0q0 -15 -3 -18q-113 -40 -148 -44q-5 5 -6 8
q-2 22 -2 57q0 2 -2 2.5t-3 -0.5q-72 -63 -127 -63q-112 0 -112 126q0 177 -1 201q-1 19 -3.5 26.5t-13.5 11.5q-7 3 -35 7zM262 582q5 3 36 5.5t38 0.5q1 -1 2 -4t0 -4q-3 -6 -118 -148q-3 -1 -8.5 2t-5.5 6q34 95 56 142z" />
    <glyph glyph-name="ucircumflex" unicode="&#xfb;" horiz-adv-x="475" 
d="M9 361q-3 11 3 17q108 3 158 16q-6 -26 -6 -170q0 -102 5 -121q12 -51 70 -51q35 0 58 19q8 6 10 22q1 12 0.5 98t-1.5 131q0 24 -18 30q-10 3 -55 9q-1 3 0 9t2 8q98 0 176 14q-2 -40 -2 -110v-194q1 -41 23 -41q15 -1 33 0q0 -15 -3 -18q-113 -40 -148 -44q-5 5 -6 8
q-2 22 -2 57q0 2 -2 2.5t-3 -0.5q-72 -63 -127 -63q-112 0 -112 126q0 177 -1 201q-1 19 -3.5 26.5t-13.5 11.5q-7 3 -35 7zM227 529q-40 -69 -59 -84q-13 -9 -29 -9q-5 0 -3 5q64 97 87 154q1 2 9.5 5t11.5 3q41 -91 87 -154q-2 -3 -17 -7.5t-21 -4.5q-6 3 -29 37.5
t-33 54.5q-2 2 -4 0z" />
    <glyph glyph-name="udieresis" unicode="&#xfc;" horiz-adv-x="475" 
d="M9 361q-3 11 3 17q108 3 158 16q-6 -26 -6 -170q0 -102 5 -121q12 -51 70 -51q35 0 58 19q8 6 10 22q1 12 0.5 98t-1.5 131q0 24 -18 30q-10 3 -55 9q-1 3 0 9t2 8q98 0 176 14q-2 -40 -2 -110v-194q1 -41 23 -41q15 -1 33 0q0 -15 -3 -18q-113 -40 -148 -44q-5 5 -6 8
q-2 22 -2 57q0 2 -2 2.5t-3 -0.5q-72 -63 -127 -63q-112 0 -112 126q0 177 -1 201q-1 19 -3.5 26.5t-13.5 11.5q-7 3 -35 7zM198 533q0 -27 -20 -40q-4 -3 -21 -4.5t-22 0.5q-22 12 -24 34t4 31q17 17 47 17q23 0 29 -12q7 -8 7 -26zM354 533q0 -27 -19 -40
q-4 -3 -21.5 -4.5t-22.5 0.5q-21 13 -23 34q-2 22 4 31q17 17 47 17q20 0 29 -12q6 -9 6 -26z" />
    <glyph glyph-name="yacute" unicode="&#xfd;" horiz-adv-x="415" 
d="M-6 371q-1 2 0.5 9t2.5 8q1 0 33.5 -1.5t70.5 -1.5q36 0 99 3q1 -2 1.5 -8.5t-0.5 -8.5q-28 -6 -31 -8q-10 -4 -7 -17q8 -28 42 -112t48 -116h2q22 48 46 116.5t27 93.5q0 7 0.5 13t-4.5 11.5t-15 8.5q-18 6 -45 10q-1 3 0 9.5t2 7.5q7 0 36.5 -1.5t48.5 -1.5q21 0 84 3
q1 -2 1 -8t-1 -9q-30 -5 -39 -11q-20 -11 -34 -52q-98 -265 -236 -508q-6 -11 -19 -31t-15 -25l-6 -3q-37 8 -46 27q-3 8 0 11q106 126 153 221q-3 4 -12 25l-98 242q-24 57 -34 74t-26 23q-14 5 -29 7zM265 582q5 3 36 5.5t38 0.5q1 -1 2 -4t0 -4q-3 -6 -118 -148
q-3 -1 -8.5 2t-5.5 6q34 95 56 142z" />
    <glyph glyph-name="thorn" unicode="&#xfe;" horiz-adv-x="478" 
d="M0 -244q26 5 40 11q18 6 21 46q3 76 2 449q0 296 -5 331q-2 13 -5.5 18.5t-13.5 9.5q-15 5 -39 7q-2 8 1 17q37 2 89.5 12t80.5 22q3 0 3 -8q-10 -19 -10 -152v-65v-59.5v-40.5q0 -4 5 -2q86 47 127 47q65 0 107 -49q41 -47 41 -124q0 -115 -87 -179q-26 -20 -74 -38
t-85 -21q-26 0 -33 1q0 -142 2 -179q1 -29 26 -36q36 -6 50 -7q1 -1 0 -9t-2 -9h-29q-94 -1 -212 -12q-1 3 -1 10t1 9zM218 346q-19 0 -45 -12q-8 -2 -8 -14q-4 -154 2 -233q1 -24 15 -38q24 -23 69 -23q34 0 58 28q31 38 31 118q0 86 -34 129q-32 45 -88 45z" />
    <glyph glyph-name="ydieresis" unicode="&#xff;" horiz-adv-x="415" 
d="M-6 371q-1 2 0.5 9t2.5 8q1 0 33.5 -1.5t70.5 -1.5q36 0 99 3q1 -2 1.5 -8.5t-0.5 -8.5q-28 -6 -31 -8q-10 -4 -7 -17q8 -28 42 -112t48 -116h2q22 48 46 116.5t27 93.5q0 7 0.5 13t-4.5 11.5t-15 8.5q-18 6 -45 10q-1 3 0 9.5t2 7.5q7 0 36.5 -1.5t48.5 -1.5q21 0 84 3
q1 -2 1 -8t-1 -9q-30 -5 -39 -11q-20 -11 -34 -52q-98 -265 -236 -508q-6 -11 -19 -31t-15 -25l-6 -3q-37 8 -46 27q-3 8 0 11q106 126 153 221q-3 4 -12 25l-98 242q-24 57 -34 74t-26 23q-14 5 -29 7zM193 533q0 -27 -20 -40q-4 -3 -21 -4.5t-22 0.5q-22 12 -24 34t4 31
q17 17 47 17q23 0 29 -12q7 -8 7 -26zM349 533q0 -27 -19 -40q-4 -3 -21.5 -4.5t-22.5 0.5q-21 13 -23 34q-2 22 4 31q17 17 47 17q20 0 29 -12q6 -9 6 -26z" />
    <glyph glyph-name="uni0100" unicode="&#x100;" horiz-adv-x="564" 
d="M-34 14q51 7 68.5 19.5t36.5 58.5q36 87 94 245.5t79 222.5q9 30 12 46q18 -2 38 -2q21 0 37 2q1 -7 5.5 -23.5t6.5 -23.5q7 -21 42.5 -128t67 -199.5t44.5 -129.5q21 -55 36 -68t64 -20q1 -1 0 -8.5t-2 -8.5q-9 0 -53 1.5t-73 1.5q-37 0 -133 -3q-4 11 0 17q46 10 48 11
q15 7 10 24q-19 63 -61 179q0 2 -2.5 4.5t-4.5 2.5q-10 1 -72 1q-73 0 -85 -1q-7 0 -9 -8q-55 -150 -55 -169q0 -7 0.5 -10.5t2.5 -9.5t8.5 -9.5t16.5 -5.5q39 -8 45 -9q1 -2 0.5 -9t-2.5 -8q-13 0 -51.5 1.5t-62.5 1.5q-21 0 -52 -1.5t-44 -1.5q-2 1 -2 8t2 9zM252 488h-4
q-11 -31 -37 -111t-32 -98q-1 -3 1 -5v-1q10 -1 65 -1q61 0 71 1q3 0 3 5q-38 126 -67 210zM194 704q18 -2 52 -2h165q0 -10 -7 -26.5t-10 -17.5q-15 -3 -179 -3l-37 1q1 7 7.5 26t8.5 22z" />
    <glyph glyph-name="uni0101" unicode="&#x101;" horiz-adv-x="398" 
d="M234 252q0 33 -15 55q-24 37 -73 37q-33 0 -47 -12q-6 -4 -18 -26t-17 -35q-3 -1 -11 5.5t-8 10.5q0 5 8 26.5t11 24.5q34 25 75.5 43t61.5 18q71 0 106 -55q22 -36 22 -102q0 -25 -1 -79.5t-1 -72.5q0 -44 33 -44q14 0 30 5q0 -18 -5 -23q-36 -40 -93 -40q-43 0 -55 30
q-2 6 -5 19l-4 1q-66 -50 -105 -50q-31 0 -56 23q-35 33 -35 92q0 25 15 52q12 8 87 31t93 31q7 3 7 11v24zM233 193q0 4 -3 4q-89 -31 -95 -37q-8 -8 -8 -36q0 -34 19.5 -55.5t46.5 -21.5q20 0 31 8q8 6 8 21q1 31 1 117zM105 540q14 -2 46 -2h65.5h61.5h24q0 -10 -5.5 -28
t-8.5 -19q-13 -2 -165 -2q-29 0 -32 1q1 8 6.5 27.5t7.5 22.5z" />
    <glyph glyph-name="uni0102" unicode="&#x102;" horiz-adv-x="564" 
d="M-34 14q51 7 68.5 19.5t36.5 58.5q36 87 94 245.5t79 222.5q9 30 12 46q18 -2 38 -2q21 0 37 2q1 -7 5.5 -23.5t6.5 -23.5q7 -21 42.5 -128t67 -199.5t44.5 -129.5q21 -55 36 -68t64 -20q1 -1 0 -8.5t-2 -8.5q-9 0 -53 1.5t-73 1.5q-37 0 -133 -3q-4 11 0 17q46 10 48 11
q15 7 10 24q-19 63 -61 179q0 2 -2.5 4.5t-4.5 2.5q-10 1 -72 1q-73 0 -85 -1q-7 0 -9 -8q-55 -150 -55 -169q0 -7 0.5 -10.5t2.5 -9.5t8.5 -9.5t16.5 -5.5q39 -8 45 -9q1 -2 0.5 -9t-2.5 -8q-13 0 -51.5 1.5t-62.5 1.5q-21 0 -52 -1.5t-44 -1.5q-2 1 -2 8t2 9zM252 488h-4
q-11 -31 -37 -111t-32 -98q-1 -3 1 -5v-1q10 -1 65 -1q61 0 71 1q3 0 3 5q-38 126 -67 210zM308 681q51 0 89 46q2 2 8.5 6t9.5 4t3 -3q-16 -43 -52 -70.5t-84 -27.5q-43 0 -71.5 20.5t-28.5 49.5q0 12 25 31q9 2 9 -1q21 -55 92 -55z" />
    <glyph glyph-name="uni0103" unicode="&#x103;" horiz-adv-x="398" 
d="M234 252q0 33 -15 55q-24 37 -73 37q-33 0 -47 -12q-6 -4 -18 -26t-17 -35q-3 -1 -11 5.5t-8 10.5q0 5 8 26.5t11 24.5q34 25 75.5 43t61.5 18q71 0 106 -55q22 -36 22 -102q0 -25 -1 -79.5t-1 -72.5q0 -44 33 -44q14 0 30 5q0 -18 -5 -23q-36 -40 -93 -40q-43 0 -55 30
q-2 6 -5 19l-4 1q-66 -50 -105 -50q-31 0 -56 23q-35 33 -35 92q0 25 15 52q12 8 87 31t93 31q7 3 7 11v24zM233 193q0 4 -3 4q-89 -31 -95 -37q-8 -8 -8 -36q0 -34 19.5 -55.5t46.5 -21.5q20 0 31 8q8 6 8 21q1 31 1 117zM210 507q51 0 82 51q8 12 15 12q4 0 4 -3
q-11 -46 -44.5 -77t-81.5 -31q-37 0 -63 20t-26 53q0 16 32 38q2 1 4.5 0.5t2.5 -1.5q13 -62 75 -62z" />
    <glyph glyph-name="uni0104" unicode="&#x104;" horiz-adv-x="564" 
d="M425 -212q-27 0 -47 17.5t-20 52.5q0 56 105 142q-34 0 -127 -3q-4 11 0 17q46 10 48 11q15 7 10 24q-19 63 -61 179q0 2 -2.5 4.5t-4.5 2.5q-10 1 -72 1q-73 0 -85 -1q-7 0 -9 -8q-55 -150 -55 -169q0 -7 0.5 -10.5t2.5 -9.5t8.5 -9.5t16.5 -5.5q36 -8 45 -9
q1 -2 0.5 -9t-2.5 -8q-13 0 -51.5 1.5t-62.5 1.5q-21 0 -52 -1.5t-44 -1.5q-2 1 -2 8t2 9q51 7 68.5 19.5t36.5 58.5q75 181 173 467q9 29 12 47q18 -2 38 -2q21 0 37 2q2 -12 13 -47q144 -433 153 -457q21 -55 36 -68t64 -20q1 -1 0 -8.5t-2 -8.5q-8 0 -46.5 1.5t-65.5 1.5
q-54 -60 -54 -112q0 -20 12.5 -30.5t30.5 -10.5q22 0 49 16q6 -10 -2 -22q-17 -28 -44 -40.5t-50 -12.5zM252 488h-4q-11 -31 -37 -111t-32 -98q-1 -3 1 -5v-1q10 -1 65 -1q61 0 71 1q3 0 3 5q-38 126 -67 210z" />
    <glyph glyph-name="uni0105" unicode="&#x105;" horiz-adv-x="398" 
d="M234 252q0 33 -15 55q-24 37 -73 37q-33 0 -47 -12q-6 -4 -18 -26t-17 -35q-3 -1 -11 5.5t-8 10.5q0 5 8 26.5t11 24.5q34 25 75.5 43t61.5 18q71 0 106 -55q22 -36 22 -102q0 -25 -1 -79.5t-1 -72.5q0 -44 33 -44q14 0 30 5q0 -18 -5 -23q-18 -21 -43 -31
q-64 -50 -64 -104q0 -38 41 -38q24 0 47 15q4 -11 -2 -21q-17 -27 -42.5 -38.5t-47.5 -11.5q-27 0 -45.5 16t-18.5 50q0 28 29 62t67 62q-55 -5 -69 29q-2 6 -5 19l-4 1q-66 -50 -105 -50q-31 0 -56 23q-35 33 -35 92q0 25 15 52q12 8 87 31t93 31q7 3 7 11v24zM233 193
q0 4 -3 4q-89 -31 -95 -37q-8 -8 -8 -36q0 -34 19.5 -55.5t46.5 -21.5q20 0 31 8q8 6 8 21q1 31 1 117z" />
    <glyph glyph-name="uni0106" unicode="&#x106;" horiz-adv-x="639" 
d="M560 452q-6 50 -17 77.5t-38 42.5q-46 26 -125 26q-95 0 -151 -71.5t-56 -207.5q0 -135 62.5 -219.5t179.5 -84.5q75 0 115 38q37 36 66 95q3 0 9 -3t7 -6q-9 -34 -32 -78.5t-40 -56.5q-70 -22 -149 -22q-165 0 -254.5 83.5t-89.5 242.5q0 85 39.5 157t116.5 113
q83 44 206 44q37 0 111.5 -8.5t78.5 -8.5q-17 -66 -19 -152q-1 -2 -6 -3t-9.5 0t-4.5 2zM450 786q9 -1 31.5 -12.5t26.5 -18.5q1 -1 1 -5t-1 -5q-8 -9 -80.5 -50.5t-77.5 -41.5q-2 0 -6 4.5t-3 8.5q11 16 55.5 65.5t53.5 54.5z" />
    <glyph glyph-name="uni0107" unicode="&#x107;" horiz-adv-x="391" 
d="M376 74q-68 -86 -164 -86q-87 0 -137 63q-42 52 -42 137q0 51 24.5 97t70.5 72q27 17 66.5 29.5t70.5 12.5q45 0 75 -12q25 -10 33 -26q0 -11 -2 -15q-4 -12 -17 -27.5t-22 -20.5q-4 -2 -9 0q-17 19 -27 29t-34.5 24.5t-47.5 14.5q-39 0 -61.5 -36t-22.5 -95
q0 -75 33 -121q39 -56 112 -56q60 0 100 40q3 0 4 -3q0 -12 -3 -21zM258 582q5 3 36 5.5t38 0.5q1 -1 2 -4t0 -4q-3 -6 -118 -148q-3 -1 -8.5 2t-5.5 6q34 95 56 142z" />
    <glyph glyph-name="uni0108" unicode="&#x108;" horiz-adv-x="639" 
d="M560 452q-6 50 -17 77.5t-38 42.5q-46 26 -125 26q-95 0 -151 -71.5t-56 -207.5q0 -135 62.5 -219.5t179.5 -84.5q75 0 115 38q37 36 66 95q3 0 9 -3t7 -6q-9 -34 -32 -78.5t-40 -56.5q-70 -22 -149 -22q-165 0 -254.5 83.5t-89.5 242.5q0 85 39.5 157t116.5 113
q83 44 206 44q37 0 111.5 -8.5t78.5 -8.5q-17 -66 -19 -152q-1 -2 -6 -3t-9.5 0t-4.5 2zM371 771q1 3 11 3q9 -10 59.5 -52.5t70.5 -56.5q0 -3 -3 -8t-5 -5q-4 0 -58 22.5t-67 29.5q-5 3 -9 0q-13 -8 -62 -30t-53 -22q-2 0 -5 5.5t-2 7.5q111 92 123 106z" />
    <glyph glyph-name="uni0109" unicode="&#x109;" horiz-adv-x="391" 
d="M376 74q-68 -86 -164 -86q-87 0 -137 63q-42 52 -42 137q0 51 24.5 97t70.5 72q27 17 66.5 29.5t70.5 12.5q45 0 75 -12q25 -10 33 -26q0 -11 -2 -15q-4 -12 -17 -27.5t-22 -20.5q-4 -2 -9 0q-17 19 -27 29t-34.5 24.5t-47.5 14.5q-39 0 -61.5 -36t-22.5 -95
q0 -75 33 -121q39 -56 112 -56q60 0 100 40q3 0 4 -3q0 -12 -3 -21zM223 529q-40 -69 -59 -84q-13 -9 -29 -9q-5 0 -3 5q64 97 87 154q1 2 9.5 5t11.5 3q41 -91 87 -154q-2 -3 -17 -7.5t-21 -4.5q-6 3 -29 37.5t-33 54.5q-2 2 -4 0z" />
    <glyph glyph-name="uni010A" unicode="&#x10a;" horiz-adv-x="639" 
d="M560 452q-6 50 -17 77.5t-38 42.5q-46 26 -125 26q-95 0 -151 -71.5t-56 -207.5q0 -135 62.5 -219.5t179.5 -84.5q75 0 115 38q37 36 66 95q3 0 9 -3t7 -6q-9 -34 -32 -78.5t-40 -56.5q-70 -22 -149 -22q-165 0 -254.5 83.5t-89.5 242.5q0 85 39.5 157t116.5 113
q83 44 206 44q37 0 111.5 -8.5t78.5 -8.5q-17 -66 -19 -152q-1 -2 -6 -3t-9.5 0t-4.5 2zM436 715q0 -31 -21 -43q-6 -4 -25.5 -6t-24.5 1q-25 13 -27 38t6 35q17 17 52 17q19 0 32 -13q8 -9 8 -29z" />
    <glyph glyph-name="uni010B" unicode="&#x10b;" horiz-adv-x="391" 
d="M376 74q-68 -86 -164 -86q-87 0 -137 63q-42 52 -42 137q0 51 24.5 97t70.5 72q27 17 66.5 29.5t70.5 12.5q45 0 75 -12q25 -10 33 -26q0 -11 -2 -15q-4 -12 -17 -27.5t-22 -20.5q-4 -2 -9 0q-17 19 -27 29t-34.5 24.5t-47.5 14.5q-39 0 -61.5 -36t-22.5 -95
q0 -75 33 -121q39 -56 112 -56q60 0 100 40q3 0 4 -3q0 -12 -3 -21zM286 534q0 -30 -22 -45q-7 -4 -27.5 -6t-25.5 1q-25 14 -29 39q-2 27 6 36q18 18 56 18q21 0 33 -12q9 -12 9 -31z" />
    <glyph glyph-name="uni010C" unicode="&#x10c;" horiz-adv-x="639" 
d="M560 452q-6 50 -17 77.5t-38 42.5q-46 26 -125 26q-95 0 -151 -71.5t-56 -207.5q0 -135 62.5 -219.5t179.5 -84.5q75 0 115 38q37 36 66 95q3 0 9 -3t7 -6q-9 -34 -32 -78.5t-40 -56.5q-70 -22 -149 -22q-165 0 -254.5 83.5t-89.5 242.5q0 85 39.5 157t116.5 113
q83 44 206 44q37 0 111.5 -8.5t78.5 -8.5q-17 -66 -19 -152q-1 -2 -6 -3t-9.5 0t-4.5 2zM386 655q-2 -3 -11 -3q-11 11 -61.5 53.5t-68.5 54.5q0 3 3 8.5t5 5.5q5 0 58 -22.5t67 -29.5q5 -3 9 0q13 8 62 30t53 22q2 0 5 -5.5t2 -8.5q-111 -92 -123 -105z" />
    <glyph glyph-name="uni010D" unicode="&#x10d;" horiz-adv-x="391" 
d="M376 74q-68 -86 -164 -86q-87 0 -137 63q-42 52 -42 137q0 51 24.5 97t70.5 72q27 17 66.5 29.5t70.5 12.5q45 0 75 -12q25 -10 33 -26q0 -11 -2 -15q-4 -12 -17 -27.5t-22 -20.5q-4 -2 -9 0q-17 19 -27 29t-34.5 24.5t-47.5 14.5q-39 0 -61.5 -36t-22.5 -95
q0 -75 33 -121q39 -56 112 -56q60 0 100 40q3 0 4 -3q0 -12 -3 -21zM237 506q43 73 59 85q10 9 29 9q5 0 3 -4q-67 -105 -87 -155q-1 -3 -9 -6t-12 -3q-20 45 -48 93t-39 62q2 4 17.5 8.5t20.5 3.5q6 -3 28.5 -37.5t32.5 -55.5q3 -2 5 0z" />
    <glyph glyph-name="uni010E" unicode="&#x10e;" horiz-adv-x="688" 
d="M19 590q-1 2 -0.5 9t2.5 8q63 -3 129 -3q32 0 90.5 2t98.5 2q129 0 206 -64q96 -81 96 -229q0 -152 -103 -241q-95 -81 -256 -81q-33 0 -106 2t-118 2h-45q-1 1 -1 8.5t1 8.5q42 4 58 9q23 7 27 46q4 48 4 263q0 149 -4 205q-2 21 -6.5 29t-18.5 14q-17 6 -54 10zM215 79
q0 -19 15 -33q31 -26 101 -26q76 0 121 55q67 81 67 225q0 77 -27 143.5t-79 102.5q-55 37 -149 37q-31 0 -43 -6q-6 -3 -8 -17q-2 -41 -2 -257q0 -183 4 -224zM315 648q-1 -3 -11 -3q-11 11 -61.5 53.5t-68.5 54.5q0 3 3 8.5t5 5.5q5 0 58 -22.5t67 -29.5q5 -3 9 0
q13 8 62 30t53 22q2 0 5 -5.5t2 -8.5q-111 -92 -123 -105z" />
    <glyph glyph-name="uni010F" unicode="&#x10f;" horiz-adv-x="484" 
d="M474 44q0 -12 -4 -16q-22 -11 -77 -28t-69 -18q-4 0 -7 10q-1 7 -1 50q0 4 -4 2q-84 -55 -134 -55q-62 0 -102 51q-43 51 -43 140q0 46 19.5 89.5t52.5 69.5q31 24 81.5 42t91.5 18q18 0 34 -2q5 0 5 4q0 150 -3 189q-4 30 -21 37q-22 7 -46 10q-1 2 -0.5 8t2.5 8
q43 0 96.5 8t80.5 18q3 -1 3 -8q-8 -15 -10 -114q-1 -57 -1 -264q0 -131 2 -199q1 -31 5.5 -40t12.5 -10h36zM226 369q-34 0 -57 -26q-32 -37 -32 -113q0 -82 35 -131t89 -49q29 0 46 13q9 5 9 15q5 146 0 218q-2 33 -27 53q-27 20 -63 20zM532 683q6 0 6 -13q1 -24 -5 -86
t-12 -90q-2 -5 -9.5 -14.5t-12.5 -12.5q-5 -2 -5 3q0 79 -12 167q0 5 3 8q6 8 23 23t24 15z" />
    <glyph glyph-name="uni0110" unicode="&#x110;" horiz-adv-x="688" 
d="M19 590q-1 2 -0.5 9t2.5 8q63 -3 129 -3q32 0 90.5 2t98.5 2q129 0 206 -64q96 -81 96 -229q0 -152 -103 -241q-95 -81 -256 -81q-33 0 -106 2t-118 2h-45q-1 1 -1 8.5t1 8.5q42 4 58 9q23 7 27 46q4 45 4 234q-72 -2 -80 -2q0 20 6 26h74q0 155 -4 210q-2 21 -6.5 29
t-18.5 14q-17 6 -54 10zM215 79q0 -19 15 -33q31 -26 101 -26q76 0 121 55q67 81 67 225q0 77 -27 143.5t-79 102.5q-55 37 -149 37q-31 0 -43 -6q-6 -3 -8 -17q-2 -39 -2 -233q31 0 67 0.5t61 0.5h28q0 -16 -4 -26q-26 0 -76.5 0.5t-75.5 0.5q0 -184 4 -224z" />
    <glyph glyph-name="uni0111" unicode="&#x111;" horiz-adv-x="495" 
d="M33 180q0 46 19.5 90t52.5 69q31 25 82.5 42.5t93.5 17.5q23 0 31 -1q5 0 5 4v99q-57 -1 -105 -1q0 19 7 26h98q0 45 -2 66q-2 27 -21 35q-11 4 -47 10q-2 3 2 16q42 0 95.5 8t81.5 18q2 -1 4 -7q-11 -22 -12 -109v-38q20 0 40.5 0.5t21.5 0.5q0 -16 -4 -26q-3 0 -25 0.5
t-33 0.5v-208q0 -180 2 -214q2 -31 5.5 -39t11.5 -9q17 -2 48 0q0 -12 -4 -16q-22 -9 -79.5 -20.5t-77.5 -12.5q-4 0 -7 10q-1 7 -1 49q0 1 -2 2t-3 0q-32 -22 -71 -38t-63 -16q-62 0 -102 51q-42 51 -42 140zM226 369q-33 0 -57 -27q-32 -35 -32 -112q0 -81 35 -131t89 -50
q27 0 46 13q9 7 9 15q5 147 0 219q-2 36 -28 55q-26 18 -62 18z" />
    <glyph glyph-name="uni0112" unicode="&#x112;" horiz-adv-x="520" 
d="M25 591q-1 2 -1 8t2 8q10 0 55.5 -1.5t73.5 -1.5h186q87 0 114 4q2 0 2 -3q-11 -44 -17 -139q-2 -2 -8.5 -2t-8.5 1q-5 49 -19 76q-12 27 -42 30q-17 2 -71.5 2t-68.5 -2q-10 -2 -10 -15q-1 -57 -1 -223q0 -8 4 -8q131 0 146 1q19 1 28 11t15 30q1 2 8 31q2 2 9 2t8 -2
q0 -3 -2.5 -36.5t-2.5 -54.5q0 -15 1 -46t1 -44q-2 -2 -8.5 -2t-8.5 1q-5 25 -8 36q-11 33 -40 35q-15 1 -69.5 2t-75.5 0q-5 0 -5 -8q0 -153 1 -212q0 -29 21 -33q30 -6 112 -6q30 0 48 3t25 7t17 14q25 25 56 98q2 1 8 -1.5t7 -4.5q-2 -17 -15.5 -67t-22.5 -70
q-5 -8 -14.5 -10.5t-42.5 -2.5q-37 0 -119.5 2t-135.5 2q-30 0 -80 -1.5t-73 -1.5q-1 2 -1 8.5t1 8.5q52 6 65 9q16 5 22.5 17t7.5 39q3 43 3 256q0 171 -3 200q-2 25 -6.5 33.5t-21.5 14.5q-22 5 -45 8zM166 718q18 -2 52 -2h165q0 -10 -7 -26.5t-10 -17.5q-15 -3 -179 -3
l-37 1q1 7 7.5 26t8.5 22z" />
    <glyph glyph-name="uni0113" unicode="&#x113;" horiz-adv-x="405" 
d="M379 98q4 0 4 -3q2 -11 -2 -19q-76 -88 -168 -88q-78 0 -125 47q-55 58 -55 159q0 58 24.5 103t65.5 70q48 32 109 32q35 0 62 -13.5t42.5 -35.5t24.5 -44t12 -45q2 -6 13 -8q1 -2 -0.5 -8t-3.5 -7q-35 -11 -246 -23q-4 0 -4 -9q0 -57 36 -101q37 -46 104 -46
q64 0 107 39zM201 373q-29 0 -48 -33.5t-20 -91.5q0 -5 3 -5q18 -1 69 1t64 5q5 3 5 9q-3 48 -22 81.5t-51 33.5zM130 540q14 -2 46 -2h151q0 -10 -5.5 -28t-8.5 -19q-13 -2 -165 -2q-29 0 -32 1q1 8 6.5 27.5t7.5 22.5z" />
    <glyph glyph-name="uni0114" unicode="&#x114;" horiz-adv-x="520" 
d="M25 591q-1 2 -1 8t2 8q10 0 55.5 -1.5t73.5 -1.5h186q87 0 114 4q2 0 2 -3q-11 -44 -17 -139q-2 -2 -8.5 -2t-8.5 1q-5 49 -19 76q-12 27 -42 30q-17 2 -71.5 2t-68.5 -2q-10 -2 -10 -15q-1 -57 -1 -223q0 -8 4 -8q131 0 146 1q19 1 28 11t15 30q1 2 8 31q2 2 9 2t8 -2
q0 -3 -2.5 -36.5t-2.5 -54.5q0 -15 1 -46t1 -44q-2 -2 -8.5 -2t-8.5 1q-5 25 -8 36q-11 33 -40 35q-15 1 -69.5 2t-75.5 0q-5 0 -5 -8q0 -153 1 -212q0 -29 21 -33q30 -6 112 -6q30 0 48 3t25 7t17 14q25 25 56 98q2 1 8 -1.5t7 -4.5q-2 -17 -15.5 -67t-22.5 -70
q-5 -8 -14.5 -10.5t-42.5 -2.5q-37 0 -119.5 2t-135.5 2q-30 0 -80 -1.5t-73 -1.5q-1 2 -1 8.5t1 8.5q52 6 65 9q16 5 22.5 17t7.5 39q3 43 3 256q0 171 -3 200q-2 25 -6.5 33.5t-21.5 14.5q-22 5 -45 8zM283 692q51 0 89 46q2 2 8.5 6t9.5 4t3 -3q-16 -43 -52 -70.5
t-84 -27.5q-43 0 -71.5 20.5t-28.5 49.5q0 12 25 31q9 2 9 -1q21 -55 92 -55z" />
    <glyph glyph-name="uni0115" unicode="&#x115;" horiz-adv-x="405" 
d="M379 98q4 0 4 -3q2 -11 -2 -19q-76 -88 -168 -88q-78 0 -125 47q-55 58 -55 159q0 58 24.5 103t65.5 70q48 32 109 32q35 0 62 -13.5t42.5 -35.5t24.5 -44t12 -45q2 -6 13 -8q1 -2 -0.5 -8t-3.5 -7q-35 -11 -246 -23q-4 0 -4 -9q0 -57 36 -101q37 -46 104 -46
q64 0 107 39zM201 373q-29 0 -48 -33.5t-20 -91.5q0 -5 3 -5q18 -1 69 1t64 5q5 3 5 9q-3 48 -22 81.5t-51 33.5zM233 507q51 0 82 51q8 12 15 12q4 0 4 -3q-11 -46 -44.5 -77t-81.5 -31q-37 0 -63 20t-26 53q0 16 32 38q1 1 4 0.5t3 -1.5q13 -62 75 -62z" />
    <glyph glyph-name="uni0116" unicode="&#x116;" horiz-adv-x="520" 
d="M25 591q-1 2 -1 8t2 8q10 0 55.5 -1.5t73.5 -1.5h186q87 0 114 4q2 0 2 -3q-11 -44 -17 -139q-2 -2 -8.5 -2t-8.5 1q-5 49 -19 76q-12 27 -42 30q-17 2 -71.5 2t-68.5 -2q-10 -2 -10 -15q-1 -57 -1 -223q0 -8 4 -8q131 0 146 1q19 1 28 11t15 30q1 2 8 31q2 2 9 2t8 -2
q0 -3 -2.5 -36.5t-2.5 -54.5q0 -15 1 -46t1 -44q-2 -2 -8.5 -2t-8.5 1q-5 25 -8 36q-11 33 -40 35q-15 1 -69.5 2t-75.5 0q-5 0 -5 -8q0 -153 1 -212q0 -29 21 -33q30 -6 112 -6q30 0 48 3t25 7t17 14q25 25 56 98q2 1 8 -1.5t7 -4.5q-2 -17 -15.5 -67t-22.5 -70
q-5 -8 -14.5 -10.5t-42.5 -2.5q-37 0 -119.5 2t-135.5 2q-30 0 -80 -1.5t-73 -1.5q-1 2 -1 8.5t1 8.5q52 6 65 9q16 5 22.5 17t7.5 39q3 43 3 256q0 171 -3 200q-2 25 -6.5 33.5t-21.5 14.5q-22 5 -45 8zM314 698q0 -31 -21 -43q-6 -4 -25.5 -6t-24.5 1q-25 13 -27 38t6 35
q17 17 52 17q19 0 32 -13q8 -9 8 -29z" />
    <glyph glyph-name="uni0117" unicode="&#x117;" horiz-adv-x="405" 
d="M379 98q4 0 4 -3q2 -11 -2 -19q-76 -88 -168 -88q-78 0 -125 47q-55 58 -55 159q0 58 24.5 103t65.5 70q48 32 109 32q35 0 62 -13.5t42.5 -35.5t24.5 -44t12 -45q2 -6 13 -8q1 -2 -0.5 -8t-3.5 -7q-35 -11 -246 -23q-4 0 -4 -9q0 -57 36 -101q37 -46 104 -46
q64 0 107 39zM201 373q-29 0 -48 -33.5t-20 -91.5q0 -5 3 -5q18 -1 69 1t64 5q5 3 5 9q-3 48 -22 81.5t-51 33.5zM267 534q0 -30 -22 -45q-7 -4 -27.5 -6t-25.5 1q-25 14 -29 39q-2 27 6 36q18 18 56 18q21 0 33 -12q9 -12 9 -31z" />
    <glyph glyph-name="uni0118" unicode="&#x118;" horiz-adv-x="520" 
d="M3 14q52 6 65 9q16 5 22.5 17t7.5 39q3 43 3 256q0 171 -3 200q-2 25 -6.5 33.5t-21.5 14.5q-22 5 -45 8q-1 2 -1 8t2 8q10 0 55.5 -1.5t73.5 -1.5h186q87 0 114 4q2 0 2 -3q-11 -44 -17 -139q-2 -2 -8.5 -2.5t-8.5 0.5q-5 50 -19 77q-11 27 -41 30q-17 2 -72 2t-69 -2
q-10 -2 -10 -15q-1 -62 -1 -223q0 -8 5 -8q130 0 145 1q18 2 27 10t16 31q4 11 8 31q2 2 9 2t8 -2q0 -5 -1.5 -22.5t-2.5 -35t-1 -33.5q0 -15 1 -46t1 -44q-2 -2 -8.5 -2t-8.5 1q-5 22 -9 39q-10 30 -40 32q-15 1 -69 2t-75 0q-5 0 -5 -8q0 -146 1 -212q0 -29 21 -33
q30 -6 112 -6q30 0 48 3t25 7t17 14q25 25 56 98q2 1 8 -1.5t7 -4.5q-2 -17 -15 -66.5t-23 -70.5q-7 -12 -42 -13q-50 -62 -50 -108q0 -20 12.5 -30.5t30.5 -10.5q22 0 49 16q1 -4 0.5 -12t-2.5 -10q-18 -28 -45 -40.5t-49 -12.5q-28 0 -47.5 17t-19.5 53q0 54 97 138
q-37 0 -116.5 2t-129.5 2q-30 0 -80 -1.5t-73 -1.5q-1 2 -1 8.5t1 8.5z" />
    <glyph glyph-name="uni0119" unicode="&#x119;" horiz-adv-x="405" 
d="M379 98q4 0 4 -3q2 -11 -2 -19q-45 -52 -102 -75q-53 -41 -53 -96q0 -20 11.5 -30t29.5 -10q25 0 47 15q4 -6 -1 -21q-33 -50 -90 -50q-26 0 -45 16.5t-19 49.5q0 51 84 116q-15 -3 -30 -3q-78 0 -125 47q-55 58 -55 159q0 57 24.5 102.5t65.5 70.5q49 32 109 32
q35 0 62 -13.5t42.5 -35.5t24.5 -44t12 -45q2 -6 13 -8q1 -2 -0.5 -8t-3.5 -7q-35 -10 -246 -23q-4 0 -4 -9q0 -57 36 -101q37 -46 104 -46q64 0 107 39zM201 373q-29 0 -48 -34.5t-20 -91.5q0 -4 3 -4q106 0 134 6q4 2 4 9q-3 48 -22 81.5t-51 33.5z" />
    <glyph glyph-name="uni011A" unicode="&#x11a;" horiz-adv-x="520" 
d="M25 591q-1 2 -1 8t2 8q10 0 55.5 -1.5t73.5 -1.5h186q87 0 114 4q2 0 2 -3q-11 -44 -17 -139q-2 -2 -8.5 -2t-8.5 1q-5 49 -19 76q-12 27 -42 30q-17 2 -71.5 2t-68.5 -2q-10 -2 -10 -15q-1 -57 -1 -223q0 -8 4 -8q131 0 146 1q19 1 28 11t15 30q1 2 8 31q2 2 9 2t8 -2
q0 -3 -2.5 -36.5t-2.5 -54.5q0 -15 1 -46t1 -44q-2 -2 -8.5 -2t-8.5 1q-5 25 -8 36q-11 33 -40 35q-15 1 -69.5 2t-75.5 0q-5 0 -5 -8q0 -153 1 -212q0 -29 21 -33q30 -6 112 -6q30 0 48 3t25 7t17 14q25 25 56 98q2 1 8 -1.5t7 -4.5q-2 -17 -15.5 -67t-22.5 -70
q-5 -8 -14.5 -10.5t-42.5 -2.5q-37 0 -119.5 2t-135.5 2q-30 0 -80 -1.5t-73 -1.5q-1 2 -1 8.5t1 8.5q52 6 65 9q16 5 22.5 17t7.5 39q3 43 3 256q0 171 -3 200q-2 25 -6.5 33.5t-21.5 14.5q-22 5 -45 8zM272 642q-2 -3 -11 -3q-11 11 -61.5 53.5t-68.5 54.5q0 3 3 8.5
t5 5.5q5 0 58 -22.5t67 -29.5q5 -3 9 0q13 8 62 30t53 22q2 0 5 -5.5t2 -8.5q-111 -92 -123 -105z" />
    <glyph glyph-name="uni011B" unicode="&#x11b;" horiz-adv-x="405" 
d="M379 98q4 0 4 -3q2 -11 -2 -19q-76 -88 -168 -88q-78 0 -125 47q-55 58 -55 159q0 58 24.5 103t65.5 70q48 32 109 32q35 0 62 -13.5t42.5 -35.5t24.5 -44t12 -45q2 -6 13 -8q1 -2 -0.5 -8t-3.5 -7q-35 -11 -246 -23q-4 0 -4 -9q0 -57 36 -101q37 -46 104 -46
q64 0 107 39zM201 373q-29 0 -48 -33.5t-20 -91.5q0 -5 3 -5q18 -1 69 1t64 5q5 3 5 9q-3 48 -22 81.5t-51 33.5zM223 506q43 73 59 85q10 9 29 9q5 0 3 -4q-67 -105 -87 -155q-1 -3 -9 -6t-12 -3q-20 45 -48 93t-39 62q2 4 17.5 8.5t20.5 3.5q6 -3 28.5 -37.5t32.5 -55.5
q3 -2 5 0z" />
    <glyph glyph-name="uni011C" unicode="&#x11c;" horiz-adv-x="670" 
d="M615 35q1 -1 0 -7.5t-2 -7.5q-124 -38 -221 -38q-344 0 -344 324q0 97 46 170.5t128 109.5q85 36 195 36q47 0 116.5 -11t74.5 -11q-17 -64 -17 -152q-1 -3 -10 -3.5t-11 1.5q-8 90 -43 114q-50 37 -140 37q-95 0 -154 -68.5t-59 -209.5q0 -142 63.5 -227.5t170.5 -85.5
q36 0 52 7q20 9 23 37q7 66 2 122q-2 32 -9.5 42.5t-29.5 14.5q-19 4 -49 6q-2 2 -2 9.5t2 8.5q17 1 67.5 -1t76.5 -2q45 0 105 3q2 -1 1.5 -8.5t-2.5 -8.5q-14 -3 -25 -7q-16 -5 -21 -16.5t-5 -53.5q-2 -78 1 -100q1 -11 4.5 -15t15.5 -9zM372 772q2 3 11 3
q9 -10 59.5 -52.5t70.5 -56.5q0 -3 -3 -8t-5 -5q-4 0 -58 22.5t-67 29.5q-5 3 -9 0q-13 -8 -62 -30t-53 -22q-2 0 -5 5.5t-2 7.5q111 92 123 106z" />
    <glyph glyph-name="uni011D" unicode="&#x11d;" horiz-adv-x="426" 
d="M213 399q39 0 96 -19q27 -10 56 -10q28 0 40 4t23 15q1 1 2.5 0.5t3.5 -2.5t2 -3q0 -7 -8 -26.5t-15 -26.5q-11 -9 -34 -9q-9 0 -23 1q-1 0 -1.5 -1.5t0.5 -2.5q10 -20 10 -59q0 -85 -60 -127q-46 -36 -114 -37h-21q-7 0 -15 -6.5t-8 -14.5q0 -25 35 -31q9 -1 49.5 -5
t70.5 -8t45 -9q77 -24 77 -104q0 -54 -35.5 -99t-93.5 -74q-51 -25 -110 -25q-67 0 -110 30q-56 36 -56 92q0 23 7 37q11 11 93 70v4q-31 12 -50.5 33.5t-19.5 45.5q0 6 2 14q2 1 39.5 21.5t45.5 27.5q2 5 0 5q-102 30 -102 144q0 74 60 118q52 37 119 37zM235 -237
q60 0 88.5 26t28.5 66q0 45 -45 68q-47 23 -139 23q-22 0 -33 -9q-41 -26 -41 -69q0 -39 33 -69q37 -36 108 -36zM190 375q-27 0 -42 -26t-15 -73q0 -73 21.5 -113.5t57.5 -40.5q21 0 36 15q22 25 22 96q0 60 -19 101t-61 41zM205 529q-40 -69 -59 -84q-13 -9 -29 -9
q-5 0 -3 5q64 97 87 154q1 2 9.5 5t11.5 3q41 -91 87 -154q-2 -3 -17 -7.5t-21 -4.5q-6 3 -29 37.5t-33 54.5q-2 2 -4 0z" />
    <glyph glyph-name="uni011E" unicode="&#x11e;" horiz-adv-x="670" 
d="M615 35q1 -1 0 -7.5t-2 -7.5q-124 -38 -221 -38q-344 0 -344 324q0 97 46 170.5t128 109.5q85 36 195 36q47 0 116.5 -11t74.5 -11q-17 -64 -17 -152q-1 -3 -10 -3.5t-11 1.5q-8 90 -43 114q-50 37 -140 37q-95 0 -154 -68.5t-59 -209.5q0 -142 63.5 -227.5t170.5 -85.5
q36 0 52 7q20 9 23 37q7 66 2 122q-2 32 -9.5 42.5t-29.5 14.5q-19 4 -49 6q-2 2 -2 9.5t2 8.5q17 1 67.5 -1t76.5 -2q45 0 105 3q2 -1 1.5 -8.5t-2.5 -8.5q-14 -3 -25 -7q-16 -5 -21 -16.5t-5 -53.5q-2 -78 1 -100q1 -11 4.5 -15t15.5 -9zM394 706q51 0 89 46q2 2 8.5 6
t9.5 4t3 -3q-16 -43 -52 -70.5t-84 -27.5q-43 0 -71.5 20.5t-28.5 49.5q0 12 25 31q9 2 9 -1q21 -55 92 -55z" />
    <glyph glyph-name="uni011F" unicode="&#x11f;" horiz-adv-x="426" 
d="M213 399q39 0 96 -19q27 -10 56 -10q28 0 40 4t23 15q1 1 2.5 0.5t3.5 -2.5t2 -3q0 -7 -8 -26.5t-15 -26.5q-11 -9 -34 -9q-9 0 -23 1q-1 0 -1.5 -1.5t0.5 -2.5q10 -20 10 -59q0 -85 -60 -127q-46 -36 -114 -37h-21q-7 0 -15 -6.5t-8 -14.5q0 -25 35 -31q9 -1 49.5 -5
t70.5 -8t45 -9q77 -24 77 -104q0 -54 -35.5 -99t-93.5 -74q-51 -25 -110 -25q-67 0 -110 30q-56 36 -56 92q0 23 7 37q11 11 93 70v4q-31 12 -50.5 33.5t-19.5 45.5q0 6 2 14q2 1 39.5 21.5t45.5 27.5q2 5 0 5q-102 30 -102 144q0 74 60 118q52 37 119 37zM235 -237
q60 0 88.5 26t28.5 66q0 45 -45 68q-47 23 -139 23q-22 0 -33 -9q-41 -26 -41 -69q0 -39 33 -69q37 -36 108 -36zM190 375q-27 0 -42 -26t-15 -73q0 -73 21.5 -113.5t57.5 -40.5q21 0 36 15q22 25 22 96q0 60 -19 101t-61 41zM227 507q51 0 82 51q8 12 15 12q4 0 4 -3
q-11 -46 -44.5 -77t-81.5 -31q-37 0 -63 20t-26 53q0 16 32 38q1 1 4 0.5t3 -1.5q13 -62 75 -62z" />
    <glyph glyph-name="uni0120" unicode="&#x120;" horiz-adv-x="670" 
d="M615 35q1 -1 0 -7.5t-2 -7.5q-124 -38 -221 -38q-344 0 -344 324q0 97 46 170.5t128 109.5q85 36 195 36q47 0 116.5 -11t74.5 -11q-17 -64 -17 -152q-1 -3 -10 -3.5t-11 1.5q-8 90 -43 114q-50 37 -140 37q-95 0 -154 -68.5t-59 -209.5q0 -142 63.5 -227.5t170.5 -85.5
q36 0 52 7q20 9 23 37q7 66 2 122q-2 32 -9.5 42.5t-29.5 14.5q-19 4 -49 6q-2 2 -2 9.5t2 8.5q17 1 67.5 -1t76.5 -2q45 0 105 3q2 -1 1.5 -8.5t-2.5 -8.5q-14 -3 -25 -7q-16 -5 -21 -16.5t-5 -53.5q-2 -78 1 -100q1 -11 4.5 -15t15.5 -9zM432 713q0 -31 -21 -43
q-6 -4 -25.5 -6t-24.5 1q-25 13 -27 38t6 35q17 17 52 17q19 0 32 -13q8 -9 8 -29z" />
    <glyph glyph-name="uni0121" unicode="&#x121;" horiz-adv-x="426" 
d="M213 399q39 0 96 -19q27 -10 56 -10q28 0 40 4t23 15q1 1 2.5 0.5t3.5 -2.5t2 -3q0 -7 -8 -26.5t-15 -26.5q-11 -9 -34 -9q-9 0 -23 1q-1 0 -1.5 -1.5t0.5 -2.5q10 -20 10 -59q0 -85 -60 -127q-46 -36 -114 -37h-21q-7 0 -15 -6.5t-8 -14.5q0 -25 35 -31q9 -1 49.5 -5
t70.5 -8t45 -9q77 -24 77 -104q0 -54 -35.5 -99t-93.5 -74q-51 -25 -110 -25q-67 0 -110 30q-56 36 -56 92q0 23 7 37q11 11 93 70v4q-31 12 -50.5 33.5t-19.5 45.5q0 6 2 14q2 1 39.5 21.5t45.5 27.5q2 5 0 5q-102 30 -102 144q0 74 60 118q52 37 119 37zM235 -237
q60 0 88.5 26t28.5 66q0 45 -45 68q-47 23 -139 23q-22 0 -33 -9q-41 -26 -41 -69q0 -39 33 -69q37 -36 108 -36zM190 375q-27 0 -42 -26t-15 -73q0 -73 21.5 -113.5t57.5 -40.5q21 0 36 15q22 25 22 96q0 60 -19 101t-61 41zM268 534q0 -30 -22 -45q-7 -4 -27.5 -6t-25.5 1
q-25 14 -29 39q-2 27 6 36q18 18 56 18q21 0 33 -12q9 -12 9 -31z" />
    <glyph glyph-name="uni0122" unicode="&#x122;" horiz-adv-x="670" 
d="M615 35q1 -1 0 -7.5t-2 -7.5q-124 -38 -221 -38q-344 0 -344 324q0 97 46 170.5t128 109.5q85 36 195 36q47 0 116.5 -11t74.5 -11q-17 -64 -17 -152q-1 -3 -10 -3.5t-11 1.5q-8 90 -43 114q-50 37 -140 37q-95 0 -154 -68.5t-59 -209.5q0 -142 63.5 -227.5t170.5 -85.5
q36 0 52 7q20 9 23 37q7 66 2 122q-2 32 -9.5 42.5t-29.5 14.5q-19 4 -49 6q-2 2 -2 9.5t2 8.5q17 1 67.5 -1t76.5 -2q45 0 105 3q2 -1 1.5 -8.5t-2.5 -8.5q-14 -3 -25 -7q-16 -5 -21 -16.5t-5 -53.5q-2 -78 1 -100q1 -11 4.5 -15t15.5 -9zM385 -47q15 0 30 -17.5t15 -46.5
q0 -81 -111 -117q-1 0 -3.5 6t-2.5 8q37 17 51 33.5t14 38.5q0 35 -53 53q-1 1 -1 5t1 5q6 9 26.5 20.5t33.5 11.5z" />
    <glyph glyph-name="uni0123" unicode="&#x123;" horiz-adv-x="426" 
d="M203 449q-17 0 -32.5 20t-15.5 51q0 35 27.5 63t73.5 40q3 -1 5 -6.5t1 -9.5q-65 -27 -65 -64q0 -33 60 -47q1 -1 1 -4.5t-1 -4.5q-8 -12 -25.5 -25t-28.5 -13zM213 399q39 0 96 -19q27 -10 56 -10q28 0 40 4t23 15q1 1 2.5 0.5t3.5 -2.5t2 -3q0 -7 -8 -26.5t-15 -26.5
q-11 -9 -34 -9q-9 0 -23 1q-1 0 -1.5 -1.5t0.5 -2.5q10 -20 10 -59q0 -85 -60 -127q-46 -36 -114 -37h-21q-7 0 -15 -6.5t-8 -14.5q0 -25 35 -31q9 -1 49.5 -5t70.5 -8t45 -9q77 -24 77 -104q0 -54 -35.5 -99t-93.5 -74q-51 -25 -110 -25q-67 0 -110 30q-56 36 -56 92
q0 23 7 37q11 11 93 70v4q-31 12 -50.5 33.5t-19.5 45.5q0 6 2 14q2 1 39.5 21.5t45.5 27.5q2 5 0 5q-102 30 -102 144q0 74 60 118q52 37 119 37zM235 -237q60 0 88.5 26t28.5 66q0 45 -45 68q-47 23 -139 23q-22 0 -33 -9q-41 -26 -41 -69q0 -39 33 -69q37 -36 108 -36z
M190 375q-27 0 -42 -26t-15 -73q0 -73 21.5 -113.5t57.5 -40.5q21 0 36 15q22 25 22 96q0 60 -19 101t-61 41z" />
    <glyph glyph-name="uni0124" unicode="&#x124;" horiz-adv-x="712" 
d="M24 590q-1 3 -1 9t1 8q9 0 55.5 -1.5t77.5 -1.5q36 0 75 1.5t50 1.5q2 -3 1 -9.5t-3 -7.5q-33 -6 -38 -7q-16 -5 -21.5 -15t-6.5 -37q-1 -25 -1 -191q0 -5 4 -7q14 -2 153 -2q111 0 126 1q1 0 3 2.5t2 3.5q0 165 -3 211q-2 27 -23 33q-17 4 -45 8q-2 2 -2 8.5t2 8.5
q8 0 52 -1.5t81 -1.5q38 0 77.5 1.5t42.5 1.5q2 -2 2 -8.5t-2 -8.5q-33 -6 -41 -8q-15 -4 -21 -13t-7 -32q-3 -57 -3 -261q0 -161 2 -200q2 -27 6 -37.5t17 -14.5q10 -4 55 -10q1 -2 0.5 -8.5t-2.5 -8.5q-15 0 -57 1.5t-69 1.5q-25 0 -75 -1.5t-59 -1.5q-2 2 -2 8.5t2 8.5
q17 2 41 7q16 3 22.5 15t7.5 42q1 39 1 207q0 7 -6 7q-19 1 -129 1q-143 0 -149 -2q-4 -2 -4 -6q0 -159 1 -203q2 -30 6.5 -42.5t21.5 -16.5q24 -6 48 -9q2 -2 0.5 -9t-3.5 -8q-6 0 -49.5 1.5t-80.5 1.5q-34 0 -79.5 -1.5t-53.5 -1.5q-2 1 -2 8t2 9q23 2 42 7q20 4 26.5 18
t8.5 54q1 21 1 201q0 217 -2 242q-1 23 -7 32.5t-20 13.5q-8 2 -49 8zM353 764q1 3 11 3q9 -10 59.5 -52.5t70.5 -56.5q0 -3 -3 -8t-5 -5q-4 0 -58 22.5t-67 29.5q-5 3 -9 0q-13 -8 -62 -30t-53 -22q-2 0 -5 5.5t-2 7.5q111 92 123 106z" />
    <glyph glyph-name="uni0125" unicode="&#x125;" horiz-adv-x="484" 
d="M102 784q2 1 12 3q10 -9 61.5 -47t70.5 -49q0 -13 -7 -13q-5 1 -61.5 23t-66.5 28q-6 2 -10 -1q-16 -8 -65 -29t-53 -21q-2 0 -5 4.5t-2 8.5q103 70 126 93zM7 630q-1 3 -1 8.5t1 7.5q99 6 164 33q6 -3 4 -10q-9 -17 -9 -92v-59.5v-108.5v-63q0 -6 4 -2q73 55 130 55
q58 0 88.5 -41t30.5 -117v-193q0 -14 6 -19q13 -10 46 -15q2 -2 1 -9t-3 -8q-8 0 -41.5 1.5t-63.5 1.5q-35 0 -98 -3q-2 2 -2 8.5t2 8.5q26 5 32 8q10 4 13 12t4 33q5 180 -5 216q-6 25 -27 42t-52 17q-34 0 -57 -16q-8 -5 -8 -16q0 -215 2 -244q1 -16 2.5 -23.5t6.5 -13.5
t14 -8q17 -4 29 -7q6 -6 0 -17q-4 0 -37.5 1.5t-68.5 1.5q-30 0 -62.5 -1.5t-39.5 -1.5q-2 2 -2 8.5t2 8.5q20 3 32 7q11 4 14.5 13.5t5.5 34.5q2 33 2 182q0 312 -5 351q-3 16 -18 22q-5 2 -36 6z" />
    <glyph glyph-name="Hbar" unicode="&#x126;" horiz-adv-x="712" 
d="M24 14q23 2 42 7q20 4 26.5 18t8.5 54q1 21 1 201v117h-64q0 20 7 27h57v41.5t-0.5 35t-0.5 21.5q-1 23 -7.5 32.5t-19.5 12.5q-13 4 -50 8q-2 2 -1.5 9t2.5 9q8 0 54.5 -1.5t77.5 -1.5q36 0 75 1.5t50 1.5q2 -2 1 -8.5t-3 -8.5q-20 -2 -38 -7q-16 -5 -21.5 -14.5
t-6.5 -36.5q-1 -26 -1 -94h288q0 72 -2 114q-2 25 -24 31q-21 5 -45 7q-2 2 -2 8.5t2 8.5q8 0 52 -1.5t81 -1.5q27 0 71.5 1.5t49.5 1.5q2 -1 1.5 -8t-2.5 -9q-5 -1 -20 -3t-21 -4q-15 -5 -21.5 -13.5t-7.5 -31.5q-2 -29 -2 -100h66q0 -14 -4 -26h-62v-136q0 -161 2 -200
q2 -27 6 -37.5t17 -14.5q10 -4 56 -10q2 -2 1 -9t-4 -8q-15 0 -57 1.5t-69 1.5q-25 0 -75 -1.5t-59 -1.5q-4 2 -3.5 8.5t3.5 8.5q21 2 43 7q15 3 21 14t7 42q1 40 1 187q0 8 -6 8q-19 1 -129 1q-148 -2 -149 -2q-4 0 -4 -6q0 -139 1 -183q1 -21 2.5 -31t7 -17.5t16.5 -10.5
q26 -6 50 -9q2 -1 1 -8.5t-4 -8.5q-14 0 -54 1.5t-76 1.5q-34 0 -79.5 -1.5t-53.5 -1.5q-3 1 -3 8t3 9zM501 412h-288v-94q1 -6 4 -7q21 -3 153 -3q89 0 125 2q6 0 6 8v94z" />
    <glyph glyph-name="hbar" unicode="&#x127;" horiz-adv-x="484" 
d="M12 14q20 3 32 7q18 6 19 48q3 50 3 182l-1 250q-7 0 -25.5 -0.5t-28.5 -0.5q0 17 7 26h46q0 23 -2 65q-2 27 -20 33q-12 4 -35 6q-1 2 -1 8t1 8q88 5 164 33q6 -3 4 -9q-9 -18 -9 -106l-1 -39q20 0 66.5 0.5t47.5 0.5q0 -16 -4 -26q-3 0 -51 0.5t-59 0.5l1 -155
q0 -6 4 -2q73 55 130 55q58 0 88.5 -41t30.5 -117v-192q0 -14 5 -19q13 -10 47 -16q2 -2 1 -9t-3 -8q-10 0 -43 1.5t-62 1.5q-35 0 -98 -3q-2 2 -2 8.5t2 8.5q24 4 32 8q10 4 13 12t4 33q5 176 -5 216q-6 25 -27 42t-52 17t-57 -16q-8 -5 -8 -16q0 -215 2 -244
q1 -16 2.5 -23.5t6.5 -13.5t14 -8q20 -6 29 -7q6 -6 0 -17q-5 0 -40 1.5t-66 1.5q-28 0 -61.5 -1.5t-40.5 -1.5q-2 2 -2 8.5t2 8.5z" />
    <glyph glyph-name="uni0128" unicode="&#x128;" horiz-adv-x="313" 
d="M26 590q-2 2 -2 8.5t2 8.5q13 0 56 -1.5t76 -1.5q43 0 82 1.5t41 1.5q2 -2 2 -8.5t-1 -8.5q-30 -3 -44 -8q-15 -6 -19 -16t-6 -41q-2 -32 -2 -215q0 -200 2 -235q1 -15 2 -23t8.5 -17.5t20.5 -12.5q14 -4 46 -8q2 -2 1.5 -9t-2.5 -8q-5 0 -50 1.5t-74 1.5
q-43 0 -82.5 -1.5t-56.5 -1.5q-2 1 -2 8t2 9q29 3 43 7q17 4 22.5 14.5t7.5 38.5q3 60 3 253q0 164 -3 210q-3 37 -25 44q-14 5 -48 9zM221 703q35 0 68 33q2 2 4 -4q3 -8 2 -12q-11 -20 -43 -42t-58 -22q-17 0 -65 14q-33 9 -43 9q-27 0 -60 -28q-2 -1 -4.5 2.5t-3 7
t0.5 5.5q11 16 40.5 38t50.5 22q19 0 60 -12q36 -11 51 -11z" />
    <glyph glyph-name="uni0129" unicode="&#x129;" horiz-adv-x="238" 
d="M227 14q0 -15 -3 -17q-11 0 -46 1.5t-56 1.5q-29 0 -64 -1.5t-42 -1.5q-2 1 -2 8.5t2 8.5q22 2 34 7q18 6 19 42q2 46 2 150q0 80 -2 95q0 17 -7 26q-9 9 -34 17q-1 1 -1 8t1 9q25 1 71 10.5t75 23.5q0 -8 -1 -72t-1 -97q0 -129 1 -173q1 -32 20 -39q17 -5 34 -7z
M181 529q34 0 62 29q2 0 3 -2q2 -6 -1 -16q-10 -20 -38 -41t-52 -21q-20 0 -60 12q-27 8 -41 8q-28 0 -55 -26q-2 -2 -5 3q0 14 4 18q9 16 35 35.5t46 19.5t53 -9q42 -10 49 -10z" />
    <glyph glyph-name="uni012A" unicode="&#x12a;" horiz-adv-x="313" 
d="M26 590q-2 2 -2 8.5t2 8.5q13 0 56 -1.5t76 -1.5q43 0 82 1.5t41 1.5q2 -2 2 -8.5t-1 -8.5q-30 -3 -44 -8q-15 -6 -19 -16t-6 -41q-2 -32 -2 -215q0 -200 2 -235q1 -15 2 -23t8.5 -17.5t20.5 -12.5q14 -4 46 -8q2 -2 1.5 -9t-2.5 -8q-5 0 -50 1.5t-74 1.5
q-43 0 -82.5 -1.5t-56.5 -1.5q-2 1 -2 8t2 9q29 3 43 7q17 4 22.5 14.5t7.5 38.5q3 60 3 253q0 164 -3 210q-3 37 -25 44q-14 5 -48 9zM55 715q18 -2 52 -2h165q0 -10 -7 -26.5t-10 -17.5q-15 -3 -179 -3l-37 1q1 7 7.5 26t8.5 22z" />
    <glyph glyph-name="uni012B" unicode="&#x12b;" horiz-adv-x="238" 
d="M227 14q0 -15 -3 -17q-11 0 -46 1.5t-56 1.5q-29 0 -64 -1.5t-42 -1.5q-2 1 -2 8.5t2 8.5q22 2 34 7q18 6 19 42q2 46 2 150q0 80 -2 95q0 17 -7 26q-9 9 -34 17q-1 1 -1 8t1 9q25 1 71 10.5t75 23.5q0 -8 -1 -72t-1 -97q0 -129 1 -173q1 -32 20 -39q17 -5 34 -7zM27 540
q14 -2 46 -2h65.5h61.5h24q0 -10 -5.5 -28t-8.5 -19q-13 -2 -165 -2q-29 0 -32 1q1 8 6.5 27.5t7.5 22.5z" />
    <glyph glyph-name="uni012C" unicode="&#x12c;" horiz-adv-x="313" 
d="M26 590q-2 2 -2 8.5t2 8.5q13 0 56 -1.5t76 -1.5q43 0 82 1.5t41 1.5q2 -2 2 -8.5t-1 -8.5q-30 -3 -44 -8q-15 -6 -19 -16t-6 -41q-2 -32 -2 -215q0 -200 2 -235q1 -15 2 -23t8.5 -17.5t20.5 -12.5q14 -4 46 -8q2 -2 1.5 -9t-2.5 -8q-5 0 -50 1.5t-74 1.5
q-43 0 -82.5 -1.5t-56.5 -1.5q-2 1 -2 8t2 9q29 3 43 7q17 4 22.5 14.5t7.5 38.5q3 60 3 253q0 164 -3 210q-3 37 -25 44q-14 5 -48 9zM169 690q51 0 89 46q2 2 8.5 6t9.5 4t3 -3q-16 -43 -52 -70.5t-84 -27.5q-43 0 -71.5 20.5t-28.5 49.5q0 12 25 31q9 2 9 -1
q21 -55 92 -55z" />
    <glyph glyph-name="uni012D" unicode="&#x12d;" horiz-adv-x="238" 
d="M227 14q0 -15 -3 -17q-11 0 -46 1.5t-56 1.5q-29 0 -64 -1.5t-42 -1.5q-2 1 -2 8.5t2 8.5q22 2 34 7q18 6 19 42q2 46 2 150q0 80 -2 95q0 17 -7 26q-9 9 -34 17q-1 1 -1 8t1 9q25 1 71 10.5t75 23.5q0 -8 -1 -72t-1 -97q0 -129 1 -173q1 -32 20 -39q17 -5 34 -7z
M129 507q51 0 82 51q8 12 15 12q4 0 4 -3q-11 -46 -44.5 -77t-81.5 -31q-37 0 -63 20t-26 53q0 16 32 38q1 1 4 0.5t3 -1.5q13 -62 75 -62z" />
    <glyph glyph-name="uni012E" unicode="&#x12e;" horiz-adv-x="313" 
d="M143 -212q-28 0 -47.5 17t-19.5 53q0 53 92 142q-45 0 -85.5 -1.5t-56.5 -1.5q-2 1 -2 8t2 9q29 3 43 7q17 4 22.5 14.5t7.5 38.5q3 60 3 253q0 164 -3 210q-3 37 -25 44q-14 5 -48 9q-2 2 -2 8.5t2 8.5q13 0 56 -1.5t76 -1.5q43 0 82 1.5t41 1.5q2 -2 2 -8.5t-1 -8.5
q-30 -3 -44 -8q-15 -6 -19 -16t-6 -41q-2 -32 -2 -215q0 -200 2 -235q1 -15 2 -23t8.5 -17.5t20.5 -12.5q14 -4 46 -8q2 -2 1.5 -9t-2.5 -8q-12 0 -31.5 1t-35.5 1.5t-32 0.5q-45 -61 -45 -110q0 -19 13.5 -31t31.5 -12q22 0 49 16q1 -4 0.5 -12t-2.5 -10q-18 -28 -45 -40.5
t-49 -12.5z" />
    <glyph glyph-name="uni012F" unicode="&#x12f;" horiz-adv-x="238" 
d="M107 -201q-27 0 -45.5 16t-18.5 50q0 29 29 69t61 66q-35 0 -73.5 -1.5t-43.5 -1.5q-2 1 -2 8.5t2 8.5q22 2 34 7q18 6 19 42q2 46 2 150q0 80 -2 95q0 17 -7 26q-9 9 -34 17q-1 1 -1 8t1 9q25 1 71 10.5t75 23.5q0 -8 -1 -72t-1 -97q0 -129 1 -173q1 -32 20 -39
q15 -4 37 -7q0 -15 -3 -17q-11 0 -38.5 1.5t-37.5 1.5q-42 -57 -42 -105q0 -19 12 -30t29 -11q23 0 48 16q4 -11 -2 -21q-33 -50 -89 -50zM173 536q0 -30 -23 -47q-7 -4 -26.5 -6t-29.5 1q-22 8 -24 39q-4 24 6 37q7 6 23.5 11.5t29.5 5.5q21 0 36 -11q8 -11 8 -30z" />
    <glyph glyph-name="uni0130" unicode="&#x130;" horiz-adv-x="313" 
d="M26 590q-2 2 -2 8.5t2 8.5q13 0 56 -1.5t76 -1.5q43 0 82 1.5t41 1.5q2 -2 2 -8.5t-1 -8.5q-30 -3 -44 -8q-15 -6 -19 -16t-6 -41q-2 -32 -2 -215q0 -200 2 -235q1 -15 2 -23t8.5 -17.5t20.5 -12.5q14 -4 46 -8q2 -2 1.5 -9t-2.5 -8q-5 0 -50 1.5t-74 1.5
q-43 0 -82.5 -1.5t-56.5 -1.5q-2 1 -2 8t2 9q29 3 43 7q17 4 22.5 14.5t7.5 38.5q3 60 3 253q0 164 -3 210q-3 37 -25 44q-14 5 -48 9zM205 702q0 -31 -21 -43q-6 -4 -25.5 -6t-24.5 1q-25 13 -27 38t6 35q17 17 52 17q19 0 32 -13q8 -9 8 -29z" />
    <glyph glyph-name="dotlessi" unicode="&#x131;" horiz-adv-x="238" 
d="M227 14q0 -15 -3 -17q-11 0 -46 1.5t-56 1.5q-29 0 -64 -1.5t-42 -1.5q-2 1 -2 8.5t2 8.5q22 2 34 7q18 6 19 42q2 46 2 150q0 80 -2 95q0 17 -7 26q-9 9 -34 17q-1 1 -1 8t1 9q25 1 71 10.5t75 23.5q0 -8 -1 -72t-1 -97q0 -129 1 -173q1 -32 20 -39q17 -5 34 -7z" />
    <glyph glyph-name="IJ" unicode="&#x132;" horiz-adv-x="615" 
d="M26 590q-2 2 -2 8.5t2 8.5q13 0 56 -1.5t76 -1.5q43 0 82 1.5t41 1.5q2 -2 2 -8.5t-1 -8.5q-30 -3 -44 -8q-15 -6 -19 -16t-6 -41q-2 -32 -2 -215q0 -200 2 -235q1 -15 2 -23t8.5 -17.5t20.5 -12.5q14 -4 46 -8q2 -2 1.5 -9t-2.5 -8q-5 0 -50 1.5t-74 1.5
q-43 0 -82.5 -1.5t-56.5 -1.5q-2 1 -2 8t2 9q29 3 43 7q17 4 22.5 14.5t7.5 38.5q3 60 3 253q0 164 -3 210q-3 37 -25 44q-14 5 -48 9zM339 590q-2 2 -2 8.5t2 8.5q11 0 55 -1.5t84 -1.5q27 0 67 1.5t53 1.5q4 -11 0 -17q-31 -3 -43 -10q-20 -10 -20 -52q0 -20 -1.5 -188.5
t-4.5 -228.5q-3 -103 -41 -174q-39 -70 -90.5 -109t-103.5 -39q-46 0 -59 24v15q4 31 22 65q65 -48 105 -48q22 0 36 15q21 25 22 128q2 105 1 295.5t-3 243.5q0 2 -0.5 7t-0.5 7t-0.5 6.5t-1.5 6.5t-2 5.5t-2 5.5t-3 5t-4.5 4.5t-6 3.5t-7.5 3q-16 6 -51 9z" />
    <glyph glyph-name="ij" unicode="&#x133;" horiz-adv-x="478" 
d="M173 536q0 -30 -23 -47q-7 -4 -26.5 -6t-29.5 1q-22 8 -24 39q-4 24 6 37q7 6 23.5 11.5t29.5 5.5q21 0 36 -11q8 -11 8 -30zM226 14q0 -15 -4 -17q-10 0 -44.5 1.5t-55.5 1.5q-29 0 -64 -1.5t-42 -1.5q-2 1 -2 8.5t2 8.5q22 2 34 7q18 6 19 42q2 46 2 150q0 80 -2 95
q0 17 -7 26q-9 9 -34 17q-1 1 -1 8t1 9q25 1 71 10.5t75 23.5q0 -8 -1 -72t-1 -97q0 -129 1 -173q1 -32 20 -39q19 -5 33 -7zM410 546q0 -35 -21 -51q-3 -3 -25.5 -7.5t-27.5 -1.5q-27 14 -30 45q0 23 4 28q7 9 26 16t36 7q26 0 31 -8q7 -8 7 -28zM416 402q0 -20 -1 -154
t-2 -182q0 -72 -9 -120q-14 -76 -64 -136t-92 -79q-10 1 -15 8q-3 3 0 6q44 25 60.5 69t16.5 141q0 329 -2 351q-2 25 -16 33q-16 9 -40 12q-2 3 -2 10t2 9q98 5 164 32z" />
    <glyph glyph-name="uni0134" unicode="&#x134;" horiz-adv-x="302" 
d="M26 590q-2 2 -2 8.5t2 8.5q11 0 55 -1.5t84 -1.5q27 0 67 1.5t53 1.5q4 -11 0 -17q-31 -3 -43 -10q-20 -10 -20 -52q0 -20 -1.5 -188.5t-4.5 -228.5q-3 -103 -41 -174q-39 -70 -90.5 -109t-103.5 -39q-46 0 -59 24v15q4 31 22 65q65 -48 105 -48q22 0 36 15q21 25 22 128
q2 105 1 295.5t-3 243.5q0 2 -0.5 7t-0.5 7t-0.5 6.5t-1.5 6.5t-2 5.5t-2 5.5t-3 5t-4.5 4.5t-6 3.5t-7.5 3q-16 6 -51 9zM147 765q1 3 11 3q9 -10 59.5 -52.5t70.5 -56.5q0 -3 -3 -8t-5 -5q-4 0 -58 22.5t-67 29.5q-5 3 -9 0q-13 -8 -62 -30t-53 -22q-2 0 -5 5.5t-2 7.5
q111 92 123 106z" />
    <glyph glyph-name="uni0135" unicode="&#x135;" horiz-adv-x="239" 
d="M178 402q0 -20 -1 -154t-2 -182q0 -72 -9 -120q-14 -76 -64 -136t-92 -79q-5 1 -15 8q-3 3 0 6q44 25 60.5 69t16.5 141q0 329 -2 351q-2 25 -16 33q-16 9 -40 12q-2 3 -2 10t2 9q98 5 164 32zM110 531q-40 -69 -59 -84q-13 -9 -29 -9q-2 0 -3 2t0 3q64 97 87 154
q1 2 9.5 5t11.5 3q41 -91 87 -154q-2 -3 -17 -7.5t-21 -4.5q-6 3 -29 37.5t-33 54.5q-2 2 -4 0z" />
    <glyph glyph-name="uni0136" unicode="&#x136;" horiz-adv-x="622" 
d="M209 310q0 -168 2 -234q1 -29 7.5 -40.5t24.5 -15.5q4 -1 44 -7q2 -2 0.5 -9t-3.5 -8q-116 4 -129 4q-25 -1 -75 -2.5t-56 -1.5q-2 2 -2 8t2 8q31 4 44 7q17 4 23.5 18t8.5 45q2 116 1 238q-1 38 -1 113v96q-3 46 -27 53q-18 6 -44 8q-2 2 -2 9t2 8q7 0 50 -1.5t79 -1.5
q26 0 67.5 1.5t51.5 1.5q1 -1 1 -8t-1 -9q-30 -4 -40 -7q-15 -4 -20 -17.5t-6 -41.5q-1 -24 -1.5 -106.5t-0.5 -107.5zM372 590q-2 2 -2 9t2 8q20 0 51.5 -1.5t50.5 -1.5l118 3q2 -1 2 -8t-2 -9q-33 -6 -45 -9t-31.5 -16.5t-43.5 -41.5q-108 -124 -156 -176v-3
q25 -46 109 -147.5t133 -147.5q20 -18 41 -26q18 -7 53 -9q2 -1 1 -8.5t-3 -8.5q-35 -5 -98 -2.5t-82 9.5q-25 9 -58 42q-73 78 -182 232q-6 9 -14 14q0 10 3 10q34 18 85.5 69.5t101.5 117.5q38 54 38 72q0 13 -18 18q-20 7 -54 11zM352 -24q15 0 30 -17.5t15 -46.5
q0 -81 -111 -117q-1 0 -3.5 6t-2.5 8q37 17 51 33.5t14 38.5q0 35 -53 53q-1 1 -1 5t1 5q6 9 26.5 20.5t33.5 11.5z" />
    <glyph glyph-name="uni0137" unicode="&#x137;" horiz-adv-x="451" 
d="M245 368q-1 2 -0.5 9t2.5 8q95 -2 175 8q2 -2 2 -8.5t-2 -9.5q-50 -10 -74 -36q-54 -52 -93 -97v-4q19 -33 74.5 -106t83.5 -97q14 -12 25.5 -15.5t35.5 -5.5q1 -1 0 -8.5t-2 -8.5q-13 -2 -61 -3.5t-64 0.5q-32 2 -53 26q-12 12 -29.5 36.5t-41 60t-32.5 47.5
q-13 21 -26 24l2 -122q1 -26 6.5 -34.5t22.5 -12.5q19 -4 28 -5q4 -9 -1 -17q-8 0 -44.5 1.5t-67.5 1.5q-20 0 -52.5 -1.5t-45.5 -1.5q-1 2 -1 8.5t1 8.5q24 4 33 7q16 7 18 39q2 28 2 183q-1 330 -3 355q-2 24 -20 30q-16 4 -32 5q-1 2 -1 8.5t1 8.5q102 6 159 29q2 0 4 -3
t2 -5q-8 -16 -9 -112q-2 -66 -2 -355q19 3 46 25q30 26 62.5 65t32.5 51q0 11 -15 15q-2 1 -46 8zM252 -34q15 0 30 -17.5t15 -46.5q0 -81 -111 -117q-1 0 -3.5 6t-2.5 8q37 17 51 33.5t14 38.5q0 35 -53 53q-1 1 -1 5t1 5q6 9 26.5 20.5t33.5 11.5z" />
    <glyph glyph-name="uni0138" unicode="&#x138;" horiz-adv-x="448" 
d="M16 14q10 1 31 6q14 4 18 13.5t4 28.5v263q-4 20 -17 26q-4 2 -34 10q-1 2 -0.5 8t2.5 7q76 0 155 19q-1 -9 -4 -68v-133q39 15 90 73.5t51 73.5q0 11 -10 15q-11 5 -43 8q-2 1 -2 8.5t3 8.5q61 -1 163 5q2 -2 2 -9t-2 -9q-32 -5 -46.5 -12.5t-30.5 -23.5l-85 -94
q-2 -2 0 -6q121 -171 150 -197q18 -16 63 -21q1 -1 0 -8t-2 -9q-15 -3 -124 -3q-21 0 -31 4.5t-20 18.5q-45 56 -106 151q-7 9 -20 9q0 -59 2 -117q1 -21 5.5 -29t20.5 -12l30 -5q2 -1 1.5 -8t-2.5 -9q-4 0 -39 1.5t-67 1.5t-63.5 -1.5t-41.5 -1.5q-3 1 -3 8t2 9z" />
    <glyph glyph-name="uni0139" unicode="&#x139;" horiz-adv-x="516" 
d="M25 590q-1 2 -1 9t2 8q8 0 45.5 -1.5t80.5 -1.5q52 0 127 3q2 -2 2 -8.5t-2 -8.5q-30 -4 -41 -8q-15 -5 -19.5 -14.5t-5.5 -31.5q0 -9 -0.5 -40t-1 -83t-0.5 -87q-2 -191 2 -258q2 -27 18 -30q41 -11 139 -6q30 0 55 26q39 39 70 115q2 2 9 0.5t8 -4.5q-5 -28 -22 -85
t-29 -76q-7 -12 -61 -12q-34 0 -124.5 2t-122.5 2q-26 0 -70.5 -1.5t-64.5 -1.5q-2 1 -2 8t2 9q46 7 51 8q14 4 20.5 13.5t7.5 31.5q5 60 5 268q0 165 -2 198q-1 16 -2.5 24t-8 15t-20.5 11q-12 3 -44 7zM237 769q9 -1 31.5 -12.5t26.5 -18.5q1 -2 1 -5.5t-1 -4.5
q-8 -9 -80.5 -50.5t-77.5 -41.5q-2 0 -6 4.5t-3 8.5q11 16 55.5 65.5t53.5 54.5z" />
    <glyph glyph-name="uni013A" unicode="&#x13a;" horiz-adv-x="232" 
d="M12 -3q-2 2 -2 8.5t2 8.5q25 4 35 9q16 7 17 43q2 88 2 267q0 217 -4 258q-2 23 -13 27q-12 6 -36 9q-2 2 -2 7.5t2 7.5q90 6 157 37q5 -3 5 -6q-8 -18 -8 -107q-1 -50 -1 -216q0 -245 2 -284q1 -23 5 -31t15 -13q9 -4 33 -8q1 -2 0 -8.5t-2 -8.5q-1 0 -38.5 1.5
t-68.5 1.5t-64 -1.5t-36 -1.5zM179 821q9 -1 31.5 -12.5t26.5 -18.5q1 -2 1 -5.5t-1 -4.5q-8 -9 -80.5 -50.5t-77.5 -41.5q-2 0 -6 4.5t-3 8.5q11 16 55.5 65.5t53.5 54.5z" />
    <glyph glyph-name="uni013B" unicode="&#x13b;" horiz-adv-x="516" 
d="M25 590q-1 2 -1 9t2 8q8 0 45.5 -1.5t80.5 -1.5q52 0 127 3q2 -2 2 -8.5t-2 -8.5q-30 -4 -41 -8q-15 -5 -19.5 -14.5t-5.5 -31.5q0 -9 -0.5 -40t-1 -83t-0.5 -87q-2 -191 2 -258q2 -27 18 -30q41 -11 139 -6q30 0 55 26q39 39 70 115q2 2 9 0.5t8 -4.5q-5 -28 -22 -85
t-29 -76q-7 -12 -61 -12q-34 0 -124.5 2t-122.5 2q-26 0 -70.5 -1.5t-64.5 -1.5q-2 1 -2 8t2 9q46 7 51 8q14 4 20.5 13.5t7.5 31.5q5 60 5 268q0 165 -2 198q-1 16 -2.5 24t-8 15t-20.5 11q-12 3 -44 7zM272 -33q15 0 30 -17.5t15 -46.5q0 -81 -111 -117q-1 0 -3.5 6
t-2.5 8q37 17 51 33.5t14 38.5q0 35 -53 53q-1 1 -1 5t1 5q6 9 26.5 20.5t33.5 11.5z" />
    <glyph glyph-name="uni013C" unicode="&#x13c;" horiz-adv-x="232" 
d="M12 -3q-2 2 -2 8.5t2 8.5q25 4 35 9q16 7 17 43q2 88 2 267q0 217 -4 258q-2 23 -13 27q-12 6 -36 9q-2 2 -2 7.5t2 7.5q90 6 157 37q5 -3 5 -6q-8 -18 -8 -107q-1 -50 -1 -216q0 -245 2 -284q1 -23 5 -31t15 -13q9 -4 33 -8q1 -2 0 -8.5t-2 -8.5q-1 0 -38.5 1.5
t-68.5 1.5t-64 -1.5t-36 -1.5zM121 -32q15 0 30 -17.5t15 -46.5q0 -81 -111 -117q-1 0 -3.5 6t-2.5 8q37 17 51 33.5t14 38.5q0 35 -53 53q-1 1 -1 5t1 5q6 9 26.5 20.5t33.5 11.5z" />
    <glyph glyph-name="uni013D" unicode="&#x13d;" horiz-adv-x="516" 
d="M25 590q-1 2 -1 9t2 8q8 0 45.5 -1.5t80.5 -1.5q52 0 127 3q2 -2 2 -8.5t-2 -8.5q-30 -4 -41 -8q-15 -5 -19.5 -14.5t-5.5 -31.5q0 -9 -0.5 -40t-1 -83t-0.5 -87q-2 -191 2 -258q2 -27 18 -30q41 -11 139 -6q30 0 55 26q39 39 70 115q2 2 9 0.5t8 -4.5q-5 -28 -22 -85
t-29 -76q-7 -12 -61 -12q-34 0 -124.5 2t-122.5 2q-26 0 -70.5 -1.5t-64.5 -1.5q-2 1 -2 8t2 9q46 7 51 8q14 4 20.5 13.5t7.5 31.5q5 60 5 268q0 165 -2 198q-1 16 -2.5 24t-8 15t-20.5 11q-12 3 -44 7zM414 633q6 0 6 -13q1 -24 -5 -86t-12 -90q-2 -5 -9.5 -14.5
t-12.5 -12.5q-5 -2 -5 3q0 79 -12 167q0 5 3 8q6 8 23 23t24 15z" />
    <glyph glyph-name="uni013E" unicode="&#x13e;" horiz-adv-x="232" 
d="M12 -3q-2 2 -2 8.5t2 8.5q25 4 35 9q16 7 17 43q2 88 2 267q0 217 -4 258q-2 23 -13 27q-12 6 -36 9q-2 2 -2 7.5t2 7.5q90 6 157 37q5 -3 5 -6q-8 -18 -8 -107q-1 -50 -1 -216q0 -245 2 -284q1 -23 5 -31t15 -13q9 -4 33 -8q1 -2 0 -8.5t-2 -8.5q-1 0 -38.5 1.5
t-68.5 1.5t-64 -1.5t-36 -1.5zM266 686q6 0 6 -13q1 -24 -5 -86t-12 -90q-2 -5 -9.5 -14.5t-12.5 -12.5q-5 -2 -5 3q0 79 -12 167q0 5 3 8q6 8 23 23t24 15z" />
    <glyph glyph-name="Ldot" unicode="&#x13f;" horiz-adv-x="516" 
d="M25 590q-1 2 -1 9t2 8q8 0 45.5 -1.5t80.5 -1.5q52 0 127 3q2 -2 2 -8.5t-2 -8.5q-30 -4 -41 -8q-15 -5 -19.5 -14.5t-5.5 -31.5q0 -9 -0.5 -40t-1 -83t-0.5 -87q-2 -191 2 -258q2 -27 18 -30q41 -11 139 -6q30 0 55 26q39 39 70 115q2 2 9 0.5t8 -4.5q-5 -28 -22 -85
t-29 -76q-7 -12 -61 -12q-34 0 -124.5 2t-122.5 2q-26 0 -70.5 -1.5t-64.5 -1.5q-2 1 -2 8t2 9q46 7 51 8q14 4 20.5 13.5t7.5 31.5q5 60 5 268q0 165 -2 198q-1 16 -2.5 24t-8 15t-20.5 11q-12 3 -44 7zM443 309q0 -31 -21 -43q-6 -4 -25.5 -6t-24.5 1q-25 13 -27 38t6 35
q17 17 52 17q19 0 32 -13q8 -9 8 -29z" />
    <glyph glyph-name="ldot" unicode="&#x140;" horiz-adv-x="232" 
d="M279 357q0 -31 -21 -45q-5 -4 -22.5 -6t-22.5 1q-22 14 -26 39q-2 26 5 36q17 18 49 18q18 0 30 -12q8 -13 8 -31zM12 -3q-2 2 -2 8.5t2 8.5q25 4 35 9q16 7 17 43q2 88 2 267q0 217 -4 258q-2 23 -13 27q-12 6 -36 9q-2 2 -2 7.5t2 7.5q90 6 157 37q5 -3 5 -6
q-8 -18 -8 -107q-1 -50 -1 -216q0 -245 2 -284q1 -23 5 -31t15 -13q9 -4 33 -8q1 -2 0 -8.5t-2 -8.5q-1 0 -38.5 1.5t-68.5 1.5t-64 -1.5t-36 -1.5z" />
    <glyph glyph-name="Lslash" unicode="&#x141;" horiz-adv-x="516" 
d="M18 14q46 7 51 8q14 4 20.5 13.5t7.5 31.5q4 77 5 188q-38 -16 -57 -25q-2 1 -4.5 11.5t-1.5 13.5q9 4 31 13.5t32 13.5v53q0 165 -2 198q-1 16 -2.5 24t-8 15t-20.5 11q-12 3 -44 7q-1 2 -1 9t2 8q8 0 45.5 -1.5t80.5 -1.5q52 0 127 3q2 -2 2 -8.5t-2 -8.5
q-30 -4 -41 -8q-15 -5 -19.5 -14.5t-5.5 -31.5q0 -9 -0.5 -39t-1 -81.5t-0.5 -87.5q24 10 49 21t51 23t37 17q5 -3 5 -26l-143 -61q0 -189 3 -234q2 -27 18 -30q39 -11 140 -6q29 0 55 26q39 41 69 115q2 2 9 0t8 -5q-6 -34 -22.5 -87t-28.5 -72q-8 -13 -61 -13
q-34 0 -124.5 2t-122.5 2q-26 0 -70.5 -1.5t-64.5 -1.5q-2 1 -2 8t2 9z" />
    <glyph glyph-name="lslash" unicode="&#x142;" horiz-adv-x="242" 
d="M238 400l-62 -32q0 -263 2 -302q1 -23 5 -31t15 -13q13 -5 38 -8q1 -2 0 -8.5t-2 -8.5q-14 0 -49 1.5t-63 1.5q-20 0 -56.5 -1.5t-47.5 -1.5q-1 2 -1 8.5t1 8.5q31 6 39 9q16 7 17 46q0 10 0.5 126t0.5 126l-53 -25q-2 2 -2 12t2 12l53 25q0 215 -3 246q-2 23 -13 27
q-12 6 -38 9q-1 1 -1 7t1 8q36 2 84.5 13.5t74.5 23.5q4 -2 4 -7q-7 -19 -7 -106l-1 -173l60 30q2 -3 3 -12t-1 -11z" />
    <glyph glyph-name="uni0143" unicode="&#x143;" horiz-adv-x="668" 
d="M7 590q-1 1 0 8.5t2 8.5q16 1 61.5 -1t64.5 -2q36 0 52 2q5 -14 35 -52q197 -253 328 -415q1 0 1 1h1q3 333 -4 385q-3 26 -11.5 37.5t-29.5 18.5q-27 7 -57 9q-1 2 -1 8.5t2 8.5q12 0 53.5 -1.5t67.5 -1.5q20 0 56 1.5t40 1.5q2 -2 2 -8.5t-2 -8.5q-35 -7 -39 -8
q-20 -6 -27 -19.5t-9 -38.5q-6 -84 -8 -395q0 -23 0.5 -71t0.5 -62q-10 1 -36 0.5t-40 -1.5q-19 28 -100.5 136t-169.5 223t-100 130q-1 1 -2.5 1t-1.5 -2q-1 -80 -1 -221.5t2 -177.5q2 -31 12 -44t31 -18q7 -2 53 -8q2 -1 1.5 -8.5t-2.5 -8.5q-7 0 -46 1.5t-66 1.5
q-34 0 -70 -1.5t-41 -1.5q-1 2 -1 8.5t1 8.5q43 6 49 8q17 5 25 17.5t11 42.5q8 79 10 429q0 18 -9 36t-24 26q-26 14 -64 17zM418 767q9 -1 31.5 -12.5t26.5 -18.5q1 -2 1 -5.5t-1 -4.5q-8 -9 -80.5 -50.5t-77.5 -41.5q-2 0 -6 4.5t-3 8.5q11 16 55.5 65.5t53.5 54.5z" />
    <glyph glyph-name="uni0144" unicode="&#x144;" horiz-adv-x="490" 
d="M19 14q13 2 30 6q19 6 20 41q2 31 2 151q0 79 -2 97q-1 7 -3 11.5t-12.5 12t-28.5 13.5q0 12 3 15q92 10 145 41q3 -3 3 -6q-1 -11 -4 -58q0 -2 1.5 -3t2.5 1q80 63 131 63q63 0 94 -53q23 -37 23 -114q0 -169 1 -185q0 -12 9 -18q20 -12 43 -15q0 -13 -4 -17
q-2 0 -30.5 1.5t-63.5 1.5q-22 0 -109 -3q-1 2 -1 9t1 8q17 2 30 6q11 3 15 10.5t6 24.5q2 25 1.5 107.5t-5.5 108.5q-8 37 -29 53q-18 14 -48 14q-33 0 -59 -20q-9 -7 -9 -22q0 -193 2 -235q1 -22 6 -30t16 -10q14 -5 33 -7q1 -2 0.5 -8.5t-1.5 -8.5q-90 3 -109 3
q-40 0 -100 -3q-1 2 -1 8t1 9zM280 582q5 3 36 5.5t38 0.5q1 -1 2 -4t0 -4q-3 -6 -118 -148q-3 -1 -8.5 2t-5.5 6q34 95 56 142z" />
    <glyph glyph-name="uni0145" unicode="&#x145;" horiz-adv-x="668" 
d="M7 590q-1 1 0 8.5t2 8.5q16 1 61.5 -1t64.5 -2q36 0 52 2q5 -14 35 -52q197 -253 328 -415q1 0 1 1h1q3 333 -4 385q-3 26 -11.5 37.5t-29.5 18.5q-27 7 -57 9q-1 2 -1 8.5t2 8.5q12 0 53.5 -1.5t67.5 -1.5q20 0 56 1.5t40 1.5q2 -2 2 -8.5t-2 -8.5q-35 -7 -39 -8
q-20 -6 -27 -19.5t-9 -38.5q-6 -84 -8 -395q0 -23 0.5 -71t0.5 -62q-10 1 -36 0.5t-40 -1.5q-19 28 -100.5 136t-169.5 223t-100 130q-1 1 -2.5 1t-1.5 -2q-1 -80 -1 -221.5t2 -177.5q2 -31 12 -44t31 -18q7 -2 53 -8q2 -1 1.5 -8.5t-2.5 -8.5q-7 0 -46 1.5t-66 1.5
q-34 0 -70 -1.5t-41 -1.5q-1 2 -1 8.5t1 8.5q43 6 49 8q17 5 25 17.5t11 42.5q8 79 10 429q0 18 -9 36t-24 26q-26 14 -64 17zM349 -26q15 0 30 -17.5t15 -46.5q0 -81 -111 -117q-1 0 -3.5 6t-2.5 8q37 17 51 33.5t14 38.5q0 35 -53 53q-1 1 -1 5t1 5q6 9 26.5 20.5
t33.5 11.5z" />
    <glyph glyph-name="uni0146" unicode="&#x146;" horiz-adv-x="490" 
d="M19 14q13 2 30 6q19 6 20 41q2 31 2 151q0 79 -2 97q-1 7 -3 11.5t-12.5 12t-28.5 13.5q0 12 3 15q92 10 145 41q3 -3 3 -6q-1 -11 -4 -58q0 -2 1.5 -3t2.5 1q80 63 131 63q63 0 94 -53q23 -37 23 -114q0 -169 1 -185q0 -12 9 -18q20 -12 43 -15q0 -13 -4 -17
q-2 0 -30.5 1.5t-63.5 1.5q-22 0 -109 -3q-1 2 -1 9t1 8q17 2 30 6q11 3 15 10.5t6 24.5q2 25 1.5 107.5t-5.5 108.5q-8 37 -29 53q-18 14 -48 14q-33 0 -59 -20q-9 -7 -9 -22q0 -193 2 -235q1 -22 6 -30t16 -10q14 -5 33 -7q1 -2 0.5 -8.5t-1.5 -8.5q-90 3 -109 3
q-40 0 -100 -3q-1 2 -1 8t1 9zM256 -35q15 0 30 -17.5t15 -46.5q0 -81 -111 -117q-1 0 -3.5 6t-2.5 8q37 17 51 33.5t14 38.5q0 35 -53 53q-1 1 -1 5t1 5q6 9 26.5 20.5t33.5 11.5z" />
    <glyph glyph-name="uni0147" unicode="&#x147;" horiz-adv-x="668" 
d="M7 590q-1 1 0 8.5t2 8.5q16 1 61.5 -1t64.5 -2q36 0 52 2q5 -14 35 -52q197 -253 328 -415q1 0 1 1h1q3 333 -4 385q-3 26 -11.5 37.5t-29.5 18.5q-27 7 -57 9q-1 2 -1 8.5t2 8.5q12 0 53.5 -1.5t67.5 -1.5q20 0 56 1.5t40 1.5q2 -2 2 -8.5t-2 -8.5q-35 -7 -39 -8
q-20 -6 -27 -19.5t-9 -38.5q-6 -84 -8 -395q0 -23 0.5 -71t0.5 -62q-10 1 -36 0.5t-40 -1.5q-19 28 -100.5 136t-169.5 223t-100 130q-1 1 -2.5 1t-1.5 -2q-1 -80 -1 -221.5t2 -177.5q2 -31 12 -44t31 -18q7 -2 53 -8q2 -1 1.5 -8.5t-2.5 -8.5q-7 0 -46 1.5t-66 1.5
q-34 0 -70 -1.5t-41 -1.5q-1 2 -1 8.5t1 8.5q43 6 49 8q17 5 25 17.5t11 42.5q8 79 10 429q0 18 -9 36t-24 26q-26 14 -64 17zM352 634q-2 -3 -11 -3q-11 11 -61.5 53.5t-68.5 54.5q0 3 3 8.5t5 5.5q5 0 58 -22.5t67 -29.5q5 -3 9 0q13 8 62 30t53 22q2 0 5 -5.5t2 -8.5
q-111 -92 -123 -105z" />
    <glyph glyph-name="uni0148" unicode="&#x148;" horiz-adv-x="490" 
d="M19 14q13 2 30 6q19 6 20 41q2 31 2 151q0 79 -2 97q-1 7 -3 11.5t-12.5 12t-28.5 13.5q0 12 3 15q92 10 145 41q3 -3 3 -6q-1 -11 -4 -58q0 -2 1.5 -3t2.5 1q80 63 131 63q63 0 94 -53q23 -37 23 -114q0 -169 1 -185q0 -12 9 -18q20 -12 43 -15q0 -13 -4 -17
q-2 0 -30.5 1.5t-63.5 1.5q-22 0 -109 -3q-1 2 -1 9t1 8q17 2 30 6q11 3 15 10.5t6 24.5q2 25 1.5 107.5t-5.5 108.5q-8 37 -29 53q-18 14 -48 14q-33 0 -59 -20q-9 -7 -9 -22q0 -193 2 -235q1 -22 6 -30t16 -10q14 -5 33 -7q1 -2 0.5 -8.5t-1.5 -8.5q-90 3 -109 3
q-40 0 -100 -3q-1 2 -1 8t1 9zM253 506q43 73 59 85q11 9 29 9q5 0 3 -4q-67 -105 -87 -155q-1 -3 -9 -6t-12 -3q-20 45 -48 93t-39 62q2 4 17.5 8.5t20.5 3.5q6 -3 28.5 -37.5t32.5 -55.5q3 -2 5 0z" />
    <glyph glyph-name="uni0149" unicode="&#x149;" horiz-adv-x="490" 
d="M19 14q13 2 30 6q19 6 20 41q2 31 2 151q0 79 -2 97q-1 7 -3 11.5t-12.5 12t-28.5 13.5q0 12 3 15q92 10 145 41q3 -3 3 -6q-1 -11 -4 -58q0 -2 1.5 -3t2.5 1q80 63 131 63q63 0 94 -53q23 -37 23 -114q0 -169 1 -185q0 -12 9 -18q20 -12 43 -15q0 -13 -4 -17
q-2 0 -30.5 1.5t-63.5 1.5q-22 0 -109 -3q-1 2 -1 9t1 8q17 2 30 6q11 3 15 10.5t6 24.5q2 25 1.5 107.5t-5.5 108.5q-8 37 -29 53q-18 14 -48 14q-33 0 -59 -20q-9 -7 -9 -22q0 -193 2 -235q1 -22 6 -30t16 -10q14 -5 33 -7q1 -2 0.5 -8.5t-1.5 -8.5q-90 3 -109 3
q-40 0 -100 -3q-1 2 -1 8t1 9zM115 597q17 0 32.5 -18t15.5 -48q0 -32 -27 -58.5t-70 -37.5q-7 2 -5 14q55 23 55 59q0 31 -56 45q-4 7 -1 11q8 10 26.5 21.5t29.5 11.5z" />
    <glyph glyph-name="Eng" unicode="&#x14a;" horiz-adv-x="668" 
d="M9 14q41 7 48 9q17 5 25.5 17t11.5 42q8 79 10 431q0 18 -9 35t-24 25q-26 14 -64 17q-1 1 0 8.5t2 8.5q16 1 65.5 -1t67.5 -2q38 0 45 2q7 -18 35 -53q55 -71 329 -403h1q0 1 1 1q3 316 -5 375q-3 26 -11.5 37t-29.5 18q-28 7 -56 9q-2 2 -1.5 9t2.5 8q12 0 51 -1.5
t65 -1.5q20 0 58 1.5t42 1.5q4 -4 0 -17q-35 -7 -39 -8q-20 -6 -27 -19t-9 -38q-6 -87 -8 -375q-1 -83 -1 -107q0 -122 -25.5 -191t-93.5 -69q-33 0 -46 18q-4 6 -6 26.5t1 35.5l6 5q28 -15 61 -15q66 0 66 87q0 20 -23 53q-25 36 -198 255.5t-186 236.5q-4 4 -4 -1
q-2 -82 -2 -222t2 -178q2 -31 12 -44t30 -17q19 -5 54 -9q1 -2 1 -8.5t-2 -8.5q-7 0 -44.5 1.5t-64.5 1.5q-34 0 -71.5 -1.5t-41.5 -1.5q-1 2 -1 8.5t1 8.5z" />
    <glyph glyph-name="eng" unicode="&#x14b;" horiz-adv-x="484" 
d="M17 14q17 2 32 6q19 6 20 41q2 31 2 151q0 80 -2 98q-2 7 -3.5 11t-12 11.5t-28.5 13.5q0 12 3 15q90 10 145 41l3 -6q-1 -11 -4 -58q0 -2 1.5 -3t2.5 1q76 63 129 63q64 0 96 -52q23 -38 23 -111q0 -152 -1 -195q-4 -93 -20 -146t-51 -99q-25 -33 -57.5 -54.5
t-58.5 -21.5q-35 0 -48 15q-2 7 2.5 32t9.5 36q61 -37 80 -37q22 0 30 24.5t10 95.5q2 50 2 160q3 159 -5 217q-6 43 -31 60q-20 15 -48 15t-56 -19q-10 -8 -10 -26q0 -190 3 -232q1 -22 6 -30t16 -10q14 -5 32 -7q1 -2 1 -8.5t-2 -8.5q-90 3 -109 3q-41 0 -101 -3
q-5 8 -1 17z" />
    <glyph glyph-name="uni014C" unicode="&#x14c;" horiz-adv-x="728" 
d="M360 -18q-145 0 -229 92q-84 91 -84 231q0 109 56 188q43 60 113 94.5t154 34.5q147 0 229 -88.5t82 -221.5q0 -121 -59 -202q-43 -63 -112 -95.5t-150 -32.5zM394 10q56 0 94 38q71 68 71 231q0 81 -25 156.5t-74 117.5q-48 42 -115 42q-51 0 -86 -27q-88 -63 -88 -234
q0 -83 26.5 -161.5t80.5 -122.5q50 -40 116 -40zM263 725q18 -2 52 -2h165q0 -10 -7 -26.5t-10 -17.5q-15 -3 -179 -3l-37 1q1 7 7.5 26t8.5 22z" />
    <glyph glyph-name="uni014D" unicode="&#x14d;" horiz-adv-x="478" 
d="M248 399q91 0 144 -56t53 -144q0 -121 -92 -178q-49 -33 -116 -33q-100 0 -152 60.5t-52 148.5q0 107 87 165q56 37 128 37zM223 374q-22 0 -37 -13q-42 -33 -42 -140q0 -97 31 -152.5t81 -55.5q27 0 42 15q35 35 35 141q0 90 -28.5 147.5t-81.5 57.5zM147 540
q14 -2 46 -2h65.5h61.5h24q0 -10 -5.5 -28t-8.5 -19q-13 -2 -165 -2q-29 0 -32 1q1 8 6.5 27.5t7.5 22.5z" />
    <glyph glyph-name="uni014E" unicode="&#x14e;" horiz-adv-x="728" 
d="M360 -18q-145 0 -229 92q-84 91 -84 231q0 109 56 188q43 60 113 94.5t154 34.5q147 0 229 -88.5t82 -221.5q0 -121 -59 -202q-43 -63 -112 -95.5t-150 -32.5zM394 10q56 0 94 38q71 68 71 231q0 81 -25 156.5t-74 117.5q-48 42 -115 42q-51 0 -86 -27q-88 -63 -88 -234
q0 -83 26.5 -161.5t80.5 -122.5q50 -40 116 -40zM370 707q51 0 89 46q2 2 8.5 6t9.5 4t3 -3q-16 -43 -52 -70.5t-84 -27.5q-43 0 -71.5 20.5t-28.5 49.5q0 12 25 31q9 2 9 -1q21 -55 92 -55z" />
    <glyph glyph-name="uni014F" unicode="&#x14f;" horiz-adv-x="478" 
d="M248 399q91 0 144 -56t53 -144q0 -121 -92 -178q-49 -33 -116 -33q-100 0 -152 60.5t-52 148.5q0 107 87 165q56 37 128 37zM223 374q-22 0 -37 -13q-42 -33 -42 -140q0 -97 31 -152.5t81 -55.5q27 0 42 15q35 35 35 141q0 90 -28.5 147.5t-81.5 57.5zM248 507
q51 0 82 51q8 12 15 12q4 0 4 -3q-11 -46 -44.5 -77t-81.5 -31q-37 0 -63 20t-26 53q0 16 32 38q2 1 4.5 0.5t2.5 -1.5q13 -62 75 -62z" />
    <glyph glyph-name="uni0150" unicode="&#x150;" horiz-adv-x="728" 
d="M360 -18q-145 0 -229 92q-84 91 -84 231q0 109 56 188q43 60 113 94.5t154 34.5q147 0 229 -88.5t82 -221.5q0 -121 -59 -202q-43 -63 -112 -95.5t-150 -32.5zM394 10q56 0 94 38q71 68 71 231q0 81 -25 156.5t-74 117.5q-48 42 -115 42q-51 0 -86 -27q-88 -63 -88 -234
q0 -83 26.5 -161.5t80.5 -122.5q50 -40 116 -40zM311 761q9 4 33.5 7t33.5 2q3 -2 3 -9q-11 -24 -80 -109q-9 0 -14 7q13 72 24 102zM432 774q8 4 33.5 6.5t35.5 0.5q4 -4 2 -8q-6 -12 -39 -57.5t-45 -59.5q-2 -1 -7.5 2t-7.5 5q21 90 28 111z" />
    <glyph glyph-name="uni0151" unicode="&#x151;" horiz-adv-x="478" 
d="M248 399q91 0 144 -56t53 -144q0 -121 -92 -178q-49 -33 -116 -33q-100 0 -152 60.5t-52 148.5q0 107 87 165q56 37 128 37zM223 374q-22 0 -37 -13q-42 -33 -42 -140q0 -97 31 -152.5t81 -55.5q27 0 42 15q35 35 35 141q0 90 -28.5 147.5t-81.5 57.5zM202 593
q6 2 27.5 3.5t28.5 0.5q3 -3 1 -7q-20 -39 -91 -151q-2 -1 -7 1.5t-6 5.5q6 19 16.5 53t19 59t11.5 35zM318 603q10 3 28.5 4t28.5 -2q2 -2 0 -6q-47 -90 -90 -154q-3 -1 -8 1.5t-6 5.5q9 26 27.5 87t19.5 64z" />
    <glyph glyph-name="OE" unicode="&#x152;" horiz-adv-x="955" 
d="M857 -5q-36 0 -190.5 2.5t-170.5 2.5q-2 0 -32 -6q-57 -13 -101 -13q-147 0 -232 92q-84 93 -84 232q0 110 55 189q43 60 114 94t155 34q45 0 86 -9q22 -5 65 -9h254q93 0 113 5q3 0 3 -3q-9 -31 -16 -142q-3 -2 -9.5 -2.5t-9.5 1.5q-6 52 -20 77q-8 16 -16.5 23t-28.5 9
q-16 2 -118.5 2t-117.5 -1q-1 0 -2 -2t0 -3q115 -75 124 -238q0 -5 4 -5q90 0 104 1q18 1 27 9.5t15 29.5l9 37q2 2 9.5 1.5t8.5 -2.5q-4 -88 -4 -93q0 -48 3 -93q-2 -2 -9.5 -2.5t-9.5 1.5q-6 29 -8 37q-9 33 -41 37q-20 1 -105 1q-5 0 -5 -5q-3 -149 -117 -240
q-7 -7 3 -10q62 -5 223 -5q38 0 55.5 5.5t31.5 21.5q32 35 54 98q3 2 9.5 -0.5t7.5 -4.5q-2 -16 -15.5 -68t-21.5 -68q-8 -18 -49 -18zM396 10q54 0 89 35q36 35 54.5 99.5t18.5 135.5q0 83 -23.5 158.5t-75.5 117.5q-51 40 -114 40q-49 0 -84 -26q-91 -65 -91 -235
q0 -82 27.5 -162t82.5 -125q49 -38 116 -38z" />
    <glyph glyph-name="oe" unicode="&#x153;" horiz-adv-x="709" 
d="M387 45q0 1 -2 1q-62 -57 -148 -57q-100 0 -152 60t-52 148q0 106 86 163q60 39 129 39q83 -3 140 -58q3 -3 7 1q66 57 134 57q33 0 59.5 -13t41.5 -32.5t23.5 -36.5t10.5 -31q6 -8 16 -11l-5 -17q-19 -5 -234 -27q-6 0 -6 -10q0 -70 39 -119q39 -47 104 -47q61 0 107 42
q8 -12 6 -19q-34 -40 -82.5 -64.5t-93.5 -24.5q-77 0 -128 56zM222 374q-23 0 -38 -13q-42 -34 -42 -140q0 -95 32.5 -151t82.5 -56q27 0 42 15q37 34 37 140q0 90 -29.5 147.5t-84.5 57.5zM501 374q-28 0 -46 -31.5t-20 -82.5q0 -6 4 -6q7 1 36.5 3.5t56 5.5t36.5 6
q5 3 5 9q-4 34 -23.5 65t-48.5 31z" />
    <glyph glyph-name="uni0154" unicode="&#x154;" horiz-adv-x="586" 
d="M25 590q-1 2 -1 9t2 8q11 0 56 -1.5t62 -1.5q23 0 78 1t94 1q85 0 129.5 -39t44.5 -108q0 -56 -32.5 -94.5t-83.5 -58.5q-1 -1 -1.5 -3t0.5 -3q29 -51 81 -129.5t86 -111.5q30 -28 44 -35t49 -10q3 -8 -3 -17q-38 -5 -92.5 -1.5t-81.5 14.5q-28 13 -46 38q-17 19 -42 58
t-54 88t-39 65q-11 21 -27 21q-4 0 -18 -0.5t-17 -0.5q-4 0 -4 -6q0 -100 2 -198q1 -30 7 -39.5t23 -13.5q3 -1 47 -8q2 -2 1.5 -8t-2.5 -9q-6 0 -50.5 1.5t-81.5 1.5q-35 0 -63.5 -1t-44 -1.5t-19.5 -0.5q-2 1 -2 8t2 8q34 5 41 7q16 4 22 15.5t7 39.5q3 44 3 244
q0 167 -2 215q-1 43 -30 50q-31 5 -44 6zM243 581q-15 0 -25 -4q-6 -3 -6 -14q-3 -27 -3 -250q0 -1 2 -3t3 -2q80 -8 115 9q51 24 51 113q0 67 -35.5 109t-101.5 42zM334 774q9 -1 31.5 -12.5t26.5 -18.5q1 -1 1 -5t-1 -5q-8 -9 -80.5 -50.5t-77.5 -41.5q-2 0 -6 4.5t-3 8.5
q11 16 55.5 65.5t53.5 54.5z" />
    <glyph glyph-name="uni0155" unicode="&#x155;" horiz-adv-x="333" 
d="M285 399q35 0 48 -25q1 -2 1 -9t-1 -10q-1 -11 -13.5 -35.5t-22.5 -36.5q0 -3 -9 -3q-32 36 -70 36q-22 0 -40 -23q-7 -12 -7 -24q0 -185 3 -208q1 -33 21 -39q11 -4 47 -8q1 -3 0 -9t-3 -8q-8 0 -50 1.5t-71 1.5q-17 0 -55.5 -1.5t-45.5 -1.5q-1 2 -1 8.5t1 8.5
q28 5 35 7q15 7 16 37q3 25 3 162q0 71 -2 87q-1 8 -2.5 12.5t-12 12.5t-29.5 15q0 13 3 15q86 8 140 40q6 0 6 -4q-4 -34 -4 -82q0 -1 1.5 -1.5t2.5 0.5q29 36 55 59q29 25 56 25zM212 582q5 3 36 5.5t38 0.5q1 -1 2 -4t0 -4q-3 -6 -118 -148q-3 -1 -8.5 2t-5.5 6
q34 95 56 142z" />
    <glyph glyph-name="uni0156" unicode="&#x156;" horiz-adv-x="586" 
d="M25 590q-1 2 -1 9t2 8q11 0 56 -1.5t62 -1.5q23 0 78 1t94 1q85 0 129.5 -39t44.5 -108q0 -56 -32.5 -94.5t-83.5 -58.5q-1 -1 -1.5 -3t0.5 -3q29 -51 81 -129.5t86 -111.5q30 -28 44 -35t49 -10q3 -8 -3 -17q-38 -5 -92.5 -1.5t-81.5 14.5q-28 13 -46 38q-17 19 -42 58
t-54 88t-39 65q-11 21 -27 21q-4 0 -18 -0.5t-17 -0.5q-4 0 -4 -6q0 -100 2 -198q1 -30 7 -39.5t23 -13.5q3 -1 47 -8q2 -2 1.5 -8t-2.5 -9q-6 0 -50.5 1.5t-81.5 1.5q-35 0 -63.5 -1t-44 -1.5t-19.5 -0.5q-2 1 -2 8t2 8q34 5 41 7q16 4 22 15.5t7 39.5q3 44 3 244
q0 167 -2 215q-1 43 -30 50q-31 5 -44 6zM243 581q-15 0 -25 -4q-6 -3 -6 -14q-3 -27 -3 -250q0 -1 2 -3t3 -2q80 -8 115 9q51 24 51 113q0 67 -35.5 109t-101.5 42zM335 -29q15 0 30 -17.5t15 -46.5q0 -81 -111 -117q-1 0 -3.5 6t-2.5 8q37 17 51 33.5t14 38.5q0 35 -53 53
q-1 1 -1 5t1 5q6 9 26.5 20.5t33.5 11.5z" />
    <glyph glyph-name="uni0157" unicode="&#x157;" horiz-adv-x="333" 
d="M285 399q35 0 48 -25q1 -2 1 -9t-1 -10q-1 -11 -13.5 -35.5t-22.5 -36.5q0 -3 -9 -3q-32 36 -70 36q-22 0 -40 -23q-7 -12 -7 -24q0 -185 3 -208q1 -33 21 -39q11 -4 47 -8q1 -3 0 -9t-3 -8q-8 0 -50 1.5t-71 1.5q-17 0 -55.5 -1.5t-45.5 -1.5q-1 2 -1 8.5t1 8.5
q28 5 35 7q15 7 16 37q3 25 3 162q0 71 -2 87q-1 8 -2.5 12.5t-12 12.5t-29.5 15q0 13 3 15q86 8 140 40q6 0 6 -4q-4 -34 -4 -82q0 -1 1.5 -1.5t2.5 0.5q29 36 55 59q29 25 56 25zM126 -30q15 0 30 -17.5t15 -46.5q0 -81 -111 -117q-1 0 -3.5 6t-2.5 8q37 17 51 33.5
t14 38.5q0 35 -53 53q-1 1 -1 5t1 5q6 9 26.5 20.5t33.5 11.5z" />
    <glyph glyph-name="uni0158" unicode="&#x158;" horiz-adv-x="586" 
d="M25 590q-1 2 -1 9t2 8q11 0 56 -1.5t62 -1.5q23 0 78 1t94 1q85 0 129.5 -39t44.5 -108q0 -56 -32.5 -94.5t-83.5 -58.5q-1 -1 -1.5 -3t0.5 -3q29 -51 81 -129.5t86 -111.5q30 -28 44 -35t49 -10q3 -8 -3 -17q-38 -5 -92.5 -1.5t-81.5 14.5q-28 13 -46 38q-17 19 -42 58
t-54 88t-39 65q-11 21 -27 21q-4 0 -18 -0.5t-17 -0.5q-4 0 -4 -6q0 -100 2 -198q1 -30 7 -39.5t23 -13.5q3 -1 47 -8q2 -2 1.5 -8t-2.5 -9q-6 0 -50.5 1.5t-81.5 1.5q-35 0 -63.5 -1t-44 -1.5t-19.5 -0.5q-2 1 -2 8t2 8q34 5 41 7q16 4 22 15.5t7 39.5q3 44 3 244
q0 167 -2 215q-1 43 -30 50q-31 5 -44 6zM243 581q-15 0 -25 -4q-6 -3 -6 -14q-3 -27 -3 -250q0 -1 2 -3t3 -2q80 -8 115 9q51 24 51 113q0 67 -35.5 109t-101.5 42zM264 644q-2 -3 -11 -3q-11 11 -61.5 53.5t-68.5 54.5q0 3 3 8.5t5 5.5q5 0 58 -22.5t67 -29.5q5 -3 9 0
q13 8 62 30t53 22q2 0 5 -5.5t2 -8.5q-111 -92 -123 -105z" />
    <glyph glyph-name="uni0159" unicode="&#x159;" horiz-adv-x="333" 
d="M285 399q35 0 48 -25q1 -2 1 -9t-1 -10q-1 -11 -13.5 -35.5t-22.5 -36.5q0 -3 -9 -3q-32 36 -70 36q-22 0 -40 -23q-7 -12 -7 -24q0 -185 3 -208q1 -33 21 -39q11 -4 47 -8q1 -3 0 -9t-3 -8q-8 0 -50 1.5t-71 1.5q-17 0 -55.5 -1.5t-45.5 -1.5q-1 2 -1 8.5t1 8.5
q28 5 35 7q15 7 16 37q3 25 3 162q0 71 -2 87q-1 8 -2.5 12.5t-12 12.5t-29.5 15q0 13 3 15q86 8 140 40q6 0 6 -4q-4 -34 -4 -82q0 -1 1.5 -1.5t2.5 0.5q29 36 55 59q29 25 56 25zM176 506q43 73 59 85q11 9 29 9q5 0 3 -4q-67 -105 -87 -155q-1 -3 -9 -6t-12 -3
q-20 45 -48 93t-39 62q2 4 17.5 8.5t20.5 3.5q6 -3 28.5 -37.5t32.5 -55.5q3 -2 5 0z" />
    <glyph glyph-name="uni015A" unicode="&#x15a;" horiz-adv-x="451" 
d="M48 159q25 -92 77 -128q36 -25 95 -25q42 0 68 26t26 71q0 44 -25 75.5t-88 72.5q-79 51 -113.5 94t-34.5 105q0 80 57 126t142 46q38 0 86 -7t59 -8q-13 -83 -17 -135q-1 -2 -8.5 -3t-8.5 1q-5 48 -14.5 72t-29.5 37q-30 21 -77 21q-45 0 -72 -28t-27 -70q0 -62 62 -109
q17 -13 34.5 -24.5t39 -24.5t34.5 -22q50 -34 76 -70.5t26 -85.5q0 -82 -59.5 -133t-162.5 -51q-41 0 -82.5 9.5t-56.5 19.5q-11 18 -24 144q2 3 9 4.5t9 -0.5zM308 785q9 -1 31.5 -12.5t26.5 -18.5q1 -2 1 -5.5t-1 -4.5q-8 -9 -80.5 -50.5t-77.5 -41.5q-2 0 -6 4.5t-3 8.5
q11 16 55.5 65.5t53.5 54.5z" />
    <glyph glyph-name="uni015B" unicode="&#x15b;" horiz-adv-x="343" 
d="M295 390q-8 -34 -12 -106q-2 -2 -8 -2t-8 2q-9 66 -42 84q-22 11 -44 11q-25 0 -41.5 -14.5t-16.5 -38.5q0 -26 17 -44t74 -47q58 -29 78 -55t20 -65q0 -57 -47 -92t-115 -35q-59 0 -110 20q-2 22 -6 115q2 4 16 4q15 -78 61 -105q25 -13 50 -13q28 0 46 14t18 39
q0 24 -15 40t-53 37q-66 36 -90.5 66t-24.5 72q0 53 39 87.5t110 34.5q30 0 62 -5q25 -4 42 -4zM200 582q5 3 36 5.5t38 0.5q1 -1 2 -4t0 -4q-3 -6 -118 -148q-3 -1 -8.5 2t-5.5 6q34 95 56 142z" />
    <glyph glyph-name="uni015C" unicode="&#x15c;" horiz-adv-x="451" 
d="M48 159q25 -92 77 -128q36 -25 95 -25q42 0 68 26t26 71q0 44 -25 75.5t-88 72.5q-79 51 -113.5 94t-34.5 105q0 80 57 126t142 46q38 0 86 -7t59 -8q-13 -83 -17 -135q-1 -2 -8.5 -3t-8.5 1q-5 48 -14.5 72t-29.5 37q-30 21 -77 21q-45 0 -72 -28t-27 -70q0 -62 62 -109
q17 -13 34.5 -24.5t39 -24.5t34.5 -22q50 -34 76 -70.5t26 -85.5q0 -82 -59.5 -133t-162.5 -51q-41 0 -82.5 9.5t-56.5 19.5q-11 18 -24 144q2 3 9 4.5t9 -0.5zM230 770q2 3 11 3q9 -10 59.5 -52.5t70.5 -56.5q0 -3 -3 -8t-5 -5q-4 0 -58 22.5t-67 29.5q-5 3 -9 0
q-13 -8 -62 -30t-53 -22q-2 0 -5 5.5t-2 7.5q111 92 123 106z" />
    <glyph glyph-name="uni015D" unicode="&#x15d;" horiz-adv-x="343" 
d="M295 390q-8 -34 -12 -106q-2 -2 -8 -2t-8 2q-9 66 -42 84q-22 11 -44 11q-25 0 -41.5 -14.5t-16.5 -38.5q0 -26 17 -44t74 -47q58 -29 78 -55t20 -65q0 -57 -47 -92t-115 -35q-59 0 -110 20q-2 22 -6 115q2 4 16 4q15 -78 61 -105q25 -13 50 -13q28 0 46 14t18 39
q0 24 -15 40t-53 37q-66 36 -90.5 66t-24.5 72q0 53 39 87.5t110 34.5q30 0 62 -5q25 -4 42 -4zM172 529q-40 -69 -59 -84q-13 -9 -29 -9q-2 0 -3 2t0 3q64 97 87 154q1 2 9.5 5t11.5 3q41 -91 87 -154q-2 -3 -17 -7.5t-21 -4.5q-6 3 -29 37.5t-33 54.5q-2 2 -4 0z" />
    <glyph glyph-name="uni015E" unicode="&#x15e;" horiz-adv-x="451" 
d="M48 159q15 -52 32 -80.5t44 -47.5q36 -25 95 -25q43 0 69 26t26 71q0 44 -25 75.5t-88 72.5q-79 51 -113.5 94t-34.5 105q0 80 57 126t142 46q26 0 92 -7q37 -5 53 -5q-13 -82 -17 -136q-1 -2 -8.5 -2.5t-8.5 1.5q-9 82 -43 106q-32 21 -78 21q-45 0 -72 -28t-27 -70
q0 -62 62 -109q17 -13 34.5 -24.5t39 -24.5t34.5 -22q50 -34 76 -70.5t26 -85.5q0 -73 -47.5 -122t-133.5 -59l-18 -27q37 -21 43 -26q23 -19 23 -47q0 -38 -37 -65t-65 -27q-32 0 -49 28q-3 13 3 16q31 -16 62 -16q17 0 27.5 8.5t10.5 22.5q0 15 -17 32t-56 29q0 5 2 8
q28 37 47 61q-35 -2 -82.5 6t-73.5 23q-12 20 -24 144q2 3 9 4.5t9 -0.5z" />
    <glyph glyph-name="uni015F" unicode="&#x15f;" horiz-adv-x="343" 
d="M295 390q-8 -34 -12 -105q-1 -1 -8 -1t-8 1q-8 65 -40 83q-20 11 -45 11t-42 -14.5t-17 -38.5q0 -26 17 -44t74 -47q58 -29 78 -55t20 -65q0 -54 -39.5 -85.5t-92.5 -39.5l-19 -25q25 -13 42 -29q21 -19 21 -42q0 -36 -35.5 -62t-62.5 -26q-28 0 -47 28q-3 8 4 15
q28 -16 58 -16q37 0 37 31q0 34 -68 58q-1 5 0 7q30 37 49 59q-65 -1 -119 20q-2 21 -6 112q1 2 6.5 3.5t9.5 0.5q15 -77 59 -101q24 -14 52 -14t46 14t18 39q0 24 -15 40t-53 37q-66 36 -90.5 66t-24.5 72q0 53 39 87.5t110 34.5q31 0 63 -5q25 -4 41 -4z" />
    <glyph glyph-name="Scaron" unicode="&#x160;" horiz-adv-x="451" 
d="M48 159q25 -92 77 -128q36 -25 95 -25q42 0 68 26t26 71q0 44 -25 75.5t-88 72.5q-79 51 -113.5 94t-34.5 105q0 80 57 126t142 46q38 0 86 -7t59 -8q-13 -83 -17 -135q-1 -2 -8.5 -3t-8.5 1q-5 48 -14.5 72t-29.5 37q-30 21 -77 21q-45 0 -72 -28t-27 -70q0 -62 62 -109
q17 -13 34.5 -24.5t39 -24.5t34.5 -22q50 -34 76 -70.5t26 -85.5q0 -82 -59.5 -133t-162.5 -51q-41 0 -82.5 9.5t-56.5 19.5q-11 18 -24 144q2 3 9 4.5t9 -0.5zM252 653q-2 -3 -11 -3q-11 11 -61.5 53.5t-68.5 54.5q0 3 3 8.5t5 5.5q5 0 58 -22.5t67 -29.5q5 -3 9 0
q13 8 62 30t53 22q2 0 5 -5.5t2 -8.5q-111 -92 -123 -105z" />
    <glyph glyph-name="scaron" unicode="&#x161;" horiz-adv-x="343" 
d="M295 390q-8 -34 -12 -106q-2 -2 -8 -2t-8 2q-9 66 -42 84q-22 11 -44 11q-25 0 -41.5 -14.5t-16.5 -38.5q0 -26 17 -44t74 -47q58 -29 78 -55t20 -65q0 -57 -47 -92t-115 -35q-59 0 -110 20q-2 22 -6 115q2 4 16 4q15 -78 61 -105q25 -13 50 -13q28 0 46 14t18 39
q0 24 -15 40t-53 37q-66 36 -90.5 66t-24.5 72q0 53 39 87.5t110 34.5q30 0 62 -5q25 -4 42 -4zM187 506q43 73 59 85q10 9 29 9q5 0 3 -4q-67 -105 -87 -155q-1 -3 -9 -6t-12 -3q-20 45 -48 93t-39 62q2 4 17.5 8.5t20.5 3.5q6 -3 28.5 -37.5t32.5 -55.5q3 -2 5 0z" />
    <glyph glyph-name="uni0162" unicode="&#x162;" horiz-adv-x="608" 
d="M437 13q2 -1 1 -8.5t-3 -8.5q-15 0 -60 1.5t-72 1.5q-49 0 -99 -1.5t-58 -1.5q-2 3 -2 9.5t2 7.5q47 4 62 9q18 4 25 17.5t8 50.5q3 58 3 476q0 7 -5 7q-12 1 -57.5 0.5t-60.5 -1.5q-29 -3 -47 -30q-20 -34 -38 -86q-1 -2 -9 -0.5t-9 4.5q15 73 17 154q0 1 2.5 2.5
t3.5 0.5q35 -13 83 -13h362q55 0 95 13q4 0 4 -5q-11 -34 -21 -157q-1 -1 -9 -1t-9 1q-8 58 -19 84q-7 16 -16 22.5t-26 8.5q-20 1 -69 1.5t-57 -0.5q-5 -2 -5 -8q0 -357 4 -485q1 -30 8 -41t23 -16q16 -4 48 -8zM305 -34q15 0 30 -17.5t15 -46.5q0 -81 -111 -117
q-1 0 -3.5 6t-2.5 8q37 17 51 33.5t14 38.5q0 35 -53 53q-1 1 -1 5t1 5q6 9 26.5 20.5t33.5 11.5z" />
    <glyph glyph-name="uni0163" unicode="&#x163;" horiz-adv-x="282" 
d="M266 343q-16 0 -47 0.5t-47 0.5q-4 0 -4 -6q-1 -46 -1 -191q0 -52 5 -68q10 -35 47 -35q34 0 52 13q4 -8 0 -19q-38 -50 -105 -50q-65 0 -88 44q-13 25 -13 116q0 27 0.5 97t0.5 89q0 9 -5 11l-45 3q0 12 7 26q36 6 39 7q4 2 4 7v83q23 8 52.5 24.5t39.5 26.5q3 1 14 1
q-4 -30 -4 -130q0 -8 4 -8q65 0 101 4q-6 -27 -7 -46zM164 -39q15 0 30 -17.5t15 -46.5q0 -81 -111 -117q-1 0 -3.5 6t-2.5 8q37 17 51 33.5t14 38.5q0 35 -53 53q-1 1 -1 5t1 5q6 9 26.5 20.5t33.5 11.5z" />
    <glyph glyph-name="uni0164" unicode="&#x164;" horiz-adv-x="608" 
d="M437 13q2 -1 1 -8.5t-3 -8.5q-15 0 -60 1.5t-72 1.5q-49 0 -99 -1.5t-58 -1.5q-2 3 -2 9.5t2 7.5q47 4 62 9q18 4 25 17.5t8 50.5q3 58 3 476q0 7 -5 7q-12 1 -57.5 0.5t-60.5 -1.5q-29 -3 -47 -30q-20 -34 -38 -86q-1 -2 -9 -0.5t-9 4.5q15 73 17 154q0 1 2.5 2.5
t3.5 0.5q35 -13 83 -13h362q55 0 95 13q4 0 4 -5q-11 -34 -21 -157q-1 -1 -9 -1t-9 1q-8 58 -19 84q-7 16 -16 22.5t-26 8.5q-20 1 -69 1.5t-57 -0.5q-5 -2 -5 -8q0 -357 4 -485q1 -30 8 -41t23 -16q16 -4 48 -8zM306 642q-2 -3 -11 -3q-11 11 -61.5 53.5t-68.5 54.5
q0 3 3 8.5t5 5.5q5 0 58 -22.5t67 -29.5q5 -3 9 0q13 8 62 30t53 22q2 0 5 -5.5t2 -8.5q-111 -92 -123 -105z" />
    <glyph glyph-name="uni0165" unicode="&#x165;" horiz-adv-x="282" 
d="M266 343q-16 0 -47 0.5t-47 0.5q-4 0 -4 -6q-1 -46 -1 -191q0 -52 5 -68q10 -35 47 -35q34 0 52 13q4 -8 0 -19q-38 -50 -105 -50q-65 0 -88 44q-13 25 -13 116q0 27 0.5 97t0.5 89q0 9 -5 11l-45 3q0 12 7 26q36 6 39 7q4 2 4 7v83q23 8 52.5 24.5t39.5 26.5q3 1 14 1
q-4 -30 -4 -130q0 -8 4 -8q65 0 101 4q-6 -27 -7 -46zM284 674q6 0 6 -13q1 -24 -5 -86t-12 -90q-2 -5 -9.5 -14.5t-12.5 -12.5q-5 -2 -5 3q0 79 -12 167q0 5 3 8q6 8 23 23t24 15z" />
    <glyph glyph-name="Tbar" unicode="&#x166;" horiz-adv-x="608" 
d="M148 13q42 4 60 9q18 4 24.5 16.5t8.5 51.5q3 56 3 212q-25 0 -58.5 -0.5t-38.5 -0.5q0 19 7 26q2 0 16 -0.5t35 -0.5h39v238q0 9 -5 9q-12 1 -57 0.5t-60 -1.5q-32 -2 -49 -33q-17 -28 -37 -84q-1 -1 -9 0.5t-9 3.5q12 58 17 155q0 1 2.5 2.5t3.5 0.5q36 -13 83 -13h362
q56 0 95 13q4 -2 4 -4q-11 -35 -21 -158q-1 -2 -9 -2t-9 2q-9 60 -19 85q-13 28 -39 30q-20 1 -70.5 1.5t-58.5 -0.5q-5 -3 -5 -9q0 -24 0.5 -109.5t0.5 -126.5h50.5t39.5 0.5t18 0.5q0 -15 -4 -25h-104q2 -192 3 -223q1 -30 8 -41.5t23 -16.5q27 -6 48 -8q1 -1 0.5 -8.5
t-2.5 -8.5q-24 0 -65.5 2t-66.5 2q-30 0 -82.5 -2t-72.5 -2q-3 3 -3 9.5t3 7.5z" />
    <glyph glyph-name="tbar" unicode="&#x167;" horiz-adv-x="282" 
d="M266 343q-16 0 -47 0.5t-47 0.5q-4 0 -4 -6q-1 -25 -1 -106q17 0 48 0.5t34 0.5q0 -15 -4 -27l-78 1v-60q0 -52 5 -68q10 -35 47 -35q34 0 52 13q4 -8 0 -19q-38 -50 -105 -50q-65 0 -88 44q-13 25 -13 116v59q-8 0 -22 -0.5t-20 -0.5q0 20 7 27q5 0 18 -0.5t17 -0.5
q1 39 1 102q0 9 -5 11l-45 3q0 12 7 26q36 6 39 7q4 2 4 7v83q23 8 52.5 24.5t39.5 26.5q3 1 14 1q-4 -30 -4 -130q0 -8 4 -8q65 0 101 4q-6 -27 -7 -46z" />
    <glyph glyph-name="uni0168" unicode="&#x168;" horiz-adv-x="661" 
d="M14 590q-1 2 -1 8.5t2 8.5q3 0 46.5 -1.5t81.5 -1.5q40 0 82.5 1.5t48.5 1.5q2 -1 2 -8t-2 -9q-10 -1 -39 -6q-29 -7 -32 -53q-4 -89 0 -283q1 -79 19 -122q33 -98 160 -98q146 0 160 167q12 123 3 318q-1 37 -11 51t-34 19q-29 6 -42 7q-2 2 -2 8.5t2 8.5q8 0 42 -1.5
t62 -1.5t59.5 1.5t39.5 1.5q2 -2 2 -8.5t-2 -8.5q-34 -7 -36 -8q-20 -5 -27 -19t-8 -52q-7 -256 -10 -290q-16 -239 -243 -239q-217 0 -241 176q-5 30 -6.5 94.5t-1 133t-0.5 145.5q-2 44 -31 52zM437 707q35 0 68 33q2 2 4 -4q3 -8 2 -12q-11 -20 -43 -42t-58 -22
q-17 0 -65 14q-33 9 -43 9q-27 0 -60 -28q-2 -1 -4.5 2.5t-3 7t0.5 5.5q11 16 40.5 38t50.5 22q19 0 60 -12q36 -11 51 -11z" />
    <glyph glyph-name="uni0169" unicode="&#x169;" horiz-adv-x="475" 
d="M9 361q-3 11 3 17q108 3 158 16q-6 -26 -6 -170q0 -102 5 -121q12 -51 70 -51q35 0 58 19q8 6 10 22q1 12 0.5 98t-1.5 131q0 24 -18 30q-10 3 -55 9q-1 3 0 9t2 8q98 0 176 14q-2 -40 -2 -110v-194q1 -41 23 -41q15 -1 33 0q0 -15 -3 -18q-113 -40 -148 -44q-5 5 -6 8
q-2 22 -2 57q0 2 -2 2.5t-3 -0.5q-72 -63 -127 -63q-112 0 -112 126q0 177 -1 201q-1 19 -3.5 26.5t-13.5 11.5q-7 3 -35 7zM296 529q34 0 62 29q2 0 3 -2q2 -6 -1 -16q-10 -20 -38 -41t-52 -21q-20 0 -60 12q-27 8 -41 8q-28 0 -55 -26q-2 -2 -5 3q0 14 4 18q9 16 35 35.5
t46 19.5t53 -9q42 -10 49 -10z" />
    <glyph glyph-name="uni016A" unicode="&#x16a;" horiz-adv-x="661" 
d="M14 590q-1 2 -1 8.5t2 8.5q3 0 46.5 -1.5t81.5 -1.5q40 0 82.5 1.5t48.5 1.5q2 -1 2 -8t-2 -9q-10 -1 -39 -6q-29 -7 -32 -53q-4 -89 0 -283q1 -79 19 -122q33 -98 160 -98q146 0 160 167q12 123 3 318q-1 37 -11 51t-34 19q-29 6 -42 7q-2 2 -2 8.5t2 8.5q8 0 42 -1.5
t62 -1.5t59.5 1.5t39.5 1.5q2 -2 2 -8.5t-2 -8.5q-34 -7 -36 -8q-20 -5 -27 -19t-8 -52q-7 -256 -10 -290q-16 -239 -243 -239q-217 0 -241 176q-5 30 -6.5 94.5t-1 133t-0.5 145.5q-2 44 -31 52zM265 714q18 -2 52 -2h165q0 -10 -7 -26.5t-10 -17.5q-15 -3 -179 -3l-37 1
q1 7 7.5 26t8.5 22z" />
    <glyph glyph-name="uni016B" unicode="&#x16b;" horiz-adv-x="475" 
d="M9 361q-3 11 3 17q108 3 158 16q-6 -26 -6 -170q0 -102 5 -121q12 -51 70 -51q35 0 58 19q8 6 10 22q1 12 0.5 98t-1.5 131q0 24 -18 30q-10 3 -55 9q-1 3 0 9t2 8q98 0 176 14q-2 -40 -2 -110v-194q1 -41 23 -41q15 -1 33 0q0 -15 -3 -18q-113 -40 -148 -44q-5 5 -6 8
q-2 22 -2 57q0 2 -2 2.5t-3 -0.5q-72 -63 -127 -63q-112 0 -112 126q0 177 -1 201q-1 19 -3.5 26.5t-13.5 11.5q-7 3 -35 7zM144 540q14 -2 46 -2h65.5h61.5h24q0 -10 -5.5 -28t-8.5 -19q-13 -2 -165 -2q-29 0 -32 1q1 8 6.5 27.5t7.5 22.5z" />
    <glyph glyph-name="uni016C" unicode="&#x16c;" horiz-adv-x="661" 
d="M14 590q-1 2 -1 8.5t2 8.5q3 0 46.5 -1.5t81.5 -1.5q40 0 82.5 1.5t48.5 1.5q2 -1 2 -8t-2 -9q-10 -1 -39 -6q-29 -7 -32 -53q-4 -89 0 -283q1 -79 19 -122q33 -98 160 -98q146 0 160 167q12 123 3 318q-1 37 -11 51t-34 19q-29 6 -42 7q-2 2 -2 8.5t2 8.5q8 0 42 -1.5
t62 -1.5t59.5 1.5t39.5 1.5q2 -2 2 -8.5t-2 -8.5q-34 -7 -36 -8q-20 -5 -27 -19t-8 -52q-7 -256 -10 -290q-16 -239 -243 -239q-217 0 -241 176q-5 30 -6.5 94.5t-1 133t-0.5 145.5q-2 44 -31 52zM375 691q51 0 89 46q2 2 8.5 6t9.5 4t3 -3q-16 -43 -52 -70.5t-84 -27.5
q-43 0 -71.5 20.5t-28.5 49.5q0 12 25 31q9 2 9 -1q21 -55 92 -55z" />
    <glyph glyph-name="uni016D" unicode="&#x16d;" horiz-adv-x="475" 
d="M9 361q-3 11 3 17q108 3 158 16q-6 -26 -6 -170q0 -102 5 -121q12 -51 70 -51q35 0 58 19q8 6 10 22q1 12 0.5 98t-1.5 131q0 24 -18 30q-10 3 -55 9q-1 3 0 9t2 8q98 0 176 14q-2 -40 -2 -110v-194q1 -41 23 -41q15 -1 33 0q0 -15 -3 -18q-113 -40 -148 -44q-5 5 -6 8
q-2 22 -2 57q0 2 -2 2.5t-3 -0.5q-72 -63 -127 -63q-112 0 -112 126q0 177 -1 201q-1 19 -3.5 26.5t-13.5 11.5q-7 3 -35 7zM242 507q51 0 82 51q8 12 15 12q4 0 4 -3q-11 -46 -44.5 -77t-81.5 -31q-37 0 -63 20t-26 53q0 16 32 38q2 1 4.5 0.5t2.5 -1.5q13 -62 75 -62z" />
    </font>
</defs>
</svg>
