<?xml version="1.0" standalone="no"?>
<!DOCTYPE svg PUBLIC "-//W3C//DTD SVG 1.1//EN" "http://www.w3.org/Graphics/SVG/1.1/DTD/svg11.dtd" >
<svg>
<metadata>
Created by FontForge 20110222 at Mon Apr 21 08:54:53 2014
 By Orthosie Webhosting
(c) 2007 Adobe Systems Incorporated. All Rights Reserved.
</metadata>
<defs>
<font id="ArnoProItalicDisplay" horiz-adv-x="400" >
  <font-face 
    font-family="ArnoProItalicDisplay"
    font-weight="400"
    font-style="italic"
    font-stretch="normal"
    units-per-em="1000"
    panose-1="2 2 5 2 5 5 6 9 4 3"
    ascent="688"
    descent="-312"
    x-height="398"
    cap-height="613"
    bbox="-209.5 -388 1278 855"
    underline-thickness="50"
    underline-position="-50"
    slope="-11"
    unicode-range="U+0020-FB06"
  />
<missing-glyph horiz-adv-x="500" 
d="M-30 0v700h500v-700h-500zM220 395l170 255h-340zM250 350l170 -255v510zM50 50h340l-170 255zM20 605v-510l170 255z" />
    <glyph glyph-name="f_f" unicode="ff" horiz-adv-x="426" 
d="M28 353q0 3 2 7q12 16 32 23h41q4 1 4 6q35 165 129 236q43 33 81 33q27 0 27 -12q0 -3 -5 -10t-10.5 -13t-12.5 -13.5t-9 -9.5q-5 -5 -9 -2q-22 15 -39 15q-27 0 -44 -39q-24 -50 -45 -185q-2 -6 3 -6l135 -1q5 0 5 6q20 110 49.5 167t85.5 99q49 34 82 34q28 0 28 -12
q0 -14 -38 -48q-4 -4 -9 -3q-21 16 -42 16q-26 0 -46 -43q-23 -50 -46 -208q0 -6 3 -6q67 0 95 7q3 -5 -4 -15q-17 -13 -57 -20q-4 -1 -11 -1.5t-15.5 -1.5t-11.5 -1q-5 0 -5 -6q-5 -30 -22 -146.5t-29 -181.5q-13 -70 -40 -124t-58.5 -82t-60.5 -41.5t-53 -13.5
q-47 0 -62 27q-7 12 -8 29q-56 -85 -134 -85q-25 0 -41 11.5t-17 26.5q-2 25 9 51q3 5 10 5q31 -53 86 -53q32 0 49.5 34.5t31.5 118.5q42 230 67 421q0 7 -4 7q-31 0 -67 3zM168 351q-5 -3 -5 -7q-2 -11 -22.5 -148t-33.5 -204q-14 -87 -50 -152q28 -47 90 -47q37 0 60 36
t40 129q25 136 60 386q0 7 -4 7h-135z" />
    <glyph glyph-name="f_f_i" unicode="ffi" horiz-adv-x="621" 
d="M109 -243q-48 0 -63 27q-7 13 -10 30q-56 -86 -136 -86q-24 0 -38.5 11t-15.5 26q-2 24 7 46q3 5 10 5q28 -48 84 -48q33 0 51 33.5t34 122.5q41 219 67 419q0 7 -4 8l-68 3q0 6 1 7q10 15 33 24q7 0 21 -0.5t20 -0.5q4 2 4 6q30 158 134 235q43 33 78 33q29 0 29 -12
q0 -4 -7 -12.5t-18.5 -19.5t-12.5 -13q-5 -5 -9 -2q-23 14 -40 14q-24 0 -45 -43q-26 -58 -45 -180q-2 -6 3 -6l136 -1q6 0 6 6q18 100 49 158t87 100q52 41 107 41q39 0 53 -17q4 -4 2 -12q0 -8 -10.5 -23t-18.5 -21q-8 -4 -13 1q-26 35 -64 35q-51 0 -80 -65
q-30 -70 -49 -197q0 -6 4 -6h77q92 0 125 16q2 1 3 -2t0 -6q-10 -17 -27 -99q-28 -133 -36 -212q-3 -26 9 -26q17 0 52 44q3 -1 3 -2q3 -11 -3 -20q-31 -43 -64.5 -67.5t-47.5 -24.5q-27 0 -12 92q4 23 53 277q1 2 -0.5 4.5t-3.5 1.5q-32 -8 -132 -8h-2q-5 -3 -5 -8
q-6 -36 -15.5 -100t-18 -119t-18.5 -105q-12 -71 -38.5 -124.5t-57.5 -82t-60 -42t-54 -13.5zM147 -207q37 0 61 38t39 127q25 136 60 386q0 7 -4 7h-135q-5 -3 -5 -7q-2 -11 -22.5 -148t-33.5 -204q-14 -83 -51 -151q28 -48 91 -48z" />
    <glyph glyph-name="f_f_l" unicode="ffl" horiz-adv-x="629" 
d="M318 658q29 0 29 -12q0 -4 -7 -12.5t-18.5 -19.5t-12.5 -13q-5 -5 -9 -2q-20 13 -39 13q-28 0 -46 -40q-22 -47 -45 -183q0 -6 4 -6h136q6 0 6 5q32 185 142 263q46 32 86 32q28 0 49 -13q16 3 38 20q2 2 5.5 -1t2.5 -6q-20 -42 -41 -168q-68 -395 -71 -428q-4 -36 7 -36
q19 0 59 44l2 -2q1 -2 0.5 -9.5t-1.5 -9.5q-69 -90 -117 -90q-30 0 -12 104q24 155 90 508q5 28 -3 36q-17 17 -45 17q-54 0 -82 -72q-25 -56 -46 -188q0 -6 4 -6q65 0 89 8q3 -8 -3 -14q-19 -17 -56 -23q-5 -1 -19.5 -2t-16.5 -1q-5 0 -5 -5q-6 -34 -15.5 -100.5
t-18.5 -121.5t-19 -105q-12 -71 -38.5 -124.5t-58 -82t-60.5 -42t-54 -13.5q-47 0 -62 27q-7 13 -10 30q-56 -86 -136 -86q-24 0 -38.5 11t-15.5 26q-2 24 7 49l10 5q30 -52 84 -52q32 0 51 36.5t34 120.5q42 224 67 419q0 7 -4 7q-31 0 -67 3q0 4 2 6q4 6 15.5 14t16.5 10
h39q6 1 6 6q17 90 47.5 144t84.5 92q43 33 79 33zM168 351q-5 -3 -5 -7q-2 -11 -22.5 -148t-33.5 -204q-14 -83 -51 -151q28 -48 91 -48q37 0 61 38t39 127q39 215 61 386q0 7 -3 7h-137z" />
    <glyph glyph-name="longs_t" unicode="&#x17f;t" horiz-adv-x="428" 
d="M329 683q36 0 55 -15q26 -20 15 -68q-28 -136 -41 -212q-1 -2 0.5 -4t2.5 -2q29 -1 65 2.5t42 6.5q1 -1 0.5 -4.5t-1.5 -4.5q-4 -6 -19.5 -14t-28.5 -11q-27 -7 -65 -8q-3 0 -5 -6q-33 -176 -40 -243q-4 -54 16 -54q18 0 41.5 19t38.5 41q1 1 2 0t1 -2q2 -8 -1 -18
q-23 -34 -66.5 -68t-73.5 -34q-28 0 -25 66q1 30 46 292q2 6 -3 6q-44 0 -65 3v5q5 7 18 15.5t19 10.5h5.5t12.5 0.5t18 0.5q5 0 5 6q25 114 41 210q4 29 -6 40q-14 14 -38 14q-54 0 -84 -73q-28 -64 -61 -269q-5 -30 -14.5 -97.5t-17.5 -119.5t-18 -102
q-25 -134 -84.5 -199t-122.5 -65q-24 0 -38.5 11t-16.5 26q-2 23 8 46q3 5 10 5q18 -28 36 -39.5t46 -11.5q33 0 53 38t34 121q29 158 58 363q23 150 59.5 235.5t99.5 130.5q43 30 87 30z" />
    <glyph glyph-name="R_A" unicode="RA" horiz-adv-x="1026" 
d="M95 599q-1 2 -0.5 7.5t2.5 6.5q7 0 44 -1.5t57 -1.5q27 0 66 0.5t49 0.5q159 0 159 -137q0 -62 -40.5 -109t-105.5 -69q-3 -3 -1 -5q71 -139 140 -227q21 -27 37 -33q8 -3 12 4q62 109 160 291.5t120 230.5q19 39 23 52q3 0 10 -0.5t12 -0.5q6 0 13.5 0.5t9.5 0.5
q-1 -11 5 -50q1 -9 18 -123t32.5 -214.5t21.5 -134.5q8 -48 20.5 -58t64.5 -16q2 -2 1 -8.5t-3 -7.5q-7 0 -46.5 1.5t-56.5 1.5q-21 0 -65 -1.5t-51 -1.5q-2 1 -2 8t2 8q34 4 51 10q18 7 15 27q-1 17 -27 202q0 5 -5 5q-10 1 -89 1q-69 0 -76 -1q-6 -2 -9 -7l-118 -222
q-4 -9 4 -12l31 -3q2 -2 1 -8t-3 -7q-13 -3 -62 -3q-50 2 -78 12.5t-53 43.5q-32 43 -121 207q-9 21 -23 21h-47q-4 0 -4 -6q-22 -139 -29 -194q-6 -51 22 -59q10 -4 52 -9q2 -1 1 -7t-3 -7q-13 0 -59.5 2t-55.5 1l-125 -3q-2 2 -1.5 7t2.5 7q31 2 45 6q21 4 31 16t15 40
q42 207 76 475q5 38 -20 43q-19 5 -46 8zM396 464q0 57 -29.5 91.5t-87.5 34.5q-19 0 -30 -5q-10 -4 -10 -15q-5 -22 -22.5 -130t-21.5 -131q-2 -6 3 -6q79 -5 115 12q83 36 83 149zM799 516q-4 -8 -52.5 -102.5t-60.5 -120.5q-2 -5 2 -6q14 -2 84 -2q52 0 62 1q3 0 3 7
q-12 95 -34 223h-4z" />
    <glyph glyph-name="K_A" unicode="KA" horiz-adv-x="1059" 
d="M423 597q-1 2 0 8t2 8q11 0 49 -2t55 -1l107 3q1 -2 0.5 -7.5t-2.5 -8.5q-41 -5 -65.5 -18t-61.5 -50q-154 -149 -223 -204l-1 -3q101 -149 180 -234q41 -47 72 -59q6 -4 11 5q63 110 161 293t121 230q20 40 23 52q2 0 9.5 -0.5t12.5 -0.5q6 0 13.5 0.5t9.5 0.5
q0 -12 6 -50q2 -16 18 -124.5t31.5 -210.5t21.5 -136q8 -48 20.5 -58.5t62.5 -16.5q3 -2 2 -8.5t-3 -7.5q-7 0 -46 1.5t-56 1.5q-21 0 -65 -1.5t-51 -1.5q-2 1 -2 8t2 8q31 3 50 10q8 3 12.5 12t3.5 15q-3 52 -27 202q-3 4 -4 4q-11 1 -90 1q-70 0 -77 -1q-2 0 -8 -6
q-11 -22 -61 -115t-60 -112q-3 -5 4 -7q32 -5 45 -5q1 -2 0 -8t-3 -8q-32 -5 -83.5 -3.5t-79.5 11.5q-25 10 -49 34q-29 28 -90.5 109.5t-97.5 136.5q-8 11 -13 14q-1 1 1 5t4 6q32 11 111.5 80.5t129.5 127.5q31 34 35 53q2 14 -19 19q-24 6 -48 9zM96 597q-1 1 0 7.5
t2 8.5q4 0 39 -1.5t67 -1.5q39 0 73.5 1.5t39.5 1.5q2 -1 1.5 -7.5t-2.5 -8.5q-34 -3 -45 -8q-16 -4 -24 -17t-13 -44q-48 -280 -70 -443q-5 -38 3.5 -50t30.5 -16q4 -1 11 -2t13.5 -2t14.5 -2q3 -7 -3 -16q-16 0 -57.5 1.5t-65.5 1.5q-25 0 -69 -1.5t-48 -1.5
q-1 1 -0.5 7.5t1.5 8.5q8 1 25 2.5t24 3.5q34 7 44 62q44 236 74 459q4 28 -1.5 37t-23.5 14q-12 3 -41 6zM833 516q-6 -11 -53.5 -103.5t-59.5 -118.5q-3 -6 1 -7q14 -2 85 -2q52 0 62 1q5 0 3 7q-12 91 -34 223h-4z" />
    <glyph glyph-name="T_T" unicode="TT" horiz-adv-x="980" 
d="M87 475q-2 -2 -8 1t-7 6q24 61 40 135q0 2 3 2q30 -9 72 -9h750q45 0 82 9l3 -3q-20 -47 -38 -138q-2 -2 -8.5 -2t-7.5 2q2 48 -4 76q-4 24 -30 28q-26 2 -78 2t-62 -1q-5 -3 -7 -6q-5 -32 -26 -163.5t-35 -227.5t-15 -120q-1 -23 5 -32.5t23 -12.5q18 -5 58 -9
q1 -1 0.5 -7.5t-2.5 -7.5q-11 0 -60.5 1.5t-71.5 1.5q-32 0 -76.5 -1.5t-51.5 -1.5q-1 1 -0.5 7.5t1.5 7.5q48 6 53 7q21 4 30 18t19 65q3 16 78 475q0 6 -5 6h-323q-6 -3 -6 -6q-75 -473 -77 -511q-1 -23 5.5 -32.5t23.5 -12.5q17 -6 58 -9q2 -1 0.5 -7.5t-3.5 -7.5
q-11 0 -60.5 1.5t-70.5 1.5q-32 0 -77 -1.5t-51 -1.5q-1 2 -1 7.5t2 7.5q49 6 52 7q22 4 31 18t19 65q4 22 78 475q0 6 -5 6q-11 1 -57.5 1t-59.5 -1q-31 -2 -48 -24q-24 -28 -54 -84z" />
    <glyph glyph-name="T_h" unicode="Th" horiz-adv-x="912" 
d="M842 398q31 0 12 -101q-4 -22 -13.5 -70t-16.5 -86t-10 -62q-1 -26 9 -26q17 0 54 41q2 0 2 -3q1 -2 0 -8.5t-2 -8.5q-32 -44 -64 -67t-52 -23q-24 0 -13 73q2 13 20 102.5t26 135.5q10 47 -9 47q-26 0 -70.5 -43t-79.5 -103q-33 -55 -44 -117q-10 -44 -2 -57
q-11 -10 -34 -25t-31 -15q-6 0 -6 12q-1 10 6 51q90 524 93 541q-15 -1 -61 -1q-143 0 -156 -1q-6 -3 -6 -7q-75 -474 -77 -510q-1 -24 5.5 -33t23.5 -13q19 -5 58 -8q2 -1 1 -8t-3 -8q-11 0 -61 1.5t-71 1.5q-32 0 -76.5 -1.5t-51.5 -1.5q-2 1 -1.5 8t2.5 8q46 6 52 7
q22 4 31 17.5t19 65.5q1 4 78 474q0 6 -5 6q-14 1 -65.5 1t-67.5 -1q-30 0 -48 -21q-18 -22 -48 -78q-2 -2 -8 1t-7 6q24 61 38 126q0 2 3 2q30 -9 72 -9h344q70 0 90 1q11 51 18 56q20 11 63 24q2 0 4 -3.5t1 -5.5q-11 -15 -24 -82q-15 -77 -40 -223t-29 -168q0 -3 5 -1
q53 79 117.5 134.5t105.5 55.5z" />
    <glyph glyph-name="f_b" unicode="fb" horiz-adv-x="616" 
d="M336 683q32 0 49 -14q14 2 39 20q2 1 5.5 -2t2.5 -6q-12 -25 -29 -113q-8 -42 -30 -154t-32 -167q-1 -2 1 -2t3 1q49 66 107 109t92 43q19 0 32 -21t13 -63q0 -158 -116 -259q-32 -28 -75.5 -49.5t-80.5 -21.5q-25 0 -43 22.5t-18 74.5l7 62q10 58 46.5 249.5t37.5 195.5
q5 33 -4 41q-18 18 -44 18q-55 0 -81 -68q-25 -53 -47 -189q-1 -2 0 -4t3 -2q48 0 90 8q1 -2 -0.5 -7.5t-2.5 -6.5q-19 -17 -56 -25l-36 -4q-5 0 -5 -7q-1 -7 -22 -145t-34 -205q-25 -133 -85.5 -198.5t-121.5 -65.5q-25 0 -39 11t-16 26q-3 16 12 55q1 5 9 5q32 -55 84 -55
q31 0 48.5 32t33.5 115q38 210 66 427q0 6 -3 6q-52 0 -67 3q-1 1 -0.5 3t1.5 3q12 16 33 26l38 -1q5 0 6 7q19 104 52.5 162t88.5 98q43 32 88 32zM371 25q42 0 78 40q34 39 52.5 102.5t18.5 116.5q0 60 -30 60q-25 0 -63 -33t-70 -80q-37 -58 -37 -139q0 -30 13.5 -48.5
t37.5 -18.5z" />
    <glyph glyph-name="f_f_b" unicode="ffb" horiz-adv-x="822" 
d="M376 352q-5 0 -5 -6q-2 -15 -20.5 -138t-31.5 -189q-12 -71 -38.5 -124.5t-57.5 -82t-60 -42t-54 -13.5q-48 0 -63 27q-7 13 -10 30q-56 -86 -136 -86q-24 0 -38.5 11t-15.5 26q-2 25 8 52l10 5q31 -54 85 -54q33 0 51 36t32 120q45 248 67 419q0 7 -4 7q-31 0 -67 3
q0 4 2 6q4 6 15.5 14t16.5 10h39q6 1 6 6q17 91 47 143.5t82 91.5q16 13 41 23.5t41 10.5q29 0 29 -12t-38 -46q-5 -5 -9 -2q-22 15 -37 15q-28 0 -47 -38q-24 -56 -46 -186q0 -6 4 -6h134q6 0 6 5q18 102 50 161.5t87 99.5q46 34 90 34q29 0 51 -14q14 2 41 21q2 2 5.5 -1
t2.5 -6q-16 -31 -32 -115q-60 -305 -63 -321q-1 -3 2 -3q2 0 3 2q48 66 106.5 109t93.5 43q18 0 31 -20.5t13 -63.5q0 -160 -116 -259q-31 -28 -75.5 -49.5t-80.5 -21.5q-61 0 -61 100l6 59q9 53 46.5 243t41.5 211q3 23 -4 32q-15 19 -47 19q-53 0 -80 -65
q-27 -59 -48 -193q0 -7 4 -7q49 0 89 9q3 -9 -3 -15q-17 -15 -56 -22q-21 -5 -35 -3zM168 351q-5 -3 -5 -7q-2 -11 -22.5 -148t-33.5 -204q-14 -83 -51 -151q28 -48 91 -48q37 0 61 38t39 127q25 136 60 386q0 7 -4 7h-135zM578 25q41 0 77 41q35 39 53 100t18 115
q0 62 -31 62q-25 0 -64.5 -34.5t-67.5 -78.5q-37 -60 -37 -137q0 -30 13.5 -49t38.5 -19z" />
    <glyph glyph-name="f_f_h" unicode="ffh" horiz-adv-x="843" 
d="M470 391q3 -7 -3 -13q-20 -18 -58 -23q-27 -3 -33 -3q-5 0 -5 -6q-5 -30 -22 -146.5t-29 -181.5q-13 -70 -39.5 -124t-57.5 -82t-60 -41.5t-54 -13.5q-48 0 -63 27q-7 13 -10 30q-29 -45 -65.5 -65.5t-70.5 -20.5q-24 0 -38.5 11t-15.5 26q-2 26 8 50q3 5 10 5
q31 -52 83 -52q33 0 52 36.5t33 119.5q45 248 67 419q0 7 -4 7q-31 0 -67 3q0 4 2 6q4 6 15.5 14t16.5 10h39q6 1 6 6q17 89 47.5 142.5t84.5 93.5q43 33 79 33q29 0 29 -12q0 -8 -38 -46q-4 -4 -9 -2q-21 14 -40 14q-25 0 -45 -40q-23 -54 -45 -183q0 -6 4 -6h134q6 0 6 5
q20 107 51 163t87 97q47 35 92 35q32 0 50 -12q20 5 38 19q2 2 6 -1t3 -6q-14 -27 -30 -120q-7 -36 -65 -354h4q52 79 117 134t107 55q30 0 12 -100q-3 -17 -14 -69.5t-17.5 -88.5t-8.5 -60q-1 -27 10 -27q17 0 53 43q3 0 3 -3q1 -2 0 -8.5t-2 -8.5q-33 -44 -66 -68t-52 -24
q-24 0 -13 73q6 29 23 115t25 127q9 43 -11 43q-25 0 -70 -43t-80 -103q-33 -56 -43 -114q-11 -47 -3 -61q-52 -39 -65 -39q-6 0 -6 12q-1 10 7 54q15 86 56.5 307.5t44.5 238.5q4 28 -5 38q-17 17 -44 17q-56 0 -84 -67q-25 -56 -47 -193q0 -6 3 -6q46 0 90 8zM168 351
q-5 -3 -5 -7q-2 -11 -22.5 -148t-33.5 -204q-14 -83 -51 -151q28 -48 89 -48q40 0 63 37t39 128q25 136 60 386q0 7 -4 7h-135z" />
    <glyph glyph-name="f_f_j" unicode="ffj" horiz-adv-x="623" 
d="M559 688q43 0 60 -19q2 -3 2 -12q-1 -6 -13.5 -20t-23.5 -21q-9 -4 -12 0q-32 36 -67 36q-47 0 -77 -64q-30 -67 -50 -198q-2 -7 4 -7h108q65 1 101 13q7 0 4 -8q-7 -13 -17 -69t-23.5 -140t-16.5 -103q-16 -98 -35.5 -148.5t-58.5 -91.5q-46 -46 -94 -61q-13 6 -14 12
q-1 1 1 3q57 23 79.5 61.5t41.5 133.5q4 20 18 102q42 259 43 264q1 3 -0.5 5t-3.5 1q-20 -5 -139 -7q-3 0 -5 -4q-2 -15 -20.5 -138t-31.5 -189q-12 -71 -38.5 -124.5t-57.5 -82t-60 -42t-54 -13.5q-48 0 -63 27q-7 13 -10 30q-29 -45 -65.5 -65.5t-70.5 -20.5
q-24 0 -38.5 11t-15.5 26q-2 24 7 48l10 5q30 -52 84 -52q32 0 51.5 37.5t33.5 120.5q45 248 67 419q0 7 -4 8l-68 3q0 6 1 7q10 15 33 23h41q4 3 4 6q17 91 47.5 142.5t85.5 92.5q43 33 79 33q29 0 29 -12q0 -4 -7 -12.5t-18.5 -19.5t-12.5 -13q-5 -5 -9 -2q-23 14 -39 14
q-27 0 -47 -41q-23 -51 -44 -182q-2 -6 3 -6l136 -1q6 0 6 6q18 102 48 160t86 99q53 40 110 40zM168 351q-5 -3 -5 -7q-2 -11 -22.5 -148t-33.5 -204q-14 -83 -51 -151q28 -48 91 -48q38 0 61 36t39 129q25 136 60 386q0 7 -4 7h-135z" />
    <glyph glyph-name="f_f_k" unicode="ffk" horiz-adv-x="825" 
d="M377 352h-1q-5 0 -5 -6q-2 -15 -20.5 -138t-31.5 -189q-12 -71 -38.5 -124.5t-58 -82t-60.5 -42t-54 -13.5q-47 0 -62 27q-7 13 -10 30q-27 -43 -65 -64.5t-71 -21.5q-24 0 -38.5 11t-15.5 26q-2 24 7 46q3 5 10 5q29 -49 84 -49q32 0 51 36t34 121q45 248 67 419
q0 7 -4 8q-31 0 -67 3q0 5 2 7q10 13 32 24q14 -1 40 -1q5 0 5 5q17 90 48 144t84 93q45 32 79 32q29 0 29 -12q0 -4 -7 -12.5t-18.5 -19.5t-12.5 -13q-5 -5 -9 -2q-23 14 -40 14q-27 0 -45 -38q-24 -54 -45 -186q0 -5 4 -5h138q5 2 5 5q19 107 50.5 165t86.5 97
q43 32 88 32q34 0 54 -14q19 5 40 21q2 2 5.5 -1t2.5 -6q-16 -34 -41 -170l-57 -304q0 -4 4 -4q41 56 115 124.5t113 68.5q34 0 44 -17v-7q-2 -8 -12.5 -24.5t-19.5 -24.5q-32 19 -55 19q-26 0 -70 -39t-68 -70q-2 -4 1 -7q15 -20 32 -47q51 -81 74.5 -108t47.5 -27
q16 0 31.5 10.5t40.5 46.5q2 0 3 -1q0 -19 -2 -22q-61 -91 -116 -91q-24 0 -55 40q-21 28 -91 148q-7 10 -12 -1q-14 -16 -23 -57q-4 -19 -8 -47q-7 -42 4 -55q-5 -6 -31.5 -20.5t-33.5 -14.5q-10 0 -8 26q0 17 24 144q72 366 84 442q5 26 -3 35q-18 21 -50 21
q-52 0 -79 -66q-27 -59 -48 -195q0 -5 3 -5q52 0 90 9q3 -6 -3 -15q-15 -13 -56 -22zM168 351q-5 -3 -5 -7q-2 -11 -22.5 -148t-33.5 -204q-14 -83 -51 -151q28 -48 92 -48q37 0 60.5 38t38.5 127q25 136 60 386q0 7 -4 7h-135z" />
    <glyph glyph-name="f_f_t" unicode="fft" horiz-adv-x="648" 
d="M318 658q29 0 29 -12q0 -4 -7 -12.5t-18.5 -19.5t-12.5 -13q-5 -5 -9 -2q-21 13 -40 13q-26 0 -45 -38q-25 -57 -45 -185q0 -5 3 -5l135 -1l6 5q18 109 48 166.5t87 98.5q47 35 82 35q27 0 27 -12q0 -9 -37 -46q-6 -4 -9 -3q-21 13 -41 13q-27 0 -46 -40
q-26 -58 -48 -212q0 -5 4 -5h132q2 0 5 6q20 95 26 109q4 8 32 31t43 29q1 0 2.5 -1.5t2 -4t-0.5 -3.5q-15 -19 -23 -50q-5 -17 -23 -111q-1 -1 0 -3t3 -2q28 -1 64.5 2.5t43.5 7.5q1 -1 0.5 -5t-1.5 -5q-4 -5 -19.5 -13t-28.5 -11q-27 -7 -65 -8q-4 0 -4 -6
q-35 -181 -41 -246q-5 -52 16 -52q18 0 41 19t39 41q1 1 2 0.5t1 -1.5q2 -10 -1 -20q-22 -34 -66 -68t-74 -34q-29 0 -26 65q1 37 48 295q1 2 -0.5 5t-3.5 2h-130q-4 -2 -4 -5q-2 -15 -20.5 -138t-31.5 -189q-12 -71 -38.5 -124.5t-57.5 -82t-60 -42t-54 -13.5q-48 0 -63 27
q-7 13 -10 30q-29 -43 -66 -64.5t-70 -21.5q-24 0 -38.5 11t-15.5 26q-2 24 7 46q3 5 10 5q29 -49 84 -49q33 0 52 37t33 120q45 248 67 419q0 7 -4 8l-68 3q-1 1 -0.5 3.5t1.5 3.5q9 13 33 23h41q4 0 4 5q16 87 48 142t85 94q43 33 79 33zM168 351q-5 -3 -5 -7
q-2 -11 -22.5 -148t-33.5 -204q-14 -83 -51 -151q28 -48 91 -48q37 0 61 38t39 127q25 136 60 386q0 7 -4 7h-135z" />
    <glyph glyph-name="f_h" unicode="fh" horiz-adv-x="639" 
d="M336 683q32 0 53 -14q18 5 38 20q3 1 6.5 -2t2.5 -6q-12 -23 -39 -166q-3 -18 -55 -305h5q52 80 116.5 134t105.5 54q11 0 16 -7.5t5 -29t-7 -58.5q-40 -210 -41 -226q-1 -24 9 -24q17 0 53 42q3 0 3 -2q2 -9 -2 -17q-31 -43 -64.5 -67.5t-52.5 -24.5q-26 0 -13 73
q3 17 48 242q9 43 -11 43q-24 0 -69.5 -43.5t-80.5 -103.5q-31 -53 -44 -115q-11 -52 -2 -64q-53 -40 -65 -40q-7 0 -7 12q0 16 7 54q10 58 35.5 193t44.5 237.5t21 123.5q4 22 -5 33q-18 21 -48 21q-53 0 -80 -65q-27 -59 -48 -195q0 -6 3 -6q48 0 90 8q1 -2 -0.5 -7.5
t-2.5 -6.5q-19 -17 -56 -25l-36 -4q-5 0 -5 -7q-1 -7 -22 -145t-34 -205q-25 -133 -85.5 -198.5t-121.5 -65.5q-25 0 -39 11t-16 26q-2 29 12 53q2 6 9 6q35 -54 82 -54q33 0 50.5 31t33.5 116q38 210 66 427q0 6 -3 6q-52 0 -67 3q-1 1 -0.5 3t1.5 3q12 16 33 26l38 -1
q5 0 6 7q19 102 53 163t88 99q43 30 88 30z" />
    <glyph glyph-name="f_i" unicode="fi" horiz-adv-x="414" 
d="M345 689q38 0 55 -19q3 -3 3 -13q-1 -7 -12.5 -23t-20.5 -23q-9 -5 -12 0q-31 41 -65 41q-46 0 -75 -64q-25 -55 -48 -199q0 -6 4 -6q5 0 27.5 -0.5t43.5 -0.5q101 0 133 16q2 1 3 -2t0 -6q-10 -17 -26 -96q-29 -137 -36 -208q-4 -31 9 -31q15 0 50 43q3 -1 3 -2
q1 -3 0 -10.5t-2 -9.5q-31 -43 -64.5 -67.5t-47.5 -24.5q-27 0 -12 92q10 62 52 275q1 3 -0.5 5.5t-3.5 1.5q-22 -7 -132 -7q-6 0 -7 -9q-1 -7 -22 -145t-34 -205q-25 -133 -85.5 -198.5t-121.5 -65.5q-25 0 -39 11t-16 26q-2 20 11 53q1 1 10 6q31 -54 83 -54
q32 0 49.5 31.5t33.5 115.5q38 210 66 427q0 6 -3 6q-47 0 -67 4q-2 2 1 7q13 16 33 23l39 -1q4 0 5 7q18 96 49 157.5t86 102.5q50 39 103 39z" />
    <glyph glyph-name="f_j" unicode="fj" horiz-adv-x="415" 
d="M96 349q-52 0 -67 3q-1 1 -0.5 3t1.5 3q12 16 33 26l39 -1q4 0 5 6q17 93 49.5 154.5t87.5 103.5q54 41 106 41q44 0 59 -20q3 -2 3 -12q0 -6 -13 -21t-24 -22q-8 -4 -11 0q-30 37 -67 37q-49 0 -77 -63q-29 -62 -50 -198q0 -6 4 -6h115q49 0 91 13q2 1 3.5 -2t-0.5 -5
q-6 -13 -16.5 -70t-23 -139t-16.5 -104q-17 -98 -37 -150.5t-58 -92.5q-39 -39 -89 -58q-8 4 -11 12q-1 1 1 3q50 22 73 61.5t41 133.5q3 15 18 102q39 241 44 260q2 3 0.5 5.5t-4.5 1.5q-17 -5 -136 -5q-3 0 -6 -7q-4 -26 -15 -104.5t-20.5 -137t-19.5 -108.5
q-25 -133 -85.5 -198.5t-121.5 -65.5q-25 0 -39 11t-16 26q-2 24 8 51q2 5 10 5q32 -53 83 -53q33 0 51.5 32.5t34.5 116.5q39 212 66 426q0 6 -3 6z" />
    <glyph glyph-name="f_k" unicode="fk" horiz-adv-x="618" 
d="M336 683q31 0 52 -15q16 3 39 21q3 1 6.5 -2t2.5 -6q-13 -28 -39 -166q-43 -233 -57 -306q0 -2 1 -3.5t3 -0.5q41 55 115.5 124t113.5 69q31 0 43 -16v-8q-2 -7 -13 -24.5t-20 -24.5q-33 20 -55 20q-25 0 -69 -39.5t-68 -70.5q-2 -4 1 -7q12 -16 31 -45q57 -87 78 -112
t45 -25q16 0 30 10t41 47q3 0 3 -2q1 -2 0.5 -10t-1.5 -10q-28 -44 -58 -68t-56 -24q-27 0 -57 39q-11 15 -27 41t-36.5 61t-27.5 47q-2 4 -6 3t-6 -4q-15 -20 -23 -53q-1 -5 -4 -21.5t-4 -25.5q-6 -43 4 -59q-5 -6 -31.5 -20.5t-33.5 -14.5q-10 0 -8 27q2 25 24 141
q26 135 83 444q5 23 -5 34q-21 21 -50 21q-52 0 -78 -66q-27 -56 -48 -193q0 -6 3 -6q48 0 90 8q1 -2 -0.5 -7.5t-2.5 -6.5q-19 -17 -56 -25l-36 -4q-5 0 -5 -7q-1 -7 -22 -145t-34 -205q-25 -134 -85.5 -199t-121.5 -65q-25 0 -39 11t-16 26q-2 23 11 54q2 6 10 6
q36 -55 83 -55q33 0 51 34.5t32 119.5q43 240 66 420q0 6 -3 6q-52 0 -67 3q-1 1 -0.5 3t1.5 3q12 16 33 26l38 -1q5 0 6 7q19 103 51.5 162t86.5 98q43 32 91 32z" />
    <glyph glyph-name="f_l" unicode="fl" horiz-adv-x="418" 
d="M264 393q3 -7 -3 -13q-21 -19 -56 -25q-4 -1 -10.5 -1.5t-14.5 -1.5t-11 -1q-5 0 -5 -7q-48 -314 -56 -352q-25 -133 -85.5 -198.5t-121.5 -65.5q-51 0 -55 37q-2 26 11 53q1 2 10 6q34 -54 83 -54q33 0 50 31.5t33 117.5q38 210 66 425q0 7 -3 7q-57 0 -67 2q-1 1 1 6
q12 16 33 26l38 -1q5 0 6 7q19 102 51.5 160t86.5 99q43 33 87 33q33 0 56 -14q12 2 39 21q2 2 5.5 -1t2.5 -6q-17 -37 -42 -168q-62 -336 -70 -428q-4 -36 7 -36q19 0 58 44q3 -1 3 -2q1 -2 0 -9t-2 -9q-30 -41 -63 -66t-54 -25q-29 0 -12 104q21 137 91 510q3 22 -5 32
q-16 19 -49 19q-51 0 -80 -69q-25 -56 -46 -189q0 -6 3 -6q56 0 90 8z" />
    <glyph glyph-name="f_r" unicode="fr" horiz-adv-x="503" 
d="M493 398q25 0 35 -22v-11q-1 -11 -15 -32t-22 -27q-5 -4 -9 -2q-18 24 -37 24q-12 0 -37 -36t-52 -92q-21 -44 -37 -116q-12 -47 -7 -64q-6 -8 -31 -22t-31 -14q-9 0 -7 9q1 8 29 150t33 183q2 31 -6 31q-98 -7 -130 -7q-5 0 -5 -7q-47 -304 -56 -351
q-25 -133 -85.5 -198.5t-124.5 -65.5q-23 0 -36.5 11t-15.5 26q-2 27 8 51q5 5 10 5q34 -53 84 -53q33 0 52 36t33 120q41 224 66 419q0 7 -4 7q-41 0 -67 2l1 3l1 3q9 14 32 25h41q4 3 4 6q20 110 49 166t85 99q45 34 83 34q27 0 27 -12q0 -7 -37 -49q-4 -5 -9 -3
q-20 17 -42 17q-26 0 -46 -42q-24 -53 -47 -210q0 -6 8 -6q4 0 23 -0.5t40.5 -0.5t44.5 1q27 0 52 5l26 4q14 0 1 -71q-4 -22 -11 -57l-7 -35h3q33 65 75 118q41 51 68 51z" />
    <glyph glyph-name="f_t" unicode="ft" horiz-adv-x="438" 
d="M164 346v-2q-5 -31 -16 -107.5t-20.5 -135.5t-19.5 -109q-25 -134 -85 -199t-125 -65q-23 0 -36.5 11t-15.5 26q-2 23 11 54l10 5q33 -54 84 -54q33 0 50 33t32 121q41 224 66 421q0 6 -4 6q-15 0 -67 4q0 1 1 3t1 3q8 12 32 24l40 -1q4 3 4 6q20 109 50 165.5t88 99.5
q16 13 40 23t41 10q28 0 28 -13q0 -6 -14.5 -24.5t-23.5 -27.5q-5 -5 -10 -3q-22 15 -41 15q-30 0 -47 -35q-25 -55 -46 -210q0 -6 5 -6l126 1q2 0 4 3q19 91 28 110q3 8 29.5 30.5t41.5 28.5q2 1 5 -2.5t1 -5.5q-12 -16 -22 -50q-6 -23 -23 -110q0 -5 3 -5q87 0 109 11
q1 -1 0 -5t-2 -5q-11 -16 -46 -25q-25 -7 -66 -8q-3 0 -5 -7q-30 -144 -40 -246q-6 -53 16 -53q35 0 80 60q1 1 2 0t1 -2q0 -12 -2 -18q-23 -34 -66.5 -68t-72.5 -34q-30 0 -26 65q1 26 47 298q2 5 -2 5h-126q-4 0 -6 -6z" />
    <glyph glyph-name="longs_b" unicode="&#x17f;b" horiz-adv-x="606" 
d="M327 683q30 0 47 -13q20 5 40 19q2 1 5.5 -2t2.5 -6q-12 -25 -29 -113l-32.5 -162.5t-30.5 -157.5q-1 -2 1 -2.5t3 1.5q50 66 108.5 108.5t93.5 42.5q18 0 30.5 -22t12.5 -62q0 -158 -116 -259q-33 -28 -76 -49.5t-80 -21.5q-24 0 -42.5 21.5t-18.5 73.5l7 64
q9 57 45.5 246t38.5 200q6 33 -4 43q-17 17 -43 17q-52 0 -79 -66q-28 -63 -61 -271q-44 -292 -50 -320q-25 -133 -85.5 -198.5t-124.5 -65.5q-23 0 -36.5 11.5t-15.5 26.5q-2 21 8 47l10 5q18 -28 37 -40t47 -12q32 0 51 37t34 121q29 158 58 363q24 152 60 237t100 129
q41 30 84 30zM362 25q42 0 78 41q34 38 52 100t18 115q0 63 -31 63q-25 0 -64 -34t-68 -78q-37 -60 -37 -140q0 -67 52 -67z" />
    <glyph glyph-name="longs_h" unicode="&#x17f;h" horiz-adv-x="623" 
d="M327 683q30 0 47 -13q21 5 39 19q2 1 5.5 -2t2.5 -6q-12 -25 -40 -166q-9 -54 -30.5 -170.5t-25.5 -136.5h2.5h2.5q53 80 117.5 135t105.5 55q16 0 19.5 -18.5t-5.5 -76.5q-41 -214 -42 -224q0 -26 9 -26q18 0 54 43q3 0 3 -3q2 -9 -2 -17q-30 -42 -64 -67t-53 -25
q-24 0 -13 74q7 36 24.5 122t23.5 119q8 44 -11 44q-26 0 -70 -43t-80 -105q-31 -53 -44 -115q-10 -49 -2 -61q-53 -40 -65 -40q-7 0 -7 12q0 15 7 54q11 63 35.5 193.5t44 234.5t22.5 125q5 25 -5 35q-16 16 -40 16q-49 0 -79 -71q-32 -69 -63 -267q-5 -30 -14.5 -97.5
t-17.5 -119.5t-18 -102q-25 -133 -85.5 -198.5t-124.5 -65.5q-23 0 -36.5 11t-15.5 26q-2 23 8 46q3 5 10 5q32 -49 82 -49q33 0 53 37t34 120q23 125 59 363q23 150 59.5 235t99.5 130q42 31 84 31z" />
    <glyph glyph-name="longs_i" unicode="&#x17f;i" horiz-adv-x="404" 
d="M335 688q43 0 57 -20q3 -6 1 -14q-15 -27 -36 -40q-4 -3 -10 -1q-32 37 -61 37q-44 0 -75 -71q-32 -75 -63 -281q-40 -266 -48 -306q-25 -133 -85.5 -198.5t-121.5 -65.5q-24 0 -38.5 11t-16.5 26q-2 21 8 47l10 5q33 -51 83 -51q32 0 52 37.5t34 120.5q28 157 58 366
q24 161 62.5 240t94.5 121q50 37 95 37zM367 98q2 -1 2 -2q1 -2 0 -9.5t-2 -8.5q-31 -43 -65 -68.5t-48 -25.5q-30 0 -12 92q2 9 48 231q4 23 -4 23q-10 0 -52 -30q-2 0 -2 1q-1 2 0 8t2 7q28 30 66.5 56t50.5 26q17 0 4 -68q-46 -206 -50 -250q-3 -26 9 -26q14 0 53 44z
" />
    <glyph glyph-name="longs_k" unicode="&#x17f;k" horiz-adv-x="602" 
d="M327 683q30 0 47 -13q21 5 39 19q2 1 5.5 -2t2.5 -6q-7 -13 -21 -79q-61 -305 -77 -393q0 -7 4 -3q44 57 117 124.5t113 67.5q36 0 42 -16q2 -2 0 -7q-1 -8 -13 -26.5t-19 -23.5q-29 19 -56 19q-25 0 -69.5 -40t-67.5 -70q-2 -2 1 -5q1 -1 5.5 -7.5t12 -17t14.5 -22.5
q50 -82 76.5 -109t45.5 -27q33 0 72 58q3 0 3 -2q1 -2 0 -10.5t-2 -10.5q-26 -40 -57.5 -66t-57.5 -26t-56 40q-11 15 -28.5 43t-37 61.5t-25.5 43.5q-2 4 -6 3t-6 -4q-15 -19 -22 -50l-9 -57q-6 -36 4 -52q-5 -6 -31 -20.5t-33 -14.5q-11 0 -9 24q2 22 25 146
q82 439 83 447q2 24 -4 34q-13 16 -41 16q-49 0 -79 -71q-30 -68 -62 -267q-5 -30 -14.5 -97.5t-17.5 -119.5t-18 -102q-25 -133 -85.5 -198.5t-124.5 -65.5q-23 0 -36.5 11t-15.5 26q-2 23 8 46q3 5 10 5q18 -27 36.5 -37.5t47.5 -10.5q32 0 51.5 36.5t33.5 119.5
q29 158 58 363q23 150 59.5 235t100.5 130q42 31 84 31z" />
    <glyph glyph-name="longs_l" unicode="&#x17f;l" horiz-adv-x="402" 
d="M327 683q31 0 48 -13q20 5 38 19q2 1 5.5 -2t2.5 -6q-12 -25 -40 -164q-49 -271 -70 -430q-4 -36 7 -36q19 0 58 44l2 -2q1 -2 1 -9t-2 -9q-69 -91 -117 -91q-29 0 -13 104q22 136 90 511q6 23 -5 34q-13 16 -40 16q-51 0 -79 -68q-31 -68 -63 -270q-5 -30 -14.5 -97.5
t-17.5 -119.5t-18 -102q-25 -133 -85.5 -198.5t-124.5 -65.5q-23 0 -36.5 11t-15.5 26q-2 24 8 51l10 5q29 -54 84 -54q32 0 51.5 37t33.5 120q29 158 58 363q23 150 59.5 235t100.5 130q42 31 84 31z" />
    <glyph glyph-name="longs_longs" unicode="&#x17f;&#x17f;" horiz-adv-x="403" 
d="M50 -158v-1q26 -46 90 -46q69 0 97 159q24 137 52 336q24 168 59 244t92 119q45 35 82 35q27 0 27 -12t-38 -46q-4 -4 -9 -3q-18 12 -40 12q-26 0 -45 -41q-27 -58 -61 -286q-6 -36 -13.5 -91.5t-14.5 -102t-16 -96.5q-25 -133 -88.5 -198.5t-129.5 -65.5q-40 0 -56 29
q-7 13 -8 26q-62 -85 -140 -85q-23 0 -36.5 11t-15.5 26q-2 23 8 46q3 5 10 5q32 -50 82 -50q33 0 53 37.5t34 120.5q9 51 54 338q24 167 59 243t92 119q47 36 87 36q27 0 27 -12t-38 -46q-4 -4 -9 -3q-19 13 -42 13q-27 0 -49 -43q-25 -53 -60 -284q-38 -254 -46 -293
q-17 -96 -50 -150z" />
    <glyph glyph-name="longs_longs_i" unicode="&#x17f;&#x17f;i" horiz-adv-x="610" 
d="M311 660q27 0 27 -12q0 -9 -37 -46q-6 -4 -9 -3q-23 14 -39 14q-26 0 -45 -42q-28 -61 -62 -286q-38 -254 -46 -293q-17 -96 -50 -150v-1q19 -48 86 -48q73 0 101 161q3 15 52 336q25 168 61 243t93 118q53 37 98 37q22 0 37.5 -7t18.5 -14t2 -13q-5 -9 -17.5 -21.5
t-20.5 -17.5q-6 -3 -10 0q-29 34 -61 34q-44 0 -74 -65q-29 -68 -60 -272q-6 -36 -13.5 -91.5t-14.5 -102t-16 -96.5q-25 -133 -89.5 -198.5t-129.5 -65.5q-40 0 -57 29q-5 9 -7 24q-63 -83 -139 -83q-23 0 -36.5 11t-15.5 26q-2 23 8 46q3 5 10 5q32 -50 81 -50
q33 0 53.5 38t34.5 120q9 51 54 338q25 167 59.5 244t91.5 120q17 13 41.5 23.5t39.5 10.5zM573 98q2 -1 2 -2q1 -2 0 -9.5t-2 -8.5q-31 -43 -65 -68.5t-48 -25.5q-30 0 -12 92q8 40 48 233q4 23 -4 23q-11 0 -52 -31q-2 0 -2 1q-1 2 0 7.5t2 6.5q28 30 66.5 56t50.5 26
q17 0 4 -68q-46 -206 -50 -250q-3 -26 9 -26q14 0 53 44z" />
    <glyph glyph-name="longs_longs_l" unicode="&#x17f;&#x17f;l" horiz-adv-x="608" 
d="M311 660q27 0 27 -12q0 -9 -37 -46q-6 -4 -9 -3q-23 14 -40 14q-26 0 -45 -43q-27 -56 -61 -285q-38 -254 -46 -293q-17 -96 -50 -150v-1q24 -49 86 -49q73 0 101 166q12 63 21.5 126t18 121.5t12.5 81.5q23 150 59.5 235t100.5 130q42 31 84 31q30 0 47 -13q21 5 39 19
q2 1 5.5 -2t2.5 -6q-12 -25 -40 -164q-55 -295 -70 -430q-5 -36 7 -36q19 0 58 44l2 -2q1 -2 0.5 -8t-1.5 -8q-32 -42 -64 -67.5t-53 -25.5q-29 0 -13 104q27 163 90 510q4 26 -5 35q-16 16 -42 16q-48 0 -78 -71q-30 -66 -62 -266q-5 -36 -13 -92t-15 -102t-16 -96
q-13 -69 -38.5 -122.5t-56.5 -83t-62 -44t-62 -14.5q-40 0 -57 29q-5 9 -7 24q-58 -83 -139 -83q-23 0 -36.5 11t-15.5 26q-2 23 8 46q3 5 10 5q18 -28 36.5 -39t46.5 -11q33 0 52 36.5t34 121.5q9 51 54 338q25 167 59.5 244t91.5 120q17 13 41.5 23.5t39.5 10.5z" />
    <glyph glyph-name="t_t" unicode="tt" horiz-adv-x="460" 
d="M68 384h36q5 0 5 6q18 84 24 98q4 9 31.5 31.5t42.5 28.5q1 0 2.5 -1.5t2 -4t-0.5 -3.5q-14 -18 -22 -50q-8 -26 -20 -99q-1 -2 0 -4t3 -2h150q7 0 7 6q25 117 29 126t31.5 31.5t42.5 28.5q1 0 2.5 -1.5t2 -4t-0.5 -3.5q-14 -18 -22 -50q-4 -12 -26 -127q0 -6 3 -6
q29 -1 65 2.5t43 6.5q0 -8 -2 -10q-3 -5 -18.5 -13t-29.5 -12q-33 -7 -64 -8q-5 0 -6 -6q-30 -158 -39 -244q-6 -54 15 -54q36 0 81 60q1 1 2 0t1 -2q0 -14 -2 -20q-21 -33 -65 -66.5t-74 -33.5q-29 0 -26 66q1 45 47 293q2 6 -4 6l-150 1q-5 0 -5 -6q-30 -148 -40 -244
q-4 -54 16 -54q34 0 78 58q1 1 2 0t1 -2q1 -2 0.5 -10t-1.5 -10q-22 -33 -65 -65.5t-73 -32.5q-28 0 -26 66q2 52 47 293q2 6 -4 6q-50 0 -64 2v5q5 7 18.5 16.5t18.5 11.5z" />
    <glyph glyph-name="u0162_u0068" unicode="&#x162;h" horiz-adv-x="912" 
d="M842 398q31 0 12 -101q-4 -22 -13.5 -70t-16.5 -86t-10 -62q-1 -26 9 -26q17 0 54 41q2 0 2 -3q1 -2 0 -8.5t-2 -8.5q-32 -44 -64 -67t-52 -23q-24 0 -13 73q2 13 20 102.5t26 135.5q10 47 -9 47q-26 0 -70.5 -43t-79.5 -103q-33 -55 -44 -117q-10 -44 -2 -57
q-11 -10 -34 -25t-31 -15q-6 0 -6 12q-1 10 6 51q90 524 93 541q-15 -1 -61 -1q-143 0 -156 -1q-6 -3 -6 -7q-75 -474 -77 -510q-1 -24 5.5 -33t23.5 -13q19 -5 58 -8q2 -1 1 -8t-3 -8q-11 0 -61 1.5t-71 1.5q-32 0 -76.5 -1.5t-51.5 -1.5q-2 1 -1.5 8t2.5 8q46 6 52 7
q22 4 31 17.5t19 65.5q1 4 78 474q0 6 -5 6q-14 1 -65.5 1t-67.5 -1q-30 0 -48 -21q-18 -22 -48 -78q-2 -2 -8 1t-7 6q24 61 38 126q0 2 3 2q30 -9 72 -9h344q70 0 90 1q11 51 18 56q20 11 63 24q2 0 4 -3.5t1 -5.5q-11 -15 -24 -82q-15 -77 -40 -223t-29 -168q0 -3 5 -1
q53 79 117.5 134.5t105.5 55.5zM268 -33q16 0 28 -19.5t8 -46.5q-5 -29 -31 -52.5t-68 -35.5q-2 1 -5 7t-2 8q60 21 66 56q2 13 -7 24.5t-38 17.5q-2 4 1 11q25 30 48 30z" />
    <glyph glyph-name="Tcaron_h" unicode="&#x164;h" horiz-adv-x="912" 
d="M842 398q31 0 12 -101q-4 -22 -13.5 -70t-16.5 -86t-10 -62q-1 -26 9 -26q17 0 54 41q2 0 2 -3q1 -2 0 -8.5t-2 -8.5q-32 -44 -64 -67t-52 -23q-24 0 -13 73q2 13 20 102.5t26 135.5q10 47 -9 47q-26 0 -70.5 -43t-79.5 -103q-33 -55 -44 -117q-10 -44 -2 -57
q-11 -10 -34 -25t-31 -15q-6 0 -6 12q-1 10 6 51q90 524 93 541q-15 -1 -61 -1q-143 0 -156 -1q-6 -3 -6 -7q-75 -474 -77 -510q-1 -24 5.5 -33t23.5 -13q19 -5 58 -8q2 -1 1 -8t-3 -8q-11 0 -61 1.5t-71 1.5q-32 0 -76.5 -1.5t-51.5 -1.5q-2 1 -1.5 8t2.5 8q46 6 52 7
q22 4 31 17.5t19 65.5q1 4 78 474q0 6 -5 6q-14 1 -65.5 1t-67.5 -1q-30 0 -48 -21q-18 -22 -48 -78q-2 -2 -8 1t-7 6q24 61 38 126q0 2 3 2q30 -9 72 -9h344q70 0 90 1q11 51 18 56q20 11 63 24q2 0 4 -3.5t1 -5.5q-11 -15 -24 -82q-15 -77 -40 -223t-29 -168q0 -3 5 -1
q53 79 117.5 134.5t105.5 55.5zM376 650q-5 -4 -12 -4q-6 9 -44 48t-53 51q3 10 8 10q4 0 44 -21.5t56 -31.5q4 -2 8 1q109 52 118 52q2 0 4.5 -4.5t1.5 -7.5q-97 -65 -131 -93z" />
    <glyph glyph-name="gamma_gamma" unicode="&#x3b3;&#x3b3;" horiz-adv-x="750" 
d="M451 327q-58 0 -121 -89t-109 -202l-18 -50q-8 -31 -24.5 -93.5t-27.5 -104t-13 -45.5q-2 -5 -13 -5q-7 0 -27.5 17t-19.5 27q0 12 81 196q14 36 20 55q19 69 21 135q0 163 -84 163q-54 0 -106 -59q-2 0 -3 1q-2 2 -2.5 9.5t0.5 9.5q36 55 79 80.5t73 25.5q86 0 86 -129
q1 -60 -20 -160q-1 -3 2 -3q3 -1 5 3q130 288 254 288q98 0 91 -159q-2 -53 -17 -127q0 -2 3 -3q2 -1 4 3q34 80 73.5 150t60.5 92q38 45 57 45q8 0 18 -4t16 -8l6 -5q0 -4 -2 -8q-42 -7 -112 -103.5t-117 -209.5q-10 -25 -16 -52q-47 -227 -50 -235q-3 -5 -14 -5
q-7 0 -27.5 16t-18.5 24q2 13 12 44t30 83.5t25 66.5q11 30 15 54q52 271 -70 271z" />
    <glyph glyph-name="u03BB_u03BB" unicode="&#x3bb;&#x3bb;" horiz-adv-x="680" 
d="M563 -16q-23 0 -33 40q-4 16 -8 63.5t-6.5 94.5t-4.5 87.5t-2 42.5q-1 2 -3 0q-70 -140 -150 -256q-52 -71 -91 -71q-31 0 -40 45q-6 27 -11 100.5t-6.5 125.5t-1.5 65q-2 2 -4 0q-29 -40 -73 -120t-65 -130q-11 -28 -19 -87q-1 -1 -2 -1q-2 -1 -3 -1q-16 0 -34 11
t-16 18q9 32 57 107q22 36 74.5 120t74.5 120q4 10 6 21q0 46 -6 91q-10 81 -25.5 110t-49.5 29q-28 0 -57 -18q-4 0 -4 2q0 12 5 17q48 48 94 48q45 0 64 -49.5t30 -185.5q3 -34 11.5 -146t13.5 -154q7 -67 29 -69q20 -1 47 40q68 99 146 270q7 11 5 23q-1 49 -7 101
q-10 80 -31 112t-58 32t-76 -30l-3 3q-1 3 0 9t2 8q59 66 120 66q46 0 68.5 -51t35.5 -184q4 -47 13 -167.5t13 -161.5q5 -44 12.5 -58.5t20.5 -14.5q21 0 58 46q1 1 2 -1q3 -7 0 -17q-18 -32 -54 -63.5t-58 -31.5z" />
    <glyph glyph-name=".notdef" horiz-adv-x="500" 
d="M-30 0v700h500v-700h-500zM220 395l170 255h-340zM250 350l170 -255v510zM50 50h340l-170 255zM20 605v-510l170 255z" />
    <glyph glyph-name=".null" horiz-adv-x="0" 
 />
    <glyph glyph-name="nonmarkingreturn" horiz-adv-x="333" 
 />
    <glyph glyph-name="space" unicode=" " horiz-adv-x="159" 
 />
    <glyph glyph-name="exclam" unicode="!" horiz-adv-x="236" 
d="M231 609q16 0 16 -9q-1 -12 -99 -411q-13 -10 -17 -10t-6 2q6 62 12 154t10.5 158.5t6.5 80.5q2 13 17 22q36 13 60 13zM124 78q19 0 28 -11t9 -32q0 -23 -16 -36t-35 -13q-16 0 -27 12q-9 12 -9 27q0 24 19 42q12 11 31 11z" />
    <glyph glyph-name="quotedbl" unicode="&#x22;" horiz-adv-x="260" 
d="M122 645q4 6 25.5 24t26.5 18q2 0 4 -2q2 -7 -1 -17q-5 -39 -24.5 -99t-31.5 -85q-14 -28 -33 -45q-2 -1 -6 0t-4 2q16 47 29.5 110t14.5 94zM238 645q4 6 25.5 24t26.5 18q2 0 4 -2q2 -7 -1 -18q-5 -39 -24 -96t-31 -81q-16 -33 -34 -45q-2 -1 -5.5 -0.5t-4.5 1.5
q16 46 29 106t15 93z" />
    <glyph glyph-name="numbersign" unicode="#" horiz-adv-x="395" 
d="M300 455l34 124q11 7 28 11q3 0 3 -3l-38 -130q0 -2 4 -2q66 0 86 5q2 -6 -7 -24q-32 -29 -94 -29q-4 0 -4 -4l-28 -94q0 -4 4 -4q65 0 84 4q2 -7 -4 -20q-34 -35 -94 -35q-3 0 -5 -5l-35 -132q0 -2 -6 -2q-1 0 -8.5 7t-8.5 9q23 78 34 123h-85q-5 0 -5 -4
q-11 -40 -39 -134q-1 -2 -6 -2q-9 4 -16 17q6 22 19 66.5t16 56.5q-71 0 -82 3l20 51q20 -3 77 -3l28 102q-49 0 -79 3l21 49q14 -3 72 -3l32 114q0 1 12.5 6t15.5 5l3 -3l-33 -117q-2 -5 1 -5zM286 407h-83q-3 0 -5 -4l-26 -94q0 -4 2 -4h83z" />
    <glyph glyph-name="dollar" unicode="$" horiz-adv-x="450" 
d="M233 345q2 -2 4 2l46 209q0 3 -2 3q-59 1 -90 -30t-31 -79q0 -34 17.5 -57t55.5 -48zM237 248l-50 -225q0 -3 3 -3q57 0 92.5 28.5t35.5 81.5q3 63 -78 120q-3 2 -3 -2zM140 -82l17 78q0 5 -2 5q-50 5 -123 37q-4 7 -4 54t2 67q1 4 16 4q7 -70 35 -100.5t78 -39.5
q4 0 4 2l53 233q2 5 -2 7q-57 36 -86.5 71.5t-30.5 81.5q0 75 53 118t137 42q2 0 2 3l16 69q7 5 21 7q4 0 5 -1l-17 -76q0 -3 2 -3q5 0 63 -10q42 -8 44 -8q-17 -56 -29 -106q-2 -2 -8 -2t-8 2q5 55 -10 77.5t-58 27.5q-4 0 -4 -3l-47 -219q-1 -4 1 -7q45 -30 66 -46.5
t41.5 -47.5t20.5 -65q0 -71 -54 -119.5t-150 -50.5l-3 -3l-16 -75q-12 -6 -21 -6q-2 0 -4 2z" />
    <glyph glyph-name="percent" unicode="%" horiz-adv-x="624" 
d="M250 589q38 0 56.5 -30t18.5 -77q0 -55 -23.5 -101t-48.5 -65q-52 -41 -99 -41q-77 0 -77 103q0 49 18.5 94.5t47.5 71.5q59 45 107 45zM514 350q38 0 56.5 -29.5t18.5 -76.5q0 -108 -70 -165q-54 -42 -99 -42q-40 0 -59.5 28t-19.5 75q0 49 18.5 94t47.5 70
q54 46 107 46zM214 562q-39 0 -59.5 -56.5t-20.5 -109.5q0 -92 55 -92q39 0 59.5 50.5t20.5 111.5q0 96 -55 96zM479 323q-27 0 -46.5 -31t-27 -66.5t-7.5 -67.5q0 -91 55 -91q39 0 59.5 50.5t20.5 110.5q0 95 -54 95zM90 34q54 67 212 263t245 303q14 8 33 10q2 -2 2 -5
q-18 -20 -120.5 -147.5t-216.5 -270.5t-143 -178h-6q-9 9 -6 25z" />
    <glyph glyph-name="ampersand" unicode="&#x26;" horiz-adv-x="651" 
d="M434 300q25 0 63 -5t52 -5q42 0 42 34q0 25 -22 57q6 9 22 22.5t25 15.5q15 -12 15 -50q0 -43 -35.5 -82.5t-91.5 -44.5q-28 -113 -99.5 -188t-169.5 -75q-88 0 -134 62t-46 154q0 117 79 189q13 14 42.5 30.5t51.5 16.5q27 0 43 -28t13 -57q0 -1 1.5 -1.5t2.5 0.5
q70 91 74 168q1 16 -4 42q4 7 28 28.5t31 21.5q6 0 8 -16.5t-1 -30.5q-6 -56 -51 -128.5t-134 -175.5q-16 -18 -35 -39t-39.5 -42.5t-28.5 -29.5q-4 -4 -2 -6q16 -45 56.5 -73.5t96.5 -28.5q75 0 121 50.5t51 149.5q0 6 -3 9q-20 8 -53 8q-61 0 -96 -87h-5q-6 2 -6 16
q19 50 57 84.5t81 34.5zM185 392q-24 0 -47 -38t-23 -111q0 -46 9 -73q1 -4 5 -2q48 42 86 92q16 19 16 62q0 25 -12 47.5t-34 22.5z" />
    <glyph glyph-name="quotesingle" unicode="'" horiz-adv-x="142" 
d="M119 644q3 6 24 24.5t26 18.5t6 -3q2 -6 -1 -22q-6 -40 -24 -99.5t-32 -83.5q-16 -29 -30 -39q-6 -4 -9 2q15 44 26.5 106t13.5 96z" />
    <glyph glyph-name="parenleft" unicode="(" horiz-adv-x="355" 
d="M79 182q0 184 92 337.5t231 238.5q3 0 7 -5.5t3 -7.5q-124 -86 -200.5 -239t-77.5 -329q0 -240 116 -365q1 -2 -4 -8t-8 -6q-19 13 -42.5 41t-51.5 74t-46.5 117.5t-18.5 151.5z" />
    <glyph glyph-name="parenright" unicode=")" horiz-adv-x="344" 
d="M292 375q0 -184 -92 -337.5t-232 -239.5q-2 1 -6 7.5t-3 8.5q124 86 200.5 238t77.5 328q0 241 -115 366q-1 2 4 7t7 5q19 -12 43 -40t51.5 -74t46 -117.5t18.5 -151.5z" />
    <glyph glyph-name="asterisk" unicode="*" horiz-adv-x="317" 
d="M229 534q44 8 118 31l2 -7q-10 -14 -23 -20q-28 -12 -95 -28q13 -16 45.5 -48t46.5 -39q2 -4 -6 -7q-24 -3 -37 5q-14 10 -27.5 21.5t-25.5 23t-16 15.5q-34 -99 -36 -120q-2 1 -5 1q-5 0 -11.5 12.5t-3.5 23.5q4 20 28 100q-61 -16 -123 -29q-2 2 -2 4q3 5 14.5 13.5
t16.5 10.5q17 5 28.5 8t27 7t30.5 8q-52 57 -72 85q-3 3 -1 8q15 8 33 8q16 -25 65 -79q26 88 33 101q2 3 16.5 6t16.5 2q5 0 5 -5q-8 -15 -24.5 -62.5t-17.5 -49.5z" />
    <glyph glyph-name="plus" unicode="+" horiz-adv-x="460" 
d="M424 232q-7 -29 -13 -30q-4 -1 -30.5 -1h-65.5t-62 -1q-6 0 -6 -7q0 -22 -0.5 -62.5t-0.5 -69.5v-31q-1 -6 -33 -17l-7 1v35.5v68.5v82h-170v8q4 20 10 35q4 -1 99 -1h61v60q0 84 -2 108q30 10 39 10q4 0 4 -29v-141q0 -8 5 -8h172v-10z" />
    <glyph glyph-name="comma" unicode="," horiz-adv-x="143" 
d="M-68 -146q0 2 1 3q99 72 99 145q0 32 -17 66q6 9 27 28.5t30 23.5q2 1 6.5 1t5.5 -1t4 -5.5t5.5 -15.5t2.5 -25q0 -67 -48 -130t-102 -96q-11 0 -14 6z" />
    <glyph glyph-name="hyphen" unicode="-" horiz-adv-x="232" 
d="M39 220q117 0 175 6q2 -2 2 -7q-2 -8 -12 -22t-14 -15q-12 -3 -77.5 -6t-90.5 -3q-2 4 -2 7q2 9 9 24.5t10 15.5z" />
    <glyph glyph-name="period" unicode="." horiz-adv-x="143" 
d="M54 78q17 0 28 -11q9 -11 9 -32t-16 -36q-14 -13 -35 -13q-18 0 -27 12t-9 27q0 25 18 42q13 11 32 11z" />
    <glyph glyph-name="slash" unicode="/" horiz-adv-x="394" 
d="M438 686q2 0 2 -3q-17 -36 -203.5 -375t-233.5 -406q-2 -3 -16 -11.5t-20 -9.5q-3 2 -5 5q63 100 222 387.5t220 402.5q1 2 14 6t20 4z" />
    <glyph glyph-name="zero" unicode="0" horiz-adv-x="450" 
d="M304 602q72 0 105 -52.5t33 -138.5q0 -120 -35 -219t-96 -151q-57 -51 -129 -51q-139 0 -139 195q0 102 31 201t87 151q68 65 143 65zM276 578q-37 0 -66 -31q-43 -47 -68 -147t-25 -202q0 -181 99 -181q33 0 59 26q39 38 65 146t26 216q0 173 -90 173z" />
    <glyph glyph-name="one" unicode="1" horiz-adv-x="450" 
d="M317 13q2 -1 0.5 -8t-3.5 -8q-15 0 -51.5 1.5t-66.5 1.5q-35 0 -71.5 -1.5t-51.5 -1.5q-1 1 -0.5 8t2.5 8q33 4 48 7q21 4 29.5 15t14.5 42q3 14 39 223q31 200 31 208q4 30 -14 33q-12 3 -54 5q-3 2 -1.5 7.5t4.5 7.5q87 8 146 41q1 0 3.5 -0.5t4 -1.5t1.5 -2
q-9 -31 -46 -255q-5 -32 -20.5 -140t-17.5 -119q-3 -31 1.5 -44t19.5 -18t53 -9z" />
    <glyph glyph-name="two" unicode="2" horiz-adv-x="450" 
d="M227 545q-70 0 -133 -71q-2 0 -6 5.5t-3 7.5q32 44 79.5 79.5t103.5 35.5t94.5 -41.5t38.5 -102.5q0 -65 -35.5 -123.5t-108.5 -129.5q-70 -69 -150 -138q-1 -1 0 -2t2 -1q26 -3 117 -3.5t103 1.5h5q5 1 6.5 1.5t7 2t8.5 3.5t8.5 5.5t10 8.5t10 11.5t11.5 16.5t12 21
q3 2 8 -1t5 -7q-33 -80 -60 -113q-13 -14 -45 -14q-37 0 -115 1.5t-119 1.5q-47 0 -67 -2q-3 8 -1 14q7 6 25 20.5t22.5 19t18.5 16t18.5 15.5t15.5 14t16.5 15.5t15.5 14.5t17.5 17.5t17.5 19t21 22.5q125 133 125 246q0 48 -25 80.5t-75 32.5z" />
    <glyph glyph-name="three" unicode="3" horiz-adv-x="450" 
d="M274 602q51 0 84 -34.5t33 -86.5q0 -83 -115 -154q-2 -3 -1 -4q51 -16 87 -53.5t36 -91.5q0 -114 -110 -182q-61 -39 -140 -39q-64 0 -102 26q-20 13 -25 36q-7 41 1 72q2 5 14 5q7 -52 40 -81q36 -32 99 -32q71 0 109 41.5t38 115.5q0 59 -33 96.5t-97 37.5
q-13 0 -33 -2q-2 3 4.5 14.5t10.5 14.5q149 34 149 150q0 43 -24 71.5t-68 28.5q-60 0 -116 -57q-2 -1 -6 5.5t-3 8.5q82 94 168 94z" />
    <glyph glyph-name="four" unicode="4" horiz-adv-x="450" 
d="M432 180l-108 1q-2 0 -5 -5l-28 -200q-46 0 -77 -7l36 207q0 5 -3 5q-153 0 -239 -2q0 7 6 25q65 74 186 216.5t145 175.5q1 0 8 -0.5t12 -0.5t13 1h7l-56 -365q0 -5 4 -5q82 0 112 3q-10 -27 -13 -49zM71 224h39h75.5h67.5q4 0 6 5l48 282q-2 2 -4 0q-27 -30 -123 -146
t-111 -137q-1 -2 2 -4z" />
    <glyph glyph-name="five" unicode="5" horiz-adv-x="450" 
d="M389 607q2 0 5 -3.5t2 -5.5q0 -7 -13.5 -27t-24.5 -31q-16 -16 -44 -16q-15 0 -54 2.5t-52 3.5q-6 0 -11 -9q-25 -41 -46 -101q-2 -7 2 -9q7 -5 36 -22.5t49.5 -30.5t45.5 -30t39 -29q69 -58 69 -127q0 -89 -69.5 -151t-160.5 -62q-47 0 -83 18.5t-51 44.5q-9 15 -7 30
t18 44q1 1 4 2t4 0q19 -45 57 -77t97 -32q63 0 92.5 38t29.5 100q0 72 -64 125q-29 25 -87 63t-64 43q-4 11 1 21q49 119 90 190q16 26 26 26q3 0 44 -2.5t70 -2.5t50 17z" />
    <glyph glyph-name="six" unicode="6" horiz-adv-x="450" 
d="M471 622q-238 -97 -321 -293q-1 -5 3 -5q79 49 135 49q52 0 89 -43.5t37 -108.5q0 -140 -117 -206q-47 -27 -99 -27q-79 0 -118.5 52.5t-39.5 127.5q0 152 122 282t303 186q2 0 4.5 -6t1.5 -8zM232 331q-43 0 -78 -26q-13 -9 -21 -26q-18 -57 -18 -109q1 -157 111 -157
q51 0 83.5 53.5t32.5 126.5q-2 67 -29.5 102.5t-80.5 35.5z" />
    <glyph glyph-name="seven" unicode="7" horiz-adv-x="450" 
d="M462 592q1 -1 1.5 -4.5t-0.5 -4.5q-24 -57 -175 -329t-156 -282q-1 -3 -5 -3q-11 2 -22 13q-1 2 1 9q10 17 90.5 156t136.5 238t72 135q0 5 -2 5q-191 4 -256 -2q-21 -1 -34.5 -14.5t-34.5 -51.5q-1 -1 -2.5 -0.5t-4 1.5l-5 2t-3.5 2t-1 2q30 75 46 134q17 -8 76 -8h184
q60 0 94 2z" />
    <glyph glyph-name="eight" unicode="8" horiz-adv-x="450" 
d="M290 602q54 0 90 -33.5t37 -85.5q0 -47 -27.5 -77.5t-102.5 -84.5q-2 -2 0 -4q53 -45 79.5 -80.5t26.5 -74.5q0 -75 -60.5 -124.5t-137.5 -49.5t-116 39.5t-38 90.5q0 43 30 75t124 99q1 2 -1 4q-80 70 -80 141q0 75 64 126q51 39 112 39zM268 580q-41 0 -67 -29.5
t-26 -79.5q0 -38 23 -69.5t71 -69.5q3 -2 5 0q87 66 87 137q0 49 -27 80t-66 31zM220 11q45 0 74 29t30 79q1 39 -25 75.5t-85 85.5q-2 2 -6 0q-53 -39 -80 -74t-27 -81q0 -48 31.5 -81t87.5 -33z" />
    <glyph glyph-name="nine" unicode="9" horiz-adv-x="450" 
d="M46 -43q-2 0 -5 7t-2 9q216 91 298 298q1 2 -2 3q-1 0 -3 -1q-80 -50 -144 -50q-50 0 -87 43.5t-37 109.5q0 59 27.5 110.5t77.5 82.5q53 33 109 33q74 0 116 -53t42 -139q0 -149 -113 -277t-277 -176zM256 580q-51 0 -86.5 -50.5t-35.5 -119.5q0 -72 32 -107.5t86 -35.5
q43 0 82 27q10 8 13 18q18 56 18 107q0 72 -28 116.5t-81 44.5z" />
    <glyph glyph-name="colon" unicode=":" horiz-adv-x="229" 
d="M135 338q15 0 28 -11q9 -12 9 -33q0 -20 -16 -36q-15 -12 -35 -12q-17 0 -27 11q-9 12 -9 28q0 26 18 41q15 12 32 12zM92 78q19 0 28 -11q10 -12 10 -32q0 -22 -17 -36q-14 -13 -34 -13q-18 0 -27 12q-10 11 -10 27q0 24 19 42q12 11 31 11z" />
    <glyph glyph-name="semicolon" unicode=";" horiz-adv-x="229" 
d="M135 338q15 0 28 -11q9 -12 9 -33q0 -20 -16 -36q-15 -12 -35 -12q-17 0 -27 11q-9 12 -9 28q0 26 18 41q15 12 32 12zM-26 -146q0 2 1 3q98 71 98 145q0 34 -16 66q5 9 26.5 28.5t30.5 23.5q2 1 6.5 1t5.5 -1q12 -12 12 -46q0 -67 -48 -130t-102 -96q-11 0 -14 6z" />
    <glyph glyph-name="less" unicode="&#x3c;" horiz-adv-x="460" 
d="M389 365q-25 -24 -257 -142l-1 -5q5 -3 51 -26.5t88 -45.5t83 -45t49 -30q2 -2 -4 -16.5t-11 -20.5q-3 -4 -5 -2q-26 21 -149 85.5t-181 87.5q0 3 4.5 14.5t6.5 12.5q59 27 186.5 95t147.5 85q2 0 4 -2q0 -6 -4.5 -24t-7.5 -21z" />
    <glyph glyph-name="equal" unicode="=" horiz-adv-x="460" 
d="M411 277l-372 -1q-6 3 -3 8q4 24 10 36q8 -2 97 -2h280q2 -1 2 -7q-1 -7 -6 -20t-8 -14zM410 124l-371 -1q-3 1 -3 8q2 14 10 37q8 -3 97 -3h279q2 -1 2 -7q-1 -6 -6.5 -19.5t-7.5 -14.5z" />
    <glyph glyph-name="greater" unicode="&#x3e;" horiz-adv-x="460" 
d="M69 78q12 11 105 61.5t151 80.5l2 5q-4 2 -51 26.5t-88.5 46.5t-82.5 45t-49 30q-2 2 4 16t11 20q3 3 5 2q26 -21 149 -85.5t181 -87.5q0 -3 -5 -14.5t-7 -12.5q-59 -27 -186.5 -95.5t-147.5 -84.5q-2 0 -3 3q0 6 4.5 23.5t7.5 20.5z" />
    <glyph glyph-name="question" unicode="?" horiz-adv-x="299" 
d="M156 270q-1 -10 6.5 -26.5t24.5 -30.5q4 -4 -3 -11q-10 -11 -31 -18q-11 -4 -23 0q-16 7 -26.5 26t-8.5 37q1 13 13 25q9 10 61.5 49t60.5 46q36 30 36 66q1 32 -23 63.5t-79 47.5q-4 1 -17 3.5t-17 4.5q-10 2 -10 11q1 17 26 37q12 10 24 10q52 0 97 -38q51 -44 51 -112
q0 -38 -28 -69q-18 -18 -66.5 -54.5t-54.5 -41.5q-12 -10 -13 -25zM140 78q19 0 28 -11q10 -12 10 -32q0 -22 -17 -36q-14 -13 -34 -13q-18 0 -27 12q-10 11 -10 27q0 24 19 42q12 11 31 11z" />
    <glyph glyph-name="at" unicode="@" horiz-adv-x="747" 
d="M511 33q51 0 102 57.5t51 164.5q0 135 -71.5 205.5t-177.5 70.5q-38 0 -76.5 -10t-81 -38t-74.5 -70.5t-53 -114t-21 -162.5q0 -128 48.5 -202t114.5 -92q23 -7 52 -7q4 -2 0 -10q-21 -8 -42 -8q-16 0 -41.5 9.5t-58.5 33.5t-61 57.5t-47 89t-19 121.5q0 171 109 297
q58 66 132 102t151 36q81 0 142 -43t89.5 -104t28.5 -126q0 -72 -26.5 -131.5t-66.5 -94.5t-82 -54t-77 -19q-42 0 -34 76q2 22 12 75v2q-2 1 -3 -1q-41 -62 -93.5 -107.5t-81.5 -45.5q-24 0 -37 36q-6 21 -6 56q0 57 23 119.5t66 107.5q25 29 76.5 57t99.5 28q24 0 72 -10
q-15 -32 -22 -60q-13 -50 -27.5 -137.5t-14.5 -118.5q-2 -35 26 -35zM307 54q50 0 118 114q17 29 28 80q26 95 29 101q-17 10 -53 10q-72 0 -116 -84q-37 -67 -37 -155q0 -66 31 -66z" />
    <glyph glyph-name="A" unicode="A" horiz-adv-x="537" 
d="M-60 11q50 7 69 20.5t49 65.5q54 94 133 247.5t107 214.5q15 30 23 52q2 0 9.5 -0.5t12.5 -0.5q6 0 13 0.5t9 0.5q0 -12 6 -50q1 -3 35 -215t42 -258q9 -48 22 -58.5t64 -16.5q2 -2 1.5 -8.5t-3.5 -7.5q-3 0 -36 1.5t-67 1.5q-36 0 -73.5 -1.5t-42.5 -1.5q-2 1 -1.5 8
t2.5 8q38 4 50 9q18 8 15 28q-6 68 -30 201q-3 4 -4 4q-11 1 -90 1q-70 0 -76 -1q-5 0 -8 -6q-66 -119 -93 -188q-13 -35 18 -41q18 -4 44 -7q2 -1 1.5 -8t-3.5 -8q-2 0 -38 1.5t-71 1.5q-28 0 -57.5 -1.5t-31.5 -1.5q-2 1 -2 7t2 7zM305 520q-85 -170 -111 -227q-2 -5 1 -6
q14 -2 85 -2q52 0 62 1q3 0 3 7l-36 227h-4z" />
    <glyph glyph-name="B" unicode="B" horiz-adv-x="520" 
d="M-7 13q44 4 54 6q15 3 22.5 12.5t14.5 34.5q2 11 42 241q34 215 36 239q5 37 -16 43q-22 7 -50 8q-2 2 -1 8.5t3 7.5q10 0 49.5 -1.5t56.5 -1.5q54 1 129 1q64 0 107.5 -28t43.5 -96q0 -56 -38 -95.5t-98 -57.5q-3 -2 -1 -4q62 -15 97.5 -52.5t35.5 -91.5
q0 -68 -41 -113.5t-105 -65.5q-49 -15 -127 -15q-11 0 -94.5 3t-120.5 2q-2 2 -1.5 8t2.5 8zM285 590q-23 0 -34 -4q-9 -2 -11 -14q-6 -27 -37 -229q-1 -4 4 -6q7 -1 35 -1q91 0 129 41.5t38 97.5q0 115 -124 115zM248 14q80 0 115.5 45t35.5 117q0 64 -45 101.5t-122 37.5
q-23 0 -31 -2q-2 0 -4 -7q-37 -226 -38 -248q0 -17 12 -26q20 -18 77 -18z" />
    <glyph glyph-name="C" unicode="C" horiz-adv-x="580" 
d="M547 478q1 57 -5 76t-26 32q-32 20 -108 20q-114 0 -185.5 -95.5t-71.5 -244.5q0 -124 58.5 -187t158.5 -63q39 0 64 10q61 19 116 96q3 0 7 -4.5t3 -6.5q-14 -30 -43.5 -61.5t-51.5 -42.5q-47 -25 -132 -25q-127 0 -194.5 70.5t-67.5 197.5q0 106 49 196.5t142 140.5
q76 41 176 41q47 0 96 -9q63 -11 64 -11q-22 -57 -32 -128q-2 -2 -8.5 -3t-8.5 1z" />
    <glyph glyph-name="D" unicode="D" horiz-adv-x="645" 
d="M-10 13q35 2 55 6q16 4 24.5 14.5t14.5 37.5q15 72 43 241.5t34 226.5q2 14 1.5 24.5t-5.5 16.5t-16 9q-6 1 -51 9q-2 2 -0.5 8t3.5 7q7 0 51.5 -1.5t53.5 -1.5q20 0 64.5 1t80.5 1q141 0 211 -78q65 -73 65 -186q0 -109 -49 -190.5t-130 -121.5q-49 -28 -97 -36.5
t-115 -8.5q-30 0 -116 3.5t-124 2.5q-2 2 -1 8.5t3 7.5zM160 67q-3 -26 14 -35q30 -19 97 -19q94 0 158 55q49 42 79 113.5t30 151.5q0 142 -75 206q-59 51 -164 51q-28 0 -43 -5q-10 -1 -14 -18q-35 -177 -82 -500z" />
    <glyph glyph-name="E" unicode="E" horiz-adv-x="495" 
d="M-12 13q36 3 58 8q18 4 25.5 14t14.5 39q8 36 39.5 233.5t34.5 229.5q4 22 0.5 35.5t-19.5 18.5q-9 3 -49 8q-1 3 0 8t2 6q1 0 39.5 -1.5t69.5 -1.5h187q78 0 102 6q2 -2 2 -4q-9 -22 -31 -126q-1 -2 -8.5 -2.5t-8.5 1.5q0 43 -3 57q-2 22 -12 31t-37 11q-20 2 -71.5 2
t-68.5 -1q-10 -3 -12 -12q-5 -20 -41 -241q0 -6 4 -6q111 0 140 2q32 1 47 35q8 14 14 33q2 2 8.5 2t8.5 -2q-11 -38 -18 -81q-3 -14 -7.5 -48.5t-5.5 -43.5q-1 -1 -7.5 -1.5t-7.5 0.5q0 6 -1 16.5t-1 17.5q-2 21 -8 30.5t-23 10.5q-29 3 -144 3q-6 0 -6 -7
q-22 -141 -33 -238q-3 -23 11 -27q13 -3 142 -5q54 0 87 31q34 36 57 79q2 1 7 -1.5t6 -4.5q-6 -22 -23 -60t-32 -59q-7 -11 -40 -11q-22 0 -116 1.5t-148 1.5q-42 0 -83 -1.5t-42 -1.5q-1 2 -1 8t2 8z" />
    <glyph glyph-name="F" unicode="F" horiz-adv-x="465" 
d="M1 13q37 4 45 6q20 5 27 16.5t13 40.5q8 33 38.5 223t35.5 232q4 24 2 38.5t-16 19.5q-9 3 -53 9q-1 1 0 7.5t2 7.5q3 0 42.5 -1.5t71.5 -1.5h210q58 0 82 5q5 0 3 -5q-16 -35 -35 -131q-1 -2 -8 -2.5t-8 1.5q2 40 -2 71q-6 31 -37 34q-23 1 -80 2t-80 0q-12 0 -14 -17
q-7 -33 -23 -127.5t-18 -120.5q-1 -1 0 -2.5t3 -1.5q120 0 147 1t38 9t20 25l15 36q2 2 8 1.5t8 -2.5q-15 -56 -21 -91q-6 -28 -10 -83q-1 -2 -7.5 -2.5t-7.5 1.5q-2 30 -4 42q-7 31 -35 34q-42 3 -156 3q-4 0 -4 -5q-26 -164 -31 -208q-4 -28 0 -40.5t22 -16.5q15 -4 52 -7
q2 -2 1 -8.5t-3 -7.5q-11 0 -51.5 1.5t-68.5 1.5t-65.5 -1.5t-48.5 -1.5q-2 2 -1.5 8t2.5 8z" />
    <glyph glyph-name="G" unicode="G" horiz-adv-x="622" 
d="M536 35q1 -2 -1 -7.5t-4 -6.5q-2 0 -30 -8t-51 -14t-57 -11.5t-60 -5.5q-269 0 -269 263q0 116 59 212t158 139q75 32 172 32q25 0 97 -9q45 -9 64 -9q-20 -50 -33 -133q-1 -2 -8.5 -2.5t-8.5 1.5q1 53 -5 73t-26 32q-35 24 -116 24q-120 0 -194.5 -103t-74.5 -252
q0 -115 51 -180t153 -65q52 0 71 15t23 33q14 44 25 136q4 27 -3 37.5t-25 13.5q-18 4 -48 8q-1 2 0 7.5t3 7.5q12 0 51.5 -1.5t64.5 -1.5q55 0 95 4q2 -9 -2 -16l-27 -6q-16 -4 -23 -15.5t-14 -43.5q-14 -60 -19 -122q-2 -18 12 -26z" />
    <glyph glyph-name="H" unicode="H" horiz-adv-x="681" 
d="M96 597q-3 12 3 16q2 0 45 -1.5t64 -1.5q73 0 109 3q2 -2 1.5 -8t-2.5 -8q-24 -2 -43 -7q-16 -5 -23.5 -13.5t-12.5 -32.5q-31 -182 -35 -207q0 -7 3 -7h4q4 0 15 -0.5t28 -1t50 -0.5h76q133 0 142 1q3 0 5 7q22 117 33 216q3 31 -21 38q-11 3 -44 7q-1 2 -1 8t2 8
q7 0 44 -1.5t66 -1.5q30 0 67.5 1.5t41.5 1.5q1 -2 0 -8.5t-2 -7.5q-35 -5 -45 -8q-16 -5 -23 -15.5t-12 -38.5q-57 -324 -73 -461q-5 -46 19 -53q16 -5 52 -8q3 -9 -4 -16q-1 0 -41.5 1.5t-70.5 1.5q-46 0 -115 -3q-2 2 -1 8.5t3 7.5q31 3 50 8q23 7 31 51q23 112 37 219
q2 7 -4 7q-19 2 -142 2q-164 0 -173 -1q-5 -3 -5 -6q-2 -17 -14.5 -98.5t-16.5 -111.5q-4 -32 1 -45t23 -17q20 -5 49 -8q1 -3 0 -9t-3 -7q-6 0 -47.5 1.5t-67.5 1.5q-68 0 -125 -3q-1 2 -1 8t2 8q5 1 23 2.5t27 3.5q22 4 29.5 18t16.5 59q12 63 39.5 235t31.5 212
q2 22 -1.5 31.5t-15.5 13.5q-19 6 -48 9z" />
    <glyph glyph-name="I" unicode="I" horiz-adv-x="284" 
d="M96 597q-2 2 -1 8t3 8q4 0 40 -1.5t68 -1.5q31 0 70.5 1t40.5 1q2 -1 1 -7t-3 -8q-29 -4 -41 -6q-18 -5 -25 -13.5t-13 -36.5q-4 -21 -38 -228q-7 -44 -15.5 -98.5t-13.5 -88.5t-7 -49q-1 -14 -1 -25t5.5 -19.5t17.5 -11.5q17 -4 53 -8q1 -2 -0.5 -8.5t-3.5 -7.5
q-11 0 -53.5 1.5t-67.5 1.5q-27 0 -68 -1.5t-52 -1.5q-2 1 -1 7.5t3 8.5q29 2 52 7q17 4 24.5 13t12.5 29q11 45 48 275q26 174 30 207q3 23 -1 32.5t-19 13.5q-7 2 -45 7z" />
    <glyph glyph-name="J" unicode="J" horiz-adv-x="275" 
d="M91 597q-1 2 0 8t3 8q4 0 40 -1.5t72 -1.5q35 0 69 1.5t37 1.5q2 -2 1 -8t-3 -8q-8 -1 -18 -3t-16 -3t-10 -2q-20 -6 -28 -42q-4 -21 -34 -207.5t-38 -231.5q-10 -54 -15 -79t-16 -58t-25 -56q-60 -97 -170 -124q-5 0 -9 11q-1 3 1 5q57 18 91 62q19 23 30 57.5t25 105.5
q19 95 48.5 278.5t32.5 221.5q3 31 0 42t-18 15q-18 5 -50 8z" />
    <glyph glyph-name="K" unicode="K" horiz-adv-x="582" 
d="M95 597q-5 8 3 16q3 0 38 -1.5t67 -1.5q39 0 73.5 1.5t39.5 1.5q2 -2 2 -7.5t-2 -7.5q-28 -4 -46 -8q-16 -4 -24 -17t-13 -43q-40 -232 -70 -446q-4 -38 4 -49.5t30 -15.5l39 -6q1 -1 0 -7.5t-2 -8.5q-17 0 -58.5 1.5t-65.5 1.5q-41 0 -78 -2l-38 -1q-2 2 -2 8t2 8
q43 6 49 7q33 7 45 61q50 277 73 460q4 28 -1.5 37.5t-23.5 13.5zM430 597q-2 2 -1 8t3 8l35 -1q35 -2 66 -2t106 3q2 -2 1.5 -7.5t-2.5 -8.5q-44 -6 -69 -19t-58 -46q-102 -106 -226 -208l-1 -3q44 -71 106.5 -157t103.5 -123q18 -15 35 -20q19 -8 59 -9q2 -1 1.5 -7.5
t-3.5 -7.5q-34 -4 -84 -1t-65 9q-19 6 -46 35q-25 29 -82 111t-88 133q-4 9 -13 14q-4 4 6 11q31 7 116 81t132 127q32 36 34 53q0 12 -16 18q-19 5 -50 9z" />
    <glyph glyph-name="L" unicode="L" horiz-adv-x="504" 
d="M92 598q-1 1 0.5 7.5t2.5 7.5q7 0 43 -1.5t68 -1.5q29 0 69 1.5t46 1.5q1 -1 0 -7.5t-2 -8.5q-37 -4 -52 -9q-23 -7 -31 -40q-66 -389 -75 -491q-3 -21 12 -29q10 -5 76 -6t92 1q33 2 62.5 30.5t71.5 105.5q3 1 8 -1.5t5 -4.5q-33 -109 -64 -146q-9 -10 -64 -10
q-31 0 -126.5 1.5t-119.5 1.5q-25 0 -72 -1.5t-53 -1.5q-2 1 -1.5 8t2.5 8q45 5 56 8q30 6 40 49q14 69 39.5 232t34.5 230q5 32 1 43.5t-25 15.5z" />
    <glyph glyph-name="M" unicode="M" horiz-adv-x="768" 
d="M111 597q-1 2 0.5 8.5t2.5 7.5q13 0 68 -1.5t81 -1.5q0 -9 1.5 -17t4.5 -19.5t5 -21.5q84 -343 108 -415h4q59 90 243 422q15 32 20 51q47 0 93 1.5t51 1.5q1 -2 1 -8t-2 -8q-33 -4 -49 -8q-19 -5 -26.5 -15t-10.5 -30q-9 -62 -21 -219t-16 -235q-2 -37 1.5 -50t20.5 -18
q19 -5 51 -9q1 -2 0.5 -8.5t-1.5 -7.5q-6 0 -51.5 1.5t-63.5 1.5q-11 0 -56.5 -1.5t-52.5 -1.5q-2 1 -2.5 8t1.5 8q33 4 48 8q11 4 16.5 12t8.5 30q5 26 14 121t18.5 202t12.5 131q-2 1 -3 0q-6 -10 -133.5 -238t-152.5 -280q-2 -2 -9 -2.5t-9 0.5q-6 55 -50 249t-61 260
q-3 3 -5 0q-79 -297 -104 -411q-4 -24 -4.5 -37t5.5 -23t20 -13q14 -5 50 -9q1 -2 0.5 -8t-2.5 -8q-5 0 -40.5 1.5t-59.5 1.5q-30 0 -65 -1.5t-40 -1.5q-2 2 -1.5 8.5t2.5 7.5q28 4 39 7q23 4 34.5 19t26.5 58q23 72 65.5 226t56.5 218q9 36 -20 45q-16 4 -63 11z" />
    <glyph glyph-name="N" unicode="N" horiz-adv-x="655" 
d="M77 597q-1 2 0 8.5t3 7.5q11 0 48 -1.5t55 -1.5q31 0 39 1q6 -17 26 -52q29 -50 94 -161.5t112.5 -193.5t64.5 -109q1 0 1 0.5t1 0.5q12 71 36.5 231.5t28.5 205.5q4 47 -30 55q-27 7 -53 10q-2 1 -1 8t3 8q9 0 47.5 -2t67.5 -2q21 0 50 2t33 2q1 -2 1 -8t-2 -8
q-9 -1 -36 -8q-34 -9 -43 -54q-17 -83 -70 -409q-13 -87 -18 -133q-2 0 -10 0.5t-17 0.5t-17.5 -0.5t-9.5 -0.5q-29 57 -134.5 246t-156.5 276h-2l-2 -1q-35 -198 -65 -430q-3 -32 2.5 -44t24.5 -18q20 -7 52 -10q2 -1 1 -8t-3 -8q-9 0 -44.5 1.5t-64.5 1.5
q-25 0 -59.5 -1.5t-40.5 -1.5q-1 1 -1 8t1 8q24 2 48 8q22 6 31 19.5t17 43.5q8 34 38 209t38 235q4 24 -13 44q-15 19 -71 25z" />
    <glyph glyph-name="O" unicode="O" horiz-adv-x="653" 
d="M283 -19q-110 0 -166 70t-55 180q0 152 88 263q47 63 117 99.5t144 36.5q104 0 159.5 -68.5t56.5 -176.5q0 -164 -86 -271q-101 -133 -258 -133zM316 10q65 0 109 36q65 50 94 141.5t29 191.5q0 102 -41.5 163t-127.5 61q-73 0 -129 -56.5t-82 -139t-26 -173.5
q0 -104 42.5 -164t131.5 -60z" />
    <glyph glyph-name="P" unicode="P" horiz-adv-x="485" 
d="M248 247q-24 0 -56 4q-5 0 -5 -6q-24 -152 -26 -179q-5 -39 27 -45q8 -2 51 -8q1 -3 0 -9t-2 -7q-10 0 -52 1.5t-66 1.5q-26 0 -71.5 -1.5t-53.5 -1.5q-1 2 -1 8t2 8q33 3 44 5q11 3 14 4.5t11.5 7t13 16.5t8.5 28q11 55 41 238.5t35 226.5q2 25 -2.5 36.5t-19.5 15.5
q-15 3 -45 7q-3 13 4 15q12 0 49 -1.5t53 -1.5h119q77 0 125.5 -35.5t48.5 -117.5q0 -62 -32 -110t-85 -74q-55 -26 -129 -26zM249 269q84 0 125.5 53.5t41.5 131.5q0 135 -131 135q-24 0 -34 -5q-5 -3 -9 -14q-17 -77 -50 -289q0 -7 4 -8q19 -4 53 -4z" />
    <glyph glyph-name="Q" unicode="Q" horiz-adv-x="653" 
d="M315 9q64 0 107 35q65 52 95.5 141t30.5 194q0 99 -41.5 161.5t-125.5 62.5q-73 0 -129 -55t-83 -139t-27 -179q0 -99 42.5 -160t130.5 -61zM412 630q102 0 158.5 -68t56.5 -173q0 -169 -87 -276q-73 -96 -182 -122q14 -5 77 -41q80 -50 127 -70.5t93 -20.5q64 0 112 31
q1 0 3 -6.5t1 -8.5q-76 -66 -180 -66q-62 0 -124 40q-31 20 -87 63t-63 48q-21 15 -70 26q-185 36 -185 243q0 154 90 268q47 62 118 97.5t142 35.5z" />
    <glyph glyph-name="R" unicode="R" horiz-adv-x="531" 
d="M94 597q-1 2 0 8.5t3 7.5q7 0 44 -1.5t57 -1.5q58 1 115 1q79 0 119 -35t40 -100q0 -63 -40.5 -108.5t-104.5 -68.5q-1 -1 -1.5 -2.5t0.5 -2.5q20 -44 60.5 -114.5t69.5 -111.5q27 -34 42 -43t51 -13q2 -2 0.5 -8.5t-4.5 -7.5q-87 -4 -126 15q-24 12 -42 42
q-13 19 -34 57t-49 92t-33 62q-7 16 -24 16h-41q-1 0 -3 -2t-2 -3q-29 -184 -30 -195q-5 -50 23 -58q15 -6 52 -9q1 -2 0.5 -8.5t-2.5 -7.5q-9 0 -57.5 2t-67.5 1l-116 -3q-2 2 -1.5 8t2.5 8q31 2 45 6q22 4 31.5 15.5t14.5 39.5q17 80 43.5 245.5t33.5 228.5q4 35 -22 41
q-19 5 -46 8zM396 462q0 58 -30 93.5t-90 35.5q-19 0 -28 -4q-6 -3 -10 -17q-4 -21 -20.5 -126t-21.5 -135q-2 -6 5 -6q72 -5 111 12q84 37 84 147z" />
    <glyph glyph-name="S" unicode="S" horiz-adv-x="430" 
d="M50 163q4 -55 18 -85.5t41 -47.5q37 -24 90 -24q55 0 88.5 31t33.5 89q0 40 -24.5 73.5t-78.5 78.5q-62 51 -91.5 90t-29.5 89q0 78 53.5 124.5t134.5 46.5q44 0 94 -12l47 -8q-21 -53 -34 -121q-1 -2 -9 -2t-9 3q3 47 -0.5 67.5t-18.5 32.5q-27 21 -77 21
q-58 0 -87.5 -36t-29.5 -84q0 -56 52 -104q19 -17 55.5 -46.5t49.5 -40.5q73 -63 73 -130q0 -79 -58.5 -132.5t-155.5 -53.5q-41 0 -83.5 14t-63.5 32q-4 11 -2.5 59t6.5 74q1 2 7.5 3t8.5 -1z" />
    <glyph glyph-name="T" unicode="T" horiz-adv-x="574" 
d="M131 13q45 6 47 6q25 5 35 16.5t18 50.5q9 48 23.5 136.5t31.5 198t25 157.5q0 6 -5 6q-11 2 -57.5 2t-60.5 -2q-29 -2 -48 -24q-18 -21 -53 -86q-2 -2 -8 0.5t-7 5.5q19 48 40 137q0 2 3 2q30 -9 72 -9h344q47 0 83 9q1 0 1 -1l1 -2q-22 -53 -38 -140q-2 -2 -8 -2.5
t-8 2.5q2 50 -3 80q-5 25 -31 27q-23 2 -78.5 2.5t-61.5 -0.5q-6 -3 -6 -7q-76 -474 -77 -511q-1 -23 6.5 -33t24.5 -13q19 -5 56 -8q1 -1 0 -8t-3 -8q-11 0 -61 1.5t-71 1.5q-36 0 -81 -1.5t-47 -1.5q-1 1 0 8t2 8z" />
    <glyph glyph-name="U" unicode="U" horiz-adv-x="628" 
d="M82 597q-1 3 0 9t3 7q5 0 45.5 -1.5t65.5 -1.5q29 0 65.5 1.5t43.5 1.5q1 -2 1 -8t-2 -8l-36 -5q-21 -4 -31.5 -16t-14.5 -41q-32 -172 -51 -314q-10 -86 15 -130q34 -67 139 -67q80 0 123.5 42t64.5 146q29 145 51 307q6 38 -2 52.5t-29 18.5q-5 1 -43 7q-1 3 0 8.5
t3 7.5q3 0 37.5 -1.5t65.5 -1.5q20 0 52 1.5t38 1.5q2 -1 1.5 -8t-2.5 -8q-28 -4 -38 -7q-36 -9 -48 -69q-8 -39 -23 -125t-28.5 -154.5t-24.5 -100.5q-52 -159 -233 -159q-114 0 -165 63q-35 42 -32 118q1 33 27.5 200.5t27.5 176.5q2 22 -2 33t-19 16q-10 3 -45 8z" />
    <glyph glyph-name="V" unicode="V" horiz-adv-x="545" 
d="M47 597q-2 2 -0.5 8.5t3.5 7.5q8 0 49 -1.5t63 -1.5q32 0 65 1.5t36 1.5q2 -1 1.5 -7.5t-2.5 -8.5q-40 -8 -43 -9q-21 -7 -19 -33q3 -25 16.5 -136t25.5 -206.5t16 -117.5q1 -2 5 0q227 405 242 437q12 25 12 37.5t-17 18.5q-20 5 -51 9q-2 2 -1 8.5t3 7.5q8 0 44 -1.5
t57 -1.5q24 0 55 1.5t36 1.5q1 -1 0 -8t-2 -8q-4 -1 -19.5 -3.5t-21.5 -4.5q-22 -7 -35 -23t-46 -71q-22 -37 -112.5 -197.5t-113.5 -200.5q-38 -69 -53 -102q-3 1 -22 1q-5 0 -12.5 -0.5t-9.5 -0.5q-2 33 -13 119q-53 407 -54 410q-5 37 -13 49t-28 17q-9 3 -41 7z" />
    <glyph glyph-name="W" unicode="W" horiz-adv-x="757" 
d="M45 597q-1 2 -0.5 8t2.5 8q4 0 42 -1.5t67 -1.5q52 0 106 3q2 -2 1.5 -8t-2.5 -8q-26 -3 -42 -9q-23 -9 -23 -44q0 -90 14 -429q2 -2 4 0q167 314 227 459h6q6 -1 14 -1q7 0 13 1h5q3 -81 54 -461q2 -2 4 0q168 331 196 409q28 57 -5 66q-21 5 -50 9q-1 3 -0.5 8.5
t2.5 7.5q6 0 42 -1.5t58 -1.5q26 0 54.5 1.5t33.5 1.5q2 -1 2 -8t-3 -8q-33 -5 -49 -12t-26.5 -20.5t-24.5 -43.5q-188 -373 -260 -526q-2 0 -8.5 0.5t-9.5 0.5q-4 0 -11 -1t-9 0q-15 176 -52 458q-2 2 -4 0l-232 -459q-2 0 -9.5 0.5t-10.5 0.5q-4 0 -11.5 -0.5t-8.5 -0.5
q-8 340 -19 521q-2 41 -8 55t-24 19q-11 4 -45 8z" />
    <glyph glyph-name="X" unicode="X" horiz-adv-x="537" 
d="M-40 13q26 3 45 8q20 5 36 17.5t43 44.5q88 106 171 220q2 3 0 7q-65 174 -80 209q-14 35 -24.5 50t-33.5 21q-21 5 -52 7q-2 2 -1.5 8.5t2.5 7.5q10 0 52 -1t63 -1q71 0 97 2q2 -1 1.5 -8t-2.5 -8q-23 -4 -34 -8q-13 -5 -9 -19q28 -85 75 -205q1 -5 6 0q129 166 143 199
q8 20 -10 25q-19 5 -43 8q-1 3 -0.5 8.5t2.5 7.5q5 0 36.5 -1.5t52.5 -1.5q30 0 62 1.5t34 1.5q1 -2 0.5 -8t-1.5 -7q-28 -4 -42 -7q-24 -6 -41.5 -20.5t-56.5 -64.5q-84 -105 -126 -165q-3 -1 -1 -9q84 -213 87 -220q21 -53 35 -69.5t38 -22.5q19 -4 40 -7q2 -3 1.5 -8.5
t-2.5 -7.5q-7 0 -48 1.5t-73 1.5q-26 0 -62 -1.5t-39 -1.5q-1 3 -1 8.5t1 7.5q5 1 15 2.5t17.5 3t12.5 3.5q13 4 9 21q-26 84 -87 233q0 1 -2 1t-3 -1q-137 -181 -162 -225q-12 -23 12 -31q15 -4 35 -7q2 -3 1 -9t-3 -7q-2 0 -37.5 1.5t-56.5 1.5q-28 0 -59 -1.5t-34 -1.5
q-1 2 -1 8t2 8z" />
    <glyph glyph-name="Y" unicode="Y" horiz-adv-x="463" 
d="M82 13q24 2 48 7q18 4 27 17t14 41q12 58 30 179q2 23 -3 39q-22 89 -77 229q-15 41 -24 51.5t-30 15.5q-5 1 -34 6q-1 2 -0.5 8.5t2.5 7.5q5 0 38 -2t64 -2q64 0 103 3q2 -2 1.5 -8t-2.5 -8q-21 -2 -36 -6q-23 -6 -15 -35q66 -201 81 -241q1 -1 4 0q34 44 86 120t75 114
q21 33 -10 42q-5 1 -10.5 2t-14 2.5t-16.5 3.5q-1 3 0 8.5t3 6.5q3 0 35 -2t50 -2q28 0 98 4q2 -1 1.5 -8t-3.5 -8q-1 0 -15 -2.5t-21 -4.5q-23 -6 -38.5 -19t-37.5 -42q-112 -151 -168 -238q-11 -15 -13 -33q-15 -81 -26 -171q-5 -32 0.5 -48t25.5 -20q18 -4 45 -7
q2 -3 1 -9t-4 -7q-3 0 -43.5 1.5t-81.5 1.5q-28 0 -65.5 -1.5t-45.5 -1.5q-2 1 -1.5 8t3.5 8z" />
    <glyph glyph-name="Z" unicode="Z" horiz-adv-x="521" 
d="M80 474q-2 -2 -8.5 1.5t-6.5 5.5q37 102 46 139q27 -10 81 -10h202q85 -2 140 3q3 -7 2 -11q-22 -30 -212.5 -282.5t-212.5 -283.5q-3 -7 0 -7q25 -5 241 -5q36 0 60 20q33 25 85 112q2 1 7.5 -2t6.5 -5q-8 -27 -28.5 -72.5t-40.5 -71.5q-8 -8 -36 -8q-66 1 -178 1.5
t-145 0.5q-51 0 -83 -3l-2 12q76 89 243.5 309t195.5 264q1 1 0.5 3t-1.5 2q-183 0 -231 -2q-45 0 -70 -28q-29 -32 -55 -82z" />
    <glyph glyph-name="bracketleft" unicode="[" horiz-adv-x="317" 
d="M221 711q-5 0 -7 -7q-17 -54 -73 -415q-54 -341 -58 -416q0 -13 8 -16q20 -6 133 -6q1 -5 -4 -18t-10 -13q-70 -4 -134 0q-27 2 -39 9q3 31 70.5 460.5t73.5 447.5q3 6 6 6h168q1 -4 -3.5 -17t-7.5 -13q-14 0 -65 -0.5t-58 -1.5z" />
    <glyph glyph-name="backslash" unicode="\" horiz-adv-x="370" 
d="M125 691q1 0 3 -1q26 -126 92.5 -417.5t89.5 -379.5q-3 -3 -4 -3q-31 10 -34 20q-8 29 -44 185.5t-77.5 337.5t-55.5 237q15 15 30 21z" />
    <glyph glyph-name="bracketright" unicode="]" horiz-adv-x="308" 
d="M290 741q4 0 7 -6q1 -16 -68 -457.5t-75 -454.5q-3 -6 -6 -6q-43 -3 -170 -1q-2 3 1.5 17.5t6.5 14.5q70 -2 127 3q2 0 4.5 2.5t2.5 4.5q18 58 73 412q50 315 57 416q0 19 -7 20q-14 2 -131 2q-1 6 2 18t7 12q55 3 169 3z" />
    <glyph glyph-name="asciicircum" unicode="^" horiz-adv-x="378" 
d="M76 314q-9 -11 -35 -11q-8 0 -8 5q13 16 70 130t71 147q1 1 12.5 5t13.5 4q19 -44 74 -149t71 -128q0 -3 -1 -5q-4 -4 -20 -9.5t-18 -3.5q-8 8 -34.5 56t-54.5 102.5t-31 59.5q-5 2 -6 0q-94 -192 -104 -203z" />
    <glyph glyph-name="underscore" unicode="_" horiz-adv-x="551" 
d="M565 -182v-51h-569v51h569z" />
    <glyph glyph-name="grave" unicode="`" 
d="M178 572q0 3 3 6q6 2 27.5 2.5t29.5 -1.5q16 -53 36 -146q-1 -2 -7 -4.5t-8 -1.5z" />
    <glyph glyph-name="a" unicode="a" horiz-adv-x="410" 
d="M379 94q2 -1 2 -2q1 -2 0 -9t-2 -10q-22 -34 -57.5 -61.5t-53.5 -27.5q-28 0 -17 80q3 26 14 89v2q-2 1 -3 -1q-42 -65 -98 -117.5t-87 -52.5q-25 0 -35.5 29.5t-10.5 63.5q0 64 23.5 128t67.5 111q28 28 77.5 54.5t98.5 26.5q45 0 83 -9q-16 -34 -22 -61
q-11 -44 -26.5 -130t-16.5 -118q-1 -27 10 -27q17 0 53 42zM130 50q20 0 53 31.5t71 94.5q22 39 31 82q23 90 25 94q-17 10 -60 10q-75 0 -113 -80q-38 -73 -38 -164q0 -68 31 -68z" />
    <glyph glyph-name="b" unicode="b" horiz-adv-x="409" 
d="M338 398q20 0 32 -22.5t12 -61.5q0 -159 -117 -259q-32 -29 -74.5 -50t-78.5 -21q-24 0 -42.5 22t-18.5 72q0 31 10 94q9 54 42.5 232.5t37.5 202.5q3 20 -7 20q-17 0 -56 -21q-1 2 -0.5 9t2.5 8q92 63 127 65q11 0 5 -36q-68 -350 -78 -406v-2q1 -2 3 1q50 67 108 110
t93 43zM168 25q39 0 75 41q34 38 52 100t18 116q0 61 -31 61q-25 0 -64 -34.5t-68 -78.5q-34 -54 -34 -131q0 -74 52 -74z" />
    <glyph glyph-name="c" unicode="c" horiz-adv-x="298" 
d="M193 358q-37 0 -65 -64t-28 -153q0 -104 66 -104q56 0 114 74q3 0 3 -4q1 -3 -1 -10.5t-3 -8.5q-34 -48 -81.5 -76t-84.5 -28q-45 0 -65 45q-13 31 -13 75q0 70 25.5 138.5t78.5 107.5q64 48 108 48q45 0 55 -21q4 -6 2 -14q-2 -9 -14 -24t-20 -20q-6 -3 -8 0
q-33 39 -69 39z" />
    <glyph glyph-name="d" unicode="d" horiz-adv-x="420" 
d="M31 85q0 65 23 131.5t63 106.5q28 28 78 51.5t76 23.5q25 0 45 -6q4 -2 4 3q26 121 37 205q3 18 2 26t-9 8q-22 0 -60 -19q-1 2 -0.5 8t2.5 8q29 20 73.5 40t59.5 20q11 0 5 -37q-6 -29 -39 -198.5t-49.5 -265t-16.5 -124.5q0 -19 8 -19q17 0 58 44q3 0 3 -2
q0 -10 -5 -20q-27 -37 -66 -66t-57 -29q-21 0 -10 62q5 36 19 110q-2 2 -4 0q-42 -63 -99.5 -112.5t-90.5 -49.5q-26 0 -38 31t-12 70zM132 45q20 0 56 30.5t71 85.5q22 36 29 72q17 77 18 96q1 12 -4 16q-21 20 -68 20q-42 0 -74 -41.5t-46.5 -97.5t-14.5 -111
q0 -70 33 -70z" />
    <glyph glyph-name="e" unicode="e" horiz-adv-x="302" 
d="M196 363q-29 0 -57.5 -40t-39.5 -110q-1 -5 3 -5q48 13 88 38q41 29 41 76q0 17 -9 29t-26 12zM246 398q20 0 33 -15.5t13 -36.5q0 -60 -82 -111q-43 -26 -111 -51q-5 -2 -5 -7q-2 -14 -2 -28q0 -108 66 -108q61 0 120 67q3 0 3 -4q0 -10 -5 -20q-32 -43 -80 -70.5
t-89 -27.5q-78 0 -78 124q0 60 20.5 122t58.5 99q28 28 70 47.5t68 19.5z" />
    <glyph glyph-name="f" unicode="f" horiz-adv-x="217" 
d="M28 352q0 4 2 6q4 6 15.5 15t16.5 11h41q4 3 4 6q19 101 52.5 163.5t90.5 104.5q43 30 76 30q29 0 29 -13q0 -6 -16.5 -28t-22.5 -26q-5 -5 -9 -1q-22 15 -42 15q-29 0 -46 -38q-27 -55 -49 -206q0 -6 4 -6q48 0 92 8q2 -5 -3 -13q-23 -19 -59 -26q-27 -3 -35 -3
q-5 -3 -5 -7q-5 -31 -16 -107.5t-20.5 -135.5t-19.5 -109q-24 -132 -85 -199t-124 -67q-24 0 -38.5 11t-16.5 25q-1 9 4.5 30.5t9.5 27.5q2 5 9 5q32 -55 84 -55q33 0 50.5 35t32.5 121q45 263 65 417q0 7 -3 7q-44 0 -68 2z" />
    <glyph glyph-name="g" unicode="g" horiz-adv-x="351" 
d="M404 397q1 -1 1 -7.5t-2 -9.5q-9 -20 -31.5 -34.5t-47.5 -19.5q-4 -1 -8 -5q2 -10 2 -27q0 -54 -21 -103.5t-56 -76.5q-32 -24 -81 -41q-22 -9 -23 -10q-18 -11 -18 -21q0 -12 26 -26q8 -5 38 -21t52 -29t36 -24q29 -22 40.5 -39t11.5 -40q0 -26 -23.5 -58.5t-64.5 -56.5
q-58 -35 -119 -35q-75 0 -122 36t-47 87q0 36 142 124q2 2 0 4q-35 26 -35 47q0 7 6 13q8 11 56 41q1 3 -1 3q-38 8 -56 36.5t-17 67.5q0 58 26 110.5t69 81.5q22 15 49.5 24.5t42.5 9.5q24 0 60 -19q26 -14 47 -14q42 0 68 32zM168 99q37 0 62.5 57.5t25.5 118.5
q0 93 -59 93q-41 0 -66.5 -56t-25.5 -116q0 -41 15 -69t48 -28zM155 -248q56 0 83.5 20t27.5 50q0 37 -44 70q-30 21 -64 39.5t-44 18.5q-15 0 -62 -35.5t-47 -60.5q0 -40 45.5 -71.5t104.5 -30.5z" />
    <glyph glyph-name="h" unicode="h" horiz-adv-x="428" 
d="M299 342q-24 0 -66 -40t-82 -105q-32 -56 -43 -115q-12 -48 -3 -60q-8 -9 -32.5 -24.5t-32.5 -15.5q-6 0 -6 12q-1 11 7 54q10 60 35 193t44 237t22 130q2 21 -9 21q-17 0 -54 -20q-1 2 0.5 9.5t2.5 8.5q31 21 70 41t56 20q11 0 6 -35q-12 -66 -45 -239.5t-39 -204.5
q1 -3 5 0q53 80 117.5 134.5t103.5 54.5q19 0 22 -25.5t-7 -75.5q-33 -162 -41 -219q0 -25 10 -25q16 0 54 42q2 0 2 -3q1 -2 0 -8.5t-2 -8.5q-30 -41 -64 -66t-52 -25q-25 0 -14 73l44 225q7 32 5 46t-14 14z" />
    <glyph glyph-name="i" unicode="i" horiz-adv-x="207" 
d="M175 98q3 -1 3 -2q0 -16 -2 -18q-31 -43 -65 -68.5t-48 -25.5q-30 0 -12 92q5 27 15 77.5t18 89t12 63.5q4 24 -3 24q-11 0 -49 -32q-2 0 -2 1q-1 2 0 9t2 8q27 31 62 56.5t50 25.5q19 0 5 -68q-46 -235 -47 -250q-3 -26 8 -26q15 0 53 44zM170 557q17 0 21 -6
q6 -7 6 -19t-6 -23t-13 -14q-5 -4 -18.5 -5t-17.5 1q-15 5 -15 29q0 13 6 22q13 15 37 15z" />
    <glyph glyph-name="j" unicode="j" horiz-adv-x="208" 
d="M-86 -276q-2 0 -5.5 5.5t-3.5 8.5q62 30 88 77t45 136q42 200 62 350q4 23 -6 23q-14 0 -56 -37q-3 0 -3 2q-2 5 2 16q28 30 68.5 61.5t58.5 31.5q16 0 7 -64q-19 -123 -56 -315q-31 -165 -109 -237q-50 -44 -92 -58zM170 557q16 0 21 -7q5 -6 5 -18q0 -29 -20 -39
q-4 -2 -16.5 -3.5t-17.5 0.5q-16 6 -16 31q1 13 6 22q14 14 38 14z" />
    <glyph glyph-name="k" unicode="k" horiz-adv-x="408" 
d="M209 688q14 0 5 -43q-8 -46 -23 -121t-34 -170.5t-28 -144.5q0 -7 4 -3q46 59 118.5 125.5t112.5 66.5q32 0 42 -16v-7q-1 -8 -13.5 -26.5t-19.5 -23.5q-28 19 -56 19q-25 0 -70 -40.5t-66 -69.5q-3 -2 0 -5q1 -2 5.5 -8t12.5 -16.5t15 -22.5q50 -82 76 -109t45 -27
q34 0 72 58q3 0 3 -2q1 -2 0 -10.5t-2 -10.5q-26 -40 -57 -66t-57 -26t-57 40q-15 19 -50 79t-41 69q-2 4 -6 3t-6 -4q-14 -18 -21 -50q-6 -27 -10 -57q-5 -37 4 -52q-6 -6 -31.5 -20.5t-32.5 -14.5q-11 0 -9 24q2 22 25 146q78 400 84 452q4 25 -8 25q-20 0 -55 -22
q-1 2 0.5 9.5t2.5 8.5q33 24 72.5 43.5t53.5 19.5z" />
    <glyph glyph-name="l" unicode="l" horiz-adv-x="204" 
d="M76 607q-1 1 0.5 9.5t2.5 8.5q34 23 74 43t53 20q14 0 4 -53q-7 -38 -33 -177.5t-44 -238.5t-21 -128q-5 -40 8 -40q22 0 59 44q1 0 3 -2q0 -13 -2 -17q-30 -41 -63.5 -66.5t-53.5 -25.5q-29 0 -13 105q5 28 43.5 238t46.5 269q5 32 -7 32q-15 0 -57 -21z" />
    <glyph glyph-name="m" unicode="m" horiz-adv-x="652" 
d="M35 288q-2 0 -2 3q0 9 4 17q30 37 64.5 63.5t50.5 26.5t3 -84q-9 -54 -22 -110q1 0 2 0.5t2 0.5q56 82 120.5 137.5t96.5 55.5q31 0 20 -83q-3 -24 -10 -67.5t-7 -46.5q0 -2 0.5 -2t1.5 1q52 78 120.5 138t105.5 60q31 0 8 -115q-36 -186 -37 -193q-5 -35 8 -35
q19 0 53 42q3 -1 3 -3q0 -7 -3 -19q-33 -45 -66 -68t-49 -23q-28 0 -7 106q13 75 39 198q10 47 -9 47q-26 0 -70 -44.5t-80 -102.5q-25 -42 -38 -87q-17 -56 -13 -83q-5 -7 -31 -20.5t-32 -13.5q-7 0 -5 12q0 6 24.5 123t30.5 174q5 42 -15 42q-23 0 -62.5 -39t-82.5 -106
q-14 -20 -28 -61q-28 -85 -20 -108q-9 -10 -32.5 -23t-30.5 -14q-7 0 -7 11q3 20 9 49q45 209 50 257q4 26 -4 26q-11 0 -53 -39z" />
    <glyph glyph-name="n" unicode="n" horiz-adv-x="424" 
d="M37 289q-2 0 -2 2q-1 2 -0.5 5t1.5 7.5t1 5.5q31 38 65.5 63.5t49.5 25.5q20 0 1 -94q-2 -12 -6 -33t-7 -37t-6 -28h3q81 121 167 172q32 20 53 20q31 0 8 -114q-30 -158 -36 -202q-4 -29 7 -29q17 0 54 44q2 0 2 -2q0 -16 -2 -20q-28 -39 -63 -65t-54 -26q-26 0 -7 101
q8 41 22.5 111t18.5 93q7 47 -12 47q-23 0 -61.5 -38t-84.5 -111q-19 -29 -33 -86q-18 -65 -11 -80q-7 -9 -31 -22.5t-31 -14.5q-4 -1 -7 3t-2 9q2 11 14 68.5t25.5 126t19.5 114.5q3 22 -5 22q-13 0 -51 -38z" />
    <glyph glyph-name="o" unicode="o" horiz-adv-x="385" 
d="M262 398q48 0 69 -35.5t21 -85.5q0 -80 -33.5 -152.5t-97.5 -108.5q-56 -32 -99 -32t-65.5 35t-22.5 92q0 70 25.5 136t74.5 102q29 22 66.5 35.5t61.5 13.5zM102 135q0 -116 66 -116q47 0 81 76t34 162q0 110 -66 110q-36 0 -63 -38.5t-39.5 -90t-12.5 -103.5z" />
    <glyph glyph-name="p" unicode="p" horiz-adv-x="429" 
d="M188 20q34 0 62 25q35 30 54.5 95t19.5 126q0 76 -33 76q-22 0 -58.5 -31.5t-70.5 -83.5q-13 -19 -22 -50q-19 -68 -21 -110q0 -12 5 -17q19 -30 64 -30zM394 300q0 -78 -28 -144.5t-74 -106.5q-28 -26 -66.5 -45t-69.5 -19q-30 0 -49 12q-21 -120 -27 -198q-1 -18 4 -25
t22 -10q13 -2 40 -2q2 -1 1 -8t-4 -9q-84 0 -205 -25q-1 2 -0.5 8t1.5 8q34 10 37 11q11 4 18 11.5t9.5 13.5t6.5 18q11 53 40 224q47 279 50 301q3 21 -7 21q-13 0 -57 -41q-1 -1 -2 -0.5t-1 1.5q-2 7 2 18q26 31 70.5 69.5t58.5 38.5q9 0 9 -20q0 -26 -24 -153q0 -4 4 0
q42 58 100.5 103.5t90.5 45.5q22 0 36 -27t14 -71z" />
    <glyph glyph-name="q" unicode="q" horiz-adv-x="408" 
d="M350 -253q-99 -3 -211 -28q-1 2 -1 7.5t2 7.5q5 2 20.5 7t24.5 9q22 9 32 42q6 33 26 161.5t29 181.5q-2 1 -3 0q-37 -54 -94.5 -102.5t-93.5 -48.5q-25 0 -37.5 29t-12.5 71q0 61 20 122.5t52 100.5q30 37 85.5 64t89.5 27q58 0 103 -20q-10 -21 -16 -45
q-13 -64 -43 -267.5t-34 -260.5q-3 -31 15 -37q12 -3 49 -5q1 -2 0 -8.5t-2 -7.5zM138 44q21 0 53.5 27.5t65.5 77.5q18 28 29 73q16 68 19 116q0 8 -5 11q-22 16 -64 16q-50 0 -85 -52q-21 -32 -35.5 -85t-14.5 -104q0 -80 37 -80z" />
    <glyph glyph-name="r" unicode="r" horiz-adv-x="292" 
d="M141 233q34 64 73 114q43 51 68 51t35 -22v-11q-1 -11 -15 -32t-22 -27q-5 -4 -9 -2q-18 24 -37 24q-12 0 -36 -32.5t-48 -84.5q-19 -42 -40 -127q-10 -51 -6 -64q-5 -8 -31.5 -22t-32.5 -14q-7 0 -7 9q1 6 14.5 69t27.5 134t16 103q2 22 -5 22q-15 0 -56 -38q-2 0 -3 2
q0 10 3 16q32 37 69 67t50 30q17 0 6 -75q-3 -19 -9 -49t-8 -41q0 -1 1 -1t2 1z" />
    <glyph glyph-name="s" unicode="s" horiz-adv-x="264" 
d="M204 398q17 0 29.5 -5.5t13.5 -11.5v-11q-7 -21 -29 -43q-3 -3 -8 0q-23 32 -56 32q-23 0 -38 -16t-15 -41q0 -18 12.5 -36.5t49.5 -49.5q38 -32 52 -51.5t14 -40.5q0 -51 -57 -98q-55 -42 -110 -42q-37 0 -57 20q-9 8 -9 22q0 6 8 28.5t15 31.5q1 1 3.5 1.5t4 0.5
t1.5 -1q6 -32 28 -50t51 -18t48 16t19 41q0 22 -13 40.5t-54 53.5q-53 47 -53 87q0 53 49 97q50 44 101 44z" />
    <glyph glyph-name="t" unicode="t" horiz-adv-x="240" 
d="M160 345q-34 -172 -41 -243q-7 -55 15 -55q34 0 81 59q1 1 2 0t0 -2q2 -6 -2 -18q-23 -33 -67.5 -67.5t-73.5 -34.5q-31 0 -25 66q1 29 50 295q0 4 -2 4q-52 0 -66 2v5q5 7 19 16.5t19 11.5h34q5 0 5 4q20 95 28 110q5 9 32.5 32t41.5 28q2 1 4 -3t1 -6q-14 -16 -24 -54
q-17 -76 -22 -105q-1 -2 0 -4t2 -2q29 -1 66.5 2.5t43.5 6.5q0 -6 -2 -10q-14 -16 -50 -24q-32 -8 -64 -9q-5 0 -5 -5z" />
    <glyph glyph-name="u" unicode="u" horiz-adv-x="419" 
d="M95 305q4 25 -4 25q-16 0 -57 -41q-3 0 -3 2q0 11 3 16q32 38 68 64.5t51 26.5q21 0 0 -100q-32 -154 -38 -195q-5 -29 -1.5 -43t18.5 -14q23 0 64 42t73 96q17 32 26 64q26 109 28 113q5 7 29.5 20t39.5 17q3 -6 2 -9q-14 -18 -21 -54q-34 -144 -45 -246q-4 -36 8 -36
q17 0 57 47l3 -3q0 -12 -3 -18q-26 -40 -63 -67.5t-55 -27.5q-25 0 -13 77l18 101q0 1 -1 1t-2 -1q-52 -80 -126 -140q-48 -38 -79 -38q-36 0 -22 95q13 79 45 226z" />
    <glyph glyph-name="v" unicode="v" horiz-adv-x="354" 
d="M295 290q0 42 -25 73q-2 4 3 9q11 10 28.5 18t26.5 8q21 -9 21 -59t-31.5 -112.5t-73.5 -114.5q-68 -84 -124 -119q-13 -10 -26 -10q-14 8 -14 91q1 33 4.5 122.5t3.5 107.5q0 24 -9 24q-16 0 -53 -41q-3 1 -3 3q0 13 2 17q29 40 67 68q30 23 42 23q20 0 16 -87
q-3 -68 -7 -203q-1 -44 4 -55q4 -11 14 -2q42 34 88.5 109.5t45.5 129.5z" />
    <glyph glyph-name="w" unicode="w" horiz-adv-x="547" 
d="M363 55q50 48 88.5 129t37.5 130q-1 13 -2.5 20t-10.5 14.5t-25 8.5q0 9 3 12q46 28 76 29q11 0 11 -32q1 -37 -17 -88q-31 -83 -96 -173t-108 -118q-6 -3 -15 -3q-20 36 -31 239h-4q-35 -63 -92.5 -142t-86.5 -97q-9 0 -12 3q-8 17 -4 92q1 35 7.5 115t7.5 107
q0 28 -9 28q-20 0 -57 -44q-3 0 -3 4q0 13 3 19q32 42 66 66t48 24q13 0 16 -22.5t-2 -77.5q-1 -14 -4.5 -53.5t-6 -74t-2.5 -56.5q-2 -29 2 -40q3 -2 5 0q54 59 127 195q2 4 29 64q15 11 35 14q-6 -60 0 -168.5t20 -123.5q2 -2 6 0z" />
    <glyph glyph-name="x" unicode="x" horiz-adv-x="414" 
d="M49 264q-2 -1 -4 1q-1 1 -1 9t1 10q18 38 53.5 76t60.5 38q17 0 34 -42q14 -41 33 -107q4 -4 6 0q44 60 74 95q48 54 77 54q22 0 22 -34q-1 -23 -9 -50.5t-14 -37.5q-3 -6 -12 -6q-2 -1 -2 1q1 73 -19 73q-26 0 -111 -118q-3 -2 -1 -8q30 -104 45.5 -136.5t32.5 -32.5
q25 0 65 66q2 1 4 -1q1 -2 0 -12t-2 -12q-23 -49 -55.5 -77.5t-51.5 -28.5q-27 0 -48 57q-5 12 -19.5 59t-19.5 63h-3q-71 -111 -111 -151q-28 -28 -49 -28q-24 0 -26 38q0 52 32 101q1 2 6.5 2t5.5 -3q-4 -28 -1.5 -44.5t7 -22.5t9.5 -6q18 0 43 30q39 44 77 104q3 9 2 12
q-18 64 -35 110q-13 31 -25 31q-24 0 -71 -72z" />
    <glyph glyph-name="y" unicode="y" horiz-adv-x="351" 
d="M113 399q28 0 42 -93t27 -259q0 -5 3 0q41 65 67.5 133.5t27.5 107.5q0 36 -16 70q-2 4 2 10q9 8 28.5 21.5t23.5 13.5q8 0 12 -16.5t3 -35.5q0 -59 -39 -143q-49 -107 -121.5 -223.5t-130.5 -177.5q-73 -77 -115 -77q-16 0 -16 10q0 8 18 42t25 41q5 5 11 2
q24 -11 39 -11q36 0 113 127q9 16 9 37q1 56 -11.5 161t-24.5 152q-10 40 -22 40q-18 0 -51 -46q-1 -1 -2 -1t-1 2q-5 16 3 27q24 37 51 61.5t45 24.5z" />
    <glyph glyph-name="z" unicode="z" horiz-adv-x="380" 
d="M295 360q7 0 15 3t14 6t14 10t11.5 10t10.5 11l8 8q2 0 3 -2q3 -9 0 -19q-4 -6 -101 -106l-178 -192q-5 -6 -1 -8q27 -5 83 -32q50 -22 81 -22q64 0 116 92q1 1 2.5 0t1.5 -2q2 -17 -2 -24q-26 -43 -71 -82t-96 -39q-22 0 -93 31q-45 22 -62 22q-7 0 -13.5 -1.5t-13.5 -7
t-9.5 -7t-11 -10.5t-9.5 -10q-2 -1 -4 1q-6 7 -3 17q16 25 78 87q13 13 104 110t97 104q4 4 -1 4q-26 -2 -80 10q-58 11 -67 11q-21 0 -36 -9.5t-36 -41.5q-1 -1 -2.5 -2t-2.5 0q-9 6 -7 11q34 67 56 93q12 14 27 14q19 0 77 -16q75 -22 101 -22z" />
    <glyph glyph-name="braceleft" unicode="{" horiz-adv-x="365" 
d="M54 287q33 1 55.5 10.5t35 21t20.5 36.5t10 41t6 52l8 91q22 188 225 208q1 -1 3 -7.5t1 -8.5q-149 -21 -167 -151q-4 -24 -8.5 -84t-8.5 -85q-4 -23 -8 -36.5t-16 -35t-38 -36.5t-64 -23q-2 -2 0 -3q37 -5 60 -20.5t28.5 -34.5t7 -40.5t-3.5 -38.5q-5 -32 -20 -92.5
t-19 -81.5q-19 -116 122 -136q0 -2 -3 -8.5t-4 -7.5q-84 3 -131 42.5t-36 119.5q4 34 19 94q7 26 9.5 36.5t7 32t4.5 30.5v25.5t-5 23.5t-12 17.5t-19 15.5t-28.5 9t-37.5 6q0 16 7 18z" />
    <glyph glyph-name="bar" unicode="|" horiz-adv-x="250" 
d="M100 710h51v-1020h-51v1020z" />
    <glyph glyph-name="braceright" unicode="}" horiz-adv-x="364" 
d="M337 266q-77 -2 -102 -41.5t-28 -119.5q-4 -66 -6 -81q-29 -190 -227 -208q-2 1 -3.5 8t0.5 8q80 12 120 49.5t49 100.5q3 21 6.5 76.5t7.5 80.5q16 114 133 138q1 1 0 3q-117 19 -99 134q5 32 21.5 95.5t20.5 86.5q19 119 -123 136q0 12 5 14q82 1 130.5 -40.5
t37.5 -118.5q-4 -30 -19 -97q-22 -92 -21 -120q2 -61 73 -79q13 -4 30 -6q0 -15 -6 -19z" />
    <glyph glyph-name="asciitilde" unicode="~" horiz-adv-x="460" 
d="M169 270q28 0 83 -26q44 -21 67 -21q53 0 100 53l5 -1l1 -1q0 -14 -6 -24q-14 -25 -49.5 -49t-74.5 -24q-26 0 -84 30q-39 18 -68 18q-21 0 -53 -19.5t-48 -36.5q-1 -1 -3 1t-2 3q0 14 9 27q18 23 57.5 46.5t65.5 23.5z" />
    <glyph glyph-name="uni00A0" unicode="&#xa0;" horiz-adv-x="159" 
 />
    <glyph glyph-name="exclamdown" unicode="&#xa1;" horiz-adv-x="228" 
d="M17 -226q-14 0 -16 8q2 22 97 409q13 13 20 13q3 0 6 -3q-5 -60 -12 -153t-11.5 -159t-6.5 -80q0 -5 -5.5 -12.5t-11.5 -9.5q-34 -14 -60 -13zM124 304q-18 0 -28 12q-9 11 -9 32t16 36q16 13 35 13q15 0 27 -12q9 -12 9 -27q0 -25 -18 -42q-15 -12 -32 -12z" />
    <glyph glyph-name="cent" unicode="&#xa2;" horiz-adv-x="450" 
d="M230 148l66 309q0 3 -3 3q-66 0 -104.5 -52t-38.5 -123q0 -113 80 -137zM322 459q-2 0 -4 -2l-65 -316q7 -2 28 -2q70 0 122 49q7 -13 0 -18q-63 -72 -157 -80q-3 0 -5 -5l-15 -70q-1 0 -9 -2.5t-12 -3.5q-2 0 -4 2l17 75q-1 5 -4 5q-66 8 -104 61q-29 42 -29 101
q0 60 30 114t89 85q46 25 102 31l14 67q6 5 23 8q1 -1 2 -1l-17 -73q45 0 76 -14q23 -10 28 -23q0 -8 -3 -14q-11 -15 -28 -24q-3 -1 -7 1q-10 13 -15.5 19.5t-20.5 16t-32 13.5z" />
    <glyph glyph-name="sterling" unicode="&#xa3;" horiz-adv-x="450" 
d="M117 297q9 78 23 123t41 79q38 49 79.5 69t68.5 20q25 0 43 -6t24.5 -13t6.5 -13q0 -7 -8.5 -22.5t-15.5 -23.5q-1 0 -3.5 -1t-3.5 -1q-41 47 -83 47q-48 0 -67 -77q-7 -27 -27 -176q0 -5 4 -5q78 0 118 3q2 -2 -2 -11q-11 -11 -37 -18q-24 -4 -84 -4q-3 0 -5 -4
q-21 -133 -93 -192q39 3 99 -12q58 -15 97 -14q38 1 62 18.5t50 75.5q1 1 3 1t3 -1q5 -5 5 -19q-31 -72 -77.5 -107.5t-78.5 -35.5q-31 0 -101 22q-72 22 -87 22q-32 0 -64 -32q-8 3 -9 5q9 35 17 43q6 5 42 25q19 10 33.5 52t24.5 154q-50 0 -67 2v6q7 13 15 22z" />
    <glyph glyph-name="currency" unicode="&#xa4;" horiz-adv-x="450" 
d="M269 441q38 0 77 -26q3 -3 6 0q41 41 52 48q14 7 36 7q2 -3 2 -5q-42 -42 -72 -77q25 -42 21 -95t-45 -105q-3 -4 -1 -9q46 -57 60 -69q1 -1 -0.5 -4t-2.5 -4q-37 -7 -45 0q-19 14 -50 52q-45 -34 -96 -34q-49 0 -87 34q-38 -34 -64 -62q-1 -1 -3 -1t-3 1q-2 4 -1 20
t4 19q8 11 46 49l1 6q-19 38 -15 83q5 60 40 103q-32 40 -41 54q-3 3 -3 10q1 4 8.5 18.5t11.5 19.5q4 4 8 0q32 -45 49 -66q3 -1 8 0q49 33 99 33zM242 407q-46 0 -72.5 -33t-30.5 -83q-6 -65 23.5 -98.5t77.5 -33.5q90 0 100 113q5 56 -22.5 95.5t-75.5 39.5z" />
    <glyph glyph-name="yen" unicode="&#xa5;" horiz-adv-x="450" 
d="M258 182q-4 0 -4 -4l-15 -98q-6 -30 -2 -43.5t24 -17.5q1 0 47 -6q1 -2 -0.5 -8.5t-3.5 -7.5q-10 0 -50.5 1.5t-66.5 1.5t-57 -1.5t-47 -1.5q-2 2 -1.5 8t2.5 8q33 3 47 6q12 2 20 12t10 18t7 30q8 38 17 98q1 1 -0.5 3t-2.5 2q-21 0 -45.5 -0.5t-35.5 -0.5q5 20 8 23
h11.5t25.5 -0.5t40 -0.5q4 0 4 4q1 9 4.5 29t4.5 29q1 1 0 3.5t-3 2.5q-27 -1 -76 -1q6 20 7 22q2 0 29.5 -0.5t42.5 -0.5q5 0 3 5q-19 80 -59 211q-11 35 -18 46t-24 17q-15 4 -32 6q-2 2 -1 8.5t3 7.5q5 0 34 -1.5t57 -1.5q50 0 86 3q2 -1 1.5 -7.5t-2.5 -8.5
q-20 -2 -30 -6q-11 -4 -12.5 -11t3.5 -24q27 -112 56 -207q0 -1 1.5 -1t2.5 1q91 150 118 201q10 20 7 28.5t-19 13.5q-16 4 -30 5q-2 2 -0.5 8.5t3.5 7.5q69 -3 77 -3q26 0 77 3q2 -2 1 -8.5t-3 -7.5q-22 -2 -30 -5q-30 -9 -62 -59q-91 -138 -134 -217q-2 -4 2 -4
q17 0 35.5 0.5t31 0.5h14.5q-5 -19 -6 -21h-79q-4 0 -4 -4l-9 -60q0 -4 2 -4q8 0 43 0.5t38 0.5q-7 -20 -8 -22h-75z" />
    <glyph glyph-name="brokenbar" unicode="&#xa6;" horiz-adv-x="251" 
d="M99 631h52v-348h-52v348zM99 127h52v-355h-52v355z" />
    <glyph glyph-name="section" unicode="&#xa7;" horiz-adv-x="398" 
d="M248 505q-23 0 -23 -43q1 -25 11 -52q18 -50 67 -156q35 -73 35 -133q0 -76 -42 -135q-37 -52 -84.5 -83.5t-83.5 -31.5q-60 0 -99 43q-9 14 -8 25q3 18 17 37q4 2 7 2q22 -33 56 -51t51 -18q18 0 18 33q-1 33 -14 56q-10 24 -50 108q-50 111 -50 177q0 111 84 193
q25 25 62.5 45t64.5 20q53 0 85 -40q9 -13 6 -24q0 -12 -19 -29q-5 -2 -7 -1q-54 58 -84 58zM190 -87q48 21 74 66t27 99q1 62 -42 159l-15 30q-14 30 -18 40.5t-13 35t-12 43.5t-3 37q0 45 21 79q-43 -10 -75 -60.5t-32 -110.5q0 -72 40 -163q9 -20 24.5 -53.5t22 -49.5
t12.5 -38t6 -40q0 -45 -17 -74z" />
    <glyph glyph-name="dieresis" unicode="&#xa8;" 
d="M197 554q17 0 22 -7q8 -10 5 -20q-3 -28 -21 -35q-4 -2 -16 -2.5t-17 0.5q-15 8 -15 31q2 15 6 20q10 13 36 13zM325 554q17 0 22 -7q6 -11 4 -20q-4 -29 -21 -35q-4 -2 -16 -2.5t-15 0.5q-17 8 -17 31q2 15 7 20q11 13 36 13z" />
    <glyph glyph-name="copyright" unicode="&#xa9;" horiz-adv-x="716" 
d="M370 619q132 0 219.5 -88.5t87.5 -220.5q0 -131 -89.5 -221t-217.5 -90q-130 0 -219 88.5t-89 222.5q0 130 89.5 219.5t218.5 89.5zM369 598q-117 0 -198.5 -84t-81.5 -204t82.5 -204t199.5 -84q116 0 197 82.5t81 205.5q0 120 -82 204t-198 84zM390 478q-62 0 -94 -45.5
t-32 -115.5q0 -65 37 -117t107 -52q52 0 101 68q5 0 9 -8q-5 -17 -22.5 -41.5t-25.5 -29.5q-42 -11 -74 -11q-95 0 -149 50t-54 135q0 75 53.5 129.5t153.5 54.5q24 0 66 -5q30 -4 48 -4q-7 -46 -9 -91q-1 -1 -4.5 -1.5t-7 0t-3.5 1.5q-6 49 -30 65q-25 18 -70 18z" />
    <glyph glyph-name="ordfeminine" unicode="&#xaa;" horiz-adv-x="271" 
d="M279 302q2 0 2 -1q2 -4 -1 -14q-15 -23 -41.5 -41.5t-40.5 -18.5q-18 0 -12 55q2 23 7 45q0 1 -1 1.5t-2 -0.5q-28 -42 -61.5 -71.5t-53.5 -29.5q-31 0 -31 62q0 90 58 149q18 19 52 38t65 19t57 -6q-7 -16 -15 -40q-22 -88 -26 -154q-2 -21 7 -21q13 0 37 28zM112 274
q28 0 74 71q14 23 21 53q2 6 5 21t6 26.5t6 16.5q-12 7 -35 7q-47 0 -72 -52q-23 -46 -23 -103q0 -40 18 -40z" />
    <glyph glyph-name="guillemotleft" unicode="&#xab;" horiz-adv-x="626" 
d="M159 184q24 -14 76 -54.5t72 -62.5q1 -2 1 -9.5t-2 -10.5l-3 -3q-19 19 -104 69.5t-128 67.5q0 7 7 11q75 29 165 75t114 62l3 -3q-8 -16 -11 -19q-26 -20 -89 -59.5t-101 -59.5q-2 -2 0 -4zM352 184q25 -14 81 -57t78 -65q1 -2 1 -10t-1 -11q-2 -2 -4 -2
q-19 19 -107.5 72t-133.5 70q3 10 7 11q78 30 170.5 77.5t120.5 65.5q1 -4 1 -5q-3 -11 -9 -17q-25 -19 -91.5 -59.5t-111.5 -65.5q-1 -1 -1 -4z" />
    <glyph glyph-name="logicalnot" unicode="&#xac;" horiz-adv-x="460" 
d="M73 265q-30 0 -30 4q7 30 15 41q13 -3 160 -3h67.5t51 0.5t33.5 0.5h21.5h8.5q5 0 5 -6q0 -5 -0.5 -67t-0.5 -93q0 -55 2 -77q-29 -9 -40 -9q-1 0 -3.5 2.5t-2.5 3.5v181q0 22 -11 22h-276z" />
    <glyph glyph-name="uni00AD" unicode="&#xad;" horiz-adv-x="232" 
d="M39 220q117 0 175 6q2 -2 2 -7q-2 -8 -12 -22t-14 -15q-12 -3 -77.5 -6t-90.5 -3q-2 4 -2 7q2 9 9 24.5t10 15.5z" />
    <glyph glyph-name="registered" unicode="&#xae;" horiz-adv-x="214" 
d="M151 596q41 0 69.5 -28t28.5 -71q0 -42 -28.5 -70.5t-69.5 -28.5t-69.5 28.5t-28.5 70.5q0 41 29 70t69 29zM151 584q-34 0 -58.5 -25.5t-24.5 -61.5t24.5 -62t58.5 -26q36 0 59.5 24.5t23.5 63.5q0 36 -24 61.5t-59 25.5zM105 451q-1 4 0 6q10 1 12.5 3t2.5 7v66
q0 5 -2.5 6.5t-12.5 2.5q-1 1 -0.5 4t1.5 3q3 0 10.5 -0.5t11.5 -0.5q8 0 19 0.5t12 0.5q30 0 30 -27q0 -18 -21 -23q15 -25 23 -34q8 -8 20 -9q0 -5 -2 -6q-10 -2 -28 2q-6 2 -11 8l-18 29q-4 6 -12 6v-27q0 -6 2.5 -7t12.5 -3q2 -2 0 -7q-2 0 -11.5 0.5t-14.5 0.5
t-14 -0.5t-10 -0.5zM140 501q15 0 21 3q7 4 7 15q0 22 -22 22q-6 0 -6 -5v-35z" />
    <glyph glyph-name="macron" unicode="&#xaf;" 
d="M176 530q14 -2 40 -2q125 0 134 3q-1 -8 -9 -22t-11 -15q-30 -5 -137 -5l-33 1q5 23 16 40z" />
    <glyph glyph-name="degree" unicode="&#xb0;" horiz-adv-x="260" 
d="M129 585q48 0 74.5 -30t26.5 -77q0 -44 -31 -73.5t-73 -29.5q-44 0 -74 28t-30 73q0 52 30.5 80.5t76.5 28.5zM124 550q-29 0 -48.5 -20t-19.5 -47q0 -36 21 -54t51 -18q69 0 69 66q0 29 -20 51t-53 22z" />
    <glyph glyph-name="plusminus" unicode="&#xb1;" horiz-adv-x="460" 
d="M411 31l-373 -3q-2 0 -2 7q5 24 10 37q4 -1 97 -1l280 -1q2 -2 2 -6q-8 -32 -14 -33zM424 317q-6 -32 -14 -33h-31t-66.5 -0.5t-62.5 -0.5q-4 0 -4 -5v-59t-0.5 -65.5t-0.5 -29.5q-2 -10 -32 -17q-7 1 -7 2v22.5v43v53.5v55q-60 -1 -168 -1q-2 2 -2 8q3 21 10 36
q5 -2 98 -2h62v64q0 69 -2 93q25 11 39 11q4 0 4 -30q0 -9 -0.5 -57.5t-0.5 -74.5q0 -6 4 -6h171q3 -3 3 -7z" />
    <glyph glyph-name="two.k" unicode="&#xb2;" horiz-adv-x="306" 
d="M292 656q0 -39 -20.5 -71.5t-65.5 -72.5q-23 -20 -51 -44.5t-37 -32.5q0 -2 1 -3q18 -1 65 -1.5t64 0.5q22 0 53 49q2 1 7 -2t5 -5q-35 -73 -43 -83q-5 -9 -23 -9q-29 -1 -92 0.5t-85 1.5q-24 0 -32 -1q-1 1 -1.5 7t0.5 7q9 7 26.5 20t23 17t17.5 13.5t19 16t17.5 16
t22.5 21.5q69 70 69 133q0 29 -15 50t-46 21q-41 0 -81 -41q-1 0 -3 2.5t-3 6t-1 4.5q21 27 55.5 50.5t68.5 23.5q39 0 62.5 -26.5t22.5 -67.5z" />
    <glyph glyph-name="three.k" unicode="&#xb3;" horiz-adv-x="306" 
d="M211 750q32 0 54 -21t22 -52q0 -53 -65 -92q-3 -2 -2 -3q74 -26 74 -87q0 -58 -53 -97t-116 -39q-38 0 -61 13q-13 7 -17 23q-5 24 -1 52q2 3 11 3q7 -35 28 -51q24 -18 66 -18q36 0 59.5 22.5t23.5 66.5q0 34 -20 56t-57 22q-12 0 -27 -3q-1 2 3.5 11t6.5 11
q52 11 72.5 30.5t20.5 51.5q0 28 -14.5 44.5t-40.5 16.5q-35 0 -76 -37q-2 0 -4 7t-1 8q58 62 114 62z" />
    <glyph glyph-name="acute" unicode="&#xb4;" 
d="M346 575q2 -2 2 -8q-29 -35 -134 -137q-2 0 -6.5 4.5t-4.5 6.5q68 106 83 128q9 2 32 4.5t28 1.5z" />
    <glyph glyph-name="mu" unicode="&#xb5;" horiz-adv-x="410" 
d="M384 78q-27 -39 -62.5 -66.5t-52.5 -27.5q-30 0 -15 89q9 60 12 72q0 -1 -4 -1q-37 -62 -72 -100t-55 -49t-35 -11q-27 0 -34 24q-20 -82 -24 -136q-5 -95 90 -110q2 -8 -2 -12q-10 -10 -35.5 -17t-43.5 -7q-8 0 -13 1.5t-12.5 8.5t-10 20.5t-4.5 37.5t4 60
q14 110 38 251q43 255 46 262q6 8 32.5 19.5t34.5 11.5q6 0 4 -5q-10 -13 -33.5 -139t-25.5 -164q-5 -48 23 -48q47 0 124 129q16 26 26 67q25 112 32 126q5 5 27.5 18t36.5 16q5 -3 3 -7q-10 -16 -19 -55q-35 -141 -46 -249q-5 -32 9 -32q20 0 57 45q2 0 2 -3q2 -10 -2 -19
z" />
    <glyph glyph-name="paragraph" unicode="&#xb6;" horiz-adv-x="521" 
d="M555 587q-34 -2 -50 -5q-20 -4 -29 -13.5t-19.5 -47t-25.5 -123.5q-7 -38 -27 -174t-29 -183q-11 -64 -29.5 -112.5t-38 -74t-43.5 -41t-41 -19.5t-35 -4q-25 0 -45 14t-25 32q-7 28 -1 60q2 6 7 8q42 -64 106 -64q53 0 76.5 59t51.5 244q-50 -20 -87 -21
q-92 12 -138 70.5t-46 146.5q0 59 21.5 106.5t58 77.5t79.5 47t90 22q54 6 222 15q5 -8 -3 -20zM285 322q-4 -135 74 -161q27 181 43 276q21 107 36 133q-64 -2 -107 -69.5t-46 -178.5z" />
    <glyph glyph-name="periodcentered" unicode="&#xb7;" horiz-adv-x="154" 
d="M83 233q17 0 28 -11q9 -11 9 -32t-16 -36q-14 -13 -35 -13q-18 0 -27 12t-9 27q0 25 18 42q13 11 32 11z" />
    <glyph glyph-name="cedilla" unicode="&#xb8;" horiz-adv-x="397" 
d="M165 6h17l-33 -42q-1 -2 -1 -4.5t1 -3.5q6 -5 31 -27q15 -16 15 -36q0 -34 -33.5 -59t-57.5 -25q-27 0 -37 26q-2 7 2 11q23 -13 49 -13q16 0 26.5 8.5t10.5 22.5q0 34 -55 59q2 5 3 8q50 62 62 75z" />
    <glyph glyph-name="one.k" unicode="&#xb9;" horiz-adv-x="306" 
d="M251 395q1 -2 -0.5 -7.5t-2.5 -6.5q-12 0 -44 1t-47 1q-13 0 -43 -1t-42 -1q-1 1 -0.5 7t2.5 7q17 1 33 4q14 3 20 11t10 27q11 52 24 131q17 100 17 119q0 18 -12 20l-12 1q-12 2 -22 3q-1 1 0.5 5.5t2.5 5.5q66 5 109 28q4 -1 4 -2q-7 -27 -27 -155q-12 -70 -23 -155
q-2 -19 1 -26t13 -11z" />
    <glyph glyph-name="ordmasculine" unicode="&#xba;" horiz-adv-x="258" 
d="M201 495q62 0 62 -81q0 -51 -22.5 -96t-65.5 -69q-38 -22 -70 -22q-28 0 -42.5 23.5t-14.5 60.5q0 41 17.5 84t49.5 68q44 32 86 32zM170 472q-31 0 -50.5 -46.5t-19.5 -96.5q0 -76 42 -76q28 0 48.5 45.5t20.5 102.5q0 71 -41 71z" />
    <glyph glyph-name="guillemotright" unicode="&#xbb;" horiz-adv-x="626" 
d="M458 189q-24 15 -76 55.5t-72 61.5q-4 8 1 21q0 2 3 2q19 -18 104 -69t127 -68q0 -5 -6 -11q-75 -28 -164 -74t-115 -63q-3 0 -3 4q5 14 11 18q25 20 87.5 59t102.5 60q1 1 1 2.5t-1 1.5zM264 189q-26 16 -82 58.5t-77 64.5q-1 2 -1 9.5t2 10.5l3 3q19 -19 107.5 -72
t133.5 -71q0 -6 -7 -11q-77 -29 -169.5 -76t-120.5 -66q-3 0 -3 4q4 15 11 20q67 51 203 122q3 3 0 4z" />
    <glyph glyph-name="onequarter" unicode="&#xbc;" horiz-adv-x="663" 
d="M630 109h-69q-2 -2 -2 -3l-17 -117q-18 0 -58 -8l21 124q0 3 -2 3h-154q4 15 7 20q19 20 71.5 77.5t94.5 103t51 53.5q10 5 27 5q0 -4 -17 -109t-18 -113q0 -2 1 -2l74 2zM241 247q1 -2 -0.5 -7.5t-2.5 -6.5q-12 0 -44 1t-47 1q-13 0 -43 -1t-42 -1q-1 1 -0.5 7t2.5 7
q17 1 33 4q14 3 20 11t10 27q11 52 24 131q17 100 17 119q0 18 -12 20l-12 1q-12 2 -22 3q-1 1 0.5 5.5t2.5 5.5q66 5 109 28q4 -1 4 -2q-7 -27 -27 -155q-12 -70 -23 -155q-2 -19 1 -26t13 -11zM582 619q1 1 10.5 0t13.5 -2v-2q-9 -10 -241 -326.5t-251 -339.5l-3 -1
q-11 16 -9 20q30 42 253 345t227 306zM507 141l4 3l27 156q0 1 -2 1q-51 -54 -138 -156q-2 -4 1 -4h108z" />
    <glyph glyph-name="onehalf" unicode="&#xbd;" horiz-adv-x="663" 
d="M619 273q0 -39 -20.5 -71.5t-65.5 -72.5q-23 -20 -51 -44.5t-37 -32.5q0 -2 1 -3q18 -1 65 -1.5t64 0.5q22 0 53 49q2 1 7 -2t5 -5q-35 -73 -43 -83q-5 -9 -23 -9q-29 -1 -92 0.5t-85 1.5q-24 0 -32 -1q-1 1 -1.5 7t0.5 7q9 7 26.5 20t23 17t17.5 13.5t19 16t17.5 16
t22.5 21.5q69 70 69 133q0 29 -15 50t-46 21q-41 0 -81 -41q-1 0 -3 2.5t-3 6t-1 4.5q21 27 55.5 50.5t68.5 23.5q39 0 62.5 -26.5t22.5 -67.5zM234 247q1 -2 -0.5 -7.5t-2.5 -6.5q-11 0 -44 1t-47 1q-13 0 -43 -1t-42 -1q-1 1 -0.5 7t2.5 7q17 1 33 4q14 3 20 11t10 27
q11 52 24 131q17 100 17 119q0 18 -12 20l-12 1q-12 2 -22 3q-1 1 0.5 5.5t2.5 5.5q66 5 109 28q4 -1 4 -2q-7 -27 -27 -155q-12 -70 -23 -155q-2 -19 1 -26t13 -11zM561 619q1 1 10.5 0t13.5 -2v-2q-9 -10 -241 -326.5t-251 -339.5l-3 -1q-11 16 -9 20q30 42 253 345
t227 306z" />
    <glyph glyph-name="threequarters" unicode="&#xbe;" horiz-adv-x="663" 
d="M642 109h-69q-2 -2 -2 -3l-17 -117q-18 0 -58 -8l21 124q0 3 -2 3h-154q4 15 7 20q19 20 71.5 77.5t94.5 103t51 53.5q10 5 27 5q0 -4 -17 -109t-18 -113q0 -2 1 -2l74 2zM223 602q32 0 54 -21t22 -52q0 -53 -65 -92q-3 -2 -2 -3q74 -26 74 -87q0 -58 -53 -97t-116 -39
q-38 0 -61 13q-13 7 -17 23q-5 24 -1 52q2 3 11 3q7 -35 28 -51q24 -18 66 -18q36 0 59.5 22.5t23.5 66.5q0 34 -20 56t-57 22q-12 0 -27 -3q-1 2 3.5 11t6.5 11q52 11 72.5 30.5t20.5 51.5q0 28 -14.5 44.5t-40.5 16.5q-35 0 -76 -37q-2 0 -4 7t-1 8q58 62 114 62zM610 619
q1 1 10.5 0t13.5 -2v-2q-9 -10 -241 -326.5t-251 -339.5l-3 -1q-11 16 -9 20q30 42 253 345t227 306zM519 141l4 3l27 156q0 1 -2 1q-51 -54 -138 -156q-2 -4 1 -4h108z" />
    <glyph glyph-name="questiondown" unicode="&#xbf;" horiz-adv-x="311" 
d="M162 111q3 29 -31 56q-3 7 3 13q12 12 30 18q13 4 24 0q17 -8 27 -26.5t7 -35.5q-1 -15 -12 -26q-9 -10 -62.5 -49.5t-60.5 -45.5q-35 -33 -36 -67q0 -32 23.5 -64t79.5 -47q6 -2 17 -4.5t13 -2.5q14 -3 14 -12q-1 -15 -26 -36q-10 -10 -25 -10q-51 0 -96 38
q-51 43 -51 112q0 39 29 71q17 18 63.5 52.5t55.5 41.5q12 10 14 24zM178 303q-17 0 -28 11q-10 12 -10 33q0 20 16 36q17 13 35 13q17 0 27 -12q9 -10 9 -28q0 -26 -18 -41q-15 -12 -31 -12z" />
    <glyph glyph-name="Agrave" unicode="&#xc0;" horiz-adv-x="537" 
d="M-60 11q50 7 69 20.5t49 65.5q54 94 133 247.5t107 214.5q15 30 23 52q2 0 9.5 -0.5t12.5 -0.5q6 0 13 0.5t9 0.5q0 -12 6 -50q1 -3 35 -215t42 -258q9 -48 22 -58.5t64 -16.5q2 -2 1.5 -8.5t-3.5 -7.5q-3 0 -36 1.5t-67 1.5q-36 0 -73.5 -1.5t-42.5 -1.5q-2 1 -1.5 8
t2.5 8q38 4 50 9q18 8 15 28q-6 68 -30 201q-3 4 -4 4q-11 1 -90 1q-70 0 -76 -1q-5 0 -8 -6q-66 -119 -93 -188q-13 -35 18 -41q18 -4 44 -7q2 -1 1.5 -8t-3.5 -8q-2 0 -38 1.5t-71 1.5q-28 0 -57.5 -1.5t-31.5 -1.5q-2 1 -2 7t2 7zM305 520q-85 -170 -111 -227q-2 -5 1 -6
q14 -2 85 -2q52 0 62 1q3 0 3 7l-36 227h-4zM232 735q-2 5 0 7q9 6 28.5 13t28.5 7q25 -33 78 -122q1 0 -1.5 -2.5t-5.5 -4.5t-5 -2q-3 0 -56 45.5t-67 58.5z" />
    <glyph glyph-name="Aacute" unicode="&#xc1;" horiz-adv-x="537" 
d="M-60 11q50 7 69 20.5t49 65.5q54 94 133 247.5t107 214.5q15 30 23 52q2 0 9.5 -0.5t12.5 -0.5q6 0 13 0.5t9 0.5q0 -12 6 -50q1 -3 35 -215t42 -258q9 -48 22 -58.5t64 -16.5q2 -2 1.5 -8.5t-3.5 -7.5q-3 0 -36 1.5t-67 1.5q-36 0 -73.5 -1.5t-42.5 -1.5q-2 1 -1.5 8
t2.5 8q38 4 50 9q18 8 15 28q-6 68 -30 201q-3 4 -4 4q-11 1 -90 1q-70 0 -76 -1q-5 0 -8 -6q-66 -119 -93 -188q-13 -35 18 -41q18 -4 44 -7q2 -1 1.5 -8t-3.5 -8q-2 0 -38 1.5t-71 1.5q-28 0 -57.5 -1.5t-31.5 -1.5q-2 1 -2 7t2 7zM305 520q-85 -170 -111 -227q-2 -5 1 -6
q14 -2 85 -2q52 0 62 1q3 0 3 7l-36 227h-4zM493 729q1 -1 0.5 -4t-1.5 -4q-12 -8 -89 -44.5t-80 -36.5t-6.5 5.5t-1.5 7.5q108 90 131 104q8 0 23.5 -10t23.5 -18z" />
    <glyph glyph-name="Acircumflex" unicode="&#xc2;" horiz-adv-x="537" 
d="M-60 11q50 7 69 20.5t49 65.5q54 94 133 247.5t107 214.5q15 30 23 52q2 0 9.5 -0.5t12.5 -0.5q6 0 13 0.5t9 0.5q0 -12 6 -50q1 -3 35 -215t42 -258q9 -48 22 -58.5t64 -16.5q2 -2 1.5 -8.5t-3.5 -7.5q-3 0 -36 1.5t-67 1.5q-36 0 -73.5 -1.5t-42.5 -1.5q-2 1 -1.5 8
t2.5 8q38 4 50 9q18 8 15 28q-6 68 -30 201q-3 4 -4 4q-11 1 -90 1q-70 0 -76 -1q-5 0 -8 -6q-66 -119 -93 -188q-13 -35 18 -41q18 -4 44 -7q2 -1 1.5 -8t-3.5 -8q-2 0 -38 1.5t-71 1.5q-28 0 -57.5 -1.5t-31.5 -1.5q-2 1 -2 7t2 7zM305 520q-85 -170 -111 -227q-2 -5 1 -6
q14 -2 85 -2q52 0 62 1q3 0 3 7l-36 227h-4zM355 732q6 3 12 3q6 -9 44 -46.5t53 -50.5q-3 -11 -8 -11q-4 0 -45.5 20.5t-54.5 28.5q-4 2 -7 0q-18 -9 -68 -29t-54 -20q-2 0 -4 4.5t-1 7.5q102 64 133 93z" />
    <glyph glyph-name="Atilde" unicode="&#xc3;" horiz-adv-x="537" 
d="M-60 11q50 7 69 20.5t49 65.5q54 94 133 247.5t107 214.5q15 30 23 52q2 0 9.5 -0.5t12.5 -0.5q6 0 13 0.5t9 0.5q0 -12 6 -50q1 -3 35 -215t42 -258q9 -48 22 -58.5t64 -16.5q2 -2 1.5 -8.5t-3.5 -7.5q-3 0 -36 1.5t-67 1.5q-36 0 -73.5 -1.5t-42.5 -1.5q-2 1 -1.5 8
t2.5 8q38 4 50 9q18 8 15 28q-6 68 -30 201q-3 4 -4 4q-11 1 -90 1q-70 0 -76 -1q-5 0 -8 -6q-66 -119 -93 -188q-13 -35 18 -41q18 -4 44 -7q2 -1 1.5 -8t-3.5 -8q-2 0 -38 1.5t-71 1.5q-28 0 -57.5 -1.5t-31.5 -1.5q-2 1 -2 7t2 7zM305 520q-85 -170 -111 -227q-2 -5 1 -6
q14 -2 85 -2q52 0 62 1q3 0 3 7l-36 227h-4zM407 693q35 0 68 30l4 -11v-3q-14 -19 -46 -37t-55 -18q-18 0 -58 13q-26 7 -35 7q-25 0 -61 -27q-2 -1 -3.5 2.5t-1.5 7.5t2 5q11 13 42 32t49 19q15 0 52 -11q32 -9 43 -9z" />
    <glyph glyph-name="Adieresis" unicode="&#xc4;" horiz-adv-x="537" 
d="M-60 11q50 7 69 20.5t49 65.5q54 94 133 247.5t107 214.5q15 30 23 52q2 0 9.5 -0.5t12.5 -0.5q6 0 13 0.5t9 0.5q0 -12 6 -50q1 -3 35 -215t42 -258q9 -48 22 -58.5t64 -16.5q2 -2 1.5 -8.5t-3.5 -7.5q-3 0 -36 1.5t-67 1.5q-36 0 -73.5 -1.5t-42.5 -1.5q-2 1 -1.5 8
t2.5 8q38 4 50 9q18 8 15 28q-6 68 -30 201q-3 4 -4 4q-11 1 -90 1q-70 0 -76 -1q-5 0 -8 -6q-66 -119 -93 -188q-13 -35 18 -41q18 -4 44 -7q2 -1 1.5 -8t-3.5 -8q-2 0 -38 1.5t-71 1.5q-28 0 -57.5 -1.5t-31.5 -1.5q-2 1 -2 7t2 7zM305 520q-85 -170 -111 -227q-2 -5 1 -6
q14 -2 85 -2q52 0 62 1q3 0 3 7l-36 227h-4zM280 716q18 0 23 -8q7 -9 4 -23q-3 -25 -20 -34q-4 -2 -17 -2t-17 1q-16 7 -16 32q2 16 6 21q11 13 37 13zM433 716q18 0 23 -8q5 -6 5 -23q-3 -28 -21 -34q-21 -8 -33 -2q-16 7 -16 32q-1 10 5 22q13 13 37 13z" />
    <glyph glyph-name="Aring" unicode="&#xc5;" horiz-adv-x="537" 
d="M-60 11q50 7 69 20.5t49 65.5q54 94 133 247.5t107 214.5q15 30 23 52q2 0 9.5 -0.5t12.5 -0.5q6 0 13 0.5t9 0.5q0 -12 6 -50q1 -3 35 -215t42 -258q9 -48 22 -58.5t64 -16.5q2 -2 1.5 -8.5t-3.5 -7.5q-3 0 -36 1.5t-67 1.5q-36 0 -73.5 -1.5t-42.5 -1.5q-2 1 -1.5 8
t2.5 8q38 4 50 9q18 8 15 28q-6 68 -30 201q-3 4 -4 4q-11 1 -90 1q-70 0 -76 -1q-5 0 -8 -6q-66 -119 -93 -188q-13 -35 18 -41q18 -4 44 -7q2 -1 1.5 -8t-3.5 -8q-2 0 -38 1.5t-71 1.5q-28 0 -57.5 -1.5t-31.5 -1.5q-2 1 -2 7t2 7zM305 520q-85 -170 -111 -227q-2 -5 1 -6
q14 -2 85 -2q52 0 62 1q3 0 3 7l-36 227h-4zM359 756q28 0 44.5 -18t14.5 -44q-3 -30 -23.5 -47.5t-51.5 -17.5q-25 0 -43.5 16.5t-15.5 48.5q3 29 23.5 45.5t51.5 16.5zM352 727q-41 0 -44 -33q-1 -16 10.5 -26t30.5 -10q18 0 31 9t14 23q1 18 -9 27.5t-33 9.5z" />
    <glyph glyph-name="AE" unicode="&#xc6;" horiz-adv-x="753" 
d="M316 598q-3 6 2 16q5 0 53 -2t83 -2h190q74 0 102 5q3 -3 3 -7q-17 -40 -35 -131q-2 -2 -8.5 -2t-8.5 1q2 50 -2 75q-3 18 -12.5 24.5t-33.5 8.5q-18 2 -74 2t-69 -2q-9 -2 -11 -12q-29 -160 -38 -261q0 -6 4 -6q99 0 130 2q34 2 54 42q10 22 13 32q2 2 8.5 0.5t7.5 -3.5
q-15 -61 -20 -87q-2 -10 -13 -94q-2 -2 -8.5 -2.5t-8.5 1.5q-2 27 -4 39q-5 37 -34 39q-50 2 -130 2q-4 0 -4 -7q-17 -113 -24 -191q-5 -40 18 -47q24 -6 127 -6q62 0 88 25q28 25 63 89q6 2 12 -7q-2 -17 -22 -61.5t-34 -62.5q-8 -10 -37 -10q-14 0 -97 1t-165 1
q-33 0 -74.5 -1.5t-58.5 -1.5q-1 1 -1 7.5t2 8.5q51 7 66 10q17 5 25 16t13 41l30 191q0 5 -3 5q-14 1 -152 1q-8 0 -13 -8q-117 -169 -139 -209q-18 -32 11 -39q12 -4 44 -8q3 -7 -3 -16q-8 0 -46 1.5t-60 1.5q-24 0 -56.5 -1.5t-37.5 -1.5q-1 2 -0.5 8t1.5 8
q50 6 72.5 19.5t59.5 64.5q122 167 329 481q5 5 -1 7q-21 6 -73 13zM427 578q0 1 -3 1.5t-4 -0.5q-141 -209 -175 -267q-1 -5 2 -7h135q7 0 7 6q30 188 38 267z" />
    <glyph glyph-name="Ccedilla" unicode="&#xc7;" horiz-adv-x="580" 
d="M547 480q1 57 -5 75.5t-27 30.5q-32 20 -107 20q-114 0 -187 -96t-70 -244q2 -119 60 -184.5t157 -65.5q37 0 64 10q60 19 115 96q2 0 6.5 -4.5t3.5 -6.5q-14 -30 -43.5 -61.5t-51.5 -42.5q-42 -22 -118 -25l-18 -23q-3 -6 0 -7q18 -12 33 -27q16 -16 16 -38
q0 -34 -35.5 -60t-61.5 -26q-31 0 -40 24q0 13 2 15q27 -14 54 -14q17 0 28 8.5t11 23.5q0 35 -60 62q2 5 3 7q27 32 46 55q-123 3 -188 74.5t-65 193.5q0 106 49 196.5t143 140.5q74 41 175 41q47 0 96 -9q12 -2 35 -6.5t29 -4.5q-23 -68 -32 -127q-11 -7 -17 -1z" />
    <glyph glyph-name="Egrave" unicode="&#xc8;" horiz-adv-x="495" 
d="M-12 13q36 3 58 8q18 4 25.5 14t14.5 39q8 36 39.5 233.5t34.5 229.5q4 22 0.5 35.5t-19.5 18.5q-9 3 -49 8q-1 3 0 8t2 6q1 0 39.5 -1.5t69.5 -1.5h187q78 0 102 6q2 -2 2 -4q-9 -22 -31 -126q-1 -2 -8.5 -2.5t-8.5 1.5q0 43 -3 57q-2 22 -12 31t-37 11q-20 2 -71.5 2
t-68.5 -1q-10 -3 -12 -12q-5 -20 -41 -241q0 -6 4 -6q111 0 140 2q32 1 47 35q8 14 14 33q2 2 8.5 2t8.5 -2q-11 -38 -18 -81q-3 -14 -7.5 -48.5t-5.5 -43.5q-1 -1 -7.5 -1.5t-7.5 0.5q0 6 -1 16.5t-1 17.5q-2 21 -8 30.5t-23 10.5q-29 3 -144 3q-6 0 -6 -7
q-22 -141 -33 -238q-3 -23 11 -27q13 -3 142 -5q54 0 87 31q34 36 57 79q2 1 7 -1.5t6 -4.5q-6 -22 -23 -60t-32 -59q-7 -11 -40 -11q-22 0 -116 1.5t-148 1.5q-42 0 -83 -1.5t-42 -1.5q-1 2 -1 8t2 8zM223 743q-2 5 0 7q9 6 28.5 13t28.5 7q25 -33 78 -122l-2 -2
q-2 -3 -5 -5t-5 -2q-3 0 -56 45.5t-67 58.5z" />
    <glyph glyph-name="Eacute" unicode="&#xc9;" horiz-adv-x="495" 
d="M-12 13q36 3 58 8q18 4 25.5 14t14.5 39q8 36 39.5 233.5t34.5 229.5q4 22 0.5 35.5t-19.5 18.5q-9 3 -49 8q-1 3 0 8t2 6q1 0 39.5 -1.5t69.5 -1.5h187q78 0 102 6q2 -2 2 -4q-9 -22 -31 -126q-1 -2 -8.5 -2.5t-8.5 1.5q0 43 -3 57q-2 22 -12 31t-37 11q-20 2 -71.5 2
t-68.5 -1q-10 -3 -12 -12q-5 -20 -41 -241q0 -6 4 -6q111 0 140 2q32 1 47 35q8 14 14 33q2 2 8.5 2t8.5 -2q-11 -38 -18 -81q-3 -14 -7.5 -48.5t-5.5 -43.5q-1 -1 -7.5 -1.5t-7.5 0.5q0 6 -1 16.5t-1 17.5q-2 21 -8 30.5t-23 10.5q-29 3 -144 3q-6 0 -6 -7
q-22 -141 -33 -238q-3 -23 11 -27q13 -3 142 -5q54 0 87 31q34 36 57 79q2 1 7 -1.5t6 -4.5q-6 -22 -23 -60t-32 -59q-7 -11 -40 -11q-22 0 -116 1.5t-148 1.5q-42 0 -83 -1.5t-42 -1.5q-1 2 -1 8t2 8zM465 730q1 -1 0.5 -4t-1.5 -4q-12 -8 -89 -44.5t-80 -36.5t-6.5 5.5
t-1.5 7.5q108 90 131 104q8 0 23.5 -10t23.5 -18z" />
    <glyph glyph-name="Ecircumflex" unicode="&#xca;" horiz-adv-x="495" 
d="M-12 13q36 3 58 8q18 4 25.5 14t14.5 39q8 36 39.5 233.5t34.5 229.5q4 22 0.5 35.5t-19.5 18.5q-9 3 -49 8q-1 3 0 8t2 6q1 0 39.5 -1.5t69.5 -1.5h187q78 0 102 6q2 -2 2 -4q-9 -22 -31 -126q-1 -2 -8.5 -2.5t-8.5 1.5q0 43 -3 57q-2 22 -12 31t-37 11q-20 2 -71.5 2
t-68.5 -1q-10 -3 -12 -12q-5 -20 -41 -241q0 -6 4 -6q111 0 140 2q32 1 47 35q8 14 14 33q2 2 8.5 2t8.5 -2q-11 -38 -18 -81q-3 -14 -7.5 -48.5t-5.5 -43.5q-1 -1 -7.5 -1.5t-7.5 0.5q0 6 -1 16.5t-1 17.5q-2 21 -8 30.5t-23 10.5q-29 3 -144 3q-6 0 -6 -7
q-22 -141 -33 -238q-3 -23 11 -27q13 -3 142 -5q54 0 87 31q34 36 57 79q2 1 7 -1.5t6 -4.5q-6 -22 -23 -60t-32 -59q-7 -11 -40 -11q-22 0 -116 1.5t-148 1.5q-42 0 -83 -1.5t-42 -1.5q-1 2 -1 8t2 8zM340 748q6 3 12 3q6 -9 44 -46.5t53 -50.5q-3 -11 -8 -11
q-4 0 -45.5 20.5t-54.5 28.5q-3 2 -7 0q-18 -9 -68 -29t-54 -20q-2 0 -4 4.5t-1 7.5q102 64 133 93z" />
    <glyph glyph-name="Edieresis" unicode="&#xcb;" horiz-adv-x="495" 
d="M-12 13q36 3 58 8q18 4 25.5 14t14.5 39q8 36 39.5 233.5t34.5 229.5q4 22 0.5 35.5t-19.5 18.5q-9 3 -49 8q-1 3 0 8t2 6q1 0 39.5 -1.5t69.5 -1.5h187q78 0 102 6q2 -2 2 -4q-9 -22 -31 -126q-1 -2 -8.5 -2.5t-8.5 1.5q0 43 -3 57q-2 22 -12 31t-37 11q-20 2 -71.5 2
t-68.5 -1q-10 -3 -12 -12q-5 -20 -41 -241q0 -6 4 -6q111 0 140 2q32 1 47 35q8 14 14 33q2 2 8.5 2t8.5 -2q-11 -38 -18 -81q-3 -14 -7.5 -48.5t-5.5 -43.5q-1 -1 -7.5 -1.5t-7.5 0.5q0 6 -1 16.5t-1 17.5q-2 21 -8 30.5t-23 10.5q-29 3 -144 3q-6 0 -6 -7
q-22 -141 -33 -238q-3 -23 11 -27q13 -3 142 -5q54 0 87 31q34 36 57 79q2 1 7 -1.5t6 -4.5q-6 -22 -23 -60t-32 -59q-7 -11 -40 -11q-22 0 -116 1.5t-148 1.5q-42 0 -83 -1.5t-42 -1.5q-1 2 -1 8t2 8zM256 725q18 0 23 -8q7 -9 4 -23q-3 -26 -20 -34q-4 -2 -17 -2t-17 1
q-16 7 -16 32q2 16 6 21q11 13 37 13zM409 725q18 0 23 -8q5 -6 5 -23q-3 -28 -21 -34q-21 -8 -33 -2q-16 7 -16 32q-1 10 5 22q13 13 37 13z" />
    <glyph glyph-name="Igrave" unicode="&#xcc;" horiz-adv-x="284" 
d="M96 597q-2 2 -1 8t3 8q4 0 40 -1.5t68 -1.5q31 0 70.5 1t40.5 1q2 -1 1 -7t-3 -8q-29 -4 -41 -6q-18 -5 -25 -13.5t-13 -36.5q-4 -21 -38 -228q-7 -44 -15.5 -98.5t-13.5 -88.5t-7 -49q-1 -14 -1 -25t5.5 -19.5t17.5 -11.5q17 -4 53 -8q1 -2 -0.5 -8.5t-3.5 -7.5
q-11 0 -53.5 1.5t-67.5 1.5q-27 0 -68 -1.5t-52 -1.5q-2 1 -1 7.5t3 8.5q29 2 52 7q17 4 24.5 13t12.5 29q11 45 48 275q26 174 30 207q3 23 -1 32.5t-19 13.5q-7 2 -45 7zM115 747q-2 5 0 7q9 6 28.5 13t28.5 7q25 -33 78 -122l-2 -2q-2 -3 -5 -5t-5 -2q-3 0 -56 45.5
t-67 58.5z" />
    <glyph glyph-name="Iacute" unicode="&#xcd;" horiz-adv-x="284" 
d="M96 597q-2 2 -1 8t3 8q4 0 40 -1.5t68 -1.5q31 0 70.5 1t40.5 1q2 -1 1 -7t-3 -8q-29 -4 -41 -6q-18 -5 -25 -13.5t-13 -36.5q-4 -21 -38 -228q-7 -44 -15.5 -98.5t-13.5 -88.5t-7 -49q-1 -14 -1 -25t5.5 -19.5t17.5 -11.5q17 -4 53 -8q1 -2 -0.5 -8.5t-3.5 -7.5
q-11 0 -53.5 1.5t-67.5 1.5q-27 0 -68 -1.5t-52 -1.5q-2 1 -1 7.5t3 8.5q29 2 52 7q17 4 24.5 13t12.5 29q11 45 48 275q26 174 30 207q3 23 -1 32.5t-19 13.5q-7 2 -45 7zM359 730q1 -1 0.5 -4t-1.5 -4q-12 -8 -89 -44.5t-80 -36.5t-6.5 5.5t-1.5 7.5q108 90 131 104
q8 0 23.5 -10t23.5 -18z" />
    <glyph glyph-name="Icircumflex" unicode="&#xce;" horiz-adv-x="284" 
d="M96 597q-2 2 -1 8t3 8q4 0 40 -1.5t68 -1.5q31 0 70.5 1t40.5 1q2 -1 1 -7t-3 -8q-29 -4 -41 -6q-18 -5 -25 -13.5t-13 -36.5q-4 -21 -38 -228q-7 -44 -15.5 -98.5t-13.5 -88.5t-7 -49q-1 -14 -1 -25t5.5 -19.5t17.5 -11.5q17 -4 53 -8q1 -2 -0.5 -8.5t-3.5 -7.5
q-11 0 -53.5 1.5t-67.5 1.5q-27 0 -68 -1.5t-52 -1.5q-2 1 -1 7.5t3 8.5q29 2 52 7q17 4 24.5 13t12.5 29q11 45 48 275q26 174 30 207q3 23 -1 32.5t-19 13.5q-7 2 -45 7zM227 748q6 3 12 3q6 -9 44 -46.5t53 -50.5q-3 -11 -8 -11q-4 0 -45.5 20.5t-54.5 28.5q-4 2 -7 0
q-18 -9 -68 -29t-54 -20q-2 0 -4 4.5t-1 7.5q102 64 133 93z" />
    <glyph glyph-name="Idieresis" unicode="&#xcf;" horiz-adv-x="284" 
d="M96 597q-2 2 -1 8t3 8q4 0 40 -1.5t68 -1.5q31 0 70.5 1t40.5 1q2 -1 1 -7t-3 -8q-29 -4 -41 -6q-18 -5 -25 -13.5t-13 -36.5q-4 -21 -38 -228q-7 -44 -15.5 -98.5t-13.5 -88.5t-7 -49q-1 -14 -1 -25t5.5 -19.5t17.5 -11.5q17 -4 53 -8q1 -2 -0.5 -8.5t-3.5 -7.5
q-11 0 -53.5 1.5t-67.5 1.5q-27 0 -68 -1.5t-52 -1.5q-2 1 -1 7.5t3 8.5q29 2 52 7q17 4 24.5 13t12.5 29q11 45 48 275q26 174 30 207q3 23 -1 32.5t-19 13.5q-7 2 -45 7zM150 725q18 0 23 -8q7 -9 4 -23q-3 -26 -20 -34q-4 -2 -17 -2t-17 1q-16 7 -16 32q2 16 6 21
q11 13 37 13zM303 725q18 0 23 -8q5 -6 5 -23q-3 -28 -21 -34q-21 -8 -33 -2q-16 7 -16 32q-1 10 5 22q13 13 37 13z" />
    <glyph glyph-name="Eth" unicode="&#xd0;" horiz-adv-x="655" 
d="M306 590q-24 0 -39 -5q-11 -2 -16 -22q-12 -55 -40 -238q25 0 62 0.5t64 0.5h29q0 -11 -7 -25h-152q-32 -199 -37 -234q-3 -25 13 -35q32 -19 99 -19q94 0 157 54q49 42 79 114t30 152q0 142 -75 206q-59 51 -167 51zM100 598q-2 2 -0.5 8t3.5 7q7 0 51.5 -1.5t53.5 -1.5
q35 0 76 1t68 1q142 0 212 -78q64 -71 65 -182q1 -109 -48 -192.5t-130 -123.5q-50 -28 -98.5 -37t-117.5 -9q-31 0 -115 4t-122 3q-2 2 -1 8.5t3 7.5q35 2 55 6q16 4 24.5 14.5t14.5 37.5q19 95 41 230q-14 0 -46 -0.5t-42 -0.5q4 20 9 26q2 0 32 -0.5t51 -0.5
q27 164 32 214q2 14 1.5 24.5t-5.5 16.5t-16 9q-6 1 -51 9z" />
    <glyph glyph-name="Ntilde" unicode="&#xd1;" horiz-adv-x="655" 
d="M77 597q-1 2 0 8.5t3 7.5q11 0 48 -1.5t55 -1.5q31 0 39 1q6 -17 26 -52q29 -50 94 -161.5t112.5 -193.5t64.5 -109q1 0 1 0.5t1 0.5q12 71 36.5 231.5t28.5 205.5q4 47 -30 55q-27 7 -53 10q-2 1 -1 8t3 8q9 0 47.5 -2t67.5 -2q21 0 50 2t33 2q1 -2 1 -8t-2 -8
q-9 -1 -36 -8q-34 -9 -43 -54q-17 -83 -70 -409q-13 -87 -18 -133q-2 0 -10 0.5t-17 0.5t-17.5 -0.5t-9.5 -0.5q-29 57 -134.5 246t-156.5 276h-2l-2 -1q-35 -198 -65 -430q-3 -32 2.5 -44t24.5 -18q20 -7 52 -10q2 -1 1 -8t-3 -8q-9 0 -44.5 1.5t-64.5 1.5
q-25 0 -59.5 -1.5t-40.5 -1.5q-1 1 -1 8t1 8q24 2 48 8q22 6 31 19.5t17 43.5q8 34 38 209t38 235q4 24 -13 44q-15 19 -71 25zM464 696q35 0 68 30l4 -11v-3q-14 -19 -46 -37t-55 -18q-18 0 -58 13q-26 7 -35 7q-25 0 -61 -27q-2 -1 -3.5 2.5t-1.5 7.5t2 5q11 13 42 32
t49 19q15 0 52 -11q32 -9 43 -9z" />
    <glyph glyph-name="Ograve" unicode="&#xd2;" horiz-adv-x="653" 
d="M283 -19q-110 0 -166 70t-55 180q0 152 88 263q47 63 117 99.5t144 36.5q104 0 159.5 -68.5t56.5 -176.5q0 -164 -86 -271q-101 -133 -258 -133zM316 10q65 0 109 36q65 50 94 141.5t29 191.5q0 102 -41.5 163t-127.5 61q-73 0 -129 -56.5t-82 -139t-26 -173.5
q0 -104 42.5 -164t131.5 -60zM310 759q-2 5 0 7q9 6 28.5 13t28.5 7q25 -33 78 -122q1 0 -1.5 -2.5t-5.5 -4.5t-5 -2q-3 0 -56 45.5t-67 58.5z" />
    <glyph glyph-name="Oacute" unicode="&#xd3;" horiz-adv-x="653" 
d="M283 -19q-110 0 -166 70t-55 180q0 152 88 263q47 63 117 99.5t144 36.5q104 0 159.5 -68.5t56.5 -176.5q0 -164 -86 -271q-101 -133 -258 -133zM316 10q65 0 109 36q65 50 94 141.5t29 191.5q0 102 -41.5 163t-127.5 61q-73 0 -129 -56.5t-82 -139t-26 -173.5
q0 -104 42.5 -164t131.5 -60zM538 750q1 -1 0.5 -4t-1.5 -4q-12 -8 -89 -44.5t-80 -36.5t-6.5 5.5t-1.5 7.5q108 90 131 104q8 0 23.5 -10t23.5 -18z" />
    <glyph glyph-name="Ocircumflex" unicode="&#xd4;" horiz-adv-x="653" 
d="M283 -19q-110 0 -166 70t-55 180q0 152 88 263q47 63 117 99.5t144 36.5q104 0 159.5 -68.5t56.5 -176.5q0 -164 -86 -271q-101 -133 -258 -133zM316 10q65 0 109 36q65 50 94 141.5t29 191.5q0 102 -41.5 163t-127.5 61q-73 0 -129 -56.5t-82 -139t-26 -173.5
q0 -104 42.5 -164t131.5 -60zM417 761q6 3 12 3q6 -9 44 -46.5t53 -50.5q-3 -11 -8 -11q-4 0 -45.5 20.5t-54.5 28.5q-4 2 -7 0q-18 -9 -68 -29t-54 -20q-2 0 -4 4.5t-1 7.5q102 64 133 93z" />
    <glyph glyph-name="Otilde" unicode="&#xd5;" horiz-adv-x="653" 
d="M283 -19q-110 0 -166 70t-55 180q0 152 88 263q47 63 117 99.5t144 36.5q104 0 159.5 -68.5t56.5 -176.5q0 -164 -86 -271q-101 -133 -258 -133zM316 10q65 0 109 36q65 50 94 141.5t29 191.5q0 102 -41.5 163t-127.5 61q-73 0 -129 -56.5t-82 -139t-26 -173.5
q0 -104 42.5 -164t131.5 -60zM476 714q35 0 68 30l4 -11v-3q-14 -19 -46 -37t-55 -18q-18 0 -58 13q-26 7 -35 7q-25 0 -61 -27q-2 -1 -3.5 2.5t-1.5 7.5t2 5q11 13 42 32t49 19q15 0 52 -11q32 -9 43 -9z" />
    <glyph glyph-name="Odieresis" unicode="&#xd6;" horiz-adv-x="653" 
d="M283 -19q-110 0 -166 70t-55 180q0 152 88 263q47 63 117 99.5t144 36.5q104 0 159.5 -68.5t56.5 -176.5q0 -164 -86 -271q-101 -133 -258 -133zM316 10q65 0 109 36q65 50 94 141.5t29 191.5q0 102 -41.5 163t-127.5 61q-73 0 -129 -56.5t-82 -139t-26 -173.5
q0 -104 42.5 -164t131.5 -60zM341 738q18 0 23 -8q7 -9 4 -23q-3 -25 -20 -34q-4 -2 -17 -2t-17 1q-16 7 -16 32q2 16 6 21q11 13 37 13zM494 738q18 0 23 -8q5 -6 5 -23q-3 -28 -21 -34q-21 -8 -33 -2q-16 7 -16 32q-1 10 5 22q13 13 37 13z" />
    <glyph glyph-name="multiply" unicode="&#xd7;" horiz-adv-x="460" 
d="M368 397q7 9 49 9q4 -4 2 -6q-39 -51 -162 -187v-6q111 -125 158 -164q0 -7 -2 -8q-6 -2 -30 0.5t-30 7.5q-27 20 -129 130q-3 3 -5 1q-36 -42 -75.5 -83.5t-46.5 -46.5q-19 -12 -54 -12q-4 2 -2 7q11 9 73 75t79 86q3 5 0 8q-106 118 -147 169q0 5 9 18t13 17q5 3 7 1
q5 -8 65.5 -78t88.5 -98q99 107 139 160z" />
    <glyph glyph-name="Oslash" unicode="&#xd8;" horiz-adv-x="653" 
d="M544 589l33 45q4 6 20 -3q1 0 1 -5l-37 -53q66 -64 66 -182q0 -175 -86 -281q-47 -62 -116.5 -95.5t-141.5 -33.5q-70 0 -130 37q-27 -37 -39 -49q-1 -1 -8.5 1.5t-11.5 5.5v4q3 4 18.5 23.5t22.5 29.5q-74 68 -74 194q0 156 89 268q48 62 118.5 98.5t141.5 36.5
q78 0 134 -41zM506 538q-41 65 -127 65q-72 0 -128.5 -61t-83 -145.5t-26.5 -170.5q0 -93 34 -138q10 14 331 450zM519 516q-156 -215 -331 -451q43 -54 126 -54q62 0 106 33q66 51 97.5 142.5t31.5 193.5q0 79 -30 136z" />
    <glyph glyph-name="Ugrave" unicode="&#xd9;" horiz-adv-x="628" 
d="M82 597q-1 3 0 9t3 7q5 0 45.5 -1.5t65.5 -1.5q29 0 65.5 1.5t43.5 1.5q1 -2 1 -8t-2 -8l-36 -5q-21 -4 -31.5 -16t-14.5 -41q-32 -172 -51 -314q-10 -86 15 -130q34 -67 139 -67q80 0 123.5 42t64.5 146q29 145 51 307q6 38 -2 52.5t-29 18.5q-5 1 -43 7q-1 3 0 8.5
t3 7.5q3 0 37.5 -1.5t65.5 -1.5q20 0 52 1.5t38 1.5q2 -1 1.5 -8t-2.5 -8q-28 -4 -38 -7q-36 -9 -48 -69q-8 -39 -23 -125t-28.5 -154.5t-24.5 -100.5q-52 -159 -233 -159q-114 0 -165 63q-35 42 -32 118q1 33 27.5 200.5t27.5 176.5q2 22 -2 33t-19 16q-10 3 -45 8z
M294 744q-2 5 0 7q9 6 28.5 13t28.5 7q25 -33 78 -122q1 -1 -1.5 -3t-5.5 -4t-5 -2q-3 0 -56 45.5t-67 58.5z" />
    <glyph glyph-name="Uacute" unicode="&#xda;" horiz-adv-x="628" 
d="M82 597q-1 3 0 9t3 7q5 0 45.5 -1.5t65.5 -1.5q29 0 65.5 1.5t43.5 1.5q1 -2 1 -8t-2 -8l-36 -5q-21 -4 -31.5 -16t-14.5 -41q-32 -172 -51 -314q-10 -86 15 -130q34 -67 139 -67q80 0 123.5 42t64.5 146q29 145 51 307q6 38 -2 52.5t-29 18.5q-5 1 -43 7q-1 3 0 8.5
t3 7.5q3 0 37.5 -1.5t65.5 -1.5q20 0 52 1.5t38 1.5q2 -1 1.5 -8t-2.5 -8q-28 -4 -38 -7q-36 -9 -48 -69q-8 -39 -23 -125t-28.5 -154.5t-24.5 -100.5q-52 -159 -233 -159q-114 0 -165 63q-35 42 -32 118q1 33 27.5 200.5t27.5 176.5q2 22 -2 33t-19 16q-10 3 -45 8z
M539 732q1 -1 0.5 -4t-1.5 -4q-12 -8 -89 -44.5t-80 -36.5t-6.5 5.5t-1.5 7.5q108 90 131 104q8 0 23.5 -10t23.5 -18z" />
    <glyph glyph-name="Ucircumflex" unicode="&#xdb;" horiz-adv-x="628" 
d="M82 597q-1 3 0 9t3 7q5 0 45.5 -1.5t65.5 -1.5q29 0 65.5 1.5t43.5 1.5q1 -2 1 -8t-2 -8l-36 -5q-21 -4 -31.5 -16t-14.5 -41q-32 -172 -51 -314q-10 -86 15 -130q34 -67 139 -67q80 0 123.5 42t64.5 146q29 145 51 307q6 38 -2 52.5t-29 18.5q-5 1 -43 7q-1 3 0 8.5
t3 7.5q3 0 37.5 -1.5t65.5 -1.5q20 0 52 1.5t38 1.5q2 -1 1.5 -8t-2.5 -8q-28 -4 -38 -7q-36 -9 -48 -69q-8 -39 -23 -125t-28.5 -154.5t-24.5 -100.5q-52 -159 -233 -159q-114 0 -165 63q-35 42 -32 118q1 33 27.5 200.5t27.5 176.5q2 22 -2 33t-19 16q-10 3 -45 8z
M413 755q6 3 12 3q6 -9 44 -46.5t53 -50.5q-3 -11 -8 -11q-4 0 -45.5 20.5t-54.5 28.5q-4 2 -7 0q-18 -9 -68 -29t-54 -20q-2 0 -4 4.5t-1 7.5q102 64 133 93z" />
    <glyph glyph-name="Udieresis" unicode="&#xdc;" horiz-adv-x="628" 
d="M82 597q-1 3 0 9t3 7q5 0 45.5 -1.5t65.5 -1.5q29 0 65.5 1.5t43.5 1.5q1 -2 1 -8t-2 -8l-36 -5q-21 -4 -31.5 -16t-14.5 -41q-32 -172 -51 -314q-10 -86 15 -130q34 -67 139 -67q80 0 123.5 42t64.5 146q29 145 51 307q6 38 -2 52.5t-29 18.5q-5 1 -43 7q-1 3 0 8.5
t3 7.5q3 0 37.5 -1.5t65.5 -1.5q20 0 52 1.5t38 1.5q2 -1 1.5 -8t-2.5 -8q-28 -4 -38 -7q-36 -9 -48 -69q-8 -39 -23 -125t-28.5 -154.5t-24.5 -100.5q-52 -159 -233 -159q-114 0 -165 63q-35 42 -32 118q1 33 27.5 200.5t27.5 176.5q2 22 -2 33t-19 16q-10 3 -45 8z
M339 727q18 0 23 -8q7 -9 4 -23q-3 -26 -20 -34q-4 -2 -17 -2t-17 1q-16 7 -16 32q2 16 6 21q11 13 37 13zM492 727q18 0 23 -8q5 -6 5 -23q-3 -28 -21 -34q-21 -8 -33 -2q-16 7 -16 32q-1 10 5 22q13 13 37 13z" />
    <glyph glyph-name="Yacute" unicode="&#xdd;" horiz-adv-x="463" 
d="M82 13q24 2 48 7q18 4 27 17t14 41q12 58 30 179q2 23 -3 39q-22 89 -77 229q-15 41 -24 51.5t-30 15.5q-5 1 -34 6q-1 2 -0.5 8.5t2.5 7.5q5 0 38 -2t64 -2q64 0 103 3q2 -2 1.5 -8t-2.5 -8q-21 -2 -36 -6q-23 -6 -15 -35q66 -201 81 -241q1 -1 4 0q34 44 86 120t75 114
q21 33 -10 42q-5 1 -10.5 2t-14 2.5t-16.5 3.5q-1 3 0 8.5t3 6.5q3 0 35 -2t50 -2q28 0 98 4q2 -1 1.5 -8t-3.5 -8q-1 0 -15 -2.5t-21 -4.5q-23 -6 -38.5 -19t-37.5 -42q-112 -151 -168 -238q-11 -15 -13 -33q-15 -81 -26 -171q-5 -32 0.5 -48t25.5 -20q18 -4 45 -7
q2 -3 1 -9t-4 -7q-3 0 -43.5 1.5t-81.5 1.5q-28 0 -65.5 -1.5t-45.5 -1.5q-2 1 -1.5 8t3.5 8zM467 735q1 -1 0.5 -4t-1.5 -4q-12 -8 -89 -44.5t-80 -36.5t-6.5 5.5t-1.5 7.5q108 90 131 104q8 0 23.5 -10t23.5 -18z" />
    <glyph glyph-name="Thorn" unicode="&#xde;" horiz-adv-x="491" 
d="M100 598q-1 2 0 8t3 7q9 0 43 -1.5t57 -1.5q22 0 59.5 1.5t45.5 1.5q2 -1 1 -7t-3 -8l-41 -7q-14 -4 -20 -13.5t-11 -36.5l-11 -64q0 -6 3 -6q46 2 75 2q86 0 127 -38q39 -37 39 -102q0 -117 -105 -170q-44 -24 -117 -24q-43 -2 -75 8l-11 -74q-3 -28 2.5 -39.5
t24.5 -15.5q7 -2 22 -3t19 -2q1 -2 -0.5 -8.5t-2.5 -7.5q-8 0 -46.5 1.5t-60.5 1.5q-30 0 -73 -1.5t-47 -1.5q-1 2 -1 8.5t1 7.5q38 4 46 6q13 4 19 7.5t12.5 16.5t12.5 40q6 28 37 218t36 232q3 28 -0.5 40.5t-19.5 17.5q-18 5 -40 7zM390 327q0 56 -33 90.5t-99 34.5
q-28 0 -33 -3q-9 -3 -10 -13q-23 -143 -42 -269q30 -6 66 -6q74 0 112.5 46t38.5 120z" />
    <glyph glyph-name="germandbls" unicode="&#xdf;" horiz-adv-x="429" 
d="M102 384q4 0 6 5q33 182 140 260q54 40 106 40q33 0 58 -25.5t25 -74.5q0 -51 -45 -107q-17 -22 -43.5 -53.5t-33.5 -40.5q-17 -24 -17 -40q-1 -19 51 -90q43 -60 43 -101q0 -51 -38.5 -95.5t-86.5 -63.5q-31 -13 -57 -13q-33 0 -46 17q-5 9 -6.5 27t1.5 26q2 3 7 6
q27 -39 83 -39q37 0 61.5 22.5t25.5 61.5q2 45 -44 108q-38 50 -51 74q-6 11 -4.5 28t9.5 26q90 103 109 134q27 43 27 85q0 93 -71 93q-50 0 -81.5 -58.5t-54.5 -187.5q-10 -52 -31 -195t-34 -214q-24 -136 -85 -203.5t-125 -67.5q-55 0 -55 41q2 28 13 50q3 7 9 5
q30 -54 84 -54q61 0 87 175l61 395q0 8 -4 8q-58 1 -66 3q-2 2 0 6q3 6 14 15t18 12h41z" />
    <glyph glyph-name="agrave" unicode="&#xe0;" horiz-adv-x="410" 
d="M379 94q2 -1 2 -2q1 -2 0 -9t-2 -10q-22 -34 -57.5 -61.5t-53.5 -27.5q-28 0 -17 80q3 26 14 89v2q-2 1 -3 -1q-42 -65 -98 -117.5t-87 -52.5q-25 0 -35.5 29.5t-10.5 63.5q0 64 23.5 128t67.5 111q28 28 77.5 54.5t98.5 26.5q45 0 83 -9q-16 -34 -22 -61
q-11 -44 -26.5 -130t-16.5 -118q-1 -27 10 -27q17 0 53 42zM130 50q20 0 53 31.5t71 94.5q22 39 31 82q23 90 25 94q-17 10 -60 10q-75 0 -113 -80q-38 -73 -38 -164q0 -68 31 -68zM204 578q0 3 3 6q6 2 27.5 2.5t29.5 -1.5q16 -53 36 -146q-1 -2 -7 -4.5t-8 -1.5z" />
    <glyph glyph-name="aacute" unicode="&#xe1;" horiz-adv-x="410" 
d="M379 94q2 -1 2 -2q1 -2 0 -9t-2 -10q-22 -34 -57.5 -61.5t-53.5 -27.5q-28 0 -17 80q3 26 14 89v2q-2 1 -3 -1q-42 -65 -98 -117.5t-87 -52.5q-25 0 -35.5 29.5t-10.5 63.5q0 64 23.5 128t67.5 111q28 28 77.5 54.5t98.5 26.5q45 0 83 -9q-16 -34 -22 -61
q-11 -44 -26.5 -130t-16.5 -118q-1 -27 10 -27q17 0 53 42zM130 50q20 0 53 31.5t71 94.5q22 39 31 82q23 90 25 94q-17 10 -60 10q-75 0 -113 -80q-38 -73 -38 -164q0 -68 31 -68zM389 576q2 -2 2 -8q-29 -35 -134 -137q-2 0 -6.5 4.5t-4.5 6.5q68 106 83 128q9 2 32 4.5
t28 1.5z" />
    <glyph glyph-name="acircumflex" unicode="&#xe2;" horiz-adv-x="410" 
d="M379 94q2 -1 2 -2q1 -2 0 -9t-2 -10q-22 -34 -57.5 -61.5t-53.5 -27.5q-28 0 -17 80q3 26 14 89v2q-2 1 -3 -1q-42 -65 -98 -117.5t-87 -52.5q-25 0 -35.5 29.5t-10.5 63.5q0 64 23.5 128t67.5 111q28 28 77.5 54.5t98.5 26.5q45 0 83 -9q-16 -34 -22 -61
q-11 -44 -26.5 -130t-16.5 -118q-1 -27 10 -27q17 0 53 42zM130 50q20 0 53 31.5t71 94.5q22 39 31 82q23 90 25 94q-17 10 -60 10q-75 0 -113 -80q-38 -73 -38 -164q0 -68 31 -68zM281 527q-50 -70 -65 -80q-10 -9 -28 -12q-4 2 -4 5q18 21 55.5 72t50.5 73q7 7 19 7
q6 -29 24.5 -81t26.5 -66q-7 -11 -33 -11q-5 1 -19 34.5t-22 58.5q-2 3 -5 0z" />
    <glyph glyph-name="atilde" unicode="&#xe3;" horiz-adv-x="410" 
d="M379 94q2 -1 2 -2q1 -2 0 -9t-2 -10q-22 -34 -57.5 -61.5t-53.5 -27.5q-28 0 -17 80q3 26 14 89v2q-2 1 -3 -1q-42 -65 -98 -117.5t-87 -52.5q-25 0 -35.5 29.5t-10.5 63.5q0 64 23.5 128t67.5 111q28 28 77.5 54.5t98.5 26.5q45 0 83 -9q-16 -34 -22 -61
q-11 -44 -26.5 -130t-16.5 -118q-1 -27 10 -27q17 0 53 42zM130 50q20 0 53 31.5t71 94.5q22 39 31 82q23 90 25 94q-17 10 -60 10q-75 0 -113 -80q-38 -73 -38 -164q0 -68 31 -68zM328 523q29 0 58 26q1 1 3 -2q3 -8 1 -12q-13 -18 -42 -35.5t-50 -17.5q-18 0 -51 12
q-28 7 -32 7q-24 0 -54 -22q-1 0 -2 3t-1 6.5t1 4.5q9 13 37.5 31t45.5 18q8 0 46 -10q31 -9 40 -9z" />
    <glyph glyph-name="adieresis" unicode="&#xe4;" horiz-adv-x="410" 
d="M379 94q2 -1 2 -2q1 -2 0 -9t-2 -10q-22 -34 -57.5 -61.5t-53.5 -27.5q-28 0 -17 80q3 26 14 89v2q-2 1 -3 -1q-42 -65 -98 -117.5t-87 -52.5q-25 0 -35.5 29.5t-10.5 63.5q0 64 23.5 128t67.5 111q28 28 77.5 54.5t98.5 26.5q45 0 83 -9q-16 -34 -22 -61
q-11 -44 -26.5 -130t-16.5 -118q-1 -27 10 -27q17 0 53 42zM130 50q20 0 53 31.5t71 94.5q22 39 31 82q23 90 25 94q-17 10 -60 10q-75 0 -113 -80q-38 -73 -38 -164q0 -68 31 -68zM213 554q17 0 22 -7q8 -10 5 -20q-4 -28 -21 -35q-4 -2 -16 -2.5t-17 0.5q-15 8 -15 31
q2 15 6 20q10 13 36 13zM341 554q17 0 22 -7q6 -11 4 -20q-4 -29 -21 -35q-4 -2 -16 -2.5t-15 0.5q-17 8 -17 31q2 15 7 20q11 13 36 13z" />
    <glyph glyph-name="aring" unicode="&#xe5;" horiz-adv-x="410" 
d="M379 94q2 -1 2 -2q1 -2 0 -9t-2 -10q-22 -34 -57.5 -61.5t-53.5 -27.5q-28 0 -17 80q3 26 14 89v2q-2 1 -3 -1q-42 -65 -98 -117.5t-87 -52.5q-25 0 -35.5 29.5t-10.5 63.5q0 64 23.5 128t67.5 111q28 28 77.5 54.5t98.5 26.5q45 0 83 -9q-16 -34 -22 -61
q-11 -44 -26.5 -130t-16.5 -118q-1 -27 10 -27q17 0 53 42zM130 50q20 0 53 31.5t71 94.5q22 39 31 82q23 90 25 94q-17 10 -60 10q-75 0 -113 -80q-38 -73 -38 -164q0 -68 31 -68zM286 581q27 0 41.5 -19t12.5 -46q-1 -31 -22 -50t-49 -19q-22 0 -39.5 16t-15.5 49
q1 30 22 49.5t50 19.5zM278 551q-19 0 -30.5 -10t-11.5 -26q-1 -16 10.5 -27t29.5 -11q40 0 44 35q0 39 -42 39z" />
    <glyph glyph-name="ae" unicode="&#xe6;" horiz-adv-x="476" 
d="M279 379q26 0 40 -25q62 43 100 43q26 0 43 -20.5t15 -50.5q-1 -25 -62 -76l-136 -109q-3 -3 -3 -7q2 -99 67 -99q49 0 110 64q3 0 3 -1q1 -3 0 -10.5t-2 -9.5q-30 -39 -76.5 -66.5t-86.5 -27.5q-71 0 -79 105q-109 -105 -142 -105q-23 0 -33.5 26t-10.5 61q0 125 94 223
q25 26 74.5 55.5t84.5 29.5zM94 113q0 -61 29 -61q25 0 87 60q0 63 24 124.5t67 100.5q-18 10 -46 10q-72 0 -118 -76q-43 -69 -43 -158zM379 365q-36 0 -67.5 -57t-35.5 -141q0 -5 4 -3q27 20 109 96q27 25 27 57q0 21 -11 34.5t-26 13.5z" />
    <glyph glyph-name="ccedilla" unicode="&#xe7;" horiz-adv-x="298" 
d="M193 358q-37 0 -65 -64t-28 -153q0 -104 66 -104q58 0 114 74q3 0 3 -4q1 -3 -0.5 -10.5t-3.5 -8.5q-43 -62 -108 -90l-30 -35q-4 -4 1 -6q20 -16 27 -23q16 -16 16 -36q0 -34 -33.5 -59t-57.5 -25q-28 0 -38 27q0 9 3 11q22 -13 48 -13q38 0 38 30q0 34 -55 59q1 6 2 8
l48 52q-13 -4 -27 -4q-45 0 -65 45q-13 31 -13 75q0 70 25.5 138.5t78.5 107.5q64 48 108 48q45 0 55 -21q4 -6 2 -14q-2 -9 -14 -24t-20 -20q-6 -3 -8 0q-33 39 -69 39z" />
    <glyph glyph-name="egrave" unicode="&#xe8;" horiz-adv-x="302" 
d="M196 363q-29 0 -57.5 -40t-39.5 -110q-1 -5 3 -5q48 13 88 38q41 29 41 76q0 17 -9 29t-26 12zM246 398q20 0 33 -15.5t13 -36.5q0 -60 -82 -111q-43 -26 -111 -51q-5 -2 -5 -7q-2 -14 -2 -28q0 -108 66 -108q61 0 120 67q3 0 3 -4q0 -10 -5 -20q-32 -43 -80 -70.5
t-89 -27.5q-78 0 -78 124q0 60 20.5 122t58.5 99q28 28 70 47.5t68 19.5zM134 572q0 3 3 6q6 2 27.5 2.5t29.5 -1.5q16 -53 36 -146q-1 -2 -7 -4.5t-8 -1.5z" />
    <glyph glyph-name="eacute" unicode="&#xe9;" horiz-adv-x="302" 
d="M196 363q-29 0 -57.5 -40t-39.5 -110q-1 -5 3 -5q48 13 88 38q41 29 41 76q0 17 -9 29t-26 12zM246 398q20 0 33 -15.5t13 -36.5q0 -60 -82 -111q-43 -26 -111 -51q-5 -2 -5 -7q-2 -14 -2 -28q0 -108 66 -108q61 0 120 67q3 0 3 -4q0 -10 -5 -20q-32 -43 -80 -70.5
t-89 -27.5q-78 0 -78 124q0 60 20.5 122t58.5 99q28 28 70 47.5t68 19.5zM319 574q2 -2 2 -8q-29 -35 -134 -137q-2 0 -6.5 4.5t-4.5 6.5q68 106 83 128q9 2 32 4.5t28 1.5z" />
    <glyph glyph-name="ecircumflex" unicode="&#xea;" horiz-adv-x="302" 
d="M196 363q-29 0 -57.5 -40t-39.5 -110q-1 -5 3 -5q48 13 88 38q41 29 41 76q0 17 -9 29t-26 12zM246 398q20 0 33 -15.5t13 -36.5q0 -60 -82 -111q-43 -26 -111 -51q-5 -2 -5 -7q-2 -14 -2 -28q0 -108 66 -108q61 0 120 67q3 0 3 -4q0 -10 -5 -20q-32 -43 -80 -70.5
t-89 -27.5q-78 0 -78 124q0 60 20.5 122t58.5 99q28 28 70 47.5t68 19.5zM218 524q-50 -70 -65 -80q-10 -9 -28 -12q-4 2 -4 5q18 21 55.5 72t50.5 73q7 7 19 7q6 -29 24.5 -81t26.5 -66q-7 -11 -33 -11q-5 1 -19 34.5t-22 58.5q-2 3 -5 0z" />
    <glyph glyph-name="edieresis" unicode="&#xeb;" horiz-adv-x="302" 
d="M196 363q-29 0 -57.5 -40t-39.5 -110q-1 -5 3 -5q48 13 88 38q41 29 41 76q0 17 -9 29t-26 12zM246 398q20 0 33 -15.5t13 -36.5q0 -60 -82 -111q-43 -26 -111 -51q-5 -2 -5 -7q-2 -14 -2 -28q0 -108 66 -108q61 0 120 67q3 0 3 -4q0 -10 -5 -20q-32 -43 -80 -70.5
t-89 -27.5q-78 0 -78 124q0 60 20.5 122t58.5 99q28 28 70 47.5t68 19.5zM170 551q17 0 22 -7q8 -10 5 -20q-3 -28 -21 -35q-4 -2 -16 -2.5t-17 0.5q-15 7 -15 31q2 15 6 20q10 13 36 13zM298 551q17 0 22 -7q6 -11 4 -20q-4 -29 -21 -35q-4 -2 -16 -2.5t-15 0.5
q-17 8 -17 31q2 15 7 20q11 13 36 13z" />
    <glyph glyph-name="igrave" unicode="&#xec;" horiz-adv-x="207" 
d="M175 98q3 -1 3 -2q0 -16 -2 -18q-31 -43 -65 -68.5t-48 -25.5q-30 0 -12 92l45 230q4 24 -3 24t-49 -32q-2 0 -2 1q-1 2 0 9t2 8q29 31 63.5 56.5t48.5 25.5q19 0 5 -68q-46 -235 -47 -250q-3 -26 8 -26q15 0 53 44zM67 572q0 3 3 6q6 2 27.5 2.5t29.5 -1.5
q16 -53 36 -146q-1 -2 -7 -4.5t-8 -1.5z" />
    <glyph glyph-name="iacute" unicode="&#xed;" horiz-adv-x="207" 
d="M175 98q3 -1 3 -2q0 -16 -2 -18q-31 -43 -65 -68.5t-48 -25.5q-30 0 -12 92l45 230q4 24 -3 24t-49 -32q-2 0 -2 1q-1 2 0 9t2 8q29 31 63.5 56.5t48.5 25.5q19 0 5 -68q-46 -235 -47 -250q-3 -26 8 -26q15 0 53 44zM260 575q2 -2 2 -8q-29 -35 -134 -137q-2 0 -6.5 4.5
t-4.5 6.5q68 106 83 128q9 2 32 4.5t28 1.5z" />
    <glyph glyph-name="icircumflex" unicode="&#xee;" horiz-adv-x="207" 
d="M175 98q3 -1 3 -2q0 -16 -2 -18q-31 -43 -65 -68.5t-48 -25.5q-30 0 -12 92l45 230q4 24 -3 24t-49 -32q-2 0 -2 1q-1 2 0 9t2 8q29 31 63.5 56.5t48.5 25.5q19 0 5 -68q-46 -235 -47 -250q-3 -26 8 -26q15 0 53 44zM150 524q-50 -70 -65 -80q-10 -9 -28 -12q-4 2 -4 5
q18 21 55.5 72t50.5 73q7 7 19 7q6 -29 24.5 -81t26.5 -66q-7 -11 -33 -11q-10 1 -41 93q-2 3 -5 0z" />
    <glyph glyph-name="idieresis" unicode="&#xef;" horiz-adv-x="207" 
d="M175 98q3 -1 3 -2q0 -16 -2 -18q-31 -43 -65 -68.5t-48 -25.5q-30 0 -12 92l45 230q4 24 -3 24t-49 -32q-2 0 -2 1q-1 2 0 9t2 8q29 31 63.5 56.5t48.5 25.5q19 0 5 -68q-46 -235 -47 -250q-3 -26 8 -26q15 0 53 44zM96 554q17 0 22 -7q8 -10 5 -20q-3 -28 -21 -35
q-4 -2 -16 -2.5t-17 0.5q-15 8 -15 31q2 15 6 20q10 13 36 13zM224 554q17 0 22 -7q6 -11 4 -20q-4 -29 -21 -35q-4 -2 -16 -2.5t-15 0.5q-17 8 -17 31q2 15 7 20q11 13 36 13z" />
    <glyph glyph-name="eth" unicode="&#xf0;" horiz-adv-x="381" 
d="M164 17q29 0 54.5 32.5t41 80.5t24.5 97t9 87q0 23 -12 34q-23 21 -54 21q-40 0 -70 -42t-42.5 -91.5t-12.5 -92.5q0 -126 62 -126zM34 116q0 60 25 127t73 103q29 22 65.5 37t60.5 15q22 0 40 -6q4 79 -25 144q-41 -19 -99 -40q-2 2 -2 5q6 20 12 23q58 22 81 34
q-40 84 -144 113q-1 6 6 13q120 -7 187 -101q1 -1 2.5 -2t2.5 0q61 24 92 42q2 0 2 -4q-2 -15 -8 -21q-8 -10 -73 -39q-3 -2 -2 -6q35 -79 35 -170q0 -122 -41 -225t-118 -147q-49 -27 -78 -27q-49 0 -72 38t-22 94z" />
    <glyph glyph-name="ntilde" unicode="&#xf1;" horiz-adv-x="424" 
d="M37 289q-2 0 -2 2q-1 2 -0.5 5t1.5 7.5t1 5.5q31 38 65.5 63.5t49.5 25.5q20 0 1 -94q-2 -12 -6 -33t-7 -37t-6 -28h3q81 121 167 172q32 20 53 20q31 0 8 -114q-30 -158 -36 -202q-4 -29 7 -29q17 0 54 44q2 0 2 -2q0 -16 -2 -20q-28 -39 -63 -65t-54 -26q-26 0 -7 101
q8 41 22.5 111t18.5 93q7 47 -12 47q-23 0 -61.5 -38t-84.5 -111q-19 -29 -33 -86q-18 -65 -11 -80q-7 -9 -31 -22.5t-31 -14.5q-4 -1 -7 3t-2 9q2 11 14 68.5t25.5 126t19.5 114.5q3 22 -5 22q-13 0 -51 -38zM314 521q29 0 58 26q1 1 3 -2q3 -8 1 -12q-13 -18 -42 -35.5
t-50 -17.5q-18 0 -51 12q-28 7 -32 7q-24 0 -54 -22q-1 0 -2 3t-1 6.5t1 4.5q9 13 37.5 31t45.5 18q8 0 46 -10q31 -9 40 -9z" />
    <glyph glyph-name="ograve" unicode="&#xf2;" horiz-adv-x="385" 
d="M262 398q48 0 69 -35.5t21 -85.5q0 -80 -33.5 -152.5t-97.5 -108.5q-56 -32 -99 -32t-65.5 35t-22.5 92q0 70 25.5 136t74.5 102q29 22 66.5 35.5t61.5 13.5zM102 135q0 -116 66 -116q47 0 81 76t34 162q0 110 -66 110q-36 0 -63 -38.5t-39.5 -90t-12.5 -103.5zM173 580
q0 3 3 6q6 2 27.5 2.5t29.5 -1.5q16 -53 36 -146q-1 -2 -7 -4.5t-8 -1.5z" />
    <glyph glyph-name="oacute" unicode="&#xf3;" horiz-adv-x="385" 
d="M262 398q48 0 69 -35.5t21 -85.5q0 -80 -33.5 -152.5t-97.5 -108.5q-56 -32 -99 -32t-65.5 35t-22.5 92q0 70 25.5 136t74.5 102q29 22 66.5 35.5t61.5 13.5zM102 135q0 -116 66 -116q47 0 81 76t34 162q0 110 -66 110q-36 0 -63 -38.5t-39.5 -90t-12.5 -103.5zM350 575
q2 -2 2 -8q-29 -35 -134 -137q-2 0 -6.5 4.5t-4.5 6.5q68 106 83 128q9 2 32 4.5t28 1.5z" />
    <glyph glyph-name="ocircumflex" unicode="&#xf4;" horiz-adv-x="385" 
d="M262 398q48 0 69 -35.5t21 -85.5q0 -80 -33.5 -152.5t-97.5 -108.5q-56 -32 -99 -32t-65.5 35t-22.5 92q0 70 25.5 136t74.5 102q29 22 66.5 35.5t61.5 13.5zM102 135q0 -116 66 -116q47 0 81 76t34 162q0 110 -66 110q-36 0 -63 -38.5t-39.5 -90t-12.5 -103.5zM252 524
q-50 -70 -65 -80q-10 -9 -28 -12q-4 2 -4 5q18 21 55.5 72t50.5 73q7 7 19 7q6 -29 24.5 -81t26.5 -66q-7 -11 -33 -11q-10 1 -41 93q-2 3 -5 0z" />
    <glyph glyph-name="otilde" unicode="&#xf5;" horiz-adv-x="385" 
d="M262 398q48 0 69 -35.5t21 -85.5q0 -80 -33.5 -152.5t-97.5 -108.5q-56 -32 -99 -32t-65.5 35t-22.5 92q0 70 25.5 136t74.5 102q29 22 66.5 35.5t61.5 13.5zM102 135q0 -116 66 -116q47 0 81 76t34 162q0 110 -66 110q-36 0 -63 -38.5t-39.5 -90t-12.5 -103.5zM301 521
q29 0 58 26q1 1 3 -2q3 -8 1 -12q-13 -18 -42 -35.5t-50 -17.5q-18 0 -51 12q-28 7 -32 7q-24 0 -54 -22q-1 0 -2 3t-1 6.5t1 4.5q9 13 37.5 31t45.5 18q8 0 46 -10q31 -9 40 -9z" />
    <glyph glyph-name="odieresis" unicode="&#xf6;" horiz-adv-x="385" 
d="M262 398q48 0 69 -35.5t21 -85.5q0 -80 -33.5 -152.5t-97.5 -108.5q-56 -32 -99 -32t-65.5 35t-22.5 92q0 70 25.5 136t74.5 102q29 22 66.5 35.5t61.5 13.5zM102 135q0 -116 66 -116q47 0 81 76t34 162q0 110 -66 110q-36 0 -63 -38.5t-39.5 -90t-12.5 -103.5zM197 554
q17 0 22 -7q8 -10 5 -20q-3 -28 -21 -35q-4 -2 -16 -2.5t-17 0.5q-15 8 -15 31q2 15 6 20q10 13 36 13zM325 554q17 0 22 -7q6 -11 4 -20q-4 -29 -21 -35q-4 -2 -16 -2.5t-15 0.5q-17 8 -17 31q2 15 7 20q11 13 36 13z" />
    <glyph glyph-name="divide" unicode="&#xf7;" horiz-adv-x="460" 
d="M265 363q0 -21 -18 -41q-3 -3 -17 -4.5t-21 2.5q-15 12 -15 30t5 23q13 13 37 13q18 0 24 -6q5 -10 5 -17zM413 202l-374 -2q-2 0 -2 8q3 20 11 35q4 -1 97 -1h279q1 0 2 -3.5t0 -5.5q-6 -30 -13 -31zM265 105q0 -21 -12 -36q-3 -3 -18.5 -5.5t-22.5 1.5q-18 15 -18 31
q0 17 5 22q13 13 37 13q18 0 24 -6q5 -10 5 -20z" />
    <glyph glyph-name="oslash" unicode="&#xf8;" horiz-adv-x="385" 
d="M168 18q37 0 65.5 43.5t40 95t11.5 96.5q0 34 -4 51l-171 -242q14 -44 58 -44zM218 367q-39 0 -67.5 -44t-39.5 -94t-11 -92q0 -33 4 -50l169 240q-12 40 -55 40zM256 398q35 0 57 -19l21 30q2 3 22 8q1 0 3 -1.5t1 -2.5l-33 -47q25 -34 25 -92q0 -88 -37.5 -156.5
t-93.5 -102.5q-51 -31 -96 -31q-32 0 -57 22l-21 -25q-7 -8 -24 -10q-3 0 -3 4l36 47q-24 32 -22 96q5 160 101 232q29 21 63.5 34.5t57.5 13.5z" />
    <glyph glyph-name="ugrave" unicode="&#xf9;" horiz-adv-x="419" 
d="M95 305q4 25 -4 25q-16 0 -57 -41q-3 0 -3 2q0 11 3 16q32 38 68 64.5t51 26.5q21 0 0 -100q-32 -154 -38 -195q-5 -29 -1.5 -43t18.5 -14q23 0 64 42t73 96q17 32 26 64q26 109 28 113q5 7 29.5 20t39.5 17q3 -6 2 -9q-14 -18 -21 -54q-34 -144 -45 -246q-4 -36 8 -36
q17 0 57 47l3 -3q0 -12 -3 -18q-26 -40 -63 -67.5t-55 -27.5q-25 0 -13 77l18 101q0 1 -1 1t-2 -1q-52 -80 -126 -140q-48 -38 -79 -38q-36 0 -22 95q13 79 45 226zM181 574q0 3 3 6q6 2 27.5 2.5t29.5 -1.5q16 -53 36 -146q-1 -2 -7 -4.5t-8 -1.5z" />
    <glyph glyph-name="uacute" unicode="&#xfa;" horiz-adv-x="419" 
d="M95 305q4 25 -4 25q-16 0 -57 -41q-3 0 -3 2q0 11 3 16q32 38 68 64.5t51 26.5q21 0 0 -100q-32 -154 -38 -195q-5 -29 -1.5 -43t18.5 -14q23 0 64 42t73 96q17 32 26 64q26 109 28 113q5 7 29.5 20t39.5 17q3 -6 2 -9q-14 -18 -21 -54q-34 -144 -45 -246q-4 -36 8 -36
q17 0 57 47l3 -3q0 -12 -3 -18q-26 -40 -63 -67.5t-55 -27.5q-25 0 -13 77l18 101q0 1 -1 1t-2 -1q-52 -80 -126 -140q-48 -38 -79 -38q-36 0 -22 95q13 79 45 226zM367 567q2 -2 2 -8q-29 -35 -134 -137q-2 0 -6.5 4.5t-4.5 6.5q68 106 83 128q9 2 32 4.5t28 1.5z" />
    <glyph glyph-name="ucircumflex" unicode="&#xfb;" horiz-adv-x="419" 
d="M95 305q4 25 -4 25q-16 0 -57 -41q-3 0 -3 2q0 11 3 16q32 38 68 64.5t51 26.5q21 0 0 -100q-32 -154 -38 -195q-5 -29 -1.5 -43t18.5 -14q23 0 64 42t73 96q17 32 26 64q26 109 28 113q5 7 29.5 20t39.5 17q3 -6 2 -9q-14 -18 -21 -54q-34 -144 -45 -246q-4 -36 8 -36
q17 0 57 47l3 -3q0 -12 -3 -18q-26 -40 -63 -67.5t-55 -27.5q-25 0 -13 77l18 101q0 1 -1 1t-2 -1q-52 -80 -126 -140q-48 -38 -79 -38q-36 0 -22 95q13 79 45 226zM266 530q-50 -70 -65 -80q-10 -9 -28 -12q-4 2 -4 5q18 21 55.5 72t50.5 73q7 7 19 7q6 -29 24.5 -81
t26.5 -66q-7 -11 -33 -11q-10 1 -41 93q-2 3 -5 0z" />
    <glyph glyph-name="udieresis" unicode="&#xfc;" horiz-adv-x="419" 
d="M95 305q4 25 -4 25q-16 0 -57 -41q-3 0 -3 2q0 11 3 16q32 38 68 64.5t51 26.5q21 0 0 -100q-32 -154 -38 -195q-5 -29 -1.5 -43t18.5 -14q23 0 64 42t73 96q17 32 26 64q26 109 28 113q5 7 29.5 20t39.5 17q3 -6 2 -9q-14 -18 -21 -54q-34 -144 -45 -246q-4 -36 8 -36
q17 0 57 47l3 -3q0 -12 -3 -18q-26 -40 -63 -67.5t-55 -27.5q-25 0 -13 77l18 101q0 1 -1 1t-2 -1q-52 -80 -126 -140q-48 -38 -79 -38q-36 0 -22 95q13 79 45 226zM212 554q17 0 22 -7q8 -10 5 -20q-3 -28 -21 -35q-4 -2 -16 -2.5t-17 0.5q-15 8 -15 31q2 15 6 20
q10 13 36 13zM340 554q17 0 22 -7q6 -11 4 -20q-4 -29 -21 -35q-4 -2 -16 -2.5t-15 0.5q-17 8 -17 31q2 15 7 20q11 13 36 13z" />
    <glyph glyph-name="yacute" unicode="&#xfd;" horiz-adv-x="351" 
d="M113 399q28 0 42 -93t27 -259q0 -5 3 0q41 65 67.5 133.5t27.5 107.5q0 36 -16 70q-2 4 2 10q9 8 28.5 21.5t23.5 13.5q8 0 12 -16.5t3 -35.5q0 -59 -39 -143q-49 -107 -121.5 -223.5t-130.5 -177.5q-73 -77 -115 -77q-16 0 -16 10q0 8 18 42t25 41q5 5 11 2
q24 -11 39 -11q36 0 113 127q9 16 9 37q1 56 -11.5 161t-24.5 152q-10 40 -22 40q-18 0 -51 -46q-1 -1 -2 -1t-1 2q-5 16 3 27q24 37 51 61.5t45 24.5zM337 575q2 -2 2 -8q-29 -35 -134 -137q-2 0 -6.5 4.5t-4.5 6.5q68 106 83 128q9 2 32 4.5t28 1.5z" />
    <glyph glyph-name="thorn" unicode="&#xfe;" horiz-adv-x="412" 
d="M120 -16q-16 0 -29 8q-23 -125 -29 -194q-1 -16 4.5 -22.5t19.5 -8.5q10 -3 44 -4q2 -1 1 -8.5t-4 -8.5q-59 -1 -206 -26q-2 2 -1.5 8t2.5 8l38 12q16 6 21.5 15t11.5 28q8 31 63 351q48 245 85 464q3 21 -6 21q-16 0 -57 -22q-1 2 -0.5 9.5t2.5 8.5q33 23 73 43.5
t56 21.5q10 0 4 -36q-51 -251 -79 -404q0 -2 2 -2.5t3 1.5q48 65 107.5 108t94.5 43q17 0 29.5 -24.5t12.5 -63.5q0 -163 -110 -259q-29 -26 -75 -46.5t-78 -20.5zM170 21q40 0 75 39q69 79 69 223q0 61 -30 61q-25 0 -65 -35t-69 -79q-32 -51 -42 -154q-3 -25 9 -37
q16 -18 53 -18z" />
    <glyph glyph-name="ydieresis" unicode="&#xff;" horiz-adv-x="351" 
d="M113 399q28 0 42 -93t27 -259q0 -5 3 0q41 65 67.5 133.5t27.5 107.5q0 36 -16 70q-2 4 2 10q9 8 28.5 21.5t23.5 13.5q8 0 12 -16.5t3 -35.5q0 -59 -39 -143q-49 -107 -121.5 -223.5t-130.5 -177.5q-73 -77 -115 -77q-16 0 -16 10q0 8 18 42t25 41q5 5 11 2
q24 -11 39 -11q36 0 113 127q9 16 9 37q1 56 -11.5 161t-24.5 152q-10 40 -22 40q-18 0 -51 -46q-1 -1 -2 -1t-1 2q-5 16 3 27q24 37 51 61.5t45 24.5zM169 554q17 0 22 -7q8 -10 5 -20q-4 -28 -21 -35q-4 -2 -16 -2.5t-17 0.5q-15 8 -15 31q2 15 6 20q10 13 36 13zM297 554
q17 0 22 -7q6 -11 4 -20q-4 -29 -21 -35q-4 -2 -16 -2.5t-15 0.5q-17 8 -17 31q2 15 7 20q11 13 36 13z" />
    <glyph glyph-name="uni0100" unicode="&#x100;" horiz-adv-x="537" 
d="M-60 11q50 7 69 20.5t49 65.5q54 94 133 247.5t107 214.5q15 30 23 52q2 0 9.5 -0.5t12.5 -0.5q6 0 13 0.5t9 0.5q0 -12 6 -50q1 -3 35 -215t42 -258q9 -48 22 -58.5t64 -16.5q2 -2 1.5 -8.5t-3.5 -7.5q-3 0 -36 1.5t-67 1.5q-36 0 -73.5 -1.5t-42.5 -1.5q-2 1 -1.5 8
t2.5 8q38 4 50 9q18 8 15 28q-6 68 -30 201q-3 4 -4 4q-11 1 -90 1q-70 0 -76 -1q-5 0 -8 -6q-66 -119 -93 -188q-13 -35 18 -41q18 -4 44 -7q2 -1 1.5 -8t-3.5 -8q-2 0 -38 1.5t-71 1.5q-28 0 -57.5 -1.5t-31.5 -1.5q-2 1 -2 7t2 7zM305 520q-85 -170 -111 -227q-2 -5 1 -6
q14 -2 85 -2q52 0 62 1q3 0 3 7l-36 227h-4zM255 700q3 0 18.5 -0.5t30.5 -0.5q148 -2 158 1q-1 -8 -8 -21t-10 -14q-22 -3 -172 -3l-34 1q1 5 17 37z" />
    <glyph glyph-name="uni0101" unicode="&#x101;" horiz-adv-x="410" 
d="M379 94q2 -1 2 -2q1 -2 0 -9t-2 -10q-22 -34 -57.5 -61.5t-53.5 -27.5q-28 0 -17 80q3 26 14 89v2q-2 1 -3 -1q-42 -65 -98 -117.5t-87 -52.5q-25 0 -35.5 29.5t-10.5 63.5q0 64 23.5 128t67.5 111q28 28 77.5 54.5t98.5 26.5q45 0 83 -9q-16 -34 -22 -61
q-11 -44 -26.5 -130t-16.5 -118q-1 -27 10 -27q17 0 53 42zM130 50q20 0 53 31.5t71 94.5q22 39 31 82q23 90 25 94q-17 10 -60 10q-75 0 -113 -80q-38 -73 -38 -164q0 -68 31 -68zM201 530q14 -2 40 -2q125 0 134 3q-1 -8 -9 -22t-11 -15q-30 -5 -137 -5l-33 1q5 23 16 40z
" />
    <glyph glyph-name="uni0102" unicode="&#x102;" horiz-adv-x="537" 
d="M-60 11q50 7 69 20.5t49 65.5q54 94 133 247.5t107 214.5q15 30 23 52q2 0 9.5 -0.5t12.5 -0.5q6 0 13 0.5t9 0.5q0 -12 6 -50q1 -3 35 -215t42 -258q9 -48 22 -58.5t64 -16.5q2 -2 1.5 -8.5t-3.5 -7.5q-3 0 -36 1.5t-67 1.5q-36 0 -73.5 -1.5t-42.5 -1.5q-2 1 -1.5 8
t2.5 8q38 4 50 9q18 8 15 28q-6 68 -30 201q-3 4 -4 4q-11 1 -90 1q-70 0 -76 -1q-5 0 -8 -6q-66 -119 -93 -188q-13 -35 18 -41q18 -4 44 -7q2 -1 1.5 -8t-3.5 -8q-2 0 -38 1.5t-71 1.5q-28 0 -57.5 -1.5t-31.5 -1.5q-2 1 -2 7t2 7zM305 520q-85 -170 -111 -227q-2 -5 1 -6
q14 -2 85 -2q52 0 62 1q3 0 3 7l-36 227h-4zM358 675q51 0 90 48q5 5 14 5l4 -3q-42 -85 -133 -85q-38 0 -62.5 17t-23.5 45q2 6 13 15.5t17 12.5q1 1 4 1t4 -1q11 -55 73 -55z" />
    <glyph glyph-name="uni0103" unicode="&#x103;" horiz-adv-x="410" 
d="M379 94q2 -1 2 -2q1 -2 0 -9t-2 -10q-22 -34 -57.5 -61.5t-53.5 -27.5q-28 0 -17 80q3 26 14 89v2q-2 1 -3 -1q-42 -65 -98 -117.5t-87 -52.5q-25 0 -35.5 29.5t-10.5 63.5q0 64 23.5 128t67.5 111q28 28 77.5 54.5t98.5 26.5q45 0 83 -9q-16 -34 -22 -61
q-11 -44 -26.5 -130t-16.5 -118q-1 -27 10 -27q17 0 53 42zM130 50q20 0 53 31.5t71 94.5q22 39 31 82q23 90 25 94q-17 10 -60 10q-75 0 -113 -80q-38 -73 -38 -164q0 -68 31 -68zM285 503q47 0 88 52q11 5 14 5l3 -2q-19 -44 -53.5 -68.5t-77.5 -24.5q-37 0 -59.5 20
t-21.5 52q3 6 14 14t18 10q5 2 7 0q9 -58 68 -58z" />
    <glyph glyph-name="uni0104" unicode="&#x104;" horiz-adv-x="537" 
d="M534 13q2 -2 1.5 -8.5t-3.5 -7.5q-4 0 -31 1.5t-58 1.5q-72 -61 -72 -102q0 -40 40 -40q27 0 50 17q3 -13 -3 -17q-16 -22 -41.5 -34t-44.5 -12q-26 0 -43 15.5t-17 44.5q0 11 6 23.5t13.5 22.5t22 24t22.5 20.5t25 20.5t20 17q-32 0 -67.5 -1.5t-40.5 -1.5q-2 1 -1.5 8
t2.5 8q38 4 50 9q18 8 15 28q-6 68 -30 201q-3 4 -4 4q-11 1 -90 1q-69 0 -76 -1q-4 0 -7 -6q-87 -168 -95 -188q-13 -35 19 -41q15 -4 44 -7q2 -1 1.5 -8t-3.5 -8q-2 0 -38 1.5t-71 1.5q-28 0 -57.5 -1.5t-31.5 -1.5q-2 1 -2 7t2 7q50 7 69 20.5t49 65.5q54 94 133 247.5
t107 214.5q15 30 23 52q2 0 9.5 -0.5t12.5 -0.5q6 0 13 0.5t9 0.5q0 -12 6 -50q1 -3 35 -215t42 -258q9 -48 22 -58.5t64 -16.5zM304 518q-81 -162 -109 -225q-2 -5 1 -6q12 -2 84 -2q52 0 62 1q3 0 3 7q-5 33 -19 117t-18 109l-2 -1h-2z" />
    <glyph glyph-name="uni0105" unicode="&#x105;" horiz-adv-x="406" 
d="M262 153q-1 1 -2 1q-42 -63 -100 -116.5t-87 -53.5q-44 0 -44 93q0 64 23.5 128t67.5 110q27 28 77.5 55t99.5 27q45 0 81 -9q-15 -34 -21 -61q-12 -42 -26.5 -128.5t-16.5 -120.5q-1 -27 10 -27q17 0 52 42q3 0 3 -1t-0.5 -8.5t-0.5 -9.5q-23 -35 -56 -61
q-69 -59 -69 -103q0 -37 38 -37q24 0 46 17q1 -3 0.5 -10t-2.5 -9q-16 -21 -39.5 -32t-42.5 -11q-23 0 -39 14.5t-16 42.5q0 15 12.5 34t24 30.5t37.5 36.5q-17 -2 -23 16.5t0 62.5q1 6 3.5 24t5 35t4.5 29zM128 50q19 0 52.5 32t71.5 94q19 34 31 82q17 73 25 94
q-17 10 -60 10q-76 0 -114 -80q-37 -71 -37 -165q0 -67 31 -67z" />
    <glyph glyph-name="uni0106" unicode="&#x106;" horiz-adv-x="580" 
d="M547 478q1 57 -5 76t-26 32q-32 20 -108 20q-114 0 -185.5 -95.5t-71.5 -244.5q0 -124 58.5 -187t158.5 -63q39 0 64 10q61 19 116 96q3 0 7 -4.5t3 -6.5q-14 -30 -43.5 -61.5t-51.5 -42.5q-47 -25 -132 -25q-127 0 -194.5 70.5t-67.5 197.5q0 106 49 196.5t142 140.5
q76 41 176 41q47 0 96 -9q63 -11 64 -11q-22 -57 -32 -128q-2 -2 -8.5 -3t-8.5 1zM557 747q1 -1 0.5 -4t-1.5 -4q-12 -8 -89 -44.5t-80 -36.5t-6.5 5.5t-1.5 7.5q108 90 131 104q8 0 23.5 -10t23.5 -18z" />
    <glyph glyph-name="uni0107" unicode="&#x107;" horiz-adv-x="298" 
d="M193 358q-37 0 -65 -64t-28 -153q0 -104 66 -104q56 0 114 74q3 0 3 -4q1 -3 -1 -10.5t-3 -8.5q-34 -48 -81.5 -76t-84.5 -28q-45 0 -65 45q-13 31 -13 75q0 70 25.5 138.5t78.5 107.5q64 48 108 48q45 0 55 -21q4 -6 2 -14q-2 -9 -14 -24t-20 -20q-6 -3 -8 0
q-33 39 -69 39zM333 575q2 -2 2 -8q-29 -35 -134 -137q-2 0 -6.5 4.5t-4.5 6.5q68 106 83 128q9 2 32 4.5t28 1.5z" />
    <glyph glyph-name="uni0108" unicode="&#x108;" horiz-adv-x="580" 
d="M547 478q1 57 -5 76t-26 32q-32 20 -108 20q-114 0 -185.5 -95.5t-71.5 -244.5q0 -124 58.5 -187t158.5 -63q39 0 64 10q61 19 116 96q3 0 7 -4.5t3 -6.5q-14 -30 -43.5 -61.5t-51.5 -42.5q-47 -25 -132 -25q-127 0 -194.5 70.5t-67.5 197.5q0 106 49 196.5t142 140.5
q76 41 176 41q47 0 96 -9q63 -11 64 -11q-22 -57 -32 -128q-2 -2 -8.5 -3t-8.5 1zM433 759q6 3 12 3q6 -9 44 -46.5t53 -50.5q-3 -11 -8 -11q-4 0 -45.5 20.5t-54.5 28.5q-4 2 -7 0q-18 -9 -68 -29t-54 -20q-2 0 -4 4.5t-1 7.5q102 64 133 93z" />
    <glyph glyph-name="uni0109" unicode="&#x109;" horiz-adv-x="298" 
d="M193 358q-37 0 -65 -64t-28 -153q0 -104 66 -104q56 0 114 74q3 0 3 -4q1 -3 -1 -10.5t-3 -8.5q-34 -48 -81.5 -76t-84.5 -28q-45 0 -65 45q-13 31 -13 75q0 70 25.5 138.5t78.5 107.5q64 48 108 48q45 0 55 -21q4 -6 2 -14q-2 -9 -14 -24t-20 -20q-6 -3 -8 0
q-33 39 -69 39zM229 524q-50 -70 -65 -80q-10 -9 -28 -12q-4 2 -4 5q18 21 55.5 72t50.5 73q7 7 19 7q6 -29 24.5 -81t26.5 -66q-7 -11 -33 -11q-5 1 -19 34.5t-22 58.5q-2 3 -5 0z" />
    <glyph glyph-name="uni010A" unicode="&#x10a;" horiz-adv-x="580" 
d="M547 478q1 57 -5 76t-26 32q-32 20 -108 20q-114 0 -185.5 -95.5t-71.5 -244.5q0 -124 58.5 -187t158.5 -63q39 0 64 10q61 19 116 96q3 0 7 -4.5t3 -6.5q-14 -30 -43.5 -61.5t-51.5 -42.5q-47 -25 -132 -25q-127 0 -194.5 70.5t-67.5 197.5q0 106 49 196.5t142 140.5
q76 41 176 41q47 0 96 -9q63 -11 64 -11q-22 -57 -32 -128q-2 -2 -8.5 -3t-8.5 1zM464 709q-5 -28 -24 -37q-6 -3 -20 -3.5t-19 2.5q-19 10 -16 34q0 16 10 26q11 13 37 13q18 0 27 -9q8 -9 5 -26z" />
    <glyph glyph-name="uni010B" unicode="&#x10b;" horiz-adv-x="298" 
d="M193 358q-37 0 -65 -64t-28 -153q0 -104 66 -104q56 0 114 74q3 0 3 -4q1 -3 -1 -10.5t-3 -8.5q-34 -48 -81.5 -76t-84.5 -28q-45 0 -65 45q-13 31 -13 75q0 70 25.5 138.5t78.5 107.5q64 48 108 48q45 0 55 -21q4 -6 2 -14q-2 -9 -14 -24t-20 -20q-6 -3 -8 0
q-33 39 -69 39zM244 555q15 0 22 -7q7 -11 5 -20q-3 -24 -20 -35q-4 -2 -17.5 -3t-16.5 0q-16 7 -16 31q2 15 6 21q11 13 37 13z" />
    <glyph glyph-name="uni010C" unicode="&#x10c;" horiz-adv-x="580" 
d="M547 478q1 57 -5 76t-26 32q-32 20 -108 20q-114 0 -185.5 -95.5t-71.5 -244.5q0 -124 58.5 -187t158.5 -63q39 0 64 10q61 19 116 96q3 0 7 -4.5t3 -6.5q-14 -30 -43.5 -61.5t-51.5 -42.5q-47 -25 -132 -25q-127 0 -194.5 70.5t-67.5 197.5q0 106 49 196.5t142 140.5
q76 41 176 41q47 0 96 -9q63 -11 64 -11q-22 -57 -32 -128q-2 -2 -8.5 -3t-8.5 1zM424 661q-5 -4 -12 -4q-6 9 -44 48t-53 51q3 10 8 10q4 0 44 -21.5t56 -31.5q4 -2 8 1q109 52 118 52q2 0 4.5 -4.5t1.5 -7.5q-97 -65 -131 -93z" />
    <glyph glyph-name="uni010D" unicode="&#x10d;" horiz-adv-x="298" 
d="M193 358q-37 0 -65 -64t-28 -153q0 -104 66 -104q56 0 114 74q3 0 3 -4q1 -3 -1 -10.5t-3 -8.5q-34 -48 -81.5 -76t-84.5 -28q-45 0 -65 45q-13 31 -13 75q0 70 25.5 138.5t78.5 107.5q64 48 108 48q45 0 55 -21q4 -6 2 -14q-2 -9 -14 -24t-20 -20q-6 -3 -8 0
q-33 39 -69 39zM237 493q44 60 64 74q9 9 32 13q3 0 3 -4q-77 -91 -106 -140q-7 -7 -19 -7q-5 27 -23.5 74.5t-27.5 66.5q7 11 30 11q5 0 20.5 -34t21.5 -54q1 -1 2.5 -1t2.5 1z" />
    <glyph glyph-name="uni010E" unicode="&#x10e;" horiz-adv-x="645" 
d="M-10 13q35 2 55 6q16 4 24.5 14.5t14.5 37.5q15 72 43 241.5t34 226.5q2 14 1.5 24.5t-5.5 16.5t-16 9q-6 1 -51 9q-2 2 -0.5 8t3.5 7q7 0 51.5 -1.5t53.5 -1.5q20 0 64.5 1t80.5 1q141 0 211 -78q65 -73 65 -186q0 -109 -49 -190.5t-130 -121.5q-49 -28 -97 -36.5
t-115 -8.5q-30 0 -116 3.5t-124 2.5q-2 2 -1 8.5t3 7.5zM160 67q-3 -26 14 -35q30 -19 97 -19q94 0 158 55q49 42 79 113.5t30 151.5q0 142 -75 206q-59 51 -164 51q-28 0 -43 -5q-10 -1 -14 -18q-35 -177 -82 -500zM356 649q-5 -4 -12 -4q-6 9 -44 48t-53 51q3 10 8 10
q4 0 44 -21.5t56 -31.5q4 -2 8 1q109 52 118 52q2 0 4.5 -4.5t1.5 -7.5q-97 -65 -131 -93z" />
    <glyph glyph-name="uni010F" unicode="&#x10f;" horiz-adv-x="420" 
d="M31 85q0 65 23 131.5t63 106.5q28 28 78 51.5t76 23.5q25 0 45 -6q4 -2 4 3q26 121 37 205q3 18 2 26t-9 8q-22 0 -60 -19q-1 2 -0.5 8t2.5 8q29 20 73.5 40t59.5 20q11 0 5 -37q-6 -29 -39 -198.5t-49.5 -265t-16.5 -124.5q0 -19 8 -19q17 0 58 44q3 0 3 -2
q0 -10 -5 -20q-27 -37 -66 -66t-57 -29q-21 0 -10 62q5 36 19 110q-2 2 -4 0q-42 -63 -99.5 -112.5t-90.5 -49.5q-26 0 -38 31t-12 70zM132 45q20 0 56 30.5t71 85.5q22 36 29 72q17 77 18 96q1 12 -4 16q-21 20 -68 20q-42 0 -74 -41.5t-46.5 -97.5t-14.5 -111
q0 -70 33 -70zM543 707q4 0 1 -14q-5 -25 -22.5 -86.5t-28.5 -90.5q-11 -19 -23 -25q-3 -1 -3 3q14 75 22 165q0 4 4 9q8 9 25.5 24t24.5 15z" />
    <glyph glyph-name="uni0110" unicode="&#x110;" horiz-adv-x="655" 
d="M306 590q-24 0 -39 -5q-11 -2 -16 -22q-12 -55 -40 -238q25 0 62 0.5t64 0.5h29q0 -11 -7 -25h-152q-32 -199 -37 -234q-3 -25 13 -35q32 -19 99 -19q94 0 157 54q49 42 79 114t30 152q0 142 -75 206q-59 51 -167 51zM100 598q-2 2 -0.5 8t3.5 7q7 0 51.5 -1.5t53.5 -1.5
q35 0 76 1t68 1q142 0 212 -78q64 -71 65 -182q1 -109 -48 -192.5t-130 -123.5q-50 -28 -98.5 -37t-117.5 -9q-31 0 -115 4t-122 3q-2 2 -1 8.5t3 7.5q35 2 55 6q16 4 24.5 14.5t14.5 37.5q19 95 41 230q-14 0 -46 -0.5t-42 -0.5q4 20 9 26q2 0 32 -0.5t51 -0.5
q27 164 32 214q2 14 1.5 24.5t-5.5 16.5t-16 9q-6 1 -51 9z" />
    <glyph glyph-name="uni0111" unicode="&#x111;" horiz-adv-x="420" 
d="M271 398q26 0 44 -6q5 -2 5 4l23 115h-106q0 15 7 22h103q2 9 4 23t4 27.5t3 17.5q6 33 -6 33q-22 0 -60 -19q-2 2 -1.5 8t2.5 8q30 20 75 40t59 20q10 0 5 -36l-24 -121h66q2 -8 -6 -23h-64q-79 -388 -79 -445q0 -19 8 -19q17 0 58 44q3 0 3 -2q0 -10 -5 -20
q-27 -36 -66.5 -65.5t-56.5 -29.5q-19 0 -10 62q0 2 6 37.5t13 72.5q-2 2 -4 0q-42 -63 -99.5 -112.5t-90.5 -49.5q-26 0 -38 31t-12 70q0 65 23 131.5t63 106.5q28 28 78 51.5t76 23.5zM132 45q20 0 56 30.5t71 85.5q22 36 29 72q17 77 18 96q1 12 -4 16q-21 20 -68 20
q-42 0 -74 -41.5t-46.5 -97.5t-14.5 -111q0 -70 33 -70z" />
    <glyph glyph-name="uni0112" unicode="&#x112;" horiz-adv-x="495" 
d="M-12 13q36 3 58 8q18 4 25.5 14t14.5 39q8 36 39.5 233.5t34.5 229.5q4 22 0.5 35.5t-19.5 18.5q-9 3 -49 8q-1 3 0 8t2 6q1 0 39.5 -1.5t69.5 -1.5h187q78 0 102 6q2 -2 2 -4q-9 -22 -31 -126q-1 -2 -8.5 -2.5t-8.5 1.5q0 43 -3 57q-2 22 -12 31t-37 11q-20 2 -71.5 2
t-68.5 -1q-10 -3 -12 -12q-5 -20 -41 -241q0 -6 4 -6q111 0 140 2q32 1 47 35q8 14 14 33q2 2 8.5 2t8.5 -2q-11 -38 -18 -81q-3 -14 -7.5 -48.5t-5.5 -43.5q-1 -1 -7.5 -1.5t-7.5 0.5q0 6 -1 16.5t-1 17.5q-2 21 -8 30.5t-23 10.5q-29 3 -144 3q-6 0 -6 -7
q-22 -141 -33 -238q-3 -23 11 -27q13 -3 142 -5q54 0 87 31q34 36 57 79q2 1 7 -1.5t6 -4.5q-6 -22 -23 -60t-32 -59q-7 -11 -40 -11q-22 0 -116 1.5t-148 1.5q-42 0 -83 -1.5t-42 -1.5q-1 2 -1 8t2 8zM234 713q3 0 18.5 -0.5t30.5 -0.5q148 -2 158 1q-1 -8 -8 -21t-10 -14
q-22 -3 -172 -3l-34 1q1 5 17 37z" />
    <glyph glyph-name="uni0113" unicode="&#x113;" horiz-adv-x="302" 
d="M196 363q-29 0 -57.5 -40t-39.5 -110q-1 -5 3 -5q48 13 88 38q41 29 41 76q0 17 -9 29t-26 12zM246 398q20 0 33 -15.5t13 -36.5q0 -60 -82 -111q-43 -26 -111 -51q-5 -2 -5 -7q-2 -14 -2 -28q0 -108 66 -108q61 0 120 67q3 0 3 -4q0 -10 -5 -20q-32 -43 -80 -70.5
t-89 -27.5q-78 0 -78 124q0 60 20.5 122t58.5 99q28 28 70 47.5t68 19.5zM149 530q14 -2 40 -2q125 0 134 3q-1 -8 -9 -22t-11 -15q-30 -5 -137 -5l-33 1q5 23 16 40z" />
    <glyph glyph-name="uni0114" unicode="&#x114;" horiz-adv-x="495" 
d="M-12 13q36 3 58 8q18 4 25.5 14t14.5 39q8 36 39.5 233.5t34.5 229.5q4 22 0.5 35.5t-19.5 18.5q-9 3 -49 8q-1 3 0 8t2 6q1 0 39.5 -1.5t69.5 -1.5h187q78 0 102 6q2 -2 2 -4q-9 -22 -31 -126q-1 -2 -8.5 -2.5t-8.5 1.5q0 43 -3 57q-2 22 -12 31t-37 11q-20 2 -71.5 2
t-68.5 -1q-10 -3 -12 -12q-5 -20 -41 -241q0 -6 4 -6q111 0 140 2q32 1 47 35q8 14 14 33q2 2 8.5 2t8.5 -2q-11 -38 -18 -81q-3 -14 -7.5 -48.5t-5.5 -43.5q-1 -1 -7.5 -1.5t-7.5 0.5q0 6 -1 16.5t-1 17.5q-2 21 -8 30.5t-23 10.5q-29 3 -144 3q-6 0 -6 -7
q-22 -141 -33 -238q-3 -23 11 -27q13 -3 142 -5q54 0 87 31q34 36 57 79q2 1 7 -1.5t6 -4.5q-6 -22 -23 -60t-32 -59q-7 -11 -40 -11q-22 0 -116 1.5t-148 1.5q-42 0 -83 -1.5t-42 -1.5q-1 2 -1 8t2 8zM336 689q51 0 90 48q5 5 14 5l4 -3q-42 -85 -133 -85q-38 0 -62.5 17
t-23.5 45q2 6 13 15.5t17 12.5q1 1 4 1t4 -1q11 -55 73 -55z" />
    <glyph glyph-name="uni0115" unicode="&#x115;" horiz-adv-x="302" 
d="M196 363q-29 0 -57.5 -40t-39.5 -110q-1 -5 3 -5q48 13 88 38q41 29 41 76q0 17 -9 29t-26 12zM246 398q20 0 33 -15.5t13 -36.5q0 -60 -82 -111q-43 -26 -111 -51q-5 -2 -5 -7q-2 -14 -2 -28q0 -108 66 -108q61 0 120 67q3 0 3 -4q0 -10 -5 -20q-32 -43 -80 -70.5
t-89 -27.5q-78 0 -78 124q0 60 20.5 122t58.5 99q28 28 70 47.5t68 19.5zM235 503q47 0 88 52q11 5 14 5l3 -2q-19 -44 -53.5 -68.5t-77.5 -24.5q-37 0 -59.5 20t-21.5 52q3 6 14 14t18 10q5 2 7 0q9 -58 68 -58z" />
    <glyph glyph-name="uni0116" unicode="&#x116;" horiz-adv-x="495" 
d="M-12 13q36 3 58 8q18 4 25.5 14t14.5 39q8 36 39.5 233.5t34.5 229.5q4 22 0.5 35.5t-19.5 18.5q-9 3 -49 8q-1 3 0 8t2 6q1 0 39.5 -1.5t69.5 -1.5h187q78 0 102 6q2 -2 2 -4q-9 -22 -31 -126q-1 -2 -8.5 -2.5t-8.5 1.5q0 43 -3 57q-2 22 -12 31t-37 11q-20 2 -71.5 2
t-68.5 -1q-10 -3 -12 -12q-5 -20 -41 -241q0 -6 4 -6q111 0 140 2q32 1 47 35q8 14 14 33q2 2 8.5 2t8.5 -2q-11 -38 -18 -81q-3 -14 -7.5 -48.5t-5.5 -43.5q-1 -1 -7.5 -1.5t-7.5 0.5q0 6 -1 16.5t-1 17.5q-2 21 -8 30.5t-23 10.5q-29 3 -144 3q-6 0 -6 -7
q-22 -141 -33 -238q-3 -23 11 -27q13 -3 142 -5q54 0 87 31q34 36 57 79q2 1 7 -1.5t6 -4.5q-6 -22 -23 -60t-32 -59q-7 -11 -40 -11q-22 0 -116 1.5t-148 1.5q-42 0 -83 -1.5t-42 -1.5q-1 2 -1 8t2 8zM368 693q-5 -28 -24 -37q-6 -3 -20 -3.5t-19 2.5q-19 10 -16 34
q0 16 10 26q11 13 37 13q18 0 27 -9q8 -9 5 -26z" />
    <glyph glyph-name="uni0117" unicode="&#x117;" horiz-adv-x="302" 
d="M196 363q-29 0 -57.5 -40t-39.5 -110q-1 -5 3 -5q48 13 88 38q41 29 41 76q0 17 -9 29t-26 12zM246 398q20 0 33 -15.5t13 -36.5q0 -60 -82 -111q-43 -26 -111 -51q-5 -2 -5 -7q-2 -14 -2 -28q0 -108 66 -108q61 0 120 67q3 0 3 -4q0 -10 -5 -20q-32 -43 -80 -70.5
t-89 -27.5q-78 0 -78 124q0 60 20.5 122t58.5 99q28 28 70 47.5t68 19.5zM232 555q15 0 22 -7q7 -11 5 -20q-3 -24 -20 -35q-4 -2 -17.5 -3t-16.5 0q-16 7 -16 31q2 15 6 21q11 13 37 13z" />
    <glyph glyph-name="uni0118" unicode="&#x118;" horiz-adv-x="495" 
d="M358 -4l1 1q-19 0 -107.5 1.5t-139.5 1.5q-42 0 -83 -1.5t-42 -1.5q-1 2 -1 8t2 8q35 3 59 8q17 4 24.5 14t14.5 39q8 36 39.5 233.5t34.5 229.5q4 22 1 35.5t-19 18.5q-9 3 -50 8q-1 3 0 8t2 6q1 0 39.5 -1.5t69.5 -1.5h187q77 0 102 6q2 -2 2 -4q-11 -29 -30 -128
q-1 -2 -9 -2.5t-9 1.5q0 52 -3 67q-2 20 -12.5 27t-37.5 7q-19 0 -53.5 0.5t-51 1t-34.5 -0.5q-10 -3 -12 -12q-5 -20 -41 -241q0 -6 4 -6q111 0 140 2q14 0 24.5 6.5t14 12t8.5 15.5q1 2 15 37q2 2 8 2t8 -2q-13 -56 -19 -91q-6 -34 -12 -87q-2 -1 -8 -1t-8 1q0 23 -1 35
q-4 39 -31 41q-43 3 -144 3q-6 0 -6 -7q-22 -141 -33 -238q-3 -23 11 -27q13 -3 144 -5q58 0 84 25q30 32 57 82q2 1 7 -1.5t6 -4.5q-6 -22 -22.5 -58.5t-31.5 -57.5q-6 -9 -38 -12q-66 -58 -66 -98t40 -40q27 0 50 17q3 -13 -3 -17q-16 -23 -41.5 -34.5t-45.5 -11.5
q-25 0 -42 15.5t-17 44.5q0 43 105 124z" />
    <glyph glyph-name="uni0119" unicode="&#x119;" horiz-adv-x="302" 
d="M196 363q-29 0 -57.5 -40t-39.5 -110q-1 -5 3 -5q48 13 88 38q41 29 41 76q0 17 -9 29t-26 12zM246 398q20 0 33 -15.5t13 -36.5q0 -60 -82 -111q-43 -26 -111 -51q-5 -2 -5 -7q-2 -12 -2 -27q0 -109 66 -109q61 0 121 67q2 0 2 -3q0 -8 -4 -20q-33 -43 -93 -78
q-58 -51 -58 -91q0 -38 38 -38q25 0 46 15q1 -2 1 -8t-2 -8q-16 -22 -39.5 -33t-42.5 -11q-24 0 -39.5 13t-15.5 39q0 42 77 108q-17 -7 -44 -7q-76 0 -76 124q0 60 20.5 122t58.5 99q28 28 70 47.5t68 19.5z" />
    <glyph glyph-name="uni011A" unicode="&#x11a;" horiz-adv-x="495" 
d="M-12 13q36 3 58 8q18 4 25.5 14t14.5 39q8 36 39.5 233.5t34.5 229.5q4 22 0.5 35.5t-19.5 18.5q-9 3 -49 8q-1 3 0 8t2 6q1 0 39.5 -1.5t69.5 -1.5h187q78 0 102 6q2 -2 2 -4q-9 -22 -31 -126q-1 -2 -8.5 -2.5t-8.5 1.5q0 43 -3 57q-2 22 -12 31t-37 11q-20 2 -71.5 2
t-68.5 -1q-10 -3 -12 -12q-5 -20 -41 -241q0 -6 4 -6q111 0 140 2q32 1 47 35q8 14 14 33q2 2 8.5 2t8.5 -2q-11 -38 -18 -81q-3 -14 -7.5 -48.5t-5.5 -43.5q-1 -1 -7.5 -1.5t-7.5 0.5q0 6 -1 16.5t-1 17.5q-2 21 -8 30.5t-23 10.5q-29 3 -144 3q-6 0 -6 -7
q-22 -141 -33 -238q-3 -23 11 -27q13 -3 142 -5q54 0 87 31q34 36 57 79q2 1 7 -1.5t6 -4.5q-6 -22 -23 -60t-32 -59q-7 -11 -40 -11q-22 0 -116 1.5t-148 1.5q-42 0 -83 -1.5t-42 -1.5q-1 2 -1 8t2 8zM326 648q-5 -4 -12 -4q-6 9 -44 48t-53 51q3 10 8 10q4 0 44 -21.5
t56 -31.5q4 -2 8 1q109 52 118 52q2 0 4.5 -4.5t1.5 -7.5q-97 -65 -131 -93z" />
    <glyph glyph-name="uni011B" unicode="&#x11b;" horiz-adv-x="302" 
d="M196 363q-29 0 -57.5 -40t-39.5 -110q-1 -5 3 -5q48 13 88 38q41 29 41 76q0 17 -9 29t-26 12zM246 398q20 0 33 -15.5t13 -36.5q0 -60 -82 -111q-43 -26 -111 -51q-5 -2 -5 -7q-2 -14 -2 -28q0 -108 66 -108q61 0 120 67q3 0 3 -4q0 -10 -5 -20q-32 -43 -80 -70.5
t-89 -27.5q-78 0 -78 124q0 60 20.5 122t58.5 99q28 28 70 47.5t68 19.5zM229 493q44 60 64 74q9 9 32 13q3 0 3 -4q-77 -91 -106 -140q-7 -7 -19 -7q-5 27 -23.5 74.5t-27.5 66.5q7 11 30 11q5 0 20.5 -34t21.5 -54q1 -1 2.5 -1t2.5 1z" />
    <glyph glyph-name="uni011C" unicode="&#x11c;" horiz-adv-x="622" 
d="M536 35q1 -2 -1 -7.5t-4 -6.5q-2 0 -30 -8t-51 -14t-57 -11.5t-60 -5.5q-269 0 -269 263q0 116 59 212t158 139q75 32 172 32q25 0 97 -9q45 -9 64 -9q-20 -50 -33 -133q-1 -2 -8.5 -2.5t-8.5 1.5q1 53 -5 73t-26 32q-35 24 -116 24q-120 0 -194.5 -103t-74.5 -252
q0 -115 51 -180t153 -65q52 0 71 15t23 33q14 44 25 136q4 27 -3 37.5t-25 13.5q-18 4 -48 8q-1 2 0 7.5t3 7.5q12 0 51.5 -1.5t64.5 -1.5q55 0 95 4q2 -9 -2 -16l-27 -6q-16 -4 -23 -15.5t-14 -43.5q-14 -60 -19 -122q-2 -18 12 -26zM447 761q6 3 12 3q6 -9 44 -46.5
t53 -50.5q-3 -11 -8 -11q-4 0 -45.5 20.5t-54.5 28.5q-4 2 -7 0q-18 -9 -68 -29t-54 -20q-2 0 -4 4.5t-1 7.5q102 64 133 93z" />
    <glyph glyph-name="uni011D" unicode="&#x11d;" horiz-adv-x="351" 
d="M404 397q1 -1 1 -7.5t-2 -9.5q-9 -20 -31.5 -34.5t-47.5 -19.5q-4 -1 -8 -5q2 -10 2 -27q0 -54 -21 -103.5t-56 -76.5q-32 -24 -81 -41q-22 -9 -23 -10q-18 -11 -18 -21q0 -12 26 -26q8 -5 38 -21t52 -29t36 -24q29 -22 40.5 -39t11.5 -40q0 -26 -23.5 -58.5t-64.5 -56.5
q-58 -35 -119 -35q-75 0 -122 36t-47 87q0 36 142 124q2 2 0 4q-35 26 -35 47q0 7 6 13q8 11 56 41q1 3 -1 3q-38 8 -56 36.5t-17 67.5q0 58 26 110.5t69 81.5q22 15 49.5 24.5t42.5 9.5q24 0 60 -19q26 -14 47 -14q42 0 68 32zM168 99q37 0 62.5 57.5t25.5 118.5
q0 93 -59 93q-41 0 -66.5 -56t-25.5 -116q0 -41 15 -69t48 -28zM155 -248q56 0 83.5 20t27.5 50q0 37 -44 70q-30 21 -64 39.5t-44 18.5q-15 0 -62 -35.5t-47 -60.5q0 -40 45.5 -71.5t104.5 -30.5zM231 532q-50 -70 -65 -80q-10 -9 -28 -12q-4 2 -4 5q18 21 55.5 72t50.5 73
q7 7 19 7q6 -29 24.5 -81t26.5 -66q-7 -11 -33 -11q-5 1 -19 34.5t-22 58.5q-2 3 -5 0z" />
    <glyph glyph-name="uni011E" unicode="&#x11e;" horiz-adv-x="622" 
d="M536 35q1 -2 -1 -7.5t-4 -6.5q-2 0 -30 -8t-51 -14t-57 -11.5t-60 -5.5q-269 0 -269 263q0 116 59 212t158 139q75 32 172 32q25 0 97 -9q45 -9 64 -9q-20 -50 -33 -133q-1 -2 -8.5 -2.5t-8.5 1.5q1 53 -5 73t-26 32q-35 24 -116 24q-120 0 -194.5 -103t-74.5 -252
q0 -115 51 -180t153 -65q52 0 71 15t23 33q14 44 25 136q4 27 -3 37.5t-25 13.5q-18 4 -48 8q-1 2 0 7.5t3 7.5q12 0 51.5 -1.5t64.5 -1.5q55 0 95 4q2 -9 -2 -16l-27 -6q-16 -4 -23 -15.5t-14 -43.5q-14 -60 -19 -122q-2 -18 12 -26zM453 705q51 0 90 48q5 5 14 5l4 -3
q-42 -85 -133 -85q-38 0 -62.5 17t-23.5 45q2 6 13 15.5t17 12.5q1 1 4 1t4 -1q11 -55 73 -55z" />
    <glyph glyph-name="uni011F" unicode="&#x11f;" horiz-adv-x="351" 
d="M404 397q1 -1 1 -7.5t-2 -9.5q-9 -20 -31.5 -34.5t-47.5 -19.5q-4 -1 -8 -5q2 -10 2 -27q0 -54 -21 -103.5t-56 -76.5q-32 -24 -81 -41q-22 -9 -23 -10q-18 -11 -18 -21q0 -12 26 -26q8 -5 38 -21t52 -29t36 -24q29 -22 40.5 -39t11.5 -40q0 -26 -23.5 -58.5t-64.5 -56.5
q-58 -35 -119 -35q-75 0 -122 36t-47 87q0 36 142 124q2 2 0 4q-35 26 -35 47q0 7 6 13q8 11 56 41q1 3 -1 3q-38 8 -56 36.5t-17 67.5q0 58 26 110.5t69 81.5q22 15 49.5 24.5t42.5 9.5q24 0 60 -19q26 -14 47 -14q42 0 68 32zM168 99q37 0 62.5 57.5t25.5 118.5
q0 93 -59 93q-41 0 -66.5 -56t-25.5 -116q0 -41 15 -69t48 -28zM155 -248q56 0 83.5 20t27.5 50q0 37 -44 70q-30 21 -64 39.5t-44 18.5q-15 0 -62 -35.5t-47 -60.5q0 -40 45.5 -71.5t104.5 -30.5zM240 502q47 0 88 52q11 5 14 5l3 -2q-19 -44 -53.5 -68.5t-77.5 -24.5
q-37 0 -59.5 20t-21.5 52q3 6 14 14t18 10q5 2 7 0q9 -58 68 -58z" />
    <glyph glyph-name="uni0120" unicode="&#x120;" horiz-adv-x="622" 
d="M536 35q1 -2 -1 -7.5t-4 -6.5q-2 0 -30 -8t-51 -14t-57 -11.5t-60 -5.5q-269 0 -269 263q0 116 59 212t158 139q75 32 172 32q25 0 97 -9q45 -9 64 -9q-20 -50 -33 -133q-1 -2 -8.5 -2.5t-8.5 1.5q1 53 -5 73t-26 32q-35 24 -116 24q-120 0 -194.5 -103t-74.5 -252
q0 -115 51 -180t153 -65q52 0 71 15t23 33q14 44 25 136q4 27 -3 37.5t-25 13.5q-18 4 -48 8q-1 2 0 7.5t3 7.5q12 0 51.5 -1.5t64.5 -1.5q55 0 95 4q2 -9 -2 -16l-27 -6q-16 -4 -23 -15.5t-14 -43.5q-14 -60 -19 -122q-2 -18 12 -26zM482 707q-5 -28 -24 -37
q-6 -3 -20 -3.5t-19 2.5q-19 10 -16 34q0 16 10 26q11 13 37 13q18 0 27 -9q8 -9 5 -26z" />
    <glyph glyph-name="uni0121" unicode="&#x121;" horiz-adv-x="351" 
d="M404 397q1 -1 1 -7.5t-2 -9.5q-9 -20 -31.5 -34.5t-47.5 -19.5q-4 -1 -8 -5q2 -10 2 -27q0 -54 -21 -103.5t-56 -76.5q-32 -24 -81 -41q-22 -9 -23 -10q-18 -11 -18 -21q0 -12 26 -26q8 -5 38 -21t52 -29t36 -24q29 -22 40.5 -39t11.5 -40q0 -26 -23.5 -58.5t-64.5 -56.5
q-58 -35 -119 -35q-75 0 -122 36t-47 87q0 36 142 124q2 2 0 4q-35 26 -35 47q0 7 6 13q8 11 56 41q1 3 -1 3q-38 8 -56 36.5t-17 67.5q0 58 26 110.5t69 81.5q22 15 49.5 24.5t42.5 9.5q24 0 60 -19q26 -14 47 -14q42 0 68 32zM168 99q37 0 62.5 57.5t25.5 118.5
q0 93 -59 93q-41 0 -66.5 -56t-25.5 -116q0 -41 15 -69t48 -28zM155 -248q56 0 83.5 20t27.5 50q0 37 -44 70q-30 21 -64 39.5t-44 18.5q-15 0 -62 -35.5t-47 -60.5q0 -40 45.5 -71.5t104.5 -30.5zM243 556q15 0 22 -7q7 -11 5 -20q-3 -24 -20 -35q-4 -2 -17.5 -3t-16.5 0
q-16 7 -16 31q2 15 6 21q11 13 37 13z" />
    <glyph glyph-name="uni0122" unicode="&#x122;" horiz-adv-x="622" 
d="M536 35q1 -2 -1 -7.5t-4 -6.5q-2 0 -30 -8t-51 -14t-57 -11.5t-60 -5.5q-269 0 -269 263q0 116 59 212t158 139q75 32 172 32q25 0 97 -9q45 -9 64 -9q-20 -50 -33 -133q-1 -2 -8.5 -2.5t-8.5 1.5q1 53 -5 73t-26 32q-35 24 -116 24q-120 0 -194.5 -103t-74.5 -252
q0 -115 51 -180t153 -65q52 0 71 15t23 33q14 44 25 136q4 27 -3 37.5t-25 13.5q-18 4 -48 8q-1 2 0 7.5t3 7.5q12 0 51.5 -1.5t64.5 -1.5q55 0 95 4q2 -9 -2 -16l-27 -6q-16 -4 -23 -15.5t-14 -43.5q-14 -60 -19 -122q-2 -18 12 -26zM322 -48q16 0 28 -19.5t8 -46.5
q-5 -29 -31 -52.5t-68 -35.5q-2 1 -5 7t-2 8q60 21 66 56q2 13 -7 24.5t-38 17.5q-2 5 1 11q25 30 48 30z" />
    <glyph glyph-name="uni0123" unicode="&#x123;" horiz-adv-x="351" 
d="M228 440q-16 0 -28.5 19.5t-8.5 46.5q5 30 31.5 53t68.5 35q2 -1 4.5 -7t1.5 -8q-59 -21 -65 -56q-2 -13 7 -24t37 -18q2 -5 -1 -11q-25 -30 -47 -30zM404 397q1 -1 1 -7.5t-2 -9.5q-9 -20 -31.5 -34.5t-47.5 -19.5q-4 -1 -8 -5q2 -10 2 -27q0 -54 -21 -103.5t-56 -76.5
q-32 -24 -81 -41q-22 -9 -23 -10q-18 -11 -18 -21q0 -12 26 -26q8 -5 38 -21t52 -29t36 -24q29 -22 40.5 -39t11.5 -40q0 -26 -23.5 -58.5t-64.5 -56.5q-58 -35 -119 -35q-75 0 -122 36t-47 87q0 36 142 124q2 2 0 4q-35 26 -35 47q0 7 6 13q8 11 56 41q1 3 -1 3
q-38 8 -56 36.5t-17 67.5q0 58 26 110.5t69 81.5q22 15 49.5 24.5t42.5 9.5q24 0 60 -19q26 -14 47 -14q42 0 68 32zM168 99q37 0 62.5 57.5t25.5 118.5q0 93 -59 93q-41 0 -66.5 -56t-25.5 -116q0 -41 15 -69t48 -28zM155 -248q56 0 83.5 20t27.5 50q0 37 -44 70
q-30 21 -64 39.5t-44 18.5q-15 0 -62 -35.5t-47 -60.5q0 -40 45.5 -71.5t104.5 -30.5z" />
    <glyph glyph-name="uni0124" unicode="&#x124;" horiz-adv-x="681" 
d="M96 597q-3 12 3 16q2 0 45 -1.5t64 -1.5q73 0 109 3q2 -2 1.5 -8t-2.5 -8q-24 -2 -43 -7q-16 -5 -23.5 -13.5t-12.5 -32.5q-31 -182 -35 -207q0 -7 3 -7h4q4 0 15 -0.5t28 -1t50 -0.5h76q133 0 142 1q3 0 5 7q22 117 33 216q3 31 -21 38q-11 3 -44 7q-1 2 -1 8t2 8
q7 0 44 -1.5t66 -1.5q30 0 67.5 1.5t41.5 1.5q1 -2 0 -8.5t-2 -7.5q-35 -5 -45 -8q-16 -5 -23 -15.5t-12 -38.5q-57 -324 -73 -461q-5 -46 19 -53q16 -5 52 -8q3 -9 -4 -16q-1 0 -41.5 1.5t-70.5 1.5q-46 0 -115 -3q-2 2 -1 8.5t3 7.5q31 3 50 8q23 7 31 51q23 112 37 219
q2 7 -4 7q-19 2 -142 2q-164 0 -173 -1q-5 -3 -5 -6q-2 -17 -14.5 -98.5t-16.5 -111.5q-4 -32 1 -45t23 -17q20 -5 49 -8q1 -3 0 -9t-3 -7q-6 0 -47.5 1.5t-67.5 1.5q-68 0 -125 -3q-1 2 -1 8t2 8q5 1 23 2.5t27 3.5q22 4 29.5 18t16.5 59q12 63 39.5 235t31.5 212
q2 22 -1.5 31.5t-15.5 13.5q-19 6 -48 9zM430 756q6 3 12 3q6 -9 44 -46.5t53 -50.5q-3 -11 -8 -11q-4 0 -45.5 20.5t-54.5 28.5q-3 2 -7 0q-18 -9 -68 -29t-54 -20q-2 0 -4 4.5t-1 7.5q102 64 133 93z" />
    <glyph glyph-name="uni0125" unicode="&#x125;" horiz-adv-x="424" 
d="M185 780q2 2 13 4q6 -7 46 -39.5t57 -44.5q-1 -3 -4 -7.5t-5 -3.5q-4 0 -49.5 19t-56.5 25q-5 2 -10 -1q-7 -2 -35 -13.5t-51 -20.5t-25 -9t-3.5 4t-0.5 7q75 43 124 80zM299 342q-24 0 -66 -40t-82 -105q-32 -56 -43 -115q-12 -48 -3 -60q-8 -9 -32.5 -24.5t-32.5 -15.5
q-6 0 -6 12q-1 11 7 54q10 60 35 193t44 237t22 130q2 21 -9 21q-17 0 -54 -20q-1 2 0.5 9.5t2.5 8.5q31 21 70 41t56 20q11 0 6 -35q-12 -66 -45 -239.5t-39 -204.5q1 -3 5 0q53 80 117.5 134.5t103.5 54.5q19 0 22 -25.5t-7 -75.5q-33 -162 -41 -219q0 -25 10 -25
q16 0 54 42q2 0 2 -3q1 -2 0 -8.5t-2 -8.5q-30 -41 -64 -66t-52 -25q-25 0 -14 73l44 225q7 32 5 46t-14 14z" />
    <glyph glyph-name="Hbar" unicode="&#x126;" horiz-adv-x="681" 
d="M96 597q-3 12 3 16q2 0 45 -1.5t64 -1.5q73 0 109 3q2 -2 1.5 -8t-2.5 -8q-24 -2 -43 -7q-16 -5 -23.5 -13.5t-12.5 -32.5q-1 -5 -4.5 -23.5t-7 -40t-6.5 -40.5h324q1 8 4.5 35t6.5 50t4 27q3 31 -21 38q-11 3 -44 7q-1 2 -1 8t2 8q7 0 44 -1.5t66 -1.5q30 0 67.5 1.5
t41.5 1.5q1 -2 0 -8.5t-2 -7.5q-35 -5 -45 -8q-16 -5 -23 -15.5t-12 -38.5l-16 -94h61q0 -18 -6 -23h-58q-49 -295 -54 -344q-5 -46 19 -53q16 -5 52 -8q3 -9 -4 -16q-1 0 -41.5 1.5t-70.5 1.5q-46 0 -115 -3q-2 2 -1 8.5t3 7.5q31 3 50 8q23 7 31 51q22 107 34 199
q2 7 -3 7q-20 2 -143 2q-164 0 -172 -1q-5 -3 -5 -6q-3 -21 -14 -91t-15 -99q-4 -32 1 -45t23 -17q20 -5 49 -8q1 -3 0 -9t-3 -7q-6 0 -47.5 1.5t-67.5 1.5q-68 0 -125 -3q-1 2 -1 8t2 8q5 1 23 2.5t27 3.5q22 4 29.5 18t16.5 59q15 79 53 321h-67q0 16 7 23h63q2 14 5.5 38
t6.5 41.5t3 23.5q2 22 -1.5 31.5t-15.5 13.5q-19 6 -48 9zM376 308q133 0 141 1q4 0 6 7l17 102h-150q-6 0 -74.5 -0.5t-99.5 -0.5l-16 -100q0 -7 3 -7h4q4 0 14.5 -0.5t28 -1t50.5 -0.5h76z" />
    <glyph glyph-name="hbar" unicode="&#x127;" horiz-adv-x="428" 
d="M79 609q-1 2 0.5 9.5t2.5 8.5q92 61 128 61q10 0 4 -35l-22 -120l113 1q0 -9 -7 -23h-110q-57 -296 -59 -306q1 -2 5 1q56 83 120.5 137.5t104.5 54.5q28 0 16 -81q-4 -19 -15.5 -75t-19 -98t-10.5 -66q0 -25 10 -25q16 0 54 42q2 0 2 -3q1 -2 0 -8.5t-2 -8.5
q-30 -42 -63.5 -66.5t-52.5 -24.5q-25 0 -14 73q5 25 22 112.5t25 129.5q9 43 -11 43q-25 0 -69.5 -43.5t-79.5 -103.5q-32 -55 -44 -116q-10 -47 -2 -58q-11 -10 -33.5 -25t-30.5 -15q-5 0 -7 12q0 16 7 54q10 61 43.5 236.5t42.5 227.5h-60q0 15 7 22h57q8 45 11 73
q0 23 -7 23q-19 0 -56 -20z" />
    <glyph glyph-name="uni0128" unicode="&#x128;" horiz-adv-x="284" 
d="M96 597q-2 2 -1 8t3 8q4 0 40 -1.5t68 -1.5q31 0 70.5 1t40.5 1q2 -1 1 -7t-3 -8q-29 -4 -41 -6q-18 -5 -25 -13.5t-13 -36.5q-4 -21 -38 -228q-7 -44 -15.5 -98.5t-13.5 -88.5t-7 -49q-1 -14 -1 -25t5.5 -19.5t17.5 -11.5q17 -4 53 -8q1 -2 -0.5 -8.5t-3.5 -7.5
q-11 0 -53.5 1.5t-67.5 1.5q-27 0 -68 -1.5t-52 -1.5q-2 1 -1 7.5t3 8.5q29 2 52 7q17 4 24.5 13t12.5 29q11 45 48 275q26 174 30 207q3 23 -1 32.5t-19 13.5q-7 2 -45 7zM283 707q35 0 68 30l4 -11v-3q-14 -19 -46 -37t-55 -18q-18 0 -58 13q-26 7 -35 7q-25 0 -61 -27
q-2 -1 -3.5 2.5t-1.5 7.5t2 5q11 13 42 32t49 19q15 0 52 -11q32 -9 43 -9z" />
    <glyph glyph-name="uni0129" unicode="&#x129;" horiz-adv-x="207" 
d="M175 98q3 -1 3 -2q0 -16 -2 -18q-31 -43 -65 -68.5t-48 -25.5q-30 0 -12 92l45 230q4 24 -3 24t-49 -32q-2 0 -2 1q-1 2 0 9t2 8q29 31 63.5 56.5t48.5 25.5q19 0 5 -68q-46 -235 -47 -250q-3 -26 8 -26q15 0 53 44zM205 521q29 0 58 26q1 1 3 -2q3 -8 1 -12
q-13 -18 -42 -35.5t-50 -17.5q-18 0 -51 12q-28 7 -32 7q-24 0 -54 -22q-1 0 -2 3t-1 6.5t1 4.5q9 13 37.5 31t45.5 18q8 0 46 -10q31 -9 40 -9z" />
    <glyph glyph-name="uni012A" unicode="&#x12a;" horiz-adv-x="284" 
d="M96 597q-2 2 -1 8t3 8q4 0 40 -1.5t68 -1.5q31 0 70.5 1t40.5 1q2 -1 1 -7t-3 -8q-29 -4 -41 -6q-18 -5 -25 -13.5t-13 -36.5q-4 -21 -38 -228q-7 -44 -15.5 -98.5t-13.5 -88.5t-7 -49q-1 -14 -1 -25t5.5 -19.5t17.5 -11.5q17 -4 53 -8q1 -2 -0.5 -8.5t-3.5 -7.5
q-11 0 -53.5 1.5t-67.5 1.5q-27 0 -68 -1.5t-52 -1.5q-2 1 -1 7.5t3 8.5q29 2 52 7q17 4 24.5 13t12.5 29q11 45 48 275q26 174 30 207q3 23 -1 32.5t-19 13.5q-7 2 -45 7zM126 710q3 0 18.5 -0.5t30.5 -0.5q148 -2 158 1q-1 -8 -8 -21t-10 -14q-23 -3 -172 -3l-34 1
q1 5 17 37z" />
    <glyph glyph-name="uni012B" unicode="&#x12b;" horiz-adv-x="207" 
d="M175 98q3 -1 3 -2q0 -16 -2 -18q-31 -43 -65 -68.5t-48 -25.5q-30 0 -12 92l45 230q4 24 -3 24t-49 -32q-2 0 -2 1q-1 2 0 9t2 8q29 31 63.5 56.5t48.5 25.5q19 0 5 -68q-46 -235 -47 -250q-3 -26 8 -26q15 0 53 44zM77 530q14 -2 40 -2q125 0 134 3q-1 -8 -9 -22
t-11 -15q-30 -5 -137 -5l-33 1q5 23 16 40z" />
    <glyph glyph-name="uni012C" unicode="&#x12c;" horiz-adv-x="284" 
d="M96 597q-2 2 -1 8t3 8q4 0 40 -1.5t68 -1.5q31 0 70.5 1t40.5 1q2 -1 1 -7t-3 -8q-29 -4 -41 -6q-18 -5 -25 -13.5t-13 -36.5q-4 -21 -38 -228q-7 -44 -15.5 -98.5t-13.5 -88.5t-7 -49q-1 -14 -1 -25t5.5 -19.5t17.5 -11.5q17 -4 53 -8q1 -2 -0.5 -8.5t-3.5 -7.5
q-11 0 -53.5 1.5t-67.5 1.5q-27 0 -68 -1.5t-52 -1.5q-2 1 -1 7.5t3 8.5q29 2 52 7q17 4 24.5 13t12.5 29q11 45 48 275q26 174 30 207q3 23 -1 32.5t-19 13.5q-7 2 -45 7zM232 690q51 0 90 48q5 5 14 5l4 -3q-42 -85 -133 -85q-38 0 -62.5 17t-23.5 45q2 6 13 15.5t17 12.5
q1 1 4 1t4 -1q11 -55 73 -55z" />
    <glyph glyph-name="uni012D" unicode="&#x12d;" horiz-adv-x="207" 
d="M175 98q3 -1 3 -2q0 -16 -2 -18q-31 -43 -65 -68.5t-48 -25.5q-30 0 -12 92l45 230q4 24 -3 24t-49 -32q-2 0 -2 1q-1 2 0 9t2 8q29 31 63.5 56.5t48.5 25.5q19 0 5 -68q-46 -235 -47 -250q-3 -26 8 -26q15 0 53 44zM166 503q47 0 88 52q11 5 14 5l3 -2
q-19 -44 -53.5 -68.5t-77.5 -24.5q-37 0 -59.5 20t-21.5 52q3 6 14 14t18 10q5 2 7 0q9 -58 68 -58z" />
    <glyph glyph-name="uni012E" unicode="&#x12e;" horiz-adv-x="284" 
d="M118 -1v1h-6q-27 0 -68 -1.5t-52 -1.5q-2 1 -1 7.5t3 8.5q29 2 52 7q17 4 24.5 13t12.5 29q11 45 48 275q26 174 30 207q3 23 -1 32.5t-19 13.5q-7 2 -45 7q-2 2 -1 8t3 8q4 0 40 -1.5t68 -1.5q31 0 70.5 1t40.5 1q2 -1 1 -7t-3 -8q-29 -4 -41 -6q-18 -5 -25 -13.5
t-13 -36.5q-4 -21 -38 -228q-7 -44 -15.5 -98.5t-13.5 -88.5t-7 -49q-1 -14 -1 -25t5.5 -19.5t17.5 -11.5q17 -4 53 -8q1 -2 -0.5 -8.5t-3.5 -7.5q-3 0 -38.5 1t-57.5 0q-58 -59 -58 -101q0 -19 11.5 -29t29.5 -10q26 0 51 17q3 -13 -3 -17q-16 -23 -41.5 -34.5t-45.5 -11.5
q-25 0 -42 15.5t-17 44.5q0 49 96 127z" />
    <glyph glyph-name="uni012F" unicode="&#x12f;" horiz-adv-x="207" 
d="M176 78q-24 -32 -40 -47q-83 -72 -83 -117q0 -38 38 -38q25 0 46 15q1 -2 1 -8t-2 -8q-16 -22 -39.5 -33t-42.5 -11q-23 0 -39 14t-16 41q0 36 70 98q-38 -5 -18 92l45 233q4 23 -3 23q-11 0 -52 -31q-2 0 -2 1q-1 2 -0.5 8.5t2.5 8.5q27 28 65.5 53.5t51.5 25.5
q17 0 3 -68q-42 -191 -47 -250q-3 -26 8 -26q15 0 53 44q3 -1 3 -2q0 -16 -2 -18zM170 557q16 0 21 -7q9 -10 6 -20q-4 -29 -21 -38q-4 -2 -16.5 -2.5t-17.5 0.5q-17 8 -15 31q0 15 6 22q11 14 37 14z" />
    <glyph glyph-name="uni0130" unicode="&#x130;" horiz-adv-x="284" 
d="M96 597q-2 2 -1 8t3 8q4 0 40 -1.5t68 -1.5q31 0 70.5 1t40.5 1q2 -1 1 -7t-3 -8q-29 -4 -41 -6q-18 -5 -25 -13.5t-13 -36.5q-4 -21 -38 -228q-7 -44 -15.5 -98.5t-13.5 -88.5t-7 -49q-1 -14 -1 -25t5.5 -19.5t17.5 -11.5q17 -4 53 -8q1 -2 -0.5 -8.5t-3.5 -7.5
q-11 0 -53.5 1.5t-67.5 1.5q-27 0 -68 -1.5t-52 -1.5q-2 1 -1 7.5t3 8.5q29 2 52 7q17 4 24.5 13t12.5 29q11 45 48 275q26 174 30 207q3 23 -1 32.5t-19 13.5q-7 2 -45 7zM259 696q-5 -28 -24 -37q-6 -3 -20 -3.5t-19 2.5q-19 10 -16 34q0 16 10 26q11 13 37 13q18 0 27 -9
q8 -9 5 -26z" />
    <glyph glyph-name="dotlessi" unicode="&#x131;" horiz-adv-x="207" 
d="M175 98q3 -1 3 -2q0 -16 -2 -18q-31 -43 -65 -68.5t-48 -25.5q-30 0 -12 92l45 230q4 24 -3 24t-49 -32q-2 0 -2 1q-1 2 0 9t2 8q29 31 63.5 56.5t48.5 25.5q19 0 5 -68q-46 -235 -47 -250q-3 -26 8 -26q15 0 53 44z" />
    <glyph glyph-name="IJ" unicode="&#x132;" horiz-adv-x="559" 
d="M96 597q-2 2 -1 8t3 8q4 0 40 -1.5t68 -1.5q31 0 70.5 1t40.5 1q2 -1 1 -7t-3 -8q-29 -4 -41 -6q-18 -5 -25 -13.5t-13 -36.5q-4 -21 -38 -228q-7 -44 -15.5 -98.5t-13.5 -88.5t-7 -49q-1 -14 -1 -25t5.5 -19.5t17.5 -11.5q17 -4 53 -8q1 -2 -0.5 -8.5t-3.5 -7.5
q-11 0 -53.5 1.5t-67.5 1.5q-27 0 -68 -1.5t-52 -1.5q-2 1 -1 7.5t3 8.5q29 2 52 7q17 4 24.5 13t12.5 29q11 45 48 275q26 174 30 207q3 23 -1 32.5t-19 13.5q-7 2 -45 7zM375 597q-1 2 0 8t3 8q4 0 40 -1.5t72 -1.5q35 0 69 1.5t37 1.5q2 -2 1 -8t-3 -8l-44 -8
q-20 -6 -28 -42q-4 -21 -34 -207.5t-38 -231.5q-10 -54 -15 -79t-16 -58t-25 -56q-60 -97 -170 -124q-5 0 -9 11q-1 3 1 5q57 18 91 62q19 23 30 57.5t25 105.5q19 95 48.5 278.5t32.5 221.5q3 31 0 42t-18 15q-18 5 -50 8z" />
    <glyph glyph-name="ij" unicode="&#x133;" horiz-adv-x="415" 
d="M175 98q3 -1 3 -2q0 -16 -2 -18q-31 -43 -65 -68.5t-48 -25.5q-30 0 -12 92q5 27 15 77.5t18 89t12 63.5q4 24 -3 24q-11 0 -49 -32q-2 0 -2 1q-1 2 0 9t2 8q27 31 62 56.5t50 25.5q19 0 5 -68q-46 -235 -47 -250q-3 -26 8 -26q15 0 53 44zM170 557q17 0 21 -6
q6 -7 6 -19t-6 -23t-13 -14q-5 -4 -18.5 -5t-17.5 1q-15 5 -15 29q0 13 6 22q13 15 37 15zM121 -276q-2 0 -5.5 5.5t-3.5 8.5q62 30 88 77t45 136q42 200 62 350q4 23 -6 23q-14 0 -56 -37q-3 0 -3 2q-2 5 2 16q28 30 68.5 61.5t58.5 31.5q16 0 7 -64q-19 -123 -56 -315
q-31 -165 -109 -237q-50 -44 -92 -58zM377 557q16 0 21 -7q5 -6 5 -18q0 -29 -20 -39q-4 -2 -16.5 -3.5t-17.5 0.5q-16 6 -16 31q1 13 6 22q14 14 38 14z" />
    <glyph glyph-name="uni0134" unicode="&#x134;" horiz-adv-x="275" 
d="M91 597q-1 2 0 8t3 8q4 0 40 -1.5t72 -1.5q35 0 69 1.5t37 1.5q2 -2 1 -8t-3 -8q-8 -1 -18 -3t-16 -3t-10 -2q-20 -6 -28 -42q-4 -21 -34 -207.5t-38 -231.5q-10 -54 -15 -79t-16 -58t-25 -56q-60 -97 -170 -124q-5 0 -9 11q-1 3 1 5q57 18 91 62q19 23 30 57.5t25 105.5
q19 95 48.5 278.5t32.5 221.5q3 31 0 42t-18 15q-18 5 -50 8zM222 753q6 3 12 3q6 -9 44 -46.5t53 -50.5q-3 -11 -8 -11q-4 0 -45.5 20.5t-54.5 28.5q-3 2 -7 0q-18 -9 -68 -29t-54 -20q-2 0 -4 4.5t-1 7.5q102 64 133 93z" />
    <glyph glyph-name="uni0135" unicode="&#x135;" horiz-adv-x="208" 
d="M-86 -276q-2 0 -5.5 5.5t-3.5 8.5q62 30 88 77t45 136q42 200 62 350q4 23 -6 23q-14 0 -56 -37q-3 0 -3 2q-2 5 2 16q28 30 68.5 61.5t58.5 31.5q16 0 7 -64q-19 -123 -56 -315q-31 -165 -109 -237q-50 -44 -92 -58zM150 524q-50 -70 -65 -80q-10 -9 -28 -12q-4 2 -4 5
q18 21 55.5 72t50.5 73q7 7 19 7q6 -29 24.5 -81t26.5 -66q-7 -11 -33 -11q-10 1 -41 93q-2 3 -5 0z" />
    <glyph glyph-name="uni0136" unicode="&#x136;" horiz-adv-x="582" 
d="M95 597q-5 8 3 16q3 0 38 -1.5t67 -1.5q39 0 73.5 1.5t39.5 1.5q2 -2 2 -7.5t-2 -7.5q-28 -4 -46 -8q-16 -4 -24 -17t-13 -43q-40 -232 -70 -446q-4 -38 4 -49.5t30 -15.5l39 -6q1 -1 0 -7.5t-2 -8.5q-17 0 -58.5 1.5t-65.5 1.5q-41 0 -78 -2l-38 -1q-2 2 -2 8t2 8
q43 6 49 7q33 7 45 61q50 277 73 460q4 28 -1.5 37.5t-23.5 13.5zM430 597q-2 2 -1 8t3 8l35 -1q35 -2 66 -2t106 3q2 -2 1.5 -7.5t-2.5 -8.5q-44 -6 -69 -19t-58 -46q-102 -106 -226 -208l-1 -3q44 -71 106.5 -157t103.5 -123q18 -15 35 -20q19 -8 59 -9q2 -1 1.5 -7.5
t-3.5 -7.5q-34 -4 -84 -1t-65 9q-19 6 -46 35q-25 29 -82 111t-88 133q-4 9 -13 14q-4 4 6 11q31 7 116 81t132 127q32 36 34 53q0 12 -16 18q-19 5 -50 9zM311 -26q16 0 28 -19.5t8 -46.5q-5 -29 -31 -52.5t-68 -35.5q-2 1 -5 7t-2 8q60 21 66 56q2 13 -7 24.5t-38 17.5
q-2 5 1 11q25 30 48 30z" />
    <glyph glyph-name="uni0137" unicode="&#x137;" horiz-adv-x="408" 
d="M209 688q14 0 5 -43q-8 -46 -23 -121t-34 -170.5t-28 -144.5q0 -7 4 -3q46 59 118.5 125.5t112.5 66.5q32 0 42 -16v-7q-1 -8 -13.5 -26.5t-19.5 -23.5q-28 19 -56 19q-25 0 -70 -40.5t-66 -69.5q-3 -2 0 -5q1 -2 5.5 -8t12.5 -16.5t15 -22.5q50 -82 76 -109t45 -27
q34 0 72 58q3 0 3 -2q1 -2 0 -10.5t-2 -10.5q-26 -40 -57 -66t-57 -26t-57 40q-15 19 -50 79t-41 69q-2 4 -6 3t-6 -4q-14 -18 -21 -50q-6 -27 -10 -57q-5 -37 4 -52q-6 -6 -31.5 -20.5t-32.5 -14.5q-11 0 -9 24q2 22 25 146q78 400 84 452q4 25 -8 25q-20 0 -55 -22
q-1 2 0.5 9.5t2.5 8.5q33 24 72.5 43.5t53.5 19.5zM172 -37q16 0 28 -19.5t8 -46.5q-5 -29 -31 -52.5t-68 -35.5q-2 1 -5 7t-2 8q60 21 66 56q2 13 -7 24.5t-38 17.5q-2 4 1 11q25 30 48 30z" />
    <glyph glyph-name="uni0138" unicode="&#x138;" horiz-adv-x="394" 
d="M35 292q-1 2 -0.5 4.5t1 6.5t0.5 5q32 37 67.5 63t49.5 26q19 0 1 -89q-8 -43 -22 -109q-1 -2 0.5 -2.5t2.5 1.5q85 103 138.5 151.5t87.5 48.5q21 0 29 -14q-1 -8 -10 -31t-14 -28q-19 15 -44 15q-9 0 -20 -4.5t-20.5 -10.5t-22 -16.5t-21 -18.5t-20.5 -21t-17.5 -19.5
t-15.5 -19t-12 -14.5q-1 -2 0 -3q13 -9 37 -52q31 -56 51.5 -84t29 -34t19.5 -6q26 0 64 50q1 1 2 0t1 -2q2 -7 -2 -16q-26 -40 -56 -61.5t-53 -21.5t-46 35q-21 35 -65 121q-15 31 -27 34q-29 -143 -26 -155q-7 -9 -32 -22.5t-32 -14.5q-3 -1 -5 2t-1 6q2 15 27.5 139
t33.5 174q2 21 -6 21q-14 0 -50 -36q-2 0 -2 2z" />
    <glyph glyph-name="uni0139" unicode="&#x139;" horiz-adv-x="504" 
d="M92 598q-1 1 0.5 7.5t2.5 7.5q7 0 43 -1.5t68 -1.5q29 0 69 1.5t46 1.5q1 -1 0 -7.5t-2 -8.5q-37 -4 -52 -9q-23 -7 -31 -40q-66 -389 -75 -491q-3 -21 12 -29q10 -5 76 -6t92 1q33 2 62.5 30.5t71.5 105.5q3 1 8 -1.5t5 -4.5q-33 -109 -64 -146q-9 -10 -64 -10
q-31 0 -126.5 1.5t-119.5 1.5q-25 0 -72 -1.5t-53 -1.5q-2 1 -1.5 8t2.5 8q45 5 56 8q30 6 40 49q14 69 39.5 232t34.5 230q5 32 1 43.5t-25 15.5zM366 731q1 -1 0.5 -4t-1.5 -4q-12 -8 -89 -44.5t-80 -36.5t-6.5 5.5t-1.5 7.5q108 90 131 104q8 0 23.5 -10t23.5 -18z" />
    <glyph glyph-name="uni013A" unicode="&#x13a;" horiz-adv-x="204" 
d="M76 607q-1 1 0.5 9.5t2.5 8.5q34 23 74 43t53 20q14 0 4 -53q-7 -38 -33 -177.5t-44 -238.5t-21 -128q-5 -40 8 -40q22 0 59 44q1 0 3 -2q0 -13 -2 -17q-30 -41 -63.5 -66.5t-53.5 -25.5q-29 0 -13 105q5 28 43.5 238t46.5 269q5 32 -7 32q-15 0 -57 -21zM313 793
q1 -1 0.5 -4t-1.5 -4q-12 -8 -89 -44.5t-80 -36.5t-6.5 5.5t-1.5 7.5q108 90 131 104q8 0 23.5 -10t23.5 -18z" />
    <glyph glyph-name="uni013B" unicode="&#x13b;" horiz-adv-x="504" 
d="M92 598q-1 1 0.5 7.5t2.5 7.5q7 0 43 -1.5t68 -1.5q29 0 69 1.5t46 1.5q1 -1 0 -7.5t-2 -8.5q-37 -4 -52 -9q-23 -7 -31 -40q-66 -389 -75 -491q-3 -21 12 -29q10 -5 76 -6t92 1q33 2 62.5 30.5t71.5 105.5q3 1 8 -1.5t5 -4.5q-33 -109 -64 -146q-9 -10 -64 -10
q-31 0 -126.5 1.5t-119.5 1.5q-25 0 -72 -1.5t-53 -1.5q-2 1 -1.5 8t2.5 8q45 5 56 8q30 6 40 49q14 69 39.5 232t34.5 230q5 32 1 43.5t-25 15.5zM240 -34q16 0 28 -19.5t8 -46.5q-5 -29 -31 -52.5t-68 -35.5q-2 1 -5 7t-2 8q60 21 66 56q2 13 -7 24.5t-38 17.5q-2 5 1 11
q25 30 48 30z" />
    <glyph glyph-name="uni013C" unicode="&#x13c;" horiz-adv-x="204" 
d="M76 607q-1 1 0.5 9.5t2.5 8.5q34 23 74 43t53 20q14 0 4 -53q-7 -38 -33 -177.5t-44 -238.5t-21 -128q-5 -40 8 -40q22 0 59 44q1 0 3 -2q0 -13 -2 -17q-30 -41 -63.5 -66.5t-53.5 -25.5q-29 0 -13 105q5 28 43.5 238t46.5 269q5 32 -7 32q-15 0 -57 -21zM76 -45
q16 0 28 -19.5t8 -46.5q-5 -29 -31 -52.5t-68 -35.5q-2 1 -5 7t-2 8q60 21 66 56q2 13 -7 24.5t-38 17.5q-2 4 1 11q25 30 48 30z" />
    <glyph glyph-name="uni013D" unicode="&#x13d;" horiz-adv-x="504" 
d="M92 598q-1 1 0.5 7.5t2.5 7.5q7 0 43 -1.5t68 -1.5q29 0 69 1.5t46 1.5q1 -1 0 -7.5t-2 -8.5q-37 -4 -52 -9q-23 -7 -31 -40q-66 -389 -75 -491q-3 -21 12 -29q10 -5 76 -6t92 1q33 2 62.5 30.5t71.5 105.5q3 1 8 -1.5t5 -4.5q-33 -109 -64 -146q-9 -10 -64 -10
q-31 0 -126.5 1.5t-119.5 1.5q-25 0 -72 -1.5t-53 -1.5q-2 1 -1.5 8t2.5 8q45 5 56 8q30 6 40 49q14 69 39.5 232t34.5 230q5 32 1 43.5t-25 15.5zM464 630q4 0 1 -14q-5 -25 -22.5 -86.5t-28.5 -90.5q-11 -19 -23 -25q-1 -1 -2 0.5t-1 2.5q14 75 22 165q0 4 4 9
q8 9 25.5 24t24.5 15z" />
    <glyph glyph-name="uni013E" unicode="&#x13e;" horiz-adv-x="204" 
d="M76 607q-1 1 0.5 9.5t2.5 8.5q34 23 74 43t53 20q14 0 4 -53q-7 -38 -33 -177.5t-44 -238.5t-21 -128q-5 -40 8 -40q22 0 59 44q1 0 3 -2q0 -13 -2 -17q-30 -41 -63.5 -66.5t-53.5 -25.5q-29 0 -13 105q5 28 43.5 238t46.5 269q5 32 -7 32q-15 0 -57 -21zM321 699
q4 0 1 -14q-5 -25 -22.5 -86.5t-28.5 -90.5q-11 -19 -23 -25q-3 -1 -3 3q14 75 22 165q0 4 4 9q8 9 25.5 24t24.5 15z" />
    <glyph glyph-name="Ldot" unicode="&#x13f;" horiz-adv-x="504" 
d="M92 598q-1 1 0.5 7.5t2.5 7.5q7 0 43 -1.5t68 -1.5q29 0 69 1.5t46 1.5q1 -1 0 -7.5t-2 -8.5q-37 -4 -52 -9q-23 -7 -31 -40q-66 -389 -75 -491q-3 -21 12 -29q10 -5 76 -6t92 1q33 2 62.5 30.5t71.5 105.5q3 1 8 -1.5t5 -4.5q-33 -109 -64 -146q-9 -10 -64 -10
q-31 0 -126.5 1.5t-119.5 1.5q-25 0 -72 -1.5t-53 -1.5q-2 1 -1.5 8t2.5 8q45 5 56 8q30 6 40 49q14 69 39.5 232t34.5 230q5 32 1 43.5t-25 15.5zM420 328q-5 -28 -24 -37q-6 -3 -20 -3.5t-19 2.5q-19 10 -16 34q0 16 10 26q11 13 37 13q18 0 27 -9q8 -9 5 -26z" />
    <glyph glyph-name="ldot" unicode="&#x140;" horiz-adv-x="204" 
d="M76 607q-1 1 0.5 9.5t2.5 8.5q34 23 74 43t53 20q14 0 4 -53q-92 -487 -98 -544q-5 -40 8 -40q22 0 59 44q1 0 3 -2q0 -13 -2 -17q-30 -41 -63.5 -66.5t-53.5 -25.5q-29 0 -13 105q5 28 43.5 238t46.5 269q5 32 -7 32q-15 0 -57 -21zM243 390q16 0 21 -7q9 -9 6 -19
q-5 -27 -20 -35q-4 -2 -16.5 -3.5t-16.5 -0.5q-15 7 -15 31q2 16 6 21q10 13 35 13z" />
    <glyph glyph-name="Lslash" unicode="&#x141;" horiz-adv-x="504" 
d="M92 598q-1 1 0.5 7.5t2.5 7.5q8 0 42.5 -1t68.5 -2q29 0 69 1.5t46 1.5q1 -1 0 -7.5t-2 -8.5q-37 -4 -52 -9q-23 -7 -31 -40l-37 -231q107 44 142 61q2 -1 2.5 -11t-0.5 -13l-148 -62q-32 -205 -34 -235q-3 -21 12 -29q11 -4 73 -5.5t93 0.5q34 2 64 30t72 106
q3 1 8 -1.5t5 -4.5q-34 -111 -64 -146q-9 -10 -64 -10q-31 0 -126.5 1.5t-119.5 1.5q-25 0 -72 -1.5t-53 -1.5q-2 1 -1.5 8t2.5 8q45 5 56 8q30 6 40 49q15 81 33 190q-18 -7 -49 -21t-33 -15q-2 1 -3 10.5t0 12.5q28 13 89 37q26 159 37 248q5 31 1 43t-24 16z" />
    <glyph glyph-name="lslash" unicode="&#x142;" horiz-adv-x="214" 
d="M86 607q-1 1 0.5 9.5t2.5 8.5q38 25 76.5 44t50.5 19q14 0 4 -51l-46 -247q42 21 67 31q1 -2 2 -11t0 -10l-74 -35q-39 -215 -47 -274q-5 -40 8 -40q22 0 59 44q1 0 3 -2q0 -13 -2 -17q-29 -41 -62.5 -66.5t-54.5 -25.5q-29 0 -13 105q14 85 45 246q-7 -3 -29.5 -13
t-28.5 -12q-2 2 -2.5 11.5t2.5 11.5l62 28q33 183 41 237q4 30 -7 30q-15 0 -57 -21z" />
    <glyph glyph-name="uni0143" unicode="&#x143;" horiz-adv-x="655" 
d="M77 597q-1 2 0 8.5t3 7.5q11 0 48 -1.5t55 -1.5q31 0 39 1q6 -17 26 -52q29 -50 94 -161.5t112.5 -193.5t64.5 -109q1 0 1 0.5t1 0.5q12 71 36.5 231.5t28.5 205.5q4 47 -30 55q-27 7 -53 10q-2 1 -1 8t3 8q9 0 47.5 -2t67.5 -2q21 0 50 2t33 2q1 -2 1 -8t-2 -8
q-9 -1 -36 -8q-34 -9 -43 -54q-17 -83 -70 -409q-13 -87 -18 -133q-2 0 -10 0.5t-17 0.5t-17.5 -0.5t-9.5 -0.5q-29 57 -134.5 246t-156.5 276h-2l-2 -1q-35 -198 -65 -430q-3 -32 2.5 -44t24.5 -18q20 -7 52 -10q2 -1 1 -8t-3 -8q-9 0 -44.5 1.5t-64.5 1.5
q-25 0 -59.5 -1.5t-40.5 -1.5q-1 1 -1 8t1 8q24 2 48 8q22 6 31 19.5t17 43.5q8 34 38 209t38 235q4 24 -13 44q-15 19 -71 25zM537 732q1 -1 0.5 -4t-1.5 -4q-12 -8 -89 -44.5t-80 -36.5t-6.5 5.5t-1.5 7.5q108 90 131 104q8 0 23.5 -10t23.5 -18z" />
    <glyph glyph-name="uni0144" unicode="&#x144;" horiz-adv-x="424" 
d="M37 289q-2 0 -2 2q-1 2 -0.5 5t1.5 7.5t1 5.5q31 38 65.5 63.5t49.5 25.5q20 0 1 -94q-2 -12 -6 -33t-7 -37t-6 -28h3q81 121 167 172q32 20 53 20q31 0 8 -114q-30 -158 -36 -202q-4 -29 7 -29q17 0 54 44q2 0 2 -2q0 -16 -2 -20q-28 -39 -63 -65t-54 -26q-26 0 -7 101
q8 41 22.5 111t18.5 93q7 47 -12 47q-23 0 -61.5 -38t-84.5 -111q-19 -29 -33 -86q-18 -65 -11 -80q-7 -9 -31 -22.5t-31 -14.5q-4 -1 -7 3t-2 9q2 11 14 68.5t25.5 126t19.5 114.5q3 22 -5 22q-13 0 -51 -38zM369 575q2 -2 2 -8q-29 -35 -134 -137q-2 0 -6.5 4.5t-4.5 6.5
q68 106 83 128q9 2 32 4.5t28 1.5z" />
    <glyph glyph-name="uni0145" unicode="&#x145;" horiz-adv-x="655" 
d="M77 597q-1 2 0 8.5t3 7.5q11 0 48 -1.5t55 -1.5q31 0 39 1q6 -17 26 -52q29 -50 94 -161.5t112.5 -193.5t64.5 -109q1 0 1 0.5t1 0.5q12 71 36.5 231.5t28.5 205.5q4 47 -30 55q-27 7 -53 10q-2 1 -1 8t3 8q9 0 47.5 -2t67.5 -2q21 0 50 2t33 2q1 -2 1 -8t-2 -8
q-9 -1 -36 -8q-34 -9 -43 -54q-17 -83 -70 -409q-13 -87 -18 -133q-2 0 -10 0.5t-17 0.5t-17.5 -0.5t-9.5 -0.5q-29 57 -134.5 246t-156.5 276h-2l-2 -1q-35 -198 -65 -430q-3 -32 2.5 -44t24.5 -18q20 -7 52 -10q2 -1 1 -8t-3 -8q-9 0 -44.5 1.5t-64.5 1.5
q-25 0 -59.5 -1.5t-40.5 -1.5q-1 1 -1 8t1 8q24 2 48 8q22 6 31 19.5t17 43.5q8 34 38 209t38 235q4 24 -13 44q-15 19 -71 25zM308 -27q16 0 28 -19.5t8 -46.5q-5 -29 -31 -52.5t-68 -35.5q-2 1 -5 7t-2 8q60 21 66 56q2 13 -7 24.5t-38 17.5q-2 4 1 11q25 30 48 30z" />
    <glyph glyph-name="uni0146" unicode="&#x146;" horiz-adv-x="424" 
d="M37 289q-2 0 -2 2q-1 2 -0.5 5t1.5 7.5t1 5.5q31 38 65.5 63.5t49.5 25.5q20 0 1 -94q-2 -12 -6 -33t-7 -37t-6 -28h3q81 121 167 172q32 20 53 20q31 0 8 -114q-30 -158 -36 -202q-4 -29 7 -29q17 0 54 44q2 0 2 -2q0 -16 -2 -20q-28 -39 -63 -65t-54 -26q-26 0 -7 101
q8 41 22.5 111t18.5 93q7 47 -12 47q-23 0 -61.5 -38t-84.5 -111q-19 -29 -33 -86q-18 -65 -11 -80q-7 -9 -31 -22.5t-31 -14.5q-4 -1 -7 3t-2 9q2 11 14 68.5t25.5 126t19.5 114.5q3 22 -5 22q-13 0 -51 -38zM175 -37q16 0 28 -19.5t8 -46.5q-5 -29 -31 -52.5t-68 -35.5
q-2 1 -5 7t-2 8q60 21 66 56q2 13 -7 24.5t-38 17.5q-2 4 1 11q25 30 48 30z" />
    <glyph glyph-name="uni0147" unicode="&#x147;" horiz-adv-x="655" 
d="M77 597q-1 2 0 8.5t3 7.5q11 0 48 -1.5t55 -1.5q31 0 39 1q6 -17 26 -52q29 -50 94 -161.5t112.5 -193.5t64.5 -109q1 0 1 0.5t1 0.5q12 71 36.5 231.5t28.5 205.5q4 47 -30 55q-27 7 -53 10q-2 1 -1 8t3 8q9 0 47.5 -2t67.5 -2q21 0 50 2t33 2q1 -2 1 -8t-2 -8
q-9 -1 -36 -8q-34 -9 -43 -54q-17 -83 -70 -409q-13 -87 -18 -133q-2 0 -10 0.5t-17 0.5t-17.5 -0.5t-9.5 -0.5q-29 57 -134.5 246t-156.5 276h-2l-2 -1q-35 -198 -65 -430q-3 -32 2.5 -44t24.5 -18q20 -7 52 -10q2 -1 1 -8t-3 -8q-9 0 -44.5 1.5t-64.5 1.5
q-25 0 -59.5 -1.5t-40.5 -1.5q-1 1 -1 8t1 8q24 2 48 8q22 6 31 19.5t17 43.5q8 34 38 209t38 235q4 24 -13 44q-15 19 -71 25zM408 645q-5 -4 -12 -4q-6 9 -44 48t-53 51q3 10 8 10q4 0 44 -21.5t56 -31.5q4 -2 8 1q109 52 118 52q2 0 4.5 -4.5t1.5 -7.5q-97 -65 -131 -93z
" />
    <glyph glyph-name="uni0148" unicode="&#x148;" horiz-adv-x="424" 
d="M37 289q-2 0 -2 2q-1 2 -0.5 5t1.5 7.5t1 5.5q31 38 65.5 63.5t49.5 25.5q20 0 1 -94q-2 -12 -6 -33t-7 -37t-6 -28h3q81 121 167 172q32 20 53 20q31 0 8 -114q-30 -158 -36 -202q-4 -29 7 -29q17 0 54 44q2 0 2 -2q0 -16 -2 -20q-28 -39 -63 -65t-54 -26q-26 0 -7 101
q8 41 22.5 111t18.5 93q7 47 -12 47q-23 0 -61.5 -38t-84.5 -111q-19 -29 -33 -86q-18 -65 -11 -80q-7 -9 -31 -22.5t-31 -14.5q-4 -1 -7 3t-2 9q2 11 14 68.5t25.5 126t19.5 114.5q3 22 -5 22q-13 0 -51 -38zM257 493q44 60 64 74q9 9 32 13q3 0 3 -4q-77 -91 -106 -140
q-7 -7 -19 -7q-5 27 -23.5 74.5t-27.5 66.5q7 11 30 11q5 0 20.5 -34t21.5 -54q1 -1 2.5 -1t2.5 1z" />
    <glyph glyph-name="uni0149" unicode="&#x149;" horiz-adv-x="424" 
d="M37 289q-2 0 -2 2q-1 2 -0.5 5t1.5 7.5t1 5.5q31 38 65.5 63.5t49.5 25.5q20 0 1 -94q-2 -12 -6 -33t-7 -37t-6 -28h3q81 121 167 172q32 20 53 20q31 0 8 -114q-30 -158 -36 -202q-4 -29 7 -29q17 0 54 44q2 0 2 -2q0 -16 -2 -20q-28 -39 -63 -65t-54 -26q-26 0 -7 101
q8 41 22.5 111t18.5 93q7 47 -12 47q-23 0 -61.5 -38t-84.5 -111q-19 -29 -33 -86q-18 -65 -11 -80q-7 -9 -31 -22.5t-31 -14.5q-4 -1 -7 3t-2 9q2 11 14 68.5t25.5 126t19.5 114.5q3 22 -5 22q-13 0 -51 -38zM142 585q15 0 26 -20t7 -46q-11 -64 -97 -86q-2 1 -4 6.5
t-1 7.5q59 19 64 55q2 13 -7.5 26.5t-35.5 19.5q0 3 2 7q8 11 22 20.5t24 9.5z" />
    <glyph glyph-name="Eng" unicode="&#x14a;" horiz-adv-x="655" 
d="M77 597q-1 2 0 8.5t3 7.5q11 0 48 -1.5t55 -1.5q31 0 39 1q6 -17 26 -52q225 -385 271 -460q1 0 1 0.5t1 0.5q61 372 65 430q1 13 0.5 24.5t-7.5 20t-21 11.5q-18 5 -52 9q-1 2 -0.5 8.5t2.5 8.5q9 0 46 -1.5t66 -1.5q21 0 50 1.5t33 1.5q1 -2 1 -8.5t-2 -8.5
q-22 -3 -36 -7q-15 -4 -24 -13t-12.5 -18t-6.5 -24q-35 -173 -70 -406q-2 -16 -7 -48.5t-8.5 -54.5t-3.5 -25q-19 -114 -51.5 -168t-88.5 -54q-28 0 -35 15q-5 9 -6.5 29t2.5 31l8 4q28 -17 56 -17q31 0 50 22t24 79q2 31 -9 54q-27 56 -131 239t-163 283h-2l-2 -1
q-53 -321 -65 -430q-4 -31 1.5 -43.5t21.5 -18.5q19 -6 56 -10q2 -1 1 -8t-3 -8q-9 0 -44.5 1.5t-64.5 1.5q-25 0 -59.5 -1.5t-40.5 -1.5q-1 1 -1 8t1 8q27 3 50 8q14 2 24 13.5t13.5 21.5t8.5 28q8 32 36.5 202.5t39.5 242.5q2 25 -13 43q-15 19 -71 25z" />
    <glyph glyph-name="eng" unicode="&#x14b;" horiz-adv-x="411" 
d="M152 398q20 0 2 -92l-21 -103q0 -4 2 0q81 118 170 175q32 20 50 20q32 0 11 -118q-17 -129 -51 -290q-17 -87 -34 -128.5t-50 -79.5q-26 -31 -60.5 -51.5t-54.5 -20.5q-30 0 -40 19q-2 3 -2 10q3 22 16 41q2 5 6 5q34 -29 63 -29q18 0 28.5 7t25 41.5t27.5 103.5
q54 258 66 387q5 42 -11 42q-20 0 -58.5 -37.5t-88.5 -112.5q-18 -28 -33 -86q-17 -65 -12 -80q-7 -9 -31 -22.5t-31 -14.5q-3 -1 -6.5 2.5t-2.5 6.5q1 8 27 129.5t34 182.5q2 22 -5 22q-14 0 -51 -37q-2 0 -2 2q-1 2 -0.5 8.5t2.5 8.5q31 38 65.5 63.5t49.5 25.5z" />
    <glyph glyph-name="uni014C" unicode="&#x14c;" horiz-adv-x="653" 
d="M283 -19q-110 0 -166 70t-55 180q0 152 88 263q47 63 117 99.5t144 36.5q104 0 159.5 -68.5t56.5 -176.5q0 -164 -86 -271q-101 -133 -258 -133zM316 10q65 0 109 36q65 50 94 141.5t29 191.5q0 102 -41.5 163t-127.5 61q-73 0 -129 -56.5t-82 -139t-26 -173.5
q0 -104 42.5 -164t131.5 -60zM314 722q3 0 18.5 -0.5t30.5 -0.5q148 -2 158 1q-1 -8 -8 -21t-10 -14q-23 -3 -172 -3l-34 1q1 5 17 37z" />
    <glyph glyph-name="uni014D" unicode="&#x14d;" horiz-adv-x="385" 
d="M262 398q48 0 69 -35.5t21 -85.5q0 -80 -33.5 -152.5t-97.5 -108.5q-56 -32 -99 -32t-65.5 35t-22.5 92q0 70 25.5 136t74.5 102q29 22 66.5 35.5t61.5 13.5zM102 135q0 -116 66 -116q47 0 81 76t34 162q0 110 -66 110q-36 0 -63 -38.5t-39.5 -90t-12.5 -103.5zM168 530
q14 -2 40 -2q125 0 134 3q-1 -8 -9 -22t-11 -15q-30 -5 -137 -5l-33 1q5 23 16 40z" />
    <glyph glyph-name="uni014E" unicode="&#x14e;" horiz-adv-x="653" 
d="M283 -19q-110 0 -166 70t-55 180q0 152 88 263q47 63 117 99.5t144 36.5q104 0 159.5 -68.5t56.5 -176.5q0 -164 -86 -271q-101 -133 -258 -133zM316 10q65 0 109 36q65 50 94 141.5t29 191.5q0 102 -41.5 163t-127.5 61q-73 0 -129 -56.5t-82 -139t-26 -173.5
q0 -104 42.5 -164t131.5 -60zM418 704q51 0 90 48q5 5 14 5l4 -3q-42 -85 -133 -85q-38 0 -62.5 17t-23.5 45q2 6 13 15.5t17 12.5q1 1 4 1t4 -1q11 -55 73 -55z" />
    <glyph glyph-name="uni014F" unicode="&#x14f;" horiz-adv-x="385" 
d="M262 398q48 0 69 -35.5t21 -85.5q0 -80 -33.5 -152.5t-97.5 -108.5q-56 -32 -99 -32t-65.5 35t-22.5 92q0 70 25.5 136t74.5 102q29 22 66.5 35.5t61.5 13.5zM102 135q0 -116 66 -116q47 0 81 76t34 162q0 110 -66 110q-36 0 -63 -38.5t-39.5 -90t-12.5 -103.5zM254 503
q47 0 88 52q11 5 14 5l3 -2q-19 -44 -53.5 -68.5t-77.5 -24.5q-37 0 -59.5 20t-21.5 52q3 6 14 14t18 10q5 2 7 0q9 -58 68 -58z" />
    <glyph glyph-name="uni0150" unicode="&#x150;" horiz-adv-x="653" 
d="M283 -19q-110 0 -166 70t-55 180q0 152 88 263q47 63 117 99.5t144 36.5q104 0 159.5 -68.5t56.5 -176.5q0 -164 -86 -271q-101 -133 -258 -133zM316 10q65 0 109 36q65 50 94 141.5t29 191.5q0 102 -41.5 163t-127.5 61q-73 0 -129 -56.5t-82 -139t-26 -173.5
q0 -104 42.5 -164t131.5 -60zM545 780q5 -6 3 -8q-7 -11 -47 -55t-55 -58q-7 -2 -13 7l59 104q36 12 53 10zM433 769q5 -5 3 -8q-28 -38 -95 -106q-5 0 -13 8q11 20 51 94q33 12 54 12z" />
    <glyph glyph-name="uni0151" unicode="&#x151;" horiz-adv-x="385" 
d="M262 398q48 0 69 -35.5t21 -85.5q0 -80 -33.5 -152.5t-97.5 -108.5q-56 -32 -99 -32t-65.5 35t-22.5 92q0 70 25.5 136t74.5 102q29 22 66.5 35.5t61.5 13.5zM102 135q0 -116 66 -116q47 0 81 76t34 162q0 110 -66 110q-36 0 -63 -38.5t-39.5 -90t-12.5 -103.5zM278 579
q3 -3 1 -7q-7 -13 -44 -62t-60 -77q-8 0 -12 8q8 14 23 44.5t27.5 54.5t17.5 33q8 3 25.5 5t21.5 1zM386 588q3 -3 2 -6q-8 -13 -45.5 -63t-61.5 -80q-7 0 -11 8q12 22 38 74t32 63q34 10 46 4z" />
    <glyph glyph-name="OE" unicode="&#x152;" horiz-adv-x="882" 
d="M62 227q0 163 89 275q50 61 116 94.5t138 33.5q37 0 70 -9q45 -10 58 -11h242q71 0 103 6q3 0 3 -6q-15 -41 -31 -133q-2 -1 -9 -1t-9 1q2 42 -4 68q-3 19 -12 28t-34 10q-17 1 -120.5 1.5t-108.5 -0.5q-2 0 -2 -1.5t1 -2.5q83 -80 71 -250q0 -4 4 -4q91 0 118 2
q14 1 24.5 9t14.5 14t11 19q5 9 13 31q2 1 9 1t8 -2q-15 -59 -21 -91q-3 -21 -7 -54.5t-4 -35.5q-2 -2 -9.5 -2.5t-9.5 1.5q0 32 -1 38l-1 4v6t-1 5t-1.5 5t-2 4.5t-3 4.5t-4 3.5t-5.5 3.5t-7 2t-9 1q-40 3 -115 3q-2 -1 -4 -4l-1 -1q-13 -83 -47 -144t-99 -113
q-2 -2 -1.5 -4t2.5 -2q66 -5 217 -5q42 0 59 3.5t31 16.5q32 30 62 89q9 0 15 -8q-27 -85 -55 -119q-10 -10 -37 -10q-98 0 -212 1.5t-123 1.5q-10 0 -56 -9.5t-87 -9.5q-127 0 -186 90q-40 64 -40 156zM313 7q64 0 107 32q63 50 95 142.5t32 195.5q0 99 -40.5 162.5
t-124.5 63.5q-74 0 -131 -62t-83 -146t-26 -169q0 -96 42 -157.5t129 -61.5z" />
    <glyph glyph-name="oe" unicode="&#x153;" horiz-adv-x="532" 
d="M428 364q-26 0 -53 -36t-39 -105q-2 -5 3 -5q46 13 80 35q39 26 39 66q0 18 -7.5 31.5t-22.5 13.5zM270 61q-2 2 -5 1q-36 -43 -77 -60.5t-69 -17.5q-43 0 -64 35t-21 92q0 67 25.5 134.5t74.5 103.5q29 22 63 35.5t57 13.5q65 0 82 -76q36 37 76 56.5t63 19.5
q19 0 31.5 -15.5t12.5 -34.5q0 -58 -77 -104q-11 -7 -106 -51q-2 -1 -5 -7q0 -2 -1.5 -11.5t-2.5 -18t-1 -14.5q0 -102 67 -102q55 0 109 59q2 -1 2 -20q-32 -40 -78 -66.5t-85 -26.5q-24 0 -43.5 18t-27.5 57zM102 139q0 -63 15.5 -91.5t49.5 -28.5q45 0 78 73t33 168
q0 107 -63 107q-50 0 -81.5 -76t-31.5 -152z" />
    <glyph glyph-name="uni0154" unicode="&#x154;" horiz-adv-x="531" 
d="M94 597q-1 2 0 8.5t3 7.5q7 0 44 -1.5t57 -1.5q58 1 115 1q79 0 119 -35t40 -100q0 -63 -40.5 -108.5t-104.5 -68.5q-1 -1 -1.5 -2.5t0.5 -2.5q20 -44 60.5 -114.5t69.5 -111.5q27 -34 42 -43t51 -13q2 -2 0.5 -8.5t-4.5 -7.5q-87 -4 -126 15q-24 12 -42 42
q-13 19 -34 57t-49 92t-33 62q-7 16 -24 16h-41q-1 0 -3 -2t-2 -3q-29 -184 -30 -195q-5 -50 23 -58q15 -6 52 -9q1 -2 0.5 -8.5t-2.5 -7.5q-9 0 -57.5 2t-67.5 1l-116 -3q-2 2 -1.5 8t2.5 8q31 2 45 6q22 4 31.5 15.5t14.5 39.5q17 80 43.5 245.5t33.5 228.5q4 35 -22 41
q-19 5 -46 8zM396 462q0 58 -30 93.5t-90 35.5q-19 0 -28 -4q-6 -3 -10 -17q-4 -21 -20.5 -126t-21.5 -135q-2 -6 5 -6q72 -5 111 12q84 37 84 147zM440 738q1 -1 0.5 -4t-1.5 -4q-12 -8 -89 -44.5t-80 -36.5t-6.5 5.5t-1.5 7.5q108 90 131 104q8 0 23.5 -10t23.5 -18z" />
    <glyph glyph-name="uni0155" unicode="&#x155;" horiz-adv-x="292" 
d="M141 233q34 64 73 114q43 51 68 51t35 -22v-11q-1 -11 -15 -32t-22 -27q-5 -4 -9 -2q-18 24 -37 24q-12 0 -36 -32.5t-48 -84.5q-19 -42 -40 -127q-10 -51 -6 -64q-5 -8 -31.5 -22t-32.5 -14q-7 0 -7 9q1 6 14.5 69t27.5 134t16 103q2 22 -5 22q-15 0 -56 -38q-2 0 -3 2
q0 10 3 16q32 37 69 67t50 30q17 0 6 -75q-3 -19 -9 -49t-8 -41q0 -1 1 -1t2 1zM327 575q2 -2 2 -8q-29 -35 -134 -137q-2 0 -6.5 4.5t-4.5 6.5q68 106 83 128q9 2 32 4.5t28 1.5z" />
    <glyph glyph-name="uni0156" unicode="&#x156;" horiz-adv-x="531" 
d="M94 597q-1 2 0 8.5t3 7.5q7 0 44 -1.5t57 -1.5q58 1 115 1q79 0 119 -35t40 -100q0 -63 -40.5 -108.5t-104.5 -68.5q-1 -1 -1.5 -2.5t0.5 -2.5q20 -44 60.5 -114.5t69.5 -111.5q27 -34 42 -43t51 -13q2 -2 0.5 -8.5t-4.5 -7.5q-87 -4 -126 15q-24 12 -42 42
q-13 19 -34 57t-49 92t-33 62q-7 16 -24 16h-41q-1 0 -3 -2t-2 -3q-29 -184 -30 -195q-5 -50 23 -58q15 -6 52 -9q1 -2 0.5 -8.5t-2.5 -7.5q-9 0 -57.5 2t-67.5 1l-116 -3q-2 2 -1.5 8t2.5 8q31 2 45 6q22 4 31.5 15.5t14.5 39.5q17 80 43.5 245.5t33.5 228.5q4 35 -22 41
q-19 5 -46 8zM396 462q0 58 -30 93.5t-90 35.5q-19 0 -28 -4q-6 -3 -10 -17q-4 -21 -20.5 -126t-21.5 -135q-2 -6 5 -6q72 -5 111 12q84 37 84 147zM295 -29q16 0 28 -19.5t8 -46.5q-5 -29 -31 -52.5t-68 -35.5q-2 1 -5 7t-2 8q60 21 66 56q2 13 -7 24.5t-38 17.5q-2 4 1 11
q25 30 48 30z" />
    <glyph glyph-name="uni0157" unicode="&#x157;" horiz-adv-x="292" 
d="M141 233q34 64 73 114q43 51 68 51t35 -22v-11q-1 -11 -15 -32t-22 -27q-5 -4 -9 -2q-18 24 -37 24q-12 0 -36 -32.5t-48 -84.5q-19 -42 -40 -127q-10 -51 -6 -64q-5 -8 -31.5 -22t-32.5 -14q-7 0 -7 9q1 6 14.5 69t27.5 134t16 103q2 22 -5 22q-15 0 -56 -38q-2 0 -3 2
q0 10 3 16q32 37 69 67t50 30q17 0 6 -75q-3 -19 -9 -49t-8 -41q0 -1 1 -1t2 1zM59 -42q16 0 28 -19.5t8 -46.5q-5 -29 -31 -52.5t-68 -35.5q-2 1 -5 7t-2 8q60 21 66 56q2 13 -7 24.5t-38 17.5q-2 5 1 11q25 30 48 30z" />
    <glyph glyph-name="uni0158" unicode="&#x158;" horiz-adv-x="531" 
d="M94 597q-1 2 0 8.5t3 7.5q7 0 44 -1.5t57 -1.5q58 1 115 1q79 0 119 -35t40 -100q0 -63 -40.5 -108.5t-104.5 -68.5q-1 -1 -1.5 -2.5t0.5 -2.5q20 -44 60.5 -114.5t69.5 -111.5q27 -34 42 -43t51 -13q2 -2 0.5 -8.5t-4.5 -7.5q-87 -4 -126 15q-24 12 -42 42
q-13 19 -34 57t-49 92t-33 62q-7 16 -24 16h-41q-1 0 -3 -2t-2 -3q-29 -184 -30 -195q-5 -50 23 -58q15 -6 52 -9q1 -2 0.5 -8.5t-2.5 -7.5q-9 0 -57.5 2t-67.5 1l-116 -3q-2 2 -1.5 8t2.5 8q31 2 45 6q22 4 31.5 15.5t14.5 39.5q17 80 43.5 245.5t33.5 228.5q4 35 -22 41
q-19 5 -46 8zM396 462q0 58 -30 93.5t-90 35.5q-19 0 -28 -4q-6 -3 -10 -17q-4 -21 -20.5 -126t-21.5 -135q-2 -6 5 -6q72 -5 111 12q84 37 84 147zM298 651q-5 -4 -12 -4q-6 9 -44 48t-53 51q3 10 8 10q4 0 44 -21.5t56 -31.5q4 -2 8 1q109 52 118 52q2 0 4.5 -4.5
t1.5 -7.5q-97 -65 -131 -93z" />
    <glyph glyph-name="uni0159" unicode="&#x159;" horiz-adv-x="292" 
d="M141 233q34 64 73 114q43 51 68 51t35 -22v-11q-1 -11 -15 -32t-22 -27q-5 -4 -9 -2q-18 24 -37 24q-12 0 -36 -32.5t-48 -84.5q-19 -42 -40 -127q-10 -51 -6 -64q-5 -8 -31.5 -22t-32.5 -14q-7 0 -7 9q1 6 14.5 69t27.5 134t16 103q2 22 -5 22q-15 0 -56 -38q-2 0 -3 2
q0 10 3 16q32 37 69 67t50 30q17 0 6 -75q-3 -19 -9 -49t-8 -41q0 -1 1 -1t2 1zM208 493q44 60 64 74q9 9 32 13q3 0 3 -4q-77 -91 -106 -140q-7 -7 -19 -7q-5 27 -23.5 74.5t-27.5 66.5q7 11 30 11q5 0 20.5 -34t21.5 -54q1 -1 2.5 -1t2.5 1z" />
    <glyph glyph-name="uni015A" unicode="&#x15a;" horiz-adv-x="430" 
d="M50 163q4 -55 18 -85.5t41 -47.5q37 -24 90 -24q55 0 88.5 31t33.5 89q0 40 -24.5 73.5t-78.5 78.5q-62 51 -91.5 90t-29.5 89q0 78 53.5 124.5t134.5 46.5q44 0 94 -12l47 -8q-21 -53 -34 -121q-1 -2 -9 -2t-9 3q3 47 -0.5 67.5t-18.5 32.5q-27 21 -77 21
q-58 0 -87.5 -36t-29.5 -84q0 -56 52 -104q19 -17 55.5 -46.5t49.5 -40.5q73 -63 73 -130q0 -79 -58.5 -132.5t-155.5 -53.5q-41 0 -83.5 14t-63.5 32q-4 11 -2.5 59t6.5 74q1 2 7.5 3t8.5 -1zM427 745q1 -1 0.5 -4t-1.5 -4q-12 -8 -89 -44.5t-80 -36.5t-6.5 5.5t-1.5 7.5
q108 90 131 104q8 0 23.5 -10t23.5 -18z" />
    <glyph glyph-name="uni015B" unicode="&#x15b;" horiz-adv-x="264" 
d="M204 398q17 0 29.5 -5.5t13.5 -11.5v-11q-7 -21 -29 -43q-3 -3 -8 0q-23 32 -56 32q-23 0 -38 -16t-15 -41q0 -18 12.5 -36.5t49.5 -49.5q38 -32 52 -51.5t14 -40.5q0 -51 -57 -98q-55 -42 -110 -42q-37 0 -57 20q-9 8 -9 22q0 6 8 28.5t15 31.5q1 1 3.5 1.5t4 0.5
t1.5 -1q6 -32 28 -50t51 -18t48 16t19 41q0 22 -13 40.5t-54 53.5q-53 47 -53 87q0 53 49 97q50 44 101 44zM289 575q2 -2 2 -8q-29 -35 -134 -137q-2 0 -6.5 4.5t-4.5 6.5q68 106 83 128q9 2 32 4.5t28 1.5z" />
    <glyph glyph-name="uni015C" unicode="&#x15c;" horiz-adv-x="430" 
d="M50 163q4 -55 18 -85.5t41 -47.5q37 -24 90 -24q55 0 88.5 31t33.5 89q0 40 -24.5 73.5t-78.5 78.5q-62 51 -91.5 90t-29.5 89q0 78 53.5 124.5t134.5 46.5q44 0 94 -12l47 -8q-21 -53 -34 -121q-1 -2 -9 -2t-9 3q3 47 -0.5 67.5t-18.5 32.5q-27 21 -77 21
q-58 0 -87.5 -36t-29.5 -84q0 -56 52 -104q19 -17 55.5 -46.5t49.5 -40.5q73 -63 73 -130q0 -79 -58.5 -132.5t-155.5 -53.5q-41 0 -83.5 14t-63.5 32q-4 11 -2.5 59t6.5 74q1 2 7.5 3t8.5 -1zM303 761q6 3 12 3q6 -9 44 -46.5t53 -50.5q-3 -11 -8 -11q-4 0 -45.5 20.5
t-54.5 28.5q-4 2 -7 0q-18 -9 -68 -29t-54 -20q-2 0 -4 4.5t-1 7.5q102 64 133 93z" />
    <glyph glyph-name="uni015D" unicode="&#x15d;" horiz-adv-x="264" 
d="M204 398q17 0 29.5 -5.5t13.5 -11.5v-11q-7 -21 -29 -43q-3 -3 -8 0q-23 32 -56 32q-23 0 -38 -16t-15 -41q0 -18 12.5 -36.5t49.5 -49.5q38 -32 52 -51.5t14 -40.5q0 -51 -57 -98q-55 -42 -110 -42q-37 0 -57 20q-9 8 -9 22q0 6 8 28.5t15 31.5q1 1 3.5 1.5t4 0.5
t1.5 -1q6 -32 28 -50t51 -18t48 16t19 41q0 22 -13 40.5t-54 53.5q-53 47 -53 87q0 53 49 97q50 44 101 44zM188 524q-50 -70 -65 -80q-10 -9 -28 -12q-4 2 -4 5q18 21 55.5 72t50.5 73q7 7 19 7q6 -29 24.5 -81t26.5 -66q-7 -11 -33 -11q-5 1 -19 34.5t-22 58.5q-2 3 -5 0z
" />
    <glyph glyph-name="uni015E" unicode="&#x15e;" horiz-adv-x="430" 
d="M181 -18h-1q-43 -1 -85.5 12.5t-64.5 30.5q-4 11 -2.5 58t6.5 74q1 2 8 2.5t9 -0.5q4 -57 17 -86.5t40 -45.5q36 -22 87 -22q55 0 90.5 32.5t35.5 91.5q1 39 -23.5 72t-79.5 77q-30 24 -47.5 40t-37 38.5t-28 46t-8.5 49.5q0 82 55.5 129t140.5 47q41 0 86 -9
q8 -1 18.5 -3.5t17 -4t11.5 -1.5q-22 -56 -34 -121q-1 -2 -9 -2t-9 3q4 44 1 65.5t-18 32.5q-24 20 -77 20q-58 0 -88.5 -36t-30.5 -84q0 -55 49 -102q18 -17 57 -47t51 -41q22 -19 35.5 -33.5t25.5 -40t12 -53.5q0 -77 -51 -128t-136 -59l-20 -25q-1 -1 -0.5 -3.5t1.5 -3.5
q18 -13 32 -27q16 -16 16 -38q0 -34 -35.5 -60t-61.5 -26q-29 0 -40 24q0 13 3 15q25 -14 53 -14q17 0 28 8.5t11 23.5q0 35 -59 62q1 5 2 7q28 32 47 55z" />
    <glyph glyph-name="uni015F" unicode="&#x15f;" horiz-adv-x="264" 
d="M204 398q17 0 29.5 -5.5t13.5 -11.5v-11q-7 -21 -29 -43q-3 -3 -8 0q-22 32 -56 32q-23 0 -38 -16t-15 -41q0 -18 12.5 -36.5t49.5 -49.5q38 -32 52 -51.5t14 -40.5q0 -51 -57 -98q-28 -23 -59 -33l-22 -26q-4 -4 1 -6q20 -14 29 -23q16 -16 16 -36q0 -34 -33.5 -59
t-57.5 -25q-28 0 -38 23q0 14 3 16q22 -14 50 -14q36 0 36 30q0 34 -55 59q0 6 2 8l44 46q-18 -2 -26 -2q-37 0 -57 20q-9 8 -9 22q0 6 8 28t15 31q1 1 3.5 1.5t4 0.5t1.5 -1q6 -32 28 -49.5t50 -17.5q29 0 48.5 16t19.5 41q0 22 -13 40.5t-54 53.5q-53 47 -53 87
q0 53 49 97q50 44 101 44z" />
    <glyph glyph-name="Scaron" unicode="&#x160;" horiz-adv-x="430" 
d="M50 163q4 -55 18 -85.5t41 -47.5q37 -24 90 -24q55 0 88.5 31t33.5 89q0 40 -24.5 73.5t-78.5 78.5q-62 51 -91.5 90t-29.5 89q0 78 53.5 124.5t134.5 46.5q44 0 94 -12l47 -8q-21 -53 -34 -121q-1 -2 -9 -2t-9 3q3 47 -0.5 67.5t-18.5 32.5q-27 21 -77 21
q-58 0 -87.5 -36t-29.5 -84q0 -56 52 -104q19 -17 55.5 -46.5t49.5 -40.5q73 -63 73 -130q0 -79 -58.5 -132.5t-155.5 -53.5q-41 0 -83.5 14t-63.5 32q-4 11 -2.5 59t6.5 74q1 2 7.5 3t8.5 -1zM303 661q-5 -4 -12 -4q-6 9 -44 48t-53 51q1 3 3.5 6.5t4.5 3.5q4 0 44 -21.5
t56 -31.5q4 -2 8 1q109 52 118 52q2 0 4.5 -4.5t1.5 -7.5q-97 -65 -131 -93z" />
    <glyph glyph-name="scaron" unicode="&#x161;" horiz-adv-x="264" 
d="M204 398q17 0 29.5 -5.5t13.5 -11.5v-11q-7 -21 -29 -43q-3 -3 -8 0q-23 32 -56 32q-23 0 -38 -16t-15 -41q0 -18 12.5 -36.5t49.5 -49.5q38 -32 52 -51.5t14 -40.5q0 -51 -57 -98q-55 -42 -110 -42q-37 0 -57 20q-9 8 -9 22q0 6 8 28.5t15 31.5q1 1 3.5 1.5t4 0.5
t1.5 -1q6 -32 28 -50t51 -18t48 16t19 41q0 22 -13 40.5t-54 53.5q-53 47 -53 87q0 53 49 97q50 44 101 44zM193 493q44 60 64 74q9 9 32 13q3 0 3 -4q-77 -91 -106 -140q-7 -7 -19 -7q-5 27 -23.5 74.5t-27.5 66.5q7 11 30 11q5 0 20.5 -34t21.5 -54q1 -1 2.5 -1t2.5 1z
" />
    <glyph glyph-name="uni0162" unicode="&#x162;" horiz-adv-x="574" 
d="M131 13q45 6 47 6q25 5 35 16.5t18 50.5q9 48 23.5 136.5t31.5 198t25 157.5q0 6 -5 6q-11 2 -57.5 2t-60.5 -2q-29 -2 -48 -24q-18 -21 -53 -86q-2 -2 -8 0.5t-7 5.5q19 48 40 137q0 2 3 2q30 -9 72 -9h344q47 0 83 9q1 0 1 -1l1 -2q-22 -53 -38 -140q-2 -2 -8 -2.5
t-8 2.5q2 50 -3 80q-5 25 -31 27q-23 2 -78.5 2.5t-61.5 -0.5q-6 -3 -6 -7q-76 -474 -77 -511q-1 -23 6.5 -33t24.5 -13q19 -5 56 -8q1 -1 0 -8t-3 -8q-11 0 -61 1.5t-71 1.5q-36 0 -81 -1.5t-47 -1.5q-1 1 0 8t2 8zM257 -31q16 0 28 -19.5t8 -46.5q-5 -29 -31 -52.5
t-68 -35.5q-2 1 -5 7t-2 8q60 21 66 56q2 13 -7 24.5t-38 17.5q-2 4 1 11q25 30 48 30z" />
    <glyph glyph-name="uni0163" unicode="&#x163;" horiz-adv-x="240" 
d="M160 345q-34 -172 -41 -243q-7 -55 15 -55q34 0 81 59q1 1 2 0t0 -2q2 -6 -2 -18q-23 -33 -67.5 -67.5t-73.5 -34.5q-31 0 -25 66q1 29 50 295q0 4 -2 4q-52 0 -66 2v5q5 7 19 16.5t19 11.5h34q5 0 5 4q20 95 28 110q5 9 32.5 32t41.5 28q2 1 4 -3t1 -6q-14 -16 -24 -54
q-17 -76 -22 -105q-1 -2 0 -4t2 -2q29 -1 66.5 2.5t43.5 6.5q0 -6 -2 -10q-14 -16 -50 -24q-32 -8 -64 -9q-5 0 -5 -5zM87 -45q16 0 28 -19.5t8 -46.5q-5 -29 -31 -52.5t-68 -35.5q-2 1 -5 7t-2 8q60 21 66 56q2 13 -7 24.5t-38 17.5q-2 4 1 11q25 30 48 30z" />
    <glyph glyph-name="uni0164" unicode="&#x164;" horiz-adv-x="574" 
d="M131 13q45 6 47 6q25 5 35 16.5t18 50.5q9 48 23.5 136.5t31.5 198t25 157.5q0 6 -5 6q-11 2 -57.5 2t-60.5 -2q-29 -2 -48 -24q-18 -21 -53 -86q-2 -2 -8 0.5t-7 5.5q19 48 40 137q0 2 3 2q30 -9 72 -9h344q47 0 83 9q1 0 1 -1l1 -2q-22 -53 -38 -140q-2 -2 -8 -2.5
t-8 2.5q2 50 -3 80q-5 25 -31 27q-23 2 -78.5 2.5t-61.5 -0.5q-6 -3 -6 -7q-76 -474 -77 -511q-1 -23 6.5 -33t24.5 -13q19 -5 56 -8q1 -1 0 -8t-3 -8q-11 0 -61 1.5t-71 1.5q-36 0 -81 -1.5t-47 -1.5q-1 1 0 8t2 8zM362 648q-5 -4 -12 -4q-6 9 -44 48t-53 51q3 10 8 10
q4 0 44 -21.5t56 -31.5q4 -2 8 1q109 52 118 52q2 0 4.5 -4.5t1.5 -7.5q-97 -65 -131 -93z" />
    <glyph glyph-name="uni0165" unicode="&#x165;" horiz-adv-x="240" 
d="M160 345q-34 -172 -41 -243q-7 -55 15 -55q34 0 81 59q1 1 2 0t0 -2q2 -6 -2 -18q-23 -33 -67.5 -67.5t-73.5 -34.5q-31 0 -25 66q1 29 50 295q0 4 -2 4q-52 0 -66 2v5q5 7 19 16.5t19 11.5h34q5 0 5 4q20 95 28 110q5 9 32.5 32t41.5 28q2 1 4 -3t1 -6q-14 -16 -24 -54
q-17 -76 -22 -105q-1 -2 0 -4t2 -2q29 -1 66.5 2.5t43.5 6.5q0 -6 -2 -10q-14 -16 -50 -24q-32 -8 -64 -9q-5 0 -5 -5zM336 694q4 0 1 -14q-5 -25 -22.5 -86.5t-28.5 -90.5q-11 -19 -23 -25q-1 -1 -2 0.5t-1 2.5q14 75 22 165q0 4 4 9q8 9 25.5 24t24.5 15z" />
    <glyph glyph-name="Tbar" unicode="&#x166;" horiz-adv-x="574" 
d="M86 477q-2 -2 -7.5 1t-6.5 6q25 64 40 133q0 2 3 2q30 -9 72 -9h344q47 0 83 9l2 -2q-21 -52 -37 -139q-1 -3 -8 -3t-8 3q2 53 -4 79q-4 24 -30 26q-23 2 -79 2.5t-62 -0.5q-6 -3 -6 -7l-41 -253q20 0 45 0.5t42.5 0.5h18.5q3 -14 -5 -24h-105q-32 -202 -32 -237
q-1 -23 5.5 -31.5t23.5 -12.5q18 -5 58 -8q1 -1 0 -8t-3 -8q-11 0 -60.5 1.5t-71.5 1.5q-32 0 -76.5 -1.5t-50.5 -1.5q-1 2 -1 8t2 8q9 1 19 2t16.5 2t13.5 2q25 5 34 16t17 51q11 53 36 216q-18 0 -53 -0.5t-44 -0.5q-1 5 1.5 13.5t5.5 10.5h94q8 46 21 135t18 118
q0 6 -5 6q-14 1 -57 1t-59 -1q-30 0 -48 -22q-21 -25 -55 -85z" />
    <glyph glyph-name="tbar" unicode="&#x167;" horiz-adv-x="240" 
d="M73 -16q-27 0 -24 66q1 36 23 156h-50q4 16 10 24q3 0 19.5 -0.5t24.5 -0.5q16 86 23 116q0 4 -2 4q-52 0 -66 2v5q5 7 19 16.5t19 11.5h36q4 0 4 4q22 93 30 110q4 8 32.5 31.5t42.5 28.5q1 0 2 -1.5t1.5 -3.5t-0.5 -4q-12 -15 -23 -50q-11 -36 -25 -109q0 -6 3 -6
q29 -1 66 2.5t43 6.5q0 -6 -2 -10q-14 -16 -50 -24q-32 -8 -64 -9q-5 0 -5 -5q-13 -54 -22 -116h76q0 -10 -7 -22h-73q-13 -79 -15 -107q-7 -54 13 -54q18 0 41.5 19t41.5 41q1 1 2 0t0 -2q2 -6 -2 -18q-22 -33 -67.5 -67.5t-74.5 -34.5z" />
    <glyph glyph-name="uni0168" unicode="&#x168;" horiz-adv-x="628" 
d="M82 597q-1 3 0 9t3 7q5 0 45.5 -1.5t65.5 -1.5q29 0 65.5 1.5t43.5 1.5q1 -2 1 -8t-2 -8l-36 -5q-21 -4 -31.5 -16t-14.5 -41q-32 -172 -51 -314q-10 -86 15 -130q34 -67 139 -67q80 0 123.5 42t64.5 146q29 145 51 307q6 38 -2 52.5t-29 18.5q-5 1 -43 7q-1 3 0 8.5
t3 7.5q3 0 37.5 -1.5t65.5 -1.5q20 0 52 1.5t38 1.5q2 -1 1.5 -8t-2.5 -8q-28 -4 -38 -7q-36 -9 -48 -69q-8 -39 -23 -125t-28.5 -154.5t-24.5 -100.5q-52 -159 -233 -159q-114 0 -165 63q-35 42 -32 118q1 33 27.5 200.5t27.5 176.5q2 22 -2 33t-19 16q-10 3 -45 8z
M476 708q35 0 68 30l4 -11v-3q-14 -19 -46 -37t-55 -18q-18 0 -58 13q-26 7 -35 7q-25 0 -61 -27q-2 -1 -3.5 2.5t-1.5 7.5t2 5q11 13 42 32t49 19q15 0 52 -11q32 -9 43 -9z" />
    <glyph glyph-name="uni0169" unicode="&#x169;" horiz-adv-x="419" 
d="M95 305q4 25 -4 25q-16 0 -57 -41q-3 0 -3 2q0 11 3 16q32 38 68 64.5t51 26.5q21 0 0 -100q-32 -154 -38 -195q-5 -29 -1.5 -43t18.5 -14q23 0 64 42t73 96q17 32 26 64q26 109 28 113q5 7 29.5 20t39.5 17q3 -6 2 -9q-14 -18 -21 -54q-34 -144 -45 -246q-4 -36 8 -36
q17 0 57 47l3 -3q0 -12 -3 -18q-26 -40 -63 -67.5t-55 -27.5q-25 0 -13 77l18 101q0 1 -1 1t-2 -1q-52 -80 -126 -140q-48 -38 -79 -38q-36 0 -22 95q13 79 45 226zM320 521q29 0 58 26q1 1 3 -2q3 -8 1 -12q-13 -18 -42 -35.5t-50 -17.5q-18 0 -51 12q-28 7 -32 7
q-24 0 -54 -22q-1 0 -2 3t-1 6.5t1 4.5q9 13 37.5 31t45.5 18q8 0 46 -10q31 -9 40 -9z" />
    <glyph glyph-name="uni016A" unicode="&#x16a;" horiz-adv-x="628" 
d="M82 597q-1 3 0 9t3 7q5 0 45.5 -1.5t65.5 -1.5q29 0 65.5 1.5t43.5 1.5q1 -2 1 -8t-2 -8l-36 -5q-21 -4 -31.5 -16t-14.5 -41q-32 -172 -51 -314q-10 -86 15 -130q34 -67 139 -67q80 0 123.5 42t64.5 146q29 145 51 307q6 38 -2 52.5t-29 18.5q-5 1 -43 7q-1 3 0 8.5
t3 7.5q3 0 37.5 -1.5t65.5 -1.5q20 0 52 1.5t38 1.5q2 -1 1.5 -8t-2.5 -8q-28 -4 -38 -7q-36 -9 -48 -69q-8 -39 -23 -125t-28.5 -154.5t-24.5 -100.5q-52 -159 -233 -159q-114 0 -165 63q-35 42 -32 118q1 33 27.5 200.5t27.5 176.5q2 22 -2 33t-19 16q-10 3 -45 8z
M311 708q3 0 18.5 -0.5t30.5 -0.5q148 -2 158 1q-1 -8 -8 -21t-10 -14q-22 -3 -172 -3l-34 1q1 5 17 37z" />
    <glyph glyph-name="uni016B" unicode="&#x16b;" horiz-adv-x="419" 
d="M95 305q4 25 -4 25q-16 0 -57 -41q-3 0 -3 2q0 11 3 16q32 38 68 64.5t51 26.5q21 0 0 -100q-32 -154 -38 -195q-5 -29 -1.5 -43t18.5 -14q23 0 64 42t73 96q17 32 26 64q26 109 28 113q5 7 29.5 20t39.5 17q3 -6 2 -9q-14 -18 -21 -54q-34 -144 -45 -246q-4 -36 8 -36
q17 0 57 47l3 -3q0 -12 -3 -18q-26 -40 -63 -67.5t-55 -27.5q-25 0 -13 77l18 101q0 1 -1 1t-2 -1q-52 -80 -126 -140q-48 -38 -79 -38q-36 0 -22 95q13 79 45 226zM187 530q14 -2 40 -2q125 0 134 3q-1 -8 -9 -22t-11 -15q-30 -5 -137 -5l-33 1q5 23 16 40z" />
    <glyph glyph-name="uni016C" unicode="&#x16c;" horiz-adv-x="628" 
d="M82 597q-1 3 0 9t3 7q5 0 45.5 -1.5t65.5 -1.5q29 0 65.5 1.5t43.5 1.5q1 -2 1 -8t-2 -8l-36 -5q-21 -4 -31.5 -16t-14.5 -41q-32 -172 -51 -314q-10 -86 15 -130q34 -67 139 -67q80 0 123.5 42t64.5 146q29 145 51 307q6 38 -2 52.5t-29 18.5q-5 1 -43 7q-1 3 0 8.5
t3 7.5q3 0 37.5 -1.5t65.5 -1.5q20 0 52 1.5t38 1.5q2 -1 1.5 -8t-2.5 -8q-28 -4 -38 -7q-36 -9 -48 -69q-8 -39 -23 -125t-28.5 -154.5t-24.5 -100.5q-52 -159 -233 -159q-114 0 -165 63q-35 42 -32 118q1 33 27.5 200.5t27.5 176.5q2 22 -2 33t-19 16q-10 3 -45 8z
M419 682q51 0 90 48q5 5 14 5l4 -3q-42 -85 -133 -85q-38 0 -62.5 17t-23.5 45q2 6 13 15.5t17 12.5q1 1 4 1t4 -1q11 -55 73 -55z" />
    <glyph glyph-name="uni016D" unicode="&#x16d;" horiz-adv-x="419" 
d="M95 305q4 25 -4 25q-16 0 -57 -41q-3 0 -3 2q0 11 3 16q32 38 68 64.5t51 26.5q21 0 0 -100q-32 -154 -38 -195q-5 -29 -1.5 -43t18.5 -14q23 0 64 42t73 96q17 32 26 64q26 109 28 113q5 7 29.5 20t39.5 17q3 -6 2 -9q-14 -18 -21 -54q-34 -144 -45 -246q-4 -36 8 -36
q17 0 57 47l3 -3q0 -12 -3 -18q-26 -40 -63 -67.5t-55 -27.5q-25 0 -13 77l18 101q0 1 -1 1t-2 -1q-52 -80 -126 -140q-48 -38 -79 -38q-36 0 -22 95q13 79 45 226zM271 503q47 0 88 52q11 5 14 5l3 -2q-19 -44 -53.5 -68.5t-77.5 -24.5q-37 0 -59.5 20t-21.5 52q3 6 14 14
t18 10q5 2 7 0q9 -58 68 -58z" />
    <glyph glyph-name="Uring" unicode="&#x16e;" horiz-adv-x="628" 
d="M82 597q-1 3 0 9t3 7q5 0 45.5 -1.5t65.5 -1.5q29 0 65.5 1.5t43.5 1.5q1 -2 1 -8t-2 -8l-36 -5q-21 -4 -31.5 -16t-14.5 -41q-32 -172 -51 -314q-10 -86 15 -130q34 -67 139 -67q80 0 123.5 42t64.5 146q29 145 51 307q6 38 -2 52.5t-29 18.5q-5 1 -43 7q-1 3 0 8.5
t3 7.5q3 0 37.5 -1.5t65.5 -1.5q20 0 52 1.5t38 1.5q2 -1 1.5 -8t-2.5 -8q-28 -4 -38 -7q-36 -9 -48 -69q-8 -39 -23 -125t-28.5 -154.5t-24.5 -100.5q-52 -159 -233 -159q-114 0 -165 63q-35 42 -32 118q1 33 27.5 200.5t27.5 176.5q2 22 -2 33t-19 16q-10 3 -45 8z
M413 770q28 0 44.5 -18t14.5 -44q-3 -30 -23.5 -47.5t-51.5 -17.5q-25 0 -43.5 16.5t-15.5 48.5q3 29 23.5 45.5t51.5 16.5zM406 741q-41 0 -44 -33q-1 -16 10.5 -26t30.5 -10q18 0 31 9t14 23q1 18 -9 27.5t-33 9.5z" />
    <glyph glyph-name="uring" unicode="&#x16f;" horiz-adv-x="419" 
d="M95 305q4 25 -4 25q-16 0 -57 -41q-3 0 -3 2q0 11 3 16q32 38 68 64.5t51 26.5q21 0 0 -100q-32 -154 -38 -195q-5 -29 -1.5 -43t18.5 -14q23 0 64 42t73 96q17 32 26 64q26 109 28 113q5 7 29.5 20t39.5 17q3 -6 2 -9q-14 -18 -21 -54q-34 -144 -45 -246q-4 -36 8 -36
q17 0 57 47l3 -3q0 -12 -3 -18q-26 -40 -63 -67.5t-55 -27.5q-25 0 -13 77l18 101q0 1 -1 1t-2 -1q-52 -80 -126 -140q-48 -38 -79 -38q-36 0 -22 95q13 79 45 226zM272 579q27 0 41.5 -19t12.5 -46q-1 -31 -22 -50t-49 -19q-22 0 -39.5 16t-15.5 49q1 30 22 49.5t50 19.5z
M264 549q-19 0 -30.5 -10t-11.5 -26q-1 -16 10.5 -27t29.5 -11q40 0 44 35q0 39 -42 39z" />
    <glyph glyph-name="uni0170" unicode="&#x170;" horiz-adv-x="628" 
d="M82 597q-1 3 0 9t3 7q5 0 45.5 -1.5t65.5 -1.5q29 0 65.5 1.5t43.5 1.5q1 -2 1 -8t-2 -8l-36 -5q-21 -4 -31.5 -16t-14.5 -41q-32 -172 -51 -314q-10 -86 15 -130q34 -67 139 -67q80 0 123.5 42t64.5 146q29 145 51 307q6 38 -2 52.5t-29 18.5q-5 1 -43 7q-1 3 0 8.5
t3 7.5q3 0 37.5 -1.5t65.5 -1.5q20 0 52 1.5t38 1.5q2 -1 1.5 -8t-2.5 -8q-28 -4 -38 -7q-36 -9 -48 -69q-8 -39 -23 -125t-28.5 -154.5t-24.5 -100.5q-52 -159 -233 -159q-114 0 -165 63q-35 42 -32 118q1 33 27.5 200.5t27.5 176.5q2 22 -2 33t-19 16q-10 3 -45 8z
M553 767q5 -5 3 -8q-7 -11 -47 -55t-55 -58q-7 -2 -13 7l59 104q36 12 53 10zM441 756q5 -6 3 -8q-28 -38 -95 -106q-5 0 -13 8q11 20 51 94q33 12 54 12z" />
    <glyph glyph-name="uni0171" unicode="&#x171;" horiz-adv-x="419" 
d="M95 305q4 25 -4 25q-16 0 -57 -41q-3 0 -3 2q0 11 3 16q32 38 68 64.5t51 26.5q21 0 0 -100q-32 -154 -38 -195q-5 -29 -1.5 -43t18.5 -14q23 0 64 42t73 96q17 32 26 64q26 109 28 113q5 7 29.5 20t39.5 17q3 -6 2 -9q-14 -18 -21 -54q-34 -144 -45 -246q-4 -36 8 -36
q17 0 57 47l3 -3q0 -12 -3 -18q-26 -40 -63 -67.5t-55 -27.5q-25 0 -13 77l18 101q0 1 -1 1t-2 -1q-52 -80 -126 -140q-48 -38 -79 -38q-36 0 -22 95q13 79 45 226zM307 579q3 -3 1 -7q-7 -13 -44 -62t-60 -77q-8 0 -12 8q8 14 23 44.5t27.5 54.5t17.5 33q8 3 25.5 5t21.5 1
zM415 588q3 -3 2 -6q-8 -13 -45.5 -63t-61.5 -80q-7 0 -11 8q12 22 38 74t32 63q34 10 46 4z" />
    <glyph glyph-name="uni0172" unicode="&#x172;" horiz-adv-x="628" 
d="M360 -13v2q-34 -7 -69 -7q-115 0 -166 63q-35 42 -32 118q1 33 27.5 200.5t27.5 176.5q2 22 -2 33t-19 16q-10 3 -45 8q-1 3 0 9t3 7q5 0 45.5 -1.5t65.5 -1.5q29 0 65.5 1.5t43.5 1.5q1 -2 1 -8t-2 -8l-36 -5q-21 -4 -31.5 -16t-14.5 -41q-39 -208 -51 -314
q-9 -84 15 -130q34 -67 140 -67q78 0 122 43t65 146q30 153 51 306q6 38 -2 52.5t-29 19.5q-8 2 -21.5 3.5t-21.5 2.5q-1 3 0 8.5t3 7.5q3 0 37.5 -1.5t65.5 -1.5q20 0 52 1.5t38 1.5q2 -1 1.5 -8t-2.5 -8q-28 -4 -38 -7q-36 -9 -48 -69q-8 -39 -23 -124.5t-28.5 -153.5
t-24.5 -100q-11 -35 -28 -62t-38 -44.5t-35.5 -26.5t-33.5 -18q-60 -56 -60 -94q0 -39 40 -39q27 0 50 17q2 -3 1 -9.5t-3 -8.5q-17 -22 -42.5 -33.5t-44.5 -11.5q-25 0 -42.5 15.5t-17.5 43.5q0 47 91 115z" />
    <glyph glyph-name="uni0173" unicode="&#x173;" horiz-adv-x="419" 
d="M34 288q-3 0 -3 2q-3 10 3 16q32 38 68.5 65t50.5 27q23 0 0 -100q-25 -114 -38 -195q-5 -29 -1.5 -43t18.5 -14q23 0 64 42t73 96q18 30 27 65q23 99 28 112q8 7 31.5 20.5t37.5 16.5q3 -6 2 -9q-13 -16 -22 -54q-35 -141 -46 -248q-3 -32 9 -32q18 0 57 45l3 -3
q0 -11 -2 -17q-17 -24 -54 -58q-70 -62 -70 -111q0 -38 36 -38q24 0 46 16q1 -2 0 -8.5t-2 -7.5q-32 -44 -79 -44q-23 0 -39 14.5t-16 42.5q0 36 72 100q-24 -8 -29 16t3 58q10 65 18 101q0 1 -1.5 1t-2.5 -1q-51 -79 -125 -139q-48 -38 -79 -38q-36 0 -22 95q13 79 45 226
q4 25 -4 25q-15 0 -57 -42z" />
    <glyph glyph-name="uni0174" unicode="&#x174;" horiz-adv-x="757" 
d="M45 597q-1 2 -0.5 8t2.5 8q4 0 42 -1.5t67 -1.5q52 0 106 3q2 -2 1.5 -8t-2.5 -8q-26 -3 -42 -9q-23 -9 -23 -44q0 -90 14 -429q2 -2 4 0q167 314 227 459h6q6 -1 14 -1q7 0 13 1h5q3 -81 54 -461q2 -2 4 0q168 331 196 409q28 57 -5 66q-21 5 -50 9q-1 3 -0.5 8.5
t2.5 7.5q6 0 42 -1.5t58 -1.5q26 0 54.5 1.5t33.5 1.5q2 -1 2 -8t-3 -8q-33 -5 -49 -12t-26.5 -20.5t-24.5 -43.5q-188 -373 -260 -526q-2 0 -8.5 0.5t-9.5 0.5q-4 0 -11 -1t-9 0q-15 176 -52 458q-2 2 -4 0l-232 -459q-2 0 -9.5 0.5t-10.5 0.5q-4 0 -11.5 -0.5t-8.5 -0.5
q-8 340 -19 521q-2 41 -8 55t-24 19q-11 4 -45 8zM480 733q6 3 12 3q6 -9 44 -46.5t53 -50.5q-3 -11 -8 -11q-4 0 -45.5 20.5t-54.5 28.5q-3 2 -7 0q-18 -9 -68 -29t-54 -20q-2 0 -4 4.5t-1 7.5q102 64 133 93z" />
    <glyph glyph-name="uni0175" unicode="&#x175;" horiz-adv-x="547" 
d="M363 55q50 48 88.5 129t37.5 130q-1 13 -2.5 20t-10.5 14.5t-25 8.5q0 9 3 12q46 28 76 29q11 0 11 -32q1 -37 -17 -88q-31 -83 -96 -173t-108 -118q-6 -3 -15 -3q-20 36 -31 239h-4q-35 -63 -92.5 -142t-86.5 -97q-9 0 -12 3q-8 17 -4 92q1 35 7.5 115t7.5 107
q0 28 -9 28q-20 0 -57 -44q-3 0 -3 4q0 13 3 19q32 42 66 66t48 24q13 0 16 -22.5t-2 -77.5q-1 -14 -4.5 -53.5t-6 -74t-2.5 -56.5q-2 -29 2 -40q3 -2 5 0q54 59 127 195q2 4 29 64q15 11 35 14q-6 -60 0 -168.5t20 -123.5q2 -2 6 0zM340 513q-50 -70 -65 -80
q-10 -9 -28 -12q-4 2 -4 5q18 21 55.5 72t50.5 73q7 7 19 7q6 -29 24.5 -81t26.5 -66q-7 -11 -33 -11q-10 2 -41 93q-2 3 -5 0z" />
    </font>
</defs>
</svg>
