<?xml version="1.0" standalone="no"?>
<!DOCTYPE svg PUBLIC "-//W3C//DTD SVG 1.1//EN" "http://www.w3.org/Graphics/SVG/1.1/DTD/svg11.dtd" >
<svg>
<metadata>
Created by FontForge 20110222 at Mon Apr 21 01:20:00 2014
 By Orthosie Webhosting
(c) 2010 Adobe Systems Incorporated. All Rights Reserved.
</metadata>
<defs>
<font id="AdobeTextProBold" horiz-adv-x="397" >
  <font-face 
    font-family="AdobeTextProBold"
    font-weight="700"
    font-stretch="normal"
    units-per-em="1000"
    panose-1="2 5 8 3 6 5 5 2 2 4"
    ascent="716"
    descent="-284"
    x-height="448"
    cap-height="638"
    bbox="-186 -283 1444 966"
    underline-thickness="50"
    underline-position="-50"
    unicode-range="U+0020-FB06"
  />
<missing-glyph horiz-adv-x="500" 
d="M0 0v700h500v-700h-500zM250 395l170 255h-340zM280 350l170 -255v510zM80 50h340l-170 255zM50 605v-510l170 255z" />
    <glyph glyph-name="f_f" unicode="ff" horiz-adv-x="599" 
d="M274 0h-255v34q42 4 53.5 11t11.5 34v320h-54v28q46 17 54 26q0 60 29.5 116t73.5 86q52 35 106 35q37 0 55.5 -11.5t18.5 -29.5q0 -25 -18.5 -44t-36.5 -19q-14 0 -32 18q-33 39 -47 39q-32 0 -28 -101l3 -94h171q3 65 32 125t79 96q54 39 112 39q34 0 54 -12t20 -34
t-18.5 -44t-39.5 -22q-18 0 -35 18q-1 1 -9.5 10.5t-14.5 14.5q-13 12 -26 12q-33 0 -33 -90q0 -17 1 -59t1 -54h101q4 -28 -6 -49h-94v-320q0 -27 14.5 -34.5t66.5 -10.5v-34h-270v34q39 2 52 10t13 35v320h-171v-320q0 -28 11 -34.5t55 -10.5v-34z" />
    <glyph glyph-name="f_f_i" unicode="ffi" horiz-adv-x="861" 
d="M209 448h162q0 75 23 123q-17 12 -42 51q-14 23 -28 29q-15 3 -23 3q-92 0 -92 -152v-54zM270 0h-252v34q43 4 54 11t11 34v320h-54v28q45 16 54 26q0 50 23.5 104t71.5 88q59 45 146 45q94 0 134 -38q25 26 66.5 41t87.5 15q84 0 123 -28t39 -63q0 -30 -19.5 -48
t-48.5 -18q-44 0 -50 49q-5 53 -20 63q-12 10 -42 10q-98 0 -98 -176v-49h187q16 0 53 3.5t46 6.5q-2 -51 -2 -99v-281q0 -20 3 -27t16 -10q10 -2 38 -6v-35h-245v36q30 2 42 5q14 3 18 10.5t4 25.5v296q0 14 -5.5 20t-20.5 6h-137v-320q0 -28 10 -35t53 -10v-34h-248v34
q39 4 50 11t11 34v320h-161v-320q0 -27 10.5 -34t51.5 -11v-34z" />
    <glyph glyph-name="f_f_l" unicode="ffl" horiz-adv-x="860" 
d="M208 448h160q0 66 27 128q-10 34 -36.5 55t-58.5 21q-92 0 -92 -164v-40zM270 0h-252v34q43 4 54 11t11 34v320h-54v28q45 16 54 26q0 47 23.5 100.5t71.5 87.5q62 46 142 46q89 0 135 -39q27 27 69 43.5t81 16.5q65 0 105 -22q28 2 57 22h16q-3 -117 -3 -168v-464
q0 -24 9.5 -31t48.5 -10v-35h-242v35q38 2 48.5 10t10.5 35v466q0 66 -7 79q-22 45 -73 45q-83 0 -83 -160v-62h101q4 -28 -6 -49h-94v-320q0 -28 10 -35t56 -10v-34h-252v34q39 4 50 11t11 34v320h-160v-320q0 -27 10.5 -34t51.5 -11v-34z" />
    <glyph glyph-name="longs_t" unicode="&#x17f;t" horiz-adv-x="627" 
d="M288 0h-270v36q40 3 52.5 10.5t12.5 32.5v314h-54v29q32 9 55 32q1 68 31.5 125t76.5 89q58 40 127 40q82 0 124 -40.5t42 -95.5v-124h120q2 -37 -7 -55h-114v-283q0 -23 13.5 -40t42.5 -17q36 0 70 23v-32q-50 -54 -126 -54q-125 0 -125 130v273h-54v29q35 10 57 32
q4 50 4 116q0 50 -21 75q-23 23 -57 23q-80 0 -80 -153v-433q0 -28 13 -35t67 -11v-36z" />
    <glyph glyph-name="T_h" unicode="Th" horiz-adv-x="1125" 
d="M516 0h-331v36q30 2 54 6q43 6 43 53v504h-75q-32 0 -55 -15q-47 -33 -84 -130l-32 8q21 138 19 186q56 -10 146 -10h344q98 0 127.5 7t62.5 36h33v-282q63 61 138 61q56 0 90 -32q50 -46 50 -137v-217q0 -6 0.5 -10.5t2.5 -8t3 -6t5 -4.5l6 -3t8 -2t8.5 -1.5t11 -1.5
t11.5 -1v-36h-242v36q26 2 36 4q16 3 20.5 17t4.5 68v181q0 47 -26 72q-19 17 -50 17q-41 0 -63 -21q-14 -13 -14 -48v-257q1 -15 4 -20t14 -8q8 -2 39 -6v-35h-241v35q22 1 39 6q20 5 20 29v461q0 30 -27 51q-18 17 -66 17h-130v-501q0 -50 45 -57q16 -3 51 -5v-36z" />
    <glyph glyph-name="Tcaron_h" unicode="&#x164;h" horiz-adv-x="1125" 
d="M516 0h-331v36q30 2 54 6q43 6 43 53v504h-75q-32 0 -55 -15q-47 -33 -84 -130l-32 8q21 138 19 186q56 -10 146 -10h344q98 0 127.5 7t62.5 36h33v-282q63 61 138 61q56 0 90 -32q50 -46 50 -137v-217q0 -6 0.5 -10.5t2.5 -8t3 -6t5 -4.5l6 -3t8 -2t8.5 -1.5t11 -1.5
t11.5 -1v-36h-242v36q26 2 36 4q16 3 20.5 17t4.5 68v181q0 47 -26 72q-19 17 -50 17q-41 0 -63 -21q-14 -13 -14 -48v-257q1 -15 4 -20t14 -8q8 -2 39 -6v-35h-241v35q22 1 39 6q20 5 20 29v461q0 30 -27 51q-18 17 -66 17h-130v-501q0 -50 45 -57q16 -3 51 -5v-36z
M171 814l16 30l155 -62q64 27 157 62l14 -29q-72 -45 -160 -125h-26q-103 89 -156 124z" />
    <glyph glyph-name="uni021A_h" unicode="&#x21a;h" horiz-adv-x="1125" 
d="M516 0h-331v36q30 2 54 6q43 6 43 53v504h-75q-32 0 -55 -15q-47 -33 -84 -130l-32 8q21 138 19 186q56 -10 146 -10h344q98 0 127.5 7t62.5 36h33v-282q63 61 138 61q56 0 90 -32q50 -46 50 -137v-217q0 -6 0.5 -10.5t2.5 -8t3 -6t5 -4.5l6 -3t8 -2t8.5 -1.5t11 -1.5
t11.5 -1v-36h-242v36q26 2 36 4q16 3 20.5 17t4.5 68v181q0 47 -26 72q-19 17 -50 17q-41 0 -63 -21q-14 -13 -14 -48v-257q1 -15 4 -20t14 -8q8 -2 39 -6v-35h-241v35q22 1 39 6q20 5 20 29v461q0 30 -27 51q-18 17 -66 17h-130v-501q0 -50 45 -57q16 -3 51 -5v-36z
M289 -272l-8 33q74 27 74 60q0 14 -10 21.5t-36 11.5q-42 7 -42 40q0 19 16 33t45 14q36 0 62 -25t26 -66q0 -50 -39.5 -82t-87.5 -40z" />
    <glyph glyph-name="f_b" unicode="fb" horiz-adv-x="847" 
d="M288 0h-270v34q40 4 52.5 12t12.5 33v314h-54v29q32 9 54 31q0 59 26.5 116t69.5 91q62 48 133 48q65 0 106 -22q32 5 59 22h17q-5 -120 -5 -121v-173q70 46 132 46q80 0 133 -55q54 -59 54 -160q0 -127 -97 -203q-33 -26 -77.5 -40t-82.5 -14q-56 0 -131 26
q-30 -5 -44 -15l-13 9q0 14 0.5 66t0.5 79v411q0 44 -9 60q-22 46 -72 46q-75 0 -75 -139v-83h100q2 -36 -7 -55h-93v-311q0 -28 13.5 -35.5t66.5 -12.5v-34zM489 337v-185q0 -59 15 -83q26 -41 69 -41q36 0 58 26q43 56 43 166q0 96 -33 141q-31 42 -80 42q-34 0 -54 -14
q-12 -8 -15 -16.5t-3 -35.5z" />
    <glyph glyph-name="f_h" unicode="fh" horiz-adv-x="849" 
d="M278 0h-260v34q40 4 52.5 12t12.5 33v314h-54v29q32 9 54 31q0 59 26 116t69 91q62 48 137 48q64 0 108 -22q32 5 59 22h17q-5 -120 -5 -121v-188q63 61 136 61q56 0 90 -32q50 -46 50 -137v-217q0 -6 0.5 -10.5t2.5 -8t3 -6t5 -4.5l6 -3t8 -2t8.5 -1.5t11 -1.5t11.5 -1
v-36h-242v36q28 2 36 4q16 3 20.5 17t4.5 68v181q0 49 -26 72q-19 17 -49 17q-40 0 -62 -21q-9 -8 -11.5 -16.5t-2.5 -31.5v-257q0 -7 1.5 -12t5 -8t6 -5.5t9 -4t9.5 -2t13 -1.5t13 -1v-35h-241v35q20 1 30 3t19.5 9.5t9.5 22.5v494q0 44 -9 60q-10 21 -32 33.5t-45 12.5
q-75 0 -75 -139v-83h100q2 -36 -7 -55h-93v-311q0 -28 11 -35.5t59 -12.5v-34z" />
    <glyph glyph-name="f_i" unicode="fi" horiz-adv-x="569" 
d="M266 0h-248v36q34 1 49.5 8t15.5 32v321h-54v30q12 3 30 12t24 15q2 60 29.5 119.5t77.5 93.5q60 41 137 41q87 0 121 -29.5t34 -65.5q0 -27 -21 -44.5t-46 -17.5q-26 0 -36.5 13t-14.5 36q-10 55 -15 61q-2 2 -4 3q-16 10 -41 10q-97 0 -97 -177v-49h198q68 0 86 7
q-3 -55 -3 -100v-277q0 -7 0.5 -12t3 -9t3.5 -7t6 -5t6.5 -3.5t8.5 -2.5t8.5 -1.5t10 -1.5t10.5 -1v-35h-240v36q32 1 45 8.5t13 32.5v299q0 12 -3.5 16.5t-15.5 4.5h-136v-318q0 -18 8 -27.5t18 -11.5t32 -4v-36z" />
    <glyph glyph-name="f_j" unicode="fj" horiz-adv-x="560" 
d="M284 0h-266v36q34 1 49.5 8t15.5 32v321h-54v30q39 12 54 27q2 60 30 120.5t78 94.5q56 39 130 39q86 0 123.5 -29.5t37.5 -64.5q0 -28 -21 -45.5t-46 -17.5q-26 0 -36.5 13t-14.5 36q-1 6 -2.5 13.5t-2 11.5t-1.5 9.5t-2 8.5t-2 6.5t-1.5 5t-2 4t-2.5 3.5t-3 2
q-16 10 -42 10q-96 0 -96 -177v-49h198q68 0 86 7q-3 -58 -3 -100v-283q0 -93 -16 -130q-45 -104 -172 -177l-22 28q47 39 66 78t19 96v409q0 12 -3.5 16.5t-15.5 4.5h-136v-318q0 -19 9 -27.5t22 -11t45 -4.5v-36z" />
    <glyph glyph-name="f_k" unicode="fk" horiz-adv-x="819" 
d="M278 0h-260v34q40 4 52.5 12t12.5 33v314h-54v29q32 9 54 31q0 59 26 116t69 91q62 48 137 48q64 0 108 -22q32 5 59 22h17q-5 -120 -5 -121v-352q51 37 122 110q35 35 35 48q0 8 -17 13q-11 3 -50 7v35h218v-35q-22 -1 -42 -6q-25 -6 -59 -33q-45 -37 -88 -82
q-4 -4 -1 -8q20 -33 73 -108t79 -108q14 -18 28.5 -24.5t44.5 -8.5v-35h-252v35q41 3 41 13q0 4 -5 12q-37 64 -98 153q-2 3 -9 1l-12 -8l-8 -6v-129q0 -20 10.5 -26.5t46.5 -9.5v-35h-241v35q27 3 36 4.5t16 9t7 24.5v491q0 44 -9 60q-10 21 -32 33.5t-45 12.5
q-75 0 -75 -139v-83h100q2 -36 -7 -55h-93v-311q0 -28 11 -35.5t59 -12.5v-34z" />
    <glyph glyph-name="f_l" unicode="fl" horiz-adv-x="573" 
d="M278 0h-260v34q40 4 52.5 12t12.5 33v314h-54v29q32 9 54 31q0 59 26 116t69 91q62 48 137 48q64 0 108 -22q32 5 59 22h17q-5 -120 -5 -121v-511q0 -24 9.5 -31t48.5 -10v-35h-242v35q38 2 48.5 10t10.5 35v483q2 42 -9 61q-10 21 -32 33.5t-45 12.5q-75 0 -75 -139v-83
h100q2 -36 -7 -55h-93v-311q0 -28 11 -35.5t59 -12.5v-34z" />
    <glyph glyph-name="f_t" unicode="ft" horiz-adv-x="636" 
d="M286 0h-268v34q43 4 54 11t11 34v318h-54v30q40 12 54 26q0 65 32 127.5t76 92.5q52 35 109 35q71 0 71 -41q0 -25 -18.5 -44.5t-36.5 -19.5q-15 0 -33 20q-33 38 -46 38q-29 0 -29 -107v-106h164q36 72 80 125h56q-12 -68 -14 -125h120q4 -30 -7 -52h-114v-286
q0 -23 14 -40t42 -17q36 0 70 23v-32q-50 -54 -126 -54q-125 0 -125 130v277h-160v-318q0 -28 13 -34.5t65 -10.5v-34z" />
    <glyph glyph-name="f_f_b" unicode="ffb" horiz-adv-x="1138" 
d="M208 448h160q0 66 27 128q-10 34 -36.5 55t-58.5 21q-92 0 -92 -164v-40zM270 0h-252v34q43 4 54 11t11 34v320h-54v28q43 15 54 26q0 47 23.5 100.5t71.5 87.5q62 46 142 46q89 0 135 -39q27 27 69 43.5t81 16.5q65 0 105 -22q28 2 57 22h16q-3 -117 -3 -175v-119
q70 46 132 46q80 0 133 -55q54 -59 54 -160q0 -126 -98 -203q-32 -26 -77 -40t-83 -14q-56 0 -131 26q-20 -4 -43 -15l-13 8q0 14 0.5 66.5t0.5 79.5v387q0 72 -7 85q-22 45 -73 45q-83 0 -83 -160v-62h101q4 -27 -6 -49h-94v-320q0 -28 10 -35t56 -10v-34h-252v34
q39 4 50 11t11 34v320h-160v-320q0 -27 10.5 -34t51.5 -11v-34zM780 336v-184q0 -61 14 -83q27 -41 69 -41q35 0 58 26q44 56 44 166q0 96 -33 141q-31 42 -80 42q-32 0 -54 -15q-12 -7 -15 -15.5t-3 -36.5z" />
    <glyph glyph-name="f_f_h" unicode="ffh" horiz-adv-x="1135" 
d="M208 448h160q0 66 27 128q-10 34 -36.5 55t-58.5 21q-92 0 -92 -164v-40zM270 0h-252v34q43 4 54 11t11 34v320h-54v28q45 16 54 26q0 47 23.5 100.5t71.5 87.5q62 46 142 46q89 0 135 -39q27 27 69 43.5t81 16.5q65 0 105 -22q28 2 57 22h16q-3 -117 -3 -168v-141
q63 61 136 61q56 0 90 -32q50 -46 50 -137v-217q0 -6 0.5 -10.5t2.5 -8t3 -6t5 -4.5l6 -3t8 -2t8.5 -1.5t11 -1.5t11.5 -1v-36h-242v36q28 2 36 4q16 3 20.5 17t4.5 68v181q0 49 -26 72q-19 17 -49 17q-40 0 -62 -21q-9 -8 -11.5 -16.5t-2.5 -31.5v-257q0 -7 1.5 -12t5 -8
t6 -5.5t9 -4t9.5 -2t12.5 -1.5t13.5 -1v-35h-239v35q20 1 29.5 3t18.5 9.5t9 22.5v476q0 66 -7 79q-22 45 -73 45q-83 0 -83 -160v-62h101q4 -28 -6 -49h-94v-320q0 -28 10 -35t56 -10v-34h-252v34q39 4 50 11t11 34v320h-160v-320q0 -27 10.5 -34t51.5 -11v-34z" />
    <glyph glyph-name="f_f_j" unicode="ffj" horiz-adv-x="852" 
d="M209 448h162q0 75 23 123q-13 8 -34 37q-3 5 -8 13.5t-9 13.5t-8 9q-13 10 -34 10q-92 0 -92 -152v-54zM270 0h-252v34q43 4 54 11t11 34v320h-54v28q45 16 54 26q0 50 23.5 104t71.5 88q59 45 146 45q96 0 134 -38q25 26 66.5 41t87.5 15q84 0 123 -28t39 -63
q0 -30 -19.5 -48t-48.5 -18q-44 0 -50 49q-5 53 -20 63q-12 10 -42 10q-98 0 -98 -176v-49h187q16 0 53 3.5t46 6.5q-2 -42 -2 -99v-287q0 -93 -16 -130q-15 -35 -40.5 -67t-53 -54.5t-45 -34.5t-33.5 -21l-21 28q47 39 66 78t19 96v406q0 14 -5.5 20t-20.5 6h-137v-320
q0 -28 10 -35t53 -10v-34h-248v34q39 4 50 11t11 34v320h-161v-320q0 -27 10.5 -34t51.5 -11v-34z" />
    <glyph glyph-name="f_f_k" unicode="ffk" horiz-adv-x="1106" 
d="M208 448h160q0 66 27 128q-10 34 -36.5 55t-58.5 21q-92 0 -92 -164v-40zM559 0h-252v34q39 4 50 11t11 34v320h-160v-320q0 -27 10.5 -34t51.5 -11v-34h-252v34q43 4 54 11t11 34v320h-54v28q43 15 54 26q0 47 23.5 100.5t71.5 87.5q62 46 142 46q89 0 135 -39
q27 27 69 43.5t81 16.5q65 0 105 -22q28 2 57 22h16q-3 -117 -3 -168v-305q48 35 122 109q35 37 35 49q0 8 -17 13q-11 3 -50 7v35h218v-35q-22 -1 -42 -6q-25 -6 -59 -33q-45 -37 -88 -82q-4 -4 -1 -8q20 -33 73 -108t79 -108q14 -18 28.5 -24.5t44.5 -8.5v-35h-252v35
q41 3 41 13q0 4 -5 12q-37 64 -98 153q-2 3 -9 1l-12 -8l-8 -6v-129q0 -20 10.5 -26.5t46.5 -9.5v-35h-241v35q27 3 36 4.5t16 9t7 24.5v473q0 66 -7 79q-22 45 -73 45q-83 0 -83 -160v-62h101q4 -28 -6 -49h-94v-320q0 -28 10 -35t56 -10v-34z" />
    <glyph glyph-name="f_f_t" unicode="fft" horiz-adv-x="922" 
d="M274 0h-255v34q42 4 53.5 11t11.5 34v320h-54v28q46 17 54 26q0 60 28.5 116t72.5 86q53 35 106 35q73 0 73 -41q0 -25 -18.5 -44.5t-36.5 -19.5q-14 0 -32 20q-33 38 -46 38q-30 0 -26 -100l3 -95h161q3 66 31.5 126t78.5 95q54 39 112 39q34 0 54 -12t20 -34t-18.5 -44
t-39.5 -22q-18 0 -35 18q-1 1 -9.5 10.5t-14.5 14.5q-13 12 -26 12q-32 0 -32 -90q0 -16 1 -59t1 -54h165q37 74 80 124h56q-12 -68 -14 -124h120q3 -26 -7 -49h-114v-289q0 -23 14 -40t42 -17q36 0 70 23v-32q-50 -54 -126 -54q-125 0 -125 130v279h-160v-320
q0 -27 14.5 -34.5t66.5 -10.5v-34h-270v34q39 2 52 10t13 35v320h-161v-320q0 -28 11 -34.5t55 -10.5v-34z" />
    <glyph glyph-name="longs_b" unicode="&#x17f;b" horiz-adv-x="845" 
d="M288 0h-270v36q40 3 52.5 10.5t12.5 32.5v314h-54v29q33 9 54 32q0 57 25 114t70 92q61 48 136 48q57 0 102 -21q29 2 59 21h17l-5 -120v-174q72 46 133 46q81 0 132 -56q55 -58 55 -159q0 -126 -98 -203q-32 -26 -77 -40t-83 -14q-59 0 -132 26q-20 -4 -43 -15l-13 8
q0 14 0.5 66.5t0.5 79.5v413q0 43 -9 60q-21 41 -70 41q-75 0 -75 -139v-446q0 -28 13 -35t67 -11v-36zM487 336v-185q0 -56 15 -83q26 -40 69 -40q35 0 58 26q44 54 44 166q0 94 -33 141q-33 42 -81 42q-34 0 -54 -14q-12 -8 -15 -16.5t-3 -36.5z" />
    <glyph glyph-name="longs_h" unicode="&#x17f;h" horiz-adv-x="842" 
d="M273 0h-255v36q40 3 52.5 10.5t12.5 32.5v314h-54v29q36 12 54 32q0 58 24.5 114.5t70.5 91.5q61 48 135 48q64 0 103 -21q29 2 59 21h17l-5 -120v-189q63 61 136 61q56 0 90 -32q50 -46 50 -137v-217q0 -6 0.5 -10.5t2.5 -8t3 -6t5 -4.5l6 -3t8 -2t8.5 -1.5t11 -1.5
t11.5 -1v-36h-242v36q28 2 36 4q16 3 20.5 17t4.5 69v180q0 49 -26 72q-19 17 -49 17q-40 0 -62 -21q-14 -11 -14 -48v-257q0 -7 1.5 -12t5 -8t6 -5.5t9 -4t9.5 -2t13 -1.5t13 -1v-35h-239v35q20 1 29.5 3t18.5 9.5t9 22.5v493q0 43 -10 61q-21 44 -69 44q-42 0 -58.5 -36
t-16.5 -102v-448q0 -27 11.5 -34.5t53.5 -11.5v-36z" />
    <glyph glyph-name="longs_i" unicode="&#x17f;i" horiz-adv-x="570" 
d="M271 0h-253v36q43 3 54 9.5t11 31.5v320h-54v30q12 3 30 12t24 15q2 60 29.5 119.5t77.5 93.5q60 41 133 41q87 0 123 -29.5t36 -64.5q0 -28 -21 -45.5t-46 -17.5q-26 0 -36 13t-15 36q-1 6 -2.5 13.5t-2 11.5t-1.5 9.5t-2 8.5t-2 6.5t-1.5 5t-2 4t-2.5 3.5t-3 2
q-16 10 -41 10q-96 0 -96 -177v-424q0 -22 12.5 -29t50.5 -9v-35zM547 0h-242v36q42 4 51 10t9 31v233q0 35 -2 44.5t-10 15.5q-13 9 -41 20v29q86 5 171 41l8 -5q-1 -17 -1 -139v-238q0 -26 9 -32.5t48 -10.5v-35z" />
    <glyph glyph-name="longs_k" unicode="&#x17f;k" horiz-adv-x="812" 
d="M273 0h-255v36q40 3 52.5 10.5t12.5 32.5v314h-54v29q33 9 54 32q0 58 24.5 114.5t70.5 91.5q61 48 135 48q64 0 103 -21q29 2 59 21h17l-5 -120v-353q48 35 122 109q35 37 35 49q0 8 -17 12q-16 5 -50 8v35h218v-35q-22 -1 -42 -6q-25 -6 -59 -33q-55 -47 -86 -81
q-4 -4 -2 -8q22 -36 73.5 -111t75.5 -106q14 -18 28.5 -24.5t44.5 -8.5v-35h-252v35q41 3 41 13q0 5 -5 12q-38 67 -97 152q-3 5 -9 1q-2 -1 -6 -4t-8 -5.5t-5 -3.5v-129q0 -20 10.5 -26.5t46.5 -9.5v-35h-241v35q27 3 36 4.5t16 9t7 24.5v490q0 43 -10 61q-21 44 -69 44
q-75 0 -75 -139v-447q0 -27 11.5 -34.5t53.5 -11.5v-36z" />
    <glyph glyph-name="longs_l" unicode="&#x17f;l" horiz-adv-x="567" 
d="M273 0h-255v36q40 3 52.5 10.5t12.5 32.5v314h-54v29q36 12 54 32q0 58 24.5 114.5t70.5 91.5q61 48 135 48q64 0 103 -21q29 2 59 21h17l-5 -120v-511q0 -25 9.5 -32t48.5 -10v-35h-242v35q38 2 48.5 10t10.5 35v483q0 43 -10 61q-21 44 -69 44q-42 0 -58.5 -36.5
t-16.5 -104.5v-445q0 -27 11.5 -34.5t53.5 -11.5v-36z" />
    <glyph glyph-name="longs_longs" unicode="&#x17f;&#x17f;" horiz-adv-x="573" 
d="M273 0h-255v34q43 4 54 11t11 34v320h-54v29q41 12 54 25q0 60 30.5 116t74.5 86q53 35 106 35q72 0 72 -41q0 -25 -18 -44t-36 -19q-15 0 -32 19q-33 38 -46 38q-14 0 -20 -21t-6 -79v-464q0 -27 10 -33.5t46 -10.5q6 -1 9 -1v-34zM559 0h-256v34q39 2 52 10t13 35v320
h-54v28q41 12 54 25q3 64 32.5 122.5t80.5 94.5q54 39 112 39q34 0 54 -12t20 -34t-18.5 -44t-39.5 -22q-18 0 -35 18q-1 1 -9.5 10.5t-14.5 14.5q-13 12 -26 12q-31 0 -31 -89v-483q0 -28 10 -34.5t56 -10.5v-34z" />
    <glyph glyph-name="longs_longs_i" unicode="&#x17f;&#x17f;i" horiz-adv-x="861" 
d="M270 0h-252v34q43 4 54 11t11 34v319h-54v29q42 12 54 26q0 49 24 103t72 89q59 45 144 45q95 0 133 -38q61 56 156 56q84 0 123 -28t39 -63q0 -30 -19.5 -48t-47.5 -18q-45 0 -51 49q-5 53 -20 63q-12 10 -42 10q-101 0 -101 -185v-409q0 -28 10 -35t53 -10v-34h-249v34
q39 4 50 11t11 34v319h-54v29q42 12 54 26q0 64 25 116q-24 13 -35 39q-14 28 -23 36q-13 10 -35 10q-39 0 -65.5 -38.5t-26.5 -129.5v-407q0 -27 10.5 -34t51.5 -11v-34zM838 0h-247v36q44 3 54.5 9.5t10.5 31.5v233q0 35 -2 44.5t-10 15.5q-13 9 -41 20v29q87 5 172 41
l8 -5q-2 -34 -2 -139v-238q0 -26 9 -32.5t48 -10.5v-35z" />
    <glyph glyph-name="longs_longs_l" unicode="&#x17f;&#x17f;l" horiz-adv-x="860" 
d="M270 0h-252v34q43 4 54 11t11 34v320h-54v29q41 12 54 25q0 46 24.5 99.5t71.5 88.5q62 46 141 46q89 0 135 -39q27 27 69 43.5t81 16.5q65 0 105 -22q30 2 57 22h16q-4 -156 -4 -168v-471q0 -14 8.5 -21.5t17.5 -9t32 -3.5v-35h-241v35q20 1 30 3t19.5 9.5t9.5 22.5v476
q0 66 -7 79q-22 45 -73 45q-82 0 -82 -160v-431q0 -28 9.5 -35t54.5 -10v-34h-250v34q39 4 50 11t11 34v320h-54v29q41 12 54 25q0 61 27 123q-10 34 -36.5 55t-58.5 21q-92 0 -92 -163v-410q0 -27 10.5 -34t51.5 -11v-34z" />
    <glyph glyph-name="gamma_gamma" unicode="&#x3b3;&#x3b3;" horiz-adv-x="971" 
d="M-11 373v33q70 54 128 54q39 0 64.5 -26t47.5 -92q57 -172 69 -254q7 17 20 50q22 55 33.5 82.5t32 73t36.5 69t37.5 49.5t44 37t47.5 11q35 0 56.5 -19.5t51.5 -76.5q29 -55 59.5 -141.5t44.5 -144.5q44 81 65.5 132t21.5 91q0 9 -2 17.5t-4.5 13.5l-6.5 13l-6 12
q-2 5 -5.5 11.5t-5 10t-3 8.5t-1.5 11q0 22 18.5 42t51.5 20q54 0 54 -81q0 -50 -32 -119t-75.5 -139.5t-53.5 -93.5q-7 -15 -6 -28q1 -12 5.5 -47.5t7 -67t2.5 -56.5q0 -28 -24.5 -41t-56.5 -13q-33 0 -44 8.5t-11 32.5q0 46 35 154q2 8 2.5 19t-0.5 14q-7 38 -50.5 130
t-89.5 167q-18 29 -29.5 41t-25.5 12q-30 0 -88 -117q-35 -68 -90 -204q-6 -16 -5 -29q13 -140 13 -173t-29 -49.5t-62 -16.5q-29 0 -41.5 8t-12.5 31q0 49 45 171q3 7 3.5 18.5t-0.5 13.5q-10 47 -48.5 144t-80.5 168q-35 59 -63 62q-16 2 -44 -6z" />
    <glyph glyph-name="lambda_lambda" unicode="&#x3bb;&#x3bb;" horiz-adv-x="962" 
d="M150 0h-142q3 7 80.5 172.5t102.5 212.5q13 24 25 42.5t19.5 28.5t8.5 11q-16 37 -22.5 50.5t-23 39t-34.5 35.5t-41 10q-51 0 -101 -39l-19 20q21 50 52.5 81.5t70.5 31.5q47 0 77 -44t81 -173q119 -304 134 -339q32 -76 44 -76q10 0 49 82q20 38 60 121.5t56 114.5
q14 26 27 45t19.5 27t7.5 10q-18 45 -32.5 73.5t-41 53t-57.5 24.5q-56 0 -102 -43l-19 19q47 117 129 117q50 0 82 -44t82 -186q101 -290 141 -367q17 -30 28 -39t28 -9q20 0 41 11l8 -24q-32 -63 -87 -63q-47 -2 -75 74q-24 64 -87 292q-15 -32 -59.5 -142.5t-72.5 -168.5
q-13 -29 -25.5 -35.5t-42.5 -6.5h-66q-27 0 -38.5 11t-28.5 51q-16 38 -52.5 142.5t-46.5 137.5q-31 -83 -137 -342z" />
    <glyph glyph-name=".notdef" horiz-adv-x="500" 
d="M0 0v700h500v-700h-500zM250 395l170 255h-340zM280 350l170 -255v510zM80 50h340l-170 255zM50 605v-510l170 255z" />
    <glyph glyph-name=".null" horiz-adv-x="0" 
 />
    <glyph glyph-name="nonmarkingreturn" horiz-adv-x="333" 
 />
    <glyph glyph-name="space" unicode=" " horiz-adv-x="203" 
 />
    <glyph glyph-name="exclam" unicode="!" horiz-adv-x="354" 
d="M221 203h-34q-9 87 -39.5 202t-30.5 157q0 40 25 66t61 26q39 0 60.5 -26.5t21.5 -69.5q0 -39 -27.5 -152.5t-36.5 -202.5zM202 -12q-27 0 -50.5 20.5t-23.5 56.5q0 33 21.5 57t53.5 24q33 0 54 -23.5t21 -56.5q0 -38 -24 -58t-52 -20z" />
    <glyph glyph-name="quotedbl" unicode="&#x22;" horiz-adv-x="420" 
d="M140 433h-30q-33 185 -42 241v18q33 10 57 10q28 0 58 -9v-18q-21 -138 -43 -242zM309 433h-31q-23 142 -41 241v18q33 10 58 10q27 0 57 -9v-18q-22 -139 -43 -242z" />
    <glyph glyph-name="numbersign" unicode="#" horiz-adv-x="522" 
d="M457 395h-85l-31 -133h93l-23 -81h-89l-43 -180h-41l43 180h-113l-44 -180h-43l44 180h-89l22 81h87l32 133h-91l22 81h89l40 162h41l-39 -162h112l38 162h41l-38 -162h90zM300 262l31 133h-112l-32 -133h113z" />
    <glyph glyph-name="dollar" unicode="$" horiz-adv-x="506" 
d="M266 238l-23 -206q50 -5 79 22.5t29 73.5q0 35 -17.5 59.5t-67.5 50.5zM249 387l22 203q-54 1 -81 -27t-27 -67q0 -36 17.5 -60t68.5 -49zM36 196l31 9q52 -146 141 -170l24 216q-97 49 -135.5 89t-38.5 111q0 77 57.5 126.5t159.5 46.5l11 86h35l-10 -89q22 -2 72 -19
q8 4 26 20h22q0 -10 25 -177l-33 -7q-15 57 -46.5 97t-70.5 51l-22 -212q101 -48 140 -89t39 -110q0 -81 -63 -131.5t-160 -46.5l-10 -97h-37l12 99q-36 3 -82 14q-27 7 -52 2q-1 12 -35 181z" />
    <glyph glyph-name="percent" unicode="%" horiz-adv-x="817" 
d="M634 662l33 -24l-473 -672l-31 24l406 577q-53 -30 -129 -30q-43 0 -83 9q19 -36 19 -88q0 -79 -44 -131t-123 -52q-75 0 -119 47.5t-44 129.5q0 80 42.5 131.5t126.5 51.5q43 0 91 -23q74 -38 137 -38t106 16.5t74 55.5zM209 603q-60 0 -60 -147q3 -147 63 -147t60 148
q0 82 -15.5 114t-47.5 32zM616 346q66 0 113.5 -44.5t47.5 -134.5q0 -80 -44.5 -130t-123.5 -50q-76 0 -118.5 49t-42.5 132q0 73 44 125.5t124 52.5zM610 314q-60 0 -58 -147q1 -148 63 -148q58 0 58 148q0 81 -16 114t-47 33z" />
    <glyph glyph-name="ampersand" unicode="&#x26;" horiz-adv-x="771" 
d="M300 402q84 59 84 132q0 40 -17.5 63.5t-47.5 23.5q-32 0 -51 -23.5t-19 -60.5q0 -64 51 -135zM730 393v-33q-49 -6 -69 -15.5t-43 -39.5q-10 -13 -27 -36t-41.5 -56t-39.5 -53q100 -90 158 -90q30 0 65 14v-29q-60 -68 -155 -68q-35 0 -67 13t-51 27.5t-46 39.5
q-26 -25 -45 -39.5t-53 -27t-73 -12.5q-92 0 -143.5 54t-51.5 128q0 52 31.5 89t112.5 85q-45 72 -45 146q0 64 46.5 114t128.5 50q71 0 111.5 -36.5t40.5 -87.5q0 -18 -4 -33.5t-16 -29.5t-21.5 -23t-33 -23t-36 -21t-45.5 -24q73 -102 165 -189q62 82 78 127
q9 24 -3.5 30.5t-64.5 12.5v36h237zM209 315q-35 -41 -35 -108t34 -109t90 -42q46 0 90 35q-71 68 -179 224z" />
    <glyph glyph-name="quotesingle" unicode="'" horiz-adv-x="256" 
d="M143 433h-31q-4 27 -44 241v18q26 10 60 10q40 0 60 -9v-18q-29 -165 -45 -242z" />
    <glyph glyph-name="parenleft" unicode="(" horiz-adv-x="391" 
d="M324 717l16 -26q-171 -158 -171 -407q0 -142 42 -244t127 -181l-17 -27q-121 65 -192.5 182t-71.5 265q0 137 72 252t195 186z" />
    <glyph glyph-name="parenright" unicode=")" horiz-adv-x="392" 
d="M69 -168l-16 25q170 158 170 408q0 142 -42 244.5t-127 181.5l17 26q122 -68 193 -182.5t71 -264.5q0 -136 -72 -251.5t-194 -186.5z" />
    <glyph glyph-name="asterisk" unicode="*" horiz-adv-x="420" 
d="M195 515q6 29 3 68.5t0 52.5q5 19 20 27.5t32 4.5q19 -5 28 -20.5t2 -35.5q-6 -16 -29.5 -45.5t-30.5 -54.5l5 -6q29 10 59 31.5t42 25.5q23 7 38 -2t19 -27q4 -19 -7 -32.5t-29 -16.5q-14 -2 -46 1.5t-70 -1.5l-3 -9q18 -17 51.5 -31.5t48.5 -25.5q17 -13 17.5 -32.5
t-12.5 -33.5t-30.5 -12t-31.5 17t-26 47.5t-32 55.5l-6 -3q-5 -32 -2.5 -70t-1.5 -49q-5 -20 -21 -28t-32 -4q-39 12 -26 55q5 17 27.5 45t33.5 57l-5 4q-25 -6 -58.5 -29t-45.5 -27q-18 -6 -35 1t-22 26q-5 16 4 31.5t29 19.5q16 3 55 -1t66 0l2 8q-19 17 -53 33t-45 26
q-34 32 -10 62q10 14 30 14t36 -18q10 -11 24 -47.5t32 -55.5z" />
    <glyph glyph-name="plus" unicode="+" horiz-adv-x="636" 
d="M283 278v213h73v-213h206v-72h-206v-218h-73v218h-208v72h208z" />
    <glyph glyph-name="comma" unicode="," horiz-adv-x="278" 
d="M59 -149l-15 30q108 58 108 117q0 37 -75 50q-5 1 -10.5 10.5t-5.5 26.5q0 27 19.5 47t54.5 20t63 -28t28 -77q0 -39 -17 -73.5t-46 -58.5t-53 -38.5t-51 -25.5z" />
    <glyph glyph-name="hyphen" unicode="-" horiz-adv-x="341" 
d="M50 200v75h241v-75h-241z" />
    <glyph glyph-name="period" unicode="." horiz-adv-x="243" 
d="M120 -12q-29 0 -52 20.5t-23 56.5q0 34 22 57.5t56 23.5q32 0 53.5 -23.5t21.5 -56.5q0 -38 -24 -58t-54 -20z" />
    <glyph glyph-name="slash" unicode="/" horiz-adv-x="453" 
d="M391 682l-274 -762h-55l273 762h56z" />
    <glyph glyph-name="zero" unicode="0" horiz-adv-x="506" 
d="M249 599q-32 0 -49 -33q-31 -56 -31 -241q0 -176 28 -249q20 -54 60 -54q33 0 50 36q30 60 30 249q0 214 -40 267q-19 25 -48 25zM255 634q62 0 103 -28q56 -39 82.5 -118t26.5 -172q0 -91 -24.5 -168.5t-75.5 -119.5q-50 -40 -116 -40q-73 0 -120 44q-47 41 -70 116.5
t-23 164.5q0 87 25 162.5t76 117.5q53 41 116 41z" />
    <glyph glyph-name="one" unicode="1" horiz-adv-x="506" 
d="M97 0v36q66 5 82 13t16 38v351q0 58 -1.5 74t-7.5 23q-13 13 -72 19v30q120 10 195 50h17q-3 -51 -3 -189v-359q0 -30 14.5 -38t75.5 -12v-36h-316z" />
    <glyph glyph-name="two" unicode="2" horiz-adv-x="506" 
d="M38 0l8 41q105 87 171 166q83 101 83 208q0 52 -25.5 93t-83.5 41q-38 0 -66 -18.5t-62 -64.5l-25 20q77 148 210 148q78 0 126.5 -52t48.5 -133q0 -64 -31.5 -116.5t-91.5 -112.5q-19 -19 -134 -118h194q32 0 60 25q28 24 56 64l27 -13q-40 -78 -73 -181q-3 0 -48.5 1.5
t-89.5 1.5h-254z" />
    <glyph glyph-name="three" unicode="3" horiz-adv-x="506" 
d="M169 283l1 30q71 30 105 65t34 81q0 39 -25 68.5t-73 29.5q-42 0 -72 -17.5t-59 -55.5l-21 21q79 129 200 129q77 0 120 -41.5t43 -92.5q0 -95 -128 -147q30 -3 56.5 -12t53 -25.5t42.5 -46.5t16 -70q0 -90 -72 -152q-74 -62 -166 -62q-86 0 -136 36q-38 26 -38 57
q0 19 18.5 36t40.5 17q15 0 25.5 -13.5t23.5 -60.5q6 -22 20 -30t45 -8q53 0 83 40t30 98q0 68 -34 100t-92 32q-18 0 -41 -6z" />
    <glyph glyph-name="four" unicode="4" horiz-adv-x="506" 
d="M393 0h-128q2 98 2 168h-242l5 36q41 65 157 227t149 197h55v-404q49 0 109 4q-14 -36 -16 -61q-27 1 -93 1q0 -70 2 -168zM267 224v263q-95 -124 -179 -263h179z" />
    <glyph glyph-name="five" unicode="5" horiz-adv-x="506" 
d="M189 619h193q56 0 82 9l7 -9q-34 -51 -52 -112h-224q-4 0 -6 -4q-14 -25 -30 -78q0 -6 5 -6q85 -24 125 -37q90 -29 130 -69.5t40 -109.5q0 -114 -104 -179q-56 -36 -127 -36q-84 0 -141 41q-37 27 -37 57q0 17 19.5 34t43.5 17q17 0 27 -14.5t19 -56.5q5 -26 21 -33
q20 -10 49 -10q48 0 75 26q39 34 39 93q0 55 -32.5 88.5t-115.5 63.5q-10 4 -108 32v14q18 42 54.5 140t47.5 139z" />
    <glyph glyph-name="six" unicode="6" horiz-adv-x="506" 
d="M444 638l5 -36q-111 -22 -178.5 -87t-89.5 -161q60 50 127 50q64 0 105 -40q59 -56 59 -147q0 -92 -59.5 -160.5t-151.5 -68.5q-106 0 -165 70.5t-59 182.5q0 150 112.5 264t294.5 133zM251 348q-39 0 -61 -22q-15 -13 -20 -40q-4 -23 -4 -61q0 -50 8 -92.5t31 -76.5
t59 -34q82 0 82 160q0 101 -37 142q-21 24 -58 24z" />
    <glyph glyph-name="seven" unicode="7" horiz-adv-x="506" 
d="M213 0h-74q184 314 261 507h-251q-21 0 -31 -5.5t-24 -23.5q-12 -16 -32 -51l-30 11q35 101 45 184q63 -3 108 -3h287l2 -11q-5 -38 -44 -128q-90 -214 -217 -480z" />
    <glyph glyph-name="eight" unicode="8" horiz-adv-x="506" 
d="M199 278q-54 -42 -54 -119q0 -55 29 -96t82 -41q40 -1 65 26.5t25 70.5q0 44 -27.5 78t-119.5 81zM46 147q0 87 125 147q-58 38 -82 77.5t-24 89.5q0 75 57.5 124t136.5 49t129.5 -40.5t50.5 -106.5q0 -46 -25.5 -77.5t-83.5 -64.5q75 -43 101.5 -83.5t26.5 -91.5
q0 -80 -62.5 -131t-148.5 -51q-79 0 -140 42t-61 117zM302 360q52 52 52 121q0 50 -25.5 84t-75.5 34q-40 0 -63.5 -28t-23.5 -63q0 -45 27.5 -75.5t108.5 -72.5z" />
    <glyph glyph-name="nine" unicode="9" horiz-adv-x="506" 
d="M93 -19l-8 34q60 19 104.5 48t71.5 67t42.5 70.5t27.5 74.5q-54 -47 -121 -47q-81 0 -128 55.5t-47 132.5q0 92 61.5 155t157.5 63q102 0 160 -70t58 -181q0 -165 -108.5 -272t-270.5 -130zM344 403q0 28 -3.5 56.5t-12.5 62.5t-30.5 55.5t-52.5 21.5q-43 0 -64 -43.5
t-21 -102.5q0 -105 47 -147q26 -23 60 -23t54 15q16 14 18 38q5 35 5 67z" />
    <glyph glyph-name="colon" unicode=":" horiz-adv-x="329" 
d="M164 -12q-29 0 -52.5 19.5t-23.5 56.5q0 34 22 56.5t56 22.5q33 0 54 -22.5t21 -55.5q0 -38 -23.5 -57.5t-53.5 -19.5zM164 282q-29 0 -52.5 19.5t-23.5 56.5q0 34 22 56.5t56 22.5q33 0 54 -22.5t21 -55.5q0 -39 -23.5 -58t-53.5 -19z" />
    <glyph glyph-name="semicolon" unicode=";" horiz-adv-x="330" 
d="M164 282q-28 0 -51.5 19.5t-23.5 56.5q0 34 21.5 56.5t55.5 22.5q33 0 54 -22.5t21 -55.5q0 -39 -23.5 -58t-53.5 -19zM81 -149l-16 30q109 58 109 117q0 37 -75 51q-5 1 -10.5 10.5t-5.5 26.5q0 27 19.5 46.5t54.5 19.5t63 -27.5t28 -77.5q0 -39 -17 -73.5t-46 -58.5
t-53 -38.5t-51 -25.5z" />
    <glyph glyph-name="less" unicode="&#x3c;" horiz-adv-x="636" 
d="M551 65v-83l-467 225v64l467 224v-82l-372 -170z" />
    <glyph glyph-name="equal" unicode="=" horiz-adv-x="636" 
d="M562 377v-74h-487v74h487zM562 173v-72h-487v72h487z" />
    <glyph glyph-name="greater" unicode="&#x3e;" horiz-adv-x="636" 
d="M84 413v82l467 -224v-64l-467 -225v83l372 170z" />
    <glyph glyph-name="question" unicode="?" horiz-adv-x="420" 
d="M219 202h-28q-37 67 -37 116q0 21 23 42q17 15 64.5 39.5t50.5 26.5q30 17 30 51q0 27 -20 60t-48 33q-24 0 -62 -31q-29 -21 -43 -21q-29 0 -46 21.5t-17 45.5q0 32 28 50.5t63 18.5q81 0 136 -65.5t55 -153.5q0 -50 -12.5 -80.5t-25.5 -40.5t-29 -20t-37.5 -21
t-28.5 -15q-13 -8 -15 -17q-3 -18 -1 -39zM209 -12q-29 0 -52 20.5t-23 56.5q0 35 21 58t56 23q32 0 53.5 -23.5t21.5 -56.5q0 -38 -23.5 -58t-53.5 -20z" />
    <glyph glyph-name="at" unicode="@" horiz-adv-x="894" 
d="M652 -82l15 -29q-51 -43 -123 -65t-147 -22q-91 0 -166 37.5t-122.5 116.5t-47.5 186q0 198 130 329t321 131q148 0 237 -86.5t89 -203.5q0 -139 -84 -221t-200 -82q-85 0 -58 100q8 27 18 62q-45 -78 -113 -129q-44 -33 -86 -33q-29 0 -44 23.5t-15 61.5q0 66 31 136.5
t86 120.5q56 53 120 53q57 0 73 -41l14 41h96q-42 -118 -84 -282q-10 -44 -6 -56.5t23 -12.5q62 0 120 69t58 185q0 114 -80.5 184.5t-198.5 70.5q-172 0 -274 -120t-102 -293q0 -129 72 -215t213 -86q135 0 235 70zM553 335q-12 31 -45 31q-39 0 -84 -68
q-27 -43 -46.5 -101.5t-19.5 -94.5q0 -31 20 -31q23 0 65.5 46t75.5 118q27 57 34 100z" />
    <glyph glyph-name="A" unicode="A" horiz-adv-x="677" 
d="M-17 0v36q55 5 76.5 18t38.5 56q50 123 181 467q13 32 14 61h97l18 -50q33 -92 184 -489q15 -36 32 -46.5t67 -16.5v-36h-310v36l17 1q16 1 26 3q20 4 26 13t0 29q-19 55 -52 137h-210q-10 -26 -25 -69.5t-18 -51.5q-9 -28 -2.5 -39.5t35.5 -16.5q28 -5 50 -6v-36h-245z
M201 260h183l-91 250q-8 -23 -42.5 -114t-49.5 -136z" />
    <glyph glyph-name="B" unicode="B" horiz-adv-x="662" 
d="M254 319v-213q1 -36 14 -49q22 -21 67 -21q53 0 91 35.5t38 111.5q0 136 -154 136h-56zM254 562v-204h55q64 0 95.5 26.5t31.5 89.5q0 66 -33 97t-86 31q-45 0 -56 -13q-7 -7 -7 -27zM29 0v36q52 5 69.5 15t17.5 47v442q0 36 -17 47t-70 15v36h291q102 0 152 -16
q49 -16 75.5 -50t26.5 -81q0 -61 -42.5 -97.5t-107.5 -47.5q187 -26 187 -155q0 -91 -75.5 -141t-204.5 -50h-302z" />
    <glyph glyph-name="C" unicode="C" horiz-adv-x="686" 
d="M633 441l-32 -8q-38 113 -104 156q-43 27 -98 27q-65 0 -109 -41t-63 -104t-19 -143q0 -150 57.5 -226t153.5 -76q39 0 66 12q27 11 51.5 35t39.5 45t37 57l31 -15q-24 -50 -67 -158q-26 0 -54 -6q-64 -12 -109 -12q-73 0 -136.5 20.5t-114.5 60.5t-80 106.5t-29 152.5
q0 73 28.5 140.5t87.5 114.5q93 75 237 75q84 0 145 -27q20 6 37 21h24q-2 -60 20 -207z" />
    <glyph glyph-name="D" unicode="D" horiz-adv-x="737" 
d="M254 555v-432q1 -34 3 -45t10 -18q30 -24 76 -24q81 0 133 73q58 81 58 216q0 159 -83 232q-53 45 -124 45q-49 0 -64 -14q-9 -6 -9 -33zM29 0v36q49 4 68 15t19 47v442q0 36 -18.5 47.5t-68.5 14.5v36h307q118 0 191 -36q76 -35 116 -106.5t40 -156.5q0 -155 -106 -251
q-97 -88 -243 -88h-305z" />
    <glyph glyph-name="E" unicode="E" horiz-adv-x="643" 
d="M403 0h-384v36q60 4 78.5 15t18.5 47v442q0 37 -19 48t-68 14v36h364q94 0 150 6q2 -84 21 -181l-32 -9q-42 100 -90 130q-25 15 -63 15h-98q-17 0 -22 -6.5t-5 -25.5v-217h71q44 0 58 22.5t25 90.5h33q0 -8 -1.5 -54t-1.5 -76q0 -40 3 -136h-33q-15 73 -26 88
q-15 23 -57 23h-71v-194q0 -46 15 -60.5t69 -14.5h48q54 0 87 19q48 30 109 149l32 -10q-33 -100 -53 -200q-27 3 -158 3z" />
    <glyph glyph-name="F" unicode="F" horiz-adv-x="610" 
d="M352 0h-323v36q54 6 70.5 16t16.5 46v442q0 34 -18 47t-69 15v36h384q111 0 141 6q-5 -50 18 -191l-30 -7q-39 99 -86 134q-27 19 -71 19h-99q-18 0 -25 -7t-7 -27v-226h90q44 0 58 23t25 89h32q0 -5 -1.5 -48t-1.5 -78q0 -44 1.5 -91t1.5 -48h-32q-7 36 -11 52t-13 32.5
t-22.5 21.5t-36.5 5h-90v-200q0 -36 18.5 -47t79.5 -14v-36z" />
    <glyph glyph-name="G" unicode="G" horiz-adv-x="730" 
d="M684 306v-37q-1 0 -12 -1t-19 -2q-20 -4 -27 -14t-7 -29v-138q0 -16 6.5 -21.5t25.5 -10.5v-25q-5 -1 -34.5 -9.5t-47 -12t-47 -10t-59.5 -9t-60 -2.5q-169 0 -264 97q-85 88 -85 244q0 80 33.5 149t96.5 115q85 64 220 64q74 0 155 -27q32 15 38 20h26q0 -75 22 -207
l-30 -7q-37 103 -100 148q-45 35 -112 35q-96 0 -145.5 -78.5t-49.5 -208.5q0 -143 56 -229q53 -79 143 -79q34 0 49 8q23 11 23 47v140q0 23 -8 33.5t-30 14.5q-26 4 -57 6v36h300z" />
    <glyph glyph-name="H" unicode="H" horiz-adv-x="767" 
d="M342 0h-313v36q21 2 29.5 3t23 5t19.5 10t10 17t5 27v442q0 38 -16.5 48t-70.5 14v36h313v-36q-51 -4 -69 -15.5t-18 -46.5v-186h257v186q0 37 -18 48t-69 14v36h313v-36q-50 -4 -68.5 -15.5t-18.5 -46.5v-442q0 -36 19 -47.5t68 -14.5v-36h-313v36q51 4 69 15t18 47v215
h-257v-215q0 -36 22 -47.5t65 -14.5v-36z" />
    <glyph glyph-name="I" unicode="I" horiz-adv-x="371" 
d="M342 0h-313v36q52 4 69.5 16t17.5 46v442q0 20 -5 32t-18.5 18t-25.5 8t-38 4v36h313v-36q-49 -3 -68 -15t-19 -47v-442q0 -37 18.5 -48t68.5 -14v-36z" />
    <glyph glyph-name="J" unicode="J" horiz-adv-x="382" 
d="M47 602v36h312v-36q-45 -4 -63 -17t-18 -45v-345q0 -114 -25 -179q-33 -80 -104 -142q-79 -66 -136 -66q-38 0 -66 17.5t-28 40.5t20.5 45t41.5 22q10 0 52 -39q24 -21 41 -21q21 0 37 17q17 18 23.5 49t6.5 104v497q0 36 -19.5 48t-74.5 14z" />
    <glyph glyph-name="K" unicode="K" horiz-adv-x="708" 
d="M342 0h-313v36q53 5 70 16t17 46v442q0 35 -17 46.5t-70 15.5v36h313v-36q-50 -4 -69 -16t-19 -46v-232q103 82 208 219q25 33 25 50q0 10 -22 16q-10 3 -57 9v36h261v-37q-59 -6 -88.5 -21t-66.5 -56q-109 -117 -126 -136q-5 -6 2 -15q28 -42 105.5 -142.5t110.5 -137.5
q27 -31 51.5 -42t67.5 -15v-36h-318v36q33 4 42 8q21 7 0 37q-94 135 -156 208q-4 6 -9 1l-30 -23v-170q0 -34 18 -45.5t70 -15.5v-36z" />
    <glyph glyph-name="L" unicode="L" horiz-adv-x="628" 
d="M379 0h-360v36q59 5 78 15t19 47v442q0 37 -18.5 48.5t-68.5 13.5v36h313v-36q-48 -3 -67.5 -15t-19.5 -47v-429q0 -46 10.5 -59t51.5 -13h68q50 0 81 26q57 43 110 150l32 -11q-44 -134 -64 -207q-129 3 -165 3z" />
    <glyph glyph-name="M" unicode="M" horiz-adv-x="888" 
d="M266 0h-256v36q57 5 74 19.5t19 65.5q9 207 13 435q0 25 -15.5 32.5t-74.5 13.5v36h216q56 -118 210 -442q11 28 87.5 195.5t108.5 246.5h207v-36q-49 -3 -68 -15t-19 -47v-442q0 -20 4.5 -31.5t18.5 -17.5t25 -8t39 -5v-36h-313v36q55 5 71.5 16.5t17.5 46.5
q7 329 7 420q-155 -349 -223 -519h-34q-55 142 -226 522q-2 -98 -2 -401q0 -50 21 -64t92 -21v-36z" />
    <glyph glyph-name="N" unicode="N" horiz-adv-x="721" 
d="M274 0h-257v36q66 5 82.5 24t17.5 88v385q0 33 -13 44q-21 18 -83 25v36h201l351 -467v315q0 72 -18.5 91t-98.5 26v35h257v-35q-63 -8 -80 -27.5t-17 -89.5v-380q0 -72 4 -107h-93q-45 65 -67 96l-300 414v-361q1 -68 21 -87t93 -25v-36z" />
    <glyph glyph-name="O" unicode="O" horiz-adv-x="756" 
d="M381 -16q-129 0 -220 78q-50 44 -78.5 112t-28.5 145q0 172 121 268q83 67 201 67q152 0 238.5 -95.5t86.5 -237.5q0 -124 -69 -217q-42 -55 -106.5 -87.5t-144.5 -32.5zM393 22q54 0 88 38q67 71 67 246q0 163 -62 247q-45 63 -118 63q-53 0 -90 -34q-70 -67 -70 -246
q0 -157 58 -242q48 -72 127 -72z" />
    <glyph glyph-name="P" unicode="P" horiz-adv-x="636" 
d="M255 562v-262q0 -8 6 -10q9 -3 37 -3q73 0 110 40t37 130q0 145 -128 145q-38 0 -51 -10q-11 -6 -11 -30zM348 0h-319v36q50 4 68.5 14.5t18.5 47.5v442q0 36 -19 47.5t-68 14.5v36h289q123 0 184 -33q88 -48 88 -148q0 -89 -66 -144q-74 -63 -226 -63q-29 0 -43 1v-153
q0 -36 16.5 -46.5t76.5 -15.5v-36z" />
    <glyph glyph-name="Q" unicode="Q" horiz-adv-x="756" 
d="M852 -138l-5 -35q-87 -23 -188 -23q-81 0 -159 58q-77 57 -130 99q-29 25 -84 38q-66 18 -119 60q-113 93 -113 260q0 172 118 266q85 69 202 69q145 0 236 -89.5t91 -244.5q0 -135 -80 -226q-51 -56 -115 -83q50 -49 101 -86q50 -38 84 -52.5t76 -15.5q47 0 85 5z
M369 616q-55 0 -93 -38q-68 -70 -68 -228q0 -206 87 -286q50 -44 109 -44q37 0 67 23q78 66 78 262q0 163 -60 244q-49 67 -120 67z" />
    <glyph glyph-name="R" unicode="R" horiz-adv-x="666" 
d="M255 550v-222h36q155 0 155 139q0 68 -32.5 101.5t-90.5 33.5q-51 0 -62 -16q-6 -10 -6 -36zM342 0h-313v36q21 2 30 3t23 5t19.5 10t10 17t4.5 27v442q0 36 -19 47.5t-68 14.5v36h296q122 0 175 -26q82 -41 82 -133q0 -119 -141 -161q31 -55 82.5 -135t82.5 -115
q17 -18 32.5 -24t49.5 -8v-36q-36 -2 -134 -2q-35 0 -58.5 10t-41.5 38q-44 65 -123 216q-16 32 -45 32h-31v-196q0 -36 20 -47.5t67 -14.5v-36z" />
    <glyph glyph-name="S" unicode="S" horiz-adv-x="545" 
d="M46 207l34 7q39 -114 108 -165q38 -26 81 -26q47 0 74.5 27.5t27.5 67.5q0 45 -24.5 73.5t-92.5 60.5q-111 53 -149 103t-38 118q0 72 54.5 126.5t159.5 54.5q59 0 126 -26q5 1 17.5 10t14.5 10h23q-2 -31 21 -207l-31 -8q-41 121 -106 163q-30 20 -69 20
q-43 0 -68.5 -25.5t-25.5 -69.5q0 -47 25.5 -75t98.5 -60q111 -49 150 -96.5t39 -116.5q0 -86 -65.5 -137.5t-164.5 -51.5q-47 0 -123 22q-17 4 -65 -6q-9 96 -32 207z" />
    <glyph glyph-name="T" unicode="T" horiz-adv-x="690" 
d="M508 0h-332v36q61 5 79 14.5t18 44.5v504h-66q-32 0 -54 -15q-47 -32 -85 -131l-32 8q21 137 20 187q54 -10 145 -10h284q90 0 146 10q-1 -39 19 -187l-32 -8q-38 98 -84 131q-22 15 -55 15h-68v-501q0 -37 20 -48t77 -14v-36z" />
    <glyph glyph-name="U" unicode="U" horiz-adv-x="712" 
d="M19 602v36h313v-36q-50 -3 -68.5 -15t-18.5 -47v-349q0 -29 4 -45q27 -104 151 -104q66 0 105.5 29.5t53.5 77.5q7 24 7 61v284q0 66 -19.5 83t-95.5 25v36h258v-36q-62 -5 -79.5 -25.5t-17.5 -82.5v-265q0 -47 -8 -82q-7 -29 -21.5 -55.5t-41 -52t-71.5 -40.5t-103 -15
q-197 0 -248 139q-13 34 -13 88v329q0 37 -19 48t-68 14z" />
    <glyph glyph-name="V" unicode="V" horiz-adv-x="653" 
d="M-11 602v36h319v-36q-36 -2 -61 -7q-28 -7 -19 -35q22 -67 78 -225t59 -166q117 277 148 360q12 35 6 48t-33 18q-19 4 -60 7v36h240v-36q-49 -6 -66 -17.5t-37 -54.5q-37 -82 -121 -277t-111 -266h-48q-22 74 -93.5 274t-105.5 284q-13 33 -31 43t-64 14z" />
    <glyph glyph-name="W" unicode="W" horiz-adv-x="953" 
d="M-10 602v36h301v-36q-4 -1 -19.5 -2.5t-25.5 -3.5q-36 -6 -26 -45q29 -113 105 -365q83 204 119 303q3 8 0 22q-16 58 -31 72t-68 19v36h300v-36q-28 -2 -51 -6q-20 -4 -24.5 -14t2.5 -31q17 -53 61 -184t60 -183q70 183 120 350q8 26 5 37q-7 23 -95 30q-5 1 -7 1v36
h250v-36q-46 -5 -69.5 -20.5t-37.5 -56.5q-18 -53 -95.5 -266.5t-96.5 -270.5h-49q-19 69 -150 451q-17 -44 -86.5 -219t-90.5 -232h-48q-48 195 -165 553q-10 33 -29.5 46t-58.5 15z" />
    <glyph glyph-name="X" unicode="X" horiz-adv-x="659" 
d="M-7 0v36q36 4 52.5 7t40 16t39.5 36q20 28 140 205q-70 128 -143 239q-23 37 -45.5 50t-67.5 14v35h317v-35q-22 -2 -43 -6q-30 -7 -17 -31q11 -20 94 -165q80 112 103 159q16 31 -16 37q-24 5 -48 6v35h235v-35q-42 -4 -71.5 -15t-49.5 -39q-31 -41 -129 -181
q129 -220 172 -286q17 -25 41.5 -34t64.5 -12v-36h-329v36q36 4 48 7q30 6 14 36q-48 90 -107 185q-85 -128 -113 -182q-15 -33 19 -39q5 -1 14 -2.5t18.5 -2.5t22.5 -2v-36h-256z" />
    <glyph glyph-name="Y" unicode="Y" horiz-adv-x="607" 
d="M462 0h-313v36q55 4 71 14t16 48v141q0 31 -15 61q-76 153 -126 235q-23 39 -43 50t-65 17v36h306v-35q-33 -5 -45 -7q-30 -5 -16 -30q77 -153 122 -240q75 135 116 230q15 32 -15 38q-34 6 -63 8v36h234v-36q-47 -5 -71 -18t-44 -49q-51 -88 -127 -237q-9 -17 -9 -54
v-146q0 -39 15.5 -48.5t71.5 -13.5v-36z" />
    <glyph glyph-name="Z" unicode="Z" horiz-adv-x="641" 
d="M398 0h-356v24q46 63 187 287.5t176 287.5h-168q-43 0 -67 -15q-42 -29 -101 -140l-32 11q34 104 48 191q38 -8 143 -8h242q58 0 100 2v-23q-194 -308 -360 -578h168q53 0 87 21q52 34 109 137l31 -13q-32 -76 -64 -188q-11 0 -35.5 1.5t-51 2t-56.5 0.5z" />
    <glyph glyph-name="bracketleft" unicode="[" horiz-adv-x="365" 
d="M176 632v-722q0 -16 4 -21.5t18 -5.5h112v-41h-228q2 58 2 171v514q0 125 -2 169h228v-40h-112q-15 0 -18.5 -4t-3.5 -20z" />
    <glyph glyph-name="backslash" unicode="\" horiz-adv-x="453" 
d="M336 -80l-274 762h56l273 -762h-55z" />
    <glyph glyph-name="bracketright" unicode="]" horiz-adv-x="364" 
d="M189 -94v722q0 16 -4 21.5t-18 5.5h-112v41h228q-2 -58 -2 -171v-514q0 -125 2 -169h-228v40h112q15 0 18.5 4t3.5 20z" />
    <glyph glyph-name="asciicircum" unicode="^" horiz-adv-x="516" 
d="M129 276h-79l171 361h65l181 -361h-80l-135 280z" />
    <glyph glyph-name="underscore" unicode="_" horiz-adv-x="492" 
d="M0 -123h492v-49h-492v49z" />
    <glyph glyph-name="grave" unicode="`" 
d="M256 521l-28 -15l-167 150l2 14q22 11 62 21t50 8z" />
    <glyph glyph-name="a" unicode="a" horiz-adv-x="477" 
d="M460 68v-33q-49 -48 -113 -48q-49 0 -70 55q-80 -55 -130 -55q-40 0 -69.5 32.5t-29.5 83.5q0 59 69 93q21 10 159 68q1 32 1 74q0 25 -21.5 46t-51.5 21q-17 0 -49 -20q-18 -11 -18 -17q0 -4 6 -16q15 -30 15 -42q0 -16 -23 -33t-41 -17q-23 0 -38.5 21t-15.5 44
q0 21 41 50q48 32 102.5 58.5t72.5 26.5q77 0 121 -64q18 -27 18 -103q0 -35 -0.5 -122t-0.5 -103q0 -15 18 -15q23 0 48 15zM276 233q-57 -25 -66 -30q-24 -13 -33 -29.5t-9 -42.5q0 -42 19 -62q15 -18 34 -18q21 0 37 10q11 8 13.5 15t2.5 26q3 117 2 131z" />
    <glyph glyph-name="b" unicode="b" horiz-adv-x="555" 
d="M84 -2l-13 9q0 14 0.5 66.5t0.5 79.5v385q0 56 -4 69q-5 22 -59 40v28q42 0 100.5 11t88.5 22l4 -4q-5 -54 -5 -125v-157q68 38 126 38q81 0 136 -59q57 -62 57 -157q0 -127 -97 -203q-66 -53 -157 -53q-61 0 -134 26q-27 -4 -44 -16zM197 341v-189q0 -58 15 -82
q28 -42 69 -42q36 0 57 26q40 48 40 166q0 94 -34 145q-29 43 -81 43q-23 0 -44 -10q-12 -6 -17 -17.5t-5 -39.5z" />
    <glyph glyph-name="c" unicode="c" horiz-adv-x="466" 
d="M427 112l19 -19q-67 -105 -187 -105q-100 0 -163 68q-57 62 -57 162q0 120 93 190q69 52 160 52q70 0 107.5 -23t37.5 -54q0 -24 -17.5 -41t-38.5 -17q-29 0 -53 34q-5 7 -15.5 24t-17.5 26q-11 16 -33 16t-43 -18q-47 -38 -47 -151q0 -98 37 -151q39 -54 97 -54
q72 0 121 61z" />
    <glyph glyph-name="d" unicode="d" horiz-adv-x="561" 
d="M359 115v208q0 46 -18 68q-27 34 -70 34q-36 0 -56 -23q-38 -41 -38 -162q0 -104 35 -155q30 -44 75 -44q30 0 51 14q21 17 21 60zM545 42v-34q-120 -7 -174 -18l-7 5q-3 18 -3 41q-78 -48 -143 -48q-67 0 -116 52q-63 67 -63 174q0 128 98 199q64 47 155 47q37 0 67 -7
q0 142 -3 151q-10 25 -74 43v29q151 6 202 27l5 -4q-6 -46 -6 -110v-489q0 -34 9 -41q16 -14 53 -17z" />
    <glyph glyph-name="e" unicode="e" horiz-adv-x="484" 
d="M429 114l19 -20q-69 -106 -195 -106q-107 0 -167 79q-47 64 -47 153q0 127 95 199q55 41 127 41q51 0 89.5 -17t58.5 -44.5t29.5 -55.5t9.5 -55q0 -34 -10 -35q-23 -3 -270 -3v-7q0 -109 49 -158q36 -36 85 -36q72 0 127 65zM169 283q87 0 127 3q33 3 33 39
q0 44 -19.5 72.5t-54.5 28.5q-36 0 -59 -39t-27 -104z" />
    <glyph glyph-name="f" unicode="f" horiz-adv-x="304" 
d="M289 0h-270v36q40 3 52.5 10.5t12.5 32.5v314h-54v29q32 9 54 31q8 142 107 213q60 42 120 42q36 0 62 -13.5t26 -40.5q0 -21 -19.5 -41t-41.5 -20q-16 0 -37 21l-8 8t-10.5 10t-11.5 12q-12 14 -28 14q-38 0 -38 -93q0 -18 1 -61.5t1 -55.5h101q2 -36 -7 -55h-93v-311
q0 -28 13 -35t68 -11v-36z" />
    <glyph glyph-name="g" unicode="g" horiz-adv-x="493" 
d="M252 -182q70 0 115 26t45 66q0 56 -96 56q-122 0 -152 -3q-3 0 -7 -0.5t-6 -0.5t-5 -0.5t-4 -1t-3.5 -1t-3.5 -1l-3 -1.5t-4 -2.5t-4 -3.5q-24 -20 -24 -51q0 -34 46 -61q38 -21 106 -21zM224 426q-25 0 -41 -26q-19 -33 -19 -90q0 -62 18 -95q18 -34 55 -34q27 0 40 22
q22 35 22 101q-1 122 -75 122zM231 460q61 0 114 -25q68 43 114 43q27 0 42 -12t15 -28q0 -25 -15.5 -41.5t-31.5 -16.5q-13 0 -31 19q-28 30 -38 30t-28 -14q43 -49 43 -110t-38 -102q-51 -55 -153 -55q-46 0 -76 10q-25 -23 -25 -47q0 -17 16.5 -24t34.5 -7q4 0 60.5 1
t87.5 0q96 -3 131 -43q30 -32 30 -76q0 -79 -82 -137q-83 -61 -206 -61q-79 0 -123 27q-51 28 -51 73q0 49 85 104q-66 26 -66 78q0 28 23.5 62t60.5 60q-81 41 -81 132q0 73 53 117q51 43 135 43z" />
    <glyph glyph-name="h" unicode="h" horiz-adv-x="560" 
d="M261 0h-241v35q20 1 30 3t19.5 9.5t9.5 22.5v483q0 41 -3 53q-5 24 -61 40v29q91 0 190 33l4 -4q-5 -45 -5 -105v-200q63 61 137 61q56 0 90 -32q50 -46 50 -137v-217q0 -6 0.5 -10.5t2.5 -8t3 -6t5 -4.5l6 -3t8 -2t8.5 -1.5t11 -1.5t11.5 -1v-36h-242v36q28 2 36 4
q16 3 20.5 17t4.5 68v181q0 48 -25 72q-20 17 -51 17q-40 0 -62 -21q-9 -8 -11.5 -16.5t-2.5 -31.5v-257q0 -7 1 -12t4.5 -8t6 -5.5t9.5 -4t10 -2t12.5 -1.5t13.5 -1v-35z" />
    <glyph glyph-name="i" unicode="i" horiz-adv-x="288" 
d="M264 0h-246v36q44 3 54.5 9.5t10.5 31.5v229q0 34 -2.5 44t-9.5 18q-12 13 -41 25v26q91 7 172 41l7 -5q-2 -32 -2 -138v-239q0 -26 9 -32.5t48 -10.5v-35zM70 598q0 28 18 48.5t51 20.5q29 0 47 -20t18 -49q0 -31 -18.5 -50t-47.5 -19q-32 0 -50 20t-18 49z" />
    <glyph glyph-name="j" unicode="j" horiz-adv-x="280" 
d="M19 391v27q71 3 185 42l7 -6q-3 -40 -3 -101v-281q0 -91 -17 -130q-19 -46 -59 -88t-65 -59t-48 -30l-21 28q47 40 66 78.5t19 95.5v370q0 19 -15 30q-22 15 -49 24zM72 598q0 28 18 48.5t51 20.5q29 0 47 -20t18 -49q0 -31 -18.5 -50t-47.5 -19q-32 0 -50 20t-18 49z
" />
    <glyph glyph-name="k" unicode="k" horiz-adv-x="530" 
d="M261 0h-241v35q27 3 36 4.5t16 9t7 24.5v480q0 41 -3 53q-9 25 -62 40v29q90 0 191 33l4 -4q-5 -45 -5 -107v-362q48 35 122 109q35 37 35 49q0 8 -17 12q-16 5 -50 8v35h218v-35q-22 -1 -42 -6q-25 -6 -59 -33q-43 -37 -88 -82q-4 -4 -1 -8q20 -33 73 -108t79 -108
q14 -18 28.5 -24.5t44.5 -8.5v-35h-252v35q41 3 41 13q0 4 -5 12q-37 64 -98 153q-2 3 -9 1l-12 -8l-8 -6v-129q0 -20 10.5 -26.5t46.5 -9.5v-35z" />
    <glyph glyph-name="l" unicode="l" horiz-adv-x="284" 
d="M262 0h-242v35q38 2 48.5 10t10.5 35v472q0 41 -3 53q-6 25 -62 41v29q90 0 191 33l4 -4q-5 -45 -5 -113v-515q0 -24 9.5 -31t48.5 -10v-35z" />
    <glyph glyph-name="m" unicode="m" horiz-adv-x="841" 
d="M265 0h-247v36q42 2 53.5 9.5t11.5 31.5v222q0 52 -4 57q-18 23 -49 35v28q88 6 171 41l9 -4q-4 -42 -4 -63q66 67 145 67q80 0 120 -74q69 74 150 74q58 0 94 -36q47 -42 47 -130v-217q0 -26 8.5 -32.5t47.5 -8.5v-36h-241v36q39 2 48 9.5t11 35.5q1 13 1 57v171
q0 47 -24 68q-18 18 -51 18q-30 0 -54 -17q-14 -9 -18.5 -20t-4.5 -37v-246q0 -25 9.5 -31t46.5 -8v-36h-241v36q39 2 49.5 8.5t10.5 30.5v233q0 47 -24 70q-19 16 -49 16q-35 0 -58 -18q-14 -12 -17.5 -23t-3.5 -51v-227q0 -24 9.5 -29.5t47.5 -9.5v-36z" />
    <glyph glyph-name="n" unicode="n" horiz-adv-x="565" 
d="M265 0h-247v36q24 1 34 2.5t20.5 11t10.5 27.5v216q0 55 -1 59q-2 8 -15.5 19t-36.5 21v27q37 3 87.5 15t83.5 26l9 -5q-4 -30 -4 -59q70 64 141 64q56 0 92 -33q45 -43 47 -138v-214q0 -7 1 -12t2 -9t5.5 -6.5t6 -4t8.5 -3t9 -2t11.5 -1.5t12.5 -1v-36h-242v36
q36 2 47 8t12 28q2 22 2 49v184q0 50 -25 72q-18 17 -49 17q-40 0 -63 -20q-10 -9 -13 -18t-3 -38v-243q0 -24 12.5 -30.5t44.5 -8.5v-36z" />
    <glyph glyph-name="o" unicode="o" horiz-adv-x="550" 
d="M280 460q105 0 170 -70q61 -64 61 -161q0 -101 -67 -171q-65 -70 -169 -70q-111 0 -173 67q-63 68 -63 170q0 125 102 195q60 40 139 40zM285 25q39 0 60 37q28 49 28 154q0 96 -31 155q-29 53 -75 53q-90 0 -90 -172q0 -129 42 -189q26 -38 66 -38z" />
    <glyph glyph-name="p" unicode="p" horiz-adv-x="564" 
d="M291 -222h-283v35q46 2 57.5 11t13.5 38q2 35 2 140v291q0 42 -2 51q-2 14 -13 25t-41 23v26q77 8 173 49l10 -8q0 -5 -2.5 -24t-2.5 -29q70 53 136 53q65 0 112 -42q74 -65 74 -174q0 -107 -72 -181q-34 -36 -85 -55t-88 -19q-20 0 -74 7q0 -101 2 -137q1 -27 15 -34
t68 -11v-35zM206 310v-192q0 -35 10 -49q11 -19 33 -30.5t42 -11.5q46 0 71 47q25 45 25 137q0 98 -31 145q-28 45 -74 45q-32 0 -52 -13q-16 -10 -20 -23.5t-4 -54.5z" />
    <glyph glyph-name="q" unicode="q" horiz-adv-x="555" 
d="M552 -222h-280v35q56 4 70 11.5t15 34.5t1 168q-70 -39 -124 -39q-74 0 -126 52q-69 67 -69 172q0 119 88 190q33 27 82 42.5t92 15.5q70 0 121 -21q27 3 55 19l12 -5q-6 -64 -6 -130v-298q0 -135 2 -168q1 -28 12.5 -35t54.5 -9v-35zM358 112v195q0 39 -4 59
q-6 21 -27 39q-19 18 -56 18q-38 0 -61 -29q-34 -44 -34 -144q0 -102 35 -158q31 -51 82 -51q29 0 44 10q14 8 18 18t3 43z" />
    <glyph glyph-name="r" unicode="r" horiz-adv-x="406" 
d="M291 0h-273v36q44 2 54.5 9.5t10.5 32.5v224q0 54 -8 63q-14 14 -45 26v28q30 1 86 14t85 27l9 -5q-7 -49 -7 -75q40 40 70 60t63 20q31 0 49 -16.5t18 -40.5q0 -30 -20.5 -53.5t-42.5 -23.5q-21 0 -36 15q-5 5 -15.5 16t-15.5 15q-10 7 -19 7q-15 0 -34 -19
q-12 -13 -12 -43v-237q0 -28 12.5 -34t70.5 -10v-36z" />
    <glyph glyph-name="s" unicode="s" horiz-adv-x="401" 
d="M355 305l-35 -7q-22 69 -63 103q-26 23 -61 23q-24 0 -41 -15.5t-17 -40.5q0 -23 18 -41t66 -41q78 -38 109.5 -71.5t31.5 -86.5q0 -68 -48.5 -104t-119.5 -36q-46 0 -93 14q-20 6 -46 1q-1 19 -6.5 49.5t-11.5 61.5t-8 41l34 8q20 -69 69 -112q30 -27 67 -27q58 0 58 54
q0 26 -17.5 44t-71.5 44q-69 34 -99 67.5t-30 88.5q0 59 43.5 98.5t120.5 39.5q47 0 86 -17q10 2 22 12h23q0 -39 20 -150z" />
    <glyph glyph-name="t" unicode="t" horiz-adv-x="345" 
d="M328 76v-32q-50 -54 -126 -54q-125 0 -125 130v273h-59v29q76 39 160 139h37q-12 -74 -12 -113h120q2 -37 -7 -55h-114v-283q0 -23 13.5 -40t42.5 -17q36 0 70 23z" />
    <glyph glyph-name="u" unicode="u" horiz-adv-x="553" 
d="M535 48v-35q-114 -12 -177 -25l-5 5q-2 8 -4 52q-71 -57 -135 -57q-59 0 -98 35.5t-39 108.5v238q0 19 -8.5 26t-48.5 17v35q150 0 186 7q0 -15 -1 -36.5t-1.5 -42t-0.5 -45.5v-211q0 -29 22 -48.5t53 -19.5q32 0 54 14q6 5 9 9.5t5 16.5t2 34v251q0 14 -13 21t-61 15
l6 35q129 0 195 6q-2 -48 -2 -128v-248q2 -19 16 -23q17 -5 46 -7z" />
    <glyph glyph-name="v" unicode="v" horiz-adv-x="471" 
d="M-5 412v36h251v-36q-25 -1 -44 -5q-20 -4 -12 -27q8 -25 88 -232q48 117 87 221q7 20 3.5 27.5t-17.5 9.5q-32 5 -52 6v36h184v-36q-34 -3 -47 -12t-29 -43q-20 -41 -76.5 -172.5t-81.5 -192.5h-39q-36 107 -149 383q-9 22 -21 28t-45 9z" />
    <glyph glyph-name="w" unicode="w" horiz-adv-x="743" 
d="M-9 412v36h249v-36q-36 -5 -45 -10t-4 -23q11 -40 42 -125t35 -98q46 100 81 190q2 6 0 12q-10 29 -17 38t-21 12q-5 1 -29 4v36h233v-36q-52 -5 -52 -20q0 -13 8 -34q57 -157 78 -209q42 104 84 224q4 13 1.5 20t-15.5 11q-21 5 -56 8v36h194v-36q-3 0 -12.5 -1.5
t-11.5 -2t-9 -2t-9 -2.5t-7 -2.5t-7 -3.5t-5.5 -5t-6 -7t-5 -8.5t-5.5 -10.5q-39 -84 -155 -375h-41q-90 248 -112 305q-75 -163 -132 -305h-39q-68 207 -135 373q-10 28 -22 35t-52 12z" />
    <glyph glyph-name="x" unicode="x" horiz-adv-x="473" 
d="M183 0h-194v36q34 2 54.5 9.5t39.5 29.5q30 34 100 134q-84 142 -100 166q-14 21 -27.5 27t-51.5 10v36h248v-36q-7 0 -25 -3q-20 -4 -11 -23q12 -24 54 -94q52 77 60 92q10 19 -8 23q-21 4 -38 5v36h176v-36q-38 -3 -53 -10t-32 -28q-63 -79 -86 -113q59 -100 113 -185
q15 -22 28.5 -28.5t50.5 -11.5v-36h-258v36q28 2 35 5q12 3 13.5 9t-5.5 19q-5 8 -28 48t-35 60q-40 -54 -70 -106q-8 -14 -6.5 -20t13.5 -9q6 -1 43 -6v-36z" />
    <glyph glyph-name="y" unicode="y" horiz-adv-x="484" 
d="M-5 412v36h258v-36q-19 -1 -45 -5q-21 -6 -12 -29q17 -49 95 -240q59 165 79 228q10 33 -13 39q-12 3 -52 7v36h187v-36q-35 -3 -48.5 -11.5t-25.5 -37.5q-31 -76 -122 -319q-8 -22 -17 -46t-19 -50.5t-15 -39.5q-32 -84 -61 -114t-64 -30q-25 0 -44 17.5t-19 43.5
q0 30 18.5 51t37.5 21q11 0 38 -21q15 -11 24 -11t23 28q16 34 31 89q-5 19 -71 177t-93 216q-10 22 -21.5 27.5t-48.5 9.5z" />
    <glyph glyph-name="z" unicode="z" horiz-adv-x="447" 
d="M412 164l29 -12q-44 -106 -58 -155q-60 3 -121 3h-220v22q51 83 217 390h-75q-33 0 -52.5 -12.5t-38.5 -39.5q-23 -31 -44 -71l-30 11q36 97 44 160q54 -12 106 -12h233v-20q-28 -49 -209 -393h67q43 0 75 28q35 29 77 101z" />
    <glyph glyph-name="braceleft" unicode="{" horiz-adv-x="438" 
d="M29 259v36q79 5 107 35t28 86q0 32 -2 57t-2 57q0 54 33.5 92t81.5 55.5t105 21.5v-32q-68 -10 -90.5 -38.5t-22.5 -71.5q0 -31 1 -64.5t1 -63.5q0 -55 -40.5 -96t-117.5 -51v-3q81 -9 119.5 -49.5t38.5 -102.5q0 -31 -3 -73.5t-3 -74.5q0 -89 117 -110v-33
q-86 2 -153 53t-67 132q0 32 2 60.5t2 59.5q0 58 -27.5 86t-107.5 32z" />
    <glyph glyph-name="bar" unicode="|" horiz-adv-x="279" 
d="M98 738h83v-985h-83v985z" />
    <glyph glyph-name="braceright" unicode="}" horiz-adv-x="437" 
d="M409 295v-36q-79 -3 -107.5 -33.5t-28.5 -88.5q0 -31 2 -65.5t2 -66.5q0 -78 -65 -121.5t-154 -47.5v33q68 12 92.5 39t24.5 69q0 29 -3 73.5t-3 74.5q0 55 40.5 96.5t117.5 51.5v3q-81 9 -119.5 49.5t-38.5 101.5q0 32 3 65.5t3 63.5q0 43 -25 71.5t-92 39.5v32
q89 -2 154 -44.5t65 -122.5q0 -32 -2 -59.5t-2 -58.5q0 -58 27.5 -86t108.5 -33z" />
    <glyph glyph-name="asciitilde" unicode="~" horiz-adv-x="636" 
d="M509 325l58 -28q-42 -127 -140 -127q-22 0 -43.5 6.5t-31 11.5t-40.5 22q-4 2 -18.5 10.5t-20 11.5t-17 8t-21 7t-18.5 2q-51 0 -88 -83l-59 33q44 123 149 123q47 0 105 -32q7 -4 20 -11t19 -10t15.5 -8t15 -7.5t13 -5t13 -3.5t11.5 -1q26 0 42.5 18.5t35.5 62.5z" />
    <glyph glyph-name="uni00A0" unicode="&#xa0;" horiz-adv-x="203" 
 />
    <glyph glyph-name="exclamdown" unicode="&#xa1;" horiz-adv-x="328" 
d="M128 248h33q9 -87 39.5 -201.5t30.5 -156.5q0 -40 -24.5 -65t-61.5 -25q-39 0 -60 26t-21 69q0 40 27.5 153.5t36.5 199.5zM147 464q27 0 51 -20.5t24 -56.5q0 -34 -22 -57t-55 -23t-54 23t-21 56q0 38 24 58t53 20z" />
    <glyph glyph-name="cent" unicode="&#xa2;" horiz-adv-x="506" 
d="M439 212l16 -22q-64 -87 -174 -95l-11 -98h-36l11 99q-81 8 -136 66.5t-55 155.5q0 95 68.5 157.5t174.5 67.5l10 87h35l-10 -88q50 -3 83 -18.5t33 -38.5q0 -22 -12.5 -36t-27.5 -14q-16 0 -35 25q-24 32 -46 41l-39 -343q7 -1 22 -1q73 0 129 55zM254 168l39 340h-10
q-40 0 -71 -42.5t-31 -125.5q0 -139 73 -172z" />
    <glyph glyph-name="sterling" unicode="&#xa3;" horiz-adv-x="506" 
d="M375 306h-138q-14 -104 -69 -160q80 11 153 -42q9 -7 24 -18.5t20.5 -15t14 -7.5t16.5 -4q14 0 27 12t13 29q0 12 -15 34t-15 33q0 16 19.5 34t40.5 18q32 0 32 -43q0 -71 -57 -131.5t-125 -60.5q-31 0 -56 14.5t-62 53.5q-38 41 -52 41t-29 -24q-42 -71 -80 -71
q-13 0 -23 9.5t-10 22.5q0 37 73 86q23 15 28 61q0 2 7 129h-89v39h91q0 13 2 39q7 104 69 177t164 73q63 0 96.5 -18t33.5 -45q0 -25 -18 -40.5t-39 -15.5q-23 0 -37 26q-6 12 -11.5 26t-9 20t-8.5 9q-10 5 -25 5q-45 0 -61 -55t-27 -185q0 -2 -0.5 -7.5t-0.5 -8.5h133v-39
z" />
    <glyph glyph-name="currency" unicode="&#xa4;" horiz-adv-x="522" 
d="M261 449q-56 0 -86 -39.5t-30 -93.5q0 -55 32 -93.5t84 -38.5q53 0 84 39t31 95q0 54 -31 92.5t-84 38.5zM51 144l62 60q-36 48 -36 114q0 62 37 110l-64 62l48 47l57 -65q43 34 106 34q67 0 107 -33l55 63l46 -46l-59 -62q34 -41 34 -110t-35 -113l62 -60l-45 -46
l-60 64q-43 -36 -105 -36q-65 0 -108 34l-57 -63z" />
    <glyph glyph-name="yen" unicode="&#xa5;" horiz-adv-x="506" 
d="M402 0h-295v36q45 3 57 6q27 5 27 34v98h-98v37h99v66h-99v37h97q-26 65 -102 209q-17 34 -30 45t-30 14q-21 4 -26 4v33h260v-33q-10 -2 -22.5 -3.5t-17.5 -2.5q-20 -4 -12 -25q11 -28 43.5 -98t44.5 -98q59 127 83 184q12 30 -17 36q-8 2 -15.5 3t-16.5 2t-16 2v33h187
v-33q-4 -1 -13 -2.5t-13 -2.5q-21 -4 -33 -16t-29 -44q-56 -114 -97 -207h98v-37h-99v-66h99v-37h-99v-98q0 -17 6 -23.5t21 -9.5q14 -3 58 -7v-36z" />
    <glyph glyph-name="brokenbar" unicode="&#xa6;" horiz-adv-x="279" 
d="M98 -172v344h83v-344h-83zM98 663h83v-343h-83v343z" />
    <glyph glyph-name="section" unicode="&#xa7;" horiz-adv-x="496" 
d="M251 617q-24 0 -36.5 -14.5t-12.5 -34.5q0 -29 14 -57q13 -25 60 -90t71 -101q41 -63 57.5 -109.5t16.5 -96.5q0 -76 -46 -140q-38 -53 -88 -81t-94 -28q-45 0 -82.5 20t-37.5 51q0 18 13.5 29.5t26.5 11.5q16 0 39 -29q21 -26 35 -35.5t37 -9.5q18 0 29.5 15t11.5 33
q0 39 -22 81q-27 49 -86 136q-58 86 -79 138.5t-21 104.5q0 98 70 174q63 67 147 67q53 0 84.5 -18.5t31.5 -46.5q0 -12 -10.5 -24.5t-25.5 -12.5q-13 0 -36 28q-31 39 -67 39zM315 -47q21 19 36 54t15 78q0 49 -18 95.5t-70 121.5q-76 112 -99 155t-23 84q0 23 6 40
q-53 -51 -53 -139q0 -82 92 -218q39 -60 59 -93.5t39.5 -85.5t15.5 -92z" />
    <glyph glyph-name="dieresis" unicode="&#xa8;" 
d="M102 664q23 0 39.5 -19t16.5 -43q0 -30 -17 -45t-41 -15q-23 0 -39.5 17t-16.5 44q0 25 16 43t42 18zM295 663q25 0 42 -18.5t17 -42.5t-17 -42t-43 -18q-24 0 -42 17t-18 42q0 29 18.5 45.5t42.5 16.5z" />
    <glyph glyph-name="copyright" unicode="&#xa9;" horiz-adv-x="740" 
d="M360 630q133 0 220.5 -91t87.5 -222q0 -130 -88.5 -221.5t-219.5 -91.5q-138 0 -224 90t-86 223q0 130 90.5 221.5t219.5 91.5zM360 598q-116 0 -193.5 -80.5t-77.5 -199.5q0 -120 80.5 -201t190.5 -81q115 0 191.5 79.5t76.5 202.5q0 118 -78.5 199t-189.5 81zM503 372
l-22 -5q-21 63 -54 84q-21 13 -45 13q-48 1 -71 -36.5t-23 -101.5q0 -74 26 -111.5t74 -37.5q50 0 100 81l21 -9q-5 -10 -19.5 -46.5t-17.5 -43.5q-3 -1 -22.5 -5t-36 -6t-34.5 -2q-77 0 -133 45.5t-56 131.5q0 66 47.5 117.5t140.5 51.5q44 0 83 -16q7 4 14 11h17
q3 -50 11 -115z" />
    <glyph glyph-name="ordfeminine" unicode="&#xaa;" horiz-adv-x="309" 
d="M300 292v-21q-9 -16 -34.5 -27.5t-44.5 -11.5q-12 0 -26 10t-21 30q-55 -40 -85 -40q-26 1 -45 23.5t-19 54.5q0 39 45 61q38 19 104 41q2 25 0 38q-4 39 -40 39q-9 0 -33 -12q-11 -8 -11 -11q0 -4 4 -11q9 -16 10 -25q0 -10 -16 -21t-28 -11q-15 0 -25.5 15.5
t-10.5 29.5q0 11 27 29q82 51 109 51q53 0 83 -39q14 -21 14 -62q0 -21 -1 -69t-1 -57q0 -13 13 -13q18 0 32 9zM174 390q-24 -8 -38 -18q-27 -15 -27 -46q0 -45 31 -45q13 0 21 6q11 5 11 24q2 50 2 79z" />
    <glyph glyph-name="guillemotleft" unicode="&#xab;" horiz-adv-x="643" 
d="M88 216v17q59 39 121.5 92.5t96.5 89.5l21 -17q-33 -61 -116 -170q68 -96 116 -182l-21 -19q-41 44 -104 99.5t-114 89.5zM316 216v17q21 14 45 32t42.5 33t41.5 35t35 31.5t31 29.5t23 21l21 -16q-29 -54 -116 -171q66 -88 116 -183l-22 -18q-44 47 -106 102.5
t-111 86.5z" />
    <glyph glyph-name="logicalnot" unicode="&#xac;" horiz-adv-x="636" 
d="M485 65v241h-410v72h487v-313h-77z" />
    <glyph glyph-name="uni00AD" unicode="&#xad;" horiz-adv-x="341" 
d="M50 200v75h241v-75h-241z" />
    <glyph glyph-name="registered" unicode="&#xae;" horiz-adv-x="282" 
d="M159 477h-72v9q20 4 20 11v70q0 10 -20 12v10h69q47 0 47 -29q0 -19 -24 -28q4 -11 22 -34q5 -8 19 -12v-9h-28q-15 0 -24 12q-3 5 -13 24q-6 12 -11 12h-4v-27q0 -7 19 -12v-9zM140 576v-40h6q22 0 22 21q0 20 -20 20q-5 0 -8 -1zM151 652q51 0 86.5 -35t35.5 -86
q0 -47 -34 -85.5t-90 -38.5q-50 0 -84.5 36t-34.5 88q0 48 35 84.5t86 36.5zM151 632q-42 0 -69 -28.5t-27 -72.5t27 -73t69 -29q43 0 70 29t27 73q0 43 -29 72t-68 29z" />
    <glyph glyph-name="macron" unicode="&#xaf;" 
d="M66 625h265v-66h-265v66z" />
    <glyph glyph-name="degree" unicode="&#xb0;" horiz-adv-x="324" 
d="M165 632q46 0 78 -31t32 -84q0 -52 -34.5 -83t-79.5 -31q-46 0 -78.5 31t-32.5 83q0 51 34.5 83t80.5 32zM161 590q-25 0 -42.5 -20t-17.5 -52q0 -33 18 -53t46 -20q24 0 41 20t17 52q0 33 -16.5 53t-45.5 20z" />
    <glyph glyph-name="plusminus" unicode="&#xb1;" horiz-adv-x="636" 
d="M283 410v212h73v-212h206v-73h-206v-219h-73v219h-208v73h208zM562 -10h-487v72h487v-72z" />
    <glyph glyph-name="twosuperior" unicode="&#xb2;" horiz-adv-x="365" 
d="M222 398h-184v31q86 71 126 119.5t40 99.5q0 78 -71 78q-45 0 -89 -53l-18 15q56 106 150 106q53 0 88 -34t35 -85q0 -64 -72 -128q-44 -39 -94 -73q113 3 124 4q33 4 65 58l23 -9q-1 -3 -11.5 -33.5t-20 -60.5t-9.5 -36q-11 0 -40 0.5t-42 0.5z" />
    <glyph glyph-name="threesuperior" unicode="&#xb3;" horiz-adv-x="364" 
d="M120 580v27q44 9 65.5 26t21.5 47q0 27 -15.5 43.5t-45.5 16.5q-27 0 -45.5 -12t-39.5 -38l-18 17q20 36 55.5 61.5t83.5 25.5q57 0 87 -28t30 -65q0 -62 -85 -87q48 -7 79 -29.5t31 -62.5q0 -59 -49 -95t-115 -36q-53 0 -87 21t-34 46q0 16 14 28t31 12q13 0 20.5 -10
t17.5 -34t23 -29q12 -3 20 -3q27 0 43 20t16 56q0 41 -22.5 64t-81.5 18z" />
    <glyph glyph-name="acute" unicode="&#xb4;" 
d="M190 506l-29 14l97 180q9 2 50.5 -8.5t58.5 -18.5v-15z" />
    <glyph glyph-name="uni00B5" unicode="&#xb5;" horiz-adv-x="556" 
d="M545 64v-30q-30 -46 -101 -46q-45 0 -67 25t-22 68v7q-26 -100 -114 -100q-52 0 -79 40q2 -45 10 -109t8 -88q1 -31 -16 -50t-44 -18q-57 2 -57 69q0 19 5 94t4 122v400h125v-328q0 -33 15.5 -52t41.5 -19q97 0 97 182v217h125v-358q0 -38 26 -38q23 0 43 12z" />
    <glyph glyph-name="paragraph" unicode="&#xb6;" horiz-adv-x="590" 
d="M517 612v-39q-71 -7 -79 -10q-18 -4 -26 -14.5t-8 -38.5v-228.5t-0.5 -168t-0.5 -75.5q0 -147 -44 -207t-111 -60q-51 0 -81 23t-30 46q0 25 21 45.5t41 20.5q27 0 45 -46q9 -22 16.5 -31.5t20.5 -9.5q70 0 70 181q0 64 -2 88q-134 16 -211.5 86t-77.5 189q0 82 54 148.5
t149 88.5q47 12 126 12h128z" />
    <glyph glyph-name="periodcentered" unicode="&#xb7;" horiz-adv-x="283" 
d="M140 161q-29 0 -52 20.5t-23 56.5q0 34 22 57.5t56 23.5q32 0 53.5 -23.5t21.5 -56.5q0 -38 -24 -58t-54 -20z" />
    <glyph glyph-name="cedilla" unicode="&#xb8;" 
d="M196 9h36l-39 -46q48 -14 73.5 -38t25.5 -64t-34.5 -68t-77.5 -28q-35 0 -60.5 15t-25.5 32q0 14 11.5 27t25.5 14q15 0 32 -28q17 -26 36 -26q13 0 21 9.5t8 24.5q0 26 -29 43t-86 19v19z" />
    <glyph glyph-name="onesuperior" unicode="&#xb9;" horiz-adv-x="273" 
d="M255 398h-227v29q39 3 49 10t10 28v232q0 14 -9 20t-43 14v28q80 4 159 35v-331q0 -19 9.5 -25.5t51.5 -10.5v-29z" />
    <glyph glyph-name="ordmasculine" unicode="&#xba;" horiz-adv-x="351" 
d="M180 523q61 0 102.5 -39.5t41.5 -104.5q0 -63 -42.5 -105t-108.5 -42q-65 0 -105.5 40.5t-40.5 106.5q0 63 43.5 103.5t109.5 40.5zM181 261q49 0 49 111q0 123 -60 123q-48 0 -48 -104q0 -130 59 -130z" />
    <glyph glyph-name="guillemotright" unicode="&#xbb;" horiz-adv-x="643" 
d="M555 226v-17q-115 -76 -218 -182l-21 17q33 61 116 170q-68 96 -116 182l21 19q109 -115 218 -189zM327 226v-17q-21 -14 -45 -32t-42.5 -33t-41.5 -35t-35 -31.5t-31 -29.5t-23 -21l-21 16q35 62 116 171q-66 88 -116 183l22 18q44 -47 106 -102.5t111 -86.5z" />
    <glyph glyph-name="onequarter" unicode="&#xbc;" horiz-adv-x="804" 
d="M636 655l-410 -671h-46l411 671h45zM278 237h-227v29q39 3 49 10t10 28v232q0 14 -9 20t-43 14v28q80 4 159 35v-331q0 -19 9.5 -25.5t51.5 -10.5v-29zM583 -1v108h-161v27q16 26 100 132t107 129h54v-243q36 0 70 2q-8 -29 -8 -48q-1 0 -22.5 0.5t-39.5 0.5v-108h-100z
M583 152v145q-66 -83 -107 -145h107z" />
    <glyph glyph-name="onehalf" unicode="&#xbd;" horiz-adv-x="852" 
d="M636 655l-410 -671h-46l411 671h45zM278 237h-227v29q39 3 49 10t10 28v232q0 14 -9 20t-43 14v28q80 4 159 35v-331q0 -19 9.5 -25.5t51.5 -10.5v-29zM678 0h-184v31q86 71 126 119.5t40 99.5q0 78 -71 78q-45 0 -89 -53l-18 16q57 105 150 105q53 0 88 -34t35 -85
q0 -64 -72 -128q-44 -39 -94 -73q113 3 124 4q33 4 65 58l23 -9q-1 -3 -11.5 -33.5t-20 -60.5t-9.5 -36q-11 0 -40 0.5t-42 0.5z" />
    <glyph glyph-name="threequarters" unicode="&#xbe;" horiz-adv-x="846" 
d="M666 655l-410 -671h-46l411 671h45zM617 -1v108h-161v27q16 26 100 132t107 129h54v-243q36 0 70 2q-8 -29 -8 -48q-1 0 -22.5 0.5t-39.5 0.5v-108h-100zM617 152v145q-66 -83 -107 -145h107zM140 419v27q44 9 65.5 26t21.5 47q0 27 -15.5 43.5t-45.5 16.5
q-27 0 -45.5 -12t-39.5 -38l-18 17q20 36 55.5 61.5t83.5 25.5q57 0 87 -28t30 -65q0 -62 -85 -87q48 -7 79 -29.5t31 -62.5q0 -59 -49 -95t-115 -36q-53 0 -87 21t-34 46q0 16 14 28t31 12q13 0 20.5 -10t17.5 -34t23 -29q12 -3 20 -3q27 0 43 20t16 56q0 41 -22.5 64
t-81.5 18z" />
    <glyph glyph-name="questiondown" unicode="&#xbf;" horiz-adv-x="422" 
d="M221 249l27 2q13 -22 25.5 -59.5t12.5 -60.5q0 -18 -23 -39q-13 -12 -35 -24.5t-47.5 -25t-32.5 -16.5q-30 -17 -30 -51q0 -28 18 -59.5t48 -33.5q23 0 64 30q3 2 9.5 7.5t10 7.5t10 4.5t12.5 2.5q29 0 46.5 -22t17.5 -43q0 -33 -28 -52t-64 -19q-81 0 -135.5 65
t-54.5 153q0 50 12.5 80.5t25.5 41.5q13 10 29 20t37.5 21t28.5 15q14 8 15 17q1 7 1 38zM231 464q29 0 52 -20.5t23 -56.5q0 -35 -21 -58t-56 -23q-32 0 -53.5 23.5t-21.5 56.5q0 38 23.5 58t53.5 20z" />
    <glyph glyph-name="Agrave" unicode="&#xc0;" horiz-adv-x="677" 
d="M-17 0v36q55 5 76.5 18t38.5 56q50 123 181 467q13 32 14 61h97l18 -50q33 -92 184 -489q15 -36 32 -46.5t67 -16.5v-36h-310v36l17 1q16 1 26 3q20 4 26 13t0 29q-19 55 -52 137h-210q-10 -26 -25 -69.5t-18 -51.5q-9 -28 -2.5 -39.5t35.5 -16.5q28 -5 50 -6v-36h-245z
M201 260h183l-91 250q-8 -23 -42.5 -114t-49.5 -136zM380 703l-19 -24l-222 98l3 18q17 14 50 32.5t47 18.5z" />
    <glyph glyph-name="Aacute" unicode="&#xc1;" horiz-adv-x="677" 
d="M-17 0v36q55 5 76.5 18t38.5 56q50 123 181 467q13 32 14 61h97l18 -50q33 -92 184 -489q15 -36 32 -46.5t67 -16.5v-36h-310v36l17 1q16 1 26 3q20 4 26 13t0 29q-19 55 -52 137h-210q-10 -26 -25 -69.5t-18 -51.5q-9 -28 -2.5 -39.5t35.5 -16.5q28 -5 50 -6v-36h-245z
M201 260h183l-91 250q-8 -23 -42.5 -114t-49.5 -136zM299 677l-19 24l136 136q13 1 49 -14.5t51 -26.5v-18z" />
    <glyph glyph-name="Acircumflex" unicode="&#xc2;" horiz-adv-x="677" 
d="M-17 0v36q55 5 76.5 18t38.5 56q50 123 181 467q13 32 14 61h97l18 -50q33 -92 184 -489q15 -36 32 -46.5t67 -16.5v-36h-310v36l17 1q16 1 26 3q20 4 26 13t0 29q-19 55 -52 137h-210q-10 -26 -25 -69.5t-18 -51.5q-9 -28 -2.5 -39.5t35.5 -16.5q28 -5 50 -6v-36h-245z
M201 260h183l-91 250q-8 -23 -42.5 -114t-49.5 -136zM505 700l-17 -30q-71 29 -155 62q-67 -29 -157 -62l-13 29q68 43 159 125h27q103 -89 156 -124z" />
    <glyph glyph-name="Atilde" unicode="&#xc3;" horiz-adv-x="677" 
d="M-17 0v36q55 5 76.5 18t38.5 56q50 123 181 467q13 32 14 61h97l18 -50q33 -92 184 -489q15 -36 32 -46.5t67 -16.5v-36h-310v36l17 1q16 1 26 3q20 4 26 13t0 29q-19 55 -52 137h-210q-10 -26 -25 -69.5t-18 -51.5q-9 -28 -2.5 -39.5t35.5 -16.5q28 -5 50 -6v-36h-245z
M201 260h183l-91 250q-8 -23 -42.5 -114t-49.5 -136zM490 816l26 -10q-8 -48 -34.5 -80.5t-73.5 -32.5q-11 0 -24 3t-19.5 5t-24 9.5t-20.5 8.5q-47 21 -67 21q-24 0 -37 -11.5t-22 -36.5l-28 9q7 48 35 78.5t76 30.5q33 0 83 -22q48 -21 65 -21q23 0 37 9t28 40z" />
    <glyph glyph-name="Adieresis" unicode="&#xc4;" horiz-adv-x="677" 
d="M-17 0v36q55 5 76.5 18t38.5 56q50 123 181 467q13 32 14 61h97l18 -50q33 -92 184 -489q15 -36 32 -46.5t67 -16.5v-36h-310v36l17 1q16 1 26 3q20 4 26 13t0 29q-19 55 -52 137h-210q-10 -26 -25 -69.5t-18 -51.5q-9 -28 -2.5 -39.5t35.5 -16.5q28 -5 50 -6v-36h-245z
M201 260h183l-91 250q-8 -23 -42.5 -114t-49.5 -136zM228 799q24 0 40.5 -17.5t16.5 -44.5q0 -29 -18 -44.5t-42 -15.5q-23 0 -40 17t-17 44q0 24 16.5 42.5t43.5 18.5zM440 798q25 0 42 -18.5t17 -42.5t-17 -42t-43 -18q-24 0 -42 17t-18 42q0 29 18.5 45.5t42.5 16.5z" />
    <glyph glyph-name="Aring" unicode="&#xc5;" horiz-adv-x="677" 
d="M-17 0v36q55 5 76.5 18t38.5 56q50 123 181 467q13 32 14 61h97l18 -50q33 -92 184 -489q15 -36 32 -46.5t67 -16.5v-36h-310v36l17 1q16 1 26 3q20 4 26 13t0 29q-19 55 -52 137h-210q-10 -26 -25 -69.5t-18 -51.5q-9 -28 -2.5 -39.5t35.5 -16.5q28 -5 50 -6v-36h-245z
M201 260h183l-91 250q-8 -23 -42.5 -114t-49.5 -136zM332 834q42 0 68 -24.5t26 -60.5t-26 -59t-68 -23t-67.5 23t-25.5 59t25.5 60.5t67.5 24.5zM331 799q-21 0 -34.5 -13t-13.5 -37q0 -23 14.5 -35.5t35.5 -12.5t34.5 13t13.5 39q0 21 -14.5 33.5t-35.5 12.5z" />
    <glyph glyph-name="AE" unicode="&#xc6;" horiz-adv-x="969" 
d="M285 336h157v257q-110 -178 -157 -257zM242 0h-269v36q29 3 31 3q30 6 50.5 19.5t43.5 49.5q128 202 278 448q12 16 8.5 25.5t-27.5 12.5t-80 9v35h442q94 0 150 6q2 -84 21 -181l-32 -9q-42 100 -90 130q-25 15 -63 15h-98q-17 0 -22 -6.5t-5 -25.5v-231h73q44 1 58 24
t24 88h32q0 -7 -2 -54.5t-1 -74.5q0 -16 1 -45.5t1.5 -53t0.5 -37.5h-32q-16 73 -25 87q-15 24 -57 24h-73v-180q0 -46 15 -60.5t69 -14.5h48q55 0 87 20q50 31 110 148l31 -10q-32 -95 -53 -200q-27 3 -158 3h-384v36q30 2 54 6q43 6 43 56v196h-180q-51 -83 -106 -181
q-18 -35 -13.5 -49.5t30.5 -19.5q30 -6 69 -8v-36z" />
    <glyph glyph-name="Ccedilla" unicode="&#xc7;" horiz-adv-x="686" 
d="M613 175l31 -15q-24 -50 -67 -158q-26 0 -54 -6q-64 -12 -109 -12h-11l-21 -26q94 -21 94 -98q0 -40 -31.5 -67.5t-73.5 -27.5q-34 0 -59.5 14t-25.5 31q0 14 11.5 26.5t25.5 12.5t32 -30q15 -23 31 -23q34 0 34 37q0 63 -115 62v19l62 72q-137 13 -225 98.5t-88 239.5
q0 73 28.5 140.5t87.5 114.5q93 75 237 75q84 0 145 -27q20 6 37 21h24q-2 -60 20 -207l-32 -8q-38 113 -104 156q-43 27 -98 27q-65 0 -109 -41t-63 -104t-19 -143q0 -150 57.5 -226t153.5 -76q39 0 66 12q27 11 51.5 35t39.5 45t37 57z" />
    <glyph glyph-name="Egrave" unicode="&#xc8;" horiz-adv-x="643" 
d="M403 0h-384v36q60 4 78.5 15t18.5 47v442q0 37 -19 48t-68 14v36h364q94 0 150 6q2 -84 21 -181l-32 -9q-42 100 -90 130q-25 15 -63 15h-98q-17 0 -22 -6.5t-5 -25.5v-217h71q44 0 58 22.5t25 90.5h33q0 -8 -1.5 -54t-1.5 -76q0 -40 3 -136h-33q-15 73 -26 88
q-15 23 -57 23h-71v-194q0 -46 15 -60.5t69 -14.5h48q54 0 87 19q48 30 109 149l32 -10q-33 -100 -53 -200q-27 3 -158 3zM366 711l-19 -24l-221 98l3 18q15 14 49 32.5t48 18.5z" />
    <glyph glyph-name="Eacute" unicode="&#xc9;" horiz-adv-x="643" 
d="M403 0h-384v36q60 4 78.5 15t18.5 47v442q0 37 -19 48t-68 14v36h364q94 0 150 6q2 -84 21 -181l-32 -9q-42 100 -90 130q-25 15 -63 15h-98q-17 0 -22 -6.5t-5 -25.5v-217h71q44 0 58 22.5t25 90.5h33q0 -8 -1.5 -54t-1.5 -76q0 -40 3 -136h-33q-15 73 -26 88
q-15 23 -57 23h-71v-194q0 -46 15 -60.5t69 -14.5h48q54 0 87 19q48 30 109 149l32 -10q-33 -100 -53 -200q-27 3 -158 3zM265 687l-19 23l136 136q13 1 49 -14.5t51 -26.5v-18z" />
    <glyph glyph-name="Ecircumflex" unicode="&#xca;" horiz-adv-x="643" 
d="M403 0h-384v36q60 4 78.5 15t18.5 47v442q0 37 -19 48t-68 14v36h364q94 0 150 6q2 -84 21 -181l-32 -9q-42 100 -90 130q-25 15 -63 15h-98q-17 0 -22 -6.5t-5 -25.5v-217h71q44 0 58 22.5t25 90.5h33q0 -8 -1.5 -54t-1.5 -76q0 -40 3 -136h-33q-15 73 -26 88
q-15 23 -57 23h-71v-194q0 -46 15 -60.5t69 -14.5h48q54 0 87 19q48 30 109 149l32 -10q-33 -100 -53 -200q-27 3 -158 3zM482 721l-17 -30q-71 29 -155 62q-67 -29 -157 -62l-13 29q72 46 159 124h27q102 -88 156 -123z" />
    <glyph glyph-name="Edieresis" unicode="&#xcb;" horiz-adv-x="643" 
d="M403 0h-384v36q60 4 78.5 15t18.5 47v442q0 37 -19 48t-68 14v36h364q94 0 150 6q2 -84 21 -181l-32 -9q-42 100 -90 130q-25 15 -63 15h-98q-17 0 -22 -6.5t-5 -25.5v-217h71q44 0 58 22.5t25 90.5h33q0 -8 -1.5 -54t-1.5 -76q0 -40 3 -136h-33q-15 73 -26 88
q-15 23 -57 23h-71v-194q0 -46 15 -60.5t69 -14.5h48q54 0 87 19q48 30 109 149l32 -10q-33 -100 -53 -200q-27 3 -158 3zM210 821q24 0 40.5 -17.5t16.5 -44.5q0 -29 -18 -44.5t-42 -15.5q-23 0 -40 17t-17 44q0 24 16.5 42.5t43.5 18.5zM422 820q25 0 42 -18.5t17 -42.5
t-17 -42t-43 -18q-24 0 -42 17t-18 42q0 29 18.5 45.5t42.5 16.5z" />
    <glyph glyph-name="Igrave" unicode="&#xcc;" horiz-adv-x="371" 
d="M342 0h-313v36q52 4 69.5 16t17.5 46v442q0 20 -5 32t-18.5 18t-25.5 8t-38 4v36h313v-36q-49 -3 -68 -15t-19 -47v-442q0 -37 18.5 -48t68.5 -14v-36zM236 711l-19 -24l-222 98l3 18q15 14 49 32.5t48 18.5z" />
    <glyph glyph-name="Iacute" unicode="&#xcd;" horiz-adv-x="371" 
d="M342 0h-313v36q52 4 69.5 16t17.5 46v442q0 20 -5 32t-18.5 18t-25.5 8t-38 4v36h313v-36q-49 -3 -68 -15t-19 -47v-442q0 -37 18.5 -48t68.5 -14v-36zM152 684l-18 24l135 136q13 1 49.5 -14.5t51.5 -26.5l-1 -18z" />
    <glyph glyph-name="Icircumflex" unicode="&#xce;" horiz-adv-x="371" 
d="M342 0h-313v36q52 4 69.5 16t17.5 46v442q0 20 -5 32t-18.5 18t-25.5 8t-38 4v36h313v-36q-49 -3 -68 -15t-19 -47v-442q0 -37 18.5 -48t68.5 -14v-36zM349 720l-17 -30q-71 29 -155 62q-60 -26 -156 -62l-14 29q72 46 159 124h27q98 -85 156 -123z" />
    <glyph glyph-name="Idieresis" unicode="&#xcf;" horiz-adv-x="371" 
d="M342 0h-313v36q52 4 69.5 16t17.5 46v442q0 20 -5 32t-18.5 18t-25.5 8t-38 4v36h313v-36q-49 -3 -68 -15t-19 -47v-442q0 -37 18.5 -48t68.5 -14v-36zM77 820q24 0 40.5 -17.5t16.5 -44.5q0 -29 -18 -44.5t-42 -15.5q-23 0 -40 17t-17 44q0 24 16.5 42.5t43.5 18.5z
M289 819q25 0 42 -18.5t17 -42.5t-17 -42t-43 -18q-24 0 -42 17t-18 42q0 29 18.5 45.5t42.5 16.5z" />
    <glyph glyph-name="Eth" unicode="&#xd0;" horiz-adv-x="737" 
d="M29 638h307q118 0 191 -36q76 -35 116 -106.5t40 -156.5q0 -155 -106 -251q-97 -88 -243 -88h-305v36q49 4 68 15t19 47v214h-86v43h86v185q0 36 -18.5 47.5t-68.5 14.5v36zM254 312v-189q1 -34 3 -45t10 -18q30 -24 76 -24q81 0 133 73q58 81 58 216q0 159 -83 232
q-53 45 -124 45q-49 0 -64 -14q-9 -6 -9 -33v-200h139v-43h-139z" />
    <glyph glyph-name="Ntilde" unicode="&#xd1;" horiz-adv-x="721" 
d="M274 0h-257v36q66 5 82.5 24t17.5 88v385q0 33 -13 44q-21 18 -83 25v36h201l351 -467v315q0 72 -18.5 91t-98.5 26v35h257v-35q-63 -8 -80 -27.5t-17 -89.5v-380q0 -73 4 -106h-93q-10 14 -34 48.5t-33 46.5l-300 414v-361q1 -68 21 -87t93 -25v-36zM523 831l26 -9
q-8 -48 -34.5 -80.5t-72.5 -32.5q-9 0 -18.5 1.5t-19 4.5t-16 5.5t-18.5 7.5t-17 7q-47 21 -66 21q-25 0 -38 -11.5t-22 -36.5l-28 9q7 48 35.5 78.5t75.5 30.5q35 0 83 -23q46 -20 65 -20q23 0 37 9t28 39z" />
    <glyph glyph-name="Ograve" unicode="&#xd2;" horiz-adv-x="756" 
d="M381 -16q-129 0 -220 78q-50 44 -78.5 112t-28.5 145q0 172 121 268q83 67 201 67q152 0 238.5 -95.5t86.5 -237.5q0 -124 -69 -217q-42 -55 -106.5 -87.5t-144.5 -32.5zM393 22q54 0 88 38q67 71 67 246q0 163 -62 247q-45 63 -118 63q-53 0 -90 -34q-70 -67 -70 -246
q0 -157 58 -242q48 -72 127 -72zM446 724l-20 -24l-221 98l3 18q15 14 49 32.5t48 18.5z" />
    <glyph glyph-name="Oacute" unicode="&#xd3;" horiz-adv-x="756" 
d="M381 -16q-129 0 -220 78q-50 44 -78.5 112t-28.5 145q0 172 121 268q83 67 201 67q152 0 238.5 -95.5t86.5 -237.5q0 -124 -69 -217q-42 -55 -106.5 -87.5t-144.5 -32.5zM393 22q54 0 88 38q67 71 67 246q0 163 -62 247q-45 63 -118 63q-53 0 -90 -34q-70 -67 -70 -246
q0 -157 58 -242q48 -72 127 -72zM333 700l-19 23l136 136q13 1 49 -14.5t51 -26.5v-18z" />
    <glyph glyph-name="Ocircumflex" unicode="&#xd4;" horiz-adv-x="756" 
d="M381 -16q-129 0 -220 78q-50 44 -78.5 112t-28.5 145q0 172 121 268q83 67 201 67q152 0 238.5 -95.5t86.5 -237.5q0 -124 -69 -217q-42 -55 -106.5 -87.5t-144.5 -32.5zM393 22q54 0 88 38q67 71 67 246q0 163 -62 247q-45 63 -118 63q-53 0 -90 -34q-70 -67 -70 -246
q0 -157 58 -242q48 -72 127 -72zM540 723l-17 -30l-155 62q-79 -33 -157 -62l-13 29q68 43 159 125h27q106 -92 156 -124z" />
    <glyph glyph-name="Otilde" unicode="&#xd5;" horiz-adv-x="756" 
d="M381 -16q-129 0 -220 78q-50 44 -78.5 112t-28.5 145q0 172 121 268q83 67 201 67q152 0 238.5 -95.5t86.5 -237.5q0 -124 -69 -217q-42 -55 -106.5 -87.5t-144.5 -32.5zM393 22q54 0 88 38q67 71 67 246q0 163 -62 247q-45 63 -118 63q-53 0 -90 -34q-70 -67 -70 -246
q0 -157 58 -242q48 -72 127 -72zM524 843l26 -10q-8 -48 -34.5 -80.5t-72.5 -32.5q-27 0 -89 27q-5 2 -17.5 7.5t-17 7t-13.5 3.5t-18 2q-24 0 -37.5 -11.5t-22.5 -35.5l-28 9q7 47 35.5 77.5t75.5 30.5q34 0 83 -22q48 -21 65 -21q23 0 37 9t28 40z" />
    <glyph glyph-name="Odieresis" unicode="&#xd6;" horiz-adv-x="756" 
d="M381 -16q-129 0 -220 78q-50 44 -78.5 112t-28.5 145q0 172 121 268q83 67 201 67q152 0 238.5 -95.5t86.5 -237.5q0 -124 -69 -217q-42 -55 -106.5 -87.5t-144.5 -32.5zM393 22q54 0 88 38q67 71 67 246q0 163 -62 247q-45 63 -118 63q-53 0 -90 -34q-70 -67 -70 -246
q0 -157 58 -242q48 -72 127 -72zM268 827q24 0 40.5 -17.5t16.5 -44.5q0 -29 -18 -44.5t-42 -15.5q-23 0 -40 17t-17 44q0 24 16.5 42.5t43.5 18.5zM480 826q25 0 42 -18.5t17 -42.5t-17 -42t-43 -18q-24 0 -42 17t-18 42q0 29 18.5 45.5t42.5 16.5z" />
    <glyph glyph-name="multiply" unicode="&#xd7;" horiz-adv-x="636" 
d="M259 238l-183 185l55 56l185 -187l185 187l56 -56l-188 -184l188 -184l-56 -57l-188 187l-183 -187l-54 56z" />
    <glyph glyph-name="Oslash" unicode="&#xd8;" horiz-adv-x="756" 
d="M626 664l-48 -72q60 -45 91.5 -116t31.5 -155q0 -123 -69 -216q-92 -120 -250 -120q-98 0 -176 45l-51 -78l-30 21l51 77q-2 2 -6.5 6t-7.5 6q-50 43 -79 111.5t-29 145.5q0 172 120 268q83 67 202 67q98 0 173 -43l48 73zM236 141l266 399q-2 2 -4.5 6t-3.5 6
q-47 64 -126 64q-57 0 -93 -35q-73 -71 -73 -245q0 -114 34 -195zM521 505l-266 -401l6 -9q48 -72 131 -72q56 0 91 38q71 76 71 245q0 120 -33 199z" />
    <glyph glyph-name="Ugrave" unicode="&#xd9;" horiz-adv-x="712" 
d="M19 602v36h313v-36q-50 -3 -68.5 -15t-18.5 -47v-349q0 -29 4 -45q27 -104 151 -104q66 0 105.5 29.5t53.5 77.5q7 24 7 61v284q0 66 -19.5 83t-95.5 25v36h258v-36q-62 -5 -79.5 -25.5t-17.5 -82.5v-265q0 -47 -8 -82q-7 -29 -21.5 -55.5t-41 -52t-71.5 -40.5t-103 -15
q-197 0 -248 139q-13 34 -13 88v329q0 37 -19 48t-68 14zM441 707l-19 -24l-221 98l3 18q15 14 49 32.5t48 18.5z" />
    <glyph glyph-name="Uacute" unicode="&#xda;" horiz-adv-x="712" 
d="M19 602v36h313v-36q-50 -3 -68.5 -15t-18.5 -47v-349q0 -29 4 -45q27 -104 151 -104q66 0 105.5 29.5t53.5 77.5q7 24 7 61v284q0 66 -19.5 83t-95.5 25v36h258v-36q-62 -5 -79.5 -25.5t-17.5 -82.5v-265q0 -47 -8 -82q-7 -29 -21.5 -55.5t-41 -52t-71.5 -40.5t-103 -15
q-197 0 -248 139q-13 34 -13 88v329q0 37 -19 48t-68 14zM339 691l-18 24l135 136q13 1 49.5 -14.5t51.5 -26.5v-18z" />
    <glyph glyph-name="Ucircumflex" unicode="&#xdb;" horiz-adv-x="712" 
d="M19 602v36h313v-36q-50 -3 -68.5 -15t-18.5 -47v-349q0 -29 4 -45q27 -104 151 -104q66 0 105.5 29.5t53.5 77.5q7 24 7 61v284q0 66 -19.5 83t-95.5 25v36h258v-36q-62 -5 -79.5 -25.5t-17.5 -82.5v-265q0 -47 -8 -82q-7 -29 -21.5 -55.5t-41 -52t-71.5 -40.5t-103 -15
q-197 0 -248 139q-13 34 -13 88v329q0 37 -19 48t-68 14zM547 720l-16 -30l-155 62q-64 -27 -157 -62l-14 29q75 48 160 124h26q98 -85 156 -123z" />
    <glyph glyph-name="Udieresis" unicode="&#xdc;" horiz-adv-x="712" 
d="M19 602v36h313v-36q-50 -3 -68.5 -15t-18.5 -47v-349q0 -29 4 -45q27 -104 151 -104q66 0 105.5 29.5t53.5 77.5q7 24 7 61v284q0 66 -19.5 83t-95.5 25v36h258v-36q-62 -5 -79.5 -25.5t-17.5 -82.5v-265q0 -47 -8 -82q-7 -29 -21.5 -55.5t-41 -52t-71.5 -40.5t-103 -15
q-197 0 -248 139q-13 34 -13 88v329q0 37 -19 48t-68 14zM276 822q24 0 40.5 -17.5t16.5 -44.5q0 -29 -18 -44.5t-42 -15.5q-23 0 -40 17t-17 44q0 24 16.5 42.5t43.5 18.5zM488 821q25 0 42 -18.5t17 -42.5t-17 -42t-43 -18q-24 0 -42 17t-18 42q0 29 18.5 45.5t42.5 16.5z
" />
    <glyph glyph-name="Yacute" unicode="&#xdd;" horiz-adv-x="607" 
d="M462 0h-313v36q55 4 71 14t16 48v141q0 31 -15 61q-76 153 -126 235q-23 39 -43 50t-65 17v36h306v-35q-33 -5 -45 -7q-30 -5 -16 -30q77 -153 122 -240q75 135 116 230q15 32 -15 38q-34 6 -63 8v36h234v-36q-47 -5 -71 -18t-44 -49q-51 -88 -127 -237q-9 -17 -9 -54
v-146q0 -39 15.5 -48.5t71.5 -13.5v-36zM282 689l-18 24l135 136q13 1 48.5 -14.5t51.5 -26.5v-18z" />
    <glyph glyph-name="Thorn" unicode="&#xde;" horiz-adv-x="636" 
d="M255 443v-230q0 -16 5 -21.5t20 -8.5q10 -3 35 -3q125 0 125 154q0 140 -125 140q-35 0 -48 -5q-12 -3 -12 -26zM342 0h-313v36q15 1 44 6q43 6 43 56v442q0 50 -42 57q-21 3 -45 5v36h313v-35q-23 -1 -43 -6q-44 -9 -44 -57v-31h85q116 0 171 -32q74 -45 74 -137
q0 -95 -78 -149q-66 -47 -189 -47q-38 0 -63 4v-50q0 -50 45 -57q25 -4 42 -5v-36z" />
    <glyph glyph-name="germandbls" unicode="&#xdf;" horiz-adv-x="577" 
d="M215 0h-197v32q28 3 44 8q21 4 21 33v319h-54v30q32 9 54 31q0 62 23.5 119.5t70.5 92.5q54 43 132 43q50 0 87 -17t55.5 -43t26.5 -51t8 -49t-3 -36q-2 -11 -14 -17q-97 -42 -97 -78q0 -16 9.5 -29.5t42.5 -39.5q64 -48 89.5 -89t25.5 -88q0 -76 -54.5 -129t-122.5 -53
q-58 0 -89 21t-31 50q0 21 16 36t33 15q14 0 23.5 -11.5t20.5 -36.5q12 -29 21 -34q5 -3 23 -3q22 0 42 21.5t20 55.5q0 35 -19 61t-68 65q-84 68 -84 123q0 27 17.5 52t35 38.5t53.5 37.5q14 9 16 25q2 13 2 38q0 54 -23 92t-69 38q-94 0 -94 -181v-418q0 -22 7 -74z" />
    <glyph glyph-name="agrave" unicode="&#xe0;" horiz-adv-x="477" 
d="M460 68v-33q-49 -48 -113 -48q-49 0 -70 55q-80 -55 -130 -55q-40 0 -69.5 32.5t-29.5 83.5q0 59 69 93q21 10 159 68q1 32 1 74q0 25 -21.5 46t-51.5 21q-17 0 -49 -20q-18 -11 -18 -17q0 -4 6 -16q15 -30 15 -42q0 -16 -23 -33t-41 -17q-23 0 -38.5 21t-15.5 44
q0 21 41 50q48 32 102.5 58.5t72.5 26.5q77 0 121 -64q18 -27 18 -103q0 -35 -0.5 -122t-0.5 -103q0 -15 18 -15q23 0 48 15zM276 233q-57 -25 -66 -30q-24 -13 -33 -29.5t-9 -42.5q0 -42 19 -62q15 -18 34 -18q21 0 37 10q11 8 13.5 15t2.5 26q3 117 2 131zM287 523
l-28 -15l-166 150l2 14q21 11 61.5 21t50.5 8z" />
    <glyph glyph-name="aacute" unicode="&#xe1;" horiz-adv-x="477" 
d="M460 68v-33q-49 -48 -113 -48q-49 0 -70 55q-80 -55 -130 -55q-40 0 -69.5 32.5t-29.5 83.5q0 59 69 93q21 10 159 68q1 32 1 74q0 25 -21.5 46t-51.5 21q-17 0 -49 -20q-18 -11 -18 -17q0 -4 6 -16q15 -30 15 -42q0 -16 -23 -33t-41 -17q-23 0 -38.5 21t-15.5 44
q0 21 41 50q48 32 102.5 58.5t72.5 26.5q77 0 121 -64q18 -27 18 -103q0 -35 -0.5 -122t-0.5 -103q0 -15 18 -15q23 0 48 15zM276 233q-57 -25 -66 -30q-24 -13 -33 -29.5t-9 -42.5q0 -42 19 -62q15 -18 34 -18q21 0 37 10q11 8 13.5 15t2.5 26q3 117 2 131zM199 506l-29 14
l97 180q9 2 50.5 -8.5t58.5 -18.5v-15z" />
    <glyph glyph-name="acircumflex" unicode="&#xe2;" horiz-adv-x="477" 
d="M460 68v-33q-49 -48 -113 -48q-49 0 -70 55q-80 -55 -130 -55q-40 0 -69.5 32.5t-29.5 83.5q0 59 69 93q21 10 159 68q1 32 1 74q0 25 -21.5 46t-51.5 21q-17 0 -49 -20q-18 -11 -18 -17q0 -4 6 -16q15 -30 15 -42q0 -16 -23 -33t-41 -17q-23 0 -38.5 21t-15.5 44
q0 21 41 50q48 32 102.5 58.5t72.5 26.5q77 0 121 -64q18 -27 18 -103q0 -35 -0.5 -122t-0.5 -103q0 -15 18 -15q23 0 48 15zM276 233q-57 -25 -66 -30q-24 -13 -33 -29.5t-9 -42.5q0 -42 19 -62q15 -18 34 -18q21 0 37 10q11 8 13.5 15t2.5 26q3 117 2 131zM375 528
l-25 -21l-113 92l-116 -92l-23 21q75 97 123 176h30q22 -34 124 -176z" />
    <glyph glyph-name="atilde" unicode="&#xe3;" horiz-adv-x="477" 
d="M460 68v-33q-49 -48 -113 -48q-49 0 -70 55q-80 -55 -130 -55q-40 0 -69.5 32.5t-29.5 83.5q0 59 69 93q21 10 159 68q1 32 1 74q0 25 -21.5 46t-51.5 21q-17 0 -49 -20q-18 -11 -18 -17q0 -4 6 -16q15 -30 15 -42q0 -16 -23 -33t-41 -17q-23 0 -38.5 21t-15.5 44
q0 21 41 50q48 32 102.5 58.5t72.5 26.5q77 0 121 -64q18 -27 18 -103q0 -35 -0.5 -122t-0.5 -103q0 -15 18 -15q23 0 48 15zM276 233q-57 -25 -66 -30q-24 -13 -33 -29.5t-9 -42.5q0 -42 19 -62q15 -18 34 -18q21 0 37 10q11 8 13.5 15t2.5 26q3 117 2 131zM380 663l25 -9
q-8 -49 -33 -82t-69 -33q-27 0 -85 26q-5 2 -16.5 7.5t-16.5 7t-13.5 3.5t-17.5 2q-23 0 -35 -11t-21 -36l-27 9q6 48 33 79.5t72 31.5q34 0 80 -23q43 -20 62 -20q22 0 35.5 9t26.5 39z" />
    <glyph glyph-name="adieresis" unicode="&#xe4;" horiz-adv-x="477" 
d="M460 68v-33q-49 -48 -113 -48q-49 0 -70 55q-80 -55 -130 -55q-40 0 -69.5 32.5t-29.5 83.5q0 59 69 93q21 10 159 68q1 32 1 74q0 25 -21.5 46t-51.5 21q-17 0 -49 -20q-18 -11 -18 -17q0 -4 6 -16q15 -30 15 -42q0 -16 -23 -33t-41 -17q-23 0 -38.5 21t-15.5 44
q0 21 41 50q48 32 102.5 58.5t72.5 26.5q77 0 121 -64q18 -27 18 -103q0 -35 -0.5 -122t-0.5 -103q0 -15 18 -15q23 0 48 15zM276 233q-57 -25 -66 -30q-24 -13 -33 -29.5t-9 -42.5q0 -42 19 -62q15 -18 34 -18q21 0 37 10q11 8 13.5 15t2.5 26q3 117 2 131zM132 664
q23 0 39.5 -19t16.5 -43q0 -30 -17 -45t-41 -15q-23 0 -39.5 17t-16.5 44q0 25 16 43t42 18zM325 663q25 0 42 -18.5t17 -42.5t-17 -42t-43 -18q-24 0 -42 17t-18 42q0 29 18.5 45.5t42.5 16.5z" />
    <glyph glyph-name="aring" unicode="&#xe5;" horiz-adv-x="477" 
d="M460 68v-33q-49 -48 -113 -48q-49 0 -70 55q-80 -55 -130 -55q-40 0 -69.5 32.5t-29.5 83.5q0 59 69 93q21 10 159 68q1 32 1 74q0 25 -21.5 46t-51.5 21q-17 0 -49 -20q-18 -11 -18 -17q0 -4 6 -16q15 -30 15 -42q0 -16 -23 -33t-41 -17q-23 0 -38.5 21t-15.5 44
q0 21 41 50q48 32 102.5 58.5t72.5 26.5q77 0 121 -64q18 -27 18 -103q0 -35 -0.5 -122t-0.5 -103q0 -15 18 -15q23 0 48 15zM276 233q-57 -25 -66 -30q-24 -13 -33 -29.5t-9 -42.5q0 -42 19 -62q15 -18 34 -18q21 0 37 10q11 8 13.5 15t2.5 26q3 117 2 131zM237 687
q40 0 64.5 -25.5t24.5 -61.5q0 -37 -24.5 -61t-64.5 -24q-39 0 -64 24t-25 61q0 35 25 61t64 26zM236 655q-19 0 -32 -15t-13 -40q0 -26 13.5 -40.5t33.5 -14.5q46 0 46 57q0 24 -13.5 38.5t-34.5 14.5z" />
    <glyph glyph-name="ae" unicode="&#xe6;" horiz-adv-x="705" 
d="M278 235q-40 -13 -71 -35q-22 -13 -30.5 -27t-8.5 -39q0 -38 18 -59q16 -17 36 -17q33 0 80 41q-24 60 -24 136zM651 114l18 -21q-74 -105 -196 -105q-104 0 -158 85q-107 -86 -163 -86q-41 0 -72.5 32.5t-31.5 84.5q0 31 14.5 51t46.5 37q80 43 169 74q0 12 0.5 41
t0.5 33q-1 24 -22 45t-51 21q-24 0 -52 -19q-17 -10 -17 -16t6 -18q14 -28 15 -42q0 -17 -23 -34t-41 -17q-22 0 -38 21.5t-16 43.5t41 50q126 85 169 85q76 0 115 -49q53 49 126 49q48 0 84.5 -17t56 -44t28.5 -55t9 -56q0 -34 -10 -35q-23 -3 -270 -3v-5q0 -112 46 -157
q38 -39 90 -39q68 0 126 65zM390 283q87 0 127 3q33 3 33 40q0 44 -19.5 72t-54.5 28q-36 0 -59 -39t-27 -104z" />
    <glyph glyph-name="ccedilla" unicode="&#xe7;" horiz-adv-x="466" 
d="M427 112l19 -19q-59 -94 -165 -104l-22 -26q48 -14 73.5 -38t25.5 -64t-34.5 -68t-77.5 -28q-35 0 -60.5 15t-25.5 32q0 14 11.5 27t25.5 14q15 0 32 -28q17 -26 36 -26q13 0 21 9.5t8 24.5q0 26 -29 43t-86 19v19l65 74q-91 6 -148 68t-57 162q0 120 93 190
q69 52 160 52q70 0 107.5 -23t37.5 -54q0 -24 -17.5 -41t-38.5 -17q-29 0 -53 34q-5 7 -15.5 24t-17.5 26q-11 16 -33 16t-43 -18q-47 -38 -47 -151q0 -98 37 -151q39 -54 97 -54q72 0 121 61z" />
    <glyph glyph-name="egrave" unicode="&#xe8;" horiz-adv-x="484" 
d="M429 114l19 -20q-69 -106 -195 -106q-107 0 -167 79q-47 64 -47 153q0 127 95 199q55 41 127 41q51 0 89.5 -17t58.5 -44.5t29.5 -55.5t9.5 -55q0 -34 -10 -35q-23 -3 -270 -3v-7q0 -109 49 -158q36 -36 85 -36q72 0 127 65zM169 283q87 0 127 3q33 3 33 39
q0 44 -19.5 72.5t-54.5 28.5q-36 0 -59 -39t-27 -104zM303 521l-29 -15l-166 150l2 14q22 11 62 21t50 8z" />
    <glyph glyph-name="eacute" unicode="&#xe9;" horiz-adv-x="484" 
d="M429 114l19 -20q-69 -106 -195 -106q-107 0 -167 79q-47 64 -47 153q0 127 95 199q55 41 127 41q51 0 89.5 -17t58.5 -44.5t29.5 -55.5t9.5 -55q0 -34 -10 -35q-23 -3 -270 -3v-7q0 -109 49 -158q36 -36 85 -36q72 0 127 65zM169 283q87 0 127 3q33 3 33 39
q0 44 -19.5 72.5t-54.5 28.5q-36 0 -59 -39t-27 -104zM228 505l-29 14l97 180q9 2 50.5 -8.5t58.5 -18.5v-15z" />
    <glyph glyph-name="ecircumflex" unicode="&#xea;" horiz-adv-x="484" 
d="M429 114l19 -20q-69 -106 -195 -106q-107 0 -167 79q-47 64 -47 153q0 127 95 199q55 41 127 41q51 0 89.5 -17t58.5 -44.5t29.5 -55.5t9.5 -55q0 -34 -10 -35q-23 -3 -270 -3v-7q0 -109 49 -158q36 -36 85 -36q72 0 127 65zM169 283q87 0 127 3q33 3 33 39
q0 44 -19.5 72.5t-54.5 28.5q-36 0 -59 -39t-27 -104zM383 528l-26 -21l-113 92l-116 -92l-23 21q72 94 124 176h29q15 -23 125 -176z" />
    <glyph glyph-name="edieresis" unicode="&#xeb;" horiz-adv-x="484" 
d="M429 114l19 -20q-69 -106 -195 -106q-107 0 -167 79q-47 64 -47 153q0 127 95 199q55 41 127 41q51 0 89.5 -17t58.5 -44.5t29.5 -55.5t9.5 -55q0 -34 -10 -35q-23 -3 -270 -3v-7q0 -109 49 -158q36 -36 85 -36q72 0 127 65zM169 283q87 0 127 3q33 3 33 39
q0 44 -19.5 72.5t-54.5 28.5q-36 0 -59 -39t-27 -104zM149 664q23 0 39.5 -19t16.5 -43q0 -30 -17 -45t-41 -15q-23 0 -39.5 17t-16.5 44q0 25 16 43t42 18zM342 663q25 0 42 -18.5t17 -42.5t-17 -42t-43 -18q-24 0 -42 17t-18 42q0 29 18.5 45.5t42.5 16.5z" />
    <glyph glyph-name="igrave" unicode="&#xec;" horiz-adv-x="288" 
d="M265 0h-247v36q44 3 54.5 9.5t10.5 31.5v229q0 34 -2 43.5t-10 18.5q-14 14 -41 25v26q86 5 171 41l8 -5q-1 -17 -1 -139v-238q0 -26 9 -32.5t48 -10.5v-35zM175 521l-28 -15l-166 150l2 14q21 11 61.5 21t50.5 8z" />
    <glyph glyph-name="iacute" unicode="&#xed;" horiz-adv-x="288" 
d="M265 0h-247v36q44 3 54.5 9.5t10.5 31.5v229q0 34 -2 43.5t-10 18.5q-14 14 -41 25v26q86 5 171 41l8 -5q-1 -17 -1 -139v-238q0 -26 9 -32.5t48 -10.5v-35zM118 506l-29 14l97 180q9 2 50.5 -8.5t58.5 -18.5v-15z" />
    <glyph glyph-name="icircumflex" unicode="&#xee;" horiz-adv-x="288" 
d="M265 0h-247v36q44 3 54.5 9.5t10.5 31.5v229q0 34 -2 43.5t-10 18.5q-14 14 -41 25v26q86 5 171 41l8 -5q-1 -17 -1 -139v-238q0 -26 9 -32.5t48 -10.5v-35zM280 528l-25 -21l-113 92l-116 -92l-23 21q75 97 123 176h30q22 -34 124 -176z" />
    <glyph glyph-name="idieresis" unicode="&#xef;" horiz-adv-x="288" 
d="M265 0h-247v36q44 3 54.5 9.5t10.5 31.5v229q0 34 -2 43.5t-10 18.5q-14 14 -41 25v26q86 5 171 41l8 -5q-1 -17 -1 -139v-238q0 -26 9 -32.5t48 -10.5v-35zM47 664q23 0 39.5 -19t16.5 -43q0 -30 -17 -45t-41 -15q-23 0 -39.5 17t-16.5 44q0 25 16 43t42 18zM240 663
q25 0 42 -18.5t17 -42.5t-17 -42t-43 -18q-24 0 -42 17t-18 42q0 29 18.5 45.5t42.5 16.5z" />
    <glyph glyph-name="eth" unicode="&#xf0;" horiz-adv-x="547" 
d="M279 24q89 0 89 223q0 62 -6 97q-7 42 -21 54q-21 23 -61 23q-42 0 -72 -41.5t-30 -144.5q0 -211 101 -211zM272 566l-118 -65l-20 31l112 62q-60 52 -155 74l6 30q124 -7 217 -65l112 61l19 -31l-97 -55q154 -118 154 -333q0 -126 -58.5 -206.5t-173.5 -80.5
q-106 0 -168.5 65t-62.5 166q0 110 65.5 174t165.5 64q47 0 74 -17q-17 71 -72 126z" />
    <glyph glyph-name="ntilde" unicode="&#xf1;" horiz-adv-x="565" 
d="M265 0h-247v36q24 1 34 2.5t20.5 11t10.5 27.5v216q0 55 -1 59q-2 8 -15.5 19t-36.5 21v27q37 3 87.5 15t83.5 26l9 -5q-4 -30 -4 -59q70 64 141 64q56 0 92 -33q45 -43 47 -138v-214q0 -7 1 -12t2 -9t5.5 -6.5t6 -4t8.5 -3t9 -2t11.5 -1.5t12.5 -1v-36h-242v36
q36 2 47 8t12 28q2 22 2 49v184q0 50 -25 72q-18 17 -49 17q-40 0 -63 -20q-10 -9 -13 -18t-3 -38v-243q0 -24 12.5 -30.5t44.5 -8.5v-36zM418 671l25 -9q-8 -48 -33.5 -81.5t-69.5 -33.5q-26 0 -84 26q-5 2 -16.5 7.5t-16.5 7t-13.5 3.5t-17.5 2q-23 0 -35.5 -11t-21.5 -36
l-26 9q6 48 33 79.5t71 31.5q36 0 80 -23q46 -20 63 -20q22 0 35.5 9t26.5 39z" />
    <glyph glyph-name="ograve" unicode="&#xf2;" horiz-adv-x="550" 
d="M280 460q105 0 170 -70q61 -64 61 -161q0 -101 -67 -171q-65 -70 -169 -70q-111 0 -173 67q-63 68 -63 170q0 125 102 195q60 40 139 40zM285 25q39 0 60 37q28 49 28 154q0 96 -31 155q-29 53 -75 53q-90 0 -90 -172q0 -129 42 -189q26 -38 66 -38zM325 521l-28 -15
l-166 150l2 14q21 11 61.5 21t50.5 8z" />
    <glyph glyph-name="oacute" unicode="&#xf3;" horiz-adv-x="550" 
d="M280 460q105 0 170 -70q61 -64 61 -161q0 -101 -67 -171q-65 -70 -169 -70q-111 0 -173 67q-63 68 -63 170q0 125 102 195q60 40 139 40zM285 25q39 0 60 37q28 49 28 154q0 96 -31 155q-29 53 -75 53q-90 0 -90 -172q0 -129 42 -189q26 -38 66 -38zM253 506l-29 14
l97 180q9 2 50.5 -8.5t58.5 -18.5v-15z" />
    <glyph glyph-name="ocircumflex" unicode="&#xf4;" horiz-adv-x="550" 
d="M280 460q105 0 170 -70q61 -64 61 -161q0 -101 -67 -171q-65 -70 -169 -70q-111 0 -173 67q-63 68 -63 170q0 125 102 195q60 40 139 40zM285 25q39 0 60 37q28 49 28 154q0 96 -31 155q-29 53 -75 53q-90 0 -90 -172q0 -129 42 -189q26 -38 66 -38zM413 528l-25 -21
l-114 92l-115 -92l-23 21q75 100 123 176h29q15 -23 125 -176z" />
    <glyph glyph-name="otilde" unicode="&#xf5;" horiz-adv-x="550" 
d="M280 460q105 0 170 -70q61 -64 61 -161q0 -101 -67 -171q-65 -70 -169 -70q-111 0 -173 67q-63 68 -63 170q0 125 102 195q60 40 139 40zM285 25q39 0 60 37q28 49 28 154q0 96 -31 155q-29 53 -75 53q-90 0 -90 -172q0 -129 42 -189q26 -38 66 -38zM418 663l25 -9
q-8 -48 -33.5 -81.5t-69.5 -33.5q-26 0 -84 26q-5 2 -16.5 7.5t-16.5 7t-13.5 3.5t-17.5 2q-23 0 -35.5 -11t-21.5 -36l-26 9q6 48 33 79.5t71 31.5q36 0 80 -23q46 -20 63 -20q22 0 35.5 9t26.5 39z" />
    <glyph glyph-name="odieresis" unicode="&#xf6;" horiz-adv-x="550" 
d="M280 460q105 0 170 -70q61 -64 61 -161q0 -101 -67 -171q-65 -70 -169 -70q-111 0 -173 67q-63 68 -63 170q0 125 102 195q60 40 139 40zM285 25q39 0 60 37q28 49 28 154q0 96 -31 155q-29 53 -75 53q-90 0 -90 -172q0 -129 42 -189q26 -38 66 -38zM178 664
q23 0 39.5 -19t16.5 -43q0 -30 -17 -45t-41 -15q-23 0 -39.5 17t-16.5 44q0 25 16 43t42 18zM371 663q25 0 42 -18.5t17 -42.5t-17 -42t-43 -18q-24 0 -42 17t-18 42q0 29 18.5 45.5t42.5 16.5z" />
    <glyph glyph-name="divide" unicode="&#xf7;" horiz-adv-x="636" 
d="M319 357q-21 0 -40.5 17t-19.5 46q0 27 17.5 45t42.5 18q26 0 43.5 -18t17.5 -45q0 -29 -19 -46t-42 -17zM319 -4q-20 0 -40 16t-20 46q0 27 17.5 45.5t42.5 18.5t43 -18.5t18 -44.5q0 -29 -20 -46t-41 -17zM562 206h-486v72h486v-72z" />
    <glyph glyph-name="oslash" unicode="&#xf8;" horiz-adv-x="550" 
d="M461 467l-38 -54q88 -66 88 -190q0 -97 -65 -168t-176 -71q-69 0 -123 34l-44 -63l-26 21l43 61q-81 68 -81 184q0 106 70.5 172.5t169.5 66.5q65 0 116 -28l39 55zM182 126l171 245q-25 57 -81 57q-45 0 -72 -52t-27 -147q0 -61 9 -103zM366 332l-173 -248
q27 -67 89 -67q95 0 95 199q0 71 -11 116z" />
    <glyph glyph-name="ugrave" unicode="&#xf9;" horiz-adv-x="553" 
d="M535 48v-35q-114 -12 -177 -25l-5 5q-2 8 -4 52q-71 -57 -135 -57q-59 0 -98 35.5t-39 108.5v238q0 19 -8.5 26t-48.5 17v35q150 0 186 7q0 -15 -1 -36.5t-1.5 -42t-0.5 -45.5v-211q0 -29 22 -48.5t53 -19.5q32 0 54 14q6 5 9 9.5t5 16.5t2 34v251q0 14 -13 21t-61 15
l6 35q129 0 195 6q-2 -48 -2 -128v-248q2 -19 16 -23q17 -5 46 -7zM315 521l-28 -15l-167 150l2 14q22 11 62 21t50 8z" />
    <glyph glyph-name="uacute" unicode="&#xfa;" horiz-adv-x="553" 
d="M535 48v-35q-114 -12 -177 -25l-5 5q-2 8 -4 52q-71 -57 -135 -57q-59 0 -98 35.5t-39 108.5v238q0 19 -8.5 26t-48.5 17v35q150 0 186 7q0 -15 -1 -36.5t-1.5 -42t-0.5 -45.5v-211q0 -29 22 -48.5t53 -19.5q32 0 54 14q6 5 9 9.5t5 16.5t2 34v251q0 14 -13 21t-61 15
l6 35q129 0 195 6q-2 -48 -2 -128v-248q2 -19 16 -23q17 -5 46 -7zM246 506l-29 14l97 180q9 2 50.5 -8.5t58.5 -18.5v-15z" />
    <glyph glyph-name="ucircumflex" unicode="&#xfb;" horiz-adv-x="553" 
d="M535 48v-35q-114 -12 -177 -25l-5 5q-2 8 -4 52q-71 -57 -135 -57q-59 0 -98 35.5t-39 108.5v238q0 19 -8.5 26t-48.5 17v35q150 0 186 7q0 -15 -1 -36.5t-1.5 -42t-0.5 -45.5v-211q0 -29 22 -48.5t53 -19.5q32 0 54 14q6 5 9 9.5t5 16.5t2 34v251q0 14 -13 21t-61 15
l6 35q129 0 195 6q-2 -48 -2 -128v-248q2 -19 16 -23q17 -5 46 -7zM402 528l-26 -21l-113 92l-115 -92l-23 21q75 100 123 176h29q15 -23 125 -176z" />
    <glyph glyph-name="udieresis" unicode="&#xfc;" horiz-adv-x="553" 
d="M535 48v-35q-114 -12 -177 -25l-5 5q-2 8 -4 52q-71 -57 -135 -57q-59 0 -98 35.5t-39 108.5v238q0 19 -8.5 26t-48.5 17v35q150 0 186 7q0 -15 -1 -36.5t-1.5 -42t-0.5 -45.5v-211q0 -29 22 -48.5t53 -19.5q32 0 54 14q6 5 9 9.5t5 16.5t2 34v251q0 14 -13 21t-61 15
l6 35q129 0 195 6q-2 -48 -2 -128v-248q2 -19 16 -23q17 -5 46 -7zM167 664q23 0 39.5 -19t16.5 -43q0 -30 -17 -45t-41 -15q-23 0 -39.5 17t-16.5 44q0 25 16 43t42 18zM360 663q25 0 42 -18.5t17 -42.5t-17 -42t-43 -18q-24 0 -42 17t-18 42q0 29 18.5 45.5t42.5 16.5z
" />
    <glyph glyph-name="yacute" unicode="&#xfd;" horiz-adv-x="484" 
d="M-5 412v36h258v-36q-19 -1 -45 -5q-21 -6 -12 -29q17 -49 95 -240q59 165 79 228q10 33 -13 39q-12 3 -52 7v36h187v-36q-35 -3 -48.5 -11.5t-25.5 -37.5q-31 -76 -122 -319q-8 -22 -17 -46t-19 -50.5t-15 -39.5q-32 -84 -61 -114t-64 -30q-25 0 -44 17.5t-19 43.5
q0 30 18.5 51t37.5 21q11 0 38 -21q15 -11 24 -11t23 28q16 34 31 89q-5 19 -71 177t-93 216q-10 22 -21.5 27.5t-48.5 9.5zM256 506l-29 14l97 180q9 2 50.5 -8.5t58.5 -18.5v-15z" />
    <glyph glyph-name="thorn" unicode="&#xfe;" horiz-adv-x="553" 
d="M282 -222h-283v35q46 2 57.5 11t13.5 38q2 35 2 140v551q0 44 -2 52q-6 26 -65 43v27q113 0 193 26l4 -4q-5 -45 -5 -105v-184q75 51 133 51q64 0 111 -42q75 -66 75 -174q0 -107 -72 -182q-34 -35 -85 -54t-87 -19q-21 0 -75 7q0 -101 2 -137q1 -27 15 -34t68 -11v-35z
M197 311v-193q0 -35 10 -49q10 -19 33.5 -30.5t42.5 -11.5q49 0 72 47q27 49 27 137q0 97 -33 146q-29 44 -77 44q-32 0 -51 -12q-16 -10 -20 -23.5t-4 -54.5z" />
    <glyph glyph-name="ydieresis" unicode="&#xff;" horiz-adv-x="484" 
d="M-5 412v36h258v-36q-19 -1 -45 -5q-21 -6 -12 -29q17 -49 95 -240q59 165 79 228q10 33 -13 39q-12 3 -52 7v36h187v-36q-35 -3 -48.5 -11.5t-25.5 -37.5q-31 -76 -122 -319q-8 -22 -17 -46t-19 -50.5t-15 -39.5q-32 -84 -61 -114t-64 -30q-25 0 -44 17.5t-19 43.5
q0 30 18.5 51t37.5 21q11 0 38 -21q15 -11 24 -11t23 28q16 34 31 89q-5 19 -71 177t-93 216q-10 22 -21.5 27.5t-48.5 9.5zM169 664q23 0 39.5 -19t16.5 -43q0 -30 -17 -45t-41 -15q-23 0 -39.5 17t-16.5 44q0 25 16 43t42 18zM361 663q25 0 42 -18.5t17 -42.5t-17 -42
t-43 -18q-24 0 -42 17t-18 42q0 29 18.5 45.5t42.5 16.5z" />
    <glyph glyph-name="Amacron" unicode="&#x100;" horiz-adv-x="677" 
d="M-17 0v36q55 5 76.5 18t38.5 56q50 123 181 467q13 32 14 61h97l18 -50q33 -92 184 -489q15 -36 32 -46.5t67 -16.5v-36h-310v36l17 1q16 1 26 3q20 4 26 13t0 29q-19 55 -52 137h-210q-10 -26 -25 -69.5t-18 -51.5q-9 -28 -2.5 -39.5t35.5 -16.5q28 -5 50 -6v-36h-245z
M201 260h183l-91 250q-8 -23 -42.5 -114t-49.5 -136zM203 774h284v-66h-284v66z" />
    <glyph glyph-name="amacron" unicode="&#x101;" horiz-adv-x="477" 
d="M460 68v-33q-49 -48 -113 -48q-49 0 -70 55q-80 -55 -130 -55q-40 0 -69.5 32.5t-29.5 83.5q0 59 69 93q21 10 159 68q1 32 1 74q0 25 -21.5 46t-51.5 21q-17 0 -49 -20q-18 -11 -18 -17q0 -4 6 -16q15 -30 15 -42q0 -16 -23 -33t-41 -17q-23 0 -38.5 21t-15.5 44
q0 21 41 50q48 32 102.5 58.5t72.5 26.5q77 0 121 -64q18 -27 18 -103q0 -35 -0.5 -122t-0.5 -103q0 -15 18 -15q23 0 48 15zM276 233q-57 -25 -66 -30q-24 -13 -33 -29.5t-9 -42.5q0 -42 19 -62q15 -18 34 -18q21 0 37 10q11 8 13.5 15t2.5 26q3 117 2 131zM100 625h266
v-66h-266v66z" />
    <glyph glyph-name="Abreve" unicode="&#x102;" horiz-adv-x="677" 
d="M-17 0v36q55 5 76.5 18t38.5 56q50 123 181 467q13 32 14 61h97l18 -50q33 -92 184 -489q15 -36 32 -46.5t67 -16.5v-36h-310v36l17 1q16 1 26 3q20 4 26 13t0 29q-19 55 -52 137h-210q-10 -26 -25 -69.5t-18 -51.5q-9 -28 -2.5 -39.5t35.5 -16.5q28 -5 50 -6v-36h-245z
M201 260h183l-91 250q-8 -23 -42.5 -114t-49.5 -136zM482 825l29 -8q-45 -133 -172 -133q-71 0 -111 38t-52 95l29 8q14 -19 23 -28.5t38.5 -20t74.5 -10.5q36 0 60.5 4.5t41 16t21.5 17t18 21.5z" />
    <glyph glyph-name="abreve" unicode="&#x103;" horiz-adv-x="477" 
d="M460 68v-33q-49 -48 -113 -48q-49 0 -70 55q-80 -55 -130 -55q-40 0 -69.5 32.5t-29.5 83.5q0 59 69 93q21 10 159 68q1 32 1 74q0 25 -21.5 46t-51.5 21q-17 0 -49 -20q-18 -11 -18 -17q0 -4 6 -16q15 -30 15 -42q0 -16 -23 -33t-41 -17q-23 0 -38.5 21t-15.5 44
q0 21 41 50q48 32 102.5 58.5t72.5 26.5q77 0 121 -64q18 -27 18 -103q0 -35 -0.5 -122t-0.5 -103q0 -15 18 -15q23 0 48 15zM276 233q-57 -25 -66 -30q-24 -13 -33 -29.5t-9 -42.5q0 -42 19 -62q15 -18 34 -18q21 0 37 10q11 8 13.5 15t2.5 26q3 117 2 131zM363 677l30 -5
q-13 -61 -54 -101.5t-107 -40.5t-104.5 39t-46.5 103l32 5q29 -66 123 -66q48 0 77.5 15.5t49.5 50.5z" />
    <glyph glyph-name="Aogonek" unicode="&#x104;" horiz-adv-x="677" 
d="M691 0h-115q-53 -58 -53 -111q0 -25 14.5 -38.5t34.5 -13.5q31 0 62 22l10 -27q-42 -66 -120 -66q-45 0 -70.5 24.5t-25.5 61.5q0 71 111 148h-158v36l17 1q16 1 26 3q20 4 26 13t0 29q-19 55 -52 137h-210q-10 -26 -25 -69.5t-18 -51.5q-9 -28 -2.5 -39.5t35.5 -16.5
q28 -5 50 -6v-36h-245v36q55 5 76.5 18t38.5 56q50 123 181 467q13 32 14 61h97l18 -50q33 -92 184 -489q15 -36 32 -46.5t67 -16.5v-36zM201 260h183l-91 250q-8 -23 -42.5 -114t-49.5 -136z" />
    <glyph glyph-name="aogonek" unicode="&#x105;" horiz-adv-x="477" 
d="M460 68v-33q-24 -22 -45 -32q-74 -66 -74 -115q0 -50 48 -50q39 0 68 19v-26q-42 -65 -116 -65q-44 0 -69.5 23.5t-25.5 60.5q0 64 116 138q-5 -1 -15 -1q-49 0 -70 55q-80 -55 -130 -55q-40 0 -69.5 32.5t-29.5 83.5q0 59 69 93q21 10 159 68q1 32 1 74q0 25 -21.5 46
t-51.5 21q-17 0 -49 -20q-18 -11 -18 -17q0 -4 6 -16q15 -30 15 -42q0 -16 -23 -33t-41 -17q-23 0 -38.5 21t-15.5 44q0 21 41 50q48 32 102.5 58.5t72.5 26.5q77 0 121 -64q18 -27 18 -103q0 -35 -0.5 -122t-0.5 -103q0 -15 18 -15q23 0 48 15zM274 102q3 117 2 131
q-57 -25 -66 -30q-24 -13 -33 -29.5t-9 -42.5q0 -42 19 -62q15 -18 34 -18q21 0 37 10q11 8 13.5 15t2.5 26z" />
    <glyph glyph-name="Cacute" unicode="&#x106;" horiz-adv-x="686" 
d="M633 441l-32 -8q-38 113 -104 156q-43 27 -98 27q-65 0 -109 -41t-63 -104t-19 -143q0 -150 57.5 -226t153.5 -76q39 0 66 12q27 11 51.5 35t39.5 45t37 57l31 -15q-24 -50 -67 -158q-26 0 -54 -6q-64 -12 -109 -12q-73 0 -136.5 20.5t-114.5 60.5t-80 106.5t-29 152.5
q0 73 28.5 140.5t87.5 114.5q93 75 237 75q84 0 145 -27q20 6 37 21h24q-2 -60 20 -207zM349 694l-18 23l135 136q13 1 48.5 -14.5t51.5 -26.5v-18z" />
    <glyph glyph-name="cacute" unicode="&#x107;" horiz-adv-x="466" 
d="M427 112l19 -19q-67 -105 -187 -105q-100 0 -163 68q-57 62 -57 162q0 120 93 190q69 52 160 52q70 0 107.5 -23t37.5 -54q0 -24 -17.5 -41t-38.5 -17q-29 0 -53 34q-5 7 -15.5 24t-17.5 26q-11 16 -33 16t-43 -18q-47 -38 -47 -151q0 -98 37 -151q39 -54 97 -54
q72 0 121 61zM247 506l-29 14l97 180q9 2 50.5 -8.5t58.5 -18.5v-15z" />
    <glyph glyph-name="Ccircumflex" unicode="&#x108;" horiz-adv-x="686" 
d="M633 441l-32 -8q-38 113 -104 156q-43 27 -98 27q-65 0 -109 -41t-63 -104t-19 -143q0 -150 57.5 -226t153.5 -76q39 0 66 12q27 11 51.5 35t39.5 45t37 57l31 -15q-24 -50 -67 -158q-26 0 -54 -6q-64 -12 -109 -12q-73 0 -136.5 20.5t-114.5 60.5t-80 106.5t-29 152.5
q0 73 28.5 140.5t87.5 114.5q93 75 237 75q84 0 145 -27q20 6 37 21h24q-2 -60 20 -207zM562 731l-17 -30q-12 5 -45 18t-61.5 24.5t-48.5 19.5q-79 -33 -157 -62l-13 29q72 46 159 124h27q102 -88 156 -123z" />
    <glyph glyph-name="ccircumflex" unicode="&#x109;" horiz-adv-x="466" 
d="M427 112l19 -19q-67 -105 -187 -105q-100 0 -163 68q-57 62 -57 162q0 120 93 190q69 52 160 52q70 0 107.5 -23t37.5 -54q0 -24 -17.5 -41t-38.5 -17q-29 0 -53 34q-5 7 -15.5 24t-17.5 26q-11 16 -33 16t-43 -18q-47 -38 -47 -151q0 -98 37 -151q39 -54 97 -54
q72 0 121 61zM399 528l-25 -21l-113 92l-116 -92l-23 21q75 97 123 176h30q22 -34 124 -176z" />
    <glyph glyph-name="Cdotaccent" unicode="&#x10a;" horiz-adv-x="686" 
d="M633 441l-32 -8q-38 113 -104 156q-43 27 -98 27q-65 0 -109 -41t-63 -104t-19 -143q0 -150 57.5 -226t153.5 -76q39 0 66 12q27 11 51.5 35t39.5 45t37 57l31 -15q-24 -50 -67 -158q-26 0 -54 -6q-64 -12 -109 -12q-73 0 -136.5 20.5t-114.5 60.5t-80 106.5t-29 152.5
q0 73 28.5 140.5t87.5 114.5q93 75 237 75q84 0 145 -27q20 6 37 21h24q-2 -60 20 -207zM323 779q0 28 18 48.5t50 20.5q29 0 47 -20t18 -49q0 -31 -18.5 -50t-47.5 -19q-31 0 -49 20t-18 49z" />
    <glyph glyph-name="cdotaccent" unicode="&#x10b;" horiz-adv-x="466" 
d="M427 112l19 -19q-67 -105 -187 -105q-100 0 -163 68q-57 62 -57 162q0 120 93 190q69 52 160 52q70 0 107.5 -23t37.5 -54q0 -24 -17.5 -41t-38.5 -17q-29 0 -53 34q-5 7 -15.5 24t-17.5 26q-11 16 -33 16t-43 -18q-47 -38 -47 -151q0 -98 37 -151q39 -54 97 -54
q72 0 121 61zM199 598q0 28 18 48.5t51 20.5q29 0 47 -20t18 -49q0 -31 -18.5 -50t-47.5 -19q-32 0 -50 20t-18 49z" />
    <glyph glyph-name="Ccaron" unicode="&#x10c;" horiz-adv-x="686" 
d="M633 441l-32 -8q-38 113 -104 156q-43 27 -98 27q-65 0 -109 -41t-63 -104t-19 -143q0 -150 57.5 -226t153.5 -76q39 0 66 12q27 11 51.5 35t39.5 45t37 57l31 -15q-24 -50 -67 -158q-26 0 -54 -6q-64 -12 -109 -12q-73 0 -136.5 20.5t-114.5 60.5t-80 106.5t-29 152.5
q0 73 28.5 140.5t87.5 114.5q93 75 237 75q84 0 145 -27q20 6 37 21h24q-2 -60 20 -207zM220 830l17 30q71 -29 155 -62q67 29 157 62l13 -29q-68 -43 -159 -125h-27q-106 92 -156 124z" />
    <glyph glyph-name="ccaron" unicode="&#x10d;" horiz-adv-x="466" 
d="M427 112l19 -19q-67 -105 -187 -105q-100 0 -163 68q-57 62 -57 162q0 120 93 190q69 52 160 52q70 0 107.5 -23t37.5 -54q0 -24 -17.5 -41t-38.5 -17q-29 0 -53 34q-5 7 -15.5 24t-17.5 26q-11 16 -33 16t-43 -18q-47 -38 -47 -151q0 -98 37 -151q39 -54 97 -54
q72 0 121 61zM124 701l25 21l114 -92l115 92l23 -21q-70 -92 -123 -175h-29q-16 26 -37 55t-49 67t-39 53z" />
    <glyph glyph-name="Dcaron" unicode="&#x10e;" horiz-adv-x="737" 
d="M254 555v-432q1 -34 3 -45t10 -18q30 -24 76 -24q81 0 133 73q58 81 58 216q0 159 -83 232q-53 45 -124 45q-49 0 -64 -14q-9 -6 -9 -33zM29 0v36q49 4 68 15t19 47v442q0 36 -18.5 47.5t-68.5 14.5v36h307q118 0 191 -36q76 -35 116 -106.5t40 -156.5q0 -155 -106 -251
q-97 -88 -243 -88h-305zM162 816l16 30q12 -5 45 -18t61.5 -24.5t48.5 -19.5q79 33 157 62l13 -29q-72 -46 -159 -124h-27q-102 88 -155 123z" />
    <glyph glyph-name="dcaron" unicode="&#x10f;" horiz-adv-x="606" 
d="M359 115v208q0 46 -18 68q-27 34 -70 34q-36 0 -56 -23q-38 -41 -38 -162q0 -104 35 -155q30 -44 75 -44q30 0 51 14q21 17 21 60zM545 42v-34q-120 -7 -174 -18l-7 5q-3 18 -3 41q-78 -48 -143 -48q-67 0 -116 52q-63 67 -63 174q0 128 98 199q64 47 155 47q37 0 67 -7
q0 142 -3 151q-10 25 -74 43v29q151 6 202 27l5 -4q-6 -46 -6 -110v-489q0 -34 9 -41q16 -14 53 -17zM602 444h-29q-5 27 -19.5 123t-15.5 102v18q27 9 50 9t50 -8v-18q-29 -191 -36 -226z" />
    <glyph glyph-name="Dcroat" unicode="&#x110;" horiz-adv-x="737" 
d="M29 638h307q118 0 191 -36q76 -35 116 -106.5t40 -156.5q0 -155 -106 -251q-97 -88 -243 -88h-305v36q49 4 68 15t19 47v214h-86v43h86v185q0 36 -18.5 47.5t-68.5 14.5v36zM254 312v-189q1 -34 3 -45t10 -18q30 -24 76 -24q81 0 133 73q58 81 58 216q0 159 -83 232
q-53 45 -124 45q-49 0 -64 -14q-9 -6 -9 -33v-200h139v-43h-139z" />
    <glyph glyph-name="dcroat" unicode="&#x111;" horiz-adv-x="561" 
d="M483 522v-422q0 -34 9 -41q16 -14 53 -17v-34q-120 -7 -174 -18l-7 5q-3 18 -3 41q-78 -48 -143 -48q-67 0 -116 52q-63 67 -63 174q0 128 98 199q64 47 155 47q37 0 67 -7v69h-122v38h122q-1 40 -3 44q-10 25 -74 43v29q151 6 202 27l5 -4q-6 -46 -6 -110v-29h55v-38
h-55zM359 115v208q0 46 -18 68q-27 34 -70 34q-36 0 -56 -23q-38 -41 -38 -162q0 -104 35 -155q30 -44 75 -44q30 0 51 14q21 17 21 60z" />
    <glyph glyph-name="Emacron" unicode="&#x112;" horiz-adv-x="643" 
d="M403 0h-384v36q60 4 78.5 15t18.5 47v442q0 37 -19 48t-68 14v36h364q94 0 150 6q2 -84 21 -181l-32 -9q-42 100 -90 130q-25 15 -63 15h-98q-17 0 -22 -6.5t-5 -25.5v-217h71q44 0 58 22.5t25 90.5h33q0 -8 -1.5 -54t-1.5 -76q0 -40 3 -136h-33q-15 73 -26 88
q-15 23 -57 23h-71v-194q0 -46 15 -60.5t69 -14.5h48q54 0 87 19q48 30 109 149l32 -10q-33 -100 -53 -200q-27 3 -158 3zM175 784h285v-66h-285v66z" />
    <glyph glyph-name="emacron" unicode="&#x113;" horiz-adv-x="484" 
d="M429 114l19 -20q-69 -106 -195 -106q-107 0 -167 79q-47 64 -47 153q0 127 95 199q55 41 127 41q51 0 89.5 -17t58.5 -44.5t29.5 -55.5t9.5 -55q0 -34 -10 -35q-23 -3 -270 -3v-7q0 -109 49 -158q36 -36 85 -36q72 0 127 65zM169 283q87 0 127 3q33 3 33 39
q0 44 -19.5 72.5t-54.5 28.5q-36 0 -59 -39t-27 -104zM121 625h266v-66h-266v66z" />
    <glyph glyph-name="Ebreve" unicode="&#x114;" horiz-adv-x="643" 
d="M403 0h-384v36q60 4 78.5 15t18.5 47v442q0 37 -19 48t-68 14v36h364q94 0 150 6q2 -84 21 -181l-32 -9q-42 100 -90 130q-25 15 -63 15h-98q-17 0 -22 -6.5t-5 -25.5v-217h71q44 0 58 22.5t25 90.5h33q0 -8 -1.5 -54t-1.5 -76q0 -40 3 -136h-33q-15 73 -26 88
q-15 23 -57 23h-71v-194q0 -46 15 -60.5t69 -14.5h48q54 0 87 19q48 30 109 149l32 -10q-33 -100 -53 -200q-27 3 -158 3zM451 840l29 -8q-45 -133 -171 -133q-72 0 -111.5 37.5t-51.5 95.5l29 8q14 -19 23 -28.5t38.5 -20t73.5 -10.5q36 0 60.5 4.5t41 16t21.5 17t18 21.5z
" />
    <glyph glyph-name="ebreve" unicode="&#x115;" horiz-adv-x="484" 
d="M429 114l19 -20q-69 -106 -195 -106q-107 0 -167 79q-47 64 -47 153q0 127 95 199q55 41 127 41q51 0 89.5 -17t58.5 -44.5t29.5 -55.5t9.5 -55q0 -34 -10 -35q-23 -3 -270 -3v-7q0 -109 49 -158q36 -36 85 -36q72 0 127 65zM169 283q87 0 127 3q33 3 33 39
q0 44 -19.5 72.5t-54.5 28.5q-36 0 -59 -39t-27 -104zM381 677l30 -5q-13 -61 -54 -101.5t-107 -40.5t-104.5 39t-46.5 103l32 5q29 -66 123 -66q48 0 77.5 15.5t49.5 50.5z" />
    <glyph glyph-name="Edotaccent" unicode="&#x116;" horiz-adv-x="643" 
d="M403 0h-384v36q60 4 78.5 15t18.5 47v442q0 37 -19 48t-68 14v36h364q94 0 150 6q2 -84 21 -181l-32 -9q-42 100 -90 130q-25 15 -63 15h-98q-17 0 -22 -6.5t-5 -25.5v-217h71q44 0 58 22.5t25 90.5h33q0 -8 -1.5 -54t-1.5 -76q0 -40 3 -136h-33q-15 73 -26 88
q-15 23 -57 23h-71v-194q0 -46 15 -60.5t69 -14.5h48q54 0 87 19q48 30 109 149l32 -10q-33 -100 -53 -200q-27 3 -158 3zM252 777q0 28 18 48.5t50 20.5q29 0 47 -20t18 -49q0 -31 -18.5 -50t-47.5 -19q-31 0 -49 20t-18 49z" />
    <glyph glyph-name="edotaccent" unicode="&#x117;" horiz-adv-x="484" 
d="M429 114l19 -20q-69 -106 -195 -106q-107 0 -167 79q-47 64 -47 153q0 127 95 199q55 41 127 41q51 0 89.5 -17t58.5 -44.5t29.5 -55.5t9.5 -55q0 -34 -10 -35q-23 -3 -270 -3v-7q0 -109 49 -158q36 -36 85 -36q72 0 127 65zM169 283q87 0 127 3q33 3 33 39
q0 44 -19.5 72.5t-54.5 28.5q-36 0 -59 -39t-27 -104zM186 598q0 28 18 48.5t51 20.5q29 0 47 -20t18 -49q0 -31 -18.5 -50t-47.5 -19q-32 0 -50 20t-18 49z" />
    <glyph glyph-name="Eogonek" unicode="&#x118;" horiz-adv-x="643" 
d="M582 207l32 -10q-33 -100 -53 -200q-22 2 -52 2q-53 -58 -53 -110q0 -25 14.5 -38.5t34.5 -13.5q31 0 62 22l10 -27q-42 -66 -120 -66q-45 0 -70.5 24.5t-25.5 61.5q0 71 111 148h-69h-384v36q60 4 78.5 15t18.5 47v442q0 37 -19 48t-68 14v36h364q94 0 150 6
q2 -84 21 -181l-32 -9q-42 100 -90 130q-25 15 -63 15h-98q-17 0 -22 -6.5t-5 -25.5v-217h71q44 0 58 22.5t25 90.5h33q0 -8 -1.5 -54t-1.5 -76q0 -40 3 -136h-33q-15 73 -26 88q-15 23 -57 23h-71v-194q0 -46 15 -60.5t69 -14.5h48q54 0 87 19q48 30 109 149z" />
    <glyph glyph-name="eogonek" unicode="&#x119;" horiz-adv-x="484" 
d="M429 114l19 -20q-30 -46 -71 -72q-74 -70 -74 -126q0 -52 48 -52q39 0 69 20v-26q-22 -31 -54 -48.5t-64 -17.5q-44 0 -69 25t-25 63q0 58 104 135q-27 -7 -59 -7q-107 0 -167 79q-47 64 -47 153q0 127 95 199q55 41 127 41q51 0 89.5 -17t58.5 -44.5t29.5 -55.5t9.5 -55
q0 -34 -10 -35q-23 -3 -270 -3v-7q0 -109 49 -158q36 -36 85 -36q72 0 127 65zM255 426q-36 0 -59 -39t-27 -104q87 0 127 3q33 3 33 39q0 44 -19.5 72.5t-54.5 28.5z" />
    <glyph glyph-name="Ecaron" unicode="&#x11a;" horiz-adv-x="643" 
d="M403 0h-384v36q60 4 78.5 15t18.5 47v442q0 37 -19 48t-68 14v36h364q94 0 150 6q2 -84 21 -181l-32 -9q-42 100 -90 130q-25 15 -63 15h-98q-17 0 -22 -6.5t-5 -25.5v-217h71q44 0 58 22.5t25 90.5h33q0 -8 -1.5 -54t-1.5 -76q0 -40 3 -136h-33q-15 73 -26 88
q-15 23 -57 23h-71v-194q0 -46 15 -60.5t69 -14.5h48q54 0 87 19q48 30 109 149l32 -10q-33 -100 -53 -200q-27 3 -158 3zM143 816l17 30l155 -62q79 33 157 62l13 -29q-68 -43 -159 -125h-27q-106 92 -156 124z" />
    <glyph glyph-name="ecaron" unicode="&#x11b;" horiz-adv-x="484" 
d="M429 114l19 -20q-69 -106 -195 -106q-107 0 -167 79q-47 64 -47 153q0 127 95 199q55 41 127 41q51 0 89.5 -17t58.5 -44.5t29.5 -55.5t9.5 -55q0 -34 -10 -35q-23 -3 -270 -3v-7q0 -109 49 -158q36 -36 85 -36q72 0 127 65zM169 283q87 0 127 3q33 3 33 39
q0 44 -19.5 72.5t-54.5 28.5q-36 0 -59 -39t-27 -104zM112 692l25 21l113 -92l116 92l23 -21q-67 -87 -123 -176h-30q-18 29 -124 176z" />
    <glyph glyph-name="Gcircumflex" unicode="&#x11c;" horiz-adv-x="730" 
d="M684 306v-37q-1 0 -12 -1t-19 -2q-20 -4 -27 -14t-7 -29v-138q0 -16 6.5 -21.5t25.5 -10.5v-25q-5 -1 -34.5 -9.5t-47 -12t-47 -10t-59.5 -9t-60 -2.5q-169 0 -264 97q-85 88 -85 244q0 80 33.5 149t96.5 115q85 64 220 64q74 0 155 -27q32 15 38 20h26q0 -75 22 -207
l-30 -7q-37 103 -100 148q-45 35 -112 35q-96 0 -145.5 -78.5t-49.5 -208.5q0 -143 56 -229q53 -79 143 -79q34 0 49 8q23 11 23 47v140q0 23 -8 33.5t-30 14.5q-26 4 -57 6v36h300zM556 732l-16 -30q-12 5 -45 18t-61.5 24.5t-48.5 19.5q-64 -27 -157 -62l-13 29
q72 46 159 124h26q98 -85 156 -123z" />
    <glyph glyph-name="gcircumflex" unicode="&#x11d;" horiz-adv-x="493" 
d="M252 -182q70 0 115 26t45 66q0 56 -96 56q-122 0 -152 -3q-3 0 -7 -0.5t-6 -0.5t-5 -0.5t-4 -1t-3.5 -1t-3.5 -1l-3 -1.5t-4 -2.5t-4 -3.5q-24 -20 -24 -51q0 -34 46 -61q38 -21 106 -21zM224 426q-25 0 -41 -26q-19 -33 -19 -90q0 -62 18 -95q18 -34 55 -34q27 0 40 22
q22 35 22 101q-1 122 -75 122zM231 460q61 0 114 -25q68 43 114 43q27 0 42 -12t15 -28q0 -25 -15.5 -41.5t-31.5 -16.5q-13 0 -31 19q-28 30 -38 30t-28 -14q43 -49 43 -110t-38 -102q-51 -55 -153 -55q-46 0 -76 10q-25 -23 -25 -47q0 -17 16.5 -24t34.5 -7q4 0 60.5 1
t87.5 0q96 -3 131 -43q30 -32 30 -76q0 -79 -82 -137q-83 -61 -206 -61q-79 0 -123 27q-51 28 -51 73q0 49 85 104q-66 26 -66 78q0 28 23.5 62t60.5 60q-81 41 -81 132q0 73 53 117q51 43 135 43zM374 528l-26 -21l-113 92l-115 -92l-23 21q75 100 123 176h29
q15 -23 125 -176z" />
    <glyph glyph-name="Gbreve" unicode="&#x11e;" horiz-adv-x="730" 
d="M684 306v-37q-1 0 -12 -1t-19 -2q-20 -4 -27 -14t-7 -29v-138q0 -16 6.5 -21.5t25.5 -10.5v-25q-5 -1 -34.5 -9.5t-47 -12t-47 -10t-59.5 -9t-60 -2.5q-169 0 -264 97q-85 88 -85 244q0 80 33.5 149t96.5 115q85 64 220 64q74 0 155 -27q32 15 38 20h26q0 -75 22 -207
l-30 -7q-37 103 -100 148q-45 35 -112 35q-96 0 -145.5 -78.5t-49.5 -208.5q0 -143 56 -229q53 -79 143 -79q34 0 49 8q23 11 23 47v140q0 23 -8 33.5t-30 14.5q-26 4 -57 6v36h300zM533 850l30 -8q-45 -134 -172 -134q-71 0 -111 38t-52 96l29 8q13 -20 22.5 -29.5t39 -20
t74.5 -10.5q46 0 76.5 10.5t40 20t23.5 29.5z" />
    <glyph glyph-name="gbreve" unicode="&#x11f;" horiz-adv-x="493" 
d="M252 -182q70 0 115 26t45 66q0 56 -96 56q-122 0 -152 -3q-3 0 -7 -0.5t-6 -0.5t-5 -0.5t-4 -1t-3.5 -1t-3.5 -1l-3 -1.5t-4 -2.5t-4 -3.5q-24 -20 -24 -51q0 -34 46 -61q38 -21 106 -21zM224 426q-25 0 -41 -26q-19 -33 -19 -90q0 -62 18 -95q18 -34 55 -34q27 0 40 22
q22 35 22 101q-1 122 -75 122zM231 460q61 0 114 -25q68 43 114 43q27 0 42 -12t15 -28q0 -25 -15.5 -41.5t-31.5 -16.5q-13 0 -31 19q-28 30 -38 30t-28 -14q43 -49 43 -110t-38 -102q-51 -55 -153 -55q-46 0 -76 10q-25 -23 -25 -47q0 -17 16.5 -24t34.5 -7q4 0 60.5 1
t87.5 0q96 -3 131 -43q30 -32 30 -76q0 -79 -82 -137q-83 -61 -206 -61q-79 0 -123 27q-51 28 -51 73q0 49 85 104q-66 26 -66 78q0 28 23.5 62t60.5 60q-81 41 -81 132q0 73 53 117q51 43 135 43zM359 677l30 -5q-13 -61 -54 -101.5t-107 -40.5t-104.5 39t-46.5 103l32 5
q29 -66 123 -66q48 0 77.5 15.5t49.5 50.5z" />
    <glyph glyph-name="Gdotaccent" unicode="&#x120;" horiz-adv-x="730" 
d="M684 306v-37q-1 0 -12 -1t-19 -2q-20 -4 -27 -14t-7 -29v-138q0 -16 6.5 -21.5t25.5 -10.5v-25q-5 -1 -34.5 -9.5t-47 -12t-47 -10t-59.5 -9t-60 -2.5q-169 0 -264 97q-85 88 -85 244q0 80 33.5 149t96.5 115q85 64 220 64q74 0 155 -27q32 15 38 20h26q0 -75 22 -207
l-30 -7q-37 103 -100 148q-45 35 -112 35q-96 0 -145.5 -78.5t-49.5 -208.5q0 -143 56 -229q53 -79 143 -79q34 0 49 8q23 11 23 47v140q0 23 -8 33.5t-30 14.5q-26 4 -57 6v36h300zM326 785q0 28 18 48.5t50 20.5q29 0 47 -20t18 -49q0 -31 -18.5 -50t-47.5 -19
q-31 0 -49 20t-18 49z" />
    <glyph glyph-name="gdotaccent" unicode="&#x121;" horiz-adv-x="493" 
d="M252 -182q70 0 115 26t45 66q0 56 -96 56q-122 0 -152 -3q-3 0 -7 -0.5t-6 -0.5t-5 -0.5t-4 -1t-3.5 -1t-3.5 -1l-3 -1.5t-4 -2.5t-4 -3.5q-24 -20 -24 -51q0 -34 46 -61q38 -21 106 -21zM224 426q-25 0 -41 -26q-19 -33 -19 -90q0 -62 18 -95q18 -34 55 -34q27 0 40 22
q22 35 22 101q-1 122 -75 122zM231 460q61 0 114 -25q68 43 114 43q27 0 42 -12t15 -28q0 -25 -15.5 -41.5t-31.5 -16.5q-13 0 -31 19q-28 30 -38 30t-28 -14q43 -49 43 -110t-38 -102q-51 -55 -153 -55q-46 0 -76 10q-25 -23 -25 -47q0 -17 16.5 -24t34.5 -7q4 0 60.5 1
t87.5 0q96 -3 131 -43q30 -32 30 -76q0 -79 -82 -137q-83 -61 -206 -61q-79 0 -123 27q-51 28 -51 73q0 49 85 104q-66 26 -66 78q0 28 23.5 62t60.5 60q-81 41 -81 132q0 73 53 117q51 43 135 43zM165 598q0 28 18 48.5t51 20.5q29 0 47 -20t18 -49q0 -31 -18.5 -50
t-47.5 -19q-32 0 -50 20t-18 49z" />
    <glyph glyph-name="uni0122" unicode="&#x122;" horiz-adv-x="730" 
d="M684 306v-37q-1 0 -12 -1t-19 -2q-20 -4 -27 -14t-7 -29v-138q0 -16 6.5 -21.5t25.5 -10.5v-25q-5 -1 -34.5 -9.5t-47 -12t-47 -10t-59.5 -9t-60 -2.5q-169 0 -264 97q-85 88 -85 244q0 80 33.5 149t96.5 115q85 64 220 64q74 0 155 -27q32 15 38 20h26q0 -75 22 -207
l-30 -7q-37 103 -100 148q-45 35 -112 35q-96 0 -145.5 -78.5t-49.5 -208.5q0 -143 56 -229q53 -79 143 -79q34 0 49 8q23 11 23 47v140q0 23 -8 33.5t-30 14.5q-26 4 -57 6v36h300zM339 -275l-9 33q74 27 74 60q0 14 -9.5 21.5t-35.5 11.5q-42 7 -42 40q0 19 16 33t45 14
q36 0 62 -25t26 -66q0 -50 -39.5 -82t-87.5 -40z" />
    <glyph glyph-name="uni0123" unicode="&#x123;" horiz-adv-x="493" 
d="M252 -182q70 0 115 26t45 66q0 56 -96 56q-122 0 -152 -3q-3 0 -7 -0.5t-6 -0.5t-5 -0.5t-4 -1t-3.5 -1t-3.5 -1l-3 -1.5t-4 -2.5t-4 -3.5q-24 -20 -24 -51q0 -34 46 -61q38 -21 106 -21zM224 426q-25 0 -41 -26q-19 -33 -19 -90q0 -62 18 -95q18 -34 55 -34q27 0 40 22
q22 35 22 101q-1 122 -75 122zM231 460q61 0 114 -25q68 43 114 43q27 0 42 -12t15 -28q0 -25 -15.5 -41.5t-31.5 -16.5q-13 0 -31 19q-28 30 -38 30t-28 -14q43 -49 43 -110t-38 -102q-51 -55 -153 -55q-46 0 -76 10q-25 -23 -25 -47q0 -17 16.5 -24t34.5 -7q4 0 60.5 1
t87.5 0q96 -3 131 -43q30 -32 30 -76q0 -79 -82 -137q-83 -61 -206 -61q-79 0 -123 27q-51 28 -51 73q0 49 85 104q-66 26 -66 78q0 28 23.5 62t60.5 60q-81 41 -81 132q0 73 53 117q51 43 135 43zM278 737l9 -33q-74 -27 -74 -59q0 -14 9.5 -21.5t35.5 -11.5q42 -8 42 -40
q0 -19 -16 -33t-45 -14q-36 0 -62 24.5t-26 65.5q0 51 39.5 82.5t87.5 39.5z" />
    <glyph glyph-name="Hcircumflex" unicode="&#x124;" horiz-adv-x="767" 
d="M342 0h-313v36q21 2 29.5 3t23 5t19.5 10t10 17t5 27v442q0 38 -16.5 48t-70.5 14v36h313v-36q-51 -4 -69 -15.5t-18 -46.5v-186h257v186q0 37 -18 48t-69 14v36h313v-36q-50 -4 -68.5 -15.5t-18.5 -46.5v-442q0 -36 19 -47.5t68 -14.5v-36h-313v36q51 4 69 15t18 47v215
h-257v-215q0 -36 22 -47.5t65 -14.5v-36zM555 723l-17 -30q-12 5 -45 18t-61.5 24.5t-48.5 19.5q-79 -33 -157 -62l-13 29q72 46 159 124h27q102 -88 156 -123z" />
    <glyph glyph-name="hcircumflex" unicode="&#x125;" horiz-adv-x="560" 
d="M270 754l-10 -25q-51 17 -135 53q-60 -26 -135 -53l-11 25q61 44 136 109h25q71 -63 130 -109zM261 0h-241v35q20 1 30 3t19.5 9.5t9.5 22.5v483q0 41 -3 53q-5 24 -61 40v29q91 0 190 33l4 -4q-5 -45 -5 -105v-200q63 61 137 61q56 0 90 -32q50 -46 50 -137v-217
q0 -6 0.5 -10.5t2.5 -8t3 -6t5 -4.5l6 -3t8 -2t8.5 -1.5t11 -1.5t11.5 -1v-36h-242v36q28 2 36 4q16 3 20.5 17t4.5 68v181q0 48 -25 72q-20 17 -51 17q-40 0 -62 -21q-9 -8 -11.5 -16.5t-2.5 -31.5v-257q0 -7 1 -12t4.5 -8t6 -5.5t9.5 -4t10 -2t12.5 -1.5t13.5 -1v-35z" />
    <glyph glyph-name="Hbar" unicode="&#x126;" horiz-adv-x="767" 
d="M652 433v-351q0 -28 23 -36q20 -8 66 -14v-32h-315v32q40 4 61 12q13 5 17.5 13.5t4.5 28.5v207h-252v-205q0 -22 4.5 -30t18.5 -14q20 -7 62 -12v-32h-316v32q46 5 63 12q15 7 20 15t5 29v345h-79v37h79v80q0 23 -5.5 31t-21.5 14q-27 10 -63 13v30h316v-30
q-36 -6 -55 -13q-15 -4 -21.5 -12.5t-6.5 -31.5v-81h253v82q0 20 -5.5 29t-21.5 14q-14 5 -59 13v30h315v-30q-47 -8 -61 -13q-15 -4 -20.5 -12.5t-5.5 -29.5v-83h79v-37h-79zM257 335h253v98h-253v-98z" />
    <glyph glyph-name="hbar" unicode="&#x127;" horiz-adv-x="560" 
d="M481 281v-207q0 -6 0.5 -10.5t2.5 -8t3 -6t5 -4.5l6 -3t8 -2t8.5 -1.5t11 -1.5t11.5 -1v-36h-242v36q28 2 36 4q16 3 20.5 17t4.5 68v171q0 48 -25 72q-20 17 -51 17q-40 0 -62 -21q-9 -8 -11.5 -16.5t-2.5 -31.5v-247q0 -7 1 -12t4.5 -8t6 -5.5t9.5 -4t10 -2t12.5 -1.5
t13.5 -1v-35h-241v35q20 1 30 3t19.5 9.5t9.5 22.5v452h-71v40h71q0 34 -3 44q-6 23 -61 40v29q91 0 190 33l4 -4q-5 -45 -5 -106v-36h160v-40h-160v-133q63 61 137 61q56 0 90 -32q50 -46 50 -137z" />
    <glyph glyph-name="Itilde" unicode="&#x128;" horiz-adv-x="371" 
d="M342 0h-313v36q52 4 69.5 16t17.5 46v442q0 20 -5 32t-18.5 18t-25.5 8t-38 4v36h313v-36q-49 -3 -68 -15t-19 -47v-442q0 -37 18.5 -48t68.5 -14v-36zM333 825l26 -10q-8 -48 -34.5 -80.5t-73.5 -32.5q-11 0 -24 3t-19.5 5t-24 9.5t-20.5 8.5q-47 21 -67 21
q-24 0 -37 -11.5t-22 -36.5l-28 9q7 48 35 78.5t76 30.5q33 0 83 -22q48 -21 65 -21q23 0 37 9t28 40z" />
    <glyph glyph-name="itilde" unicode="&#x129;" horiz-adv-x="288" 
d="M265 0h-247v36q44 3 54.5 9.5t10.5 31.5v229q0 34 -2 43.5t-10 18.5q-14 14 -41 25v26q86 5 171 41l8 -5q-1 -17 -1 -139v-238q0 -26 9 -32.5t48 -10.5v-35zM288 663l25 -9q-8 -48 -33.5 -81.5t-69.5 -33.5q-26 0 -84 26q-5 2 -16.5 7.5t-16.5 7t-13.5 3.5t-17.5 2
q-23 0 -35.5 -11t-21.5 -36l-26 9q6 48 33 79.5t71 31.5q36 0 80 -23q46 -20 63 -20q22 0 35.5 9t26.5 39z" />
    <glyph glyph-name="Imacron" unicode="&#x12a;" horiz-adv-x="371" 
d="M342 0h-313v36q52 4 69.5 16t17.5 46v442q0 20 -5 32t-18.5 18t-25.5 8t-38 4v36h313v-36q-49 -3 -68 -15t-19 -47v-442q0 -37 18.5 -48t68.5 -14v-36zM41 779h285v-66h-285v66z" />
    <glyph glyph-name="imacron" unicode="&#x12b;" horiz-adv-x="288" 
d="M265 0h-247v36q44 3 54.5 9.5t10.5 31.5v229q0 34 -2 43.5t-10 18.5q-14 14 -41 25v26q86 5 171 41l8 -5q-1 -17 -1 -139v-238q0 -26 9 -32.5t48 -10.5v-35zM9 625h265v-66h-265v66z" />
    <glyph glyph-name="Ibreve" unicode="&#x12c;" horiz-adv-x="371" 
d="M342 0h-313v36q52 4 69.5 16t17.5 46v442q0 20 -5 32t-18.5 18t-25.5 8t-38 4v36h313v-36q-49 -3 -68 -15t-19 -47v-442q0 -37 18.5 -48t68.5 -14v-36zM320 837l29 -8q-45 -134 -171 -134q-72 0 -111.5 38t-51.5 96l29 8q13 -20 22.5 -29.5t38.5 -20t74 -10.5
q47 0 77.5 10.5t40 20t23.5 29.5z" />
    <glyph glyph-name="ibreve" unicode="&#x12d;" horiz-adv-x="288" 
d="M265 0h-247v36q44 3 54.5 9.5t10.5 31.5v229q0 34 -2 43.5t-10 18.5q-14 14 -41 25v26q86 5 171 41l8 -5q-1 -17 -1 -139v-238q0 -26 9 -32.5t48 -10.5v-35zM267 677l30 -5q-13 -61 -54 -101.5t-107 -40.5t-104.5 39t-46.5 103l32 5q29 -66 123 -66q48 0 77.5 15.5
t49.5 50.5z" />
    <glyph glyph-name="Iogonek" unicode="&#x12e;" horiz-adv-x="371" 
d="M342 638v-36q-49 -3 -68 -15t-19 -47v-442q0 -37 18.5 -48t68.5 -14v-36h-124q-42 -55 -42 -111q0 -25 14 -38t34 -13q32 0 61 19l11 -18q-48 -73 -119 -73q-44 0 -69.5 25t-25.5 62q0 67 100 147h-153v36q52 4 69.5 16t17.5 46v442q0 20 -5 32t-18.5 18t-25.5 8t-38 4
v36h313z" />
    <glyph glyph-name="iogonek" unicode="&#x12f;" horiz-adv-x="288" 
d="M138 529q-32 0 -50 20t-18 49q0 28 18 48.5t51 20.5q29 0 47 -20t18 -49q0 -31 -18.5 -50t-47.5 -19zM265 0h-85q-44 -59 -44 -112q0 -50 46 -50q42 0 72 24v-26q-46 -70 -122 -70q-43 0 -67 24t-24 62q0 71 109 148h-131v36q44 3 54.5 9.5t10.5 31.5v229q0 34 -2.5 44
t-9.5 18q-12 13 -41 25v26q91 7 172 41l7 -5q-2 -32 -2 -138v-239q0 -26 9 -32.5t48 -10.5v-35z" />
    <glyph glyph-name="Idotaccent" unicode="&#x130;" horiz-adv-x="371" 
d="M342 0h-313v36q52 4 69.5 16t17.5 46v442q0 20 -5 32t-18.5 18t-25.5 8t-38 4v36h313v-36q-49 -3 -68 -15t-19 -47v-442q0 -37 18.5 -48t68.5 -14v-36zM117 765q0 28 18 48.5t50 20.5q29 0 47 -20t18 -49q0 -31 -18.5 -50t-47.5 -19q-31 0 -49 20t-18 49z" />
    <glyph glyph-name="dotlessi" unicode="&#x131;" horiz-adv-x="288" 
d="M265 0h-247v36q44 3 54.5 9.5t10.5 31.5v229q0 34 -2 43.5t-10 18.5q-14 14 -41 25v26q86 5 171 41l8 -5q-1 -17 -1 -139v-238q0 -26 9 -32.5t48 -10.5v-35z" />
    <glyph glyph-name="IJ" unicode="&#x132;" horiz-adv-x="753" 
d="M342 0h-313v36q52 4 69.5 16t17.5 46v442q0 20 -5 32t-18.5 18t-25.5 8t-38 4v36h313v-36q-49 -3 -68 -15t-19 -47v-442q0 -37 18.5 -48t68.5 -14v-36zM418 602v36h312v-36q-45 -4 -63 -17t-18 -45v-345q0 -114 -25 -179q-33 -80 -104 -142q-79 -66 -136 -66
q-38 0 -66 17.5t-28 40.5t20.5 45t41.5 22q10 0 52 -39q24 -21 41 -21q21 0 37 17q17 18 23.5 49t6.5 104v497q0 36 -19.5 48t-74.5 14z" />
    <glyph glyph-name="ij" unicode="&#x133;" horiz-adv-x="568" 
d="M264 0h-246v36q44 3 54.5 9.5t10.5 31.5v229q0 34 -2.5 44t-9.5 18q-12 13 -41 25v26q91 7 172 41l7 -5q-2 -32 -2 -138v-239q0 -26 9 -32.5t48 -10.5v-35zM70 598q0 28 18 48.5t51 20.5q29 0 47 -20t18 -49q0 -31 -18.5 -50t-47.5 -19q-32 0 -50 20t-18 49zM307 391v27
q71 3 185 42l7 -6q-3 -40 -3 -101v-281q0 -91 -17 -130q-19 -46 -59 -88t-65 -59t-48 -30l-21 28q47 40 66 78.5t19 95.5v370q0 19 -15 30q-22 15 -49 24zM360 598q0 28 18 48.5t51 20.5q29 0 47 -20t18 -49q0 -31 -18.5 -50t-47.5 -19q-32 0 -50 20t-18 49z" />
    <glyph glyph-name="Jcircumflex" unicode="&#x134;" horiz-adv-x="382" 
d="M47 602v36h312v-36q-45 -4 -63 -17t-18 -45v-345q0 -114 -25 -179q-33 -80 -104 -142q-79 -66 -136 -66q-38 0 -66 17.5t-28 40.5t20.5 45t41.5 22q10 0 52 -39q24 -21 41 -21q21 0 37 17q17 18 23.5 49t6.5 104v497q0 36 -19.5 48t-74.5 14zM374 718l-16 -30
q-12 5 -45 18t-61.5 24.5t-48.5 19.5q-64 -27 -157 -62l-13 29q72 46 159 124h26q98 -85 156 -123z" />
    <glyph glyph-name="jcircumflex" unicode="&#x135;" horiz-adv-x="280" 
d="M19 391v27q71 3 185 42l7 -7q-3 -39 -3 -101v-280q0 -91 -17 -130q-19 -46 -59 -88t-65 -59t-48 -30l-21 28q47 40 66 78.5t19 95.5v370q0 19 -15 30q-30 18 -49 24zM275 528l-25 -21l-113 92l-116 -92l-23 21q75 97 123 176h30q22 -34 124 -176z" />
    <glyph glyph-name="uni0136" unicode="&#x136;" horiz-adv-x="708" 
d="M342 0h-313v36q53 5 70 16t17 46v442q0 35 -17 46.5t-70 15.5v36h313v-36q-50 -4 -69 -16t-19 -46v-232q103 82 208 219q25 33 25 50q0 10 -22 16q-10 3 -57 9v36h261v-37q-59 -6 -88.5 -21t-66.5 -56q-109 -117 -126 -136q-5 -6 2 -15q28 -42 105.5 -142.5t110.5 -137.5
q27 -31 51.5 -42t67.5 -15v-36h-318v36q33 4 42 8q21 7 0 37q-94 135 -156 208q-4 6 -9 1l-30 -23v-170q0 -34 18 -45.5t70 -15.5v-36zM308 -264l-9 33q74 27 74 60q0 14 -9.5 21.5t-35.5 11.5q-42 7 -42 40q0 19 16 33t45 14q36 0 62 -25t26 -66q0 -50 -39.5 -82t-87.5 -40
z" />
    <glyph glyph-name="uni0137" unicode="&#x137;" horiz-adv-x="530" 
d="M261 0h-241v35q27 3 36 4.5t16 9t7 24.5v480q0 41 -3 53q-9 25 -62 40v29q90 0 191 33l4 -4q-5 -45 -5 -107v-362q48 35 122 109q35 37 35 49q0 8 -17 12q-16 5 -50 8v35h218v-35q-22 -1 -42 -6q-25 -6 -59 -33q-43 -37 -88 -82q-4 -4 -1 -8q20 -33 73 -108t79 -108
q14 -18 28.5 -24.5t44.5 -8.5v-35h-252v35q41 3 41 13q0 4 -5 12q-37 64 -98 153q-2 3 -9 1l-12 -8l-8 -6v-129q0 -20 10.5 -26.5t46.5 -9.5v-35zM220 -267l-9 33q74 27 74 60q0 14 -9.5 21.5t-35.5 11.5q-42 7 -42 40q0 19 16 33t45 14q36 0 62 -25t26 -66q0 -50 -39.5 -82
t-87.5 -40z" />
    <glyph glyph-name="kgreenlandic" unicode="&#x138;" horiz-adv-x="532" 
d="M264 0h-246v36q23 2 42 5q23 1 23 32v302q0 28 -53 46v26q143 0 183 10q-6 -46 -6 -86v-140q57 38 126 115q34 36 34 46q0 11 -16 15q-19 4 -54 7v34h218v-34q-32 -3 -41 -5q-16 -3 -26.5 -9t-33.5 -26q-26 -21 -86 -81q-4 -4 -1 -9q41 -66 149 -211q16 -22 30 -28.5
t43 -8.5v-36h-252v36q26 3 33 5q8 2 8 10q0 1 -4 11q-62 96 -99 150q-3 4 -8 1q-15 -9 -20 -14v-131q0 -23 21 -27q7 -1 19.5 -2.5t16.5 -2.5v-36z" />
    <glyph glyph-name="Lacute" unicode="&#x139;" horiz-adv-x="628" 
d="M379 0h-360v36q59 5 78 15t19 47v442q0 37 -18.5 48.5t-68.5 13.5v36h313v-36q-48 -3 -67.5 -15t-19.5 -47v-429q0 -46 10.5 -59t51.5 -13h68q50 0 81 26q57 43 110 150l32 -11q-44 -134 -64 -207q-129 3 -165 3zM177 686l-19 23l136 136q13 1 49 -14.5t51 -26.5v-18z
" />
    <glyph glyph-name="lacute" unicode="&#x13a;" horiz-adv-x="284" 
d="M87 756l128 124q12 -1 42.5 -20.5t39.5 -31.5v-14l-194 -82zM262 0h-242v35q38 2 48.5 10t10.5 35v472q0 41 -3 53q-6 25 -62 41v29q90 0 191 33l4 -4q-5 -45 -5 -113v-515q0 -24 9.5 -31t48.5 -10v-35z" />
    <glyph glyph-name="uni013B" unicode="&#x13b;" horiz-adv-x="628" 
d="M379 0h-360v36q59 5 78 15t19 47v442q0 37 -18.5 48.5t-68.5 13.5v36h313v-36q-48 -3 -67.5 -15t-19.5 -47v-429q0 -46 10.5 -59t51.5 -13h68q50 0 81 26q57 43 110 150l32 -11q-44 -134 -64 -207q-129 3 -165 3zM262 -274l-9 33q74 27 74 60q0 14 -9.5 21.5t-35.5 11.5
q-42 7 -42 40q0 19 16 33t45 14q36 0 62 -25t26 -66q0 -50 -39.5 -82t-87.5 -40z" />
    <glyph glyph-name="uni013C" unicode="&#x13c;" horiz-adv-x="284" 
d="M262 0h-242v35q38 2 48.5 10t10.5 35v472q0 41 -3 53q-6 25 -62 41v29q90 0 191 33l4 -4q-5 -45 -5 -113v-515q0 -24 9.5 -31t48.5 -10v-35zM90 -266l-9 33q74 27 74 60q0 14 -9.5 21.5t-35.5 11.5q-42 7 -42 40q0 19 16 33t45 14q36 0 62 -25t26 -66q0 -50 -39.5 -82
t-87.5 -40z" />
    <glyph glyph-name="Lcaron" unicode="&#x13d;" horiz-adv-x="628" 
d="M379 0h-360v36q59 5 78 15t19 47v442q0 37 -18.5 48.5t-68.5 13.5v36h313v-36q-48 -3 -67.5 -15t-19.5 -47v-429q0 -46 10.5 -59t51.5 -13h68q50 0 81 26q57 43 110 150l32 -11q-44 -134 -64 -207q-129 3 -165 3zM510 386h-31q-4 24 -22.5 122.5t-21.5 118.5v18
q26 10 60 10q40 0 60 -9v-18q0 -2 -45 -242z" />
    <glyph glyph-name="lcaron" unicode="&#x13e;" horiz-adv-x="317" 
d="M262 0h-242v35q38 2 48.5 10t10.5 35v472q0 41 -3 53q-6 25 -62 41v29q90 0 191 33l4 -4q-5 -45 -5 -113v-515q0 -24 9.5 -31t48.5 -10v-35zM319 455h-29q-5 27 -19.5 123t-15.5 101v18q27 9 50 9t50 -8v-18q-28 -182 -36 -225z" />
    <glyph glyph-name="Ldot" unicode="&#x13f;" horiz-adv-x="628" 
d="M379 0h-360v36q59 5 78 15t19 47v442q0 37 -18.5 48.5t-68.5 13.5v36h313v-36q-48 -3 -67.5 -15t-19.5 -47v-429q0 -46 10.5 -59t51.5 -13h68q50 0 81 26q57 43 110 150l32 -11q-44 -134 -64 -207q-129 3 -165 3zM426 389q0 27 18.5 48t50.5 21q29 0 47 -20t18 -49
q0 -31 -18.5 -50t-47.5 -19q-32 0 -50 20t-18 49z" />
    <glyph glyph-name="ldot" unicode="&#x140;" horiz-adv-x="310" 
d="M237 399q0 26 16 45.5t42 19.5q25 0 41 -18.5t16 -46.5q0 -30 -16.5 -48t-41.5 -18q-26 0 -41.5 19t-15.5 47zM262 0h-242v35q38 2 48.5 10t10.5 35v472q0 41 -3 53q-6 25 -62 41v29q90 0 191 33l4 -4q-5 -45 -5 -113v-515q0 -24 9.5 -31t48.5 -10v-35z" />
    <glyph glyph-name="Lslash" unicode="&#x141;" horiz-adv-x="628" 
d="M576 215l32 -11q-44 -134 -64 -207q-129 3 -165 3h-360v36q59 5 78 15t19 47v167l-96 -44v41l96 44v234q0 37 -18.5 48.5t-68.5 13.5v36h313v-36q-48 -3 -67.5 -15t-19.5 -47v-171l144 66v-41l-144 -66v-217q0 -46 10.5 -59t51.5 -13h68q50 0 81 26q57 43 110 150z" />
    <glyph glyph-name="lslash" unicode="&#x142;" horiz-adv-x="293" 
d="M283 432l-68 -37v-319q0 -24 9.5 -31t48.5 -10v-35h-242v35q38 2 48.5 10t10.5 35v246l-65 -36v39l65 36v187q0 41 -3 53q-6 25 -62 41v29q90 0 191 33l4 -4q-5 -45 -5 -113v-157l68 37v-39z" />
    <glyph glyph-name="Nacute" unicode="&#x143;" horiz-adv-x="721" 
d="M274 0h-257v36q66 5 82.5 24t17.5 88v385q0 33 -13 44q-21 18 -83 25v36h201l351 -467v315q0 72 -18.5 91t-98.5 26v35h257v-35q-63 -8 -80 -27.5t-17 -89.5v-380q0 -72 4 -107h-93q-45 65 -67 96l-300 414v-361q1 -68 21 -87t93 -25v-36zM318 687l-19 23l136 136
q13 1 49 -14.5t51 -26.5v-18z" />
    <glyph glyph-name="nacute" unicode="&#x144;" horiz-adv-x="565" 
d="M265 0h-247v36q24 1 34 2.5t20.5 11t10.5 27.5v216q0 55 -1 59q-2 8 -15.5 19t-36.5 21v27q37 3 87.5 15t83.5 26l9 -5q-4 -30 -4 -59q70 64 141 64q56 0 92 -33q45 -43 47 -138v-214q0 -7 1 -12t2 -9t5.5 -6.5t6 -4t8.5 -3t9 -2t11.5 -1.5t12.5 -1v-36h-242v36
q36 2 47 8t12 28q2 22 2 49v184q0 50 -25 72q-18 17 -49 17q-40 0 -63 -20q-10 -9 -13 -18t-3 -38v-243q0 -24 12.5 -30.5t44.5 -8.5v-36zM266 506l-29 14l97 180q9 2 50.5 -8.5t58.5 -18.5v-15z" />
    <glyph glyph-name="uni0145" unicode="&#x145;" horiz-adv-x="721" 
d="M274 0h-257v36q66 5 82.5 24t17.5 88v385q0 33 -13 44q-21 18 -83 25v36h202l350 -467v315q0 72 -18.5 91t-98.5 26v35h257v-35q-63 -8 -80 -27.5t-17 -89.5v-380q0 -73 4 -106h-93q-10 14 -34 48.5t-33 46.5l-300 414v-361q1 -68 21.5 -87t92.5 -25v-36zM314 -264l-9 33
q74 27 74 60q0 14 -9.5 21.5t-35.5 11.5q-42 7 -42 40q0 19 16 33t45 14q36 0 62 -25t26 -66q0 -50 -39.5 -82t-87.5 -40z" />
    <glyph glyph-name="uni0146" unicode="&#x146;" horiz-adv-x="565" 
d="M265 0h-247v36q24 1 34 2.5t20.5 11t10.5 27.5v216q0 55 -1 59q-2 8 -15.5 19t-36.5 21v27q37 3 87.5 15t83.5 26l9 -5q-4 -30 -4 -59q70 64 141 64q56 0 92 -33q45 -43 47 -138v-214q0 -7 1 -12t2 -9t5.5 -6.5t6 -4t8.5 -3t9 -2t11.5 -1.5t12.5 -1v-36h-242v36
q36 2 47 8t12 28q2 22 2 49v184q0 50 -25 72q-18 17 -49 17q-40 0 -63 -20q-10 -9 -13 -18t-3 -38v-243q0 -24 12.5 -30.5t44.5 -8.5v-36zM236 -266l-8 33q74 27 74 60q0 14 -10 21.5t-36 11.5q-42 7 -42 40q0 19 16 33t45 14q36 0 62 -25t26 -66q0 -50 -39.5 -82t-87.5 -40
z" />
    <glyph glyph-name="Ncaron" unicode="&#x147;" horiz-adv-x="721" 
d="M274 0h-257v36q66 5 82.5 24t17.5 88v385q0 33 -13 44q-21 18 -83 25v36h201l351 -467v315q0 72 -18.5 91t-98.5 26v35h257v-35q-63 -8 -80 -27.5t-17 -89.5v-380q0 -72 4 -107h-93q-45 65 -67 96l-300 414v-361q1 -68 21 -87t93 -25v-36zM194 806l17 30q12 -5 45 -18
t61.5 -24.5t48.5 -19.5q79 33 157 62l13 -29q-72 -46 -159 -124h-27q-102 88 -156 123z" />
    <glyph glyph-name="ncaron" unicode="&#x148;" horiz-adv-x="565" 
d="M265 0h-247v36q24 1 34 2.5t20.5 11t10.5 27.5v216q0 55 -1 59q-2 8 -15.5 19t-36.5 21v27q37 3 87.5 15t83.5 26l9 -5q-4 -30 -4 -59q70 64 141 64q56 0 92 -33q45 -43 47 -138v-214q0 -7 1 -12t2 -9t5.5 -6.5t6 -4t8.5 -3t9 -2t11.5 -1.5t12.5 -1v-36h-242v36
q36 2 47 8t12 28q2 22 2 49v184q0 50 -25 72q-18 17 -49 17q-40 0 -63 -20q-10 -9 -13 -18t-3 -38v-243q0 -24 12.5 -30.5t44.5 -8.5v-36zM141 711l25 21l113 -92l116 92l23 -21q-78 -101 -123 -175h-30q-17 26 -124 175z" />
    <glyph glyph-name="napostrophe" unicode="&#x149;" horiz-adv-x="565" 
d="M265 0h-247v36q24 1 34 2.5t20.5 11t10.5 27.5v216q0 55 -1 59q-2 8 -15.5 19t-36.5 21v27q37 3 87.5 15t83.5 26l9 -5q-4 -30 -4 -59q70 64 141 64q56 0 92 -33q45 -43 47 -138v-214q0 -7 1 -12t2 -9t5.5 -6.5t6 -4t8.5 -3t9 -2t11.5 -1.5t12.5 -1v-36h-242v36
q36 2 47 8t12 28q2 22 2 49v184q0 50 -25 72q-18 17 -49 17q-40 0 -63 -20q-10 -9 -13 -18t-3 -38v-243q0 -24 12.5 -30.5t44.5 -8.5v-36zM66 498l-8 33q71 19 71 53q0 13 -11 19t-41 13q-35 9 -35 38q0 22 16 35.5t44 13.5q37 0 63.5 -23.5t26.5 -65.5q0 -28 -13 -50.5
t-34 -35.5t-40.5 -20t-38.5 -10z" />
    <glyph glyph-name="Eng" unicode="&#x14a;" horiz-adv-x="722" 
d="M274 0h-257v36q35 2 49 5q31 6 41 25.5t10 79.5v387q0 35 -15 47q-5 5 -12 8t-16.5 5.5t-16 3.5t-19 3t-17.5 3v35h201l351 -467v318q0 58 -9.5 78.5t-42.5 27.5q-17 3 -65 8v35h257v-35q-32 -3 -45 -6q-32 -7 -42 -27t-10 -81v-417q0 -290 -143 -290q-29 0 -50.5 16
t-21.5 39q0 30 18 50t32 20t41 -25q20 -22 35 -22q13 0 23 20t10 50q0 24 -20 53q-31 42 -380 526v-363q0 -59 13 -78t54 -27q7 -1 47 -5v-36z" />
    <glyph glyph-name="eng" unicode="&#x14b;" horiz-adv-x="552" 
d="M264 0h-246v36q29 2 43 5q13 2 17.5 9.5t4.5 26.5v215q0 58 -2 65q-3 14 -51 33v29q36 2 84.5 14t82.5 27l13 -6q-4 -32 -4 -56q70 62 139 62q54 0 92 -34q47 -45 47 -137v-220q0 -72 -23 -132t-58 -96t-72 -56t-69 -20q-29 0 -47 11.5t-18 30.5q0 21 16.5 38t29.5 17
q23 0 46 -21q18 -16 31 -16q15 0 23 16.5t12 65.5t4 146v252q0 50 -26 73q-19 17 -50 17q-36 0 -59 -19q-10 -7 -13 -16.5t-3 -39.5v-245q0 -18 3.5 -25t14.5 -9q21 -4 38 -5v-36z" />
    <glyph glyph-name="Omacron" unicode="&#x14c;" horiz-adv-x="756" 
d="M381 -16q-129 0 -220 78q-50 44 -78.5 112t-28.5 145q0 172 121 268q83 67 201 67q152 0 238.5 -95.5t86.5 -237.5q0 -124 -69 -217q-42 -55 -106.5 -87.5t-144.5 -32.5zM393 22q54 0 88 38q67 71 67 246q0 163 -62 247q-45 63 -118 63q-53 0 -90 -34q-70 -67 -70 -246
q0 -157 58 -242q48 -72 127 -72zM232 796h285v-66h-285v66z" />
    <glyph glyph-name="omacron" unicode="&#x14d;" horiz-adv-x="550" 
d="M280 460q105 0 170 -70q61 -64 61 -161q0 -101 -67 -171q-65 -70 -169 -70q-111 0 -173 67q-63 68 -63 170q0 125 102 195q60 40 139 40zM285 25q39 0 60 37q28 49 28 154q0 96 -31 155q-29 53 -75 53q-90 0 -90 -172q0 -129 42 -189q26 -38 66 -38zM142 625h265v-66
h-265v66z" />
    <glyph glyph-name="Obreve" unicode="&#x14e;" horiz-adv-x="756" 
d="M381 -16q-129 0 -220 78q-50 44 -78.5 112t-28.5 145q0 172 121 268q83 67 201 67q152 0 238.5 -95.5t86.5 -237.5q0 -124 -69 -217q-42 -55 -106.5 -87.5t-144.5 -32.5zM393 22q54 0 88 38q67 71 67 246q0 163 -62 247q-45 63 -118 63q-53 0 -90 -34q-70 -67 -70 -246
q0 -157 58 -242q48 -72 127 -72zM512 847l29 -8q-45 -133 -171 -133q-72 0 -111.5 37.5t-52.5 95.5l29 8q14 -19 23 -28.5t38.5 -20t74.5 -10.5q36 0 60.5 4.5t41 16t21.5 17t18 21.5z" />
    <glyph glyph-name="obreve" unicode="&#x14f;" horiz-adv-x="550" 
d="M280 460q105 0 170 -70q61 -64 61 -161q0 -101 -67 -171q-65 -70 -169 -70q-111 0 -173 67q-63 68 -63 170q0 125 102 195q60 40 139 40zM285 25q39 0 60 37q28 49 28 154q0 96 -31 155q-29 53 -75 53q-90 0 -90 -172q0 -129 42 -189q26 -38 66 -38zM403 677l30 -5
q-13 -61 -54 -101.5t-107 -40.5t-104.5 39t-46.5 103l32 5q29 -66 123 -66q48 0 77.5 15.5t49.5 50.5z" />
    <glyph glyph-name="Ohungarumlaut" unicode="&#x150;" horiz-adv-x="756" 
d="M381 -16q-129 0 -220 78q-50 44 -78.5 112t-28.5 145q0 172 121 268q83 67 201 67q152 0 238.5 -95.5t86.5 -237.5q0 -124 -69 -217q-42 -55 -106.5 -87.5t-144.5 -32.5zM393 22q54 0 88 38q67 71 67 246q0 163 -62 247q-45 63 -118 63q-53 0 -90 -34q-70 -67 -70 -246
q0 -157 58 -242q48 -72 127 -72zM236 719l85 139q22 4 111 -21v-14l-171 -123zM436 720l84 137q6 1 22.5 -1t32 -5.5t34 -8t22.5 -5.5v-14l-171 -123z" />
    <glyph glyph-name="ohungarumlaut" unicode="&#x151;" horiz-adv-x="550" 
d="M280 460q105 0 170 -70q61 -64 61 -161q0 -101 -67 -171q-65 -70 -169 -70q-111 0 -173 67q-63 68 -63 170q0 125 102 195q60 40 139 40zM285 25q39 0 60 37q28 49 28 154q0 96 -31 155q-29 53 -75 53q-90 0 -90 -172q0 -129 42 -189q26 -38 66 -38zM168 517l-25 18
l75 155q8 2 50 -5.5t56 -13.5v-12zM350 517l-24 18l76 155q8 2 49.5 -5t55.5 -14l1 -12z" />
    <glyph glyph-name="OE" unicode="&#x152;" horiz-adv-x="1031" 
d="M504 86v457q0 35 -25 48q-28 15 -77 15q-96 0 -148 -70.5t-52 -209.5q0 -146 56.5 -220t155.5 -74q38 0 64 9q16 7 21 16t5 29zM791 0h-209q-22 0 -77 -2.5t-97 -2.5q-165 0 -261 83.5t-96 239.5q0 151 97 237.5t256 86.5q45 0 101.5 -2t79.5 -2h196q94 0 150 6
q2 -84 21 -181l-32 -9q-42 100 -90 130q-25 15 -63 15h-98q-17 0 -22 -6.5t-5 -25.5v-217h73q44 0 58 23t24 90h32q0 -9 -1.5 -57.5t-1.5 -72.5q0 -40 3 -136h-32q-16 73 -25 87q-15 24 -57 24h-73v-194q0 -46 15 -60.5t69 -14.5h48q54 0 87 19q50 32 110 148l31 -9
q-33 -100 -53 -200q-41 3 -158 3z" />
    <glyph glyph-name="oe" unicode="&#x153;" horiz-adv-x="810" 
d="M285 21q87 0 87 182q0 221 -103 221q-91 0 -91 -177q0 -39 5.5 -75.5t17 -72t33 -57t51.5 -21.5zM758 109l18 -22q-78 -103 -191 -103q-88 0 -146 62q-62 -62 -168 -62q-104 0 -168 65.5t-64 171.5q0 104 69 171.5t171 67.5q96 0 164 -71q64 71 149 71q51 0 88.5 -17
t56.5 -44.5t28 -55t9 -55.5q0 -34 -10 -35q-23 -3 -269 -3v-5q0 -111 47 -158q39 -39 89 -39q69 0 127 61zM496 283q86 0 126 3q33 3 33 39q0 44 -19.5 72.5t-54.5 28.5q-36 0 -58.5 -39t-26.5 -104z" />
    <glyph glyph-name="Racute" unicode="&#x154;" horiz-adv-x="666" 
d="M255 550v-222h36q155 0 155 139q0 68 -32.5 101.5t-90.5 33.5q-51 0 -62 -16q-6 -10 -6 -36zM342 0h-313v36q21 2 30 3t23 5t19.5 10t10 17t4.5 27v442q0 36 -19 47.5t-68 14.5v36h296q122 0 175 -26q82 -41 82 -133q0 -119 -141 -161q31 -55 82.5 -135t82.5 -115
q17 -18 32.5 -24t49.5 -8v-36q-36 -2 -134 -2q-35 0 -58.5 10t-41.5 38q-44 65 -123 216q-16 32 -45 32h-31v-196q0 -36 20 -47.5t67 -14.5v-36zM263 690l-19 24l135 136q13 1 49.5 -14.5t51.5 -26.5v-18z" />
    <glyph glyph-name="racute" unicode="&#x155;" horiz-adv-x="406" 
d="M291 0h-273v36q44 2 54.5 9.5t10.5 32.5v224q0 54 -8 63q-14 14 -45 26v28q30 1 86 14t85 27l9 -5q-7 -49 -7 -75q40 40 70 60t63 20q31 0 49 -16.5t18 -40.5q0 -30 -20.5 -53.5t-42.5 -23.5q-21 0 -36 15q-5 5 -15.5 16t-15.5 15q-10 7 -19 7q-15 0 -34 -19
q-12 -13 -12 -43v-237q0 -28 12.5 -34t70.5 -10v-36zM189 506l-29 14l97 180q9 2 50.5 -8.5t58.5 -18.5v-15z" />
    <glyph glyph-name="uni0156" unicode="&#x156;" horiz-adv-x="666" 
d="M255 550v-222h36q155 0 155 139q0 68 -32.5 101.5t-90.5 33.5q-51 0 -62 -16q-6 -10 -6 -36zM342 0h-313v36q21 2 30 3t23 5t19.5 10t10 17t4.5 27v442q0 36 -19 47.5t-68 14.5v36h296q122 0 175 -26q82 -41 82 -133q0 -119 -141 -161q31 -55 82.5 -135t82.5 -115
q17 -18 32.5 -24t49.5 -8v-36q-36 -2 -134 -2q-35 0 -58.5 10t-41.5 38q-44 65 -123 216q-16 32 -45 32h-31v-196q0 -36 20 -47.5t67 -14.5v-36zM293 -274l-9 33q74 27 74 60q0 14 -9.5 21.5t-35.5 11.5q-42 7 -42 40q0 19 16 33t45 14q36 0 62 -25t26 -66q0 -50 -39.5 -82
t-87.5 -40z" />
    <glyph glyph-name="uni0157" unicode="&#x157;" horiz-adv-x="406" 
d="M291 0h-273v36q44 2 54.5 9.5t10.5 32.5v224q0 54 -8 63q-14 14 -45 26v28q30 1 86 14t85 27l9 -5q-7 -49 -7 -75q40 40 70 60t63 20q31 0 49 -16.5t18 -40.5q0 -30 -20.5 -53.5t-42.5 -23.5q-21 0 -36 15q-5 5 -15.5 16t-15.5 15q-10 7 -19 7q-15 0 -34 -19
q-12 -13 -12 -43v-237q0 -28 12.5 -34t70.5 -10v-36zM94 -264l-9 33q74 27 74 60q0 14 -9.5 21.5t-35.5 11.5q-42 7 -42 40q0 19 16 33t45 14q36 0 62 -25t26 -66q0 -50 -39.5 -82t-87.5 -40z" />
    <glyph glyph-name="Rcaron" unicode="&#x158;" horiz-adv-x="666" 
d="M255 550v-222h36q155 0 155 139q0 68 -32.5 101.5t-90.5 33.5q-51 0 -62 -16q-6 -10 -6 -36zM342 0h-313v36q21 2 30 3t23 5t19.5 10t10 17t4.5 27v442q0 36 -19 47.5t-68 14.5v36h296q122 0 175 -26q82 -41 82 -133q0 -119 -141 -161q31 -55 82.5 -135t82.5 -115
q17 -18 32.5 -24t49.5 -8v-36q-36 -2 -134 -2q-35 0 -58.5 10t-41.5 38q-44 65 -123 216q-16 32 -45 32h-31v-196q0 -36 20 -47.5t67 -14.5v-36zM139 817l16 30q110 -44 156 -62q60 26 156 62l14 -29q-72 -46 -159 -124h-27q-98 85 -156 123z" />
    <glyph glyph-name="rcaron" unicode="&#x159;" horiz-adv-x="406" 
d="M291 0h-273v36q44 2 54.5 9.5t10.5 32.5v224q0 54 -8 63q-14 14 -45 26v28q30 1 86 14t85 27l9 -5q-7 -49 -7 -75q40 40 70 60t63 20q31 0 49 -16.5t18 -40.5q0 -30 -20.5 -53.5t-42.5 -23.5q-21 0 -36 15q-5 5 -15.5 16t-15.5 15q-10 7 -19 7q-15 0 -34 -19
q-12 -13 -12 -43v-237q0 -28 12.5 -34t70.5 -10v-36zM71 694l26 21l113 -92l115 92l23 -21q-79 -105 -123 -175h-29q-16 26 -37 55t-49 67t-39 53z" />
    <glyph glyph-name="Sacute" unicode="&#x15a;" horiz-adv-x="545" 
d="M46 207l34 7q39 -114 108 -165q38 -26 81 -26q47 0 74.5 27.5t27.5 67.5q0 45 -24.5 73.5t-92.5 60.5q-111 53 -149 103t-38 118q0 72 54.5 126.5t159.5 54.5q59 0 126 -26q5 1 17.5 10t14.5 10h23q-2 -31 21 -207l-31 -8q-41 121 -106 163q-30 20 -69 20
q-43 0 -68.5 -25.5t-25.5 -69.5q0 -47 25.5 -75t98.5 -60q111 -49 150 -96.5t39 -116.5q0 -86 -65.5 -137.5t-164.5 -51.5q-47 0 -123 22q-17 4 -65 -6q-9 96 -32 207zM236 701l-18 24l135 136q13 1 49.5 -14.5t51.5 -26.5v-18z" />
    <glyph glyph-name="sacute" unicode="&#x15b;" horiz-adv-x="401" 
d="M355 305l-35 -7q-22 69 -63 103q-26 23 -61 23q-24 0 -41 -15.5t-17 -40.5q0 -23 18 -41t66 -41q78 -38 109.5 -71.5t31.5 -86.5q0 -68 -48.5 -104t-119.5 -36q-46 0 -93 14q-20 6 -46 1q-1 19 -6.5 49.5t-11.5 61.5t-8 41l34 8q20 -69 69 -112q30 -27 67 -27q58 0 58 54
q0 26 -17.5 44t-71.5 44q-69 34 -99 67.5t-30 88.5q0 59 43.5 98.5t120.5 39.5q47 0 86 -17q10 2 22 12h23q0 -39 20 -150zM178 513l-29 14l97 180q9 2 50.5 -8.5t58.5 -18.5v-15z" />
    <glyph glyph-name="Scircumflex" unicode="&#x15c;" horiz-adv-x="545" 
d="M46 207l34 7q39 -114 108 -165q38 -26 81 -26q47 0 74.5 27.5t27.5 67.5q0 45 -24.5 73.5t-92.5 60.5q-111 53 -149 103t-38 118q0 72 54.5 126.5t159.5 54.5q59 0 126 -26q5 1 17.5 10t14.5 10h23q-2 -31 21 -207l-31 -8q-41 121 -106 163q-30 20 -69 20
q-43 0 -68.5 -25.5t-25.5 -69.5q0 -47 25.5 -75t98.5 -60q111 -49 150 -96.5t39 -116.5q0 -86 -65.5 -137.5t-164.5 -51.5q-47 0 -123 22q-17 4 -65 -6q-9 96 -32 207zM447 728l-16 -30l-155 62q-64 -27 -157 -62l-14 29q72 45 160 125h26q103 -89 156 -124z" />
    <glyph glyph-name="scircumflex" unicode="&#x15d;" horiz-adv-x="401" 
d="M355 305l-35 -7q-22 69 -63 103q-26 23 -61 23q-24 0 -41 -15.5t-17 -40.5q0 -23 18 -41t66 -41q78 -38 109.5 -71.5t31.5 -86.5q0 -68 -48.5 -104t-119.5 -36q-46 0 -93 14q-20 6 -46 1q-1 19 -6.5 49.5t-11.5 61.5t-8 41l34 8q20 -69 69 -112q30 -27 67 -27q58 0 58 54
q0 26 -17.5 44t-71.5 44q-69 34 -99 67.5t-30 88.5q0 59 43.5 98.5t120.5 39.5q47 0 86 -17q10 2 22 12h23q0 -39 20 -150zM343 537l-25 -21l-113 92l-116 -92l-23 21q75 97 123 176h30q22 -34 124 -176z" />
    <glyph glyph-name="uni015E" unicode="&#x15e;" horiz-adv-x="545" 
d="M483 441l-31 -8q-41 121 -106 163q-30 20 -69 20q-43 0 -68.5 -25.5t-25.5 -69.5q0 -47 25.5 -75t98.5 -60q111 -49 150 -96.5t39 -116.5q0 -79 -56 -129.5t-144 -58.5l-22 -27q94 -21 94 -98q0 -40 -31.5 -67.5t-73.5 -27.5q-34 0 -59.5 14t-25.5 31q0 14 11.5 26.5
t25.5 12.5t32 -30q15 -23 31 -23q34 0 34 37q0 63 -115 62v19l61 70q-39 1 -115 22q-17 4 -65 -6q-9 96 -32 207l34 7q39 -114 108 -165q38 -26 81 -26q47 0 74.5 27.5t27.5 67.5q0 45 -24.5 73.5t-92.5 60.5q-111 53 -149 103t-38 118q0 72 54.5 126.5t159.5 54.5
q59 0 126 -26q5 1 17.5 10t14.5 10h23q-2 -31 21 -207z" />
    <glyph glyph-name="uni015F" unicode="&#x15f;" horiz-adv-x="401" 
d="M355 305l-35 -7q-22 69 -63 103q-26 23 -61 23q-24 0 -41 -15.5t-17 -40.5q0 -23 18 -41t66 -41q78 -38 109.5 -71.5t31.5 -86.5q0 -62 -41 -97.5t-105 -41.5l-22 -26q48 -14 73.5 -38t25.5 -64t-34.5 -68t-77.5 -28q-35 0 -60.5 15t-25.5 32q0 14 11.5 27t25.5 14
q15 0 32 -28q17 -26 36 -26q13 0 21 9.5t8 24.5q0 26 -29 43t-86 19v19l65 74q-42 3 -78 14q-20 6 -46 1q-1 19 -6.5 49.5t-11.5 61.5t-8 41l34 8q20 -69 69 -112q30 -27 67 -27q58 0 58 54q0 26 -17.5 44t-71.5 44q-69 34 -99 67.5t-30 88.5q0 59 43.5 98.5t120.5 39.5
q47 0 86 -17q10 2 22 12h23q0 -39 20 -150z" />
    <glyph glyph-name="Scaron" unicode="&#x160;" horiz-adv-x="545" 
d="M46 207l34 7q39 -114 108 -165q38 -26 81 -26q47 0 74.5 27.5t27.5 67.5q0 45 -24.5 73.5t-92.5 60.5q-111 53 -149 103t-38 118q0 72 54.5 126.5t159.5 54.5q59 0 126 -26q5 1 17.5 10t14.5 10h23q-2 -31 21 -207l-31 -8q-41 121 -106 163q-30 20 -69 20
q-43 0 -68.5 -25.5t-25.5 -69.5q0 -47 25.5 -75t98.5 -60q111 -49 150 -96.5t39 -116.5q0 -86 -65.5 -137.5t-164.5 -51.5q-47 0 -123 22q-17 4 -65 -6q-9 96 -32 207zM109 830l17 30q71 -29 155 -62q60 26 156 62l14 -29q-72 -46 -159 -124h-27q-98 85 -156 123z" />
    <glyph glyph-name="scaron" unicode="&#x161;" horiz-adv-x="401" 
d="M355 305l-35 -7q-22 69 -63 103q-26 23 -61 23q-24 0 -41 -15.5t-17 -40.5q0 -23 18 -41t66 -41q78 -38 109.5 -71.5t31.5 -86.5q0 -68 -48.5 -104t-119.5 -36q-46 0 -93 14q-20 6 -46 1q-1 19 -6.5 49.5t-11.5 61.5t-8 41l34 8q20 -69 69 -112q30 -27 67 -27q58 0 58 54
q0 26 -17.5 44t-71.5 44q-69 34 -99 67.5t-30 88.5q0 59 43.5 98.5t120.5 39.5q47 0 86 -17q10 2 22 12h23q0 -39 20 -150zM67 692l26 21l113 -92l115 92l23 -21q-75 -100 -123 -176h-29q-15 23 -125 176z" />
    <glyph glyph-name="uni0162" unicode="&#x162;" horiz-adv-x="690" 
d="M201 638h284q90 0 146 10q-1 -39 19 -187l-32 -8q-38 98 -84 131q-22 15 -55 15h-68v-501q0 -37 20 -48t77 -14v-36h-143l-34 -42q94 -21 94 -98q0 -40 -31.5 -67.5t-73.5 -27.5q-34 0 -59.5 14t-25.5 31q0 14 11.5 26.5t25.5 12.5t32 -30q15 -23 31 -23q34 0 34 37
q0 63 -115 62v19l74 86h-152v36q61 5 79 14.5t18 44.5v504h-66q-32 0 -54 -15q-47 -32 -85 -131l-32 8q21 137 20 187q54 -10 145 -10z" />
    <glyph glyph-name="uni0163" unicode="&#x163;" horiz-adv-x="345" 
d="M202 393v-283q0 -23 13.5 -40t42.5 -17q36 0 70 23v-32q-44 -48 -111 -53l-23 -28q48 -14 73.5 -38t25.5 -64t-34.5 -68t-77.5 -28q-35 0 -60.5 15t-25.5 32q0 14 11.5 27t25.5 14q15 0 32 -28q17 -26 36 -26q13 0 21 9.5t8 24.5q0 26 -29 43t-86 19v19l67 77
q-104 11 -104 129v273h-59v29q76 39 160 139h37q-12 -74 -12 -113h120q2 -37 -7 -55h-114z" />
    <glyph glyph-name="Tcaron" unicode="&#x164;" horiz-adv-x="690" 
d="M508 0h-332v36q61 5 79 14.5t18 44.5v504h-66q-32 0 -54 -15q-47 -32 -85 -131l-32 8q21 137 20 187q54 -10 145 -10h284q90 0 146 10q-1 -39 19 -187l-32 -8q-38 98 -84 131q-22 15 -55 15h-68v-501q0 -37 20 -48t77 -14v-36zM169 815l17 30q71 -29 155 -62
q60 26 156 62l14 -29q-68 -43 -159 -125h-27q-103 89 -156 124z" />
    <glyph glyph-name="tcaron" unicode="&#x165;" horiz-adv-x="345" 
d="M328 76v-32q-50 -54 -126 -54q-125 0 -125 130v273h-59v29q76 39 160 139h37q-12 -74 -12 -113h120q2 -37 -7 -55h-114v-283q0 -23 13.5 -40t42.5 -17q36 0 70 23zM327 508h-29q-5 25 -18 116.5t-16 107.5v18q27 9 50 9q25 0 49 -8v-18q-31 -200 -36 -225z" />
    <glyph glyph-name="Tbar" unicode="&#x166;" horiz-adv-x="690" 
d="M201 638h284q90 0 146 10q-1 -39 19 -187l-32 -8q-38 98 -84 131q-22 15 -55 15h-68v-257h116v-38h-116v-206q0 -37 20 -48t77 -14v-36h-332v36q61 5 79 14.5t18 44.5v209h-108v38h108v257h-66q-32 0 -54 -15q-47 -32 -85 -131l-32 8q21 137 20 187q54 -10 145 -10z" />
    <glyph glyph-name="tbar" unicode="&#x167;" horiz-adv-x="345" 
d="M202 233v-123q0 -23 13.5 -40t42.5 -17q36 0 70 23v-32q-50 -54 -126 -54q-125 0 -125 130v113h-56v38h56v122h-59v29q76 39 160 139h37q-12 -74 -12 -113h120q2 -37 -7 -55h-114v-122h78v-38h-78z" />
    <glyph glyph-name="Utilde" unicode="&#x168;" horiz-adv-x="712" 
d="M19 602v36h313v-36q-50 -3 -68.5 -15t-18.5 -47v-349q0 -29 4 -45q27 -104 151 -104q66 0 105.5 29.5t53.5 77.5q7 24 7 61v284q0 66 -19.5 83t-95.5 25v36h258v-36q-62 -5 -79.5 -25.5t-17.5 -82.5v-265q0 -47 -8 -82q-7 -29 -21.5 -55.5t-41 -52t-71.5 -40.5t-103 -15
q-197 0 -248 139q-13 34 -13 88v329q0 37 -19 48t-68 14zM534 829l26 -10q-8 -48 -34.5 -80.5t-73.5 -32.5q-11 0 -24 3t-19.5 5t-24 9.5t-20.5 8.5q-47 21 -67 21q-24 0 -37 -11.5t-22 -36.5l-28 9q7 48 35 78.5t76 30.5q33 0 83 -22q48 -21 65 -21q23 0 37 9t28 40z" />
    <glyph glyph-name="utilde" unicode="&#x169;" horiz-adv-x="553" 
d="M535 48v-35q-114 -12 -177 -25l-5 5q-2 8 -4 52q-71 -57 -135 -57q-59 0 -98 35.5t-39 108.5v238q0 19 -8.5 26t-48.5 17v35q150 0 186 7q0 -15 -1 -36.5t-1.5 -42t-0.5 -45.5v-211q0 -29 22 -48.5t53 -19.5q32 0 54 14q6 5 9 9.5t5 16.5t2 34v251q0 14 -13 21t-61 15
l6 35q129 0 195 6q-2 -48 -2 -128v-248q2 -19 16 -23q17 -5 46 -7zM419 663l25 -9q-8 -48 -33.5 -81.5t-69.5 -33.5q-26 0 -84 26q-5 2 -16.5 7.5t-16.5 7t-13.5 3.5t-17.5 2q-23 0 -35.5 -11t-21.5 -36l-26 9q6 48 33 79.5t71 31.5q36 0 80 -23q46 -20 63 -20q22 0 35.5 9
t26.5 39z" />
    <glyph glyph-name="Umacron" unicode="&#x16a;" horiz-adv-x="712" 
d="M19 602v36h313v-36q-50 -3 -68.5 -15t-18.5 -47v-349q0 -29 4 -45q27 -104 151 -104q66 0 105.5 29.5t53.5 77.5q7 24 7 61v284q0 66 -19.5 83t-95.5 25v36h258v-36q-62 -5 -79.5 -25.5t-17.5 -82.5v-265q0 -47 -8 -82q-7 -29 -21.5 -55.5t-41 -52t-71.5 -40.5t-103 -15
q-197 0 -248 139q-13 34 -13 88v329q0 37 -19 48t-68 14zM245 784h285v-66h-285v66z" />
    <glyph glyph-name="umacron" unicode="&#x16b;" horiz-adv-x="553" 
d="M535 48v-35q-114 -12 -177 -25l-5 5q-2 8 -4 52q-71 -57 -135 -57q-59 0 -98 35.5t-39 108.5v238q0 19 -8.5 26t-48.5 17v35q150 0 186 7q0 -15 -1 -36.5t-1.5 -42t-0.5 -45.5v-211q0 -29 22 -48.5t53 -19.5q32 0 54 14q6 5 9 9.5t5 16.5t2 34v251q0 14 -13 21t-61 15
l6 35q129 0 195 6q-2 -48 -2 -128v-248q2 -19 16 -23q17 -5 46 -7zM134 625h265v-66h-265v66z" />
    <glyph glyph-name="Ubreve" unicode="&#x16c;" horiz-adv-x="712" 
d="M19 602v36h313v-36q-50 -3 -68.5 -15t-18.5 -47v-349q0 -29 4 -45q27 -104 151 -104q66 0 105.5 29.5t53.5 77.5q7 24 7 61v284q0 66 -19.5 83t-95.5 25v36h258v-36q-62 -5 -79.5 -25.5t-17.5 -82.5v-265q0 -47 -8 -82q-7 -29 -21.5 -55.5t-41 -52t-71.5 -40.5t-103 -15
q-197 0 -248 139q-13 34 -13 88v329q0 37 -19 48t-68 14zM528 829l29 -8q-45 -134 -171 -134q-72 0 -111.5 38t-51.5 96l29 8q13 -20 22.5 -29.5t38.5 -20t74 -10.5q36 0 60.5 4.5t41 16t22 17.5t17.5 22z" />
    <glyph glyph-name="ubreve" unicode="&#x16d;" horiz-adv-x="553" 
d="M535 48v-35q-114 -12 -177 -25l-5 5q-2 8 -4 52q-71 -57 -135 -57q-59 0 -98 35.5t-39 108.5v238q0 19 -8.5 26t-48.5 17v35q150 0 186 7q0 -15 -1 -36.5t-1.5 -42t-0.5 -45.5v-211q0 -29 22 -48.5t53 -19.5q32 0 54 14q6 5 9 9.5t5 16.5t2 34v251q0 14 -13 21t-61 15
l6 35q129 0 195 6q-2 -48 -2 -128v-248q2 -19 16 -23q17 -5 46 -7zM397 677l30 -5q-13 -61 -54 -101.5t-107 -40.5t-104.5 39t-46.5 103l32 5q29 -66 123 -66q48 0 77.5 15.5t49.5 50.5z" />
    <glyph glyph-name="Uring" unicode="&#x16e;" horiz-adv-x="712" 
d="M19 602v36h313v-36q-50 -3 -68.5 -15t-18.5 -47v-349q0 -29 4 -45q27 -104 151 -104q66 0 105.5 29.5t53.5 77.5q7 24 7 61v284q0 66 -19.5 83t-95.5 25v36h258v-36q-62 -5 -79.5 -25.5t-17.5 -82.5v-265q0 -47 -8 -82q-7 -29 -21.5 -55.5t-41 -52t-71.5 -40.5t-103 -15
q-197 0 -248 139q-13 34 -13 88v329q0 37 -19 48t-68 14zM388 858q42 0 68 -24t26 -60t-26 -59t-68 -23t-67.5 23t-25.5 59q0 35 25.5 59.5t67.5 24.5zM387 823q-21 0 -34.5 -13t-13.5 -36t14.5 -35.5t35.5 -12.5t34.5 13t13.5 38q0 21 -14.5 33.5t-35.5 12.5z" />
    <glyph glyph-name="uring" unicode="&#x16f;" horiz-adv-x="553" 
d="M535 48v-35q-114 -12 -177 -25l-5 5q-2 8 -4 52q-71 -57 -135 -57q-59 0 -98 35.5t-39 108.5v238q0 19 -8.5 26t-48.5 17v35q150 0 186 7q0 -15 -1 -36.5t-1.5 -42t-0.5 -45.5v-211q0 -29 22 -48.5t53 -19.5q32 0 54 14q6 5 9 9.5t5 16.5t2 34v251q0 14 -13 21t-61 15
l6 35q129 0 195 6q-2 -48 -2 -128v-248q2 -19 16 -23q17 -5 46 -7zM265 687q40 0 64.5 -25.5t24.5 -61.5q0 -37 -24.5 -61t-64.5 -24q-39 0 -64 24t-25 61q0 35 25 61t64 26zM264 655q-19 0 -32 -15t-13 -40q0 -26 13.5 -40.5t33.5 -14.5q46 0 46 57q0 24 -13.5 38.5
t-34.5 14.5z" />
    <glyph glyph-name="Uhungarumlaut" unicode="&#x170;" horiz-adv-x="712" 
d="M19 602v36h313v-36q-50 -3 -68.5 -15t-18.5 -47v-349q0 -29 4 -45q27 -104 151 -104q66 0 105.5 29.5t53.5 77.5q7 24 7 61v284q0 66 -19.5 83t-95.5 25v36h258v-36q-62 -5 -79.5 -25.5t-17.5 -82.5v-265q0 -47 -8 -82q-7 -29 -21.5 -55.5t-41 -52t-71.5 -40.5t-103 -15
q-197 0 -248 139q-13 34 -13 88v329q0 37 -19 48t-68 14zM242 718l85 139q22 4 111 -21v-14l-171 -123zM442 719l84 137q6 1 22.5 -1t32 -5.5t34 -8t22.5 -5.5v-14l-171 -123z" />
    <glyph glyph-name="uhungarumlaut" unicode="&#x171;" horiz-adv-x="553" 
d="M535 48v-35q-114 -12 -177 -25l-5 5q-2 8 -4 52q-71 -57 -135 -57q-59 0 -98 35.5t-39 108.5v238q0 19 -8.5 26t-48.5 17v35q150 0 186 7q0 -15 -1 -36.5t-1.5 -42t-0.5 -45.5v-211q0 -29 22 -48.5t53 -19.5q32 0 54 14q6 5 9 9.5t5 16.5t2 34v251q0 14 -13 21t-61 15
l6 35q129 0 195 6q-2 -48 -2 -128v-248q2 -19 16 -23q17 -5 46 -7zM159 517l-25 18l75 155q8 2 49.5 -5.5t56.5 -13.5v-12zM341 517l-24 18l75 155q9 2 50.5 -5t55.5 -14v-12z" />
    <glyph glyph-name="Uogonek" unicode="&#x172;" horiz-adv-x="712" 
d="M451 638h258v-36q-62 -5 -79.5 -25.5t-17.5 -82.5v-265q0 -47 -8 -82q-22 -99 -115 -140q-71 -62 -71 -118q0 -25 14 -38t34 -13q32 0 61 19l9 -17q-45 -73 -118 -73q-44 0 -69 24t-25 61q0 64 115 139q-37 -7 -72 -7q-197 0 -248 139q-13 34 -13 88v329q0 37 -19 48
t-68 14v36h313v-36q-50 -3 -68.5 -15t-18.5 -47v-349q0 -29 4 -45q27 -104 151 -104q66 0 105.5 29.5t53.5 77.5q7 24 7 61v284q0 66 -19.5 83t-95.5 25v36z" />
    <glyph glyph-name="uogonek" unicode="&#x173;" horiz-adv-x="553" 
d="M538 -146l9 -22q-42 -66 -118 -66q-44 0 -68.5 24t-24.5 58q0 77 122 156q-54 -6 -100 -16l-5 5q-2 8 -4 52q-71 -57 -135 -57q-59 0 -98 35.5t-39 108.5v238q0 19 -8.5 26t-48.5 17v35q150 0 186 7q0 -15 -1 -36.5t-1.5 -42t-0.5 -45.5v-211q0 -29 22 -48.5t53 -19.5
q32 0 54 14q6 5 9 9.5t5 16.5t2 34v251q0 14 -13 21t-61 15l6 35q129 0 195 6q-2 -48 -2 -128v-248q2 -19 16 -23q17 -5 46 -7v-35q-24 -2 -35 -4q-71 -66 -71 -122q0 -25 13 -37.5t34 -12.5q31 0 62 17z" />
    <glyph glyph-name="Wcircumflex" unicode="&#x174;" horiz-adv-x="953" 
d="M-10 602v36h301v-36q-4 -1 -19.5 -2.5t-25.5 -3.5q-36 -6 -26 -45q29 -113 105 -365q83 204 119 303q3 8 0 22q-16 58 -31 72t-68 19v36h300v-36q-28 -2 -51 -6q-20 -4 -24.5 -14t2.5 -31q17 -53 61 -184t60 -183q70 183 120 350q8 26 5 37q-7 23 -95 30q-5 1 -7 1v36
h250v-36q-46 -5 -69.5 -20.5t-37.5 -56.5q-18 -53 -95.5 -266.5t-96.5 -270.5h-49q-19 69 -150 451q-17 -44 -86.5 -219t-90.5 -232h-48q-48 195 -165 553q-10 33 -29.5 46t-58.5 15zM664 719l-17 -30q-71 29 -155 62q-60 -26 -156 -62l-14 29q72 46 159 124h27
q98 -85 156 -123z" />
    <glyph glyph-name="wcircumflex" unicode="&#x175;" horiz-adv-x="743" 
d="M-9 412v36h249v-36q-36 -5 -45 -10t-4 -23q11 -40 42 -125t35 -98q46 100 81 190q2 6 0 12q-10 29 -17 38t-21 12q-5 1 -29 4v36h233v-36q-52 -5 -52 -20q0 -13 8 -34q57 -157 78 -209q42 104 84 224q4 13 1.5 20t-15.5 11q-21 5 -56 8v36h194v-36q-3 0 -12.5 -1.5
t-11.5 -2t-9 -2t-9 -2.5t-7 -2.5t-7 -3.5t-5.5 -5t-6 -7t-5 -8.5t-5.5 -10.5q-39 -84 -155 -375h-41q-90 248 -112 305q-75 -163 -132 -305h-39q-68 207 -135 373q-10 28 -22 35t-52 12zM528 528l-26 -21l-113 92l-115 -92l-23 21q75 100 123 176h29q15 -23 125 -176z" />
    <glyph glyph-name="Ycircumflex" unicode="&#x176;" horiz-adv-x="607" 
d="M462 0h-313v36q55 4 71 14t16 48v141q0 31 -15 61q-76 153 -126 235q-23 39 -43 50t-65 17v36h306v-35q-33 -5 -45 -7q-30 -5 -16 -30q77 -153 122 -240q75 135 116 230q15 32 -15 38q-34 6 -63 8v36h234v-36q-47 -5 -71 -18t-44 -49q-51 -88 -127 -237q-9 -17 -9 -54
v-146q0 -39 15.5 -48.5t71.5 -13.5v-36zM494 723l-16 -30l-155 62q-64 -27 -157 -62l-14 29q75 48 160 124h26q98 -85 156 -123z" />
    <glyph glyph-name="ycircumflex" unicode="&#x177;" horiz-adv-x="484" 
d="M-5 412v36h258v-36q-19 -1 -45 -5q-21 -6 -12 -29q17 -49 95 -240q59 165 79 228q10 33 -13 39q-12 3 -52 7v36h187v-36q-35 -3 -48.5 -11.5t-25.5 -37.5q-31 -76 -122 -319q-8 -22 -17 -46t-19 -50.5t-15 -39.5q-32 -84 -61 -114t-64 -30q-25 0 -44 17.5t-19 43.5
q0 30 18.5 51t37.5 21q11 0 38 -21q15 -11 24 -11t23 28q16 34 31 89q-5 19 -71 177t-93 216q-10 22 -21.5 27.5t-48.5 9.5zM393 528l-25 -21l-113 92l-116 -92l-23 21q75 97 123 176h30q22 -34 124 -176z" />
    <glyph glyph-name="Ydieresis" unicode="&#x178;" horiz-adv-x="607" 
d="M462 0h-313v36q55 4 71 14t16 48v141q0 31 -15 61q-76 153 -126 235q-23 39 -43 50t-65 17v36h306v-35q-33 -5 -45 -7q-30 -5 -16 -30q77 -153 122 -240q75 135 116 230q15 32 -15 38q-34 6 -63 8v36h234v-36q-47 -5 -71 -18t-44 -49q-51 -88 -127 -237q-9 -17 -9 -54
v-146q0 -39 15.5 -48.5t71.5 -13.5v-36zM218 819q24 0 40.5 -17.5t16.5 -44.5q0 -29 -18 -44.5t-42 -15.5q-23 0 -40 17t-17 44q0 24 16.5 42.5t43.5 18.5zM430 818q25 0 42 -18.5t17 -42.5t-17 -42t-43 -18q-24 0 -42 17t-18 42q0 29 18.5 45.5t42.5 16.5z" />
    <glyph glyph-name="Zacute" unicode="&#x179;" horiz-adv-x="641" 
d="M398 0h-356v24q46 63 187 287.5t176 287.5h-168q-43 0 -67 -15q-42 -29 -101 -140l-32 11q34 104 48 191q38 -8 143 -8h242q58 0 100 2v-23q-194 -308 -360 -578h168q53 0 87 21q52 34 109 137l31 -13q-32 -76 -64 -188q-11 0 -35.5 1.5t-51 2t-56.5 0.5zM279 695l-19 24
l136 136q13 1 49 -14.5t51 -26.5v-18z" />
    <glyph glyph-name="zacute" unicode="&#x17a;" horiz-adv-x="447" 
d="M412 164l29 -12q-44 -106 -58 -155q-60 3 -121 3h-220v22q51 83 217 390h-75q-33 0 -52.5 -12.5t-38.5 -39.5q-23 -31 -44 -71l-30 11q36 97 44 160q54 -12 106 -12h233v-20q-28 -49 -209 -393h67q43 0 75 28q35 29 77 101zM214 506l-29 14l97 180q9 2 50.5 -8.5
t58.5 -18.5v-15z" />
    <glyph glyph-name="Zdotaccent" unicode="&#x17b;" horiz-adv-x="641" 
d="M398 0h-356v24q46 63 187 287.5t176 287.5h-168q-43 0 -67 -15q-42 -29 -101 -140l-32 11q34 104 48 191q38 -8 143 -8h242q58 0 100 2v-23q-194 -308 -360 -578h168q53 0 87 21q52 34 109 137l31 -13q-32 -76 -64 -188q-11 0 -35.5 1.5t-51 2t-56.5 0.5zM248 767
q0 28 18 48.5t50 20.5q29 0 47 -20t18 -49q0 -31 -18.5 -50t-47.5 -19q-31 0 -49 20t-18 49z" />
    <glyph glyph-name="zdotaccent" unicode="&#x17c;" horiz-adv-x="447" 
d="M412 164l29 -12q-44 -106 -58 -155q-60 3 -121 3h-220v22q51 83 217 390h-75q-33 0 -52.5 -12.5t-38.5 -39.5q-23 -31 -44 -71l-30 11q36 97 44 160q54 -12 106 -12h233v-20q-28 -49 -209 -393h67q43 0 75 28q35 29 77 101zM165 598q0 28 18 48.5t51 20.5q29 0 47 -20
t18 -49q0 -31 -18.5 -50t-47.5 -19q-32 0 -50 20t-18 49z" />
    <glyph glyph-name="Zcaron" unicode="&#x17d;" horiz-adv-x="641" 
d="M398 0h-356v24q46 63 187 287.5t176 287.5h-168q-43 0 -67 -15q-42 -29 -101 -140l-32 11q34 104 48 191q38 -8 143 -8h242q58 0 100 2v-23q-194 -308 -360 -578h168q53 0 87 21q52 34 109 137l31 -13q-32 -76 -64 -188q-11 0 -35.5 1.5t-51 2t-56.5 0.5zM138 814l16 30
l155 -62q64 27 157 62l14 -29q-72 -45 -160 -125h-26q-103 89 -156 124z" />
    <glyph glyph-name="zcaron" unicode="&#x17e;" horiz-adv-x="447" 
d="M412 164l29 -12q-44 -106 -58 -155q-60 3 -121 3h-220v22q51 83 217 390h-75q-33 0 -52.5 -12.5t-38.5 -39.5q-23 -31 -44 -71l-30 11q36 97 44 160q54 -12 106 -12h233v-20q-28 -49 -209 -393h67q43 0 75 28q35 29 77 101zM85 692l26 21l113 -92l115 92l23 -21
q-75 -100 -123 -176h-29q-15 23 -125 176z" />
    <glyph glyph-name="longs" unicode="&#x17f;" horiz-adv-x="288" 
d="M275 0h-257v36q24 1 41 5q13 2 18.5 9t5.5 26v321h-54v31q12 2 30 11t24 15q8 142 107 212q60 42 121 42q36 0 62 -13.5t26 -39.5q0 -22 -19.5 -41.5t-41.5 -19.5q-18 0 -38 20q-15 15 -29 30q-14 14 -29 14q-34 0 -34 -93v-486q0 -20 4.5 -27t18.5 -10q21 -5 44 -6v-36z
" />
    <glyph glyph-name="uni018F" unicode="&#x18f;" horiz-adv-x="687" 
d="M56 311h429v22q0 126 -47.5 194.5t-141.5 68.5q-114 0 -203 -78l-19 28q108 108 255 108q144 0 224 -90t80 -232q0 -151 -83 -249t-222 -98q-136 0 -205.5 81.5t-69.5 198.5q0 22 3 46zM482 273h-278q-3 -20 -3 -42q0 -93 32.5 -150.5t101.5 -57.5q132 0 147 250z" />
    <glyph glyph-name="florin" unicode="&#x192;" horiz-adv-x="506" 
d="M78 372v39h90q33 128 98.5 197t150.5 69q50 0 72.5 -16t22.5 -37q0 -23 -18.5 -41t-44.5 -18q-13 0 -20 6t-14 21q-2 4 -5 11.5t-4.5 10.5t-4 8.5t-4.5 7.5t-4.5 5t-6 4t-7.5 1q-23 0 -41 -48t-45 -181h96v-39h-104q-50 -228 -64 -283q-30 -116 -103.5 -182.5
t-155.5 -66.5q-31 0 -58 15t-26 39t20 44.5t37 20.5q6 0 11.5 -2t10 -6t7 -7t7 -9t5.5 -8q25 -36 45 -36q10 0 17 5.5t18.5 32t22.5 74.5q20 86 45 203t36 166h-82z" />
    <glyph glyph-name="uni019F" unicode="&#x19f;" horiz-adv-x="756" 
d="M204 353h348q-5 117 -54.5 190t-127.5 73q-162 0 -166 -263zM554 314h-350q1 -128 50.5 -209.5t137.5 -81.5q82 0 122 76.5t40 214.5zM382 -16q-130 0 -217 75q-111 95 -111 260q0 153 93.5 244t231.5 91q144 0 233 -93t89 -242q0 -147 -91.5 -241t-227.5 -94z" />
    <glyph glyph-name="Ohorn" unicode="&#x1a0;" horiz-adv-x="756" 
d="M382 -16q-130 0 -221 78q-50 44 -78.5 112t-28.5 145q0 172 121 268q84 67 202 67q116 0 201 -62q33 13 33 35q0 19 -27 50q-14 17 -14 26q0 18 30.5 39.5t54.5 21.5q17 0 26.5 -18.5t9.5 -46.5q0 -43 -22.5 -78t-63.5 -53q96 -94 96 -247q0 -124 -69 -217
q-42 -55 -106.5 -87.5t-143.5 -32.5zM393 22q54 0 89 38q67 71 67 246q0 161 -62 247q-45 63 -118 63q-55 0 -90 -34q-71 -68 -71 -246q0 -158 59 -242q48 -72 126 -72z" />
    <glyph glyph-name="ohorn" unicode="&#x1a1;" horiz-adv-x="550" 
d="M280 460q73 0 131 -37q34 12 34 34q0 16 -26 48q-13 16 -13 24q0 17 29 37.5t52 20.5q15 0 24.5 -17.5t9.5 -44.5q0 -40 -22.5 -73t-61.5 -50l13 -12q61 -64 61 -161q0 -101 -67 -171q-65 -70 -169 -70q-111 0 -173 67q-63 68 -63 170q0 125 102 195q60 40 139 40z
M285 25q39 0 60 37q28 47 28 154q0 96 -31 155q-29 53 -75 53q-90 0 -90 -172q0 -129 42 -189q26 -38 66 -38z" />
    <glyph glyph-name="Uhorn" unicode="&#x1af;" horiz-adv-x="712" 
d="M19 638h313v-36q-22 -1 -44 -6q-43 -10 -43 -56v-349q0 -29 4 -45q27 -104 151 -104q66 0 105.5 29.5t53.5 77.5q7 24 7 61v292q0 50 -14 69t-48 24q-37 6 -53 7v36h190q33 0 33 17q0 7 -3 14.5t-6.5 12t-10 12.5t-8.5 11q-13 19 -13 26q0 17 31 38t51 21q16 0 26 -17.5
t10 -44.5q0 -91 -87 -128q-19 -8 -28.5 -15t-16.5 -27t-7 -55v-274q0 -47 -8 -82q-7 -29 -21.5 -55.5t-41 -52t-71.5 -40.5t-103 -15q-197 0 -248 139q-13 34 -13 88v329q0 50 -43 57q-20 3 -44 5v36z" />
    <glyph glyph-name="uhorn" unicode="&#x1b0;" horiz-adv-x="553" 
d="M535 48v-35q-114 -12 -177 -25l-5 5q-2 8 -4 52q-71 -57 -135 -57q-59 0 -98 35.5t-39 108.5v238q0 19 -8.5 26t-48.5 17v35q150 0 186 7q0 -15 -1 -36.5t-1.5 -42t-0.5 -45.5v-211q0 -29 22 -48.5t53 -19.5q32 0 54 14q6 5 9 9.5t5 16.5t2 34v251q0 14 -13 21t-61 15
l6 35q127 0 182 5q12 9 12 21q0 16 -26 48q-13 16 -13 24q0 17 29 37.5t51 20.5q16 0 25.5 -17.5t9.5 -44.5q0 -38 -20 -69.5t-56 -49.5q-1 -29 -1 -97v-248q2 -19 16 -23q18 -5 46 -7z" />
    <glyph glyph-name="uni01C4" unicode="&#x1c4;" horiz-adv-x="1378" 
d="M254 555v-432q1 -34 3 -45t10 -18q30 -24 76 -24q81 0 133 73q58 81 58 216q0 159 -83 232q-53 45 -124 45q-49 0 -64 -14q-9 -6 -9 -33zM29 0v36q49 4 68 15t19 47v442q0 36 -18.5 47.5t-68.5 14.5v36h307q118 0 191 -36q76 -35 116 -106.5t40 -156.5q0 -155 -106 -251
q-97 -88 -243 -88h-305zM1135 0h-356v24q46 63 187 287.5t176 287.5h-168q-43 0 -67 -15q-42 -29 -101 -140l-32 11q32 94 48 191q38 -8 143 -8h242q60 0 100 2v-23q-194 -308 -360 -578h169q52 0 86 21q52 34 109 137l31 -13q-32 -76 -64 -188q-11 0 -35.5 1.5t-51 2
t-56.5 0.5zM875 814l16 30q110 -44 156 -62q60 26 156 62l14 -29q-68 -43 -159 -125h-27q-103 89 -156 124z" />
    <glyph glyph-name="uni01C5" unicode="&#x1c5;" horiz-adv-x="1184" 
d="M254 555v-432q1 -34 3 -45t10 -18q30 -24 76 -24q81 0 133 73q58 81 58 216q0 159 -83 232q-53 45 -124 45q-49 0 -64 -14q-9 -6 -9 -33zM29 0v36q49 4 68 15t19 47v442q0 36 -18.5 47.5t-68.5 14.5v36h307q118 0 191 -36q76 -35 116 -106.5t40 -156.5q0 -155 -106 -251
q-97 -88 -243 -88h-305zM1149 164l29 -12q-44 -106 -58 -155q-60 3 -121 3h-220v22q51 83 217 390h-75q-33 0 -52.5 -12.5t-38.5 -39.5q-23 -31 -44 -71l-30 11q36 97 44 160q54 -12 106 -12h233v-20q-28 -49 -209 -393h67q43 0 75 28q38 32 77 101zM822 692l26 21l113 -92
l115 92l23 -21q-75 -100 -123 -176h-29q-15 23 -125 176z" />
    <glyph glyph-name="uni01C6" unicode="&#x1c6;" horiz-adv-x="1009" 
d="M359 115v208q0 46 -18 68q-27 34 -70 34q-36 0 -56 -23q-38 -41 -38 -162q0 -104 35 -155q30 -44 75 -44q30 0 51 14q21 17 21 60zM545 42v-34q-120 -7 -174 -18l-7 5q-3 18 -3 41q-78 -48 -143 -48q-67 0 -116 52q-63 67 -63 174q0 128 98 199q64 47 155 47q37 0 67 -7
q0 142 -3 151q-10 25 -74 43v29q151 6 202 27l5 -4q-6 -46 -6 -110v-489q0 -34 9 -41q16 -14 53 -17zM973 164l29 -12q-44 -106 -58 -155q-60 3 -121 3h-220v22q51 83 217 390h-75q-33 0 -51.5 -12.5t-38.5 -39.5q-27 -35 -45 -71l-30 11q36 97 44 160q54 -12 107 -12h232
v-20q-28 -49 -209 -393h67q43 0 75 28q38 32 77 101zM646 692l26 21l113 -92l115 92l23 -21q-75 -100 -123 -176h-29q-15 23 -125 176z" />
    <glyph glyph-name="uni01C7" unicode="&#x1c7;" horiz-adv-x="1010" 
d="M379 0h-360v36q59 5 78 15t19 47v442q0 37 -18.5 48.5t-68.5 13.5v36h313v-36q-48 -3 -67.5 -15t-19.5 -47v-429q0 -46 10.5 -59t51.5 -13h68q50 0 81 26q57 43 110 150l32 -11q-44 -134 -64 -207q-129 3 -165 3zM674 602v36h312v-36q-45 -4 -63 -17t-18 -45v-345
q0 -114 -25 -179q-33 -80 -104 -142q-79 -66 -136 -66q-38 0 -66 17.5t-28 40.5t20.5 45t41.5 22q10 0 52 -39q24 -21 41 -21q21 0 37 17q17 18 23.5 49t6.5 104v497q0 36 -19.5 48t-74.5 14z" />
    <glyph glyph-name="uni01C8" unicode="&#x1c8;" horiz-adv-x="908" 
d="M379 0h-360v36q59 5 78 15t19 47v442q0 37 -18.5 48.5t-68.5 13.5v36h313v-36q-48 -3 -67.5 -15t-19.5 -47v-429q0 -46 10.5 -59t51.5 -13h68q50 0 81 26q57 43 110 150l32 -11q-44 -134 -64 -207q-129 3 -165 3zM647 391v27q71 3 185 42l7 -6q-3 -40 -3 -101v-281
q0 -91 -17 -130q-19 -46 -59 -88t-65 -59t-48 -30l-21 28q47 40 66 78.5t19 95.5v370q0 19 -15 30q-22 15 -49 24zM700 598q0 28 18 48.5t51 20.5q29 0 47 -20t18 -49q0 -31 -18.5 -50t-47.5 -19q-32 0 -50 20t-18 49z" />
    <glyph glyph-name="uni01C9" unicode="&#x1c9;" horiz-adv-x="564" 
d="M262 0h-242v35q38 2 48.5 10t10.5 35v472q0 41 -3 53q-6 25 -62 41v29q90 0 191 33l4 -4q-5 -45 -5 -113v-515q0 -24 9.5 -31t48.5 -10v-35zM303 391v27q71 3 185 42l7 -6q-3 -40 -3 -101v-281q0 -91 -17 -130q-19 -46 -59 -88t-65 -59t-48 -30l-21 28q47 40 66 78.5
t19 95.5v370q0 19 -15 30q-22 15 -49 24zM356 598q0 28 18 48.5t51 20.5q29 0 47 -20t18 -49q0 -31 -18.5 -50t-47.5 -19q-32 0 -50 20t-18 49z" />
    <glyph glyph-name="uni01CA" unicode="&#x1ca;" horiz-adv-x="1103" 
d="M274 0h-257v36q66 5 82.5 24t17.5 88v385q0 33 -13 44q-21 18 -83 25v36h201l351 -467v314q0 73 -18.5 91.5t-98.5 26.5v35h257v-35q-63 -8 -80 -28t-17 -89v-380q0 -72 4 -107h-93q-45 65 -67 96l-300 414v-361q1 -68 21 -87t93 -25v-36zM768 602v36h312v-36
q-45 -4 -63 -17t-18 -45v-345q0 -114 -25 -179q-33 -82 -104 -142q-79 -66 -136 -66q-39 0 -66.5 17t-27.5 40t20.5 45t40.5 22q11 0 53 -39q21 -20 41 -20q21 0 37 16q17 19 23.5 50t6.5 104v497q0 36 -19.5 48t-74.5 14z" />
    <glyph glyph-name="uni01CB" unicode="&#x1cb;" horiz-adv-x="1001" 
d="M274 0h-257v36q66 5 82.5 24t17.5 88v385q0 33 -13 44q-21 18 -83 25v36h201l351 -467v315q0 72 -18.5 91t-98.5 26v35h257v-35q-63 -8 -80 -27.5t-17 -89.5v-380q0 -73 4 -106h-93q-10 14 -34 48.5t-33 46.5l-300 414v-361q1 -68 21 -87t93 -25v-36zM740 391v27
q80 3 185 42l7 -7q-3 -39 -3 -101v-280q0 -91 -17 -130q-19 -46 -59 -88t-65 -59t-48 -30l-21 28q47 40 66 78.5t19 95.5v370q0 19 -15 30q-26 16 -49 24zM793 598q0 28 18 48.5t51 20.5q29 0 47 -20t18 -49q0 -31 -18.5 -50t-47.5 -19q-32 0 -50 20t-18 49z" />
    <glyph glyph-name="uni01CC" unicode="&#x1cc;" horiz-adv-x="845" 
d="M265 0h-247v36q24 1 34 2.5t20.5 11t10.5 27.5v216q0 55 -1 59q-2 8 -15.5 19t-36.5 21v27q37 3 87.5 15t83.5 26l9 -5q-4 -30 -4 -59q70 64 141 64q56 0 92 -33q45 -43 47 -138v-214q0 -7 1 -12t2 -9t5.5 -6.5t6 -4t8.5 -3t9 -2t11.5 -1.5t12.5 -1v-36h-242v36
q36 2 47 8t12 28q2 22 2 49v184q0 50 -25 72q-18 17 -49 17q-40 0 -63 -20q-10 -9 -13 -18t-3 -38v-243q0 -24 12.5 -30.5t44.5 -8.5v-36zM584 391v27q71 3 185 42l7 -6q-3 -40 -3 -101v-281q0 -91 -17 -130q-19 -46 -59 -88t-65 -59t-48 -30l-21 28q47 40 66 78.5t19 95.5
v370q0 19 -15 30q-22 15 -49 24zM637 598q0 28 18 48.5t51 20.5q29 0 47 -20t18 -49q0 -31 -18.5 -50t-47.5 -19q-32 0 -50 20t-18 49z" />
    <glyph glyph-name="uni01CD" unicode="&#x1cd;" horiz-adv-x="677" 
d="M-17 0v36q55 5 76.5 18t38.5 56q50 123 181 467q13 32 14 61h97l18 -50q33 -92 184 -489q15 -36 32 -46.5t67 -16.5v-36h-310v36l17 1q16 1 26 3q20 4 26 13t0 29q-19 55 -52 137h-210q-10 -26 -25 -69.5t-18 -51.5q-9 -28 -2.5 -39.5t35.5 -16.5q28 -5 50 -6v-36h-245z
M201 260h183l-91 250q-8 -23 -42.5 -114t-49.5 -136zM170 810l17 30q71 -29 155 -62q60 26 156 62l14 -29q-68 -43 -159 -125h-27q-103 89 -156 124z" />
    <glyph glyph-name="uni01CE" unicode="&#x1ce;" horiz-adv-x="477" 
d="M460 68v-33q-49 -48 -113 -48q-49 0 -70 55q-80 -55 -130 -55q-40 0 -69.5 32.5t-29.5 83.5q0 59 69 93q21 10 159 68q1 32 1 74q0 25 -21.5 46t-51.5 21q-17 0 -49 -20q-18 -11 -18 -17q0 -4 6 -16q15 -30 15 -42q0 -16 -23 -33t-41 -17q-23 0 -38.5 21t-15.5 44
q0 21 41 50q48 32 102.5 58.5t72.5 26.5q77 0 121 -64q18 -27 18 -103q0 -35 -0.5 -122t-0.5 -103q0 -15 18 -15q23 0 48 15zM276 233q-57 -25 -66 -30q-24 -13 -33 -29.5t-9 -42.5q0 -42 19 -62q15 -18 34 -18q21 0 37 10q11 8 13.5 15t2.5 26q3 117 2 131zM97 694l26 21
l113 -92l115 92l23 -21q-75 -100 -123 -176h-29q-15 23 -125 176z" />
    <glyph glyph-name="uni01CF" unicode="&#x1cf;" horiz-adv-x="371" 
d="M342 0h-313v36q52 4 69.5 16t17.5 46v442q0 20 -5 32t-18.5 18t-25.5 8t-38 4v36h313v-36q-49 -3 -68 -15t-19 -47v-442q0 -37 18.5 -48t68.5 -14v-36zM15 808l17 30q71 -29 155 -62q60 26 156 62l14 -29q-68 -43 -159 -125h-27q-103 89 -156 124z" />
    <glyph glyph-name="uni01D0" unicode="&#x1d0;" horiz-adv-x="288" 
d="M265 0h-247v36q44 3 54.5 9.5t10.5 31.5v229q0 34 -2 43.5t-10 18.5q-14 14 -41 25v26q86 5 171 41l8 -5q-1 -17 -1 -139v-238q0 -26 9 -32.5t48 -10.5v-35zM-2 700l26 21l113 -92l115 92l23 -21q-75 -100 -123 -176h-29q-15 23 -125 176z" />
    <glyph glyph-name="uni01D1" unicode="&#x1d1;" horiz-adv-x="756" 
d="M381 -16q-129 0 -220 78q-50 44 -78.5 112t-28.5 145q0 172 121 268q83 67 201 67q152 0 238.5 -95.5t86.5 -237.5q0 -124 -69 -217q-42 -55 -106.5 -87.5t-144.5 -32.5zM393 22q54 0 88 38q67 71 67 246q0 163 -62 247q-45 63 -118 63q-53 0 -90 -34q-70 -67 -70 -246
q0 -157 58 -242q48 -72 127 -72zM206 828l16 30l155 -62q64 27 157 62l14 -29q-68 -43 -160 -124h-26q-98 85 -156 123z" />
    <glyph glyph-name="uni01D2" unicode="&#x1d2;" horiz-adv-x="550" 
d="M280 460q105 0 170 -70q61 -64 61 -161q0 -101 -67 -171q-65 -70 -169 -70q-111 0 -173 67q-63 68 -63 170q0 125 102 195q60 40 139 40zM285 25q39 0 60 37q28 49 28 154q0 96 -31 155q-29 53 -75 53q-90 0 -90 -172q0 -129 42 -189q26 -38 66 -38zM132 692l26 21
l113 -92l115 92l23 -21q-75 -100 -123 -176h-29q-15 23 -125 176z" />
    <glyph glyph-name="uni01D3" unicode="&#x1d3;" horiz-adv-x="712" 
d="M19 602v36h313v-36q-50 -3 -68.5 -15t-18.5 -47v-349q0 -29 4 -45q27 -104 151 -104q66 0 105.5 29.5t53.5 77.5q7 24 7 61v284q0 66 -19.5 83t-95.5 25v36h258v-36q-62 -5 -79.5 -25.5t-17.5 -82.5v-265q0 -47 -8 -82q-7 -29 -21.5 -55.5t-41 -52t-71.5 -40.5t-103 -15
q-197 0 -248 139q-13 34 -13 88v329q0 37 -19 48t-68 14zM213 818l16 30l155 -62q64 27 157 62l14 -29q-72 -45 -160 -125h-26q-103 89 -156 124z" />
    <glyph glyph-name="uni01D4" unicode="&#x1d4;" horiz-adv-x="553" 
d="M535 48v-35q-114 -12 -177 -25l-5 5q-2 8 -4 52q-71 -57 -135 -57q-59 0 -98 35.5t-39 108.5v238q0 19 -8.5 26t-48.5 17v35q150 0 186 7q0 -15 -1 -36.5t-1.5 -42t-0.5 -45.5v-211q0 -29 22 -48.5t53 -19.5q32 0 54 14q6 5 9 9.5t5 16.5t2 34v251q0 14 -13 21t-61 15
l6 35q129 0 195 6q-2 -48 -2 -128v-248q2 -19 16 -23q17 -5 46 -7zM132 692l26 21l113 -92l115 92l23 -21q-75 -100 -123 -176h-29q-15 23 -125 176z" />
    <glyph glyph-name="uni01D5" unicode="&#x1d5;" horiz-adv-x="712" 
d="M19 602v36h313v-36q-50 -3 -68.5 -15t-18.5 -47v-349q0 -29 4 -45q27 -104 151 -104q66 0 105.5 29.5t53.5 77.5q7 24 7 61v284q0 66 -19.5 83t-95.5 25v36h258v-36q-62 -5 -79.5 -25.5t-17.5 -82.5v-265q0 -47 -8 -82q-7 -29 -21.5 -55.5t-41 -52t-71.5 -40.5t-103 -15
q-197 0 -248 139q-13 34 -13 88v329q0 37 -19 48t-68 14zM245 895h273v-65h-273v65zM269 791q27 0 42.5 -16.5t15.5 -39.5q0 -27 -16.5 -40.5t-43.5 -13.5q-23 0 -40 14.5t-17 38.5t15 40.5t44 16.5zM495 791q27 0 43 -16.5t16 -39.5q0 -22 -16.5 -38t-43.5 -16t-43.5 15
t-16.5 38q0 28 17 42.5t44 14.5z" />
    <glyph glyph-name="uni01D6" unicode="&#x1d6;" horiz-adv-x="553" 
d="M535 48v-35q-114 -12 -177 -25l-5 5q-2 8 -4 52q-71 -57 -135 -57q-59 0 -98 35.5t-39 108.5v238q0 19 -8.5 26t-48.5 17v35q150 0 186 7q0 -15 -1 -36.5t-1.5 -42t-0.5 -45.5v-211q0 -29 22 -48.5t53 -19.5q32 0 54 14q6 5 9 9.5t5 16.5t2 34v251q0 14 -13 21t-61 15
l6 35q129 0 195 6q-2 -48 -2 -128v-248q2 -19 16 -23q17 -5 46 -7zM174 630q24 0 39.5 -17.5t15.5 -41.5q0 -28 -16.5 -43t-41.5 -15q-23 0 -39.5 15.5t-16.5 41.5q0 25 15.5 42.5t43.5 17.5zM362 629q26 0 41.5 -17t15.5 -41t-16.5 -41t-41.5 -17q-27 0 -44 16t-17 41
q0 29 18 44t44 15zM132 751h271v-65h-271v65z" />
    <glyph glyph-name="uni01D7" unicode="&#x1d7;" horiz-adv-x="712" 
d="M19 602v36h313v-36q-50 -3 -68.5 -15t-18.5 -47v-349q0 -29 4 -45q27 -104 151 -104q66 0 105.5 29.5t53.5 77.5q7 24 7 61v284q0 66 -19.5 83t-95.5 25v36h258v-36q-62 -5 -79.5 -25.5t-17.5 -82.5v-265q0 -47 -8 -82q-7 -29 -21.5 -55.5t-41 -52t-71.5 -40.5t-103 -15
q-197 0 -248 139q-13 34 -13 88v329q0 37 -19 48t-68 14zM269 794q27 0 42.5 -16.5t15.5 -39.5q0 -27 -16.5 -40.5t-43.5 -13.5q-23 0 -40 14.5t-17 38.5t15 40.5t44 16.5zM496 794q27 0 43 -16.5t16 -39.5q0 -22 -16.5 -38t-43.5 -16t-43.5 15t-16.5 38q0 28 17 42.5
t44 14.5zM377 791l-31 14l39 122q14 1 60.5 -3.5t59.5 -8.5l2 -12z" />
    <glyph glyph-name="uni01D8" unicode="&#x1d8;" horiz-adv-x="553" 
d="M535 48v-35q-114 -12 -177 -25l-5 5q-2 8 -4 52q-71 -57 -135 -57q-59 0 -98 35.5t-39 108.5v238q0 19 -8.5 26t-48.5 17v35q150 0 186 7q0 -15 -1 -36.5t-1.5 -42t-0.5 -45.5v-211q0 -29 22 -48.5t53 -19.5q32 0 54 14q6 5 9 9.5t5 16.5t2 34v251q0 14 -13 21t-61 15
l6 35q129 0 195 6q-2 -48 -2 -128v-248q2 -19 16 -23q17 -5 46 -7zM163 632q25 0 41 -18t16 -42q0 -29 -17 -44.5t-43 -15.5q-23 0 -40.5 15.5t-17.5 42.5q0 25 16 43.5t45 18.5zM370 631q26 0 42 -18t16 -41q0 -25 -16.5 -42.5t-42.5 -17.5q-28 0 -45 16.5t-17 42.5
q0 29 18 44.5t45 15.5zM263 645l-27 12l37 129q9 2 54.5 -2t59.5 -9v-13z" />
    <glyph glyph-name="uni01D9" unicode="&#x1d9;" horiz-adv-x="712" 
d="M19 602v36h313v-36q-50 -3 -68.5 -15t-18.5 -47v-349q0 -29 4 -45q27 -104 151 -104q66 0 105.5 29.5t53.5 77.5q7 24 7 61v284q0 66 -19.5 83t-95.5 25v36h258v-36q-62 -5 -79.5 -25.5t-17.5 -82.5v-265q0 -47 -8 -82q-7 -29 -21.5 -55.5t-41 -52t-71.5 -40.5t-103 -15
q-197 0 -248 139q-13 34 -13 88v329q0 37 -19 48t-68 14zM230 914l18 24l135 -66l133 65l17 -23l-136 -118h-30zM269 794q27 0 42.5 -16.5t15.5 -39.5q0 -27 -16.5 -40.5t-43.5 -13.5q-23 0 -40 14.5t-17 38.5t15 40.5t44 16.5zM495 794q27 0 43 -16.5t16 -39.5
q0 -22 -16.5 -38t-43.5 -16t-43.5 15t-16.5 38q0 28 17 42.5t44 14.5z" />
    <glyph glyph-name="uni01DA" unicode="&#x1da;" horiz-adv-x="553" 
d="M535 48v-35q-114 -12 -177 -25l-5 5q-2 8 -4 52q-71 -57 -135 -57q-59 0 -98 35.5t-39 108.5v238q0 19 -8.5 26t-48.5 17v35q150 0 186 7q0 -15 -1 -36.5t-1.5 -42t-0.5 -45.5v-211q0 -29 22 -48.5t53 -19.5q32 0 54 14q6 5 9 9.5t5 16.5t2 34v251q0 14 -13 21t-61 15
l6 35q129 0 195 6q-2 -48 -2 -128v-248q2 -19 16 -23q17 -5 46 -7zM119 773l23 22l120 -76l119 75l20 -21q-89 -95 -126 -141h-29q-38 50 -127 141zM161 627q25 0 41 -18t16 -42q0 -29 -17 -44.5t-43 -15.5q-23 0 -40.5 15.5t-17.5 42.5q0 25 16 43.5t45 18.5zM368 626
q26 0 42 -18t16 -41q0 -25 -16.5 -42.5t-42.5 -17.5q-28 0 -45 16.5t-17 42.5q0 29 18 44.5t45 15.5z" />
    <glyph glyph-name="uni01DB" unicode="&#x1db;" horiz-adv-x="712" 
d="M19 602v36h313v-36q-50 -3 -68.5 -15t-18.5 -47v-349q0 -29 4 -45q27 -104 151 -104q66 0 105.5 29.5t53.5 77.5q7 24 7 61v284q0 66 -19.5 83t-95.5 25v36h258v-36q-62 -5 -79.5 -25.5t-17.5 -82.5v-265q0 -47 -8 -82q-7 -29 -21.5 -55.5t-41 -52t-71.5 -40.5t-103 -15
q-197 0 -248 139q-13 34 -13 88v329q0 37 -19 48t-68 14zM267 795q27 0 42.5 -16.5t15.5 -39.5q0 -27 -16.5 -40.5t-43.5 -13.5q-23 0 -40 14.5t-17 38.5t15 40.5t44 16.5zM494 795q27 0 43 -16.5t16 -39.5q0 -22 -16.5 -38t-43.5 -16t-43.5 15t-16.5 38q0 28 17 42.5
t44 14.5zM408 806l-31 -14l-130 112l2 12q13 4 60 8.5t60 3.5z" />
    <glyph glyph-name="uni01DC" unicode="&#x1dc;" horiz-adv-x="553" 
d="M535 48v-35q-114 -12 -177 -25l-5 5q-2 8 -4 52q-71 -57 -135 -57q-59 0 -98 35.5t-39 108.5v238q0 19 -8.5 26t-48.5 17v35q150 0 186 7q0 -15 -1 -36.5t-1.5 -42t-0.5 -45.5v-211q0 -29 22 -48.5t53 -19.5q32 0 54 14q6 5 9 9.5t5 16.5t2 34v251q0 14 -13 21t-61 15
l6 35q129 0 195 6q-2 -48 -2 -128v-248q2 -19 16 -23q17 -5 46 -7zM161 630q25 0 41 -18t16 -42q0 -29 -17 -44.5t-43 -15.5q-23 0 -40.5 15.5t-17.5 42.5q0 25 16 43.5t45 18.5zM368 629q26 0 42 -18t16 -41q0 -25 -16.5 -42.5t-42.5 -17.5q-28 0 -45 16.5t-17 42.5
q0 29 18 44.5t45 15.5zM290 655l-28 -12l-124 117v13q15 5 60.5 9t54.5 2z" />
    <glyph glyph-name="Gcaron" unicode="&#x1e6;" horiz-adv-x="730" 
d="M684 306v-37q-1 0 -12 -1t-19 -2q-20 -4 -27 -14t-7 -29v-138q0 -16 6.5 -21.5t25.5 -10.5v-25q-5 -1 -34.5 -9.5t-47 -12t-47 -10t-59.5 -9t-60 -2.5q-169 0 -264 97q-85 88 -85 244q0 80 33.5 149t96.5 115q85 64 220 64q74 0 155 -27q32 15 38 20h26q0 -75 22 -207
l-30 -7q-37 103 -100 148q-45 35 -112 35q-96 0 -145.5 -78.5t-49.5 -208.5q0 -143 56 -229q53 -79 143 -79q34 0 49 8q23 11 23 47v140q0 23 -8 33.5t-30 14.5q-26 4 -57 6v36h300zM223 826l17 30q71 -29 155 -62q60 26 156 62l14 -29q-72 -46 -159 -124h-27
q-98 85 -156 123z" />
    <glyph glyph-name="gcaron" unicode="&#x1e7;" horiz-adv-x="493" 
d="M252 -182q70 0 115 26t45 66q0 56 -96 56q-122 0 -152 -3q-3 0 -7 -0.5t-6 -0.5t-5 -0.5t-4 -1t-3.5 -1t-3.5 -1l-3 -1.5t-4 -2.5t-4 -3.5q-24 -20 -24 -51q0 -34 46 -61q38 -21 106 -21zM224 426q-25 0 -41 -26q-19 -33 -19 -90q0 -62 18 -95q18 -34 55 -34q27 0 40 22
q22 35 22 101q-1 122 -75 122zM231 460q61 0 114 -25q68 43 114 43q27 0 42 -12t15 -28q0 -25 -15.5 -41.5t-31.5 -16.5q-13 0 -31 19q-28 30 -38 30t-28 -14q43 -49 43 -110t-38 -102q-51 -55 -153 -55q-46 0 -76 10q-25 -23 -25 -47q0 -17 16.5 -24t34.5 -7q4 0 60.5 1
t87.5 0q96 -3 131 -43q30 -32 30 -76q0 -79 -82 -137q-83 -61 -206 -61q-79 0 -123 27q-51 28 -51 73q0 49 85 104q-66 26 -66 78q0 28 23.5 62t60.5 60q-81 41 -81 132q0 73 53 117q51 43 135 43zM91 693l26 21l113 -92l115 92l23 -21q-75 -100 -123 -176h-29
q-15 23 -125 176z" />
    <glyph glyph-name="uni01F1" unicode="&#x1f1;" horiz-adv-x="1378" 
d="M254 555v-432q1 -34 3 -45t10 -18q30 -24 76 -24q81 0 133 73q58 81 58 216q0 159 -83 232q-53 45 -124 45q-49 0 -64 -14q-9 -6 -9 -33zM29 0v36q49 4 68 15t19 47v442q0 36 -18.5 47.5t-68.5 14.5v36h307q118 0 191 -36q76 -35 116 -106.5t40 -156.5q0 -155 -106 -251
q-97 -88 -243 -88h-305zM1135 0h-356v24q46 63 187 287.5t176 287.5h-168q-43 0 -67 -15q-42 -29 -101 -140l-32 11q32 94 48 191q38 -8 143 -8h242q60 0 100 2v-23q-194 -308 -360 -578h169q52 0 86 21q52 34 109 137l31 -13q-32 -76 -64 -188q-11 0 -35.5 1.5t-51 2
t-56.5 0.5z" />
    <glyph glyph-name="uni01F2" unicode="&#x1f2;" horiz-adv-x="1184" 
d="M254 555v-432q1 -34 3 -45t10 -18q30 -24 76 -24q81 0 133 73q58 81 58 216q0 159 -83 232q-53 45 -124 45q-49 0 -64 -14q-9 -6 -9 -33zM29 0v36q49 4 68 15t19 47v442q0 36 -18.5 47.5t-68.5 14.5v36h307q118 0 191 -36q76 -35 116 -106.5t40 -156.5q0 -155 -106 -251
q-97 -88 -243 -88h-305zM1149 164l29 -12q-44 -106 -58 -155q-60 3 -121 3h-220v22q51 83 217 390h-75q-33 0 -52.5 -12.5t-38.5 -39.5q-23 -31 -44 -71l-30 11q36 97 44 160q54 -12 106 -12h233v-20q-28 -49 -209 -393h67q43 0 75 28q38 32 77 101z" />
    <glyph glyph-name="uni01F3" unicode="&#x1f3;" horiz-adv-x="1009" 
d="M359 115v208q0 46 -18 68q-27 34 -70 34q-36 0 -56 -23q-38 -41 -38 -162q0 -104 35 -155q30 -44 75 -44q30 0 51 14q21 17 21 60zM545 42v-34q-120 -7 -174 -18l-7 5q-3 18 -3 41q-78 -48 -143 -48q-67 0 -116 52q-63 67 -63 174q0 128 98 199q64 47 155 47q37 0 67 -7
q0 142 -3 151q-10 25 -74 43v29q151 6 202 27l5 -4q-6 -46 -6 -110v-489q0 -34 9 -41q16 -14 53 -17zM973 164l29 -12q-44 -106 -58 -155q-60 3 -121 3h-220v22q51 83 217 390h-75q-33 0 -51.5 -12.5t-38.5 -39.5q-27 -35 -45 -71l-30 11q36 97 44 160q54 -12 107 -12h232
v-20q-28 -49 -209 -393h67q43 0 75 28q38 32 77 101z" />
    <glyph glyph-name="Aringacute" unicode="&#x1fa;" horiz-adv-x="677" 
d="M341 784q48 0 72 -18.5t24 -47.5q0 -28 -24.5 -46t-71.5 -18q-48 0 -72.5 17.5t-24.5 46.5q0 28 24.5 47t72.5 19zM339 753q-47 0 -47 -35q0 -34 49 -34q47 0 47 36q0 33 -49 33zM310 820l91 108q14 -1 42.5 -17t37.5 -27v-12l-154 -74zM-17 0v36q55 5 76.5 18t38.5 56
q50 123 181 467q13 32 14 61h97l18 -50q33 -92 184 -489q15 -36 32 -46.5t67 -16.5v-36h-310v36l17 1q16 1 26 3q20 4 26 13t0 29q-19 55 -52 137h-210q-10 -26 -25 -69.5t-18 -51.5q-9 -28 -2.5 -39.5t35.5 -16.5q28 -5 50 -6v-36h-245zM201 260h183l-91 250
q-8 -23 -42.5 -114t-49.5 -136z" />
    <glyph glyph-name="aringacute" unicode="&#x1fb;" horiz-adv-x="477" 
d="M232 617q47 0 70 -18.5t23 -47.5q0 -27 -24 -45.5t-69 -18.5q-44 0 -68 18.5t-24 45.5q0 28 23.5 47t68.5 19zM231 586q-47 0 -47 -35q0 -33 49 -33q47 0 47 35q0 33 -49 33zM202 657l97 110q13 -1 40 -14t39 -23v-12l-158 -80zM460 68v-33q-49 -48 -113 -48
q-49 0 -70 55q-80 -55 -130 -55q-40 0 -69.5 32.5t-29.5 83.5q0 59 69 93q21 10 159 68q1 32 1 74q0 25 -21.5 46t-51.5 21q-17 0 -49 -20q-18 -11 -18 -17q0 -4 6 -16q15 -30 15 -42q0 -16 -23 -33t-41 -17q-23 0 -38.5 21t-15.5 44q0 21 41 50q48 32 102.5 58.5t72.5 26.5
q77 0 121 -64q18 -27 18 -103q0 -35 -0.5 -122t-0.5 -103q0 -15 18 -15q23 0 48 15zM276 233q-57 -25 -66 -30q-24 -13 -33 -29.5t-9 -42.5q0 -42 19 -62q15 -18 34 -18q21 0 37 10q11 8 13.5 15t2.5 26q3 117 2 131z" />
    <glyph glyph-name="AEacute" unicode="&#x1fc;" horiz-adv-x="969" 
d="M285 336h157v257q-110 -178 -157 -257zM242 0h-269v36q29 3 31 3q30 6 50.5 19.5t43.5 49.5q128 202 278 448q12 16 8.5 25.5t-27.5 12.5t-80 9v35h442q94 0 150 6q2 -84 21 -181l-32 -9q-42 100 -90 130q-25 15 -63 15h-98q-17 0 -22 -6.5t-5 -25.5v-231h73q44 1 58 24
t24 88h32q0 -7 -2 -54.5t-1 -74.5q0 -16 1 -45.5t1.5 -53t0.5 -37.5h-32q-16 73 -25 87q-15 24 -57 24h-73v-180q0 -46 15 -60.5t69 -14.5h48q55 0 87 20q50 31 110 148l31 -10q-32 -95 -53 -200q-27 3 -158 3h-384v36q30 2 54 6q43 6 43 56v196h-180q-51 -83 -106 -181
q-18 -35 -13.5 -49.5t30.5 -19.5q30 -6 69 -8v-36zM502 682l-18 24l135 136q13 1 49.5 -14.5t51.5 -26.5v-18z" />
    <glyph glyph-name="aeacute" unicode="&#x1fd;" horiz-adv-x="705" 
d="M278 235q-40 -13 -71 -35q-22 -13 -30.5 -27t-8.5 -39q0 -38 18 -59q16 -17 36 -17q33 0 80 41q-24 60 -24 136zM651 114l18 -21q-74 -105 -196 -105q-104 0 -158 85q-107 -86 -163 -86q-41 0 -72.5 32.5t-31.5 84.5q0 31 14.5 51t46.5 37q80 43 169 74q0 12 0.5 41
t0.5 33q-1 24 -22 45t-51 21q-24 0 -52 -19q-17 -10 -17 -16t6 -18q14 -28 15 -42q0 -17 -23 -34t-41 -17q-22 0 -38 21.5t-16 43.5t41 50q126 85 169 85q76 0 115 -49q53 49 126 49q48 0 84.5 -17t56 -44t28.5 -55t9 -56q0 -34 -10 -35q-23 -3 -270 -3v-5q0 -112 46 -157
q38 -39 90 -39q68 0 126 65zM390 283q87 0 127 3q33 3 33 40q0 44 -19.5 72t-54.5 28q-36 0 -59 -39t-27 -104zM352 506l-29 14l97 180q9 2 50.5 -8.5t58.5 -18.5v-15z" />
    <glyph glyph-name="Oslashacute" unicode="&#x1fe;" horiz-adv-x="756" 
d="M564 804l-218 -100l-18 23l135 136q13 1 49.5 -14.5t51.5 -26.5v-18zM626 664l-48 -72q60 -45 91.5 -116t31.5 -155q0 -123 -69 -216q-92 -120 -250 -120q-98 0 -176 45l-51 -78l-30 21l51 77q-2 2 -6.5 6t-7.5 6q-50 43 -79 111.5t-29 145.5q0 172 120 268q83 67 202 67
q98 0 173 -43l48 73zM236 141l266 399q-2 2 -4.5 6t-3.5 6q-47 64 -126 64q-57 0 -93 -35q-73 -71 -73 -245q0 -114 34 -195zM521 505l-266 -401l6 -9q48 -72 131 -72q56 0 91 38q71 76 71 245q0 120 -33 199z" />
    <glyph glyph-name="oslashacute" unicode="&#x1ff;" horiz-adv-x="550" 
d="M428 658l-177 -152l-29 14l97 180q9 2 50.5 -8.5t58.5 -18.5v-15zM461 467l-38 -54q88 -66 88 -190q0 -97 -65 -168t-176 -71q-69 0 -123 34l-44 -63l-26 21l43 61q-81 68 -81 184q0 106 70.5 172.5t169.5 66.5q65 0 116 -28l39 55zM182 126l171 245q-25 57 -81 57
q-45 0 -72 -52t-27 -147q0 -61 9 -103zM366 332l-173 -248q27 -67 89 -67q95 0 95 199q0 71 -11 116z" />
    <glyph glyph-name="uni0218" unicode="&#x218;" horiz-adv-x="545" 
d="M46 207l34 7q39 -114 108 -165q38 -26 81 -26q47 0 74.5 27.5t27.5 67.5q0 45 -24.5 73.5t-92.5 60.5q-111 53 -149 103t-38 118q0 72 54.5 126.5t159.5 54.5q59 0 126 -26q5 1 17.5 10t14.5 10h23q-2 -31 21 -207l-31 -8q-41 121 -106 163q-30 20 -69 20
q-43 0 -68.5 -25.5t-25.5 -69.5q0 -47 25.5 -75t98.5 -60q111 -49 150 -96.5t39 -116.5q0 -86 -65.5 -137.5t-164.5 -51.5q-47 0 -123 22q-17 4 -65 -6q-9 96 -32 207zM214 -277l-8 33q74 27 74 60q0 14 -10 21.5t-36 11.5q-42 7 -42 40q0 19 16 33t45 14q36 0 62 -25
t26 -66q0 -50 -39.5 -82t-87.5 -40z" />
    <glyph glyph-name="uni0219" unicode="&#x219;" horiz-adv-x="401" 
d="M355 305l-35 -7q-22 69 -63 103q-26 23 -61 23q-24 0 -41 -15.5t-17 -40.5q0 -23 18 -41t66 -41q78 -38 109.5 -71.5t31.5 -86.5q0 -68 -48.5 -104t-119.5 -36q-46 0 -93 14q-20 6 -46 1q-1 19 -6.5 49.5t-11.5 61.5t-8 41l34 8q20 -69 69 -112q30 -27 67 -27q58 0 58 54
q0 26 -17.5 44t-71.5 44q-69 34 -99 67.5t-30 88.5q0 59 43.5 98.5t120.5 39.5q47 0 86 -17q10 2 22 12h23q0 -39 20 -150zM149 -274l-9 33q74 27 74 60q0 14 -9.5 21.5t-35.5 11.5q-42 7 -42 40q0 19 16 33t45 14q36 0 62 -25t26 -66q0 -50 -39.5 -82t-87.5 -40z" />
    <glyph glyph-name="uni021A" unicode="&#x21a;" horiz-adv-x="690" 
d="M508 0h-332v36q61 5 79 14.5t18 44.5v504h-66q-32 0 -54 -15q-47 -32 -85 -131l-32 8q21 137 20 187q54 -10 145 -10h284q90 0 146 10q-1 -39 19 -187l-32 -8q-38 98 -84 131q-22 15 -55 15h-68v-501q0 -37 20 -48t77 -14v-36zM282 -264l-8 33q74 27 74 60q0 14 -10 21.5
t-36 11.5q-42 7 -42 40q0 19 16 33t45 14q36 0 62 -25t26 -66q0 -50 -39.5 -82t-87.5 -40z" />
    <glyph glyph-name="uni021B" unicode="&#x21b;" horiz-adv-x="345" 
d="M328 76v-32q-50 -54 -126 -54q-125 0 -125 130v273h-59v29q76 39 160 139h37q-12 -74 -12 -113h120q2 -37 -7 -55h-114v-283q0 -23 13.5 -40t42.5 -17q36 0 70 23zM129 -275l-9 33q74 27 74 60q0 14 -9.5 21.5t-35.5 11.5q-42 7 -42 40q0 19 16 33t45 14q36 0 62 -25
t26 -66q0 -50 -39.5 -82t-87.5 -40z" />
    <glyph glyph-name="uni021C" unicode="&#x21c;" horiz-adv-x="585" 
d="M161 264v32q97 76 238 241h-229q-45 0 -100 -90l-28 11q51 137 57 188q29 -8 138 -8h274v-30q-67 -86 -232 -256q50 0 93.5 -10.5t81 -32.5t59 -61t21.5 -91q0 -112 -84.5 -178.5t-206.5 -66.5q-95 0 -151.5 35t-56.5 72q0 25 19.5 45t48.5 20q38 0 58 -83q7 -30 25 -40
q20 -12 58 -12q68 0 106.5 50t38.5 128q0 159 -135 159q-46 0 -93 -22z" />
    <glyph glyph-name="uni021D" unicode="&#x21d;" horiz-adv-x="452" 
d="M104 86v32q46 40 107 109t101 123h-160q-45 0 -91 -79l-26 10q50 141 54 173q23 -6 99 -6h226v-24q-36 -55 -191 -237q87 -7 144.5 -56t57.5 -135q0 -101 -70 -167t-167 -66q-69 0 -117 28.5t-48 62.5q0 22 19.5 40t43.5 18q25 0 51 -73q9 -25 20 -32q11 -8 32 -8
q48 0 78 42.5t30 121.5q0 65 -33 102.5t-84 37.5q-42 0 -76 -17z" />
    <glyph glyph-name="uni0232" unicode="&#x232;" horiz-adv-x="607" 
d="M462 0h-313v36q55 4 71 14t16 48v141q0 31 -15 61q-76 153 -126 235q-23 39 -43 50t-65 17v36h306v-35q-33 -5 -45 -7q-30 -5 -16 -30q77 -153 122 -240q75 135 116 230q15 32 -15 38q-34 6 -63 8v36h234v-36q-47 -5 -71 -18t-44 -49q-51 -88 -127 -237q-9 -17 -9 -54
v-146q0 -39 15.5 -48.5t71.5 -13.5v-36zM180 783h285v-66h-285v66z" />
    <glyph glyph-name="uni0233" unicode="&#x233;" horiz-adv-x="484" 
d="M-5 412v36h258v-36q-19 -1 -45 -5q-21 -6 -12 -29q17 -49 95 -240q59 165 79 228q10 33 -13 39q-12 3 -52 7v36h187v-36q-35 -3 -48.5 -11.5t-25.5 -37.5q-31 -76 -122 -319q-8 -22 -17 -46t-19 -50.5t-15 -39.5q-32 -84 -61 -114t-64 -30q-25 0 -44 17.5t-19 43.5
q0 30 18.5 51t37.5 21q11 0 38 -21q15 -11 24 -11t23 28q16 34 31 89q-5 19 -71 177t-93 216q-10 22 -21.5 27.5t-48.5 9.5zM125 625h265v-66h-265v66z" />
    <glyph glyph-name="uni0237" unicode="&#x237;" horiz-adv-x="280" 
d="M19 391v27q71 3 185 42l7 -7q-3 -39 -3 -101v-280q0 -91 -17 -130q-19 -46 -59 -88t-65 -59t-48 -30l-21 28q47 40 66 78.5t19 95.5v370q0 19 -15 30q-30 18 -49 24z" />
    <glyph glyph-name="uni0251" unicode="&#x251;" horiz-adv-x="560" 
d="M352 191v122q0 73 -33 96q-22 16 -48 16q-43 0 -71 -45t-28 -148q0 -95 25 -139t64 -44q42 0 66.5 38.5t24.5 103.5zM553 60v-28q-32 -48 -104 -48q-15 0 -29 3.5t-30 12.5t-25.5 29.5t-9.5 49.5q-28 -53 -64.5 -74t-86.5 -21q-66 0 -115.5 59t-49.5 164
q0 112 69.5 182.5t171.5 70.5q35 0 68.5 -9t48.5 -19l66 29h22q-6 -68 -6 -107v-267q0 -41 29 -41q21 0 45 14z" />
    <glyph glyph-name="uni0259" unicode="&#x259;" horiz-adv-x="481" 
d="M45 223h282q-1 83 -37.5 125t-98.5 42q-72 0 -134 -61l-18 23q83 108 203 108q89 0 144.5 -65.5t55.5 -161.5q0 -113 -60.5 -181t-151.5 -68q-95 0 -145 59.5t-50 142.5q0 37 10 37zM327 187h-148q-14 0 -19 -6.5t-5 -23.5q0 -63 22 -99.5t62 -36.5t63.5 42t24.5 124z
" />
    <glyph glyph-name="uni0261" unicode="&#x261;" horiz-adv-x="549" 
d="M352 174v136q0 39 -8 63t-15.5 31t-21.5 14q-15 7 -36 7q-42 0 -71 -45.5t-29 -135.5q0 -195 91 -195q39 0 64.5 29.5t25.5 95.5zM461 460h25q-8 -70 -8 -106v-296q0 -145 -70.5 -220t-175.5 -75q-80 0 -132 29t-52 62q0 27 22.5 48t46.5 21q29 0 51 -61q16 -46 28 -53
q12 -9 45 -9q62 0 87.5 55.5t25.5 165.5v46q-48 -85 -139 -83q-74 2 -125 58t-51 159q0 120 70 189.5t174 69.5q31 0 67 -9t49 -19q6 3 28.5 12.5t33.5 15.5z" />
    <glyph glyph-name="uni0275" unicode="&#x275;" horiz-adv-x="549" 
d="M375 213h-198q3 -87 30 -139.5t78 -52.5q44 0 67 51t23 141zM274 460q105 0 171 -65t66 -172q0 -91 -62.5 -165t-169.5 -74q-108 0 -174 65t-66 172q0 103 68.5 171t166.5 68zM176 250h198q-2 83 -29 129t-76 46q-94 0 -93 -175z" />
    <glyph glyph-name="uni02BB" unicode="&#x2bb;" horiz-adv-x="330" 
d="M240 702l13 -25q-94 -53 -94 -104q0 -20 16 -32.5t53 -19.5q13 -3 13 -26q0 -24 -18 -41.5t-47 -17.5q-34 0 -61 26t-27 70q0 33 16.5 63t43.5 51t48.5 34t43.5 22z" />
    <glyph glyph-name="uni02BC" unicode="&#x2bc;" horiz-adv-x="320" 
d="M85 436l-15 27q96 54 96 102q0 21 -17 33.5t-57 19.5q-8 1 -8 25t17.5 41.5t47.5 17.5q34 0 61 -26t27 -70q0 -33 -16 -63.5t-41.5 -51.5t-49 -34.5t-45.5 -20.5z" />
    <glyph glyph-name="uni02BE" unicode="&#x2be;" 
d="M241 539v-45q-46 0 -74 27t-29 70q0 41 28.5 70.5t73.5 29.5v-47q-23 -2 -38 -16t-15 -37q0 -48 54 -52z" />
    <glyph glyph-name="uni02BF" unicode="&#x2bf;" 
d="M161 645v46q45 0 73 -27.5t28 -70.5q0 -41 -27.5 -70t-72.5 -29v47q22 2 37 15.5t15 36.5q0 48 -53 52z" />
    <glyph glyph-name="circumflex" unicode="&#x2c6;" 
d="M337 528l-25 -21l-113 92l-116 -92l-23 21q75 97 123 176h30q22 -34 124 -176z" />
    <glyph glyph-name="caron" unicode="&#x2c7;" 
d="M60 692l26 21l113 -92l115 92l23 -21q-75 -100 -123 -176h-29q-15 23 -125 176z" />
    <glyph glyph-name="uni02C8" unicode="&#x2c8;" 
d="M162 711h67v-202h-67v202z" />
    <glyph glyph-name="uni02C9" unicode="&#x2c9;" 
d="M66 625h265v-66h-265v66z" />
    <glyph glyph-name="uni02CA" unicode="&#x2ca;" 
d="M190 506l-29 14l97 180q9 2 50.5 -8.5t58.5 -18.5v-15z" />
    <glyph glyph-name="uni02CB" unicode="&#x2cb;" 
d="M256 521l-28 -15l-167 150l2 14q22 11 62 21t50 8z" />
    <glyph glyph-name="uni02CC" unicode="&#x2cc;" 
d="M162 -69h67v-202h-67v202z" />
    <glyph glyph-name="breve" unicode="&#x2d8;" 
d="M324 677l30 -5q-13 -61 -54 -101.5t-107 -40.5t-104.5 39t-46.5 103l32 5q29 -66 123 -66q48 0 77.5 15.5t49.5 50.5z" />
    <glyph glyph-name="dotaccent" unicode="&#x2d9;" 
d="M132 598q0 28 18 48.5t51 20.5q29 0 47 -20t18 -49q0 -31 -18.5 -50t-47.5 -19q-32 0 -50 20t-18 49z" />
    <glyph glyph-name="ring" unicode="&#x2da;" 
d="M199 687q40 0 64.5 -25.5t24.5 -61.5q0 -37 -24.5 -61t-64.5 -24q-39 0 -64 24t-25 61q0 35 25 61t64 26zM198 655q-19 0 -32 -15t-13 -40q0 -26 13.5 -40.5t33.5 -14.5q46 0 46 57q0 24 -13.5 38.5t-34.5 14.5z" />
    <glyph glyph-name="ogonek" unicode="&#x2db;" 
d="M240 9h24q-38 -34 -55 -68.5t-17 -57.5q0 -26 14.5 -40t35.5 -14q31 0 62 20l9 -27q-42 -56 -122 -56q-44 0 -69.5 24.5t-25.5 60.5q0 76 144 158z" />
    <glyph glyph-name="tilde" unicode="&#x2dc;" 
d="M342 663l25 -9q-8 -48 -33.5 -81.5t-69.5 -33.5q-26 0 -84 26q-5 2 -16.5 7.5t-16.5 7t-13.5 3.5t-17.5 2q-23 0 -35.5 -11t-21.5 -36l-26 9q6 48 33 79.5t71 31.5q36 0 80 -23q46 -20 63 -20q22 0 35.5 9t26.5 39z" />
    <glyph glyph-name="hungarumlaut" unicode="&#x2dd;" 
d="M96 517l-26 18l76 155q8 2 49 -5.5t56 -13.5l1 -12zM278 517l-24 18l75 155q8 2 50 -5t56 -14v-12z" />
    <glyph glyph-name="gravecomb" unicode="&#x300;" horiz-adv-x="0" 
d="M58 521l-28 -15l-167 150l2 14q22 11 62 21t50 8z" />
    <glyph glyph-name="acutecomb" unicode="&#x301;" horiz-adv-x="0" 
d="M-8 506l-29 14l97 180q9 2 50.5 -8.5t58.5 -18.5v-15z" />
    <glyph glyph-name="uni0302" unicode="&#x302;" horiz-adv-x="0" 
d="M139 528l-25 -21l-113 92l-116 -92l-23 21q75 97 123 176h30q22 -34 124 -176z" />
    <glyph glyph-name="tildecomb" unicode="&#x303;" horiz-adv-x="0" 
d="M144 663l25 -9q-8 -48 -33.5 -81.5t-69.5 -33.5q-26 0 -84 26q-5 2 -16.5 7.5t-16.5 7t-13.5 3.5t-17.5 2q-23 0 -35.5 -11t-21.5 -36l-26 9q6 48 33 79.5t71 31.5q36 0 80 -23q46 -20 63 -20q22 0 35.5 9t26.5 39z" />
    <glyph glyph-name="uni0304" unicode="&#x304;" horiz-adv-x="0" 
d="M-132 625h265v-66h-265v66z" />
    <glyph glyph-name="uni0306" unicode="&#x306;" horiz-adv-x="0" 
d="M126 677l30 -5q-13 -61 -54 -101.5t-107 -40.5t-104.5 39t-46.5 103l32 5q29 -66 123 -66q48 0 77.5 15.5t49.5 50.5z" />
    <glyph glyph-name="uni0307" unicode="&#x307;" horiz-adv-x="0" 
d="M-66 598q0 28 18 48.5t51 20.5q29 0 47 -20t18 -49q0 -31 -18.5 -50t-47.5 -19q-32 0 -50 20t-18 49z" />
    <glyph glyph-name="uni0308" unicode="&#x308;" horiz-adv-x="0" 
d="M-96 664q23 0 39.5 -19t16.5 -43q0 -30 -17 -45t-41 -15q-23 0 -39.5 17t-16.5 44q0 25 16 43t42 18zM97 663q25 0 42 -18.5t17 -42.5t-17 -42t-43 -18q-24 0 -42 17t-18 42q0 29 18.5 45.5t42.5 16.5z" />
    <glyph glyph-name="hookabovecomb" unicode="&#x309;" horiz-adv-x="0" 
d="M-24 494l-18 27q63 42 63 82q0 45 -46 45q-38 0 -65 -27l-18 23q43 67 118 67q40 0 66 -24t26 -62q0 -35 -31.5 -71.5t-94.5 -59.5z" />
    <glyph glyph-name="uni030A" unicode="&#x30a;" horiz-adv-x="0" 
d="M1 687q40 0 64.5 -25.5t24.5 -61.5q0 -37 -24.5 -61t-64.5 -24q-39 0 -64 24t-25 61q0 35 25 61t64 26zM0 655q-19 0 -32 -15t-13 -40q0 -26 13.5 -40.5t33.5 -14.5q46 0 46 57q0 24 -13.5 38.5t-34.5 14.5z" />
    <glyph glyph-name="uni030B" unicode="&#x30b;" horiz-adv-x="0" 
d="M-102 517l-26 18l76 155q8 2 49 -5.5t56 -13.5l1 -12zM80 517l-24 18l75 155q8 2 50 -5t56 -14v-12z" />
    <glyph glyph-name="uni030C" unicode="&#x30c;" horiz-adv-x="0" 
d="M-138 692l26 21l113 -92l115 92l23 -21q-75 -100 -123 -176h-29q-15 23 -125 176z" />
    <glyph glyph-name="uni031B" unicode="&#x31b;" horiz-adv-x="0" 
d="M9 411l-18 24q49 14 49 39q0 14 -26 48q-13 16 -13 24q0 17 29 37.5t51 20.5q16 0 25.5 -17.5t9.5 -44.5q0 -45 -29 -81.5t-78 -49.5z" />
    <glyph glyph-name="dotbelowcomb" unicode="&#x323;" horiz-adv-x="0" 
d="M-1 -232q-29 0 -52.5 20.5t-23.5 56.5q0 34 22 57.5t56 23.5q32 0 53.5 -23.5t21.5 -56.5q0 -38 -23.5 -58t-53.5 -20z" />
    <glyph glyph-name="uni0324" unicode="&#x324;" horiz-adv-x="0" 
d="M-97 -76q23 0 39.5 -19t16.5 -43q0 -30 -17 -45t-41 -15q-23 0 -39.5 17t-16.5 44q0 25 16 43t42 18zM96 -77q25 0 42 -18.5t17 -42.5t-17 -42t-43 -18q-24 0 -42 17t-18 42q0 29 18.5 45.5t42.5 16.5z" />
    <glyph glyph-name="uni0326" unicode="&#x326;" horiz-adv-x="0" 
d="M-44 -264l-9 33q74 27 74 60q0 14 -9.5 21.5t-35.5 11.5q-42 7 -42 40q0 19 16 33t45 14q36 0 62 -25t26 -66q0 -50 -39.5 -82t-87.5 -40z" />
    <glyph glyph-name="uni0327" unicode="&#x327;" horiz-adv-x="0" 
d="M-2 9h36l-39 -46q48 -14 73.5 -38t25.5 -64t-34.5 -68t-77.5 -28q-35 0 -60.5 15t-25.5 32q0 14 11.5 27t25.5 14q15 0 32 -28q17 -26 36 -26q13 0 21 9.5t8 24.5q0 26 -29 43t-86 19v19z" />
    <glyph glyph-name="uni0328" unicode="&#x328;" horiz-adv-x="0" 
d="M42 9h24q-38 -34 -55 -68.5t-17 -57.5q0 -26 14.5 -40t35.5 -14q31 0 62 20l9 -27q-42 -56 -122 -56q-44 0 -69.5 24.5t-25.5 60.5q0 76 144 158z" />
    <glyph glyph-name="uni032E" unicode="&#x32e;" horiz-adv-x="0" 
d="M126 -60l30 -5q-14 -62 -54.5 -102t-106.5 -40t-104.5 39t-46.5 103l32 5q28 -66 123 -66q48 0 77.5 15.5t49.5 50.5z" />
    <glyph glyph-name="uni0331" unicode="&#x331;" horiz-adv-x="0" 
d="M-133 -93h266v-66h-266v66z" />
    <glyph glyph-name="uni0374" unicode="&#x374;" horiz-adv-x="210" 
d="M94 395h-34q0 123 -5 253q10 7 66 7q39 0 55 -6q-7 -24 -38 -122t-44 -132z" />
    <glyph glyph-name="uni0375" unicode="&#x375;" horiz-adv-x="210" 
d="M124 184h31q0 -98 6 -254q-13 -7 -66 -7q-43 0 -56 6q44 142 85 255z" />
    <glyph glyph-name="uni037A" unicode="&#x37a;" horiz-adv-x="396" 
d="M302 -127l30 -16q-31 -76 -110 -76q-42 0 -67 26t-25 73q0 34 4 57l118 6q-5 -37 -5 -63q0 -37 23 -37q17 0 32 30z" />
    <glyph glyph-name="uni037E" unicode="&#x37e;" horiz-adv-x="330" 
d="M164 282q-28 0 -51.5 19.5t-23.5 56.5q0 34 21.5 56.5t55.5 22.5q33 0 54 -22.5t21 -55.5q0 -39 -23.5 -58t-53.5 -19zM81 -149l-16 30q109 58 109 117q0 37 -75 51q-5 1 -10.5 10.5t-5.5 26.5q0 27 19.5 46.5t54.5 19.5t63 -27.5t28 -77.5q0 -39 -17 -73.5t-46 -58.5
t-53 -38.5t-51 -25.5z" />
    <glyph glyph-name="tonos" unicode="&#x384;" 
d="M193 506l-29 14l97 180q9 2 50.5 -8.5t58.5 -18.5v-15z" />
    <glyph glyph-name="dieresistonos" unicode="&#x385;" 
d="M62 648q21 0 35 -16t14 -37q0 -27 -15.5 -41.5t-35.5 -14.5q-18 0 -34 14.5t-16 38.5t14 40t38 16zM343 647q20 0 35 -16t15 -36q0 -24 -15 -40t-36 -16q-20 0 -35.5 15t-15.5 38q0 25 15.5 40t36.5 15zM181 503l-32 7l23 198q9 2 51.5 1.5t52.5 -3.5l2 -12z" />
    <glyph glyph-name="Alphatonos" unicode="&#x386;" horiz-adv-x="715" 
d="M20 0v36q56 5 77 18t39 56q22 56 91.5 236.5t89.5 230.5q11 33 14 61h97q4 -13 17 -50q93 -252 185 -489q14 -36 31.5 -46.5t67.5 -16.5v-36h-311v36q1 0 17 1t27 3q20 4 26 13t0 29q-37 100 -52 137h-211q-12 -31 -42 -121q-9 -28 -3 -39.5t35 -16.5q30 -5 50 -6v-36
h-245zM239 260h183l-91 250q-6 -18 -25 -67t-37 -98t-30 -85zM54 392l-33 5l30 254q18 2 62 -2.5t59 -8.5v-12z" />
    <glyph glyph-name="anoteleia" unicode="&#x387;" horiz-adv-x="283" 
d="M140 277q-29 0 -52 20.5t-23 56.5q0 34 22 57.5t56 23.5q32 0 53.5 -23.5t21.5 -56.5q0 -38 -24 -58t-54 -20z" />
    <glyph glyph-name="Epsilontonos" unicode="&#x388;" horiz-adv-x="853" 
d="M614 0h-384v36q60 4 78.5 15t18.5 47v442q0 37 -19 48t-68 14v36h364q94 0 150 6q2 -84 21 -181l-32 -9q-42 100 -90 130q-25 15 -63 15h-98q-17 0 -22 -6.5t-5 -25.5v-217h71q44 0 58 22.5t25 90.5h33q0 -8 -1.5 -54t-1.5 -76q0 -40 3 -136h-33q-15 73 -26 88
q-15 23 -57 23h-71v-194q0 -46 15 -60.5t69 -14.5h48q54 0 87 19q48 30 109 149l32 -10q-33 -100 -53 -200q-27 3 -158 3zM53 392l-33 5l30 254q18 2 62 -2.5t60 -8.5v-12z" />
    <glyph glyph-name="Etatonos" unicode="&#x389;" horiz-adv-x="977" 
d="M552 0h-313v36q21 2 29.5 3t23 5t19.5 10t10 17t5 27v442q0 38 -16.5 48t-70.5 14v36h313v-36q-51 -4 -69 -15.5t-18 -46.5v-186h257v186q0 37 -18 48t-69 14v36h313v-36q-50 -4 -68.5 -15.5t-18.5 -46.5v-442q0 -36 19 -47.5t68 -14.5v-36h-313v36q51 4 69 15t18 47v215
h-257v-215q0 -36 22 -47.5t65 -14.5v-36zM53 392l-33 5l30 254q18 2 62 -2.5t60 -8.5v-12z" />
    <glyph glyph-name="Iotatonos" unicode="&#x38a;" horiz-adv-x="585" 
d="M556 0h-313v36q52 4 69.5 16t17.5 46v442q0 20 -5 32t-18.5 18t-25.5 8t-38 4v36h313v-36q-49 -3 -68 -15t-19 -47v-442q0 -37 18.5 -48t68.5 -14v-36zM53 392l-33 5l30 254q18 2 62 -2.5t60 -8.5v-12z" />
    <glyph glyph-name="Omicrontonos" unicode="&#x38c;" horiz-adv-x="911" 
d="M536 -16q-129 0 -220 78q-50 44 -78.5 112t-28.5 145q0 172 121 268q83 67 201 67q152 0 238.5 -95.5t86.5 -237.5q0 -124 -69 -217q-42 -55 -106.5 -87.5t-144.5 -32.5zM548 22q54 0 88 38q67 71 67 246q0 163 -62 247q-45 63 -118 63q-53 0 -90 -34q-70 -67 -70 -246
q0 -157 58 -242q48 -72 127 -72zM53 392l-33 5l30 254q18 2 62 -2.5t60 -8.5v-12z" />
    <glyph glyph-name="Upsilontonos" unicode="&#x38e;" horiz-adv-x="951" 
d="M727 0h-332v36q30 2 54 6q43 6 43 53v178q0 140 -14 185q-19 66 -57.5 102.5t-90.5 36.5q-60 0 -99 -20v32q60 44 154 44q72 0 124.5 -45.5t69.5 -111.5q33 76 92.5 116.5t125.5 40.5q82 0 124 -40v-33q-50 20 -96 20q-68 0 -116.5 -52.5t-65.5 -131.5q-13 -52 -13 -141
v-177q0 -50 45 -57q18 -3 52 -5v-36zM53 392l-33 5l30 254q18 2 62 -2.5t60 -8.5v-12z" />
    <glyph glyph-name="Omegatonos" unicode="&#x38f;" horiz-adv-x="929" 
d="M485 0h-174q-66 0 -116 -2q-7 74 -32 191l33 6q24 -55 44.5 -71t51.5 -16h118l1 10q-194 76 -194 263q0 122 84 197.5t230 75.5q144 0 227.5 -74.5t83.5 -194.5q0 -177 -205 -269v-8h124q27 0 48.5 16t49.5 68l31 -7q-43 -149 -50 -187q-46 2 -93 2h-191l13 97
q73 53 99.5 125.5t26.5 163.5q0 230 -169 230q-76 0 -118.5 -59t-42.5 -173q0 -95 26.5 -161t90.5 -126zM53 392l-33 5l30 254q18 2 62 -2.5t60 -8.5v-12z" />
    <glyph glyph-name="iotadieresistonos" unicode="&#x390;" horiz-adv-x="281" 
d="M270 61v-33q-34 -40 -101 -40q-49 0 -73 29.5t-24 79.5v351h125v-365q0 -34 30 -34q24 0 43 12zM2 648q21 0 35 -16t14 -37q0 -27 -15.5 -41.5t-35.5 -14.5q-18 0 -34 14.5t-16 38.5t14 40t38 16zM284 647q20 0 35 -16t15 -36q0 -24 -15 -40t-36 -16q-20 0 -35.5 15
t-15.5 38q0 25 15.5 40t36.5 15zM121 503l-32 7l24 198q9 2 51.5 1.5t51.5 -3.5l3 -12z" />
    <glyph glyph-name="Alpha" unicode="&#x391;" horiz-adv-x="677" 
d="M-17 0v36q55 5 76.5 18t38.5 56q50 123 181 467q13 32 14 61h97l18 -50q33 -92 184 -489q15 -36 32 -46.5t67 -16.5v-36h-310v36l17 1q16 1 26 3q20 4 26 13t0 29q-19 55 -52 137h-210q-10 -26 -25 -69.5t-18 -51.5q-9 -28 -2.5 -39.5t35.5 -16.5q28 -5 50 -6v-36h-245z
M201 260h183l-91 250q-8 -23 -42.5 -114t-49.5 -136z" />
    <glyph glyph-name="Beta" unicode="&#x392;" horiz-adv-x="662" 
d="M254 319v-213q1 -36 14 -49q22 -21 67 -21q53 0 91 35.5t38 111.5q0 136 -154 136h-56zM254 562v-204h55q64 0 95.5 26.5t31.5 89.5q0 66 -33 97t-86 31q-45 0 -56 -13q-7 -7 -7 -27zM29 0v36q52 5 69.5 15t17.5 47v442q0 36 -17 47t-70 15v36h291q102 0 152 -16
q49 -16 75.5 -50t26.5 -81q0 -61 -42.5 -97.5t-107.5 -47.5q187 -26 187 -155q0 -91 -75.5 -141t-204.5 -50h-302z" />
    <glyph glyph-name="Gamma" unicode="&#x393;" horiz-adv-x="603" 
d="M352 0h-323v36q54 4 70.5 15.5t16.5 46.5v442q0 20 -4.5 32t-17 18.5t-26 8.5t-39.5 3v36h370q113 0 140 4q0 -22 9 -91t17 -107l-34 -10q-44 111 -90 146q-29 21 -60 21h-95q-18 0 -25 -6.5t-7 -26.5v-470q0 -36 17.5 -46.5t80.5 -15.5v-36z" />
    <glyph glyph-name="uni0394" unicode="&#x394;" horiz-adv-x="671" 
d="M529 0h-402q-17 0 -92 -3v39q18 35 51 112q108 245 186 444q10 29 16 52h68q3 -6 8.5 -21.5t8.5 -23.5q21 -45 60 -131.5t74 -162.5t67 -144q49 -102 61 -125v-39q-90 3 -106 3zM111 69h342q11 0 6 12q-165 382 -183 421q-15 -38 -85 -210.5t-86 -212.5q-5 -10 6 -10z
" />
    <glyph glyph-name="Epsilon" unicode="&#x395;" horiz-adv-x="643" 
d="M403 0h-384v36q60 4 78.5 15t18.5 47v442q0 37 -19 48t-68 14v36h364q94 0 150 6q2 -84 21 -181l-32 -9q-42 100 -90 130q-25 15 -63 15h-98q-17 0 -22 -6.5t-5 -25.5v-217h71q44 0 58 22.5t25 90.5h33q0 -8 -1.5 -54t-1.5 -76q0 -40 3 -136h-33q-15 73 -26 88
q-15 23 -57 23h-71v-194q0 -46 15 -60.5t69 -14.5h48q54 0 87 19q48 30 109 149l32 -10q-33 -100 -53 -200q-27 3 -158 3z" />
    <glyph glyph-name="Zeta" unicode="&#x396;" horiz-adv-x="641" 
d="M398 0h-356v24q46 63 187 287.5t176 287.5h-168q-43 0 -67 -15q-42 -29 -101 -140l-32 11q34 104 48 191q38 -8 143 -8h242q58 0 100 2v-23q-194 -308 -360 -578h168q53 0 87 21q52 34 109 137l31 -13q-32 -76 -64 -188q-11 0 -35.5 1.5t-51 2t-56.5 0.5z" />
    <glyph glyph-name="Eta" unicode="&#x397;" horiz-adv-x="767" 
d="M342 0h-313v36q21 2 29.5 3t23 5t19.5 10t10 17t5 27v442q0 38 -16.5 48t-70.5 14v36h313v-36q-51 -4 -69 -15.5t-18 -46.5v-186h257v186q0 37 -18 48t-69 14v36h313v-36q-50 -4 -68.5 -15.5t-18.5 -46.5v-442q0 -36 19 -47.5t68 -14.5v-36h-313v36q51 4 69 15t18 47v215
h-257v-215q0 -36 22 -47.5t65 -14.5v-36z" />
    <glyph glyph-name="Theta" unicode="&#x398;" horiz-adv-x="770" 
d="M493 216h-31q-6 26 -13.5 38.5t-15.5 15t-23 2.5h-53q-24 0 -35.5 -10t-17.5 -46h-31v218h32q7 -36 18 -45.5t34 -9.5h51q27 0 38 9.5t17 45.5h30v-218zM383 -16q-143 0 -236 94t-93 241q0 155 95 245t235 90q149 0 240 -95t91 -241q0 -151 -94.5 -242.5t-237.5 -91.5z
M399 23q81 0 124 74.5t43 211.5q0 307 -190 307q-173 0 -173 -276q0 -161 51 -239t145 -78z" />
    <glyph glyph-name="Iota" unicode="&#x399;" horiz-adv-x="371" 
d="M342 0h-313v36q52 4 69.5 16t17.5 46v442q0 20 -5 32t-18.5 18t-25.5 8t-38 4v36h313v-36q-49 -3 -68 -15t-19 -47v-442q0 -37 18.5 -48t68.5 -14v-36z" />
    <glyph glyph-name="Kappa" unicode="&#x39a;" horiz-adv-x="708" 
d="M342 0h-313v36q53 5 70 16t17 46v442q0 35 -17 46.5t-70 15.5v36h313v-36q-50 -4 -69 -16t-19 -46v-232q103 82 208 219q25 33 25 50q0 10 -22 16q-10 3 -57 9v36h261v-37q-59 -6 -88.5 -21t-66.5 -56q-109 -117 -126 -136q-5 -6 2 -15q28 -42 105.5 -142.5t110.5 -137.5
q27 -31 51.5 -42t67.5 -15v-36h-318v36q33 4 42 8q21 7 0 37q-94 135 -156 208q-4 6 -9 1l-30 -23v-170q0 -34 18 -45.5t70 -15.5v-36z" />
    <glyph glyph-name="Lambda" unicode="&#x39b;" horiz-adv-x="677" 
d="M228 0h-245v36q14 1 37 4q31 5 47 18.5t31 51.5q115 294 181 467q12 28 14 61h97q16 -46 18 -50q33 -87 102 -271.5t82 -217.5q14 -34 29 -44.5t46 -15.5q21 -3 24 -3v-36h-310v36l17 1q16 1 26 3q20 4 26 13t0 29q0 1 -157 429q-135 -373 -148 -413q-9 -28 -3 -39.5
t36 -16.5q28 -5 50 -6v-36z" />
    <glyph glyph-name="Mu" unicode="&#x39c;" horiz-adv-x="888" 
d="M266 0h-256v36q57 5 74 19.5t19 65.5q9 207 13 435q0 25 -15.5 32.5t-74.5 13.5v36h216q56 -118 210 -442q11 28 87.5 195.5t108.5 246.5h207v-36q-49 -3 -68 -15t-19 -47v-442q0 -20 4.5 -31.5t18.5 -17.5t25 -8t39 -5v-36h-313v36q55 5 71.5 16.5t17.5 46.5
q7 329 7 420q-155 -349 -223 -519h-34q-55 142 -226 522q-2 -98 -2 -401q0 -50 21 -64t92 -21v-36z" />
    <glyph glyph-name="Nu" unicode="&#x39d;" horiz-adv-x="721" 
d="M274 0h-257v36q66 5 82.5 24t17.5 88v385q0 33 -13 44q-21 18 -83 25v36h201l351 -467v315q0 72 -18.5 91t-98.5 26v35h257v-35q-63 -8 -80 -27.5t-17 -89.5v-380q0 -72 4 -107h-93q-45 65 -67 96l-300 414v-361q1 -68 21 -87t93 -25v-36z" />
    <glyph glyph-name="Xi" unicode="&#x39e;" horiz-adv-x="662" 
d="M474 531h-294q-30 0 -43.5 -11t-37.5 -56l-30 8q5 18 32 174q34 -8 111 -8h247q48 0 105 6q1 -31 17 -181l-31 -6q-21 49 -36 61.5t-40 12.5zM487 209h-30q-9 39 -18.5 50.5t-30.5 11.5h-159q-17 0 -27.5 -11t-22.5 -50h-32v228h30q13 -39 23 -49.5t28 -10.5h152
q26 0 36.5 10t21.5 50h29v-229zM566 0h-493q1 43 -18 181l31 6q23 -52 39 -66t45 -14h323q28 0 46 13.5t44 63.5l28 -10q-39 -139 -45 -174z" />
    <glyph glyph-name="Omicron" unicode="&#x39f;" horiz-adv-x="756" 
d="M381 -16q-129 0 -220 78q-50 44 -78.5 112t-28.5 145q0 172 121 268q83 67 201 67q152 0 238.5 -95.5t86.5 -237.5q0 -124 -69 -217q-42 -55 -106.5 -87.5t-144.5 -32.5zM393 22q54 0 88 38q67 71 67 246q0 163 -62 247q-45 63 -118 63q-53 0 -90 -34q-70 -67 -70 -246
q0 -157 58 -242q48 -72 127 -72z" />
    <glyph glyph-name="Pi" unicode="&#x3a0;" horiz-adv-x="759" 
d="M342 0h-313v36q15 1 44 6q43 6 43 56v442q0 50 -43 57q-20 3 -44 5v36h701v-36q-22 -1 -44 -6q-43 -10 -43 -56v-442q0 -50 45 -57q25 -4 42 -5v-36h-313v36q12 1 44 6q43 6 43 56v472q0 19 -6.5 24t-25.5 5h-190q-18 0 -23 -4.5t-5 -22.5v-473q0 -50 46 -58q25 -4 42 -5
v-36z" />
    <glyph glyph-name="Rho" unicode="&#x3a1;" horiz-adv-x="636" 
d="M255 562v-262q0 -8 6 -10q9 -3 37 -3q73 0 110 40t37 130q0 145 -128 145q-38 0 -51 -10q-11 -6 -11 -30zM348 0h-319v36q50 4 68.5 14.5t18.5 47.5v442q0 36 -19 47.5t-68 14.5v36h289q123 0 184 -33q88 -48 88 -148q0 -89 -66 -144q-74 -63 -226 -63q-29 0 -43 1v-153
q0 -36 16.5 -46.5t76.5 -15.5v-36z" />
    <glyph glyph-name="Sigma" unicode="&#x3a3;" horiz-adv-x="678" 
d="M442 0h-390v45q52 43 148.5 130.5t125.5 118.5q-27 32 -131.5 148.5t-145.5 157.5v38h398q35 0 130 5q-2 -61 19 -181l-33 -6q-28 78 -61 110.5t-77 32.5h-199q11 -13 54.5 -61.5t93 -103.5t63.5 -70v-21q-37 -32 -140.5 -130t-112.5 -106h305q32 0 57.5 22t64.5 84
l31 -12q-56 -135 -70 -205q-49 4 -130 4z" />
    <glyph glyph-name="Tau" unicode="&#x3a4;" horiz-adv-x="690" 
d="M508 0h-332v36q61 5 79 14.5t18 44.5v504h-66q-32 0 -54 -15q-47 -32 -85 -131l-32 8q21 137 20 187q54 -10 145 -10h284q90 0 146 10q-1 -39 19 -187l-32 -8q-38 98 -84 131q-22 15 -55 15h-68v-501q0 -37 20 -48t77 -14v-36z" />
    <glyph glyph-name="Upsilon" unicode="&#x3a5;" horiz-adv-x="748" 
d="M525 0h-332v36q30 2 54 6q43 6 43 53v178q0 140 -14 185q-19 66 -57.5 102.5t-90.5 36.5q-60 0 -99 -20v32q60 44 154 44q72 0 124.5 -45.5t69.5 -111.5q33 76 92.5 116.5t125.5 40.5q82 0 124 -40v-33q-50 20 -96 20q-68 0 -116.5 -52.5t-65.5 -131.5q-13 -52 -13 -141
v-177q0 -50 45 -57q18 -3 52 -5v-36z" />
    <glyph glyph-name="Phi" unicode="&#x3a6;" horiz-adv-x="784" 
d="M459 518v-394q130 17 130 194q0 107 -35 151t-95 49zM326 124v396q-132 -17 -130 -189q0 -96 31 -146.5t99 -60.5zM540 -15h-294v36q27 2 45 4q35 5 35 37v25q-127 7 -200.5 63.5t-73.5 166.5t71.5 170t202.5 67v22q0 16 -5 23t-20 11q-23 6 -52 8v36h290v-35
q-41 -3 -56 -8q-24 -7 -24 -34v-23q273 -16 273 -229q0 -217 -272 -238v-25q0 -17 7 -24.5t26 -10.5q18 -4 47 -6v-36z" />
    </font>
</defs>
</svg>
