<?xml version="1.0" standalone="no"?>
<!DOCTYPE svg PUBLIC "-//W3C//DTD SVG 1.1//EN" "http://www.w3.org/Graphics/SVG/1.1/DTD/svg11.dtd" >
<svg>
<metadata>
Created by FontForge 20110222 at Mon Apr 21 01:18:37 2014
 By Orthosie Webhosting
(c) 2010 Adobe Systems Incorporated. All Rights Reserved.
</metadata>
<defs>
<font id="AdobeTextProItalic" horiz-adv-x="397" >
  <font-face 
    font-family="AdobeTextProItalic"
    font-weight="400"
    font-style="italic"
    font-stretch="normal"
    units-per-em="1000"
    panose-1="2 5 6 3 5 5 5 9 2 4"
    ascent="716"
    descent="-284"
    x-height="456"
    cap-height="645"
    bbox="-242 -287 1328 953"
    underline-thickness="50"
    underline-position="-50"
    slope="-12"
    unicode-range="U+0020-FB06"
  />
<missing-glyph horiz-adv-x="500" 
d="M0 0v700h500v-700h-500zM250 395l170 255h-340zM280 350l170 -255v510zM80 50h340l-170 255zM50 605v-510l170 255z" />
    <glyph glyph-name="f_f" unicode="ff" horiz-adv-x="548" 
d="M59 410l10 34h81q40 147 131 221q49 38 105 38q35 0 53.5 -13t18.5 -30t-15 -35t-27 -18q-8 0 -14.5 5t-22.5 22q-22 27 -41 27q-33 0 -56.5 -45.5t-53.5 -171.5h195q43 161 133 232q48 39 105 39q36 0 55 -14t19 -32q0 -19 -15 -35.5t-31 -16.5q-15 0 -36 26
q-23 30 -39 30q-62 0 -114 -229h99l-9 -34h-98q-14 -55 -51.5 -213t-39.5 -168q-27 -112 -92 -187t-135 -75q-29 0 -49 15t-20 34q0 20 16.5 37.5t33.5 17.5q5 0 10 -2t7.5 -4l10 -8t10.5 -9q25 -23 39 -23q10 0 17 4t18 18t23 48.5t25 88.5q3 11 44.5 190.5t55.5 235.5
h-196q-36 -139 -95 -396q-28 -112 -93 -186.5t-136 -74.5q-29 0 -48 15.5t-19 34.5q0 20 15.5 36.5t33.5 16.5q15 0 43 -28q20 -20 33 -20q9 0 16.5 4.5t19 18.5t24 49t25.5 89q68 301 104 441h-83z" />
    <glyph glyph-name="f_f_i" unicode="ffi" horiz-adv-x="806" 
d="M59 410l10 34h80q41 149 132 221q49 38 105 38q35 0 53.5 -13t18.5 -30q0 -21 -14.5 -36t-28.5 -15q-17 0 -39 25q-22 27 -38 27q-34 0 -57 -45t-53 -172h195q34 122 98 196.5t154 74.5q65 0 94.5 -27.5t29.5 -58.5q0 -26 -17.5 -43t-37.5 -17q-19 0 -30 10.5t-11 26.5
q0 10 5.5 26.5t5.5 23.5q0 27 -51 27q-105 0 -164 -239h126q102 0 144 8q-15 -45 -28 -91q-8 -28 -40.5 -136t-40.5 -139q-9 -34 3 -34q11 0 37 23.5t57 67.5l17 -20q-35 -60 -82 -97.5t-87 -37.5q-17 0 -24 11.5t-4 41t19 79.5q38 124 79 271q3 19 -16 19h-167
q-5 -20 -92 -381q-26 -112 -91 -187t-135 -75q-29 0 -49 14.5t-20 33.5q0 21 16 38t34 17q5 0 10 -2t7.5 -4t9.5 -7.5t11 -8.5q25 -23 39 -23q9 0 16.5 4t18.5 18t23 48.5t25 88.5q77 340 100 426h-196q-10 -39 -96 -396q-27 -112 -92 -186.5t-136 -74.5q-30 0 -49 15.5
t-19 34.5q0 20 16 36.5t33 16.5q15 0 43 -28q21 -20 33 -20q9 0 17 4.5t19 18.5t23.5 49t25.5 89q7 31 30 129.5t43 184t31 127.5h-82z" />
    <glyph glyph-name="f_f_l" unicode="ffl" horiz-adv-x="803" 
d="M590 410h-98q-14 -55 -51.5 -213t-39.5 -168q-27 -112 -92 -187t-135 -75q-28 0 -48.5 14.5t-20.5 33.5q0 21 16.5 38t33.5 17q5 0 10 -2t8 -4t9.5 -7.5t10.5 -8.5q25 -23 39 -23q10 0 17 4t18 18t23 48.5t25 88.5q3 11 44.5 190.5t55.5 235.5h-196q-31 -120 -95 -396
q-27 -112 -92.5 -186.5t-136.5 -74.5q-29 0 -48 15.5t-19 34.5q0 20 15.5 36.5t33.5 16.5q15 0 43 -28q20 -20 33 -20q9 0 16.5 4.5t19 18.5t24 49t25.5 89q68 301 104 441h-83l10 34h81q40 147 131 221q49 38 105 38q35 0 53.5 -13t18.5 -30q0 -21 -14.5 -36t-28.5 -15
q-16 0 -39 25q-21 27 -38 27q-34 0 -57.5 -46t-52.5 -171h194q33 122 100 196.5t154 74.5q57 0 94 -22q26 5 47 22h21q-1 -5 -5 -17.5t-9.5 -30.5t-9.5 -32q-20 -73 -73 -277t-70 -266q-10 -40 4 -40q31 0 93 90l19 -20q-34 -59 -79 -96.5t-88 -37.5q-32 0 -32 44
q0 33 38 165q97 362 110 432q-9 26 -30 40.5t-46 14.5q-105 0 -160 -240h99z" />
    <glyph glyph-name="longs_t" unicode="&#x17f;t" horiz-adv-x="553" 
d="M499 148l20 -20q-40 -70 -90 -105t-89 -35t-39 46q0 33 18 97q12 42 38 135.5t39 143.5h-78l12 34h76l46 164q6 23 6 31q0 16 -17 30t-44 14q-67 0 -110.5 -80.5t-80.5 -237.5q-64 -284 -80 -350q-28 -114 -92.5 -188t-136.5 -74q-29 0 -48 15.5t-19 34.5q0 20 15.5 36.5
t33.5 16.5q15 0 43 -28q20 -20 33 -20q9 0 17 4.5t19 18.5t23.5 49t25.5 89q16 68 43.5 192t39.5 173q43 174 115.5 277.5t179.5 103.5q61 0 87 -22.5t26 -54.5q0 -10 -7 -38l-44 -156h105l-11 -34h-105q-78 -278 -87 -319q-8 -41 8 -41q42 0 109 98z" />
    <glyph glyph-name="T_h" unicode="Th" horiz-adv-x="1040" 
d="M125 0l6 28q66 5 86.5 15t29.5 46l140 524h-113q-43 0 -77 -27.5t-81 -117.5l-28 9q28 61 60 179q40 -11 120 -11h379q63 0 85 13l16 47h78q-24 -76 -67 -236t-58 -213q113 200 235 200q56 0 56 -56q0 -25 -20 -99q-7 -24 -32.5 -103.5t-34.5 -108.5q-11 -36 3 -36
q31 0 93 90l19 -20q-34 -61 -82 -98t-87 -37q-19 0 -26.5 13.5t-4.5 40t17 68.5q5 16 71 222q11 49 6.5 61t-23.5 12q-47 0 -114 -86t-111 -221q-21 -62 -33 -108q-35 0 -71 11q114 432 146 567q3 7 0 15t-9.5 14.5t-23.5 11t-42 4.5h-162l-140 -525q-8 -33 10 -43.5
t87 -16.5l-7 -28h-296z" />
    <glyph glyph-name="Tcaron_h" unicode="&#x164;h" horiz-adv-x="1040" 
d="M125 0l6 28q66 5 86.5 15t29.5 46l140 524h-113q-43 0 -77 -27.5t-81 -117.5l-28 9q28 61 60 179q40 -11 120 -11h379q63 0 85 13l16 47h78q-24 -76 -67 -236t-58 -213q113 200 235 200q56 0 56 -56q0 -25 -20 -99q-7 -24 -32.5 -103.5t-34.5 -108.5q-11 -36 3 -36
q31 0 93 90l19 -20q-34 -61 -82 -98t-87 -37q-19 0 -26.5 13.5t-4.5 40t17 68.5q5 16 71 222q11 49 6.5 61t-23.5 12q-47 0 -114 -86t-111 -221q-21 -62 -33 -108q-35 0 -71 11q114 432 146 567q3 7 0 15t-9.5 14.5t-23.5 11t-42 4.5h-162l-140 -525q-8 -33 10 -43.5
t87 -16.5l-7 -28h-296zM303 819l15 21l130 -65q53 23 169 65l10 -24q-104 -58 -182 -118h-24q-43 52 -118 121z" />
    <glyph glyph-name="uni021A_h" unicode="&#x21a;h" horiz-adv-x="1040" 
d="M125 0l6 28q66 5 86.5 15t29.5 46l140 524h-113q-43 0 -77 -27.5t-81 -117.5l-28 9q28 61 60 179q40 -11 120 -11h379q63 0 85 13l16 47h78q-24 -76 -67 -236t-58 -213q113 200 235 200q56 0 56 -56q0 -25 -20 -99q-7 -24 -32.5 -103.5t-34.5 -108.5q-11 -36 3 -36
q31 0 93 90l19 -20q-34 -61 -82 -98t-87 -37q-19 0 -26.5 13.5t-4.5 40t17 68.5q5 16 71 222q11 49 6.5 61t-23.5 12q-47 0 -114 -86t-111 -221q-21 -62 -33 -108q-35 0 -71 11q114 432 146 567q3 7 0 15t-9.5 14.5t-23.5 11t-42 4.5h-162l-140 -525q-8 -33 10 -43.5
t87 -16.5l-7 -28h-296zM167 -270l-8 27q100 38 100 82q0 16 -9.5 24t-37.5 12q-24 4 -24 29q0 18 15 32t43 14t50 -21t22 -59q0 -54 -44.5 -89.5t-106.5 -50.5z" />
    <glyph glyph-name="f_b" unicode="fb" horiz-adv-x="774" 
d="M666 359q0 49 -42 49q-40 0 -90 -47.5t-97 -140.5q-16 -31 -29.5 -77.5t-13.5 -65.5q0 -27 8 -41.5t34 -14.5q50 0 111 71q50 58 84.5 134t34.5 133zM59 410l10 34h81q33 122 99.5 196.5t153.5 74.5q57 0 94 -22q26 5 47 22h21q-2 -5 -9.5 -32.5t-14.5 -49.5
q-15 -50 -50.5 -175.5t-47.5 -166.5q100 165 227 165q78 0 78 -88q0 -64 -33.5 -135.5t-89.5 -131.5q-104 -113 -211 -113q-50 0 -71 25t-21 58q0 36 14 85q21 74 127 474q-9 26 -30 40t-46 14q-105 0 -160 -240h98l-10 -34h-96q-31 -120 -95 -396q-27 -112 -92.5 -186.5
t-136.5 -74.5q-29 0 -48 15.5t-19 35.5q0 19 16 35.5t33 16.5q15 0 43 -28q20 -20 33 -20q9 0 16.5 4.5t19 18.5t24 49t25.5 89q68 301 104 441h-83z" />
    <glyph glyph-name="f_h" unicode="fh" horiz-adv-x="779" 
d="M59 410l10 34h81q33 122 99.5 196.5t153.5 74.5q57 0 94 -22q27 5 48 22h21q-14 -42 -25 -82q-94 -363 -98 -376q113 199 231 199q57 0 57 -56q0 -28 -21 -99q-3 -9 -30 -95t-36 -117q-11 -36 2 -36q32 0 94 90l19 -20q-35 -62 -82.5 -98.5t-86.5 -36.5q-56 0 -14 122
q41 126 70 222q12 49 7 61t-24 12q-47 0 -114 -86t-111 -221q-24 -77 -32 -108q-34 0 -72 11q35 125 91.5 343t71.5 286q-9 26 -30 40t-46 14q-105 0 -160 -240h98l-10 -34h-96q-34 -132 -95 -397q-27 -111 -92.5 -185.5t-136.5 -74.5q-29 0 -48 15.5t-19 34.5
q0 20 15.5 36.5t33.5 16.5q14 0 43 -28q20 -20 33 -20t23 7t27.5 45t34.5 109q68 301 104 441h-83z" />
    <glyph glyph-name="f_i" unicode="fi" horiz-adv-x="534" 
d="M59 410l11 34h80q36 122 100 196.5t154 74.5q65 0 94.5 -27.5t29.5 -58.5q0 -26 -17.5 -43t-37.5 -17q-19 0 -30 10.5t-11 26.5q0 10 5.5 26.5t5.5 23.5q0 27 -51 27q-105 0 -164 -239h126q102 0 144 8q-15 -45 -28 -91q-8 -28 -40.5 -136t-40.5 -139q-10 -34 3 -34
q11 0 37 23.5t57 67.5l17 -20q-35 -60 -82 -97.5t-87 -37.5q-17 0 -24 11.5t-4 41t19 79.5q33 106 79 271q5 19 -16 19h-167q-27 -106 -97 -396q-27 -112 -92 -186.5t-137 -74.5q-29 0 -48 15.5t-19 34.5q0 20 15.5 36.5t33.5 16.5q15 0 43 -28q20 -20 33 -20q9 0 17 4.5
t19 18.5t23.5 49t25.5 89q7 31 30 129.5t43 184t31 127.5h-83z" />
    <glyph glyph-name="f_j" unicode="fj" horiz-adv-x="529" 
d="M59 410l11 34h80q36 122 100 196.5t154 74.5q65 0 94.5 -27.5t29.5 -58.5q0 -26 -17.5 -43t-37.5 -17q-19 0 -30 10.5t-11 26.5q0 10 5.5 26.5t5.5 23.5q0 27 -51 27q-105 0 -164 -239h128q102 0 143 8q-7 -27 -25.5 -104.5t-39.5 -158.5t-40 -144q-31 -105 -81 -171.5
t-123 -105.5l-17 23q59 46 84 87t52 139q59 211 96 374q3 19 -16 19h-168q-36 -140 -97 -396q-27 -112 -92 -186.5t-137 -74.5q-29 0 -48 15.5t-19 35.5q0 19 16 35.5t33 16.5q15 0 43 -28q20 -20 33 -20q9 0 17 4.5t19 18.5t23.5 49t25.5 89q7 31 30 129.5t43 184t31 127.5
h-83z" />
    <glyph glyph-name="f_k" unicode="fk" horiz-adv-x="760" 
d="M59 410l10 34h81q33 122 99.5 196.5t153.5 74.5q59 0 96 -22q26 5 47 22h21q-1 -5 -9.5 -32.5t-14.5 -48.5q-13 -46 -52 -196.5t-57 -218.5q99 118 184 189q58 48 101 48q46 0 46 -42q0 -22 -16.5 -44t-28.5 -22t-24 18q-18 24 -33 24q-39 0 -144 -118q-1 -2 -1 -6
q40 -92 84 -161q28 -48 49 -48q25 0 78 72l19 -20q-36 -62 -77.5 -93t-66.5 -31q-16 0 -28 12t-32 52q-21 43 -71 168q-1 4 -5 2q-29 -34 -40 -53q-9 -18 -15 -36q-23 -75 -40 -138q-14 -1 -38.5 2.5t-33.5 7.5q109 389 163 629q-9 26 -30.5 39.5t-46.5 13.5
q-105 0 -160 -240h98l-10 -34h-96q-36 -139 -95 -396q-27 -112 -92.5 -186.5t-136.5 -74.5q-29 0 -48 15.5t-19 35.5q-1 19 15 35.5t34 16.5q15 0 43 -28q20 -20 33 -20q9 0 16.5 4.5t19 18.5t24 49.5t25.5 89.5q73 319 104 440h-83z" />
    <glyph glyph-name="f_l" unicode="fl" horiz-adv-x="529" 
d="M59 410l10 34h81q33 122 99.5 196.5t153.5 74.5q59 0 96 -22q26 5 47 22h21q-1 -5 -9.5 -32.5t-14.5 -48.5q-24 -82 -80.5 -295t-65.5 -247q-10 -40 4 -40q33 0 93 90l19 -20q-34 -59 -79 -96.5t-88 -37.5q-32 0 -32 44q0 33 38 165q97 356 112 433q-19 54 -77 54
q-105 0 -160 -240h98l-10 -34h-96q-31 -120 -95 -396q-27 -112 -92.5 -186.5t-136.5 -74.5q-29 0 -48 15.5t-19 34.5q0 20 15.5 36.5t33.5 16.5q15 0 43 -28q20 -20 33 -20q9 0 16.5 4.5t19 18.5t24 49t25.5 89q68 301 104 441h-83z" />
    <glyph glyph-name="f_r" unicode="fr" horiz-adv-x="617" 
d="M59 410l10 34h81q43 161 133 232q48 39 105 39q36 0 55 -14t19 -32q0 -19 -15 -35.5t-31 -16.5q-15 0 -36 26q-23 30 -40 30q-33 0 -60 -56.5t-53 -172.5h137q72 0 103 6q-12 -73 -53 -200q108 206 197 206q18 0 28 -10.5t10 -24.5q0 -49 -40 -79q-9 -6 -18 -6
q-7 0 -10 8q-19 43 -31 43q-13 0 -42 -37t-65 -106.5t-61 -145.5q-22 -66 -34 -108q-47 0 -71 11q69 227 104 368q7 19 2 30t-27 11h-137q-31 -120 -95 -396q-27 -112 -92.5 -186.5t-136.5 -74.5q-29 0 -48 15.5t-19 34.5q0 20 15.5 36.5t33.5 16.5q15 0 43 -28
q20 -20 33 -20t23 7t27.5 45t34.5 109q68 301 104 441h-83z" />
    <glyph glyph-name="f_t" unicode="ft" horiz-adv-x="560" 
d="M59 410l10 34h81q43 161 133 232q48 39 105 39q36 0 55 -13t19 -30q0 -18 -15.5 -36.5t-28.5 -18.5q-8 0 -14 5t-23 23q-21 28 -41 28q-60 0 -113 -229h185l34 115q35 3 68 25h15q-42 -136 -43 -140h106l-11 -34h-105q-77 -272 -87 -319q-8 -42 9 -42q40 0 108 99l20 -20
q-38 -71 -88.5 -105.5t-90.5 -34.5q-39 0 -39 47q0 32 18 96q12 42 38 135.5t39 143.5h-184q-61 -249 -95 -396q-27 -112 -92.5 -186.5t-136.5 -74.5q-29 0 -48 15.5t-19 34.5q0 20 15.5 36.5t33.5 16.5q15 0 43 -28q20 -20 33 -20q9 0 16.5 4.5t19 18.5t24 49t25.5 89
q68 301 104 441h-83z" />
    <glyph glyph-name="f_f_b" unicode="ffb" horiz-adv-x="1046" 
d="M59 410l11 34h80q40 148 132 221q49 38 104 38q36 0 54.5 -13t18.5 -30t-15 -35t-28 -18q-8 0 -14.5 5t-22.5 23q-21 26 -40 26q-34 0 -57 -45t-53 -172h194q33 122 99.5 196.5t153.5 74.5q57 0 94 -22q26 5 47 22h22q-1 -5 -4.5 -16.5t-9.5 -30t-11 -35.5
q-13 -45 -48 -169t-50 -173q100 165 227 165q78 0 78 -88q0 -64 -33.5 -135.5t-89.5 -131.5q-104 -113 -211 -113q-50 0 -71 25t-21 58q0 36 14 85q14 50 127 474q-9 26 -30.5 40t-45.5 14q-105 0 -159 -240h98l-9 -34h-98q-13 -54 -49 -206t-42 -175q-27 -112 -92 -187
t-135 -75q-29 0 -48.5 15t-19.5 34q0 21 16 38t34 17q4 0 7.5 -1t7.5 -3.5t6.5 -4.5t8 -6.5t8.5 -7.5q25 -23 39 -23q9 0 16.5 4t18.5 18t23 48.5t25 88.5q78 342 99 426h-196q-10 -41 -27.5 -114t-38.5 -160.5t-29 -121.5q-27 -112 -92 -186.5t-136 -74.5q-30 0 -49 15.5
t-19 34.5q0 20 15.5 36.5t33.5 16.5q15 0 43 -28q21 -20 33 -20q9 0 17 4.5t19 18.5t23.5 49t25.5 89q7 31 30 129.5t43 184t31 127.5h-83zM939 359q0 49 -42 49q-40 0 -90 -47.5t-97 -140.5q-16 -31 -29.5 -77.5t-13.5 -65.5q0 -27 8 -41.5t34 -14.5q50 0 111 71
q50 58 84.5 134t34.5 133z" />
    <glyph glyph-name="f_f_h" unicode="ffh" horiz-adv-x="1052" 
d="M59 410l10 34h81q40 147 131 221q49 38 105 38q35 0 53.5 -13t18.5 -30t-15 -35t-27 -18q-8 0 -14.5 5t-22.5 23q-21 26 -41 26q-33 0 -56.5 -45.5t-53.5 -171.5h194q33 122 100 196.5t154 74.5q57 0 94 -22q26 5 47 22h21q-1 -4 -10 -33t-14 -49q-14 -52 -50 -191
t-48 -185q113 199 231 199q57 0 57 -56q0 -28 -21 -99q-6 -19 -20.5 -65.5t-26.5 -85t-19 -61.5q-11 -36 2 -36q31 0 94 90l18 -20q-34 -61 -81.5 -98t-86.5 -37q-56 0 -14 122q41 126 70 222q11 49 6.5 61t-23.5 12q-47 0 -113.5 -86t-110.5 -219q-22 -66 -33 -110
q-33 0 -72 11q35 124 91 341.5t72 286.5q-9 26 -30 40.5t-46 14.5q-105 0 -160 -240h99l-9 -34h-98q-14 -55 -51.5 -213t-39.5 -168q-27 -112 -92 -187t-135 -75q-29 0 -49 15t-20 34q0 20 16.5 37.5t33.5 17.5q5 0 10 -2t7.5 -4l10 -8t10.5 -9q25 -23 39 -23q10 0 17 4
t18 18t23 48.5t25 88.5q3 11 44.5 190.5t55.5 235.5h-196q-34 -132 -95 -397q-27 -111 -92.5 -185.5t-136.5 -74.5q-29 0 -48 15.5t-19 34.5q0 20 15.5 36.5t33.5 16.5q15 0 43 -28q20 -20 33 -20q9 0 16.5 4.5t19 18.5t24 49t25.5 89q68 301 104 441h-83z" />
    <glyph glyph-name="f_f_j" unicode="ffj" horiz-adv-x="801" 
d="M59 410l10 34h80q41 149 132 221q49 38 105 38q35 0 53.5 -13t18.5 -30q0 -21 -14.5 -36t-28.5 -15q-17 0 -39 25q-22 27 -38 27q-34 0 -57.5 -45.5t-53.5 -171.5h196q34 122 98 196.5t154 74.5q65 0 94.5 -27.5t29.5 -58.5q0 -26 -17.5 -43t-37.5 -17q-19 0 -30 10.5
t-11 26.5q0 10 5.5 26.5t5.5 23.5q0 27 -51 27q-105 0 -164 -239h128q102 0 143 8q-7 -26 -25.5 -104t-39.5 -159t-40 -144q-31 -105 -81 -171.5t-123 -105.5l-17 22q59 46 84 87t52 140q24 85 96 374q3 19 -16 19h-168q-5 -20 -92 -381q-26 -112 -91 -187t-135 -75
q-29 0 -49 14.5t-20 33.5q0 21 16 38t34 17q5 0 10 -2t7.5 -4t9.5 -7.5t11 -8.5q25 -23 39 -23q9 0 16.5 4t18.5 18t23 48.5t25 88.5q72 321 100 426h-196q-20 -75 -96 -396q-27 -112 -92 -186.5t-136 -74.5q-30 0 -49 15.5t-19 35.5q0 19 16 35.5t33 16.5q15 0 43 -28
q21 -20 33 -20q9 0 17 4.5t19 18.5t23.5 49t25.5 89q7 31 30 129.5t43 184t31 127.5h-82z" />
    <glyph glyph-name="f_f_k" unicode="ffk" horiz-adv-x="1032" 
d="M59 410l10 34h81q40 147 131 221q49 38 105 38q35 0 53.5 -13t18.5 -30q0 -21 -14.5 -36t-28.5 -15q-16 0 -39 25q-21 27 -38 27q-34 0 -57.5 -46t-52.5 -171h194q33 122 100 196.5t154 74.5q57 0 94 -22q26 5 47 22h21q-1 -4 -10 -33t-14 -49q-11 -41 -48.5 -187.5
t-59.5 -227.5q110 128 184 190q58 48 102 48q45 0 45 -42q0 -22 -16 -44t-28 -22t-25 18q-18 24 -33 24q-38 0 -143 -118q-1 -1 -1 -6q37 -84 83 -161q29 -48 50 -48q25 0 78 72l18 -20q-36 -62 -77.5 -93t-65.5 -31q-16 0 -28.5 12t-32.5 52q-26 56 -71 168q-1 2 -2 2.5
t-2 -0.5q-29 -32 -40 -53q-7 -11 -15 -36q-24 -77 -41 -138q-14 -1 -38.5 2.5t-32.5 7.5q36 129 89.5 336t72.5 291q-9 26 -30 40.5t-46 14.5q-105 0 -160 -240h99l-9 -34h-98q-3 -13 -91 -381q-27 -112 -92 -187t-135 -75q-29 0 -49 15t-20 34q0 20 16.5 37.5t33.5 17.5
q5 0 10 -2t7.5 -4l10 -8t10.5 -9q25 -23 39 -23q10 0 17 4t18 18t23 49t25 89q1 6 43.5 187.5t56.5 237.5h-196q-36 -139 -95 -396q-27 -112 -92.5 -186.5t-136.5 -74.5q-29 0 -48 15.5t-19 34.5q0 20 15.5 36.5t33.5 16.5q15 0 43 -28q20 -20 33 -20q9 0 16.5 4.5t19 18.5
t24 49t25.5 89q68 301 104 441h-83z" />
    <glyph glyph-name="f_f_t" unicode="fft" horiz-adv-x="833" 
d="M59 410l10 34h81q40 148 131 220q48 39 105 39q35 0 53.5 -13t18.5 -30q0 -21 -14.5 -36t-28.5 -15q-16 0 -39 25q-21 27 -38 27q-33 0 -56.5 -45.5t-53.5 -171.5h195q43 161 133 232q48 39 105 39q36 0 55 -13t19 -30q0 -18 -15 -36.5t-29 -18.5q-8 0 -13.5 4.5
t-22.5 23.5q-21 28 -41 28q-62 0 -114 -229h186l34 115q34 3 68 25h15q-25 -73 -43 -140h105l-11 -34h-105q-73 -260 -87 -319q-8 -42 9 -42q42 0 108 99l20 -20q-38 -71 -88 -105.5t-90 -34.5t-40 47q0 27 18 96q12 45 38.5 138t39.5 141h-185q-14 -55 -51.5 -213
t-39.5 -168q-27 -112 -92 -187t-135 -75q-29 0 -49 15t-20 34q0 20 16.5 37.5t33.5 17.5q5 0 10 -2t7.5 -4l10 -8t10.5 -9q25 -23 39 -23q10 0 17 4t18 18t23 48.5t25 88.5q3 11 44.5 190.5t55.5 235.5h-196q-31 -120 -95 -396q-27 -112 -92.5 -186.5t-136.5 -74.5
q-29 0 -48 15.5t-19 34.5q0 20 15.5 36.5t33.5 16.5q15 0 43 -28q20 -20 33 -20q9 0 16.5 4.5t19 18.5t24 49t25.5 89q68 301 104 441h-83z" />
    <glyph glyph-name="longs_b" unicode="&#x17f;b" horiz-adv-x="751" 
d="M643 359q0 49 -42 49q-39 0 -89.5 -48t-97.5 -140q-16 -31 -29.5 -77.5t-13.5 -65.5q0 -27 8 -41.5t34 -14.5q50 0 111 71q50 58 84.5 134t34.5 133zM520 716h23q-8 -22 -30 -98q-91 -322 -93 -327q100 165 227 165q78 0 78 -88q0 -64 -33.5 -135.5t-89.5 -131.5
q-104 -113 -213 -113q-50 0 -70 24.5t-20 58.5q0 36 14 85q43 148 129 481q-4 18 -22 30.5t-41 12.5q-58 0 -95.5 -70t-77.5 -248q-52 -234 -80 -348q-27 -112 -92 -186.5t-136 -74.5q-29 0 -48.5 15.5t-19.5 35.5q0 19 16 35.5t33 16.5q16 0 44 -28q20 -20 32 -20
q10 0 18 4.5t19.5 18.5t24 49t24.5 89q30 138 82 364q41 180 110.5 281.5t168.5 101.5q48 0 77 -18q19 2 41 18z" />
    <glyph glyph-name="longs_h" unicode="&#x17f;h" horiz-adv-x="756" 
d="M520 716h23q-14 -40 -30 -98q-11 -42 -44.5 -175t-48.5 -186q113 199 231 199q57 0 57 -56q0 -28 -21 -99q-3 -9 -30 -95t-36 -117q-11 -36 2 -36q31 0 94 90l19 -20q-35 -61 -83 -98t-86 -37q-56 0 -14 122q41 126 70 222q12 49 7 61t-24 12q-47 0 -113.5 -86
t-111.5 -221q-15 -47 -32 -108q-33 0 -72 11q35 126 92.5 347.5t72.5 288.5q-3 18 -21.5 30.5t-41.5 12.5q-58 0 -95.5 -69.5t-77.5 -248.5q-51 -232 -80 -349q-26 -111 -91.5 -185.5t-136.5 -74.5q-30 0 -49 15.5t-19 34.5q0 20 16 36.5t33 16.5q14 0 43 -28q21 -20 33 -20
q13 0 23.5 7t28.5 45t34 109q43 198 81 364q89 383 281 383q47 0 76 -18q19 2 41 18z" />
    <glyph glyph-name="longs_i" unicode="&#x17f;i" horiz-adv-x="525" 
d="M485 143l17 -20q-36 -61 -82.5 -98t-89.5 -37q-49 0 -14 107q43 133 90 266q8 24 -3 24q-23 0 -82 -63l-15 21q36 48 84 80.5t82 32.5q22 0 22 -27q0 -14 -17 -69q-32 -105 -90 -274q-11 -34 3 -34q12 0 37.5 23t57.5 68zM-103 -247q-29 0 -48 15.5t-19 34.5
q0 20 15.5 36.5t33.5 16.5q15 0 43 -28q20 -20 33 -20q9 0 17 4.5t19 18.5t23.5 49t25.5 89q9 37 39.5 174t44.5 194q90 378 282 378q61 0 91 -27t30 -59q0 -26 -16.5 -43t-39.5 -17q-19 0 -29.5 11.5t-10.5 27.5q0 10 5.5 25t5.5 23q0 28 -46 28q-66 0 -108.5 -78
t-81.5 -247q-15 -66 -46 -199.5t-34 -145.5q-26 -112 -91.5 -186.5t-137.5 -74.5z" />
    <glyph glyph-name="longs_k" unicode="&#x17f;k" horiz-adv-x="735" 
d="M520 716h23q-8 -22 -30 -98q-9 -35 -44 -169t-60 -231q102 121 184 190q58 48 101 48q46 0 46 -42q0 -22 -16.5 -44t-28.5 -22q-11 0 -24 18q-18 24 -33 24q-39 0 -143 -118q-3 -4 -1 -6q38 -90 83 -161q29 -48 50 -48q25 0 78 72l18 -20q-36 -62 -77.5 -93t-65.5 -31
q-17 0 -29 12t-32 52q-21 43 -71 168q-1 4 -5 2q-29 -35 -39 -53q-10 -17 -15 -36q-13 -37 -41 -138q-14 -1 -38.5 2.5t-33.5 7.5q117 420 166 635q-3 18 -21.5 30.5t-41.5 12.5q-58 0 -95.5 -69.5t-77.5 -248.5q-31 -137 -80 -348q-25 -111 -91 -186t-137 -75
q-30 0 -49 15.5t-19 35.5q0 19 16 35.5t33 16.5q15 0 43 -28q21 -20 33 -20q13 0 23.5 7t28.5 45.5t34 109.5q46 210 81 363q88 383 281 383q47 0 76 -18q19 2 41 18z" />
    <glyph glyph-name="longs_l" unicode="&#x17f;l" horiz-adv-x="505" 
d="M520 716h23q-8 -22 -30 -98q-15 -56 -67.5 -254.5t-72.5 -271.5q-12 -40 4 -40q31 0 93 90l18 -20q-33 -59 -78.5 -96.5t-88.5 -37.5q-31 0 -31 44q0 33 38 165q103 382 114 440q-3 18 -21.5 30.5t-41.5 12.5q-58 0 -95.5 -69.5t-77.5 -248.5q-52 -234 -80 -348
q-26 -112 -91.5 -186.5t-136.5 -74.5q-30 0 -49 15.5t-19 34.5q0 20 16 36.5t33 16.5q15 0 43 -28q21 -20 33 -20q13 0 23.5 7t28.5 45.5t34 108.5q43 198 81 364q88 383 281 383q47 0 76 -18q19 2 41 18z" />
    <glyph glyph-name="longs_longs" unicode="&#x17f;&#x17f;" horiz-adv-x="507" 
d="M172 -232q-28 0 -48 14.5t-20 32.5q0 17 17.5 37t34.5 20q3 0 7 -2t6.5 -4t9 -7.5t10.5 -9.5q26 -25 45 -25q13 0 22.5 8t26 47t32.5 110q12 52 44.5 197t45.5 201q50 213 149 289q49 38 103 38q36 0 55 -13t19 -30q0 -18 -15 -36.5t-29 -18.5q-8 0 -13.5 4.5t-22.5 23.5
q-21 28 -42 28q-34 0 -61.5 -59.5t-59.5 -199.5q-74 -339 -85 -384q-26 -117 -91.5 -189t-139.5 -72zM-101 -247q-28 0 -48.5 14.5t-20.5 33.5q0 16 17.5 36t33.5 20q7 0 35 -23q26 -24 41 -24q13 0 23 7t27.5 44.5t33.5 107.5q3 12 39 175.5t58 252.5q37 151 100 228.5
t140 77.5q35 0 54.5 -11.5t19.5 -27.5q-1 -18 -17 -35t-34 -17q-15 0 -40 32q-13 18 -30 18q-29 0 -54.5 -52t-55.5 -187q-8 -35 -44.5 -199.5t-47.5 -209.5q-29 -118 -93.5 -189.5t-136.5 -71.5z" />
    <glyph glyph-name="longs_longs_i" unicode="&#x17f;&#x17f;i" horiz-adv-x="798" 
d="M166 -247q-28 0 -48 14.5t-20 33.5q0 16 17.5 36t33.5 20q4 0 7.5 -2t6.5 -4t9.5 -8t10.5 -9q24 -23 43 -23q13 0 23 6.5t27 42.5t32 103q13 53 44 186t44 188q90 378 282 378q61 0 91 -27t30 -59q0 -25 -16.5 -42.5t-39.5 -17.5q-18 0 -29 12t-11 27q0 10 5.5 25t5.5 23
q0 28 -46 28q-66 0 -108.5 -78t-81.5 -247q-32 -140 -83 -344q-29 -112 -93.5 -187t-135.5 -75zM757 143l17 -20q-36 -61 -82.5 -98t-89.5 -37q-49 0 -14 107q43 133 90 266q8 24 -3 24q-23 0 -82 -63l-15 21q36 48 84 80.5t82 32.5q22 0 22 -27q0 -14 -17 -69
q-32 -105 -90 -274q-11 -34 3 -34q12 0 37.5 23t57.5 68zM-99 -247q-29 0 -48 15.5t-19 34.5q0 20 15.5 36.5t33.5 16.5q15 0 43 -28q20 -20 33 -20t23 7t27.5 45t34.5 109q8 37 40.5 190t53.5 239q37 150 100.5 227.5t141.5 77.5q34 0 53 -13.5t19 -31.5t-15.5 -33.5
t-34.5 -15.5q-14 0 -40 34q-13 18 -30 18q-30 0 -55.5 -49.5t-55.5 -182.5q-1 -6 -39.5 -185.5t-51.5 -229.5q-28 -112 -93 -186.5t-136 -74.5z" />
    <glyph glyph-name="longs_longs_l" unicode="&#x17f;&#x17f;l" horiz-adv-x="766" 
d="M783 716h23q-13 -37 -31 -98q-24 -85 -77 -284t-65 -242q-10 -40 4 -40q31 0 93 90l19 -20q-34 -59 -79 -96.5t-88 -37.5q-32 0 -32 44q0 24 38 165q116 436 117 439q-4 18 -22.5 31t-41.5 13q-58 0 -95.5 -69.5t-77.5 -248.5q-29 -130 -77 -333q-27 -112 -92 -187
t-136 -75q-28 0 -48.5 14.5t-20.5 33.5q0 16 16 34t33 18q7 0 33 -23q24 -22 43 -22q13 0 24 7.5t28.5 46t33.5 108.5q56 250 79 349q88 383 280 383q47 0 79 -19q16 2 40 19zM-98 -247q-30 0 -49 15.5t-19 35.5q0 19 16 35.5t33 16.5q15 0 43 -28q21 -20 33 -20
q10 0 17.5 4.5t19 18.5t24 49t24.5 89q8 37 40.5 190t53.5 239q37 150 100.5 227.5t141.5 77.5q34 0 53 -13.5t19 -31.5t-15.5 -33.5t-34.5 -15.5q-14 0 -40 34q-13 18 -30 18q-30 0 -55 -49.5t-56 -182.5q-7 -30 -26.5 -123t-37.5 -174t-27 -118q-28 -112 -92.5 -186.5
t-135.5 -74.5z" />
    <glyph glyph-name="gamma_gamma" unicode="&#x3b3;&#x3b3;" horiz-adv-x="882" 
d="M49 324l-19 21q62 111 127 111q24 0 39 -24.5t21 -85.5q14 -125 10 -281q6 9 31.5 53t42.5 71t46.5 72.5t53 74.5t52 59.5t54.5 45.5t49 15q27 0 41.5 -24t24.5 -85q19 -129 19 -293q106 152 128 194q20 38 26 67q4 17 -2 51q-8 39 -8 40q3 17 24 33.5t45 16.5
q17 0 23 -23.5t0 -45.5q-11 -53 -54 -122.5t-102 -147t-74 -102.5q-11 -17 -16 -40q-25 -140 -29 -158q-4 -22 -23 -36t-41 -14q-46 0 -36 36q4 16 14 40.5t19.5 43.5t21.5 44t15 31q6 15 8 30q6 74 -5 170t-30 171q-11 46 -34 46q-28 0 -81 -67q-35 -46 -100.5 -146
t-98.5 -157q-13 -23 -15 -40q-5 -29 -20.5 -91.5t-21.5 -81.5q-7 -19 -23.5 -31t-37.5 -12t-30.5 8.5t-6.5 23.5q3 13 8 28.5t16 38t16 33t22 42.5t20 37q6 10 8 27q7 80 -2 183.5t-28 172.5q-11 42 -26 42q-9 0 -27.5 -18.5t-33.5 -46.5z" />
    <glyph glyph-name="lambda_lambda" unicode="&#x3bb;&#x3bb;" horiz-adv-x="917" 
d="M132 581l-18 18q60 105 134 105q43 0 63 -44.5t33 -164.5q43 -371 44 -375q8 -52 27 -52q10 0 22 12t33 41q50 68 185 278q13 20 25 36t20 26.5t9 11.5q-18 166 -93 166q-11 0 -21 -2t-17 -4t-17 -8t-14 -9t-16.5 -12t-16.5 -12l-15 16q66 107 143 107q46 0 68.5 -48.5
t34.5 -174.5q24 -260 44 -395q5 -42 26 -42q31 0 82 82l19 -15q-28 -64 -64 -99.5t-69 -35.5q-45 0 -51 88q-14 184 -17 305q-36 -61 -184 -298q-62 -95 -126 -95q-26 0 -43 15t-23 55q-10 56 -28 326q-85 -146 -208 -339q-36 -56 -45 -56q-20 0 -43.5 6.5t-25.5 15.5
q17 21 134.5 197.5t127.5 188.5q42 65 56 77q-4 32 -6.5 51t-8.5 42t-13.5 35.5t-20 21t-29.5 8.5q-42 0 -97 -50z" />
    <glyph glyph-name=".notdef" horiz-adv-x="500" 
d="M0 0v700h500v-700h-500zM250 395l170 255h-340zM280 350l170 -255v510zM80 50h340l-170 255zM50 605v-510l170 255z" />
    <glyph glyph-name=".null" horiz-adv-x="0" 
 />
    <glyph glyph-name="nonmarkingreturn" horiz-adv-x="333" 
 />
    <glyph glyph-name="space" unicode=" " horiz-adv-x="213" 
 />
    <glyph glyph-name="exclam" unicode="!" horiz-adv-x="306" 
d="M129 -10q-23 0 -38 17t-11 45t22.5 45.5t44.5 17.5t39 -18.5t9 -44.5q-4 -29 -23.5 -45.5t-42.5 -16.5zM183 212h-29q9 62 20 144.5t18.5 135.5t12.5 84q6 35 24.5 60.5t46.5 25.5t35.5 -31.5t-5.5 -69.5q-9 -32 -27.5 -83.5t-46.5 -129t-49 -136.5z" />
    <glyph glyph-name="quotedbl" unicode="&#x22;" horiz-adv-x="392" 
d="M166 452h-27q4 26 17.5 109t16.5 99l4 18q21 7 49 7q31 0 46 -5l-5 -19q-43 -98 -101 -209zM316 452h-27q20 120 33 208l6 18q19 7 49 7t45 -5l-5 -19q-59 -129 -101 -209z" />
    <glyph glyph-name="numbersign" unicode="#" horiz-adv-x="497" 
d="M433 261l-28 -65h-86l-70 -192h-39l71 192h-123l-74 -192h-40l75 192h-83l26 65h82l54 141h-85l25 66h84l67 177h38l-67 -177h125l66 177h37l-66 -177h86l-27 -66h-82l-53 -141h87zM360 402h-122l-56 -141h125z" />
    <glyph glyph-name="dollar" unicode="$" horiz-adv-x="481" 
d="M269 286l-71 -250q18 -2 24 -2q58 0 96 35.5t38 88.5q0 75 -87 128zM267 385l68 233q-3 0 -7.5 0.5t-6.5 0.5q-57 0 -92.5 -33t-35.5 -88q0 -20 3.5 -34.5t20.5 -36.5t50 -42zM298 371q74 -47 108 -86.5t34 -94.5q0 -86 -62 -137t-159 -51q-8 0 -30 2l-22 -86h-37l26 90
q-52 11 -96 42q-16 -3 -34 -13l-20 7q16 44 43 182l29 -2q-10 -150 87 -182l76 258q-65 43 -94.5 80t-29.5 90q0 82 55.5 131t144.5 49q16 0 25 -1l24 88h36l-26 -92q43 -5 81 -28q5 0 32 15h25q-30 -59 -58 -169h-26q17 128 -62 151z" />
    <glyph glyph-name="percent" unicode="%" horiz-adv-x="759" 
d="M689 675l24 -23l-592 -686l-25 26l515 590q-65 -32 -144 -32q-47 0 -84 10q5 -18 5 -39q-2 -90 -54.5 -161.5t-129.5 -71.5q-55 0 -82.5 34t-27.5 87q0 88 53 158.5t132 70.5q34 0 71 -22q53 -36 121 -36q98 0 170 47zM208 316q47 0 80 75.5t33 153.5q0 65 -47 65
q-29 0 -51.5 -25t-35 -61.5t-19 -72.5t-6.5 -65q0 -70 46 -70zM599 340q46 0 77 -30.5t31 -86.5q0 -87 -56 -160t-133 -73q-54 0 -80.5 33.5t-26.5 88.5q0 83 55 155.5t133 72.5zM523 18q33 0 61 38.5t42 90t14 96.5q0 69 -46 69q-38 0 -66 -42t-39 -90.5t-11 -87.5
q0 -74 45 -74z" />
    <glyph glyph-name="ampersand" unicode="&#x26;" horiz-adv-x="780" 
d="M158 202q94 88 145 154q12 13 12 25q0 27 -22 52t-49 25q-42 0 -69 -51t-27 -121q0 -44 10 -84zM306 -16q-106 0 -168 71t-62 180q0 73 35.5 140t98.5 108q41 25 72 25q27 0 53.5 -16.5t40.5 -50.5q67 89 82 122q4 11 0 18t-18 22q-12 12 -13 32q0 21 15.5 38.5
t42.5 17.5q19 0 30.5 -12t14 -22.5t2.5 -20.5q0 -15 -10.5 -36t-21.5 -37.5t-36 -51.5q-73 -103 -138.5 -177.5t-156.5 -163.5q19 -52 62.5 -82t106.5 -30q106 0 177 84t82 219q-75 15 -91 15q-15 0 -29 -11.5t-14 -24.5t21 -28q15 -12 15 -33q0 -20 -14 -33t-32 -13t-32 16
t-14 39q0 43 51.5 98.5t96.5 55.5q23 0 80 -10.5t81 -10.5q12 0 24 13.5t13 25.5q0 13 -31 54q-9 12 -6 22q12 35 53 35q17 0 28.5 -19t11.5 -46q0 -20 -23.5 -59t-60.5 -71q-16 -15 -34 -19t-53 0q-24 -170 -112.5 -271.5t-219.5 -101.5z" />
    <glyph glyph-name="quotesingle" unicode="'" horiz-adv-x="244" 
d="M166 452h-29q8 39 33 208l5 18q19 7 52 7q31 0 48 -5l-5 -19q-46 -98 -104 -209z" />
    <glyph glyph-name="parenleft" unicode="(" horiz-adv-x="405" 
d="M446 717l12 -24q-151 -102 -222.5 -236t-71.5 -309q0 -166 84 -292l-22 -18q-59 55 -97.5 147.5t-38.5 198.5q0 173 96.5 312.5t259.5 220.5z" />
    <glyph glyph-name="parenright" unicode=")" horiz-adv-x="405" 
d="M-10 -162l-12 25q151 102 222.5 235.5t71.5 308.5q0 165 -84 292l21 18q59 -55 98 -147.5t39 -198.5q0 -173 -96.5 -312.5t-259.5 -220.5z" />
    <glyph glyph-name="asterisk" unicode="*" horiz-adv-x="394" 
d="M444 519q2 -13 -7.5 -24t-24.5 -13q-16 -2 -51.5 2.5t-70.5 1.5l-3 -8q17 -18 49.5 -41.5t43.5 -33.5q12 -12 12 -27.5t-10 -23.5q-9 -11 -24.5 -10t-27.5 16q-6 8 -22 46t-35 64h-4q-10 -36 -13.5 -74.5t-7.5 -51.5q-4 -12 -18 -18.5t-26 -2.5q-33 13 -20 47
q5 13 28.5 41.5t39.5 62.5l-4 4q-22 -3 -61 -20t-53 -20q-17 -7 -30.5 1.5t-14.5 23.5q-3 13 4 24.5t25 14.5q13 1 55.5 -3.5t69.5 -2.5l3 7q-16 18 -50 41t-44 34q-12 12 -12 27.5t9 23.5q7 10 22.5 10t28.5 -15q11 -13 27.5 -52.5t30.5 -59.5l5 3q9 28 12.5 71.5t7.5 52.5
q15 32 46 24q13 -5 18 -20t-1 -30q-5 -12 -28.5 -44t-35.5 -58l4 -5q34 7 70 24.5t49 19.5q37 4 39 -29z" />
    <glyph glyph-name="plus" unicode="+" horiz-adv-x="636" 
d="M290 272v219h59v-219h212v-59h-212v-225h-59v225h-215v59h215z" />
    <glyph glyph-name="comma" unicode="," horiz-adv-x="267" 
d="M-12 -143l-9 28q66 23 98 53t32 60q0 15 -15 20q-26 8 -38 17q-9 7 -9 29t15.5 40.5t44.5 18.5t46 -22t17 -57q0 -74 -54.5 -121t-127.5 -66z" />
    <glyph glyph-name="hyphen" unicode="-" horiz-adv-x="325" 
d="M43 206l14 56h223l-13 -56h-224z" />
    <glyph glyph-name="period" unicode="." horiz-adv-x="266" 
d="M92 -11q-22 0 -37.5 17.5t-11.5 47.5q4 27 22.5 45.5t44.5 18.5q27 0 41 -20t9 -47q-5 -32 -24.5 -47t-43.5 -15z" />
    <glyph glyph-name="slash" unicode="/" horiz-adv-x="394" 
d="M452 684l-411 -757h-47l409 757h49z" />
    <glyph glyph-name="zero" unicode="0" horiz-adv-x="481" 
d="M333 608q-48 0 -87 -52q-52 -70 -87 -195t-35 -221q0 -62 17 -91.5t55 -29.5q53 0 96 73q46 76 78 195.5t32 202.5q0 61 -15.5 89.5t-53.5 28.5zM341 640q73 0 107.5 -49.5t34.5 -132.5q0 -94 -38.5 -211.5t-105.5 -187.5q-70 -72 -151 -72q-145 0 -145 188q0 61 19 137
t53.5 151.5t94 126t131.5 50.5z" />
    <glyph glyph-name="one" unicode="1" horiz-adv-x="481" 
d="M56 0l7 28q65 5 85.5 15t28.5 42l115 462q2 7 -4 7q-55 7 -81 8l8 26q90 10 159 53h24q-19 -66 -28 -103l-112 -456q-7 -29 7.5 -39.5t79.5 -14.5l-7 -28h-282z" />
    <glyph glyph-name="two" unicode="2" horiz-adv-x="481" 
d="M2 0l4 26q127 100 224 195q135 132 135 247q0 49 -23.5 81t-76.5 32q-72 0 -147 -96l-21 19q85 137 206 137q62 0 104 -41t42 -110q0 -72 -38.5 -136t-135.5 -150q-25 -21 -82.5 -68t-81.5 -67q130 0 200 2q34 1 62 21.5t62 62.5l21 -14q-44 -67 -77 -143q-3 0 -17.5 0.5
t-38.5 1t-52 0.5h-269z" />
    <glyph glyph-name="three" unicode="3" horiz-adv-x="481" 
d="M133 508l-19 20q84 112 189 112q62 0 95.5 -36.5t33.5 -80.5q0 -106 -150 -168q53 -8 95.5 -42.5t42.5 -96.5q0 -55 -28 -103t-75 -81q-61 -45 -147 -45q-67 0 -109 31q-37 27 -37 53q0 19 14 32.5t28 13.5q19 0 42 -53q14 -31 28 -39q13 -7 41 -7q68 0 112 52t44 126
q0 117 -112 117q-36 0 -60 -9l9 28q94 36 138.5 76.5t44.5 92.5q0 36 -20 60t-65 24q-66 0 -135 -77z" />
    <glyph glyph-name="four" unicode="4" horiz-adv-x="481" 
d="M222 0l49 198l-263 -4l11 33q61 76 205 226t191 188h37l-91 -392q94 3 115 6l2 -6q-17 -31 -23 -49h-106l-45 -200h-82zM282 246l79 304q-53 -52 -147.5 -154.5t-135.5 -153.5z" />
    <glyph glyph-name="five" unicode="5" horiz-adv-x="481" 
d="M447 653l19 -15q-30 -40 -58 -89h-186q-6 -1 -8 -5q-28 -52 -54 -114q-3 -5 2 -7q75 -26 142 -62q63 -32 90 -69.5t27 -88.5q0 -104 -87 -169q-63 -47 -146 -47q-74 0 -124 35q-38 26 -38 55q0 15 13 29t32 14q12 0 20.5 -11t23.5 -43q13 -31 29 -39q22 -8 49 -8
q65 0 106.5 39.5t41.5 104.5q0 30 -7 51t-30.5 46.5t-72.5 51.5t-128 57v14q15 36 57.5 124t61.5 119h167q18 0 29 5t29 22z" />
    <glyph glyph-name="six" unicode="6" horiz-adv-x="481" 
d="M478 645l7 -26q-223 -68 -305 -244q63 46 135 46q55 0 95.5 -41t39.5 -118q-2 -120 -85 -203q-68 -71 -156 -71q-70 0 -117 47.5t-47 139.5q0 168 122 302t311 168zM277 381q-49 0 -86 -28q-29 -22 -43 -63q-22 -54 -22 -137q0 -66 23 -99.5t65 -33.5q60 0 103 73.5
t45 170.5q1 56 -21.5 86.5t-63.5 30.5z" />
    <glyph glyph-name="seven" unicode="7" horiz-adv-x="481" 
d="M522 626v-16q-3 -7 -85 -142q-120 -197 -296 -468h-65l-1 6q65 79 187 258.5t186 287.5h-241q-54 0 -90 -10l-3 6q23 38 38 82q32 -4 94 -4h276z" />
    <glyph glyph-name="eight" unicode="8" horiz-adv-x="481" 
d="M233 298q-61 -44 -88.5 -84t-27.5 -88q0 -47 26.5 -77t76.5 -30q56 0 89.5 35.5t33.5 80.5q0 40 -20.5 73.5t-89.5 89.5zM210 -13q-81 0 -122.5 43t-41.5 96q0 56 38 96t129 96q-44 40 -62 73.5t-18 74.5q0 63 54 119t135 56q65 0 101.5 -37.5t36.5 -90.5
q0 -50 -35.5 -88.5t-113.5 -86.5q61 -50 85 -87.5t24 -73.5q0 -78 -62.5 -134t-147.5 -56zM290 357q106 73 106 156q0 40 -21.5 68.5t-66.5 28.5q-48 0 -77 -35t-29 -78q0 -38 17 -66.5t71 -73.5z" />
    <glyph glyph-name="nine" unicode="9" horiz-adv-x="481" 
d="M73 -21l-9 27q106 37 179 106.5t113 155.5q-53 -47 -129 -47q-63 0 -102 42.5t-39 118.5q0 95 68 176.5t164 81.5q77 0 118.5 -49t41.5 -136q0 -96 -37 -182t-96 -145t-130 -98t-142 -51zM314 609q-60 0 -102.5 -75t-42.5 -158q0 -59 25 -87.5t67 -28.5q48 0 83 30
q23 20 35 56q20 60 20 127q0 73 -20.5 104.5t-64.5 31.5z" />
    <glyph glyph-name="colon" unicode=":" horiz-adv-x="357" 
d="M132 -11q-23 0 -38 17.5t-11 47.5q4 27 22.5 45t45.5 18q26 0 40 -20t10 -47q-6 -32 -26 -46.5t-43 -14.5zM200 296q-22 0 -37.5 18t-11.5 48q4 27 22.5 44.5t45.5 17.5q26 0 40 -20t9 -45q-6 -32 -25.5 -47.5t-42.5 -15.5z" />
    <glyph glyph-name="semicolon" unicode=";" horiz-adv-x="357" 
d="M199 296q-22 0 -37.5 18t-10.5 48q4 27 22.5 44.5t44.5 17.5t40.5 -20t9.5 -45q-6 -32 -25.5 -47.5t-43.5 -15.5zM25 -143l-9 28q66 23 98 53t32 61q0 14 -15 20q-26 8 -38 17q-9 7 -9 29t15.5 40.5t44.5 18.5t46 -22t17 -57q0 -74 -54.5 -121.5t-127.5 -66.5z" />
    <glyph glyph-name="less" unicode="&#x3c;" horiz-adv-x="636" 
d="M551 51v-69l-467 228v58l467 227v-68l-394 -184z" />
    <glyph glyph-name="equal" unicode="=" horiz-adv-x="636" 
d="M562 370v-60h-487v60h487zM562 166v-58h-487v58h487z" />
    <glyph glyph-name="greater" unicode="&#x3e;" horiz-adv-x="636" 
d="M84 428v67l467 -227v-58l-467 -228v70l395 184z" />
    <glyph glyph-name="question" unicode="?" horiz-adv-x="462" 
d="M248 208l-20 -19q-62 47 -62 104q0 40 50 73q13 9 31.5 20t43 24.5t38.5 21.5q39 24 39 68q0 28 -14 52t-37 33q-16 5 -37 -1q-7 -2 -28.5 -13t-27.5 -11q-15 0 -27.5 16t-12.5 34q0 21 17 35.5t43 14.5q63 0 112 -53t49 -133q0 -84 -63 -130q-15 -9 -50 -28t-46 -26
q-24 -14 -24 -26q0 -27 26 -56zM178 -10q-23 0 -38.5 17t-11.5 45q5 28 24 45.5t45 17.5q25 0 38 -18.5t9 -44.5q-4 -29 -23 -45.5t-43 -16.5z" />
    <glyph glyph-name="at" unicode="@" horiz-adv-x="872" 
d="M650 -78l14 -27q-106 -95 -278 -95q-64 0 -122 20t-106.5 59t-77.5 104.5t-29 149.5q0 98 38.5 185.5t101.5 147.5t145.5 94.5t170.5 34.5q145 0 229 -82.5t84 -200.5q0 -126 -83 -213.5t-190 -87.5q-49 0 -62 22.5t-2 64.5q3 10 27 83q-54 -84 -113.5 -128t-106.5 -44
q-26 0 -39 22t-13 52q0 62 38.5 137t102.5 129.5t129 54.5q49 0 63 -31l14 41q27 -10 70 0q-77 -213 -105 -312q-9 -22 -6 -38.5t26 -16.5q70 0 137.5 74.5t67.5 188.5q0 113 -78.5 181t-195.5 68q-113 0 -203 -62.5t-136 -158.5t-46 -204q0 -126 73 -208.5t216 -82.5
q145 0 245 79zM562 346q-16 23 -53 23q-43 0 -89.5 -51t-74.5 -114.5t-28 -106.5q0 -33 20 -33q46 0 117.5 85.5t107.5 196.5z" />
    <glyph glyph-name="A" unicode="A" horiz-adv-x="642" 
d="M-56 0l7 28q47 6 69 17.5t45 43.5q16 23 345 519q8 14 11 37h71q8 -171 34 -557q2 -27 9.5 -36.5t30.5 -15.5q14 -3 49 -8l-5 -28h-258l6 28q60 8 73 16t11 42q-4 98 -9 170q-115 3 -213 -7q-71 -103 -102 -165q-10 -19 -7.5 -28t20.5 -15q16 -7 68 -13l-7 -28h-248z
M431 292q-14 240 -16 267q-22 -35 -84 -132.5t-88 -140.5q64 6 188 6z" />
    <glyph glyph-name="B" unicode="B" horiz-adv-x="609" 
d="M237 330l-52 -210q0 -1 -2.5 -12.5t-3.5 -15t-1.5 -13t1.5 -14.5t6 -11t11 -10q25 -13 72 -13q88 0 142 48q55 50 55 127q0 67 -45 95.5t-135 28.5h-48zM245 363h55q100 0 146.5 42t46.5 107q0 53 -33.5 77.5t-86.5 24.5q-32 0 -51 -8q-17 -6 -22 -28zM-18 0l5 28
q60 5 78.5 16t27.5 47l117 468q7 31 -9.5 41.5t-80.5 16.5l8 28h247q76 0 121 -16q85 -30 85 -118q0 -66 -51.5 -109.5t-126.5 -52.5q74 -12 115.5 -49.5t41.5 -97.5q0 -92 -82 -149q-81 -53 -220 -53h-276z" />
    <glyph glyph-name="C" unicode="C" horiz-adv-x="639" 
d="M608 461h-28q8 106 -37 141q-31 26 -86 26q-117 0 -199 -122t-82 -276q0 -210 165 -210q66 0 123 47q43 36 94 108l24 -12q-59 -101 -89 -159q-25 0 -55 -6q-63 -14 -111 -14q-113 0 -181 72t-68 190q0 71 25 142.5t76 134.5t121 99q74 38 163 38q85 0 148 -34
q10 5 38 22h22q-36 -88 -63 -187z" />
    <glyph glyph-name="D" unicode="D" horiz-adv-x="693" 
d="M299 573l-118 -475q-9 -36 9 -50q24 -18 76 -18q122 0 205 91q48 54 75.5 125.5t27.5 141.5q0 113 -49.5 170t-155.5 57q-41 0 -54 -12q-12 -12 -16 -30zM-18 0l6 28q61 5 79 15.5t27 46.5l117 469q7 31 -9.5 41.5t-80.5 16.5l8 28h248q114 0 187 -49q100 -67 100 -217
q0 -89 -40.5 -170.5t-113.5 -134.5q-100 -74 -252 -74h-276z" />
    <glyph glyph-name="E" unicode="E" horiz-adv-x="620" 
d="M-24 0l7 28q61 5 81.5 16t29.5 47l117 468q7 31 -9.5 42t-80.5 16l7 28h373q87 0 124 6q-33 -81 -51 -181h-28q2 41 -2 86q-3 32 -18.5 44.5t-53.5 12.5h-130q-21 0 -29 -5.5t-12 -21.5l-59 -239h90q46 0 68.5 24t49.5 84h29q-45 -138 -67 -259h-29q1 36 1 62t-14 40.5
t-45 14.5h-91l-56 -224q-12 -56 44 -56h127q62 0 108 35q45 36 103 118l25 -14q-52 -91 -85 -174q-56 2 -146 2h-378z" />
    <glyph glyph-name="F" unicode="F" horiz-adv-x="583" 
d="M-19 0l7 28q60 5 78.5 16t27.5 47l117 468q7 31 -9.5 42t-80.5 16l7 28h396q84 0 116 6q-33 -78 -52 -181h-28q3 72 -5 103q-6 24 -22 32t-48 8h-141q-23 0 -32 -8t-14 -29l-60 -245h119q43 0 67 26.5t49 81.5h29q-45 -139 -67 -259h-29q0 2 1 16.5t0.5 18.5t-0.5 17
t-1.5 17.5t-3.5 14.5t-6.5 14t-10 9.5t-14 7.5t-18.5 2h-123l-51 -209q-8 -32 10.5 -43t88.5 -17l-7 -28h-290z" />
    <glyph glyph-name="G" unicode="G" horiz-adv-x="682" 
d="M669 300l-6 -28q-44 -4 -59 -11.5t-24 -31.5q-9 -25 -44 -169q8 -8 36 -11l-5 -19q-4 -1 -25 -7.5t-30 -9t-29.5 -8.5t-34 -8.5t-32.5 -6t-36.5 -5t-34.5 -1.5q-128 0 -197 71.5t-69 186.5q0 109 48 204t139 154.5t206 59.5q93 0 153 -37q18 4 45 22h22
q-43 -110 -62 -196h-30q10 113 -43 154q-34 25 -94 25q-66 0 -122.5 -36.5t-92.5 -94t-56 -126t-20 -134.5q0 -114 51 -166t133 -52q39 0 65 10q22 10 31 37q24 73 39 148q5 31 -12 42t-87 16l7 28h270z" />
    <glyph glyph-name="H" unicode="H" horiz-adv-x="726" 
d="M-19 0l7 28q60 5 78.5 15.5t27.5 46.5l117 469q7 31 -9.5 41.5t-80.5 16.5l7 28h278l-6 -28q-60 -5 -78.5 -15.5t-27.5 -46.5l-50 -200h305l52 204q7 31 -9 41.5t-80 16.5l7 28h278l-6 -28q-60 -5 -79 -15.5t-28 -45.5l-115 -468q-8 -33 8 -43.5t81 -16.5l-8 -28h-278
l7 28q60 5 78.5 16t27.5 47l56 229h-306l-56 -232q-8 -33 8 -43.5t80 -16.5l-7 -28h-279z" />
    <glyph glyph-name="I" unicode="I" horiz-adv-x="336" 
d="M-19 0l7 28q60 5 78.5 15.5t27.5 46.5l117 469q7 31 -9.5 41.5t-80.5 16.5l7 28h279l-6 -28q-60 -5 -79 -16t-28 -46l-115 -467q-8 -33 8 -43.5t81 -16.5l-8 -28h-279z" />
    <glyph glyph-name="J" unicode="J" horiz-adv-x="332" 
d="M130 617l7 28h279l-6 -28q-59 -5 -76 -15.5t-26 -46.5q-86 -354 -104 -423q-45 -170 -126 -248q-37 -36 -78.5 -54.5t-74.5 -18.5q-34 0 -60.5 16t-26.5 38q0 20 17.5 38.5t36.5 18.5q14 0 45 -37q20 -25 44 -25q59 0 107 160q54 178 137 538q7 31 -11.5 42t-83.5 17z
" />
    <glyph glyph-name="K" unicode="K" horiz-adv-x="655" 
d="M-19 0l7 28q60 5 78.5 16t27.5 47l117 469q7 31 -9.5 41.5t-80.5 15.5l7 28h279l-6 -28q-60 -5 -79 -15.5t-28 -46.5l-60 -242q64 42 149 117t127 119q31 35 31 45q0 9 -13 13.5t-58 10.5l7 27h250l-7 -28q-56 -5 -90.5 -20.5t-81.5 -58.5q-42 -39 -202 -179q-4 -3 -2 -8
q24 -40 93 -144.5t94 -138.5q15 -21 34.5 -28t68.5 -12l-6 -28h-259l6 28q63 8 63 22q0 4 -3 10q-80 129 -156 243q-3 6 -9 2l-47 -33l-44 -184q-8 -33 8 -43.5t81 -16.5l-8 -28h-279z" />
    <glyph glyph-name="L" unicode="L" horiz-adv-x="612" 
d="M-23 0l6 28q62 5 82 15.5t29 46.5l118 468q8 31 -9 42t-81 17l7 28h279l-6 -28q-61 -5 -80 -16t-27 -47l-116 -464q-8 -32 2.5 -45t45.5 -13h111q53 0 97 33q57 41 122 139l24 -15q-61 -105 -101 -194q-75 5 -154 5h-349z" />
    <glyph glyph-name="M" unicode="M" horiz-adv-x="904" 
d="M-33 0l6 28q60 8 81 23t42 70q21 54 75.5 210.5t79.5 222.5q13 36 -16 47q-23 9 -85 16l7 28h169q24 -134 111 -513q37 56 120.5 181t145 217.5t74.5 114.5h180l-7 -28q-68 -7 -90 -17.5t-28 -44.5q-64 -366 -79 -467q-5 -32 11.5 -42t73.5 -18l-5 -28h-285l6 28
q64 6 84 16t27 44q60 286 89 463q-289 -439 -357 -551h-24q-10 62 -51.5 268.5t-50.5 257.5q-93 -267 -130 -412q-12 -45 5.5 -60.5t94.5 -25.5l-6 -28h-268z" />
    <glyph glyph-name="N" unicode="N" horiz-adv-x="714" 
d="M-25 0l7 28q61 4 82.5 24.5t38.5 84.5q86 328 108 415q3 9 -3 23t-19 22q-15 10 -87 20l7 28h163l265 -526q68 274 93 385q15 69 -0.5 88.5t-93.5 24.5l7 28h254l-5 -28q-61 -6 -80.5 -23.5t-39.5 -89.5q-38 -139 -106 -427q-1 -12 7 -25q9 -19 31 -31l-7 -21h-99
l-257 520q-55 -211 -94 -391q-14 -63 5 -78.5t93 -22.5l-6 -28h-264z" />
    <glyph glyph-name="O" unicode="O" horiz-adv-x="677" 
d="M77 221q0 100 47.5 206t128.5 170q82 64 181 64q103 0 162 -65t59 -171q0 -105 -41.5 -199.5t-113.5 -158.5q-93 -83 -200 -83q-105 0 -164 64.5t-59 172.5zM306 19q58 0 109 43t82 107.5t49 133t18 124.5q0 103 -31.5 151t-103.5 48q-61 0 -112.5 -43t-83 -108.5
t-48.5 -135.5t-17 -131q0 -100 34.5 -144.5t103.5 -44.5z" />
    <glyph glyph-name="P" unicode="P" horiz-adv-x="588" 
d="M298 570l-70 -285q24 -3 48 -3q111 0 170.5 57t59.5 144q0 132 -133 132q-35 0 -53 -10q-15 -8 -22 -35zM-18 0l6 28q61 5 79.5 15.5t26.5 46.5l118 469q7 31 -9.5 41.5t-80.5 16.5l7 28h248q89 0 139 -27q79 -42 79 -136q0 -58 -29 -108t-79 -79q-80 -46 -212 -46
q-19 0 -55 3l-41 -164q-7 -32 8.5 -42t85.5 -18l-7 -28h-284z" />
    <glyph glyph-name="Q" unicode="Q" horiz-adv-x="677" 
d="M304 16q58 0 109 44t82.5 109t50 134.5t18.5 125.5q0 199 -136 199q-61 0 -112.5 -43.5t-82.5 -109t-48 -136t-17 -131.5q0 -102 34 -147t102 -45zM746 -123l-7 -31q-58 -26 -160 -26q-75 0 -147 51q-53 37 -132 106q-8 8 -18 8q-96 4 -150.5 68.5t-54.5 167.5
q0 101 47.5 208t128.5 170q80 61 183 61q104 0 161.5 -64t57.5 -173q0 -88 -32.5 -173.5t-88.5 -149.5q-63 -69 -138 -98q74 -70 131 -105q54 -34 111 -34q58 0 108 14z" />
    <glyph glyph-name="R" unicode="R" horiz-adv-x="609" 
d="M-19 0l6 28q61 5 79.5 15.5t27.5 46.5l117 469q7 31 -9.5 41.5t-80.5 16.5l8 28h252q82 0 124 -19q79 -35 79 -119q0 -72 -50 -121t-133 -69q-6 -2 -3 -7q72 -171 112 -235q17 -27 33 -34t60 -13l-6 -28q-34 -2 -84 -2q-40 0 -55.5 9.5t-35.5 45.5q-20 39 -39.5 85
t-35 87.5t-19.5 49.5q-8 16 -13.5 20t-20.5 4h-63l-53 -211q-7 -33 9 -43.5t81 -16.5l-8 -28h-279zM237 330h38q61 0 105 16q114 41 114 156q0 55 -32.5 83.5t-89.5 28.5q-42 0 -58 -13q-11 -8 -17 -34z" />
    <glyph glyph-name="S" unicode="S" horiz-adv-x="522" 
d="M508 648h24q-42 -100 -61 -188h-28q3 56 -3 85t-24 49q-29 34 -89 34q-50 0 -84 -35.5t-34 -88.5q0 -41 23.5 -71t95.5 -79q70 -48 99.5 -87.5t29.5 -92.5q0 -89 -71 -144q-58 -46 -140 -46q-93 0 -161 61q-23 -13 -36 -23l-22 7q25 69 52 192l26 -3q-4 -58 11.5 -102.5
t43.5 -68.5q35 -29 89 -29q53 0 89 34t36 88q0 41 -22.5 74t-96.5 83q-67 45 -94 87t-27 93q0 48 23 90t66 67q46 26 109 26q71 0 136 -37q18 7 40 25z" />
    <glyph glyph-name="T" unicode="T" horiz-adv-x="645" 
d="M119 0l7 28q65 5 85 15.5t30 46.5l132 523h-96q-36 0 -67 -27q-34 -30 -80 -117l-27 7q44 114 59 180q40 -11 112 -11h316q75 0 112 8q-35 -93 -52 -183h-29q4 75 -5 108q-11 35 -54 35h-106l-130 -525q-8 -33 9 -43.5t87 -16.5l-7 -28h-296z" />
    <glyph glyph-name="U" unicode="U" horiz-adv-x="693" 
d="M114 617l8 28h279l-7 -28q-60 -5 -79 -16t-28 -46q-79 -323 -85 -356q-11 -56 8 -96q31 -69 137 -69q81 0 128.5 50t74.5 156q10 39 32 129t34 139q16 68 3 85t-86 24l5 28h242l-5 -28q-61 -7 -80 -25.5t-34 -80.5q-48 -204 -64 -264q-35 -129 -89 -189q-69 -74 -187 -74
q-110 0 -162 54q-34 35 -43 87.5t4 93.5l84 340q7 31 -9.5 41.5t-80.5 16.5z" />
    <glyph glyph-name="V" unicode="V" horiz-adv-x="638" 
d="M93 617l8 28h251l-8 -28q-50 -7 -59 -10q-25 -9 -26 -34q-5 -83 -12 -456q249 327 324 446q25 37 -9 45q-8 2 -63 9l7 28h232l-7 -28q-42 -5 -66 -17t-47 -43q-236 -324 -423 -573h-29q6 193 9 574q0 35 -15.5 45t-66.5 14z" />
    <glyph glyph-name="W" unicode="W" horiz-adv-x="940" 
d="M97 617l6 28h250l-6 -28q-4 0 -15 -1t-16 -2l-15 -3t-15 -5.5t-11 -8.5t-9 -12.5t-3 -17.5q-2 -60 -3 -235t-2 -202q218 350 241 389q8 15 8 28q0 26 -1 34q-1 9 -6.5 15.5t-15 10t-17.5 5t-21.5 3t-18.5 2.5l6 28h250l-6 -28q-56 -5 -72 -14t-16 -38q1 -69 7.5 -249.5
t6.5 -191.5q212 349 250 423q14 29 10.5 40.5t-25.5 16.5q-23 6 -71 12l6 29h258l-6 -29q-53 -7 -76.5 -21t-48.5 -54q-37 -62 -173.5 -283t-168.5 -274h-29q-1 41 -4.5 137t-8.5 208t-6 146q-98 -167 -303 -491h-29q2 88 2 574q0 24 -10 36t-23 15.5t-40 6.5q-7 1 -10 1z
" />
    <glyph glyph-name="X" unicode="X" horiz-adv-x="624" 
d="M-39 0l8 28q46 5 71.5 14.5t50.5 36.5q27 30 67 76.5t83 98t58 69.5q-7 20 -40.5 112.5t-49.5 132.5q-12 29 -30 37t-70 12l6 28h251l-6 -28q-35 -3 -52 -6q-14 -3 -17 -9t1 -18q27 -85 71 -201q110 125 157 193q12 16 10.5 23t-16.5 11q-25 5 -55 7l6 28h236l-7 -28
q-54 -6 -82 -17.5t-60 -47.5q-33 -37 -95 -110t-80 -93q61 -169 100 -264q7 -17 16.5 -27t25 -16t28 -8.5t38.5 -5.5l-6 -28h-269l7 28q40 4 52 8q16 4 21 12t0 22q-26 80 -78 218q-117 -139 -167 -211q-12 -19 -9.5 -27.5t21.5 -12.5q4 -1 56 -9l-6 -28h-246z" />
    <glyph glyph-name="Y" unicode="Y" horiz-adv-x="615" 
d="M113 0l7 28q60 5 78 16t28 47l39 155q6 28 4 40q-8 43 -78 275q-11 34 -27 42.5t-65 13.5l6 28h249l-5 -28q-47 -5 -64 -10q-15 -7 -12 -24q19 -78 74 -266q158 204 190 253q20 33 -6 38q-26 6 -55 9l7 28h227l-6 -28q-51 -4 -78 -18t-60 -57q-180 -224 -201 -257
q-10 -13 -16 -38l-39 -159q-8 -33 8.5 -43.5t81.5 -16.5l-8 -28h-279z" />
    <glyph glyph-name="Z" unicode="Z" horiz-adv-x="618" 
d="M567 200l24 -13q-47 -78 -99 -190q-81 3 -131 3h-355l3 21q221 244 509 592h-216q-37 0 -55.5 -5t-39.5 -25q-22 -21 -84 -119l-26 10q33 71 64 183q50 -12 131 -12h237q64 0 106 2l-2 -18q-503 -587 -510 -596h231q49 0 97 37t116 130z" />
    <glyph glyph-name="bracketleft" unicode="[" horiz-adv-x="385" 
d="M276 652l-185 -751q-2 -11 1 -15t15 -4h119l-7 -35h-211q5 16 43 170l130 523q28 114 40 168h205l-8 -35h-111q-15 0 -21 -3.5t-10 -17.5z" />
    <glyph glyph-name="backslash" unicode="\" horiz-adv-x="396" 
d="M234 -73l-65 757h45l64 -757h-44z" />
    <glyph glyph-name="bracketright" unicode="]" horiz-adv-x="385" 
d="M127 -96l185 750q3 11 0 15t-16 4h-119l8 35h210q-9 -29 -43 -171l-129 -522q-38 -157 -41 -168h-204l7 35h112q15 0 20.5 4t9.5 18z" />
    <glyph glyph-name="asciicircum" unicode="^" horiz-adv-x="516" 
d="M112 276h-62l173 361h61l183 -361h-63l-152 307z" />
    <glyph glyph-name="underscore" unicode="_" horiz-adv-x="492" 
d="M0 -123h492v-49h-492v49z" />
    <glyph glyph-name="grave" unicode="`" 
d="M305 523l-27 -11l-116 162l2 11q13 4 47 8t39 2z" />
    <glyph glyph-name="a" unicode="a" horiz-adv-x="509" 
d="M467 143l20 -21q-35 -62 -83 -98t-81 -36q-17 0 -26.5 10t-9.5 27q0 24 45 174q-57 -104 -130 -164q-54 -46 -102 -46q-61 0 -61 89q0 75 39 163.5t96 145.5q71 69 137 69q58 0 82 -50l15 50h71q-71 -231 -108 -374q-8 -30 5 -30q11 0 37.5 25t53.5 66zM366 361
q0 61 -51 61q-55 0 -112 -86q-36 -54 -60 -123.5t-24 -119.5q0 -46 28 -46q39 0 100.5 74t95.5 154q23 51 23 86z" />
    <glyph glyph-name="b" unicode="b" horiz-adv-x="499" 
d="M161 21q50 0 111 71q50 58 84.5 134t34.5 133q0 49 -42 49q-39 0 -89.5 -48t-97.5 -140q-16 -31 -29.5 -77.5t-13.5 -65.5q0 -27 8 -41.5t34 -14.5zM113 663l7 25q92 5 172 27l2 -4q-9 -18 -31 -94q-16 -52 -50.5 -172t-44.5 -154q100 165 227 165q78 0 78 -88
q0 -64 -33.5 -135.5t-89.5 -131.5q-104 -113 -213 -113q-50 0 -70 24.5t-20 58.5q0 32 14 85q123 453 125 463q9 28 -12 35q-21 5 -61 9z" />
    <glyph glyph-name="c" unicode="c" horiz-adv-x="394" 
d="M326 146l19 -18q-36 -64 -87.5 -102t-104.5 -38q-106 0 -106 132q0 67 30.5 143.5t83.5 127.5q68 65 145 65q48 0 70.5 -19t22.5 -39q0 -22 -14.5 -36t-29.5 -14q-20 0 -36 27q-23 36 -34 40q-6 2 -15 2q-34 0 -67.5 -46.5t-53 -112.5t-19.5 -124q0 -91 61 -91t135 103z
" />
    <glyph glyph-name="d" unicode="d" horiz-adv-x="526" 
d="M150 43q31 0 78.5 43.5t96.5 129.5q55 97 55 155q0 53 -47 53q-49 0 -100 -60.5t-82 -138t-31 -132.5q0 -50 30 -50zM479 143l19 -21q-40 -71 -83.5 -102.5t-78.5 -31.5q-34 0 -34 43q0 20 37 153q-53 -92 -115.5 -144t-119.5 -52q-32 0 -49 26t-17 66q0 80 43.5 170
t110.5 148q68 58 136 58q46 0 74 -28q33 119 48 188q7 29 -14 36q-30 8 -61 11l7 25q96 3 171 27l4 -3q-16 -35 -85.5 -292.5t-89.5 -339.5q-7 -29 6 -29q29 0 91 92z" />
    <glyph glyph-name="e" unicode="e" horiz-adv-x="404" 
d="M148 246q55 12 93.5 31t56 40t24.5 37t7 29q0 41 -41 41t-80.5 -50.5t-59.5 -127.5zM329 138l19 -19q-37 -63 -86.5 -97t-102.5 -34q-61 0 -86 39.5t-25 96.5q0 86 44.5 172.5t113.5 130.5q48 29 97 29q42 0 69 -19.5t27 -56.5q0 -61 -73.5 -104.5t-184.5 -60.5
q-10 -45 -10 -83q0 -88 65 -88q68 0 133 94z" />
    <glyph glyph-name="f" unicode="f" horiz-adv-x="275" 
d="M59 410l10 34h81q43 161 133 232q48 39 105 39q36 0 55 -14t19 -32q0 -19 -15 -35.5t-31 -16.5q-15 0 -36 26q-23 30 -40 30q-33 0 -60 -56.5t-53 -172.5h99l-10 -34h-97q-36 -139 -95 -396q-27 -112 -92.5 -186.5t-136.5 -74.5q-29 0 -48 15.5t-19 35.5q0 19 16 35.5
t33 16.5q15 0 43 -28q20 -20 33 -20q9 0 16.5 4.5t19 18.5t24 49t25.5 89q68 301 104 441h-83z" />
    <glyph glyph-name="g" unicode="g" horiz-adv-x="433" 
d="M188 125q-33 0 -55 13q-30 -23 -30 -44q0 -23 32 -34q3 -1 73 -25t102 -40q80 -36 80 -86q0 -61 -73 -108.5t-176 -47.5q-86 0 -137.5 37t-51.5 82q0 20 27.5 48t105.5 75q-41 30 -41 74q0 27 67 83q-37 37 -37 89q0 46 26.5 98t74.5 85q46 32 99 32q36 0 61 -14
q10 -5 16 -5q16 0 50 9.5t50 9.5q19 0 28 -8t9 -19q0 -14 -12.5 -26.5t-25.5 -12.5q-14 0 -47 11q-25 8 -36 9q18 -32 18 -68q0 -85 -60 -151t-137 -66zM110 -17q-88 -63 -88 -91q0 -33 48 -63t126 -30q56 0 96 22.5t40 50.5q0 16 -9.5 25.5t-27.5 19.5q-53 31 -185 66z
M193 157q46 0 84.5 65t38.5 133q0 70 -49 70q-32 0 -62 -33q-62 -70 -62 -173q0 -62 50 -62z" />
    <glyph glyph-name="h" unicode="h" horiz-adv-x="504" 
d="M113 663l6 25q92 4 169 27l3 -4q-12 -35 -33 -113q-78 -299 -89 -341q111 199 231 199q56 0 56 -56q0 -25 -20 -99q-7 -23 -32.5 -103t-34.5 -109q-10 -36 2 -36q32 0 94 90l19 -20q-34 -61 -82 -98t-87 -37q-56 0 -14 122q41 126 70 222q11 32 9 48t-7.5 20.5t-17.5 4.5
q-48 0 -114.5 -86t-110.5 -221q-21 -62 -33 -108q-35 0 -71 11q113 411 160 615q4 19 -0.5 26t-18.5 11q-21 6 -54 10z" />
    <glyph glyph-name="i" unicode="i" horiz-adv-x="262" 
d="M58 322l-15 21q36 48 83.5 80.5t82.5 32.5q10 0 16 -8t6 -19q0 -14 -17 -69q-53 -173 -88 -274q-11 -34 3 -34q12 0 37.5 23.5t56.5 67.5l18 -20q-35 -61 -82.5 -98t-89.5 -37q-49 0 -14 107q44 142 88 266q8 25 -3 25q-23 0 -82 -64zM271 616q0 -23 -16 -41.5t-40 -18.5
q-18 0 -28 12t-10 29q0 22 16 41.5t40 19.5q18 0 28 -12t10 -30z" />
    <glyph glyph-name="j" unicode="j" horiz-adv-x="262" 
d="M51 308l-16 21q43 60 94.5 93.5t83.5 33.5q31 0 14 -74q-57 -234 -98 -365q-35 -111 -99 -184q-29 -34 -68.5 -57t-70.5 -23q-26 0 -45.5 13.5t-19.5 34.5q0 19 16.5 35.5t32.5 16.5q13 0 36 -22q22 -22 37 -22q12 0 24.5 9.5t30.5 42t33 84.5q17 57 110 411q7 28 -5 28
q-26 0 -90 -76zM276 617q0 -23 -16 -41.5t-40 -18.5q-18 0 -28 12.5t-10 29.5q0 23 16.5 41.5t40.5 18.5q17 0 27 -11.5t10 -30.5z" />
    <glyph glyph-name="k" unicode="k" horiz-adv-x="484" 
d="M113 663l6 25q45 2 97 10t71 17l4 -5q-14 -39 -31 -107q-10 -37 -25.5 -94.5t-38 -143.5t-38.5 -147q102 121 184 190q58 48 101 48q46 0 46 -42q0 -22 -16.5 -44t-28.5 -22q-11 0 -24 18q-18 24 -33 24q-39 0 -143 -118q-1 -1 -1 -6q38 -90 83 -161q29 -48 50 -48
q25 0 78 72l18 -20q-36 -62 -77.5 -93t-65.5 -31q-17 0 -29 12t-32 52q-26 56 -71 168q-1 2 -2 2.5t-2 -0.5q-29 -32 -40 -53q-10 -17 -15 -36q-13 -37 -41 -138q-14 -1 -38.5 2.5t-32.5 7.5q116 423 159 612q4 20 1 27t-16 11q-11 4 -57 11z" />
    <glyph glyph-name="l" unicode="l" horiz-adv-x="252" 
d="M110 663l6 25q86 3 168 27l4 -4l-30 -105q-9 -34 -63 -235.5t-75 -278.5q-12 -40 4 -40q31 0 93 90l19 -20q-34 -59 -79.5 -96.5t-88.5 -37.5q-31 0 -31 44q0 33 38 165q96 355 108 420q4 17 0.5 23.5t-15.5 11.5t-58 11z" />
    <glyph glyph-name="m" unicode="m" horiz-adv-x="762" 
d="M723 143l18 -20q-31 -59 -80 -97t-88 -38q-55 0 -14 122q32 100 68 216q26 79 -12 79q-51 0 -117 -85.5t-111 -223.5q-17 -50 -34 -106q-42 0 -71 11q70 222 101 346q15 58 -18 58q-53 0 -120 -92t-108 -218q-23 -69 -33 -105q-47 0 -71 11q9 32 49 167.5t52 180.5
q11 44 0 44q-25 0 -82 -70l-18 20q81 113 156 113q13 0 21 -8t8 -21q0 -36 -41 -166q54 93 109.5 144t121.5 51q27 0 40 -16t13 -39q0 -30 -33 -138q112 193 227 193q58 0 58 -56q0 -33 -22 -103q-5 -14 -64 -207q-12 -37 4 -37q26 0 91 90z" />
    <glyph glyph-name="n" unicode="n" horiz-adv-x="512" 
d="M473 143l19 -20q-34 -61 -82 -98t-87 -37q-56 0 -14 122q8 25 67 208q11 33 13 51.5t-4.5 27t-21.5 8.5q-48 0 -114.5 -86.5t-112.5 -226.5q-27 -83 -32 -102q-45 0 -71 11q82 274 104 357q10 34 -4 34q-25 0 -81 -70l-18 21q38 55 79.5 84t75.5 29q30 0 30 -32
q0 -33 -40 -164q59 106 129 160q48 36 99 36q58 0 58 -57q0 -36 -24 -110q-40 -122 -63 -199q-12 -37 1 -37q32 0 94 90z" />
    <glyph glyph-name="o" unicode="o" horiz-adv-x="480" 
d="M312 456q69 0 99 -43.5t30 -102.5q0 -74 -37.5 -152.5t-100.5 -125.5q-60 -44 -130 -44q-62 0 -94.5 39.5t-32.5 100.5q0 77 39.5 160.5t107.5 129.5q58 38 119 38zM188 21q47 0 88 58.5t62.5 131.5t21.5 129q0 84 -57 84q-44 0 -86 -51.5t-66 -125.5t-24 -143
q0 -83 61 -83z" />
    <glyph glyph-name="p" unicode="p" horiz-adv-x="484" 
d="M230 412q-87 -300 -90 -310q-6 -24 -6 -32q0 -21 15.5 -35t30.5 -14q40 0 84.5 50.5t72.5 118.5t28 120q0 58 -23.5 82t-79.5 24q-8 0 -32 -4zM40 332l-8 30q52 44 134 75q20 68 31 108q32 0 74 4q-18 -54 -29 -96q21 3 51 3q73 0 114.5 -32.5t41.5 -97.5
q0 -78 -44.5 -158t-109.5 -130t-125 -50q-31 0 -58 13q-20 -62 -41 -151q-8 -28 5 -35.5t77 -11.5l-8 -29q-148 -2 -248 -12l9 31q47 6 62 14t25 34q16 45 41.5 132.5t63 221t56.5 199.5q-48 -14 -114 -62z" />
    <glyph glyph-name="q" unicode="q" horiz-adv-x="518" 
d="M416 -200l-8 -29q-151 0 -259 -9l8 30q58 7 76.5 16t26.5 34q15 47 51 179.5t47 171.5q-62 -108 -127.5 -156.5t-122.5 -48.5q-31 0 -51 21.5t-20 69.5q0 72 40 159t111 152.5t146 65.5q58 0 79 -48l12 48h76q-27 -87 -85.5 -312.5t-74.5 -300.5q-5 -25 8.5 -33t66.5 -10
zM120 85q0 -48 36 -48t96 61.5t99 139.5q36 72 36 121q0 62 -51 62q-46 0 -97.5 -58.5t-85 -138t-33.5 -139.5z" />
    <glyph glyph-name="r" unicode="r" horiz-adv-x="373" 
d="M53 323l-17 20q37 53 79.5 83t78.5 30q25 0 25 -30q0 -23 -41 -163q51 95 95.5 144t93.5 49q18 0 27.5 -11t9.5 -25q0 -28 -18.5 -54.5t-38.5 -26.5q-13 0 -21 19q-1 3 -3.5 10t-4 10t-5 6t-8.5 3q-13 0 -41.5 -37t-64.5 -106.5t-61 -145.5q-22 -66 -34 -108
q-47 0 -71 11q86 290 105 364q5 26 -5 26q-21 0 -80 -68z" />
    <glyph glyph-name="s" unicode="s" horiz-adv-x="330" 
d="M4 52q0 20 13 35.5t26 15.5q12 0 27 -21q29 -37 50 -44q11 -4 22 -4q25 0 49.5 22t24.5 51q0 17 -14 34.5t-59 55.5q-38 31 -50.5 53.5t-12.5 48.5q0 32 21.5 65t55.5 57q50 35 93 35q30 0 50 -13.5t20 -36.5q0 -16 -14 -31.5t-27 -15.5q-11 0 -28 20q-17 22 -30 28
q-7 2 -15 2q-24 0 -45 -21q-23 -23 -23 -51q3 -38 60 -83q51 -40 68 -62.5t17 -45.5q0 -30 -27 -67t-68 -63q-51 -32 -95 -32q-40 0 -64.5 23t-24.5 45z" />
    <glyph glyph-name="t" unicode="t" horiz-adv-x="296" 
d="M328 444l-12 -34h-104q-70 -248 -86 -319q-7 -41 8 -41q43 0 110 98l19 -20q-37 -69 -88 -104.5t-91 -35.5q-38 0 -38 46q0 34 17 99q14 55 41 151.5t35 125.5h-78l12 34h76l42 149q16 -2 34 -2q29 0 42 4q-10 -28 -44 -151h105z" />
    <glyph glyph-name="u" unicode="u" horiz-adv-x="516" 
d="M54 322l-18 21q37 53 82 83t83 30q24 0 24 -32q0 -18 -17 -69q-7 -24 -33 -109t-36 -121q-22 -80 15 -80q47 0 111 88t103 194q16 43 37 117q30 0 76 4q-71 -239 -102 -367q-6 -28 7 -28t37.5 23.5t51.5 66.5l21 -19q-39 -71 -83.5 -103.5t-78.5 -32.5t-34 42
q0 36 38 166q-55 -103 -115.5 -155.5t-118.5 -52.5q-50 0 -50 61q0 30 14 84q11 39 37 122.5t35 113.5q6 19 -4 19q-26 0 -82 -66z" />
    <glyph glyph-name="v" unicode="v" horiz-adv-x="452" 
d="M50 320l-17 20q33 47 78.5 81.5t88.5 34.5q22 0 22 -33q0 -18 -9 -48q-63 -211 -69 -232q-15 -58 -15 -69q0 -14 7.5 -23t16.5 -9q38 0 107 78q48 54 77.5 110t29.5 86q0 13 -11 55q-7 21 -7 36q0 17 18.5 33t41.5 16q29 0 29 -63q0 -74 -57.5 -170t-135.5 -164
q-84 -73 -146 -73q-18 0 -30.5 19.5t-12.5 46.5q0 30 22 114q10 34 30 100.5t29 96.5q6 25 -4 25q-25 0 -83 -68z" />
    <glyph glyph-name="w" unicode="w" horiz-adv-x="715" 
d="M48 318l-17 21q31 44 79.5 80.5t91.5 36.5q22 0 22 -30q0 -22 -14 -61l-59 -194q-23 -79 -23 -100q0 -28 20 -28q34 0 91.5 60.5t100.5 144.5q36 71 59 179q31 0 81 6q-26 -78 -44 -142q-42 -146 -42 -204q0 -46 31 -46q24 0 59.5 28.5t71.5 78.5q34 47 53.5 94t19.5 74
q0 23 -9 57q-8 26 -8 35q0 15 19.5 31.5t41.5 16.5q27 0 27 -63q0 -56 -33 -134t-98 -150q-109 -123 -195 -123q-22 0 -38 22.5t-16 60.5q0 50 16 112q-54 -89 -120.5 -142t-116.5 -53q-21 0 -32.5 20.5t-11.5 44.5q0 38 21 108q4 15 7 24.5t5.5 18.5t14.5 49t33 109
q8 27 -2 27q-27 0 -86 -69z" />
    <glyph glyph-name="x" unicode="x" horiz-adv-x="497" 
d="M91 297l-23 17q29 60 69 101t73 41q12 0 20 -12.5t17 -44.5q1 -2 28 -117q30 40 49 64.5t46 53t50 42.5t43 14q36 0 36 -42q0 -26 -16 -50t-28 -24q-9 0 -14 13q-14 33 -24 33q-13 0 -48 -35t-85 -103q19 -79 39 -133q20 -55 41 -55q30 0 86 96l22 -18
q-38 -77 -79 -113.5t-67 -36.5q-25 0 -46 43.5t-50 156.5q-95 -125 -115 -150q-48 -54 -69 -54q-16 0 -26.5 17t-10.5 42q0 29 14.5 58t31.5 29q9 0 11 -16q4 -45 18 -45q10 0 33 24q24 29 103 132q-11 48 -35 130q-8 31 -18 31q-26 0 -76 -89z" />
    <glyph glyph-name="y" unicode="y" horiz-adv-x="441" 
d="M50 297l-23 18q37 71 75.5 106t69.5 35q39 0 48 -95q17 -168 12 -321q72 113 101 193.5t29 121.5q0 14 -4 37t-4 27q0 8 19.5 22.5t39.5 14.5q17 0 17 -38q0 -26 -9 -62q-20 -95 -99.5 -231t-156.5 -225q-52 -61 -101 -99.5t-79 -38.5q-25 0 -40 14t-15 37q0 22 19 44
t35 22q12 0 26 -17q22 -25 33 -25q26 0 69 54q34 43 44 81t10 122q0 132 -18 244q-6 47 -22 47q-24 0 -76 -88z" />
    <glyph glyph-name="z" unicode="z" horiz-adv-x="453" 
d="M62 284l-22 16q16 33 58.5 94.5t56.5 61.5q7 0 24 -7q90 -37 167 -37q18 0 35 14l46 46q4 -1 9 -8.5t7 -13.5q-13 -20 -38 -46q-31 -33 -129.5 -136.5t-145.5 -155.5q33 -15 91 -46q48 -27 73 -27q20 0 43.5 23.5t23.5 39.5q0 13 -8 32.5t-8 25.5q0 13 15.5 25.5
t34.5 12.5q23 0 23 -44q0 -48 -57 -109q-29 -31 -62.5 -53t-50.5 -22t-113 61q-35 20 -48 20q-9 0 -30 -21q-29 -31 -37 -42q-5 2 -11 10t-6 14q0 10 58 73q37 41 253 270q-32 -4 -118 10q-12 2 -24.5 4t-19.5 3.5t-8 1.5q-24 0 -82 -90z" />
    <glyph glyph-name="braceleft" unicode="{" horiz-adv-x="434" 
d="M55 275l8 31q87 1 120 26.5t46 76.5q6 22 13 73t10 67q15 80 76.5 120t157.5 39l-7 -30q-72 -5 -106 -31.5t-44 -78.5q-6 -29 -11.5 -74t-11.5 -74q-23 -118 -170 -133q59 -13 89.5 -54.5t8.5 -115.5q-28 -84 -38 -127q-12 -53 8.5 -80t77.5 -39l-7 -30
q-78 7 -120.5 52.5t-24.5 122.5q7 32 21 77t21 76q11 44 -15 72.5t-102 33.5z" />
    <glyph glyph-name="bar" unicode="|" horiz-adv-x="262" 
d="M98 738h66v-985h-66v985z" />
    <glyph glyph-name="braceright" unicode="}" horiz-adv-x="434" 
d="M196 678l7 30q76 -4 119 -50t24 -124q-6 -24 -19 -65.5t-19 -64.5q-10 -45 12.5 -70t100.5 -28l-6 -31q-85 -1 -121 -29.5t-45 -77.5q-6 -32 -13.5 -83.5t-10.5 -69.5q-10 -64 -48 -104.5t-84 -55t-104 -13.5l8 32q75 10 105.5 33.5t44.5 75.5q9 34 16 94t12 84
q11 50 53.5 86.5t112.5 46.5q-138 27 -96 161q7 21 19 53.5t18 51.5q15 50 -6.5 77.5t-79.5 40.5z" />
    <glyph glyph-name="asciitilde" unicode="~" horiz-adv-x="636" 
d="M520 319l49 -24q-41 -119 -140 -119q-12 0 -23.5 2t-19.5 4.5t-20 8t-17 8t-18.5 10.5t-16.5 10q-64 36 -103 36q-53 0 -93 -82l-47 26q20 56 58 86.5t88 30.5q48 0 107 -33q81 -46 110 -46q31 0 49.5 20t36.5 62z" />
    <glyph glyph-name="uni00A0" unicode="&#xa0;" horiz-adv-x="213" 
 />
    <glyph glyph-name="exclamdown" unicode="&#xa1;" horiz-adv-x="305" 
d="M192 459q23 0 38 -16t11 -44t-22.5 -45.5t-43.5 -17.5q-26 0 -38.5 18.5t-9.5 44.5q4 28 23 44t42 16zM142 246h25q-11 -79 -25.5 -213t-21.5 -171q-6 -31 -25 -50.5t-49 -19.5q-27 0 -38 23t-2 52q5 18 136 379z" />
    <glyph glyph-name="cent" unicode="&#xa2;" horiz-adv-x="481" 
d="M395 592l-22 -74q49 -4 78 -18.5t29 -28.5q0 -19 -14.5 -36t-25.5 -17q-15 0 -27 24q-19 36 -49 43l-101 -347q5 -1 16 -1q84 0 150 73l15 -21q-72 -103 -197 -105l-24 -82h-36l25 85q-57 12 -96 56.5t-39 117.5q0 103 74.5 179.5t187.5 78.5l21 73h35zM229 146l101 342
q-67 -1 -118.5 -64t-51.5 -154q0 -97 69 -124z" />
    <glyph glyph-name="sterling" unicode="&#xa3;" horiz-adv-x="481" 
d="M367 322h-144q-30 -141 -101 -214q31 -2 91 -23q78 -25 106 -25q23 0 37.5 5t38 31t47.5 77l26 -13q-42 -99 -83 -137.5t-98 -38.5q-43 0 -118.5 37.5t-89.5 39.5q-68 -71 -94 -71q-16 0 -16 23q0 28 32.5 56.5t75.5 39.5q30 39 48 144q0 2 11 69h-95l10 35h91
q1 4 2.5 13t2.5 13q47 280 236 280q52 0 78 -15t26 -35t-17 -38.5t-29 -18.5q-16 0 -33 26q-16 25 -27.5 36t-29.5 11q-35 0 -61 -31.5t-40 -120.5q-3 -20 -9.5 -60t-10.5 -60h148z" />
    <glyph glyph-name="currency" unicode="&#xa4;" horiz-adv-x="497" 
d="M293 452q-57 0 -93.5 -38t-45.5 -96q-9 -61 18.5 -101.5t82.5 -40.5q59 0 95.5 36.5t45.5 96.5q10 56 -17.5 99.5t-85.5 43.5zM49 145l69 57q-29 53 -19 117q11 68 52 111l-47 56l50 41l38 -61q47 33 107 33q63 0 103 -35l63 63l34 -41l-66 -60q13 -17 18.5 -51t0.5 -67
q-11 -67 -52 -111l48 -53l-48 -44l-41 61q-45 -34 -111 -34q-61 0 -100 37l-63 -64z" />
    <glyph glyph-name="yen" unicode="&#xa5;" horiz-adv-x="497" 
d="M54 0l7 28q62 5 80 13t25 39l25 104h-106l8 31h105l18 66h-106l7 30h101q-8 54 -61 231q-9 33 -22.5 42.5t-53.5 13.5l6 28h218l-6 -28q-42 -4 -52.5 -9.5t-8.5 -20.5q7 -31 27.5 -114t26.5 -110q127 173 151 207q10 14 12 22t-7 13t-17 6.5t-33 4.5q-5 1 -7 1l7 28h200
l-7 -28q-49 -8 -68.5 -19t-51.5 -53q-128 -164 -164 -215h103l-7 -30h-105l-17 -66h105l-8 -31h-105l-26 -107q-7 -28 7.5 -36.5t81.5 -12.5l-7 -28h-275z" />
    <glyph glyph-name="brokenbar" unicode="&#xa6;" horiz-adv-x="262" 
d="M98 -172v344h66v-344h-66zM98 663h66v-343h-66v343z" />
    <glyph glyph-name="section" unicode="&#xa7;" horiz-adv-x="485" 
d="M107 -139q-41 0 -69.5 18t-28.5 41q0 17 13.5 31.5t28.5 14.5t42 -27q35 -36 64 -36q56 0 56 60q0 17 -2.5 34t-10.5 40.5t-12.5 35t-19.5 46t-20 46.5q-31 76 -43.5 117t-12.5 81q0 127 100 219q72 67 164 67q43 0 67.5 -14t24.5 -36q0 -16 -12 -30t-26 -14t-39 25
q-18 19 -30.5 26t-29.5 7q-28 0 -43.5 -18.5t-15.5 -45.5q0 -25 13 -57t60 -131q15 -30 23 -48q39 -84 39 -146q0 -106 -66 -186q-50 -57 -106 -88.5t-108 -31.5zM253 -46q77 79 77 179q0 70 -45 167q-50 103 -64 140t-14 74q0 31 12 55q-73 -66 -73 -174q0 -74 47 -175
q47 -110 59.5 -163t0.5 -103z" />
    <glyph glyph-name="dieresis" unicode="&#xa8;" 
d="M432 611q0 -18 -12.5 -35t-32.5 -17q-42 0 -42 44q0 23 14.5 38t32.5 15q20 0 30.5 -14.5t9.5 -30.5zM255 611q0 -18 -12.5 -35t-33.5 -17q-42 0 -42 44q1 23 15.5 38t31.5 15q21 0 31.5 -14t9.5 -31z" />
    <glyph glyph-name="copyright" unicode="&#xa9;" horiz-adv-x="747" 
d="M360 630q133 0 220.5 -91t87.5 -222t-88.5 -222t-219.5 -91q-138 0 -224 88.5t-86 224.5q0 132 90 222.5t220 90.5zM360 600q-116 0 -194.5 -81t-78.5 -201t80.5 -201.5t192.5 -81.5q115 0 192.5 80t77.5 203q0 118 -79.5 200t-190.5 82zM500 368l-21 -5q-21 67 -60 90
q-22 13 -51 13q-52 0 -77.5 -41t-25.5 -101q0 -75 31.5 -111t85.5 -36q29 0 53.5 19t50.5 63l20 -9q-22 -43 -35 -89q-52 -15 -94 -15q-79 0 -133.5 46.5t-54.5 128.5q0 67 47.5 119t131.5 52q48 0 86 -19q8 4 15 11h18q5 -67 13 -116z" />
    <glyph glyph-name="ordfeminine" unicode="&#xaa;" horiz-adv-x="334" 
d="M343 324l11 -15q-19 -33 -46.5 -51.5t-50.5 -18.5q-41 0 -19 73l11 35q-32 -54 -69 -81.5t-68 -27.5q-47 0 -47 67q0 71 50.5 144.5t118.5 73.5q40 0 54 -26l6 24h52q-48 -166 -60 -220q-4 -19 4 -19q15 0 53 42zM119 310q0 -34 21 -34q25 0 62.5 43t57.5 99
q29 83 -24 83q-44 0 -80.5 -69.5t-36.5 -121.5z" />
    <glyph glyph-name="guillemotleft" unicode="&#xab;" horiz-adv-x="634" 
d="M82 217l3 14q163 82 264 172l16 -19q-40 -58 -183 -169q88 -118 108 -159l-23 -17q-34 43 -85.5 94t-99.5 84zM306 217l3 14q146 73 265 172l16 -19q-47 -58 -184 -169q4 -6 33 -46.5t47 -67.5t28 -45l-23 -17q-98 117 -185 178z" />
    <glyph glyph-name="logicalnot" unicode="&#xac;" horiz-adv-x="636" 
d="M499 65v248h-424v58h487v-306h-63z" />
    <glyph glyph-name="uni00AD" unicode="&#xad;" horiz-adv-x="325" 
d="M43 206l14 56h223l-13 -56h-224z" />
    <glyph glyph-name="registered" unicode="&#xae;" horiz-adv-x="262" 
d="M140 477v9q19 4 19 13v67q0 11 -19 13v10h63q44 0 44 -30q0 -18 -25 -28q4 -13 18 -30q9 -10 23 -15v-9h-23q-14 0 -22 12q-1 2 -14 23q-7 15 -13 15h-6v-28q0 -5 3.5 -7.5t15.5 -5.5v-9h-64zM185 577v-41h6q27 0 27 21t-23 21q-5 0 -10 -1zM198 652q52 0 87 -35t35 -86
q0 -49 -34 -86.5t-90 -37.5q-50 0 -84.5 36t-34.5 88q0 48 35 84.5t86 36.5zM198 632q-42 0 -69 -28.5t-27 -72.5t27 -73t69 -29q43 0 70 28t27 74q0 43 -29 72t-68 29z" />
    <glyph glyph-name="macron" unicode="&#xaf;" 
d="M170 627h239l-13 -50h-239z" />
    <glyph glyph-name="degree" unicode="&#xb0;" horiz-adv-x="324" 
d="M165 632q46 0 78 -31t32 -84q0 -52 -34.5 -83t-79.5 -31q-46 0 -78.5 31t-32.5 83q0 51 34.5 83t80.5 32zM161 596q-28 0 -47 -22t-19 -56q0 -36 20 -57.5t50 -21.5q25 0 44 21.5t19 56.5t-18.5 57t-48.5 22z" />
    <glyph glyph-name="plusminus" unicode="&#xb1;" horiz-adv-x="636" 
d="M290 403v219h59v-219h212v-58h-212v-227h-59v227h-215v58h215zM561 -10h-486v58h486v-58z" />
    <glyph glyph-name="twosuperior" unicode="&#xb2;" horiz-adv-x="349" 
d="M87 407l6 25q117 83 175.5 142t58.5 112q0 25 -15 43.5t-47 18.5q-50 0 -100 -55l-16 19q59 87 145 87q43 0 72 -29.5t29 -72.5q0 -40 -21 -72.5t-72 -73.5q-64 -51 -120 -88q54 0 128 3q30 1 76 60l20 -13q-43 -66 -57 -106q-45 2 -93 0h-169z" />
    <glyph glyph-name="threesuperior" unicode="&#xb3;" horiz-adv-x="342" 
d="M173 705l-13 16q29 40 59 59t75 19q46 0 71 -26t25 -58q0 -62 -87 -97q37 -10 59 -32.5t22 -54.5q0 -60 -52 -96t-109 -36q-49 0 -81 19t-32 40q0 14 13.5 26t25.5 12q14 0 22 -21q16 -37 29 -43q10 -5 27 -5q41 0 64 24.5t23 63.5q0 35 -26.5 56t-79.5 20l7 22
q109 22 109 85q0 24 -14 40t-44 16q-48 0 -93 -49z" />
    <glyph glyph-name="acute" unicode="&#xb4;" 
d="M281 513l-25 16l104 164q12 1 45.5 -5t45.5 -11v-10z" />
    <glyph glyph-name="uni00B5" unicode="&#xb5;" horiz-adv-x="514" 
d="M474 142l19 -17q-28 -62 -67 -99t-73 -37q-33 0 -42.5 20.5t5.5 95.5q4 24 13 50q-43 -88 -94.5 -127t-90.5 -39q-45 0 -55 39q-7 -37 -17 -92t-16.5 -91.5t-9.5 -47.5q-11 -44 -62 -44q-15 0 -22 10t-1 29q5 23 40 134t59 197q56 201 82 321q47 0 80 4
q-68 -239 -88 -331q-18 -72 38 -72q49 0 105 79.5t87 185.5q36 119 41 134q45 0 75 4q-12 -42 -34 -116.5t-37.5 -130.5t-26.5 -108q-7 -23 -5.5 -33t13.5 -10q30 0 84 92z" />
    <glyph glyph-name="paragraph" unicode="&#xb6;" horiz-adv-x="543" 
d="M576 611l-8 -32q-51 -6 -77 -12q-35 -7 -44 -45l-119 -489q-64 -258 -206 -258q-41 0 -66 19t-25 43q0 22 18.5 39.5t36.5 17.5q11 0 17.5 -5t19.5 -23q1 -2 4 -6.5t4.5 -6.5t4 -5.5t4 -5.5t3.5 -4.5t4 -4t4.5 -3t4.5 -2.5t4.5 -1.5t5.5 -0.5q60 0 108 194q18 72 23 96
q-99 14 -154.5 75.5t-55.5 148.5q0 105 71.5 177.5t206.5 86.5q55 7 123 7h88z" />
    <glyph glyph-name="periodcentered" unicode="&#xb7;" horiz-adv-x="247" 
d="M116 169q-22 0 -37.5 17.5t-11.5 47.5q5 27 23.5 45.5t43.5 18.5q28 0 41.5 -20t8.5 -47q-5 -32 -24.5 -47t-43.5 -15z" />
    <glyph glyph-name="cedilla" unicode="&#xb8;" 
d="M177 5h36l-58 -54q32 -11 52 -33.5t20 -50.5q0 -40 -32 -69.5t-77 -29.5q-35 0 -55.5 14.5t-20.5 32.5q0 10 10.5 19.5t23.5 9.5t28 -21q15 -23 31 -23t25.5 11.5t9.5 29.5q0 24 -22.5 42.5t-68.5 22.5l3 16z" />
    <glyph glyph-name="onesuperior" unicode="&#xb9;" horiz-adv-x="257" 
d="M87 407l6 24q43 2 56.5 11t18.5 30l62 253q1 5 -2 8t-16 6t-38 6l8 23q62 3 114 31h17l-79 -328q-5 -20 5 -28t54 -12l-7 -24h-199z" />
    <glyph glyph-name="ordmasculine" unicode="&#xba;" horiz-adv-x="320" 
d="M236 524q48 0 70 -27.5t22 -67.5q0 -72 -47 -131.5t-121 -59.5q-44 0 -67.5 26.5t-23.5 67.5q0 67 46.5 129.5t120.5 62.5zM229 498q-42 0 -70.5 -57t-28.5 -120q0 -57 40 -57q41 0 69.5 59t28.5 119q0 56 -39 56z" />
    <glyph glyph-name="guillemotright" unicode="&#xbb;" horiz-adv-x="635" 
d="M566 225l-3 -14q-78 -39 -150.5 -87.5t-112.5 -84.5l-16 19q40 58 183 169q-88 118 -108 159l23 17q33 -43 84.5 -93.5t99.5 -84.5zM342 225l-3 -14q-152 -77 -264 -172l-16 19q44 55 184 169q-4 6 -33 46.5t-47 67.5t-28 45l23 17q97 -117 184 -178z" />
    <glyph glyph-name="onequarter" unicode="&#xbc;" horiz-adv-x="802" 
d="M764 663l-587 -681h-43l588 681h42zM68 246l6 24q43 2 57 11t19 30l61 253q1 5 -2 8t-15.5 6t-38.5 6l8 23q62 3 114 31h17l-79 -328q-5 -20 5 -28t54 -12l-7 -24h-199zM595 -3l31 115h-171l8 27q39 44 141 142t121 110h32l-61 -243q38 0 74 2q-9 -20 -15 -39
q-8 0 -32 0.5t-35 0.5l-28 -115h-65zM509 148h124q7 26 23 84t25 89q-108 -99 -172 -173z" />
    <glyph glyph-name="onehalf" unicode="&#xbd;" horiz-adv-x="847" 
d="M758 663l-587 -681h-43l588 681h42zM66 246l6 24q43 2 57 11t19 30l61 253q2 5 -1 8t-16 6t-38 6l7 23q63 4 114 31h17l-78 -328q-5 -20 4.5 -28t53.5 -12l-7 -24h-199zM482 0l6 25q117 82 175.5 141t58.5 112q0 25 -15 43.5t-47 18.5q-50 0 -100 -55l-16 19
q59 87 145 87q43 0 72 -29.5t29 -72.5q0 -40 -21 -72.5t-72 -73.5q-64 -51 -120 -88q55 0 128 3q30 1 76 60l20 -12q-42 -65 -57 -107q-22 1 -93 1h-169z" />
    <glyph glyph-name="threequarters" unicode="&#xbe;" horiz-adv-x="798" 
d="M783 663l-587 -681h-43l588 681h42zM597 6l31 116h-171l8 27q38 43 140 141t121 111h33l-61 -243q38 0 74 2q-9 -20 -15 -39q-8 0 -32 0.5t-35 0.5l-28 -116h-65zM511 158h124q7 26 23 84t25 89q-108 -99 -172 -173zM140 544l-13 16q29 40 59 59t75 19q46 0 71 -26
t25 -59q0 -61 -87 -96q37 -10 59 -32.5t22 -54.5q0 -60 -52 -96t-109 -36q-49 0 -81 19t-32 40q0 14 13.5 26t25.5 12q14 0 22 -21q16 -37 29 -43q10 -5 27 -5q41 0 64 24.5t23 63.5q0 35 -26.5 56t-79.5 20l7 22q109 22 109 85q0 24 -14 40t-44 16q-48 0 -93 -49z" />
    <glyph glyph-name="questiondown" unicode="&#xbf;" horiz-adv-x="361" 
d="M276 242l20 19q62 -47 62 -104q0 -40 -50 -73q-13 -9 -31.5 -20t-43 -24.5t-38.5 -21.5q-39 -24 -39 -68q0 -28 14 -52t37 -33q14 -4 37 2q8 1 29 12t27 11q15 0 27.5 -16t12.5 -34q0 -21 -17 -35.5t-43 -14.5q-63 0 -112 53t-49 133q0 84 63 130q15 9 50 28t46 26
q24 14 24 26q0 27 -26 56zM346 460q23 0 38.5 -17t11.5 -45q-5 -28 -24 -45.5t-45 -17.5q-25 0 -38 18.5t-9 44.5q4 29 23 45.5t43 16.5z" />
    <glyph glyph-name="Agrave" unicode="&#xc0;" horiz-adv-x="642" 
d="M-56 0l7 28q47 6 69 17.5t45 43.5q16 23 345 519q8 14 11 37h71q8 -171 34 -557q2 -27 9.5 -36.5t30.5 -15.5q14 -3 49 -8l-5 -28h-258l6 28q60 8 73 16t11 42q-4 98 -9 170q-115 3 -213 -7q-71 -103 -102 -165q-10 -19 -7.5 -28t20.5 -15q16 -7 68 -13l-7 -28h-248z
M431 292q-14 240 -16 267q-22 -35 -84 -132.5t-88 -140.5q64 6 188 6zM505 699l-24 -14l-163 133l3 11q14 5 53 8.5t51 1.5z" />
    <glyph glyph-name="Aacute" unicode="&#xc1;" horiz-adv-x="642" 
d="M-56 0l7 28q47 6 69 17.5t45 43.5q16 23 345 519q8 14 11 37h71q8 -171 34 -557q2 -27 9.5 -36.5t30.5 -15.5q14 -3 49 -8l-5 -28h-258l6 28q60 8 73 16t11 42q-4 98 -9 170q-115 3 -213 -7q-71 -103 -102 -165q-10 -19 -7.5 -28t20.5 -15q16 -7 68 -13l-7 -28h-248z
M431 292q-14 240 -16 267q-22 -35 -84 -132.5t-88 -140.5q64 6 188 6zM410 702l125 131q12 2 52 -6t54 -15v-15l-213 -116z" />
    <glyph glyph-name="Acircumflex" unicode="&#xc2;" horiz-adv-x="642" 
d="M-56 0l7 28q47 6 69 17.5t45 43.5q16 23 345 519q8 14 11 37h71q8 -171 34 -557q2 -27 9.5 -36.5t30.5 -15.5q14 -3 49 -8l-5 -28h-258l6 28q60 8 73 16t11 42q-4 98 -9 170q-115 3 -213 -7q-71 -103 -102 -165q-10 -19 -7.5 -28t20.5 -15q16 -7 68 -13l-7 -28h-248z
M431 292q-14 240 -16 267q-22 -35 -84 -132.5t-88 -140.5q64 6 188 6zM623 705l-16 -21q-18 8 -65 32.5t-64 32.5q-53 -23 -169 -65l-10 24q95 53 182 118h24q37 -47 118 -121z" />
    <glyph glyph-name="Atilde" unicode="&#xc3;" horiz-adv-x="642" 
d="M-56 0l7 28q47 6 69 17.5t45 43.5q16 23 345 519q8 14 11 37h71q8 -171 34 -557q2 -27 9.5 -36.5t30.5 -15.5q14 -3 49 -8l-5 -28h-258l6 28q60 8 73 16t11 42q-4 98 -9 170q-115 3 -213 -7q-71 -103 -102 -165q-10 -19 -7.5 -28t20.5 -15q16 -7 68 -13l-7 -28h-248z
M431 292q-14 240 -16 267q-22 -35 -84 -132.5t-88 -140.5q64 6 188 6zM614 805l26 -7q-6 -36 -31.5 -68.5t-70.5 -32.5q-29 0 -83 24q-39 18 -65 18q-22 0 -34 -10t-24 -36l-26 9q8 42 34.5 69.5t71.5 27.5q27 0 79 -21q43 -19 62 -19q22 0 36 9t25 37z" />
    <glyph glyph-name="Adieresis" unicode="&#xc4;" horiz-adv-x="642" 
d="M-56 0l7 28q47 6 69 17.5t45 43.5q16 23 345 519q8 14 11 37h71q8 -171 34 -557q2 -27 9.5 -36.5t30.5 -15.5q14 -3 49 -8l-5 -28h-258l6 28q60 8 73 16t11 42q-4 98 -9 170q-115 3 -213 -7q-71 -103 -102 -165q-10 -19 -7.5 -28t20.5 -15q16 -7 68 -13l-7 -28h-248z
M431 292q-14 240 -16 267q-22 -35 -84 -132.5t-88 -140.5q64 6 188 6zM574 788q20 0 31.5 -14.5t9.5 -32.5t-16 -32t-34 -14q-18 0 -30.5 13t-9.5 32q2 23 16.5 35.5t32.5 12.5zM369 788q19 0 31 -14.5t10 -32.5t-16.5 -32t-34.5 -14q-18 0 -30.5 13t-9.5 32q2 23 16.5 35.5
t33.5 12.5z" />
    <glyph glyph-name="Aring" unicode="&#xc5;" horiz-adv-x="642" 
d="M-56 0l7 28q47 6 69 17.5t45 43.5q16 23 345 519q8 14 11 37h71q8 -171 34 -557q2 -27 9.5 -36.5t30.5 -15.5q14 -3 49 -8l-5 -28h-258l6 28q60 8 73 16t11 42q-4 98 -9 170q-115 3 -213 -7q-71 -103 -102 -165q-10 -19 -7.5 -28t20.5 -15q16 -7 68 -13l-7 -28h-248z
M431 292q-14 240 -16 267q-22 -35 -84 -132.5t-88 -140.5q64 6 188 6zM487 846q40 0 62 -25t19 -59q-4 -34 -31.5 -58t-66.5 -24q-40 0 -61.5 24t-17.5 58q2 34 29 59t67 25zM483 813q-21 0 -36 -14t-17 -37q-4 -24 8.5 -36.5t33.5 -12.5q50 0 55 53q2 20 -11 33.5t-33 13.5
z" />
    <glyph glyph-name="AE" unicode="&#xc6;" horiz-adv-x="950" 
d="M317 334h166l67 272q-125 -143 -233 -272zM-74 0l7 28q41 4 71.5 20.5t63.5 53.5q84 93 397 461q15 19 16 28t-20 16q-41 8 -80 10l8 28h441q88 0 124 6q-34 -89 -51 -181h-28q3 47 -1 86q-4 32 -19.5 44.5t-53.5 12.5h-129q-21 0 -29.5 -5.5t-12.5 -21.5l-62 -252h91
q45 0 68.5 24.5t48.5 83.5h29q-45 -143 -66 -259h-29q1 36 1 62t-14 40.5t-45 14.5h-91l-53 -211q-14 -56 43 -56h128q35 0 58 7.5t49 27.5q45 36 103 118l25 -14q-50 -91 -85 -174q-56 2 -146 2h-378l6 28q60 5 80.5 15.5t27.5 40.5l53 216h-184q-12 -15 -50 -60.5
t-64.5 -78t-44.5 -58.5q-11 -15 -16.5 -26t-3 -18.5t6 -12.5t17 -8.5t22.5 -5t30 -4.5l-6 -28h-253z" />
    <glyph glyph-name="Ccedilla" unicode="&#xc7;" horiz-adv-x="639" 
d="M608 461h-28q8 106 -37 141q-31 26 -86 26q-117 0 -199 -122t-82 -276q0 -210 165 -210q66 0 123 47q43 36 94 108l24 -12q-59 -101 -89 -159q-25 0 -55 -6q-60 -13 -102 -14l-35 -33q32 -10 51.5 -31t19.5 -49q0 -42 -34.5 -70.5t-81.5 -28.5q-32 0 -50.5 12t-18.5 29
q0 9 10.5 19.5t21.5 10.5q14 0 29 -22q11 -17 29 -17q17 0 28.5 10.5t11.5 27.5q0 23 -23 41.5t-69 22.5l2 16l72 63q-101 10 -161 80t-60 181q0 71 25 142.5t76 134.5t121 99q74 38 163 38q85 0 148 -34q10 5 38 22h22q-36 -88 -63 -187z" />
    <glyph glyph-name="Egrave" unicode="&#xc8;" horiz-adv-x="620" 
d="M-24 0l7 28q61 5 81.5 16t29.5 47l117 468q7 31 -9.5 42t-80.5 16l7 28h373q87 0 124 6q-33 -81 -51 -181h-28q2 41 -2 86q-3 32 -18.5 44.5t-53.5 12.5h-130q-21 0 -29 -5.5t-12 -21.5l-59 -239h90q46 0 68.5 24t49.5 84h29q-45 -138 -67 -259h-29q1 36 1 62t-14 40.5
t-45 14.5h-91l-56 -224q-12 -56 44 -56h127q62 0 108 35q45 36 103 118l25 -14q-52 -91 -85 -174q-56 2 -146 2h-378zM469 704l-25 -14l-162 133l3 11q14 5 53 8.5t51 1.5z" />
    <glyph glyph-name="Eacute" unicode="&#xc9;" horiz-adv-x="620" 
d="M-24 0l7 28q61 5 81.5 16t29.5 47l117 468q7 31 -9.5 42t-80.5 16l7 28h373q87 0 124 6q-33 -81 -51 -181h-28q2 41 -2 86q-3 32 -18.5 44.5t-53.5 12.5h-130q-21 0 -29 -5.5t-12 -21.5l-59 -239h90q46 0 68.5 24t49.5 84h29q-45 -138 -67 -259h-29q1 36 1 62t-14 40.5
t-45 14.5h-91l-56 -224q-12 -56 44 -56h127q62 0 108 35q45 36 103 118l25 -14q-52 -91 -85 -174q-56 2 -146 2h-378zM354 714l125 131q12 2 51.5 -6t54.5 -15l-1 -15l-212 -116z" />
    <glyph glyph-name="Ecircumflex" unicode="&#xca;" horiz-adv-x="620" 
d="M-24 0l7 28q61 5 81.5 16t29.5 47l117 468q7 31 -9.5 42t-80.5 16l7 28h373q87 0 124 6q-33 -81 -51 -181h-28q2 41 -2 86q-3 32 -18.5 44.5t-53.5 12.5h-130q-21 0 -29 -5.5t-12 -21.5l-59 -239h90q46 0 68.5 24t49.5 84h29q-45 -138 -67 -259h-29q1 36 1 62t-14 40.5
t-45 14.5h-91l-56 -224q-12 -56 44 -56h127q62 0 108 35q45 36 103 118l25 -14q-52 -91 -85 -174q-56 2 -146 2h-378zM568 725l-15 -21q-20 9 -68.5 34t-60.5 31q-48 -21 -170 -65l-10 24q104 58 182 118h24q43 -52 118 -121z" />
    <glyph glyph-name="Edieresis" unicode="&#xcb;" horiz-adv-x="620" 
d="M-24 0l7 28q61 5 81.5 16t29.5 47l117 468q7 31 -9.5 42t-80.5 16l7 28h373q87 0 124 6q-33 -81 -51 -181h-28q2 41 -2 86q-3 32 -18.5 44.5t-53.5 12.5h-130q-21 0 -29 -5.5t-12 -21.5l-59 -239h90q46 0 68.5 24t49.5 84h29q-45 -138 -67 -259h-29q1 36 1 62t-14 40.5
t-45 14.5h-91l-56 -224q-12 -56 44 -56h127q62 0 108 35q45 36 103 118l25 -14q-52 -91 -85 -174q-56 2 -146 2h-378zM518 809q19 0 31 -14.5t10 -32.5t-16.5 -32t-34.5 -14q-18 0 -30.5 13t-9.5 32q2 23 16.5 35.5t33.5 12.5zM312 809q19 0 31 -14.5t10 -32.5t-16 -32
t-35 -14q-18 0 -30.5 13t-9.5 32q2 23 16.5 35.5t33.5 12.5z" />
    <glyph glyph-name="Igrave" unicode="&#xcc;" horiz-adv-x="336" 
d="M-19 0l7 28q60 5 78.5 15.5t27.5 46.5l117 469q7 31 -9.5 41.5t-80.5 16.5l7 28h279l-6 -28q-60 -5 -79 -16t-28 -46l-115 -467q-8 -33 8 -43.5t81 -16.5l-8 -28h-279zM324 701l-24 -14l-162 133l3 11q14 5 53 8.5t51 1.5z" />
    <glyph glyph-name="Iacute" unicode="&#xcd;" horiz-adv-x="336" 
d="M-19 0l7 28q60 5 78.5 15.5t27.5 46.5l117 469q7 31 -9.5 41.5t-80.5 16.5l7 28h279l-6 -28q-60 -5 -79 -16t-28 -46l-115 -467q-8 -33 8 -43.5t81 -16.5l-8 -28h-279zM229 715l124 131q13 2 52.5 -6t53.5 -15v-15l-213 -116z" />
    <glyph glyph-name="Icircumflex" unicode="&#xce;" horiz-adv-x="336" 
d="M-19 0l7 28q60 5 78.5 15.5t27.5 46.5l117 469q7 31 -9.5 41.5t-80.5 16.5l7 28h279l-6 -28q-60 -5 -79 -16t-28 -46l-115 -467q-8 -33 8 -43.5t81 -16.5l-8 -28h-279zM446 716l-16 -21q-20 9 -72.5 36t-56.5 29q-53 -23 -169 -65l-10 23q116 68 181 118h25
q34 -43 118 -120z" />
    <glyph glyph-name="Idieresis" unicode="&#xcf;" horiz-adv-x="336" 
d="M-19 0l7 28q60 5 78.5 15.5t27.5 46.5l117 469q7 31 -9.5 41.5t-80.5 16.5l7 28h279l-6 -28q-60 -5 -79 -16t-28 -46l-115 -467q-8 -33 8 -43.5t81 -16.5l-8 -28h-279zM392 790q20 0 31.5 -14.5t9.5 -32.5t-16 -32t-34 -14q-19 0 -31 13t-9 32q2 23 16.5 35.5t32.5 12.5z
M186 790q20 0 32 -14.5t10 -32.5t-16.5 -32t-34.5 -14q-18 0 -30.5 13t-9.5 32q2 23 16.5 35.5t32.5 12.5z" />
    <glyph glyph-name="Eth" unicode="&#xd0;" horiz-adv-x="693" 
d="M129 645h248q114 0 187 -49q100 -67 100 -217q0 -89 -40.5 -170.5t-113.5 -134.5q-100 -74 -252 -74h-276l6 28q61 5 79 15.5t27 46.5l57 230h-103l7 33h105l51 206q7 31 -9.5 41.5t-80.5 16.5zM236 320l-55 -222q-9 -36 9 -50q24 -18 76 -18q122 0 205 91
q48 54 75.5 125.5t27.5 141.5q0 113 -49.5 170t-155.5 57q-41 0 -54 -12q-12 -12 -16 -30l-55 -220h165l-7 -33h-166z" />
    <glyph glyph-name="Ntilde" unicode="&#xd1;" horiz-adv-x="714" 
d="M-25 0l7 28q61 4 82.5 24.5t38.5 84.5q86 328 108 415q3 9 -3 23t-19 22q-15 10 -87 20l7 28h163l265 -526q68 274 93 385q15 69 -0.5 88.5t-93.5 24.5l7 28h254l-5 -28q-61 -6 -80.5 -23.5t-39.5 -89.5q-38 -139 -106 -427q-1 -12 7 -25q9 -19 31 -31l-7 -21h-99
l-257 520q-55 -211 -94 -391q-14 -63 5 -78.5t93 -22.5l-6 -28h-264zM614 819l26 -7q-6 -36 -31.5 -68.5t-70.5 -32.5q-29 0 -83 24q-41 18 -65 18q-22 0 -34 -10t-24 -36l-27 9q9 42 35.5 69.5t71.5 27.5q27 0 78 -21q46 -19 63 -19q22 0 36 9t25 37z" />
    <glyph glyph-name="Ograve" unicode="&#xd2;" horiz-adv-x="677" 
d="M77 221q0 100 47.5 206t128.5 170q82 64 181 64q103 0 162 -65t59 -171q0 -105 -41.5 -199.5t-113.5 -158.5q-93 -83 -200 -83q-105 0 -164 64.5t-59 172.5zM306 19q58 0 109 43t82 107.5t49 133t18 124.5q0 103 -31.5 151t-103.5 48q-61 0 -112.5 -43t-83 -108.5
t-48.5 -135.5t-17 -131q0 -100 34.5 -144.5t103.5 -44.5zM506 712l-24 -14l-163 133l3 11q15 5 53.5 8.5t50.5 1.5z" />
    <glyph glyph-name="Oacute" unicode="&#xd3;" horiz-adv-x="677" 
d="M77 221q0 100 47.5 206t128.5 170q82 64 181 64q103 0 162 -65t59 -171q0 -105 -41.5 -199.5t-113.5 -158.5q-93 -83 -200 -83q-105 0 -164 64.5t-59 172.5zM306 19q58 0 109 43t82 107.5t49 133t18 124.5q0 103 -31.5 151t-103.5 48q-61 0 -112.5 -43t-83 -108.5
t-48.5 -135.5t-17 -131q0 -100 34.5 -144.5t103.5 -44.5zM397 725l125 131q12 2 51.5 -6t54.5 -15l-1 -15l-212 -116z" />
    <glyph glyph-name="Ocircumflex" unicode="&#xd4;" horiz-adv-x="677" 
d="M77 221q0 100 47.5 206t128.5 170q82 64 181 64q103 0 162 -65t59 -171q0 -105 -41.5 -199.5t-113.5 -158.5q-93 -83 -200 -83q-105 0 -164 64.5t-59 172.5zM306 19q58 0 109 43t82 107.5t49 133t18 124.5q0 103 -31.5 151t-103.5 48q-61 0 -112.5 -43t-83 -108.5
t-48.5 -135.5t-17 -131q0 -100 34.5 -144.5t103.5 -44.5zM608 729l-15 -21q-15 6 -129 65q-48 -21 -170 -65l-10 23q113 66 182 118h24q40 -48 118 -120z" />
    <glyph glyph-name="Otilde" unicode="&#xd5;" horiz-adv-x="677" 
d="M77 221q0 100 47.5 206t128.5 170q82 64 181 64q103 0 162 -65t59 -171q0 -105 -41.5 -199.5t-113.5 -158.5q-93 -83 -200 -83q-105 0 -164 64.5t-59 172.5zM306 19q58 0 109 43t82 107.5t49 133t18 124.5q0 103 -31.5 151t-103.5 48q-61 0 -112.5 -43t-83 -108.5
t-48.5 -135.5t-17 -131q0 -100 34.5 -144.5t103.5 -44.5zM591 830l26 -8q-6 -36 -31.5 -68.5t-70.5 -32.5q-28 0 -84 24q-41 19 -64 19q-22 0 -34 -10.5t-24 -36.5l-27 9q9 43 35 70.5t71 27.5q30 0 79 -22q46 -19 63 -19q23 0 36.5 9t24.5 38z" />
    <glyph glyph-name="Odieresis" unicode="&#xd6;" horiz-adv-x="677" 
d="M77 221q0 100 47.5 206t128.5 170q82 64 181 64q103 0 162 -65t59 -171q0 -105 -41.5 -199.5t-113.5 -158.5q-93 -83 -200 -83q-105 0 -164 64.5t-59 172.5zM306 19q58 0 109 43t82 107.5t49 133t18 124.5q0 103 -31.5 151t-103.5 48q-61 0 -112.5 -43t-83 -108.5
t-48.5 -135.5t-17 -131q0 -100 34.5 -144.5t103.5 -44.5zM564 805q19 0 31 -14.5t10 -32.5t-16 -32t-35 -14q-18 0 -30.5 13t-9.5 32q3 23 17.5 35.5t32.5 12.5zM358 805q20 0 31.5 -14.5t9.5 -32.5t-16 -32t-34 -14q-19 0 -31 13t-9 32q2 23 16.5 35.5t32.5 12.5z" />
    <glyph glyph-name="multiply" unicode="&#xd7;" horiz-adv-x="636" 
d="M270 238l-193 196l45 45l195 -198l195 198l46 -45l-198 -195l198 -195l-46 -46l-198 198l-193 -198l-44 45z" />
    <glyph glyph-name="Oslash" unicode="&#xd8;" horiz-adv-x="677" 
d="M647 667l-51 -70q59 -65 59 -172q0 -105 -41.5 -199.5t-113.5 -158.5q-93 -83 -200 -83q-75 0 -128 34l-53 -72l-27 21l53 72q-68 65 -68 182q0 100 47.5 206t128.5 170q82 64 181 64q83 0 138 -43l51 69zM186 94l351 477q-31 55 -108 55q-61 0 -112.5 -43t-83 -108.5
t-48.5 -135.5t-17 -131q0 -72 18 -114zM551 536l-347 -474q33 -43 102 -43q58 0 109 43t82 107.5t49 133t18 124.5q0 67 -13 109z" />
    <glyph glyph-name="Ugrave" unicode="&#xd9;" horiz-adv-x="693" 
d="M114 617l8 28h279l-7 -28q-60 -5 -79 -16t-28 -46q-79 -323 -85 -356q-11 -56 8 -96q31 -69 137 -69q81 0 128.5 50t74.5 156q10 39 32 129t34 139q16 68 3 85t-86 24l5 28h242l-5 -28q-61 -7 -80 -25.5t-34 -80.5q-48 -204 -64 -264q-35 -129 -89 -189q-69 -74 -187 -74
q-110 0 -162 54q-34 35 -43 87.5t4 93.5l84 340q7 31 -9.5 41.5t-80.5 16.5zM519 701l-24 -14l-163 133l3 11q14 5 53 8.5t51 1.5z" />
    <glyph glyph-name="Uacute" unicode="&#xda;" horiz-adv-x="693" 
d="M114 617l8 28h279l-7 -28q-60 -5 -79 -16t-28 -46q-79 -323 -85 -356q-11 -56 8 -96q31 -69 137 -69q81 0 128.5 50t74.5 156q10 39 32 129t34 139q16 68 3 85t-86 24l5 28h242l-5 -28q-61 -7 -80 -25.5t-34 -80.5q-48 -204 -64 -264q-35 -129 -89 -189q-69 -74 -187 -74
q-110 0 -162 54q-34 35 -43 87.5t4 93.5l84 340q7 31 -9.5 41.5t-80.5 16.5zM419 713l124 131q13 2 52.5 -6t53.5 -15v-15l-213 -116z" />
    <glyph glyph-name="Ucircumflex" unicode="&#xdb;" horiz-adv-x="693" 
d="M114 617l8 28h279l-7 -28q-60 -5 -79 -16t-28 -46q-79 -323 -85 -356q-11 -56 8 -96q31 -69 137 -69q81 0 128.5 50t74.5 156q10 39 32 129t34 139q16 68 3 85t-86 24l5 28h242l-5 -28q-61 -7 -80 -25.5t-34 -80.5q-48 -204 -64 -264q-35 -129 -89 -189q-69 -74 -187 -74
q-110 0 -162 54q-34 35 -43 87.5t4 93.5l84 340q7 31 -9.5 41.5t-80.5 16.5zM642 726l-16 -21q-19 8 -66.5 33t-62.5 32q-53 -23 -169 -65l-10 24q105 60 181 118h25q37 -47 118 -121z" />
    <glyph glyph-name="Udieresis" unicode="&#xdc;" horiz-adv-x="693" 
d="M114 617l8 28h279l-7 -28q-60 -5 -79 -16t-28 -46q-79 -323 -85 -356q-11 -56 8 -96q31 -69 137 -69q81 0 128.5 50t74.5 156q10 39 32 129t34 139q16 68 3 85t-86 24l5 28h242l-5 -28q-61 -7 -80 -25.5t-34 -80.5q-48 -204 -64 -264q-35 -129 -89 -189q-69 -74 -187 -74
q-110 0 -162 54q-34 35 -43 87.5t4 93.5l84 340q7 31 -9.5 41.5t-80.5 16.5zM589 807q20 0 31.5 -14.5t9.5 -32.5t-16 -32t-34 -14q-19 0 -31.5 13t-9.5 32q3 23 17.5 35.5t32.5 12.5zM383 807q20 0 31.5 -14.5t9.5 -32.5t-16 -32t-34 -14q-18 0 -30.5 13t-9.5 32
q2 23 16.5 35.5t32.5 12.5z" />
    <glyph glyph-name="Yacute" unicode="&#xdd;" horiz-adv-x="615" 
d="M113 0l7 28q60 5 78 16t28 47l39 155q6 28 4 40q-8 43 -78 275q-11 34 -27 42.5t-65 13.5l6 28h249l-5 -28q-47 -5 -64 -10q-15 -7 -12 -24q19 -78 74 -266q158 204 190 253q20 33 -6 38q-26 6 -55 9l7 28h227l-6 -28q-51 -4 -78 -18t-60 -57q-180 -224 -201 -257
q-10 -13 -16 -38l-39 -159q-8 -33 8.5 -43.5t81.5 -16.5l-8 -28h-279zM363 710l125 131q12 2 51.5 -6t54.5 -15l-1 -15l-212 -116z" />
    <glyph glyph-name="Thorn" unicode="&#xde;" horiz-adv-x="584" 
d="M268 447l-67 -271q23 -5 65 -5q84 0 143.5 42.5t59.5 133.5q0 123 -140 123q-34 0 -49 -4q-8 -3 -12 -19zM-19 0l7 28q60 5 78.5 15.5t27.5 46.5l117 469q7 31 -9.5 41.5t-80.5 16.5l7 28h279l-6 -28q-61 -5 -80 -16t-27 -46l-14 -54h61q94 0 141 -25q39 -19 58.5 -54
t19.5 -73q0 -60 -27.5 -104t-72.5 -66t-90.5 -31.5t-94.5 -9.5q-39 0 -83 7l-13 -57q-8 -33 8 -43.5t81 -16.5l-8 -28h-279z" />
    <glyph glyph-name="germandbls" unicode="&#xdf;" horiz-adv-x="537" 
d="M59 410l11 34h81q31 116 99 190.5t162 74.5q67 0 101 -32.5t34 -79.5q0 -56 -65 -110q-12 -11 -29.5 -26t-29 -25t-23 -20.5t-17 -18.5t-5.5 -13q0 -3 0.5 -5.5t2 -6.5t3 -7t4.5 -8t5.5 -9t7.5 -11t9 -12.5t11 -15t12 -17.5q55 -81 55 -127q0 -67 -60.5 -121t-129.5 -54
q-34 0 -63 15.5t-29 42.5q0 15 14.5 30.5t31.5 15.5q15 0 52 -45q3 -4 5 -6q10 -13 26 -13q31 0 56.5 28t25.5 62q0 51 -49 118q-38 54 -49.5 75.5t-11.5 39.5q0 21 43 59q74 64 100.5 106t26.5 82q0 33 -18.5 55t-58.5 22q-57 0 -102.5 -63.5t-83.5 -224.5q-9 -38 -42 -178
t-47 -197q-27 -112 -92.5 -186.5t-136.5 -74.5q-31 0 -49.5 15t-18.5 35q0 17 16 35t32 18q14 0 36 -21q27 -28 42 -28q13 0 23 7.5t27 46t34 108.5q7 31 30 129.5t43 184t31 127.5h-83z" />
    <glyph glyph-name="agrave" unicode="&#xe0;" horiz-adv-x="509" 
d="M467 143l20 -21q-35 -62 -83 -98t-81 -36q-17 0 -26.5 10t-9.5 27q0 24 45 174q-57 -104 -130 -164q-54 -46 -102 -46q-61 0 -61 89q0 75 39 163.5t96 145.5q71 69 137 69q58 0 82 -50l15 50h71q-71 -231 -108 -374q-8 -30 5 -30q11 0 37.5 25t53.5 66zM366 361
q0 61 -51 61q-55 0 -112 -86q-36 -54 -60 -123.5t-24 -119.5q0 -46 28 -46q39 0 100.5 74t95.5 154q23 51 23 86zM379 532l-27 -11l-116 162l2 11q12 4 46 8t40 2z" />
    <glyph glyph-name="aacute" unicode="&#xe1;" horiz-adv-x="510" 
d="M467 143l20 -21q-35 -62 -83 -98t-81 -36q-17 0 -26.5 10t-9.5 27q0 24 45 174q-57 -104 -130 -164q-54 -46 -102 -46q-61 0 -61 89q0 75 39 163.5t96 145.5q71 69 137 69q58 0 82 -50l15 50h71q-71 -231 -108 -374q-8 -30 5 -30q11 0 37.5 25t53.5 66zM366 361
q0 61 -51 61q-55 0 -112 -86q-36 -54 -60 -123.5t-24 -119.5q0 -46 28 -46q39 0 100.5 74t95.5 154q23 51 23 86zM318 513l-25 16l104 164q12 1 45.5 -5t45.5 -11v-10z" />
    <glyph glyph-name="acircumflex" unicode="&#xe2;" horiz-adv-x="509" 
d="M467 143l20 -21q-35 -62 -83 -98t-81 -36q-17 0 -26.5 10t-9.5 27q0 24 45 174q-57 -104 -130 -164q-54 -46 -102 -46q-61 0 -61 89q0 75 39 163.5t96 145.5q71 69 137 69q58 0 82 -50l15 50h71q-71 -231 -108 -374q-8 -30 5 -30q11 0 37.5 25t53.5 66zM366 361
q0 61 -51 61q-55 0 -112 -86q-36 -54 -60 -123.5t-24 -119.5q0 -46 28 -46q39 0 100.5 74t95.5 154q23 51 23 86zM456 527l-26 -11l-70 100q-45 -40 -132 -103l-20 19q92 92 157 171h26q53 -147 65 -176z" />
    <glyph glyph-name="atilde" unicode="&#xe3;" horiz-adv-x="509" 
d="M467 143l20 -21q-35 -62 -83 -98t-81 -36q-17 0 -26.5 10t-9.5 27q0 24 45 174q-57 -104 -130 -164q-54 -46 -102 -46q-61 0 -61 89q0 75 39 163.5t96 145.5q71 69 137 69q58 0 82 -50l15 50h71q-71 -231 -108 -374q-8 -30 5 -30q11 0 37.5 25t53.5 66zM366 361
q0 61 -51 61q-55 0 -112 -86q-36 -54 -60 -123.5t-24 -119.5q0 -46 28 -46q39 0 100.5 74t95.5 154q23 51 23 86zM481 665l25 -7q-5 -35 -30 -68.5t-67 -33.5q-29 0 -79 23q-41 18 -62 18q-20 0 -32 -10t-23 -35l-25 9q8 41 33 69t68 28q22 0 75 -21q43 -19 59 -19
q22 0 34.5 9t23.5 38z" />
    <glyph glyph-name="adieresis" unicode="&#xe4;" horiz-adv-x="510" 
d="M467 143l20 -21q-35 -62 -83 -98t-81 -36q-17 0 -26.5 10t-9.5 27q0 24 45 174q-57 -104 -130 -164q-54 -46 -102 -46q-61 0 -61 89q0 75 39 163.5t96 145.5q71 69 137 69q58 0 82 -50l15 50h71q-71 -231 -108 -374q-8 -30 5 -30q11 0 37.5 25t53.5 66zM366 361
q0 61 -51 61q-55 0 -112 -86q-36 -54 -60 -123.5t-24 -119.5q0 -46 28 -46q39 0 100.5 74t95.5 154q23 51 23 86zM494 611q0 -18 -12.5 -35t-32.5 -17q-42 0 -42 44q0 23 14.5 38t32.5 15q20 0 30.5 -14.5t9.5 -30.5zM317 611q0 -18 -12.5 -35t-33.5 -17q-42 0 -42 44
q1 23 15.5 38t31.5 15q21 0 31.5 -14t9.5 -31z" />
    <glyph glyph-name="aring" unicode="&#xe5;" horiz-adv-x="510" 
d="M467 143l20 -21q-35 -62 -83 -98t-81 -36q-17 0 -26.5 10t-9.5 27q0 24 45 174q-57 -104 -130 -164q-54 -46 -102 -46q-61 0 -61 89q0 75 39 163.5t96 145.5q71 69 137 69q58 0 82 -50l15 50h71q-71 -231 -108 -374q-8 -30 5 -30q11 0 37.5 25t53.5 66zM366 361
q0 61 -51 61q-55 0 -112 -86q-36 -54 -60 -123.5t-24 -119.5q0 -46 28 -46q39 0 100.5 74t95.5 154q23 51 23 86zM361 687q38 0 59 -25t18 -61q-3 -35 -29 -60t-64 -25q-40 0 -60.5 25.5t-16.5 61.5t29.5 60t63.5 24zM359 655q-46 0 -53 -53q-3 -25 9 -39.5t32 -14.5
q46 0 53 55q2 23 -9 37.5t-32 14.5z" />
    <glyph glyph-name="ae" unicode="&#xe6;" horiz-adv-x="677" 
d="M602 137l19 -17q-77 -132 -189 -132q-32 0 -55 13t-34 34.5t-16 43.5t-5 46q0 10 2 30q-52 -82 -111 -124.5t-105 -42.5q-35 0 -52.5 24t-17.5 61q0 75 53.5 164.5t144.5 149.5q88 57 193 57q42 0 69 -9q46 21 82 21q41 0 66.5 -19.5t25.5 -56.5q0 -61 -73.5 -105
t-185.5 -60q-9 -43 -9 -83q0 -88 67 -88q32 0 62 20.5t69 72.5zM452 402q-23 10 -47 10q-68 0 -129 -45q-65 -47 -110 -131t-45 -148q0 -47 31 -47q35 0 91.5 57t112.5 169q42 87 96 135zM420 244q56 13 95.5 32.5t56.5 41t23.5 37t6.5 28.5q0 40 -42 40q-41 0 -79.5 -51
t-60.5 -128z" />
    <glyph glyph-name="ccedilla" unicode="&#xe7;" horiz-adv-x="394" 
d="M88 -78l76 66h-11q-106 0 -106 132q0 67 30.5 143.5t83.5 127.5q68 65 145 65q48 0 70.5 -19t22.5 -39q0 -22 -14.5 -36t-29.5 -14q-20 0 -36 27q-23 36 -34 40q-6 2 -15 2q-34 0 -67.5 -46.5t-53 -112.5t-19.5 -124q0 -91 61 -91t135 103l19 -18q-51 -92 -130 -127
l-54 -50q32 -11 52 -33.5t20 -50.5q0 -40 -32 -69.5t-77 -29.5q-35 0 -55.5 14.5t-20.5 32.5q0 10 10.5 19.5t23.5 9.5t28 -21q15 -23 31 -23t25.5 11.5t9.5 29.5q0 24 -22.5 42.5t-68.5 22.5z" />
    <glyph glyph-name="egrave" unicode="&#xe8;" horiz-adv-x="404" 
d="M148 246q55 12 93.5 31t56 40t24.5 37t7 29q0 41 -41 41t-80.5 -50.5t-59.5 -127.5zM329 138l19 -19q-37 -63 -86.5 -97t-102.5 -34q-61 0 -86 39.5t-25 96.5q0 86 44.5 172.5t113.5 130.5q48 29 97 29q42 0 69 -19.5t27 -56.5q0 -61 -73.5 -104.5t-184.5 -60.5
q-10 -45 -10 -83q0 -88 65 -88q68 0 133 94zM338 527l-27 -11l-116 162l2 11q12 4 46 8t40 2z" />
    <glyph glyph-name="eacute" unicode="&#xe9;" horiz-adv-x="404" 
d="M148 246q55 12 93.5 31t56 40t24.5 37t7 29q0 41 -41 41t-80.5 -50.5t-59.5 -127.5zM329 138l19 -19q-37 -63 -86.5 -97t-102.5 -34q-61 0 -86 39.5t-25 96.5q0 86 44.5 172.5t113.5 130.5q48 29 97 29q42 0 69 -19.5t27 -56.5q0 -61 -73.5 -104.5t-184.5 -60.5
q-10 -45 -10 -83q0 -88 65 -88q68 0 133 94zM283 512l-25 16l104 164q12 1 45.5 -5t45.5 -11v-10z" />
    <glyph glyph-name="ecircumflex" unicode="&#xea;" horiz-adv-x="404" 
d="M148 246q55 12 93.5 31t56 40t24.5 37t7 29q0 41 -41 41t-80.5 -50.5t-59.5 -127.5zM329 138l19 -19q-37 -63 -86.5 -97t-102.5 -34q-61 0 -86 39.5t-25 96.5q0 86 44.5 172.5t113.5 130.5q48 29 97 29q42 0 69 -19.5t27 -56.5q0 -61 -73.5 -104.5t-184.5 -60.5
q-10 -45 -10 -83q0 -88 65 -88q68 0 133 94zM411 527l-25 -11l-70 100q-33 -30 -132 -103l-20 19q81 81 157 171h26q35 -101 64 -176z" />
    <glyph glyph-name="edieresis" unicode="&#xeb;" horiz-adv-x="404" 
d="M148 246q55 12 93.5 31t56 40t24.5 37t7 29q0 41 -41 41t-80.5 -50.5t-59.5 -127.5zM329 138l19 -19q-37 -63 -86.5 -97t-102.5 -34q-61 0 -86 39.5t-25 96.5q0 86 44.5 172.5t113.5 130.5q48 29 97 29q42 0 69 -19.5t27 -56.5q0 -61 -73.5 -104.5t-184.5 -60.5
q-10 -45 -10 -83q0 -88 65 -88q68 0 133 94zM445 611q0 -18 -12.5 -35t-32.5 -17q-42 0 -42 44q0 23 14.5 38t32.5 15q20 0 30.5 -14.5t9.5 -30.5zM268 611q0 -18 -12.5 -35t-33.5 -17q-42 0 -42 44q1 23 15.5 38t31.5 15q21 0 31.5 -14t9.5 -31z" />
    <glyph glyph-name="igrave" unicode="&#xec;" horiz-adv-x="262" 
d="M59 322l-15 21q35 48 83 80.5t82 32.5q22 0 22 -27q0 -17 -16 -69q-66 -208 -89 -274q-11 -34 3 -34q12 0 37.5 23.5t56.5 67.5l18 -20q-35 -61 -82 -98t-90 -37q-49 0 -14 107q47 145 88 266q8 25 -3 25q-22 0 -81 -64zM249 523l-27 -11l-116 162l2 11q13 4 47 8t39 2z
" />
    <glyph glyph-name="iacute" unicode="&#xed;" horiz-adv-x="262" 
d="M59 322l-15 21q35 48 83 80.5t82 32.5q22 0 22 -27q0 -17 -16 -69q-66 -208 -89 -274q-11 -34 3 -34q12 0 37.5 23.5t56.5 67.5l18 -20q-35 -61 -82 -98t-90 -37q-49 0 -14 107q47 145 88 266q8 25 -3 25q-22 0 -81 -64zM188 513l-25 16l104 164q12 1 45.5 -5t45.5 -11
v-10z" />
    <glyph glyph-name="icircumflex" unicode="&#xee;" horiz-adv-x="262" 
d="M59 322l-15 21q35 48 83 80.5t82 32.5q22 0 22 -27q0 -17 -16 -69q-66 -208 -89 -274q-11 -34 3 -34q12 0 37.5 23.5t56.5 67.5l18 -20q-35 -61 -82 -98t-90 -37q-49 0 -14 107q47 145 88 266q8 25 -3 25q-22 0 -81 -64zM312 527l-26 -11l-70 100q-45 -40 -132 -103
l-20 19q81 81 157 171h26q53 -147 65 -176z" />
    <glyph glyph-name="idieresis" unicode="&#xef;" horiz-adv-x="262" 
d="M59 322l-15 21q35 48 83 80.5t82 32.5q22 0 22 -27q0 -17 -16 -69q-66 -208 -89 -274q-11 -34 3 -34q12 0 37.5 23.5t56.5 67.5l18 -20q-35 -61 -82 -98t-90 -37q-49 0 -14 107q47 145 88 266q8 25 -3 25q-22 0 -81 -64zM345 611q0 -18 -12.5 -35t-32.5 -17q-42 0 -42 44
q0 23 14.5 38t32.5 15q20 0 30.5 -14.5t9.5 -30.5zM168 611q0 -18 -12.5 -35t-33.5 -17q-42 0 -42 44q1 23 15.5 38t31.5 15q21 0 31.5 -14t9.5 -31z" />
    <glyph glyph-name="eth" unicode="&#xf0;" horiz-adv-x="482" 
d="M469 639l-95 -51q66 -94 66 -223q0 -93 -31 -178t-92.5 -142t-138.5 -57q-69 0 -100.5 42t-31.5 106q0 112 73 210t179 98q44 0 62 -15q-5 75 -37 132l-105 -56l-13 28l102 55q-42 60 -115 98l14 25q90 -33 148 -98l101 55zM189 20q45 0 86.5 59t63.5 135t22 136
q0 25 -15.5 43.5t-47.5 18.5q-66 0 -119 -97t-53 -210q0 -85 63 -85z" />
    <glyph glyph-name="ntilde" unicode="&#xf1;" horiz-adv-x="512" 
d="M473 143l19 -20q-34 -61 -82 -98t-87 -37q-56 0 -14 122q8 25 67 208q11 33 13 51.5t-4.5 27t-21.5 8.5q-48 0 -114.5 -86.5t-112.5 -226.5q-27 -83 -32 -102q-45 0 -71 11q82 274 104 357q10 34 -4 34q-25 0 -81 -70l-18 21q38 55 79.5 84t75.5 29q30 0 30 -32
q0 -33 -40 -164q59 106 129 160q48 36 99 36q58 0 58 -57q0 -36 -24 -110q-40 -122 -63 -199q-12 -37 1 -37q32 0 94 90zM454 665l25 -7q-5 -35 -30 -68.5t-67 -33.5q-27 0 -79 23q-41 18 -62 18q-20 0 -32 -10t-23 -35l-25 9q9 42 33.5 69.5t67.5 27.5q22 0 75 -21
q43 -19 59 -19q22 0 34.5 9t23.5 38z" />
    <glyph glyph-name="ograve" unicode="&#xf2;" horiz-adv-x="480" 
d="M312 456q69 0 99 -43.5t30 -102.5q0 -74 -37.5 -152.5t-100.5 -125.5q-60 -44 -130 -44q-62 0 -94.5 39.5t-32.5 100.5q0 77 39.5 160.5t107.5 129.5q58 38 119 38zM188 21q47 0 88 58.5t62.5 131.5t21.5 129q0 84 -57 84q-44 0 -86 -51.5t-66 -125.5t-24 -143
q0 -83 61 -83zM367 523l-26 -11l-117 162l2 11q13 4 47 8t40 2z" />
    <glyph glyph-name="oacute" unicode="&#xf3;" horiz-adv-x="480" 
d="M312 456q69 0 99 -43.5t30 -102.5q0 -74 -37.5 -152.5t-100.5 -125.5q-60 -44 -130 -44q-62 0 -94.5 39.5t-32.5 100.5q0 77 39.5 160.5t107.5 129.5q58 38 119 38zM188 21q47 0 88 58.5t62.5 131.5t21.5 129q0 84 -57 84q-44 0 -86 -51.5t-66 -125.5t-24 -143
q0 -83 61 -83zM304 513l-25 16l104 164q12 1 45.5 -5t45.5 -11v-10z" />
    <glyph glyph-name="ocircumflex" unicode="&#xf4;" horiz-adv-x="480" 
d="M312 456q69 0 99 -43.5t30 -102.5q0 -74 -37.5 -152.5t-100.5 -125.5q-60 -44 -130 -44q-62 0 -94.5 39.5t-32.5 100.5q0 77 39.5 160.5t107.5 129.5q58 38 119 38zM188 21q47 0 88 58.5t62.5 131.5t21.5 129q0 84 -57 84q-44 0 -86 -51.5t-66 -125.5t-24 -143
q0 -83 61 -83zM442 527l-26 -11l-70 100q-45 -40 -132 -103l-20 19q92 92 157 171h26q53 -147 65 -176z" />
    <glyph glyph-name="otilde" unicode="&#xf5;" horiz-adv-x="480" 
d="M312 456q69 0 99 -43.5t30 -102.5q0 -74 -37.5 -152.5t-100.5 -125.5q-60 -44 -130 -44q-62 0 -94.5 39.5t-32.5 100.5q0 77 39.5 160.5t107.5 129.5q58 38 119 38zM188 21q47 0 88 58.5t62.5 131.5t21.5 129q0 84 -57 84q-44 0 -86 -51.5t-66 -125.5t-24 -143
q0 -83 61 -83zM465 665l25 -7q-5 -35 -30 -68.5t-67 -33.5q-27 0 -79 23q-41 18 -62 18q-20 0 -32 -10t-23 -35l-25 9q9 42 33.5 69.5t67.5 27.5q22 0 75 -21q43 -19 59 -19q22 0 34.5 9t23.5 38z" />
    <glyph glyph-name="odieresis" unicode="&#xf6;" horiz-adv-x="480" 
d="M312 456q69 0 99 -43.5t30 -102.5q0 -74 -37.5 -152.5t-100.5 -125.5q-60 -44 -130 -44q-62 0 -94.5 39.5t-32.5 100.5q0 77 39.5 160.5t107.5 129.5q58 38 119 38zM188 21q47 0 88 58.5t62.5 131.5t21.5 129q0 84 -57 84q-44 0 -86 -51.5t-66 -125.5t-24 -143
q0 -83 61 -83zM475 611q0 -18 -12.5 -35t-32.5 -17q-42 0 -42 44q0 23 14.5 38t32.5 15q20 0 30.5 -14.5t9.5 -30.5zM298 611q0 -18 -12.5 -35t-33.5 -17q-42 0 -42 44q1 23 15.5 38t31.5 15q21 0 31.5 -14t9.5 -31z" />
    <glyph glyph-name="divide" unicode="&#xf7;" horiz-adv-x="636" 
d="M319 365q-19 0 -36 14.5t-17 40.5q0 24 15 39.5t38 15.5q22 0 37.5 -15.5t15.5 -39.5q0 -25 -16.5 -40t-36.5 -15zM319 4q-18 0 -35.5 14.5t-17.5 39.5q0 24 15 40t38 16q22 0 37.5 -16t15.5 -39q0 -25 -17.5 -40t-35.5 -15zM561 213h-486v59h486v-59z" />
    <glyph glyph-name="oslash" unicode="&#xf8;" horiz-adv-x="480" 
d="M442 463l-33 -45q34 -41 34 -108q0 -76 -38 -152.5t-102 -124.5q-63 -45 -130 -45q-40 0 -68 17l-36 -48l-24 20l36 48q-35 38 -35 103q0 77 40.5 160.5t108.5 129.5q55 38 121 38q42 0 70 -19l33 45zM125 85l230 311q-15 29 -51 29q-44 0 -86.5 -50.5t-68 -125
t-25.5 -144.5q0 -14 1 -20zM365 359l-229 -312q15 -28 52 -28q47 0 89.5 58t65.5 132t23 133q0 12 -1 17z" />
    <glyph glyph-name="ugrave" unicode="&#xf9;" horiz-adv-x="516" 
d="M54 322l-18 21q37 53 82 83t83 30q24 0 24 -32q0 -18 -17 -69q-7 -24 -33 -109t-36 -121q-22 -80 15 -80q47 0 111 88t103 194q16 43 37 117q30 0 76 4q-71 -239 -102 -367q-6 -28 7 -28t37.5 23.5t51.5 66.5l21 -19q-39 -71 -83.5 -103.5t-78.5 -32.5t-34 42
q0 36 38 166q-55 -103 -115.5 -155.5t-118.5 -52.5q-50 0 -50 61q0 30 14 84q11 39 37 122.5t35 113.5q6 19 -4 19q-26 0 -82 -66zM354 523l-26 -11l-117 162l2 11q13 4 47 8t40 2z" />
    <glyph glyph-name="uacute" unicode="&#xfa;" horiz-adv-x="516" 
d="M54 322l-18 21q37 53 82 83t83 30q24 0 24 -32q0 -18 -17 -69q-7 -24 -33 -109t-36 -121q-22 -80 15 -80q47 0 111 88t103 194q16 43 37 117q30 0 76 4q-71 -239 -102 -367q-6 -28 7 -28t37.5 23.5t51.5 66.5l21 -19q-39 -71 -83.5 -103.5t-78.5 -32.5t-34 42
q0 36 38 166q-55 -103 -115.5 -155.5t-118.5 -52.5q-50 0 -50 61q0 30 14 84q11 39 37 122.5t35 113.5q6 19 -4 19q-26 0 -82 -66zM310 513l-25 16l104 164q12 1 45.5 -5t45.5 -11v-10z" />
    <glyph glyph-name="ucircumflex" unicode="&#xfb;" horiz-adv-x="516" 
d="M54 322l-18 21q37 53 82 83t83 30q24 0 24 -32q0 -18 -17 -69q-7 -24 -33 -109t-36 -121q-22 -80 15 -80q47 0 111 88t103 194q16 43 37 117q30 0 76 4q-71 -239 -102 -367q-6 -28 7 -28t37.5 23.5t51.5 66.5l21 -19q-39 -71 -83.5 -103.5t-78.5 -32.5t-34 42
q0 36 38 166q-55 -103 -115.5 -155.5t-118.5 -52.5q-50 0 -50 61q0 30 14 84q11 39 37 122.5t35 113.5q6 19 -4 19q-26 0 -82 -66zM447 536l-26 -11l-70 100q-45 -40 -132 -103l-20 19q81 81 157 171h26q53 -147 65 -176z" />
    <glyph glyph-name="udieresis" unicode="&#xfc;" horiz-adv-x="516" 
d="M54 322l-18 21q37 53 82 83t83 30q24 0 24 -32q0 -18 -17 -69q-7 -24 -33 -109t-36 -121q-22 -80 15 -80q47 0 111 88t103 194q16 43 37 117q30 0 76 4q-71 -239 -102 -367q-6 -28 7 -28t37.5 23.5t51.5 66.5l21 -19q-39 -71 -83.5 -103.5t-78.5 -32.5t-34 42
q0 36 38 166q-55 -103 -115.5 -155.5t-118.5 -52.5q-50 0 -50 61q0 30 14 84q11 39 37 122.5t35 113.5q6 19 -4 19q-26 0 -82 -66zM470 611q0 -18 -12.5 -35t-32.5 -17q-42 0 -42 44q0 23 14.5 38t32.5 15q20 0 30.5 -14.5t9.5 -30.5zM293 611q0 -18 -12.5 -35t-33.5 -17
q-42 0 -42 44q1 23 15.5 38t31.5 15q21 0 31.5 -14t9.5 -31z" />
    <glyph glyph-name="yacute" unicode="&#xfd;" horiz-adv-x="441" 
d="M50 297l-23 18q37 71 75.5 106t69.5 35q39 0 48 -95q17 -168 12 -321q72 113 101 193.5t29 121.5q0 14 -4 37t-4 27q0 8 19.5 22.5t39.5 14.5q17 0 17 -38q0 -26 -9 -62q-20 -95 -99.5 -231t-156.5 -225q-52 -61 -101 -99.5t-79 -38.5q-25 0 -40 14t-15 37q0 22 19 44
t35 22q12 0 26 -17q22 -25 33 -25q26 0 69 54q34 43 44 81t10 122q0 132 -18 244q-6 47 -22 47q-24 0 -76 -88zM276 513l-25 16l104 164q12 1 45.5 -5t45.5 -11v-10z" />
    <glyph glyph-name="thorn" unicode="&#xfe;" horiz-adv-x="499" 
d="M119 75q0 -21 15.5 -37t35.5 -16q55 0 110 64q48 56 79.5 132.5t31.5 134.5q0 53 -45 53q-38 0 -87.5 -47t-96.5 -139q-15 -31 -28.5 -78.5t-14.5 -66.5zM100 1q-26 -108 -36 -162q-4 -23 19 -29q11 -3 62 -9l-6 -25l-241 -12l7 27q31 4 50 12q15 6 24 28q14 36 73 265
q11 42 42 162.5t57.5 222t35.5 139.5q8 29 -13 34t-61 9l7 25q111 6 171 23l3 -4q-8 -16 -31 -90q-13 -45 -46 -161t-48 -165q99 165 224 165q80 0 80 -94q0 -66 -31 -138.5t-86 -131.5q-96 -104 -199 -104q-32 0 -57 13z" />
    <glyph glyph-name="ydieresis" unicode="&#xff;" horiz-adv-x="441" 
d="M50 297l-23 18q37 71 75.5 106t69.5 35q39 0 48 -95q17 -168 12 -321q72 113 101 193.5t29 121.5q0 14 -4 37t-4 27q0 8 19.5 22.5t39.5 14.5q17 0 17 -38q0 -26 -9 -62q-20 -95 -99.5 -231t-156.5 -225q-52 -61 -101 -99.5t-79 -38.5q-25 0 -40 14t-15 37q0 22 19 44
t35 22q12 0 26 -17q22 -25 33 -25q26 0 69 54q34 43 44 81t10 122q0 132 -18 244q-6 47 -22 47q-24 0 -76 -88zM425 611q0 -18 -12.5 -35t-32.5 -17q-42 0 -42 44q0 23 15 38t32 15q20 0 30.5 -14.5t9.5 -30.5zM248 611q0 -18 -12.5 -35t-33.5 -17q-41 0 -41 44
q0 23 14.5 38t31.5 15q21 0 31.5 -14t9.5 -31z" />
    <glyph glyph-name="Amacron" unicode="&#x100;" horiz-adv-x="642" 
d="M-56 0l7 28q47 6 69 17.5t45 43.5q16 23 345 519q8 14 11 37h71q8 -171 34 -557q2 -27 9.5 -36.5t30.5 -15.5q14 -3 49 -8l-5 -28h-258l6 28q60 8 73 16t11 42q-4 98 -9 170q-115 3 -213 -7q-71 -103 -102 -165q-10 -19 -7.5 -28t20.5 -15q16 -7 68 -13l-7 -28h-248z
M431 292q-14 240 -16 267q-22 -35 -84 -132.5t-88 -140.5q64 6 188 6zM338 764h275l-13 -53h-276z" />
    <glyph glyph-name="amacron" unicode="&#x101;" horiz-adv-x="509" 
d="M467 143l20 -21q-35 -62 -83 -98t-81 -36q-17 0 -26.5 10t-9.5 27q0 24 45 174q-57 -104 -130 -164q-54 -46 -102 -46q-61 0 -61 89q0 75 39 163.5t96 145.5q71 69 137 69q58 0 82 -50l15 50h71q-71 -231 -108 -374q-8 -30 5 -30q11 0 37.5 25t53.5 66zM366 361
q0 61 -51 61q-55 0 -112 -86q-36 -54 -60 -123.5t-24 -119.5q0 -46 28 -46q39 0 100.5 74t95.5 154q23 51 23 86zM234 627h239l-13 -50h-239z" />
    <glyph glyph-name="Abreve" unicode="&#x102;" horiz-adv-x="642" 
d="M-56 0l7 28q47 6 69 17.5t45 43.5q16 23 345 519q8 14 11 37h71q8 -171 34 -557q2 -27 9.5 -36.5t30.5 -15.5q14 -3 49 -8l-5 -28h-258l6 28q60 8 73 16t11 42q-4 98 -9 170q-115 3 -213 -7q-71 -103 -102 -165q-10 -19 -7.5 -28t20.5 -15q16 -7 68 -13l-7 -28h-248z
M431 292q-14 240 -16 267q-22 -35 -84 -132.5t-88 -140.5q64 6 188 6zM619 824l22 -10q-63 -119 -186 -119q-63 0 -97.5 37.5t-34.5 84.5l24 7q9 -18 18.5 -29t36 -21.5t67.5 -10.5q58 0 88.5 14.5t61.5 46.5z" />
    <glyph glyph-name="abreve" unicode="&#x103;" horiz-adv-x="510" 
d="M467 143l20 -21q-35 -62 -83 -98t-81 -36q-17 0 -26.5 10t-9.5 27q0 24 45 174q-57 -104 -130 -164q-54 -46 -102 -46q-61 0 -61 89q0 75 39 163.5t96 145.5q71 69 137 69q58 0 82 -50l15 50h71q-71 -231 -108 -374q-8 -30 5 -30q11 0 37.5 25t53.5 66zM366 361
q0 61 -51 61q-55 0 -112 -86q-36 -54 -60 -123.5t-24 -119.5q0 -46 28 -46q39 0 100.5 74t95.5 154q23 51 23 86zM484 675l22 -9q-25 -60 -69 -92.5t-99 -32.5q-54 0 -85 33.5t-28 95.5l25 4q6 -32 31 -50.5t65 -18.5q91 0 138 70z" />
    <glyph glyph-name="Aogonek" unicode="&#x104;" horiz-adv-x="642" 
d="M610 0h-101q-97 -83 -97 -131q0 -23 11.5 -36.5t32.5 -13.5q28 0 62 25l12 -19q-44 -63 -117 -63q-35 0 -57.5 20t-22.5 54q0 69 142 164h-123l6 28q60 8 73 16t11 42q-4 98 -9 170q-115 3 -213 -7q-71 -103 -102 -165q-10 -19 -7.5 -28t20.5 -15q16 -7 68 -13l-7 -28
h-248l7 28q47 6 69 17.5t45 43.5q16 23 345 519q8 14 11 37h71q8 -171 34 -557q2 -27 9.5 -36.5t30.5 -15.5q14 -3 49 -8zM243 286q64 6 188 6q-14 240 -16 267q-22 -35 -84 -132.5t-88 -140.5z" />
    <glyph glyph-name="aogonek" unicode="&#x105;" horiz-adv-x="509" 
d="M402 -154l12 -19q-21 -32 -53.5 -48.5t-63.5 -16.5q-40 0 -61.5 19.5t-21.5 54.5q0 63 113 152q-20 -1 -30.5 9t-10.5 28q0 21 46 174q-58 -104 -130 -164q-54 -46 -102 -46q-61 0 -61 89q0 75 39 163.5t96 145.5q71 69 136 69q60 0 82 -50l15 50h72q-63 -198 -109 -374
q-8 -30 5 -30q11 0 37.5 25t54.5 66l19 -20q-21 -41 -64 -82q-70 -66 -99.5 -103.5t-29.5 -72.5q0 -43 45 -43q32 0 64 24zM365 361q0 61 -51 61q-55 0 -111 -86q-36 -55 -60 -124.5t-24 -118.5q0 -46 28 -46q39 0 100 74t95 153q23 53 23 87z" />
    <glyph glyph-name="Cacute" unicode="&#x106;" horiz-adv-x="639" 
d="M608 461h-28q8 106 -37 141q-31 26 -86 26q-117 0 -199 -122t-82 -276q0 -210 165 -210q66 0 123 47q43 36 94 108l24 -12q-59 -101 -89 -159q-25 0 -55 -6q-63 -14 -111 -14q-113 0 -181 72t-68 190q0 71 25 142.5t76 134.5t121 99q74 38 163 38q85 0 148 -34
q10 5 38 22h22q-36 -88 -63 -187zM423 716l125 131q12 2 51.5 -6t54.5 -15l-1 -15l-212 -116z" />
    <glyph glyph-name="cacute" unicode="&#x107;" horiz-adv-x="394" 
d="M326 146l19 -18q-36 -64 -87.5 -102t-104.5 -38q-106 0 -106 132q0 67 30.5 143.5t83.5 127.5q68 65 145 65q48 0 70.5 -19t22.5 -39q0 -22 -14.5 -36t-29.5 -14q-20 0 -36 27q-23 36 -34 40q-6 2 -15 2q-34 0 -67.5 -46.5t-53 -112.5t-19.5 -124q0 -91 61 -91t135 103z
M283 513l-24 16l104 164q12 1 45 -5t46 -11l-1 -10z" />
    <glyph glyph-name="Ccircumflex" unicode="&#x108;" horiz-adv-x="639" 
d="M608 461h-28q8 106 -37 141q-31 26 -86 26q-117 0 -199 -122t-82 -276q0 -210 165 -210q66 0 123 47q43 36 94 108l24 -12q-59 -101 -89 -159q-25 0 -55 -6q-63 -14 -111 -14q-113 0 -181 72t-68 190q0 71 25 142.5t76 134.5t121 99q74 38 163 38q85 0 148 -34
q10 5 38 22h22q-36 -88 -63 -187zM623 730l-15 -21q-20 9 -68.5 34t-60.5 31q-39 -17 -169 -65l-11 24q104 58 182 118h24q43 -52 118 -121z" />
    <glyph glyph-name="ccircumflex" unicode="&#x109;" horiz-adv-x="394" 
d="M326 146l19 -18q-36 -64 -87.5 -102t-104.5 -38q-106 0 -106 132q0 67 30.5 143.5t83.5 127.5q68 65 145 65q48 0 70.5 -19t22.5 -39q0 -22 -14.5 -36t-29.5 -14q-20 0 -36 27q-23 36 -34 40q-6 2 -15 2q-34 0 -67.5 -46.5t-53 -112.5t-19.5 -124q0 -91 61 -91t135 103z
M408 527l-25 -11l-70 100q-33 -30 -132 -103l-20 19q81 81 157 171h26q35 -101 64 -176z" />
    <glyph glyph-name="Cdotaccent" unicode="&#x10a;" horiz-adv-x="639" 
d="M608 461h-28q8 106 -37 141q-31 26 -86 26q-117 0 -199 -122t-82 -276q0 -210 165 -210q66 0 123 47q43 36 94 108l24 -12q-59 -101 -89 -159q-25 0 -55 -6q-63 -14 -111 -14q-113 0 -181 72t-68 190q0 71 25 142.5t76 134.5t121 99q74 38 163 38q85 0 148 -34
q10 5 38 22h22q-36 -88 -63 -187zM419 766q3 20 18 36.5t38 16.5q22 0 33 -16t9 -37q-1 -21 -17 -36t-37 -15q-22 0 -34 15.5t-10 35.5z" />
    <glyph glyph-name="cdotaccent" unicode="&#x10b;" horiz-adv-x="394" 
d="M326 146l19 -18q-36 -64 -87.5 -102t-104.5 -38q-106 0 -106 132q0 67 30.5 143.5t83.5 127.5q68 65 145 65q48 0 70.5 -19t22.5 -39q0 -22 -14.5 -36t-29.5 -14q-20 0 -36 27q-23 36 -34 40q-6 2 -15 2q-34 0 -67.5 -46.5t-53 -112.5t-19.5 -124q0 -91 61 -91t135 103z
M353 617q0 -23 -16 -41.5t-40 -18.5q-18 0 -28 12t-10 29q0 22 16 41.5t40 19.5q18 0 28 -12t10 -30z" />
    <glyph glyph-name="Ccaron" unicode="&#x10c;" horiz-adv-x="639" 
d="M608 461h-28q8 106 -37 141q-31 26 -86 26q-117 0 -199 -122t-82 -276q0 -210 165 -210q66 0 123 47q43 36 94 108l24 -12q-59 -101 -89 -159q-25 0 -55 -6q-63 -14 -111 -14q-113 0 -181 72t-68 190q0 71 25 142.5t76 134.5t121 99q74 38 163 38q85 0 148 -34
q10 5 38 22h22q-36 -88 -63 -187zM327 832l15 21q20 -9 70 -34.5t60 -30.5q45 19 168 65l11 -23q-113 -66 -182 -118h-24q-40 48 -118 120z" />
    <glyph glyph-name="ccaron" unicode="&#x10d;" horiz-adv-x="394" 
d="M326 146l19 -18q-36 -64 -87.5 -102t-104.5 -38q-106 0 -106 132q0 67 30.5 143.5t83.5 127.5q68 65 145 65q48 0 70.5 -19t22.5 -39q0 -22 -14.5 -36t-29.5 -14q-20 0 -36 27q-23 36 -34 40q-6 2 -15 2q-34 0 -67.5 -46.5t-53 -112.5t-19.5 -124q0 -91 61 -91t135 103z
M217 703l25 12l71 -101q16 15 38 32t56.5 42t40.5 30l17 -20q-81 -81 -157 -171h-26q-37 109 -65 176z" />
    <glyph glyph-name="Dcaron" unicode="&#x10e;" horiz-adv-x="693" 
d="M299 573l-118 -475q-9 -36 9 -50q24 -18 76 -18q122 0 205 91q48 54 75.5 125.5t27.5 141.5q0 113 -49.5 170t-155.5 57q-41 0 -54 -12q-12 -12 -16 -30zM-18 0l6 28q61 5 79 15.5t27 46.5l117 469q7 31 -9.5 41.5t-80.5 16.5l8 28h248q114 0 187 -49q100 -67 100 -217
q0 -89 -40.5 -170.5t-113.5 -134.5q-100 -74 -252 -74h-276zM266 818l15 21q16 -7 39 -18.5t51.5 -26t39.5 -20.5q53 23 169 65l10 -24q-104 -58 -182 -118h-24q-43 52 -118 121z" />
    <glyph glyph-name="dcaron" unicode="&#x10f;" horiz-adv-x="549" 
d="M587 463h-27q32 149 42 208l5 16q20 9 43 9q21 0 39 -8l-7 -16q-7 -14 -28.5 -62.5t-40 -89t-26.5 -57.5zM138 43q31 0 78.5 43.5t96.5 129.5q55 97 55 155q0 53 -47 53q-49 0 -100 -60.5t-82 -138t-31 -132.5q0 -50 30 -50zM467 143l19 -21q-40 -71 -83.5 -102.5
t-78.5 -31.5q-34 0 -34 43q0 20 37 153q-53 -92 -115.5 -144t-119.5 -52q-32 0 -49 26t-17 66q0 80 43.5 170t110.5 148q68 58 136 58q46 0 74 -28q33 119 48 188q7 29 -14 36q-30 8 -61 11l7 25q96 3 171 27l4 -3q-16 -35 -85.5 -292.5t-89.5 -339.5q-7 -29 6 -29
q29 0 91 92z" />
    <glyph glyph-name="Dcroat" unicode="&#x110;" horiz-adv-x="693" 
d="M129 645h248q114 0 187 -49q100 -67 100 -217q0 -89 -40.5 -170.5t-113.5 -134.5q-100 -74 -252 -74h-276l6 28q61 5 79 15.5t27 46.5l57 230h-103l7 33h105l51 206q7 31 -9.5 41.5t-80.5 16.5zM236 320l-55 -222q-9 -36 9 -50q24 -18 76 -18q122 0 205 91
q48 54 75.5 125.5t27.5 141.5q0 113 -49.5 170t-155.5 57q-41 0 -54 -12q-12 -12 -16 -30l-55 -220h165l-7 -33h-166z" />
    <glyph glyph-name="dcroat" unicode="&#x111;" horiz-adv-x="526" 
d="M579 532h-77q-93 -336 -120 -452q-7 -29 6 -29q29 0 91 92l19 -21q-40 -71 -83.5 -102.5t-78.5 -31.5q-34 0 -34 43q0 20 37 153q-53 -92 -115.5 -144t-119.5 -52q-32 0 -49 26t-17 66q0 76 42.5 162t109.5 144q68 58 136 58q46 0 74 -28q9 32 30 116h-179l9 35h179
q1 7 5 24t6 25q7 29 -14 35q-29 8 -61 12l7 25q114 4 170 23l4 -3q-12 -27 -44 -141h75zM325 216q53 94 53 143q0 53 -47 53q-49 0 -99.5 -58t-81 -132.5t-30.5 -128.5q0 -50 30 -50q31 0 78.5 43.5t96.5 129.5z" />
    <glyph glyph-name="Emacron" unicode="&#x112;" horiz-adv-x="620" 
d="M-24 0l7 28q61 5 81.5 16t29.5 47l117 468q7 31 -9.5 42t-80.5 16l7 28h373q87 0 124 6q-33 -81 -51 -181h-28q2 41 -2 86q-3 32 -18.5 44.5t-53.5 12.5h-130q-21 0 -29 -5.5t-12 -21.5l-59 -239h90q46 0 68.5 24t49.5 84h29q-45 -138 -67 -259h-29q1 36 1 62t-14 40.5
t-45 14.5h-91l-56 -224q-12 -56 44 -56h127q62 0 108 35q45 36 103 118l25 -14q-52 -91 -85 -174q-56 2 -146 2h-378zM285 776h276l-14 -53h-275z" />
    <glyph glyph-name="emacron" unicode="&#x113;" horiz-adv-x="404" 
d="M148 246q55 12 93.5 31t56 40t24.5 37t7 29q0 41 -41 41t-80.5 -50.5t-59.5 -127.5zM329 138l19 -19q-37 -63 -86.5 -97t-102.5 -34q-61 0 -86 39.5t-25 96.5q0 86 44.5 172.5t113.5 130.5q48 29 97 29q42 0 69 -19.5t27 -56.5q0 -61 -73.5 -104.5t-184.5 -60.5
q-10 -45 -10 -83q0 -88 65 -88q68 0 133 94zM194 627h240l-14 -50h-239z" />
    <glyph glyph-name="Ebreve" unicode="&#x114;" horiz-adv-x="620" 
d="M-24 0l7 28q61 5 81.5 16t29.5 47l117 468q7 31 -9.5 42t-80.5 16l7 28h373q87 0 124 6q-33 -81 -51 -181h-28q2 41 -2 86q-3 32 -18.5 44.5t-53.5 12.5h-130q-21 0 -29 -5.5t-12 -21.5l-59 -239h90q46 0 68.5 24t49.5 84h29q-45 -138 -67 -259h-29q1 36 1 62t-14 40.5
t-45 14.5h-91l-56 -224q-12 -56 44 -56h127q62 0 108 35q45 36 103 118l25 -14q-52 -91 -85 -174q-56 2 -146 2h-378zM558 834l22 -10q-61 -120 -186 -120q-63 0 -97 37.5t-34 85.5l23 7q9 -19 18 -29.5t36 -21.5t68 -11q58 0 89 15t61 47z" />
    <glyph glyph-name="ebreve" unicode="&#x115;" horiz-adv-x="404" 
d="M148 246q55 12 93.5 31t56 40t24.5 37t7 29q0 41 -41 41t-80.5 -50.5t-59.5 -127.5zM329 138l19 -19q-37 -63 -86.5 -97t-102.5 -34q-61 0 -86 39.5t-25 96.5q0 86 44.5 172.5t113.5 130.5q48 29 97 29q42 0 69 -19.5t27 -56.5q0 -61 -73.5 -104.5t-184.5 -60.5
q-10 -45 -10 -83q0 -88 65 -88q68 0 133 94zM439 675l22 -9q-25 -60 -69 -92.5t-99 -32.5q-54 0 -85 33.5t-28 95.5l25 4q6 -32 31 -50.5t65 -18.5q91 0 138 70z" />
    <glyph glyph-name="Edotaccent" unicode="&#x116;" horiz-adv-x="620" 
d="M-24 0l7 28q61 5 81.5 16t29.5 47l117 468q7 31 -9.5 42t-80.5 16l7 28h373q87 0 124 6q-33 -81 -51 -181h-28q2 41 -2 86q-3 32 -18.5 44.5t-53.5 12.5h-130q-21 0 -29 -5.5t-12 -21.5l-59 -239h90q46 0 68.5 24t49.5 84h29q-45 -138 -67 -259h-29q1 36 1 62t-14 40.5
t-45 14.5h-91l-56 -224q-12 -56 44 -56h127q62 0 108 35q45 36 103 118l25 -14q-52 -91 -85 -174q-56 2 -146 2h-378zM365 759q3 20 18 36.5t38 16.5q22 0 33.5 -16t9.5 -37q-1 -21 -17.5 -36t-37.5 -15q-22 0 -34 15.5t-10 35.5z" />
    <glyph glyph-name="edotaccent" unicode="&#x117;" horiz-adv-x="404" 
d="M148 246q55 12 93.5 31t56 40t24.5 37t7 29q0 41 -41 41t-80.5 -50.5t-59.5 -127.5zM329 138l19 -19q-37 -63 -86.5 -97t-102.5 -34q-61 0 -86 39.5t-25 96.5q0 86 44.5 172.5t113.5 130.5q48 29 97 29q42 0 69 -19.5t27 -56.5q0 -61 -73.5 -104.5t-184.5 -60.5
q-10 -45 -10 -83q0 -88 65 -88q68 0 133 94zM363 617q0 -23 -16 -41.5t-40 -18.5q-18 0 -28 12t-10 29q0 22 16 41.5t40 19.5q18 0 28 -12t10 -30z" />
    <glyph glyph-name="Eogonek" unicode="&#x118;" horiz-adv-x="620" 
d="M222 33h127q62 0 108 35q45 36 103 118l25 -14q-52 -91 -85 -174q-4 0 -16 0.5t-20 0.5q-96 -82 -96 -130q0 -23 11.5 -36.5t32.5 -13.5q28 0 62 25l12 -19q-44 -63 -117 -63q-35 0 -57.5 20t-22.5 54q0 36 34.5 75t106.5 88q-24 1 -76 1h-378l7 28q61 5 81.5 16t29.5 47
l117 468q7 31 -9.5 42t-80.5 16l7 28h373q87 0 124 6q-33 -81 -51 -181h-28q2 41 -2 86q-3 32 -18.5 44.5t-53.5 12.5h-130q-21 0 -29 -5.5t-12 -21.5l-59 -239h90q46 0 68.5 24t49.5 84h29q-45 -138 -67 -259h-29q1 36 1 62t-14 40.5t-45 14.5h-91l-56 -224q-12 -56 44 -56
z" />
    <glyph glyph-name="eogonek" unicode="&#x119;" horiz-adv-x="404" 
d="M252 -156l11 -19q-22 -29 -55.5 -46t-62.5 -17q-37 0 -59 19.5t-22 53.5q0 35 29 71.5t95 84.5q-15 -3 -29 -3q-61 0 -86 39.5t-25 96.5q0 86 44.5 172.5t113.5 130.5q48 29 97 29q42 0 69 -19.5t27 -56.5q0 -61 -73.5 -104.5t-184.5 -60.5q-10 -45 -10 -83q0 -88 65 -88
q68 0 133 94l19 -19q-35 -59 -80 -92q-124 -94 -124 -158q0 -22 12 -34.5t33 -12.5q32 0 63 22zM288 424q-41 0 -80.5 -50.5t-59.5 -127.5q55 12 93.5 31t56 40t24.5 37t7 29q0 41 -41 41z" />
    <glyph glyph-name="Ecaron" unicode="&#x11a;" horiz-adv-x="620" 
d="M-24 0l7 28q61 5 81.5 16t29.5 47l117 468q7 31 -9.5 42t-80.5 16l7 28h373q87 0 124 6q-33 -81 -51 -181h-28q2 41 -2 86q-3 32 -18.5 44.5t-53.5 12.5h-130q-21 0 -29 -5.5t-12 -21.5l-59 -239h90q46 0 68.5 24t49.5 84h29q-45 -138 -67 -259h-29q1 36 1 62t-14 40.5
t-45 14.5h-91l-56 -224q-12 -56 44 -56h127q62 0 108 35q45 36 103 118l25 -14q-52 -91 -85 -174q-56 2 -146 2h-378zM268 821l15 21q20 -9 70 -34.5t60 -30.5q58 25 168 65l11 -23q-113 -66 -182 -118h-25q-31 38 -117 120z" />
    <glyph glyph-name="ecaron" unicode="&#x11b;" horiz-adv-x="404" 
d="M148 246q55 12 93.5 31t56 40t24.5 37t7 29q0 41 -41 41t-80.5 -50.5t-59.5 -127.5zM329 138l19 -19q-37 -63 -86.5 -97t-102.5 -34q-61 0 -86 39.5t-25 96.5q0 86 44.5 172.5t113.5 130.5q48 29 97 29q42 0 69 -19.5t27 -56.5q0 -61 -73.5 -104.5t-184.5 -60.5
q-10 -45 -10 -83q0 -88 65 -88q68 0 133 94zM212 704l25 12l71 -101q16 15 38 32t56.5 42t40.5 30l17 -20q-79 -78 -158 -171h-26q-35 101 -64 176z" />
    <glyph glyph-name="Gcircumflex" unicode="&#x11c;" horiz-adv-x="682" 
d="M669 300l-6 -28q-44 -4 -59 -11.5t-24 -31.5q-9 -25 -44 -169q8 -8 36 -11l-5 -19q-4 -1 -25 -7.5t-30 -9t-29.5 -8.5t-34 -8.5t-32.5 -6t-36.5 -5t-34.5 -1.5q-128 0 -197 71.5t-69 186.5q0 109 48 204t139 154.5t206 59.5q93 0 153 -37q18 4 45 22h22
q-43 -110 -62 -196h-30q10 113 -43 154q-34 25 -94 25q-66 0 -122.5 -36.5t-92.5 -94t-56 -126t-20 -134.5q0 -114 51 -166t133 -52q39 0 65 10q22 10 31 37q24 73 39 148q5 31 -12 42t-87 16l7 28h270zM628 731l-15 -21q-15 6 -129 65q-39 -17 -169 -65l-11 23
q113 66 182 118h25q31 -38 117 -120z" />
    <glyph glyph-name="gcircumflex" unicode="&#x11d;" horiz-adv-x="433" 
d="M188 125q-33 0 -55 13q-30 -23 -30 -44q0 -23 32 -34q3 -1 73 -25t102 -40q80 -36 80 -86q0 -61 -73 -108.5t-176 -47.5q-86 0 -137.5 37t-51.5 82q0 20 27.5 48t105.5 75q-41 30 -41 74q0 27 67 83q-37 37 -37 89q0 46 26.5 98t74.5 85q46 32 99 32q36 0 61 -14
q10 -5 16 -5q16 0 50 9.5t50 9.5q19 0 28 -8t9 -19q0 -14 -12.5 -26.5t-25.5 -12.5q-14 0 -47 11q-25 8 -36 9q18 -32 18 -68q0 -85 -60 -151t-137 -66zM110 -17q-88 -63 -88 -91q0 -33 48 -63t126 -30q56 0 96 22.5t40 50.5q0 16 -9.5 25.5t-27.5 19.5q-53 31 -185 66z
M193 157q46 0 84.5 65t38.5 133q0 70 -49 70q-32 0 -62 -33q-62 -70 -62 -173q0 -62 50 -62zM399 527l-26 -11l-70 100q-45 -40 -132 -103l-20 19q92 92 157 171h26q53 -147 65 -176z" />
    <glyph glyph-name="Gbreve" unicode="&#x11e;" horiz-adv-x="682" 
d="M669 300l-6 -28q-44 -4 -59 -11.5t-24 -31.5q-9 -25 -44 -169q8 -8 36 -11l-5 -19q-4 -1 -25 -7.5t-30 -9t-29.5 -8.5t-34 -8.5t-32.5 -6t-36.5 -5t-34.5 -1.5q-128 0 -197 71.5t-69 186.5q0 109 48 204t139 154.5t206 59.5q93 0 153 -37q18 4 45 22h22
q-43 -110 -62 -196h-30q10 113 -43 154q-34 25 -94 25q-66 0 -122.5 -36.5t-92.5 -94t-56 -126t-20 -134.5q0 -114 51 -166t133 -52q39 0 65 10q22 10 31 37q24 73 39 148q5 31 -12 42t-87 16l7 28h270zM627 846l23 -10q-63 -119 -187 -119q-63 0 -97 37.5t-34 84.5l23 7
q10 -19 19 -29.5t36 -21t68 -10.5q57 0 88 14.5t61 46.5z" />
    <glyph glyph-name="gbreve" unicode="&#x11f;" horiz-adv-x="433" 
d="M188 125q-33 0 -55 13q-30 -23 -30 -44q0 -23 32 -34q3 -1 73 -25t102 -40q80 -36 80 -86q0 -61 -73 -108.5t-176 -47.5q-86 0 -137.5 37t-51.5 82q0 20 27.5 48t105.5 75q-41 30 -41 74q0 27 67 83q-37 37 -37 89q0 46 26.5 98t74.5 85q46 32 99 32q36 0 61 -14
q10 -5 16 -5q16 0 50 9.5t50 9.5q19 0 28 -8t9 -19q0 -14 -12.5 -26.5t-25.5 -12.5q-14 0 -47 11q-25 8 -36 9q18 -32 18 -68q0 -85 -60 -151t-137 -66zM110 -17q-88 -63 -88 -91q0 -33 48 -63t126 -30q56 0 96 22.5t40 50.5q0 16 -9.5 25.5t-27.5 19.5q-53 31 -185 66z
M193 157q46 0 84.5 65t38.5 133q0 70 -49 70q-32 0 -62 -33q-62 -70 -62 -173q0 -62 50 -62zM432 675l22 -9q-25 -60 -69 -92.5t-99 -32.5q-54 0 -85 33.5t-28 95.5l25 4q6 -32 31 -50.5t65 -18.5q91 0 138 70z" />
    <glyph glyph-name="Gdotaccent" unicode="&#x120;" horiz-adv-x="682" 
d="M669 300l-6 -28q-44 -4 -59 -11.5t-24 -31.5q-9 -25 -44 -169q8 -8 36 -11l-5 -19q-4 -1 -25 -7.5t-30 -9t-29.5 -8.5t-34 -8.5t-32.5 -6t-36.5 -5t-34.5 -1.5q-128 0 -197 71.5t-69 186.5q0 109 48 204t139 154.5t206 59.5q93 0 153 -37q18 4 45 22h22
q-43 -110 -62 -196h-30q10 113 -43 154q-34 25 -94 25q-66 0 -122.5 -36.5t-92.5 -94t-56 -126t-20 -134.5q0 -114 51 -166t133 -52q39 0 65 10q22 10 31 37q24 73 39 148q5 31 -12 42t-87 16l7 28h270zM432 767q3 20 17.5 36.5t38.5 16.5q22 0 33 -16t9 -37q-1 -21 -17 -36
t-37 -15q-23 0 -34.5 15.5t-9.5 35.5z" />
    <glyph glyph-name="gdotaccent" unicode="&#x121;" horiz-adv-x="433" 
d="M188 125q-33 0 -55 13q-30 -23 -30 -44q0 -23 32 -34q3 -1 73 -25t102 -40q80 -36 80 -86q0 -61 -73 -108.5t-176 -47.5q-86 0 -137.5 37t-51.5 82q0 20 27.5 48t105.5 75q-41 30 -41 74q0 27 67 83q-37 37 -37 89q0 46 26.5 98t74.5 85q46 32 99 32q36 0 61 -14
q10 -5 16 -5q16 0 50 9.5t50 9.5q19 0 28 -8t9 -19q0 -14 -12.5 -26.5t-25.5 -12.5q-14 0 -47 11q-25 8 -36 9q18 -32 18 -68q0 -85 -60 -151t-137 -66zM110 -17q-88 -63 -88 -91q0 -33 48 -63t126 -30q56 0 96 22.5t40 50.5q0 16 -9.5 25.5t-27.5 19.5q-53 31 -185 66z
M193 157q46 0 84.5 65t38.5 133q0 70 -49 70q-32 0 -62 -33q-62 -70 -62 -173q0 -62 50 -62zM340 617q0 -23 -16 -41.5t-40 -18.5q-18 0 -28 12t-10 29q0 22 16 41.5t40 19.5q18 0 28 -12t10 -30z" />
    <glyph glyph-name="uni0122" unicode="&#x122;" horiz-adv-x="682" 
d="M669 300l-6 -28q-44 -4 -59 -11.5t-24 -31.5q-9 -25 -44 -169q8 -8 36 -11l-5 -19q-4 -1 -25 -7.5t-30 -9t-29.5 -8.5t-34 -8.5t-32.5 -6t-36.5 -5t-34.5 -1.5q-128 0 -197 71.5t-69 186.5q0 109 48 204t139 154.5t206 59.5q93 0 153 -37q18 4 45 22h22
q-43 -110 -62 -196h-30q10 113 -43 154q-34 25 -94 25q-66 0 -122.5 -36.5t-92.5 -94t-56 -126t-20 -134.5q0 -114 51 -166t133 -52q39 0 65 10q22 10 31 37q24 73 39 148q5 31 -12 42t-87 16l7 28h270zM236 -279l-8 27q100 38 100 83q0 15 -9.5 23t-37.5 12q-24 5 -24 30
q0 18 15 32t43 14t50 -21t22 -60q0 -54 -44.5 -89.5t-106.5 -50.5z" />
    <glyph glyph-name="uni0123" unicode="&#x123;" horiz-adv-x="433" 
d="M381 712l7 -23q-48 -14 -76.5 -32.5t-28.5 -36.5q0 -17 37 -25q16 -5 16 -19q0 -21 -15 -35t-44 -14q-20 0 -36.5 17t-16.5 41q0 54 50 88t107 39zM188 125q-33 0 -55 13q-30 -23 -30 -44q0 -23 32 -34q3 -1 73 -25t102 -40q80 -36 80 -86q0 -61 -73 -108.5t-176 -47.5
q-86 0 -137.5 37t-51.5 82q0 20 27.5 48t105.5 75q-41 30 -41 74q0 27 67 83q-37 37 -37 89q0 46 26.5 98t74.5 85q46 32 99 32q36 0 61 -14q10 -5 16 -5q16 0 50 9.5t50 9.5q19 0 28 -8t9 -19q0 -14 -12.5 -26.5t-25.5 -12.5q-14 0 -47 11q-25 8 -36 9q18 -32 18 -68
q0 -85 -60 -151t-137 -66zM110 -17q-88 -63 -88 -91q0 -33 48 -63t126 -30q56 0 96 22.5t40 50.5q0 16 -9.5 25.5t-27.5 19.5q-53 31 -185 66zM193 157q46 0 84.5 65t38.5 133q0 70 -49 70q-32 0 -62 -33q-62 -70 -62 -173q0 -62 50 -62z" />
    <glyph glyph-name="Hcircumflex" unicode="&#x124;" horiz-adv-x="726" 
d="M-19 0l7 28q60 5 78.5 15.5t27.5 46.5l117 469q7 31 -9.5 41.5t-80.5 16.5l7 28h278l-6 -28q-60 -5 -78.5 -15.5t-27.5 -46.5l-50 -200h305l52 204q7 31 -9 41.5t-80 16.5l7 28h278l-6 -28q-60 -5 -79 -15.5t-28 -45.5l-115 -468q-8 -33 8 -43.5t81 -16.5l-8 -28h-278
l7 28q60 5 78.5 16t27.5 47l56 229h-306l-56 -232q-8 -33 8 -43.5t80 -16.5l-7 -28h-279zM632 729l-15 -21q-15 6 -129 65q-39 -17 -169 -65l-11 23q113 66 182 118h24q40 -48 118 -120z" />
    <glyph glyph-name="hcircumflex" unicode="&#x125;" horiz-adv-x="504" 
d="M362 758l-13 -21q-27 10 -114 49q-21 -8 -69 -25t-66 -24l-5 25q104 59 147 92h23q24 -30 97 -96zM113 663l6 25q92 4 169 27l3 -4q-12 -35 -33 -113q-78 -299 -89 -341q111 199 231 199q56 0 56 -56q0 -25 -20 -99q-7 -23 -32.5 -103t-34.5 -109q-10 -36 2 -36
q32 0 94 90l19 -20q-34 -61 -82 -98t-87 -37q-56 0 -14 122q41 126 70 222q11 32 9 48t-7.5 20.5t-17.5 4.5q-48 0 -114.5 -86t-110.5 -221q-21 -62 -33 -108q-35 0 -71 11q113 411 160 615q4 19 -0.5 26t-18.5 11q-21 6 -54 10z" />
    <glyph glyph-name="Hbar" unicode="&#x126;" horiz-adv-x="726" 
d="M797 645l-6 -28q-60 -5 -79 -15.5t-28 -45.5l-21 -87h85l-8 -31h-85l-86 -350q-8 -33 8 -43.5t81 -16.5l-8 -28h-278l7 28q60 5 78.5 15.5t27.5 46.5l51 202h-306l-51 -204q-8 -33 8 -43.5t80 -16.5l-7 -28h-279l7 28q60 5 78.5 15.5t27.5 46.5l87 348h-86l7 31h87l22 90
q7 31 -9.5 41.5t-80.5 16.5l7 28h278l-6 -28q-60 -5 -78.5 -15.5t-27.5 -46.5l-21 -86h306l22 90q7 31 -9 41.5t-80 16.5l7 28h278zM543 327l28 111h-305l-27 -111h304z" />
    <glyph glyph-name="hbar" unicode="&#x127;" horiz-adv-x="504" 
d="M465 143l19 -20q-34 -61 -82 -98t-87 -37q-56 0 -14 122q58 177 68 210q11 32 9 48t-7.5 20.5t-17.5 4.5q-48 0 -115 -88t-111 -223q-27 -82 -30 -92q-35 0 -71 11q67 243 139 530h-83l8 36h84q9 39 12 49q4 19 -0.5 26t-18.5 11q-21 6 -54 10l6 25q114 5 168 21l3 -4
q-7 -15 -39 -138h175l-8 -36h-177q-38 -150 -74 -286q111 199 231 199q56 0 56 -56q0 -25 -20 -99q-8 -27 -32.5 -99.5t-32.5 -100.5q-11 -36 2 -36q32 0 94 90z" />
    <glyph glyph-name="Itilde" unicode="&#x128;" horiz-adv-x="336" 
d="M-19 0l7 28q60 5 78.5 15.5t27.5 46.5l117 469q7 31 -9.5 41.5t-80.5 16.5l7 28h279l-6 -28q-60 -5 -79 -16t-28 -46l-115 -467q-8 -33 8 -43.5t81 -16.5l-8 -28h-279zM425 817l26 -7q-6 -36 -31.5 -68.5t-70.5 -32.5q-29 0 -83 24q-39 18 -65 18q-22 0 -34 -10t-24 -36
l-26 9q8 42 34.5 69.5t71.5 27.5q27 0 79 -21q43 -19 62 -19q22 0 36 9t25 37z" />
    <glyph glyph-name="itilde" unicode="&#x129;" horiz-adv-x="262" 
d="M59 322l-15 21q35 48 83 80.5t82 32.5q22 0 22 -27q0 -17 -16 -69q-66 -208 -89 -274q-11 -34 3 -34q12 0 37.5 23.5t56.5 67.5l18 -20q-35 -61 -82 -98t-90 -37q-49 0 -14 107q47 145 88 266q8 25 -3 25q-22 0 -81 -64zM334 665l25 -7q-5 -35 -30 -68.5t-67 -33.5
q-27 0 -79 23q-41 18 -62 18q-20 0 -32 -10t-23 -35l-25 9q9 42 33.5 69.5t67.5 27.5q22 0 75 -21q43 -19 59 -19q22 0 34.5 9t23.5 38z" />
    <glyph glyph-name="Imacron" unicode="&#x12a;" horiz-adv-x="336" 
d="M-19 0l7 28q60 5 78.5 15.5t27.5 46.5l117 469q7 31 -9.5 41.5t-80.5 16.5l7 28h279l-6 -28q-60 -5 -79 -16t-28 -46l-115 -467q-8 -33 8 -43.5t81 -16.5l-8 -28h-279zM156 771h275l-14 -53h-275z" />
    <glyph glyph-name="imacron" unicode="&#x12b;" horiz-adv-x="262" 
d="M59 322l-15 21q35 48 83 80.5t82 32.5q22 0 22 -27q0 -17 -16 -69q-66 -208 -89 -274q-11 -34 3 -34q12 0 37.5 23.5t56.5 67.5l18 -20q-35 -61 -82 -98t-90 -37q-49 0 -14 107q47 145 88 266q8 25 -3 25q-22 0 -81 -64zM91 627h239l-13 -50h-239z" />
    <glyph glyph-name="Ibreve" unicode="&#x12c;" horiz-adv-x="336" 
d="M-19 0l7 28q60 5 78.5 15.5t27.5 46.5l117 469q7 31 -9.5 41.5t-80.5 16.5l7 28h279l-6 -28q-60 -5 -79 -16t-28 -46l-115 -467q-8 -33 8 -43.5t81 -16.5l-8 -28h-279zM439 834l22 -10q-61 -119 -186 -119q-63 0 -97 37.5t-34 84.5l23 7q10 -19 19 -29.5t35.5 -21
t67.5 -10.5q58 0 89 14.5t61 46.5z" />
    <glyph glyph-name="ibreve" unicode="&#x12d;" horiz-adv-x="262" 
d="M59 322l-15 21q35 48 83 80.5t82 32.5q22 0 22 -27q0 -17 -16 -69q-66 -208 -89 -274q-11 -34 3 -34q12 0 37.5 23.5t56.5 67.5l18 -20q-35 -61 -82 -98t-90 -37q-49 0 -14 107q47 145 88 266q8 25 -3 25q-22 0 -81 -64zM346 675l22 -9q-25 -60 -69 -92.5t-99 -32.5
q-54 0 -85 33.5t-28 95.5l25 4q6 -32 31 -50.5t65 -18.5q91 0 138 70z" />
    <glyph glyph-name="Iogonek" unicode="&#x12e;" horiz-adv-x="336" 
d="M128 645h279l-6 -28q-60 -5 -79 -16t-28 -46l-115 -467q-8 -33 8 -43.5t81 -16.5l-8 -28h-104q-88 -80 -88 -131q0 -22 12 -34.5t32 -12.5q34 0 63 22l9 -16q-21 -32 -51.5 -49t-61.5 -17q-39 0 -60.5 19.5t-21.5 53.5q0 69 130 165h-138l7 28q60 5 78.5 15.5t27.5 46.5
l117 469q7 31 -9.5 41.5t-80.5 16.5z" />
    <glyph glyph-name="iogonek" unicode="&#x12f;" horiz-adv-x="262" 
d="M233 658q18 0 28 -12t10 -30q0 -23 -16 -41.5t-40 -18.5q-18 0 -28 12t-10 29q0 22 16 41.5t40 19.5zM58 322l-15 21q36 48 83.5 80.5t82.5 32.5q10 0 16 -8t6 -19q0 -14 -17 -69q-53 -173 -88 -274q-11 -34 3 -34q12 0 37.5 23.5t56.5 67.5l18 -20q-40 -70 -96 -108
q-88 -79 -88 -146q0 -22 12 -34.5t33 -12.5q32 0 62 22l11 -16q-45 -66 -115 -66q-39 0 -60 19.5t-21 54.5q0 62 108 154q-12 -2 -18 -2q-49 0 -14 107q44 142 88 266q8 25 -3 25q-23 0 -82 -64z" />
    <glyph glyph-name="Idotaccent" unicode="&#x130;" horiz-adv-x="336" 
d="M-19 0l7 28q60 5 78.5 15.5t27.5 46.5l117 469q7 31 -9.5 41.5t-80.5 16.5l7 28h279l-6 -28q-60 -5 -79 -16t-28 -46l-115 -467q-8 -33 8 -43.5t81 -16.5l-8 -28h-279zM234 751q3 20 18 36.5t38 16.5q22 0 33.5 -16t9.5 -37q-1 -21 -17.5 -36t-37.5 -15q-22 0 -34 15.5
t-10 35.5z" />
    <glyph glyph-name="dotlessi" unicode="&#x131;" horiz-adv-x="262" 
d="M59 322l-15 21q35 48 83 80.5t82 32.5q22 0 22 -27q0 -17 -16 -69q-66 -208 -89 -274q-11 -34 3 -34q12 0 37.5 23.5t56.5 67.5l18 -20q-35 -61 -82 -98t-90 -37q-49 0 -14 107q47 145 88 266q8 25 -3 25q-22 0 -81 -64z" />
    <glyph glyph-name="IJ" unicode="&#x132;" horiz-adv-x="668" 
d="M-19 0l7 28q60 5 78.5 15.5t27.5 46.5l117 469q7 31 -9.5 41.5t-80.5 16.5l7 28h279l-6 -28q-60 -5 -79 -16t-28 -46l-115 -467q-8 -33 8 -43.5t81 -16.5l-8 -28h-279zM465 617l8 28h279l-7 -28q-58 -5 -75 -15.5t-26 -46.5q-9 -38 -44 -179t-61 -244q-43 -168 -125 -248
q-36 -36 -78.5 -54.5t-74.5 -18.5q-34 0 -60.5 16t-26.5 38q0 20 17.5 38.5t36.5 18.5q14 0 45 -37q20 -25 44 -25q58 0 106 160q48 159 138 538q7 31 -12 42t-84 17z" />
    <glyph glyph-name="ij" unicode="&#x133;" horiz-adv-x="524" 
d="M58 322l-15 21q36 48 83.5 80.5t82.5 32.5q10 0 16 -8t6 -19q0 -14 -17 -69q-53 -173 -88 -274q-11 -34 3 -34q12 0 37.5 23.5t56.5 67.5l18 -20q-35 -61 -82.5 -98t-89.5 -37q-49 0 -14 107q44 142 88 266q8 25 -3 25q-23 0 -82 -64zM271 616q0 -23 -16 -41.5t-40 -18.5
q-18 0 -28 12t-10 29q0 22 16 41.5t40 19.5q18 0 28 -12t10 -30zM313 308l-16 21q43 60 94.5 93.5t83.5 33.5q31 0 14 -74q-57 -234 -98 -365q-35 -111 -99 -184q-29 -34 -68.5 -57t-70.5 -23q-26 0 -45.5 13.5t-19.5 34.5q0 19 16.5 35.5t32.5 16.5q13 0 36 -22
q22 -22 37 -22q12 0 24.5 9.5t30.5 42t33 84.5q17 57 110 411q7 28 -5 28q-26 0 -90 -76zM538 617q0 -23 -16 -41.5t-40 -18.5q-18 0 -28 12.5t-10 29.5q0 23 16.5 41.5t40.5 18.5q17 0 27 -11.5t10 -30.5z" />
    <glyph glyph-name="Jcircumflex" unicode="&#x134;" horiz-adv-x="332" 
d="M130 617l7 28h279l-6 -28q-59 -5 -76 -15.5t-26 -46.5q-86 -354 -104 -423q-45 -170 -126 -248q-37 -36 -78.5 -54.5t-74.5 -18.5q-34 0 -60.5 16t-26.5 38q0 20 17.5 38.5t36.5 18.5q14 0 45 -37q20 -25 44 -25q59 0 107 160q54 178 137 538q7 31 -11.5 42t-83.5 17z
M451 720l-15 -21q-20 9 -68.5 34t-60.5 31q-39 -17 -169 -65l-11 24q104 58 182 118h24q43 -52 118 -121z" />
    <glyph glyph-name="jcircumflex" unicode="&#x135;" horiz-adv-x="262" 
d="M51 308l-16 21q43 60 94.5 93.5t83.5 33.5q30 0 14 -74q-53 -220 -99 -365q-33 -110 -98 -184q-29 -34 -68.5 -57t-70.5 -23q-26 0 -45.5 13.5t-19.5 34.5q0 19 16 35.5t32 16.5q13 0 37 -22q22 -22 37 -22q12 0 24.5 9.5t30.5 42t33 84.5q17 57 110 411q7 28 -6 28
q-25 0 -89 -76zM312 527l-26 -11l-70 100q-45 -40 -132 -103l-20 19q81 81 157 171h26q53 -147 65 -176z" />
    <glyph glyph-name="uni0136" unicode="&#x136;" horiz-adv-x="655" 
d="M-19 0l7 28q60 5 78.5 16t27.5 47l117 469q7 31 -9.5 41.5t-80.5 15.5l7 28h279l-6 -28q-60 -5 -79 -15.5t-28 -46.5l-60 -242q64 42 149 117t127 119q31 35 31 45q0 9 -13 13.5t-58 10.5l7 27h250l-7 -28q-56 -5 -90.5 -20.5t-81.5 -58.5q-42 -39 -202 -179q-4 -3 -2 -8
q24 -40 93 -144.5t94 -138.5q15 -21 34.5 -28t68.5 -12l-6 -28h-259l6 28q63 8 63 22q0 4 -3 10q-80 129 -156 243q-3 6 -9 2l-47 -33l-44 -184q-8 -33 8 -43.5t81 -16.5l-8 -28h-279zM210 -275l-8 27q100 38 100 83q0 15 -9.5 23t-37.5 12q-24 5 -24 30q0 18 15 32t43 14
t50 -21t22 -60q0 -54 -44.5 -89.5t-106.5 -50.5z" />
    <glyph glyph-name="uni0137" unicode="&#x137;" horiz-adv-x="484" 
d="M113 663l6 25q45 2 97 10t71 17l4 -5q-14 -39 -31 -107q-10 -37 -25.5 -94.5t-38 -143.5t-38.5 -147q102 121 184 190q58 48 101 48q46 0 46 -42q0 -22 -16.5 -44t-28.5 -22q-11 0 -24 18q-18 24 -33 24q-39 0 -143 -118q-1 -1 -1 -6q38 -90 83 -161q29 -48 50 -48
q25 0 78 72l18 -20q-36 -62 -77.5 -93t-65.5 -31q-17 0 -29 12t-32 52q-26 56 -71 168q-1 2 -2 2.5t-2 -0.5q-29 -32 -40 -53q-10 -17 -15 -36q-13 -37 -41 -138q-14 -1 -38.5 2.5t-32.5 7.5q116 423 159 612q4 20 1 27t-16 11q-11 4 -57 11zM97 -275l-8 27q100 38 100 83
q0 15 -9.5 23t-37.5 12q-24 5 -24 30q0 18 15 32t43 14t50 -21t22 -60q0 -54 -44.5 -89.5t-106.5 -50.5z" />
    <glyph glyph-name="kgreenlandic" unicode="&#x138;" horiz-adv-x="482" 
d="M52 323l-18 19q33 51 79 82.5t84 31.5q25 0 25 -30q0 -33 -58 -227q65 84 150 171q80 86 135 86q20 0 31 -10t11 -24q0 -24 -17.5 -43t-31.5 -19q-12 0 -21 15q-13 17 -24 17q-18 0 -66 -45q-33 -32 -78 -87q29 -15 51 -74q6 -15 13.5 -38.5t12.5 -35.5q14 -41 21 -52.5
t16 -11.5q23 0 73 74l17 -21q-29 -55 -64 -85t-63 -30q-23 0 -37 17t-29 69q-7 25 -15 59.5t-10 43.5q-12 42 -21 42q-7 0 -20 -16q-50 -67 -69 -129l-25 -82q-45 0 -71 11q91 310 102 350t-1 40q-28 0 -82 -68z" />
    <glyph glyph-name="Lacute" unicode="&#x139;" horiz-adv-x="612" 
d="M-23 0l6 28q62 5 82 15.5t29 46.5l118 468q8 31 -9 42t-81 17l7 28h279l-6 -28q-61 -5 -80 -16t-27 -47l-116 -464q-8 -32 2.5 -45t45.5 -13h111q53 0 97 33q57 41 122 139l24 -15q-61 -105 -101 -194q-75 5 -154 5h-349zM234 706l124 131q13 2 52.5 -6t53.5 -15v-15
l-213 -116z" />
    <glyph glyph-name="lacute" unicode="&#x13a;" horiz-adv-x="252" 
d="M186 772l135 102q9 -1 35.5 -16.5t33.5 -25.5l-4 -14l-185 -67zM110 663l6 25q86 3 168 27l4 -4l-30 -105q-9 -34 -63 -235.5t-75 -278.5q-12 -40 4 -40q31 0 93 90l19 -20q-34 -59 -79.5 -96.5t-88.5 -37.5q-31 0 -31 44q0 33 38 165q96 355 108 420q4 17 0.5 23.5
t-15.5 11.5t-58 11z" />
    <glyph glyph-name="uni013B" unicode="&#x13b;" horiz-adv-x="612" 
d="M-23 0l6 28q62 5 82 15.5t29 46.5l118 468q8 31 -9 42t-81 17l7 28h279l-6 -28q-61 -5 -80 -16t-27 -47l-116 -464q-8 -32 2.5 -45t45.5 -13h111q53 0 97 33q57 41 122 139l24 -15q-61 -105 -101 -194q-75 5 -154 5h-349zM164 -281l-7 27q100 38 100 82q0 16 -10 24
t-38 12q-24 4 -24 29q0 18 15 32t43 14t50 -21t22 -59q0 -54 -44.5 -89.5t-106.5 -50.5z" />
    <glyph glyph-name="uni013C" unicode="&#x13c;" horiz-adv-x="252" 
d="M110 663l6 25q86 3 168 27l4 -4l-30 -105q-9 -34 -63 -235.5t-75 -278.5q-12 -40 4 -40q31 0 93 90l19 -20q-34 -59 -79.5 -96.5t-88.5 -37.5q-31 0 -31 44q0 33 38 165q96 355 108 420q4 17 0.5 23.5t-15.5 11.5t-58 11zM-21 -276l-8 27q100 38 100 82q0 16 -9.5 24
t-37.5 12q-24 4 -24 29q0 18 15 32t43 14t50 -21t22 -59q0 -54 -44.5 -89.5t-106.5 -50.5z" />
    <glyph glyph-name="Lcaron" unicode="&#x13d;" horiz-adv-x="612" 
d="M-23 0l6 28q62 5 82 15.5t29 46.5l118 468q8 31 -9 42t-81 17l7 28h279l-6 -28q-61 -5 -80 -16t-27 -47l-116 -464q-8 -32 2.5 -45t45.5 -13h111q53 0 97 33q57 41 122 139l24 -15q-61 -105 -101 -194q-75 5 -154 5h-349zM517 422h-29q8 39 33 208l5 18q19 7 52 7
q31 0 48 -5l-5 -19q-46 -98 -104 -209z" />
    <glyph glyph-name="lcaron" unicode="&#x13e;" horiz-adv-x="288" 
d="M329 472h-27q37 157 45 209l5 16q24 8 41 8q18 0 36 -6l-6 -17q-6 -13 -27.5 -63t-39.5 -90t-27 -57zM110 663l6 25q86 3 168 27l4 -4l-30 -105q-9 -34 -63 -235.5t-75 -278.5q-12 -40 4 -40q31 0 93 90l19 -20q-34 -59 -79.5 -96.5t-88.5 -37.5q-31 0 -31 44
q0 33 38 165q96 355 108 420q4 17 0.5 23.5t-15.5 11.5t-58 11z" />
    <glyph glyph-name="Ldot" unicode="&#x13f;" horiz-adv-x="612" 
d="M-23 0l6 28q62 5 82 15.5t29 46.5l118 468q8 31 -9 42t-81 17l7 28h279l-6 -28q-61 -5 -80 -16t-27 -47l-116 -464q-8 -32 2.5 -45t45.5 -13h111q53 0 97 33q57 41 122 139l24 -15q-61 -105 -101 -194q-75 5 -154 5h-349zM560 391q0 -23 -16 -41.5t-40 -18.5
q-18 0 -28 12t-10 29q0 22 16 41.5t40 19.5q18 0 28 -12t10 -30z" />
    <glyph glyph-name="ldot" unicode="&#x140;" horiz-adv-x="297" 
d="M260 396q4 19 19 35t39 16q21 0 29.5 -15t6.5 -37q-5 -23 -19.5 -37.5t-36.5 -14.5q-23 0 -32.5 16t-5.5 37zM110 663l7 25q85 3 167 27l5 -4q-9 -24 -30 -105q-21 -75 -72 -265t-67 -249q-10 -40 4 -40q31 0 93 90l19 -20q-34 -59 -79 -96.5t-88 -37.5q-32 0 -32 44
q0 33 38 165q96 355 108 420q4 17 0.5 23.5t-15.5 11.5t-58 11z" />
    <glyph glyph-name="Lslash" unicode="&#x141;" horiz-adv-x="612" 
d="M557 204l24 -15q-61 -105 -101 -194q-75 5 -154 5h-349l6 28q62 5 82 15.5t29 46.5l48 192l-94 -34l-8 29l111 41l61 240q8 31 -9 42t-81 17l7 28h279l-6 -28q-61 -5 -80 -16t-27 -47l-51 -202l169 61l9 -30l-187 -67l-56 -226q-8 -32 2.5 -45t45.5 -13h111q53 0 97 33
q57 41 122 139z" />
    <glyph glyph-name="lslash" unicode="&#x142;" horiz-adv-x="282" 
d="M326 451l-108 -54q-14 -50 -42.5 -157t-39.5 -148q-12 -40 4 -40q31 0 93 90l19 -20q-34 -59 -79.5 -96.5t-88.5 -37.5q-31 0 -31 44q0 33 38 165q5 17 19.5 72.5t22.5 84.5l-77 -38l-12 28l99 50q50 187 56 223q4 17 0.5 23.5t-15.5 11.5t-58 11l6 25q86 3 168 27l4 -4
l-30 -105q-29 -109 -45 -169l86 43z" />
    <glyph glyph-name="Nacute" unicode="&#x143;" horiz-adv-x="714" 
d="M-25 0l7 28q61 4 82.5 24.5t38.5 84.5q86 328 108 415q3 9 -3 23t-19 22q-15 10 -87 20l7 28h163l265 -526q68 274 93 385q15 69 -0.5 88.5t-93.5 24.5l7 28h254l-5 -28q-61 -6 -80.5 -23.5t-39.5 -89.5q-38 -139 -106 -427q-1 -12 7 -25q9 -19 31 -31l-7 -21h-99
l-257 520q-55 -211 -94 -391q-14 -63 5 -78.5t93 -22.5l-6 -28h-264zM397 706l125 131q12 2 51.5 -6t54.5 -15l-1 -15l-212 -116z" />
    <glyph glyph-name="nacute" unicode="&#x144;" horiz-adv-x="512" 
d="M473 143l19 -20q-34 -61 -82 -98t-87 -37q-56 0 -14 122q8 25 67 208q11 33 13 51.5t-4.5 27t-21.5 8.5q-48 0 -114.5 -86.5t-112.5 -226.5q-27 -83 -32 -102q-45 0 -71 11q82 274 104 357q10 34 -4 34q-25 0 -81 -70l-18 21q38 55 79.5 84t75.5 29q30 0 30 -32
q0 -33 -40 -164q59 106 129 160q48 36 99 36q58 0 58 -57q0 -36 -24 -110q-40 -122 -63 -199q-12 -37 1 -37q32 0 94 90zM300 508l-25 16l104 164q12 1 45.5 -5t45.5 -11v-10z" />
    <glyph glyph-name="uni0145" unicode="&#x145;" horiz-adv-x="714" 
d="M-25 0l7 28q61 4 82.5 24.5t38.5 84.5q86 328 108 415q3 9 -3 23t-19 22q-15 10 -87 20l7 28h163l265 -526q68 274 93 385q15 69 -0.5 88.5t-93.5 24.5l7 28h254l-5 -28q-61 -6 -80.5 -23.5t-39.5 -89.5q-38 -139 -106 -427q-1 -12 7 -25q9 -19 31 -31l-7 -21h-99
l-257 520q-55 -211 -94 -391q-14 -63 5 -78.5t93 -22.5l-6 -28h-264zM238 -274l-7 27q100 38 100 83q0 16 -10 23.5t-38 11.5q-24 5 -24 30q0 18 15 32t43 14t50 -21t22 -60q0 -54 -44.5 -89.5t-106.5 -50.5z" />
    <glyph glyph-name="uni0146" unicode="&#x146;" horiz-adv-x="512" 
d="M473 143l19 -20q-34 -61 -82 -98t-87 -37q-56 0 -14 122q8 25 67 208q11 33 13 51.5t-4.5 27t-21.5 8.5q-48 0 -114.5 -86.5t-112.5 -226.5q-27 -83 -32 -102q-45 0 -71 11q82 274 104 357q10 34 -4 34q-25 0 -81 -70l-18 21q38 55 79.5 84t75.5 29q30 0 30 -32
q0 -33 -40 -164q59 106 129 160q48 36 99 36q58 0 58 -57q0 -36 -24 -110q-40 -122 -63 -199q-12 -37 1 -37q32 0 94 90zM119 -275l-7 27q100 38 100 83q0 16 -10 23.5t-38 11.5q-24 5 -24 30q0 18 15 32t43 14t50 -21t22 -60q0 -54 -44.5 -89.5t-106.5 -50.5z" />
    <glyph glyph-name="Ncaron" unicode="&#x147;" horiz-adv-x="714" 
d="M-25 0l7 28q61 4 82.5 24.5t38.5 84.5q86 328 108 415q3 9 -3 23t-19 22q-15 10 -87 20l7 28h163l265 -526q68 274 93 385q15 69 -0.5 88.5t-93.5 24.5l7 28h254l-5 -28q-61 -6 -80.5 -23.5t-39.5 -89.5q-38 -139 -106 -427q-1 -12 7 -25q9 -19 31 -31l-7 -21h-99
l-257 520q-55 -211 -94 -391q-14 -63 5 -78.5t93 -22.5l-6 -28h-264zM320 811l16 21q20 -9 69 -34t61 -31q58 25 168 65l10 -23q-116 -68 -181 -118h-25q-34 43 -118 120z" />
    <glyph glyph-name="ncaron" unicode="&#x148;" horiz-adv-x="512" 
d="M473 143l19 -20q-34 -61 -82 -98t-87 -37q-56 0 -14 122q8 25 67 208q11 33 13 51.5t-4.5 27t-21.5 8.5q-48 0 -114.5 -86.5t-112.5 -226.5q-27 -83 -32 -102q-45 0 -71 11q82 274 104 357q10 34 -4 34q-25 0 -81 -70l-18 21q38 55 79.5 84t75.5 29q30 0 30 -32
q0 -33 -40 -164q59 106 129 160q48 36 99 36q58 0 58 -57q0 -36 -24 -110q-40 -122 -63 -199q-12 -37 1 -37q32 0 94 90zM233 695l25 12l71 -100q31 28 135 103l17 -20q-83 -80 -157 -170h-26q-47 130 -65 175z" />
    <glyph glyph-name="napostrophe" unicode="&#x149;" horiz-adv-x="512" 
d="M473 143l19 -20q-34 -61 -82 -98t-87 -37q-56 0 -14 122q8 25 67 208q11 33 13 51.5t-4.5 27t-21.5 8.5q-48 0 -114.5 -86.5t-112.5 -226.5q-27 -83 -32 -102q-45 0 -71 11q82 274 104 357q10 34 -4 34q-25 0 -81 -70l-18 21q38 55 79.5 84t75.5 29q30 0 30 -32
q0 -33 -40 -164q59 106 129 160q48 36 99 36q58 0 58 -57q0 -36 -24 -110q-40 -122 -63 -199q-12 -37 1 -37q32 0 94 90zM123 515l-9 26q39 12 61 30.5t22 36.5t-37 27q-30 9 -30 31q0 19 14.5 31t39.5 12t46.5 -18.5t21.5 -54.5q0 -50 -43.5 -82.5t-85.5 -38.5z" />
    <glyph glyph-name="Eng" unicode="&#x14a;" horiz-adv-x="714" 
d="M-25 0l7 28q61 4 82.5 24.5t38.5 84.5q86 328 108 415q3 9 -3 23t-19 22q-15 10 -87 20l7 28h163l265 -525q71 284 93 384q15 69 -0.5 88.5t-93.5 24.5l7 28h254l-5 -28q-61 -6 -80.5 -23.5t-39.5 -89.5q-17 -64 -43 -168.5t-49 -202t-27 -112.5q-11 -47 -22.5 -81
t-29 -68.5t-42.5 -53t-55 -18.5q-26 0 -42.5 12.5t-16.5 31.5q0 22 15.5 43t31.5 21q8 0 26 -18q16 -18 31 -18q25 0 48 85q7 25 -9 56l-247 507q-55 -211 -94 -391q-14 -63 5 -78.5t93 -22.5l-6 -28h-264z" />
    <glyph glyph-name="eng" unicode="&#x14b;" horiz-adv-x="512" 
d="M53 322l-17 21q37 54 80.5 83.5t76.5 29.5q13 0 20.5 -8t7.5 -19q0 -32 -43 -169q59 106 129 160q48 36 99 36q30 0 43.5 -19t13.5 -45q0 -41 -21 -113q-54 -195 -75 -263q-34 -114 -98 -185q-28 -34 -68 -56t-71 -22q-28 0 -47 13.5t-19 33.5q0 16 15 34t36 18
q12 0 33 -21q24 -22 39 -22q12 0 25 9.5t31 41.5t33 84q62 214 102 370q13 50 10 70.5t-26 20.5q-48 0 -114 -86.5t-112 -226.5q-27 -83 -32 -102q-45 0 -71 11q71 239 103 357q9 33 -3 33q-25 0 -80 -69z" />
    <glyph glyph-name="Omacron" unicode="&#x14c;" horiz-adv-x="677" 
d="M77 221q0 100 47.5 206t128.5 170q82 64 181 64q103 0 162 -65t59 -171q0 -105 -41.5 -199.5t-113.5 -158.5q-93 -83 -200 -83q-105 0 -164 64.5t-59 172.5zM306 19q58 0 109 43t82 107.5t49 133t18 124.5q0 103 -31.5 151t-103.5 48q-61 0 -112.5 -43t-83 -108.5
t-48.5 -135.5t-17 -131q0 -100 34.5 -144.5t103.5 -44.5zM324 786h276l-14 -53h-276z" />
    <glyph glyph-name="omacron" unicode="&#x14d;" horiz-adv-x="480" 
d="M312 456q69 0 99 -43.5t30 -102.5q0 -74 -37.5 -152.5t-100.5 -125.5q-60 -44 -130 -44q-62 0 -94.5 39.5t-32.5 100.5q0 77 39.5 160.5t107.5 129.5q58 38 119 38zM188 21q47 0 88 58.5t62.5 131.5t21.5 129q0 84 -57 84q-44 0 -86 -51.5t-66 -125.5t-24 -143
q0 -83 61 -83zM220 627h239l-13 -50h-239z" />
    <glyph glyph-name="Obreve" unicode="&#x14e;" horiz-adv-x="677" 
d="M77 221q0 100 47.5 206t128.5 170q82 64 181 64q103 0 162 -65t59 -171q0 -105 -41.5 -199.5t-113.5 -158.5q-93 -83 -200 -83q-105 0 -164 64.5t-59 172.5zM306 19q58 0 109 43t82 107.5t49 133t18 124.5q0 103 -31.5 151t-103.5 48q-61 0 -112.5 -43t-83 -108.5
t-48.5 -135.5t-17 -131q0 -100 34.5 -144.5t103.5 -44.5zM613 848l22 -10q-63 -119 -186 -119q-63 0 -97.5 37.5t-34.5 84.5l24 7q9 -18 18.5 -29t36 -21.5t67.5 -10.5q57 0 88.5 14.5t61.5 46.5z" />
    <glyph glyph-name="obreve" unicode="&#x14f;" horiz-adv-x="480" 
d="M312 456q69 0 99 -43.5t30 -102.5q0 -74 -37.5 -152.5t-100.5 -125.5q-60 -44 -130 -44q-62 0 -94.5 39.5t-32.5 100.5q0 77 39.5 160.5t107.5 129.5q58 38 119 38zM188 21q47 0 88 58.5t62.5 131.5t21.5 129q0 84 -57 84q-44 0 -86 -51.5t-66 -125.5t-24 -143
q0 -83 61 -83zM467 675l22 -9q-25 -60 -69 -92.5t-99 -32.5q-54 0 -85 33.5t-28 95.5l25 4q6 -32 31 -50.5t65 -18.5q91 0 138 70z" />
    <glyph glyph-name="Ohungarumlaut" unicode="&#x150;" horiz-adv-x="677" 
d="M77 221q0 100 47.5 206t128.5 170q82 64 181 64q103 0 162 -65t59 -171q0 -105 -41.5 -199.5t-113.5 -158.5q-93 -83 -200 -83q-105 0 -164 64.5t-59 172.5zM306 19q58 0 109 43t82 107.5t49 133t18 124.5q0 103 -31.5 151t-103.5 48q-61 0 -112.5 -43t-83 -108.5
t-48.5 -135.5t-17 -131q0 -100 34.5 -144.5t103.5 -44.5zM340 726l72 135q12 1 46 -3.5t47 -8.5l-2 -14l-140 -121zM511 726l75 133q14 1 47.5 -3t46.5 -8l-3 -14l-143 -120z" />
    <glyph glyph-name="ohungarumlaut" unicode="&#x151;" horiz-adv-x="480" 
d="M312 456q69 0 99 -43.5t30 -102.5q0 -74 -37.5 -152.5t-100.5 -125.5q-60 -44 -130 -44q-62 0 -94.5 39.5t-32.5 100.5q0 77 39.5 160.5t107.5 129.5q58 38 119 38zM188 21q47 0 88 58.5t62.5 131.5t21.5 129q0 84 -57 84q-44 0 -86 -51.5t-66 -125.5t-24 -143
q0 -83 61 -83zM233 529l-24 14l90 152q6 1 80 -8l-1 -11zM391 529l-23 14l94 152q6 1 77 -8l-1 -11z" />
    <glyph glyph-name="OE" unicode="&#x152;" horiz-adv-x="979" 
d="M446 83l121 479q8 30 -17 42q-30 14 -79 14q-60 0 -110.5 -25t-85 -65.5t-59 -92.5t-35.5 -106.5t-11 -106.5q0 -99 46.5 -149.5t126.5 -50.5q41 0 66 12q28 13 37 49zM709 0h-215q-29 0 -76 -5.5t-87 -5.5q-128 0 -190.5 71.5t-62.5 182.5q0 78 27 150.5t76.5 130.5
t126.5 92.5t170 34.5q44 0 92 -3t81 -3h212q72 0 120 6q-34 -89 -51 -181h-28q3 47 -1 86q-3 32 -19 44t-54 12h-129q-21 0 -29 -5.5t-12 -21.5l-60 -238h91q45 0 68.5 24.5t48.5 83.5h29q-45 -143 -66 -259h-29q1 35 0.5 61t-14 41t-44.5 15h-91l-56 -225q-14 -56 43 -56
h128q36 0 58.5 7.5t48.5 27.5q48 38 104 119l24 -15q-48 -88 -85 -173q-56 2 -149 2z" />
    <glyph glyph-name="oe" unicode="&#x153;" horiz-adv-x="689" 
d="M188 21q47 0 89 58.5t64 131.5t22 129q0 84 -60 84q-66 0 -121 -106t-55 -214q0 -83 61 -83zM615 137l18 -18q-77 -131 -186 -131q-83 0 -104 89q-74 -89 -166 -89q-67 0 -99 39.5t-32 101.5q0 75 33 149.5t96.5 126t139.5 51.5q44 0 73.5 -23t40.5 -61q70 84 160 84
q46 0 70.5 -21t24.5 -55q0 -46 -42.5 -82t-97.5 -54.5t-118 -27.5q-10 -43 -10 -82q0 -90 66 -90q34 0 64.5 22t68.5 71zM433 246q97 19 139 61t42 79q0 38 -40 38q-43 0 -82 -52t-59 -126z" />
    <glyph glyph-name="Racute" unicode="&#x154;" horiz-adv-x="609" 
d="M-19 0l6 28q61 5 79.5 15.5t27.5 46.5l117 469q7 31 -9.5 41.5t-80.5 16.5l8 28h252q82 0 124 -19q79 -35 79 -119q0 -72 -50 -121t-133 -69q-6 -2 -3 -7q72 -171 112 -235q17 -27 33 -34t60 -13l-6 -28q-34 -2 -84 -2q-40 0 -55.5 9.5t-35.5 45.5q-20 39 -39.5 85
t-35 87.5t-19.5 49.5q-8 16 -13.5 20t-20.5 4h-63l-53 -211q-7 -33 9 -43.5t81 -16.5l-8 -28h-279zM237 330h38q61 0 105 16q114 41 114 156q0 55 -32.5 83.5t-89.5 28.5q-42 0 -58 -13q-11 -8 -17 -34zM334 709l124 131q13 2 52.5 -6t53.5 -15v-15l-213 -116z" />
    <glyph glyph-name="racute" unicode="&#x155;" horiz-adv-x="373" 
d="M53 323l-17 20q37 53 79.5 83t78.5 30q25 0 25 -30q0 -23 -41 -163q51 95 95.5 144t93.5 49q18 0 27.5 -11t9.5 -25q0 -28 -18.5 -54.5t-38.5 -26.5q-13 0 -21 19q-1 3 -3.5 10t-4 10t-5 6t-8.5 3q-13 0 -41.5 -37t-64.5 -106.5t-61 -145.5q-22 -66 -34 -108
q-47 0 -71 11q86 290 105 364q5 26 -5 26q-21 0 -80 -68zM248 513l-25 16l104 164q12 1 45.5 -5t45.5 -11v-10z" />
    <glyph glyph-name="uni0156" unicode="&#x156;" horiz-adv-x="609" 
d="M-19 0l6 28q61 5 79.5 15.5t27.5 46.5l117 469q7 31 -9.5 41.5t-80.5 16.5l8 28h252q82 0 124 -19q79 -35 79 -119q0 -72 -50 -121t-133 -69q-6 -2 -3 -7q72 -171 112 -235q17 -27 33 -34t60 -13l-6 -28q-34 -2 -84 -2q-40 0 -55.5 9.5t-35.5 45.5q-20 39 -39.5 85
t-35 87.5t-19.5 49.5q-8 16 -13.5 20t-20.5 4h-63l-53 -211q-7 -33 9 -43.5t81 -16.5l-8 -28h-279zM237 330h38q61 0 105 16q114 41 114 156q0 55 -32.5 83.5t-89.5 28.5q-42 0 -58 -13q-11 -8 -17 -34zM213 -275l-8 27q100 38 100 83q0 15 -9.5 23t-37.5 12q-24 5 -24 30
q0 18 15 32t43 14t50 -21t22 -60q0 -54 -44.5 -89.5t-106.5 -50.5z" />
    <glyph glyph-name="uni0157" unicode="&#x157;" horiz-adv-x="373" 
d="M53 323l-17 20q37 53 79.5 83t78.5 30q25 0 25 -30q0 -23 -41 -163q51 95 95.5 144t93.5 49q18 0 27.5 -11t9.5 -25q0 -28 -18.5 -54.5t-38.5 -26.5q-13 0 -21 19q-1 3 -3.5 10t-4 10t-5 6t-8.5 3q-13 0 -41.5 -37t-64.5 -106.5t-61 -145.5q-22 -66 -34 -108
q-47 0 -71 11q86 290 105 364q5 26 -5 26q-21 0 -80 -68zM-38 -283l-8 27q100 38 100 83q0 15 -9.5 23t-37.5 12q-24 5 -24 30q0 18 15 32t43 14t50 -21t22 -60q0 -54 -44.5 -89.5t-106.5 -50.5z" />
    <glyph glyph-name="Rcaron" unicode="&#x158;" horiz-adv-x="609" 
d="M-19 0l6 28q61 5 79.5 15.5t27.5 46.5l117 469q7 31 -9.5 41.5t-80.5 16.5l8 28h252q82 0 124 -19q79 -35 79 -119q0 -72 -50 -121t-133 -69q-6 -2 -3 -7q72 -171 112 -235q17 -27 33 -34t60 -13l-6 -28q-34 -2 -84 -2q-40 0 -55.5 9.5t-35.5 45.5q-20 39 -39.5 85
t-35 87.5t-19.5 49.5q-8 16 -13.5 20t-20.5 4h-63l-53 -211q-7 -33 9 -43.5t81 -16.5l-8 -28h-279zM237 330h38q61 0 105 16q114 41 114 156q0 55 -32.5 83.5t-89.5 28.5q-42 0 -58 -13q-11 -8 -17 -34zM240 816l15 21q20 -9 70 -34.5t60 -30.5q45 19 168 65l11 -23
q-113 -66 -182 -118h-24q-32 39 -118 120z" />
    <glyph glyph-name="rcaron" unicode="&#x159;" horiz-adv-x="373" 
d="M53 323l-17 20q37 53 79.5 83t78.5 30q25 0 25 -30q0 -23 -41 -163q51 95 95.5 144t93.5 49q18 0 27.5 -11t9.5 -25q0 -28 -18.5 -54.5t-38.5 -26.5q-13 0 -21 19q-1 3 -3.5 10t-4 10t-5 6t-8.5 3q-13 0 -41.5 -37t-64.5 -106.5t-61 -145.5q-22 -66 -34 -108
q-47 0 -71 11q86 290 105 364q5 26 -5 26q-21 0 -80 -68zM167 695l25 12l71 -100q31 28 135 103l17 -20q-77 -74 -158 -170h-26q-36 105 -64 175z" />
    <glyph glyph-name="Sacute" unicode="&#x15a;" horiz-adv-x="522" 
d="M508 648h24q-42 -100 -61 -188h-28q3 56 -3 85t-24 49q-29 34 -89 34q-50 0 -84 -35.5t-34 -88.5q0 -41 23.5 -71t95.5 -79q70 -48 99.5 -87.5t29.5 -92.5q0 -89 -71 -144q-58 -46 -140 -46q-93 0 -161 61q-23 -13 -36 -23l-22 7q25 69 52 192l26 -3q-4 -58 11.5 -102.5
t43.5 -68.5q35 -29 89 -29q53 0 89 34t36 88q0 41 -22.5 74t-96.5 83q-67 45 -94 87t-27 93q0 48 23 90t66 67q46 26 109 26q71 0 136 -37q18 7 40 25zM314 728l125 131q12 2 51.5 -6t54.5 -15l-1 -15l-212 -116z" />
    <glyph glyph-name="sacute" unicode="&#x15b;" horiz-adv-x="330" 
d="M4 52q0 20 13 35.5t26 15.5q12 0 27 -21q29 -37 50 -44q11 -4 22 -4q25 0 49.5 22t24.5 51q0 17 -14 34.5t-59 55.5q-38 31 -50.5 53.5t-12.5 48.5q0 32 21.5 65t55.5 57q50 35 93 35q30 0 50 -13.5t20 -36.5q0 -16 -14 -31.5t-27 -15.5q-11 0 -28 20q-17 22 -30 28
q-7 2 -15 2q-24 0 -45 -21q-23 -23 -23 -51q3 -38 60 -83q51 -40 68 -62.5t17 -45.5q0 -30 -27 -67t-68 -63q-51 -32 -95 -32q-40 0 -64.5 23t-24.5 45zM223 513l-25 16l104 164q12 1 45.5 -5t45.5 -11v-10z" />
    <glyph glyph-name="Scircumflex" unicode="&#x15c;" horiz-adv-x="522" 
d="M508 648h24q-42 -100 -61 -188h-28q3 56 -3 85t-24 49q-29 34 -89 34q-50 0 -84 -35.5t-34 -88.5q0 -41 23.5 -71t95.5 -79q70 -48 99.5 -87.5t29.5 -92.5q0 -89 -71 -144q-58 -46 -140 -46q-93 0 -161 61q-23 -13 -36 -23l-22 7q25 69 52 192l26 -3q-4 -58 11.5 -102.5
t43.5 -68.5q35 -29 89 -29q53 0 89 34t36 88q0 41 -22.5 74t-96.5 83q-67 45 -94 87t-27 93q0 48 23 90t66 67q46 26 109 26q71 0 136 -37q18 7 40 25zM518 727l-15 -21q-15 6 -129 65q-39 -17 -169 -65l-11 23q113 66 182 118h25q31 -38 117 -120z" />
    <glyph glyph-name="scircumflex" unicode="&#x15d;" horiz-adv-x="330" 
d="M4 52q0 20 13 35.5t26 15.5q12 0 27 -21q29 -37 50 -44q11 -4 22 -4q25 0 49.5 22t24.5 51q0 17 -14 34.5t-59 55.5q-38 31 -50.5 53.5t-12.5 48.5q0 32 21.5 65t55.5 57q50 35 93 35q30 0 50 -13.5t20 -36.5q0 -16 -14 -31.5t-27 -15.5q-11 0 -28 20q-17 22 -30 28
q-7 2 -15 2q-24 0 -45 -21q-23 -23 -23 -51q3 -38 60 -83q51 -40 68 -62.5t17 -45.5q0 -30 -27 -67t-68 -63q-51 -32 -95 -32q-40 0 -64.5 23t-24.5 45zM359 527l-25 -11l-70 100q-33 -30 -132 -103l-20 19q81 81 157 171h26q35 -101 64 -176z" />
    <glyph glyph-name="uni015E" unicode="&#x15e;" horiz-adv-x="522" 
d="M471 460h-28q3 56 -3 85t-24 49q-29 34 -89 34q-50 0 -84 -35.5t-34 -88.5q0 -41 23.5 -71t95.5 -79q70 -48 99.5 -87.5t29.5 -92.5q0 -89 -71 -144q-57 -45 -134 -46l-35 -33q32 -10 51.5 -31t19.5 -49q0 -42 -34.5 -70.5t-81.5 -28.5q-32 0 -50.5 12t-18.5 29
q0 9 10.5 19.5t21.5 10.5q14 0 29 -22q11 -17 29 -17q17 0 28.5 10.5t11.5 27.5q0 23 -23 41.5t-69 22.5l2 16l72 64q-74 8 -130 59q-23 -13 -36 -23l-22 7q25 69 52 192l26 -3q-4 -58 11.5 -102.5t43.5 -68.5q35 -29 89 -29q53 0 89 34t36 88q0 41 -22.5 74t-96.5 83
q-67 45 -94 87t-27 93q0 48 23 90t66 67q46 26 109 26q71 0 136 -37q18 7 40 25h24q-42 -100 -61 -188z" />
    <glyph glyph-name="uni015F" unicode="&#x15f;" horiz-adv-x="330" 
d="M33 -78l72 63q-4 -1 -12 -1q-40 0 -64.5 23t-24.5 45q0 20 13 35.5t26 15.5q12 0 27 -21q29 -37 50 -44q11 -4 22 -4q25 0 49.5 22t24.5 51q0 17 -14 34.5t-59 55.5q-38 31 -50.5 53.5t-12.5 48.5q0 32 21.5 65t55.5 57q50 35 93 35q30 0 50 -13.5t20 -36.5
q0 -16 -14 -31.5t-27 -15.5q-11 0 -28 20q-17 22 -30 28q-7 2 -15 2q-24 0 -45 -21q-23 -23 -23 -51q3 -38 60 -83q51 -40 68 -62.5t17 -45.5q0 -30 -27 -67t-68 -63q-18 -10 -28 -15l-54 -50q32 -11 52 -33.5t20 -50.5q0 -40 -32 -69.5t-77 -29.5q-35 0 -55.5 14.5
t-20.5 32.5q0 10 10.5 19.5t23.5 9.5t28 -21q15 -23 31 -23t25.5 11.5t9.5 29.5q0 24 -22.5 42.5t-68.5 22.5z" />
    <glyph glyph-name="Scaron" unicode="&#x160;" horiz-adv-x="522" 
d="M508 648h24q-42 -100 -61 -188h-28q3 56 -3 85t-24 49q-29 34 -89 34q-50 0 -84 -35.5t-34 -88.5q0 -41 23.5 -71t95.5 -79q70 -48 99.5 -87.5t29.5 -92.5q0 -89 -71 -144q-58 -46 -140 -46q-93 0 -161 61q-23 -13 -36 -23l-22 7q25 69 52 192l26 -3q-4 -58 11.5 -102.5
t43.5 -68.5q35 -29 89 -29q53 0 89 34t36 88q0 41 -22.5 74t-96.5 83q-67 45 -94 87t-27 93q0 48 23 90t66 67q46 26 109 26q71 0 136 -37q18 7 40 25zM214 832l16 21q20 -9 69 -34t61 -31q58 25 168 65l10 -23q-116 -68 -181 -118h-25q-34 43 -118 120z" />
    <glyph glyph-name="scaron" unicode="&#x161;" horiz-adv-x="330" 
d="M4 52q0 20 13 35.5t26 15.5q12 0 27 -21q29 -37 50 -44q11 -4 22 -4q25 0 49.5 22t24.5 51q0 17 -14 34.5t-59 55.5q-38 31 -50.5 53.5t-12.5 48.5q0 32 21.5 65t55.5 57q50 35 93 35q30 0 50 -13.5t20 -36.5q0 -16 -14 -31.5t-27 -15.5q-11 0 -28 20q-17 22 -30 28
q-7 2 -15 2q-24 0 -45 -21q-23 -23 -23 -51q3 -38 60 -83q51 -40 68 -62.5t17 -45.5q0 -30 -27 -67t-68 -63q-51 -32 -95 -32q-40 0 -64.5 23t-24.5 45zM157 704l25 12l71 -100q31 28 135 103l17 -20q-89 -87 -157 -170h-26q-52 144 -65 175z" />
    <glyph glyph-name="uni0162" unicode="&#x162;" horiz-adv-x="645" 
d="M274 645h316q75 0 112 8q-35 -93 -52 -183h-29q4 75 -5 108q-11 35 -54 35h-106l-130 -525q-8 -33 9 -43.5t87 -16.5l-7 -28h-108l-52 -49q32 -10 51.5 -31t19.5 -49q0 -42 -34.5 -70.5t-81.5 -28.5q-32 0 -50.5 12t-18.5 29q0 9 10.5 19.5t21.5 10.5q14 0 29 -22
q11 -17 29 -17q17 0 28.5 10.5t11.5 27.5q0 23 -23 41.5t-69 22.5l2 16l88 78h-150l7 28q65 5 85 15.5t30 46.5l132 523h-96q-36 0 -67 -27q-34 -30 -80 -117l-27 7q44 114 59 180q40 -11 112 -11z" />
    <glyph glyph-name="uni0163" unicode="&#x163;" horiz-adv-x="296" 
d="M316 410h-104q-70 -248 -86 -319q-7 -41 8 -41q43 0 110 98l19 -20q-48 -90 -122 -125l-56 -52q32 -11 52 -33.5t20 -50.5q0 -40 -32 -69.5t-77 -29.5q-35 0 -55.5 14.5t-20.5 32.5q0 10 10.5 19.5t23.5 9.5t28 -21q15 -23 31 -23t25.5 11.5t9.5 29.5q0 24 -22.5 42.5
t-68.5 22.5l3 16l76 66h-4q-38 0 -38 46q0 34 17 99q14 55 41 151.5t35 125.5h-78l12 34h76l42 149q16 -2 34 -2q29 0 42 4q-10 -28 -44 -151h105z" />
    <glyph glyph-name="Tcaron" unicode="&#x164;" horiz-adv-x="645" 
d="M119 0l7 28q65 5 85 15.5t30 46.5l132 523h-96q-36 0 -67 -27q-34 -30 -80 -117l-27 7q44 114 59 180q40 -11 112 -11h316q75 0 112 8q-35 -93 -52 -183h-29q4 75 -5 108q-11 35 -54 35h-106l-130 -525q-8 -33 9 -43.5t87 -16.5l-7 -28h-296zM273 820l16 21q20 -9 69 -34
t61 -31q58 25 168 65l10 -24q-105 -60 -181 -118h-25q-37 47 -118 121z" />
    <glyph glyph-name="tcaron" unicode="&#x165;" horiz-adv-x="296" 
d="M362 503h-29q11 48 31 168l6 16q20 9 43 9q21 0 39 -8l-7 -17q-44 -90 -83 -168zM328 444l-12 -34h-104q-70 -248 -86 -319q-7 -41 8 -41q43 0 110 98l19 -20q-37 -69 -88 -104.5t-91 -35.5q-38 0 -38 46q0 34 17 99q14 55 41 151.5t35 125.5h-78l12 34h76l42 149
q16 -2 34 -2q29 0 42 4q-10 -28 -44 -151h105z" />
    <glyph glyph-name="Tbar" unicode="&#x166;" horiz-adv-x="645" 
d="M274 645h316q75 0 112 8q-35 -93 -52 -183h-29q4 75 -5 108q-11 35 -54 35h-106l-68 -273h118l-7 -34h-119l-54 -218q-8 -33 9 -43.5t87 -16.5l-7 -28h-296l7 28q65 5 85 15.5t30 46.5l55 216h-107l8 34h107l69 273h-96q-36 0 -67 -27q-34 -30 -80 -117l-27 7
q44 114 59 180q40 -11 112 -11z" />
    <glyph glyph-name="tbar" unicode="&#x167;" horiz-adv-x="296" 
d="M316 410h-104l-35 -126h90l-8 -30h-90q-28 -99 -43 -163q-7 -41 8 -41q43 0 110 98l19 -20q-37 -69 -88 -104.5t-91 -35.5q-38 0 -38 46q0 34 17 99q11 41 33 121h-61l7 30h62q24 84 35 126h-78l12 34h76l42 149q16 -2 34 -2q29 0 42 4q-10 -28 -44 -151h105z" />
    <glyph glyph-name="Utilde" unicode="&#x168;" horiz-adv-x="693" 
d="M114 617l8 28h279l-7 -28q-60 -5 -79 -16t-28 -46q-79 -323 -85 -356q-11 -56 8 -96q31 -69 137 -69q81 0 128.5 50t74.5 156q10 39 32 129t34 139q16 68 3 85t-86 24l5 28h242l-5 -28q-61 -7 -80 -25.5t-34 -80.5q-48 -204 -64 -264q-35 -129 -89 -189q-69 -74 -187 -74
q-110 0 -162 54q-34 35 -43 87.5t4 93.5l84 340q7 31 -9.5 41.5t-80.5 16.5zM623 820l26 -8q-5 -35 -31 -68t-71 -33q-27 0 -83 24q-41 19 -64 19q-22 0 -34.5 -10.5t-24.5 -36.5l-26 9q9 43 35 70.5t71 27.5q28 0 79 -22q46 -19 63 -19q23 0 36.5 9t23.5 38z" />
    <glyph glyph-name="utilde" unicode="&#x169;" horiz-adv-x="516" 
d="M54 322l-18 21q37 53 82 83t83 30q24 0 24 -32q0 -18 -17 -69q-7 -24 -33 -109t-36 -121q-22 -80 15 -80q47 0 111 88t103 194q16 43 37 117q30 0 76 4q-71 -239 -102 -367q-6 -28 7 -28t37.5 23.5t51.5 66.5l21 -19q-39 -71 -83.5 -103.5t-78.5 -32.5t-34 42
q0 36 38 166q-55 -103 -115.5 -155.5t-118.5 -52.5q-50 0 -50 61q0 30 14 84q11 39 37 122.5t35 113.5q6 19 -4 19q-26 0 -82 -66zM462 665l25 -7q-5 -35 -30 -68.5t-67 -33.5q-27 0 -79 23q-41 18 -62 18q-20 0 -32 -10t-23 -35l-25 9q9 42 33.5 69.5t67.5 27.5
q22 0 75 -21q43 -19 59 -19q22 0 34.5 9t23.5 38z" />
    <glyph glyph-name="Umacron" unicode="&#x16a;" horiz-adv-x="693" 
d="M114 617l8 28h279l-7 -28q-60 -5 -79 -16t-28 -46q-79 -323 -85 -356q-11 -56 8 -96q31 -69 137 -69q81 0 128.5 50t74.5 156q10 39 32 129t34 139q16 68 3 85t-86 24l5 28h242l-5 -28q-61 -7 -80 -25.5t-34 -80.5q-48 -204 -64 -264q-35 -129 -89 -189q-69 -74 -187 -74
q-110 0 -162 54q-34 35 -43 87.5t4 93.5l84 340q7 31 -9.5 41.5t-80.5 16.5zM347 778h275l-13 -53h-276z" />
    <glyph glyph-name="umacron" unicode="&#x16b;" horiz-adv-x="516" 
d="M54 322l-18 21q37 53 82 83t83 30q24 0 24 -32q0 -18 -17 -69q-7 -24 -33 -109t-36 -121q-22 -80 15 -80q47 0 111 88t103 194q16 43 37 117q30 0 76 4q-71 -239 -102 -367q-6 -28 7 -28t37.5 23.5t51.5 66.5l21 -19q-39 -71 -83.5 -103.5t-78.5 -32.5t-34 42
q0 36 38 166q-55 -103 -115.5 -155.5t-118.5 -52.5q-50 0 -50 61q0 30 14 84q11 39 37 122.5t35 113.5q6 19 -4 19q-26 0 -82 -66zM222 627h239l-13 -50h-239z" />
    <glyph glyph-name="Ubreve" unicode="&#x16c;" horiz-adv-x="693" 
d="M114 617l8 28h279l-7 -28q-60 -5 -79 -16t-28 -46q-79 -323 -85 -356q-11 -56 8 -96q31 -69 137 -69q81 0 128.5 50t74.5 156q10 39 32 129t34 139q16 68 3 85t-86 24l5 28h242l-5 -28q-61 -7 -80 -25.5t-34 -80.5q-48 -204 -64 -264q-35 -129 -89 -189q-69 -74 -187 -74
q-110 0 -162 54q-34 35 -43 87.5t4 93.5l84 340q7 31 -9.5 41.5t-80.5 16.5zM624 826l23 -10q-63 -119 -186 -119q-63 0 -97.5 37.5t-34.5 84.5l24 7q9 -19 18 -29.5t36 -21t68 -10.5q57 0 88 14.5t61 46.5z" />
    <glyph glyph-name="ubreve" unicode="&#x16d;" horiz-adv-x="516" 
d="M54 322l-18 21q37 53 82 83t83 30q24 0 24 -32q0 -18 -17 -69q-7 -24 -33 -109t-36 -121q-22 -80 15 -80q47 0 111 88t103 194q16 43 37 117q30 0 76 4q-71 -239 -102 -367q-6 -28 7 -28t37.5 23.5t51.5 66.5l21 -19q-39 -71 -83.5 -103.5t-78.5 -32.5t-34 42
q0 36 38 166q-55 -103 -115.5 -155.5t-118.5 -52.5q-50 0 -50 61q0 30 14 84q11 39 37 122.5t35 113.5q6 19 -4 19q-26 0 -82 -66zM456 675l22 -9q-25 -60 -69 -92.5t-99 -32.5q-54 0 -85 33.5t-28 95.5l25 4q6 -32 31 -50.5t65 -18.5q91 0 138 70z" />
    <glyph glyph-name="Uring" unicode="&#x16e;" horiz-adv-x="693" 
d="M114 617l8 28h279l-7 -28q-60 -5 -79 -16t-28 -46q-79 -323 -85 -356q-11 -56 8 -96q31 -69 137 -69q81 0 128.5 50t74.5 156q10 39 32 129t34 139q16 68 3 85t-86 24l5 28h242l-5 -28q-61 -7 -80 -25.5t-34 -80.5q-48 -204 -64 -264q-35 -129 -89 -189q-69 -74 -187 -74
q-110 0 -162 54q-34 35 -43 87.5t4 93.5l84 340q7 31 -9.5 41.5t-80.5 16.5zM491 859q40 0 62 -24.5t19 -58.5q-4 -34 -31.5 -58t-66.5 -24q-40 0 -61.5 24t-17.5 58q2 34 29 58.5t67 24.5zM487 826q-21 0 -36 -14t-17 -36q-4 -24 9 -36.5t33 -12.5q51 0 55 52
q2 20 -11 33.5t-33 13.5z" />
    <glyph glyph-name="uring" unicode="&#x16f;" horiz-adv-x="516" 
d="M54 322l-18 21q37 53 82 83t83 30q24 0 24 -32q0 -18 -17 -69q-7 -24 -33 -109t-36 -121q-22 -80 15 -80q47 0 111 88t103 194q16 43 37 117q30 0 76 4q-71 -239 -102 -367q-6 -28 7 -28t37.5 23.5t51.5 66.5l21 -19q-39 -71 -83.5 -103.5t-78.5 -32.5t-34 42
q0 36 38 166q-55 -103 -115.5 -155.5t-118.5 -52.5q-50 0 -50 61q0 30 14 84q11 39 37 122.5t35 113.5q6 19 -4 19q-26 0 -82 -66zM331 687q38 0 58.5 -25t17.5 -61q-3 -35 -29 -60t-64 -25q-40 0 -60.5 25.5t-16.5 61.5q4 35 30 59.5t64 24.5zM328 655q-45 0 -52 -53
q-3 -25 8.5 -39.5t32.5 -14.5q46 0 52 55q2 23 -9 37.5t-32 14.5z" />
    <glyph glyph-name="Uhungarumlaut" unicode="&#x170;" horiz-adv-x="693" 
d="M114 617l8 28h279l-7 -28q-60 -5 -79 -16t-28 -46q-79 -323 -85 -356q-11 -56 8 -96q31 -69 137 -69q81 0 128.5 50t74.5 156q10 39 32 129t34 139q16 68 3 85t-86 24l5 28h242l-5 -28q-61 -7 -80 -25.5t-34 -80.5q-48 -204 -64 -264q-35 -129 -89 -189q-69 -74 -187 -74
q-110 0 -162 54q-34 35 -43 87.5t4 93.5l84 340q7 31 -9.5 41.5t-80.5 16.5zM355 717l72 135q12 1 46 -3.5t47 -8.5l-2 -14l-140 -121zM526 717l75 133q14 1 48 -3t46 -8l-3 -14l-142 -120z" />
    <glyph glyph-name="uhungarumlaut" unicode="&#x171;" horiz-adv-x="516" 
d="M54 322l-18 21q37 53 82 83t83 30q24 0 24 -32q0 -18 -17 -69q-7 -24 -33 -109t-36 -121q-22 -80 15 -80q47 0 111 88t103 194q16 43 37 117q30 0 76 4q-71 -239 -102 -367q-6 -28 7 -28t37.5 23.5t51.5 66.5l21 -19q-39 -71 -83.5 -103.5t-78.5 -32.5t-34 42
q0 36 38 166q-55 -103 -115.5 -155.5t-118.5 -52.5q-50 0 -50 61q0 30 14 84q11 39 37 122.5t35 113.5q6 19 -4 19q-26 0 -82 -66zM230 532l-23 14l90 152q6 1 80 -8l-2 -11zM388 532l-22 14l93 152q6 1 77 -8l-1 -11z" />
    <glyph glyph-name="Uogonek" unicode="&#x172;" horiz-adv-x="693" 
d="M538 645h242l-5 -28q-61 -7 -80 -25.5t-34 -80.5q-48 -204 -64 -264q-35 -129 -89 -189q-29 -30 -60 -46q-126 -97 -126 -153q0 -37 45 -37q32 0 63 22l10 -21q-48 -61 -114 -61q-40 0 -61.5 19.5t-21.5 54.5q0 64 138 153q-30 -5 -60 -5q-110 0 -162 54q-34 35 -43 87.5
t4 93.5l84 340q7 31 -9.5 41.5t-80.5 16.5l8 28h279l-7 -28q-60 -5 -79 -16t-28 -46q-79 -323 -85 -356q-11 -56 8 -96q31 -69 137 -69q81 0 128.5 50t74.5 156q10 39 32 129t34 139q16 68 3 85t-86 24z" />
    <glyph glyph-name="uogonek" unicode="&#x173;" horiz-adv-x="516" 
d="M475 143l21 -19q-35 -62 -77 -98q-101 -102 -101 -163q0 -45 41 -45q33 0 66 28l10 -19q-23 -31 -54 -48t-59 -17q-40 0 -61.5 19.5t-21.5 54.5q0 57 116 155q-12 -3 -21 -3q-34 0 -34 42q0 36 38 166q-55 -103 -115.5 -155.5t-118.5 -52.5q-50 0 -50 61q0 30 14 84
q11 39 37 122.5t35 113.5q6 19 -4 19q-26 0 -82 -66l-18 21q37 53 82 83t83 30q24 0 24 -32q0 -18 -17 -69q-7 -24 -33 -109t-36 -121q-22 -80 15 -80q47 0 111 88t103 194q16 43 37 117q30 0 76 4q-71 -239 -102 -367q-6 -28 7 -28t37.5 23.5t51.5 66.5z" />
    <glyph glyph-name="Wcircumflex" unicode="&#x174;" horiz-adv-x="940" 
d="M97 617l6 28h250l-6 -28q-4 0 -15 -1t-16 -2l-15 -3t-15 -5.5t-11 -8.5t-9 -12.5t-3 -17.5q-2 -60 -3 -235t-2 -202q218 350 241 389q8 15 8 28q0 26 -1 34q-1 9 -6.5 15.5t-15 10t-17.5 5t-21.5 3t-18.5 2.5l6 28h250l-6 -28q-56 -5 -72 -14t-16 -38q1 -69 7.5 -249.5
t6.5 -191.5q212 349 250 423q14 29 10.5 40.5t-25.5 16.5q-23 6 -71 12l6 29h258l-6 -29q-53 -7 -76.5 -21t-48.5 -54q-37 -62 -173.5 -283t-168.5 -274h-29q-1 41 -4.5 137t-8.5 208t-6 146q-98 -167 -303 -491h-29q2 88 2 574q0 24 -10 36t-23 15.5t-40 6.5q-7 1 -10 1z
M732 720l-15 -21q-15 6 -129 65q-39 -17 -169 -65l-11 23q113 66 182 118h25q31 -38 117 -120z" />
    <glyph glyph-name="wcircumflex" unicode="&#x175;" horiz-adv-x="715" 
d="M48 318l-17 21q31 44 79.5 80.5t91.5 36.5q22 0 22 -30q0 -22 -14 -61l-59 -194q-23 -79 -23 -100q0 -28 20 -28q34 0 91.5 60.5t100.5 144.5q36 71 59 179q31 0 81 6q-26 -78 -44 -142q-42 -146 -42 -204q0 -46 31 -46q24 0 59.5 28.5t71.5 78.5q34 47 53.5 94t19.5 74
q0 23 -9 57q-8 26 -8 35q0 15 19.5 31.5t41.5 16.5q27 0 27 -63q0 -56 -33 -134t-98 -150q-109 -123 -195 -123q-22 0 -38 22.5t-16 60.5q0 50 16 112q-54 -89 -120.5 -142t-116.5 -53q-21 0 -32.5 20.5t-11.5 44.5q0 38 21 108q4 15 7 24.5t5.5 18.5t14.5 49t33 109
q8 27 -2 27q-27 0 -86 -69zM569 524l-26 -11l-69 101q-30 -27 -133 -104l-20 19q75 73 158 172h26q37 -109 64 -177z" />
    <glyph glyph-name="Ycircumflex" unicode="&#x176;" horiz-adv-x="615" 
d="M113 0l7 28q60 5 78 16t28 47l39 155q6 28 4 40q-8 43 -78 275q-11 34 -27 42.5t-65 13.5l6 28h249l-5 -28q-47 -5 -64 -10q-15 -7 -12 -24q19 -78 74 -266q158 204 190 253q20 33 -6 38q-26 6 -55 9l7 28h227l-6 -28q-51 -4 -78 -18t-60 -57q-180 -224 -201 -257
q-10 -13 -16 -38l-39 -159q-8 -33 8.5 -43.5t81.5 -16.5l-8 -28h-279zM574 728l-15 -21q-16 7 -38.5 18.5t-51 26t-40.5 20.5q-53 -23 -169 -65l-10 23q105 61 182 118h24q40 -48 118 -120z" />
    <glyph glyph-name="ycircumflex" unicode="&#x177;" horiz-adv-x="441" 
d="M50 297l-23 18q37 71 75.5 106t69.5 35q39 0 48 -95q17 -168 12 -321q72 113 101 193.5t29 121.5q0 14 -4 37t-4 27q0 8 19.5 22.5t39.5 14.5q17 0 17 -38q0 -26 -9 -62q-20 -95 -99.5 -231t-156.5 -225q-52 -61 -101 -99.5t-79 -38.5q-25 0 -40 14t-15 37q0 22 19 44
t35 22q12 0 26 -17q22 -25 33 -25q26 0 69 54q34 43 44 81t10 122q0 132 -18 244q-6 47 -22 47q-24 0 -76 -88zM401 539l-25 -11l-70 100q-33 -30 -132 -103l-20 19q81 81 157 171h26q35 -101 64 -176z" />
    <glyph glyph-name="Ydieresis" unicode="&#x178;" horiz-adv-x="615" 
d="M113 0l7 28q60 5 78 16t28 47l39 155q6 28 4 40q-8 43 -78 275q-11 34 -27 42.5t-65 13.5l6 28h249l-5 -28q-47 -5 -64 -10q-15 -7 -12 -24q19 -78 74 -266q158 204 190 253q20 33 -6 38q-26 6 -55 9l7 28h227l-6 -28q-51 -4 -78 -18t-60 -57q-180 -224 -201 -257
q-10 -13 -16 -38l-39 -159q-8 -33 8.5 -43.5t81.5 -16.5l-8 -28h-279zM536 802q20 0 32 -14.5t10 -32.5t-16.5 -32t-34.5 -14q-18 0 -30.5 13t-9.5 32q2 23 16.5 35.5t32.5 12.5zM331 802q19 0 31 -14.5t10 -32.5t-16 -32t-35 -14q-18 0 -30.5 13t-9.5 32q2 23 16.5 35.5
t33.5 12.5z" />
    <glyph glyph-name="Zacute" unicode="&#x179;" horiz-adv-x="618" 
d="M567 200l24 -13q-47 -78 -99 -190q-81 3 -131 3h-355l3 21q221 244 509 592h-216q-37 0 -55.5 -5t-39.5 -25q-22 -21 -84 -119l-26 10q33 71 64 183q50 -12 131 -12h237q64 0 106 2l-2 -18q-503 -587 -510 -596h231q49 0 97 37t116 130zM345 713l125 131q12 2 51.5 -6
t54.5 -15l-1 -15l-212 -116z" />
    <glyph glyph-name="zacute" unicode="&#x17a;" horiz-adv-x="453" 
d="M62 284l-22 16q16 33 58.5 94.5t56.5 61.5q7 0 24 -7q90 -37 167 -37q18 0 35 14l46 46q4 -1 9 -8.5t7 -13.5q-13 -20 -38 -46q-31 -33 -129.5 -136.5t-145.5 -155.5q33 -15 91 -46q48 -27 73 -27q20 0 43.5 23.5t23.5 39.5q0 13 -8 32.5t-8 25.5q0 13 15.5 25.5
t34.5 12.5q23 0 23 -44q0 -48 -57 -109q-29 -31 -62.5 -53t-50.5 -22t-113 61q-35 20 -48 20q-9 0 -30 -21q-29 -31 -37 -42q-5 2 -11 10t-6 14q0 10 58 73q37 41 253 270q-32 -4 -118 10q-12 2 -24.5 4t-19.5 3.5t-8 1.5q-24 0 -82 -90zM269 518l-25 16l104 164
q12 1 45.5 -5t45.5 -11v-10z" />
    <glyph glyph-name="Zdotaccent" unicode="&#x17b;" horiz-adv-x="618" 
d="M567 200l24 -13q-47 -78 -99 -190q-81 3 -131 3h-355l3 21q221 244 509 592h-216q-37 0 -55.5 -5t-39.5 -25q-22 -21 -84 -119l-26 10q33 71 64 183q50 -12 131 -12h237q64 0 106 2l-2 -18q-503 -587 -510 -596h231q49 0 97 37t116 130zM351 759q4 20 18.5 36.5
t37.5 16.5q22 0 33.5 -16t9.5 -37t-17.5 -36t-36.5 -15q-23 0 -35 15.5t-10 35.5z" />
    <glyph glyph-name="zdotaccent" unicode="&#x17c;" horiz-adv-x="453" 
d="M62 284l-22 16q16 33 58.5 94.5t56.5 61.5q7 0 24 -7q90 -37 167 -37q18 0 35 14l46 46q4 -1 9 -8.5t7 -13.5q-13 -20 -38 -46q-31 -33 -129.5 -136.5t-145.5 -155.5q33 -15 91 -46q48 -27 73 -27q20 0 43.5 23.5t23.5 39.5q0 13 -8 32.5t-8 25.5q0 13 15.5 25.5
t34.5 12.5q23 0 23 -44q0 -48 -57 -109q-29 -31 -62.5 -53t-50.5 -22t-113 61q-35 20 -48 20q-9 0 -30 -21q-29 -31 -37 -42q-5 2 -11 10t-6 14q0 10 58 73q37 41 253 270q-32 -4 -118 10q-12 2 -24.5 4t-19.5 3.5t-8 1.5q-24 0 -82 -90zM337 617q0 -23 -16 -41.5t-40 -18.5
q-18 0 -28 12t-10 29q0 22 16 41.5t40 19.5q18 0 28 -12t10 -30z" />
    <glyph glyph-name="Zcaron" unicode="&#x17d;" horiz-adv-x="618" 
d="M567 200l24 -13q-47 -78 -99 -190q-81 3 -131 3h-355l3 21q221 244 509 592h-216q-37 0 -55.5 -5t-39.5 -25q-22 -21 -84 -119l-26 10q33 71 64 183q50 -12 131 -12h237q64 0 106 2l-2 -18q-503 -587 -510 -596h231q49 0 97 37t116 130zM256 825l15 21q16 -7 39 -18.5
t51.5 -26t39.5 -20.5q53 23 169 65l10 -24q-104 -58 -182 -118h-24q-43 52 -118 121z" />
    <glyph glyph-name="zcaron" unicode="&#x17e;" horiz-adv-x="453" 
d="M62 284l-22 16q16 33 58.5 94.5t56.5 61.5q7 0 24 -7q90 -37 167 -37q18 0 35 14l46 46q4 -1 9 -8.5t7 -13.5q-13 -20 -38 -46q-31 -33 -129.5 -136.5t-145.5 -155.5q33 -15 91 -46q48 -27 73 -27q20 0 43.5 23.5t23.5 39.5q0 13 -8 32.5t-8 25.5q0 13 15.5 25.5
t34.5 12.5q23 0 23 -44q0 -48 -57 -109q-29 -31 -62.5 -53t-50.5 -22t-113 61q-35 20 -48 20q-9 0 -30 -21q-29 -31 -37 -42q-5 2 -11 10t-6 14q0 10 58 73q37 41 253 270q-32 -4 -118 10q-12 2 -24.5 4t-19.5 3.5t-8 1.5q-24 0 -82 -90zM191 697l25 12l71 -100
q31 28 135 103l17 -20q-89 -87 -157 -170h-26q-52 144 -65 175z" />
    <glyph glyph-name="longs" unicode="&#x17f;" horiz-adv-x="237" 
d="M387 705q36 0 55.5 -12.5t19.5 -28.5q-1 -17 -16 -36t-32 -19q-10 0 -19 10t-26 34q-15 18 -25 18q-33 0 -61.5 -60.5t-61.5 -194.5q-11 -46 -46.5 -199.5t-47.5 -202.5q-26 -107 -87 -179.5t-134 -72.5q-29 0 -50 14.5t-21 34.5q0 17 14.5 34t30.5 17q15 0 53 -39
q17 -15 30 -15q9 0 19.5 8t25 39t26.5 82q16 71 50 225t44 196q44 181 108.5 264t150.5 83z" />
    <glyph glyph-name="uni018F" unicode="&#x18f;" horiz-adv-x="647" 
d="M284 -16q-105 0 -164 61t-59 153q0 61 14 89h455q11 70 11 103q0 105 -46.5 163.5t-138.5 58.5q-98 0 -194 -81l-16 25q104 104 249 104q115 0 176 -78t61 -191q0 -57 -13.5 -113.5t-42 -109.5t-69 -94t-98.5 -65.5t-125 -24.5zM296 18q81 0 138.5 63t89.5 172h-363
q-10 -36 -10 -77q0 -69 35.5 -113.5t109.5 -44.5z" />
    <glyph glyph-name="florin" unicode="&#x192;" horiz-adv-x="497" 
d="M415 377l-9 -32h-108q-49 -191 -80 -290q-34 -105 -95.5 -162t-125.5 -57q-35 0 -56 15t-21 36t14.5 35t31.5 14q20 0 39 -27q23 -29 41 -29q20 0 38.5 31.5t41.5 117.5q13 48 30 109.5t30.5 109.5t26.5 97h-88l9 32h89q26 90 56.5 146.5t81.5 97.5q52 41 114 41
q33 0 50 -12.5t17 -30.5q0 -19 -14 -34t-29 -15q-17 0 -34 23q-2 2 -5.5 7.5t-5 7t-4.5 5.5t-5 5t-5 3t-6.5 2.5t-7.5 0.5q-32 0 -58.5 -55t-61.5 -192h109z" />
    <glyph glyph-name="uni019F" unicode="&#x19f;" horiz-adv-x="677" 
d="M433 663q103 0 162 -65t59 -171q0 -105 -42 -200.5t-113 -159.5q-93 -83 -200 -83q-105 0 -164 64.5t-59 172.5q0 100 47.5 207t129.5 171t180 64zM556 350q8 45 8 79q0 104 -31 151.5t-105 47.5q-88 0 -151 -83.5t-92 -200.5q239 0 371 6zM305 19q60 0 112 46.5
t83.5 110.5t48.5 139q-201 -6 -372 -6q-10 -51 -10 -101q0 -100 34.5 -144.5t103.5 -44.5z" />
    <glyph glyph-name="Ohorn" unicode="&#x1a0;" horiz-adv-x="677" 
d="M76 221q0 56 15.5 116.5t46.5 118t73 103.5t100 74t122 28q79 0 136 -41q23 5 40.5 15.5t17.5 23.5q0 8 -14.5 28.5t-14.5 27.5q0 16 21.5 34.5t38.5 18.5q12 0 22.5 -15.5t10.5 -41.5q0 -36 -25.5 -67.5t-68.5 -48.5q58 -64 58 -170q0 -111 -47 -212.5t-129.5 -165
t-178.5 -63.5q-106 0 -165 64.5t-59 172.5zM306 19q58 0 109 43t82 107.5t49 133t18 124.5q0 103 -31.5 151t-103.5 48q-60 0 -111 -41t-81.5 -104t-48 -130.5t-19.5 -128.5q-1 -66 13 -113q26 -90 124 -90z" />
    <glyph glyph-name="ohorn" unicode="&#x1a1;" horiz-adv-x="480" 
d="M312 456q64 0 97 -41q52 14 52 40q0 8 -17 33q-12 14 -12 22q0 16 21.5 34.5t38.5 18.5q12 0 22.5 -15.5t10.5 -41.5q0 -37 -27 -69.5t-72 -48.5q15 -34 15 -78q0 -74 -37.5 -152.5t-100.5 -125.5q-60 -44 -130 -44q-62 0 -94.5 39.5t-32.5 100.5q0 77 39.5 160.5
t107.5 129.5q58 38 119 38zM188 21q47 0 88 58.5t62.5 131.5t21.5 129q0 84 -57 84q-44 0 -86 -51.5t-66 -125.5t-24 -143q0 -83 61 -83z" />
    <glyph glyph-name="Uhorn" unicode="&#x1af;" horiz-adv-x="693" 
d="M123 620l6 25h269l-6 -25q-27 -4 -57 -10q-23 -5 -31 -14t-15 -37q-76 -299 -86 -357q-14 -74 23.5 -119.5t122.5 -45.5q81 0 130 50.5t74 156.5l63 260q10 40 12 60t-4.5 30.5t-23.5 15.5q-30 7 -57 8l5 27h167q11 0 21 4.5t10 10.5q0 12 -21 40q-12 18 -12 25
q0 17 19.5 32.5t37.5 15.5q33 0 33 -52q0 -75 -80 -111q-29 -14 -39 -30t-23 -71l-65 -262q-9 -38 -18.5 -66.5t-31 -68.5t-49.5 -65.5t-74.5 -44.5t-105.5 -19q-54 0 -95.5 15t-63 40t-35 56t-12 63t6.5 62l85 347q5 22 1 29t-23 14q-6 2 -58 11z" />
    <glyph glyph-name="uhorn" unicode="&#x1b0;" horiz-adv-x="516" 
d="M54 322l-18 21q37 53 82 83t83 30q24 0 24 -32q0 -18 -17 -69q-7 -24 -33 -109t-36 -121q-22 -80 15 -80q47 0 111 88t103 194q16 43 37 117q37 0 69 3q19 12 19 25q0 11 -17 34q-12 15 -12 22q0 16 21.5 34.5t39.5 18.5q12 0 22.5 -15.5t10.5 -41.5q0 -35 -23.5 -65.5
t-64.5 -47.5q-70 -240 -91 -330q-6 -28 7 -28t37.5 23.5t51.5 66.5l21 -19q-39 -71 -83.5 -103.5t-78.5 -32.5t-34 42q0 36 38 166q-55 -103 -115.5 -155.5t-118.5 -52.5q-50 0 -50 61q0 30 14 84q11 39 37 122.5t35 113.5q6 19 -4 19q-26 0 -82 -66z" />
    <glyph glyph-name="uni01C4" unicode="&#x1c4;" horiz-adv-x="1311" 
d="M299 573l-118 -475q-9 -36 9 -50q24 -18 76 -18q122 0 205 91q48 54 75.5 125.5t27.5 141.5q0 113 -49.5 170t-155.5 57q-41 0 -54 -12q-12 -12 -16 -30zM-18 0l6 28q61 5 79 15.5t27 46.5l117 469q7 31 -9.5 41.5t-80.5 16.5l8 28h248q114 0 187 -49q100 -67 100 -217
q0 -89 -40.5 -170.5t-113.5 -134.5q-100 -74 -252 -74h-276zM1260 200l24 -13q-47 -78 -99 -190q-81 3 -131 3h-355l3 21q204 225 510 592h-217q-37 0 -55.5 -5t-39.5 -25q-5 -5 -9.5 -10t-10.5 -13t-10 -13.5t-12 -18t-11.5 -18.5t-14 -22.5t-15.5 -23.5l-27 10
q33 71 64 183q50 -12 131 -12h238q65 0 105 2l-2 -18q-503 -587 -510 -596h231q49 0 97 37t116 130zM949 825l16 21q20 -9 69 -34t61 -31q51 23 168 65l10 -24q-95 -53 -182 -118h-24q-37 47 -118 121z" />
    <glyph glyph-name="uni01C5" unicode="&#x1c5;" horiz-adv-x="1147" 
d="M299 573l-118 -475q-9 -36 9 -50q24 -18 76 -18q122 0 205 91q48 54 75.5 125.5t27.5 141.5q0 113 -49.5 170t-155.5 57q-41 0 -54 -12q-12 -12 -16 -30zM-18 0l6 28q61 5 79 15.5t27 46.5l117 469q7 31 -9.5 41.5t-80.5 16.5l8 28h248q114 0 187 -49q100 -67 100 -217
q0 -89 -40.5 -170.5t-113.5 -134.5q-100 -74 -252 -74h-276zM755 284l-22 16q16 33 58.5 94.5t56.5 61.5q7 0 24 -7q90 -37 167 -37q17 0 35 14l46 46q4 -1 9 -8.5t7 -13.5q-13 -20 -38 -46q-31 -33 -129.5 -136.5t-145.5 -155.5q33 -15 91 -46q48 -27 73 -27
q20 0 43.5 23.5t23.5 39.5q0 13 -8 32.5t-8 25.5q0 13 15.5 25.5t34.5 12.5q23 0 23 -44q0 -48 -57 -109q-29 -31 -62.5 -53t-50.5 -22t-113 61q-35 20 -48 20q-9 0 -30 -21q-29 -31 -37 -42q-5 2 -11 10t-6 14q0 10 58 73q37 41 253 270q-32 -4 -118 10q-12 2 -24.5 4
t-19.5 3.5t-8 1.5q-24 0 -82 -90zM884 697l25 12l71 -100q31 28 135 103l17 -20q-78 -77 -157 -170h-26q-38 111 -65 175z" />
    <glyph glyph-name="uni01C6" unicode="&#x1c6;" horiz-adv-x="979" 
d="M150 43q31 0 78.5 43.5t96.5 129.5q55 97 55 155q0 53 -47 53q-49 0 -100 -60.5t-82 -138t-31 -132.5q0 -50 30 -50zM479 143l19 -21q-40 -71 -83.5 -102.5t-78.5 -31.5q-34 0 -34 43q0 20 37 153q-53 -92 -115.5 -144t-119.5 -52q-32 0 -49 26t-17 66q0 80 43.5 170
t110.5 148q68 58 136 58q46 0 74 -28q33 119 48 188q7 29 -14 36q-30 8 -61 11l7 25q96 3 171 27l4 -3q-16 -35 -85.5 -292.5t-89.5 -339.5q-7 -29 6 -29q29 0 91 92zM588 284l-22 16q16 33 58.5 94.5t56.5 61.5q7 0 24 -7q90 -37 167 -37q18 0 35 14l46 46q4 -1 9 -8.5
t7 -13.5q-13 -20 -38 -46q-31 -33 -129.5 -136.5t-145.5 -155.5q33 -15 91 -46q48 -27 73 -27q20 0 43.5 23.5t23.5 39.5q0 13 -8 32.5t-8 25.5q0 13 15.5 25.5t34.5 12.5q23 0 23 -44q0 -48 -57 -109q-29 -31 -62.5 -53t-50.5 -22t-113 61q-35 20 -48 20q-9 0 -30 -21
q-29 -31 -37 -42q-5 2 -11 10t-6 14q0 10 58 73q37 41 253 270q-32 -4 -118 10q-12 2 -24.5 4t-19.5 3.5t-8 1.5q-24 0 -82 -90zM717 697l25 12l71 -100q31 28 135 103l17 -20q-89 -87 -157 -170h-26q-52 144 -65 175z" />
    <glyph glyph-name="uni01C7" unicode="&#x1c7;" horiz-adv-x="944" 
d="M-23 0l6 28q62 5 82 15.5t29 46.5l118 468q8 31 -9 42t-81 17l7 28h279l-6 -28q-61 -5 -80 -16t-27 -47l-116 -464q-8 -32 2.5 -45t45.5 -13h111q53 0 97 33q57 41 122 139l24 -15q-61 -105 -101 -194q-75 5 -154 5h-349zM741 617l8 28h279l-7 -28q-58 -5 -75 -15.5
t-26 -46.5q-9 -38 -44 -179t-61 -244q-43 -168 -125 -248q-36 -36 -78.5 -54.5t-74.5 -18.5q-34 0 -60.5 16t-26.5 38q0 20 17.5 38.5t36.5 18.5q14 0 45 -37q20 -25 43 -25q59 0 107 160q48 159 138 538q7 31 -12 42t-84 17z" />
    <glyph glyph-name="uni01C8" unicode="&#x1c8;" horiz-adv-x="873" 
d="M-23 0l6 28q62 5 82 15.5t29 46.5l118 468q8 31 -9 42t-81 17l7 28h279l-6 -28q-61 -5 -80 -16t-27 -47l-116 -464q-8 -32 2.5 -45t45.5 -13h111q53 0 97 33q57 41 122 139l24 -15q-61 -105 -101 -194q-75 5 -154 5h-349zM662 308l-16 21q43 60 94.5 93.5t83.5 33.5
q31 0 14 -74q-57 -234 -98 -365q-35 -111 -99 -184q-29 -34 -68.5 -57t-70.5 -23q-26 0 -45.5 13.5t-19.5 34.5q0 19 16.5 35.5t32.5 16.5q13 0 36 -22q22 -22 37 -22q12 0 24.5 9.5t30.5 42t33 84.5q17 57 110 411q7 28 -5 28q-26 0 -90 -76zM887 617q0 -23 -16 -41.5
t-40 -18.5q-18 0 -28 12.5t-10 29.5q0 23 16.5 41.5t40.5 18.5q17 0 27 -11.5t10 -30.5z" />
    <glyph glyph-name="uni01C9" unicode="&#x1c9;" horiz-adv-x="514" 
d="M110 663l6 25q86 3 168 27l4 -4l-30 -105q-9 -34 -63 -235.5t-75 -278.5q-12 -40 4 -40q31 0 93 90l19 -20q-34 -59 -79.5 -96.5t-88.5 -37.5q-31 0 -31 44q0 33 38 165q96 355 108 420q4 17 0.5 23.5t-15.5 11.5t-58 11zM303 308l-16 21q43 60 94.5 93.5t83.5 33.5
q31 0 14 -74q-57 -234 -98 -365q-35 -111 -99 -184q-29 -34 -68.5 -57t-70.5 -23q-26 0 -45.5 13.5t-19.5 34.5q0 19 16.5 35.5t32.5 16.5q13 0 36 -22q22 -22 37 -22q12 0 24.5 9.5t30.5 42t33 84.5q17 57 110 411q7 28 -5 28q-26 0 -90 -76zM528 617q0 -23 -16 -41.5
t-40 -18.5q-18 0 -28 12.5t-10 29.5q0 23 16.5 41.5t40.5 18.5q17 0 27 -11.5t10 -30.5z" />
    <glyph glyph-name="uni01CA" unicode="&#x1ca;" horiz-adv-x="1046" 
d="M-25 0l7 28q61 4 82.5 24.5t38.5 84.5q86 328 108 415q3 9 -3 23t-19 22q-15 10 -87 20l7 28h163l265 -526q68 274 93 385q15 69 -0.5 88.5t-93.5 24.5l7 28h254l-5 -28q-61 -6 -80.5 -23.5t-39.5 -89.5q-38 -139 -106 -427q-1 -12 7 -25q9 -19 31 -31l-7 -21h-99
l-257 520q-55 -211 -94 -391q-14 -63 5 -78.5t93 -22.5l-6 -28h-264zM844 617l7 28h279l-6 -28q-59 -5 -76 -15.5t-25 -46.5q-9 -38 -44 -179t-61 -244q-43 -168 -125 -248q-37 -36 -79 -54.5t-75 -18.5t-60 16.5t-27 37.5q0 20 17.5 38.5t36.5 18.5q15 0 46 -37
q20 -25 43 -25q59 0 107 160q54 178 137 538q7 31 -11.5 42t-83.5 17z" />
    <glyph glyph-name="uni01CB" unicode="&#x1cb;" horiz-adv-x="976" 
d="M-25 0l7 28q61 4 82.5 24.5t38.5 84.5q86 328 108 415q3 9 -3 23t-19 22q-15 10 -87 20l7 28h163l265 -526q68 274 93 385q15 69 -0.5 88.5t-93.5 24.5l7 28h254l-5 -28q-61 -6 -80.5 -23.5t-39.5 -89.5q-38 -139 -106 -427q-1 -12 7 -25q9 -19 31 -31l-7 -21h-99
l-257 520q-55 -211 -94 -391q-14 -63 5 -78.5t93 -22.5l-6 -28h-264zM765 308l-16 21q43 60 94.5 93.5t83.5 33.5q31 0 14 -74q-57 -234 -98 -365q-35 -111 -99 -184q-29 -34 -68.5 -57t-70.5 -23q-26 0 -45.5 13.5t-19.5 34.5q0 19 16.5 35.5t32.5 16.5q13 0 36 -22
q22 -22 37 -22q12 0 24.5 9.5t30.5 42t33 84.5q17 57 110 411q7 28 -5 28q-26 0 -90 -76zM990 617q0 -23 -16 -41.5t-40 -18.5q-18 0 -28 12.5t-10 29.5q0 23 16.5 41.5t40.5 18.5q18 0 27.5 -11.5t9.5 -30.5z" />
    <glyph glyph-name="uni01CC" unicode="&#x1cc;" horiz-adv-x="774" 
d="M473 143l19 -20q-34 -61 -82 -98t-87 -37q-56 0 -14 122q8 25 67 208q11 33 13 51.5t-4.5 27t-21.5 8.5q-48 0 -114.5 -86.5t-112.5 -226.5q-27 -83 -32 -102q-45 0 -71 11q82 274 104 357q10 34 -4 34q-25 0 -81 -70l-18 21q38 55 79.5 84t75.5 29q30 0 30 -32
q0 -33 -40 -164q59 106 129 160q48 36 99 36q58 0 58 -57q0 -36 -24 -110q-40 -122 -63 -199q-12 -37 1 -37q32 0 94 90zM563 308l-16 21q43 60 94.5 93.5t83.5 33.5q31 0 14 -74q-57 -234 -98 -365q-35 -111 -99 -184q-29 -34 -68.5 -57t-70.5 -23q-26 0 -45.5 13.5
t-19.5 34.5q0 19 16.5 35.5t32.5 16.5q13 0 36 -22q22 -22 37 -22q12 0 24.5 9.5t30.5 42t33 84.5q17 57 110 411q7 28 -5 28q-26 0 -90 -76zM788 617q0 -23 -16 -41.5t-40 -18.5q-18 0 -28 12.5t-10 29.5q0 23 16.5 41.5t40.5 18.5q17 0 27 -11.5t10 -30.5z" />
    <glyph glyph-name="uni01CD" unicode="&#x1cd;" horiz-adv-x="642" 
d="M-56 0l7 28q47 6 69 17.5t45 43.5q16 23 345 519q8 14 11 37h71q8 -171 34 -557q2 -27 9.5 -36.5t30.5 -15.5q14 -3 49 -8l-5 -28h-258l6 28q60 8 73 16t11 42q-4 98 -9 170q-115 3 -213 -7q-71 -103 -102 -165q-10 -19 -7.5 -28t20.5 -15q16 -7 68 -13l-7 -28h-248z
M431 292q-14 240 -16 267q-22 -35 -84 -132.5t-88 -140.5q64 6 188 6zM328 807l15 21q20 -9 70 -34.5t60 -30.5q58 25 168 65l11 -24q-104 -58 -182 -118h-24q-36 43 -118 121z" />
    <glyph glyph-name="uni01CE" unicode="&#x1ce;" horiz-adv-x="510" 
d="M467 143l20 -21q-35 -62 -83 -98t-81 -36q-17 0 -26.5 10t-9.5 27q0 24 45 174q-57 -104 -130 -164q-54 -46 -102 -46q-61 0 -61 89q0 75 39 163.5t96 145.5q71 69 137 69q58 0 82 -50l15 50h71q-71 -231 -108 -374q-8 -30 5 -30q11 0 37.5 25t53.5 66zM366 361
q0 61 -51 61q-55 0 -112 -86q-36 -54 -60 -123.5t-24 -119.5q0 -46 28 -46q39 0 100.5 74t95.5 154q23 51 23 86zM243 701l25 12l71 -100q31 28 135 103l17 -20q-89 -87 -157 -170h-26q-52 144 -65 175z" />
    <glyph glyph-name="uni01CF" unicode="&#x1cf;" horiz-adv-x="336" 
d="M-19 0l7 28q60 5 78.5 15.5t27.5 46.5l117 469q7 31 -9.5 41.5t-80.5 16.5l7 28h279l-6 -28q-60 -5 -79 -16t-28 -46l-115 -467q-8 -33 8 -43.5t81 -16.5l-8 -28h-279zM142 815l15 21q20 -9 70 -34.5t60 -30.5q45 19 168 65l11 -23q-113 -66 -182 -118h-24
q-32 39 -118 120z" />
    <glyph glyph-name="uni01D0" unicode="&#x1d0;" horiz-adv-x="262" 
d="M59 322l-15 21q35 48 83 80.5t82 32.5q22 0 22 -27q0 -17 -16 -69q-66 -208 -89 -274q-11 -34 3 -34q12 0 37.5 23.5t56.5 67.5l18 -20q-35 -61 -82 -98t-90 -37q-49 0 -14 107q47 145 88 266q8 25 -3 25q-22 0 -81 -64zM117 704l25 12l71 -100q31 28 135 103l17 -20
q-89 -87 -157 -170h-26q-52 144 -65 175z" />
    <glyph glyph-name="uni01D1" unicode="&#x1d1;" horiz-adv-x="677" 
d="M77 221q0 100 47.5 206t128.5 170q82 64 181 64q103 0 162 -65t59 -171q0 -105 -41.5 -199.5t-113.5 -158.5q-93 -83 -200 -83q-105 0 -164 64.5t-59 172.5zM306 19q58 0 109 43t82 107.5t49 133t18 124.5q0 103 -31.5 151t-103.5 48q-61 0 -112.5 -43t-83 -108.5
t-48.5 -135.5t-17 -131q0 -100 34.5 -144.5t103.5 -44.5zM316 828l15 21q16 -7 39 -18.5t51.5 -26t39.5 -20.5q53 23 169 65l10 -23q-105 -61 -182 -118h-24q-40 48 -118 120z" />
    <glyph glyph-name="uni01D2" unicode="&#x1d2;" horiz-adv-x="480" 
d="M312 456q69 0 99 -43.5t30 -102.5q0 -74 -37.5 -152.5t-100.5 -125.5q-60 -44 -130 -44q-62 0 -94.5 39.5t-32.5 100.5q0 77 39.5 160.5t107.5 129.5q58 38 119 38zM188 21q47 0 88 58.5t62.5 131.5t21.5 129q0 84 -57 84q-44 0 -86 -51.5t-66 -125.5t-24 -143
q0 -83 61 -83zM232 695l25 12l71 -100q31 28 135 103l17 -20q-89 -87 -157 -170h-26q-52 144 -65 175z" />
    <glyph glyph-name="uni01D3" unicode="&#x1d3;" horiz-adv-x="693" 
d="M114 617l8 28h279l-7 -28q-60 -5 -79 -16t-28 -46q-79 -323 -85 -356q-11 -56 8 -96q31 -69 137 -69q81 0 128.5 50t74.5 156q10 39 32 129t34 139q16 68 3 85t-86 24l5 28h242l-5 -28q-61 -7 -80 -25.5t-34 -80.5q-48 -204 -64 -264q-35 -129 -89 -189q-69 -74 -187 -74
q-110 0 -162 54q-34 35 -43 87.5t4 93.5l84 340q7 31 -9.5 41.5t-80.5 16.5zM331 809l16 21q20 -9 69 -34t61 -31q51 23 168 65l10 -23q-105 -61 -182 -118h-24q-34 43 -118 120z" />
    <glyph glyph-name="uni01D4" unicode="&#x1d4;" horiz-adv-x="516" 
d="M54 322l-18 21q37 53 82 83t83 30q24 0 24 -32q0 -18 -17 -69q-7 -24 -33 -109t-36 -121q-22 -80 15 -80q47 0 111 88t103 194q16 43 37 117q30 0 76 4q-71 -239 -102 -367q-6 -28 7 -28t37.5 23.5t51.5 66.5l21 -19q-39 -71 -83.5 -103.5t-78.5 -32.5t-34 42
q0 36 38 166q-55 -103 -115.5 -155.5t-118.5 -52.5q-50 0 -50 61q0 30 14 84q11 39 37 122.5t35 113.5q6 19 -4 19q-26 0 -82 -66zM227 702l25 12l71 -100q31 28 135 103l17 -20q-89 -87 -157 -170h-26q-52 144 -65 175z" />
    <glyph glyph-name="uni01D5" unicode="&#x1d5;" horiz-adv-x="693" 
d="M114 617l8 28h279l-7 -28q-60 -5 -79 -16t-28 -46q-79 -323 -85 -356q-11 -56 8 -96q31 -69 137 -69q81 0 128.5 50t74.5 156q10 39 32 129t34 139q16 68 3 85t-86 24l5 28h242l-5 -28q-61 -7 -80 -25.5t-34 -80.5q-48 -204 -64 -264q-35 -129 -89 -189q-69 -74 -187 -74
q-110 0 -162 54q-34 35 -43 87.5t4 93.5l84 340q7 31 -9.5 41.5t-80.5 16.5zM388 782q18 0 28 -13t8 -32q-1 -21 -15 -31.5t-33 -10.5q-16 0 -26.5 11t-8.5 30t14.5 32.5t32.5 13.5zM577 781q19 0 30.5 -13t9.5 -31t-15 -30t-34 -12q-20 0 -30.5 11.5t-8.5 29.5q2 21 16 33
t32 12zM380 878h266l-12 -50h-265z" />
    <glyph glyph-name="uni01D6" unicode="&#x1d6;" horiz-adv-x="516" 
d="M54 322l-18 21q37 53 82 83t83 30q24 0 24 -32q0 -18 -17 -69q-7 -24 -33 -109t-36 -121q-22 -80 15 -80q47 0 111 88t103 194q16 43 37 117q30 0 76 4q-71 -239 -102 -367q-6 -28 7 -28t37.5 23.5t51.5 66.5l21 -19q-39 -71 -83.5 -103.5t-78.5 -32.5t-34 42
q0 36 38 166q-55 -103 -115.5 -155.5t-118.5 -52.5q-50 0 -50 61q0 30 14 84q11 39 37 122.5t35 113.5q6 19 -4 19q-26 0 -82 -66zM240 624q18 0 28.5 -14.5t8.5 -34.5q-2 -22 -16 -35.5t-33 -13.5q-18 0 -28.5 12.5t-8.5 35.5q2 20 15.5 35t33.5 15zM414 623q18 0 29 -15
t8 -33q-2 -20 -16 -34.5t-33 -14.5t-30 13.5t-9 34.5q3 23 18 36t33 13zM241 728h236l-10 -48h-238z" />
    <glyph glyph-name="uni01D7" unicode="&#x1d7;" horiz-adv-x="693" 
d="M114 617l8 28h279l-7 -28q-60 -5 -79 -16t-28 -46q-79 -323 -85 -356q-11 -56 8 -96q31 -69 137 -69q81 0 128.5 50t74.5 156q10 39 32 129t34 139q16 68 3 85t-86 24l5 28h242l-5 -28q-61 -7 -80 -25.5t-34 -80.5q-48 -204 -64 -264q-35 -129 -89 -189q-69 -74 -187 -74
q-110 0 -162 54q-34 35 -43 87.5t4 93.5l84 340q7 31 -9.5 41.5t-80.5 16.5zM479 788l-25 14q18 27 75 116q53 2 91 -10l-1 -13q-11 -9 -68.5 -52.5t-71.5 -54.5zM377 788q20 0 30.5 -13.5t8.5 -32.5q-6 -45 -50 -45q-17 0 -28.5 12t-10.5 31q2 19 15.5 33.5t34.5 14.5z
M598 787q19 0 30 -14t9 -32q-2 -19 -15 -31.5t-35 -12.5q-20 0 -31.5 12.5t-9.5 31.5q1 22 16 34t36 12z" />
    <glyph glyph-name="uni01D8" unicode="&#x1d8;" horiz-adv-x="516" 
d="M54 322l-18 21q37 53 82 83t83 30q24 0 24 -32q0 -18 -17 -69q-7 -24 -33 -109t-36 -121q-22 -80 15 -80q47 0 111 88t103 194q16 43 37 117q30 0 76 4q-71 -239 -102 -367q-6 -28 7 -28t37.5 23.5t51.5 66.5l21 -19q-39 -71 -83.5 -103.5t-78.5 -32.5t-34 42
q0 36 38 166q-55 -103 -115.5 -155.5t-118.5 -52.5q-50 0 -50 61q0 30 14 84q11 39 37 122.5t35 113.5q6 19 -4 19q-26 0 -82 -66zM326 648l-23 12l66 120q7 2 41 -1.5t48 -7.5l-3 -14zM236 623q19 0 30 -15t9 -37q-3 -22 -18.5 -35t-32.5 -13t-28.5 13.5t-9.5 35.5
q2 21 16 36t34 15zM429 622q19 0 29.5 -15t7.5 -36q-3 -22 -16 -35t-32 -13t-31 14t-9 36q4 24 18 36.5t33 12.5z" />
    <glyph glyph-name="uni01D9" unicode="&#x1d9;" horiz-adv-x="693" 
d="M114 617l8 28h279l-7 -28q-60 -5 -79 -16t-28 -46q-79 -323 -85 -356q-11 -56 8 -96q31 -69 137 -69q81 0 128.5 50t74.5 156q10 39 32 129t34 139q16 68 3 85t-86 24l5 28h242l-5 -28q-61 -7 -80 -25.5t-34 -80.5q-48 -204 -64 -264q-35 -129 -89 -189q-69 -74 -187 -74
q-110 0 -162 54q-34 35 -43 87.5t4 93.5l84 340q7 31 -9.5 41.5t-80.5 16.5zM365 911l18 19q27 -15 109 -65q42 23 143 66l12 -23q-112 -78 -155 -113h-27q-28 42 -100 116zM375 787q20 0 31 -14t9 -32q-6 -46 -51 -46q-17 0 -28.5 12t-10.5 32q2 20 15.5 34t34.5 14z
M595 786q19 0 30 -14.5t9 -32.5q-2 -19 -15 -31.5t-35 -12.5q-20 0 -31.5 13t-9.5 32q1 22 16 34t36 12z" />
    <glyph glyph-name="uni01DA" unicode="&#x1da;" horiz-adv-x="516" 
d="M54 322l-18 21q37 53 82 83t83 30q24 0 24 -32q0 -18 -17 -69q-7 -24 -33 -109t-36 -121q-22 -80 15 -80q47 0 111 88t103 194q16 43 37 117q30 0 76 4q-71 -239 -102 -367q-6 -28 7 -28t37.5 23.5t51.5 66.5l21 -19q-39 -71 -83.5 -103.5t-78.5 -32.5t-34 42
q0 36 38 166q-55 -103 -115.5 -155.5t-118.5 -52.5q-50 0 -50 61q0 30 14 84q11 39 37 122.5t35 113.5q6 19 -4 19q-26 0 -82 -66zM226 771l23 16l88 -82q57 37 132 82l18 -20q-87 -71 -151 -135h-27q-32 62 -83 139zM233 618q19 0 30 -15t9 -37q-4 -22 -19 -35t-33 -13
q-17 0 -28.5 13.5t-9.5 35.5q2 21 16.5 36t34.5 15zM426 617q19 0 29.5 -15t7.5 -36q-4 -22 -17 -35t-32 -13q-18 0 -30 14t-9 36q4 24 17.5 36.5t33.5 12.5z" />
    <glyph glyph-name="uni01DB" unicode="&#x1db;" horiz-adv-x="693" 
d="M114 617l8 28h279l-7 -28q-60 -5 -79 -16t-28 -46q-79 -323 -85 -356q-11 -56 8 -96q31 -69 137 -69q81 0 128.5 50t74.5 156q10 39 32 129t34 139q16 68 3 85t-86 24l5 28h242l-5 -28q-61 -7 -80 -25.5t-34 -80.5q-48 -204 -64 -264q-35 -129 -89 -189q-69 -74 -187 -74
q-110 0 -162 54q-34 35 -43 87.5t4 93.5l84 340q7 31 -9.5 41.5t-80.5 16.5zM372 788q20 0 31 -14t9 -32q-6 -45 -51 -45q-17 0 -28 11.5t-10 31.5q2 19 15 33.5t34 14.5zM593 787q20 0 31 -14t9 -32q-2 -19 -15 -31.5t-35 -12.5q-21 0 -32 12.5t-9 31.5q1 21 16 33.5
t35 12.5zM510 803l-25 -14l-120 108l3 13q52 13 93 15z" />
    <glyph glyph-name="uni01DC" unicode="&#x1dc;" horiz-adv-x="516" 
d="M54 322l-18 21q37 53 82 83t83 30q24 0 24 -32q0 -18 -17 -69q-7 -24 -33 -109t-36 -121q-22 -80 15 -80q47 0 111 88t103 194q16 43 37 117q30 0 76 4q-71 -239 -102 -367q-6 -28 7 -28t37.5 23.5t51.5 66.5l21 -19q-39 -71 -83.5 -103.5t-78.5 -32.5t-34 42
q0 36 38 166q-55 -103 -115.5 -155.5t-118.5 -52.5q-50 0 -50 61q0 30 14 84q11 39 37 122.5t35 113.5q6 19 -4 19q-26 0 -82 -66zM351 645l-25 -12l-97 108l2 12q9 4 43.5 9.5t42.5 4.5zM236 621q18 0 29.5 -15t8.5 -34q-3 -24 -18 -37.5t-33 -13.5q-15 0 -28 13.5
t-10 35.5q2 21 16.5 36t34.5 15zM429 620q19 0 29.5 -15t7.5 -36q-4 -22 -17 -35t-32 -13q-18 0 -30 14t-9 36q4 24 17.5 36.5t33.5 12.5z" />
    <glyph glyph-name="Gcaron" unicode="&#x1e6;" horiz-adv-x="682" 
d="M669 300l-6 -28q-44 -4 -59 -11.5t-24 -31.5q-9 -25 -44 -169q8 -8 36 -11l-5 -19q-4 -1 -25 -7.5t-30 -9t-29.5 -8.5t-34 -8.5t-32.5 -6t-36.5 -5t-34.5 -1.5q-128 0 -197 71.5t-69 186.5q0 109 48 204t139 154.5t206 59.5q93 0 153 -37q18 4 45 22h22
q-43 -110 -62 -196h-30q10 113 -43 154q-34 25 -94 25q-66 0 -122.5 -36.5t-92.5 -94t-56 -126t-20 -134.5q0 -114 51 -166t133 -52q39 0 65 10q22 10 31 37q24 73 39 148q5 31 -12 42t-87 16l7 28h270zM349 832l16 21q20 -9 69 -34t61 -31q58 25 168 65l10 -24
q-105 -60 -181 -118h-25q-37 47 -118 121z" />
    <glyph glyph-name="gcaron" unicode="&#x1e7;" horiz-adv-x="433" 
d="M188 125q-33 0 -55 13q-30 -23 -30 -44q0 -23 32 -34q3 -1 73 -25t102 -40q80 -36 80 -86q0 -61 -73 -108.5t-176 -47.5q-86 0 -137.5 37t-51.5 82q0 20 27.5 48t105.5 75q-41 30 -41 74q0 27 67 83q-37 37 -37 89q0 46 26.5 98t74.5 85q46 32 99 32q36 0 61 -14
q10 -5 16 -5q16 0 50 9.5t50 9.5q19 0 28 -8t9 -19q0 -14 -12.5 -26.5t-25.5 -12.5q-14 0 -47 11q-25 8 -36 9q18 -32 18 -68q0 -85 -60 -151t-137 -66zM110 -17q-88 -63 -88 -91q0 -33 48 -63t126 -30q56 0 96 22.5t40 50.5q0 16 -9.5 25.5t-27.5 19.5q-53 31 -185 66z
M193 157q46 0 84.5 65t38.5 133q0 70 -49 70q-32 0 -62 -33q-62 -70 -62 -173q0 -62 50 -62zM194 701l25 12l71 -100q31 28 135 103l17 -20q-89 -87 -157 -170h-26q-52 144 -65 175z" />
    <glyph glyph-name="uni01F1" unicode="&#x1f1;" horiz-adv-x="1311" 
d="M299 573l-118 -475q-9 -36 9 -50q24 -18 76 -18q122 0 205 91q48 54 75.5 125.5t27.5 141.5q0 113 -49.5 170t-155.5 57q-41 0 -54 -12q-12 -12 -16 -30zM-18 0l6 28q61 5 79 15.5t27 46.5l117 469q7 31 -9.5 41.5t-80.5 16.5l8 28h248q114 0 187 -49q100 -67 100 -217
q0 -89 -40.5 -170.5t-113.5 -134.5q-100 -74 -252 -74h-276zM1260 200l24 -13q-47 -78 -99 -190q-81 3 -131 3h-355l3 21q204 225 510 592h-217q-37 0 -55.5 -5t-39.5 -25q-5 -5 -9.5 -10t-10.5 -13t-10 -13.5t-12 -18t-11.5 -18.5t-14 -22.5t-15.5 -23.5l-27 10
q33 71 64 183q50 -12 131 -12h238q65 0 105 2l-2 -18q-503 -587 -510 -596h231q49 0 97 37t116 130z" />
    <glyph glyph-name="uni01F2" unicode="&#x1f2;" horiz-adv-x="1147" 
d="M299 573l-118 -475q-9 -36 9 -50q24 -18 76 -18q122 0 205 91q48 54 75.5 125.5t27.5 141.5q0 113 -49.5 170t-155.5 57q-41 0 -54 -12q-12 -12 -16 -30zM-18 0l6 28q61 5 79 15.5t27 46.5l117 469q7 31 -9.5 41.5t-80.5 16.5l8 28h248q114 0 187 -49q100 -67 100 -217
q0 -89 -40.5 -170.5t-113.5 -134.5q-100 -74 -252 -74h-276zM755 284l-22 16q16 33 58.5 94.5t56.5 61.5q7 0 24 -7q90 -37 167 -37q17 0 35 14l46 46q4 -1 9 -8.5t7 -13.5q-13 -20 -38 -46q-31 -33 -129.5 -136.5t-145.5 -155.5q33 -15 91 -46q48 -27 73 -27
q20 0 43.5 23.5t23.5 39.5q0 13 -8 32.5t-8 25.5q0 13 15.5 25.5t34.5 12.5q23 0 23 -44q0 -48 -57 -109q-29 -31 -62.5 -53t-50.5 -22t-113 61q-35 20 -48 20q-9 0 -30 -21q-29 -31 -37 -42q-5 2 -11 10t-6 14q0 10 58 73q37 41 253 270q-32 -4 -118 10q-12 2 -24.5 4
t-19.5 3.5t-8 1.5q-24 0 -82 -90z" />
    <glyph glyph-name="uni01F3" unicode="&#x1f3;" horiz-adv-x="979" 
d="M150 43q31 0 78.5 43.5t96.5 129.5q55 97 55 155q0 53 -47 53q-49 0 -100 -60.5t-82 -138t-31 -132.5q0 -50 30 -50zM479 143l19 -21q-40 -71 -83.5 -102.5t-78.5 -31.5q-34 0 -34 43q0 20 37 153q-53 -92 -115.5 -144t-119.5 -52q-32 0 -49 26t-17 66q0 80 43.5 170
t110.5 148q68 58 136 58q46 0 74 -28q33 119 48 188q7 29 -14 36q-30 8 -61 11l7 25q96 3 171 27l4 -3q-16 -35 -85.5 -292.5t-89.5 -339.5q-7 -29 6 -29q29 0 91 92zM588 284l-22 16q16 33 58.5 94.5t56.5 61.5q7 0 24 -7q90 -37 167 -37q18 0 35 14l46 46q4 -1 9 -8.5
t7 -13.5q-13 -20 -38 -46q-31 -33 -129.5 -136.5t-145.5 -155.5q33 -15 91 -46q48 -27 73 -27q20 0 43.5 23.5t23.5 39.5q0 13 -8 32.5t-8 25.5q0 13 15.5 25.5t34.5 12.5q23 0 23 -44q0 -48 -57 -109q-29 -31 -62.5 -53t-50.5 -22t-113 61q-35 20 -48 20q-9 0 -30 -21
q-29 -31 -37 -42q-5 2 -11 10t-6 14q0 10 58 73q37 41 253 270q-32 -4 -118 10q-12 2 -24.5 4t-19.5 3.5t-8 1.5q-24 0 -82 -90z" />
    <glyph glyph-name="Aringacute" unicode="&#x1fa;" horiz-adv-x="642" 
d="M475 782q39 0 60 -18t19 -45q-2 -25 -27.5 -42.5t-64.5 -17.5q-38 0 -59.5 17.5t-19.5 42.5q2 26 28 44.5t64 18.5zM471 754q-49 0 -52 -35q-1 -15 12 -24.5t34 -9.5q49 0 53 36q1 15 -12 24t-35 9zM484 799h-27q8 13 18.5 33.5t21 41.5t13.5 26q10 2 50 3t53 -1l-1 -17
q-4 -3 -55 -36t-73 -50zM-56 0l7 28q47 6 69 17.5t45 43.5q16 23 345 519q8 14 11 37h71q8 -171 34 -557q2 -27 9.5 -36.5t30.5 -15.5q14 -3 49 -8l-5 -28h-258l6 28q60 8 73 16t11 42q-4 98 -9 170q-115 3 -213 -7q-71 -103 -102 -165q-10 -19 -7.5 -28t20.5 -15
q16 -7 68 -13l-7 -28h-248zM431 292q-14 240 -16 267q-22 -35 -84 -132.5t-88 -140.5q64 6 188 6z" />
    <glyph glyph-name="aringacute" unicode="&#x1fb;" horiz-adv-x="509" 
d="M358 606q38 0 59.5 -18.5t18.5 -44.5q-2 -25 -28 -43t-63 -18q-39 0 -60.5 18t-19.5 43q2 26 28 44.5t65 18.5zM354 579q-21 0 -35.5 -10t-15.5 -26q-1 -17 11.5 -26.5t32.5 -9.5q47 0 51 38q1 14 -12 24t-32 10zM367 622h-29q6 11 18.5 35t21.5 41.5t14 25.5
q11 3 45.5 4t47.5 -1l-1 -17q-27 -18 -117 -88zM467 143l20 -21q-35 -62 -83 -98t-81 -36q-17 0 -26.5 10t-9.5 27q0 24 45 174q-57 -104 -130 -164q-54 -46 -102 -46q-61 0 -61 89q0 75 39 163.5t96 145.5q71 69 137 69q58 0 82 -50l15 50h71q-71 -231 -108 -374
q-8 -30 5 -30q11 0 37.5 25t53.5 66zM366 361q0 61 -51 61q-55 0 -112 -86q-36 -54 -60 -123.5t-24 -119.5q0 -46 28 -46q39 0 100.5 74t95.5 154q23 51 23 86z" />
    <glyph glyph-name="AEacute" unicode="&#x1fc;" horiz-adv-x="950" 
d="M317 334h166l67 272q-125 -143 -233 -272zM-74 0l7 28q41 4 71.5 20.5t63.5 53.5q84 93 397 461q15 19 16 28t-20 16q-41 8 -80 10l8 28h441q88 0 124 6q-34 -89 -51 -181h-28q3 47 -1 86q-4 32 -19.5 44.5t-53.5 12.5h-129q-21 0 -29.5 -5.5t-12.5 -21.5l-62 -252h91
q45 0 68.5 24.5t48.5 83.5h29q-45 -143 -66 -259h-29q1 36 1 62t-14 40.5t-45 14.5h-91l-53 -211q-14 -56 43 -56h128q35 0 58 7.5t49 27.5q45 36 103 118l25 -14q-50 -91 -85 -174q-56 2 -146 2h-378l6 28q60 5 80.5 15.5t27.5 40.5l53 216h-184q-12 -15 -50 -60.5
t-64.5 -78t-44.5 -58.5q-11 -15 -16.5 -26t-3 -18.5t6 -12.5t17 -8.5t22.5 -5t30 -4.5l-6 -28h-253zM594 714l124 131q13 2 52.5 -6t53.5 -15v-15l-213 -116z" />
    <glyph glyph-name="aeacute" unicode="&#x1fd;" horiz-adv-x="677" 
d="M602 137l19 -17q-77 -132 -189 -132q-32 0 -55 13t-34 34.5t-16 43.5t-5 46q0 10 2 30q-52 -82 -111 -124.5t-105 -42.5q-35 0 -52.5 24t-17.5 61q0 75 53.5 164.5t144.5 149.5q88 57 193 57q42 0 69 -9q46 21 82 21q41 0 66.5 -19.5t25.5 -56.5q0 -61 -73.5 -105
t-185.5 -60q-9 -43 -9 -83q0 -88 67 -88q32 0 62 20.5t69 72.5zM452 402q-23 10 -47 10q-68 0 -129 -45q-65 -47 -110 -131t-45 -148q0 -47 31 -47q35 0 91.5 57t112.5 169q42 87 96 135zM420 244q56 13 95.5 32.5t56.5 41t23.5 37t6.5 28.5q0 40 -42 40q-41 0 -79.5 -51
t-60.5 -128zM413 513l-25 16l104 164q12 1 45.5 -5t45.5 -11v-10z" />
    <glyph glyph-name="Oslashacute" unicode="&#x1fe;" horiz-adv-x="677" 
d="M619 801l-213 -116l-17 21l124 131q13 2 52.5 -6t53.5 -15v-15zM647 667l-51 -70q59 -65 59 -172q0 -105 -41.5 -199.5t-113.5 -158.5q-93 -83 -200 -83q-75 0 -128 34l-53 -72l-27 21l53 72q-68 65 -68 182q0 100 47.5 206t128.5 170q82 64 181 64q83 0 138 -43l51 69z
M186 94l351 477q-31 55 -108 55q-61 0 -112.5 -43t-83 -108.5t-48.5 -135.5t-17 -131q0 -72 18 -114zM551 536l-347 -474q33 -43 102 -43q58 0 109 43t82 107.5t49 133t18 124.5q0 67 -13 109z" />
    <glyph glyph-name="oslashacute" unicode="&#x1ff;" horiz-adv-x="480" 
d="M277 529l104 164q12 1 45.5 -5t45.5 -11v-10l-170 -154zM442 463l-33 -45q34 -41 34 -108q0 -76 -38 -152.5t-102 -124.5q-63 -45 -130 -45q-40 0 -68 17l-36 -48l-24 20l36 48q-35 38 -35 103q0 77 40.5 160.5t108.5 129.5q55 38 121 38q42 0 70 -19l33 45zM125 85
l230 311q-15 29 -51 29q-44 0 -86.5 -50.5t-68 -125t-25.5 -144.5q0 -14 1 -20zM365 359l-229 -312q15 -28 52 -28q47 0 89.5 58t65.5 132t23 133q0 12 -1 17z" />
    <glyph glyph-name="uni0218" unicode="&#x218;" horiz-adv-x="522" 
d="M508 648h24q-42 -100 -61 -188h-28q3 56 -3 85t-24 49q-29 34 -89 34q-50 0 -84 -35.5t-34 -88.5q0 -41 23.5 -71t95.5 -79q70 -48 99.5 -87.5t29.5 -92.5q0 -89 -71 -144q-58 -46 -140 -46q-93 0 -161 61q-23 -13 -36 -23l-22 7q25 69 52 192l26 -3q-4 -58 11.5 -102.5
t43.5 -68.5q35 -29 89 -29q53 0 89 34t36 88q0 41 -22.5 74t-96.5 83q-67 45 -94 87t-27 93q0 48 23 90t66 67q46 26 109 26q71 0 136 -37q18 7 40 25zM128 -283l-7 27q100 38 100 83q0 16 -10 23.5t-38 11.5q-24 5 -24 30q0 18 15 32t43 14t50 -21t22 -60
q0 -54 -44.5 -89.5t-106.5 -50.5z" />
    <glyph glyph-name="uni0219" unicode="&#x219;" horiz-adv-x="330" 
d="M4 52q0 20 13 35.5t26 15.5q12 0 27 -21q29 -37 50 -44q11 -4 22 -4q25 0 49.5 22t24.5 51q0 17 -14 34.5t-59 55.5q-38 31 -50.5 53.5t-12.5 48.5q0 32 21.5 65t55.5 57q50 35 93 35q30 0 50 -13.5t20 -36.5q0 -16 -14 -31.5t-27 -15.5q-11 0 -28 20q-17 22 -30 28
q-7 2 -15 2q-24 0 -45 -21q-23 -23 -23 -51q3 -38 60 -83q51 -40 68 -62.5t17 -45.5q0 -30 -27 -67t-68 -63q-51 -32 -95 -32q-40 0 -64.5 23t-24.5 45zM9 -281l-8 27q100 38 100 83q0 15 -9.5 23t-37.5 12q-24 5 -24 30q0 18 15 32t43 14t50 -21t22 -60q0 -54 -44.5 -89.5
t-106.5 -50.5z" />
    <glyph glyph-name="uni021A" unicode="&#x21a;" horiz-adv-x="645" 
d="M119 0l7 28q65 5 85 15.5t30 46.5l132 523h-96q-36 0 -67 -27q-34 -30 -80 -117l-27 7q44 114 59 180q40 -11 112 -11h316q75 0 112 8q-35 -93 -52 -183h-29q4 75 -5 108q-11 35 -54 35h-106l-130 -525q-8 -33 9 -43.5t87 -16.5l-7 -28h-296zM162 -270l-8 27
q100 38 100 83q0 15 -9.5 23t-37.5 12q-24 5 -24 30q0 18 15 32t43 14t50 -21t22 -60q0 -54 -44.5 -89.5t-106.5 -50.5z" />
    <glyph glyph-name="uni021B" unicode="&#x21b;" horiz-adv-x="296" 
d="M328 444l-12 -34h-104q-70 -248 -86 -319q-7 -41 8 -41q43 0 110 98l19 -20q-37 -69 -88 -104.5t-91 -35.5q-38 0 -38 46q0 34 17 99q14 55 41 151.5t35 125.5h-78l12 34h76l42 149q16 -2 34 -2q29 0 42 4q-10 -28 -44 -151h105zM-6 -275l-7 27q100 38 100 82
q0 16 -10 24t-38 12q-24 4 -24 29q0 18 15 32t43 14t50 -21t22 -59q0 -54 -44.5 -89.5t-106.5 -50.5z" />
    <glyph glyph-name="uni021C" unicode="&#x21c;" horiz-adv-x="593" 
d="M599 645l-6 -26q-52 -50 -147.5 -133.5t-145.5 -124.5q106 0 167.5 -48t61.5 -132q0 -110 -92 -187.5t-231 -77.5q-80 0 -140.5 35t-60.5 73q0 23 18 39.5t44 16.5q25 0 40 -63q4 -17 9 -26.5t7.5 -12t12.5 -9.5q24 -17 78 -17q101 0 159.5 63.5t58.5 150.5
q0 146 -149 146q-47 0 -104 -25l9 34q109 68 313 259h-240q-31 0 -58.5 -22t-67.5 -79l-23 14q50 88 74 160q21 -8 122 -8h291z" />
    <glyph glyph-name="uni021D" unicode="&#x21d;" horiz-adv-x="425" 
d="M54 284l-22 16q16 35 57.5 95.5t55.5 60.5q8 0 22 -6q89 -37 164 -37q18 0 36 15q6 5 14 12.5t17 17.5t13 14q4 -1 9.5 -8.5t6.5 -13.5q-3 -5 -37 -48q-41 -53 -106 -126t-97 -100q73 -4 117.5 -46.5t44.5 -111.5q0 -109 -85 -187t-190 -78q-61 0 -94.5 19t-33.5 43
q0 18 16 35t34 17q10 0 18.5 -10.5t25.5 -38.5q18 -33 48 -33q72 0 124.5 63t52.5 144q0 59 -27 91t-79 32q-43 0 -88 -21l7 30q100 72 231 232l-1 1q-30 -4 -115 8q-12 2 -25.5 4.5t-21.5 4t-9 1.5q-23 0 -83 -91z" />
    <glyph glyph-name="uni0232" unicode="&#x232;" horiz-adv-x="615" 
d="M113 0l7 28q60 5 78 16t28 47l39 155q6 28 4 40q-8 43 -78 275q-11 34 -27 42.5t-65 13.5l6 28h249l-5 -28q-47 -5 -64 -10q-15 -7 -12 -24q19 -78 74 -266q158 204 190 253q20 33 -6 38q-26 6 -55 9l7 28h227l-6 -28q-51 -4 -78 -18t-60 -57q-180 -224 -201 -257
q-10 -13 -16 -38l-39 -159q-8 -33 8.5 -43.5t81.5 -16.5l-8 -28h-279zM294 774h276l-14 -53h-275z" />
    <glyph glyph-name="uni0233" unicode="&#x233;" horiz-adv-x="441" 
d="M50 297l-23 18q37 71 75.5 106t69.5 35q39 0 48 -95q17 -168 12 -321q72 113 101 193.5t29 121.5q0 14 -4 37t-4 27q0 8 19.5 22.5t39.5 14.5q17 0 17 -38q0 -26 -9 -62q-20 -95 -99.5 -231t-156.5 -225q-52 -61 -101 -99.5t-79 -38.5q-25 0 -40 14t-15 37q0 22 19 44
t35 22q12 0 26 -17q22 -25 33 -25q26 0 69 54q34 43 44 81t10 122q0 132 -18 244q-6 47 -22 47q-24 0 -76 -88zM174 627h239l-13 -50h-239z" />
    <glyph glyph-name="uni0237" unicode="&#x237;" horiz-adv-x="262" 
d="M51 308l-16 21q43 60 94.5 93.5t83.5 33.5q30 0 14 -74q-53 -220 -99 -365q-33 -110 -98 -184q-29 -34 -68.5 -57t-70.5 -23q-26 0 -45.5 13.5t-19.5 34.5q0 19 16 35.5t32 16.5q13 0 37 -22q22 -22 37 -22q12 0 24.5 9.5t30.5 42t33 84.5q17 57 110 411q7 28 -6 28
q-25 0 -89 -76z" />
    <glyph glyph-name="uni0251" unicode="&#x251;" horiz-adv-x="509" 
d="M467 143l20 -21q-35 -62 -83 -98t-81 -36q-17 0 -26.5 10t-9.5 27q0 24 45 174q-57 -104 -130 -164q-54 -46 -102 -46q-61 0 -61 89q0 75 39 163.5t96 145.5q71 69 137 69q58 0 82 -50l15 50h71q-71 -231 -108 -374q-8 -30 5 -30q11 0 37.5 25t53.5 66zM366 361
q0 61 -51 61q-55 0 -112 -86q-36 -54 -60 -123.5t-24 -119.5q0 -46 28 -46q39 0 100.5 74t95.5 154q23 51 23 86z" />
    <glyph glyph-name="uni0259" unicode="&#x259;" horiz-adv-x="405" 
d="M276 231q-59 -9 -100.5 -30t-60.5 -46.5t-27 -45.5t-8 -39q-2 -21 10 -36.5t34 -15.5q47 0 87.5 58.5t64.5 154.5zM74 321l-15 20q80 115 188 115q61 0 89.5 -41t28.5 -96q0 -78 -30 -152.5t-91 -126.5t-138 -52q-45 0 -71.5 23t-26.5 63q0 70 81 121.5t192 64.5
q6 24 6 56q0 42 -19 64.5t-52 22.5q-71 0 -142 -82z" />
    <glyph glyph-name="uni0261" unicode="&#x261;" horiz-adv-x="525" 
d="M433 456h81q-28 -52 -116 -378q-90 -325 -303 -325q-59 0 -97.5 25.5t-38.5 56.5q0 25 18 41t41 16q14 0 23.5 -16.5t22.5 -52.5q7 -22 20 -29t34 -7q58 0 102.5 60t88.5 204l32 108q-52 -84 -111.5 -127.5t-113.5 -43.5q-77 0 -77 94q0 80 42 167t112.5 147t144.5 60
q52 0 76 -44q5 16 19 44zM391 346q7 30 -5 51.5t-45 21.5q-47 0 -100 -58.5t-86 -136t-33 -134.5q0 -31 7.5 -44t27.5 -13q35 0 91.5 55.5t96.5 131.5q37 74 46 126z" />
    <glyph glyph-name="uni0275" unicode="&#x275;" horiz-adv-x="480" 
d="M187 17q49 0 92.5 60.5t64.5 140.5q-88 -8 -207 -10q-15 -60 -15 -102q0 -89 65 -89zM305 425q-45 0 -87 -46.5t-71 -133.5q159 0 206 6q11 47 11 90q-1 42 -14.5 63t-44.5 21zM312 456q36 0 62.5 -13.5t40 -36t20 -46.5t6.5 -50q0 -74 -37.5 -152.5t-100.5 -125.5
q-60 -44 -130 -44q-62 0 -94.5 39.5t-32.5 100.5q0 77 39.5 160t107.5 129q57 39 119 39z" />
    <glyph glyph-name="uni02BB" unicode="&#x2bb;" horiz-adv-x="308" 
d="M305 713l6 -27q-57 -17 -87.5 -42.5t-30.5 -50.5q0 -15 20 -20q28 -6 32 -9q15 -6 15 -29q0 -22 -15 -37.5t-41 -15.5q-28 0 -45.5 21t-17.5 56q0 59 48 99.5t116 54.5z" />
    <glyph glyph-name="uni02BC" unicode="&#x2bc;" horiz-adv-x="308" 
d="M129 482l-6 27q58 18 88.5 43t30.5 50q0 15 -21 20q-28 6 -32 9q-15 6 -15 29q0 22 15 37.5t41 15.5q28 0 45.5 -21t17.5 -56q0 -60 -48 -100t-116 -54z" />
    <glyph glyph-name="uni02BE" unicode="&#x2be;" 
d="M311 527l-9 -38q-41 9 -60.5 42.5t-10.5 70.5q10 38 42 60t73 12l-10 -36q-22 3 -41.5 -8.5t-24.5 -35.5q-11 -46 41 -67z" />
    <glyph glyph-name="uni02BF" unicode="&#x2bf;" horiz-adv-x="400" 
d="M268 657l11 38q41 -10 59.5 -43t8.5 -70q-8 -38 -39.5 -60t-71.5 -13l9 37q22 -3 40.5 8t24.5 36q10 49 -42 67z" />
    <glyph glyph-name="circumflex" unicode="&#x2c6;" 
d="M390 527l-25 -11l-70 100q-33 -30 -132 -103l-20 19q81 81 157 171h26q35 -101 64 -176z" />
    <glyph glyph-name="caron" unicode="&#x2c7;" 
d="M194 695l25 12l71 -100q31 28 135 103l17 -20q-89 -87 -157 -170h-26q-52 144 -65 175z" />
    <glyph glyph-name="uni02C8" unicode="&#x2c8;" 
d="M292 700h57l-39 -177h-56z" />
    <glyph glyph-name="uni02C9" unicode="&#x2c9;" 
d="M170 627h239l-13 -50h-239z" />
    <glyph glyph-name="uni02CA" unicode="&#x2ca;" 
d="M281 513l-25 16l104 164q12 1 45.5 -5t45.5 -11v-10z" />
    <glyph glyph-name="uni02CB" unicode="&#x2cb;" 
d="M305 523l-27 -11l-116 162l2 11q13 4 47 8t39 2z" />
    <glyph glyph-name="uni02CC" unicode="&#x2cc;" 
d="M174 -80h56l-38 -177h-57z" />
    <glyph glyph-name="breve" unicode="&#x2d8;" 
d="M424 675l22 -9q-25 -60 -69 -92.5t-99 -32.5q-54 0 -85 33.5t-28 95.5l25 4q6 -32 31 -50.5t65 -18.5q91 0 138 70z" />
    <glyph glyph-name="dotaccent" unicode="&#x2d9;" 
d="M359 617q0 -23 -16 -41.5t-40 -18.5q-18 0 -28 12t-10 29q0 22 16 41.5t40 19.5q18 0 28 -12t10 -30z" />
    <glyph glyph-name="ring" unicode="&#x2da;" 
d="M298 687q38 0 59 -25t18 -61q-3 -35 -29 -60t-64 -25q-40 0 -60.5 25.5t-16.5 61.5t29.5 60t63.5 24zM296 655q-46 0 -53 -53q-3 -25 9 -39.5t32 -14.5q46 0 53 55q2 23 -9 37.5t-32 14.5z" />
    <glyph glyph-name="ogonek" unicode="&#x2db;" 
d="M254 27h27q-46 -35 -80 -81.5t-34 -76.5q0 -22 12 -34.5t32 -12.5q34 0 62 22l10 -16q-22 -32 -52.5 -49t-60.5 -17q-39 0 -60.5 19.5t-21.5 53.5q0 77 166 192z" />
    <glyph glyph-name="tilde" unicode="&#x2dc;" 
d="M414 665l25 -7q-5 -35 -30 -68.5t-67 -33.5q-27 0 -79 23q-41 18 -62 18q-20 0 -32 -10t-23 -35l-25 9q9 42 33.5 69.5t67.5 27.5q22 0 75 -21q43 -19 59 -19q22 0 34.5 9t23.5 38z" />
    <glyph glyph-name="hungarumlaut" unicode="&#x2dd;" 
d="M208 529l-23 14l90 152q6 1 80 -8l-1 -11zM367 529l-23 14l94 152q6 1 77 -8l-1 -11z" />
    <glyph glyph-name="gravecomb" unicode="&#x300;" horiz-adv-x="0" 
d="M107 523l-27 -11l-116 162l2 11q13 4 47 8t39 2z" />
    <glyph glyph-name="acutecomb" unicode="&#x301;" horiz-adv-x="0" 
d="M83 513l-25 16l104 164q12 1 45.5 -5t45.5 -11v-10z" />
    <glyph glyph-name="uni0302" unicode="&#x302;" horiz-adv-x="0" 
d="M192 527l-25 -11l-70 100q-33 -30 -132 -103l-20 19q81 81 157 171h26q35 -101 64 -176z" />
    <glyph glyph-name="tildecomb" unicode="&#x303;" horiz-adv-x="0" 
d="M216 665l25 -7q-5 -35 -30 -68.5t-67 -33.5q-27 0 -79 23q-41 18 -62 18q-20 0 -32 -10t-23 -35l-25 9q9 42 33.5 69.5t67.5 27.5q22 0 75 -21q43 -19 59 -19q22 0 34.5 9t23.5 38z" />
    <glyph glyph-name="uni0304" unicode="&#x304;" horiz-adv-x="0" 
d="M-28 627h239l-13 -50h-239z" />
    <glyph glyph-name="uni0306" unicode="&#x306;" horiz-adv-x="0" 
d="M226 675l22 -9q-25 -60 -69 -92.5t-99 -32.5q-54 0 -85 33.5t-28 95.5l25 4q6 -32 31 -50.5t65 -18.5q91 0 138 70z" />
    <glyph glyph-name="uni0307" unicode="&#x307;" horiz-adv-x="0" 
d="M161 617q0 -23 -16 -41.5t-40 -18.5q-18 0 -28 12t-10 29q0 22 16 41.5t40 19.5q18 0 28 -12t10 -30z" />
    <glyph glyph-name="uni0308" unicode="&#x308;" horiz-adv-x="0" 
d="M234 611q0 -18 -12.5 -35t-32.5 -17q-42 0 -42 44q0 23 14.5 38t32.5 15q20 0 30.5 -14.5t9.5 -30.5zM57 611q0 -18 -12.5 -35t-33.5 -17q-42 0 -42 44q1 23 15.5 38t31.5 15q21 0 31.5 -14t9.5 -31z" />
    <glyph glyph-name="hookabovecomb" unicode="&#x309;" horiz-adv-x="0" 
d="M50 503l-13 26q88 46 88 89q0 15 -10 25t-29 10q-25 0 -63 -21l-12 19q52 55 111 55q31 0 52 -21t21 -49q0 -83 -145 -133z" />
    <glyph glyph-name="uni030A" unicode="&#x30a;" horiz-adv-x="0" 
d="M100 687q38 0 59 -25t18 -61q-3 -35 -29 -60t-64 -25q-40 0 -60.5 25.5t-16.5 61.5t29.5 60t63.5 24zM98 655q-46 0 -53 -53q-3 -25 9 -39.5t32 -14.5q46 0 53 55q2 23 -9 37.5t-32 14.5z" />
    <glyph glyph-name="uni030B" unicode="&#x30b;" horiz-adv-x="0" 
d="M10 529l-23 14l90 152q6 1 80 -8l-1 -11zM169 529l-23 14l94 152q6 1 77 -8l-1 -11z" />
    <glyph glyph-name="uni030C" unicode="&#x30c;" horiz-adv-x="0" 
d="M-4 695l25 12l71 -100q31 28 135 103l17 -20q-89 -87 -157 -170h-26q-52 144 -65 175z" />
    <glyph glyph-name="uni031B" unicode="&#x31b;" horiz-adv-x="0" 
d="M-13 400l-12 31q26 4 46.5 15.5t20.5 25.5q0 12 -17 33q-12 15 -12 23q0 16 21.5 34.5t38.5 18.5q12 0 22.5 -15.5t10.5 -41.5q0 -42 -32.5 -76.5t-86.5 -47.5z" />
    <glyph glyph-name="dotbelowcomb" unicode="&#x323;" horiz-adv-x="0" 
d="M-113 -192q-20 0 -34.5 16t-10.5 43q4 25 20.5 41t40.5 16q23 0 36 -18t9 -42q-5 -27 -23 -41.5t-38 -14.5z" />
    <glyph glyph-name="uni0324" unicode="&#x324;" horiz-adv-x="0" 
d="M23 -137q0 -18 -13 -35t-33 -17q-42 0 -42 44q0 23 15 38t32 15q21 0 31.5 -14.5t9.5 -30.5zM-155 -137q0 -18 -12 -35t-33 -17q-42 0 -42 44q1 23 15.5 38t30.5 15q22 0 32 -14t9 -31z" />
    </font>
</defs>
</svg>
