<?xml version="1.0" standalone="no"?>
<!DOCTYPE svg PUBLIC "-//W3C//DTD SVG 1.1//EN" "http://www.w3.org/Graphics/SVG/1.1/DTD/svg11.dtd" >
<svg>
<metadata>
Created by FontForge 20110222 at Mon Apr 21 01:17:38 2014
 By Orthosie Webhosting
(c) 2010 Adobe Systems Incorporated. All Rights Reserved.
</metadata>
<defs>
<font id="AdobeTextProRegular" horiz-adv-x="397" >
  <font-face 
    font-family="AdobeTextProRegular"
    font-weight="400"
    font-stretch="normal"
    units-per-em="1000"
    panose-1="2 5 6 3 5 5 5 2 2 4"
    ascent="716"
    descent="-284"
    x-height="444"
    cap-height="645"
    bbox="-203 -281 1381 958"
    underline-thickness="50"
    underline-position="-50"
    unicode-range="U+0020-FB06"
  />
<missing-glyph horiz-adv-x="500" 
d="M0 0v700h500v-700h-500zM250 395l170 255h-340zM280 350l170 -255v510zM80 50h340l-170 255zM50 605v-510l170 255z" />
    <glyph glyph-name="f_f" unicode="ff" horiz-adv-x="566" 
d="M252 0h-229v30q46 3 57.5 9.5t11.5 30.5v327h-62v24q51 17 62 27q0 61 26 121t75 96q42 33 96 33q32 0 47 -11.5t15 -25.5q0 -23 -16.5 -39t-29.5 -16q-11 0 -40 25q-21 18 -36 18q-23 0 -39.5 -33.5t-15.5 -102.5l1 -69h198q2 70 30 134.5t76 100.5q46 36 99 36
q68 0 68 -43q0 -18 -15.5 -35.5t-32.5 -17.5q-15 0 -35 17q-14 12 -27 22q-7 5 -19 5q-25 0 -43.5 -37.5t-18.5 -107.5v-74h114q4 -25 -7 -47h-106v-324q0 -27 14.5 -33.5t74.5 -9.5v-30h-241v30q42 2 55.5 9t13.5 31v327h-198v-324q0 -26 12.5 -33.5t64.5 -9.5v-30z" />
    <glyph glyph-name="f_f_i" unicode="ffi" horiz-adv-x="807" 
d="M174 444h189q2 94 29 151q-13 9 -29 35q-14 27 -34 35q-10 5 -33 5q-54 0 -88 -43.5t-34 -137.5v-45zM251 0h-228v30q46 3 57.5 9.5t11.5 30.5v327h-62v24q51 17 62 27q0 68 25 124.5t71 90.5q54 39 126 39q89 0 130 -41q54 54 137 54q68 0 103 -25t35 -59
q0 -26 -15 -39.5t-33 -13.5q-21 0 -32.5 11.5t-12.5 27.5q-1 33 -4.5 43t-12.5 16q-13 9 -44 9q-119 0 -119 -205v-36h163q84 0 112 6q-3 -52 -3 -98v-282q0 -30 20 -34q11 -2 42 -6v-30h-214v30q38 3 51 6q19 4 19 33v297q0 18 -8 25t-25 7h-158v-325q0 -26 13 -33t60 -10
v-30h-223v30q41 2 54.5 9t13.5 31v328h-189v-325q0 -26 13 -33.5t64 -9.5v-30z" />
    <glyph glyph-name="f_f_l" unicode="ffl" horiz-adv-x="806" 
d="M174 444h189q2 91 29 152q-11 31 -38.5 51t-65.5 20q-54 0 -84 -45.5t-30 -131.5v-46zM251 0h-228v30q46 3 57.5 9.5t11.5 30.5v327h-62v24q51 17 62 27q0 70 25.5 125t69.5 87q58 42 125 42q83 0 130 -45q59 58 134 58q54 0 86 -21q21 5 48 22h11q-3 -42 -3 -126v-516
q0 -25 11 -33.5t53 -11.5v-29h-208v30q42 3 52 11.5t10 34.5v501q0 34 -11 53q-28 46 -84 46q-52 0 -74 -50t-22 -122v-60h113q4 -23 -6 -46h-107v-325q0 -27 14 -33.5t73 -9.5v-30h-237v30q41 2 54.5 9t13.5 31v328h-189v-325q0 -26 13 -33.5t64 -9.5v-30z" />
    <glyph glyph-name="longs_t" unicode="&#x17f;t" horiz-adv-x="587" 
d="M263 0h-240v30q43 2 56 10t13 33v322h-62v24q43 14 62 29q-1 67 23.5 130.5t71.5 99.5q49 37 107 37q66 0 102 -35t36 -90v-146h135q5 -30 -7 -49h-131v-284q0 -33 17 -51t45 -18q41 0 74 25v-28q-44 -49 -108 -49q-44 0 -77 26.5t-33 91.5v287h-62v24q48 16 64 29
q5 53 5 136q0 48 -22 70q-23 25 -63 25q-48 0 -71.5 -47.5t-23.5 -154.5v-401q0 -26 14.5 -34t74.5 -12v-30z" />
    <glyph glyph-name="T_h" unicode="Th" horiz-adv-x="1098" 
d="M497 0h-301v30q36 2 66 7q38 7 38 54v519h-102q-32 0 -52 -16q-45 -35 -83 -122l-27 7q23 122 24 176q43 -10 116 -10h383q78 0 100 6.5t50 32.5h23v-291q63 63 140 63q60 0 96 -36q43 -44 43 -122v-229q0 -24 10 -30.5t51 -8.5v-30h-219v30q38 4 48 6q19 4 23.5 20
t4.5 82v166q0 48 -28 76q-24 23 -66 23q-55 0 -83 -27q-13 -13 -16.5 -24t-3.5 -40v-243q0 -15 3 -22t15 -10q5 -1 52 -7v-30h-214v30q25 3 42 6q20 4 20 30v476q0 27 -22 48q-19 20 -65 20h-170v-519q0 -46 40 -54q26 -5 64 -7v-30z" />
    <glyph glyph-name="Tcaron_h" unicode="&#x164;h" horiz-adv-x="1098" 
d="M497 0h-301v30q36 2 66 7q38 7 38 54v519h-102q-32 0 -52 -16q-45 -35 -83 -122l-27 7q23 122 24 176q43 -10 116 -10h383q78 0 100 6.5t50 32.5h23v-291q63 63 140 63q60 0 96 -36q43 -44 43 -122v-229q0 -24 10 -30.5t51 -8.5v-30h-219v30q38 4 48 6q19 4 23.5 20
t4.5 82v166q0 48 -28 76q-24 23 -66 23q-55 0 -83 -27q-13 -13 -16.5 -24t-3.5 -40v-243q0 -15 3 -22t15 -10q5 -1 52 -7v-30h-214v30q25 3 42 6q20 4 20 30v476q0 27 -22 48q-19 20 -65 20h-170v-519q0 -46 40 -54q26 -5 64 -7v-30zM182 813l14 26q23 -9 77 -32.5t71 -30.5
q112 49 148 63l12 -26q-64 -41 -149 -115h-26q-100 84 -147 115z" />
    <glyph glyph-name="uni021A_h" unicode="&#x21a;h" horiz-adv-x="1098" 
d="M497 0h-301v30q36 2 66 7q38 7 38 54v519h-102q-32 0 -52 -16q-45 -35 -83 -122l-27 7q23 122 24 176q43 -10 116 -10h383q78 0 100 6.5t50 32.5h23v-291q63 63 140 63q60 0 96 -36q43 -44 43 -122v-229q0 -24 10 -30.5t51 -8.5v-30h-219v30q38 4 48 6q19 4 23.5 20
t4.5 82v166q0 48 -28 76q-24 23 -66 23q-55 0 -83 -27q-13 -13 -16.5 -24t-3.5 -40v-243q0 -15 3 -22t15 -10q5 -1 52 -7v-30h-214v30q25 3 42 6q20 4 20 30v476q0 27 -22 48q-19 20 -65 20h-170v-519q0 -46 40 -54q26 -5 64 -7v-30zM292 -270l-8 28q74 27 74 64
q0 15 -10.5 23.5t-39.5 12.5q-33 7 -33 37q0 17 14 30.5t38 13.5q33 0 58.5 -23.5t25.5 -66.5q0 -49 -35.5 -79t-83.5 -40z" />
    <glyph glyph-name="f_b" unicode="fb" horiz-adv-x="809" 
d="M263 0h-240v30q43 2 56 10t13 33v322h-62v24q43 14 62 29q0 68 25.5 129.5t67.5 94.5q55 44 119 44q58 0 85 -20q18 3 47 20h14q-5 -125 -5 -132v-181q72 53 143 53q73 0 123 -53q56 -59 56 -163q0 -122 -82 -195q-63 -57 -151 -57q-57 0 -118 25q-19 -2 -45 -13l-11 8
q3 54 3 156v415q0 36 -8 49q-30 48 -85 48q-96 0 -96 -155v-77h113q4 -26 -7 -49h-106v-319q0 -26 14.5 -34t74.5 -12v-30zM445 323v-154q0 -72 14 -97q16 -26 41 -38t45 -12q50 0 80 33q49 56 49 167q0 83 -33 133q-36 51 -98 51q-44 0 -75 -22q-16 -12 -19.5 -20.5
t-3.5 -40.5z" />
    <glyph glyph-name="f_h" unicode="fh" horiz-adv-x="807" 
d="M251 0h-228v30q43 2 56 10t13 33v322h-62v24q43 14 62 29q0 68 25.5 129.5t67.5 94.5q55 44 119 44q59 0 86 -20q18 3 47 20h14q-5 -125 -5 -132v-192q64 64 137 64q58 0 94 -36q43 -43 43 -121v-230q0 -24 9.5 -30t51.5 -9v-30h-219v30q36 4 48 6q19 5 23.5 20.5
t4.5 81.5v166q0 47 -28 75q-25 24 -65 24q-50 0 -83 -31q-11 -11 -13.5 -21.5t-2.5 -42.5v-239q0 -22 11 -28t48 -10q7 -1 11 -1v-30h-214v30q39 4 50.5 10.5t11.5 27.5v511q0 36 -8 49q-30 48 -86 48q-96 0 -96 -155v-77h113q4 -26 -7 -49h-106v-319q0 -26 12.5 -34
t64.5 -12v-30z" />
    <glyph glyph-name="f_i" unicode="fi" horiz-adv-x="534" 
d="M246 0h-223v30q45 3 57 9.5t12 29.5v329h-62v24q47 16 62 29q1 73 27.5 132.5t71.5 93.5q53 38 120 38q71 0 103 -24.5t32 -59.5q0 -25 -15.5 -38.5t-32.5 -13.5q-39 0 -43 39q0 5 -1 13t-1 11.5t-1 9.5t-2 9t-2.5 6.5t-4 5.5t-5.5 4q-17 8 -43 8q-64 0 -92.5 -57.5
t-28.5 -142.5v-41h186q68 0 89 8q-4 -32 -4 -99v-283q0 -24 10.5 -30t51.5 -10v-30h-210v30q43 3 54.5 9t11.5 30v301q0 16 -4.5 22t-18.5 6h-166v-326q0 -25 13 -32t59 -10v-30z" />
    <glyph glyph-name="f_j" unicode="fj" horiz-adv-x="525" 
d="M258 0h-235v30q45 3 57 9.5t12 29.5v329h-62v24q48 16 62 29q1 74 27 133.5t71 92.5q53 38 117 38q71 0 105 -25t34 -59q0 -25 -15.5 -39t-32.5 -14q-39 0 -43 39q0 5 -1 13t-1 11.5t-1 9.5t-2 9t-2.5 6.5t-4 5.5t-5.5 4q-20 9 -46 9q-33 0 -57 -18t-36.5 -48.5
t-18.5 -63.5t-6 -70v-41h186q68 0 89 8q-4 -32 -4 -99v-293q0 -111 -21 -155q-25 -53 -65 -92.5t-67 -55.5l-19 22q57 52 73.5 95.5t16.5 107.5v388q0 16 -4.5 22t-18.5 6h-166v-326q0 -25 14.5 -32t69.5 -10v-30z" />
    <glyph glyph-name="f_k" unicode="fk" horiz-adv-x="777" 
d="M251 0h-228v30q43 2 56 10t13 33v322h-62v24q43 14 62 29q0 68 25.5 129.5t67.5 94.5q55 44 119 44q59 0 86 -20q18 3 47 20h14q-5 -125 -5 -131v-354q62 45 144 130q23 23 23 34q0 8 -17 12q-19 5 -49 7v30h210v-30q-18 -1 -37 -5q-31 -6 -66 -35q-58 -49 -109 -100
q-2 -2 0 -7q19 -27 76 -98t86 -103q17 -19 34.5 -26.5t52.5 -9.5v-30h-229v30q51 4 51 15q0 6 -12 23q-4 6 -25.5 34t-49 65t-40.5 54q-3 4 -10 2q-10 -6 -33 -24v-130q0 -21 11.5 -28t57.5 -11v-30h-213v30q41 3 51.5 10t10.5 31v508q0 36 -8 49q-30 48 -86 48
q-96 0 -96 -155v-77h113q4 -26 -7 -49h-106v-319q0 -26 12.5 -34t64.5 -12v-30z" />
    <glyph glyph-name="f_l" unicode="fl" horiz-adv-x="534" 
d="M251 0h-228v30q43 2 56 10t13 33v322h-62v24q43 14 62 29q0 68 25.5 129.5t67.5 94.5q55 44 119 44q59 0 86 -20q18 3 47 20h14q-5 -125 -5 -131v-510q0 -25 11 -34t53 -12v-29h-208v30q42 3 52 11.5t10 34.5v503q0 36 -8 49q-30 48 -86 48q-96 0 -96 -155v-77h113
q4 -26 -7 -49h-106v-319q0 -26 12.5 -34t64.5 -12v-30z" />
    <glyph glyph-name="f_t" unicode="ft" horiz-adv-x="603" 
d="M254 0h-231v30q45 3 57 10t12 31v327h-62v24q47 16 62 29q0 67 26.5 131.5t74.5 100.5q44 33 95 33q33 0 47 -11t14 -26q0 -23 -17 -40t-29 -17q-11 0 -43 28q-19 17 -32 17q-23 0 -38.5 -32.5t-15.5 -101.5v-89h190q16 43 61 112h40q-13 -50 -17 -112h134q6 -23 -6 -46
h-131v-287q0 -33 17 -51t45 -18q41 0 74 25v-28q-45 -49 -108 -49q-44 0 -77 26.5t-33 91.5v290h-189v-325q0 -25 12 -31.5t68 -11.5v-30z" />
    <glyph glyph-name="f_f_b" unicode="ffb" horiz-adv-x="1082" 
d="M174 444h189q2 91 29 152q-11 31 -38.5 51t-65.5 20q-54 0 -84 -45.5t-30 -131.5v-46zM251 0h-228v30q46 3 57.5 9.5t11.5 30.5v327h-62v24q51 17 62 27q0 70 25.5 125t69.5 87q58 42 125 42q83 0 130 -45q59 58 134 58q54 0 86 -21q21 5 48 22h11q-3 -42 -3 -135v-180
q75 55 143 55q73 0 123 -53q56 -59 56 -163q0 -119 -85 -195q-31 -28 -73.5 -42.5t-79.5 -14.5q-59 0 -118 25q-10 -1 -40 -16l-11 9q3 52 3 157v404q0 44 -11 63q-26 46 -84 46q-52 0 -74 -50t-22 -122v-60h113q4 -23 -6 -46h-107v-326q0 -26 14 -32.5t73 -9.5v-30h-237v30
q41 2 54.5 9t13.5 31v328h-189v-326q0 -25 13 -33t64 -9v-30zM718 320v-151q0 -75 13 -98q30 -49 82 -49q47 0 82 34q52 52 52 166q0 83 -33 133q-36 51 -98 51q-42 0 -75 -25q-16 -11 -19.5 -20t-3.5 -41z" />
    <glyph glyph-name="f_f_h" unicode="ffh" horiz-adv-x="1079" 
d="M174 444h189q2 91 29 152q-11 31 -38.5 51t-65.5 20q-54 0 -84 -45.5t-30 -131.5v-46zM251 0h-228v30q46 3 57.5 9.5t11.5 30.5v327h-62v24q51 17 62 27q0 70 25.5 125t69.5 87q58 42 125 42q83 0 130 -45q59 58 134 58q54 0 86 -21q21 5 48 22h11q-3 -42 -3 -125v-199
q64 64 137 64q58 0 94 -36q43 -44 43 -122v-229q0 -24 9.5 -30t51.5 -9v-30h-219v30q36 4 48 6q19 5 23.5 20.5t4.5 81.5v165q0 48 -28 76q-24 23 -65 23q-50 0 -83 -31q-11 -10 -13.5 -20.5t-2.5 -43.5v-238q0 -22 11 -28t48 -10q7 -1 11 -1v-30h-214v30q39 4 50.5 10.5
t11.5 27.5v509q0 34 -11 53q-28 46 -84 46q-52 0 -74 -50t-22 -122v-60h113q4 -23 -6 -46h-107v-325q0 -27 14 -33.5t73 -9.5v-30h-237v30q41 2 54.5 9t13.5 31v328h-189v-325q0 -26 13 -33.5t64 -9.5v-30z" />
    <glyph glyph-name="f_f_j" unicode="ffj" horiz-adv-x="798" 
d="M174 444h189q2 94 29 151q-14 8 -32 40q-14 21 -24 27q-15 8 -40 8q-54 0 -88 -43.5t-34 -137.5v-45zM251 0h-228v30q46 3 57.5 9.5t11.5 30.5v327h-62v24q51 17 62 27q0 68 25 124.5t71 90.5q54 39 126 39q95 0 130 -41q53 54 137 54q68 0 103 -25t35 -59
q0 -26 -15 -39.5t-33 -13.5q-21 0 -32.5 11.5t-12.5 27.5q-1 33 -4.5 43t-12.5 16q-13 9 -44 9q-119 0 -119 -205v-36h163q84 0 112 6q-3 -50 -3 -98v-291q0 -112 -21 -156q-25 -53 -64.5 -92t-66.5 -56l-20 22q57 52 73.5 95.5t16.5 107.5v384q0 18 -8 25t-25 7h-158v-325
q0 -26 13 -33t60 -10v-30h-223v30q41 2 54.5 9t13.5 31v328h-189v-325q0 -26 13 -33.5t64 -9.5v-30z" />
    <glyph glyph-name="f_f_k" unicode="ffk" horiz-adv-x="1049" 
d="M174 444h189q2 91 29 152q-11 31 -38.5 51t-65.5 20q-54 0 -84 -45.5t-30 -131.5v-46zM532 0h-237v30q41 2 54.5 9t13.5 31v328h-189v-325q0 -26 13 -33.5t64 -9.5v-30h-228v30q46 3 57.5 9.5t11.5 30.5v327h-62v24q51 17 62 27q0 70 25.5 125t69.5 87q58 42 125 42
q83 0 130 -45q59 58 134 58q54 0 86 -21q21 5 48 22h11q-3 -42 -3 -126v-359q60 43 144 129q23 24 23 35q0 8 -17 12q-19 5 -49 7v30h210v-30q-18 -1 -37 -5q-29 -6 -66 -36q-56 -46 -109 -99q-3 -4 0 -7q19 -27 76 -98t86 -103q17 -19 34.5 -26.5t52.5 -9.5v-30h-229v30
q51 4 51 15q0 6 -12 23q-8 12 -115 152q-3 5 -10 2q-21 -12 -33 -24v-129q0 -21 11.5 -28t57.5 -11v-30h-213v30q41 3 51.5 10t10.5 31v506q0 34 -11 53q-28 46 -84 46q-52 0 -74 -50t-22 -122v-60h113q4 -23 -6 -46h-107v-325q0 -27 14 -33.5t73 -9.5v-30z" />
    <glyph glyph-name="f_f_t" unicode="fft" horiz-adv-x="875" 
d="M252 0h-229v30q46 3 57.5 9.5t11.5 30.5v327h-62v24q51 17 62 27q0 63 23 122.5t71 94.5q42 33 94 33q58 0 58 -36q0 -24 -16.5 -40.5t-28.5 -16.5q-11 0 -41 26q-19 18 -32 18q-47 0 -46 -134l1 -71h188q2 72 28 135.5t73 99.5q46 36 99 36q68 0 68 -43
q0 -18 -15.5 -35.5t-32.5 -17.5q-15 0 -35 17q-14 12 -27 22q-7 5 -19 5q-24 0 -40.5 -37t-16.5 -108v-74h191q16 43 61 112h40q-13 -50 -17 -112h134q6 -23 -6 -46h-131v-287q0 -33 17 -51t45 -18q41 0 74 25v-28q-45 -49 -108 -49q-44 0 -77 26.5t-33 91.5v290h-189v-325
q0 -27 14.5 -33.5t74.5 -9.5v-30h-241v30q42 2 55.5 9t13.5 31v328h-188v-325q0 -26 12.5 -33.5t64.5 -9.5v-30z" />
    <glyph glyph-name="longs_b" unicode="&#x17f;b" horiz-adv-x="802" 
d="M264 0h-241v30q43 2 56 10t13 33v322h-62v24q43 14 62 29q0 149 92 223q57 44 121 44q53 0 79 -17q25 5 46 18h14q-5 -130 -5 -132v-183q74 55 141 55q70 0 124 -54q56 -61 56 -162q0 -119 -85 -195q-63 -57 -151 -57q-61 0 -120 25q-9 -1 -39 -16l-12 9q4 47 4 158v417
q0 34 -8 50q-22 43 -79 43q-96 0 -96 -156v-442q0 -26 14.5 -34t75.5 -12v-30zM439 320v-154q0 -74 14 -96q28 -48 82 -48q45 0 80 34q52 51 52 166q0 83 -35 133q-34 51 -98 51q-44 0 -74 -24q-15 -10 -18 -19.5t-3 -42.5z" />
    <glyph glyph-name="longs_h" unicode="&#x17f;h" horiz-adv-x="800" 
d="M261 0h-238v30q43 2 56 10t13 33v322h-62v24q43 14 62 29q0 150 92 224q57 44 120 44q55 0 80 -18q25 5 46 18h14q-5 -130 -5 -132v-192q64 64 136 64q58 0 94 -36q43 -43 43 -121v-230q0 -24 10 -30.5t51 -8.5v-30h-219v30q37 4 48 6q19 4 23.5 20t4.5 82v166
q0 47 -28 75q-25 24 -64 24q-51 0 -83 -31q-11 -11 -13.5 -21.5t-2.5 -43.5v-238q0 -26 19 -32q7 -2 50 -7v-30h-213v30q39 3 50.5 10t11.5 27v515q0 34 -8 50q-22 42 -77 42q-98 0 -98 -153v-445q0 -26 14 -34t73 -12v-30z" />
    <glyph glyph-name="longs_i" unicode="&#x17f;i" horiz-adv-x="532" 
d="M245 0h-222v30q46 3 57.5 9.5t11.5 29.5v329h-62v24q47 16 62 29q1 74 26.5 133.5t70.5 92.5q55 38 119 38q71 0 104.5 -24.5t33.5 -59.5q0 -25 -15.5 -39t-32.5 -14q-39 0 -43 39q-1 6 -1.5 17.5t-1 15.5t-2.5 11t-4.5 10.5t-7.5 5.5q-17 8 -46 8q-43 0 -71 -32.5
t-37.5 -75t-9.5 -93.5v-418q0 -16 13 -25t25 -11t33 -3v-27zM505 0h-212v30q48 4 58.5 9.5t10.5 29.5v239q0 38 -2 48t-11 16q-9 7 -45 18v24q65 8 136 43l7 -6q-3 -48 -3 -93v-288q0 -23 10 -29.5t51 -10.5v-30z" />
    <glyph glyph-name="longs_k" unicode="&#x17f;k" horiz-adv-x="761" 
d="M261 0h-238v30q43 2 56 10t13 33v322h-62v24q43 14 62 29q0 150 92 224q57 44 120 44q55 0 80 -18q25 5 46 18h14q-5 -130 -5 -132v-353q60 43 144 129q23 24 23 35q0 8 -17 12q-19 5 -49 7v30h210v-30q-18 -1 -37 -5q-29 -6 -66 -36q-51 -42 -110 -101q-3 -3 0 -8
q17 -26 71 -95t83 -103q16 -19 33.5 -26.5t53.5 -9.5v-30h-230v30q52 4 52 15q0 3 -12 23q-12 17 -110 149q-4 5 -10 2q-19 -11 -29 -21v-130q0 -20 11.5 -27t57.5 -11v-30h-214v30q41 3 52 10t11 30v512q0 34 -8 50q-22 42 -77 42q-98 0 -98 -159v-439q0 -26 14 -34t73 -12
v-30z" />
    <glyph glyph-name="longs_l" unicode="&#x17f;l" horiz-adv-x="526" 
d="M261 0h-238v30q43 2 56 10t13 33v322h-62v24q43 14 62 29q0 150 92 224q57 44 120 44q55 0 80 -18q25 5 46 18h14q-5 -130 -5 -132v-510q0 -25 11 -33.5t53 -11.5v-29h-209v30q42 3 52.5 11.5t10.5 34.5v506q0 34 -8 50q-22 42 -77 42q-98 0 -98 -169v-429q0 -26 14 -34
t73 -12v-30z" />
    <glyph glyph-name="longs_longs" unicode="&#x17f;&#x17f;" horiz-adv-x="534" 
d="M249 0h-226v30q46 3 57.5 9.5t11.5 30.5v328h-62v24q51 17 62 26q0 63 23.5 122.5t71.5 94.5q42 33 95 33q58 0 58 -36q0 -24 -17 -40.5t-29 -16.5q-11 0 -41 26q-17 18 -32 18q-47 0 -47 -133v-443q0 -26 12.5 -33t62.5 -10v-30zM515 0h-221v30q42 2 55.5 9t13.5 31v327
h-62v24q49 16 62 27q2 71 28 133t73 98q46 36 99 36q67 0 67 -43q0 -18 -15 -35.5t-32 -17.5q-15 0 -35 17q-14 12 -27 22q-7 5 -19 5q-25 0 -41 -36.5t-16 -107.5v-446q0 -27 10.5 -33t59.5 -10v-30z" />
    <glyph glyph-name="longs_longs_i" unicode="&#x17f;&#x17f;i" horiz-adv-x="807" 
d="M251 0h-228v30q46 3 57.5 9.5t11.5 30.5v327h-62v24q51 17 62 27q0 68 25 124.5t71 90.5q54 39 126 39q94 0 126 -45q55 58 141 58q69 0 104 -25t35 -59q0 -26 -15 -39.5t-34 -13.5q-21 0 -32 11.5t-12 27.5q-1 33 -4.5 43t-12.5 16q-13 9 -44 9q-61 0 -91 -55t-30 -151
v-406q0 -26 13 -33t60 -10v-30h-223v30q41 2 54.5 9t13.5 31v327h-62v24q49 16 62 27q2 88 26 139q-21 7 -31 48q-5 17 -20 27q-15 8 -42 8q-54 0 -88 -44t-34 -140v-413q0 -26 13 -33.5t64 -9.5v-30zM779 0h-213v30q47 4 58.5 10t11.5 29v239q0 38 -2 48t-11 16
q-10 7 -45 18v24q65 8 136 43l7 -6q-3 -48 -3 -93v-288q0 -23 10 -29.5t51 -10.5v-30z" />
    <glyph glyph-name="longs_longs_l" unicode="&#x17f;&#x17f;l" horiz-adv-x="806" 
d="M251 0h-228v30q46 3 57.5 9.5t11.5 30.5v328h-62v24q51 17 62 26q0 142 96 212q57 42 124 42q84 0 130 -46q59 59 134 59q53 0 87 -21q18 4 48 22h11q-3 -42 -3 -126v-521q0 -21 12.5 -29t51.5 -11v-29h-209v30q39 4 50.5 10.5t11.5 27.5v509q0 34 -11 53q-26 46 -84 46
q-52 0 -74 -50t-22 -122v-431q0 -27 12.5 -33t65.5 -10v-30h-228v30q41 2 54.5 9t13.5 31v327h-62v24q49 16 62 27q2 86 29 148q-11 31 -38.5 51t-65.5 20q-54 0 -84 -46t-30 -132v-416q0 -26 13 -33.5t64 -9.5v-30z" />
    <glyph glyph-name="gamma_gamma" unicode="&#x3b3;&#x3b3;" horiz-adv-x="935" 
d="M1 384v30q50 42 96 42q35 0 58 -25t47 -89q60 -163 79 -272q18 50 27.5 76.5t26.5 70t28 67t27.5 56t30.5 49.5t31 34.5t34.5 25t36.5 7.5q32 0 52.5 -22.5t50.5 -86.5q30 -65 62 -158.5t40 -134.5q5 11 19 38.5t19 37t15.5 32t14.5 32t11.5 27t10.5 27t7 23t5 24t1 20.5
q0 17 -13 50q-3 7 -7.5 16t-7 14.5t-2.5 11.5q0 18 18 33.5t43 15.5q19 0 29.5 -21.5t10.5 -46.5q0 -53 -30 -123t-74.5 -147.5t-55.5 -102.5q-8 -18 -8 -39q0 -2 4.5 -64t4.5 -95q0 -24 -18.5 -37t-42.5 -13q-23 0 -30.5 7t-7.5 26q0 25 33 161q4 15 2 31q-9 62 -52.5 162
t-84.5 171q-21 33 -31 44t-24 11q-33 0 -95 -130q-41 -81 -95 -234q-8 -23 -8 -40q1 -11 3.5 -47t4 -69t1.5 -58t-19 -36.5t-44 -11.5q-23 0 -31.5 6.5t-8.5 26.5q0 36 38 175q4 20 2 30q-10 72 -49 173t-83 179q-29 50 -58 52q-17 0 -44 -12z" />
    <glyph glyph-name="lambda_lambda" unicode="&#x3bb;&#x3bb;" horiz-adv-x="945" 
d="M107 0h-95q12 23 98.5 213.5t102.5 222.5q9 18 25 46q-19 43 -29.5 64t-26 43.5t-32.5 30.5t-39 8q-45 0 -87 -35l-15 19q47 91 115 91q42 0 72 -41.5t73 -159.5q116 -319 148 -393q26 -63 39 -63q5 0 41 73q37 75 136 287q9 20 18.5 35t15.5 23.5t7 10.5q-33 89 -63 127
t-70 38q-48 0 -95 -43l-17 17q49 101 123 101q50 0 79 -42.5t74 -169.5q11 -32 38 -111.5t42 -122t34.5 -93t32.5 -75.5q17 -32 29.5 -41.5t29.5 -9.5q21 0 35 7l2 -23q-33 -45 -78 -47q-42 -3 -69 65q-14 37 -32 94t-42.5 140.5t-29.5 101.5q-128 -302 -157 -361
q-14 -27 -40 -27h-68q-18 0 -26.5 6.5t-17.5 24.5q-7 12 -20 44.5t-28.5 78.5t-29 86.5t-28.5 86.5t-19 59q-13 -38 -51.5 -133t-69.5 -169t-35 -84z" />
    <glyph glyph-name=".notdef" horiz-adv-x="500" 
d="M0 0v700h500v-700h-500zM250 395l170 255h-340zM280 350l170 -255v510zM80 50h340l-170 255zM50 605v-510l170 255z" />
    <glyph glyph-name=".null" horiz-adv-x="0" 
 />
    <glyph glyph-name="nonmarkingreturn" horiz-adv-x="333" 
 />
    <glyph glyph-name="space" unicode=" " horiz-adv-x="213" 
 />
    <glyph glyph-name="exclam" unicode="!" horiz-adv-x="330" 
d="M210 196h-27q-6 94 -27 229.5t-21 161.5q0 32 16 53t45 21t43.5 -22t14.5 -52q0 -27 -19.5 -161.5t-24.5 -229.5zM196 -11q-21 0 -39.5 17t-18.5 45t16.5 47t42.5 19t42.5 -19t16.5 -46q0 -30 -18.5 -46.5t-41.5 -16.5z" />
    <glyph glyph-name="quotedbl" unicode="&#x22;" horiz-adv-x="404" 
d="M138 463h-29q-3 24 -15 110.5t-15 109.5v18q24 8 44 8q21 0 47 -7v-18q-9 -86 -32 -221zM293 463h-28q-3 25 -16 119t-14 101v18q27 8 45 8q25 0 46 -7v-18q-17 -147 -33 -221z" />
    <glyph glyph-name="numbersign" unicode="#" horiz-adv-x="497" 
d="M447 403h-91l-33 -142h96l-19 -64h-92l-45 -193h-36l45 193h-113l-46 -193h-38l47 193h-91l17 64h89l34 142h-92l16 65h92l43 177h35l-42 -177h112l41 177h37l-41 -177h93zM287 261l33 142h-112l-34 -142h113z" />
    <glyph glyph-name="dollar" unicode="$" horiz-adv-x="482" 
d="M255 265l-28 -236q59 -4 93.5 27t34.5 84q0 41 -20 68.5t-80 56.5zM238 368l27 227q-63 5 -95.5 -28.5t-32.5 -76.5q0 -42 21.5 -67.5t79.5 -54.5zM36 189l27 8q24 -72 55 -111t76 -54l29 244q-84 38 -122.5 77.5t-38.5 108.5q0 74 55 121.5t152 43.5l11 91h34l-12 -94
q34 -4 68 -16q13 6 25 17h20q-1 -42 20 -170l-28 -6q-35 127 -110 143l-29 -235q90 -40 130 -78t40 -110q0 -79 -60 -127.5t-155 -44.5l-12 -94h-34l12 97q-43 6 -77 16q-18 6 -47 1q-2 23 -15 95t-14 77z" />
    <glyph glyph-name="percent" unicode="%" horiz-adv-x="788" 
d="M624 671l28 -19l-471 -686l-28 21l407 590q-50 -29 -134 -29q-41 0 -86 10q17 -45 17 -91q0 -82 -41.5 -131.5t-110.5 -49.5q-71 0 -113.5 48t-42.5 127q0 80 40.5 131t117.5 51q39 0 83 -23q75 -39 137 -39q134 0 184 71zM203 614q-77 0 -77 -148q0 -152 79 -152
q39 0 56.5 44t17.5 108q0 148 -76 148zM598 344q65 0 107.5 -47t42.5 -129t-42 -131.5t-110 -49.5q-75 0 -115 49t-40 126q0 74 40 128t117 54zM592 315q-75 0 -75 -151q0 -72 21 -110.5t58 -38.5q76 0 76 151q0 149 -80 149z" />
    <glyph glyph-name="ampersand" unicode="&#x26;" horiz-adv-x="754" 
d="M266 388q66 44 89.5 79t23.5 71q0 38 -20 65t-57 27q-40 0 -63 -29t-23 -74q0 -68 50 -139zM712 396v-31q-54 -6 -73.5 -16.5t-47.5 -52.5q-103 -148 -107 -153q106 -92 165 -92q30 0 65 17v-25q-19 -25 -54 -40.5t-69 -15.5q-33 0 -69.5 17.5t-54 31.5t-44.5 39
q-26 -25 -45.5 -40.5t-57.5 -31.5t-77 -16q-91 0 -143 52.5t-52 131.5q0 49 32 86t114 91q-49 80 -49 151q0 65 44 113t118 48q66 0 103.5 -36t37.5 -86q0 -15 -4 -29.5t-8 -25t-16 -22.5l-19 -19t-25 -19.5t-26.5 -18t-33 -19.5t-33.5 -20q32 -45 83 -102.5t93 -95.5
q61 82 90 149q10 23 -2.5 32t-68.5 16v32h234zM209 324q-37 -32 -53 -60t-16 -73q0 -59 38 -102.5t100 -43.5q60 0 120 53q-93 88 -189 226z" />
    <glyph glyph-name="quotesingle" unicode="'" horiz-adv-x="251" 
d="M140 463h-30q-13 105 -31 220v18q18 8 47 8q30 0 47 -7v-18q-1 -5 -33 -221z" />
    <glyph glyph-name="parenleft" unicode="(" horiz-adv-x="383" 
d="M316 721l14 -20q-182 -173 -182 -416q0 -269 180 -432l-13 -21q-116 64 -184 182.5t-68 266.5q0 133 69.5 252t183.5 188z" />
    <glyph glyph-name="parenright" unicode=")" horiz-adv-x="383" 
d="M68 -168l-13 20q181 172 181 416q0 269 -180 432l13 21q116 -64 184 -182.5t68 -266.5q0 -133 -69.5 -252t-183.5 -188z" />
    <glyph glyph-name="asterisk" unicode="*" horiz-adv-x="427" 
d="M196 517q7 35 5 74t0 47q5 17 17.5 24t25.5 4q15 -3 21.5 -16.5t2.5 -29.5q-3 -10 -21.5 -41.5t-27.5 -64.5l5 -6q40 13 67.5 33.5t38.5 23.5q18 5 30 -3t15 -22q3 -12 -5 -24t-23 -16q-13 -3 -44.5 -4t-71.5 -9l-3 -9q21 -16 52 -32.5t46 -28.5q13 -10 14.5 -26
t-6.5 -25q-9 -12 -24.5 -11.5t-28.5 14.5q-7 7 -24 37.5t-43 57.5l-6 -1q-7 -43 -5 -79t-2 -43q-4 -16 -16 -23.5t-26 -3.5q-31 10 -23 44q3 11 20 38t31 70l-5 4q-27 -7 -60.5 -27t-43.5 -24q-17 -6 -30.5 -0.5t-17.5 19.5q-4 13 2.5 25.5t23.5 17.5q10 3 49 3t70 7l2 8
q-21 18 -54 35t-44 26q-30 24 -11 51q8 12 23 13t31 -12q9 -9 27.5 -43.5t40.5 -55.5z" />
    <glyph glyph-name="plus" unicode="+" horiz-adv-x="636" 
d="M290 272v219h59v-219h212v-59h-212v-225h-59v225h-215v59h215z" />
    <glyph glyph-name="comma" unicode="," horiz-adv-x="265" 
d="M46 -151l-12 26q53 27 81.5 58t28.5 58q0 18 -14 29.5t-54 18.5q-5 1 -10 9.5t-5 20.5q0 21 15 37.5t45 16.5t55.5 -24.5t25.5 -73.5q0 -36 -18.5 -69t-46 -54t-50.5 -34t-41 -19z" />
    <glyph glyph-name="hyphen" unicode="-" horiz-adv-x="328" 
d="M50 206v60h229v-60h-229z" />
    <glyph glyph-name="period" unicode="." horiz-adv-x="245" 
d="M121 -11q-24 0 -42 16t-18 46q0 29 17.5 47.5t44.5 18.5t44 -18t17 -47q0 -30 -19.5 -46.5t-43.5 -16.5z" />
    <glyph glyph-name="slash" unicode="/" horiz-adv-x="453" 
d="M384 684l-266 -757h-49l265 757h50z" />
    <glyph glyph-name="zero" unicode="0" horiz-adv-x="482" 
d="M239 607q-39 0 -63 -33q-46 -64 -46 -253q0 -180 45 -254q28 -47 70 -47q37 0 58 27q49 61 49 267q0 200 -51 263q-25 30 -62 30zM247 640q53 0 93 -28q53 -39 78 -116.5t25 -171.5q0 -211 -94 -296q-46 -40 -111 -40q-67 0 -114 45q-42 40 -63.5 115.5t-21.5 158.5
q0 218 103 298q45 35 105 35z" />
    <glyph glyph-name="one" unicode="1" horiz-adv-x="482" 
d="M105 0v30q70 5 84.5 13t14.5 40v364q0 98 -7 105q-11 10 -82 16v26q99 9 164 47h14q-3 -36 -3 -182v-377q0 -31 14.5 -39.5t79.5 -12.5v-30h-279z" />
    <glyph glyph-name="two" unicode="2" horiz-adv-x="482" 
d="M30 0l6 31q102 92 162 159q112 128 112 246q0 56 -26.5 96.5t-88.5 40.5q-42 0 -73.5 -20.5t-64.5 -68.5l-21 17q69 139 193 139q76 0 123.5 -51.5t47.5 -134.5q0 -68 -33.5 -123.5t-91.5 -115.5q-69 -70 -145 -141h205q24 0 38.5 7t31.5 27q19 20 46 64l27 -11
q-44 -91 -65 -163q-46 2 -128 2h-255z" />
    <glyph glyph-name="three" unicode="3" horiz-adv-x="482" 
d="M166 298v26q85 33 117 71t32 88q0 41 -26.5 69t-73.5 28q-42 0 -72.5 -19.5t-62.5 -58.5l-19 20q75 118 186 118q72 0 112.5 -43t40.5 -93q0 -97 -127 -153q70 -6 120 -44.5t50 -111.5q0 -87 -67 -149q-65 -60 -161 -60q-41 0 -78.5 11.5t-56.5 26.5q-28 24 -28 51
q0 19 14 32.5t33 13.5q14 0 22.5 -10.5t16.5 -40.5q9 -34 25 -42q18 -10 53 -10q62 0 98.5 43t36.5 112q0 67 -36 99.5t-96 32.5q-33 0 -53 -7z" />
    <glyph glyph-name="four" unicode="4" horiz-adv-x="482" 
d="M360 0h-89q3 46 3 185h-255l5 34q34 54 153 224.5t142 196.5h39v-406q64 0 112 3q-3 -5 -13 -54q-46 2 -99 2q0 -154 2 -185zM274 234v296q-37 -50 -100.5 -145t-97.5 -151h198z" />
    <glyph glyph-name="five" unicode="5" horiz-adv-x="482" 
d="M190 626h167q57 0 81 9l6 -8q-23 -31 -41 -82h-203q-4 0 -5 -3q-28 -65 -49 -120q0 -3 2 -4q75 -21 128 -40q84 -31 121.5 -71t37.5 -109q0 -103 -89 -167q-57 -43 -132 -43q-84 0 -136 43q-28 22 -28 47q0 19 14.5 32t34.5 13q15 0 24.5 -11t17.5 -46q7 -29 22 -36
q22 -10 52 -10q60 0 94 37q40 40 40 107q0 61 -37 95.5t-120 65.5q-36 13 -103 29v12q20 42 56 133.5t45 126.5z" />
    <glyph glyph-name="six" unicode="6" horiz-adv-x="482" 
d="M426 645l5 -30q-124 -26 -195 -100t-94 -169q66 59 139 59q62 0 106 -42q59 -57 59 -148q0 -93 -55.5 -160t-146.5 -67q-98 0 -151.5 71.5t-53.5 175.5q0 154 106 270.5t281 139.5zM242 356q-50 0 -82 -29q-22 -20 -27 -50q-4 -23 -4 -53q0 -34 6.5 -67t19.5 -65
t38.5 -52t58.5 -20q38 0 62.5 29.5t32.5 65.5t8 77q0 101 -49 143q-26 21 -64 21z" />
    <glyph glyph-name="seven" unicode="7" horiz-adv-x="482" 
d="M179 0h-68q54 88 143 260t135 285h-247q-26 0 -37 -5.5t-26 -25.5q-6 -7 -34 -57l-26 10q31 91 40 162q63 -3 108 -3h281l1 -20q-13 -45 -36 -98q-72 -170 -234 -508z" />
    <glyph glyph-name="eight" unicode="8" horiz-adv-x="482" 
d="M204 295q-81 -59 -81 -139q0 -55 34 -95.5t89 -40.5q48 0 76.5 32.5t28.5 79.5t-27 81.5t-120 81.5zM46 147q0 45 30.5 83.5t101.5 78.5q-59 38 -83.5 77t-24.5 88q0 70 52 118t127 48q71 0 120 -41t49 -109q0 -44 -27.5 -79.5t-88.5 -72.5q74 -42 103 -81.5t29 -91.5
q0 -77 -57.5 -127t-141.5 -50q-75 0 -132 43t-57 116zM278 352q68 59 68 136q0 49 -28 84t-77 35q-44 0 -70.5 -30.5t-26.5 -74.5q0 -45 26.5 -77t107.5 -73z" />
    <glyph glyph-name="nine" unicode="9" horiz-adv-x="482" 
d="M95 -21l-9 28q114 39 171 111t82 172q-62 -51 -128 -51q-75 0 -123 54.5t-48 133.5q0 87 57 150t147 63q92 0 144 -67.5t52 -174.5q0 -91 -30.5 -167.5t-81 -127t-110 -82t-123.5 -42.5zM350 411q0 32 -5 62.5t-16.5 63.5t-36 53t-59.5 20q-51 0 -77.5 -46.5
t-26.5 -112.5q0 -102 57 -145q30 -21 64 -21q42 0 69 20q22 16 28 48q3 23 3 58z" />
    <glyph glyph-name="colon" unicode=":" horiz-adv-x="316" 
d="M158 -11q-22 0 -41.5 16.5t-19.5 46.5q0 28 17.5 46t43.5 18q27 0 44.5 -18t17.5 -45q0 -31 -19.5 -47.5t-42.5 -16.5zM158 297q-23 0 -42 16t-19 46q0 28 17.5 46.5t43.5 18.5q28 0 45 -18t17 -46q0 -31 -19.5 -47t-42.5 -16z" />
    <glyph glyph-name="semicolon" unicode=";" horiz-adv-x="317" 
d="M157 297q-22 0 -41 16t-19 46q0 28 17.5 46.5t43.5 18.5q27 0 44.5 -18t17.5 -46q0 -31 -20 -47t-43 -16zM74 -151l-12 26q52 26 81 58.5t29 57.5q0 18 -14.5 30t-55.5 19q-13 3 -13 30q0 21 15 37.5t45 16.5t55.5 -24.5t25.5 -74.5q0 -37 -18.5 -70t-46 -54t-50.5 -33.5
t-41 -18.5z" />
    <glyph glyph-name="less" unicode="&#x3c;" horiz-adv-x="636" 
d="M551 51v-69l-467 228v58l467 227v-68l-394 -184z" />
    <glyph glyph-name="equal" unicode="=" horiz-adv-x="636" 
d="M562 370v-60h-487v60h487zM562 166v-58h-487v58h487z" />
    <glyph glyph-name="greater" unicode="&#x3e;" horiz-adv-x="636" 
d="M84 428v67l467 -227v-58l-467 -228v70l395 184z" />
    <glyph glyph-name="question" unicode="?" horiz-adv-x="427" 
d="M220 206h-25q-31 60 -31 99q0 25 34 51q12 9 26.5 18t35.5 22t34 21q29 18 29 57q0 46 -23.5 83t-59.5 37q-18 0 -44 -17q-34 -28 -44 -28q-25 0 -38.5 17t-13.5 36q0 30 26 44.5t55 14.5q78 0 132 -62.5t54 -147.5t-38 -115q-22 -18 -91 -57q-19 -12 -19 -26
q0 -31 1 -47zM215 -11q-23 0 -42 16t-19 46q0 29 17.5 47.5t44.5 18.5t44.5 -18.5t17.5 -46.5q0 -30 -20 -46.5t-43 -16.5z" />
    <glyph glyph-name="at" unicode="@" horiz-adv-x="894" 
d="M651 -88l13 -29q-109 -83 -264 -83q-66 0 -126 22t-107 63t-74.5 107t-27.5 148q0 128 61.5 233t165 163.5t224.5 58.5q146 0 232.5 -83.5t86.5 -201.5q0 -132 -85 -216t-193 -84q-78 0 -55 93q17 61 23 81q-40 -76 -109 -133q-46 -39 -91 -39q-24 0 -40.5 19.5
t-16.5 56.5q0 66 33 137.5t83 121.5q55 55 118 55q52 0 72 -41l14 41h63q-45 -136 -81 -272q-12 -48 -8 -65t30 -17q71 0 132.5 70.5t61.5 188.5q0 115 -77.5 182.5t-197.5 67.5q-168 0 -274 -120.5t-106 -293.5q0 -128 73.5 -214t215.5 -86q134 0 231 69zM561 332
q-12 36 -57 36t-92 -68q-31 -47 -53 -104t-22 -99q0 -37 26 -37q33 0 85 56t83 130q23 55 30 86z" />
    <glyph glyph-name="A" unicode="A" horiz-adv-x="675" 
d="M-6 0v30q54 6 75 17t37 51q117 300 194 503q7 18 5 44h72q1 -4 8 -25q27 -69 71 -188.5t82.5 -225.5t44.5 -121q12 -31 32 -41t65 -14v-30h-265v30q38 4 51 7q28 8 18 37q-31 92 -58 162h-224q-46 -126 -52 -146q-7 -26 -0.5 -37t28.5 -15q35 -6 53 -8v-30h-237zM214 273
h200l-98 277q-81 -217 -102 -277z" />
    <glyph glyph-name="B" unicode="B" horiz-adv-x="638" 
d="M221 329v-222q0 -46 13 -56q26 -19 81 -19q28 0 55 8t51 25t39 48t15 72q0 144 -185 144h-69zM221 573v-210h69q151 0 151 127q0 123 -144 123q-58 0 -69 -13q-7 -9 -7 -27zM34 0v30q58 4 76 15t18 46v463q0 34 -18.5 45.5t-75.5 15.5v30h270q93 0 144 -17
q91 -35 91 -126q0 -68 -44.5 -104t-102.5 -47q185 -25 185 -158q0 -93 -73 -143t-191 -50h-279z" />
    <glyph glyph-name="C" unicode="C" horiz-adv-x="691" 
d="M627 455l-29 -8q-42 114 -102 150q-45 28 -104 28q-108 0 -168.5 -77.5t-60.5 -216.5q0 -135 62.5 -221.5t182.5 -86.5q34 0 64 11q67 26 138 141l27 -14q-40 -78 -73 -157q-10 -1 -47 -8q-65 -12 -113 -12q-156 0 -252 91t-96 252q0 77 30.5 146.5t89.5 115.5
q92 72 221 72q82 0 150 -29q24 10 37 21h20q0 -69 23 -198z" />
    <glyph glyph-name="D" unicode="D" horiz-adv-x="722" 
d="M221 553v-419q0 -66 9 -73q29 -28 103 -28q99 0 161 77q68 84 68 217q0 163 -97 238q-61 48 -152 48q-69 0 -85 -14q-7 -7 -7 -46zM34 0v30q58 3 76 15t18 46v463q0 33 -19 45.5t-75 15.5v30h283q126 0 202 -40q73 -38 110.5 -108.5t37.5 -158.5q0 -143 -92 -236
q-46 -47 -114 -74.5t-148 -27.5h-279z" />
    <glyph glyph-name="E" unicode="E" horiz-adv-x="627" 
d="M401 0h-377v30q66 3 85 14t19 47v463q0 37 -19 47t-75 14v30h358q99 0 131 6q4 -75 26 -171l-27 -8q-49 106 -93 129q-16 9 -61 9h-118q-18 0 -23.5 -8t-5.5 -33v-221h100q45 0 60 22t24 85h30q-4 -70 -4 -124q0 -47 4 -129h-31q-7 34 -9 44t-8.5 28.5t-13.5 23t-20 9
t-32 4.5h-100v-204q0 -47 15.5 -59.5t69.5 -12.5h71q41 0 57 3t34 14q51 33 106 143l28 -10q-11 -27 -30.5 -89.5t-27.5 -99.5q-76 4 -143 4z" />
    <glyph glyph-name="F" unicode="F" horiz-adv-x="599" 
d="M322 0h-288v30q58 4 76 15.5t18 45.5v463q0 36 -19 46.5t-75 14.5v30h390q67 0 112 6q-4 -40 23 -177l-27 -8q-43 101 -84 130q-20 14 -58 14h-139q-19 0 -24.5 -7.5t-5.5 -33.5v-233h114q20 0 34 6t22 12t13.5 24.5t7.5 27.5t6 37h31q0 -3 -2 -44t-2 -75q0 -38 2 -85
t2 -48h-31q-5 29 -7.5 40.5t-8.5 28.5t-13.5 23t-21 11t-32.5 5h-114v-208q0 -34 18.5 -46t82.5 -15v-30z" />
    <glyph glyph-name="G" unicode="G" horiz-adv-x="724" 
d="M676 299v-31q-17 0 -41 -6q-32 -8 -32 -43v-152q0 -10 7 -14t27 -8v-22q-122 -39 -230 -39q-172 0 -265 98q-87 89 -87 245q0 170 128 267q89 67 219 67q80 0 157 -30q13 7 32 20h22q0 -36 8.5 -101.5t15.5 -95.5l-27 -8q-26 61 -50 97t-60 57q-42 26 -107 26
q-100 0 -165.5 -70.5t-65.5 -225.5q0 -149 78 -239q66 -73 169 -73q44 0 72 11q27 13 27 47v140q0 35 -35 44q-23 6 -68 9v30h271z" />
    <glyph glyph-name="H" unicode="H" horiz-adv-x="759" 
d="M315 0h-281v30q56 4 75 15t19 46v463q0 36 -19 47t-75 14v30h281v-30q-56 -3 -75 -14.5t-19 -46.5v-199h317v199q0 35 -20 46.5t-74 14.5v30h280v-30q-27 -2 -40 -4t-27.5 -8t-20 -17.5t-5.5 -31.5v-463q0 -32 18 -45t75 -16v-30h-280v30q55 3 74.5 13.5t19.5 47.5v227
h-317v-227q0 -36 20 -46.5t74 -14.5v-30z" />
    <glyph glyph-name="I" unicode="I" horiz-adv-x="349" 
d="M314 0h-280v30q56 3 75 13.5t19 47.5v463q0 15 -5 26t-9 16.5t-20 10t-21.5 5t-29.5 2.5q-6 1 -9 1v30h280v-30q-51 -3 -72 -14t-21 -47v-463q0 -35 18.5 -46t74.5 -15v-30z" />
    <glyph glyph-name="J" unicode="J" horiz-adv-x="368" 
d="M61 615v30h280v-30q-48 -2 -67.5 -14.5t-19.5 -46.5v-402q0 -75 -16 -132q-22 -71 -82 -137q-31 -32 -71.5 -52.5t-66.5 -20.5q-33 0 -59 15t-26 37t17.5 41t34.5 19q12 0 40 -27q26 -26 51 -26t49 29q36 39 36 142v514q0 37 -21 47t-79 14z" />
    <glyph glyph-name="K" unicode="K" horiz-adv-x="693" 
d="M315 0h-281v30q55 3 74.5 14t19.5 47v463q0 35 -19.5 46t-74.5 15v30h281v-30q-56 -3 -75 -15t-19 -46v-236q106 80 229 229q26 30 26 45q0 9 -19 14q-17 5 -57 9v30h249v-30q-55 -4 -85.5 -20t-71.5 -60q-24 -25 -79.5 -81t-79.5 -81q-3 -3 0 -10q14 -19 110 -129.5
t134 -150.5q45 -46 126 -53v-30h-281v30q5 1 15.5 2t18 2t11.5 2q19 7 6 27q-14 19 -98 119t-108 125q-5 5 -10 0l-36 -29v-187q0 -36 18.5 -46.5t75.5 -14.5v-30z" />
    <glyph glyph-name="L" unicode="L" horiz-adv-x="616" 
d="M362 0h-337v30q65 5 84 15.5t19 46.5v462q0 33 -19 45t-75 16v30h280v-30q-53 -2 -73 -14t-20 -47v-452q0 -39 13 -53t58 -14h80q49 0 77 18q53 31 114 151l28 -11q-37 -94 -64 -196q-66 3 -165 3z" />
    <glyph glyph-name="M" unicode="M" horiz-adv-x="892" 
d="M275 0h-250v30q56 5 72.5 21t18.5 67q6 145 12 449q1 25 -15.5 32.5t-84.5 15.5v30h184q198 -414 240 -506q12 26 110 237.5t123 268.5h174v-30q-52 -2 -72.5 -14t-20.5 -47v-463q0 -10 2 -18t4 -14t8 -10t10 -6.5t14 -4.5l15 -3t19.5 -2.5t20.5 -2.5v-30h-281v30
q28 3 37 4t25 5t20.5 10t9 17t4.5 27q5 420 4 455q-10 -22 -117 -260t-128 -288h-27q-22 59 -243 551q-4 -139 -1 -435q1 -52 23 -66t90 -20v-30z" />
    <glyph glyph-name="N" unicode="N" horiz-adv-x="741" 
d="M281 0h-252v30q61 5 80.5 25t19.5 84v399q0 25 -18 43q-16 17 -32.5 22.5t-59.5 11.5v30h163l397 -513v367q0 71 -18.5 90t-94.5 26v30h252v-30q-62 -4 -80 -26.5t-18 -88.5v-401q0 -76 3 -102h-65q-25 37 -63 87l-325 433v-378q0 -65 20.5 -84t90.5 -25v-30z" />
    <glyph glyph-name="O" unicode="O" horiz-adv-x="740" 
d="M373 -16q-123 0 -214 81q-103 97 -103 257q0 89 32.5 159.5t88.5 114.5q84 65 189 65q138 0 228 -89.5t90 -243.5q0 -130 -71 -225q-42 -56 -103.5 -87.5t-136.5 -31.5zM385 20q60 0 102 33q90 69 90 261q0 157 -76 248q-54 63 -137 63q-64 0 -106 -32q-95 -72 -95 -248
q0 -150 65 -239q61 -86 157 -86z" />
    <glyph glyph-name="P" unicode="P" horiz-adv-x="611" 
d="M221 577v-277q0 -8 7 -12q10 -5 49 -5q178 0 178 173q0 157 -161 157q-39 0 -56 -7q-17 -4 -17 -29zM324 0h-290v30q56 4 75 14.5t19 46.5v463q0 16 -4.5 26.5t-9 16t-21 9.5t-24 5t-35.5 4v30h263q109 0 167 -28q94 -48 94 -153q0 -93 -66 -151q-72 -63 -216 -63
q-26 0 -55 3v-162q0 -35 18.5 -46t84.5 -15v-30z" />
    <glyph glyph-name="Q" unicode="Q" horiz-adv-x="740" 
d="M855 -145l-5 -30q-79 -21 -170 -21q-75 0 -145 48q-19 13 -150 110q-32 23 -88 35q-66 14 -119 54q-122 91 -122 271q0 175 117 270q85 69 198 69q133 0 223 -90t90 -248q0 -142 -85 -236q-48 -56 -116 -83q83 -74 147 -112q58 -36 113 -41q47 -6 112 4zM365 625
q-64 0 -109 -35q-93 -71 -93 -244q0 -201 108 -286q54 -42 124 -42q46 0 85 25q97 65 97 270q0 162 -74 246q-59 66 -138 66z" />
    <glyph glyph-name="R" unicode="R" horiz-adv-x="651" 
d="M221 566v-236h51q174 0 174 148q0 136 -148 136q-58 0 -68 -13q-9 -6 -9 -35zM315 0h-281v30q18 1 23 1.5t20.5 3t21 6t14.5 10t12 16.5t3 24v463q0 19 -5.5 31t-20 18t-28 8t-40.5 4v30h267q107 0 159 -24q84 -40 84 -136q0 -125 -146 -166q25 -42 85 -131.5t91 -122.5
q31 -32 90 -35v-30q-23 -1 -100 -1q-62 0 -90 41q-56 76 -141 222q-13 24 -23.5 31t-33.5 7h-55v-209q0 -25 14 -38.5t31 -17t49 -5.5v-30z" />
    <glyph glyph-name="S" unicode="S" horiz-adv-x="543" 
d="M57 198l30 7q35 -110 100 -157q37 -27 84 -27q58 0 90 33t32 82q0 48 -29 81t-103 65q-103 45 -141.5 91t-38.5 116q0 68 51.5 120t146.5 52q67 0 125 -28q4 2 29 20h21q-1 -59 23 -198l-28 -7q-18 51 -45 93t-53 60q-35 24 -76 24q-53 0 -81.5 -31t-28.5 -77
q0 -50 27 -81t106 -64q106 -44 145.5 -90t39.5 -117q0 -76 -59 -128t-155 -52q-46 0 -124 20q-20 6 -55 -2q-7 81 -33 195z" />
    <glyph glyph-name="T" unicode="T" horiz-adv-x="681" 
d="M490 0h-300v30q63 3 83.5 13.5t20.5 47.5v519h-96q-32 0 -53 -16q-44 -34 -82 -128l-27 8q22 127 24 181q41 -10 116 -10h330q73 0 116 10q1 -62 24 -181l-27 -7q-41 94 -83 127q-21 16 -52 16h-97v-519q0 -36 19 -45.5t84 -15.5v-30z" />
    <glyph glyph-name="U" unicode="U" horiz-adv-x="724" 
d="M24 615v30h280v-30q-54 -2 -73.5 -14t-19.5 -47v-337q0 -60 12 -87q18 -44 61.5 -69.5t106.5 -25.5q75 0 114.5 30t54.5 90q8 32 8 80v274q0 66 -17.5 82.5t-87.5 23.5v30h245v-30q-62 -6 -78.5 -25.5t-16.5 -80.5v-259q0 -63 -10 -101q-41 -165 -237 -165
q-104 0 -163 44t-76 112q-9 31 -9 96v318q0 34 -19 45.5t-75 15.5z" />
    <glyph glyph-name="V" unicode="V" horiz-adv-x="656" 
d="M-5 615v30h276v-30q-23 -1 -55 -7q-21 -4 -26.5 -12t0.5 -34q18 -58 85.5 -245t69.5 -192q138 322 171 421q10 33 2.5 44.5t-36.5 17.5q-19 4 -56 7v30h240v-30q-50 -7 -67 -19t-38 -56q-29 -64 -120 -279.5t-112 -275.5h-35q-17 61 -97.5 287.5t-103.5 284.5
q-13 33 -32 43.5t-66 14.5z" />
    <glyph glyph-name="W" unicode="W" horiz-adv-x="960" 
d="M-2 615v30h273v-30q-45 -6 -60 -9q-17 -3 -23 -12.5t-1 -31.5q37 -150 121 -428q16 41 74.5 187t77.5 196q3 8 0 23q-12 48 -27 58.5t-72 16.5v30h264v-30q-42 -6 -59 -10q-30 -6 -18 -45q14 -44 66.5 -199.5t73.5 -221.5q66 174 131 377q14 49 14 62q-1 16 -24 23.5
t-77 13.5v30h248v-30q-52 -7 -72.5 -21.5t-36.5 -57.5q-121 -327 -195 -549h-36q-32 114 -159 486q-31 -81 -103.5 -262t-88.5 -224h-35q-42 171 -161 563q-11 37 -28.5 49t-66.5 16z" />
    <glyph glyph-name="X" unicode="X" horiz-adv-x="642" 
d="M0 0v30q46 3 72.5 14t48.5 41q77 110 156 230q-109 190 -143 241q-24 35 -42.5 45t-65.5 14v30h265v-30q-42 -5 -48 -6q-28 -5 -16 -27q69 -125 113 -194q78 108 117 180q18 32 -13 38q-20 5 -56 9v30h233v-30q-52 -5 -77 -18t-51 -50q-122 -175 -134 -192
q144 -239 163 -270t40 -40.5t69 -14.5v-30h-281v30q40 3 58 8q28 7 11 35q-69 123 -120 209q-90 -135 -126 -200q-10 -24 -5.5 -32.5t24.5 -11.5q47 -7 59 -8v-30h-251z" />
    <glyph glyph-name="Y" unicode="Y" horiz-adv-x="609" 
d="M447 0h-280v30q61 4 77.5 15.5t16.5 45.5v146q0 21 -8 40q-17 35 -73 135t-84 146q-19 32 -36.5 41.5t-61.5 15.5v30h260v-29q-41 -4 -54 -8q-24 -6 -13 -28q14 -31 74.5 -141.5t71.5 -130.5q86 154 132 253q20 38 -14 45q-25 5 -66 9v30h229v-30q-50 -4 -70.5 -18.5
t-42.5 -54.5q-98 -172 -144 -265q-7 -16 -7 -40v-146q0 -37 17.5 -47t75.5 -14v-30z" />
    <glyph glyph-name="Z" unicode="Z" horiz-adv-x="630" 
d="M387 0h-347v22q44 52 213.5 300.5t190.5 287.5h-221q-43 0 -64 -15q-40 -25 -96 -140l-29 10q35 111 45 190q54 -10 129 -10h251q59 0 103 2v-21q-18 -27 -399 -591h213q53 0 84 19q51 32 114 140l28 -11q-42 -94 -65 -189q-75 6 -150 6z" />
    <glyph glyph-name="bracketleft" unicode="[" horiz-adv-x="351" 
d="M155 650v-743q0 -15 5.5 -20t18.5 -5h117v-35h-212q2 33 2 171v521q0 123 -2 169h212v-35h-119q-15 0 -18.5 -3.5t-3.5 -19.5z" />
    <glyph glyph-name="backslash" unicode="\" horiz-adv-x="453" 
d="M335 -73l-266 757h50l265 -757h-49z" />
    <glyph glyph-name="bracketright" unicode="]" horiz-adv-x="351" 
d="M196 -95v743q0 16 -4 20.5t-17 4.5h-120v35h212q-2 -33 -2 -171v-521q0 -121 2 -169h-212v35h121q14 0 17 3.5t3 19.5z" />
    <glyph glyph-name="asciicircum" unicode="^" horiz-adv-x="516" 
d="M112 276h-62l173 361h61l183 -361h-63l-152 307z" />
    <glyph glyph-name="underscore" unicode="_" horiz-adv-x="492" 
d="M0 -123h492v-49h-492v49z" />
    <glyph glyph-name="grave" unicode="`" 
d="M240 530l-21 -13l-153 152l3 13q13 5 49 10.5t43 3.5z" />
    <glyph glyph-name="a" unicode="a" horiz-adv-x="447" 
d="M429 60v-27q-20 -23 -47.5 -35.5t-44.5 -12.5q-47 0 -61 59q-79 -59 -128 -59q-37 0 -66 31.5t-29 77.5q0 34 17 54t54 39q39 20 155 69q0 75 -1 82q-2 22 -25.5 46t-58.5 24q-9 0 -28 -9t-33 -20q-12 -9 -12 -14q0 -3 4 -11q14 -25 14 -38q0 -14 -16 -30t-36 -16
q-17 0 -31 15t-14 36q0 27 44 59q51 37 92 56.5t58 19.5q68 0 104 -62q17 -26 17 -88q0 -20 -1.5 -117.5t-1.5 -127.5q0 -18 24 -18q25 0 51 17zM278 228q-83 -36 -101 -48q-21 -14 -31 -27.5t-10 -37.5q0 -36 24 -60q16 -16 41 -16q32 0 56 21q17 14 18 41q3 58 3 127z" />
    <glyph glyph-name="b" unicode="b" horiz-adv-x="531" 
d="M88 -4l-11 8q3 54 3 160v397q0 45 -3 60q-5 23 -60 39v25q33 2 78.5 11.5t68.5 18.5l4 -2q-6 -49 -6 -98v-203q65 44 136 44q75 0 130 -55q61 -66 61 -162q0 -120 -83 -193q-65 -58 -150 -58q-63 0 -127 27q-5 -1 -41 -19zM162 323v-155q0 -69 15 -93q30 -53 91 -53
q48 0 77 29q48 48 48 170q0 84 -36 137q-35 53 -102 53q-33 0 -58 -13q-20 -9 -27.5 -25t-7.5 -50z" />
    <glyph glyph-name="c" unicode="c" horiz-adv-x="448" 
d="M410 104l17 -19q-66 -97 -176 -97q-97 0 -155 66q-55 61 -55 162q0 116 92 190q61 50 147 50q67 0 102 -23t35 -47q0 -19 -14 -35t-33 -16t-40 24q-7 8 -19 28t-18 26q-9 10 -39 10q-33 0 -63 -24q-56 -44 -56 -161q0 -91 41 -146q40 -52 101 -52q81 0 133 64z" />
    <glyph glyph-name="d" unicode="d" horiz-adv-x="536" 
d="M368 116v195q0 39 -4.5 53.5t-18.5 29.5q-30 29 -82 29q-49 0 -79 -30q-47 -47 -47 -161q0 -104 45 -158q36 -42 91 -42q40 0 66 17q29 19 29 67zM514 35v-28q-110 -13 -136 -20l-5 3q-5 20 -5 44q-73 -46 -140 -46q-76 0 -129 59q-58 65 -58 165q0 127 100 199
q64 45 146 45q38 0 81 -10q0 167 -3 178q-9 22 -74 36v26q96 4 159 28l5 -2q-5 -57 -5 -84v-528q0 -43 9 -49q16 -14 55 -16z" />
    <glyph glyph-name="e" unicode="e" horiz-adv-x="463" 
d="M406 105l17 -19q-64 -98 -181 -98q-48 0 -89.5 21t-66.5 56q-45 61 -45 151q0 65 26.5 118.5t70.5 85.5q48 36 115 36q82 0 127 -51t45 -115q0 -38 -9 -39q-27 -3 -283 -3q-1 -8 -1 -17q0 -102 47 -152q37 -40 97 -40q76 0 130 66zM135 278q122 0 175 3q19 1 24.5 9
t5.5 27q0 38 -24.5 73.5t-73.5 35.5q-40 0 -70.5 -37.5t-36.5 -110.5z" />
    <glyph glyph-name="f" unicode="f" horiz-adv-x="285" 
d="M264 0h-241v30q43 2 56 10t13 33v322h-62v24q43 14 62 29q6 157 100 228q51 39 108 39q30 0 54 -11.5t24 -34.5q0 -21 -16 -35.5t-35 -14.5q-17 0 -36 18l-28 24q-9 6 -23 6q-23 0 -44.5 -33t-21.5 -100v-90h114q2 -30 -7 -49h-106v-319q0 -26 14.5 -34t74.5 -12v-30z
" />
    <glyph glyph-name="g" unicode="g" horiz-adv-x="484" 
d="M241 -197q80 0 128 34.5t48 80.5q0 61 -93 61q-128 0 -150 -3q-28 -4 -45 -22q-33 -36 -33 -66q0 -40 39 -61q40 -24 106 -24zM218 427q-27 0 -49 -22q-29 -31 -29 -100q0 -59 19 -92q22 -42 74 -42q37 0 55 26q25 32 25 100q0 130 -95 130zM228 456q52 0 102 -24
q66 40 108 40q25 0 39.5 -11.5t14.5 -26.5q0 -22 -13 -35t-25 -13q-8 0 -24 15q-4 4 -10 9.5t-9.5 9t-7.5 6.5t-7 4.5t-6 1.5q-13 0 -36 -18q45 -51 45 -112q0 -60 -38 -105q-48 -56 -135 -56q-44 0 -71 9q-31 -31 -31 -57q0 -17 18.5 -25.5t38.5 -8.5q11 0 51 1t79 1
q93 -1 130 -47q24 -29 24 -68q0 -77 -79 -137q-78 -55 -193 -55q-61 0 -106 21q-57 31 -57 82q0 50 90 122q-61 31 -61 75q0 23 21.5 53t54.5 54q-39 19 -60.5 55t-21.5 79q0 71 51 117q49 44 124 44z" />
    <glyph glyph-name="h" unicode="h" horiz-adv-x="536" 
d="M239 0h-214v30q39 3 50.5 10t11.5 27v503q0 42 -5 55q-2 8 -17 18t-41 17v25q78 6 147 31l4 -2q-6 -51 -6 -86v-235q63 63 140 63q60 0 96 -36q43 -44 43 -122v-229q0 -24 10 -30.5t51 -8.5v-30h-219v30q38 4 48 6q19 4 23.5 20t4.5 82v166q0 48 -28 76q-24 23 -66 23
q-55 0 -83 -27q-13 -13 -16.5 -24.5t-3.5 -43.5v-239q0 -26 19 -32q7 -2 51 -7v-30z" />
    <glyph glyph-name="i" unicode="i" horiz-adv-x="262" 
d="M235 0h-214v30q47 4 58.5 10t11.5 29v231q0 38 -2.5 49.5t-10.5 18.5q-16 15 -42 26v20q74 12 134 42l6 -5q-3 -48 -3 -93v-288q0 -23 10 -29.5t52 -10.5v-30zM69 605q0 21 14.5 39.5t40.5 18.5q23 0 37.5 -17.5t14.5 -40.5q0 -24 -15 -40t-38 -16q-25 0 -39.5 17
t-14.5 39z" />
    <glyph glyph-name="j" unicode="j" horiz-adv-x="254" 
d="M24 389v24q74 10 148 43l6 -5q-3 -37 -3 -101v-289q0 -109 -22 -156q-25 -52 -64.5 -91.5t-66.5 -56.5l-20 22q57 52 73.5 95.5t16.5 107.5v355q0 20 -12 30q-22 15 -56 22zM73 606q0 21 14.5 39t40.5 18q23 0 37.5 -17t14.5 -40q0 -24 -15 -40.5t-38 -16.5
q-25 0 -39.5 17.5t-14.5 39.5z" />
    <glyph glyph-name="k" unicode="k" horiz-adv-x="500" 
d="M238 0h-213v30q41 3 51.5 10t10.5 31v499q0 33 -5 53q-3 8 -18.5 19t-40.5 18v25q75 5 148 31l3 -2q-5 -42 -5 -93v-390q60 43 144 129q23 24 23 35q0 8 -17 12q-19 5 -49 7v30h210v-30q-18 -1 -37 -5q-29 -6 -66 -36q-56 -46 -109 -99q-4 -4 0 -7q18 -26 75 -96.5
t87 -104.5q17 -19 34.5 -26.5t52.5 -9.5v-30h-229v30q51 4 51 15q0 5 -12 23q-4 5 -25.5 33.5t-49 64.5t-40.5 54q-4 5 -10 2q-21 -12 -33 -24v-129q0 -21 11.5 -28t57.5 -11v-30z" />
    <glyph glyph-name="l" unicode="l" horiz-adv-x="257" 
d="M233 0h-208v30q42 3 52 11.5t10 34.5v493q0 43 -4 54q-10 25 -61 37v25q70 4 149 31l4 -3q-6 -51 -6 -93v-546q0 -25 11 -33.5t53 -11.5v-29z" />
    <glyph glyph-name="m" unicode="m" horiz-adv-x="816" 
d="M243 0h-220v30q45 3 57 11.5t12 34.5v233q0 43 -6 49q-23 25 -49 35v20q53 9 132 43l8 -5q-3 -54 -3 -63q63 68 143 68q88 0 123 -76q66 76 151 76q76 0 110 -56q27 -41 27 -106v-220q0 -28 10 -34t51 -10v-30h-214v30q48 4 58.5 11.5t11.5 43.5q1 15 1 59v153
q0 60 -31 86q-22 20 -61 20q-45 0 -78 -27q-16 -13 -20.5 -27.5t-4.5 -48.5v-228q0 -26 12 -33t54 -9v-30h-219v30q45 2 58 10t13 35v231q0 49 -27 76q-22 22 -62 22q-55 0 -86 -34q-14 -12 -17 -25.5t-3 -58.5v-211q0 -28 10.5 -34.5t58.5 -10.5v-30z" />
    <glyph glyph-name="n" unicode="n" horiz-adv-x="541" 
d="M240 0h-217v30q45 2 57 10t12 35v230q0 43 -3 53q-5 18 -52 34v21q66 12 133 43l7 -4q-3 -42 -3 -63q67 67 144 67q56 0 92 -36q43 -43 43 -124v-221q0 -27 10.5 -34.5t50.5 -10.5v-30h-219v30q4 0 10 1q40 4 50.5 9.5t13.5 26.5q2 22 2 47v187q0 53 -27 79
q-23 23 -70 23q-19 0 -42 -8.5t-35 -20.5q-15 -14 -19 -26t-4 -46v-227q0 -27 11.5 -34.5t54.5 -10.5v-30z" />
    <glyph glyph-name="o" unicode="o" horiz-adv-x="528" 
d="M268 456q100 0 160 -68q59 -64 59 -162q0 -103 -67 -173q-65 -65 -151 -65q-100 0 -162 64q-66 68 -66 171q0 124 98 193q57 40 129 40zM272 22q57 0 85 41q34 49 34 155q0 101 -43 159q-37 47 -90 47q-55 0 -88 -45t-33 -142q0 -110 45 -170q36 -45 90 -45z" />
    <glyph glyph-name="p" unicode="p" horiz-adv-x="538" 
d="M259 -232h-250v30q52 2 63.5 11t13.5 44q2 46 2 143v305q0 49 -6 58q-4 7 -20.5 17.5t-33.5 15.5v21q69 12 137 48l9 -6q0 -4 -2.5 -25.5t-2.5 -31.5q75 55 144 55q68 0 120 -50q64 -62 64 -166q0 -108 -71 -181q-68 -68 -166 -68q-42 0 -90 13q0 -129 1 -149
q2 -34 15.5 -43t72.5 -11v-30zM170 294v-157q0 -46 9 -62q16 -25 44 -39t54 -14q54 0 89 50q35 52 35 145q0 90 -33 138q-36 50 -93 50q-41 0 -69 -17q-22 -13 -29 -31t-7 -63z" />
    <glyph glyph-name="q" unicode="q" horiz-adv-x="531" 
d="M519 -232h-239v29q64 6 75 14t12 30q1 17 1 187q-68 -41 -133 -41q-31 0 -67 14.5t-61 39.5q-66 66 -66 167q0 122 85 191q69 56 164 56q66 0 110 -21q31 9 44 18l12 -4q-6 -60 -6 -173v-228q0 -165 1 -203q1 -30 11.5 -36.5t56.5 -9.5v-30zM368 117v155q0 47 -6 83
q-8 30 -44 51q-25 14 -62 14q-47 0 -76 -30q-44 -44 -44 -152q0 -96 37 -148q41 -58 107 -58q38 0 60 12q11 7 15.5 12.5t8.5 20t4 40.5z" />
    <glyph glyph-name="r" unicode="r" horiz-adv-x="362" 
d="M264 0h-241v30q48 3 58.5 10t10.5 35v224q0 38 -1.5 49.5t-8.5 17.5q-18 16 -47 27v20q26 4 70 18t65 25l8 -4q-5 -29 -7 -73q77 77 135 77q27 0 42 -13.5t15 -34.5q0 -26 -17.5 -43t-34.5 -17q-15 0 -28 14q-15 16 -28 26q-8 6 -16 6q-10 0 -25 -10t-25 -22
q-15 -21 -15 -56v-230q0 -28 12.5 -34.5t59.5 -10.5q11 0 18 -1v-30z" />
    <glyph glyph-name="s" unicode="s" horiz-adv-x="367" 
d="M329 311l-30 -6q-18 59 -53 92q-27 27 -68 27q-27 0 -45.5 -19t-18.5 -48q0 -32 20 -52t69 -44q70 -33 98.5 -64t28.5 -79q0 -57 -40.5 -93.5t-105.5 -36.5q-31 0 -89 14q-14 3 -39 -1q-5 60 -26 143l29 9q15 -64 64 -109q28 -25 66 -25q26 0 45.5 15.5t19.5 52.5
q0 30 -20 49.5t-80 49.5t-85.5 62.5t-25.5 80.5q0 55 40 91t107 36q39 0 80 -15q13 4 21 10h16q4 -56 22 -140z" />
    <glyph glyph-name="t" unicode="t" horiz-adv-x="323" 
d="M301 67v-28q-44 -49 -108 -49q-44 0 -77 26.5t-33 91.5v287h-57v22q28 16 63.5 49.5t62.5 70.5h26q-8 -46 -10 -93h135q5 -30 -7 -49h-131v-284q0 -33 17 -51t45 -18q41 0 74 25z" />
    <glyph glyph-name="u" unicode="u" horiz-adv-x="529" 
d="M506 37v-28q-122 -15 -142 -21l-4 5q-1 8 -1.5 26.5t-0.5 27.5q-74 -59 -145 -59q-53 0 -91 36.5t-38 103.5v248q0 27 -60 39v29q110 0 147 9q-5 -75 -5 -115v-216q0 -33 27.5 -57t66.5 -24q48 0 73 19q14 10 19.5 23t5.5 40v251q0 9 -3 14.5t-21 13.5t-52 13l4 29
q120 0 159 6q-4 -36 -4 -158v-220q0 -22 14 -27q14 -6 51 -8z" />
    <glyph glyph-name="v" unicode="v" horiz-adv-x="464" 
d="M0 414v30h212v-30q-31 -2 -49 -7q-20 -5 -12 -26q9 -27 29.5 -83.5t44 -119.5t26.5 -72q103 255 107 267q5 16 2 23.5t-16 9.5q-17 4 -56 8v30h182v-30q-32 -2 -44.5 -10t-23.5 -30q-102 -224 -164 -382h-30q-17 60 -141 381q-10 26 -21.5 32.5t-45.5 8.5z" />
    <glyph glyph-name="w" unicode="w" horiz-adv-x="725" 
d="M-1 414v30h216v-30q-44 -5 -55 -10.5t-6 -25.5q7 -29 22 -74.5t38 -110.5t30 -84q98 226 103 239q3 5 1 12q-8 26 -15 35.5t-20 12.5q-14 4 -40 6v30h207v-30q-60 -5 -60 -20q0 -5 9 -34q16 -45 52.5 -147t37.5 -105q67 171 97 263q9 29 -13 34q-24 6 -65 9v30h194v-30
q-26 -4 -34.5 -6t-19.5 -11.5t-20 -29.5q-22 -50 -75.5 -183t-74.5 -193h-30q-39 113 -113 315q-110 -248 -136 -314h-30q-17 57 -62 188t-68 191q-10 26 -21 32t-49 11z" />
    <glyph glyph-name="x" unicode="x" horiz-adv-x="450" 
d="M180 0h-190v30q39 4 55 10t34 28q43 49 107 149q-75 128 -97 159q-15 22 -28 28t-54 10v30h206v-30q-20 -2 -32 -5q-15 -4 -7 -20q3 -6 64 -112q52 73 70 106q11 21 -9 25q-9 2 -43 6v30h176v-30q-38 -3 -52 -11t-39 -39q-31 -39 -85 -113q14 -22 55.5 -90t61.5 -98
q12 -18 25.5 -23.5t50.5 -9.5v-30h-220v30q33 2 46 6q19 4 8 23q-35 62 -78 129q-60 -85 -82 -125q-11 -20 8 -25q13 -4 49 -8v-30z" />
    <glyph glyph-name="y" unicode="y" horiz-adv-x="476" 
d="M-7 414v30h218v-30q-35 -3 -45 -5q-23 -5 -14 -29q70 -186 112 -281q51 138 94 268q12 34 -14 40q-17 4 -55 7v30h180v-30q-22 -4 -31 -7t-19 -13t-18 -29q-36 -87 -122 -323q-12 -31 -29 -81t-23 -66q-28 -77 -55 -109t-65 -32q-22 0 -39.5 15.5t-17.5 36.5
q0 25 16.5 44t33.5 19q9 0 34 -20q13 -11 22 -11q11 0 25 31q18 44 41 121q-5 18 -69.5 177.5t-86.5 206.5q-8 17 -20 25.5t-19.5 9.5t-33.5 5z" />
    <glyph glyph-name="z" unicode="z" horiz-adv-x="434" 
d="M401 151l24 -12q-33 -65 -59 -142q-36 3 -103 3h-214v19q26 39 115.5 191.5t115.5 199.5h-104q-25 0 -40.5 -8.5t-33.5 -29.5q-25 -30 -50 -77l-25 10q36 102 42 151q54 -12 87 -12h226v-17q-30 -47 -114.5 -194.5t-112.5 -199.5h113q37 0 69 34q31 31 64 84z" />
    <glyph glyph-name="braceleft" unicode="{" horiz-adv-x="427" 
d="M30 262v33q81 1 110 36t29 104q0 29 -2 52t-2 55q0 75 56.5 118t145.5 49v-28q-70 -10 -97 -40t-27 -82q0 -26 2 -55.5t2 -56.5q0 -64 -38 -109t-97 -54v-3q61 -10 98 -55.5t37 -110.5q0 -30 -2.5 -64t-2.5 -64q0 -51 29.5 -80t95.5 -39v-29q-89 4 -145.5 47t-56.5 120
q0 31 2 62t2 61q-1 71 -30 101.5t-109 31.5z" />
    <glyph glyph-name="bar" unicode="|" horiz-adv-x="262" 
d="M98 738h66v-985h-66v985z" />
    <glyph glyph-name="braceright" unicode="}" horiz-adv-x="426" 
d="M398 295v-33q-81 0 -110.5 -35t-29.5 -104q0 -29 2 -57t2 -60q0 -76 -56.5 -118.5t-145.5 -48.5v29q71 13 97.5 41.5t26.5 79.5q0 26 -1.5 60.5t-1.5 61.5q0 63 37.5 108.5t95.5 55.5v3q-60 8 -96.5 54t-36.5 111q0 29 1.5 59t1.5 59q0 51 -28 79.5t-96 40.5v28
q90 -3 146 -44.5t56 -117.5q0 -31 -2 -59.5t-2 -59.5q0 -70 29.5 -101t110.5 -32z" />
    <glyph glyph-name="asciitilde" unicode="~" horiz-adv-x="636" 
d="M520 319l49 -24q-41 -119 -140 -119q-12 0 -23.5 2t-19.5 4.5t-20 8t-17 8t-18.5 10.5t-16.5 10q-64 36 -103 36q-53 0 -93 -82l-47 26q20 56 58 86.5t88 30.5q48 0 107 -33q81 -46 110 -46q31 0 49.5 20t36.5 62z" />
    <glyph glyph-name="uni00A0" unicode="&#xa0;" horiz-adv-x="213" 
 />
    <glyph glyph-name="exclamdown" unicode="&#xa1;" horiz-adv-x="293" 
d="M111 252h26q5 -94 26.5 -230.5t21.5 -163.5q0 -30 -16 -49.5t-45 -19.5t-43.5 20t-14.5 50q0 28 20 164t25 229zM125 460q22 0 40.5 -16.5t18.5 -46.5q0 -27 -17.5 -46t-42.5 -19q-26 0 -43 19t-17 45q0 31 19 47.5t42 16.5z" />
    <glyph glyph-name="cent" unicode="&#xa2;" horiz-adv-x="482" 
d="M423 198l14 -20q-64 -87 -172 -91l-12 -97h-34l12 99q-70 9 -120.5 65.5t-50.5 149.5q0 91 66 155t161 68l11 88h34l-11 -89q49 -4 80 -19.5t31 -36.5t-12.5 -32.5t-24.5 -11.5q-15 0 -26 17q-1 2 -4.5 6t-5 6t-4.5 5.5t-4.5 5l-4.5 4.5t-5.5 4.5t-5.5 4t-5.5 4t-6 3
t-7.5 2.5l-44 -350q6 -1 18 -1q72 0 133 61zM239 146l44 348h-11q-53 0 -88.5 -45.5t-35.5 -130.5q0 -138 91 -172z" />
    <glyph glyph-name="sterling" unicode="&#xa3;" horiz-adv-x="482" 
d="M348 309h-138q-17 -120 -69 -179q44 0 76 -10.5t74 -40.5q50 -36 78 -36q19 0 35.5 15t16.5 32q0 11 -11 33.5t-11 32.5q0 14 13.5 29t35.5 15q13 0 21 -10t8 -27q0 -67 -50.5 -123t-114.5 -56q-48 0 -118 64q-48 44 -64 44q-13 0 -23 -18q-49 -78 -78 -78q-22 0 -22 23
q0 43 75 93q25 19 31 87q1 15 4 51t5 59h-97v36h100q1 10 3 32q5 49 17.5 92t36 83t63 64t91.5 24q56 0 86 -17t30 -40q0 -20 -15.5 -34.5t-32.5 -14.5t-33 26q-3 5 -7.5 14t-7.5 14.5t-7 10.5t-7 7q-9 4 -24 4q-49 0 -70.5 -57.5t-32.5 -193.5q0 -3 -0.5 -7t-0.5 -7h134
v-36z" />
    <glyph glyph-name="currency" unicode="&#xa4;" horiz-adv-x="497" 
d="M249 450q-58 0 -89.5 -40t-31.5 -97t33.5 -97t87.5 -40t86 40.5t32 98.5q0 55 -32 95t-86 40zM48 140l61 59q-38 44 -38 116q0 60 39 111l-61 63l40 38l54 -63q44 36 106 36q66 0 106 -34l52 61l38 -37l-56 -63q15 -17 25.5 -49.5t10.5 -62.5q0 -65 -37 -114l60 -60
l-38 -41l-59 64q-42 -38 -102 -38q-67 0 -107 35l-54 -61z" />
    <glyph glyph-name="yen" unicode="&#xa5;" horiz-adv-x="482" 
d="M372 0h-265v30q54 4 64 7q15 4 20.5 12.5t5.5 26.5v102h-107v32h107v69h-107v32h106q-9 19 -119 233q-21 43 -54 48q-6 1 -30 3v31h225v-31q-23 0 -46 -5q-19 -3 -12 -21q14 -33 105 -218q10 22 45 94.5t50 107.5q13 31 -17 36q-16 3 -54 6v31h195v-31q-10 -1 -33 -5
q-20 -4 -30.5 -16t-29.5 -47q-56 -106 -108 -216h105v-32h-105v-69h105v-32h-105v-104q0 -30 28 -36q19 -4 61 -8v-30z" />
    <glyph glyph-name="brokenbar" unicode="&#xa6;" horiz-adv-x="262" 
d="M98 -172v344h66v-344h-66zM98 663h66v-343h-66v343z" />
    <glyph glyph-name="section" unicode="&#xa7;" horiz-adv-x="496" 
d="M253 619q-24 0 -37.5 -14t-13.5 -34q0 -29 14 -57q10 -20 29 -47.5t49 -70t53 -76.5q40 -62 56 -108.5t16 -97.5q0 -73 -48 -140q-37 -53 -86 -80t-93 -27q-45 0 -82 20.5t-37 49.5q0 15 11.5 25t24.5 10q18 0 42 -30q19 -23 33 -31t39 -8q19 0 30.5 14t11.5 32
q0 39 -22 80q-35 65 -86 139q-58 85 -78.5 137.5t-20.5 105.5q0 99 71 176q64 65 145 65q53 0 84 -18.5t31 -46.5q0 -12 -9 -23t-22 -11q-17 0 -38 28q-31 38 -67 38zM312 -49q57 51 57 136q0 50 -17 96t-68 120q-74 108 -98 154.5t-24 88.5q0 24 5 38q-60 -58 -60 -146
q0 -84 90 -217q39 -57 60 -92t40 -86.5t15 -91.5z" />
    <glyph glyph-name="dieresis" unicode="&#xa8;" 
d="M109 658q21 0 34 -15t13 -36q0 -24 -14.5 -36.5t-34.5 -12.5q-17 0 -31.5 13.5t-14.5 35.5q0 21 13.5 36t34.5 15zM289 657q22 0 35 -15t13 -35q0 -19 -14 -34t-35 -15q-19 0 -33.5 14t-14.5 34q0 24 14.5 37.5t34.5 13.5z" />
    <glyph glyph-name="copyright" unicode="&#xa9;" horiz-adv-x="747" 
d="M360 630q133 0 220.5 -91t87.5 -222t-88.5 -222t-219.5 -91q-138 0 -224 88.5t-86 224.5q0 132 90 222.5t220 90.5zM360 600q-116 0 -194.5 -80.5t-78.5 -201.5q0 -120 80.5 -201.5t192.5 -81.5q115 0 192.5 80t77.5 203q0 118 -79.5 200t-190.5 82zM500 368l-21 -5
q-21 69 -60 90q-22 13 -51 13q-52 1 -77.5 -40t-25.5 -102q0 -75 31.5 -111t85.5 -36q29 0 53.5 19t50.5 63l20 -9q-22 -43 -35 -89q-52 -15 -94 -15q-79 0 -133.5 46.5t-54.5 128.5q0 67 47.5 119t131.5 52q46 0 86 -18q8 4 15 11h18q5 -67 13 -117z" />
    <glyph glyph-name="ordfeminine" unicode="&#xaa;" horiz-adv-x="287" 
d="M278 288v-17q-9 -15 -27.5 -24t-30.5 -9q-13 0 -27 10.5t-20 29.5q-57 -40 -85 -40q-23 0 -40 21.5t-17 51.5q0 40 47 62q43 19 97 40v14.5v14v9.5q-7 39 -47 39q-13 0 -36 -17q-8 -7 -8 -9t4 -9q8 -11 8 -24q0 -6 -13 -15t-24 -9q-10 0 -19.5 12t-9.5 25q0 12 29 32
q68 45 92 45q45 0 69 -37q13 -19 13 -53q0 -12 -1 -65.5t-1 -71.5q0 -15 14 -15q19 0 33 9zM175 392q-40 -16 -62 -29q-23 -13 -23 -42q0 -16 9.5 -29t27.5 -13q12 0 28 8q18 11 18 32q2 48 2 73z" />
    <glyph glyph-name="guillemotleft" unicode="&#xab;" horiz-adv-x="629" 
d="M95 216v17q58 38 117 89.5t91 85.5l20 -16q-37 -61 -128 -162q84 -105 128 -176l-20 -20q-112 114 -208 182zM307 216v17q91 60 209 175l19 -16q-41 -65 -127 -162q68 -83 127 -176l-19 -20q-116 119 -209 182z" />
    <glyph glyph-name="logicalnot" unicode="&#xac;" horiz-adv-x="636" 
d="M499 65v248h-424v58h487v-306h-63z" />
    <glyph glyph-name="uni00AD" unicode="&#xad;" horiz-adv-x="328" 
d="M50 206v60h229v-60h-229z" />
    <glyph glyph-name="registered" unicode="&#xae;" horiz-adv-x="282" 
d="M157 477h-64v9q19 4 19 13v67q0 11 -19 13v10h63q44 0 44 -30q0 -18 -25 -28q4 -13 18 -30q6 -9 23 -15v-9h-23q-15 0 -22 12q-4 5 -9 15l-5 9q-8 14 -13 14h-6v-28q0 -5 3.5 -7.5t15.5 -5.5v-9zM138 577v-41h6q27 0 27 21t-23 21q-6 0 -10 -1zM151 652q51 0 86.5 -35
t35.5 -86q0 -49 -34 -86.5t-90 -37.5q-50 0 -84.5 36t-34.5 88q0 48 35 84.5t86 36.5zM151 632q-42 0 -69 -28.5t-27 -72.5t27 -73t69 -29q43 0 70 28t27 74q0 43 -29 72t-68 29z" />
    <glyph glyph-name="macron" unicode="&#xaf;" 
d="M74 626h248v-54h-248v54z" />
    <glyph glyph-name="degree" unicode="&#xb0;" horiz-adv-x="324" 
d="M165 632q46 0 78 -31t32 -84q0 -52 -34.5 -83t-79.5 -31q-46 0 -78.5 31t-32.5 83q0 51 34.5 83t80.5 32zM161 596q-28 0 -47 -22t-19 -56q0 -36 20 -57.5t50 -21.5q25 0 44 21.5t19 56.5t-18.5 57t-48.5 22z" />
    <glyph glyph-name="plusminus" unicode="&#xb1;" horiz-adv-x="636" 
d="M290 403v219h59v-219h212v-58h-212v-227h-59v227h-215v58h215zM561 -10h-486v58h486v-58z" />
    <glyph glyph-name="twosuperior" unicode="&#xb2;" horiz-adv-x="348" 
d="M219 406h-182v25q92 84 118 115q55 66 55 123q0 30 -16 54t-56 24q-52 0 -95 -58l-17 15q55 97 142 97q46 0 79 -33t33 -84q0 -37 -15.5 -67t-55.5 -70q-31 -31 -98 -86q78 0 130 2q31 0 65 61l22 -7q-1 -3 -9.5 -29.5t-16 -51.5t-7.5 -31q-23 1 -76 1z" />
    <glyph glyph-name="threesuperior" unicode="&#xb3;" horiz-adv-x="338" 
d="M108 592v22q28 8 44 14t33.5 24t17.5 42t-15.5 42.5t-48.5 18.5q-48 0 -88 -51l-15 16q47 81 127 81q49 0 77 -26t28 -63q0 -57 -72 -86q44 -9 71.5 -34t27.5 -63q0 -58 -45 -94.5t-108 -36.5q-42 0 -75.5 19.5t-33.5 43.5q0 16 12 25.5t27 9.5q10 0 16.5 -9.5
t14.5 -32.5q5 -17 19 -23q10 -5 27 -5q34 0 55.5 24t21.5 58q0 90 -118 84z" />
    <glyph glyph-name="acute" unicode="&#xb4;" 
d="M186 517l-23 16l102 163q5 2 36 -7t48 -16l-1 -11z" />
    <glyph glyph-name="uni00B5" unicode="&#xb5;" horiz-adv-x="530" 
d="M521 56v-27q-28 -41 -84 -41q-75 0 -75 104v21q-28 -125 -134 -125q-71 0 -90 57q1 -66 8.5 -144.5t7.5 -90.5q0 -56 -47 -56q-39 0 -39 55q0 15 6 96.5t6 162.5v376h82v-309q0 -51 21.5 -73t53.5 -22q60 0 91.5 59.5t31.5 156.5v188h82v-351q0 -52 32 -52q26 0 47 15z
" />
    <glyph glyph-name="paragraph" unicode="&#xb6;" horiz-adv-x="573" 
d="M494 611v-35q-9 -1 -24.5 -2.5t-27 -3t-19.5 -2.5q-21 -4 -28.5 -15t-7.5 -38q1 -269 1 -463q0 -261 -146 -261q-47 0 -76 22.5t-29 48.5q0 21 16 36.5t37 15.5q15 0 23.5 -9t16.5 -32q14 -39 40 -39q14 0 24.5 6.5t21.5 24.5t17 59t6 102q0 66 -1 90q-125 12 -201 78.5
t-76 175.5q0 93 58.5 155t158.5 79q34 7 103 7h113z" />
    <glyph glyph-name="periodcentered" unicode="&#xb7;" horiz-adv-x="284" 
d="M140 175q-24 0 -42 16t-18 46q0 29 17.5 47.5t44.5 18.5t44 -18t17 -47q0 -30 -19.5 -46.5t-43.5 -16.5z" />
    <glyph glyph-name="cedilla" unicode="&#xb8;" 
d="M208 5h32l-43 -49q92 -27 92 -96q0 -33 -29.5 -60.5t-71.5 -27.5q-32 0 -55.5 13t-23.5 31q0 10 10.5 20.5t24.5 11.5q1 0 2.5 -0.5l3 -1t3 -1.5t2.5 -2t2.5 -3t2.5 -3.5l3 -4.5t3.5 -4.5t3.5 -5.5t4 -6q12 -17 29 -17q13 0 22 11t9 26q0 59 -107 64l-1 16z" />
    <glyph glyph-name="onesuperior" unicode="&#xb9;" horiz-adv-x="252" 
d="M231 406h-196v26q42 4 51.5 10.5t9.5 27.5v241q0 13 -11 20.5t-47 13.5v22q77 9 131 35v-333q0 -19 9.5 -25.5t52.5 -11.5v-26z" />
    <glyph glyph-name="ordmasculine" unicode="&#xba;" horiz-adv-x="340" 
d="M172 521q59 0 97.5 -39t38.5 -100q0 -63 -39.5 -103.5t-99.5 -40.5t-98.5 40.5t-38.5 104.5q0 59 40.5 98.5t99.5 39.5zM176 264q28 0 47 28t19 83q0 52 -18.5 86.5t-58.5 34.5q-29 0 -47.5 -26.5t-18.5 -82.5q0 -55 19.5 -89t57.5 -34z" />
    <glyph glyph-name="guillemotright" unicode="&#xbb;" horiz-adv-x="629" 
d="M535 226v-17q-110 -73 -209 -175l-20 16q37 61 128 162q-84 105 -128 176l20 20q112 -115 209 -182zM322 226v-17q-91 -60 -209 -175l-18 16q15 24 57 78t69 84q-72 88 -126 176l18 20q116 -119 209 -182z" />
    <glyph glyph-name="onequarter" unicode="&#xbc;" horiz-adv-x="776" 
d="M625 663l-428 -681h-43l430 681h41zM251 245h-196v26q42 4 51.5 10.5t9.5 27.5v241q0 13 -11 20.5t-47 13.5v22q77 9 131 35v-333q0 -19 9.5 -25.5t52.5 -11.5v-26zM581 0v110h-170v23q26 44 106.5 146t97.5 116h34v-245q37 0 73 2q-9 -42 -9 -44q-28 2 -64 2v-110h-68z
M581 150v167q-80 -98 -122 -167h122z" />
    <glyph glyph-name="onehalf" unicode="&#xbd;" horiz-adv-x="833" 
d="M629 663l-429 -681h-43l431 681h41zM250 245h-196v26q42 4 51.5 10.5t9.5 27.5v241q0 13 -11 20.5t-47 13.5v22q77 9 131 35v-333q0 -19 9.5 -25.5t52.5 -11.5v-26zM670 0h-182v24q6 5 24.5 22.5t25 23.5t23.5 22t24 24t20 23t19 24.5t15 23.5t12.5 25.5t6.5 24.5t3 26
q0 30 -16 54t-56 24q-29 0 -50.5 -13.5t-44.5 -44.5l-17 15q55 97 142 97q46 0 79 -33t33 -84q0 -37 -15.5 -67t-55.5 -70q-31 -31 -98 -86q78 0 130 2q31 0 65 61l22 -7q-1 -3 -9.5 -29.5t-16 -51.5t-7.5 -31q-23 1 -76 1z" />
    <glyph glyph-name="threequarters" unicode="&#xbe;" horiz-adv-x="813" 
d="M661 663l-429 -681h-43l431 681h41zM616 0v110h-170v23q26 44 106.5 146t97.5 116h34v-245q37 0 73 2q-9 -42 -9 -44q-28 2 -64 2v-110h-68zM616 150v167q-80 -98 -122 -167h122zM131 431v22q28 8 44 14t33.5 24t17.5 42t-15.5 42.5t-48.5 18.5q-48 0 -88 -51l-15 16
q47 81 127 81q49 0 77 -26t28 -63q0 -57 -72 -86q44 -9 71.5 -34t27.5 -63q0 -58 -45 -94.5t-108 -36.5q-42 0 -75.5 19.5t-33.5 43.5q0 16 12 25.5t27 9.5q10 0 16.5 -9.5t14.5 -32.5q5 -17 19 -23q10 -5 27 -5q34 0 55.5 24t21.5 58q0 90 -118 84z" />
    <glyph glyph-name="questiondown" unicode="&#xbf;" horiz-adv-x="417" 
d="M226 242l25 2q32 -60 32 -105q0 -20 -34 -45q-7 -6 -98 -62q-30 -17 -30 -59t19.5 -75.5t56.5 -40.5q27 -6 51 13q5 4 15 12.5t17 13t14 4.5q25 0 38.5 -17t13.5 -35q0 -30 -26 -45t-55 -15q-78 0 -132 62.5t-54 147.5q0 87 39 115q13 11 90 57q19 11 20 26q1 7 -2 46z
M232 460q23 0 42 -16t19 -46q0 -29 -17.5 -47.5t-44.5 -18.5t-44.5 18.5t-17.5 46.5q0 30 20 46.5t43 16.5z" />
    <glyph glyph-name="Agrave" unicode="&#xc0;" horiz-adv-x="675" 
d="M-6 0v30q54 6 75 17t37 51q117 300 194 503q7 18 5 44h72q1 -4 8 -25q27 -69 71 -188.5t82.5 -225.5t44.5 -121q12 -31 32 -41t65 -14v-30h-265v30q38 4 51 7q28 8 18 37q-31 92 -58 162h-224q-46 -126 -52 -146q-7 -26 -0.5 -37t28.5 -15q35 -6 53 -8v-30h-237zM214 273
h200l-98 277q-81 -217 -102 -277zM382 706l-19 -21l-189 110l3 15q17 8 48 17t41 7z" />
    <glyph glyph-name="Aacute" unicode="&#xc1;" horiz-adv-x="675" 
d="M-6 0v30q54 6 75 17t37 51q117 300 194 503q7 18 5 44h72q1 -4 8 -25q27 -69 71 -188.5t82.5 -225.5t44.5 -121q12 -31 32 -41t65 -14v-30h-265v30q38 4 51 7q28 8 18 37q-31 92 -58 162h-224q-46 -126 -52 -146q-7 -26 -0.5 -37t28.5 -15q35 -6 53 -8v-30h-237zM214 273
h200l-98 277q-81 -217 -102 -277zM301 685l-15 21l140 133q11 0 42 -12.5t41 -19.5v-16z" />
    <glyph glyph-name="Acircumflex" unicode="&#xc2;" horiz-adv-x="675" 
d="M-6 0v30q54 6 75 17t37 51q117 300 194 503q7 18 5 44h72q1 -4 8 -25q27 -69 71 -188.5t82.5 -225.5t44.5 -121q12 -31 32 -41t65 -14v-30h-265v30q38 4 51 7q28 8 18 37q-31 92 -58 162h-224q-46 -126 -52 -146q-7 -26 -0.5 -37t28.5 -15q35 -6 53 -8v-30h-237zM214 273
h200l-98 277q-81 -217 -102 -277zM504 704l-14 -26q-24 10 -78.5 33.5t-69.5 29.5q-111 -49 -149 -63l-11 26q53 34 149 115h25q112 -91 148 -115z" />
    <glyph glyph-name="Atilde" unicode="&#xc3;" horiz-adv-x="675" 
d="M-6 0v30q54 6 75 17t37 51q117 300 194 503q7 18 5 44h72q1 -4 8 -25q27 -69 71 -188.5t82.5 -225.5t44.5 -121q12 -31 32 -41t65 -14v-30h-265v30q38 4 51 7q28 8 18 37q-31 92 -58 162h-224q-46 -126 -52 -146q-7 -26 -0.5 -37t28.5 -15q35 -6 53 -8v-30h-237zM214 273
h200l-98 277q-81 -217 -102 -277zM486 811l26 -7q-6 -36 -31.5 -69t-70.5 -33q-29 0 -83 24q-44 18 -65 18q-22 0 -34 -10t-24 -36l-27 9q22 98 107 98q27 0 78 -21q46 -19 63 -19q22 0 36 9t25 37z" />
    <glyph glyph-name="Adieresis" unicode="&#xc4;" horiz-adv-x="675" 
d="M-6 0v30q54 6 75 17t37 51q117 300 194 503q7 18 5 44h72q1 -4 8 -25q27 -69 71 -188.5t82.5 -225.5t44.5 -121q12 -31 32 -41t65 -14v-30h-265v30q38 4 51 7q28 8 18 37q-31 92 -58 162h-224q-46 -126 -52 -146q-7 -26 -0.5 -37t28.5 -15q35 -6 53 -8v-30h-237zM214 273
h200l-98 277q-81 -217 -102 -277zM235 783q21 0 34 -15t13 -36q0 -24 -14.5 -36.5t-34.5 -12.5q-17 0 -32 13.5t-15 35.5q0 21 13.5 36t35.5 15zM440 782q22 0 35 -15t13 -35q0 -19 -14 -34t-35 -15q-19 0 -33.5 14t-14.5 34q0 24 14.5 37.5t34.5 13.5z" />
    <glyph glyph-name="Aring" unicode="&#xc5;" horiz-adv-x="675" 
d="M-6 0v30q54 6 75 17t37 51q117 300 194 503q7 18 5 44h72q1 -4 8 -25q27 -69 71 -188.5t82.5 -225.5t44.5 -121q12 -31 32 -41t65 -14v-30h-265v30q38 4 51 7q28 8 18 37q-31 92 -58 162h-224q-46 -126 -52 -146q-7 -26 -0.5 -37t28.5 -15q35 -6 53 -8v-30h-237zM214 273
h200l-98 277q-81 -217 -102 -277zM339 838q42 0 66 -23.5t24 -59.5t-24 -59t-66 -23q-41 0 -64.5 23t-23.5 59q0 35 23.5 59t64.5 24zM338 806q-22 0 -36.5 -14t-14.5 -37q0 -25 15 -37.5t38 -12.5q51 0 51 53q0 21 -15.5 34.5t-37.5 13.5z" />
    <glyph glyph-name="AE" unicode="&#xc6;" horiz-adv-x="958" 
d="M295 333h163v272q-74 -118 -163 -272zM238 0h-255v30q24 2 32 3q54 10 91 65q9 14 288 468q8 14 10.5 21t-2 13.5t-20.5 8.5q-47 5 -82 7v29h422q99 0 131 6q4 -79 26 -171l-27 -9q-48 106 -93 130q-18 9 -61 9h-118q-18 0 -23.5 -8t-5.5 -34v-235h101q45 0 60.5 22
t24.5 85h28q-4 -70 -4 -124q0 -48 4 -128h-29q-7 33 -9 43.5t-8.5 28.5t-14 22.5t-20 9t-32.5 4.5h-101v-190q0 -46 15.5 -58.5t69.5 -12.5h71q41 0 57 3t34 14q52 33 106 142l28 -10q-34 -82 -58 -188q-76 4 -143 4h-377v30q36 2 66 7q38 7 38 54v205h-185
q-16 -26 -112 -195q-16 -28 -11 -43.5t33 -21.5q8 -2 27 -3.5t28 -2.5v-30z" />
    <glyph glyph-name="Ccedilla" unicode="&#xc7;" horiz-adv-x="691" 
d="M610 175l27 -14q-40 -78 -73 -157q-10 -1 -47 -8q-63 -12 -110 -12l-27 -33q86 -23 86 -92q0 -33 -26.5 -61t-68.5 -28q-32 0 -55.5 13t-23.5 31q0 11 10.5 21t25.5 10q3 0 5.5 -1t5.5 -4.5t4.5 -6t6 -9t7.5 -10.5q12 -17 28 -17q13 0 22.5 11t9.5 26q0 60 -109 64l-1 16
l65 71q-143 10 -229.5 100t-86.5 242q0 77 30.5 146.5t89.5 115.5q92 72 221 72q82 0 150 -29q24 10 37 21h20q0 -69 23 -198l-29 -8q-42 114 -102 150q-45 28 -104 28q-108 0 -168.5 -77.5t-60.5 -216.5q0 -135 62.5 -221.5t182.5 -86.5q34 0 64 11q67 26 138 141z" />
    <glyph glyph-name="Egrave" unicode="&#xc8;" horiz-adv-x="627" 
d="M401 0h-377v30q66 3 85 14t19 47v463q0 37 -19 47t-75 14v30h358q99 0 131 6q4 -75 26 -171l-27 -8q-49 106 -93 129q-16 9 -61 9h-118q-18 0 -23.5 -8t-5.5 -33v-221h100q45 0 60 22t24 85h30q-4 -70 -4 -124q0 -47 4 -129h-31q-7 34 -9 44t-8.5 28.5t-13.5 23t-20 9
t-32 4.5h-100v-204q0 -47 15.5 -59.5t69.5 -12.5h71q41 0 57 3t34 14q51 33 106 143l28 -10q-11 -27 -30.5 -89.5t-27.5 -99.5q-76 4 -143 4zM351 717l-20 -21l-188 110l3 15q17 8 48 17t41 7z" />
    <glyph glyph-name="Eacute" unicode="&#xc9;" horiz-adv-x="627" 
d="M401 0h-377v30q66 3 85 14t19 47v463q0 37 -19 47t-75 14v30h358q99 0 131 6q4 -75 26 -171l-27 -8q-49 106 -93 129q-16 9 -61 9h-118q-18 0 -23.5 -8t-5.5 -33v-221h100q45 0 60 22t24 85h30q-4 -70 -4 -124q0 -47 4 -129h-31q-7 34 -9 44t-8.5 28.5t-13.5 23t-20 9
t-32 4.5h-100v-204q0 -47 15.5 -59.5t69.5 -12.5h71q41 0 57 3t34 14q51 33 106 143l28 -10q-11 -27 -30.5 -89.5t-27.5 -99.5q-76 4 -143 4zM259 694l-15 21l140 133q11 0 42 -12.5t41 -19.5l-1 -16z" />
    <glyph glyph-name="Ecircumflex" unicode="&#xca;" horiz-adv-x="627" 
d="M401 0h-377v30q66 3 85 14t19 47v463q0 37 -19 47t-75 14v30h358q99 0 131 6q4 -75 26 -171l-27 -8q-49 106 -93 129q-16 9 -61 9h-118q-18 0 -23.5 -8t-5.5 -33v-221h100q45 0 60 22t24 85h30q-4 -70 -4 -124q0 -47 4 -129h-31q-7 34 -9 44t-8.5 28.5t-13.5 23t-20 9
t-32 4.5h-100v-204q0 -47 15.5 -59.5t69.5 -12.5h71q41 0 57 3t34 14q51 33 106 143l28 -10q-11 -27 -30.5 -89.5t-27.5 -99.5q-76 4 -143 4zM466 719l-15 -26q-16 6 -70 29.5t-78 32.5q-126 -53 -148 -62l-12 26q63 39 149 114h26q90 -75 148 -114z" />
    <glyph glyph-name="Edieresis" unicode="&#xcb;" horiz-adv-x="627" 
d="M401 0h-377v30q66 3 85 14t19 47v463q0 37 -19 47t-75 14v30h358q99 0 131 6q4 -75 26 -171l-27 -8q-49 106 -93 129q-16 9 -61 9h-118q-18 0 -23.5 -8t-5.5 -33v-221h100q45 0 60 22t24 85h30q-4 -70 -4 -124q0 -47 4 -129h-31q-7 34 -9 44t-8.5 28.5t-13.5 23t-20 9
t-32 4.5h-100v-204q0 -47 15.5 -59.5t69.5 -12.5h71q41 0 57 3t34 14q51 33 106 143l28 -10q-11 -27 -30.5 -89.5t-27.5 -99.5q-76 4 -143 4zM209 814q21 0 34 -15t13 -36q0 -24 -14.5 -36.5t-34.5 -12.5q-17 0 -32 13.5t-15 35.5q0 21 13.5 36t35.5 15zM413 813
q22 0 35 -15t13 -35q0 -19 -14 -34t-35 -15q-19 0 -33.5 14t-14.5 34q0 24 14.5 37.5t34.5 13.5z" />
    <glyph glyph-name="Igrave" unicode="&#xcc;" horiz-adv-x="349" 
d="M314 0h-280v30q56 3 75 13.5t19 47.5v463q0 15 -5 26t-9 16.5t-20 10t-21.5 5t-29.5 2.5q-6 1 -9 1v30h280v-30q-51 -3 -72 -14t-21 -47v-463q0 -35 18.5 -46t74.5 -15v-30zM220 706l-20 -21l-189 110l3 15q17 8 48 17t41 7z" />
    <glyph glyph-name="Iacute" unicode="&#xcd;" horiz-adv-x="349" 
d="M314 0h-280v30q56 3 75 13.5t19 47.5v463q0 15 -5 26t-9 16.5t-20 10t-21.5 5t-29.5 2.5q-6 1 -9 1v30h280v-30q-51 -3 -72 -14t-21 -47v-463q0 -35 18.5 -46t74.5 -15v-30zM141 689l-15 21l140 133q11 0 42 -12.5t41 -19.5v-16z" />
    <glyph glyph-name="Icircumflex" unicode="&#xce;" horiz-adv-x="349" 
d="M314 0h-280v30q56 3 75 13.5t19 47.5v463q0 15 -5 26t-9 16.5t-20 10t-21.5 5t-29.5 2.5q-6 1 -9 1v30h280v-30q-51 -3 -72 -14t-21 -47v-463q0 -35 18.5 -46t74.5 -15v-30zM333 718l-14 -26q-23 9 -77 32.5t-71 30.5q-112 -49 -148 -63l-12 26q64 41 149 115h26
q100 -84 147 -115z" />
    <glyph glyph-name="Idieresis" unicode="&#xcf;" horiz-adv-x="349" 
d="M314 0h-280v30q56 3 75 13.5t19 47.5v463q0 15 -5 26t-9 16.5t-20 10t-21.5 5t-29.5 2.5q-6 1 -9 1v30h280v-30q-51 -3 -72 -14t-21 -47v-463q0 -35 18.5 -46t74.5 -15v-30zM72 809q21 0 34 -15t13 -36q0 -24 -14.5 -36.5t-34.5 -12.5q-17 0 -32 13.5t-15 35.5
q0 21 13.5 36t35.5 15zM277 808q22 0 35 -15t13 -35q0 -19 -14 -34t-35 -15q-19 0 -33.5 14t-14.5 34q0 24 14.5 37.5t34.5 13.5z" />
    <glyph glyph-name="Eth" unicode="&#xd0;" horiz-adv-x="722" 
d="M34 645h283q126 0 202 -40q73 -38 110.5 -108.5t37.5 -158.5q0 -143 -92 -236q-46 -47 -114 -74.5t-148 -27.5h-279v30q58 3 76 15t18 46v224h-89v41h89v198q0 33 -19 45.5t-75 15.5v30zM221 315v-181q0 -66 9 -73q29 -28 103 -28q99 0 161 77q68 84 68 217
q0 163 -97 238q-61 48 -152 48q-69 0 -85 -14q-7 -7 -7 -46v-197h170v-41h-170z" />
    <glyph glyph-name="Ntilde" unicode="&#xd1;" horiz-adv-x="741" 
d="M281 0h-252v30q61 5 80.5 25t19.5 84v399q0 25 -18 43q-16 17 -32.5 22.5t-59.5 11.5v30h163l397 -513v367q0 71 -18.5 90t-94.5 26v30h252v-30q-62 -4 -80 -26.5t-18 -88.5v-401q0 -76 3 -101h-65q-31 44 -63 86l-325 433v-378q0 -65 20.5 -84t90.5 -25v-30zM519 824
l26 -7q-6 -36 -32 -69t-70 -33q-28 0 -84 24q-45 19 -64 19q-22 0 -34 -10.5t-24 -36.5l-26 9q8 43 34 71t71 28q30 0 79 -22q46 -19 63 -19q22 0 36 9t25 37z" />
    <glyph glyph-name="Ograve" unicode="&#xd2;" horiz-adv-x="740" 
d="M373 -16q-123 0 -214 81q-103 97 -103 257q0 89 32.5 159.5t88.5 114.5q84 65 189 65q138 0 228 -89.5t90 -243.5q0 -130 -71 -225q-42 -56 -103.5 -87.5t-136.5 -31.5zM385 20q60 0 102 33q90 69 90 261q0 157 -76 248q-54 63 -137 63q-64 0 -106 -32q-95 -72 -95 -248
q0 -150 65 -239q61 -86 157 -86zM433 731l-20 -21l-188 110l3 15q17 8 47.5 17t40.5 7z" />
    <glyph glyph-name="Oacute" unicode="&#xd3;" horiz-adv-x="740" 
d="M373 -16q-123 0 -214 81q-103 97 -103 257q0 89 32.5 159.5t88.5 114.5q84 65 189 65q138 0 228 -89.5t90 -243.5q0 -130 -71 -225q-42 -56 -103.5 -87.5t-136.5 -31.5zM385 20q60 0 102 33q90 69 90 261q0 157 -76 248q-54 63 -137 63q-64 0 -106 -32q-95 -72 -95 -248
q0 -150 65 -239q61 -86 157 -86zM327 707l-15 21l140 133q11 0 42 -12.5t41 -19.5l-1 -16z" />
    <glyph glyph-name="Ocircumflex" unicode="&#xd4;" horiz-adv-x="740" 
d="M373 -16q-123 0 -214 81q-103 97 -103 257q0 89 32.5 159.5t88.5 114.5q84 65 189 65q138 0 228 -89.5t90 -243.5q0 -130 -71 -225q-42 -56 -103.5 -87.5t-136.5 -31.5zM385 20q60 0 102 33q90 69 90 261q0 157 -76 248q-54 63 -137 63q-64 0 -106 -32q-95 -72 -95 -248
q0 -150 65 -239q61 -86 157 -86zM527 728l-15 -26q-23 9 -76 32.5t-71 30.5q-105 -46 -149 -63l-11 26q53 34 149 115h25q112 -91 148 -115z" />
    <glyph glyph-name="Otilde" unicode="&#xd5;" horiz-adv-x="740" 
d="M373 -16q-123 0 -214 81q-103 97 -103 257q0 89 32.5 159.5t88.5 114.5q84 65 189 65q138 0 228 -89.5t90 -243.5q0 -130 -71 -225q-42 -56 -103.5 -87.5t-136.5 -31.5zM385 20q60 0 102 33q90 69 90 261q0 157 -76 248q-54 63 -137 63q-64 0 -106 -32q-95 -72 -95 -248
q0 -150 65 -239q61 -86 157 -86zM510 842l26 -7q-6 -36 -31.5 -69t-70.5 -33q-29 0 -83 24q-43 18 -65 18t-34 -10t-24 -36l-26 9q8 42 34.5 70t71.5 28q26 0 79 -21q43 -19 62 -19q22 0 36 9t25 37z" />
    <glyph glyph-name="Odieresis" unicode="&#xd6;" horiz-adv-x="740" 
d="M373 -16q-123 0 -214 81q-103 97 -103 257q0 89 32.5 159.5t88.5 114.5q84 65 189 65q138 0 228 -89.5t90 -243.5q0 -130 -71 -225q-42 -56 -103.5 -87.5t-136.5 -31.5zM385 20q60 0 102 33q90 69 90 261q0 157 -76 248q-54 63 -137 63q-64 0 -106 -32q-95 -72 -95 -248
q0 -150 65 -239q61 -86 157 -86zM266 821q21 0 34 -15t13 -36q0 -24 -14.5 -36.5t-34.5 -12.5q-17 0 -32 13.5t-15 35.5q0 21 13.5 36t35.5 15zM470 820q22 0 35 -15t13 -35q0 -19 -14 -34t-35 -15q-19 0 -33.5 14t-14.5 34q0 24 14.5 37.5t34.5 13.5z" />
    <glyph glyph-name="multiply" unicode="&#xd7;" horiz-adv-x="636" 
d="M270 238l-193 196l45 45l195 -198l195 198l46 -45l-198 -195l198 -195l-46 -46l-198 198l-193 -198l-44 45z" />
    <glyph glyph-name="Oslash" unicode="&#xd8;" horiz-adv-x="740" 
d="M622 670l-52 -77q114 -93 114 -265q0 -129 -71 -224q-42 -56 -103.5 -87.5t-136.5 -31.5q-100 0 -177 52l-55 -82l-27 20l55 82q-1 2 -4 4.5t-5 3.5q-104 96 -104 257q0 89 32.5 159.5t88.5 114.5q84 65 189 65q100 0 177 -49l52 77zM213 122l295 438l-2 2
q-54 63 -142 63q-65 0 -107 -32q-98 -74 -98 -248q0 -135 54 -223zM528 531l-294 -438q59 -72 151 -72q62 0 102 32q94 73 94 261q0 132 -53 217z" />
    <glyph glyph-name="Ugrave" unicode="&#xd9;" horiz-adv-x="724" 
d="M24 615v30h280v-30q-54 -2 -73.5 -14t-19.5 -47v-337q0 -60 12 -87q18 -44 61.5 -69.5t106.5 -25.5q75 0 114.5 30t54.5 90q8 32 8 80v274q0 66 -17.5 82.5t-87.5 23.5v30h245v-30q-62 -6 -78.5 -25.5t-16.5 -80.5v-259q0 -63 -10 -101q-41 -165 -237 -165
q-104 0 -163 44t-76 112q-9 31 -9 96v318q0 34 -19 45.5t-75 15.5zM424 710l-20 -21l-188 110l3 15q17 8 47.5 17t41.5 7z" />
    <glyph glyph-name="Uacute" unicode="&#xda;" horiz-adv-x="724" 
d="M24 615v30h280v-30q-54 -2 -73.5 -14t-19.5 -47v-337q0 -60 12 -87q18 -44 61.5 -69.5t106.5 -25.5q75 0 114.5 30t54.5 90q8 32 8 80v274q0 66 -17.5 82.5t-87.5 23.5v30h245v-30q-62 -6 -78.5 -25.5t-16.5 -80.5v-259q0 -63 -10 -101q-41 -165 -237 -165
q-104 0 -163 44t-76 112q-9 31 -9 96v318q0 34 -19 45.5t-75 15.5zM332 702l-15 22l140 133q11 0 42 -12.5t42 -19.5l-1 -16z" />
    <glyph glyph-name="Ucircumflex" unicode="&#xdb;" horiz-adv-x="724" 
d="M24 615v30h280v-30q-54 -2 -73.5 -14t-19.5 -47v-337q0 -60 12 -87q18 -44 61.5 -69.5t106.5 -25.5q75 0 114.5 30t54.5 90q8 32 8 80v274q0 66 -17.5 82.5t-87.5 23.5v30h245v-30q-62 -6 -78.5 -25.5t-16.5 -80.5v-259q0 -63 -10 -101q-41 -165 -237 -165
q-104 0 -163 44t-76 112q-9 31 -9 96v318q0 34 -19 45.5t-75 15.5zM533 734l-14 -26q-24 10 -78.5 33.5t-69.5 29.5q-111 -49 -149 -63l-11 26q53 34 149 115h25q112 -91 148 -115z" />
    <glyph glyph-name="Udieresis" unicode="&#xdc;" horiz-adv-x="724" 
d="M24 615v30h280v-30q-54 -2 -73.5 -14t-19.5 -47v-337q0 -60 12 -87q18 -44 61.5 -69.5t106.5 -25.5q75 0 114.5 30t54.5 90q8 32 8 80v274q0 66 -17.5 82.5t-87.5 23.5v30h245v-30q-62 -6 -78.5 -25.5t-16.5 -80.5v-259q0 -63 -10 -101q-41 -165 -237 -165
q-104 0 -163 44t-76 112q-9 31 -9 96v318q0 34 -19 45.5t-75 15.5zM271 815q21 0 34 -15t13 -36q0 -24 -14.5 -36.5t-34.5 -12.5q-17 0 -32 13.5t-15 35.5q0 21 13.5 36t35.5 15zM476 814q22 0 35 -15t13 -35q0 -19 -14 -34t-35 -15q-19 0 -33.5 14t-14.5 34q0 24 14.5 37.5
t34.5 13.5z" />
    <glyph glyph-name="Yacute" unicode="&#xdd;" horiz-adv-x="609" 
d="M447 0h-280v30q61 4 77.5 15.5t16.5 45.5v146q0 21 -8 40q-17 35 -73 135t-84 146q-19 32 -36.5 41.5t-61.5 15.5v30h260v-29q-41 -4 -54 -8q-24 -6 -13 -28q14 -31 74.5 -141.5t71.5 -130.5q86 154 132 253q20 38 -14 45q-25 5 -66 9v30h229v-30q-50 -4 -70.5 -18.5
t-42.5 -54.5q-98 -172 -144 -265q-7 -16 -7 -40v-146q0 -37 17.5 -47t75.5 -14v-30zM281 694l-15 21l140 133q11 0 41.5 -12.5t41.5 -19.5l-1 -16z" />
    <glyph glyph-name="Thorn" unicode="&#xde;" horiz-adv-x="610" 
d="M221 454v-243q0 -20 13 -25q17 -8 63 -8q77 0 116 36.5t39 120.5q0 144 -154 144q-50 0 -66 -4q-11 -2 -11 -21zM316 0h-281v30q22 1 56 7q38 7 38 55v461q0 47 -41 55q-32 6 -53 7v30h281v-29q-24 -1 -53 -6q-42 -10 -42 -56v-42h94q112 0 165 -34q74 -46 74 -138
q0 -108 -96 -160q-63 -34 -163 -34q-2 0 -74 4v-58q0 -47 41 -55q29 -6 54 -7v-30z" />
    <glyph glyph-name="germandbls" unicode="&#xdf;" horiz-adv-x="543" 
d="M181 0h-158v26q21 4 48 11q21 6 21 30v328h-62v24q43 14 62 29q0 76 25.5 139t74.5 96q47 32 105 32q79 0 119 -47.5t40 -104.5q0 -25 -4 -36q-2 -12 -11 -17q-52 -27 -80.5 -50t-28.5 -49q0 -30 65 -79q63 -47 87 -87.5t24 -84.5q0 -76 -52 -124t-114 -48
q-57 0 -88 20.5t-31 48.5q0 17 14 32t32 15q12 0 18.5 -8t15.5 -26q2 -4 6 -13t6.5 -14.5t6 -11t6.5 -6.5q9 -4 26 -4q30 0 55 27t25 71q0 40 -18.5 69t-63.5 64q-54 43 -72 69t-18 55q0 25 18.5 50t36.5 39t51 36q15 9 18 25q2 13 2 38q0 45 -23.5 82t-73.5 37
q-117 0 -117 -201v-415q0 -25 7 -67z" />
    <glyph glyph-name="agrave" unicode="&#xe0;" horiz-adv-x="447" 
d="M429 60v-27q-20 -23 -47.5 -35.5t-44.5 -12.5q-47 0 -61 59q-79 -59 -128 -59q-37 0 -66 31.5t-29 77.5q0 34 17 54t54 39q39 20 155 69q0 75 -1 82q-2 22 -25.5 46t-58.5 24q-9 0 -28 -9t-33 -20q-12 -9 -12 -14q0 -3 4 -11q14 -25 14 -38q0 -14 -16 -30t-36 -16
q-17 0 -31 15t-14 36q0 27 44 59q51 37 92 56.5t58 19.5q68 0 104 -62q17 -26 17 -88q0 -20 -1.5 -117.5t-1.5 -127.5q0 -18 24 -18q25 0 51 17zM278 228q-83 -36 -101 -48q-21 -14 -31 -27.5t-10 -37.5q0 -36 24 -60q16 -16 41 -16q32 0 56 21q17 14 18 41q3 58 3 127z
M263 530l-22 -13l-153 152l3 13q13 5 49 10.5t43 3.5z" />
    <glyph glyph-name="aacute" unicode="&#xe1;" horiz-adv-x="447" 
d="M429 60v-27q-20 -23 -47.5 -35.5t-44.5 -12.5q-47 0 -61 59q-79 -59 -128 -59q-37 0 -66 31.5t-29 77.5q0 34 17 54t54 39q39 20 155 69q0 75 -1 82q-2 22 -25.5 46t-58.5 24q-9 0 -28 -9t-33 -20q-12 -9 -12 -14q0 -3 4 -11q14 -25 14 -38q0 -14 -16 -30t-36 -16
q-17 0 -31 15t-14 36q0 27 44 59q51 37 92 56.5t58 19.5q68 0 104 -62q17 -26 17 -88q0 -20 -1.5 -117.5t-1.5 -127.5q0 -18 24 -18q25 0 51 17zM278 228q-83 -36 -101 -48q-21 -14 -31 -27.5t-10 -37.5q0 -36 24 -60q16 -16 41 -16q32 0 56 21q17 14 18 41q3 58 3 127z
M184 517l-23 16l102 163q5 2 36 -7t48 -16l-1 -11z" />
    <glyph glyph-name="acircumflex" unicode="&#xe2;" horiz-adv-x="447" 
d="M429 60v-27q-20 -23 -47.5 -35.5t-44.5 -12.5q-47 0 -61 59q-79 -59 -128 -59q-37 0 -66 31.5t-29 77.5q0 34 17 54t54 39q39 20 155 69q0 75 -1 82q-2 22 -25.5 46t-58.5 24q-9 0 -28 -9t-33 -20q-12 -9 -12 -14q0 -3 4 -11q14 -25 14 -38q0 -14 -16 -30t-36 -16
q-17 0 -31 15t-14 36q0 27 44 59q51 37 92 56.5t58 19.5q68 0 104 -62q17 -26 17 -88q0 -20 -1.5 -117.5t-1.5 -127.5q0 -18 24 -18q25 0 51 17zM278 228q-83 -36 -101 -48q-21 -14 -31 -27.5t-10 -37.5q0 -36 24 -60q16 -16 41 -16q32 0 56 21q17 14 18 41q3 58 3 127z
M347 538l-24 -19l-110 95l-106 -95l-23 19q26 36 117 168h26q41 -65 120 -168z" />
    <glyph glyph-name="atilde" unicode="&#xe3;" horiz-adv-x="447" 
d="M429 60v-27q-20 -23 -47.5 -35.5t-44.5 -12.5q-47 0 -61 59q-79 -59 -128 -59q-37 0 -66 31.5t-29 77.5q0 34 17 54t54 39q39 20 155 69q0 75 -1 82q-2 22 -25.5 46t-58.5 24q-9 0 -28 -9t-33 -20q-12 -9 -12 -14q0 -3 4 -11q14 -25 14 -38q0 -14 -16 -30t-36 -16
q-17 0 -31 15t-14 36q0 27 44 59q51 37 92 56.5t58 19.5q68 0 104 -62q17 -26 17 -88q0 -20 -1.5 -117.5t-1.5 -127.5q0 -18 24 -18q25 0 51 17zM278 228q-83 -36 -101 -48q-21 -14 -31 -27.5t-10 -37.5q0 -36 24 -60q16 -16 41 -16q32 0 56 21q17 14 18 41q3 58 3 127z
M350 661l25 -8q-6 -37 -29.5 -69t-66.5 -32q-29 0 -81 23q-41 18 -61 18q-21 0 -32.5 -10t-22.5 -35l-26 9q6 42 31 69.5t65 27.5q28 0 80 -21q43 -19 62 -19t32 9t24 38z" />
    <glyph glyph-name="adieresis" unicode="&#xe4;" horiz-adv-x="447" 
d="M429 60v-27q-20 -23 -47.5 -35.5t-44.5 -12.5q-47 0 -61 59q-79 -59 -128 -59q-37 0 -66 31.5t-29 77.5q0 34 17 54t54 39q39 20 155 69q0 75 -1 82q-2 22 -25.5 46t-58.5 24q-9 0 -28 -9t-33 -20q-12 -9 -12 -14q0 -3 4 -11q14 -25 14 -38q0 -14 -16 -30t-36 -16
q-17 0 -31 15t-14 36q0 27 44 59q51 37 92 56.5t58 19.5q68 0 104 -62q17 -26 17 -88q0 -20 -1.5 -117.5t-1.5 -127.5q0 -18 24 -18q25 0 51 17zM278 228q-83 -36 -101 -48q-21 -14 -31 -27.5t-10 -37.5q0 -36 24 -60q16 -16 41 -16q32 0 56 21q17 14 18 41q3 58 3 127z
M126 658q21 0 34 -15t13 -36q0 -24 -14.5 -36.5t-34.5 -12.5q-17 0 -31.5 13.5t-14.5 35.5q0 21 13.5 36t34.5 15zM306 657q22 0 35 -15t13 -35q0 -19 -14 -34t-35 -15q-19 0 -33.5 14t-14.5 34q0 24 14.5 37.5t34.5 13.5z" />
    <glyph glyph-name="aring" unicode="&#xe5;" horiz-adv-x="447" 
d="M429 60v-27q-20 -23 -47.5 -35.5t-44.5 -12.5q-47 0 -61 59q-79 -59 -128 -59q-37 0 -66 31.5t-29 77.5q0 34 17 54t54 39q39 20 155 69q0 75 -1 82q-2 22 -25.5 46t-58.5 24q-9 0 -28 -9t-33 -20q-12 -9 -12 -14q0 -3 4 -11q14 -25 14 -38q0 -14 -16 -30t-36 -16
q-17 0 -31 15t-14 36q0 27 44 59q51 37 92 56.5t58 19.5q68 0 104 -62q17 -26 17 -88q0 -20 -1.5 -117.5t-1.5 -127.5q0 -18 24 -18q25 0 51 17zM278 228q-83 -36 -101 -48q-21 -14 -31 -27.5t-10 -37.5q0 -36 24 -60q16 -16 41 -16q32 0 56 21q17 14 18 41q3 58 3 127z
M214 687q39 0 61.5 -25t22.5 -61q0 -35 -23 -59.5t-61 -24.5t-61 24.5t-23 59.5q0 36 22.5 61t61.5 25zM213 656q-20 0 -33.5 -15.5t-13.5 -39.5q0 -25 14 -39.5t34 -14.5q21 0 34.5 14.5t13.5 41.5q0 22 -14.5 37.5t-34.5 15.5z" />
    <glyph glyph-name="ae" unicode="&#xe6;" horiz-adv-x="688" 
d="M279 237q-82 -30 -120 -64q-23 -20 -23 -51q0 -44 23 -64q18 -19 39 -19q44 0 104 59q-22 51 -23 139zM631 104l17 -19q-65 -97 -180 -97q-101 0 -154 86q-95 -89 -165 -89q-37 0 -66.5 34t-29.5 83q0 30 16.5 49.5t49.5 37.5q69 40 161 74q0 68 -1 75q-2 22 -23.5 46
t-57.5 24q-10 0 -31 -8.5t-35 -19.5q-12 -9 -12 -14q0 -4 5 -12q14 -25 14 -38q0 -14 -16 -30t-36 -16q-17 0 -31 15t-14 36q0 27 44 59q53 38 94 56.5t58 18.5q32 0 59.5 -16.5t43.5 -42.5q60 60 138 60q80 0 125.5 -50t45.5 -113q0 -41 -9 -42q-27 -3 -285 -3v-9
q0 -108 46 -157q42 -43 95 -43q76 0 134 65zM358 278q124 0 176 3q19 1 25 10t6 28q0 38 -24 72.5t-73 34.5q-41 0 -72 -36.5t-38 -111.5z" />
    <glyph glyph-name="ccedilla" unicode="&#xe7;" horiz-adv-x="448" 
d="M410 104l17 -19q-58 -84 -147 -95l-30 -34q92 -27 92 -96q0 -33 -29.5 -60.5t-71.5 -27.5q-32 0 -55.5 13t-23.5 31q0 10 10.5 20.5t24.5 11.5q1 0 2.5 -0.5l3 -1t3 -1.5t2.5 -2t2.5 -3t2.5 -3.5l3 -4.5t3.5 -4.5t3.5 -5.5t4 -6q12 -17 29 -17q13 0 22 11t9 26
q0 59 -107 64l-1 16l66 72q-92 2 -149 66q-55 61 -55 162q0 116 92 190q61 50 147 50q67 0 102 -23t35 -47q0 -19 -14 -35t-33 -16t-40 24q-7 8 -19 28t-18 26q-9 10 -39 10q-33 0 -63 -24q-56 -44 -56 -161q0 -91 41 -146q40 -52 101 -52q81 0 133 64z" />
    <glyph glyph-name="egrave" unicode="&#xe8;" horiz-adv-x="463" 
d="M406 105l17 -19q-64 -98 -181 -98q-48 0 -89.5 21t-66.5 56q-45 61 -45 151q0 65 26.5 118.5t70.5 85.5q48 36 115 36q82 0 127 -51t45 -115q0 -38 -9 -39q-27 -3 -283 -3q-1 -8 -1 -17q0 -102 47 -152q37 -40 97 -40q76 0 130 66zM135 278q122 0 175 3q19 1 24.5 9
t5.5 27q0 38 -24.5 73.5t-73.5 35.5q-40 0 -70.5 -37.5t-36.5 -110.5zM287 530l-22 -13l-153 152l3 13q13 5 49.5 10.5t42.5 3.5z" />
    <glyph glyph-name="eacute" unicode="&#xe9;" horiz-adv-x="464" 
d="M406 105l17 -19q-64 -98 -181 -98q-48 0 -89.5 21t-66.5 56q-45 61 -45 151q0 65 26.5 118.5t70.5 85.5q48 36 115 36q82 0 127 -51t45 -115q0 -38 -9 -39q-27 -3 -283 -3q-1 -8 -1 -17q0 -102 47 -152q37 -40 97 -40q76 0 130 66zM135 278q122 0 175 3q19 1 24.5 9
t5.5 27q0 38 -24.5 73.5t-73.5 35.5q-40 0 -70.5 -37.5t-36.5 -110.5zM214 517l-23 16l102 163q5 2 36 -7t48 -16l-1 -11z" />
    <glyph glyph-name="ecircumflex" unicode="&#xea;" horiz-adv-x="463" 
d="M406 105l17 -19q-64 -98 -181 -98q-48 0 -89.5 21t-66.5 56q-45 61 -45 151q0 65 26.5 118.5t70.5 85.5q48 36 115 36q82 0 127 -51t45 -115q0 -38 -9 -39q-27 -3 -283 -3q-1 -8 -1 -17q0 -102 47 -152q37 -40 97 -40q76 0 130 66zM135 278q122 0 175 3q19 1 24.5 9
t5.5 27q0 38 -24.5 73.5t-73.5 35.5q-40 0 -70.5 -37.5t-36.5 -110.5zM367 538l-25 -19l-109 95l-107 -95l-23 19q50 68 117 168h27q35 -57 120 -168z" />
    <glyph glyph-name="edieresis" unicode="&#xeb;" horiz-adv-x="464" 
d="M406 105l17 -19q-64 -98 -181 -98q-48 0 -89.5 21t-66.5 56q-45 61 -45 151q0 65 26.5 118.5t70.5 85.5q48 36 115 36q82 0 127 -51t45 -115q0 -38 -9 -39q-27 -3 -283 -3q-1 -8 -1 -17q0 -102 47 -152q37 -40 97 -40q76 0 130 66zM135 278q122 0 175 3q19 1 24.5 9
t5.5 27q0 38 -24.5 73.5t-73.5 35.5q-40 0 -70.5 -37.5t-36.5 -110.5zM147 658q21 0 34 -15t13 -36q0 -24 -14.5 -36.5t-34.5 -12.5q-17 0 -31.5 13.5t-14.5 35.5q0 21 13.5 36t34.5 15zM327 657q22 0 35 -15t13 -35q0 -19 -14 -34t-35 -15q-19 0 -33.5 14t-14.5 34
q0 24 14.5 37.5t34.5 13.5z" />
    <glyph glyph-name="igrave" unicode="&#xec;" horiz-adv-x="262" 
d="M234 0h-213v30q47 4 58.5 10t11.5 29v231q0 38 -2.5 49.5t-10.5 18.5q-15 13 -42 27v19q74 12 134 42l6 -5q-3 -48 -3 -92v-289q0 -23 10 -29.5t51 -10.5v-30zM158 530l-22 -13l-153 152l3 13q13 5 49.5 10.5t43.5 3.5z" />
    <glyph glyph-name="iacute" unicode="&#xed;" horiz-adv-x="262" 
d="M234 0h-213v30q47 4 58.5 10t11.5 29v231q0 38 -2.5 49.5t-10.5 18.5q-15 13 -42 27v19q74 12 134 42l6 -5q-3 -48 -3 -92v-289q0 -23 10 -29.5t51 -10.5v-30zM106 517l-23 16l102 163q5 2 36 -7t48 -16l-1 -11z" />
    <glyph glyph-name="icircumflex" unicode="&#xee;" horiz-adv-x="262" 
d="M234 0h-213v30q47 4 58.5 10t11.5 29v231q0 38 -2.5 49.5t-10.5 18.5q-15 13 -42 27v19q74 12 134 42l6 -5q-3 -48 -3 -92v-289q0 -23 10 -29.5t51 -10.5v-30zM260 538l-25 -19l-109 95l-107 -95l-23 19q50 68 117 168h27q35 -57 120 -168z" />
    <glyph glyph-name="idieresis" unicode="&#xef;" horiz-adv-x="262" 
d="M234 0h-213v30q47 4 58.5 10t11.5 29v231q0 38 -2.5 49.5t-10.5 18.5q-15 13 -42 27v19q74 12 134 42l6 -5q-3 -48 -3 -92v-289q0 -23 10 -29.5t51 -10.5v-30zM36 658q21 0 34 -15t13 -36q0 -24 -14.5 -36.5t-34.5 -12.5q-17 0 -31.5 13.5t-14.5 35.5q0 21 13.5 36
t34.5 15zM216 657q22 0 35 -15t13 -35q0 -19 -14 -34t-35 -15q-19 0 -33.5 14t-14.5 34q0 24 14.5 37.5t34.5 13.5z" />
    <glyph glyph-name="eth" unicode="&#xf0;" horiz-adv-x="520" 
d="M267 19q53 0 83 61t30 167q0 64 -7 95q-6 35 -26 52q-31 29 -84 29q-18 0 -37 -8t-40.5 -26.5t-35 -58.5t-13.5 -96q0 -27 2.5 -52.5t11 -56.5t22 -53.5t38 -37.5t56.5 -15zM263 580l-124 -70l-18 29l115 65q-50 50 -158 72l8 29q53 -4 108.5 -24t93.5 -45l109 62l18 -30
l-95 -54q152 -122 152 -336q0 -129 -55 -209.5t-163 -80.5q-96 0 -154.5 66.5t-58.5 164.5q0 104 61 171t153 67q66 0 103 -31q-25 94 -95 154z" />
    <glyph glyph-name="ntilde" unicode="&#xf1;" horiz-adv-x="541" 
d="M240 0h-217v30q45 2 57 10t12 35v230q0 43 -3 53q-5 18 -52 34v21q66 12 133 43l7 -4q-3 -42 -3 -63q67 67 144 67q56 0 92 -36q43 -43 43 -124v-221q0 -27 10.5 -34.5t50.5 -10.5v-30h-219v30q4 0 10 1q40 4 50.5 9.5t13.5 26.5q2 22 2 47v187q0 53 -27 79
q-23 23 -70 23q-19 0 -42 -8.5t-35 -20.5q-15 -14 -19 -26t-4 -46v-227q0 -27 11.5 -34.5t54.5 -10.5v-30zM391 663l25 -8q-6 -37 -29.5 -69t-66.5 -32q-30 0 -80 23q-43 18 -62 18q-21 0 -32.5 -10t-22.5 -35l-25 9q7 42 31 69.5t64 27.5q28 0 80 -21q43 -19 62 -19t32 9
t24 38z" />
    <glyph glyph-name="ograve" unicode="&#xf2;" horiz-adv-x="528" 
d="M268 456q100 0 160 -68q59 -64 59 -162q0 -103 -67 -173q-65 -65 -151 -65q-100 0 -162 64q-66 68 -66 171q0 124 98 193q57 40 129 40zM272 22q57 0 85 41q34 49 34 155q0 101 -43 159q-37 47 -90 47q-55 0 -88 -45t-33 -142q0 -110 45 -170q36 -45 90 -45zM305 530
l-22 -13l-153 152l3 13q13 5 49.5 10.5t42.5 3.5z" />
    <glyph glyph-name="oacute" unicode="&#xf3;" horiz-adv-x="528" 
d="M268 456q100 0 160 -68q59 -64 59 -162q0 -103 -67 -173q-65 -65 -151 -65q-100 0 -162 64q-66 68 -66 171q0 124 98 193q57 40 129 40zM272 22q57 0 85 41q34 49 34 155q0 101 -43 159q-37 47 -90 47q-55 0 -88 -45t-33 -142q0 -110 45 -170q36 -45 90 -45zM227 517
l-23 16l102 163q5 2 36 -7t48 -16l-1 -11z" />
    <glyph glyph-name="ocircumflex" unicode="&#xf4;" horiz-adv-x="528" 
d="M268 456q100 0 160 -68q59 -64 59 -162q0 -103 -67 -173q-65 -65 -151 -65q-100 0 -162 64q-66 68 -66 171q0 124 98 193q57 40 129 40zM272 22q57 0 85 41q34 49 34 155q0 101 -43 159q-37 47 -90 47q-55 0 -88 -45t-33 -142q0 -110 45 -170q36 -45 90 -45zM395 538
l-24 -19l-110 95l-106 -95l-23 19q54 76 116 168h27q41 -65 120 -168z" />
    <glyph glyph-name="otilde" unicode="&#xf5;" horiz-adv-x="528" 
d="M268 456q100 0 160 -68q59 -64 59 -162q0 -103 -67 -173q-65 -65 -151 -65q-100 0 -162 64q-66 68 -66 171q0 124 98 193q57 40 129 40zM272 22q57 0 85 41q34 49 34 155q0 101 -43 159q-37 47 -90 47q-55 0 -88 -45t-33 -142q0 -110 45 -170q36 -45 90 -45zM397 661
l25 -8q-6 -37 -29.5 -69t-66.5 -32q-30 0 -80 23q-43 18 -62 18q-21 0 -32.5 -10t-22.5 -35l-25 9q7 42 31 69.5t64 27.5q28 0 80 -21q43 -19 62 -19t32 9t24 38z" />
    <glyph glyph-name="odieresis" unicode="&#xf6;" horiz-adv-x="528" 
d="M268 456q100 0 160 -68q59 -64 59 -162q0 -103 -67 -173q-65 -65 -151 -65q-100 0 -162 64q-66 68 -66 171q0 124 98 193q57 40 129 40zM272 22q57 0 85 41q34 49 34 155q0 101 -43 159q-37 47 -90 47q-55 0 -88 -45t-33 -142q0 -110 45 -170q36 -45 90 -45zM173 658
q21 0 34 -15t13 -36q0 -24 -14.5 -36.5t-34.5 -12.5q-17 0 -31.5 13.5t-14.5 35.5q0 21 13.5 36t34.5 15zM353 657q22 0 35 -15t13 -35q0 -19 -14 -34t-35 -15q-19 0 -33.5 14t-14.5 34q0 24 14.5 37.5t34.5 13.5z" />
    <glyph glyph-name="divide" unicode="&#xf7;" horiz-adv-x="636" 
d="M319 365q-19 0 -36 14.5t-17 40.5q0 24 15 39.5t38 15.5q22 0 37.5 -15.5t15.5 -39.5q0 -25 -16.5 -40t-36.5 -15zM319 4q-18 0 -35.5 14.5t-17.5 39.5q0 24 15 40t38 16q22 0 37.5 -16t15.5 -39q0 -25 -17.5 -40t-35.5 -15zM561 213h-486v59h486v-59z" />
    <glyph glyph-name="oslash" unicode="&#xf8;" horiz-adv-x="528" 
d="M443 458l-35 -51q78 -67 78 -184q0 -101 -62.5 -170t-160.5 -69q-69 0 -122 36l-42 -61l-26 20l43 61q-75 69 -75 179q0 106 65.5 171.5t159.5 65.5q67 0 117 -32l36 52zM155 97l197 283q-34 46 -93 46q-54 0 -89.5 -53t-35.5 -147q0 -79 21 -129zM369 351l-197 -285
q35 -51 101 -51q53 0 87 50t34 147q0 83 -25 139z" />
    <glyph glyph-name="ugrave" unicode="&#xf9;" horiz-adv-x="529" 
d="M506 37v-28q-122 -15 -142 -21l-4 5q-1 8 -1.5 26.5t-0.5 27.5q-74 -59 -145 -59q-53 0 -91 36.5t-38 103.5v248q0 27 -60 39v29q110 0 147 9q-5 -75 -5 -115v-216q0 -33 27.5 -57t66.5 -24q48 0 73 19q14 10 19.5 23t5.5 40v251q0 9 -3 14.5t-21 13.5t-52 13l4 29
q120 0 159 6q-4 -36 -4 -158v-220q0 -22 14 -27q14 -6 51 -8zM292 530l-21 -13l-153 152l2 13q13 5 49.5 10.5t43.5 3.5z" />
    <glyph glyph-name="uacute" unicode="&#xfa;" horiz-adv-x="529" 
d="M506 37v-28q-122 -15 -142 -21l-4 5q-1 8 -1.5 26.5t-0.5 27.5q-74 -59 -145 -59q-53 0 -91 36.5t-38 103.5v248q0 27 -60 39v29q110 0 147 9q-5 -75 -5 -115v-216q0 -33 27.5 -57t66.5 -24q48 0 73 19q14 10 19.5 23t5.5 40v251q0 9 -3 14.5t-21 13.5t-52 13l4 29
q120 0 159 6q-4 -36 -4 -158v-220q0 -22 14 -27q14 -6 51 -8zM229 517l-23 16l102 163q5 2 36 -7t48 -16l-1 -11z" />
    <glyph glyph-name="ucircumflex" unicode="&#xfb;" horiz-adv-x="529" 
d="M506 37v-28q-122 -15 -142 -21l-4 5q-1 8 -1.5 26.5t-0.5 27.5q-74 -59 -145 -59q-53 0 -91 36.5t-38 103.5v248q0 27 -60 39v29q110 0 147 9q-5 -75 -5 -115v-216q0 -33 27.5 -57t66.5 -24q48 0 73 19q14 10 19.5 23t5.5 40v251q0 9 -3 14.5t-21 13.5t-52 13l4 29
q120 0 159 6q-4 -36 -4 -158v-220q0 -22 14 -27q14 -6 51 -8zM383 538l-24 -19l-110 95l-106 -95l-23 19q26 36 117 168h26q41 -65 120 -168z" />
    <glyph glyph-name="udieresis" unicode="&#xfc;" horiz-adv-x="529" 
d="M506 37v-28q-122 -15 -142 -21l-4 5q-1 8 -1.5 26.5t-0.5 27.5q-74 -59 -145 -59q-53 0 -91 36.5t-38 103.5v248q0 27 -60 39v29q110 0 147 9q-5 -75 -5 -115v-216q0 -33 27.5 -57t66.5 -24q48 0 73 19q14 10 19.5 23t5.5 40v251q0 9 -3 14.5t-21 13.5t-52 13l4 29
q120 0 159 6q-4 -36 -4 -158v-220q0 -22 14 -27q14 -6 51 -8zM159 658q21 0 34 -15t13 -36q0 -24 -14.5 -36.5t-34.5 -12.5q-17 0 -31.5 13.5t-14.5 35.5q0 21 13.5 36t34.5 15zM339 657q22 0 35 -15t13 -35q0 -19 -14 -34t-35 -15q-19 0 -33.5 14t-14.5 34q0 24 14.5 37.5
t34.5 13.5z" />
    <glyph glyph-name="yacute" unicode="&#xfd;" horiz-adv-x="476" 
d="M-7 414v30h218v-30q-35 -3 -45 -5q-23 -5 -14 -29q70 -186 112 -281q51 138 94 268q12 34 -14 40q-17 4 -55 7v30h180v-30q-22 -4 -31 -7t-19 -13t-18 -29q-36 -87 -122 -323q-12 -31 -29 -81t-23 -66q-28 -77 -55 -109t-65 -32q-22 0 -39.5 15.5t-17.5 36.5
q0 25 16.5 44t33.5 19q9 0 34 -20q13 -11 22 -11q11 0 25 31q18 44 41 121q-5 18 -69.5 177.5t-86.5 206.5q-8 17 -20 25.5t-19.5 9.5t-33.5 5zM231 517l-23 16l102 163q5 2 36 -7t48 -16l-1 -11z" />
    <glyph glyph-name="thorn" unicode="&#xfe;" horiz-adv-x="525" 
d="M251 -232h-250v30q52 2 63.5 11t13.5 44q2 46 2 143v575q0 43 -4 54q-5 22 -65 34v25q94 4 153 24l3 -2q-5 -42 -5 -86v-216q71 49 141 49q65 0 115 -50q66 -64 66 -165q0 -109 -72 -183q-67 -67 -160 -67q-42 0 -90 13q0 -129 1 -149q2 -34 15.5 -43t72.5 -11v-30z
M162 300v-163q0 -46 9 -62q16 -25 44.5 -39t55.5 -14q50 0 83 50q38 53 38 145q0 87 -36 137q-37 52 -94 52q-38 0 -64 -13q-23 -13 -29.5 -30.5t-6.5 -62.5z" />
    <glyph glyph-name="ydieresis" unicode="&#xff;" horiz-adv-x="476" 
d="M-7 414v30h218v-30q-35 -3 -45 -5q-23 -5 -14 -29q70 -186 112 -281q51 138 94 268q12 34 -14 40q-17 4 -55 7v30h180v-30q-22 -4 -31 -7t-19 -13t-18 -29q-36 -87 -122 -323q-12 -31 -29 -81t-23 -66q-28 -77 -55 -109t-65 -32q-22 0 -39.5 15.5t-17.5 36.5
q0 25 16.5 44t33.5 19q9 0 34 -20q13 -11 22 -11q11 0 25 31q18 44 41 121q-5 18 -69.5 177.5t-86.5 206.5q-8 17 -20 25.5t-19.5 9.5t-33.5 5zM154 658q21 0 34 -15t13 -36q0 -24 -14.5 -36.5t-34.5 -12.5q-17 0 -31.5 13.5t-14.5 35.5q0 21 13.5 36t34.5 15zM334 657
q22 0 35 -15t13 -35q0 -19 -14 -34t-35 -15q-19 0 -33.5 14t-14.5 34q0 24 14.5 37.5t34.5 13.5z" />
    <glyph glyph-name="Amacron" unicode="&#x100;" horiz-adv-x="675" 
d="M-6 0v30q54 6 75 17t37 51q117 300 194 503q7 18 5 44h72q1 -4 8 -25q27 -69 71 -188.5t82.5 -225.5t44.5 -121q12 -31 32 -41t65 -14v-30h-265v30q38 4 51 7q28 8 18 37q-31 92 -58 162h-224q-46 -126 -52 -146q-7 -26 -0.5 -37t28.5 -15q35 -6 53 -8v-30h-237zM214 273
h200l-98 277q-81 -217 -102 -277zM213 768h265v-55h-265v55z" />
    <glyph glyph-name="amacron" unicode="&#x101;" horiz-adv-x="447" 
d="M429 60v-27q-20 -23 -47.5 -35.5t-44.5 -12.5q-47 0 -61 59q-79 -59 -128 -59q-37 0 -66 31.5t-29 77.5q0 34 17 54t54 39q39 20 155 69q0 75 -1 82q-2 22 -25.5 46t-58.5 24q-9 0 -28 -9t-33 -20q-12 -9 -12 -14q0 -3 4 -11q14 -25 14 -38q0 -14 -16 -30t-36 -16
q-17 0 -31 15t-14 36q0 27 44 59q51 37 92 56.5t58 19.5q68 0 104 -62q17 -26 17 -88q0 -20 -1.5 -117.5t-1.5 -127.5q0 -18 24 -18q25 0 51 17zM278 228q-83 -36 -101 -48q-21 -14 -31 -27.5t-10 -37.5q0 -36 24 -60q16 -16 41 -16q32 0 56 21q17 14 18 41q3 58 3 127z
M91 626h248v-54h-248v54z" />
    <glyph glyph-name="Abreve" unicode="&#x102;" horiz-adv-x="675" 
d="M-6 0v30q54 6 75 17t37 51q117 300 194 503q7 18 5 44h72q1 -4 8 -25q27 -69 71 -188.5t82.5 -225.5t44.5 -121q12 -31 32 -41t65 -14v-30h-265v30q38 4 51 7q28 8 18 37q-31 92 -58 162h-224q-46 -126 -52 -146q-7 -26 -0.5 -37t28.5 -15q35 -6 53 -8v-30h-237zM214 273
h200l-98 277q-81 -217 -102 -277zM477 823l26 -10q-20 -56 -63 -88t-103 -32q-65 0 -104 34.5t-52 85.5l26 10q17 -28 45.5 -44.5t87.5 -16.5q44 0 72.5 10t39 20t25.5 31z" />
    <glyph glyph-name="abreve" unicode="&#x103;" horiz-adv-x="447" 
d="M429 60v-27q-20 -23 -47.5 -35.5t-44.5 -12.5q-47 0 -61 59q-79 -59 -128 -59q-37 0 -66 31.5t-29 77.5q0 34 17 54t54 39q39 20 155 69q0 75 -1 82q-2 22 -25.5 46t-58.5 24q-9 0 -28 -9t-33 -20q-12 -9 -12 -14q0 -3 4 -11q14 -25 14 -38q0 -14 -16 -30t-36 -16
q-17 0 -31 15t-14 36q0 27 44 59q51 37 92 56.5t58 19.5q68 0 104 -62q17 -26 17 -88q0 -20 -1.5 -117.5t-1.5 -127.5q0 -18 24 -18q25 0 51 17zM278 228q-83 -36 -101 -48q-21 -14 -31 -27.5t-10 -37.5q0 -36 24 -60q16 -16 41 -16q32 0 56 21q17 14 18 41q3 58 3 127z
M338 679l26 -5q-14 -60 -51 -96.5t-97 -36.5q-62 0 -97.5 36.5t-44.5 96.5l29 5q29 -70 117 -70q84 0 118 70z" />
    <glyph glyph-name="Aogonek" unicode="&#x104;" horiz-adv-x="675" 
d="M680 0h-96q-65 -66 -65 -123q0 -25 14 -39t37 -14q31 0 62 23l10 -23q-19 -31 -50 -46.5t-61 -15.5q-41 0 -64.5 24t-23.5 59q0 69 109 155h-137v30q38 4 51 7q28 8 18 37q-31 92 -58 162h-224q-46 -126 -52 -146q-7 -26 -0.5 -37t28.5 -15q35 -6 53 -8v-30h-237v30
q54 6 75 17t37 51q117 300 194 503q7 18 5 44h72q1 -4 8 -25q27 -69 71 -188.5t82.5 -225.5t44.5 -121q12 -31 32 -41t65 -14v-30zM214 273h200l-98 277q-81 -217 -102 -277z" />
    <glyph glyph-name="aogonek" unicode="&#x105;" horiz-adv-x="447" 
d="M421 -156v-22q-38 -60 -108 -60q-40 0 -63 24t-23 59q0 58 111 140h-1q-47 0 -61 59q-79 -59 -128 -59q-37 0 -66 31.5t-29 77.5q0 34 17 54t54 39q39 20 155 69q0 75 -1 82q-2 22 -25.5 46t-58.5 24q-9 0 -28 -9t-33 -20q-12 -9 -12 -14q0 -3 4 -11q14 -25 14 -38
q0 -14 -16 -30t-36 -16q-17 0 -31 15t-14 36q0 27 44 59q51 37 92 56.5t58 19.5q68 0 104 -62q17 -26 17 -88q0 -20 -1.5 -117.5t-1.5 -127.5q0 -18 24 -18q25 0 51 17v-27q-15 -18 -40 -32q-86 -72 -86 -127q0 -50 48 -50q41 0 70 20zM275 101q3 58 3 127q-83 -36 -101 -48
q-21 -14 -31 -27.5t-10 -37.5q0 -36 24 -60q16 -16 41 -16q32 0 56 21q17 14 18 41z" />
    <glyph glyph-name="Cacute" unicode="&#x106;" horiz-adv-x="691" 
d="M627 455l-29 -8q-42 114 -102 150q-45 28 -104 28q-108 0 -168.5 -77.5t-60.5 -216.5q0 -135 62.5 -221.5t182.5 -86.5q34 0 64 11q67 26 138 141l27 -14q-40 -78 -73 -157q-10 -1 -47 -8q-65 -12 -113 -12q-156 0 -252 91t-96 252q0 77 30.5 146.5t89.5 115.5
q92 72 221 72q82 0 150 -29q24 10 37 21h20q0 -69 23 -198zM333 700l-15 21l140 133q11 0 42 -12.5t42 -19.5l-1 -16z" />
    <glyph glyph-name="cacute" unicode="&#x107;" horiz-adv-x="448" 
d="M410 104l17 -19q-66 -97 -176 -97q-97 0 -155 66q-55 61 -55 162q0 116 92 190q61 50 147 50q67 0 102 -23t35 -47q0 -19 -14 -35t-33 -16t-40 24q-7 8 -19 28t-18 26q-9 10 -39 10q-33 0 -63 -24q-56 -44 -56 -161q0 -91 41 -146q40 -52 101 -52q81 0 133 64zM231 517
l-22 16l101 163q6 2 37 -7t48 -16l-1 -11z" />
    <glyph glyph-name="Ccircumflex" unicode="&#x108;" horiz-adv-x="691" 
d="M627 455l-29 -8q-42 114 -102 150q-45 28 -104 28q-108 0 -168.5 -77.5t-60.5 -216.5q0 -135 62.5 -221.5t182.5 -86.5q34 0 64 11q67 26 138 141l27 -14q-40 -78 -73 -157q-10 -1 -47 -8q-65 -12 -113 -12q-156 0 -252 91t-96 252q0 77 30.5 146.5t89.5 115.5
q92 72 221 72q82 0 150 -29q24 10 37 21h20q0 -69 23 -198zM545 734l-15 -26q-18 7 -71.5 30t-75.5 32q-14 -6 -46 -19.5t-59 -24.5t-44 -18l-12 26q57 35 150 114h25q105 -85 148 -114z" />
    <glyph glyph-name="ccircumflex" unicode="&#x109;" horiz-adv-x="448" 
d="M410 104l17 -19q-66 -97 -176 -97q-97 0 -155 66q-55 61 -55 162q0 116 92 190q61 50 147 50q67 0 102 -23t35 -47q0 -19 -14 -35t-33 -16t-40 24q-7 8 -19 28t-18 26q-9 10 -39 10q-33 0 -63 -24q-56 -44 -56 -161q0 -91 41 -146q40 -52 101 -52q81 0 133 64zM389 538
l-24 -19l-110 95l-106 -95l-23 19q73 102 117 168h26q41 -65 120 -168z" />
    <glyph glyph-name="Cdotaccent" unicode="&#x10a;" horiz-adv-x="691" 
d="M627 455l-29 -8q-42 114 -102 150q-45 28 -104 28q-108 0 -168.5 -77.5t-60.5 -216.5q0 -135 62.5 -221.5t182.5 -86.5q34 0 64 11q67 26 138 141l27 -14q-40 -78 -73 -157q-10 -1 -47 -8q-65 -12 -113 -12q-156 0 -252 91t-96 252q0 77 30.5 146.5t89.5 115.5
q92 72 221 72q82 0 150 -29q24 10 37 21h20q0 -69 23 -198zM328 777q0 20 14.5 38t39.5 18q22 0 36 -17t14 -39q0 -23 -14.5 -38.5t-36.5 -15.5q-25 0 -39 16.5t-14 37.5z" />
    <glyph glyph-name="cdotaccent" unicode="&#x10b;" horiz-adv-x="448" 
d="M410 104l17 -19q-66 -97 -176 -97q-97 0 -155 66q-55 61 -55 162q0 116 92 190q61 50 147 50q67 0 102 -23t35 -47q0 -19 -14 -35t-33 -16t-40 24q-7 8 -19 28t-18 26q-9 10 -39 10q-33 0 -63 -24q-56 -44 -56 -161q0 -91 41 -146q40 -52 101 -52q81 0 133 64zM198 605
q0 21 14.5 39.5t40.5 18.5q23 0 37.5 -17.5t14.5 -40.5q0 -24 -15 -40t-38 -16q-25 0 -39.5 17t-14.5 39z" />
    <glyph glyph-name="Ccaron" unicode="&#x10c;" horiz-adv-x="691" 
d="M627 455l-29 -8q-42 114 -102 150q-45 28 -104 28q-108 0 -168.5 -77.5t-60.5 -216.5q0 -135 62.5 -221.5t182.5 -86.5q34 0 64 11q67 26 138 141l27 -14q-40 -78 -73 -157q-10 -1 -47 -8q-65 -12 -113 -12q-156 0 -252 91t-96 252q0 77 30.5 146.5t89.5 115.5
q92 72 221 72q82 0 150 -29q24 10 37 21h20q0 -69 23 -198zM218 828l14 26q23 -9 77 -32.5t71 -30.5q112 49 148 63l12 -26q-64 -41 -149 -115h-26q-100 84 -147 115z" />
    <glyph glyph-name="ccaron" unicode="&#x10d;" horiz-adv-x="448" 
d="M410 104l17 -19q-66 -97 -176 -97q-97 0 -155 66q-55 61 -55 162q0 116 92 190q61 50 147 50q67 0 102 -23t35 -47q0 -19 -14 -35t-33 -16t-40 24q-7 8 -19 28t-18 26q-9 10 -39 10q-33 0 -63 -24q-56 -44 -56 -161q0 -91 41 -146q40 -52 101 -52q81 0 133 64zM123 699
l24 19l110 -94l106 94l23 -19q-50 -69 -116 -167h-27q-42 65 -120 167z" />
    <glyph glyph-name="Dcaron" unicode="&#x10e;" horiz-adv-x="722" 
d="M221 553v-419q0 -66 9 -73q29 -28 103 -28q99 0 161 77q68 84 68 217q0 163 -97 238q-61 48 -152 48q-69 0 -85 -14q-7 -7 -7 -46zM34 0v30q58 3 76 15t18 46v463q0 33 -19 45.5t-75 15.5v30h283q126 0 202 -40q73 -38 110.5 -108.5t37.5 -158.5q0 -143 -92 -236
q-46 -47 -114 -74.5t-148 -27.5h-279zM164 811l14 26q23 -9 77 -32.5t71 -30.5q112 49 148 63l12 -26q-64 -41 -149 -115h-26q-100 84 -147 115z" />
    <glyph glyph-name="dcaron" unicode="&#x10f;" horiz-adv-x="553" 
d="M368 116v195q0 39 -4.5 53.5t-18.5 29.5q-30 29 -82 29q-49 0 -79 -30q-47 -47 -47 -161q0 -104 45 -158q36 -42 91 -42q40 0 66 17q29 19 29 67zM514 35v-28q-110 -13 -136 -20l-5 3q-5 20 -5 44q-73 -46 -140 -46q-76 0 -129 59q-58 65 -58 165q0 127 100 199
q64 45 146 45q38 0 81 -10q0 167 -3 178q-9 22 -74 36v26q96 4 159 28l5 -2q-5 -57 -5 -84v-528q0 -43 9 -49q16 -14 55 -16zM550 469h-27q-1 10 -11 96.5t-14 111.5v18q18 7 39 7q23 0 40 -5v-19q-2 -14 -7.5 -62.5t-11 -89t-8.5 -57.5z" />
    <glyph glyph-name="Dcroat" unicode="&#x110;" horiz-adv-x="722" 
d="M34 645h283q126 0 202 -40q73 -38 110.5 -108.5t37.5 -158.5q0 -143 -92 -236q-46 -47 -114 -74.5t-148 -27.5h-279v30q58 3 76 15t18 46v224h-89v41h89v198q0 33 -19 45.5t-75 15.5v30zM221 315v-181q0 -66 9 -73q29 -28 103 -28q99 0 161 77q68 84 68 217
q0 163 -97 238q-61 48 -152 48q-69 0 -85 -14q-7 -7 -7 -46v-197h170v-41h-170z" />
    <glyph glyph-name="dcroat" unicode="&#x111;" horiz-adv-x="536" 
d="M450 530v-430q0 -43 9 -49q16 -14 55 -16v-28q-110 -13 -136 -20l-5 3q-5 20 -5 44q-73 -46 -140 -46q-76 0 -129 59q-58 65 -58 165q0 127 100 199q64 45 146 45q38 0 81 -10v84h-146v36h146q0 48 -3 58q-9 22 -74 36v26q96 4 159 28l5 -2q-5 -57 -5 -84v-62h53v-36h-53
zM368 116v195q0 39 -4.5 53.5t-18.5 29.5q-30 29 -82 29q-49 0 -79 -30q-47 -47 -47 -161q0 -104 45 -158q36 -42 91 -42q40 0 66 17q29 19 29 67z" />
    <glyph glyph-name="Emacron" unicode="&#x112;" horiz-adv-x="627" 
d="M401 0h-377v30q66 3 85 14t19 47v463q0 37 -19 47t-75 14v30h358q99 0 131 6q4 -75 26 -171l-27 -8q-49 106 -93 129q-16 9 -61 9h-118q-18 0 -23.5 -8t-5.5 -33v-221h100q45 0 60 22t24 85h30q-4 -70 -4 -124q0 -47 4 -129h-31q-7 34 -9 44t-8.5 28.5t-13.5 23t-20 9
t-32 4.5h-100v-204q0 -47 15.5 -59.5t69.5 -12.5h71q41 0 57 3t34 14q51 33 106 143l28 -10q-11 -27 -30.5 -89.5t-27.5 -99.5q-76 4 -143 4zM180 778h265v-55h-265v55z" />
    <glyph glyph-name="emacron" unicode="&#x113;" horiz-adv-x="463" 
d="M406 105l17 -19q-64 -98 -181 -98q-48 0 -89.5 21t-66.5 56q-45 61 -45 151q0 65 26.5 118.5t70.5 85.5q48 36 115 36q82 0 127 -51t45 -115q0 -38 -9 -39q-27 -3 -283 -3q-1 -8 -1 -17q0 -102 47 -152q37 -40 97 -40q76 0 130 66zM135 278q122 0 175 3q19 1 24.5 9
t5.5 27q0 38 -24.5 73.5t-73.5 35.5q-40 0 -70.5 -37.5t-36.5 -110.5zM119 626h248v-54h-248v54z" />
    <glyph glyph-name="Ebreve" unicode="&#x114;" horiz-adv-x="627" 
d="M401 0h-377v30q66 3 85 14t19 47v463q0 37 -19 47t-75 14v30h358q99 0 131 6q4 -75 26 -171l-27 -8q-49 106 -93 129q-16 9 -61 9h-118q-18 0 -23.5 -8t-5.5 -33v-221h100q45 0 60 22t24 85h30q-4 -70 -4 -124q0 -47 4 -129h-31q-7 34 -9 44t-8.5 28.5t-13.5 23t-20 9
t-32 4.5h-100v-204q0 -47 15.5 -59.5t69.5 -12.5h71q41 0 57 3t34 14q51 33 106 143l28 -10q-11 -27 -30.5 -89.5t-27.5 -99.5q-76 4 -143 4zM444 838l26 -10q-20 -56 -62.5 -88t-102.5 -32q-65 0 -104.5 34.5t-52.5 85.5l26 10q17 -28 46 -44.5t88 -16.5q43 0 71.5 10
t39 20t25.5 31z" />
    <glyph glyph-name="ebreve" unicode="&#x115;" horiz-adv-x="464" 
d="M406 105l17 -19q-64 -98 -181 -98q-48 0 -89.5 21t-66.5 56q-45 61 -45 151q0 65 26.5 118.5t70.5 85.5q48 36 115 36q82 0 127 -51t45 -115q0 -38 -9 -39q-27 -3 -283 -3q-1 -8 -1 -17q0 -102 47 -152q37 -40 97 -40q76 0 130 66zM135 278q122 0 175 3q19 1 24.5 9
t5.5 27q0 38 -24.5 73.5t-73.5 35.5q-40 0 -70.5 -37.5t-36.5 -110.5zM359 679l26 -5q-14 -60 -51 -96.5t-97 -36.5q-62 0 -97.5 36.5t-44.5 96.5l29 5q29 -70 117 -70q84 0 118 70z" />
    <glyph glyph-name="Edotaccent" unicode="&#x116;" horiz-adv-x="627" 
d="M401 0h-377v30q66 3 85 14t19 47v463q0 37 -19 47t-75 14v30h358q99 0 131 6q4 -75 26 -171l-27 -8q-49 106 -93 129q-16 9 -61 9h-118q-18 0 -23.5 -8t-5.5 -33v-221h100q45 0 60 22t24 85h30q-4 -70 -4 -124q0 -47 4 -129h-31q-7 34 -9 44t-8.5 28.5t-13.5 23t-20 9
t-32 4.5h-100v-204q0 -47 15.5 -59.5t69.5 -12.5h71q41 0 57 3t34 14q51 33 106 143l28 -10q-11 -27 -30.5 -89.5t-27.5 -99.5q-76 4 -143 4zM262 770q0 20 14.5 38t39.5 18q22 0 36 -17t14 -39q0 -23 -14.5 -38.5t-36.5 -15.5q-25 0 -39 16.5t-14 37.5z" />
    <glyph glyph-name="edotaccent" unicode="&#x117;" horiz-adv-x="464" 
d="M406 105l17 -19q-64 -98 -181 -98q-48 0 -89.5 21t-66.5 56q-45 61 -45 151q0 65 26.5 118.5t70.5 85.5q48 36 115 36q82 0 127 -51t45 -115q0 -38 -9 -39q-27 -3 -283 -3q-1 -8 -1 -17q0 -102 47 -152q37 -40 97 -40q76 0 130 66zM135 278q122 0 175 3q19 1 24.5 9
t5.5 27q0 38 -24.5 73.5t-73.5 35.5q-40 0 -70.5 -37.5t-36.5 -110.5zM185 605q0 21 14.5 39.5t40.5 18.5q23 0 37.5 -17.5t14.5 -40.5q0 -24 -15 -40t-38 -16q-25 0 -39.5 17t-14.5 39z" />
    <glyph glyph-name="Eogonek" unicode="&#x118;" horiz-adv-x="627" 
d="M574 195l28 -10q-11 -27 -30.5 -89.5t-27.5 -99.5q-4 0 -46 2q-63 -65 -63 -121q0 -25 14 -39t37 -14q31 0 62 23l10 -23q-19 -31 -50 -46.5t-61 -15.5q-41 0 -64.5 24t-23.5 59q0 68 108 154q-21 1 -66 1h-377v30q66 3 85 14t19 47v463q0 37 -19 47t-75 14v30h358
q99 0 131 6q4 -75 26 -171l-27 -8q-49 106 -93 129q-16 9 -61 9h-118q-18 0 -23.5 -8t-5.5 -33v-221h100q45 0 60 22t24 85h30q-4 -70 -4 -124q0 -47 4 -129h-31q-7 34 -9 44t-8.5 28.5t-13.5 23t-20 9t-32 4.5h-100v-204q0 -47 15.5 -59.5t69.5 -12.5h71q41 0 57 3t34 14
q51 33 106 143z" />
    <glyph glyph-name="eogonek" unicode="&#x119;" horiz-adv-x="463" 
d="M390 -148v-23q-42 -61 -108 -61q-41 0 -64 23.5t-23 60.5q0 61 100 142q-24 -6 -53 -6q-48 0 -89.5 21t-66.5 56q-45 61 -45 151q0 65 26.5 118.5t70.5 85.5q48 36 115 36q82 0 127 -51t45 -115q0 -38 -9 -39q-27 -3 -283 -3q-1 -8 -1 -17q0 -102 47 -152q37 -40 97 -40
q76 0 130 66l17 -19q-32 -49 -75 -72q-76 -73 -76 -132q0 -52 47 -52q43 0 71 22zM242 426q-40 0 -70.5 -37.5t-36.5 -110.5q122 0 175 3q19 1 24.5 9t5.5 27q0 38 -24.5 73.5t-73.5 35.5z" />
    <glyph glyph-name="Ecaron" unicode="&#x11a;" horiz-adv-x="627" 
d="M401 0h-377v30q66 3 85 14t19 47v463q0 37 -19 47t-75 14v30h358q99 0 131 6q4 -75 26 -171l-27 -8q-49 106 -93 129q-16 9 -61 9h-118q-18 0 -23.5 -8t-5.5 -33v-221h100q45 0 60 22t24 85h30q-4 -70 -4 -124q0 -47 4 -129h-31q-7 34 -9 44t-8.5 28.5t-13.5 23t-20 9
t-32 4.5h-100v-204q0 -47 15.5 -59.5t69.5 -12.5h71q41 0 57 3t34 14q51 33 106 143l28 -10q-11 -27 -30.5 -89.5t-27.5 -99.5q-76 4 -143 4zM149 814l14 26q24 -10 78.5 -33.5t69.5 -29.5q111 49 149 63l11 -26q-53 -34 -149 -115h-25q-112 91 -148 115z" />
    <glyph glyph-name="ecaron" unicode="&#x11b;" horiz-adv-x="463" 
d="M406 105l17 -19q-64 -98 -181 -98q-48 0 -89.5 21t-66.5 56q-45 61 -45 151q0 65 26.5 118.5t70.5 85.5q48 36 115 36q82 0 127 -51t45 -115q0 -38 -9 -39q-27 -3 -283 -3q-1 -8 -1 -17q0 -102 47 -152q37 -40 97 -40q76 0 130 66zM135 278q122 0 175 3q19 1 24.5 9
t5.5 27q0 38 -24.5 73.5t-73.5 35.5q-40 0 -70.5 -37.5t-36.5 -110.5zM107 692l24 19l110 -94l106 94l23 -19q-50 -69 -116 -167h-27q-42 65 -120 167z" />
    <glyph glyph-name="Gcircumflex" unicode="&#x11c;" horiz-adv-x="724" 
d="M676 299v-31q-17 0 -41 -6q-32 -8 -32 -43v-152q0 -10 7 -14t27 -8v-22q-122 -39 -230 -39q-172 0 -265 98q-87 89 -87 245q0 170 128 267q89 67 219 67q80 0 157 -30q13 7 32 20h22q0 -36 8.5 -101.5t15.5 -95.5l-27 -8q-26 61 -50 97t-60 57q-42 26 -107 26
q-100 0 -165.5 -70.5t-65.5 -225.5q0 -149 78 -239q66 -73 169 -73q44 0 72 11q27 13 27 47v140q0 35 -35 44q-23 6 -68 9v30h271zM546 735l-14 -26q-21 8 -74 31t-74 31q-13 -6 -45 -19.5t-59 -24.5t-45 -18l-11 26q63 39 149 114h25q105 -85 148 -114z" />
    <glyph glyph-name="gcircumflex" unicode="&#x11d;" horiz-adv-x="484" 
d="M241 -197q80 0 128 34.5t48 80.5q0 61 -93 61q-128 0 -150 -3q-28 -4 -45 -22q-33 -36 -33 -66q0 -40 39 -61q40 -24 106 -24zM218 427q-27 0 -49 -22q-29 -31 -29 -100q0 -59 19 -92q22 -42 74 -42q37 0 55 26q25 32 25 100q0 130 -95 130zM228 456q52 0 102 -24
q66 40 108 40q25 0 39.5 -11.5t14.5 -26.5q0 -22 -13 -35t-25 -13q-8 0 -24 15q-4 4 -10 9.5t-9.5 9t-7.5 6.5t-7 4.5t-6 1.5q-13 0 -36 -18q45 -51 45 -112q0 -60 -38 -105q-48 -56 -135 -56q-44 0 -71 9q-31 -31 -31 -57q0 -17 18.5 -25.5t38.5 -8.5q11 0 51 1t79 1
q93 -1 130 -47q24 -29 24 -68q0 -77 -79 -137q-78 -55 -193 -55q-61 0 -106 21q-57 31 -57 82q0 50 90 122q-61 31 -61 75q0 23 21.5 53t54.5 54q-39 19 -60.5 55t-21.5 79q0 71 51 117q49 44 124 44zM362 538l-25 -19l-109 95l-106 -95l-23 19q54 76 116 168h27
q41 -65 120 -168z" />
    <glyph glyph-name="Gbreve" unicode="&#x11e;" horiz-adv-x="724" 
d="M676 299v-31q-17 0 -41 -6q-32 -8 -32 -43v-152q0 -10 7 -14t27 -8v-22q-122 -39 -230 -39q-172 0 -265 98q-87 89 -87 245q0 170 128 267q89 67 219 67q80 0 157 -30q13 7 32 20h22q0 -36 8.5 -101.5t15.5 -95.5l-27 -8q-26 61 -50 97t-60 57q-42 26 -107 26
q-100 0 -165.5 -70.5t-65.5 -225.5q0 -149 78 -239q66 -73 169 -73q44 0 72 11q27 13 27 47v140q0 35 -35 44q-23 6 -68 9v30h271zM531 852l26 -10q-20 -57 -62.5 -89t-102.5 -32q-65 0 -105 34.5t-52 86.5l26 10q11 -18 23 -29.5t41 -22t70 -10.5q43 0 71.5 10t39 20.5
t25.5 31.5z" />
    <glyph glyph-name="gbreve" unicode="&#x11f;" horiz-adv-x="484" 
d="M241 -197q80 0 128 34.5t48 80.5q0 61 -93 61q-128 0 -150 -3q-28 -4 -45 -22q-33 -36 -33 -66q0 -40 39 -61q40 -24 106 -24zM218 427q-27 0 -49 -22q-29 -31 -29 -100q0 -59 19 -92q22 -42 74 -42q37 0 55 26q25 32 25 100q0 130 -95 130zM228 456q52 0 102 -24
q66 40 108 40q25 0 39.5 -11.5t14.5 -26.5q0 -22 -13 -35t-25 -13q-8 0 -24 15q-4 4 -10 9.5t-9.5 9t-7.5 6.5t-7 4.5t-6 1.5q-13 0 -36 -18q45 -51 45 -112q0 -60 -38 -105q-48 -56 -135 -56q-44 0 -71 9q-31 -31 -31 -57q0 -17 18.5 -25.5t38.5 -8.5q11 0 51 1t79 1
q93 -1 130 -47q24 -29 24 -68q0 -77 -79 -137q-78 -55 -193 -55q-61 0 -106 21q-57 31 -57 82q0 50 90 122q-61 31 -61 75q0 23 21.5 53t54.5 54q-39 19 -60.5 55t-21.5 79q0 71 51 117q49 44 124 44zM344 679l26 -5q-14 -60 -51 -96.5t-97 -36.5q-62 0 -97.5 36.5
t-44.5 96.5l29 5q29 -70 117 -70q84 0 118 70z" />
    <glyph glyph-name="Gdotaccent" unicode="&#x120;" horiz-adv-x="724" 
d="M676 299v-31q-17 0 -41 -6q-32 -8 -32 -43v-152q0 -10 7 -14t27 -8v-22q-122 -39 -230 -39q-172 0 -265 98q-87 89 -87 245q0 170 128 267q89 67 219 67q80 0 157 -30q13 7 32 20h22q0 -36 8.5 -101.5t15.5 -95.5l-27 -8q-26 61 -50 97t-60 57q-42 26 -107 26
q-100 0 -165.5 -70.5t-65.5 -225.5q0 -149 78 -239q66 -73 169 -73q44 0 72 11q27 13 27 47v140q0 35 -35 44q-23 6 -68 9v30h271zM336 772q0 20 14.5 38t39.5 18q22 0 36 -17t14 -39q0 -23 -14.5 -38.5t-36.5 -15.5q-25 0 -39 16.5t-14 37.5z" />
    <glyph glyph-name="gdotaccent" unicode="&#x121;" horiz-adv-x="484" 
d="M241 -197q80 0 128 34.5t48 80.5q0 61 -93 61q-128 0 -150 -3q-28 -4 -45 -22q-33 -36 -33 -66q0 -40 39 -61q40 -24 106 -24zM218 427q-27 0 -49 -22q-29 -31 -29 -100q0 -59 19 -92q22 -42 74 -42q37 0 55 26q25 32 25 100q0 130 -95 130zM228 456q52 0 102 -24
q66 40 108 40q25 0 39.5 -11.5t14.5 -26.5q0 -22 -13 -35t-25 -13q-8 0 -24 15q-4 4 -10 9.5t-9.5 9t-7.5 6.5t-7 4.5t-6 1.5q-13 0 -36 -18q45 -51 45 -112q0 -60 -38 -105q-48 -56 -135 -56q-44 0 -71 9q-31 -31 -31 -57q0 -17 18.5 -25.5t38.5 -8.5q11 0 51 1t79 1
q93 -1 130 -47q24 -29 24 -68q0 -77 -79 -137q-78 -55 -193 -55q-61 0 -106 21q-57 31 -57 82q0 50 90 122q-61 31 -61 75q0 23 21.5 53t54.5 54q-39 19 -60.5 55t-21.5 79q0 71 51 117q49 44 124 44zM175 605q0 21 14.5 39.5t40.5 18.5q23 0 37.5 -17.5t14.5 -40.5
q0 -24 -15 -40t-38 -16q-25 0 -39.5 17t-14.5 39z" />
    <glyph glyph-name="uni0122" unicode="&#x122;" horiz-adv-x="724" 
d="M676 299v-31q-17 0 -41 -6q-32 -8 -32 -43v-152q0 -10 7 -14t27 -8v-22q-122 -39 -230 -39q-172 0 -265 98q-87 89 -87 245q0 170 128 267q89 67 219 67q80 0 157 -30q13 7 32 20h22q0 -36 8.5 -101.5t15.5 -95.5l-27 -8q-26 61 -50 97t-60 57q-42 26 -107 26
q-100 0 -165.5 -70.5t-65.5 -225.5q0 -149 78 -239q66 -73 169 -73q44 0 72 11q27 13 27 47v140q0 35 -35 44q-23 6 -68 9v30h271zM339 -274l-8 28q74 27 74 64q0 15 -10.5 23.5t-39.5 12.5q-33 7 -33 37q0 17 14 30.5t38 13.5q33 0 58.5 -23.5t25.5 -66.5q0 -49 -35.5 -79
t-83.5 -40z" />
    <glyph glyph-name="uni0123" unicode="&#x123;" horiz-adv-x="484" 
d="M241 -197q80 0 128 34.5t48 80.5q0 61 -93 61q-128 0 -150 -3q-28 -4 -45 -22q-33 -36 -33 -66q0 -40 39 -61q40 -24 106 -24zM218 427q-27 0 -49 -22q-29 -31 -29 -100q0 -59 19 -92q22 -42 74 -42q37 0 55 26q25 32 25 100q0 130 -95 130zM228 456q52 0 102 -24
q66 40 108 40q25 0 39.5 -11.5t14.5 -26.5q0 -22 -13 -35t-25 -13q-8 0 -24 15q-4 4 -10 9.5t-9.5 9t-7.5 6.5t-7 4.5t-6 1.5q-13 0 -36 -18q45 -51 45 -112q0 -60 -38 -105q-48 -56 -135 -56q-44 0 -71 9q-31 -31 -31 -57q0 -17 18.5 -25.5t38.5 -8.5q11 0 51 1t79 1
q93 -1 130 -47q24 -29 24 -68q0 -77 -79 -137q-78 -55 -193 -55q-61 0 -106 21q-57 31 -57 82q0 50 90 122q-61 31 -61 75q0 23 21.5 53t54.5 54q-39 19 -60.5 55t-21.5 79q0 71 51 117q49 44 124 44zM275 735l8 -28q-74 -27 -74 -64q0 -15 10.5 -23.5t39.5 -12.5
q33 -5 33 -36q0 -17 -14 -30.5t-38 -13.5q-33 0 -58.5 23.5t-25.5 66.5q0 49 35.5 78.5t83.5 39.5z" />
    <glyph glyph-name="Hcircumflex" unicode="&#x124;" horiz-adv-x="759" 
d="M315 0h-281v30q56 4 75 15t19 46v463q0 36 -19 47t-75 14v30h281v-30q-56 -3 -75 -14.5t-19 -46.5v-199h317v199q0 35 -20 46.5t-74 14.5v30h280v-30q-27 -2 -40 -4t-27.5 -8t-20 -17.5t-5.5 -31.5v-463q0 -32 18 -45t75 -16v-30h-280v30q55 3 74.5 13.5t19.5 47.5v227
h-317v-227q0 -36 20 -46.5t74 -14.5v-30zM538 722l-15 -26q-23 9 -76 32.5t-71 30.5q-105 -46 -149 -63l-12 26q57 36 150 115h25q112 -91 148 -115z" />
    <glyph glyph-name="hcircumflex" unicode="&#x125;" horiz-adv-x="536" 
d="M247 766l-10 -23q-36 11 -124 48q-113 -43 -125 -48l-11 23q87 64 125 98h24q34 -32 121 -98zM239 0h-214v30q39 3 50.5 10t11.5 27v503q0 42 -5 55q-2 8 -17 18t-41 17v25q78 6 147 31l4 -2q-6 -51 -6 -86v-235q63 63 140 63q60 0 96 -36q43 -44 43 -122v-229
q0 -24 10 -30.5t51 -8.5v-30h-219v30q38 4 48 6q19 4 23.5 20t4.5 82v166q0 48 -28 76q-24 23 -66 23q-55 0 -83 -27q-13 -13 -16.5 -24.5t-3.5 -43.5v-239q0 -26 19 -32q7 -2 51 -7v-30z" />
    <glyph glyph-name="Hbar" unicode="&#x126;" horiz-adv-x="759" 
d="M633 439v-364q0 -26 20 -33q18 -8 75 -14v-28h-285v28q54 4 75 14q19 10 19 33v221h-315v-220q0 -15 4 -21.5t15 -12.5q38 -12 76 -14v-28h-284v28q50 4 73 14q21 12 21 34v363h-81v33h81v96q0 16 -3.5 22t-14.5 13q-38 13 -78 15v27h285v-27q-52 -7 -73 -14
q-11 -4 -16 -10.5t-5 -22.5v-99h315v98v3q0 22 -19 30q-18 6 -76 15v27h285v-27q-50 -6 -75 -14q-19 -9 -19 -32v-100h85v-33h-85zM222 336h315v103h-315v-103z" />
    <glyph glyph-name="hbar" unicode="&#x127;" horiz-adv-x="536" 
d="M448 288v-219q0 -24 10 -30.5t51 -8.5v-30h-219v30q38 4 48 6q19 4 23.5 20t4.5 82v156q0 48 -28 76q-24 23 -66 23q-55 0 -83 -27q-13 -13 -16.5 -24.5t-3.5 -43.5v-229q0 -26 19 -32q7 -2 51 -7v-30h-214v30q39 3 50.5 10t11.5 27v465h-78v36h78v2q0 42 -5 55
q-2 8 -17 18t-41 17v25q78 6 147 31l4 -2q-6 -51 -6 -86v-60h164v-36h-164v-149q63 63 140 63q60 0 96 -36q43 -44 43 -122z" />
    <glyph glyph-name="Itilde" unicode="&#x128;" horiz-adv-x="349" 
d="M314 0h-280v30q56 3 75 13.5t19 47.5v463q0 15 -5 26t-9 16.5t-20 10t-21.5 5t-29.5 2.5q-6 1 -9 1v30h280v-30q-51 -3 -72 -14t-21 -47v-463q0 -35 18.5 -46t74.5 -15v-30zM314 819l26 -7q-6 -36 -31.5 -69t-70.5 -33q-29 0 -83 24q-43 18 -65 18t-34 -10t-24 -36l-26 9
q8 42 34.5 70t71.5 28q26 0 79 -21q46 -19 62 -19q22 0 36 9t25 37z" />
    <glyph glyph-name="itilde" unicode="&#x129;" horiz-adv-x="262" 
d="M234 0h-213v30q47 4 58.5 10t11.5 29v231q0 38 -2.5 49.5t-10.5 18.5q-15 13 -42 27v19q74 12 134 42l6 -5q-3 -48 -3 -92v-289q0 -23 10 -29.5t51 -10.5v-30zM264 661l25 -8q-6 -37 -29.5 -69t-66.5 -32q-30 0 -80 23q-43 18 -62 18q-21 0 -32.5 -10t-22.5 -35l-25 9
q7 42 31 69.5t64 27.5q28 0 80 -21q43 -19 62 -19t32 9t24 38z" />
    <glyph glyph-name="Imacron" unicode="&#x12a;" horiz-adv-x="349" 
d="M314 0h-280v30q56 3 75 13.5t19 47.5v463q0 15 -5 26t-9 16.5t-20 10t-21.5 5t-29.5 2.5q-6 1 -9 1v30h280v-30q-51 -3 -72 -14t-21 -47v-463q0 -35 18.5 -46t74.5 -15v-30zM41 773h265v-55h-265v55z" />
    <glyph glyph-name="imacron" unicode="&#x12b;" horiz-adv-x="262" 
d="M234 0h-213v30q47 4 58.5 10t11.5 29v231q0 38 -2.5 49.5t-10.5 18.5q-15 13 -42 27v19q74 12 134 42l6 -5q-3 -48 -3 -92v-289q0 -23 10 -29.5t51 -10.5v-30zM1 626h248v-54h-248v54z" />
    <glyph glyph-name="Ibreve" unicode="&#x12c;" horiz-adv-x="349" 
d="M314 0h-280v30q56 3 75 13.5t19 47.5v463q0 15 -5 26t-9 16.5t-20 10t-21.5 5t-29.5 2.5q-6 1 -9 1v30h280v-30q-51 -3 -72 -14t-21 -47v-463q0 -35 18.5 -46t74.5 -15v-30zM306 832l26 -10q-20 -56 -62.5 -88t-102.5 -32q-66 0 -105 34.5t-52 85.5l26 10
q17 -28 45.5 -44.5t87.5 -16.5q44 0 72.5 10t39 20t25.5 31z" />
    <glyph glyph-name="ibreve" unicode="&#x12d;" horiz-adv-x="262" 
d="M234 0h-213v30q47 4 58.5 10t11.5 29v231q0 38 -2.5 49.5t-10.5 18.5q-15 13 -42 27v19q74 12 134 42l6 -5q-3 -48 -3 -92v-289q0 -23 10 -29.5t51 -10.5v-30zM243 679l26 -5q-14 -60 -51 -96.5t-97 -36.5q-62 0 -97.5 36.5t-44.5 96.5l29 5q29 -70 117 -70q84 0 118 70z
" />
    <glyph glyph-name="Iogonek" unicode="&#x12e;" horiz-adv-x="349" 
d="M314 645v-30q-51 -3 -72 -14t-21 -47v-463q0 -35 18.5 -46t74.5 -15v-30h-103q-48 -58 -48 -122q0 -25 14 -39.5t36 -14.5q32 0 61 20l11 -19q-41 -63 -110 -63q-40 0 -64 25.5t-24 61.5q0 63 92 151h-145v30q56 3 75 13.5t19 47.5v463q0 15 -5 26t-9 16.5t-20 10
t-21.5 5t-29.5 2.5q-6 1 -9 1v30h280z" />
    <glyph glyph-name="iogonek" unicode="&#x12f;" horiz-adv-x="262" 
d="M124 549q-25 0 -39.5 17t-14.5 39q0 21 14.5 39.5t40.5 18.5q23 0 37.5 -17.5t14.5 -40.5q0 -24 -15 -40t-38 -16zM236 0h-68q-58 -72 -58 -126q0 -50 48 -50q36 0 70 23v-22q-20 -31 -51 -47t-60 -16q-39 0 -61 24t-22 59q0 71 105 155h-117v30q47 4 58.5 10t11.5 29
v231q0 38 -2.5 49.5t-10.5 18.5q-16 15 -42 26v20q74 12 134 42l6 -5q-3 -48 -3 -93v-288q0 -23 10 -29.5t52 -10.5v-30z" />
    <glyph glyph-name="Idotaccent" unicode="&#x130;" horiz-adv-x="349" 
d="M314 0h-280v30q56 3 75 13.5t19 47.5v463q0 15 -5 26t-9 16.5t-20 10t-21.5 5t-29.5 2.5q-6 1 -9 1v30h280v-30q-51 -3 -72 -14t-21 -47v-463q0 -35 18.5 -46t74.5 -15v-30zM121 759q0 20 14.5 38t39.5 18q22 0 36 -17t14 -39q0 -23 -14.5 -38.5t-36.5 -15.5
q-25 0 -39 16.5t-14 37.5z" />
    <glyph glyph-name="dotlessi" unicode="&#x131;" horiz-adv-x="262" 
d="M234 0h-213v30q47 4 58.5 10t11.5 29v231q0 38 -2.5 49.5t-10.5 18.5q-15 13 -42 27v19q74 12 134 42l6 -5q-3 -48 -3 -92v-289q0 -23 10 -29.5t51 -10.5v-30z" />
    <glyph glyph-name="IJ" unicode="&#x132;" horiz-adv-x="717" 
d="M314 0h-280v30q56 3 75 13.5t19 47.5v463q0 15 -5 26t-9 16.5t-20 10t-21.5 5t-29.5 2.5q-6 1 -9 1v30h280v-30q-51 -3 -72 -14t-21 -47v-463q0 -35 18.5 -46t74.5 -15v-30zM410 615v30h280v-30q-48 -2 -67.5 -14.5t-19.5 -46.5v-402q0 -75 -16 -132q-22 -71 -82 -137
q-31 -32 -71.5 -52.5t-66.5 -20.5q-33 0 -59 15t-26 37t17.5 41t34.5 19q12 0 40 -27q26 -26 51 -26t49 29q36 39 36 142v514q0 37 -21 47t-79 14z" />
    <glyph glyph-name="ij" unicode="&#x133;" horiz-adv-x="516" 
d="M235 0h-214v30q47 4 58.5 10t11.5 29v231q0 38 -2.5 49.5t-10.5 18.5q-16 15 -42 26v20q74 12 134 42l6 -5q-3 -48 -3 -93v-288q0 -23 10 -29.5t52 -10.5v-30zM69 605q0 21 14.5 39.5t40.5 18.5q23 0 37.5 -17.5t14.5 -40.5q0 -24 -15 -40t-38 -16q-25 0 -39.5 17
t-14.5 39zM286 389v24q74 10 148 43l6 -5q-3 -38 -3 -101v-289q0 -109 -22 -156q-25 -52 -64.5 -91.5t-66.5 -56.5l-20 22q57 52 73.5 95.5t16.5 107.5v355q0 20 -12 30q-22 15 -56 22zM335 606q0 21 14.5 39t40.5 18q23 0 37.5 -17t14.5 -40q0 -24 -15 -40.5t-38 -16.5
q-25 0 -39.5 17.5t-14.5 39.5z" />
    <glyph glyph-name="Jcircumflex" unicode="&#x134;" horiz-adv-x="368" 
d="M61 615v30h280v-30q-48 -2 -67.5 -14.5t-19.5 -46.5v-402q0 -75 -16 -132q-22 -71 -82 -137q-31 -32 -71.5 -52.5t-66.5 -20.5q-33 0 -59 15t-26 37t17.5 41t34.5 19q12 0 40 -27q26 -26 51 -26t49 29q36 39 36 142v514q0 37 -21 47t-79 14zM364 721l-14 -26
q-21 8 -74 31t-74 31q-13 -6 -45 -19.5t-59 -24.5t-45 -18l-11 26q63 39 149 114h25q105 -85 148 -114z" />
    <glyph glyph-name="jcircumflex" unicode="&#x135;" horiz-adv-x="254" 
d="M24 389v24q74 10 148 43l6 -5q-4 -50 -4 -101v-289q0 -112 -22 -156q-25 -53 -64 -92t-66 -56l-20 22q57 52 73.5 95.5t16.5 107.5v355q0 21 -13 30q-23 17 -55 22zM255 538l-25 -19l-109 95l-107 -95l-23 19q50 68 117 168h27q35 -57 120 -168z" />
    <glyph glyph-name="uni0136" unicode="&#x136;" horiz-adv-x="693" 
d="M315 0h-281v30q55 3 74.5 14t19.5 47v463q0 35 -19.5 46t-74.5 15v30h281v-30q-56 -3 -75 -15t-19 -46v-236q106 80 229 229q26 30 26 45q0 9 -19 14q-17 5 -57 9v30h249v-30q-55 -4 -85.5 -20t-71.5 -60q-24 -25 -79.5 -81t-79.5 -81q-3 -3 0 -10q14 -19 110 -129.5
t134 -150.5q45 -46 126 -53v-30h-281v30q5 1 15.5 2t18 2t11.5 2q19 7 6 27q-14 19 -98 119t-108 125q-5 5 -10 0l-36 -29v-187q0 -36 18.5 -46.5t75.5 -14.5v-30zM301 -261l-8 28q74 27 74 64q0 15 -10.5 23.5t-39.5 12.5q-33 7 -33 37q0 17 14 30.5t38 13.5
q33 0 58.5 -23.5t25.5 -66.5q0 -49 -35.5 -79t-83.5 -40z" />
    <glyph glyph-name="uni0137" unicode="&#x137;" horiz-adv-x="500" 
d="M238 0h-213v30q41 3 51.5 10t10.5 31v499q0 33 -5 53q-3 8 -18.5 19t-40.5 18v25q75 5 148 31l3 -2q-5 -42 -5 -93v-390q60 43 144 129q23 24 23 35q0 8 -17 12q-19 5 -49 7v30h210v-30q-18 -1 -37 -5q-29 -6 -66 -36q-56 -46 -109 -99q-4 -4 0 -7q18 -26 75 -96.5
t87 -104.5q17 -19 34.5 -26.5t52.5 -9.5v-30h-229v30q51 4 51 15q0 5 -12 23q-4 5 -25.5 33.5t-49 64.5t-40.5 54q-4 5 -10 2q-21 -12 -33 -24v-129q0 -21 11.5 -28t57.5 -11v-30zM201 -274l-8 28q74 27 74 64q0 15 -10.5 23.5t-39.5 12.5q-33 7 -33 37q0 17 14 30.5
t38 13.5q33 0 58.5 -23.5t25.5 -66.5q0 -49 -35.5 -79t-83.5 -40z" />
    <glyph glyph-name="kgreenlandic" unicode="&#x138;" horiz-adv-x="493" 
d="M237 0h-217v30q38 4 48 6q21 5 21 31v303q0 20 -10 28t-47 19v23q98 0 143 15q-4 -42 -4 -83v-144q72 51 145 133q23 23 23 33q0 11 -16 13q-38 6 -52 7v30h212v-30q-34 -4 -45 -7q-27 -6 -60 -34q-10 -9 -108 -102q-1 -1 -1.5 -3.5t0.5 -3.5q65 -93 154 -197
q16 -19 34 -27t53 -10v-30h-229v30q7 1 20.5 3t18.5 3q12 2 12 11q0 4 -12 22q-4 6 -23 32t-47 62.5t-39 51.5q-3 5 -10 2l-30 -20v-130q0 -27 22 -31q7 -1 44 -6v-30z" />
    <glyph glyph-name="Lacute" unicode="&#x139;" horiz-adv-x="616" 
d="M362 0h-337v30q65 5 84 15.5t19 46.5v462q0 33 -19 45t-75 16v30h280v-30q-53 -2 -73 -14t-20 -47v-452q0 -39 13 -53t58 -14h80q49 0 77 18q53 31 114 151l28 -11q-37 -94 -64 -196q-66 3 -165 3zM161 685l-16 21l140 133q11 0 42 -12.5t42 -19.5l-1 -16z" />
    <glyph glyph-name="lacute" unicode="&#x13a;" horiz-adv-x="257" 
d="M74 760l114 118q11 -1 33 -15.5t33 -25.5v-13l-164 -84zM233 0h-208v30q42 3 52 11.5t10 34.5v493q0 43 -4 54q-10 25 -61 37v25q70 4 149 31l4 -3q-6 -51 -6 -93v-546q0 -25 11 -33.5t53 -11.5v-29z" />
    <glyph glyph-name="uni013B" unicode="&#x13b;" horiz-adv-x="616" 
d="M362 0h-337v30q65 5 84 15.5t19 46.5v462q0 33 -19 45t-75 16v30h280v-30q-53 -2 -73 -14t-20 -47v-452q0 -39 13 -53t58 -14h80q49 0 77 18q53 31 114 151l28 -11q-37 -94 -64 -196q-66 3 -165 3zM251 -269l-8 28q74 27 74 64q0 15 -10.5 23.5t-39.5 12.5q-33 7 -33 37
q0 17 14 30.5t38 13.5q33 0 58.5 -23.5t25.5 -66.5q0 -49 -35.5 -79t-83.5 -40z" />
    <glyph glyph-name="uni013C" unicode="&#x13c;" horiz-adv-x="257" 
d="M233 0h-208v30q42 3 52 11.5t10 34.5v493q0 43 -4 54q-10 25 -61 37v25q70 4 149 31l4 -3q-6 -51 -6 -93v-546q0 -25 11 -33.5t53 -11.5v-29zM78 -269l-8 28q74 27 74 64q0 15 -10.5 23.5t-39.5 12.5q-33 7 -33 37q0 17 14 30.5t38 13.5q33 0 58.5 -23.5t25.5 -66.5
q0 -49 -35.5 -79t-83.5 -40z" />
    <glyph glyph-name="Lcaron" unicode="&#x13d;" horiz-adv-x="616" 
d="M362 0h-337v30q65 5 84 15.5t19 46.5v462q0 33 -19 45t-75 16v30h280v-30q-53 -2 -73 -14t-20 -47v-452q0 -39 13 -53t58 -14h80q49 0 77 18q53 31 114 151l28 -11q-37 -94 -64 -196q-66 3 -165 3zM502 415h-30q-13 105 -31 220v18q18 8 47 8q30 0 47 -7v-18
q-1 -5 -33 -221z" />
    <glyph glyph-name="lcaron" unicode="&#x13e;" horiz-adv-x="279" 
d="M231 0h-208v30q42 3 52 11.5t10 34.5v493q0 43 -4 54q-10 25 -61 37v25q70 4 149 31l4 -3q-6 -51 -6 -93v-546q0 -25 11 -33.5t53 -11.5v-29zM277 479h-26q-3 22 -12 104t-13 104v18q16 7 38 7q23 0 40 -5v-19q-2 -13 -7.5 -62.5t-10.5 -89.5t-9 -57z" />
    <glyph glyph-name="Ldot" unicode="&#x13f;" horiz-adv-x="616" 
d="M362 0h-337v30q65 5 84 15.5t19 46.5v462q0 33 -19 45t-75 16v30h280v-30q-53 -2 -73 -14t-20 -47v-452q0 -39 13 -53t58 -14h80q49 0 77 18q53 31 114 151l28 -11q-37 -94 -64 -196q-66 3 -165 3zM419 394q0 22 14.5 40t40.5 18q23 0 37.5 -17.5t14.5 -40.5
q0 -24 -15 -40t-38 -16q-25 0 -39.5 17t-14.5 39z" />
    <glyph glyph-name="ldot" unicode="&#x140;" horiz-adv-x="286" 
d="M218 395q0 19 13 35.5t37 16.5q22 0 35 -15.5t13 -36.5q0 -23 -13.5 -37.5t-35.5 -14.5t-35.5 16t-13.5 36zM231 0h-208v30q42 3 52 11.5t10 34.5v493q0 43 -4 54q-10 25 -61 37v25q70 4 149 31l4 -3q-6 -51 -6 -93v-546q0 -25 11 -33.5t53 -11.5v-29z" />
    <glyph glyph-name="Lslash" unicode="&#x141;" horiz-adv-x="616" 
d="M563 204l28 -11q-37 -94 -64 -196q-66 3 -165 3h-337v30q65 5 84 15.5t19 46.5v186l-97 -43v39l97 43v237q0 33 -19 45t-75 16v30h280v-30q-53 -2 -73 -14t-20 -47v-195l156 70v-39l-156 -70v-218q0 -39 13 -53t58 -14h80q49 0 77 18q53 31 114 151z" />
    <glyph glyph-name="lslash" unicode="&#x142;" horiz-adv-x="268" 
d="M257 422l-77 -48v-300q0 -25 11 -33.5t53 -11.5v-29h-208v30q42 3 52 11.5t10 34.5v247l-71 -44v36l71 44v210q0 43 -4 54q-10 25 -61 37v25q70 4 149 31l4 -3q-6 -51 -6 -93v-210l77 48v-36z" />
    <glyph glyph-name="Nacute" unicode="&#x143;" horiz-adv-x="741" 
d="M281 0h-252v30q61 5 80.5 25t19.5 84v399q0 25 -18 43q-16 17 -32.5 22.5t-59.5 11.5v30h163l397 -513v367q0 71 -18.5 90t-94.5 26v30h252v-30q-62 -4 -80 -26.5t-18 -88.5v-401q0 -76 3 -102h-65q-25 37 -63 87l-325 433v-378q0 -65 20.5 -84t90.5 -25v-30zM326 693
l-16 21l140 133q11 0 42 -12.5t42 -19.5l-1 -16z" />
    <glyph glyph-name="nacute" unicode="&#x144;" horiz-adv-x="541" 
d="M240 0h-217v30q45 2 57 10t12 35v230q0 43 -3 53q-5 18 -52 34v21q66 12 133 43l7 -4q-3 -42 -3 -63q67 67 144 67q56 0 92 -36q43 -43 43 -124v-221q0 -27 10.5 -34.5t50.5 -10.5v-30h-219v30q4 0 10 1q40 4 50.5 9.5t13.5 26.5q2 22 2 47v187q0 53 -27 79
q-23 23 -70 23q-19 0 -42 -8.5t-35 -20.5q-15 -14 -19 -26t-4 -46v-227q0 -27 11.5 -34.5t54.5 -10.5v-30zM251 517l-23 16l102 163q5 2 36 -7t48 -16l-1 -11z" />
    <glyph glyph-name="uni0145" unicode="&#x145;" horiz-adv-x="741" 
d="M281 0h-252v30q61 5 80.5 25t19.5 84v399q0 25 -18 43q-16 17 -32.5 22.5t-59.5 11.5v30h163l397 -513v367q0 71 -18.5 90t-94.5 26v30h252v-30q-62 -4 -80 -26.5t-18 -88.5v-401q0 -76 3 -102h-65q-25 37 -63 87l-325 433v-378q0 -65 20.5 -84t90.5 -25v-30zM322 -261
l-8 28q74 27 74 64q0 15 -10.5 23.5t-39.5 12.5q-33 7 -33 37q0 17 14 30.5t38 13.5q33 0 58.5 -23.5t25.5 -66.5q0 -49 -35.5 -79t-83.5 -40z" />
    <glyph glyph-name="uni0146" unicode="&#x146;" horiz-adv-x="541" 
d="M240 0h-217v30q45 2 57 10t12 35v230q0 43 -3 53q-5 18 -52 34v21q66 12 133 43l7 -4q-3 -42 -3 -63q67 67 144 67q56 0 92 -36q43 -43 43 -124v-221q0 -27 10.5 -34.5t50.5 -10.5v-30h-219v30q4 0 10 1q40 4 50.5 9.5t13.5 26.5q2 22 2 47v187q0 53 -27 79
q-23 23 -70 23q-19 0 -42 -8.5t-35 -20.5q-15 -14 -19 -26t-4 -46v-227q0 -27 11.5 -34.5t54.5 -10.5v-30zM217 -270l-8 28q74 27 74 64q0 15 -10.5 23.5t-39.5 12.5q-33 7 -33 37q0 17 14 30.5t38 13.5q33 0 58.5 -23.5t25.5 -66.5q0 -49 -35.5 -79t-83.5 -40z" />
    <glyph glyph-name="Ncaron" unicode="&#x147;" horiz-adv-x="741" 
d="M281 0h-252v30q61 5 80.5 25t19.5 84v399q0 25 -18 43q-16 17 -32.5 22.5t-59.5 11.5v30h163l397 -513v367q0 71 -18.5 90t-94.5 26v30h252v-30q-62 -4 -80 -26.5t-18 -88.5v-401q0 -76 3 -102h-65q-25 37 -63 87l-325 433v-378q0 -65 20.5 -84t90.5 -25v-30zM206 808
l15 26q18 -7 71.5 -30t75.5 -32q14 6 46 19.5t59 24.5t44 18l11 -26q-53 -33 -149 -114h-25q-105 85 -148 114z" />
    <glyph glyph-name="ncaron" unicode="&#x148;" horiz-adv-x="541" 
d="M240 0h-217v30q45 2 57 10t12 35v230q0 43 -3 53q-5 18 -52 34v21q66 12 133 43l7 -4q-3 -42 -3 -63q67 67 144 67q56 0 92 -36q43 -43 43 -124v-221q0 -27 10.5 -34.5t50.5 -10.5v-30h-219v30q4 0 10 1q40 4 50.5 9.5t13.5 26.5q2 22 2 47v187q0 53 -27 79
q-23 23 -70 23q-19 0 -42 -8.5t-35 -20.5q-15 -14 -19 -26t-4 -46v-227q0 -27 11.5 -34.5t54.5 -10.5v-30zM128 711l24 19l110 -94l106 94l23 -19q-30 -42 -117 -167h-26q-42 65 -120 167z" />
    <glyph glyph-name="napostrophe" unicode="&#x149;" horiz-adv-x="541" 
d="M240 0h-217v30q45 2 57 10t12 35v230q0 43 -3 53q-5 18 -52 34v21q66 12 133 43l7 -4q-3 -42 -3 -63q67 67 144 67q56 0 92 -36q43 -43 43 -124v-221q0 -27 10.5 -34.5t50.5 -10.5v-30h-219v30q4 0 10 1q40 4 50.5 9.5t13.5 26.5q2 22 2 47v187q0 53 -27 79
q-23 23 -70 23q-19 0 -42 -8.5t-35 -20.5q-15 -14 -19 -26t-4 -46v-227q0 -27 11.5 -34.5t54.5 -10.5v-30zM62 507l-10 29q67 21 67 55q0 14 -7.5 19.5t-32.5 11.5q-36 9 -36 37q0 20 14.5 32.5t37.5 12.5q29 0 52.5 -22.5t23.5 -62.5q0 -49 -34 -76t-75 -36z" />
    <glyph glyph-name="Eng" unicode="&#x14a;" horiz-adv-x="741" 
d="M281 0h-252v30q32 2 53 9q26 7 36.5 25t10.5 66v408q0 25 -18 43q-17 18 -34.5 25t-57.5 13v26h163l397 -513v382q0 49 -9 66t-37 25q-14 4 -67 10v30h252v-30q-29 0 -51 -8q-29 -9 -38 -26t-9 -66v-475q0 -244 -137 -244q-32 0 -51 15t-19 35q0 25 15.5 43.5t32.5 18.5
q14 0 36 -22q17 -21 36 -21q16 0 27 22t11 64q0 29 -22 60q-6 8 -50.5 67.5t-141.5 188.5t-187 250v-387q0 -50 11.5 -66.5t43.5 -24.5q10 -3 56 -9v-30z" />
    <glyph glyph-name="eng" unicode="&#x14b;" horiz-adv-x="519" 
d="M238 0h-217v30q37 3 49 5q20 4 20 40v225q0 50 -3 60q-4 14 -55 29v24q68 7 135 43l8 -5q-3 -42 -3 -61q72 66 140 66q56 0 89 -36q44 -44 44 -123v-228q0 -77 -18.5 -138t-47.5 -96t-60 -53t-60 -18q-27 0 -43 10.5t-16 26.5q0 17 13 33.5t27 16.5q15 0 38 -13
q19 -12 35 -12q29 0 39.5 44t10.5 173v259q0 50 -28 78q-22 22 -68 22q-40 0 -72 -26q-13 -10 -18 -24t-5 -49v-228q0 -20 3 -27.5t14 -10.5t49 -7v-30z" />
    <glyph glyph-name="Omacron" unicode="&#x14c;" horiz-adv-x="740" 
d="M373 -16q-123 0 -214 81q-103 97 -103 257q0 89 32.5 159.5t88.5 114.5q84 65 189 65q138 0 228 -89.5t90 -243.5q0 -130 -71 -225q-42 -56 -103.5 -87.5t-136.5 -31.5zM385 20q60 0 102 33q90 69 90 261q0 157 -76 248q-54 63 -137 63q-64 0 -106 -32q-95 -72 -95 -248
q0 -150 65 -239q61 -86 157 -86zM236 792h265v-55h-265v55z" />
    <glyph glyph-name="omacron" unicode="&#x14d;" horiz-adv-x="528" 
d="M268 456q100 0 160 -68q59 -64 59 -162q0 -103 -67 -173q-65 -65 -151 -65q-100 0 -162 64q-66 68 -66 171q0 124 98 193q57 40 129 40zM272 22q57 0 85 41q34 49 34 155q0 101 -43 159q-37 47 -90 47q-55 0 -88 -45t-33 -142q0 -110 45 -170q36 -45 90 -45zM138 626h248
v-54h-248v54z" />
    <glyph glyph-name="Obreve" unicode="&#x14e;" horiz-adv-x="740" 
d="M373 -16q-123 0 -214 81q-103 97 -103 257q0 89 32.5 159.5t88.5 114.5q84 65 189 65q138 0 228 -89.5t90 -243.5q0 -130 -71 -225q-42 -56 -103.5 -87.5t-136.5 -31.5zM385 20q60 0 102 33q90 69 90 261q0 157 -76 248q-54 63 -137 63q-64 0 -106 -32q-95 -72 -95 -248
q0 -150 65 -239q61 -86 157 -86zM504 847l26 -10q-20 -56 -63 -88t-103 -32q-65 0 -104 34.5t-52 85.5l25 10q12 -18 24 -29.5t40.5 -21.5t69.5 -10q44 0 72.5 10t38.5 19.5t26 31.5z" />
    <glyph glyph-name="obreve" unicode="&#x14f;" horiz-adv-x="528" 
d="M268 456q100 0 160 -68q59 -64 59 -162q0 -103 -67 -173q-65 -65 -151 -65q-100 0 -162 64q-66 68 -66 171q0 124 98 193q57 40 129 40zM272 22q57 0 85 41q34 49 34 155q0 101 -43 159q-37 47 -90 47q-55 0 -88 -45t-33 -142q0 -110 45 -170q36 -45 90 -45zM381 679
l26 -5q-14 -60 -51 -96.5t-97 -36.5q-62 0 -97.5 36.5t-44.5 96.5l29 5q29 -70 117 -70q84 0 118 70z" />
    <glyph glyph-name="Ohungarumlaut" unicode="&#x150;" horiz-adv-x="740" 
d="M373 -16q-123 0 -214 81q-103 97 -103 257q0 89 32.5 159.5t88.5 114.5q84 65 189 65q138 0 228 -89.5t90 -243.5q0 -130 -71 -225q-42 -56 -103.5 -87.5t-136.5 -31.5zM385 20q60 0 102 33q90 69 90 261q0 157 -76 248q-54 63 -137 63q-64 0 -106 -32q-95 -72 -95 -248
q0 -150 65 -239q61 -86 157 -86zM234 723l85 134q10 2 45 -5t51 -13l1 -12l-158 -121zM416 724l84 133q24 4 98 -18v-12l-159 -121z" />
    <glyph glyph-name="ohungarumlaut" unicode="&#x151;" horiz-adv-x="528" 
d="M268 456q100 0 160 -68q59 -64 59 -162q0 -103 -67 -173q-65 -65 -151 -65q-100 0 -162 64q-66 68 -66 171q0 124 98 193q57 40 129 40zM272 22q57 0 85 41q34 49 34 155q0 101 -43 159q-37 47 -90 47q-55 0 -88 -45t-33 -142q0 -110 45 -170q36 -45 90 -45zM164 528
l-22 14l80 153q7 2 35 -3.5t40 -12.5l1 -10zM326 528l-20 14l80 153q5 2 33.5 -3.5t40.5 -12.5l1 -10z" />
    <glyph glyph-name="OE" unicode="&#x152;" horiz-adv-x="1007" 
d="M508 82v473q0 20 -5 28.5t-20 15.5q-36 17 -91 17q-103 0 -165.5 -69t-62.5 -216q0 -150 66.5 -225.5t172.5 -75.5q56 0 81 11q24 9 24 41zM782 0h-209q-16 0 -70 -2.5t-101 -2.5q-164 0 -255.5 87.5t-91.5 240.5q0 148 98.5 237.5t245.5 89.5q50 0 102 -2.5t72 -2.5h199
q99 0 131 6q4 -75 26 -171l-27 -8q-49 106 -93 129q-16 9 -61 9h-118q-18 0 -23.5 -8t-5.5 -33v-221h101q45 0 60.5 22t24.5 85h28q-4 -70 -4 -124q0 -47 4 -129h-29q-7 34 -9 44t-8.5 28.5t-14 23t-20 9t-32.5 4.5h-101v-204q0 -47 15.5 -59.5t69.5 -12.5h71q41 0 57 3
t34 14q51 33 106 143l28 -10q-11 -27 -30.5 -89.5t-27.5 -99.5q-76 4 -142 4z" />
    <glyph glyph-name="oe" unicode="&#x153;" horiz-adv-x="797" 
d="M270 16q55 0 86.5 48t31.5 148q0 54 -11.5 99.5t-42 79.5t-77.5 34q-54 0 -87 -47t-33 -144q0 -36 7 -72t22 -70t42 -55t62 -21zM746 98l15 -19q-74 -95 -176 -95q-98 0 -153 81q-27 -36 -72 -58.5t-95 -22.5q-101 0 -162.5 66.5t-61.5 169.5q0 107 66.5 171.5
t156.5 64.5q109 0 175 -88q25 38 65 63t87 25q79 0 124 -51.5t45 -115.5q0 -37 -9 -39q-27 -3 -278 -3v-9q0 -110 48 -159q39 -41 92 -41q74 0 133 60zM475 277q117 0 171 3q19 1 24.5 9t5.5 27q0 38 -23.5 74t-72.5 36q-39 0 -68.5 -38t-36.5 -111z" />
    <glyph glyph-name="Racute" unicode="&#x154;" horiz-adv-x="651" 
d="M221 566v-236h51q174 0 174 148q0 136 -148 136q-58 0 -68 -13q-9 -6 -9 -35zM315 0h-281v30q18 1 23 1.5t20.5 3t21 6t14.5 10t12 16.5t3 24v463q0 19 -5.5 31t-20 18t-28 8t-40.5 4v30h267q107 0 159 -24q84 -40 84 -136q0 -125 -146 -166q25 -42 85 -131.5t91 -122.5
q31 -32 90 -35v-30q-23 -1 -100 -1q-62 0 -90 41q-56 76 -141 222q-13 24 -23.5 31t-33.5 7h-55v-209q0 -25 14 -38.5t31 -17t49 -5.5v-30zM246 696l-16 21l140 133q11 0 42 -12.5t42 -19.5l-1 -16z" />
    <glyph glyph-name="racute" unicode="&#x155;" horiz-adv-x="362" 
d="M264 0h-241v30q48 3 58.5 10t10.5 35v224q0 38 -1.5 49.5t-8.5 17.5q-18 16 -47 27v20q26 4 70 18t65 25l8 -4q-5 -29 -7 -73q77 77 135 77q27 0 42 -13.5t15 -34.5q0 -26 -17.5 -43t-34.5 -17q-15 0 -28 14q-15 16 -28 26q-8 6 -16 6q-10 0 -25 -10t-25 -22
q-15 -21 -15 -56v-230q0 -28 12.5 -34.5t59.5 -10.5q11 0 18 -1v-30zM160 517l-23 16l101 163q6 2 37 -7t48 -16l-1 -11z" />
    <glyph glyph-name="uni0156" unicode="&#x156;" horiz-adv-x="651" 
d="M221 566v-236h51q174 0 174 148q0 136 -148 136q-58 0 -68 -13q-9 -6 -9 -35zM315 0h-281v30q18 1 23 1.5t20.5 3t21 6t14.5 10t12 16.5t3 24v463q0 19 -5.5 31t-20 18t-28 8t-40.5 4v30h267q107 0 159 -24q84 -40 84 -136q0 -125 -146 -166q25 -42 85 -131.5t91 -122.5
q31 -32 90 -35v-30q-23 -1 -100 -1q-62 0 -90 41q-56 76 -141 222q-13 24 -23.5 31t-33.5 7h-55v-209q0 -25 14 -38.5t31 -17t49 -5.5v-30zM277 -271l-8 28q74 27 74 64q0 15 -10.5 23.5t-39.5 12.5q-33 7 -33 37q0 17 14 30.5t38 13.5q33 0 58.5 -23.5t25.5 -66.5
q0 -49 -35.5 -79t-83.5 -40z" />
    <glyph glyph-name="uni0157" unicode="&#x157;" horiz-adv-x="362" 
d="M264 0h-241v30q48 3 58.5 10t10.5 35v224q0 38 -1.5 49.5t-8.5 17.5q-18 16 -47 27v20q26 4 70 18t65 25l8 -4q-5 -29 -7 -73q77 77 135 77q27 0 42 -13.5t15 -34.5q0 -26 -17.5 -43t-34.5 -17q-15 0 -28 14q-15 16 -28 26q-8 6 -16 6q-10 0 -25 -10t-25 -22
q-15 -21 -15 -56v-230q0 -28 12.5 -34.5t59.5 -10.5q11 0 18 -1v-30zM86 -261l-8 28q74 27 74 64q0 15 -10.5 23.5t-39.5 12.5q-33 7 -33 37q0 17 14 30.5t38 13.5q33 0 58.5 -23.5t25.5 -66.5q0 -49 -35.5 -79t-83.5 -40z" />
    <glyph glyph-name="Rcaron" unicode="&#x158;" horiz-adv-x="651" 
d="M221 566v-236h51q174 0 174 148q0 136 -148 136q-58 0 -68 -13q-9 -6 -9 -35zM315 0h-281v30q18 1 23 1.5t20.5 3t21 6t14.5 10t12 16.5t3 24v463q0 19 -5.5 31t-20 18t-28 8t-40.5 4v30h267q107 0 159 -24q84 -40 84 -136q0 -125 -146 -166q25 -42 85 -131.5t91 -122.5
q31 -32 90 -35v-30q-23 -1 -100 -1q-62 0 -90 41q-56 76 -141 222q-13 24 -23.5 31t-33.5 7h-55v-209q0 -25 14 -38.5t31 -17t49 -5.5v-30zM132 815l14 26q18 -7 72 -30t76 -32q13 6 45 19.5t59 24.5t45 18l11 -26q-63 -39 -149 -114h-26q-94 78 -147 114z" />
    <glyph glyph-name="rcaron" unicode="&#x159;" horiz-adv-x="362" 
d="M264 0h-241v30q48 3 58.5 10t10.5 35v224q0 38 -1.5 49.5t-8.5 17.5q-18 16 -47 27v20q26 4 70 18t65 25l8 -4q-5 -29 -7 -73q77 77 135 77q27 0 42 -13.5t15 -34.5q0 -26 -17.5 -43t-34.5 -17q-15 0 -28 14q-15 16 -28 26q-8 6 -16 6q-10 0 -25 -10t-25 -22
q-15 -21 -15 -56v-230q0 -28 12.5 -34.5t59.5 -10.5q11 0 18 -1v-30zM45 707l24 19l110 -94l106 94l23 -19q-30 -42 -117 -167h-26q-42 65 -120 167z" />
    <glyph glyph-name="Sacute" unicode="&#x15a;" horiz-adv-x="543" 
d="M57 198l30 7q35 -110 100 -157q37 -27 84 -27q58 0 90 33t32 82q0 48 -29 81t-103 65q-103 45 -141.5 91t-38.5 116q0 68 51.5 120t146.5 52q67 0 125 -28q4 2 29 20h21q-1 -59 23 -198l-28 -7q-18 51 -45 93t-53 60q-35 24 -76 24q-53 0 -81.5 -31t-28.5 -77
q0 -50 27 -81t106 -64q106 -44 145.5 -90t39.5 -117q0 -76 -59 -128t-155 -52q-46 0 -124 20q-20 6 -55 -2q-7 81 -33 195zM230 706l-15 21l140 133q11 0 42 -12.5t41 -19.5v-16z" />
    <glyph glyph-name="sacute" unicode="&#x15b;" horiz-adv-x="367" 
d="M329 311l-30 -6q-18 59 -53 92q-27 27 -68 27q-27 0 -45.5 -19t-18.5 -48q0 -32 20 -52t69 -44q70 -33 98.5 -64t28.5 -79q0 -57 -40.5 -93.5t-105.5 -36.5q-31 0 -89 14q-14 3 -39 -1q-5 60 -26 143l29 9q15 -64 64 -109q28 -25 66 -25q26 0 45.5 15.5t19.5 52.5
q0 30 -20 49.5t-80 49.5t-85.5 62.5t-25.5 80.5q0 55 40 91t107 36q39 0 80 -15q13 4 21 10h16q4 -56 22 -140zM163 518l-23 16l102 163q5 2 36 -7t48 -16l-1 -11z" />
    <glyph glyph-name="Scircumflex" unicode="&#x15c;" horiz-adv-x="543" 
d="M57 198l30 7q35 -110 100 -157q37 -27 84 -27q58 0 90 33t32 82q0 48 -29 81t-103 65q-103 45 -141.5 91t-38.5 116q0 68 51.5 120t146.5 52q67 0 125 -28q4 2 29 20h21q-1 -59 23 -198l-28 -7q-18 51 -45 93t-53 60q-35 24 -76 24q-53 0 -81.5 -31t-28.5 -77
q0 -50 27 -81t106 -64q106 -44 145.5 -90t39.5 -117q0 -76 -59 -128t-155 -52q-46 0 -124 20q-20 6 -55 -2q-7 81 -33 195zM440 729l-14 -26q-23 9 -77 32.5t-71 30.5q-112 -49 -148 -63l-12 26q64 41 149 115h26q97 -81 147 -115z" />
    <glyph glyph-name="scircumflex" unicode="&#x15d;" horiz-adv-x="367" 
d="M329 311l-30 -6q-18 59 -53 92q-27 27 -68 27q-27 0 -45.5 -19t-18.5 -48q0 -32 20 -52t69 -44q70 -33 98.5 -64t28.5 -79q0 -57 -40.5 -93.5t-105.5 -36.5q-31 0 -89 14q-14 3 -39 -1q-5 60 -26 143l29 9q15 -64 64 -109q28 -25 66 -25q26 0 45.5 15.5t19.5 52.5
q0 30 -20 49.5t-80 49.5t-85.5 62.5t-25.5 80.5q0 55 40 91t107 36q39 0 80 -15q13 4 21 10h16q4 -56 22 -140zM321 545l-24 -19l-110 95l-106 -95l-23 19q73 102 117 168h26q41 -65 120 -168z" />
    <glyph glyph-name="uni015E" unicode="&#x15e;" horiz-adv-x="543" 
d="M477 455l-28 -7q-18 51 -45 93t-53 60q-35 24 -76 24q-53 0 -81.5 -31t-28.5 -77q0 -50 27 -81t106 -64q106 -44 145.5 -90t39.5 -117q0 -69 -49.5 -119t-132.5 -59l-28 -34q86 -23 86 -92q0 -34 -26.5 -62t-68.5 -28q-32 0 -55.5 13t-23.5 32q0 10 10.5 20t25.5 11
q3 0 5.5 -1t5.5 -4.5t4.5 -6t6 -9t7.5 -10.5q12 -17 28 -17q13 0 22.5 11t9.5 26q0 60 -109 64l-1 16l63 69q-48 1 -118 20q-20 6 -55 -2q-7 81 -33 195l30 7q35 -110 100 -157q37 -27 84 -27q58 0 90 33t32 82q0 48 -29 81t-103 65q-103 45 -141.5 91t-38.5 116
q0 68 51.5 120t146.5 52q67 0 125 -28q4 2 29 20h21q-1 -59 23 -198z" />
    <glyph glyph-name="uni015F" unicode="&#x15f;" horiz-adv-x="367" 
d="M329 311l-30 -6q-18 59 -53 92q-27 27 -68 27q-27 0 -45.5 -19t-18.5 -48q0 -32 20 -52t69 -44q70 -33 98.5 -64t28.5 -79q0 -51 -34 -86.5t-89 -42.5l-29 -33q92 -27 92 -96q0 -33 -29.5 -60.5t-71.5 -27.5q-32 0 -55.5 13t-23.5 31q0 10 10.5 20.5t24.5 11.5
q1 0 2.5 -0.5l3 -1t3 -1.5t2.5 -2t2.5 -3t2.5 -3.5l3 -4.5t3.5 -4.5t3.5 -5.5t4 -6q12 -17 29 -17q13 0 22 11t9 26q0 59 -107 64l-1 16l67 72q-25 2 -79 14q-14 3 -39 -1q-5 60 -26 143l29 9q15 -64 64 -109q28 -25 66 -25q26 0 45.5 15.5t19.5 52.5q0 30 -20 49.5
t-80 49.5t-85.5 62.5t-25.5 80.5q0 55 40 91t107 36q39 0 80 -15q13 4 21 10h16q4 -56 22 -140z" />
    <glyph glyph-name="Scaron" unicode="&#x160;" horiz-adv-x="543" 
d="M57 198l30 7q35 -110 100 -157q37 -27 84 -27q58 0 90 33t32 82q0 48 -29 81t-103 65q-103 45 -141.5 91t-38.5 116q0 68 51.5 120t146.5 52q67 0 125 -28q4 2 29 20h21q-1 -59 23 -198l-28 -7q-18 51 -45 93t-53 60q-35 24 -76 24q-53 0 -81.5 -31t-28.5 -77
q0 -50 27 -81t106 -64q106 -44 145.5 -90t39.5 -117q0 -76 -59 -128t-155 -52q-46 0 -124 20q-20 6 -55 -2q-7 81 -33 195zM117 831l15 26q23 -9 76 -32.5t71 -30.5q105 46 149 63l12 -26q-57 -36 -150 -115h-25q-112 91 -148 115z" />
    <glyph glyph-name="scaron" unicode="&#x161;" horiz-adv-x="367" 
d="M329 311l-30 -6q-18 59 -53 92q-27 27 -68 27q-27 0 -45.5 -19t-18.5 -48q0 -32 20 -52t69 -44q70 -33 98.5 -64t28.5 -79q0 -57 -40.5 -93.5t-105.5 -36.5q-31 0 -89 14q-14 3 -39 -1q-5 60 -26 143l29 9q15 -64 64 -109q28 -25 66 -25q26 0 45.5 15.5t19.5 52.5
q0 30 -20 49.5t-80 49.5t-85.5 62.5t-25.5 80.5q0 55 40 91t107 36q39 0 80 -15q13 4 21 10h16q4 -56 22 -140zM55 692l25 19l109 -94l106 94l23 -19q-50 -69 -116 -167h-27q-42 65 -120 167z" />
    <glyph glyph-name="uni0162" unicode="&#x162;" horiz-adv-x="681" 
d="M176 645h330q73 0 116 10q1 -62 24 -181l-27 -7q-41 94 -83 127q-21 16 -52 16h-97v-519q0 -36 19 -45.5t84 -15.5v-30h-123l-39 -47q86 -23 86 -92q0 -34 -26.5 -62t-68.5 -28q-32 0 -55.5 13t-23.5 32q0 10 10.5 20t24.5 11q3 0 5.5 -1t5.5 -4.5t4.5 -6t6 -9t7.5 -10.5
q12 -17 28 -17q13 0 22.5 11t9.5 26q0 60 -109 64l-1 16l76 84h-140v30q63 3 83.5 13.5t20.5 47.5v519h-96q-32 0 -53 -16q-44 -34 -82 -128l-27 8q22 127 24 181q41 -10 116 -10z" />
    <glyph glyph-name="uni0163" unicode="&#x163;" horiz-adv-x="323" 
d="M165 395v-284q0 -33 17 -51t45 -18q41 0 74 25v-28q-37 -41 -88 -48l-31 -35q92 -27 92 -96q0 -33 -29.5 -60.5t-71.5 -27.5q-32 0 -55.5 13t-23.5 31q0 10 10.5 20.5t24.5 11.5q1 0 2.5 -0.5l3 -1t3 -1.5t2.5 -2t2.5 -3t2.5 -3.5l3 -4.5t3.5 -4.5t3.5 -5.5t4 -6
q12 -17 29 -17q13 0 22 11t9 26q0 59 -107 64l-1 16l69 75q-40 4 -68.5 30.5t-28.5 86.5v287h-57v22q28 16 63.5 49.5t62.5 70.5h26q-8 -46 -10 -93h135q5 -30 -7 -49h-131z" />
    <glyph glyph-name="Tcaron" unicode="&#x164;" horiz-adv-x="681" 
d="M490 0h-300v30q63 3 83.5 13.5t20.5 47.5v519h-96q-32 0 -53 -16q-44 -34 -82 -128l-27 8q22 127 24 181q41 -10 116 -10h330q73 0 116 10q1 -62 24 -181l-27 -7q-41 94 -83 127q-21 16 -52 16h-97v-519q0 -36 19 -45.5t84 -15.5v-30zM177 811l15 26q23 -9 76 -32.5
t71 -30.5q105 46 149 63l12 -26q-57 -36 -150 -115h-25q-112 91 -148 115z" />
    <glyph glyph-name="tcaron" unicode="&#x165;" horiz-adv-x="323" 
d="M301 67v-28q-44 -49 -108 -49q-44 0 -77 26.5t-33 91.5v287h-57v22q28 16 63.5 49.5t62.5 70.5h26q-8 -46 -10 -93h135q5 -30 -7 -49h-131v-284q0 -33 17 -51t45 -18q41 0 74 25zM285 517h-27q-1 10 -11 96.5t-14 111.5v18q18 7 38 7q24 0 41 -5v-19q-2 -14 -7.5 -62.5
t-11 -89t-8.5 -57.5z" />
    <glyph glyph-name="Tbar" unicode="&#x166;" horiz-adv-x="681" 
d="M176 645h330q73 0 116 10q1 -62 24 -181l-27 -7q-41 94 -83 127q-21 16 -52 16h-97v-265h118v-35h-118v-219q0 -36 19 -45.5t84 -15.5v-30h-300v30q63 3 83.5 13.5t20.5 47.5v219h-109v35h109v265h-96q-32 0 -53 -16q-44 -34 -82 -128l-27 8q22 127 24 181
q41 -10 116 -10z" />
    <glyph glyph-name="tbar" unicode="&#x167;" horiz-adv-x="323" 
d="M165 228v-117q0 -33 17 -51t45 -18q41 0 74 25v-28q-44 -49 -108 -49q-44 0 -77 26.5t-33 91.5v120h-55v34h55v133h-57v22q28 16 63.5 49.5t62.5 70.5h26q-8 -46 -10 -93h135q5 -30 -7 -49h-131v-133h86v-34h-86z" />
    <glyph glyph-name="Utilde" unicode="&#x168;" horiz-adv-x="724" 
d="M24 615v30h280v-30q-54 -2 -73.5 -14t-19.5 -47v-337q0 -60 12 -87q18 -44 61.5 -69.5t106.5 -25.5q75 0 114.5 30t54.5 90q8 32 8 80v274q0 66 -17.5 82.5t-87.5 23.5v30h245v-30q-62 -6 -78.5 -25.5t-16.5 -80.5v-259q0 -63 -10 -101q-41 -165 -237 -165
q-104 0 -163 44t-76 112q-9 31 -9 96v318q0 34 -19 45.5t-75 15.5zM523 823l26 -7q-6 -36 -32 -69t-71 -33q-27 0 -83 24q-43 18 -64 18q-22 0 -34.5 -10t-24.5 -36l-26 9q22 98 106 98q28 0 79 -21q46 -19 63 -19q22 0 36 9t25 37z" />
    <glyph glyph-name="utilde" unicode="&#x169;" horiz-adv-x="529" 
d="M506 37v-28q-122 -15 -142 -21l-4 5q-1 8 -1.5 26.5t-0.5 27.5q-74 -59 -145 -59q-53 0 -91 36.5t-38 103.5v248q0 27 -60 39v29q110 0 147 9q-5 -75 -5 -115v-216q0 -33 27.5 -57t66.5 -24q48 0 73 19q14 10 19.5 23t5.5 40v251q0 9 -3 14.5t-21 13.5t-52 13l4 29
q120 0 159 6q-4 -36 -4 -158v-220q0 -22 14 -27q14 -6 51 -8zM394 661l25 -8q-6 -37 -29.5 -69t-66.5 -32q-30 0 -80 23q-43 18 -62 18q-21 0 -32.5 -10t-22.5 -35l-25 9q7 42 31 69.5t64 27.5q28 0 80 -21q43 -19 62 -19t32 9t24 38z" />
    <glyph glyph-name="Umacron" unicode="&#x16a;" horiz-adv-x="724" 
d="M24 615v30h280v-30q-54 -2 -73.5 -14t-19.5 -47v-337q0 -60 12 -87q18 -44 61.5 -69.5t106.5 -25.5q75 0 114.5 30t54.5 90q8 32 8 80v274q0 66 -17.5 82.5t-87.5 23.5v30h245v-30q-62 -6 -78.5 -25.5t-16.5 -80.5v-259q0 -63 -10 -101q-41 -165 -237 -165
q-104 0 -163 44t-76 112q-9 31 -9 96v318q0 34 -19 45.5t-75 15.5zM251 783h265v-55h-265v55z" />
    <glyph glyph-name="umacron" unicode="&#x16b;" horiz-adv-x="529" 
d="M506 37v-28q-122 -15 -142 -21l-4 5q-1 8 -1.5 26.5t-0.5 27.5q-74 -59 -145 -59q-53 0 -91 36.5t-38 103.5v248q0 27 -60 39v29q110 0 147 9q-5 -75 -5 -115v-216q0 -33 27.5 -57t66.5 -24q48 0 73 19q14 10 19.5 23t5.5 40v251q0 9 -3 14.5t-21 13.5t-52 13l4 29
q120 0 159 6q-4 -36 -4 -158v-220q0 -22 14 -27q14 -6 51 -8zM126 626h248v-54h-248v54z" />
    <glyph glyph-name="Ubreve" unicode="&#x16c;" horiz-adv-x="724" 
d="M24 615v30h280v-30q-54 -2 -73.5 -14t-19.5 -47v-337q0 -60 12 -87q18 -44 61.5 -69.5t106.5 -25.5q75 0 114.5 30t54.5 90q8 32 8 80v274q0 66 -17.5 82.5t-87.5 23.5v30h245v-30q-62 -6 -78.5 -25.5t-16.5 -80.5v-259q0 -63 -10 -101q-41 -165 -237 -165
q-104 0 -163 44t-76 112q-9 31 -9 96v318q0 34 -19 45.5t-75 15.5zM517 827l26 -10q-20 -56 -62.5 -88t-102.5 -32q-65 0 -104.5 34.5t-52.5 85.5l26 10q17 -28 46 -44.5t87 -16.5q44 0 72.5 10t39 20t25.5 31z" />
    <glyph glyph-name="ubreve" unicode="&#x16d;" horiz-adv-x="529" 
d="M506 37v-28q-122 -15 -142 -21l-4 5q-1 8 -1.5 26.5t-0.5 27.5q-74 -59 -145 -59q-53 0 -91 36.5t-38 103.5v248q0 27 -60 39v29q110 0 147 9q-5 -75 -5 -115v-216q0 -33 27.5 -57t66.5 -24q48 0 73 19q14 10 19.5 23t5.5 40v251q0 9 -3 14.5t-21 13.5t-52 13l4 29
q120 0 159 6q-4 -36 -4 -158v-220q0 -22 14 -27q14 -6 51 -8zM373 679l26 -5q-14 -60 -51 -96.5t-97 -36.5q-62 0 -97.5 36.5t-44.5 96.5l29 5q29 -70 117 -70q84 0 118 70z" />
    <glyph glyph-name="Uring" unicode="&#x16e;" horiz-adv-x="724" 
d="M24 615v30h280v-30q-54 -2 -73.5 -14t-19.5 -47v-337q0 -60 12 -87q18 -44 61.5 -69.5t106.5 -25.5q75 0 114.5 30t54.5 90q8 32 8 80v274q0 66 -17.5 82.5t-87.5 23.5v30h245v-30q-62 -6 -78.5 -25.5t-16.5 -80.5v-259q0 -63 -10 -101q-41 -165 -237 -165
q-104 0 -163 44t-76 112q-9 31 -9 96v318q0 34 -19 45.5t-75 15.5zM374 857q41 0 65 -23.5t24 -59.5t-24 -59t-65 -23t-64.5 23t-23.5 59q0 35 23.5 59t64.5 24zM373 825q-22 0 -36.5 -14t-14.5 -37q0 -25 15 -37.5t37 -12.5q51 0 51 53q0 21 -15 34.5t-37 13.5z" />
    <glyph glyph-name="uring" unicode="&#x16f;" horiz-adv-x="529" 
d="M506 37v-28q-122 -15 -142 -21l-4 5q-1 8 -1.5 26.5t-0.5 27.5q-74 -59 -145 -59q-53 0 -91 36.5t-38 103.5v248q0 27 -60 39v29q110 0 147 9q-5 -75 -5 -115v-216q0 -33 27.5 -57t66.5 -24q48 0 73 19q14 10 19.5 23t5.5 40v251q0 9 -3 14.5t-21 13.5t-52 13l4 29
q120 0 159 6q-4 -36 -4 -158v-220q0 -22 14 -27q14 -6 51 -8zM249 687q39 0 61.5 -25t22.5 -61q0 -35 -23 -59.5t-61 -24.5t-60.5 24.5t-22.5 59.5q0 36 22.5 61t60.5 25zM249 656q-20 0 -33.5 -15.5t-13.5 -39.5q0 -25 14 -39.5t34 -14.5t33.5 14.5t13.5 41.5
q0 22 -14 37.5t-34 15.5z" />
    <glyph glyph-name="Uhungarumlaut" unicode="&#x170;" horiz-adv-x="724" 
d="M24 615v30h280v-30q-54 -2 -73.5 -14t-19.5 -47v-337q0 -60 12 -87q18 -44 61.5 -69.5t106.5 -25.5q75 0 114.5 30t54.5 90q8 32 8 80v274q0 66 -17.5 82.5t-87.5 23.5v30h245v-30q-62 -6 -78.5 -25.5t-16.5 -80.5v-259q0 -63 -10 -101q-41 -165 -237 -165
q-104 0 -163 44t-76 112q-9 31 -9 96v318q0 34 -19 45.5t-75 15.5zM240 718l85 134q10 2 45 -5t51 -13l1 -12l-158 -121zM422 719l84 133q24 4 98 -18v-12l-159 -121z" />
    <glyph glyph-name="uhungarumlaut" unicode="&#x171;" horiz-adv-x="529" 
d="M506 37v-28q-122 -15 -142 -21l-4 5q-1 8 -1.5 26.5t-0.5 27.5q-74 -59 -145 -59q-53 0 -91 36.5t-38 103.5v248q0 27 -60 39v29q110 0 147 9q-5 -75 -5 -115v-216q0 -33 27.5 -57t66.5 -24q48 0 73 19q14 10 19.5 23t5.5 40v251q0 9 -3 14.5t-21 13.5t-52 13l4 29
q120 0 159 6q-4 -36 -4 -158v-220q0 -22 14 -27q14 -6 51 -8zM157 528l-21 14l80 153q6 2 34.5 -3.5t39.5 -12.5l1 -10zM319 528l-20 14l80 153q6 2 34.5 -3.5t40.5 -12.5l1 -10z" />
    <glyph glyph-name="Uogonek" unicode="&#x172;" horiz-adv-x="724" 
d="M463 645h245v-30q-62 -6 -78.5 -25.5t-16.5 -80.5v-259q0 -63 -10 -101q-25 -103 -116 -143q-78 -67 -78 -127q0 -25 14.5 -39t35.5 -14q32 0 61 20l8 -17q-42 -65 -108 -65q-41 0 -64 23.5t-23 58.5q0 69 112 147q-35 -9 -79 -9q-104 0 -163 44t-76 112q-9 31 -9 96v318
q0 34 -19 45.5t-75 15.5v30h280v-30q-54 -2 -73.5 -14t-19.5 -47v-337q0 -60 12 -87q18 -44 61.5 -69.5t106.5 -25.5q75 0 114.5 30t54.5 90q8 32 8 80v274q0 66 -17.5 82.5t-87.5 23.5v30z" />
    <glyph glyph-name="uogonek" unicode="&#x173;" horiz-adv-x="529" 
d="M501 -157l8 -22q-41 -59 -107 -59q-40 0 -65 23.5t-25 57.5q0 73 120 157q-53 -7 -68 -12l-4 5q-1 8 -1.5 26.5t-0.5 27.5q-74 -59 -145 -59q-53 0 -91 36.5t-38 103.5v248q0 27 -60 39v29q110 0 147 9q-5 -75 -5 -115v-216q0 -33 27.5 -57t66.5 -24q48 0 73 19
q14 10 19.5 23t5.5 40v251q0 9 -3 14.5t-21 13.5t-52 13l4 29q120 0 159 6q-4 -36 -4 -158v-220q0 -22 14 -27q14 -6 51 -8v-28q-4 0 -15.5 -1.5t-17.5 -2.5q-84 -80 -84 -135q0 -50 48 -50q28 0 64 23z" />
    <glyph glyph-name="Wcircumflex" unicode="&#x174;" horiz-adv-x="960" 
d="M-2 615v30h273v-30q-45 -6 -60 -9q-17 -3 -23 -12.5t-1 -31.5q37 -150 121 -428q16 41 74.5 187t77.5 196q3 8 0 23q-12 48 -27 58.5t-72 16.5v30h264v-30q-42 -6 -59 -10q-30 -6 -18 -45q14 -44 66.5 -199.5t73.5 -221.5q66 174 131 377q14 49 14 62q-1 16 -24 23.5
t-77 13.5v30h248v-30q-52 -7 -72.5 -21.5t-36.5 -57.5q-121 -327 -195 -549h-36q-32 114 -159 486q-31 -81 -103.5 -262t-88.5 -224h-35q-42 171 -161 563q-11 37 -28.5 49t-66.5 16zM653 724l-15 -26q-23 9 -77 32.5t-71 30.5q-93 -42 -148 -63l-12 26q64 41 149 115h26
q96 -80 148 -115z" />
    <glyph glyph-name="wcircumflex" unicode="&#x175;" horiz-adv-x="725" 
d="M-1 414v30h216v-30q-44 -5 -55 -10.5t-6 -25.5q7 -29 22 -74.5t38 -110.5t30 -84q98 226 103 239q3 5 1 12q-8 26 -15 35.5t-20 12.5q-14 4 -40 6v30h207v-30q-60 -5 -60 -20q0 -5 9 -34q16 -45 52.5 -147t37.5 -105q67 171 97 263q9 29 -13 34q-24 6 -65 9v30h194v-30
q-26 -4 -34.5 -6t-19.5 -11.5t-20 -29.5q-22 -50 -75.5 -183t-74.5 -193h-30q-39 113 -113 315q-110 -248 -136 -314h-30q-17 57 -62 188t-68 191q-10 26 -21 32t-49 11zM508 538l-24 -19l-110 95l-106 -95l-23 19q73 102 117 168h26q41 -65 120 -168z" />
    <glyph glyph-name="Ycircumflex" unicode="&#x176;" horiz-adv-x="609" 
d="M447 0h-280v30q61 4 77.5 15.5t16.5 45.5v146q0 21 -8 40q-17 35 -73 135t-84 146q-19 32 -36.5 41.5t-61.5 15.5v30h260v-29q-41 -4 -54 -8q-24 -6 -13 -28q14 -31 74.5 -141.5t71.5 -130.5q86 154 132 253q20 38 -14 45q-25 5 -66 9v30h229v-30q-50 -4 -70.5 -18.5
t-42.5 -54.5q-98 -172 -144 -265q-7 -16 -7 -40v-146q0 -37 17.5 -47t75.5 -14v-30zM479 729l-14 -26q-24 10 -78.5 33.5t-69.5 29.5q-111 -49 -149 -63l-11 26q64 41 149 115h25q112 -91 148 -115z" />
    <glyph glyph-name="ycircumflex" unicode="&#x177;" horiz-adv-x="476" 
d="M-7 414v30h218v-30q-35 -3 -45 -5q-23 -5 -14 -29q70 -186 112 -281q51 138 94 268q12 34 -14 40q-17 4 -55 7v30h180v-30q-22 -4 -31 -7t-19 -13t-18 -29q-36 -87 -122 -323q-12 -31 -29 -81t-23 -66q-28 -77 -55 -109t-65 -32q-22 0 -39.5 15.5t-17.5 36.5
q0 25 16.5 44t33.5 19q9 0 34 -20q13 -11 22 -11q11 0 25 31q18 44 41 121q-5 18 -69.5 177.5t-86.5 206.5q-8 17 -20 25.5t-19.5 9.5t-33.5 5zM374 538l-24 -19l-110 95l-106 -95l-23 19q73 102 117 168h26q41 -65 120 -168z" />
    <glyph glyph-name="Ydieresis" unicode="&#x178;" horiz-adv-x="609" 
d="M447 0h-280v30q61 4 77.5 15.5t16.5 45.5v146q0 21 -8 40q-17 35 -73 135t-84 146q-19 32 -36.5 41.5t-61.5 15.5v30h260v-29q-41 -4 -54 -8q-24 -6 -13 -28q14 -31 74.5 -141.5t71.5 -130.5q86 154 132 253q20 38 -14 45q-25 5 -66 9v30h229v-30q-50 -4 -70.5 -18.5
t-42.5 -54.5q-98 -172 -144 -265q-7 -16 -7 -40v-146q0 -37 17.5 -47t75.5 -14v-30zM219 817q21 0 34 -15t13 -36q0 -24 -14.5 -36.5t-34.5 -12.5q-17 0 -32 13.5t-15 35.5q0 21 13.5 36t35.5 15zM424 816q22 0 35 -15t13 -35q0 -19 -14 -34t-35 -15q-19 0 -33.5 14
t-14.5 34q0 24 14.5 37.5t34.5 13.5z" />
    <glyph glyph-name="Zacute" unicode="&#x179;" horiz-adv-x="630" 
d="M387 0h-347v22q44 52 213.5 300.5t190.5 287.5h-221q-43 0 -64 -15q-40 -25 -96 -140l-29 10q35 111 45 190q54 -10 129 -10h251q59 0 103 2v-21q-18 -27 -399 -591h213q53 0 84 19q51 32 114 140l28 -11q-42 -94 -65 -189q-75 6 -150 6zM267 701l-16 21l140 133
q11 0 42 -12.5t42 -19.5l-1 -16z" />
    <glyph glyph-name="zacute" unicode="&#x17a;" horiz-adv-x="434" 
d="M401 151l24 -12q-33 -65 -59 -142q-36 3 -103 3h-214v19q26 39 115.5 191.5t115.5 199.5h-104q-25 0 -40.5 -8.5t-33.5 -29.5q-25 -30 -50 -77l-25 10q36 102 42 151q54 -12 87 -12h226v-17q-30 -47 -114.5 -194.5t-112.5 -199.5h113q37 0 69 34q31 31 64 84zM201 517
l-23 16l102 163q5 2 36 -7t48 -16l-1 -11z" />
    <glyph glyph-name="Zdotaccent" unicode="&#x17b;" horiz-adv-x="630" 
d="M387 0h-347v22q44 52 213.5 300.5t190.5 287.5h-221q-43 0 -64 -15q-40 -25 -96 -140l-29 10q35 111 45 190q54 -10 129 -10h251q59 0 103 2v-21q-18 -27 -399 -591h213q53 0 84 19q51 32 114 140l28 -11q-42 -94 -65 -189q-75 6 -150 6zM258 760q0 20 14.5 38t39.5 18
q22 0 36 -17t14 -39q0 -23 -14.5 -38.5t-36.5 -15.5q-25 0 -39 16.5t-14 37.5z" />
    <glyph glyph-name="zdotaccent" unicode="&#x17c;" horiz-adv-x="434" 
d="M401 151l24 -12q-33 -65 -59 -142q-36 3 -103 3h-214v19q26 39 115.5 191.5t115.5 199.5h-104q-25 0 -40.5 -8.5t-33.5 -29.5q-25 -30 -50 -77l-25 10q36 102 42 151q54 -12 87 -12h226v-17q-30 -47 -114.5 -194.5t-112.5 -199.5h113q37 0 69 34q31 31 64 84zM171 605
q0 21 14.5 39.5t40.5 18.5q23 0 37.5 -17.5t14.5 -40.5q0 -24 -15 -40t-38 -16q-25 0 -39.5 17t-14.5 39z" />
    <glyph glyph-name="Zcaron" unicode="&#x17d;" horiz-adv-x="630" 
d="M387 0h-347v22q44 52 213.5 300.5t190.5 287.5h-221q-43 0 -64 -15q-40 -25 -96 -140l-29 10q35 111 45 190q54 -10 129 -10h251q59 0 103 2v-21q-18 -27 -399 -591h213q53 0 84 19q51 32 114 140l28 -11q-42 -94 -65 -189q-75 6 -150 6zM145 816l15 26q23 -9 76 -32.5
t71 -30.5q105 46 149 63l12 -26q-57 -36 -150 -115h-25q-96 80 -148 115z" />
    <glyph glyph-name="zcaron" unicode="&#x17e;" horiz-adv-x="434" 
d="M401 151l24 -12q-33 -65 -59 -142q-36 3 -103 3h-214v19q26 39 115.5 191.5t115.5 199.5h-104q-25 0 -40.5 -8.5t-33.5 -29.5q-25 -30 -50 -77l-25 10q36 102 42 151q54 -12 87 -12h226v-17q-30 -47 -114.5 -194.5t-112.5 -199.5h113q37 0 69 34q31 31 64 84zM85 692
l25 19l109 -94l106 94l23 -19q-50 -69 -116 -167h-27q-42 65 -120 167z" />
    <glyph glyph-name="longs" unicode="&#x17f;" horiz-adv-x="263" 
d="M247 0h-224v30q22 1 43 5q26 4 26 35v325h-62v25q41 12 62 30q6 155 99 226q51 39 109 39q30 0 53.5 -11.5t23.5 -34.5q0 -21 -15.5 -35.5t-34.5 -14.5q-17 0 -36 18q-14 13 -29 24q-8 6 -22 6q-24 0 -45 -33t-21 -100v-461q0 -18 4.5 -25.5t16.5 -10.5q10 -2 52 -7v-30z
" />
    <glyph glyph-name="uni018F" unicode="&#x18f;" horiz-adv-x="670" 
d="M56 306h456q0 3 0.5 13.5t0.5 14.5q0 123 -54.5 200.5t-160.5 77.5q-118 0 -212 -90l-17 24q99 115 254 115q73 0 130 -27.5t91.5 -73.5t52 -103.5t17.5 -121.5q0 -94 -31.5 -172t-99 -128.5t-161.5 -50.5q-70 0 -123.5 25.5t-83.5 67t-45 89.5t-15 99q0 30 1 41z
M510 270h-352q-1 -10 -1 -28q0 -97 41.5 -159.5t128.5 -62.5q79 0 125 65.5t58 184.5z" />
    <glyph glyph-name="florin" unicode="&#x192;" horiz-adv-x="482" 
d="M86 379v36h92q72 269 226 269q38 0 56 -13t18 -31t-15 -34t-34 -16q-11 0 -18.5 5.5t-20.5 23.5q-16 24 -32 24q-29 0 -50.5 -49.5t-48.5 -178.5h101v-36h-109q-9 -37 -30.5 -138.5t-36.5 -157.5q-27 -104 -86.5 -171t-132.5 -67q-29 0 -47 13t-18 33q0 19 16 36t32 17
q2 0 4.5 -0.5t4.5 -1.5l4 -2t4.5 -3.5t4.5 -4t5 -5t5 -5.5t6 -6.5t6 -6.5q13 -14 27 -14q12 0 21 6t23.5 37t28.5 88q15 62 41 185.5t37 167.5h-84z" />
    <glyph glyph-name="uni019F" unicode="&#x19f;" horiz-adv-x="740" 
d="M161 354h419q-10 129 -68.5 200t-148.5 71q-88 0 -142.5 -65.5t-59.5 -205.5zM581 318h-420q2 -133 64.5 -215t158.5 -82q90 0 143 72t54 225zM371 -16q-123 0 -209 78q-106 98 -106 260q0 158 94 248.5t221 90.5q132 0 222.5 -88.5t90.5 -247.5q0 -150 -89.5 -245.5
t-223.5 -95.5z" />
    <glyph glyph-name="Ohorn" unicode="&#x1a0;" horiz-adv-x="740" 
d="M373 -16q-123 0 -214 81q-103 97 -103 257q0 89 32.5 159.5t88.5 114.5q84 65 190 65q108 0 187 -56q41 16 41 38q0 13 -21 39q-15 18 -15 26q0 17 25.5 37t45.5 20q14 0 24.5 -15.5t10.5 -44.5q0 -38 -24.5 -71t-61.5 -50q105 -92 105 -256q0 -130 -71 -225
q-42 -56 -103.5 -87.5t-136.5 -31.5zM385 20q60 0 102 33q90 69 90 261q0 157 -76 248q-53 63 -137 63q-64 0 -106 -32q-95 -72 -95 -248q0 -150 65 -239q61 -86 157 -86z" />
    <glyph glyph-name="ohorn" unicode="&#x1a1;" horiz-adv-x="528" 
d="M268 456q76 0 132 -43q36 14 36 34q0 15 -19 38q-13 16 -13 22q0 16 23.5 34.5t41.5 18.5q13 0 22.5 -14t9.5 -41q0 -36 -22 -65.5t-58 -44.5l7 -7q59 -64 59 -162q0 -103 -67 -173q-65 -65 -151 -65q-100 0 -162 64q-66 68 -66 171q0 124 98 193q57 40 129 40zM272 22
q57 0 85 41q34 49 34 155q0 101 -43 159q-37 47 -90 47q-55 0 -88 -45t-33 -142q0 -110 45 -170q36 -45 90 -45z" />
    <glyph glyph-name="Uhorn" unicode="&#x1af;" horiz-adv-x="724" 
d="M24 645h280v-30q-23 -1 -52 -6q-41 -8 -41 -55v-337q0 -60 12 -87q18 -44 61.5 -69.5t106.5 -25.5q75 0 114.5 30t54.5 90q8 32 8 80v275q0 53 -11.5 72.5t-43.5 25.5q-27 5 -50 7v30h178q30 0 30 16q0 4 -1.5 8t-2.5 7t-4.5 7.5t-5 6.5t-7 8t-7.5 8q-11 17 -11 24
q0 15 26 35t44 20q14 0 24 -14.5t10 -42.5q0 -87 -95 -126q-28 -11 -28 -59v-293q0 -63 -10 -101q-41 -165 -237 -165q-104 0 -163 44t-76 112q-9 31 -9 96v318q0 47 -41 54q-32 6 -53 7v30z" />
    <glyph glyph-name="uhorn" unicode="&#x1b0;" horiz-adv-x="529" 
d="M506 37v-28q-122 -15 -142 -21l-4 5q-1 14 -1 54q-75 -59 -146 -59q-53 0 -91 36.5t-38 103.5v248q0 27 -60 39v29q110 0 147 9q-5 -75 -5 -115v-216q0 -33 27.5 -57t66.5 -24q48 0 73 19q14 10 19.5 23t5.5 40v251q0 9 -3 14.5t-21 13.5t-52 13l4 29q114 0 149 4
q14 11 14 22q0 14 -19 37q-13 16 -13 23q0 16 23.5 34.5t41.5 18.5q13 0 22.5 -14t9.5 -42q0 -33 -20 -61.5t-51 -44.5q-2 -26 -2 -129v-220q0 -22 13 -27q16 -6 52 -8z" />
    <glyph glyph-name="uni01C4" unicode="&#x1c4;" horiz-adv-x="1352" 
d="M221 553v-419q0 -66 9 -73q29 -28 103 -28q99 0 161 77q68 84 68 217q0 163 -97 238q-61 48 -152 48q-69 0 -85 -14q-7 -7 -7 -46zM34 0v30q58 3 76 15t18 46v463q0 33 -19 45.5t-75 15.5v30h283q126 0 202 -40q73 -38 110.5 -108.5t37.5 -158.5q0 -143 -92 -236
q-46 -47 -114 -74.5t-148 -27.5h-279zM1109 0h-346v22q43 52 212 300t192 288h-222q-41 0 -64 -15q-40 -25 -96 -140l-29 10q33 102 45 190q54 -10 129 -10h251q59 0 103 2v-21q-39 -58 -187.5 -278t-210.5 -313h213q52 0 83 19q51 32 114 140l28 -11q-37 -82 -65 -189
q-72 6 -150 6zM868 816l14 26q23 -9 77 -32.5t71 -30.5q111 49 149 63l11 -26q-64 -41 -149 -115h-26q-100 84 -147 115z" />
    <glyph glyph-name="uni01C5" unicode="&#x1c5;" horiz-adv-x="1156" 
d="M221 553v-419q0 -66 9 -73q29 -28 103 -28q99 0 161 77q68 84 68 217q0 163 -97 238q-61 48 -152 48q-69 0 -85 -14q-7 -7 -7 -46zM34 0v30q58 3 76 15t18 46v463q0 33 -19 45.5t-75 15.5v30h283q126 0 202 -40q73 -38 110.5 -108.5t37.5 -158.5q0 -143 -92 -236
q-46 -47 -114 -74.5t-148 -27.5h-279zM1124 151l23 -12q-24 -48 -59 -142q-36 3 -103 3h-214v19q25 37 110 181.5t122 209.5h-105q-25 0 -40.5 -8.5t-33.5 -29.5q-23 -27 -49 -77l-26 10q36 102 42 151q54 -12 87 -12h227v-17q-30 -46 -112.5 -191t-114.5 -203h112
q36 0 70 34q34 35 64 84zM807 692l25 19l109 -94l106 94l23 -19q-50 -69 -116 -167h-27q-42 65 -120 167z" />
    <glyph glyph-name="uni01C6" unicode="&#x1c6;" horiz-adv-x="970" 
d="M368 116v195q0 39 -4.5 53.5t-18.5 29.5q-30 29 -82 29q-49 0 -79 -30q-47 -47 -47 -161q0 -104 45 -158q36 -42 91 -42q40 0 66 17q29 19 29 67zM514 35v-28q-110 -13 -136 -20l-5 3q-5 20 -5 44q-73 -46 -140 -46q-76 0 -129 59q-58 65 -58 165q0 127 100 199
q64 45 146 45q38 0 81 -10q0 167 -3 178q-9 22 -74 36v26q96 4 159 28l5 -2q-5 -57 -5 -84v-528q0 -43 9 -49q16 -14 55 -16zM937 151l23 -12q-28 -57 -59 -142q-33 3 -102 3h-215v19q25 37 110 181.5t122 209.5h-105q-24 0 -39.5 -8.5t-33.5 -29.5q-25 -30 -50 -77l-25 10
q36 109 41 151q54 -12 88 -12h226v-17q-30 -46 -112.5 -191t-114.5 -203h113q37 0 69 34q31 31 64 84zM621 692l24 19l110 -94l106 94l23 -19q-64 -88 -117 -167h-26q-42 65 -120 167z" />
    <glyph glyph-name="uni01C7" unicode="&#x1c7;" horiz-adv-x="984" 
d="M362 0h-337v30q65 5 84 15.5t19 46.5v462q0 33 -19 45t-75 16v30h280v-30q-53 -2 -73 -14t-20 -47v-452q0 -39 13 -53t58 -14h80q49 0 77 18q53 31 114 151l28 -11q-37 -94 -64 -196q-66 3 -165 3zM677 615v30h280v-30q-48 -2 -67.5 -14.5t-19.5 -46.5v-402
q0 -75 -16 -132q-22 -71 -82 -137q-31 -32 -71.5 -52.5t-66.5 -20.5q-33 0 -59 15t-26 37t17.5 41t34.5 19q12 0 40 -27q26 -26 51 -26t49 29q36 39 36 142v514q0 37 -21 47t-79 14z" />
    <glyph glyph-name="uni01C8" unicode="&#x1c8;" horiz-adv-x="870" 
d="M362 0h-337v30q65 5 84 15.5t19 46.5v462q0 33 -19 45t-75 16v30h280v-30q-53 -2 -73 -14t-20 -47v-452q0 -39 13 -53t58 -14h80q49 0 77 18q53 31 114 151l28 -11q-37 -94 -64 -196q-66 3 -165 3zM640 389v24q74 10 148 43l6 -5q-3 -37 -3 -101v-289q0 -109 -22 -156
q-25 -52 -64.5 -91.5t-66.5 -56.5l-20 22q57 52 73.5 95.5t16.5 107.5v355q0 20 -12 30q-22 15 -56 22zM689 606q0 21 14.5 39t40.5 18q23 0 37.5 -17t14.5 -40q0 -24 -15 -40.5t-38 -16.5q-25 0 -39.5 17.5t-14.5 39.5z" />
    <glyph glyph-name="uni01C9" unicode="&#x1c9;" horiz-adv-x="511" 
d="M233 0h-208v30q42 3 52 11.5t10 34.5v493q0 43 -4 54q-10 25 -61 37v25q70 4 149 31l4 -3q-6 -51 -6 -93v-546q0 -25 11 -33.5t53 -11.5v-29zM281 389v24q74 10 148 43l6 -5q-3 -38 -3 -101v-289q0 -109 -22 -156q-25 -52 -64.5 -91.5t-66.5 -56.5l-20 22
q57 52 73.5 95.5t16.5 107.5v355q0 20 -12 30q-22 15 -56 22zM330 606q0 21 14.5 39t40.5 18q23 0 37.5 -17t14.5 -40q0 -24 -15 -40.5t-38 -16.5q-25 0 -39.5 17.5t-14.5 39.5z" />
    <glyph glyph-name="uni01CA" unicode="&#x1ca;" horiz-adv-x="1109" 
d="M281 0h-252v30q61 5 80.5 25t19.5 84v399q0 25 -18 43q-16 17 -32.5 22.5t-59.5 11.5v30h163l397 -513v367q0 71 -18.5 90t-94.5 26v30h252v-30q-62 -4 -80 -26.5t-18 -88.5v-401q0 -76 3 -102h-65q-25 37 -63 87l-325 433v-378q0 -65 20.5 -84t90.5 -25v-30zM801 615v30
h281v-30q-48 -3 -67.5 -15t-19.5 -46v-402q0 -75 -16 -132q-22 -74 -82 -137q-31 -32 -71.5 -52.5t-67.5 -20.5q-32 0 -58.5 15t-26.5 37q0 21 18 40t34 19q13 0 41 -26q27 -27 51 -27t49 29q36 41 36 143v514q0 37 -21 47t-80 14z" />
    <glyph glyph-name="uni01CB" unicode="&#x1cb;" horiz-adv-x="994" 
d="M281 0h-252v30q61 5 80.5 25t19.5 84v399q0 25 -18 43q-16 17 -32.5 22.5t-59.5 11.5v30h163l397 -513v367q0 71 -18.5 90t-94.5 26v30h252v-30q-62 -4 -80 -26.5t-18 -88.5v-401q0 -76 3 -101h-65q-31 44 -63 86l-325 433v-378q0 -65 20.5 -84t90.5 -25v-30zM765 389v24
q74 10 148 43l6 -5q-3 -37 -3 -102v-288q0 -109 -22 -156q-25 -53 -65 -92.5t-67 -55.5l-19 22q57 52 73.5 95.5t16.5 107.5v355q0 21 -13 30q-20 15 -55 22zM814 606q0 21 14.5 39t40.5 18q23 0 37.5 -17t14.5 -40q0 -24 -15 -40.5t-38 -16.5q-25 0 -39.5 17.5t-14.5 39.5z
" />
    <glyph glyph-name="uni01CC" unicode="&#x1cc;" horiz-adv-x="795" 
d="M240 0h-217v30q45 2 57 10t12 35v230q0 43 -3 53q-5 18 -52 34v21q66 12 133 43l7 -4q-3 -42 -3 -63q67 67 144 67q56 0 92 -36q43 -43 43 -124v-221q0 -27 10.5 -34.5t50.5 -10.5v-30h-219v30q4 0 10 1q40 4 50.5 9.5t13.5 26.5q2 22 2 47v187q0 53 -27 79
q-23 23 -70 23q-19 0 -42 -8.5t-35 -20.5q-15 -14 -19 -26t-4 -46v-227q0 -27 11.5 -34.5t54.5 -10.5v-30zM565 389v24q74 10 148 43l6 -5q-3 -37 -3 -101v-289q0 -109 -22 -156q-25 -52 -64.5 -91.5t-66.5 -56.5l-20 22q57 52 73.5 95.5t16.5 107.5v355q0 20 -12 30
q-22 15 -56 22zM614 606q0 21 14.5 39t40.5 18q23 0 37.5 -17t14.5 -40q0 -24 -15 -40.5t-38 -16.5q-25 0 -39.5 17.5t-14.5 39.5z" />
    <glyph glyph-name="uni01CD" unicode="&#x1cd;" horiz-adv-x="675" 
d="M-6 0v30q54 6 75 17t37 51q117 300 194 503q7 18 5 44h72q1 -4 8 -25q27 -69 71 -188.5t82.5 -225.5t44.5 -121q12 -31 32 -41t65 -14v-30h-265v30q38 4 51 7q28 8 18 37q-31 92 -58 162h-224q-46 -126 -52 -146q-7 -26 -0.5 -37t28.5 -15q35 -6 53 -8v-30h-237zM214 273
h200l-98 277q-81 -217 -102 -277zM178 809l15 26q23 -9 76 -32.5t71 -30.5q105 46 149 63l12 -26q-57 -36 -150 -115h-25q-112 91 -148 115z" />
    <glyph glyph-name="uni01CE" unicode="&#x1ce;" horiz-adv-x="447" 
d="M429 60v-27q-20 -23 -47.5 -35.5t-44.5 -12.5q-47 0 -61 59q-79 -59 -128 -59q-37 0 -66 31.5t-29 77.5q0 34 17 54t54 39q39 20 155 69q0 75 -1 82q-2 22 -25.5 46t-58.5 24q-9 0 -28 -9t-33 -20q-12 -9 -12 -14q0 -3 4 -11q14 -25 14 -38q0 -14 -16 -30t-36 -16
q-17 0 -31 15t-14 36q0 27 44 59q51 37 92 56.5t58 19.5q68 0 104 -62q17 -26 17 -88q0 -20 -1.5 -117.5t-1.5 -127.5q0 -18 24 -18q25 0 51 17zM278 228q-83 -36 -101 -48q-21 -14 -31 -27.5t-10 -37.5q0 -36 24 -60q16 -16 41 -16q32 0 56 21q17 14 18 41q3 58 3 127z
M84 700l25 19l109 -94l106 94l23 -19q-50 -69 -116 -167h-27q-42 65 -120 167z" />
    <glyph glyph-name="uni01CF" unicode="&#x1cf;" horiz-adv-x="349" 
d="M314 0h-280v30q56 3 75 13.5t19 47.5v463q0 15 -5 26t-9 16.5t-20 10t-21.5 5t-29.5 2.5q-6 1 -9 1v30h280v-30q-51 -3 -72 -14t-21 -47v-463q0 -35 18.5 -46t74.5 -15v-30zM12 816l14 26q24 -10 78.5 -33.5t69.5 -29.5q111 49 149 63l11 -26q-64 -41 -149 -115h-25
q-112 91 -148 115z" />
    <glyph glyph-name="uni01D0" unicode="&#x1d0;" horiz-adv-x="262" 
d="M234 0h-213v30q47 4 58.5 10t11.5 29v231q0 38 -2.5 49.5t-10.5 18.5q-15 13 -42 27v19q74 12 134 42l6 -5q-3 -48 -3 -92v-289q0 -23 10 -29.5t51 -10.5v-30zM-5 702l25 19l109 -94l106 94l23 -19q-50 -69 -116 -167h-27q-42 65 -120 167z" />
    <glyph glyph-name="uni01D1" unicode="&#x1d1;" horiz-adv-x="740" 
d="M373 -16q-123 0 -214 81q-103 97 -103 257q0 89 32.5 159.5t88.5 114.5q84 65 189 65q138 0 228 -89.5t90 -243.5q0 -130 -71 -225q-42 -56 -103.5 -87.5t-136.5 -31.5zM385 20q60 0 102 33q90 69 90 261q0 157 -76 248q-54 63 -137 63q-64 0 -106 -32q-95 -72 -95 -248
q0 -150 65 -239q61 -86 157 -86zM206 822l14 26q24 -10 78.5 -33.5t69.5 -29.5q105 46 149 63l11 -26q-53 -34 -149 -115h-25q-112 91 -148 115z" />
    <glyph glyph-name="uni01D2" unicode="&#x1d2;" horiz-adv-x="528" 
d="M268 456q100 0 160 -68q59 -64 59 -162q0 -103 -67 -173q-65 -65 -151 -65q-100 0 -162 64q-66 68 -66 171q0 124 98 193q57 40 129 40zM272 22q57 0 85 41q34 49 34 155q0 101 -43 159q-37 47 -90 47q-55 0 -88 -45t-33 -142q0 -110 45 -170q36 -45 90 -45zM131 692
l25 19l109 -94l106 94l23 -19q-50 -69 -116 -167h-27q-42 65 -120 167z" />
    <glyph glyph-name="uni01D3" unicode="&#x1d3;" horiz-adv-x="724" 
d="M24 615v30h280v-30q-54 -2 -73.5 -14t-19.5 -47v-337q0 -60 12 -87q18 -44 61.5 -69.5t106.5 -25.5q75 0 114.5 30t54.5 90q8 32 8 80v274q0 66 -17.5 82.5t-87.5 23.5v30h245v-30q-62 -6 -78.5 -25.5t-16.5 -80.5v-259q0 -63 -10 -101q-41 -165 -237 -165
q-104 0 -163 44t-76 112q-9 31 -9 96v318q0 34 -19 45.5t-75 15.5zM216 810l15 26q23 -9 76 -32.5t71 -30.5q105 46 149 63l12 -26q-57 -36 -150 -115h-25q-112 91 -148 115z" />
    <glyph glyph-name="uni01D4" unicode="&#x1d4;" horiz-adv-x="529" 
d="M506 37v-28q-122 -15 -142 -21l-4 5q-1 8 -1.5 26.5t-0.5 27.5q-74 -59 -145 -59q-53 0 -91 36.5t-38 103.5v248q0 27 -60 39v29q110 0 147 9q-5 -75 -5 -115v-216q0 -33 27.5 -57t66.5 -24q48 0 73 19q14 10 19.5 23t5.5 40v251q0 9 -3 14.5t-21 13.5t-52 13l4 29
q120 0 159 6q-4 -36 -4 -158v-220q0 -22 14 -27q14 -6 51 -8zM118 693l25 19l109 -94l106 94l23 -19q-50 -69 -116 -167h-27q-42 65 -120 167z" />
    <glyph glyph-name="uni01D5" unicode="&#x1d5;" horiz-adv-x="724" 
d="M24 615v30h280v-30q-54 -2 -73.5 -14t-19.5 -47v-337q0 -60 12 -87q18 -44 61.5 -69.5t106.5 -25.5q75 0 114.5 30t54.5 90q8 32 8 80v274q0 66 -17.5 82.5t-87.5 23.5v30h245v-30q-62 -6 -78.5 -25.5t-16.5 -80.5v-259q0 -63 -10 -101q-41 -165 -237 -165
q-104 0 -163 44t-76 112q-9 31 -9 96v318q0 34 -19 45.5t-75 15.5zM244 879h275v-52h-275v52zM272 785q21 0 33.5 -14t12.5 -34q0 -22 -13.5 -34t-34.5 -12q-18 0 -31 12.5t-13 33.5q0 20 12 34t34 14zM489 784q21 0 34 -14t13 -33t-12.5 -32.5t-35.5 -13.5q-20 0 -32.5 13
t-12.5 32q0 23 13 35.5t33 12.5z" />
    <glyph glyph-name="uni01D6" unicode="&#x1d6;" horiz-adv-x="529" 
d="M506 37v-28q-122 -15 -142 -21l-4 5q-1 8 -1.5 26.5t-0.5 27.5q-74 -59 -145 -59q-53 0 -91 36.5t-38 103.5v248q0 27 -60 39v29q110 0 147 9q-5 -75 -5 -115v-216q0 -33 27.5 -57t66.5 -24q48 0 73 19q14 10 19.5 23t5.5 40v251q0 9 -3 14.5t-21 13.5t-52 13l4 29
q120 0 159 6q-4 -36 -4 -158v-220q0 -22 14 -27q14 -6 51 -8zM163 620q19 0 32.5 -15t13.5 -36q0 -23 -14 -36.5t-33 -13.5q-17 0 -31.5 14t-14.5 36q0 20 13 35.5t34 15.5zM343 619q20 0 34 -15.5t14 -34.5q0 -20 -14.5 -35t-34.5 -15t-34.5 14t-14.5 35q0 24 15.5 37.5
t34.5 13.5zM134 726h237v-51h-237v51z" />
    <glyph glyph-name="uni01D7" unicode="&#x1d7;" horiz-adv-x="724" 
d="M24 615v30h280v-30q-54 -2 -73.5 -14t-19.5 -47v-337q0 -60 12 -87q18 -44 61.5 -69.5t106.5 -25.5q75 0 114.5 30t54.5 90q8 32 8 80v274q0 66 -17.5 82.5t-87.5 23.5v30h245v-30q-62 -6 -78.5 -25.5t-16.5 -80.5v-259q0 -63 -10 -101q-41 -165 -237 -165
q-104 0 -163 44t-76 112q-9 31 -9 96v318q0 34 -19 45.5t-75 15.5zM273 789q21 0 33.5 -14t12.5 -34q0 -22 -13.5 -34t-34.5 -12q-18 0 -31 12.5t-13 33.5q0 20 12 34t34 14zM491 788q21 0 34 -14t13 -33t-12.5 -32.5t-35.5 -13.5q-20 0 -32.5 13t-12.5 32q0 23 13 35.5
t33 12.5zM378 781l-29 13l42 122q59 -3 101 -15l3 -12z" />
    <glyph glyph-name="uni01D8" unicode="&#x1d8;" horiz-adv-x="529" 
d="M506 37v-28q-122 -15 -142 -21l-4 5q-1 8 -1.5 26.5t-0.5 27.5q-74 -59 -145 -59q-53 0 -91 36.5t-38 103.5v248q0 27 -60 39v29q110 0 147 9q-5 -75 -5 -115v-216q0 -33 27.5 -57t66.5 -24q48 0 73 19q14 10 19.5 23t5.5 40v251q0 9 -3 14.5t-21 13.5t-52 13l4 29
q120 0 159 6q-4 -36 -4 -158v-220q0 -22 14 -27q14 -6 51 -8zM149 627q19 0 32.5 -15t13.5 -36q0 -23 -14 -36.5t-33 -13.5q-16 0 -31 14t-15 36q0 20 13 35.5t34 15.5zM350 626q18 0 33 -15.5t15 -34.5q0 -20 -14.5 -35t-34.5 -15t-34.5 14t-14.5 35q0 24 15.5 37.5
t34.5 13.5zM243 639l-29 12l42 121q7 2 44.5 -2t52.5 -8v-13z" />
    <glyph glyph-name="uni01D9" unicode="&#x1d9;" horiz-adv-x="724" 
d="M24 615v30h280v-30q-54 -2 -73.5 -14t-19.5 -47v-337q0 -60 12 -87q18 -44 61.5 -69.5t106.5 -25.5q75 0 114.5 30t54.5 90q8 32 8 80v274q0 66 -17.5 82.5t-87.5 23.5v30h245v-30q-62 -6 -78.5 -25.5t-16.5 -80.5v-259q0 -63 -10 -101q-41 -165 -237 -165
q-104 0 -163 44t-76 112q-9 31 -9 96v318q0 34 -19 45.5t-75 15.5zM252 905l17 22l121 -65l118 64l17 -21l-123 -112h-27zM278 789q21 0 33.5 -14t12.5 -34q0 -22 -13.5 -34t-34.5 -12q-18 0 -31 12.5t-13 33.5q0 20 12 34t34 14zM496 788q21 0 34 -14t13 -33t-12.5 -32.5
t-35.5 -13.5q-20 0 -32.5 13t-12.5 32q0 23 13 35.5t33 12.5z" />
    <glyph glyph-name="uni01DA" unicode="&#x1da;" horiz-adv-x="529" 
d="M506 37v-28q-122 -15 -142 -21l-4 5q-1 8 -1.5 26.5t-0.5 27.5q-74 -59 -145 -59q-53 0 -91 36.5t-38 103.5v248q0 27 -60 39v29q110 0 147 9q-5 -75 -5 -115v-216q0 -33 27.5 -57t66.5 -24q48 0 73 19q14 10 19.5 23t5.5 40v251q0 9 -3 14.5t-21 13.5t-52 13l4 29
q120 0 159 6q-4 -36 -4 -158v-220q0 -22 14 -27q14 -6 51 -8zM112 772l25 20l111 -82l109 82l23 -20q-72 -80 -121 -140h-26q-8 11 -121 140zM146 620q19 0 32.5 -15t13.5 -36q0 -23 -14 -36.5t-33 -13.5q-16 0 -31 14t-15 36q0 20 13 35.5t34 15.5zM347 619q18 0 33 -15.5
t15 -34.5q0 -20 -14.5 -35t-34.5 -15t-34.5 14t-14.5 35q0 24 15.5 37.5t34.5 13.5z" />
    <glyph glyph-name="uni01DB" unicode="&#x1db;" horiz-adv-x="724" 
d="M24 615v30h280v-30q-54 -2 -73.5 -14t-19.5 -47v-337q0 -60 12 -87q18 -44 61.5 -69.5t106.5 -25.5q75 0 114.5 30t54.5 90q8 32 8 80v274q0 66 -17.5 82.5t-87.5 23.5v30h245v-30q-62 -6 -78.5 -25.5t-16.5 -80.5v-259q0 -63 -10 -101q-41 -165 -237 -165
q-104 0 -163 44t-76 112q-9 31 -9 96v318q0 34 -19 45.5t-75 15.5zM276 792q21 0 33.5 -14t12.5 -34q0 -22 -13.5 -34t-34.5 -12q-18 0 -31 12.5t-13 33.5q0 20 12 34t34 14zM493 791q21 0 34 -14t13 -33t-12.5 -32.5t-35.5 -13.5q-20 0 -32.5 13t-12.5 32q0 23 13 35.5
t33 12.5zM412 797l-29 -13l-116 107l3 13q45 11 100 14z" />
    <glyph glyph-name="uni01DC" unicode="&#x1dc;" horiz-adv-x="529" 
d="M506 37v-28q-122 -15 -142 -21l-4 5q-1 8 -1.5 26.5t-0.5 27.5q-74 -59 -145 -59q-53 0 -91 36.5t-38 103.5v248q0 27 -60 39v29q110 0 147 9q-5 -75 -5 -115v-216q0 -33 27.5 -57t66.5 -24q48 0 73 19q14 10 19.5 23t5.5 40v251q0 9 -3 14.5t-21 13.5t-52 13l4 29
q120 0 159 6q-4 -36 -4 -158v-220q0 -22 14 -27q14 -6 51 -8zM149 622q19 0 32.5 -15t13.5 -36q0 -23 -14 -36.5t-33 -13.5q-16 0 -31 14t-15 36q0 20 13 35.5t34 15.5zM349 621q18 0 33 -15.5t15 -34.5q0 -20 -14.5 -35t-34.5 -15t-34.5 14t-14.5 35q0 24 15.5 37.5
t34.5 13.5zM275 646l-29 -12l-109 110v13q15 4 52.5 8t44.5 2z" />
    <glyph glyph-name="Gcaron" unicode="&#x1e6;" horiz-adv-x="724" 
d="M676 299v-31q-17 0 -41 -6q-32 -8 -32 -43v-152q0 -10 7 -14t27 -8v-22q-122 -39 -230 -39q-172 0 -265 98q-87 89 -87 245q0 170 128 267q89 67 219 67q80 0 157 -30q13 7 32 20h22q0 -36 8.5 -101.5t15.5 -95.5l-27 -8q-26 61 -50 97t-60 57q-42 26 -107 26
q-100 0 -165.5 -70.5t-65.5 -225.5q0 -149 78 -239q66 -73 169 -73q44 0 72 11q27 13 27 47v140q0 35 -35 44q-23 6 -68 9v30h271zM231 823l15 26q18 -7 71.5 -30t75.5 -32q14 6 46 19.5t59 24.5t44 18l12 -26q-57 -35 -150 -114h-25q-105 85 -148 114z" />
    <glyph glyph-name="gcaron" unicode="&#x1e7;" horiz-adv-x="484" 
d="M241 -197q80 0 128 34.5t48 80.5q0 61 -93 61q-128 0 -150 -3q-28 -4 -45 -22q-33 -36 -33 -66q0 -40 39 -61q40 -24 106 -24zM218 427q-27 0 -49 -22q-29 -31 -29 -100q0 -59 19 -92q22 -42 74 -42q37 0 55 26q25 32 25 100q0 130 -95 130zM228 456q52 0 102 -24
q66 40 108 40q25 0 39.5 -11.5t14.5 -26.5q0 -22 -13 -35t-25 -13q-8 0 -24 15q-4 4 -10 9.5t-9.5 9t-7.5 6.5t-7 4.5t-6 1.5q-13 0 -36 -18q45 -51 45 -112q0 -60 -38 -105q-48 -56 -135 -56q-44 0 -71 9q-31 -31 -31 -57q0 -17 18.5 -25.5t38.5 -8.5q11 0 51 1t79 1
q93 -1 130 -47q24 -29 24 -68q0 -77 -79 -137q-78 -55 -193 -55q-61 0 -106 21q-57 31 -57 82q0 50 90 122q-61 31 -61 75q0 23 21.5 53t54.5 54q-39 19 -60.5 55t-21.5 79q0 71 51 117q49 44 124 44zM97 697l25 19l109 -94l106 94l23 -19q-50 -69 -116 -167h-27
q-42 65 -120 167z" />
    <glyph glyph-name="uni01F1" unicode="&#x1f1;" horiz-adv-x="1352" 
d="M221 553v-419q0 -66 9 -73q29 -28 103 -28q99 0 161 77q68 84 68 217q0 163 -97 238q-61 48 -152 48q-69 0 -85 -14q-7 -7 -7 -46zM34 0v30q58 3 76 15t18 46v463q0 33 -19 45.5t-75 15.5v30h283q126 0 202 -40q73 -38 110.5 -108.5t37.5 -158.5q0 -143 -92 -236
q-46 -47 -114 -74.5t-148 -27.5h-279zM1109 0h-346v22q43 52 212 300t192 288h-222q-41 0 -64 -15q-40 -25 -96 -140l-29 10q33 102 45 190q54 -10 129 -10h251q59 0 103 2v-21q-39 -58 -187.5 -278t-210.5 -313h213q52 0 83 19q51 32 114 140l28 -11q-37 -82 -65 -189
q-72 6 -150 6z" />
    <glyph glyph-name="uni01F2" unicode="&#x1f2;" horiz-adv-x="1156" 
d="M221 553v-419q0 -66 9 -73q29 -28 103 -28q99 0 161 77q68 84 68 217q0 163 -97 238q-61 48 -152 48q-69 0 -85 -14q-7 -7 -7 -46zM34 0v30q58 3 76 15t18 46v463q0 33 -19 45.5t-75 15.5v30h283q126 0 202 -40q73 -38 110.5 -108.5t37.5 -158.5q0 -143 -92 -236
q-46 -47 -114 -74.5t-148 -27.5h-279zM1124 151l23 -12q-24 -48 -59 -142q-36 3 -103 3h-214v19q25 37 110 181.5t122 209.5h-105q-25 0 -40.5 -8.5t-33.5 -29.5q-23 -27 -49 -77l-26 10q36 102 42 151q54 -12 87 -12h227v-17q-30 -46 -112.5 -191t-114.5 -203h112
q36 0 70 34q34 35 64 84z" />
    <glyph glyph-name="uni01F3" unicode="&#x1f3;" horiz-adv-x="970" 
d="M368 116v195q0 39 -4.5 53.5t-18.5 29.5q-30 29 -82 29q-49 0 -79 -30q-47 -47 -47 -161q0 -104 45 -158q36 -42 91 -42q40 0 66 17q29 19 29 67zM514 35v-28q-110 -13 -136 -20l-5 3q-5 20 -5 44q-73 -46 -140 -46q-76 0 -129 59q-58 65 -58 165q0 127 100 199
q64 45 146 45q38 0 81 -10q0 167 -3 178q-9 22 -74 36v26q96 4 159 28l5 -2q-5 -57 -5 -84v-528q0 -43 9 -49q16 -14 55 -16zM937 151l23 -12q-28 -57 -59 -142q-33 3 -102 3h-215v19q25 37 110 181.5t122 209.5h-105q-24 0 -39.5 -8.5t-33.5 -29.5q-25 -30 -50 -77l-25 10
q36 109 41 151q54 -12 88 -12h226v-17q-30 -46 -112.5 -191t-114.5 -203h113q37 0 69 34q31 31 64 84z" />
    <glyph glyph-name="Aringacute" unicode="&#x1fa;" horiz-adv-x="675" 
d="M341 788q41 0 65 -18.5t24 -45.5q0 -28 -24.5 -46t-64.5 -18q-42 0 -65.5 18t-23.5 46q0 27 23.5 45.5t65.5 18.5zM339 759q-48 0 -48 -35q0 -17 13.5 -26.5t35.5 -9.5q48 0 48 38q0 15 -13.5 24t-35.5 9zM315 823l84 97q11 1 39.5 -10t40.5 -19v-15l-149 -72zM-6 0v30
q54 6 75 17t37 51q117 300 194 503q7 18 5 44h72q1 -4 8 -25q27 -69 71 -188.5t82.5 -225.5t44.5 -121q12 -31 32 -41t65 -14v-30h-265v30q38 4 51 7q28 8 18 37q-31 92 -58 162h-224q-46 -126 -52 -146q-7 -26 -0.5 -37t28.5 -15q35 -6 53 -8v-30h-237zM214 273h200
l-98 277q-81 -217 -102 -277z" />
    <glyph glyph-name="aringacute" unicode="&#x1fb;" horiz-adv-x="447" 
d="M214 614q43 0 64.5 -18t21.5 -45q0 -26 -22 -44t-64 -18t-63 18t-21 44q0 27 21 45t63 18zM213 584q-20 0 -33 -9t-13 -24q0 -32 47 -32t47 34q0 13 -14 22t-34 9zM187 653l103 105q17 -3 69 -36v-11l-154 -75zM429 60v-27q-20 -23 -47.5 -35.5t-44.5 -12.5q-47 0 -61 59
q-79 -59 -128 -59q-37 0 -66 31.5t-29 77.5q0 34 17 54t54 39q39 20 155 69q0 75 -1 82q-2 22 -25.5 46t-58.5 24q-9 0 -28 -9t-33 -20q-12 -9 -12 -14q0 -3 4 -11q14 -25 14 -38q0 -14 -16 -30t-36 -16q-17 0 -31 15t-14 36q0 27 44 59q51 37 92 56.5t58 19.5q68 0 104 -62
q17 -26 17 -88q0 -20 -1.5 -117.5t-1.5 -127.5q0 -18 24 -18q25 0 51 17zM278 228q-83 -36 -101 -48q-21 -14 -31 -27.5t-10 -37.5q0 -36 24 -60q16 -16 41 -16q32 0 56 21q17 14 18 41q3 58 3 127z" />
    <glyph glyph-name="AEacute" unicode="&#x1fc;" horiz-adv-x="958" 
d="M295 333h163v272q-74 -118 -163 -272zM238 0h-255v30q24 2 32 3q54 10 91 65q9 14 288 468q8 14 10.5 21t-2 13.5t-20.5 8.5q-47 5 -82 7v29h422q99 0 131 6q4 -79 26 -171l-27 -9q-48 106 -93 130q-18 9 -61 9h-118q-18 0 -23.5 -8t-5.5 -34v-235h101q45 0 60.5 22
t24.5 85h28q-4 -70 -4 -124q0 -48 4 -128h-29q-7 33 -9 43.5t-8.5 28.5t-14 22.5t-20 9t-32.5 4.5h-101v-190q0 -46 15.5 -58.5t69.5 -12.5h71q41 0 57 3t34 14q52 33 106 142l28 -10q-34 -82 -58 -188q-76 4 -143 4h-377v30q36 2 66 7q38 7 38 54v205h-185
q-16 -26 -112 -195q-16 -28 -11 -43.5t33 -21.5q8 -2 27 -3.5t28 -2.5v-30zM508 689l-16 22l140 133q11 0 42 -12.5t42 -19.5l-1 -16z" />
    <glyph glyph-name="aeacute" unicode="&#x1fd;" horiz-adv-x="688" 
d="M279 237q-82 -30 -120 -64q-23 -20 -23 -51q0 -44 23 -64q18 -19 39 -19q44 0 104 59q-22 51 -23 139zM631 104l17 -19q-65 -97 -180 -97q-101 0 -154 86q-95 -89 -165 -89q-37 0 -66.5 34t-29.5 83q0 30 16.5 49.5t49.5 37.5q69 40 161 74q0 68 -1 75q-2 22 -23.5 46
t-57.5 24q-10 0 -31 -8.5t-35 -19.5q-12 -9 -12 -14q0 -4 5 -12q14 -25 14 -38q0 -14 -16 -30t-36 -16q-17 0 -31 15t-14 36q0 27 44 59q53 38 94 56.5t58 18.5q32 0 59.5 -16.5t43.5 -42.5q60 60 138 60q80 0 125.5 -50t45.5 -113q0 -41 -9 -42q-27 -3 -285 -3v-9
q0 -108 46 -157q42 -43 95 -43q76 0 134 65zM358 278q124 0 176 3q19 1 25 10t6 28q0 38 -24 72.5t-73 34.5q-41 0 -72 -36.5t-38 -111.5zM332 517l-23 16l102 163q5 2 36 -7t48 -16l-1 -11z" />
    <glyph glyph-name="Oslashacute" unicode="&#x1fe;" horiz-adv-x="740" 
d="M533 817l-207 -106l-16 21l140 133q11 0 42 -12.5t42 -19.5zM622 670l-52 -77q114 -93 114 -265q0 -129 -71 -224q-42 -56 -103.5 -87.5t-136.5 -31.5q-100 0 -177 52l-55 -82l-27 20l55 82q-1 2 -4 4.5t-5 3.5q-104 96 -104 257q0 89 32.5 159.5t88.5 114.5
q84 65 189 65q100 0 177 -49l52 77zM213 122l295 438l-2 2q-54 63 -142 63q-65 0 -107 -32q-98 -74 -98 -248q0 -135 54 -223zM528 531l-294 -438q59 -72 151 -72q62 0 102 32q94 73 94 261q0 132 -53 217z" />
    <glyph glyph-name="oslashacute" unicode="&#x1ff;" horiz-adv-x="528" 
d="M389 662l-162 -145l-23 16l102 163q5 2 36 -7t48 -16zM443 458l-35 -51q78 -67 78 -184q0 -101 -62.5 -170t-160.5 -69q-69 0 -122 36l-42 -61l-26 20l43 61q-75 69 -75 179q0 106 65.5 171.5t159.5 65.5q67 0 117 -32l36 52zM155 97l197 283q-34 46 -93 46
q-54 0 -89.5 -53t-35.5 -147q0 -79 21 -129zM369 351l-197 -285q35 -51 101 -51q53 0 87 50t34 147q0 83 -25 139z" />
    <glyph glyph-name="uni0218" unicode="&#x218;" horiz-adv-x="543" 
d="M57 198l30 7q35 -110 100 -157q37 -27 84 -27q58 0 90 33t32 82q0 48 -29 81t-103 65q-103 45 -141.5 91t-38.5 116q0 68 51.5 120t146.5 52q67 0 125 -28q4 2 29 20h21q-1 -59 23 -198l-28 -7q-18 51 -45 93t-53 60q-35 24 -76 24q-53 0 -81.5 -31t-28.5 -77
q0 -50 27 -81t106 -64q106 -44 145.5 -90t39.5 -117q0 -76 -59 -128t-155 -52q-46 0 -124 20q-20 6 -55 -2q-7 81 -33 195zM214 -279l-8 28q74 27 74 64q0 15 -10.5 23.5t-39.5 12.5q-33 5 -33 36q0 17 14 30.5t38 13.5q33 0 58.5 -23.5t25.5 -66.5q0 -49 -35.5 -78.5
t-83.5 -39.5z" />
    <glyph glyph-name="uni0219" unicode="&#x219;" horiz-adv-x="367" 
d="M329 311l-30 -6q-18 59 -53 92q-27 27 -68 27q-27 0 -45.5 -19t-18.5 -48q0 -32 20 -52t69 -44q70 -33 98.5 -64t28.5 -79q0 -57 -40.5 -93.5t-105.5 -36.5q-31 0 -89 14q-14 3 -39 -1q-5 60 -26 143l29 9q15 -64 64 -109q28 -25 66 -25q26 0 45.5 15.5t19.5 52.5
q0 30 -20 49.5t-80 49.5t-85.5 62.5t-25.5 80.5q0 55 40 91t107 36q39 0 80 -15q13 4 21 10h16q4 -56 22 -140zM140 -278l-8 28q74 27 74 64q0 15 -10.5 23.5t-39.5 12.5q-33 7 -33 37q0 17 14 30.5t38 13.5q33 0 58.5 -23.5t25.5 -66.5q0 -49 -35.5 -79t-83.5 -40z" />
    <glyph glyph-name="uni021A" unicode="&#x21a;" horiz-adv-x="681" 
d="M490 0h-300v30q63 3 83.5 13.5t20.5 47.5v519h-96q-32 0 -53 -16q-44 -34 -82 -128l-27 8q22 127 24 181q41 -10 116 -10h330q73 0 116 10q1 -62 24 -181l-27 -7q-41 94 -83 127q-21 16 -52 16h-97v-519q0 -36 19 -45.5t84 -15.5v-30zM284 -261l-8 28q74 27 74 64
q0 15 -10.5 23.5t-39.5 12.5q-33 7 -33 37q0 17 14 30.5t38 13.5q33 0 58.5 -23.5t25.5 -66.5q0 -49 -35.5 -79t-83.5 -40z" />
    <glyph glyph-name="uni021B" unicode="&#x21b;" horiz-adv-x="323" 
d="M301 67v-28q-44 -49 -108 -49q-44 0 -77 26.5t-33 91.5v287h-57v22q28 16 63.5 49.5t62.5 70.5h26q-8 -46 -10 -93h135q5 -30 -7 -49h-131v-284q0 -33 17 -51t45 -18q41 0 74 25zM122 -274l-8 28q74 27 74 64q0 15 -10.5 23.5t-39.5 12.5q-33 7 -33 37q0 17 14 30.5
t38 13.5q33 0 58.5 -23.5t25.5 -66.5q0 -49 -35.5 -79t-83.5 -40z" />
    <glyph glyph-name="uni021C" unicode="&#x21c;" horiz-adv-x="581" 
d="M158 286v29q48 34 134.5 121.5t130.5 139.5h-240q-28 0 -52 -21t-57 -80l-25 10q41 102 51 165q35 -5 124 -5h285v-24q-32 -44 -118.5 -134t-127.5 -128q108 4 185 -43.5t77 -148.5q0 -61 -23.5 -109t-62.5 -76t-85 -42t-95 -14q-88 0 -153.5 36.5t-65.5 75.5
q0 21 18.5 38.5t42.5 17.5q31 0 50 -64q13 -44 31 -54q24 -14 72 -14q83 0 126 53t43 136q0 77 -40.5 118t-119.5 41q-50 0 -105 -24z" />
    <glyph glyph-name="uni021D" unicode="&#x21d;" horiz-adv-x="434" 
d="M101 97v29q45 42 107.5 118t102.5 133h-158q-22 0 -43.5 -16.5t-47.5 -64.5l-22 10q37 102 43 142q16 -4 94 -4h212v-18q-25 -41 -92 -124.5t-105 -126.5q86 -3 143 -51.5t57 -141.5q0 -97 -63 -162.5t-153 -65.5q-62 0 -109 28t-47 58q0 19 17 36t36 17q24 0 42 -57
q10 -36 24 -42q16 -7 37 -7q52 0 90 43.5t38 132.5q0 70 -36.5 111.5t-93.5 41.5q-38 0 -73 -19z" />
    <glyph glyph-name="uni0232" unicode="&#x232;" horiz-adv-x="609" 
d="M447 0h-280v30q61 4 77.5 15.5t16.5 45.5v146q0 21 -8 40q-17 35 -73 135t-84 146q-19 32 -36.5 41.5t-61.5 15.5v30h260v-29q-41 -4 -54 -8q-24 -6 -13 -28q14 -31 74.5 -141.5t71.5 -130.5q86 154 132 253q20 38 -14 45q-25 5 -66 9v30h229v-30q-50 -4 -70.5 -18.5
t-42.5 -54.5q-98 -172 -144 -265q-7 -16 -7 -40v-146q0 -37 17.5 -47t75.5 -14v-30zM188 782h266v-55h-266v55z" />
    <glyph glyph-name="uni0233" unicode="&#x233;" horiz-adv-x="476" 
d="M-7 414v30h218v-30q-35 -3 -45 -5q-23 -5 -14 -29q70 -186 112 -281q51 138 94 268q12 34 -14 40q-17 4 -55 7v30h180v-30q-22 -4 -31 -7t-19 -13t-18 -29q-36 -87 -122 -323q-12 -31 -29 -81t-23 -66q-28 -77 -55 -109t-65 -32q-22 0 -39.5 15.5t-17.5 36.5
q0 25 16.5 44t33.5 19q9 0 34 -20q13 -11 22 -11q11 0 25 31q18 44 41 121q-5 18 -69.5 177.5t-86.5 206.5q-8 17 -20 25.5t-19.5 9.5t-33.5 5zM127 626h248v-54h-248v54z" />
    <glyph glyph-name="uni0237" unicode="&#x237;" horiz-adv-x="254" 
d="M24 389v24q74 10 148 43l6 -5q-4 -50 -4 -101v-289q0 -112 -22 -156q-25 -53 -64 -92t-66 -56l-20 22q57 52 73.5 95.5t16.5 107.5v355q0 21 -13 30q-23 17 -55 22z" />
    <glyph glyph-name="uni0251" unicode="&#x251;" horiz-adv-x="528" 
d="M355 193v113q0 44 -8 63t-31 37q-24 17 -64 17q-52 0 -86 -51t-34 -147q0 -100 32 -144t73 -44q54 0 86 42t32 114zM518 52v-27q-28 -41 -86 -41q-28 0 -52 21.5t-24 76.5q-50 -97 -149 -97q-67 0 -116 62.5t-49 157.5q0 108 67.5 179.5t162.5 71.5q68 0 103 -26l50 26
h18q-5 -55 -5 -109v-258q0 -52 32 -52q26 0 48 15z" />
    <glyph glyph-name="uni0259" unicode="&#x259;" horiz-adv-x="460" 
d="M49 216h290q1 91 -37.5 137t-101.5 46q-44 0 -74 -16t-65 -50l-15 21q74 102 186 102q84 0 135.5 -66t51.5 -160q0 -115 -56.5 -180.5t-140.5 -65.5t-133 56.5t-49 142.5q0 33 9 33zM338 186h-193q-17 0 -17 -28q0 -62 26.5 -102t77.5 -40q95 0 106 170z" />
    <glyph glyph-name="uni0261" unicode="&#x261;" horiz-adv-x="511" 
d="M355 176v133q0 48 -10 67.5t-38 35.5q-20 12 -55 12q-52 0 -86 -52t-34 -144q0 -99 33 -145t79 -46q53 0 82 36.5t29 102.5zM422 456h21q-6 -68 -6 -109v-317q0 -76 -20 -132.5t-53 -86.5t-69 -43.5t-75 -13.5q-84 0 -127.5 30t-43.5 61q0 21 18.5 38t37.5 17
q31 0 43 -48q12 -45 29 -54q20 -10 45 -10q64 0 98.5 52.5t34.5 191.5v40q-28 -51 -62 -69t-79 -18q-70 0 -121 61.5t-51 158.5q0 113 66.5 182t163.5 69q73 0 104 -26q8 5 25.5 14.5t20.5 11.5z" />
    <glyph glyph-name="uni0275" unicode="&#x275;" horiz-adv-x="525" 
d="M391 211h-255q3 -84 38.5 -139.5t96.5 -55.5q114 0 120 195zM265 456q100 0 159 -67t59 -169q0 -95 -61 -165.5t-155 -70.5q-106 0 -166 69t-60 166q0 103 66 170t158 67zM136 244h252q-3 84 -39 132.5t-95 48.5q-54 0 -85.5 -46.5t-32.5 -134.5z" />
    <glyph glyph-name="uni02BB" unicode="&#x2bb;" horiz-adv-x="317" 
d="M224 710l11 -23q-87 -52 -87 -102q0 -11 4.5 -18.5t18 -13.5t20 -8t26.5 -7q10 -3 10 -25q0 -18 -15 -33t-39 -15q-31 0 -57 23t-26 69q0 54 45 95.5t89 57.5z" />
    <glyph glyph-name="uni02BC" unicode="&#x2bc;" horiz-adv-x="308" 
d="M88 464l-13 24q89 51 89 101q0 36 -72 48q-7 2 -7 24q0 17 15 32.5t39 15.5q31 0 57 -23t26 -69q0 -54 -45 -95.5t-89 -57.5z" />
    <glyph glyph-name="uni02BE" unicode="&#x2be;" 
d="M236 536v-37q-42 0 -67.5 27t-25.5 65t25.5 66t67.5 28v-39q-22 -1 -37.5 -16t-15.5 -39q0 -48 53 -55z" />
    <glyph glyph-name="uni02BF" unicode="&#x2bf;" 
d="M163 647v38q42 0 67 -27t25 -66t-24.5 -66t-67.5 -27v37q21 1 37 16.5t16 39.5q0 48 -53 55z" />
    <glyph glyph-name="circumflex" unicode="&#x2c6;" 
d="M331 538l-24 -19l-110 95l-106 -95l-23 19q73 102 117 168h26q41 -65 120 -168z" />
    <glyph glyph-name="caron" unicode="&#x2c7;" 
d="M68 692l25 19l109 -94l106 94l23 -19q-50 -69 -116 -167h-27q-42 65 -120 167z" />
    <glyph glyph-name="uni02C8" unicode="&#x2c8;" 
d="M170 700h56v-177h-56v177z" />
    <glyph glyph-name="uni02C9" unicode="&#x2c9;" 
d="M74 626h248v-54h-248v54z" />
    <glyph glyph-name="uni02CA" unicode="&#x2ca;" 
d="M186 517l-23 16l102 163q5 2 36 -7t48 -16l-1 -11z" />
    <glyph glyph-name="uni02CB" unicode="&#x2cb;" 
d="M240 530l-21 -13l-153 152l3 13q13 5 49 10.5t43 3.5z" />
    <glyph glyph-name="uni02CC" unicode="&#x2cc;" 
d="M170 -80h56v-177h-56v177z" />
    <glyph glyph-name="breve" unicode="&#x2d8;" 
d="M317 679l26 -5q-14 -60 -51 -96.5t-97 -36.5q-62 0 -97.5 36.5t-44.5 96.5l29 5q29 -70 117 -70q84 0 118 70z" />
    <glyph glyph-name="dotaccent" unicode="&#x2d9;" 
d="M145 605q0 21 14.5 39.5t40.5 18.5q23 0 37.5 -17.5t14.5 -40.5q0 -24 -15 -40t-38 -16q-25 0 -39.5 17t-14.5 39z" />
    <glyph glyph-name="ring" unicode="&#x2da;" 
d="M199 687q39 0 61.5 -25t22.5 -61q0 -35 -23 -59.5t-61 -24.5t-61 24.5t-23 59.5q0 36 22.5 61t61.5 25zM198 656q-20 0 -33.5 -15.5t-13.5 -39.5q0 -25 14 -39.5t34 -14.5q21 0 34.5 14.5t13.5 41.5q0 22 -14.5 37.5t-34.5 15.5z" />
    <glyph glyph-name="ogonek" unicode="&#x2db;" 
d="M242 7h28q-43 -34 -65.5 -72.5t-22.5 -62.5q0 -26 13.5 -40t35.5 -14q33 0 65 22l8 -24q-36 -54 -113 -54q-39 0 -62.5 23t-23.5 56q0 77 137 166z" />
    <glyph glyph-name="tilde" unicode="&#x2dc;" 
d="M333 661l25 -8q-6 -37 -29.5 -69t-66.5 -32q-30 0 -80 23q-43 18 -62 18q-21 0 -32.5 -10t-22.5 -35l-25 9q7 42 31 69.5t64 27.5q28 0 80 -21q43 -19 62 -19t32 9t24 38z" />
    <glyph glyph-name="hungarumlaut" unicode="&#x2dd;" 
d="M116 528l-21 14l80 153q6 2 34.5 -3.5t39.5 -12.5l1 -10zM278 528l-20 14l80 153q6 2 34.5 -3.5t40.5 -12.5l1 -10z" />
    <glyph glyph-name="gravecomb" unicode="&#x300;" horiz-adv-x="0" 
d="M42 530l-21 -13l-153 152l3 13q13 5 49 10.5t43 3.5z" />
    <glyph glyph-name="acutecomb" unicode="&#x301;" horiz-adv-x="0" 
d="M-12 517l-23 16l102 163q5 2 36 -7t48 -16l-1 -11z" />
    <glyph glyph-name="uni0302" unicode="&#x302;" horiz-adv-x="0" 
d="M133 538l-24 -19l-110 95l-106 -95l-23 19q73 102 117 168h26q41 -65 120 -168z" />
    <glyph glyph-name="tildecomb" unicode="&#x303;" horiz-adv-x="0" 
d="M135 661l25 -8q-6 -37 -29.5 -69t-66.5 -32q-30 0 -80 23q-43 18 -62 18q-21 0 -32.5 -10t-22.5 -35l-25 9q7 42 31 69.5t64 27.5q28 0 80 -21q43 -19 62 -19t32 9t24 38z" />
    <glyph glyph-name="uni0304" unicode="&#x304;" horiz-adv-x="0" 
d="M-124 626h248v-54h-248v54z" />
    <glyph glyph-name="uni0306" unicode="&#x306;" horiz-adv-x="0" 
d="M119 679l26 -5q-14 -60 -51 -96.5t-97 -36.5q-62 0 -97.5 36.5t-44.5 96.5l29 5q29 -70 117 -70q84 0 118 70z" />
    <glyph glyph-name="uni0307" unicode="&#x307;" horiz-adv-x="0" 
d="M-53 605q0 21 14.5 39.5t40.5 18.5q23 0 37.5 -17.5t14.5 -40.5q0 -24 -15 -40t-38 -16q-25 0 -39.5 17t-14.5 39z" />
    <glyph glyph-name="uni0308" unicode="&#x308;" horiz-adv-x="0" 
d="M-89 658q21 0 34 -15t13 -36q0 -24 -14.5 -36.5t-34.5 -12.5q-17 0 -31.5 13.5t-14.5 35.5q0 21 13.5 36t34.5 15zM91 657q22 0 35 -15t13 -35q0 -19 -14 -34t-35 -15q-19 0 -33.5 14t-14.5 34q0 24 14.5 37.5t34.5 13.5z" />
    <glyph glyph-name="hookabovecomb" unicode="&#x309;" horiz-adv-x="0" 
d="M-18 503l-17 25q64 42 64 79q0 19 -11 32t-34 13q-34 0 -61 -29l-16 23q42 60 109 60q34 0 58 -22t24 -56q0 -80 -116 -125z" />
    <glyph glyph-name="uni030A" unicode="&#x30a;" horiz-adv-x="0" 
d="M1 687q39 0 61.5 -25t22.5 -61q0 -35 -23 -59.5t-61 -24.5t-61 24.5t-23 59.5q0 36 22.5 61t61.5 25zM0 656q-20 0 -33.5 -15.5t-13.5 -39.5q0 -25 14 -39.5t34 -14.5q21 0 34.5 14.5t13.5 41.5q0 22 -14.5 37.5t-34.5 15.5z" />
    <glyph glyph-name="uni030B" unicode="&#x30b;" horiz-adv-x="0" 
d="M-82 528l-21 14l80 153q6 2 34.5 -3.5t39.5 -12.5l1 -10zM80 528l-20 14l80 153q6 2 34.5 -3.5t40.5 -12.5l1 -10z" />
    <glyph glyph-name="uni030C" unicode="&#x30c;" horiz-adv-x="0" 
d="M-130 692l25 19l109 -94l106 94l23 -19q-50 -69 -116 -167h-27q-42 65 -120 167z" />
    <glyph glyph-name="uni031B" unicode="&#x31b;" horiz-adv-x="0" 
d="M3 411l-14 22q46 16 46 37q0 12 -19 37q-13 16 -13 23q0 16 23.5 34.5t41.5 18.5q13 0 22.5 -14t9.5 -42q0 -40 -28 -72t-69 -44z" />
    <glyph glyph-name="dotbelowcomb" unicode="&#x323;" horiz-adv-x="0" 
d="M-1 -222q-22 0 -41.5 16.5t-19.5 45.5t17.5 47.5t44.5 18.5t44 -18t17 -47q0 -30 -19.5 -46.5t-42.5 -16.5z" />
    <glyph glyph-name="uni0324" unicode="&#x324;" horiz-adv-x="0" 
d="M-90 -82q21 0 34 -15t13 -36q0 -24 -14.5 -36.5t-34.5 -12.5q-17 0 -31.5 13.5t-14.5 35.5q0 21 13.5 36t34.5 15zM91 -83q22 0 35 -15t13 -35q0 -19 -14 -34t-35 -15q-19 0 -33.5 14t-14.5 34q0 24 14.5 37.5t34.5 13.5z" />
    <glyph glyph-name="uni0326" unicode="&#x326;" horiz-adv-x="0" 
d="M-47 -261l-8 28q74 27 74 64q0 15 -10.5 23.5t-39.5 12.5q-33 7 -33 37q0 17 14 30.5t38 13.5q33 0 58.5 -23.5t25.5 -66.5q0 -49 -35.5 -79t-83.5 -40z" />
    <glyph glyph-name="uni0327" unicode="&#x327;" horiz-adv-x="0" 
d="M10 5h32l-43 -49q92 -27 92 -96q0 -33 -29.5 -60.5t-71.5 -27.5q-32 0 -55.5 13t-23.5 31q0 10 10.5 20.5t24.5 11.5q1 0 2.5 -0.5l3 -1t3 -1.5t2.5 -2t2.5 -3t2.5 -3.5l3 -4.5t3.5 -4.5t3.5 -5.5t4 -6q12 -17 29 -17q13 0 22 11t9 26q0 59 -107 64l-1 16z" />
    <glyph glyph-name="uni0328" unicode="&#x328;" horiz-adv-x="0" 
d="M44 7h28q-43 -34 -65.5 -72.5t-22.5 -62.5q0 -26 13.5 -40t35.5 -14q33 0 65 22l8 -24q-36 -54 -113 -54q-39 0 -62.5 23t-23.5 56q0 77 137 166z" />
    <glyph glyph-name="uni032E" unicode="&#x32e;" horiz-adv-x="0" 
d="M118 -66l27 -5q-34 -133 -149 -133q-61 0 -97 36.5t-44 96.5l28 5q29 -70 117 -70q84 0 118 70z" />
    <glyph glyph-name="uni0331" unicode="&#x331;" horiz-adv-x="0" 
d="M-124 -102h248v-54h-248v54z" />
    <glyph glyph-name="uni0374" unicode="&#x374;" horiz-adv-x="201" 
d="M90 412h-30q3 168 3 245q12 6 56 6q33 0 46 -5q-30 -116 -75 -246z" />
    <glyph glyph-name="uni0375" unicode="&#x375;" horiz-adv-x="201" 
d="M126 204h28q-2 -112 -2 -245q-13 -7 -55 -7q-34 0 -47 5q34 123 76 247z" />
    <glyph glyph-name="uni037A" unicode="&#x37a;" 
d="M295 -124l26 -13q-28 -72 -95 -72q-35 0 -58 24t-23 70q0 20 4 54l83 3q-4 -24 -4 -53q0 -47 28 -47q22 0 39 34z" />
    <glyph glyph-name="uni037E" unicode="&#x37e;" horiz-adv-x="317" 
d="M157 297q-22 0 -41 16t-19 46q0 28 17.5 46.5t43.5 18.5q27 0 44.5 -18t17.5 -46q0 -31 -20 -47t-43 -16zM74 -151l-12 26q52 26 81 58.5t29 57.5q0 18 -14.5 30t-55.5 19q-13 3 -13 30q0 21 15 37.5t45 16.5t55.5 -24.5t25.5 -74.5q0 -37 -18.5 -70t-46 -54t-50.5 -33.5
t-41 -18.5z" />
    <glyph glyph-name="tonos" unicode="&#x384;" 
d="M200 517l-23 16l101 163q6 2 37 -7t48 -16l-1 -11z" />
    <glyph glyph-name="dieresistonos" unicode="&#x385;" 
d="M78 647q18 0 31 -14t13 -32q0 -24 -14 -36.5t-31 -12.5q-15 0 -29 13t-14 33t12 34.5t32 14.5zM337 647q18 0 30.5 -14t12.5 -32q0 -24 -13 -36.5t-31 -12.5q-16 0 -30 13t-14 33t12.5 34.5t32.5 14.5zM185 512l-27 6l27 187q7 2 43.5 1.5t45.5 -3.5l1 -10z" />
    <glyph glyph-name="Alphatonos" unicode="&#x386;" horiz-adv-x="704" 
d="M22 0v30q54 6 75 17t37 51q117 300 194 503q7 18 5 44h72q2 -5 4.5 -13.5t3.5 -11.5q27 -69 71 -188.5t82.5 -225.5t44.5 -121q12 -31 32 -41t65 -14v-30h-265v30q38 4 51 7q17 4 20.5 13t-2.5 24q-31 92 -58 162h-224q-46 -127 -52 -146q-7 -26 -0.5 -37t28.5 -15
q35 -6 53 -8v-30h-237zM242 273h200l-98 277q-81 -217 -102 -277zM51 409l-31 5l41 246q47 2 98 -13v-11z" />
    <glyph glyph-name="anoteleia" unicode="&#x387;" horiz-adv-x="284" 
d="M140 296q-24 0 -42 16t-18 46q0 29 17.5 47.5t44.5 18.5t44 -18t17 -47q0 -30 -19.5 -46.5t-43.5 -16.5z" />
    <glyph glyph-name="Epsilontonos" unicode="&#x388;" horiz-adv-x="828" 
d="M602 0h-377v30q66 3 85 14t19 47v463q0 37 -19 47t-75 14v30h358q99 0 131 6q4 -75 26 -171l-27 -8q-49 106 -93 129q-16 9 -61 9h-118q-18 0 -23.5 -8t-5.5 -33v-221h100q45 0 60 22t24 85h30q-4 -70 -4 -124q0 -47 4 -129h-31q-7 34 -9 44t-8.5 28.5t-13.5 23t-20 9
t-32 4.5h-100v-204q0 -47 15.5 -59.5t69.5 -12.5h71q41 0 57 3t34 14q51 33 106 143l28 -10q-11 -27 -30.5 -89.5t-27.5 -99.5q-76 4 -143 4zM51 409l-31 5l41 246q47 2 98 -13v-11z" />
    <glyph glyph-name="Etatonos" unicode="&#x389;" horiz-adv-x="961" 
d="M517 0h-281v30q56 4 75 15t19 46v463q0 36 -19 47t-75 14v30h281v-30q-56 -3 -75 -14.5t-19 -46.5v-199h317v199q0 35 -20 46.5t-74 14.5v30h280v-30q-27 -2 -40 -4t-27.5 -8t-20 -17.5t-5.5 -31.5v-463q0 -32 18 -45t75 -16v-30h-280v30q55 3 74.5 13.5t19.5 47.5v227
h-317v-227q0 -36 20 -46.5t74 -14.5v-30zM51 409l-31 5l41 246q47 2 98 -13v-11z" />
    <glyph glyph-name="Iotatonos" unicode="&#x38a;" horiz-adv-x="553" 
d="M518 0h-280v30q56 3 75 13.5t19 47.5v463q0 15 -5 26t-9 16.5t-20 10t-21.5 5t-29.5 2.5q-6 1 -9 1v30h280v-30q-51 -3 -72 -14t-21 -47v-463q0 -35 18.5 -46t74.5 -15v-30zM51 409l-31 5l41 246q47 2 98 -13v-11z" />
    <glyph glyph-name="Omicrontonos" unicode="&#x38c;" horiz-adv-x="887" 
d="M521 -16q-123 0 -214 81q-103 97 -103 257q0 89 32.5 159.5t88.5 114.5q82 65 189 65q138 0 227.5 -89.5t89.5 -243.5q0 -130 -71 -225q-42 -56 -103.5 -87.5t-135.5 -31.5zM532 20q62 0 102 33q90 69 90 261q0 157 -76 248q-52 63 -136 63q-64 0 -107 -32
q-94 -73 -94 -248q0 -150 65 -239q61 -86 156 -86zM51 409l-31 5l41 246q47 2 98 -13v-11z" />
    <glyph glyph-name="Upsilontonos" unicode="&#x38e;" horiz-adv-x="934" 
d="M705 0h-300v30q36 2 66 7q38 7 38 54v187q0 130 -16 180q-21 72 -66 111t-99 39q-56 0 -98 -19v27q46 39 134 39q45 0 83 -18.5t61 -47.5t37 -58t20 -56q20 54 51.5 92t64 56t58 25t47.5 7q82 0 120 -35v-29q-42 19 -98 19q-76 0 -125 -52.5t-70 -140.5q-11 -53 -11 -137
v-188q0 -47 40 -55q26 -5 63 -7v-30zM51 409l-31 5l41 246q47 2 98 -13v-11z" />
    <glyph glyph-name="Omegatonos" unicode="&#x38f;" horiz-adv-x="904" 
d="M453 0h-176q-26 0 -49 -0.5t-36.5 -1t-16.5 -0.5q-1 46 -21 174l27 6q22 -59 43 -79t47 -20h123l1 8q-189 89 -189 288q0 126 83 206t224 80q138 0 217 -79t79 -206q0 -91 -52.5 -165.5t-145.5 -124.5v-7h120q50 0 98 95l26 -7q-36 -116 -46 -169q-38 2 -94 2h-166l3 80
q150 92 150 295q0 120 -51 185t-146 65q-93 0 -143 -67.5t-50 -179.5q0 -196 141 -299v-79zM51 409l-31 5l41 246q47 2 98 -13v-11z" />
    <glyph glyph-name="iotadieresistonos" unicode="&#x390;" horiz-adv-x="250" 
d="M246 54v-30q-27 -36 -83 -36q-43 0 -62 29t-19 70v357h82v-362q0 -25 8.5 -34.5t27.5 -9.5q28 0 46 16zM5 647q18 0 31 -14t13 -32q0 -24 -14 -36.5t-31 -12.5q-15 0 -29 13t-14 33t12 34.5t32 14.5zM263 647q18 0 30.5 -14t12.5 -32q0 -24 -13 -36.5t-31 -12.5
q-16 0 -30 13t-14 33t12.5 34.5t32.5 14.5zM111 512l-27 6l28 187q7 2 43 1.5t46 -3.5v-10z" />
    <glyph glyph-name="Alpha" unicode="&#x391;" horiz-adv-x="675" 
d="M-6 0v30q54 6 75 17t37 51q117 300 194 503q7 18 5 44h72q1 -4 8 -25q27 -69 71 -188.5t82.5 -225.5t44.5 -121q12 -31 32 -41t65 -14v-30h-265v30q38 4 51 7q28 8 18 37q-31 92 -58 162h-224q-46 -126 -52 -146q-7 -26 -0.5 -37t28.5 -15q35 -6 53 -8v-30h-237zM214 273
h200l-98 277q-81 -217 -102 -277z" />
    <glyph glyph-name="Beta" unicode="&#x392;" horiz-adv-x="638" 
d="M221 329v-222q0 -46 13 -56q26 -19 81 -19q28 0 55 8t51 25t39 48t15 72q0 144 -185 144h-69zM221 573v-210h69q151 0 151 127q0 123 -144 123q-58 0 -69 -13q-7 -9 -7 -27zM34 0v30q58 4 76 15t18 46v463q0 34 -18.5 45.5t-75.5 15.5v30h270q93 0 144 -17
q91 -35 91 -126q0 -68 -44.5 -104t-102.5 -47q185 -25 185 -158q0 -93 -73 -143t-191 -50h-279z" />
    <glyph glyph-name="Gamma" unicode="&#x393;" horiz-adv-x="586" 
d="M325 0h-291v30q51 3 72.5 14t21.5 47v463q0 17 -4.5 28t-10 16.5t-21 9.5t-24.5 4.5t-34 2.5v30h376q80 0 112 4q-1 -21 8.5 -90t16.5 -95l-29 -8q-50 116 -85 139q-20 15 -56 15h-126q-19 0 -24.5 -6t-5.5 -27v-486q0 -37 19.5 -47t84.5 -14v-30z" />
    <glyph glyph-name="uni0394" unicode="&#x394;" horiz-adv-x="680" 
d="M524 0h-377q-67 0 -100 -3v36q8 14 59 133q108 249 179 430q9 23 15 51h61q6 -22 13 -36q93 -213 192 -432q57 -127 67 -146l-2 -36q-51 3 -107 3zM117 55h390q10 0 6 12q-14 33 -103 238t-105 244q-21 -56 -101 -249.5t-95 -234.5q-3 -10 8 -10z" />
    <glyph glyph-name="Epsilon" unicode="&#x395;" horiz-adv-x="627" 
d="M401 0h-377v30q66 3 85 14t19 47v463q0 37 -19 47t-75 14v30h358q99 0 131 6q4 -75 26 -171l-27 -8q-49 106 -93 129q-16 9 -61 9h-118q-18 0 -23.5 -8t-5.5 -33v-221h100q45 0 60 22t24 85h30q-4 -70 -4 -124q0 -47 4 -129h-31q-7 34 -9 44t-8.5 28.5t-13.5 23t-20 9
t-32 4.5h-100v-204q0 -47 15.5 -59.5t69.5 -12.5h71q41 0 57 3t34 14q51 33 106 143l28 -10q-11 -27 -30.5 -89.5t-27.5 -99.5q-76 4 -143 4z" />
    <glyph glyph-name="Zeta" unicode="&#x396;" horiz-adv-x="630" 
d="M387 0h-347v22q44 52 213.5 300.5t190.5 287.5h-221q-43 0 -64 -15q-40 -25 -96 -140l-29 10q35 111 45 190q54 -10 129 -10h251q59 0 103 2v-21q-18 -27 -399 -591h213q53 0 84 19q51 32 114 140l28 -11q-42 -94 -65 -189q-75 6 -150 6z" />
    <glyph glyph-name="Eta" unicode="&#x397;" horiz-adv-x="759" 
d="M315 0h-281v30q56 4 75 15t19 46v463q0 36 -19 47t-75 14v30h281v-30q-56 -3 -75 -14.5t-19 -46.5v-199h317v199q0 35 -20 46.5t-74 14.5v30h280v-30q-27 -2 -40 -4t-27.5 -8t-20 -17.5t-5.5 -31.5v-463q0 -32 18 -45t75 -16v-30h-280v30q55 3 74.5 13.5t19.5 47.5v227
h-317v-227q0 -36 20 -46.5t74 -14.5v-30z" />
    <glyph glyph-name="Theta" unicode="&#x398;" horiz-adv-x="745" 
d="M491 224h-27q-8 46 -19 58t-36 12h-72q-26 0 -36.5 -13t-17.5 -57h-27v209h28q8 -45 19.5 -56t41.5 -11h59q31 0 42.5 11t18.5 56h26v-209zM372 -15q-135 0 -225.5 95t-90.5 242q0 159 91 249t229 90q133 0 223 -92t90 -245q0 -150 -90 -244.5t-227 -94.5zM388 21
q91 0 143 76t52 216q0 157 -61.5 234.5t-158.5 77.5q-93 0 -147 -73.5t-54 -209.5q0 -152 60 -236.5t166 -84.5z" />
    <glyph glyph-name="Iota" unicode="&#x399;" horiz-adv-x="349" 
d="M314 0h-280v30q56 3 75 13.5t19 47.5v463q0 15 -5 26t-9 16.5t-20 10t-21.5 5t-29.5 2.5q-6 1 -9 1v30h280v-30q-51 -3 -72 -14t-21 -47v-463q0 -35 18.5 -46t74.5 -15v-30z" />
    <glyph glyph-name="Kappa" unicode="&#x39a;" horiz-adv-x="693" 
d="M315 0h-281v30q55 3 74.5 14t19.5 47v463q0 35 -19.5 46t-74.5 15v30h281v-30q-56 -3 -75 -15t-19 -46v-236q106 80 229 229q26 30 26 45q0 9 -19 14q-17 5 -57 9v30h249v-30q-55 -4 -85.5 -20t-71.5 -60q-24 -25 -79.5 -81t-79.5 -81q-3 -3 0 -10q14 -19 110 -129.5
t134 -150.5q45 -46 126 -53v-30h-281v30q5 1 15.5 2t18 2t11.5 2q19 7 6 27q-14 19 -98 119t-108 125q-5 5 -10 0l-36 -29v-187q0 -36 18.5 -46.5t75.5 -14.5v-30z" />
    <glyph glyph-name="Lambda" unicode="&#x39b;" horiz-adv-x="675" 
d="M231 0h-237v30q37 4 50 8q23 5 36 17t26 44q110 288 194 502q7 18 5 44h72q1 -4 8 -25q36 -95 116.5 -314t81.5 -221q10 -26 24 -36t41 -15q19 -4 33 -4v-30h-266v30q36 4 51 8q16 4 20 12t-2 24q-11 35 -168 476q-12 -34 -50.5 -136.5t-69 -187t-46.5 -135.5
q-7 -27 -0.5 -38t28.5 -15q35 -6 53 -8v-30z" />
    <glyph glyph-name="Mu" unicode="&#x39c;" horiz-adv-x="892" 
d="M275 0h-250v30q56 5 72.5 21t18.5 67q6 145 12 449q1 25 -15.5 32.5t-84.5 15.5v30h184q198 -414 240 -506q12 26 110 237.5t123 268.5h174v-30q-52 -2 -72.5 -14t-20.5 -47v-463q0 -10 2 -18t4 -14t8 -10t10 -6.5t14 -4.5l15 -3t19.5 -2.5t20.5 -2.5v-30h-281v30
q28 3 37 4t25 5t20.5 10t9 17t4.5 27q5 420 4 455q-10 -22 -117 -260t-128 -288h-27q-22 59 -243 551q-4 -139 -1 -435q1 -52 23 -66t90 -20v-30z" />
    <glyph glyph-name="Nu" unicode="&#x39d;" horiz-adv-x="741" 
d="M281 0h-252v30q61 5 80.5 25t19.5 84v399q0 25 -18 43q-16 17 -32.5 22.5t-59.5 11.5v30h163l397 -513v367q0 71 -18.5 90t-94.5 26v30h252v-30q-62 -4 -80 -26.5t-18 -88.5v-401q0 -76 3 -102h-65q-25 37 -63 87l-325 433v-378q0 -65 20.5 -84t90.5 -25v-30z" />
    <glyph glyph-name="Xi" unicode="&#x39e;" horiz-adv-x="655" 
d="M461 573h-280q-25 0 -43.5 -16.5t-44.5 -69.5l-26 7q27 105 34 156q32 -5 125 -5h212q97 0 126 4q-2 -52 11 -164l-27 -4q-21 57 -40 74.5t-47 17.5zM487 222h-26q-11 46 -20 59t-33 13h-168q-21 0 -31 -13t-21 -59h-30v214h26q12 -45 21 -57.5t29 -12.5h175q22 0 32 12
t21 59h25v-215zM557 0h-487q0 39 -17 168l27 4q21 -60 39 -80t45 -20h316q28 0 49 20t52 77l26 -8q-41 -122 -50 -161z" />
    <glyph glyph-name="Omicron" unicode="&#x39f;" horiz-adv-x="740" 
d="M373 -16q-123 0 -214 81q-103 97 -103 257q0 89 32.5 159.5t88.5 114.5q84 65 189 65q138 0 228 -89.5t90 -243.5q0 -130 -71 -225q-42 -56 -103.5 -87.5t-136.5 -31.5zM385 20q60 0 102 33q90 69 90 261q0 157 -76 248q-54 63 -137 63q-64 0 -106 -32q-95 -72 -95 -248
q0 -150 65 -239q61 -86 157 -86z" />
    <glyph glyph-name="Pi" unicode="&#x3a0;" horiz-adv-x="751" 
d="M315 0h-281v30q22 1 56 7q38 7 38 54v463q0 47 -41 54q-32 6 -53 7v30h682v-30q-23 -1 -52 -6q-41 -8 -41 -55v-463q0 -46 40 -54q29 -6 53 -7v-30h-280v30q22 1 56 7q38 7 38 55v495q0 22 -24 22h-263q-14 0 -18 -4t-4 -18v-496q0 -46 40 -54q29 -6 54 -7v-30z" />
    <glyph glyph-name="Rho" unicode="&#x3a1;" horiz-adv-x="611" 
d="M221 577v-277q0 -8 7 -12q10 -5 49 -5q178 0 178 173q0 157 -161 157q-39 0 -56 -7q-17 -4 -17 -29zM324 0h-290v30q56 4 75 14.5t19 46.5v463q0 16 -4.5 26.5t-9 16t-21 9.5t-24 5t-35.5 4v30h263q109 0 167 -28q94 -48 94 -153q0 -93 -66 -151q-72 -63 -216 -63
q-26 0 -55 3v-162q0 -35 18.5 -46t84.5 -15v-30z" />
    <glyph glyph-name="Sigma" unicode="&#x3a3;" horiz-adv-x="655" 
d="M425 0h-379v34q54 45 161 147t134 131q-22 25 -138 143.5t-161 160.5v29h398q73 0 116 7q2 -69 19 -173l-26 -5q-31 82 -56.5 109t-65.5 27h-253q10 -11 60.5 -62.5t112.5 -113.5l79 -79v-15q-213 -201 -276 -267h321q30 0 56.5 23t65.5 92l27 -11q-51 -115 -65 -181
q-49 4 -130 4z" />
    <glyph glyph-name="Tau" unicode="&#x3a4;" horiz-adv-x="681" 
d="M490 0h-300v30q63 3 83.5 13.5t20.5 47.5v519h-96q-32 0 -53 -16q-44 -34 -82 -128l-27 8q22 127 24 181q41 -10 116 -10h330q73 0 116 10q1 -62 24 -181l-27 -7q-41 94 -83 127q-21 16 -52 16h-97v-519q0 -36 19 -45.5t84 -15.5v-30z" />
    <glyph glyph-name="Upsilon" unicode="&#x3a5;" horiz-adv-x="731" 
d="M502 0h-300v30q36 2 66 7q38 7 38 54v187q0 130 -16 180q-21 72 -66 111t-99 39q-56 0 -98 -19v27q46 39 134 39q45 0 83 -18.5t61 -47.5t37 -58t20 -56q20 54 51.5 92t64 56t58 25t47.5 7q82 0 120 -35v-29q-42 19 -98 19q-76 0 -125 -52.5t-70 -140.5q-11 -53 -11 -137
v-188q0 -47 40 -55q26 -5 63 -7v-30z" />
    </font>
</defs>
</svg>
